<?xml version="1.0" encoding="UTF-8" standalone="no"?>
<!DOCTYPE svg PUBLIC "-//W3C//DTD SVG 1.1//EN"
 "http://www.w3.org/Graphics/SVG/1.1/DTD/svg11.dtd">
<!-- Generated by graphviz version 2.38.0 (20140413.2041)
 -->
<!-- Title: %3 Pages: 1 -->
<svg width="265pt" height="953pt"
 viewBox="0.00 0.00 265.35 953.23" xmlns="http://www.w3.org/2000/svg" xmlns:xlink="http://www.w3.org/1999/xlink">
<g id="graph0" class="graph" transform="scale(1 1) rotate(0) translate(4 949.235)">
<title>%3</title>
<polygon fill="white" stroke="none" points="-4,4 -4,-949.235 261.349,-949.235 261.349,4 -4,4"/>
<!-- 1 -->
<g id="node1" class="node"><title>1</title>
<polygon fill="lightgray" stroke="black" points="228,-945.235 207,-945.235 207,-927.235 228,-927.235 228,-945.235"/>
<text text-anchor="middle" x="217.5" y="-934.035" font-family="Times New Roman,serif" font-size="9.00">1</text>
</g>
<!-- 19 -->
<g id="node6" class="node"><title>19</title>
<ellipse fill="none" stroke="black" cx="91.5" cy="-872.85" rx="18.2703" ry="18.2703"/>
<text text-anchor="middle" x="91.5" y="-870.65" font-family="Times New Roman,serif" font-size="9.00">19</text>
</g>
<!-- 1&#45;&gt;19 -->
<g id="edge13" class="edge"><title>1&#45;&gt;19</title>
<path fill="none" stroke="green" d="M206.757,-930.001C186.954,-920.353 144.206,-899.527 116.704,-886.129"/>
<polygon fill="green" stroke="green" points="118.197,-882.963 107.674,-881.73 115.131,-889.256 118.197,-882.963"/>
</g>
<!-- 12 -->
<g id="node10" class="node"><title>12</title>
<ellipse fill="none" stroke="black" cx="217.5" cy="-872.85" rx="18.2703" ry="18.2703"/>
<text text-anchor="middle" x="217.5" y="-870.65" font-family="Times New Roman,serif" font-size="9.00">12</text>
</g>
<!-- 1&#45;&gt;12 -->
<g id="edge15" class="edge"><title>1&#45;&gt;12</title>
<path fill="none" stroke="green" d="M217.5,-927.21C217.5,-920.646 217.5,-910.956 217.5,-901.629"/>
<polygon fill="green" stroke="green" points="221,-901.438 217.5,-891.438 214,-901.438 221,-901.438"/>
</g>
<!-- 7 -->
<g id="node13" class="node"><title>7</title>
<ellipse fill="none" stroke="black" cx="242.5" cy="-800.08" rx="14.7" ry="14.7"/>
<text text-anchor="middle" x="242.5" y="-797.88" font-family="Times New Roman,serif" font-size="9.00">7</text>
</g>
<!-- 1&#45;&gt;7 -->
<g id="edge20" class="edge"><title>1&#45;&gt;7</title>
<path fill="none" stroke="green" d="M224.399,-927.135C231.031,-918.772 240.603,-905.035 244.5,-891.235 250.688,-869.32 249.198,-843.204 246.758,-824.736"/>
<polygon fill="green" stroke="green" points="250.217,-824.2 245.263,-814.835 243.296,-825.246 250.217,-824.2"/>
</g>
<!-- 2 -->
<g id="node2" class="node"><title>2</title>
<polygon fill="lightgray" stroke="black" points="21,-590.772 0,-590.772 0,-572.772 21,-572.772 21,-590.772"/>
<text text-anchor="middle" x="10.5" y="-579.572" font-family="Times New Roman,serif" font-size="9.00">2</text>
</g>
<!-- 5 -->
<g id="node5" class="node"><title>5</title>
<polygon fill="lightblue" stroke="black" points="67,-18 46,-18 46,-0 67,-0 67,-18"/>
<text text-anchor="middle" x="56.5" y="-6.8" font-family="Times New Roman,serif" font-size="9.00">5</text>
</g>
<!-- 2&#45;&gt;5 -->
<g id="edge1" class="edge"><title>2&#45;&gt;5</title>
<path fill="none" stroke="red" d="M10.5,-572.678C10.5,-550.829 10.5,-488.817 10.5,-437.233 10.5,-437.233 10.5,-437.233 10.5,-144.154 10.5,-100.008 33.0644,-51.8933 46.5859,-27.024"/>
<polygon fill="red" stroke="red" points="49.7306,-28.5723 51.5772,-18.1396 43.6277,-25.1437 49.7306,-28.5723"/>
</g>
<!-- 38 -->
<g id="node16" class="node"><title>38</title>
<ellipse fill="none" stroke="black" cx="56.5" cy="-509.002" rx="18.2703" ry="18.2703"/>
<text text-anchor="middle" x="56.5" y="-506.802" font-family="Times New Roman,serif" font-size="9.00">38</text>
</g>
<!-- 2&#45;&gt;38 -->
<g id="edge21" class="edge"><title>2&#45;&gt;38</title>
<path fill="none" stroke="green" d="M15.7768,-572.653C21.9715,-563.123 32.5186,-546.897 41.3268,-533.346"/>
<polygon fill="green" stroke="green" points="44.2854,-535.216 46.8008,-524.924 38.4163,-531.401 44.2854,-535.216"/>
</g>
<!-- 3 -->
<g id="node3" class="node"><title>3</title>
<polygon fill="lightgray" stroke="black" points="155,-809.08 134,-809.08 134,-791.08 155,-791.08 155,-809.08"/>
<text text-anchor="middle" x="144.5" y="-797.88" font-family="Times New Roman,serif" font-size="9.00">3</text>
</g>
<!-- 11 -->
<g id="node12" class="node"><title>11</title>
<ellipse fill="none" stroke="black" cx="145.5" cy="-727.311" rx="18.2703" ry="18.2703"/>
<text text-anchor="middle" x="145.5" y="-725.111" font-family="Times New Roman,serif" font-size="9.00">11</text>
</g>
<!-- 3&#45;&gt;11 -->
<g id="edge33" class="edge"><title>3&#45;&gt;11</title>
<path fill="none" stroke="red" d="M144.615,-790.962C144.736,-782.396 144.933,-768.421 145.111,-755.84"/>
<polygon fill="red" stroke="red" points="148.612,-755.799 145.254,-745.75 141.613,-755.7 148.612,-755.799"/>
</g>
<!-- 4 -->
<g id="node4" class="node"><title>4</title>
<polygon fill="lightgray" stroke="black" points="181,-881.85 160,-881.85 160,-863.85 181,-863.85 181,-881.85"/>
<text text-anchor="middle" x="170.5" y="-870.65" font-family="Times New Roman,serif" font-size="9.00">4</text>
</g>
<!-- 16 -->
<g id="node8" class="node"><title>16</title>
<ellipse fill="none" stroke="black" cx="59.5" cy="-727.311" rx="18.2703" ry="18.2703"/>
<text text-anchor="middle" x="59.5" y="-725.111" font-family="Times New Roman,serif" font-size="9.00">16</text>
</g>
<!-- 4&#45;&gt;16 -->
<g id="edge14" class="edge"><title>4&#45;&gt;16</title>
<path fill="none" stroke="red" d="M163.102,-863.715C153.818,-853.406 137.534,-834.986 124.5,-818.465 106.937,-796.203 88.1191,-769.792 75.2742,-751.331"/>
<polygon fill="red" stroke="red" points="78.0492,-749.191 69.48,-742.96 72.2935,-753.175 78.0492,-749.191"/>
</g>
<!-- 20 -->
<g id="node9" class="node"><title>20</title>
<ellipse fill="none" stroke="black" cx="191.5" cy="-800.08" rx="18.2703" ry="18.2703"/>
<text text-anchor="middle" x="191.5" y="-797.88" font-family="Times New Roman,serif" font-size="9.00">20</text>
</g>
<!-- 4&#45;&gt;20 -->
<g id="edge7" class="edge"><title>4&#45;&gt;20</title>
<path fill="none" stroke="red" d="M172.909,-863.732C175.51,-854.965 179.793,-840.534 183.592,-827.73"/>
<polygon fill="red" stroke="red" points="187.005,-828.532 186.494,-817.95 180.294,-826.541 187.005,-828.532"/>
</g>
<!-- 4&#45;&gt;7 -->
<g id="edge22" class="edge"><title>4&#45;&gt;7</title>
<path fill="none" stroke="red" d="M178.759,-863.732C189.854,-852.826 209.87,-833.153 224.52,-818.753"/>
<polygon fill="red" stroke="red" points="227.338,-820.891 232.016,-811.385 222.431,-815.899 227.338,-820.891"/>
</g>
<!-- 30 -->
<g id="node7" class="node"><title>30</title>
<ellipse fill="none" stroke="black" cx="59.5" cy="-800.08" rx="18.2703" ry="18.2703"/>
<text text-anchor="middle" x="59.5" y="-797.88" font-family="Times New Roman,serif" font-size="9.00">30</text>
</g>
<!-- 19&#45;&gt;30 -->
<g id="edge27" class="edge"><title>19&#45;&gt;30</title>
<path fill="none" stroke="red" d="M84.2387,-855.791C80.311,-847.105 75.3697,-836.177 70.938,-826.376"/>
<polygon fill="red" stroke="red" points="74.0418,-824.745 66.7326,-817.075 67.6636,-827.629 74.0418,-824.745"/>
</g>
<!-- 30&#45;&gt;16 -->
<g id="edge28" class="edge"><title>30&#45;&gt;16</title>
<path fill="none" stroke="green" d="M59.5,-781.587C59.5,-773.904 59.5,-764.695 59.5,-756.111"/>
<polygon fill="green" stroke="green" points="63.0001,-756.095 59.5,-746.095 56.0001,-756.095 63.0001,-756.095"/>
</g>
<!-- 6 -->
<g id="node11" class="node"><title>6</title>
<ellipse fill="none" stroke="black" cx="58.5" cy="-654.541" rx="14.7" ry="14.7"/>
<text text-anchor="middle" x="58.5" y="-652.341" font-family="Times New Roman,serif" font-size="9.00">6</text>
</g>
<!-- 16&#45;&gt;6 -->
<g id="edge2" class="edge"><title>16&#45;&gt;6</title>
<path fill="none" stroke="green" d="M59.2528,-708.817C59.1284,-700.014 58.9757,-689.207 58.8404,-679.632"/>
<polygon fill="green" stroke="green" points="62.3385,-679.467 58.6975,-669.518 55.3392,-679.566 62.3385,-679.467"/>
</g>
<!-- 20&#45;&gt;11 -->
<g id="edge8" class="edge"><title>20&#45;&gt;11</title>
<path fill="none" stroke="red" d="M181.745,-784.072C175.646,-774.689 167.662,-762.407 160.741,-751.758"/>
<polygon fill="red" stroke="red" points="163.626,-749.775 155.241,-743.298 157.757,-753.589 163.626,-749.775"/>
</g>
<!-- 37 -->
<g id="node23" class="node"><title>37</title>
<ellipse fill="none" stroke="black" cx="111.5" cy="-363.463" rx="18.2703" ry="18.2703"/>
<text text-anchor="middle" x="111.5" y="-361.263" font-family="Times New Roman,serif" font-size="9.00">37</text>
</g>
<!-- 20&#45;&gt;37 -->
<g id="edge26" class="edge"><title>20&#45;&gt;37</title>
<path fill="none" stroke="green" d="M192.107,-781.405C192.984,-754.317 194.5,-700.905 194.5,-655.541 194.5,-655.541 194.5,-655.541 194.5,-508.002 194.5,-457.914 156.156,-409.603 131.592,-383.793"/>
<polygon fill="green" stroke="green" points="133.969,-381.218 124.469,-376.528 128.971,-386.119 133.969,-381.218"/>
</g>
<!-- 12&#45;&gt;7 -->
<g id="edge16" class="edge"><title>12&#45;&gt;7</title>
<path fill="none" stroke="green" d="M223.425,-855.078C226.717,-845.759 230.86,-834.032 234.443,-823.889"/>
<polygon fill="green" stroke="green" points="237.756,-825.017 237.787,-814.423 231.156,-822.686 237.756,-825.017"/>
</g>
<!-- 33 -->
<g id="node15" class="node"><title>33</title>
<ellipse fill="none" stroke="black" cx="57.5" cy="-581.772" rx="18.2703" ry="18.2703"/>
<text text-anchor="middle" x="57.5" y="-579.572" font-family="Times New Roman,serif" font-size="9.00">33</text>
</g>
<!-- 6&#45;&gt;33 -->
<g id="edge9" class="edge"><title>6&#45;&gt;33</title>
<path fill="none" stroke="green" d="M58.3024,-639.559C58.1854,-631.276 58.0329,-620.487 57.8924,-610.541"/>
<polygon fill="green" stroke="green" points="61.3878,-610.186 57.7468,-600.237 54.3885,-610.285 61.3878,-610.186"/>
</g>
<!-- 32 -->
<g id="node14" class="node"><title>32</title>
<ellipse fill="none" stroke="black" cx="145.5" cy="-654.541" rx="18.2703" ry="18.2703"/>
<text text-anchor="middle" x="145.5" y="-652.341" font-family="Times New Roman,serif" font-size="9.00">32</text>
</g>
<!-- 11&#45;&gt;32 -->
<g id="edge5" class="edge"><title>11&#45;&gt;32</title>
<path fill="none" stroke="green" d="M145.5,-708.817C145.5,-701.135 145.5,-691.926 145.5,-683.341"/>
<polygon fill="green" stroke="green" points="149,-683.325 145.5,-673.325 142,-683.325 149,-683.325"/>
</g>
<!-- 31 -->
<g id="node18" class="node"><title>31</title>
<ellipse fill="none" stroke="black" cx="145.5" cy="-581.772" rx="18.2703" ry="18.2703"/>
<text text-anchor="middle" x="145.5" y="-579.572" font-family="Times New Roman,serif" font-size="9.00">31</text>
</g>
<!-- 32&#45;&gt;31 -->
<g id="edge6" class="edge"><title>32&#45;&gt;31</title>
<path fill="none" stroke="red" d="M145.5,-636.048C145.5,-628.365 145.5,-619.156 145.5,-610.572"/>
<polygon fill="red" stroke="red" points="149,-610.556 145.5,-600.556 142,-610.556 149,-610.556"/>
</g>
<!-- 33&#45;&gt;38 -->
<g id="edge11" class="edge"><title>33&#45;&gt;38</title>
<path fill="none" stroke="red" d="M57.2528,-563.278C57.1443,-555.596 57.0141,-546.387 56.8928,-537.802"/>
<polygon fill="red" stroke="red" points="60.3923,-537.736 56.7513,-527.786 53.393,-537.834 60.3923,-537.736"/>
</g>
<!-- 21 -->
<g id="node17" class="node"><title>21</title>
<ellipse fill="none" stroke="black" cx="56.5" cy="-436.233" rx="18.2703" ry="18.2703"/>
<text text-anchor="middle" x="56.5" y="-434.033" font-family="Times New Roman,serif" font-size="9.00">21</text>
</g>
<!-- 38&#45;&gt;21 -->
<g id="edge12" class="edge"><title>38&#45;&gt;21</title>
<path fill="none" stroke="green" d="M56.5,-490.508C56.5,-482.826 56.5,-473.617 56.5,-465.033"/>
<polygon fill="green" stroke="green" points="60.0001,-465.016 56.5,-455.016 53.0001,-465.016 60.0001,-465.016"/>
</g>
<!-- 56 -->
<g id="node19" class="node"><title>56</title>
<ellipse fill="none" stroke="black" cx="56.5" cy="-363.463" rx="18.2703" ry="18.2703"/>
<text text-anchor="middle" x="56.5" y="-361.263" font-family="Times New Roman,serif" font-size="9.00">56</text>
</g>
<!-- 21&#45;&gt;56 -->
<g id="edge29" class="edge"><title>21&#45;&gt;56</title>
<path fill="none" stroke="green" d="M56.5,-417.739C56.5,-410.057 56.5,-400.847 56.5,-392.263"/>
<polygon fill="green" stroke="green" points="60.0001,-392.247 56.5,-382.247 53.0001,-392.247 60.0001,-392.247"/>
</g>
<!-- 21&#45;&gt;37 -->
<g id="edge19" class="edge"><title>21&#45;&gt;37</title>
<path fill="none" stroke="green" d="M67.3662,-421.251C75.0499,-411.364 85.5087,-397.907 94.3163,-386.574"/>
<polygon fill="green" stroke="green" points="97.2834,-388.459 100.656,-378.416 91.7563,-384.164 97.2834,-388.459"/>
</g>
<!-- 47 -->
<g id="node21" class="node"><title>47</title>
<ellipse fill="none" stroke="black" cx="148.5" cy="-509.002" rx="18.2703" ry="18.2703"/>
<text text-anchor="middle" x="148.5" y="-506.802" font-family="Times New Roman,serif" font-size="9.00">47</text>
</g>
<!-- 31&#45;&gt;47 -->
<g id="edge24" class="edge"><title>31&#45;&gt;47</title>
<path fill="none" stroke="green" d="M146.242,-563.278C146.567,-555.596 146.958,-546.387 147.322,-537.802"/>
<polygon fill="green" stroke="green" points="150.819,-537.925 147.746,-527.786 143.826,-537.629 150.819,-537.925"/>
</g>
<!-- 10 -->
<g id="node22" class="node"><title>10</title>
<ellipse fill="none" stroke="black" cx="111.5" cy="-436.233" rx="18.2703" ry="18.2703"/>
<text text-anchor="middle" x="111.5" y="-434.033" font-family="Times New Roman,serif" font-size="9.00">10</text>
</g>
<!-- 31&#45;&gt;10 -->
<g id="edge4" class="edge"><title>31&#45;&gt;10</title>
<path fill="none" stroke="green" d="M137.023,-565.367C131.685,-554.952 125.139,-540.719 121.5,-527.387 115.91,-506.91 113.435,-483.003 112.343,-464.955"/>
<polygon fill="green" stroke="green" points="115.831,-464.63 111.837,-454.817 108.84,-464.979 115.831,-464.63"/>
</g>
<!-- 36 -->
<g id="node20" class="node"><title>36</title>
<ellipse fill="none" stroke="black" cx="56.5" cy="-290.693" rx="18.2703" ry="18.2703"/>
<text text-anchor="middle" x="56.5" y="-288.493" font-family="Times New Roman,serif" font-size="9.00">36</text>
</g>
<!-- 56&#45;&gt;36 -->
<g id="edge30" class="edge"><title>56&#45;&gt;36</title>
<path fill="none" stroke="green" d="M56.5,-344.969C56.5,-337.287 56.5,-328.078 56.5,-319.494"/>
<polygon fill="green" stroke="green" points="60.0001,-319.477 56.5,-309.477 53.0001,-319.477 60.0001,-319.477"/>
</g>
<!-- 47&#45;&gt;10 -->
<g id="edge25" class="edge"><title>47&#45;&gt;10</title>
<path fill="none" stroke="green" d="M140.289,-492.296C135.642,-483.409 129.726,-472.093 124.467,-462.034"/>
<polygon fill="green" stroke="green" points="127.423,-460.135 119.689,-452.895 121.22,-463.378 127.423,-460.135"/>
</g>
<!-- 10&#45;&gt;37 -->
<g id="edge10" class="edge"><title>10&#45;&gt;37</title>
<path fill="none" stroke="green" d="M111.5,-417.739C111.5,-410.057 111.5,-400.847 111.5,-392.263"/>
<polygon fill="green" stroke="green" points="115,-392.247 111.5,-382.247 108,-392.247 115,-392.247"/>
</g>
<!-- 45 -->
<g id="node24" class="node"><title>45</title>
<ellipse fill="none" stroke="black" cx="111.5" cy="-290.693" rx="18.2703" ry="18.2703"/>
<text text-anchor="middle" x="111.5" y="-288.493" font-family="Times New Roman,serif" font-size="9.00">45</text>
</g>
<!-- 37&#45;&gt;45 -->
<g id="edge17" class="edge"><title>37&#45;&gt;45</title>
<path fill="none" stroke="green" d="M111.5,-344.969C111.5,-337.287 111.5,-328.078 111.5,-319.494"/>
<polygon fill="green" stroke="green" points="115,-319.477 111.5,-309.477 108,-319.477 115,-319.477"/>
</g>
<!-- 28 -->
<g id="node25" class="node"><title>28</title>
<ellipse fill="none" stroke="black" cx="102.5" cy="-217.924" rx="18.2703" ry="18.2703"/>
<text text-anchor="middle" x="102.5" y="-215.724" font-family="Times New Roman,serif" font-size="9.00">28</text>
</g>
<!-- 45&#45;&gt;28 -->
<g id="edge18" class="edge"><title>45&#45;&gt;28</title>
<path fill="none" stroke="green" d="M109.275,-272.2C108.283,-264.401 107.092,-255.029 105.986,-246.334"/>
<polygon fill="green" stroke="green" points="109.433,-245.695 104.699,-236.216 102.489,-246.578 109.433,-245.695"/>
</g>
<!-- 28&#45;&gt;5 -->
<g id="edge3" class="edge"><title>28&#45;&gt;5</title>
<path fill="none" stroke="red" d="M92.9772,-201.638C86.9789,-191.273 79.616,-177.051 75.5,-163.539 61.1231,-116.342 57.5958,-57.8241 56.7502,-28.5323"/>
<polygon fill="red" stroke="red" points="60.2423,-28.1193 56.532,-18.1954 53.2439,-28.2671 60.2423,-28.1193"/>
</g>
<!-- 34 -->
<g id="node26" class="node"><title>34</title>
<ellipse fill="none" stroke="black" cx="102.5" cy="-145.154" rx="18.2703" ry="18.2703"/>
<text text-anchor="middle" x="102.5" y="-142.954" font-family="Times New Roman,serif" font-size="9.00">34</text>
</g>
<!-- 28&#45;&gt;34 -->
<g id="edge23" class="edge"><title>28&#45;&gt;34</title>
<path fill="none" stroke="green" d="M102.5,-199.43C102.5,-191.748 102.5,-182.539 102.5,-173.955"/>
<polygon fill="green" stroke="green" points="106,-173.938 102.5,-163.938 99.0001,-173.938 106,-173.938"/>
</g>
<!-- 60 -->
<g id="node27" class="node"><title>60</title>
<ellipse fill="none" stroke="black" cx="102.5" cy="-72.3848" rx="18.2703" ry="18.2703"/>
<text text-anchor="middle" x="102.5" y="-70.1848" font-family="Times New Roman,serif" font-size="9.00">60</text>
</g>
<!-- 34&#45;&gt;60 -->
<g id="edge31" class="edge"><title>34&#45;&gt;60</title>
<path fill="none" stroke="red" d="M102.5,-126.661C102.5,-118.978 102.5,-109.769 102.5,-101.185"/>
<polygon fill="red" stroke="red" points="106,-101.169 102.5,-91.1687 99.0001,-101.169 106,-101.169"/>
</g>
<!-- 60&#45;&gt;5 -->
<g id="edge32" class="edge"><title>60&#45;&gt;5</title>
<path fill="none" stroke="red" d="M91.8311,-57.1476C84.9927,-48.0221 76.0895,-36.1412 68.9314,-26.5892"/>
<polygon fill="red" stroke="red" points="71.5254,-24.2141 62.7277,-18.3105 65.9237,-28.4119 71.5254,-24.2141"/>
</g>
</g>
</svg>
