<?xml version="1.0" encoding="UTF-8" standalone="no"?>
<!DOCTYPE svg PUBLIC "-//W3C//DTD SVG 1.1//EN"
 "http://www.w3.org/Graphics/SVG/1.1/DTD/svg11.dtd">
<!-- Generated by graphviz version 2.38.0 (20140413.2041)
 -->
<!-- Title: %3 Pages: 1 -->
<svg width="180pt" height="298pt"
 viewBox="0.00 0.00 179.77 298.31" xmlns="http://www.w3.org/2000/svg" xmlns:xlink="http://www.w3.org/1999/xlink">
<g id="graph0" class="graph" transform="scale(1 1) rotate(0) translate(4 294.309)">
<title>%3</title>
<polygon fill="white" stroke="none" points="-4,4 -4,-294.309 175.77,-294.309 175.77,4 -4,4"/>
<!-- 1 -->
<g id="node1" class="node"><title>1</title>
<polygon fill="lightgray" stroke="black" points="53.8848,-290.309 32.8848,-290.309 32.8848,-272.309 53.8848,-272.309 53.8848,-290.309"/>
<text text-anchor="middle" x="43.3848" y="-279.109" font-family="Times New Roman,serif" font-size="9.00">1</text>
</g>
<!-- 16 -->
<g id="node6" class="node"><title>16</title>
<ellipse fill="none" stroke="black" cx="18.3848" cy="-217.924" rx="18.2703" ry="18.2703"/>
<text text-anchor="middle" x="18.3848" y="-215.724" font-family="Times New Roman,serif" font-size="9.00">16</text>
</g>
<!-- 1&#45;&gt;16 -->
<g id="edge7" class="edge"><title>1&#45;&gt;16</title>
<path fill="none" stroke="green" d="M40.1165,-272.284C37.2576,-265.264 32.9431,-254.67 28.91,-244.768"/>
<polygon fill="green" stroke="green" points="32.0485,-243.194 25.0351,-235.253 25.5655,-245.835 32.0485,-243.194"/>
</g>
<!-- 7 -->
<g id="node10" class="node"><title>7</title>
<ellipse fill="none" stroke="black" cx="69.3848" cy="-217.924" rx="14.7" ry="14.7"/>
<text text-anchor="middle" x="69.3848" y="-215.724" font-family="Times New Roman,serif" font-size="9.00">7</text>
</g>
<!-- 1&#45;&gt;7 -->
<g id="edge5" class="edge"><title>1&#45;&gt;7</title>
<path fill="none" stroke="red" d="M46.7838,-272.284C50.1141,-264.421 55.3435,-252.075 59.9337,-241.237"/>
<polygon fill="red" stroke="red" points="63.2193,-242.454 63.8967,-231.881 56.7736,-239.724 63.2193,-242.454"/>
</g>
<!-- 2 -->
<g id="node2" class="node"><title>2</title>
<polygon fill="lightgray" stroke="black" points="116.885,-81.3848 95.8848,-81.3848 95.8848,-63.3848 116.885,-63.3848 116.885,-81.3848"/>
<text text-anchor="middle" x="106.385" y="-70.1848" font-family="Times New Roman,serif" font-size="9.00">2</text>
</g>
<!-- 5 -->
<g id="node5" class="node"><title>5</title>
<polygon fill="lightblue" stroke="black" points="96.8848,-18 75.8848,-18 75.8848,-0 96.8848,-0 96.8848,-18"/>
<text text-anchor="middle" x="86.3848" y="-6.8" font-family="Times New Roman,serif" font-size="9.00">5</text>
</g>
<!-- 2&#45;&gt;5 -->
<g id="edge1" class="edge"><title>2&#45;&gt;5</title>
<path fill="none" stroke="green" d="M103.77,-63.3598C100.852,-54.4025 96.0372,-39.6255 92.2138,-27.8905"/>
<polygon fill="green" stroke="green" points="95.4897,-26.6467 89.0639,-18.2229 88.834,-28.8152 95.4897,-26.6467"/>
</g>
<!-- 3 -->
<g id="node3" class="node"><title>3</title>
<polygon fill="lightgray" stroke="black" points="92.8848,-290.309 71.8848,-290.309 71.8848,-272.309 92.8848,-272.309 92.8848,-290.309"/>
<text text-anchor="middle" x="82.3848" y="-279.109" font-family="Times New Roman,serif" font-size="9.00">3</text>
</g>
<!-- 4 -->
<g id="node4" class="node"><title>4</title>
<polygon fill="lightgray" stroke="black" points="163.885,-154.154 142.885,-154.154 142.885,-136.154 163.885,-136.154 163.885,-154.154"/>
<text text-anchor="middle" x="153.385" y="-142.954" font-family="Times New Roman,serif" font-size="9.00">4</text>
</g>
<!-- 11 -->
<g id="node9" class="node"><title>11</title>
<ellipse fill="none" stroke="black" cx="153.385" cy="-72.3848" rx="18.2703" ry="18.2703"/>
<text text-anchor="middle" x="153.385" y="-70.1848" font-family="Times New Roman,serif" font-size="9.00">11</text>
</g>
<!-- 4&#45;&gt;11 -->
<g id="edge3" class="edge"><title>4&#45;&gt;11</title>
<path fill="none" stroke="green" d="M153.385,-136.036C153.385,-127.47 153.385,-113.495 153.385,-100.914"/>
<polygon fill="green" stroke="green" points="156.885,-100.824 153.385,-90.8245 149.885,-100.824 156.885,-100.824"/>
</g>
<!-- 41 -->
<g id="node7" class="node"><title>41</title>
<ellipse fill="none" stroke="black" cx="19.3848" cy="-145.154" rx="18.2703" ry="18.2703"/>
<text text-anchor="middle" x="19.3848" y="-142.954" font-family="Times New Roman,serif" font-size="9.00">41</text>
</g>
<!-- 16&#45;&gt;41 -->
<g id="edge8" class="edge"><title>16&#45;&gt;41</title>
<path fill="none" stroke="red" d="M18.632,-199.43C18.7405,-191.748 18.8707,-182.539 18.9919,-173.955"/>
<polygon fill="red" stroke="red" points="22.4917,-173.987 19.1335,-163.938 15.4924,-173.888 22.4917,-173.987"/>
</g>
<!-- 6 -->
<g id="node8" class="node"><title>6</title>
<ellipse fill="none" stroke="black" cx="22.3848" cy="-72.3848" rx="14.7" ry="14.7"/>
<text text-anchor="middle" x="22.3848" y="-70.1848" font-family="Times New Roman,serif" font-size="9.00">6</text>
</g>
<!-- 41&#45;&gt;6 -->
<g id="edge9" class="edge"><title>41&#45;&gt;6</title>
<path fill="none" stroke="green" d="M20.1263,-126.661C20.4995,-117.858 20.9577,-107.05 21.3635,-97.4754"/>
<polygon fill="green" stroke="green" points="24.8655,-97.5006 21.7923,-87.3613 17.8718,-97.204 24.8655,-97.5006"/>
</g>
<!-- 6&#45;&gt;5 -->
<g id="edge2" class="edge"><title>6&#45;&gt;5</title>
<path fill="none" stroke="green" d="M32.6675,-61.5223C42.888,-51.7194 58.7049,-36.5488 70.5329,-25.2041"/>
<polygon fill="green" stroke="green" points="73.1722,-27.5223 77.9665,-18.0743 68.3267,-22.4704 73.1722,-27.5223"/>
</g>
<!-- 11&#45;&gt;5 -->
<g id="edge4" class="edge"><title>11&#45;&gt;5</title>
<path fill="none" stroke="red" d="M140.148,-59.2571C129.468,-49.4728 114.388,-35.6565 102.916,-25.1456"/>
<polygon fill="red" stroke="red" points="105.052,-22.3559 95.3143,-18.1812 100.323,-27.5172 105.052,-22.3559"/>
</g>
<!-- 7&#45;&gt;5 -->
<g id="edge6" class="edge"><title>7&#45;&gt;5</title>
<path fill="none" stroke="green" d="M70.5266,-203.026C73.5143,-166.659 81.5617,-68.7069 84.901,-28.06"/>
<polygon fill="green" stroke="green" points="88.3959,-28.2656 85.7265,-18.0125 81.4194,-27.6923 88.3959,-28.2656"/>
</g>
</g>
</svg>
