<?xml version="1.0" encoding="UTF-8" standalone="no"?>
<!DOCTYPE svg PUBLIC "-//W3C//DTD SVG 1.1//EN"
 "http://www.w3.org/Graphics/SVG/1.1/DTD/svg11.dtd">
<!-- Generated by graphviz version 2.38.0 (20140413.2041)
 -->
<!-- Title: %3 Pages: 1 -->
<svg width="274pt" height="1172pt"
 viewBox="0.00 0.00 274.38 1171.54" xmlns="http://www.w3.org/2000/svg" xmlns:xlink="http://www.w3.org/1999/xlink">
<g id="graph0" class="graph" transform="scale(1 1) rotate(0) translate(4 1167.54)">
<title>%3</title>
<polygon fill="white" stroke="none" points="-4,4 -4,-1167.54 270.385,-1167.54 270.385,4 -4,4"/>
<!-- 1 -->
<g id="node1" class="node"><title>1</title>
<polygon fill="lightgray" stroke="black" points="212.5,-1163.54 191.5,-1163.54 191.5,-1145.54 212.5,-1145.54 212.5,-1163.54"/>
<text text-anchor="middle" x="202" y="-1152.34" font-family="Times New Roman,serif" font-size="9.00">1</text>
</g>
<!-- 29 -->
<g id="node6" class="node"><title>29</title>
<ellipse fill="none" stroke="black" cx="146" cy="-1091.16" rx="18.2703" ry="18.2703"/>
<text text-anchor="middle" x="146" y="-1088.96" font-family="Times New Roman,serif" font-size="9.00">29</text>
</g>
<!-- 1&#45;&gt;29 -->
<g id="edge36" class="edge"><title>1&#45;&gt;29</title>
<path fill="none" stroke="red" d="M194.679,-1145.52C187.236,-1137.36 175.387,-1124.37 165.244,-1113.25"/>
<polygon fill="red" stroke="red" points="167.572,-1110.61 158.246,-1105.58 162.4,-1115.33 167.572,-1110.61"/>
</g>
<!-- 12 -->
<g id="node11" class="node"><title>12</title>
<ellipse fill="none" stroke="black" cx="248" cy="-1091.16" rx="18.2703" ry="18.2703"/>
<text text-anchor="middle" x="248" y="-1088.96" font-family="Times New Roman,serif" font-size="9.00">12</text>
</g>
<!-- 1&#45;&gt;12 -->
<g id="edge12" class="edge"><title>1&#45;&gt;12</title>
<path fill="none" stroke="red" d="M208.014,-1145.52C213.855,-1137.72 223,-1125.52 231.071,-1114.75"/>
<polygon fill="red" stroke="red" points="234.034,-1116.63 237.23,-1106.53 228.432,-1112.43 234.034,-1116.63"/>
</g>
<!-- 7 -->
<g id="node14" class="node"><title>7</title>
<ellipse fill="none" stroke="black" cx="216" cy="-872.85" rx="14.7" ry="14.7"/>
<text text-anchor="middle" x="216" y="-870.65" font-family="Times New Roman,serif" font-size="9.00">7</text>
</g>
<!-- 1&#45;&gt;7 -->
<g id="edge17" class="edge"><title>1&#45;&gt;7</title>
<path fill="none" stroke="green" d="M202.404,-1145.47C204.236,-1108.87 211.805,-957.655 214.786,-898.105"/>
<polygon fill="green" stroke="green" points="218.298,-897.951 215.302,-887.789 211.307,-897.601 218.298,-897.951"/>
</g>
<!-- 2 -->
<g id="node2" class="node"><title>2</title>
<polygon fill="lightgray" stroke="black" points="48.5,-736.311 27.5,-736.311 27.5,-718.311 48.5,-718.311 48.5,-736.311"/>
<text text-anchor="middle" x="38" y="-725.111" font-family="Times New Roman,serif" font-size="9.00">2</text>
</g>
<!-- 5 -->
<g id="node5" class="node"><title>5</title>
<polygon fill="lightblue" stroke="black" points="63.5,-18 42.5,-18 42.5,-0 63.5,-0 63.5,-18"/>
<text text-anchor="middle" x="53" y="-6.8" font-family="Times New Roman,serif" font-size="9.00">5</text>
</g>
<!-- 2&#45;&gt;5 -->
<g id="edge1" class="edge"><title>2&#45;&gt;5</title>
<path fill="none" stroke="red" d="M34.2175,-718.1C24.6058,-696.46 0,-635.875 0,-582.772 0,-582.772 0,-582.772 0,-144.154 0,-99.0545 26.2297,-51.0164 41.7844,-26.494"/>
<polygon fill="red" stroke="red" points="44.7749,-28.316 47.3281,-18.0334 38.9198,-24.4795 44.7749,-28.316"/>
</g>
<!-- 33 -->
<g id="node18" class="node"><title>33</title>
<ellipse fill="none" stroke="black" cx="84" cy="-654.541" rx="18.2703" ry="18.2703"/>
<text text-anchor="middle" x="84" y="-652.341" font-family="Times New Roman,serif" font-size="9.00">33</text>
</g>
<!-- 2&#45;&gt;33 -->
<g id="edge35" class="edge"><title>2&#45;&gt;33</title>
<path fill="none" stroke="green" d="M43.2768,-718.193C49.4715,-708.662 60.0186,-692.436 68.8268,-678.885"/>
<polygon fill="green" stroke="green" points="71.7854,-680.755 74.3008,-670.463 65.9163,-676.94 71.7854,-680.755"/>
</g>
<!-- 38 -->
<g id="node19" class="node"><title>38</title>
<ellipse fill="none" stroke="black" cx="55" cy="-581.772" rx="18.2703" ry="18.2703"/>
<text text-anchor="middle" x="55" y="-579.572" font-family="Times New Roman,serif" font-size="9.00">38</text>
</g>
<!-- 2&#45;&gt;38 -->
<g id="edge18" class="edge"><title>2&#45;&gt;38</title>
<path fill="none" stroke="red" d="M38.9627,-718.182C41.3838,-697.74 47.8138,-643.448 51.7574,-610.15"/>
<polygon fill="red" stroke="red" points="55.2418,-610.488 52.9423,-600.146 48.2903,-609.665 55.2418,-610.488"/>
</g>
<!-- 3 -->
<g id="node3" class="node"><title>3</title>
<polygon fill="lightgray" stroke="black" points="251.5,-1163.54 230.5,-1163.54 230.5,-1145.54 251.5,-1145.54 251.5,-1163.54"/>
<text text-anchor="middle" x="241" y="-1152.34" font-family="Times New Roman,serif" font-size="9.00">3</text>
</g>
<!-- 4 -->
<g id="node4" class="node"><title>4</title>
<polygon fill="lightgray" stroke="black" points="173.5,-954.619 152.5,-954.619 152.5,-936.619 173.5,-936.619 173.5,-954.619"/>
<text text-anchor="middle" x="163" y="-943.419" font-family="Times New Roman,serif" font-size="9.00">4</text>
</g>
<!-- 16 -->
<g id="node9" class="node"><title>16</title>
<ellipse fill="none" stroke="black" cx="110" cy="-872.85" rx="18.2703" ry="18.2703"/>
<text text-anchor="middle" x="110" y="-870.65" font-family="Times New Roman,serif" font-size="9.00">16</text>
</g>
<!-- 4&#45;&gt;16 -->
<g id="edge11" class="edge"><title>4&#45;&gt;16</title>
<path fill="none" stroke="green" d="M156.92,-936.501C149.58,-926.7 136.935,-909.816 126.621,-896.043"/>
<polygon fill="green" stroke="green" points="129.364,-893.867 120.568,-887.961 123.761,-898.064 129.364,-893.867"/>
</g>
<!-- 20 -->
<g id="node10" class="node"><title>20</title>
<ellipse fill="none" stroke="black" cx="165" cy="-872.85" rx="18.2703" ry="18.2703"/>
<text text-anchor="middle" x="165" y="-870.65" font-family="Times New Roman,serif" font-size="9.00">20</text>
</g>
<!-- 4&#45;&gt;20 -->
<g id="edge6" class="edge"><title>4&#45;&gt;20</title>
<path fill="none" stroke="red" d="M163.229,-936.501C163.472,-927.935 163.866,-913.96 164.222,-901.38"/>
<polygon fill="red" stroke="red" points="167.723,-901.384 164.507,-891.29 160.726,-901.187 167.723,-901.384"/>
</g>
<!-- 4&#45;&gt;7 -->
<g id="edge19" class="edge"><title>4&#45;&gt;7</title>
<path fill="none" stroke="red" d="M169.08,-936.501C176.916,-926.038 190.796,-907.505 201.433,-893.301"/>
<polygon fill="red" stroke="red" points="204.361,-895.229 207.554,-885.127 198.758,-891.033 204.361,-895.229"/>
</g>
<!-- 19 -->
<g id="node7" class="node"><title>19</title>
<ellipse fill="none" stroke="black" cx="136" cy="-1018.39" rx="18.2703" ry="18.2703"/>
<text text-anchor="middle" x="136" y="-1016.19" font-family="Times New Roman,serif" font-size="9.00">19</text>
</g>
<!-- 29&#45;&gt;19 -->
<g id="edge37" class="edge"><title>29&#45;&gt;19</title>
<path fill="none" stroke="green" d="M143.528,-1072.66C142.426,-1064.87 141.102,-1055.49 139.873,-1046.8"/>
<polygon fill="green" stroke="green" points="143.308,-1046.09 138.443,-1036.68 136.377,-1047.07 143.308,-1046.09"/>
</g>
<!-- 30 -->
<g id="node8" class="node"><title>30</title>
<ellipse fill="none" stroke="black" cx="112" cy="-945.619" rx="18.2703" ry="18.2703"/>
<text text-anchor="middle" x="112" y="-943.419" font-family="Times New Roman,serif" font-size="9.00">30</text>
</g>
<!-- 19&#45;&gt;30 -->
<g id="edge24" class="edge"><title>19&#45;&gt;30</title>
<path fill="none" stroke="green" d="M130.312,-1000.62C127.503,-992.333 124.048,-982.145 120.899,-972.86"/>
<polygon fill="green" stroke="green" points="124.173,-971.617 117.647,-963.27 117.544,-973.865 124.173,-971.617"/>
</g>
<!-- 30&#45;&gt;16 -->
<g id="edge25" class="edge"><title>30&#45;&gt;16</title>
<path fill="none" stroke="red" d="M111.506,-927.126C111.289,-919.443 111.028,-910.234 110.786,-901.65"/>
<polygon fill="red" stroke="red" points="114.284,-901.531 110.503,-891.634 107.287,-901.729 114.284,-901.531"/>
</g>
<!-- 6 -->
<g id="node12" class="node"><title>6</title>
<ellipse fill="none" stroke="black" cx="101" cy="-800.08" rx="14.7" ry="14.7"/>
<text text-anchor="middle" x="101" y="-797.88" font-family="Times New Roman,serif" font-size="9.00">6</text>
</g>
<!-- 16&#45;&gt;6 -->
<g id="edge2" class="edge"><title>16&#45;&gt;6</title>
<path fill="none" stroke="green" d="M107.775,-854.356C106.656,-845.553 105.281,-834.746 104.064,-825.171"/>
<polygon fill="green" stroke="green" points="107.511,-824.535 102.777,-815.057 100.567,-825.418 107.511,-824.535"/>
</g>
<!-- 11 -->
<g id="node13" class="node"><title>11</title>
<ellipse fill="none" stroke="black" cx="165" cy="-800.08" rx="18.2703" ry="18.2703"/>
<text text-anchor="middle" x="165" y="-797.88" font-family="Times New Roman,serif" font-size="9.00">11</text>
</g>
<!-- 20&#45;&gt;11 -->
<g id="edge7" class="edge"><title>20&#45;&gt;11</title>
<path fill="none" stroke="green" d="M165,-854.356C165,-846.674 165,-837.465 165,-828.881"/>
<polygon fill="green" stroke="green" points="168.5,-828.864 165,-818.864 161.5,-828.864 168.5,-828.864"/>
</g>
<!-- 37 -->
<g id="node28" class="node"><title>37</title>
<ellipse fill="none" stroke="black" cx="127" cy="-363.463" rx="18.2703" ry="18.2703"/>
<text text-anchor="middle" x="127" y="-361.263" font-family="Times New Roman,serif" font-size="9.00">37</text>
</g>
<!-- 20&#45;&gt;37 -->
<g id="edge23" class="edge"><title>20&#45;&gt;37</title>
<path fill="none" stroke="green" d="M177.385,-858.8C198.687,-834.924 240,-781.732 240,-728.311 240,-728.311 240,-728.311 240,-508.002 240,-450.892 184.091,-403.105 150.926,-379.782"/>
<polygon fill="green" stroke="green" points="152.475,-376.603 142.24,-373.865 148.534,-382.388 152.475,-376.603"/>
</g>
<!-- 12&#45;&gt;7 -->
<g id="edge13" class="edge"><title>12&#45;&gt;7</title>
<path fill="none" stroke="green" d="M245.435,-1072.82C239.748,-1034.38 226.066,-941.893 219.557,-897.893"/>
<polygon fill="green" stroke="green" points="222.992,-897.194 218.066,-887.814 216.067,-898.218 222.992,-897.194"/>
</g>
<!-- 63 -->
<g id="node15" class="node"><title>63</title>
<ellipse fill="none" stroke="black" cx="86" cy="-727.311" rx="18.2703" ry="18.2703"/>
<text text-anchor="middle" x="86" y="-725.111" font-family="Times New Roman,serif" font-size="9.00">63</text>
</g>
<!-- 6&#45;&gt;63 -->
<g id="edge29" class="edge"><title>6&#45;&gt;63</title>
<path fill="none" stroke="green" d="M98.1078,-785.435C96.2945,-776.88 93.8944,-765.556 91.7096,-755.249"/>
<polygon fill="green" stroke="green" points="95.1238,-754.476 89.6263,-745.42 88.2759,-755.928 95.1238,-754.476"/>
</g>
<!-- 40 -->
<g id="node16" class="node"><title>40</title>
<ellipse fill="none" stroke="black" cx="142" cy="-727.311" rx="18.2703" ry="18.2703"/>
<text text-anchor="middle" x="142" y="-725.111" font-family="Times New Roman,serif" font-size="9.00">40</text>
</g>
<!-- 11&#45;&gt;40 -->
<g id="edge38" class="edge"><title>11&#45;&gt;40</title>
<path fill="none" stroke="red" d="M159.549,-782.309C156.857,-774.024 153.546,-763.837 150.528,-754.551"/>
<polygon fill="red" stroke="red" points="153.831,-753.39 147.412,-744.962 147.174,-755.554 153.831,-753.39"/>
</g>
<!-- 84 -->
<g id="node20" class="node"><title>84</title>
<ellipse fill="none" stroke="black" cx="194" cy="-654.541" rx="18.2703" ry="18.2703"/>
<text text-anchor="middle" x="194" y="-652.341" font-family="Times New Roman,serif" font-size="9.00">84</text>
</g>
<!-- 11&#45;&gt;84 -->
<g id="edge33" class="edge"><title>11&#45;&gt;84</title>
<path fill="none" stroke="red" d="M168.498,-781.766C173.462,-757.195 182.6,-711.965 188.483,-682.847"/>
<polygon fill="red" stroke="red" points="191.94,-683.412 190.49,-672.917 185.078,-682.026 191.94,-683.412"/>
</g>
<!-- 63&#45;&gt;33 -->
<g id="edge30" class="edge"><title>63&#45;&gt;33</title>
<path fill="none" stroke="green" d="M85.5056,-708.817C85.2885,-701.135 85.0283,-691.926 84.7857,-683.341"/>
<polygon fill="green" stroke="green" points="88.2838,-683.222 84.5026,-673.325 81.2866,-683.42 88.2838,-683.222"/>
</g>
<!-- 32 -->
<g id="node17" class="node"><title>32</title>
<ellipse fill="none" stroke="black" cx="139" cy="-654.541" rx="18.2703" ry="18.2703"/>
<text text-anchor="middle" x="139" y="-652.341" font-family="Times New Roman,serif" font-size="9.00">32</text>
</g>
<!-- 40&#45;&gt;32 -->
<g id="edge39" class="edge"><title>40&#45;&gt;32</title>
<path fill="none" stroke="green" d="M141.258,-708.817C140.933,-701.135 140.542,-691.926 140.178,-683.341"/>
<polygon fill="green" stroke="green" points="143.674,-683.168 139.754,-673.325 136.681,-683.464 143.674,-683.168"/>
</g>
<!-- 31 -->
<g id="node23" class="node"><title>31</title>
<ellipse fill="none" stroke="black" cx="139" cy="-581.772" rx="18.2703" ry="18.2703"/>
<text text-anchor="middle" x="139" y="-579.572" font-family="Times New Roman,serif" font-size="9.00">31</text>
</g>
<!-- 32&#45;&gt;31 -->
<g id="edge5" class="edge"><title>32&#45;&gt;31</title>
<path fill="none" stroke="red" d="M139,-636.048C139,-628.365 139,-619.156 139,-610.572"/>
<polygon fill="red" stroke="red" points="142.5,-610.556 139,-600.556 135.5,-610.556 142.5,-610.556"/>
</g>
<!-- 33&#45;&gt;38 -->
<g id="edge9" class="edge"><title>33&#45;&gt;38</title>
<path fill="none" stroke="red" d="M77.2739,-637.127C73.7968,-628.642 69.4728,-618.09 65.5623,-608.547"/>
<polygon fill="red" stroke="red" points="68.7201,-607.023 61.6896,-599.096 62.2428,-609.677 68.7201,-607.023"/>
</g>
<!-- 51 -->
<g id="node21" class="node"><title>51</title>
<ellipse fill="none" stroke="black" cx="55" cy="-509.002" rx="18.2703" ry="18.2703"/>
<text text-anchor="middle" x="55" y="-506.802" font-family="Times New Roman,serif" font-size="9.00">51</text>
</g>
<!-- 38&#45;&gt;51 -->
<g id="edge31" class="edge"><title>38&#45;&gt;51</title>
<path fill="none" stroke="green" d="M55,-563.278C55,-555.596 55,-546.387 55,-537.802"/>
<polygon fill="green" stroke="green" points="58.5001,-537.786 55,-527.786 51.5001,-537.786 58.5001,-537.786"/>
</g>
<!-- 36 -->
<g id="node25" class="node"><title>36</title>
<ellipse fill="none" stroke="black" cx="194" cy="-581.772" rx="18.2703" ry="18.2703"/>
<text text-anchor="middle" x="194" y="-579.572" font-family="Times New Roman,serif" font-size="9.00">36</text>
</g>
<!-- 84&#45;&gt;36 -->
<g id="edge34" class="edge"><title>84&#45;&gt;36</title>
<path fill="none" stroke="green" d="M194,-636.048C194,-628.365 194,-619.156 194,-610.572"/>
<polygon fill="green" stroke="green" points="197.5,-610.556 194,-600.556 190.5,-610.556 197.5,-610.556"/>
</g>
<!-- 21 -->
<g id="node22" class="node"><title>21</title>
<ellipse fill="none" stroke="black" cx="61" cy="-436.233" rx="18.2703" ry="18.2703"/>
<text text-anchor="middle" x="61" y="-434.033" font-family="Times New Roman,serif" font-size="9.00">21</text>
</g>
<!-- 51&#45;&gt;21 -->
<g id="edge32" class="edge"><title>51&#45;&gt;21</title>
<path fill="none" stroke="red" d="M56.4831,-490.508C57.1345,-482.826 57.9152,-473.617 58.643,-465.033"/>
<polygon fill="red" stroke="red" points="62.1348,-465.276 59.4922,-455.016 55.1599,-464.685 62.1348,-465.276"/>
</g>
<!-- 56 -->
<g id="node24" class="node"><title>56</title>
<ellipse fill="none" stroke="black" cx="61" cy="-363.463" rx="18.2703" ry="18.2703"/>
<text text-anchor="middle" x="61" y="-361.263" font-family="Times New Roman,serif" font-size="9.00">56</text>
</g>
<!-- 21&#45;&gt;56 -->
<g id="edge26" class="edge"><title>21&#45;&gt;56</title>
<path fill="none" stroke="red" d="M61,-417.739C61,-410.057 61,-400.847 61,-392.263"/>
<polygon fill="red" stroke="red" points="64.5001,-392.247 61,-382.247 57.5001,-392.247 64.5001,-392.247"/>
</g>
<!-- 21&#45;&gt;37 -->
<g id="edge16" class="edge"><title>21&#45;&gt;37</title>
<path fill="none" stroke="green" d="M73.1054,-422.252C82.752,-411.909 96.4453,-397.226 107.615,-385.249"/>
<polygon fill="green" stroke="green" points="110.262,-387.542 114.523,-377.842 105.143,-382.768 110.262,-387.542"/>
</g>
<!-- 47 -->
<g id="node26" class="node"><title>47</title>
<ellipse fill="none" stroke="black" cx="110" cy="-509.002" rx="18.2703" ry="18.2703"/>
<text text-anchor="middle" x="110" y="-506.802" font-family="Times New Roman,serif" font-size="9.00">47</text>
</g>
<!-- 31&#45;&gt;47 -->
<g id="edge21" class="edge"><title>31&#45;&gt;47</title>
<path fill="none" stroke="red" d="M132.274,-564.358C128.797,-555.872 124.473,-545.321 120.562,-535.778"/>
<polygon fill="red" stroke="red" points="123.72,-534.253 116.69,-526.327 117.243,-536.907 123.72,-534.253"/>
</g>
<!-- 10 -->
<g id="node27" class="node"><title>10</title>
<ellipse fill="none" stroke="black" cx="150" cy="-436.233" rx="18.2703" ry="18.2703"/>
<text text-anchor="middle" x="150" y="-434.033" font-family="Times New Roman,serif" font-size="9.00">10</text>
</g>
<!-- 31&#45;&gt;10 -->
<g id="edge4" class="edge"><title>31&#45;&gt;10</title>
<path fill="none" stroke="red" d="M140.349,-563.171C142.221,-538.743 145.627,-494.297 147.851,-465.272"/>
<polygon fill="red" stroke="red" points="151.366,-465.215 148.64,-454.977 144.386,-464.681 151.366,-465.215"/>
</g>
<!-- 36&#45;&gt;10 -->
<g id="edge10" class="edge"><title>36&#45;&gt;10</title>
<path fill="none" stroke="red" d="M188.867,-564.025C181.323,-539.416 167.167,-493.237 158.181,-463.921"/>
<polygon fill="red" stroke="red" points="161.514,-462.853 155.237,-454.317 154.822,-464.904 161.514,-462.853"/>
</g>
<!-- 47&#45;&gt;10 -->
<g id="edge22" class="edge"><title>47&#45;&gt;10</title>
<path fill="none" stroke="green" d="M118.679,-492.646C123.816,-483.558 130.439,-471.841 136.27,-461.524"/>
<polygon fill="green" stroke="green" points="139.464,-462.986 141.338,-452.559 133.37,-459.542 139.464,-462.986"/>
</g>
<!-- 10&#45;&gt;37 -->
<g id="edge8" class="edge"><title>10&#45;&gt;37</title>
<path fill="none" stroke="red" d="M144.549,-418.461C141.857,-410.176 138.546,-399.989 135.528,-390.703"/>
<polygon fill="red" stroke="red" points="138.831,-389.543 132.412,-381.114 132.174,-391.706 138.831,-389.543"/>
</g>
<!-- 45 -->
<g id="node29" class="node"><title>45</title>
<ellipse fill="none" stroke="black" cx="113" cy="-290.693" rx="18.2703" ry="18.2703"/>
<text text-anchor="middle" x="113" y="-288.493" font-family="Times New Roman,serif" font-size="9.00">45</text>
</g>
<!-- 37&#45;&gt;45 -->
<g id="edge14" class="edge"><title>37&#45;&gt;45</title>
<path fill="none" stroke="green" d="M123.611,-345.332C122.052,-337.452 120.164,-327.909 118.416,-319.07"/>
<polygon fill="green" stroke="green" points="121.829,-318.289 116.455,-309.159 114.962,-319.648 121.829,-318.289"/>
</g>
<!-- 28 -->
<g id="node30" class="node"><title>28</title>
<ellipse fill="none" stroke="black" cx="99" cy="-217.924" rx="18.2703" ry="18.2703"/>
<text text-anchor="middle" x="99" y="-215.724" font-family="Times New Roman,serif" font-size="9.00">28</text>
</g>
<!-- 45&#45;&gt;28 -->
<g id="edge15" class="edge"><title>45&#45;&gt;28</title>
<path fill="none" stroke="red" d="M109.611,-272.562C108.052,-264.682 106.164,-255.14 104.416,-246.3"/>
<polygon fill="red" stroke="red" points="107.829,-245.52 102.455,-236.389 100.962,-246.878 107.829,-245.52"/>
</g>
<!-- 28&#45;&gt;5 -->
<g id="edge3" class="edge"><title>28&#45;&gt;5</title>
<path fill="none" stroke="red" d="M99.3973,-199.253C99.5502,-168.743 97.5123,-104.592 80,-54 76.6286,-44.2602 70.8376,-34.3919 65.4813,-26.476"/>
<polygon fill="red" stroke="red" points="68.2292,-24.3016 59.5641,-18.205 62.536,-28.3745 68.2292,-24.3016"/>
</g>
<!-- 34 -->
<g id="node31" class="node"><title>34</title>
<ellipse fill="none" stroke="black" cx="53" cy="-145.154" rx="18.2703" ry="18.2703"/>
<text text-anchor="middle" x="53" y="-142.954" font-family="Times New Roman,serif" font-size="9.00">34</text>
</g>
<!-- 28&#45;&gt;34 -->
<g id="edge20" class="edge"><title>28&#45;&gt;34</title>
<path fill="none" stroke="green" d="M89.2446,-201.915C83.1459,-192.533 75.1625,-180.251 68.241,-169.602"/>
<polygon fill="green" stroke="green" points="71.1258,-167.618 62.7414,-161.141 65.2567,-171.433 71.1258,-167.618"/>
</g>
<!-- 60 -->
<g id="node32" class="node"><title>60</title>
<ellipse fill="none" stroke="black" cx="53" cy="-72.3848" rx="18.2703" ry="18.2703"/>
<text text-anchor="middle" x="53" y="-70.1848" font-family="Times New Roman,serif" font-size="9.00">60</text>
</g>
<!-- 34&#45;&gt;60 -->
<g id="edge27" class="edge"><title>34&#45;&gt;60</title>
<path fill="none" stroke="green" d="M53,-126.661C53,-118.978 53,-109.769 53,-101.185"/>
<polygon fill="green" stroke="green" points="56.5001,-101.169 53,-91.1687 49.5001,-101.169 56.5001,-101.169"/>
</g>
<!-- 60&#45;&gt;5 -->
<g id="edge28" class="edge"><title>60&#45;&gt;5</title>
<path fill="none" stroke="red" d="M53,-53.9586C53,-45.9601 53,-36.4732 53,-28.3636"/>
<polygon fill="red" stroke="red" points="56.5001,-28.1158 53,-18.1158 49.5001,-28.1158 56.5001,-28.1158"/>
</g>
</g>
</svg>
