<?xml version="1.0" encoding="UTF-8" standalone="no"?>
<!DOCTYPE svg PUBLIC "-//W3C//DTD SVG 1.1//EN"
 "http://www.w3.org/Graphics/SVG/1.1/DTD/svg11.dtd">
<!-- Generated by graphviz version 2.38.0 (20140413.2041)
 -->
<!-- Title: %3 Pages: 1 -->
<svg width="256pt" height="1099pt"
 viewBox="0.00 0.00 256.38 1098.77" xmlns="http://www.w3.org/2000/svg" xmlns:xlink="http://www.w3.org/1999/xlink">
<g id="graph0" class="graph" transform="scale(1 1) rotate(0) translate(4 1094.77)">
<title>%3</title>
<polygon fill="white" stroke="none" points="-4,4 -4,-1094.77 252.385,-1094.77 252.385,4 -4,4"/>
<!-- 1 -->
<g id="node1" class="node"><title>1</title>
<polygon fill="lightgray" stroke="black" points="170.885,-1090.77 149.885,-1090.77 149.885,-1072.77 170.885,-1072.77 170.885,-1090.77"/>
<text text-anchor="middle" x="160.385" y="-1079.57" font-family="Times New Roman,serif" font-size="9.00">1</text>
</g>
<!-- 19 -->
<g id="node6" class="node"><title>19</title>
<ellipse fill="none" stroke="black" cx="94.3848" cy="-1018.39" rx="18.2703" ry="18.2703"/>
<text text-anchor="middle" x="94.3848" y="-1016.19" font-family="Times New Roman,serif" font-size="9.00">19</text>
</g>
<!-- 1&#45;&gt;19 -->
<g id="edge12" class="edge"><title>1&#45;&gt;19</title>
<path fill="none" stroke="red" d="M151.756,-1072.75C142.584,-1064.22 127.737,-1050.41 115.444,-1038.98"/>
<polygon fill="red" stroke="red" points="117.527,-1036.13 107.82,-1031.89 112.759,-1041.26 117.527,-1036.13"/>
</g>
<!-- 12 -->
<g id="node10" class="node"><title>12</title>
<ellipse fill="none" stroke="black" cx="206.385" cy="-1018.39" rx="18.2703" ry="18.2703"/>
<text text-anchor="middle" x="206.385" y="-1016.19" font-family="Times New Roman,serif" font-size="9.00">12</text>
</g>
<!-- 1&#45;&gt;12 -->
<g id="edge14" class="edge"><title>1&#45;&gt;12</title>
<path fill="none" stroke="red" d="M166.398,-1072.75C172.24,-1064.95 181.385,-1052.75 189.456,-1041.98"/>
<polygon fill="red" stroke="red" points="192.418,-1043.86 195.614,-1033.76 186.817,-1039.67 192.418,-1043.86"/>
</g>
<!-- 7 -->
<g id="node13" class="node"><title>7</title>
<ellipse fill="none" stroke="black" cx="164.385" cy="-872.85" rx="14.7" ry="14.7"/>
<text text-anchor="middle" x="164.385" y="-870.65" font-family="Times New Roman,serif" font-size="9.00">7</text>
</g>
<!-- 1&#45;&gt;7 -->
<g id="edge19" class="edge"><title>1&#45;&gt;7</title>
<path fill="none" stroke="green" d="M160.542,-1072.66C161.103,-1043.61 163.028,-944.021 163.922,-897.788"/>
<polygon fill="green" stroke="green" points="167.422,-897.826 164.116,-887.761 160.423,-897.691 167.422,-897.826"/>
</g>
<!-- 2 -->
<g id="node2" class="node"><title>2</title>
<polygon fill="lightgray" stroke="black" points="75.8848,-663.541 54.8848,-663.541 54.8848,-645.541 75.8848,-645.541 75.8848,-663.541"/>
<text text-anchor="middle" x="65.3848" y="-652.341" font-family="Times New Roman,serif" font-size="9.00">2</text>
</g>
<!-- 5 -->
<g id="node5" class="node"><title>5</title>
<polygon fill="lightblue" stroke="black" points="120.885,-18 99.8848,-18 99.8848,-0 120.885,-0 120.885,-18"/>
<text text-anchor="middle" x="110.385" y="-6.8" font-family="Times New Roman,serif" font-size="9.00">5</text>
</g>
<!-- 2&#45;&gt;5 -->
<g id="edge1" class="edge"><title>2&#45;&gt;5</title>
<path fill="none" stroke="red" d="M65.2889,-645.448C65.0386,-623.599 64.3848,-561.588 64.3848,-510.002 64.3848,-510.002 64.3848,-510.002 64.3848,-144.154 64.3848,-103.206 68.2323,-92.0421 83.3848,-54 87.1987,-44.4248 93.0345,-34.5732 98.3062,-26.6258"/>
<polygon fill="red" stroke="red" points="101.257,-28.5132 104.08,-18.3016 95.5048,-24.5234 101.257,-28.5132"/>
</g>
<!-- 38 -->
<g id="node17" class="node"><title>38</title>
<ellipse fill="none" stroke="black" cx="18.3848" cy="-581.772" rx="18.2703" ry="18.2703"/>
<text text-anchor="middle" x="18.3848" y="-579.572" font-family="Times New Roman,serif" font-size="9.00">38</text>
</g>
<!-- 2&#45;&gt;38 -->
<g id="edge20" class="edge"><title>2&#45;&gt;38</title>
<path fill="none" stroke="red" d="M59.9933,-645.423C53.6243,-635.833 42.7526,-619.463 33.7193,-605.861"/>
<polygon fill="red" stroke="red" points="36.5623,-603.816 28.1143,-597.422 30.7311,-607.688 36.5623,-603.816"/>
</g>
<!-- 3 -->
<g id="node3" class="node"><title>3</title>
<polygon fill="lightgray" stroke="black" points="209.885,-1090.77 188.885,-1090.77 188.885,-1072.77 209.885,-1072.77 209.885,-1090.77"/>
<text text-anchor="middle" x="199.385" y="-1079.57" font-family="Times New Roman,serif" font-size="9.00">3</text>
</g>
<!-- 4 -->
<g id="node4" class="node"><title>4</title>
<polygon fill="lightgray" stroke="black" points="131.885,-954.619 110.885,-954.619 110.885,-936.619 131.885,-936.619 131.885,-954.619"/>
<text text-anchor="middle" x="121.385" y="-943.419" font-family="Times New Roman,serif" font-size="9.00">4</text>
</g>
<!-- 16 -->
<g id="node8" class="node"><title>16</title>
<ellipse fill="none" stroke="black" cx="74.3848" cy="-872.85" rx="18.2703" ry="18.2703"/>
<text text-anchor="middle" x="74.3848" y="-870.65" font-family="Times New Roman,serif" font-size="9.00">16</text>
</g>
<!-- 4&#45;&gt;16 -->
<g id="edge13" class="edge"><title>4&#45;&gt;16</title>
<path fill="none" stroke="green" d="M115.993,-936.501C109.624,-926.911 98.7526,-910.541 89.7193,-896.94"/>
<polygon fill="green" stroke="green" points="92.5623,-894.894 84.1143,-888.5 86.7311,-898.767 92.5623,-894.894"/>
</g>
<!-- 20 -->
<g id="node9" class="node"><title>20</title>
<ellipse fill="none" stroke="black" cx="141.385" cy="-800.08" rx="18.2703" ry="18.2703"/>
<text text-anchor="middle" x="141.385" y="-797.88" font-family="Times New Roman,serif" font-size="9.00">20</text>
</g>
<!-- 4&#45;&gt;20 -->
<g id="edge7" class="edge"><title>4&#45;&gt;20</title>
<path fill="none" stroke="red" d="M122.517,-936.491C125.366,-916.048 132.93,-861.757 137.57,-828.459"/>
<polygon fill="red" stroke="red" points="141.05,-828.842 138.964,-818.455 134.117,-827.876 141.05,-828.842"/>
</g>
<!-- 4&#45;&gt;7 -->
<g id="edge21" class="edge"><title>4&#45;&gt;7</title>
<path fill="none" stroke="red" d="M126.317,-936.501C132.506,-926.316 143.342,-908.482 151.874,-894.439"/>
<polygon fill="red" stroke="red" points="154.875,-896.241 157.077,-885.877 148.893,-892.606 154.875,-896.241"/>
</g>
<!-- 30 -->
<g id="node7" class="node"><title>30</title>
<ellipse fill="none" stroke="black" cx="74.3848" cy="-945.619" rx="18.2703" ry="18.2703"/>
<text text-anchor="middle" x="74.3848" y="-943.419" font-family="Times New Roman,serif" font-size="9.00">30</text>
</g>
<!-- 19&#45;&gt;30 -->
<g id="edge26" class="edge"><title>19&#45;&gt;30</title>
<path fill="none" stroke="green" d="M89.6451,-1000.62C87.3622,-992.54 84.5681,-982.653 81.9975,-973.557"/>
<polygon fill="green" stroke="green" points="85.3171,-972.433 79.2294,-963.762 78.581,-974.337 85.3171,-972.433"/>
</g>
<!-- 30&#45;&gt;16 -->
<g id="edge27" class="edge"><title>30&#45;&gt;16</title>
<path fill="none" stroke="red" d="M74.3848,-927.126C74.3848,-919.443 74.3848,-910.234 74.3848,-901.65"/>
<polygon fill="red" stroke="red" points="77.8849,-901.634 74.3848,-891.634 70.8849,-901.634 77.8849,-901.634"/>
</g>
<!-- 6 -->
<g id="node11" class="node"><title>6</title>
<ellipse fill="none" stroke="black" cx="70.3848" cy="-800.08" rx="14.7" ry="14.7"/>
<text text-anchor="middle" x="70.3848" y="-797.88" font-family="Times New Roman,serif" font-size="9.00">6</text>
</g>
<!-- 16&#45;&gt;6 -->
<g id="edge2" class="edge"><title>16&#45;&gt;6</title>
<path fill="none" stroke="green" d="M73.396,-854.356C72.8985,-845.553 72.2876,-834.746 71.7464,-825.171"/>
<polygon fill="green" stroke="green" points="75.2336,-824.843 71.1747,-815.057 68.2447,-825.238 75.2336,-824.843"/>
</g>
<!-- 11 -->
<g id="node12" class="node"><title>11</title>
<ellipse fill="none" stroke="black" cx="141.385" cy="-727.311" rx="18.2703" ry="18.2703"/>
<text text-anchor="middle" x="141.385" y="-725.111" font-family="Times New Roman,serif" font-size="9.00">11</text>
</g>
<!-- 20&#45;&gt;11 -->
<g id="edge8" class="edge"><title>20&#45;&gt;11</title>
<path fill="none" stroke="green" d="M141.385,-781.587C141.385,-773.904 141.385,-764.695 141.385,-756.111"/>
<polygon fill="green" stroke="green" points="144.885,-756.095 141.385,-746.095 137.885,-756.095 144.885,-756.095"/>
</g>
<!-- 37 -->
<g id="node26" class="node"><title>37</title>
<ellipse fill="none" stroke="black" cx="156.385" cy="-363.463" rx="18.2703" ry="18.2703"/>
<text text-anchor="middle" x="156.385" y="-361.263" font-family="Times New Roman,serif" font-size="9.00">37</text>
</g>
<!-- 20&#45;&gt;37 -->
<g id="edge25" class="edge"><title>20&#45;&gt;37</title>
<path fill="none" stroke="green" d="M156.263,-789.161C185.663,-768.238 248.385,-716.462 248.385,-655.541 248.385,-655.541 248.385,-655.541 248.385,-508.002 248.385,-456.008 205.068,-407.785 177.88,-382.638"/>
<polygon fill="green" stroke="green" points="180.137,-379.961 170.358,-375.884 175.461,-385.169 180.137,-379.961"/>
</g>
<!-- 12&#45;&gt;7 -->
<g id="edge15" class="edge"><title>12&#45;&gt;7</title>
<path fill="none" stroke="green" d="M201.485,-1000.64C194.007,-975.087 179.723,-926.27 171.227,-897.233"/>
<polygon fill="green" stroke="green" points="174.549,-896.124 168.382,-887.509 167.831,-898.09 174.549,-896.124"/>
</g>
<!-- 63 -->
<g id="node14" class="node"><title>63</title>
<ellipse fill="none" stroke="black" cx="68.3848" cy="-727.311" rx="18.2703" ry="18.2703"/>
<text text-anchor="middle" x="68.3848" y="-725.111" font-family="Times New Roman,serif" font-size="9.00">63</text>
</g>
<!-- 6&#45;&gt;63 -->
<g id="edge31" class="edge"><title>6&#45;&gt;63</title>
<path fill="none" stroke="green" d="M69.9896,-785.099C69.7556,-776.816 69.4506,-766.026 69.1695,-756.08"/>
<polygon fill="green" stroke="green" points="72.6595,-755.673 68.8784,-745.776 65.6623,-755.871 72.6595,-755.673"/>
</g>
<!-- 32 -->
<g id="node15" class="node"><title>32</title>
<ellipse fill="none" stroke="black" cx="163.385" cy="-654.541" rx="18.2703" ry="18.2703"/>
<text text-anchor="middle" x="163.385" y="-652.341" font-family="Times New Roman,serif" font-size="9.00">32</text>
</g>
<!-- 11&#45;&gt;32 -->
<g id="edge5" class="edge"><title>11&#45;&gt;32</title>
<path fill="none" stroke="red" d="M146.598,-709.539C149.174,-701.255 152.341,-691.067 155.228,-681.781"/>
<polygon fill="red" stroke="red" points="158.582,-682.78 158.209,-672.192 151.898,-680.702 158.582,-682.78"/>
</g>
<!-- 84 -->
<g id="node18" class="node"><title>84</title>
<ellipse fill="none" stroke="black" cx="110.385" cy="-581.772" rx="18.2703" ry="18.2703"/>
<text text-anchor="middle" x="110.385" y="-579.572" font-family="Times New Roman,serif" font-size="9.00">84</text>
</g>
<!-- 11&#45;&gt;84 -->
<g id="edge35" class="edge"><title>11&#45;&gt;84</title>
<path fill="none" stroke="red" d="M137.707,-709.281C132.422,-684.81 122.622,-639.433 116.308,-610.198"/>
<polygon fill="red" stroke="red" points="119.687,-609.262 114.155,-600.227 112.844,-610.74 119.687,-609.262"/>
</g>
<!-- 33 -->
<g id="node16" class="node"><title>33</title>
<ellipse fill="none" stroke="black" cx="18.3848" cy="-654.541" rx="18.2703" ry="18.2703"/>
<text text-anchor="middle" x="18.3848" y="-652.341" font-family="Times New Roman,serif" font-size="9.00">33</text>
</g>
<!-- 63&#45;&gt;33 -->
<g id="edge32" class="edge"><title>63&#45;&gt;33</title>
<path fill="none" stroke="green" d="M58.0247,-711.647C51.2536,-702.063 42.2702,-689.348 34.5676,-678.446"/>
<polygon fill="green" stroke="green" points="37.3604,-676.334 28.7315,-670.186 31.6433,-680.373 37.3604,-676.334"/>
</g>
<!-- 31 -->
<g id="node21" class="node"><title>31</title>
<ellipse fill="none" stroke="black" cx="165.385" cy="-581.772" rx="18.2703" ry="18.2703"/>
<text text-anchor="middle" x="165.385" y="-579.572" font-family="Times New Roman,serif" font-size="9.00">31</text>
</g>
<!-- 32&#45;&gt;31 -->
<g id="edge6" class="edge"><title>32&#45;&gt;31</title>
<path fill="none" stroke="red" d="M163.879,-636.048C164.096,-628.365 164.357,-619.156 164.599,-610.572"/>
<polygon fill="red" stroke="red" points="168.098,-610.65 164.882,-600.556 161.101,-610.453 168.098,-610.65"/>
</g>
<!-- 33&#45;&gt;38 -->
<g id="edge10" class="edge"><title>33&#45;&gt;38</title>
<path fill="none" stroke="red" d="M18.3848,-636.048C18.3848,-628.365 18.3848,-619.156 18.3848,-610.572"/>
<polygon fill="red" stroke="red" points="21.8849,-610.556 18.3848,-600.556 14.8849,-610.556 21.8849,-610.556"/>
</g>
<!-- 51 -->
<g id="node19" class="node"><title>51</title>
<ellipse fill="none" stroke="black" cx="18.3848" cy="-509.002" rx="18.2703" ry="18.2703"/>
<text text-anchor="middle" x="18.3848" y="-506.802" font-family="Times New Roman,serif" font-size="9.00">51</text>
</g>
<!-- 38&#45;&gt;51 -->
<g id="edge33" class="edge"><title>38&#45;&gt;51</title>
<path fill="none" stroke="green" d="M18.3848,-563.278C18.3848,-555.596 18.3848,-546.387 18.3848,-537.802"/>
<polygon fill="green" stroke="green" points="21.8849,-537.786 18.3848,-527.786 14.8849,-537.786 21.8849,-537.786"/>
</g>
<!-- 36 -->
<g id="node23" class="node"><title>36</title>
<ellipse fill="none" stroke="black" cx="110.385" cy="-509.002" rx="18.2703" ry="18.2703"/>
<text text-anchor="middle" x="110.385" y="-506.802" font-family="Times New Roman,serif" font-size="9.00">36</text>
</g>
<!-- 84&#45;&gt;36 -->
<g id="edge36" class="edge"><title>84&#45;&gt;36</title>
<path fill="none" stroke="green" d="M110.385,-563.278C110.385,-555.596 110.385,-546.387 110.385,-537.802"/>
<polygon fill="green" stroke="green" points="113.885,-537.786 110.385,-527.786 106.885,-537.786 113.885,-537.786"/>
</g>
<!-- 21 -->
<g id="node20" class="node"><title>21</title>
<ellipse fill="none" stroke="black" cx="18.3848" cy="-436.233" rx="18.2703" ry="18.2703"/>
<text text-anchor="middle" x="18.3848" y="-434.033" font-family="Times New Roman,serif" font-size="9.00">21</text>
</g>
<!-- 51&#45;&gt;21 -->
<g id="edge34" class="edge"><title>51&#45;&gt;21</title>
<path fill="none" stroke="red" d="M18.3848,-490.508C18.3848,-482.826 18.3848,-473.617 18.3848,-465.033"/>
<polygon fill="red" stroke="red" points="21.8849,-465.016 18.3848,-455.016 14.8849,-465.016 21.8849,-465.016"/>
</g>
<!-- 56 -->
<g id="node22" class="node"><title>56</title>
<ellipse fill="none" stroke="black" cx="18.3848" cy="-363.463" rx="18.2703" ry="18.2703"/>
<text text-anchor="middle" x="18.3848" y="-361.263" font-family="Times New Roman,serif" font-size="9.00">56</text>
</g>
<!-- 21&#45;&gt;56 -->
<g id="edge28" class="edge"><title>21&#45;&gt;56</title>
<path fill="none" stroke="red" d="M18.3848,-417.739C18.3848,-410.057 18.3848,-400.847 18.3848,-392.263"/>
<polygon fill="red" stroke="red" points="21.8849,-392.247 18.3848,-382.247 14.8849,-392.247 21.8849,-392.247"/>
</g>
<!-- 21&#45;&gt;37 -->
<g id="edge18" class="edge"><title>21&#45;&gt;37</title>
<path fill="none" stroke="green" d="M34.4852,-426.976C58.2718,-414.778 103.02,-391.83 131.18,-377.389"/>
<polygon fill="green" stroke="green" points="133.086,-380.345 140.387,-372.667 129.892,-374.116 133.086,-380.345"/>
</g>
<!-- 47 -->
<g id="node24" class="node"><title>47</title>
<ellipse fill="none" stroke="black" cx="202.385" cy="-509.002" rx="18.2703" ry="18.2703"/>
<text text-anchor="middle" x="202.385" y="-506.802" font-family="Times New Roman,serif" font-size="9.00">47</text>
</g>
<!-- 31&#45;&gt;47 -->
<g id="edge23" class="edge"><title>31&#45;&gt;47</title>
<path fill="none" stroke="red" d="M173.596,-565.066C178.243,-556.178 184.159,-544.862 189.418,-534.803"/>
<polygon fill="red" stroke="red" points="192.665,-536.148 194.196,-525.664 186.461,-532.905 192.665,-536.148"/>
</g>
<!-- 10 -->
<g id="node25" class="node"><title>10</title>
<ellipse fill="none" stroke="black" cx="156.385" cy="-436.233" rx="18.2703" ry="18.2703"/>
<text text-anchor="middle" x="156.385" y="-434.033" font-family="Times New Roman,serif" font-size="9.00">10</text>
</g>
<!-- 31&#45;&gt;10 -->
<g id="edge4" class="edge"><title>31&#45;&gt;10</title>
<path fill="none" stroke="red" d="M164.281,-563.171C162.75,-538.743 159.963,-494.297 158.143,-465.272"/>
<polygon fill="red" stroke="red" points="161.616,-464.739 157.497,-454.977 154.63,-465.177 161.616,-464.739"/>
</g>
<!-- 36&#45;&gt;10 -->
<g id="edge11" class="edge"><title>36&#45;&gt;10</title>
<path fill="none" stroke="red" d="M120.14,-492.994C126.239,-483.611 134.222,-471.329 141.144,-460.68"/>
<polygon fill="red" stroke="red" points="144.128,-462.511 146.643,-452.219 138.259,-458.696 144.128,-462.511"/>
</g>
<!-- 47&#45;&gt;10 -->
<g id="edge24" class="edge"><title>47&#45;&gt;10</title>
<path fill="none" stroke="green" d="M192.629,-492.994C186.531,-483.611 178.547,-471.329 171.626,-460.68"/>
<polygon fill="green" stroke="green" points="174.511,-458.696 166.126,-452.219 168.641,-462.511 174.511,-458.696"/>
</g>
<!-- 10&#45;&gt;37 -->
<g id="edge9" class="edge"><title>10&#45;&gt;37</title>
<path fill="none" stroke="red" d="M156.385,-417.739C156.385,-410.057 156.385,-400.847 156.385,-392.263"/>
<polygon fill="red" stroke="red" points="159.885,-392.247 156.385,-382.247 152.885,-392.247 159.885,-392.247"/>
</g>
<!-- 45 -->
<g id="node27" class="node"><title>45</title>
<ellipse fill="none" stroke="black" cx="156.385" cy="-290.693" rx="18.2703" ry="18.2703"/>
<text text-anchor="middle" x="156.385" y="-288.493" font-family="Times New Roman,serif" font-size="9.00">45</text>
</g>
<!-- 37&#45;&gt;45 -->
<g id="edge16" class="edge"><title>37&#45;&gt;45</title>
<path fill="none" stroke="green" d="M156.385,-344.969C156.385,-337.287 156.385,-328.078 156.385,-319.494"/>
<polygon fill="green" stroke="green" points="159.885,-319.477 156.385,-309.477 152.885,-319.477 159.885,-319.477"/>
</g>
<!-- 28 -->
<g id="node28" class="node"><title>28</title>
<ellipse fill="none" stroke="black" cx="156.385" cy="-217.924" rx="18.2703" ry="18.2703"/>
<text text-anchor="middle" x="156.385" y="-215.724" font-family="Times New Roman,serif" font-size="9.00">28</text>
</g>
<!-- 45&#45;&gt;28 -->
<g id="edge17" class="edge"><title>45&#45;&gt;28</title>
<path fill="none" stroke="red" d="M156.385,-272.2C156.385,-264.518 156.385,-255.308 156.385,-246.724"/>
<polygon fill="red" stroke="red" points="159.885,-246.708 156.385,-236.708 152.885,-246.708 159.885,-246.708"/>
</g>
<!-- 28&#45;&gt;5 -->
<g id="edge3" class="edge"><title>28&#45;&gt;5</title>
<path fill="none" stroke="red" d="M156.782,-199.253C156.935,-168.743 154.897,-104.592 137.385,-54 134.013,-44.2602 128.222,-34.3919 122.866,-26.476"/>
<polygon fill="red" stroke="red" points="125.614,-24.3016 116.949,-18.205 119.921,-28.3745 125.614,-24.3016"/>
</g>
<!-- 34 -->
<g id="node29" class="node"><title>34</title>
<ellipse fill="none" stroke="black" cx="110.385" cy="-145.154" rx="18.2703" ry="18.2703"/>
<text text-anchor="middle" x="110.385" y="-142.954" font-family="Times New Roman,serif" font-size="9.00">34</text>
</g>
<!-- 28&#45;&gt;34 -->
<g id="edge22" class="edge"><title>28&#45;&gt;34</title>
<path fill="none" stroke="green" d="M146.629,-201.915C140.531,-192.533 132.547,-180.251 125.626,-169.602"/>
<polygon fill="green" stroke="green" points="128.511,-167.618 120.126,-161.141 122.641,-171.433 128.511,-167.618"/>
</g>
<!-- 60 -->
<g id="node30" class="node"><title>60</title>
<ellipse fill="none" stroke="black" cx="110.385" cy="-72.3848" rx="18.2703" ry="18.2703"/>
<text text-anchor="middle" x="110.385" y="-70.1848" font-family="Times New Roman,serif" font-size="9.00">60</text>
</g>
<!-- 34&#45;&gt;60 -->
<g id="edge29" class="edge"><title>34&#45;&gt;60</title>
<path fill="none" stroke="green" d="M110.385,-126.661C110.385,-118.978 110.385,-109.769 110.385,-101.185"/>
<polygon fill="green" stroke="green" points="113.885,-101.169 110.385,-91.1687 106.885,-101.169 113.885,-101.169"/>
</g>
<!-- 60&#45;&gt;5 -->
<g id="edge30" class="edge"><title>60&#45;&gt;5</title>
<path fill="none" stroke="red" d="M110.385,-53.9586C110.385,-45.9601 110.385,-36.4732 110.385,-28.3636"/>
<polygon fill="red" stroke="red" points="113.885,-28.1158 110.385,-18.1158 106.885,-28.1158 113.885,-28.1158"/>
</g>
</g>
</svg>
