<?xml version="1.0" encoding="UTF-8" standalone="no"?>
<!DOCTYPE svg PUBLIC "-//W3C//DTD SVG 1.1//EN"
 "http://www.w3.org/Graphics/SVG/1.1/DTD/svg11.dtd">
<!-- Generated by graphviz version 2.38.0 (20140413.2041)
 -->
<!-- Title: %3 Pages: 1 -->
<svg width="589pt" height="1631pt"
 viewBox="0.00 0.00 588.67 1630.79" xmlns="http://www.w3.org/2000/svg" xmlns:xlink="http://www.w3.org/1999/xlink">
<g id="graph0" class="graph" transform="scale(1 1) rotate(0) translate(4 1626.79)">
<title>%3</title>
<polygon fill="white" stroke="none" points="-4,4 -4,-1626.79 584.673,-1626.79 584.673,4 -4,4"/>
<!-- 1 -->
<g id="node1" class="node"><title>1</title>
<polygon fill="lightgray" stroke="black" points="472.5,-1622.79 451.5,-1622.79 451.5,-1604.79 472.5,-1604.79 472.5,-1622.79"/>
<text text-anchor="middle" x="462" y="-1611.59" font-family="Times New Roman,serif" font-size="9.00">1</text>
</g>
<!-- 29 -->
<g id="node6" class="node"><title>29</title>
<ellipse fill="none" stroke="black" cx="429" cy="-1550.4" rx="18.2703" ry="18.2703"/>
<text text-anchor="middle" x="429" y="-1548.2" font-family="Times New Roman,serif" font-size="9.00">29</text>
</g>
<!-- 1&#45;&gt;29 -->
<g id="edge24" class="edge"><title>1&#45;&gt;29</title>
<path fill="none" stroke="green" d="M457.686,-1604.76C453.78,-1597.5 447.816,-1586.4 442.336,-1576.21"/>
<polygon fill="green" stroke="green" points="445.33,-1574.39 437.512,-1567.24 439.164,-1577.7 445.33,-1574.39"/>
</g>
<!-- 19 -->
<g id="node7" class="node"><title>19</title>
<ellipse fill="none" stroke="black" cx="326" cy="-1477.63" rx="18.2703" ry="18.2703"/>
<text text-anchor="middle" x="326" y="-1475.43" font-family="Times New Roman,serif" font-size="9.00">19</text>
</g>
<!-- 1&#45;&gt;19 -->
<g id="edge55" class="edge"><title>1&#45;&gt;19</title>
<path fill="none" stroke="red" d="M451.225,-1606.02C438.74,-1597.92 417.855,-1583.61 402,-1568.79 379.432,-1547.7 357.064,-1520.15 342.502,-1501.08"/>
<polygon fill="red" stroke="red" points="345.202,-1498.85 336.387,-1492.97 339.613,-1503.06 345.202,-1498.85"/>
</g>
<!-- 12 -->
<g id="node16" class="node"><title>12</title>
<ellipse fill="none" stroke="black" cx="533" cy="-1550.4" rx="18.2703" ry="18.2703"/>
<text text-anchor="middle" x="533" y="-1548.2" font-family="Times New Roman,serif" font-size="9.00">12</text>
</g>
<!-- 1&#45;&gt;12 -->
<g id="edge8" class="edge"><title>1&#45;&gt;12</title>
<path fill="none" stroke="red" d="M471.282,-1604.76C481.492,-1595.94 498.239,-1581.46 511.714,-1569.81"/>
<polygon fill="red" stroke="red" points="514.318,-1572.18 519.593,-1562.99 509.739,-1566.89 514.318,-1572.18"/>
</g>
<!-- 7 -->
<g id="node20" class="node"><title>7</title>
<ellipse fill="none" stroke="black" cx="533" cy="-1253.67" rx="14.7" ry="14.7"/>
<text text-anchor="middle" x="533" y="-1251.47" font-family="Times New Roman,serif" font-size="9.00">7</text>
</g>
<!-- 1&#45;&gt;7 -->
<g id="edge10" class="edge"><title>1&#45;&gt;7</title>
<path fill="none" stroke="red" d="M472.781,-1611.2C493.184,-1607.59 537.416,-1596.82 560,-1568.79 585.693,-1536.9 579,-1519.58 579,-1478.63 579,-1478.63 579,-1478.63 579,-1403.86 579,-1356.58 557.643,-1304.47 544.034,-1276.06"/>
<polygon fill="red" stroke="red" points="547.151,-1274.46 539.591,-1267.04 540.873,-1277.56 547.151,-1274.46"/>
</g>
<!-- 28 -->
<g id="node40" class="node"><title>28</title>
<ellipse fill="none" stroke="black" cx="271" cy="-217.924" rx="18.2703" ry="18.2703"/>
<text text-anchor="middle" x="271" y="-215.724" font-family="Times New Roman,serif" font-size="9.00">28</text>
</g>
<!-- 1&#45;&gt;28 -->
<g id="edge42" class="edge"><title>1&#45;&gt;28</title>
<path fill="none" stroke="green" d="M462.774,-1604.79C466.687,-1564.83 485.045,-1382.94 509,-1235.28 523.85,-1143.75 550,-1123.44 550,-1030.7 550,-1030.7 550,-1030.7 550,-362.463 550,-250.549 370.299,-225.816 299.336,-220.413"/>
<polygon fill="green" stroke="green" points="299.522,-216.917 289.306,-219.724 299.043,-223.901 299.522,-216.917"/>
</g>
<!-- 60 -->
<g id="node42" class="node"><title>60</title>
<ellipse fill="none" stroke="black" cx="30" cy="-72.3848" rx="18.2703" ry="18.2703"/>
<text text-anchor="middle" x="30" y="-70.1848" font-family="Times New Roman,serif" font-size="9.00">60</text>
</g>
<!-- 1&#45;&gt;60 -->
<g id="edge68" class="edge"><title>1&#45;&gt;60</title>
<path fill="none" stroke="green" d="M451.482,-1612.09C382.714,-1607.25 0,-1575.94 0,-1478.63 0,-1478.63 0,-1478.63 0,-216.924 0,-175.204 12.2933,-128.078 21.141,-99.5633"/>
<polygon fill="green" stroke="green" points="24.5047,-100.535 24.2157,-89.9444 17.8371,-98.4039 24.5047,-100.535"/>
</g>
<!-- 2 -->
<g id="node2" class="node"><title>2</title>
<polygon fill="lightgray" stroke="black" points="87.5,-965.933 66.5,-965.933 66.5,-947.933 87.5,-947.933 87.5,-965.933"/>
<text text-anchor="middle" x="77" y="-954.733" font-family="Times New Roman,serif" font-size="9.00">2</text>
</g>
<!-- 5 -->
<g id="node5" class="node"><title>5</title>
<polygon fill="lightblue" stroke="black" points="132.5,-18 111.5,-18 111.5,-0 132.5,-0 132.5,-18"/>
<text text-anchor="middle" x="122" y="-6.8" font-family="Times New Roman,serif" font-size="9.00">5</text>
</g>
<!-- 2&#45;&gt;5 -->
<g id="edge1" class="edge"><title>2&#45;&gt;5</title>
<path fill="none" stroke="green" d="M76.9077,-947.694C76.6602,-924.856 76,-858.808 76,-803.909 76,-803.909 76,-803.909 76,-144.154 76,-100.008 98.5644,-51.8933 112.086,-27.024"/>
<polygon fill="green" stroke="green" points="115.231,-28.5723 117.077,-18.1396 109.128,-25.1437 115.231,-28.5723"/>
</g>
<!-- 33 -->
<g id="node26" class="node"><title>33</title>
<ellipse fill="none" stroke="black" cx="160" cy="-881.335" rx="18.2703" ry="18.2703"/>
<text text-anchor="middle" x="160" y="-879.135" font-family="Times New Roman,serif" font-size="9.00">33</text>
</g>
<!-- 2&#45;&gt;33 -->
<g id="edge23" class="edge"><title>2&#45;&gt;33</title>
<path fill="none" stroke="green" d="M86.1996,-947.776C98.8222,-936.583 121.878,-916.139 138.872,-901.069"/>
<polygon fill="green" stroke="green" points="141.496,-903.421 146.656,-894.168 136.852,-898.183 141.496,-903.421"/>
</g>
<!-- 38 -->
<g id="node27" class="node"><title>38</title>
<ellipse fill="none" stroke="black" cx="160" cy="-802.909" rx="18.2703" ry="18.2703"/>
<text text-anchor="middle" x="160" y="-800.709" font-family="Times New Roman,serif" font-size="9.00">38</text>
</g>
<!-- 2&#45;&gt;38 -->
<g id="edge11" class="edge"><title>2&#45;&gt;38</title>
<path fill="none" stroke="red" d="M81.4624,-947.76C93.589,-925.548 127.514,-863.411 146.572,-828.504"/>
<polygon fill="red" stroke="red" points="149.802,-829.891 151.522,-819.437 143.658,-826.537 149.802,-829.891"/>
</g>
<!-- 3 -->
<g id="node3" class="node"><title>3</title>
<polygon fill="lightgray" stroke="black" points="309.5,-1111.47 288.5,-1111.47 288.5,-1093.47 309.5,-1093.47 309.5,-1111.47"/>
<text text-anchor="middle" x="299" y="-1100.27" font-family="Times New Roman,serif" font-size="9.00">3</text>
</g>
<!-- 6 -->
<g id="node18" class="node"><title>6</title>
<ellipse fill="none" stroke="black" cx="208" cy="-1029.7" rx="14.7" ry="14.7"/>
<text text-anchor="middle" x="208" y="-1027.5" font-family="Times New Roman,serif" font-size="9.00">6</text>
</g>
<!-- 3&#45;&gt;6 -->
<g id="edge65" class="edge"><title>3&#45;&gt;6</title>
<path fill="none" stroke="red" d="M288.561,-1093.35C273.73,-1081.82 246.288,-1060.48 227.594,-1045.94"/>
<polygon fill="red" stroke="red" points="229.499,-1042.99 219.456,-1039.61 225.201,-1048.51 229.499,-1042.99"/>
</g>
<!-- 11 -->
<g id="node19" class="node"><title>11</title>
<ellipse fill="none" stroke="black" cx="342" cy="-1029.7" rx="18.2703" ry="18.2703"/>
<text text-anchor="middle" x="342" y="-1027.5" font-family="Times New Roman,serif" font-size="9.00">11</text>
</g>
<!-- 3&#45;&gt;11 -->
<g id="edge63" class="edge"><title>3&#45;&gt;11</title>
<path fill="none" stroke="green" d="M303.933,-1093.35C309.632,-1083.97 319.274,-1068.11 327.427,-1054.69"/>
<polygon fill="green" stroke="green" points="330.566,-1056.26 332.767,-1045.9 324.583,-1052.63 330.566,-1056.26"/>
</g>
<!-- 4 -->
<g id="node4" class="node"><title>4</title>
<polygon fill="lightgray" stroke="black" points="457.5,-1338.27 436.5,-1338.27 436.5,-1320.27 457.5,-1320.27 457.5,-1338.27"/>
<text text-anchor="middle" x="447" y="-1327.07" font-family="Times New Roman,serif" font-size="9.00">4</text>
</g>
<!-- 54 -->
<g id="node8" class="node"><title>54</title>
<ellipse fill="none" stroke="black" cx="336" cy="-1253.67" rx="18.2703" ry="18.2703"/>
<text text-anchor="middle" x="336" y="-1251.47" font-family="Times New Roman,serif" font-size="9.00">54</text>
</g>
<!-- 4&#45;&gt;54 -->
<g id="edge32" class="edge"><title>4&#45;&gt;54</title>
<path fill="none" stroke="red" d="M436.357,-1321.21C418.747,-1309.53 383.139,-1285.92 359.426,-1270.2"/>
<polygon fill="red" stroke="red" points="361.251,-1267.21 350.983,-1264.6 357.383,-1273.05 361.251,-1267.21"/>
</g>
<!-- 20 -->
<g id="node15" class="node"><title>20</title>
<ellipse fill="none" stroke="black" cx="447" cy="-1178.07" rx="18.2703" ry="18.2703"/>
<text text-anchor="middle" x="447" y="-1175.87" font-family="Times New Roman,serif" font-size="9.00">20</text>
</g>
<!-- 4&#45;&gt;20 -->
<g id="edge5" class="edge"><title>4&#45;&gt;20</title>
<path fill="none" stroke="red" d="M447,-1320.24C447,-1299.27 447,-1242.03 447,-1207.21"/>
<polygon fill="red" stroke="red" points="450.5,-1206.77 447,-1196.77 443.5,-1206.77 450.5,-1206.77"/>
</g>
<!-- 4&#45;&gt;7 -->
<g id="edge12" class="edge"><title>4&#45;&gt;7</title>
<path fill="none" stroke="red" d="M456.532,-1320.11C470.363,-1308.27 496.282,-1286.09 514.079,-1270.86"/>
<polygon fill="red" stroke="red" points="516.753,-1273.18 522.075,-1264.02 512.202,-1267.86 516.753,-1273.18"/>
</g>
<!-- 29&#45;&gt;19 -->
<g id="edge25" class="edge"><title>29&#45;&gt;19</title>
<path fill="none" stroke="green" d="M414.243,-1539.26C397.263,-1527.6 369.164,-1508.29 349.24,-1494.6"/>
<polygon fill="green" stroke="green" points="350.954,-1491.53 340.73,-1488.75 346.99,-1497.3 350.954,-1491.53"/>
</g>
<!-- 71 -->
<g id="node9" class="node"><title>71</title>
<ellipse fill="none" stroke="black" cx="263" cy="-1404.86" rx="18.2703" ry="18.2703"/>
<text text-anchor="middle" x="263" y="-1402.66" font-family="Times New Roman,serif" font-size="9.00">71</text>
</g>
<!-- 19&#45;&gt;71 -->
<g id="edge27" class="edge"><title>19&#45;&gt;71</title>
<path fill="none" stroke="green" d="M314.15,-1463.32C304.999,-1453.04 292.163,-1438.62 281.639,-1426.8"/>
<polygon fill="green" stroke="green" points="284.06,-1424.26 274.797,-1419.12 278.832,-1428.91 284.06,-1424.26"/>
</g>
<!-- 30 -->
<g id="node11" class="node"><title>30</title>
<ellipse fill="none" stroke="black" cx="258" cy="-1253.67" rx="18.2703" ry="18.2703"/>
<text text-anchor="middle" x="258" y="-1251.47" font-family="Times New Roman,serif" font-size="9.00">30</text>
</g>
<!-- 19&#45;&gt;30 -->
<g id="edge59" class="edge"><title>19&#45;&gt;30</title>
<path fill="none" stroke="green" d="M324.613,-1459.29C321.661,-1428.04 313.203,-1360.67 292,-1308.05 287.643,-1297.24 281.058,-1286.22 274.839,-1277.02"/>
<polygon fill="green" stroke="green" points="277.691,-1274.99 269.075,-1268.83 271.966,-1279.02 277.691,-1274.99"/>
</g>
<!-- 56 -->
<g id="node32" class="node"><title>56</title>
<ellipse fill="none" stroke="black" cx="411" cy="-654.541" rx="18.2703" ry="18.2703"/>
<text text-anchor="middle" x="411" y="-652.341" font-family="Times New Roman,serif" font-size="9.00">56</text>
</g>
<!-- 19&#45;&gt;56 -->
<g id="edge69" class="edge"><title>19&#45;&gt;56</title>
<path fill="none" stroke="green" d="M335.754,-1461.97C351.799,-1436.38 382,-1381.42 382,-1330.27 382,-1330.27 382,-1330.27 382,-1177.07 382,-1054.18 407.654,-1025.22 415,-902.548 416.127,-883.726 415.184,-878.977 415,-860.122 414.381,-796.806 412.685,-722.483 411.712,-683.174"/>
<polygon fill="green" stroke="green" points="415.208,-682.963 411.458,-673.054 408.21,-683.138 415.208,-682.963"/>
</g>
<!-- 34 -->
<g id="node41" class="node"><title>34</title>
<ellipse fill="none" stroke="black" cx="122" cy="-145.154" rx="18.2703" ry="18.2703"/>
<text text-anchor="middle" x="122" y="-142.954" font-family="Times New Roman,serif" font-size="9.00">34</text>
</g>
<!-- 19&#45;&gt;34 -->
<g id="edge64" class="edge"><title>19&#45;&gt;34</title>
<path fill="none" stroke="red" d="M307.546,-1475.93C243.982,-1472.42 38,-1451.69 38,-1330.27 38,-1330.27 38,-1330.27 38,-289.693 38,-239.454 76.8059,-191.197 101.666,-165.437"/>
<polygon fill="red" stroke="red" points="104.305,-167.747 108.875,-158.188 99.3419,-162.811 104.305,-167.747"/>
</g>
<!-- 113 -->
<g id="node12" class="node"><title>113</title>
<ellipse fill="none" stroke="black" cx="295" cy="-1178.07" rx="21.4286" ry="21.4286"/>
<text text-anchor="middle" x="295" y="-1175.87" font-family="Times New Roman,serif" font-size="9.00">113</text>
</g>
<!-- 54&#45;&gt;113 -->
<g id="edge44" class="edge"><title>54&#45;&gt;113</title>
<path fill="none" stroke="red" d="M327.305,-1237.06C322.251,-1227.99 315.744,-1216.31 309.897,-1205.81"/>
<polygon fill="red" stroke="red" points="312.905,-1204.02 304.981,-1196.99 306.79,-1207.43 312.905,-1204.02"/>
</g>
<!-- 16 -->
<g id="node14" class="node"><title>16</title>
<ellipse fill="none" stroke="black" cx="246" cy="-1102.47" rx="18.2703" ry="18.2703"/>
<text text-anchor="middle" x="246" y="-1100.27" font-family="Times New Roman,serif" font-size="9.00">16</text>
</g>
<!-- 54&#45;&gt;16 -->
<g id="edge67" class="edge"><title>54&#45;&gt;16</title>
<path fill="none" stroke="green" d="M338.138,-1235.37C339.771,-1215.05 339.679,-1181.05 325,-1156.86 318.41,-1146 291.322,-1128.97 270.686,-1117.07"/>
<polygon fill="green" stroke="green" points="272.18,-1113.9 261.755,-1112.01 268.728,-1119.99 272.18,-1113.9"/>
</g>
<!-- 102 -->
<g id="node10" class="node"><title>102</title>
<ellipse fill="none" stroke="black" cx="262" cy="-1329.27" rx="21.4286" ry="21.4286"/>
<text text-anchor="middle" x="262" y="-1327.07" font-family="Times New Roman,serif" font-size="9.00">102</text>
</g>
<!-- 71&#45;&gt;102 -->
<g id="edge30" class="edge"><title>71&#45;&gt;102</title>
<path fill="none" stroke="green" d="M262.763,-1386.42C262.66,-1378.81 262.535,-1369.65 262.417,-1360.95"/>
<polygon fill="green" stroke="green" points="265.913,-1360.67 262.278,-1350.72 258.914,-1360.76 265.913,-1360.67"/>
</g>
<!-- 102&#45;&gt;30 -->
<g id="edge31" class="edge"><title>102&#45;&gt;30</title>
<path fill="none" stroke="red" d="M260.886,-1307.77C260.457,-1299.87 259.959,-1290.72 259.5,-1282.26"/>
<polygon fill="red" stroke="red" points="262.983,-1281.86 258.946,-1272.07 255.994,-1282.24 262.983,-1281.86"/>
</g>
<!-- 66 -->
<g id="node13" class="node"><title>66</title>
<ellipse fill="none" stroke="black" cx="200" cy="-1178.07" rx="18.2703" ry="18.2703"/>
<text text-anchor="middle" x="200" y="-1175.87" font-family="Times New Roman,serif" font-size="9.00">66</text>
</g>
<!-- 30&#45;&gt;66 -->
<g id="edge71" class="edge"><title>30&#45;&gt;66</title>
<path fill="none" stroke="red" d="M247.091,-1238.82C238.719,-1228.2 226.998,-1213.33 217.344,-1201.08"/>
<polygon fill="red" stroke="red" points="219.996,-1198.79 211.058,-1193.1 214.498,-1203.12 219.996,-1198.79"/>
</g>
<!-- 30&#45;&gt;16 -->
<g id="edge16" class="edge"><title>30&#45;&gt;16</title>
<path fill="none" stroke="green" d="M256.6,-1235.26C254.543,-1209.68 250.682,-1161.68 248.231,-1131.21"/>
<polygon fill="green" stroke="green" points="251.719,-1130.92 247.428,-1121.23 244.741,-1131.48 251.719,-1130.92"/>
</g>
<!-- 113&#45;&gt;16 -->
<g id="edge45" class="edge"><title>113&#45;&gt;16</title>
<path fill="none" stroke="red" d="M283.635,-1160C277.097,-1150.18 268.788,-1137.7 261.641,-1126.96"/>
<polygon fill="red" stroke="red" points="264.43,-1124.84 255.975,-1118.45 258.603,-1128.72 264.43,-1124.84"/>
</g>
<!-- 66&#45;&gt;16 -->
<g id="edge72" class="edge"><title>66&#45;&gt;16</title>
<path fill="none" stroke="red" d="M209.309,-1162.18C215.606,-1152.1 224.056,-1138.58 231.26,-1127.06"/>
<polygon fill="red" stroke="red" points="234.373,-1128.68 236.705,-1118.34 228.437,-1124.97 234.373,-1128.68"/>
</g>
<!-- 16&#45;&gt;6 -->
<g id="edge2" class="edge"><title>16&#45;&gt;6</title>
<path fill="none" stroke="green" d="M237.567,-1085.77C232.223,-1075.81 225.243,-1062.82 219.408,-1051.95"/>
<polygon fill="green" stroke="green" points="222.458,-1050.23 214.644,-1043.08 216.291,-1053.54 222.458,-1050.23"/>
</g>
<!-- 48 -->
<g id="node17" class="node"><title>48</title>
<ellipse fill="none" stroke="black" cx="428" cy="-1102.47" rx="18.2703" ry="18.2703"/>
<text text-anchor="middle" x="428" y="-1100.27" font-family="Times New Roman,serif" font-size="9.00">48</text>
</g>
<!-- 20&#45;&gt;48 -->
<g id="edge37" class="edge"><title>20&#45;&gt;48</title>
<path fill="none" stroke="red" d="M442.593,-1160C440.315,-1151.18 437.482,-1140.2 434.92,-1130.28"/>
<polygon fill="red" stroke="red" points="438.271,-1129.26 432.383,-1120.45 431.494,-1131.01 438.271,-1129.26"/>
</g>
<!-- 20&#45;&gt;11 -->
<g id="edge51" class="edge"><title>20&#45;&gt;11</title>
<path fill="none" stroke="red" d="M435.239,-1163.53C425.686,-1152.34 412.035,-1135.91 401,-1120.86 384.915,-1098.92 368.065,-1072.81 356.51,-1054.35"/>
<polygon fill="red" stroke="red" points="359.388,-1052.35 351.136,-1045.71 353.443,-1056.05 359.388,-1052.35"/>
</g>
<!-- 31 -->
<g id="node31" class="node"><title>31</title>
<ellipse fill="none" stroke="black" cx="466" cy="-654.541" rx="18.2703" ry="18.2703"/>
<text text-anchor="middle" x="466" y="-652.341" font-family="Times New Roman,serif" font-size="9.00">31</text>
</g>
<!-- 20&#45;&gt;31 -->
<g id="edge70" class="edge"><title>20&#45;&gt;31</title>
<path fill="none" stroke="green" d="M452.206,-1160.13C460.052,-1133.06 474,-1078.25 474,-1030.7 474,-1030.7 474,-1030.7 474,-801.909 474,-760.613 470.786,-712.861 468.432,-683.429"/>
<polygon fill="green" stroke="green" points="471.89,-682.777 467.581,-673.098 464.914,-683.352 471.89,-682.777"/>
</g>
<!-- 37 -->
<g id="node38" class="node"><title>37</title>
<ellipse fill="none" stroke="black" cx="373" cy="-363.463" rx="18.2703" ry="18.2703"/>
<text text-anchor="middle" x="373" y="-361.263" font-family="Times New Roman,serif" font-size="9.00">37</text>
</g>
<!-- 20&#45;&gt;37 -->
<g id="edge15" class="edge"><title>20&#45;&gt;37</title>
<path fill="none" stroke="green" d="M458.026,-1163.04C476.571,-1137.99 512,-1083.25 512,-1030.7 512,-1030.7 512,-1030.7 512,-508.002 512,-443.587 438.868,-397.099 398.696,-376.421"/>
<polygon fill="green" stroke="green" points="400.003,-373.162 389.491,-371.837 396.882,-379.428 400.003,-373.162"/>
</g>
<!-- 12&#45;&gt;7 -->
<g id="edge9" class="edge"><title>12&#45;&gt;7</title>
<path fill="none" stroke="green" d="M533,-1531.85C533,-1481.54 533,-1336.77 533,-1278.95"/>
<polygon fill="green" stroke="green" points="536.5,-1278.6 533,-1268.6 529.5,-1278.6 536.5,-1278.6"/>
</g>
<!-- 48&#45;&gt;11 -->
<g id="edge38" class="edge"><title>48&#45;&gt;11</title>
<path fill="none" stroke="red" d="M414.183,-1090.1C400.516,-1078.86 379.404,-1061.48 363.536,-1048.42"/>
<polygon fill="red" stroke="red" points="365.729,-1045.7 355.783,-1042.04 361.281,-1051.1 365.729,-1045.7"/>
</g>
<!-- 63 -->
<g id="node21" class="node"><title>63</title>
<ellipse fill="none" stroke="black" cx="162" cy="-956.933" rx="18.2703" ry="18.2703"/>
<text text-anchor="middle" x="162" y="-954.733" font-family="Times New Roman,serif" font-size="9.00">63</text>
</g>
<!-- 6&#45;&gt;63 -->
<g id="edge18" class="edge"><title>6&#45;&gt;63</title>
<path fill="none" stroke="green" d="M200.197,-1016.7C193.905,-1007.02 184.868,-993.116 177.164,-981.262"/>
<polygon fill="green" stroke="green" points="179.984,-979.178 171.599,-972.701 174.115,-982.993 179.984,-979.178"/>
</g>
<!-- 6&#45;&gt;33 -->
<g id="edge52" class="edge"><title>6&#45;&gt;33</title>
<path fill="none" stroke="green" d="M194.435,-1023.41C176.983,-1015.77 147.436,-999.819 135,-975.318 123.687,-953.029 134.119,-925.054 144.754,-905.641"/>
<polygon fill="green" stroke="green" points="147.862,-907.258 149.896,-896.86 141.822,-903.721 147.862,-907.258"/>
</g>
<!-- 10 -->
<g id="node36" class="node"><title>10</title>
<ellipse fill="none" stroke="black" cx="396" cy="-509.002" rx="18.2703" ry="18.2703"/>
<text text-anchor="middle" x="396" y="-506.802" font-family="Times New Roman,serif" font-size="9.00">10</text>
</g>
<!-- 6&#45;&gt;10 -->
<g id="edge33" class="edge"><title>6&#45;&gt;10</title>
<path fill="none" stroke="red" d="M210.337,-1014.86C216.883,-977.043 236.652,-868.967 263,-781.696 293.047,-682.172 292.222,-651.746 347,-563.387 354.741,-550.9 365.616,-538.696 375.155,-529.116"/>
<polygon fill="red" stroke="red" points="377.703,-531.52 382.434,-522.04 372.824,-526.501 377.703,-531.52"/>
</g>
<!-- 40 -->
<g id="node22" class="node"><title>40</title>
<ellipse fill="none" stroke="black" cx="293" cy="-956.933" rx="18.2703" ry="18.2703"/>
<text text-anchor="middle" x="293" y="-954.733" font-family="Times New Roman,serif" font-size="9.00">40</text>
</g>
<!-- 11&#45;&gt;40 -->
<g id="edge26" class="edge"><title>11&#45;&gt;40</title>
<path fill="none" stroke="green" d="M331.847,-1014.04C325.211,-1004.46 316.408,-991.74 308.859,-980.838"/>
<polygon fill="green" stroke="green" points="311.71,-978.807 303.14,-972.578 305.955,-982.792 311.71,-978.807"/>
</g>
<!-- 32 -->
<g id="node25" class="node"><title>32</title>
<ellipse fill="none" stroke="black" cx="334" cy="-727.311" rx="18.2703" ry="18.2703"/>
<text text-anchor="middle" x="334" y="-725.111" font-family="Times New Roman,serif" font-size="9.00">32</text>
</g>
<!-- 11&#45;&gt;32 -->
<g id="edge50" class="edge"><title>11&#45;&gt;32</title>
<path fill="none" stroke="red" d="M341.535,-1011.25C340.201,-961.169 336.353,-816.657 334.733,-755.822"/>
<polygon fill="red" stroke="red" points="338.231,-755.711 334.466,-745.808 331.234,-755.897 338.231,-755.711"/>
</g>
<!-- 84 -->
<g id="node28" class="node"><title>84</title>
<ellipse fill="none" stroke="black" cx="388" cy="-881.335" rx="18.2703" ry="18.2703"/>
<text text-anchor="middle" x="388" y="-879.135" font-family="Times New Roman,serif" font-size="9.00">84</text>
</g>
<!-- 11&#45;&gt;84 -->
<g id="edge21" class="edge"><title>11&#45;&gt;84</title>
<path fill="none" stroke="green" d="M347.277,-1011.91C355.172,-986.791 370.137,-939.174 379.561,-909.186"/>
<polygon fill="green" stroke="green" points="382.984,-909.97 382.643,-899.38 376.306,-907.871 382.984,-909.97"/>
</g>
<!-- 63&#45;&gt;33 -->
<g id="edge19" class="edge"><title>63&#45;&gt;33</title>
<path fill="none" stroke="green" d="M161.526,-938.491C161.296,-930.029 161.014,-919.658 160.756,-910.141"/>
<polygon fill="green" stroke="green" points="164.248,-909.808 160.478,-899.907 157.251,-909.998 164.248,-909.808"/>
</g>
<!-- 104 -->
<g id="node23" class="node"><title>104</title>
<ellipse fill="none" stroke="black" cx="293" cy="-881.335" rx="21.4286" ry="21.4286"/>
<text text-anchor="middle" x="293" y="-879.135" font-family="Times New Roman,serif" font-size="9.00">104</text>
</g>
<!-- 40&#45;&gt;104 -->
<g id="edge34" class="edge"><title>40&#45;&gt;104</title>
<path fill="none" stroke="green" d="M293,-938.491C293,-930.876 293,-921.714 293,-913.021"/>
<polygon fill="green" stroke="green" points="296.5,-912.784 293,-902.784 289.5,-912.784 296.5,-912.784"/>
</g>
<!-- 40&#45;&gt;38 -->
<g id="edge46" class="edge"><title>40&#45;&gt;38</title>
<path fill="none" stroke="green" d="M281.197,-942.442C258.087,-916.026 206.699,-857.287 178.836,-825.44"/>
<polygon fill="green" stroke="green" points="181.186,-822.81 171.968,-817.588 175.918,-827.419 181.186,-822.81"/>
</g>
<!-- 104&#45;&gt;5 -->
<g id="edge41" class="edge"><title>104&#45;&gt;5</title>
<path fill="none" stroke="green" d="M280.704,-863.917C263.096,-839.511 231.058,-791.593 215,-745.696 169.225,-614.861 169,-575.843 169,-437.233 169,-437.233 169,-437.233 169,-144.154 169,-99.9062 145.945,-51.8322 132.13,-26.9965"/>
<polygon fill="green" stroke="green" points="135.048,-25.0505 127.03,-18.1253 128.979,-28.5392 135.048,-25.0505"/>
</g>
<!-- 105 -->
<g id="node24" class="node"><title>105</title>
<ellipse fill="none" stroke="black" cx="293" cy="-802.909" rx="21.4286" ry="21.4286"/>
<text text-anchor="middle" x="293" y="-800.709" font-family="Times New Roman,serif" font-size="9.00">105</text>
</g>
<!-- 104&#45;&gt;105 -->
<g id="edge35" class="edge"><title>104&#45;&gt;105</title>
<path fill="none" stroke="red" d="M293,-859.854C293,-851.996 293,-842.851 293,-834.261"/>
<polygon fill="red" stroke="red" points="296.5,-834.181 293,-824.181 289.5,-834.181 296.5,-834.181"/>
</g>
<!-- 105&#45;&gt;32 -->
<g id="edge36" class="edge"><title>105&#45;&gt;32</title>
<path fill="none" stroke="red" d="M302.925,-784.093C308.151,-774.712 314.639,-763.065 320.333,-752.844"/>
<polygon fill="red" stroke="red" points="323.471,-754.403 325.28,-743.964 317.356,-750.997 323.471,-754.403"/>
</g>
<!-- 32&#45;&gt;31 -->
<g id="edge4" class="edge"><title>32&#45;&gt;31</title>
<path fill="none" stroke="red" d="M350.43,-718.392C371.115,-708.307 407.619,-690.118 438,-672.926 439.307,-672.186 440.641,-671.415 441.981,-670.628"/>
<polygon fill="red" stroke="red" points="443.987,-673.505 450.731,-665.333 440.363,-667.516 443.987,-673.505"/>
</g>
<!-- 45 -->
<g id="node39" class="node"><title>45</title>
<ellipse fill="none" stroke="black" cx="327" cy="-290.693" rx="18.2703" ry="18.2703"/>
<text text-anchor="middle" x="327" y="-288.493" font-family="Times New Roman,serif" font-size="9.00">45</text>
</g>
<!-- 32&#45;&gt;45 -->
<g id="edge66" class="edge"><title>32&#45;&gt;45</title>
<path fill="none" stroke="red" d="M332.583,-708.646C330.538,-681.573 327,-628.18 327,-582.772 327,-582.772 327,-582.772 327,-435.233 327,-395.016 327,-348.461 327,-319.542"/>
<polygon fill="red" stroke="red" points="330.5,-319.372 327,-309.372 323.5,-319.372 330.5,-319.372"/>
</g>
<!-- 33&#45;&gt;38 -->
<g id="edge6" class="edge"><title>33&#45;&gt;38</title>
<path fill="none" stroke="green" d="M160,-862.609C160,-853.446 160,-842.05 160,-831.745"/>
<polygon fill="green" stroke="green" points="163.5,-831.538 160,-821.538 156.5,-831.538 163.5,-831.538"/>
</g>
<!-- 51 -->
<g id="node29" class="node"><title>51</title>
<ellipse fill="none" stroke="black" cx="150" cy="-727.311" rx="18.2703" ry="18.2703"/>
<text text-anchor="middle" x="150" y="-725.111" font-family="Times New Roman,serif" font-size="9.00">51</text>
</g>
<!-- 38&#45;&gt;51 -->
<g id="edge20" class="edge"><title>38&#45;&gt;51</title>
<path fill="none" stroke="red" d="M157.63,-784.467C156.459,-775.851 155.02,-765.256 153.708,-755.6"/>
<polygon fill="red" stroke="red" points="157.167,-755.065 152.353,-745.627 150.231,-756.007 157.167,-755.065"/>
</g>
<!-- 21 -->
<g id="node30" class="node"><title>21</title>
<ellipse fill="none" stroke="black" cx="242" cy="-727.311" rx="18.2703" ry="18.2703"/>
<text text-anchor="middle" x="242" y="-725.111" font-family="Times New Roman,serif" font-size="9.00">21</text>
</g>
<!-- 38&#45;&gt;21 -->
<g id="edge54" class="edge"><title>38&#45;&gt;21</title>
<path fill="none" stroke="green" d="M173.175,-790.084C186.009,-778.564 205.732,-760.862 220.78,-747.356"/>
<polygon fill="green" stroke="green" points="223.481,-749.635 228.586,-740.351 218.806,-744.426 223.481,-749.635"/>
</g>
<!-- 36 -->
<g id="node33" class="node"><title>36</title>
<ellipse fill="none" stroke="black" cx="374" cy="-581.772" rx="18.2703" ry="18.2703"/>
<text text-anchor="middle" x="374" y="-579.572" font-family="Times New Roman,serif" font-size="9.00">36</text>
</g>
<!-- 84&#45;&gt;36 -->
<g id="edge22" class="edge"><title>84&#45;&gt;36</title>
<path fill="none" stroke="red" d="M387.166,-862.612C384.822,-812.789 378.16,-671.187 375.314,-610.71"/>
<polygon fill="red" stroke="red" points="378.796,-610.226 374.829,-600.402 371.803,-610.555 378.796,-610.226"/>
</g>
<!-- 21&#45;&gt;56 -->
<g id="edge60" class="edge"><title>21&#45;&gt;56</title>
<path fill="none" stroke="red" d="M258.822,-719.266C288.306,-706.92 349.513,-681.289 384.656,-666.573"/>
<polygon fill="red" stroke="red" points="386.374,-669.648 394.246,-662.557 383.67,-663.191 386.374,-669.648"/>
</g>
<!-- 57 -->
<g id="node35" class="node"><title>57</title>
<ellipse fill="none" stroke="black" cx="215" cy="-509.002" rx="18.2703" ry="18.2703"/>
<text text-anchor="middle" x="215" y="-506.802" font-family="Times New Roman,serif" font-size="9.00">57</text>
</g>
<!-- 21&#45;&gt;57 -->
<g id="edge28" class="edge"><title>21&#45;&gt;57</title>
<path fill="none" stroke="red" d="M239.836,-708.975C235.156,-671.479 224.06,-582.587 218.42,-537.397"/>
<polygon fill="red" stroke="red" points="221.886,-536.91 217.174,-527.42 214.94,-537.777 221.886,-536.91"/>
</g>
<!-- 21&#45;&gt;37 -->
<g id="edge58" class="edge"><title>21&#45;&gt;37</title>
<path fill="none" stroke="red" d="M244.061,-708.808C247.948,-678.55 257.58,-614.771 275,-563.387 298.108,-495.227 313.98,-482.303 346,-417.848 350.615,-408.558 355.739,-398.391 360.272,-389.446"/>
<polygon fill="red" stroke="red" points="363.5,-390.818 364.906,-380.317 357.258,-387.649 363.5,-390.818"/>
</g>
<!-- 31&#45;&gt;36 -->
<g id="edge43" class="edge"><title>31&#45;&gt;36</title>
<path fill="none" stroke="green" d="M451.625,-642.483C436.907,-631.162 413.817,-613.4 396.641,-600.188"/>
<polygon fill="green" stroke="green" points="398.334,-597.075 388.274,-593.752 394.066,-602.623 398.334,-597.075"/>
</g>
<!-- 47 -->
<g id="node34" class="node"><title>47</title>
<ellipse fill="none" stroke="black" cx="466" cy="-581.772" rx="18.2703" ry="18.2703"/>
<text text-anchor="middle" x="466" y="-579.572" font-family="Times New Roman,serif" font-size="9.00">47</text>
</g>
<!-- 31&#45;&gt;47 -->
<g id="edge13" class="edge"><title>31&#45;&gt;47</title>
<path fill="none" stroke="red" d="M466,-636.048C466,-628.365 466,-619.156 466,-610.572"/>
<polygon fill="red" stroke="red" points="469.5,-610.556 466,-600.556 462.5,-610.556 469.5,-610.556"/>
</g>
<!-- 31&#45;&gt;10 -->
<g id="edge3" class="edge"><title>31&#45;&gt;10</title>
<path fill="none" stroke="green" d="M457.87,-637.705C452.459,-627.108 445.228,-612.834 439,-600.156 428.29,-578.357 416.428,-553.425 407.88,-535.313"/>
<polygon fill="green" stroke="green" points="410.928,-533.571 403.501,-526.016 404.596,-536.554 410.928,-533.571"/>
</g>
<!-- 56&#45;&gt;36 -->
<g id="edge61" class="edge"><title>56&#45;&gt;36</title>
<path fill="none" stroke="red" d="M402.789,-637.835C398.142,-628.948 392.226,-617.632 386.967,-607.573"/>
<polygon fill="red" stroke="red" points="389.923,-605.674 382.189,-598.434 383.72,-608.917 389.923,-605.674"/>
</g>
<!-- 36&#45;&gt;10 -->
<g id="edge7" class="edge"><title>36&#45;&gt;10</title>
<path fill="none" stroke="green" d="M379.214,-564C381.789,-555.716 384.956,-545.528 387.843,-536.242"/>
<polygon fill="green" stroke="green" points="391.197,-537.241 390.824,-526.653 384.513,-535.163 391.197,-537.241"/>
</g>
<!-- 47&#45;&gt;10 -->
<g id="edge14" class="edge"><title>47&#45;&gt;10</title>
<path fill="none" stroke="green" d="M453.485,-568.119C443.064,-557.584 428.031,-542.385 415.952,-530.173"/>
<polygon fill="green" stroke="green" points="418.401,-527.672 408.88,-523.024 413.424,-532.594 418.401,-527.672"/>
</g>
<!-- 57&#45;&gt;37 -->
<g id="edge29" class="edge"><title>57&#45;&gt;37</title>
<path fill="none" stroke="red" d="M216.962,-490.567C220.065,-470.637 227.868,-438.158 247,-417.848 273.29,-389.94 316.506,-376.003 344.861,-369.513"/>
<polygon fill="red" stroke="red" points="345.878,-372.875 354.934,-367.377 344.425,-366.028 345.878,-372.875"/>
</g>
<!-- 67 -->
<g id="node37" class="node"><title>67</title>
<ellipse fill="none" stroke="black" cx="373" cy="-436.233" rx="18.2703" ry="18.2703"/>
<text text-anchor="middle" x="373" y="-434.033" font-family="Times New Roman,serif" font-size="9.00">67</text>
</g>
<!-- 10&#45;&gt;67 -->
<g id="edge39" class="edge"><title>10&#45;&gt;67</title>
<path fill="none" stroke="red" d="M390.549,-491.231C387.857,-482.946 384.546,-472.758 381.528,-463.473"/>
<polygon fill="red" stroke="red" points="384.831,-462.312 378.412,-453.884 378.174,-464.476 384.831,-462.312"/>
</g>
<!-- 10&#45;&gt;37 -->
<g id="edge53" class="edge"><title>10&#45;&gt;37</title>
<path fill="none" stroke="red" d="M399.546,-490.788C402.683,-472.446 405.924,-442.689 400,-417.848 397.532,-407.5 392.717,-396.887 387.828,-387.878"/>
<polygon fill="red" stroke="red" points="390.825,-386.067 382.802,-379.147 384.758,-389.56 390.825,-386.067"/>
</g>
<!-- 67&#45;&gt;37 -->
<g id="edge40" class="edge"><title>67&#45;&gt;37</title>
<path fill="none" stroke="green" d="M373,-417.739C373,-410.057 373,-400.847 373,-392.263"/>
<polygon fill="green" stroke="green" points="376.5,-392.247 373,-382.247 369.5,-392.247 376.5,-392.247"/>
</g>
<!-- 37&#45;&gt;45 -->
<g id="edge56" class="edge"><title>37&#45;&gt;45</title>
<path fill="none" stroke="red" d="M363.245,-347.455C357.146,-338.072 349.162,-325.79 342.241,-315.141"/>
<polygon fill="red" stroke="red" points="345.126,-313.157 336.741,-306.68 339.257,-316.972 345.126,-313.157"/>
</g>
<!-- 45&#45;&gt;28 -->
<g id="edge57" class="edge"><title>45&#45;&gt;28</title>
<path fill="none" stroke="red" d="M315.936,-275.712C308.113,-265.825 297.464,-252.367 288.496,-241.035"/>
<polygon fill="red" stroke="red" points="290.991,-238.547 282.041,-232.877 285.501,-242.89 290.991,-238.547"/>
</g>
<!-- 28&#45;&gt;5 -->
<g id="edge49" class="edge"><title>28&#45;&gt;5</title>
<path fill="none" stroke="red" d="M264.886,-200.163C252.863,-168.835 223.726,-100.381 183,-54 171.075,-40.4196 154.214,-28.6624 141.24,-20.7265"/>
<polygon fill="red" stroke="red" points="143.001,-17.7016 132.606,-15.6519 139.454,-23.7365 143.001,-17.7016"/>
</g>
<!-- 28&#45;&gt;34 -->
<g id="edge47" class="edge"><title>28&#45;&gt;34</title>
<path fill="none" stroke="red" d="M254.771,-209.216C228.908,-196.932 178.138,-172.818 147.421,-158.228"/>
<polygon fill="red" stroke="red" points="148.744,-154.982 138.209,-153.853 145.741,-161.305 148.744,-154.982"/>
</g>
<!-- 34&#45;&gt;5 -->
<g id="edge48" class="edge"><title>34&#45;&gt;5</title>
<path fill="none" stroke="green" d="M122,-126.616C122,-101.241 122,-54.4942 122,-28.5593"/>
<polygon fill="green" stroke="green" points="125.5,-28.2592 122,-18.2592 118.5,-28.2592 125.5,-28.2592"/>
</g>
<!-- 34&#45;&gt;60 -->
<g id="edge62" class="edge"><title>34&#45;&gt;60</title>
<path fill="none" stroke="green" d="M107.625,-133.097C92.9069,-121.775 69.8168,-104.013 52.6411,-90.8011"/>
<polygon fill="green" stroke="green" points="54.3343,-87.6878 44.2741,-84.3649 50.0663,-93.2362 54.3343,-87.6878"/>
</g>
<!-- 60&#45;&gt;5 -->
<g id="edge17" class="edge"><title>60&#45;&gt;5</title>
<path fill="none" stroke="green" d="M45.1919,-61.2483C60.9526,-50.7324 85.6431,-34.2583 102.758,-22.8388"/>
<polygon fill="green" stroke="green" points="105.006,-25.5464 111.382,-17.0847 101.121,-19.7235 105.006,-25.5464"/>
</g>
</g>
</svg>
