<?xml version="1.0" encoding="UTF-8" standalone="no"?>
<!DOCTYPE svg PUBLIC "-//W3C//DTD SVG 1.1//EN"
 "http://www.w3.org/Graphics/SVG/1.1/DTD/svg11.dtd">
<!-- Generated by graphviz version 2.38.0 (20140413.2041)
 -->
<!-- Title: %3 Pages: 1 -->
<svg width="180pt" height="226pt"
 viewBox="0.00 0.00 179.77 225.54" xmlns="http://www.w3.org/2000/svg" xmlns:xlink="http://www.w3.org/1999/xlink">
<g id="graph0" class="graph" transform="scale(1 1) rotate(0) translate(4 221.539)">
<title>%3</title>
<polygon fill="white" stroke="none" points="-4,4 -4,-221.539 175.77,-221.539 175.77,4 -4,4"/>
<!-- 1 -->
<g id="node1" class="node"><title>1</title>
<polygon fill="lightgray" stroke="black" points="53.8848,-217.539 32.8848,-217.539 32.8848,-199.539 53.8848,-199.539 53.8848,-217.539"/>
<text text-anchor="middle" x="43.3848" y="-206.339" font-family="Times New Roman,serif" font-size="9.00">1</text>
</g>
<!-- 16 -->
<g id="node6" class="node"><title>16</title>
<ellipse fill="none" stroke="black" cx="18.3848" cy="-145.154" rx="18.2703" ry="18.2703"/>
<text text-anchor="middle" x="18.3848" y="-142.954" font-family="Times New Roman,serif" font-size="9.00">16</text>
</g>
<!-- 1&#45;&gt;16 -->
<g id="edge7" class="edge"><title>1&#45;&gt;16</title>
<path fill="none" stroke="green" d="M40.1165,-199.514C37.2576,-192.495 32.9431,-181.901 28.91,-171.998"/>
<polygon fill="green" stroke="green" points="32.0485,-170.425 25.0351,-162.483 25.5655,-173.065 32.0485,-170.425"/>
</g>
<!-- 7 -->
<g id="node9" class="node"><title>7</title>
<ellipse fill="none" stroke="black" cx="69.3848" cy="-145.154" rx="14.7" ry="14.7"/>
<text text-anchor="middle" x="69.3848" y="-142.954" font-family="Times New Roman,serif" font-size="9.00">7</text>
</g>
<!-- 1&#45;&gt;7 -->
<g id="edge5" class="edge"><title>1&#45;&gt;7</title>
<path fill="none" stroke="red" d="M46.7838,-199.514C50.1141,-191.652 55.3435,-179.305 59.9337,-168.468"/>
<polygon fill="red" stroke="red" points="63.2193,-169.685 63.8967,-159.112 56.7736,-166.955 63.2193,-169.685"/>
</g>
<!-- 2 -->
<g id="node2" class="node"><title>2</title>
<polygon fill="lightgray" stroke="black" points="116.885,-81.3848 95.8848,-81.3848 95.8848,-63.3848 116.885,-63.3848 116.885,-81.3848"/>
<text text-anchor="middle" x="106.385" y="-70.1848" font-family="Times New Roman,serif" font-size="9.00">2</text>
</g>
<!-- 5 -->
<g id="node5" class="node"><title>5</title>
<polygon fill="lightblue" stroke="black" points="96.8848,-18 75.8848,-18 75.8848,-0 96.8848,-0 96.8848,-18"/>
<text text-anchor="middle" x="86.3848" y="-6.8" font-family="Times New Roman,serif" font-size="9.00">5</text>
</g>
<!-- 2&#45;&gt;5 -->
<g id="edge1" class="edge"><title>2&#45;&gt;5</title>
<path fill="none" stroke="green" d="M103.77,-63.3598C100.852,-54.4025 96.0372,-39.6255 92.2138,-27.8905"/>
<polygon fill="green" stroke="green" points="95.4897,-26.6467 89.0639,-18.2229 88.834,-28.8152 95.4897,-26.6467"/>
</g>
<!-- 3 -->
<g id="node3" class="node"><title>3</title>
<polygon fill="lightgray" stroke="black" points="92.8848,-217.539 71.8848,-217.539 71.8848,-199.539 92.8848,-199.539 92.8848,-217.539"/>
<text text-anchor="middle" x="82.3848" y="-206.339" font-family="Times New Roman,serif" font-size="9.00">3</text>
</g>
<!-- 4 -->
<g id="node4" class="node"><title>4</title>
<polygon fill="lightgray" stroke="black" points="163.885,-154.154 142.885,-154.154 142.885,-136.154 163.885,-136.154 163.885,-154.154"/>
<text text-anchor="middle" x="153.385" y="-142.954" font-family="Times New Roman,serif" font-size="9.00">4</text>
</g>
<!-- 11 -->
<g id="node8" class="node"><title>11</title>
<ellipse fill="none" stroke="black" cx="153.385" cy="-72.3848" rx="18.2703" ry="18.2703"/>
<text text-anchor="middle" x="153.385" y="-70.1848" font-family="Times New Roman,serif" font-size="9.00">11</text>
</g>
<!-- 4&#45;&gt;11 -->
<g id="edge3" class="edge"><title>4&#45;&gt;11</title>
<path fill="none" stroke="red" d="M153.385,-136.036C153.385,-127.47 153.385,-113.495 153.385,-100.914"/>
<polygon fill="red" stroke="red" points="156.885,-100.824 153.385,-90.8245 149.885,-100.824 156.885,-100.824"/>
</g>
<!-- 6 -->
<g id="node7" class="node"><title>6</title>
<ellipse fill="none" stroke="black" cx="20.3848" cy="-72.3848" rx="14.7" ry="14.7"/>
<text text-anchor="middle" x="20.3848" y="-70.1848" font-family="Times New Roman,serif" font-size="9.00">6</text>
</g>
<!-- 16&#45;&gt;6 -->
<g id="edge8" class="edge"><title>16&#45;&gt;6</title>
<path fill="none" stroke="green" d="M18.8792,-126.661C19.1279,-117.858 19.4334,-107.05 19.704,-97.4754"/>
<polygon fill="green" stroke="green" points="23.2058,-97.4562 19.9898,-87.3613 16.2086,-97.2584 23.2058,-97.4562"/>
</g>
<!-- 6&#45;&gt;5 -->
<g id="edge2" class="edge"><title>6&#45;&gt;5</title>
<path fill="none" stroke="green" d="M30.9888,-61.5223C41.5287,-51.7194 57.8399,-36.5488 70.0376,-25.2041"/>
<polygon fill="green" stroke="green" points="72.7646,-27.4476 77.7034,-18.0743 67.9973,-22.3219 72.7646,-27.4476"/>
</g>
<!-- 11&#45;&gt;5 -->
<g id="edge4" class="edge"><title>11&#45;&gt;5</title>
<path fill="none" stroke="green" d="M140.148,-59.2571C129.468,-49.4728 114.388,-35.6565 102.916,-25.1456"/>
<polygon fill="green" stroke="green" points="105.052,-22.3559 95.3143,-18.1812 100.323,-27.5172 105.052,-22.3559"/>
</g>
<!-- 7&#45;&gt;5 -->
<g id="edge6" class="edge"><title>7&#45;&gt;5</title>
<path fill="none" stroke="red" d="M71.14,-130.303C74.228,-105.935 80.6304,-55.41 84.0738,-28.2366"/>
<polygon fill="red" stroke="red" points="87.5651,-28.5256 85.3501,-18.1649 80.6207,-27.6455 87.5651,-28.5256"/>
</g>
</g>
</svg>
