<?xml version="1.0" encoding="UTF-8" standalone="no"?>
<!DOCTYPE svg PUBLIC "-//W3C//DTD SVG 1.1//EN"
 "http://www.w3.org/Graphics/SVG/1.1/DTD/svg11.dtd">
<!-- Generated by graphviz version 2.38.0 (20140413.2041)
 -->
<!-- Title: %3 Pages: 1 -->
<svg width="162pt" height="153pt"
 viewBox="0.00 0.00 162.00 152.77" xmlns="http://www.w3.org/2000/svg" xmlns:xlink="http://www.w3.org/1999/xlink">
<g id="graph0" class="graph" transform="scale(1 1) rotate(0) translate(4 148.77)">
<title>%3</title>
<polygon fill="white" stroke="none" points="-4,4 -4,-148.77 158,-148.77 158,4 -4,4"/>
<!-- 1 -->
<g id="node1" class="node"><title>1</title>
<polygon fill="lightgray" stroke="black" points="21,-81.3848 0,-81.3848 0,-63.3848 21,-63.3848 21,-81.3848"/>
<text text-anchor="middle" x="10.5" y="-70.1848" font-family="Times New Roman,serif" font-size="9.00">1</text>
</g>
<!-- 5 -->
<g id="node5" class="node"><title>5</title>
<polygon fill="lightblue" stroke="black" points="64,-18 43,-18 43,-0 64,-0 64,-18"/>
<text text-anchor="middle" x="53.5" y="-6.8" font-family="Times New Roman,serif" font-size="9.00">5</text>
</g>
<!-- 1&#45;&gt;5 -->
<g id="edge1" class="edge"><title>1&#45;&gt;5</title>
<path fill="none" stroke="green" d="M16.1215,-63.3598C22.6522,-54.0369 33.5991,-38.4095 41.9632,-26.4694"/>
<polygon fill="green" stroke="green" points="44.8691,-28.4214 47.7399,-18.2229 39.1358,-24.4052 44.8691,-28.4214"/>
</g>
<!-- 2 -->
<g id="node2" class="node"><title>2</title>
<polygon fill="lightgray" stroke="black" points="64,-144.77 43,-144.77 43,-126.77 64,-126.77 64,-144.77"/>
<text text-anchor="middle" x="53.5" y="-133.57" font-family="Times New Roman,serif" font-size="9.00">2</text>
</g>
<!-- 8 -->
<g id="node6" class="node"><title>8</title>
<ellipse fill="none" stroke="black" cx="53.5" cy="-72.3848" rx="14.7" ry="14.7"/>
<text text-anchor="middle" x="53.5" y="-70.1848" font-family="Times New Roman,serif" font-size="9.00">8</text>
</g>
<!-- 2&#45;&gt;8 -->
<g id="edge2" class="edge"><title>2&#45;&gt;8</title>
<path fill="none" stroke="red" d="M53.5,-126.745C53.5,-119.316 53.5,-107.884 53.5,-97.5042"/>
<polygon fill="red" stroke="red" points="57.0001,-97.2803 53.5,-87.2804 50.0001,-97.2804 57.0001,-97.2803"/>
</g>
<!-- 3 -->
<g id="node3" class="node"><title>3</title>
<polygon fill="lightgray" stroke="black" points="154,-144.77 133,-144.77 133,-126.77 154,-126.77 154,-144.77"/>
<text text-anchor="middle" x="143.5" y="-133.57" font-family="Times New Roman,serif" font-size="9.00">3</text>
</g>
<!-- 4 -->
<g id="node4" class="node"><title>4</title>
<polygon fill="lightgray" stroke="black" points="115,-144.77 94,-144.77 94,-126.77 115,-126.77 115,-144.77"/>
<text text-anchor="middle" x="104.5" y="-133.57" font-family="Times New Roman,serif" font-size="9.00">4</text>
</g>
<!-- 11 -->
<g id="node7" class="node"><title>11</title>
<ellipse fill="none" stroke="black" cx="104.5" cy="-72.3848" rx="18.2703" ry="18.2703"/>
<text text-anchor="middle" x="104.5" y="-70.1848" font-family="Times New Roman,serif" font-size="9.00">11</text>
</g>
<!-- 4&#45;&gt;11 -->
<g id="edge4" class="edge"><title>4&#45;&gt;11</title>
<path fill="none" stroke="red" d="M104.5,-126.745C104.5,-120.18 104.5,-110.491 104.5,-101.164"/>
<polygon fill="red" stroke="red" points="108,-100.973 104.5,-90.9726 101,-100.973 108,-100.973"/>
</g>
<!-- 8&#45;&gt;5 -->
<g id="edge3" class="edge"><title>8&#45;&gt;5</title>
<path fill="none" stroke="green" d="M53.5,-57.4556C53.5,-48.8047 53.5,-37.5907 53.5,-28.236"/>
<polygon fill="green" stroke="green" points="57.0001,-28.0447 53.5,-18.0447 50.0001,-28.0447 57.0001,-28.0447"/>
</g>
<!-- 11&#45;&gt;5 -->
<g id="edge5" class="edge"><title>11&#45;&gt;5</title>
<path fill="none" stroke="green" d="M93.1814,-57.7615C85.3736,-48.3639 74.965,-35.8358 66.767,-25.9684"/>
<polygon fill="green" stroke="green" points="69.3352,-23.5827 60.2527,-18.1277 63.951,-28.056 69.3352,-23.5827"/>
</g>
</g>
</svg>
