<?xml version="1.0" encoding="UTF-8" standalone="no"?>
<!DOCTYPE svg PUBLIC "-//W3C//DTD SVG 1.1//EN"
 "http://www.w3.org/Graphics/SVG/1.1/DTD/svg11.dtd">
<!-- Generated by graphviz version 2.38.0 (20140413.2041)
 -->
<!-- Title: %3 Pages: 1 -->
<svg width="264pt" height="1164pt"
 viewBox="0.00 0.00 264.38 1164.47" xmlns="http://www.w3.org/2000/svg" xmlns:xlink="http://www.w3.org/1999/xlink">
<g id="graph0" class="graph" transform="scale(1 1) rotate(0) translate(4 1160.47)">
<title>%3</title>
<polygon fill="white" stroke="none" points="-4,4 -4,-1160.47 260.385,-1160.47 260.385,4 -4,4"/>
<!-- 1 -->
<g id="node1" class="node"><title>1</title>
<polygon fill="lightgray" stroke="black" points="202.5,-1156.47 181.5,-1156.47 181.5,-1138.47 202.5,-1138.47 202.5,-1156.47"/>
<text text-anchor="middle" x="192" y="-1145.27" font-family="Times New Roman,serif" font-size="9.00">1</text>
</g>
<!-- 19 -->
<g id="node6" class="node"><title>19</title>
<ellipse fill="none" stroke="black" cx="126" cy="-1084.09" rx="18.2703" ry="18.2703"/>
<text text-anchor="middle" x="126" y="-1081.89" font-family="Times New Roman,serif" font-size="9.00">19</text>
</g>
<!-- 1&#45;&gt;19 -->
<g id="edge14" class="edge"><title>1&#45;&gt;19</title>
<path fill="none" stroke="green" d="M183.372,-1138.45C174.199,-1129.92 159.352,-1116.11 147.059,-1104.67"/>
<polygon fill="green" stroke="green" points="149.142,-1101.83 139.436,-1097.58 144.374,-1106.96 149.142,-1101.83"/>
</g>
<!-- 12 -->
<g id="node10" class="node"><title>12</title>
<ellipse fill="none" stroke="black" cx="238" cy="-1084.09" rx="18.2703" ry="18.2703"/>
<text text-anchor="middle" x="238" y="-1081.89" font-family="Times New Roman,serif" font-size="9.00">12</text>
</g>
<!-- 1&#45;&gt;12 -->
<g id="edge16" class="edge"><title>1&#45;&gt;12</title>
<path fill="none" stroke="green" d="M198.014,-1138.45C203.855,-1130.65 213,-1118.45 221.071,-1107.68"/>
<polygon fill="green" stroke="green" points="224.034,-1109.56 227.23,-1099.46 218.432,-1105.36 224.034,-1109.56"/>
</g>
<!-- 7 -->
<g id="node13" class="node"><title>7</title>
<ellipse fill="none" stroke="black" cx="196" cy="-938.548" rx="14.7" ry="14.7"/>
<text text-anchor="middle" x="196" y="-936.348" font-family="Times New Roman,serif" font-size="9.00">7</text>
</g>
<!-- 1&#45;&gt;7 -->
<g id="edge21" class="edge"><title>1&#45;&gt;7</title>
<path fill="none" stroke="green" d="M192.157,-1138.36C192.718,-1109.31 194.644,-1009.72 195.537,-963.486"/>
<polygon fill="green" stroke="green" points="199.037,-963.525 195.731,-953.459 192.038,-963.39 199.037,-963.525"/>
</g>
<!-- 2 -->
<g id="node2" class="node"><title>2</title>
<polygon fill="lightgray" stroke="black" points="27.5,-809.08 6.5,-809.08 6.5,-791.08 27.5,-791.08 27.5,-809.08"/>
<text text-anchor="middle" x="17" y="-797.88" font-family="Times New Roman,serif" font-size="9.00">2</text>
</g>
<!-- 5 -->
<g id="node5" class="node"><title>5</title>
<polygon fill="lightblue" stroke="black" points="51.5,-18 30.5,-18 30.5,-0 51.5,-0 51.5,-18"/>
<text text-anchor="middle" x="41" y="-6.8" font-family="Times New Roman,serif" font-size="9.00">5</text>
</g>
<!-- 2&#45;&gt;5 -->
<g id="edge1" class="edge"><title>2&#45;&gt;5</title>
<path fill="none" stroke="green" d="M15.37,-791.026C11.115,-769.276 0,-707.486 0,-655.541 0,-655.541 0,-655.541 0,-144.154 0,-100.682 19.9334,-52.6103 32.0024,-27.4883"/>
<polygon fill="green" stroke="green" points="35.2984,-28.7203 36.6123,-18.2072 29.0291,-25.6063 35.2984,-28.7203"/>
</g>
<!-- 38 -->
<g id="node16" class="node"><title>38</title>
<ellipse fill="none" stroke="black" cx="80" cy="-727.311" rx="18.2703" ry="18.2703"/>
<text text-anchor="middle" x="80" y="-725.111" font-family="Times New Roman,serif" font-size="9.00">38</text>
</g>
<!-- 2&#45;&gt;38 -->
<g id="edge22" class="edge"><title>2&#45;&gt;38</title>
<path fill="none" stroke="green" d="M24.2269,-790.962C33.1968,-780.886 48.8297,-763.325 61.2667,-749.354"/>
<polygon fill="green" stroke="green" points="64.1106,-751.424 68.1456,-741.627 58.8821,-746.769 64.1106,-751.424"/>
</g>
<!-- 3 -->
<g id="node3" class="node"><title>3</title>
<polygon fill="lightgray" stroke="black" points="241.5,-1156.47 220.5,-1156.47 220.5,-1138.47 241.5,-1138.47 241.5,-1156.47"/>
<text text-anchor="middle" x="231" y="-1145.27" font-family="Times New Roman,serif" font-size="9.00">3</text>
</g>
<!-- 4 -->
<g id="node4" class="node"><title>4</title>
<polygon fill="lightgray" stroke="black" points="163.5,-1020.32 142.5,-1020.32 142.5,-1002.32 163.5,-1002.32 163.5,-1020.32"/>
<text text-anchor="middle" x="153" y="-1009.12" font-family="Times New Roman,serif" font-size="9.00">4</text>
</g>
<!-- 16 -->
<g id="node8" class="node"><title>16</title>
<ellipse fill="none" stroke="black" cx="106" cy="-938.548" rx="18.2703" ry="18.2703"/>
<text text-anchor="middle" x="106" y="-936.348" font-family="Times New Roman,serif" font-size="9.00">16</text>
</g>
<!-- 4&#45;&gt;16 -->
<g id="edge15" class="edge"><title>4&#45;&gt;16</title>
<path fill="none" stroke="red" d="M147.609,-1002.2C141.24,-992.61 130.368,-976.24 121.334,-962.638"/>
<polygon fill="red" stroke="red" points="124.178,-960.592 115.73,-954.198 118.346,-964.465 124.178,-960.592"/>
</g>
<!-- 20 -->
<g id="node9" class="node"><title>20</title>
<ellipse fill="none" stroke="black" cx="158" cy="-800.08" rx="18.2703" ry="18.2703"/>
<text text-anchor="middle" x="158" y="-797.88" font-family="Times New Roman,serif" font-size="9.00">20</text>
</g>
<!-- 4&#45;&gt;20 -->
<g id="edge7" class="edge"><title>4&#45;&gt;20</title>
<path fill="none" stroke="green" d="M153.196,-1002.12C153.883,-973.386 156.199,-876.449 157.346,-828.46"/>
<polygon fill="green" stroke="green" points="160.845,-828.544 157.585,-818.463 153.847,-828.376 160.845,-828.544"/>
</g>
<!-- 4&#45;&gt;7 -->
<g id="edge23" class="edge"><title>4&#45;&gt;7</title>
<path fill="none" stroke="green" d="M157.933,-1002.2C164.122,-992.014 174.957,-974.18 183.49,-960.138"/>
<polygon fill="green" stroke="green" points="186.49,-961.94 188.692,-951.576 180.508,-958.305 186.49,-961.94"/>
</g>
<!-- 30 -->
<g id="node7" class="node"><title>30</title>
<ellipse fill="none" stroke="black" cx="106" cy="-1011.32" rx="18.2703" ry="18.2703"/>
<text text-anchor="middle" x="106" y="-1009.12" font-family="Times New Roman,serif" font-size="9.00">30</text>
</g>
<!-- 19&#45;&gt;30 -->
<g id="edge28" class="edge"><title>19&#45;&gt;30</title>
<path fill="none" stroke="red" d="M121.26,-1066.32C118.977,-1058.24 116.183,-1048.35 113.613,-1039.26"/>
<polygon fill="red" stroke="red" points="116.932,-1038.13 110.845,-1029.46 110.196,-1040.04 116.932,-1038.13"/>
</g>
<!-- 30&#45;&gt;16 -->
<g id="edge29" class="edge"><title>30&#45;&gt;16</title>
<path fill="none" stroke="red" d="M106,-992.824C106,-985.142 106,-975.933 106,-967.349"/>
<polygon fill="red" stroke="red" points="109.5,-967.332 106,-957.332 102.5,-967.332 109.5,-967.332"/>
</g>
<!-- 6 -->
<g id="node11" class="node"><title>6</title>
<ellipse fill="none" stroke="black" cx="101" cy="-869.314" rx="14.7" ry="14.7"/>
<text text-anchor="middle" x="101" y="-867.114" font-family="Times New Roman,serif" font-size="9.00">6</text>
</g>
<!-- 16&#45;&gt;6 -->
<g id="edge2" class="edge"><title>16&#45;&gt;6</title>
<path fill="none" stroke="red" d="M104.686,-919.883C104.109,-912.114 103.421,-902.865 102.797,-894.472"/>
<polygon fill="red" stroke="red" points="106.285,-894.188 102.053,-884.475 99.3045,-894.707 106.285,-894.188"/>
</g>
<!-- 11 -->
<g id="node12" class="node"><title>11</title>
<ellipse fill="none" stroke="black" cx="158" cy="-727.311" rx="18.2703" ry="18.2703"/>
<text text-anchor="middle" x="158" y="-725.111" font-family="Times New Roman,serif" font-size="9.00">11</text>
</g>
<!-- 20&#45;&gt;11 -->
<g id="edge8" class="edge"><title>20&#45;&gt;11</title>
<path fill="none" stroke="red" d="M158,-781.587C158,-773.904 158,-764.695 158,-756.111"/>
<polygon fill="red" stroke="red" points="161.5,-756.095 158,-746.095 154.5,-756.095 161.5,-756.095"/>
</g>
<!-- 37 -->
<g id="node23" class="node"><title>37</title>
<ellipse fill="none" stroke="black" cx="108" cy="-363.463" rx="18.2703" ry="18.2703"/>
<text text-anchor="middle" x="108" y="-361.263" font-family="Times New Roman,serif" font-size="9.00">37</text>
</g>
<!-- 20&#45;&gt;37 -->
<g id="edge27" class="edge"><title>20&#45;&gt;37</title>
<path fill="none" stroke="green" d="M169.026,-785.355C187.571,-760.842 223,-707.244 223,-655.541 223,-655.541 223,-655.541 223,-508.002 223,-450.257 165.614,-402.468 131.918,-379.384"/>
<polygon fill="green" stroke="green" points="133.776,-376.416 123.509,-373.798 129.902,-382.247 133.776,-376.416"/>
</g>
<!-- 12&#45;&gt;7 -->
<g id="edge17" class="edge"><title>12&#45;&gt;7</title>
<path fill="none" stroke="green" d="M233.1,-1066.34C225.622,-1040.79 211.338,-991.969 202.842,-962.931"/>
<polygon fill="green" stroke="green" points="206.164,-961.823 199.997,-953.208 199.446,-963.788 206.164,-961.823"/>
</g>
<!-- 33 -->
<g id="node15" class="node"><title>33</title>
<ellipse fill="none" stroke="black" cx="92" cy="-800.08" rx="18.2703" ry="18.2703"/>
<text text-anchor="middle" x="92" y="-797.88" font-family="Times New Roman,serif" font-size="9.00">33</text>
</g>
<!-- 6&#45;&gt;33 -->
<g id="edge9" class="edge"><title>6&#45;&gt;33</title>
<path fill="none" stroke="green" d="M99.1352,-854.383C98.1286,-846.864 96.8504,-837.315 95.6548,-828.383"/>
<polygon fill="green" stroke="green" points="99.1063,-827.787 94.3104,-818.34 92.1682,-828.716 99.1063,-827.787"/>
</g>
<!-- 32 -->
<g id="node14" class="node"><title>32</title>
<ellipse fill="none" stroke="black" cx="158" cy="-654.541" rx="18.2703" ry="18.2703"/>
<text text-anchor="middle" x="158" y="-652.341" font-family="Times New Roman,serif" font-size="9.00">32</text>
</g>
<!-- 11&#45;&gt;32 -->
<g id="edge5" class="edge"><title>11&#45;&gt;32</title>
<path fill="none" stroke="green" d="M158,-708.817C158,-701.135 158,-691.926 158,-683.341"/>
<polygon fill="green" stroke="green" points="161.5,-683.325 158,-673.325 154.5,-683.325 161.5,-683.325"/>
</g>
<!-- 31 -->
<g id="node18" class="node"><title>31</title>
<ellipse fill="none" stroke="black" cx="158" cy="-581.772" rx="18.2703" ry="18.2703"/>
<text text-anchor="middle" x="158" y="-579.572" font-family="Times New Roman,serif" font-size="9.00">31</text>
</g>
<!-- 32&#45;&gt;31 -->
<g id="edge6" class="edge"><title>32&#45;&gt;31</title>
<path fill="none" stroke="green" d="M158,-636.048C158,-628.365 158,-619.156 158,-610.572"/>
<polygon fill="green" stroke="green" points="161.5,-610.556 158,-600.556 154.5,-610.556 161.5,-610.556"/>
</g>
<!-- 33&#45;&gt;38 -->
<g id="edge11" class="edge"><title>33&#45;&gt;38</title>
<path fill="none" stroke="red" d="M89.0337,-781.587C87.7113,-773.788 86.1221,-764.416 84.6478,-755.721"/>
<polygon fill="red" stroke="red" points="88.0548,-754.877 82.9322,-745.603 81.1533,-756.048 88.0548,-754.877"/>
</g>
<!-- 21 -->
<g id="node17" class="node"><title>21</title>
<ellipse fill="none" stroke="black" cx="80" cy="-654.541" rx="18.2703" ry="18.2703"/>
<text text-anchor="middle" x="80" y="-652.341" font-family="Times New Roman,serif" font-size="9.00">21</text>
</g>
<!-- 38&#45;&gt;21 -->
<g id="edge12" class="edge"><title>38&#45;&gt;21</title>
<path fill="none" stroke="green" d="M80,-708.817C80,-701.135 80,-691.926 80,-683.341"/>
<polygon fill="green" stroke="green" points="83.5001,-683.325 80,-673.325 76.5001,-683.325 83.5001,-683.325"/>
</g>
<!-- 56 -->
<g id="node19" class="node"><title>56</title>
<ellipse fill="none" stroke="black" cx="84" cy="-581.772" rx="18.2703" ry="18.2703"/>
<text text-anchor="middle" x="84" y="-579.572" font-family="Times New Roman,serif" font-size="9.00">56</text>
</g>
<!-- 21&#45;&gt;56 -->
<g id="edge30" class="edge"><title>21&#45;&gt;56</title>
<path fill="none" stroke="green" d="M80.9888,-636.048C81.423,-628.365 81.9435,-619.156 82.4287,-610.572"/>
<polygon fill="green" stroke="green" points="85.9248,-610.737 82.9948,-600.556 78.936,-610.342 85.9248,-610.737"/>
</g>
<!-- 21&#45;&gt;37 -->
<g id="edge20" class="edge"><title>21&#45;&gt;37</title>
<path fill="none" stroke="red" d="M71.4043,-638.209C66.0904,-627.825 59.7724,-613.598 57,-600.156 47.1658,-552.476 48.109,-538.483 57,-490.617 63.8938,-453.504 82.0511,-413.572 94.7253,-388.799"/>
<polygon fill="red" stroke="red" points="97.9107,-390.261 99.4435,-379.777 91.7077,-387.017 97.9107,-390.261"/>
</g>
<!-- 47 -->
<g id="node21" class="node"><title>47</title>
<ellipse fill="none" stroke="black" cx="139" cy="-509.002" rx="18.2703" ry="18.2703"/>
<text text-anchor="middle" x="139" y="-506.802" font-family="Times New Roman,serif" font-size="9.00">47</text>
</g>
<!-- 31&#45;&gt;47 -->
<g id="edge25" class="edge"><title>31&#45;&gt;47</title>
<path fill="none" stroke="green" d="M153.401,-563.64C151.23,-555.556 148.59,-545.721 146.166,-536.692"/>
<polygon fill="green" stroke="green" points="149.53,-535.726 143.557,-526.976 142.77,-537.541 149.53,-535.726"/>
</g>
<!-- 10 -->
<g id="node22" class="node"><title>10</title>
<ellipse fill="none" stroke="black" cx="112" cy="-436.233" rx="18.2703" ry="18.2703"/>
<text text-anchor="middle" x="112" y="-434.033" font-family="Times New Roman,serif" font-size="9.00">10</text>
</g>
<!-- 31&#45;&gt;10 -->
<g id="edge4" class="edge"><title>31&#45;&gt;10</title>
<path fill="none" stroke="green" d="M163.998,-564.103C169.703,-545.449 176.051,-514.687 166,-490.617 159.705,-475.542 146.851,-462.553 135.263,-453.162"/>
<polygon fill="green" stroke="green" points="137.235,-450.264 127.161,-446.982 132.989,-455.829 137.235,-450.264"/>
</g>
<!-- 36 -->
<g id="node20" class="node"><title>36</title>
<ellipse fill="none" stroke="black" cx="84" cy="-509.002" rx="18.2703" ry="18.2703"/>
<text text-anchor="middle" x="84" y="-506.802" font-family="Times New Roman,serif" font-size="9.00">36</text>
</g>
<!-- 56&#45;&gt;36 -->
<g id="edge31" class="edge"><title>56&#45;&gt;36</title>
<path fill="none" stroke="green" d="M84,-563.278C84,-555.596 84,-546.387 84,-537.802"/>
<polygon fill="green" stroke="green" points="87.5001,-537.786 84,-527.786 80.5001,-537.786 87.5001,-537.786"/>
</g>
<!-- 36&#45;&gt;10 -->
<g id="edge13" class="edge"><title>36&#45;&gt;10</title>
<path fill="none" stroke="green" d="M90.4941,-491.588C93.8514,-483.103 98.0263,-472.551 101.802,-463.008"/>
<polygon fill="green" stroke="green" points="105.117,-464.144 105.541,-453.557 98.6075,-461.568 105.117,-464.144"/>
</g>
<!-- 47&#45;&gt;10 -->
<g id="edge26" class="edge"><title>47&#45;&gt;10</title>
<path fill="none" stroke="green" d="M132.738,-491.588C129.5,-483.103 125.475,-472.551 121.834,-463.008"/>
<polygon fill="green" stroke="green" points="125.063,-461.653 118.228,-453.557 118.523,-464.148 125.063,-461.653"/>
</g>
<!-- 10&#45;&gt;37 -->
<g id="edge10" class="edge"><title>10&#45;&gt;37</title>
<path fill="none" stroke="red" d="M111.011,-417.739C110.577,-410.057 110.057,-400.847 109.571,-392.263"/>
<polygon fill="red" stroke="red" points="113.064,-392.033 109.005,-382.247 106.075,-392.429 113.064,-392.033"/>
</g>
<!-- 45 -->
<g id="node24" class="node"><title>45</title>
<ellipse fill="none" stroke="black" cx="94" cy="-290.693" rx="18.2703" ry="18.2703"/>
<text text-anchor="middle" x="94" y="-288.493" font-family="Times New Roman,serif" font-size="9.00">45</text>
</g>
<!-- 37&#45;&gt;45 -->
<g id="edge18" class="edge"><title>37&#45;&gt;45</title>
<path fill="none" stroke="red" d="M104.611,-345.332C103.052,-337.452 101.164,-327.909 99.4158,-319.07"/>
<polygon fill="red" stroke="red" points="102.829,-318.289 97.4551,-309.159 95.9623,-319.648 102.829,-318.289"/>
</g>
<!-- 28 -->
<g id="node25" class="node"><title>28</title>
<ellipse fill="none" stroke="black" cx="87" cy="-217.924" rx="18.2703" ry="18.2703"/>
<text text-anchor="middle" x="87" y="-215.724" font-family="Times New Roman,serif" font-size="9.00">28</text>
</g>
<!-- 45&#45;&gt;28 -->
<g id="edge19" class="edge"><title>45&#45;&gt;28</title>
<path fill="none" stroke="red" d="M92.2697,-272.2C91.5098,-264.518 90.5989,-255.308 89.7498,-246.724"/>
<polygon fill="red" stroke="red" points="93.2265,-246.315 88.7591,-236.708 86.2605,-247.004 93.2265,-246.315"/>
</g>
<!-- 28&#45;&gt;5 -->
<g id="edge3" class="edge"><title>28&#45;&gt;5</title>
<path fill="none" stroke="green" d="M77.4772,-201.638C71.4789,-191.273 64.116,-177.051 60,-163.539 45.6231,-116.342 42.0958,-57.8241 41.2502,-28.5323"/>
<polygon fill="green" stroke="green" points="44.7423,-28.1193 41.032,-18.1954 37.7439,-28.2671 44.7423,-28.1193"/>
</g>
<!-- 34 -->
<g id="node26" class="node"><title>34</title>
<ellipse fill="none" stroke="black" cx="87" cy="-145.154" rx="18.2703" ry="18.2703"/>
<text text-anchor="middle" x="87" y="-142.954" font-family="Times New Roman,serif" font-size="9.00">34</text>
</g>
<!-- 28&#45;&gt;34 -->
<g id="edge24" class="edge"><title>28&#45;&gt;34</title>
<path fill="none" stroke="red" d="M87,-199.43C87,-191.748 87,-182.539 87,-173.955"/>
<polygon fill="red" stroke="red" points="90.5001,-173.938 87,-163.938 83.5001,-173.938 90.5001,-173.938"/>
</g>
<!-- 60 -->
<g id="node27" class="node"><title>60</title>
<ellipse fill="none" stroke="black" cx="87" cy="-72.3848" rx="18.2703" ry="18.2703"/>
<text text-anchor="middle" x="87" y="-70.1848" font-family="Times New Roman,serif" font-size="9.00">60</text>
</g>
<!-- 34&#45;&gt;60 -->
<g id="edge32" class="edge"><title>34&#45;&gt;60</title>
<path fill="none" stroke="red" d="M87,-126.661C87,-118.978 87,-109.769 87,-101.185"/>
<polygon fill="red" stroke="red" points="90.5001,-101.169 87,-91.1687 83.5001,-101.169 90.5001,-101.169"/>
</g>
<!-- 60&#45;&gt;5 -->
<g id="edge33" class="edge"><title>60&#45;&gt;5</title>
<path fill="none" stroke="green" d="M76.3311,-57.1476C69.4927,-48.0221 60.5895,-36.1412 53.4314,-26.5892"/>
<polygon fill="green" stroke="green" points="56.0254,-24.2141 47.2277,-18.3105 50.4237,-28.4119 56.0254,-24.2141"/>
</g>
</g>
</svg>
