<?xml version="1.0" encoding="UTF-8" standalone="no"?>
<!DOCTYPE svg PUBLIC "-//W3C//DTD SVG 1.1//EN"
 "http://www.w3.org/Graphics/SVG/1.1/DTD/svg11.dtd">
<!-- Generated by graphviz version 2.38.0 (20140413.2041)
 -->
<!-- Title: %3 Pages: 1 -->
<svg width="152pt" height="146pt"
 viewBox="0.00 0.00 152.00 145.70" xmlns="http://www.w3.org/2000/svg" xmlns:xlink="http://www.w3.org/1999/xlink">
<g id="graph0" class="graph" transform="scale(1 1) rotate(0) translate(4 141.698)">
<title>%3</title>
<polygon fill="white" stroke="none" points="-4,4 -4,-141.698 148,-141.698 148,4 -4,4"/>
<!-- 1 -->
<g id="node1" class="node"><title>1</title>
<polygon fill="lightgray" stroke="black" points="21,-137.698 0,-137.698 0,-119.698 21,-119.698 21,-137.698"/>
<text text-anchor="middle" x="10.5" y="-126.498" font-family="Times New Roman,serif" font-size="9.00">1</text>
</g>
<!-- 5 -->
<g id="node5" class="node"><title>5</title>
<polygon fill="lightblue" stroke="black" points="83,-18 62,-18 62,-0 83,-0 83,-18"/>
<text text-anchor="middle" x="72.5" y="-6.8" font-family="Times New Roman,serif" font-size="9.00">5</text>
</g>
<!-- 1&#45;&gt;5 -->
<g id="edge1" class="edge"><title>1&#45;&gt;5</title>
<path fill="none" stroke="green" d="M10.9027,-119.417C11.9105,-105.181 15.4129,-75.5244 27.5,-54 34.0537,-42.3293 44.6393,-31.7528 53.8975,-23.8957"/>
<polygon fill="green" stroke="green" points="56.2673,-26.4815 61.8729,-17.4911 51.8843,-21.0235 56.2673,-26.4815"/>
</g>
<!-- 6 -->
<g id="node6" class="node"><title>6</title>
<ellipse fill="none" stroke="black" cx="51.5" cy="-68.8492" rx="14.7" ry="14.7"/>
<text text-anchor="middle" x="51.5" y="-66.6492" font-family="Times New Roman,serif" font-size="9.00">6</text>
</g>
<!-- 1&#45;&gt;6 -->
<g id="edge6" class="edge"><title>1&#45;&gt;6</title>
<path fill="none" stroke="red" d="M16.2009,-119.655C21.6467,-111.971 30.076,-100.078 37.3318,-89.8399"/>
<polygon fill="red" stroke="red" points="40.3747,-91.5994 43.3016,-81.4169 34.6636,-87.5517 40.3747,-91.5994"/>
</g>
<!-- 2 -->
<g id="node2" class="node"><title>2</title>
<polygon fill="lightgray" stroke="black" points="105,-77.8492 84,-77.8492 84,-59.8492 105,-59.8492 105,-77.8492"/>
<text text-anchor="middle" x="94.5" y="-66.6492" font-family="Times New Roman,serif" font-size="9.00">2</text>
</g>
<!-- 2&#45;&gt;5 -->
<g id="edge2" class="edge"><title>2&#45;&gt;5</title>
<path fill="none" stroke="red" d="M91.441,-59.8056C88.324,-51.6095 83.3856,-38.6239 79.3328,-27.967"/>
<polygon fill="red" stroke="red" points="82.5016,-26.4528 75.6755,-18.35 75.9588,-28.941 82.5016,-26.4528"/>
</g>
<!-- 3 -->
<g id="node3" class="node"><title>3</title>
<polygon fill="lightgray" stroke="black" points="62,-137.698 41,-137.698 41,-119.698 62,-119.698 62,-137.698"/>
<text text-anchor="middle" x="51.5" y="-126.498" font-family="Times New Roman,serif" font-size="9.00">3</text>
</g>
<!-- 3&#45;&gt;6 -->
<g id="edge4" class="edge"><title>3&#45;&gt;6</title>
<path fill="none" stroke="red" d="M51.5,-119.655C51.5,-113.05 51.5,-103.334 51.5,-94.2339"/>
<polygon fill="red" stroke="red" points="55.0001,-94.0563 51.5,-84.0563 48.0001,-94.0564 55.0001,-94.0563"/>
</g>
<!-- 4 -->
<g id="node4" class="node"><title>4</title>
<polygon fill="lightgray" stroke="black" points="144,-77.8492 123,-77.8492 123,-59.8492 144,-59.8492 144,-77.8492"/>
<text text-anchor="middle" x="133.5" y="-66.6492" font-family="Times New Roman,serif" font-size="9.00">4</text>
</g>
<!-- 4&#45;&gt;5 -->
<g id="edge3" class="edge"><title>4&#45;&gt;5</title>
<path fill="none" stroke="green" d="M125.018,-59.8056C115.656,-50.9265 100.366,-36.4263 88.6917,-25.3554"/>
<polygon fill="green" stroke="green" points="90.9692,-22.6916 81.3048,-18.35 86.1524,-27.7708 90.9692,-22.6916"/>
</g>
<!-- 6&#45;&gt;5 -->
<g id="edge5" class="edge"><title>6&#45;&gt;5</title>
<path fill="none" stroke="green" d="M56.2652,-54.7224C59.1559,-46.7593 62.8831,-36.4918 66.0371,-27.8035"/>
<polygon fill="green" stroke="green" points="69.3828,-28.8441 69.5052,-18.25 62.8029,-26.4555 69.3828,-28.8441"/>
</g>
</g>
</svg>
