<?xml version="1.0" encoding="UTF-8" standalone="no"?>
<!DOCTYPE svg PUBLIC "-//W3C//DTD SVG 1.1//EN"
 "http://www.w3.org/Graphics/SVG/1.1/DTD/svg11.dtd">
<!-- Generated by graphviz version 2.38.0 (20140413.2041)
 -->
<!-- Title: %3 Pages: 1 -->
<svg width="1474pt" height="2426pt"
 viewBox="0.00 0.00 1474.21 2426.37" xmlns="http://www.w3.org/2000/svg" xmlns:xlink="http://www.w3.org/1999/xlink">
<g id="graph0" class="graph" transform="scale(1 1) rotate(0) translate(4 2422.37)">
<title>%3</title>
<polygon fill="white" stroke="none" points="-4,4 -4,-2422.37 1470.21,-2422.37 1470.21,4 -4,4"/>
<!-- 1 -->
<g id="node1" class="node"><title>1</title>
<polygon fill="lightgray" stroke="black" points="1330.5,-2418.37 1309.5,-2418.37 1309.5,-2400.37 1330.5,-2400.37 1330.5,-2418.37"/>
<text text-anchor="middle" x="1320" y="-2407.17" font-family="Times New Roman,serif" font-size="9.00">1</text>
</g>
<!-- 29 -->
<g id="node6" class="node"><title>29</title>
<ellipse fill="none" stroke="black" cx="1236" cy="-2345.98" rx="18.2703" ry="18.2703"/>
<text text-anchor="middle" x="1236" y="-2343.78" font-family="Times New Roman,serif" font-size="9.00">29</text>
</g>
<!-- 1&#45;&gt;29 -->
<g id="edge83" class="edge"><title>1&#45;&gt;29</title>
<path fill="none" stroke="red" d="M1309.36,-2400.59C1296.65,-2391.31 1275.05,-2375.52 1258.57,-2363.47"/>
<polygon fill="red" stroke="red" points="1260.63,-2360.64 1250.49,-2357.57 1256.5,-2366.3 1260.63,-2360.64"/>
</g>
<!-- 19 -->
<g id="node9" class="node"><title>19</title>
<ellipse fill="none" stroke="black" cx="1240" cy="-2194.79" rx="18.2703" ry="18.2703"/>
<text text-anchor="middle" x="1240" y="-2192.59" font-family="Times New Roman,serif" font-size="9.00">19</text>
</g>
<!-- 1&#45;&gt;19 -->
<g id="edge54" class="edge"><title>1&#45;&gt;19</title>
<path fill="none" stroke="red" d="M1316.96,-2400.29C1305.96,-2371.05 1267.88,-2269.87 1249.75,-2221.69"/>
<polygon fill="red" stroke="red" points="1253,-2220.38 1246.2,-2212.25 1246.44,-2222.85 1253,-2220.38"/>
</g>
<!-- 76 -->
<g id="node12" class="node"><title>76</title>
<ellipse fill="none" stroke="black" cx="132" cy="-730.139" rx="18.2703" ry="18.2703"/>
<text text-anchor="middle" x="132" y="-727.939" font-family="Times New Roman,serif" font-size="9.00">76</text>
</g>
<!-- 1&#45;&gt;76 -->
<g id="edge92" class="edge"><title>1&#45;&gt;76</title>
<path fill="none" stroke="red" d="M1309.25,-2408.36C1187.66,-2408.17 76,-2402.84 76,-2271.38 76,-2271.38 76,-2271.38 76,-1345.24 76,-1207.55 124,-1176.87 124,-1039.19 124,-1039.19 124,-1039.19 124,-885.992 124,-841.443 127.343,-789.78 129.707,-758.817"/>
<polygon fill="red" stroke="red" points="133.202,-759.017 130.495,-748.774 126.223,-758.469 133.202,-759.017"/>
</g>
<!-- 12 -->
<g id="node23" class="node"><title>12</title>
<ellipse fill="none" stroke="black" cx="1442" cy="-2270.38" rx="18.2703" ry="18.2703"/>
<text text-anchor="middle" x="1442" y="-2268.18" font-family="Times New Roman,serif" font-size="9.00">12</text>
</g>
<!-- 1&#45;&gt;12 -->
<g id="edge97" class="edge"><title>1&#45;&gt;12</title>
<path fill="none" stroke="red" d="M1330.79,-2405.96C1349.55,-2401.24 1388.23,-2389 1410,-2364.37 1426.2,-2346.04 1434.29,-2319.11 1438.27,-2298.94"/>
<polygon fill="red" stroke="red" points="1441.77,-2299.26 1440.04,-2288.81 1434.87,-2298.06 1441.77,-2299.26"/>
</g>
<!-- 7 -->
<g id="node28" class="node"><title>7</title>
<ellipse fill="none" stroke="black" cx="1401" cy="-2119.19" rx="14.7" ry="14.7"/>
<text text-anchor="middle" x="1401" y="-2116.99" font-family="Times New Roman,serif" font-size="9.00">7</text>
</g>
<!-- 1&#45;&gt;7 -->
<g id="edge10" class="edge"><title>1&#45;&gt;7</title>
<path fill="none" stroke="green" d="M1330.87,-2402.55C1343.14,-2395.35 1362.59,-2381.86 1372,-2364.37 1410.94,-2291.94 1407.7,-2190.27 1403.71,-2144.36"/>
<polygon fill="green" stroke="green" points="1407.17,-2143.81 1402.73,-2134.19 1400.2,-2144.48 1407.17,-2143.81"/>
</g>
<!-- 28 -->
<g id="node66" class="node"><title>28</title>
<ellipse fill="none" stroke="black" cx="1225" cy="-436.233" rx="18.2703" ry="18.2703"/>
<text text-anchor="middle" x="1225" y="-434.033" font-family="Times New Roman,serif" font-size="9.00">28</text>
</g>
<!-- 1&#45;&gt;28 -->
<g id="edge48" class="edge"><title>1&#45;&gt;28</title>
<path fill="none" stroke="red" d="M1320,-2400.34C1320,-2379.22 1320,-2320.37 1320,-2271.38 1320,-2271.38 1320,-2271.38 1320,-1423.66 1320,-1317.72 1271,-1296.33 1271,-1190.38 1271,-1190.38 1271,-1190.38 1271,-580.772 1271,-537.232 1251.57,-489.655 1237.96,-461.681"/>
<polygon fill="red" stroke="red" points="1241.05,-460.016 1233.44,-452.642 1234.79,-463.151 1241.05,-460.016"/>
</g>
<!-- 60 -->
<g id="node70" class="node"><title>60</title>
<ellipse fill="none" stroke="black" cx="1244" cy="-217.924" rx="18.2703" ry="18.2703"/>
<text text-anchor="middle" x="1244" y="-215.724" font-family="Times New Roman,serif" font-size="9.00">60</text>
</g>
<!-- 1&#45;&gt;60 -->
<g id="edge57" class="edge"><title>1&#45;&gt;60</title>
<path fill="none" stroke="green" d="M1323.92,-2400.25C1333.63,-2379.38 1358,-2321.98 1358,-2271.38 1358,-2271.38 1358,-2271.38 1358,-362.463 1358,-304.914 1301.11,-257.044 1267.71,-233.895"/>
<polygon fill="green" stroke="green" points="1269.63,-230.966 1259.37,-228.292 1265.72,-236.776 1269.63,-230.966"/>
</g>
<!-- 2 -->
<g id="node2" class="node"><title>2</title>
<polygon fill="lightgray" stroke="black" points="143.5,-1512.09 122.5,-1512.09 122.5,-1494.09 143.5,-1494.09 143.5,-1512.09"/>
<text text-anchor="middle" x="133" y="-1500.89" font-family="Times New Roman,serif" font-size="9.00">2</text>
</g>
<!-- 5 -->
<g id="node5" class="node"><title>5</title>
<polygon fill="lightblue" stroke="black" points="645.5,-18 624.5,-18 624.5,-0 645.5,-0 645.5,-18"/>
<text text-anchor="middle" x="635" y="-6.8" font-family="Times New Roman,serif" font-size="9.00">5</text>
</g>
<!-- 2&#45;&gt;5 -->
<g id="edge77" class="edge"><title>2&#45;&gt;5</title>
<path fill="none" stroke="green" d="M122.275,-1497.33C104.733,-1489.08 69.6909,-1470.62 48,-1445.88 15.8631,-1409.21 0,-1395.99 0,-1347.24 0,-1347.24 0,-1347.24 0,-144.154 0,-99.5683 7.08949,-79.0105 44,-54 92.0326,-21.4532 514.264,-12.1012 613.968,-10.3377"/>
<polygon fill="green" stroke="green" points="614.312,-13.8325 624.251,-10.163 614.193,-6.83347 614.312,-13.8325"/>
</g>
<!-- 8 -->
<g id="node29" class="node"><title>8</title>
<ellipse fill="none" stroke="black" cx="43" cy="-962.59" rx="14.7" ry="14.7"/>
<text text-anchor="middle" x="43" y="-960.39" font-family="Times New Roman,serif" font-size="9.00">8</text>
</g>
<!-- 2&#45;&gt;8 -->
<g id="edge126" class="edge"><title>2&#45;&gt;8</title>
<path fill="none" stroke="green" d="M123.191,-1493.8C98.9188,-1472.3 38,-1411.89 38,-1347.24 38,-1347.24 38,-1347.24 38,-1112.79 38,-1068.66 40.2114,-1017.24 41.6928,-987.743"/>
<polygon fill="green" stroke="green" points="45.1976,-987.739 42.2188,-977.572 38.207,-987.378 45.1976,-987.739"/>
</g>
<!-- 33 -->
<g id="node37" class="node"><title>33</title>
<ellipse fill="none" stroke="black" cx="600" cy="-1424.66" rx="18.2703" ry="18.2703"/>
<text text-anchor="middle" x="600" y="-1422.46" font-family="Times New Roman,serif" font-size="9.00">33</text>
</g>
<!-- 2&#45;&gt;33 -->
<g id="edge38" class="edge"><title>2&#45;&gt;33</title>
<path fill="none" stroke="green" d="M143.673,-1501.24C190.424,-1497.38 381.645,-1480.2 535,-1445.88 547.755,-1443.02 561.621,-1438.86 573.258,-1435.05"/>
<polygon fill="green" stroke="green" points="574.459,-1438.34 582.826,-1431.84 572.232,-1431.71 574.459,-1438.34"/>
</g>
<!-- 38 -->
<g id="node40" class="node"><title>38</title>
<ellipse fill="none" stroke="black" cx="346" cy="-1346.24" rx="18.2703" ry="18.2703"/>
<text text-anchor="middle" x="346" y="-1344.04" font-family="Times New Roman,serif" font-size="9.00">38</text>
</g>
<!-- 2&#45;&gt;38 -->
<g id="edge11" class="edge"><title>2&#45;&gt;38</title>
<path fill="none" stroke="red" d="M143.563,-1494.41C176.458,-1470.5 277.588,-1396.97 323.231,-1363.79"/>
<polygon fill="red" stroke="red" points="325.553,-1366.43 331.583,-1357.72 321.437,-1360.77 325.553,-1366.43"/>
</g>
<!-- 51 -->
<g id="node44" class="node"><title>51</title>
<ellipse fill="none" stroke="black" cx="304" cy="-1189.38" rx="18.2703" ry="18.2703"/>
<text text-anchor="middle" x="304" y="-1187.18" font-family="Times New Roman,serif" font-size="9.00">51</text>
</g>
<!-- 2&#45;&gt;51 -->
<g id="edge95" class="edge"><title>2&#45;&gt;51</title>
<path fill="none" stroke="green" d="M135.838,-1493.66C147.241,-1460.42 192.002,-1335.98 252,-1246.6 260.975,-1233.23 273.098,-1219.92 283.381,-1209.62"/>
<polygon fill="green" stroke="green" points="286.094,-1211.86 290.803,-1202.37 281.203,-1206.85 286.094,-1211.86"/>
</g>
<!-- 97 -->
<g id="node63" class="node"><title>97</title>
<ellipse fill="none" stroke="black" cx="500" cy="-581.772" rx="18.2703" ry="18.2703"/>
<text text-anchor="middle" x="500" y="-579.572" font-family="Times New Roman,serif" font-size="9.00">97</text>
</g>
<!-- 2&#45;&gt;97 -->
<g id="edge129" class="edge"><title>2&#45;&gt;97</title>
<path fill="none" stroke="green" d="M134.149,-1493.85C136.58,-1476.86 142.629,-1436.7 150,-1403.45 173.451,-1297.65 175.823,-1269.59 214,-1168.17 299.027,-942.291 441.002,-686.267 485.925,-607.27"/>
<polygon fill="green" stroke="green" points="489.229,-608.541 491.144,-598.121 483.149,-605.073 489.229,-608.541"/>
</g>
<!-- 3 -->
<g id="node3" class="node"><title>3</title>
<polygon fill="lightgray" stroke="black" points="715.5,-1898.56 694.5,-1898.56 694.5,-1880.56 715.5,-1880.56 715.5,-1898.56"/>
<text text-anchor="middle" x="705" y="-1887.36" font-family="Times New Roman,serif" font-size="9.00">3</text>
</g>
<!-- 6 -->
<g id="node26" class="node"><title>6</title>
<ellipse fill="none" stroke="black" cx="773" cy="-1581.52" rx="14.7" ry="14.7"/>
<text text-anchor="middle" x="773" y="-1579.32" font-family="Times New Roman,serif" font-size="9.00">6</text>
</g>
<!-- 3&#45;&gt;6 -->
<g id="edge20" class="edge"><title>3&#45;&gt;6</title>
<path fill="none" stroke="red" d="M706.819,-1880.38C715.584,-1840.93 753.619,-1669.75 767.717,-1606.29"/>
<polygon fill="red" stroke="red" points="771.161,-1606.93 769.913,-1596.41 764.327,-1605.41 771.161,-1606.93"/>
</g>
<!-- 11 -->
<g id="node27" class="node"><title>11</title>
<ellipse fill="none" stroke="black" cx="622" cy="-1811.14" rx="18.2703" ry="18.2703"/>
<text text-anchor="middle" x="622" y="-1808.94" font-family="Times New Roman,serif" font-size="9.00">11</text>
</g>
<!-- 3&#45;&gt;11 -->
<g id="edge18" class="edge"><title>3&#45;&gt;11</title>
<path fill="none" stroke="green" d="M696.118,-1880.39C683.425,-1868.7 659.734,-1846.88 642.546,-1831.06"/>
<polygon fill="green" stroke="green" points="644.896,-1828.46 635.169,-1824.26 640.154,-1833.61 644.896,-1828.46"/>
</g>
<!-- 4 -->
<g id="node4" class="node"><title>4</title>
<polygon fill="lightgray" stroke="black" points="887.5,-2203.79 866.5,-2203.79 866.5,-2185.79 887.5,-2185.79 887.5,-2203.79"/>
<text text-anchor="middle" x="877" y="-2192.59" font-family="Times New Roman,serif" font-size="9.00">4</text>
</g>
<!-- 115 -->
<g id="node7" class="node"><title>115</title>
<ellipse fill="none" stroke="black" cx="809" cy="-2119.19" rx="21.4286" ry="21.4286"/>
<text text-anchor="middle" x="809" y="-2116.99" font-family="Times New Roman,serif" font-size="9.00">115</text>
</g>
<!-- 4&#45;&gt;115 -->
<g id="edge99" class="edge"><title>4&#45;&gt;115</title>
<path fill="none" stroke="red" d="M869.463,-2185.63C860.01,-2175.4 843.414,-2157.43 829.998,-2142.91"/>
<polygon fill="red" stroke="red" points="832.295,-2140.24 822.938,-2135.27 827.153,-2144.99 832.295,-2140.24"/>
</g>
<!-- 54 -->
<g id="node10" class="node"><title>54</title>
<ellipse fill="none" stroke="black" cx="896" cy="-1965.16" rx="18.2703" ry="18.2703"/>
<text text-anchor="middle" x="896" y="-1962.96" font-family="Times New Roman,serif" font-size="9.00">54</text>
</g>
<!-- 4&#45;&gt;54 -->
<g id="edge21" class="edge"><title>4&#45;&gt;54</title>
<path fill="none" stroke="green" d="M877.676,-2185.68C880.231,-2155.07 889.371,-2045.58 893.698,-1993.74"/>
<polygon fill="green" stroke="green" points="897.2,-1993.86 894.544,-1983.61 890.224,-1993.28 897.2,-1993.86"/>
</g>
<!-- 65 -->
<g id="node11" class="node"><title>65</title>
<ellipse fill="none" stroke="black" cx="771" cy="-2040.76" rx="18.2703" ry="18.2703"/>
<text text-anchor="middle" x="771" y="-2038.56" font-family="Times New Roman,serif" font-size="9.00">65</text>
</g>
<!-- 4&#45;&gt;65 -->
<g id="edge24" class="edge"><title>4&#45;&gt;65</title>
<path fill="none" stroke="green" d="M866.467,-2191.53C845.675,-2186.47 799.593,-2172.08 779,-2140.4 765.301,-2119.33 764.645,-2090.13 766.6,-2068.97"/>
<polygon fill="green" stroke="green" points="770.079,-2069.35 767.764,-2059.02 763.126,-2068.54 770.079,-2069.35"/>
</g>
<!-- 20 -->
<g id="node22" class="node"><title>20</title>
<ellipse fill="none" stroke="black" cx="771" cy="-1965.16" rx="18.2703" ry="18.2703"/>
<text text-anchor="middle" x="771" y="-1962.96" font-family="Times New Roman,serif" font-size="9.00">20</text>
</g>
<!-- 4&#45;&gt;20 -->
<g id="edge33" class="edge"><title>4&#45;&gt;20</title>
<path fill="none" stroke="red" d="M874.11,-2185.72C868.083,-2169.1 853.523,-2129.9 839,-2097.97 821.622,-2059.77 798.809,-2016.79 784.525,-1990.59"/>
<polygon fill="red" stroke="red" points="787.55,-1988.83 779.675,-1981.74 781.411,-1992.19 787.55,-1988.83"/>
</g>
<!-- 4&#45;&gt;7 -->
<g id="edge12" class="edge"><title>4&#45;&gt;7</title>
<path fill="none" stroke="red" d="M887.944,-2192.25C952.41,-2183.19 1282.97,-2136.76 1376.39,-2123.64"/>
<polygon fill="red" stroke="red" points="1376.92,-2127.1 1386.33,-2122.25 1375.95,-2120.17 1376.92,-2127.1"/>
</g>
<!-- 63 -->
<g id="node30" class="node"><title>63</title>
<ellipse fill="none" stroke="black" cx="772" cy="-1503.09" rx="18.2703" ry="18.2703"/>
<text text-anchor="middle" x="772" y="-1500.89" font-family="Times New Roman,serif" font-size="9.00">63</text>
</g>
<!-- 4&#45;&gt;63 -->
<g id="edge130" class="edge"><title>4&#45;&gt;63</title>
<path fill="none" stroke="green" d="M883.139,-2185.64C918.032,-2139.32 1089.82,-1911.3 1090,-1910.78 1129.08,-1796.35 1159.95,-1739.42 1093,-1638.73 1025.64,-1537.43 865.745,-1512.19 800.483,-1506.03"/>
<polygon fill="green" stroke="green" points="800.76,-1502.54 790.496,-1505.17 800.158,-1509.51 800.76,-1502.54"/>
</g>
<!-- 40 -->
<g id="node31" class="node"><title>40</title>
<ellipse fill="none" stroke="black" cx="451" cy="-1735.54" rx="18.2703" ry="18.2703"/>
<text text-anchor="middle" x="451" y="-1733.34" font-family="Times New Roman,serif" font-size="9.00">40</text>
</g>
<!-- 4&#45;&gt;40 -->
<g id="edge145" class="edge"><title>4&#45;&gt;40</title>
<path fill="none" stroke="red" d="M866.247,-2192.18C802.318,-2182.37 475,-2127.94 475,-2041.76 475,-2041.76 475,-2041.76 475,-1888.56 475,-1844.35 464.971,-1793.77 457.879,-1763.53"/>
<polygon fill="red" stroke="red" points="461.262,-1762.63 455.514,-1753.73 454.457,-1764.27 461.262,-1762.63"/>
</g>
<!-- 37 -->
<g id="node62" class="node"><title>37</title>
<ellipse fill="none" stroke="black" cx="739" cy="-654.541" rx="18.2703" ry="18.2703"/>
<text text-anchor="middle" x="739" y="-652.341" font-family="Times New Roman,serif" font-size="9.00">37</text>
</g>
<!-- 4&#45;&gt;37 -->
<g id="edge26" class="edge"><title>4&#45;&gt;37</title>
<path fill="none" stroke="green" d="M887.785,-2186.97C902.318,-2177.5 928.603,-2159.39 948,-2140.4 952.144,-2136.34 1206,-1817.94 1206,-1812.14 1206,-1812.14 1206,-1812.14 1206,-1502.09 1206,-1144.94 1353.21,-935.336 1077,-708.926 1029.8,-670.238 840.66,-659.264 767.808,-656.438"/>
<polygon fill="green" stroke="green" points="767.663,-652.931 757.543,-656.065 767.409,-659.926 767.663,-652.931"/>
</g>
<!-- 120 -->
<g id="node8" class="node"><title>120</title>
<ellipse fill="none" stroke="black" cx="1191" cy="-2270.38" rx="21.4286" ry="21.4286"/>
<text text-anchor="middle" x="1191" y="-2268.18" font-family="Times New Roman,serif" font-size="9.00">120</text>
</g>
<!-- 29&#45;&gt;120 -->
<g id="edge28" class="edge"><title>29&#45;&gt;120</title>
<path fill="none" stroke="green" d="M1226.68,-2329.73C1221,-2320.46 1213.61,-2308.36 1207.02,-2297.59"/>
<polygon fill="green" stroke="green" points="1209.94,-2295.65 1201.73,-2288.94 1203.97,-2299.3 1209.94,-2295.65"/>
</g>
<!-- 29&#45;&gt;19 -->
<g id="edge39" class="edge"><title>29&#45;&gt;19</title>
<path fill="none" stroke="red" d="M1236.47,-2327.57C1237.15,-2302.11 1238.43,-2254.41 1239.25,-2223.93"/>
<polygon fill="red" stroke="red" points="1242.75,-2223.63 1239.52,-2213.54 1235.76,-2223.45 1242.75,-2223.63"/>
</g>
<!-- 115&#45;&gt;65 -->
<g id="edge100" class="edge"><title>115&#45;&gt;65</title>
<path fill="none" stroke="green" d="M799.801,-2099.69C794.841,-2089.71 788.652,-2077.26 783.285,-2066.47"/>
<polygon fill="green" stroke="green" points="786.417,-2064.91 778.83,-2057.51 780.149,-2068.02 786.417,-2064.91"/>
</g>
<!-- 120&#45;&gt;19 -->
<g id="edge29" class="edge"><title>120&#45;&gt;19</title>
<path fill="none" stroke="green" d="M1202.36,-2252.31C1208.9,-2242.49 1217.21,-2230.01 1224.36,-2219.28"/>
<polygon fill="green" stroke="green" points="1227.4,-2221.03 1230.03,-2210.77 1221.57,-2217.15 1227.4,-2221.03"/>
</g>
<!-- 57 -->
<g id="node54" class="node"><title>57</title>
<ellipse fill="none" stroke="black" cx="630" cy="-1113.79" rx="18.2703" ry="18.2703"/>
<text text-anchor="middle" x="630" y="-1111.59" font-family="Times New Roman,serif" font-size="9.00">57</text>
</g>
<!-- 120&#45;&gt;57 -->
<g id="edge140" class="edge"><title>120&#45;&gt;57</title>
<path fill="none" stroke="green" d="M1169.54,-2268.4C1027.45,-2261.58 228,-2218.84 228,-2120.19 228,-2120.19 228,-2120.19 228,-1266.81 228,-1217.86 237.444,-1197.01 277,-1168.17 328.676,-1130.5 526.4,-1118.87 601.149,-1115.78"/>
<polygon fill="green" stroke="green" points="601.399,-1119.27 611.254,-1115.38 601.124,-1112.28 601.399,-1119.27"/>
</g>
<!-- 71 -->
<g id="node13" class="node"><title>71</title>
<ellipse fill="none" stroke="black" cx="1116" cy="-2119.19" rx="18.2703" ry="18.2703"/>
<text text-anchor="middle" x="1116" y="-2116.99" font-family="Times New Roman,serif" font-size="9.00">71</text>
</g>
<!-- 19&#45;&gt;71 -->
<g id="edge30" class="edge"><title>19&#45;&gt;71</title>
<path fill="none" stroke="red" d="M1224.55,-2184.61C1203.48,-2172.11 1165.5,-2149.57 1140.52,-2134.74"/>
<polygon fill="red" stroke="red" points="1142.03,-2131.57 1131.65,-2129.48 1138.46,-2137.59 1142.03,-2131.57"/>
</g>
<!-- 30 -->
<g id="node15" class="node"><title>30</title>
<ellipse fill="none" stroke="black" cx="1130" cy="-1965.16" rx="18.2703" ry="18.2703"/>
<text text-anchor="middle" x="1130" y="-1962.96" font-family="Times New Roman,serif" font-size="9.00">30</text>
</g>
<!-- 19&#45;&gt;30 -->
<g id="edge55" class="edge"><title>19&#45;&gt;30</title>
<path fill="none" stroke="red" d="M1235.97,-2176.56C1226.77,-2138.09 1203.75,-2046.46 1187,-2019.55 1178.12,-2005.28 1164.48,-1992.32 1152.77,-1982.74"/>
<polygon fill="red" stroke="red" points="1154.71,-1979.81 1144.68,-1976.39 1150.39,-1985.32 1154.71,-1979.81"/>
</g>
<!-- 56 -->
<g id="node48" class="node"><title>56</title>
<ellipse fill="none" stroke="black" cx="940" cy="-1189.38" rx="18.2703" ry="18.2703"/>
<text text-anchor="middle" x="940" y="-1187.18" font-family="Times New Roman,serif" font-size="9.00">56</text>
</g>
<!-- 19&#45;&gt;56 -->
<g id="edge23" class="edge"><title>19&#45;&gt;56</title>
<path fill="none" stroke="green" d="M1240.77,-2176C1241.93,-2147.62 1244,-2090.34 1244,-2041.76 1244,-2041.76 1244,-2041.76 1244,-1734.54 1244,-1501.61 1029.08,-1275.68 960.656,-1209.65"/>
<polygon fill="green" stroke="green" points="962.713,-1206.78 953.063,-1202.4 957.879,-1211.84 962.713,-1206.78"/>
</g>
<!-- 34 -->
<g id="node69" class="node"><title>34</title>
<ellipse fill="none" stroke="black" cx="1244" cy="-290.693" rx="18.2703" ry="18.2703"/>
<text text-anchor="middle" x="1244" y="-288.493" font-family="Times New Roman,serif" font-size="9.00">34</text>
</g>
<!-- 19&#45;&gt;34 -->
<g id="edge19" class="edge"><title>19&#45;&gt;34</title>
<path fill="none" stroke="red" d="M1247.51,-2177.77C1259.59,-2150.48 1282,-2092.96 1282,-2041.76 1282,-2041.76 1282,-2041.76 1282,-1423.66 1282,-1319.29 1309,-1294.76 1309,-1190.38 1309,-1190.38 1309,-1190.38 1309,-435.233 1309,-394.284 1308.16,-381.78 1290,-345.078 1283.73,-332.399 1273.74,-320.283 1264.67,-310.808"/>
<polygon fill="red" stroke="red" points="1266.91,-308.107 1257.37,-303.516 1261.97,-313.059 1266.91,-308.107"/>
</g>
<!-- 113 -->
<g id="node16" class="node"><title>113</title>
<ellipse fill="none" stroke="black" cx="882" cy="-1889.56" rx="21.4286" ry="21.4286"/>
<text text-anchor="middle" x="882" y="-1887.36" font-family="Times New Roman,serif" font-size="9.00">113</text>
</g>
<!-- 54&#45;&gt;113 -->
<g id="edge50" class="edge"><title>54&#45;&gt;113</title>
<path fill="none" stroke="red" d="M892.682,-1946.72C891.194,-1938.9 889.396,-1929.45 887.703,-1920.55"/>
<polygon fill="red" stroke="red" points="891.096,-1919.65 885.789,-1910.48 884.219,-1920.96 891.096,-1919.65"/>
</g>
<!-- 16 -->
<g id="node21" class="node"><title>16</title>
<ellipse fill="none" stroke="black" cx="975" cy="-1735.54" rx="18.2703" ry="18.2703"/>
<text text-anchor="middle" x="975" y="-1733.34" font-family="Times New Roman,serif" font-size="9.00">16</text>
</g>
<!-- 54&#45;&gt;16 -->
<g id="edge22" class="edge"><title>54&#45;&gt;16</title>
<path fill="none" stroke="green" d="M901.831,-1947.52C910.585,-1922.53 927.629,-1873.8 942,-1832.35 950.158,-1808.82 959.384,-1782.02 966.003,-1762.76"/>
<polygon fill="green" stroke="green" points="969.359,-1763.76 969.297,-1753.16 962.739,-1761.48 969.359,-1763.76"/>
</g>
<!-- 65&#45;&gt;20 -->
<g id="edge25" class="edge"><title>65&#45;&gt;20</title>
<path fill="none" stroke="green" d="M771,-2022.32C771,-2013.86 771,-2003.49 771,-1993.97"/>
<polygon fill="green" stroke="green" points="774.5,-1993.73 771,-1983.73 767.5,-1993.73 774.5,-1993.73"/>
</g>
<!-- 76&#45;&gt;97 -->
<g id="edge107" class="edge"><title>76&#45;&gt;97</title>
<path fill="none" stroke="green" d="M132.846,-711.402C134.876,-690.11 141.643,-654.929 164,-636.156 210.468,-597.14 398.764,-586.364 471.31,-583.63"/>
<polygon fill="green" stroke="green" points="471.662,-587.12 481.532,-583.27 471.415,-580.124 471.662,-587.12"/>
</g>
<!-- 102 -->
<g id="node14" class="node"><title>102</title>
<ellipse fill="none" stroke="black" cx="1157" cy="-2040.76" rx="21.4286" ry="21.4286"/>
<text text-anchor="middle" x="1157" y="-2038.56" font-family="Times New Roman,serif" font-size="9.00">102</text>
</g>
<!-- 71&#45;&gt;102 -->
<g id="edge42" class="edge"><title>71&#45;&gt;102</title>
<path fill="none" stroke="red" d="M1124.3,-2102.72C1129.49,-2093.04 1136.32,-2080.31 1142.4,-2068.98"/>
<polygon fill="red" stroke="red" points="1145.63,-2070.36 1147.27,-2059.89 1139.46,-2067.05 1145.63,-2070.36"/>
</g>
<!-- 71&#45;&gt;30 -->
<g id="edge31" class="edge"><title>71&#45;&gt;30</title>
<path fill="none" stroke="green" d="M1117.61,-2100.75C1120.01,-2074.66 1124.56,-2025.2 1127.43,-1994.05"/>
<polygon fill="green" stroke="green" points="1130.94,-1994.15 1128.37,-1983.87 1123.97,-1993.5 1130.94,-1994.15"/>
</g>
<!-- 155 -->
<g id="node17" class="node"><title>155</title>
<ellipse fill="none" stroke="black" cx="945" cy="-2040.76" rx="21.4286" ry="21.4286"/>
<text text-anchor="middle" x="945" y="-2038.56" font-family="Times New Roman,serif" font-size="9.00">155</text>
</g>
<!-- 71&#45;&gt;155 -->
<g id="edge112" class="edge"><title>71&#45;&gt;155</title>
<path fill="none" stroke="red" d="M1098.93,-2111.96C1072.85,-2102.27 1021.71,-2082.53 980,-2061.97 977.256,-2060.62 974.432,-2059.14 971.634,-2057.62"/>
<polygon fill="red" stroke="red" points="973.349,-2054.57 962.918,-2052.71 969.914,-2060.67 973.349,-2054.57"/>
</g>
<!-- 71&#45;&gt;20 -->
<g id="edge120" class="edge"><title>71&#45;&gt;20</title>
<path fill="none" stroke="green" d="M1102.61,-2106.32C1078.68,-2085.72 1026.25,-2043.25 975,-2019.55 915.521,-1992.04 839.48,-1976.9 799.12,-1970.28"/>
<polygon fill="green" stroke="green" points="799.616,-1966.82 789.192,-1968.71 798.521,-1973.73 799.616,-1966.82"/>
</g>
<!-- 102&#45;&gt;30 -->
<g id="edge43" class="edge"><title>102&#45;&gt;30</title>
<path fill="none" stroke="green" d="M1149.91,-2020.42C1146.74,-2011.79 1142.96,-2001.49 1139.55,-1992.19"/>
<polygon fill="green" stroke="green" points="1142.77,-1990.81 1136.04,-1982.63 1136.2,-1993.22 1142.77,-1990.81"/>
</g>
<!-- 66 -->
<g id="node18" class="node"><title>66</title>
<ellipse fill="none" stroke="black" cx="1063" cy="-1889.56" rx="18.2703" ry="18.2703"/>
<text text-anchor="middle" x="1063" y="-1887.36" font-family="Times New Roman,serif" font-size="9.00">66</text>
</g>
<!-- 30&#45;&gt;66 -->
<g id="edge58" class="edge"><title>30&#45;&gt;66</title>
<path fill="none" stroke="green" d="M1118.02,-1951C1107.92,-1939.91 1093.3,-1923.85 1081.66,-1911.07"/>
<polygon fill="green" stroke="green" points="1084.19,-1908.65 1074.87,-1903.61 1079.02,-1913.36 1084.19,-1908.65"/>
</g>
<!-- 30&#45;&gt;16 -->
<g id="edge15" class="edge"><title>30&#45;&gt;16</title>
<path fill="none" stroke="red" d="M1128.54,-1946.8C1124.87,-1912.97 1112.5,-1837.38 1073,-1789.93 1054.41,-1767.58 1023.95,-1753.09 1001.92,-1744.93"/>
<polygon fill="red" stroke="red" points="1003.06,-1741.62 992.463,-1741.61 1000.74,-1748.22 1003.06,-1741.62"/>
</g>
<!-- 139 -->
<g id="node19" class="node"><title>139</title>
<ellipse fill="none" stroke="black" cx="869" cy="-1811.14" rx="21.4286" ry="21.4286"/>
<text text-anchor="middle" x="869" y="-1808.94" font-family="Times New Roman,serif" font-size="9.00">139</text>
</g>
<!-- 113&#45;&gt;139 -->
<g id="edge132" class="edge"><title>113&#45;&gt;139</title>
<path fill="none" stroke="red" d="M878.584,-1868.48C877.211,-1860.41 875.598,-1850.93 874.092,-1842.07"/>
<polygon fill="red" stroke="red" points="877.52,-1841.36 872.393,-1832.08 870.619,-1842.53 877.52,-1841.36"/>
</g>
<!-- 113&#45;&gt;16 -->
<g id="edge51" class="edge"><title>113&#45;&gt;16</title>
<path fill="none" stroke="red" d="M892.584,-1871.08C904.542,-1851.34 924.606,-1818.29 942,-1789.93 947.981,-1780.17 954.607,-1769.44 960.343,-1760.17"/>
<polygon fill="red" stroke="red" points="963.435,-1761.82 965.725,-1751.48 957.484,-1758.14 963.435,-1761.82"/>
</g>
<!-- 113&#45;&gt;51 -->
<g id="edge101" class="edge"><title>113&#45;&gt;51</title>
<path fill="none" stroke="red" d="M863.536,-1878.92C824.844,-1859.11 731.965,-1813.74 649,-1789.93 551.66,-1761.98 519.316,-1788.14 424,-1753.93 326.485,-1718.92 266,-1686.12 266,-1582.52 266,-1582.52 266,-1582.52 266,-1345.24 266,-1298.73 282.367,-1246.57 293.618,-1216.21"/>
<polygon fill="red" stroke="red" points="296.918,-1217.38 297.206,-1206.79 290.376,-1214.89 296.918,-1217.38"/>
</g>
<!-- 155&#45;&gt;20 -->
<g id="edge113" class="edge"><title>155&#45;&gt;20</title>
<path fill="none" stroke="green" d="M925.714,-2031.6C894.467,-2018.39 832.723,-1992.27 797.416,-1977.34"/>
<polygon fill="green" stroke="green" points="798.361,-1973.94 787.788,-1973.26 795.634,-1980.38 798.361,-1973.94"/>
</g>
<!-- 122 -->
<g id="node20" class="node"><title>122</title>
<ellipse fill="none" stroke="black" cx="1043" cy="-1811.14" rx="21.4286" ry="21.4286"/>
<text text-anchor="middle" x="1043" y="-1808.94" font-family="Times New Roman,serif" font-size="9.00">122</text>
</g>
<!-- 66&#45;&gt;122 -->
<g id="edge110" class="edge"><title>66&#45;&gt;122</title>
<path fill="none" stroke="red" d="M1058.56,-1871.6C1056.25,-1862.76 1053.35,-1851.7 1050.69,-1841.52"/>
<polygon fill="red" stroke="red" points="1054.05,-1840.54 1048.13,-1831.75 1047.28,-1842.31 1054.05,-1840.54"/>
</g>
<!-- 66&#45;&gt;16 -->
<g id="edge125" class="edge"><title>66&#45;&gt;16</title>
<path fill="none" stroke="red" d="M1049.67,-1876.21C1038.68,-1865.46 1023.28,-1849.03 1013,-1832.35 999.569,-1810.56 989.283,-1783.2 982.82,-1763.3"/>
<polygon fill="red" stroke="red" points="986.124,-1762.14 979.793,-1753.65 979.445,-1764.24 986.124,-1762.14"/>
</g>
<!-- 41 -->
<g id="node25" class="node"><title>41</title>
<ellipse fill="none" stroke="black" cx="1066" cy="-1659.94" rx="18.2703" ry="18.2703"/>
<text text-anchor="middle" x="1066" y="-1657.74" font-family="Times New Roman,serif" font-size="9.00">41</text>
</g>
<!-- 66&#45;&gt;41 -->
<g id="edge131" class="edge"><title>66&#45;&gt;41</title>
<path fill="none" stroke="red" d="M1066.85,-1871.45C1069.15,-1860.36 1071.83,-1845.58 1073,-1832.35 1077.47,-1781.75 1072.87,-1722.5 1069.31,-1688.58"/>
<polygon fill="red" stroke="red" points="1072.78,-1688.06 1068.2,-1678.5 1065.82,-1688.82 1072.78,-1688.06"/>
</g>
<!-- 139&#45;&gt;16 -->
<g id="edge133" class="edge"><title>139&#45;&gt;16</title>
<path fill="none" stroke="red" d="M886.031,-1798.31C903.793,-1785.98 931.762,-1766.56 951.594,-1752.79"/>
<polygon fill="red" stroke="red" points="953.849,-1755.49 960.067,-1746.91 949.857,-1749.74 953.849,-1755.49"/>
</g>
<!-- 122&#45;&gt;16 -->
<g id="edge111" class="edge"><title>122&#45;&gt;16</title>
<path fill="none" stroke="green" d="M1028.91,-1794.89C1018.83,-1783.97 1005.13,-1769.16 994.073,-1757.18"/>
<polygon fill="green" stroke="green" points="996.605,-1754.77 987.248,-1749.8 991.463,-1759.52 996.605,-1754.77"/>
</g>
<!-- 16&#45;&gt;41 -->
<g id="edge81" class="edge"><title>16&#45;&gt;41</title>
<path fill="none" stroke="green" d="M988.821,-1723.36C1003.52,-1711.47 1026.97,-1692.5 1044.17,-1678.59"/>
<polygon fill="green" stroke="green" points="1046.47,-1681.24 1052.05,-1672.23 1042.07,-1675.79 1046.47,-1681.24"/>
</g>
<!-- 16&#45;&gt;6 -->
<g id="edge32" class="edge"><title>16&#45;&gt;6</title>
<path fill="none" stroke="green" d="M960.796,-1723.85C925.406,-1697.22 833.239,-1627.85 792.663,-1597.31"/>
<polygon fill="green" stroke="green" points="794.702,-1594.47 784.607,-1591.25 790.493,-1600.06 794.702,-1594.47"/>
</g>
<!-- 48 -->
<g id="node24" class="node"><title>48</title>
<ellipse fill="none" stroke="black" cx="620" cy="-1889.56" rx="18.2703" ry="18.2703"/>
<text text-anchor="middle" x="620" y="-1887.36" font-family="Times New Roman,serif" font-size="9.00">48</text>
</g>
<!-- 20&#45;&gt;48 -->
<g id="edge46" class="edge"><title>20&#45;&gt;48</title>
<path fill="none" stroke="red" d="M754.086,-1957.46C730.683,-1947.99 687.315,-1929.73 652,-1910.78 649.252,-1909.3 646.422,-1907.68 643.636,-1906.01"/>
<polygon fill="red" stroke="red" points="645.38,-1902.98 635.038,-1900.68 641.69,-1908.93 645.38,-1902.98"/>
</g>
<!-- 20&#45;&gt;11 -->
<g id="edge3" class="edge"><title>20&#45;&gt;11</title>
<path fill="none" stroke="red" d="M754.617,-1956.77C736.119,-1947.83 705.885,-1931.4 685,-1910.78 663.056,-1889.11 644.989,-1858.47 633.915,-1837.11"/>
<polygon fill="red" stroke="red" points="636.956,-1835.37 629.33,-1828.01 630.705,-1838.52 636.956,-1835.37"/>
</g>
<!-- 20&#45;&gt;38 -->
<g id="edge106" class="edge"><title>20&#45;&gt;38</title>
<path fill="none" stroke="red" d="M752.515,-1963.12C717.667,-1960.26 641.418,-1949.67 593,-1910.78 553.868,-1879.34 538,-1862.33 538,-1812.14 538,-1812.14 538,-1812.14 538,-1658.94 538,-1608.31 512.628,-1599.84 481,-1560.3 466.265,-1541.88 456.483,-1542.92 442,-1524.3 403.732,-1475.11 372.214,-1408.58 356.598,-1372.7"/>
<polygon fill="red" stroke="red" points="359.782,-1371.25 352.623,-1363.44 353.349,-1374.01 359.782,-1371.25"/>
</g>
<!-- 31 -->
<g id="node46" class="node"><title>31</title>
<ellipse fill="none" stroke="black" cx="786" cy="-1189.38" rx="18.2703" ry="18.2703"/>
<text text-anchor="middle" x="786" y="-1187.18" font-family="Times New Roman,serif" font-size="9.00">31</text>
</g>
<!-- 20&#45;&gt;31 -->
<g id="edge80" class="edge"><title>20&#45;&gt;31</title>
<path fill="none" stroke="green" d="M769.625,-1946.82C767.377,-1915.45 763.587,-1847.24 768,-1789.93 774.464,-1705.98 789.467,-1686.58 797,-1602.73 800.508,-1563.69 800.97,-1450.53 802,-1289.02 802.12,-1270.17 804.606,-1265.27 802,-1246.6 800.599,-1236.56 797.856,-1225.8 795.032,-1216.41"/>
<polygon fill="green" stroke="green" points="798.359,-1215.32 791.994,-1206.85 791.688,-1217.44 798.359,-1215.32"/>
</g>
<!-- 20&#45;&gt;37 -->
<g id="edge14" class="edge"><title>20&#45;&gt;37</title>
<path fill="none" stroke="red" d="M777.165,-1947.74C788.857,-1916.75 815.213,-1847.55 839,-1789.93 935.386,-1556.41 1066,-1521.44 1066,-1268.81 1066,-1268.81 1066,-1268.81 1066,-1112.79 1066,-1012.05 1037,-988.728 1037,-887.992 1037,-887.992 1037,-887.992 1037,-807.566 1037,-687.441 842.484,-662.187 767.76,-656.917"/>
<polygon fill="red" stroke="red" points="767.843,-653.416 757.641,-656.276 767.4,-660.402 767.843,-653.416"/>
</g>
<!-- 12&#45;&gt;7 -->
<g id="edge98" class="edge"><title>12&#45;&gt;7</title>
<path fill="none" stroke="red" d="M1437.38,-2252.56C1430.03,-2225.84 1415.69,-2173.63 1407.37,-2143.38"/>
<polygon fill="red" stroke="red" points="1410.73,-2142.38 1404.71,-2133.67 1403.98,-2144.24 1410.73,-2142.38"/>
</g>
<!-- 48&#45;&gt;11 -->
<g id="edge47" class="edge"><title>48&#45;&gt;11</title>
<path fill="none" stroke="green" d="M620.464,-1870.84C620.704,-1861.68 621.002,-1850.28 621.272,-1839.97"/>
<polygon fill="green" stroke="green" points="624.776,-1839.86 621.539,-1829.77 617.778,-1839.67 624.776,-1839.86"/>
</g>
<!-- 48&#45;&gt;63 -->
<g id="edge143" class="edge"><title>48&#45;&gt;63</title>
<path fill="none" stroke="red" d="M628.655,-1873.07C634.719,-1861.92 642.812,-1846.43 649,-1832.35 700.852,-1714.43 702.379,-1680.39 749,-1560.3 752.909,-1550.23 757.371,-1539.23 761.319,-1529.64"/>
<polygon fill="red" stroke="red" points="764.609,-1530.84 765.202,-1520.26 758.142,-1528.16 764.609,-1530.84"/>
</g>
<!-- 48&#45;&gt;51 -->
<g id="edge76" class="edge"><title>48&#45;&gt;51</title>
<path fill="none" stroke="red" d="M611.802,-1872.7C606.373,-1861.64 599.456,-1846.4 595,-1832.35 581.876,-1790.97 576,-1779.95 576,-1736.54 576,-1736.54 576,-1736.54 576,-1658.94 576,-1607.16 547.09,-1600.13 514,-1560.3 498.925,-1542.16 487.973,-1544 475,-1524.3 403.019,-1414.99 453.784,-1352.59 377,-1246.6 364.214,-1228.95 344.358,-1214.16 328.58,-1204.19"/>
<polygon fill="red" stroke="red" points="330.211,-1201.09 319.846,-1198.89 326.58,-1207.07 330.211,-1201.09"/>
</g>
<!-- 41&#45;&gt;6 -->
<g id="edge82" class="edge"><title>41&#45;&gt;6</title>
<path fill="none" stroke="green" d="M1048.11,-1654.28C997.688,-1641.12 854.345,-1603.73 797.073,-1588.8"/>
<polygon fill="green" stroke="green" points="797.679,-1585.34 787.12,-1586.2 795.912,-1592.11 797.679,-1585.34"/>
</g>
<!-- 154 -->
<g id="node42" class="node"><title>154</title>
<ellipse fill="none" stroke="black" cx="1123" cy="-1038.19" rx="21.4286" ry="21.4286"/>
<text text-anchor="middle" x="1123" y="-1035.99" font-family="Times New Roman,serif" font-size="9.00">154</text>
</g>
<!-- 41&#45;&gt;154 -->
<g id="edge141" class="edge"><title>41&#45;&gt;154</title>
<path fill="none" stroke="red" d="M1076.57,-1644.39C1094.75,-1617.89 1130,-1559.36 1130,-1504.09 1130,-1504.09 1130,-1504.09 1130,-1188.38 1130,-1147.28 1127.32,-1099.87 1125.27,-1069.72"/>
<polygon fill="red" stroke="red" points="1128.74,-1069.18 1124.55,-1059.44 1121.76,-1069.66 1128.74,-1069.18"/>
</g>
<!-- 6&#45;&gt;63 -->
<g id="edge35" class="edge"><title>6&#45;&gt;63</title>
<path fill="none" stroke="green" d="M772.817,-1566.5C772.69,-1556.8 772.517,-1543.56 772.362,-1531.78"/>
<polygon fill="green" stroke="green" points="775.859,-1531.46 772.228,-1521.51 768.859,-1531.55 775.859,-1531.46"/>
</g>
<!-- 6&#45;&gt;33 -->
<g id="edge4" class="edge"><title>6&#45;&gt;33</title>
<path fill="none" stroke="red" d="M762.438,-1571.06C734.475,-1546.03 658.117,-1477.68 620.92,-1444.39"/>
<polygon fill="red" stroke="red" points="622.976,-1441.53 613.191,-1437.47 618.307,-1446.75 622.976,-1441.53"/>
</g>
<!-- 10 -->
<g id="node57" class="node"><title>10</title>
<ellipse fill="none" stroke="black" cx="792" cy="-962.59" rx="18.2703" ry="18.2703"/>
<text text-anchor="middle" x="792" y="-960.39" font-family="Times New Roman,serif" font-size="9.00">10</text>
</g>
<!-- 6&#45;&gt;10 -->
<g id="edge44" class="edge"><title>6&#45;&gt;10</title>
<path fill="none" stroke="red" d="M781.654,-1569.25C818.436,-1520.58 962.047,-1322.17 1009,-1132.17 1032.15,-1038.51 883.29,-987.62 819.751,-970.379"/>
<polygon fill="red" stroke="red" points="820.538,-966.967 809.977,-967.81 818.759,-973.737 820.538,-966.967"/>
</g>
<!-- 11&#45;&gt;40 -->
<g id="edge40" class="edge"><title>11&#45;&gt;40</title>
<path fill="none" stroke="red" d="M605.292,-1802.95C575.334,-1790.05 512.296,-1762.92 476.765,-1747.63"/>
<polygon fill="red" stroke="red" points="478.093,-1744.39 467.524,-1743.65 475.325,-1750.82 478.093,-1744.39"/>
</g>
<!-- 32 -->
<g id="node38" class="node"><title>32</title>
<ellipse fill="none" stroke="black" cx="720" cy="-1267.81" rx="18.2703" ry="18.2703"/>
<text text-anchor="middle" x="720" y="-1265.61" font-family="Times New Roman,serif" font-size="9.00">32</text>
</g>
<!-- 11&#45;&gt;32 -->
<g id="edge116" class="edge"><title>11&#45;&gt;32</title>
<path fill="none" stroke="red" d="M623.221,-1792.5C626.172,-1751.58 634.396,-1647.01 647,-1560.3 652.105,-1525.18 643.205,-1511.98 662,-1481.88 676.123,-1459.26 695.739,-1468.41 710,-1445.88 729.025,-1415.82 722.426,-1402.84 726,-1367.45 728.414,-1343.54 726.39,-1316.27 724.062,-1296.47"/>
<polygon fill="red" stroke="red" points="727.503,-1295.78 722.764,-1286.31 720.56,-1296.67 727.503,-1295.78"/>
</g>
<!-- 84 -->
<g id="node41" class="node"><title>84</title>
<ellipse fill="none" stroke="black" cx="775" cy="-1267.81" rx="18.2703" ry="18.2703"/>
<text text-anchor="middle" x="775" y="-1265.61" font-family="Times New Roman,serif" font-size="9.00">84</text>
</g>
<!-- 11&#45;&gt;84 -->
<g id="edge85" class="edge"><title>11&#45;&gt;84</title>
<path fill="none" stroke="green" d="M628.204,-1793.5C632.288,-1782.36 637.662,-1767.33 642,-1753.93 685.924,-1618.22 695.16,-1583.67 732,-1445.88 746.143,-1392.98 760.819,-1330.66 768.841,-1295.85"/>
<polygon fill="green" stroke="green" points="772.283,-1296.5 771.11,-1285.97 765.461,-1294.93 772.283,-1296.5"/>
</g>
<!-- 159 -->
<g id="node56" class="node"><title>159</title>
<ellipse fill="none" stroke="black" cx="1445" cy="-886.992" rx="21.4286" ry="21.4286"/>
<text text-anchor="middle" x="1445" y="-884.792" font-family="Times New Roman,serif" font-size="9.00">159</text>
</g>
<!-- 7&#45;&gt;159 -->
<g id="edge114" class="edge"><title>7&#45;&gt;159</title>
<path fill="none" stroke="green" d="M1406.61,-2105.04C1417.18,-2079.03 1439,-2018.94 1439,-1966.16 1439,-1966.16 1439,-1966.16 1439,-1037.19 1439,-996.092 1441.3,-948.68 1443.05,-918.534"/>
<polygon fill="green" stroke="green" points="1446.56,-918.444 1443.67,-908.252 1439.58,-918.025 1446.56,-918.444"/>
</g>
<!-- 85 -->
<g id="node71" class="node"><title>85</title>
<ellipse fill="none" stroke="black" cx="1310" cy="-145.154" rx="18.2703" ry="18.2703"/>
<text text-anchor="middle" x="1310" y="-142.954" font-family="Times New Roman,serif" font-size="9.00">85</text>
</g>
<!-- 7&#45;&gt;85 -->
<g id="edge121" class="edge"><title>7&#45;&gt;85</title>
<path fill="none" stroke="green" d="M1400.22,-2103.94C1398.81,-2077.03 1396,-2016.86 1396,-1966.16 1396,-1966.16 1396,-1966.16 1396,-289.693 1396,-239.146 1356.27,-191 1330.82,-165.343"/>
<polygon fill="green" stroke="green" points="1333.03,-162.614 1323.44,-158.124 1328.14,-167.618 1333.03,-162.614"/>
</g>
<!-- 8&#45;&gt;5 -->
<g id="edge127" class="edge"><title>8&#45;&gt;5</title>
<path fill="none" stroke="green" d="M43.3125,-947.339C43.875,-920.419 45,-860.245 45,-809.566 45,-809.566 45,-809.566 45,-144.154 45,-102.327 39.4477,-80.2648 72,-54 114.893,-19.392 516.796,-11.6339 613.939,-10.2585"/>
<polygon fill="green" stroke="green" points="614.278,-13.7544 624.23,-10.1211 614.184,-6.75503 614.278,-13.7544"/>
</g>
<!-- 63&#45;&gt;33 -->
<g id="edge36" class="edge"><title>63&#45;&gt;33</title>
<path fill="none" stroke="red" d="M756.561,-1492.57C750.314,-1488.95 742.948,-1484.95 736,-1481.88 689.733,-1461.4 673.029,-1468.95 628,-1445.88 626.199,-1444.95 624.387,-1443.92 622.596,-1442.83"/>
<polygon fill="red" stroke="red" points="624.243,-1439.72 613.994,-1437.03 620.333,-1445.52 624.243,-1439.72"/>
</g>
<!-- 152 -->
<g id="node32" class="node"><title>152</title>
<ellipse fill="none" stroke="black" cx="451" cy="-1659.94" rx="21.4286" ry="21.4286"/>
<text text-anchor="middle" x="451" y="-1657.74" font-family="Times New Roman,serif" font-size="9.00">152</text>
</g>
<!-- 40&#45;&gt;152 -->
<g id="edge138" class="edge"><title>40&#45;&gt;152</title>
<path fill="none" stroke="green" d="M451,-1717.1C451,-1709.48 451,-1700.32 451,-1691.63"/>
<polygon fill="green" stroke="green" points="454.5,-1691.39 451,-1681.39 447.5,-1691.39 454.5,-1691.39"/>
</g>
<!-- 127 -->
<g id="node33" class="node"><title>127</title>
<ellipse fill="none" stroke="black" cx="451" cy="-1581.52" rx="21.4286" ry="21.4286"/>
<text text-anchor="middle" x="451" y="-1579.32" font-family="Times New Roman,serif" font-size="9.00">127</text>
</g>
<!-- 40&#45;&gt;127 -->
<g id="edge93" class="edge"><title>40&#45;&gt;127</title>
<path fill="none" stroke="red" d="M440.425,-1720.46C433.387,-1710.17 424.769,-1695.55 421,-1681.16 416.226,-1662.91 416.424,-1657.02 421,-1638.73 423.658,-1628.11 428.746,-1617.29 433.988,-1608.02"/>
<polygon fill="red" stroke="red" points="437.057,-1609.71 439.197,-1599.34 431.053,-1606.11 437.057,-1609.71"/>
</g>
<!-- 104 -->
<g id="node34" class="node"><title>104</title>
<ellipse fill="none" stroke="black" cx="505" cy="-1503.09" rx="21.4286" ry="21.4286"/>
<text text-anchor="middle" x="505" y="-1500.89" font-family="Times New Roman,serif" font-size="9.00">104</text>
</g>
<!-- 40&#45;&gt;104 -->
<g id="edge45" class="edge"><title>40&#45;&gt;104</title>
<path fill="none" stroke="red" d="M461.274,-1719.84C467.985,-1709.49 476.338,-1695.07 481,-1681.16 497.571,-1631.71 502.727,-1570.85 504.315,-1534.89"/>
<polygon fill="red" stroke="red" points="507.825,-1534.69 504.702,-1524.57 500.83,-1534.43 507.825,-1534.69"/>
</g>
<!-- 129 -->
<g id="node39" class="node"><title>129</title>
<ellipse fill="none" stroke="black" cx="353" cy="-1659.94" rx="21.4286" ry="21.4286"/>
<text text-anchor="middle" x="353" y="-1657.74" font-family="Times New Roman,serif" font-size="9.00">129</text>
</g>
<!-- 40&#45;&gt;129 -->
<g id="edge134" class="edge"><title>40&#45;&gt;129</title>
<path fill="none" stroke="red" d="M436.54,-1723.68C421.026,-1712.03 396.114,-1693.32 377.525,-1679.36"/>
<polygon fill="red" stroke="red" points="379.584,-1676.53 369.486,-1673.32 375.38,-1682.13 379.584,-1676.53"/>
</g>
<!-- 40&#45;&gt;38 -->
<g id="edge52" class="edge"><title>40&#45;&gt;38</title>
<path fill="none" stroke="green" d="M432.495,-1732.33C404.267,-1727.93 350.808,-1715.33 323,-1681.16 294.824,-1646.52 304,-1627.16 304,-1582.52 304,-1582.52 304,-1582.52 304,-1502.09 304,-1455.04 322.284,-1402.67 334.724,-1372.47"/>
<polygon fill="green" stroke="green" points="338.006,-1373.7 338.684,-1363.13 331.561,-1370.97 338.006,-1373.7"/>
</g>
<!-- 152&#45;&gt;127 -->
<g id="edge139" class="edge"><title>152&#45;&gt;127</title>
<path fill="none" stroke="green" d="M451,-1638.46C451,-1630.6 451,-1621.46 451,-1612.87"/>
<polygon fill="green" stroke="green" points="454.5,-1612.79 451,-1602.79 447.5,-1612.79 454.5,-1612.79"/>
</g>
<!-- 127&#45;&gt;104 -->
<g id="edge94" class="edge"><title>127&#45;&gt;104</title>
<path fill="none" stroke="green" d="M462.984,-1563.55C470.115,-1553.46 479.295,-1540.47 487.255,-1529.2"/>
<polygon fill="green" stroke="green" points="490.137,-1531.19 493.049,-1521 484.42,-1527.15 490.137,-1531.19"/>
</g>
<!-- 104&#45;&gt;5 -->
<g id="edge88" class="edge"><title>104&#45;&gt;5</title>
<path fill="none" stroke="red" d="M495.255,-1484.19C489.311,-1473.19 481.61,-1458.77 475,-1445.88 411.584,-1322.15 431.539,-1264.2 331,-1168.17 242.013,-1083.17 86,-1162.24 86,-1039.19 86,-1039.19 86,-1039.19 86,-144.154 86,-33.3814 513.102,-13.6497 613.879,-10.5357"/>
<polygon fill="red" stroke="red" points="614.138,-14.0299 624.034,-10.2455 613.938,-7.03272 614.138,-14.0299"/>
</g>
<!-- 146 -->
<g id="node35" class="node"><title>146</title>
<ellipse fill="none" stroke="black" cx="658" cy="-1424.66" rx="21.4286" ry="21.4286"/>
<text text-anchor="middle" x="658" y="-1422.46" font-family="Times New Roman,serif" font-size="9.00">146</text>
</g>
<!-- 104&#45;&gt;146 -->
<g id="edge108" class="edge"><title>104&#45;&gt;146</title>
<path fill="none" stroke="green" d="M524.446,-1494.17C548.887,-1483.98 591.891,-1465.28 627,-1445.88 628.729,-1444.92 630.49,-1443.9 632.251,-1442.85"/>
<polygon fill="green" stroke="green" points="634.269,-1445.72 640.895,-1437.45 630.56,-1439.78 634.269,-1445.72"/>
</g>
<!-- 105 -->
<g id="node36" class="node"><title>105</title>
<ellipse fill="none" stroke="black" cx="696" cy="-1346.24" rx="21.4286" ry="21.4286"/>
<text text-anchor="middle" x="696" y="-1344.04" font-family="Times New Roman,serif" font-size="9.00">105</text>
</g>
<!-- 104&#45;&gt;105 -->
<g id="edge123" class="edge"><title>104&#45;&gt;105</title>
<path fill="none" stroke="green" d="M526.081,-1498.63C569.685,-1491.03 667.443,-1471.46 688,-1445.88 703.19,-1426.97 704.061,-1398.93 701.786,-1377.57"/>
<polygon fill="green" stroke="green" points="705.219,-1376.83 700.417,-1367.39 698.281,-1377.77 705.219,-1376.83"/>
</g>
<!-- 149 -->
<g id="node49" class="node"><title>149</title>
<ellipse fill="none" stroke="black" cx="505" cy="-1424.66" rx="21.4286" ry="21.4286"/>
<text text-anchor="middle" x="505" y="-1422.46" font-family="Times New Roman,serif" font-size="9.00">149</text>
</g>
<!-- 104&#45;&gt;149 -->
<g id="edge136" class="edge"><title>104&#45;&gt;149</title>
<path fill="none" stroke="green" d="M505,-1481.61C505,-1473.75 505,-1464.61 505,-1456.02"/>
<polygon fill="green" stroke="green" points="508.5,-1455.94 505,-1445.94 501.5,-1455.94 508.5,-1455.94"/>
</g>
<!-- 119 -->
<g id="node59" class="node"><title>119</title>
<ellipse fill="none" stroke="black" cx="525" cy="-1346.24" rx="21.4286" ry="21.4286"/>
<text text-anchor="middle" x="525" y="-1344.04" font-family="Times New Roman,serif" font-size="9.00">119</text>
</g>
<!-- 104&#45;&gt;119 -->
<g id="edge68" class="edge"><title>104&#45;&gt;119</title>
<path fill="none" stroke="red" d="M516.803,-1485.27C523.591,-1474.54 531.457,-1460.04 535,-1445.88 540.7,-1423.09 537.481,-1396.56 533.232,-1376.76"/>
<polygon fill="red" stroke="red" points="536.585,-1375.73 530.888,-1366.8 529.771,-1377.34 536.585,-1375.73"/>
</g>
<!-- 146&#45;&gt;105 -->
<g id="edge109" class="edge"><title>146&#45;&gt;105</title>
<path fill="none" stroke="green" d="M667.199,-1405.16C671.726,-1396.06 677.276,-1384.89 682.292,-1374.81"/>
<polygon fill="green" stroke="green" points="685.568,-1376.08 686.886,-1365.57 679.3,-1372.96 685.568,-1376.08"/>
</g>
<!-- 105&#45;&gt;32 -->
<g id="edge119" class="edge"><title>105&#45;&gt;32</title>
<path fill="none" stroke="green" d="M702.181,-1325.56C705.067,-1316.36 708.546,-1305.29 711.661,-1295.37"/>
<polygon fill="green" stroke="green" points="715.078,-1296.17 714.735,-1285.58 708.4,-1294.07 715.078,-1296.17"/>
</g>
<!-- 105&#45;&gt;84 -->
<g id="edge96" class="edge"><title>105&#45;&gt;84</title>
<path fill="none" stroke="green" d="M710.859,-1330.86C723.264,-1318.86 741.066,-1301.64 754.77,-1288.38"/>
<polygon fill="green" stroke="green" points="757.54,-1290.57 762.294,-1281.1 752.673,-1285.54 757.54,-1290.57"/>
</g>
<!-- 33&#45;&gt;38 -->
<g id="edge6" class="edge"><title>33&#45;&gt;38</title>
<path fill="none" stroke="green" d="M582.637,-1418.2C569.555,-1414.1 551.168,-1408.37 535,-1403.45 477.618,-1386 410.253,-1366.1 373.447,-1355.28"/>
<polygon fill="green" stroke="green" points="374.061,-1351.82 363.48,-1352.36 372.088,-1358.53 374.061,-1351.82"/>
</g>
<!-- 21 -->
<g id="node45" class="node"><title>21</title>
<ellipse fill="none" stroke="black" cx="601" cy="-1267.81" rx="18.2703" ry="18.2703"/>
<text text-anchor="middle" x="601" y="-1265.61" font-family="Times New Roman,serif" font-size="9.00">21</text>
</g>
<!-- 33&#45;&gt;21 -->
<g id="edge27" class="edge"><title>33&#45;&gt;21</title>
<path fill="none" stroke="green" d="M600.113,-1406.2C600.285,-1379.6 600.614,-1328.66 600.819,-1296.83"/>
<polygon fill="green" stroke="green" points="604.321,-1296.47 600.886,-1286.45 597.322,-1296.42 604.321,-1296.47"/>
</g>
<!-- 125 -->
<g id="node50" class="node"><title>125</title>
<ellipse fill="none" stroke="black" cx="671" cy="-1189.38" rx="21.4286" ry="21.4286"/>
<text text-anchor="middle" x="671" y="-1187.18" font-family="Times New Roman,serif" font-size="9.00">125</text>
</g>
<!-- 33&#45;&gt;125 -->
<g id="edge128" class="edge"><title>33&#45;&gt;125</title>
<path fill="none" stroke="red" d="M605.106,-1406.89C617.069,-1367.58 647.032,-1269.13 662.081,-1219.69"/>
<polygon fill="red" stroke="red" points="665.491,-1220.5 665.054,-1209.92 658.794,-1218.47 665.491,-1220.5"/>
</g>
<!-- 32&#45;&gt;31 -->
<g id="edge117" class="edge"><title>32&#45;&gt;31</title>
<path fill="none" stroke="green" d="M731.799,-1253.15C741.748,-1241.63 756.154,-1224.94 767.614,-1211.67"/>
<polygon fill="green" stroke="green" points="770.416,-1213.79 774.303,-1203.93 765.118,-1209.21 770.416,-1213.79"/>
</g>
<!-- 45 -->
<g id="node65" class="node"><title>45</title>
<ellipse fill="none" stroke="black" cx="584" cy="-509.002" rx="18.2703" ry="18.2703"/>
<text text-anchor="middle" x="584" y="-506.802" font-family="Times New Roman,serif" font-size="9.00">45</text>
</g>
<!-- 32&#45;&gt;45 -->
<g id="edge118" class="edge"><title>32&#45;&gt;45</title>
<path fill="none" stroke="red" d="M717.349,-1249.56C714.151,-1229.75 708.285,-1196.37 701,-1168.17 659.063,-1005.85 584,-977.214 584,-809.566 584,-809.566 584,-809.566 584,-653.541 584,-613.325 584,-566.77 584,-537.851"/>
<polygon fill="red" stroke="red" points="587.5,-537.68 584,-527.68 580.5,-537.68 587.5,-537.68"/>
</g>
<!-- 129&#45;&gt;38 -->
<g id="edge135" class="edge"><title>129&#45;&gt;38</title>
<path fill="none" stroke="red" d="M352.541,-1638.49C351.321,-1584.19 348.001,-1436.34 346.618,-1374.74"/>
<polygon fill="red" stroke="red" points="350.114,-1374.54 346.39,-1364.62 343.116,-1374.7 350.114,-1374.54"/>
</g>
<!-- 90 -->
<g id="node43" class="node"><title>90</title>
<ellipse fill="none" stroke="black" cx="350" cy="-1267.81" rx="18.2703" ry="18.2703"/>
<text text-anchor="middle" x="350" y="-1265.61" font-family="Times New Roman,serif" font-size="9.00">90</text>
</g>
<!-- 38&#45;&gt;90 -->
<g id="edge90" class="edge"><title>38&#45;&gt;90</title>
<path fill="none" stroke="green" d="M346.928,-1327.51C347.411,-1318.28 348.012,-1306.79 348.555,-1296.43"/>
<polygon fill="green" stroke="green" points="352.064,-1296.35 349.091,-1286.18 345.073,-1295.98 352.064,-1296.35"/>
</g>
<!-- 38&#45;&gt;51 -->
<g id="edge37" class="edge"><title>38&#45;&gt;51</title>
<path fill="none" stroke="red" d="M338.491,-1329.31C333.511,-1318.22 327.152,-1302.97 323,-1289.02 315.956,-1265.36 310.893,-1237.71 307.773,-1217.71"/>
<polygon fill="red" stroke="red" points="311.222,-1217.11 306.28,-1207.74 304.3,-1218.15 311.222,-1217.11"/>
</g>
<!-- 38&#45;&gt;21 -->
<g id="edge7" class="edge"><title>38&#45;&gt;21</title>
<path fill="none" stroke="green" d="M363.527,-1339.98C407.306,-1326.86 521.674,-1292.59 574.073,-1276.88"/>
<polygon fill="green" stroke="green" points="575.113,-1280.22 583.687,-1274 573.103,-1273.52 575.113,-1280.22"/>
</g>
<!-- 99 -->
<g id="node47" class="node"><title>99</title>
<ellipse fill="none" stroke="black" cx="852" cy="-1113.79" rx="18.2703" ry="18.2703"/>
<text text-anchor="middle" x="852" y="-1111.59" font-family="Times New Roman,serif" font-size="9.00">99</text>
</g>
<!-- 84&#45;&gt;99 -->
<g id="edge89" class="edge"><title>84&#45;&gt;99</title>
<path fill="none" stroke="green" d="M785.868,-1252.54C793.985,-1241.48 805.009,-1225.56 813,-1210.6 825.103,-1187.93 835.859,-1160.68 842.993,-1141.04"/>
<polygon fill="green" stroke="green" points="846.322,-1142.13 846.381,-1131.53 839.728,-1139.78 846.322,-1142.13"/>
</g>
<!-- 154&#45;&gt;37 -->
<g id="edge142" class="edge"><title>154&#45;&gt;37</title>
<path fill="none" stroke="red" d="M1121.43,-1016.61C1116.04,-951.521 1096.05,-751.932 1051,-708.926 1010.53,-670.296 837.075,-659.345 767.771,-656.48"/>
<polygon fill="red" stroke="red" points="767.706,-652.975 757.578,-656.087 767.436,-659.97 767.706,-652.975"/>
</g>
<!-- 90&#45;&gt;51 -->
<g id="edge91" class="edge"><title>90&#45;&gt;51</title>
<path fill="none" stroke="red" d="M340.912,-1251.71C334.486,-1241.03 325.738,-1226.5 318.372,-1214.26"/>
<polygon fill="red" stroke="red" points="321.225,-1212.21 313.069,-1205.45 315.227,-1215.82 321.225,-1212.21"/>
</g>
<!-- 21&#45;&gt;56 -->
<g id="edge16" class="edge"><title>21&#45;&gt;56</title>
<path fill="none" stroke="green" d="M618.749,-1262.81C674.225,-1250.3 844.67,-1211.88 912.112,-1196.67"/>
<polygon fill="green" stroke="green" points="913.033,-1200.05 922.018,-1194.44 911.493,-1193.22 913.033,-1200.05"/>
</g>
<!-- 21&#45;&gt;125 -->
<g id="edge60" class="edge"><title>21&#45;&gt;125</title>
<path fill="none" stroke="green" d="M613.193,-1253.5C623.314,-1242.45 637.941,-1226.48 649.949,-1213.37"/>
<polygon fill="green" stroke="green" points="652.85,-1215.38 657.024,-1205.64 647.688,-1210.65 652.85,-1215.38"/>
</g>
<!-- 21&#45;&gt;57 -->
<g id="edge86" class="edge"><title>21&#45;&gt;57</title>
<path fill="none" stroke="green" d="M604.27,-1249.67C609.253,-1223.55 618.792,-1173.54 624.752,-1142.3"/>
<polygon fill="green" stroke="green" points="628.261,-1142.58 626.697,-1132.1 621.385,-1141.27 628.261,-1142.58"/>
</g>
<!-- 21&#45;&gt;37 -->
<g id="edge9" class="edge"><title>21&#45;&gt;37</title>
<path fill="none" stroke="red" d="M597.802,-1249.55C592.878,-1221.43 584,-1163.92 584,-1114.79 584,-1114.79 584,-1114.79 584,-1037.19 584,-886.37 584.266,-833.005 670,-708.926 681.408,-692.416 699.491,-678.695 714.284,-669.299"/>
<polygon fill="red" stroke="red" points="716.247,-672.202 722.98,-664.021 712.615,-666.218 716.247,-672.202"/>
</g>
<!-- 36 -->
<g id="node52" class="node"><title>36</title>
<ellipse fill="none" stroke="black" cx="852" cy="-1038.19" rx="18.2703" ry="18.2703"/>
<text text-anchor="middle" x="852" y="-1035.99" font-family="Times New Roman,serif" font-size="9.00">36</text>
</g>
<!-- 31&#45;&gt;36 -->
<g id="edge49" class="edge"><title>31&#45;&gt;36</title>
<path fill="none" stroke="green" d="M792.518,-1172.15C800.069,-1153.51 813.014,-1122.06 825,-1095.4 829.594,-1085.18 834.887,-1074.04 839.562,-1064.39"/>
<polygon fill="green" stroke="green" points="842.745,-1065.84 843.983,-1055.32 836.454,-1062.78 842.745,-1065.84"/>
</g>
<!-- 47 -->
<g id="node53" class="node"><title>47</title>
<ellipse fill="none" stroke="black" cx="760" cy="-1113.79" rx="18.2703" ry="18.2703"/>
<text text-anchor="middle" x="760" y="-1111.59" font-family="Times New Roman,serif" font-size="9.00">47</text>
</g>
<!-- 31&#45;&gt;47 -->
<g id="edge13" class="edge"><title>31&#45;&gt;47</title>
<path fill="none" stroke="red" d="M780.1,-1171.68C776.909,-1162.65 772.894,-1151.29 769.293,-1141.09"/>
<polygon fill="red" stroke="red" points="772.508,-1139.68 765.876,-1131.42 765.907,-1142.02 772.508,-1139.68"/>
</g>
<!-- 31&#45;&gt;10 -->
<g id="edge2" class="edge"><title>31&#45;&gt;10</title>
<path fill="none" stroke="red" d="M771.094,-1177.87C758.254,-1167.81 740.623,-1151.37 733,-1132.17 714.105,-1084.59 712.233,-1063.77 733,-1016.97 740.148,-1000.87 754.821,-987.558 767.746,-978.257"/>
<polygon fill="red" stroke="red" points="769.977,-980.973 776.301,-972.473 766.056,-975.174 769.977,-980.973"/>
</g>
<!-- 31&#45;&gt;60 -->
<g id="edge62" class="edge"><title>31&#45;&gt;60</title>
<path fill="none" stroke="green" d="M802.351,-1180.29C821.656,-1170.34 854.262,-1152.29 879,-1132.17 1030.91,-1008.65 1179,-1005.36 1179,-809.566 1179,-809.566 1179,-809.566 1179,-362.463 1179,-316.011 1207.6,-268.03 1226.86,-240.985"/>
<polygon fill="green" stroke="green" points="1229.88,-242.782 1232.97,-232.649 1224.24,-238.64 1229.88,-242.782"/>
</g>
<!-- 99&#45;&gt;36 -->
<g id="edge59" class="edge"><title>99&#45;&gt;36</title>
<path fill="none" stroke="red" d="M852,-1095.34C852,-1086.88 852,-1076.51 852,-1066.99"/>
<polygon fill="red" stroke="red" points="855.5,-1066.76 852,-1056.76 848.5,-1066.76 855.5,-1066.76"/>
</g>
<!-- 68 -->
<g id="node51" class="node"><title>68</title>
<ellipse fill="none" stroke="black" cx="982" cy="-1113.79" rx="18.2703" ry="18.2703"/>
<text text-anchor="middle" x="982" y="-1111.59" font-family="Times New Roman,serif" font-size="9.00">68</text>
</g>
<!-- 56&#45;&gt;68 -->
<g id="edge146" class="edge"><title>56&#45;&gt;68</title>
<path fill="none" stroke="green" d="M948.702,-1173.13C954.334,-1163.27 961.787,-1150.21 968.214,-1138.94"/>
<polygon fill="green" stroke="green" points="971.392,-1140.44 973.309,-1130.02 965.312,-1136.97 971.392,-1140.44"/>
</g>
<!-- 56&#45;&gt;36 -->
<g id="edge17" class="edge"><title>56&#45;&gt;36</title>
<path fill="none" stroke="green" d="M931.078,-1173.26C915.793,-1147.34 884.48,-1094.26 866.177,-1063.22"/>
<polygon fill="green" stroke="green" points="869.041,-1061.19 860.946,-1054.35 863.012,-1064.75 869.041,-1061.19"/>
</g>
<!-- 149&#45;&gt;119 -->
<g id="edge137" class="edge"><title>149&#45;&gt;119</title>
<path fill="none" stroke="red" d="M510.15,-1403.98C512.32,-1395.69 514.891,-1385.86 517.28,-1376.74"/>
<polygon fill="red" stroke="red" points="520.721,-1377.41 519.867,-1366.85 513.949,-1375.64 520.721,-1377.41"/>
</g>
<!-- 125&#45;&gt;57 -->
<g id="edge61" class="edge"><title>125&#45;&gt;57</title>
<path fill="none" stroke="red" d="M661.075,-1170.57C655.849,-1161.19 649.361,-1149.54 643.667,-1139.32"/>
<polygon fill="red" stroke="red" points="646.644,-1137.47 638.72,-1130.44 640.529,-1140.88 646.644,-1137.47"/>
</g>
<!-- 68&#45;&gt;36 -->
<g id="edge147" class="edge"><title>68&#45;&gt;36</title>
<path fill="none" stroke="red" d="M966.319,-1103.91C944.065,-1091.31 903.102,-1068.12 876.73,-1053.19"/>
<polygon fill="red" stroke="red" points="878.163,-1049.98 867.737,-1048.1 874.715,-1056.07 878.163,-1049.98"/>
</g>
<!-- 36&#45;&gt;10 -->
<g id="edge34" class="edge"><title>36&#45;&gt;10</title>
<path fill="none" stroke="green" d="M840.714,-1023.34C831.999,-1012.65 819.774,-997.659 809.752,-985.365"/>
<polygon fill="green" stroke="green" points="812.266,-982.91 803.235,-977.371 806.841,-987.333 812.266,-982.91"/>
</g>
<!-- 62 -->
<g id="node55" class="node"><title>62</title>
<ellipse fill="none" stroke="black" cx="760" cy="-1038.19" rx="18.2703" ry="18.2703"/>
<text text-anchor="middle" x="760" y="-1035.99" font-family="Times New Roman,serif" font-size="9.00">62</text>
</g>
<!-- 47&#45;&gt;62 -->
<g id="edge66" class="edge"><title>47&#45;&gt;62</title>
<path fill="none" stroke="green" d="M760,-1095.34C760,-1086.88 760,-1076.51 760,-1066.99"/>
<polygon fill="green" stroke="green" points="763.5,-1066.76 760,-1056.76 756.5,-1066.76 763.5,-1066.76"/>
</g>
<!-- 47&#45;&gt;10 -->
<g id="edge79" class="edge"><title>47&#45;&gt;10</title>
<path fill="none" stroke="green" d="M769.571,-1098.04C775.755,-1087.68 783.313,-1073.25 787,-1059.4 792.938,-1037.1 793.913,-1010.87 793.557,-991.494"/>
<polygon fill="green" stroke="green" points="797.047,-991.12 793.234,-981.235 790.051,-991.34 797.047,-991.12"/>
</g>
<!-- 57&#45;&gt;37 -->
<g id="edge41" class="edge"><title>57&#45;&gt;37</title>
<path fill="none" stroke="red" d="M633.861,-1095.69C641.963,-1058.25 660,-966.147 660,-887.992 660,-887.992 660,-887.992 660,-807.566 660,-755.811 696.496,-704.179 719.876,-676.412"/>
<polygon fill="red" stroke="red" points="722.753,-678.437 726.656,-668.587 717.463,-673.853 722.753,-678.437"/>
</g>
<!-- 62&#45;&gt;10 -->
<g id="edge67" class="edge"><title>62&#45;&gt;10</title>
<path fill="none" stroke="green" d="M767.102,-1020.85C771.162,-1011.52 776.343,-999.6 780.926,-989.059"/>
<polygon fill="green" stroke="green" points="784.14,-990.444 784.918,-979.878 777.721,-987.653 784.14,-990.444"/>
</g>
<!-- 159&#45;&gt;85 -->
<g id="edge115" class="edge"><title>159&#45;&gt;85</title>
<path fill="none" stroke="green" d="M1443.7,-865.462C1441.93,-835.818 1439,-779.298 1439,-731.139 1439,-731.139 1439,-731.139 1439,-289.693 1439,-247.603 1436.98,-231.845 1410,-199.539 1390.96,-176.747 1359.63,-162.277 1337.1,-154.236"/>
<polygon fill="green" stroke="green" points="1338.04,-150.86 1327.45,-150.987 1335.81,-157.494 1338.04,-150.86"/>
</g>
<!-- 117 -->
<g id="node58" class="node"><title>117</title>
<ellipse fill="none" stroke="black" cx="736" cy="-886.992" rx="21.4286" ry="21.4286"/>
<text text-anchor="middle" x="736" y="-884.792" font-family="Times New Roman,serif" font-size="9.00">117</text>
</g>
<!-- 10&#45;&gt;117 -->
<g id="edge102" class="edge"><title>10&#45;&gt;117</title>
<path fill="none" stroke="green" d="M781.203,-947.4C773.683,-937.517 763.462,-924.084 754.641,-912.491"/>
<polygon fill="green" stroke="green" points="757.365,-910.29 748.524,-904.452 751.794,-914.529 757.365,-910.29"/>
</g>
<!-- 67 -->
<g id="node60" class="node"><title>67</title>
<ellipse fill="none" stroke="black" cx="755" cy="-808.566" rx="18.2703" ry="18.2703"/>
<text text-anchor="middle" x="755" y="-806.366" font-family="Times New Roman,serif" font-size="9.00">67</text>
</g>
<!-- 10&#45;&gt;67 -->
<g id="edge124" class="edge"><title>10&#45;&gt;67</title>
<path fill="none" stroke="green" d="M787.828,-944.446C781.443,-918.214 769.193,-867.881 761.597,-836.669"/>
<polygon fill="green" stroke="green" points="764.98,-835.768 759.214,-826.88 758.178,-837.424 764.98,-835.768"/>
</g>
<!-- 10&#45;&gt;37 -->
<g id="edge5" class="edge"><title>10&#45;&gt;37</title>
<path fill="none" stroke="red" d="M796.529,-944.752C806.892,-902.853 828.861,-791.345 794,-708.926 787.534,-693.64 774.313,-680.577 762.454,-671.199"/>
<polygon fill="red" stroke="red" points="764.289,-668.201 754.176,-665.043 760.112,-673.818 764.289,-668.201"/>
</g>
<!-- 117&#45;&gt;67 -->
<g id="edge103" class="edge"><title>117&#45;&gt;67</title>
<path fill="none" stroke="green" d="M740.893,-866.31C743.162,-857.185 745.893,-846.199 748.345,-836.334"/>
<polygon fill="green" stroke="green" points="751.753,-837.134 750.769,-826.585 744.96,-835.445 751.753,-837.134"/>
</g>
<!-- 143 -->
<g id="node64" class="node"><title>143</title>
<ellipse fill="none" stroke="black" cx="497" cy="-1267.81" rx="21.4286" ry="21.4286"/>
<text text-anchor="middle" x="497" y="-1265.61" font-family="Times New Roman,serif" font-size="9.00">143</text>
</g>
<!-- 119&#45;&gt;143 -->
<g id="edge70" class="edge"><title>119&#45;&gt;143</title>
<path fill="none" stroke="green" d="M517.934,-1325.95C514.784,-1317.35 511.007,-1307.04 507.534,-1297.56"/>
<polygon fill="green" stroke="green" points="510.79,-1296.28 504.063,-1288.09 504.217,-1298.68 510.79,-1296.28"/>
</g>
<!-- 119&#45;&gt;45 -->
<g id="edge144" class="edge"><title>119&#45;&gt;45</title>
<path fill="none" stroke="green" d="M529.454,-1325.31C535.618,-1295.94 546,-1239.22 546,-1190.38 546,-1190.38 546,-1190.38 546,-653.541 546,-611.067 561.741,-563.807 572.961,-535.516"/>
<polygon fill="green" stroke="green" points="576.309,-536.577 576.852,-525.996 569.829,-533.928 576.309,-536.577"/>
</g>
<!-- 137 -->
<g id="node61" class="node"><title>137</title>
<ellipse fill="none" stroke="black" cx="764" cy="-730.139" rx="21.4286" ry="21.4286"/>
<text text-anchor="middle" x="764" y="-727.939" font-family="Times New Roman,serif" font-size="9.00">137</text>
</g>
<!-- 67&#45;&gt;137 -->
<g id="edge74" class="edge"><title>67&#45;&gt;137</title>
<path fill="none" stroke="green" d="M757.042,-790.223C758.04,-781.749 759.271,-771.301 760.418,-761.558"/>
<polygon fill="green" stroke="green" points="763.922,-761.73 761.615,-751.39 756.97,-760.912 763.922,-761.73"/>
</g>
<!-- 67&#45;&gt;37 -->
<g id="edge87" class="edge"><title>67&#45;&gt;37</title>
<path fill="none" stroke="green" d="M747.357,-791.764C742.459,-780.73 736.556,-765.5 734,-751.352 729.852,-728.395 731.739,-701.878 734.3,-682.569"/>
<polygon fill="green" stroke="green" points="737.766,-683.054 735.758,-672.652 730.841,-682.036 737.766,-683.054"/>
</g>
<!-- 137&#45;&gt;37 -->
<g id="edge75" class="edge"><title>137&#45;&gt;37</title>
<path fill="none" stroke="green" d="M757.432,-709.802C754.542,-701.295 751.101,-691.167 747.98,-681.977"/>
<polygon fill="green" stroke="green" points="751.289,-680.838 744.759,-672.495 744.661,-683.09 751.289,-680.838"/>
</g>
<!-- 37&#45;&gt;97 -->
<g id="edge72" class="edge"><title>37&#45;&gt;97</title>
<path fill="none" stroke="green" d="M721.426,-648.337C680.162,-636.119 576.839,-605.524 527.311,-590.858"/>
<polygon fill="green" stroke="green" points="528.182,-587.466 517.6,-587.983 526.195,-594.178 528.182,-587.466"/>
</g>
<!-- 37&#45;&gt;45 -->
<g id="edge78" class="edge"><title>37&#45;&gt;45</title>
<path fill="none" stroke="red" d="M725.785,-641.303C698.789,-616.303 637.133,-559.207 604.746,-529.214"/>
<polygon fill="red" stroke="red" points="606.897,-526.436 597.182,-522.209 602.141,-531.572 606.897,-526.436"/>
</g>
<!-- 97&#45;&gt;45 -->
<g id="edge73" class="edge"><title>97&#45;&gt;45</title>
<path fill="none" stroke="red" d="M513.871,-569.085C527.082,-557.956 547.164,-541.036 562.457,-528.152"/>
<polygon fill="red" stroke="red" points="564.995,-530.591 570.387,-521.471 560.484,-525.237 564.995,-530.591"/>
</g>
<!-- 142 -->
<g id="node67" class="node"><title>142</title>
<ellipse fill="none" stroke="black" cx="475" cy="-808.566" rx="21.4286" ry="21.4286"/>
<text text-anchor="middle" x="475" y="-806.366" font-family="Times New Roman,serif" font-size="9.00">142</text>
</g>
<!-- 143&#45;&gt;142 -->
<g id="edge71" class="edge"><title>143&#45;&gt;142</title>
<path fill="none" stroke="red" d="M494.613,-1246.68C491.378,-1217.61 486,-1162.15 486,-1114.79 486,-1114.79 486,-1114.79 486,-961.59 486,-919.219 481.697,-870.377 478.473,-839.736"/>
<polygon fill="red" stroke="red" points="481.942,-839.262 477.387,-829.697 474.983,-840.015 481.942,-839.262"/>
</g>
<!-- 45&#45;&gt;28 -->
<g id="edge8" class="edge"><title>45&#45;&gt;28</title>
<path fill="none" stroke="green" d="M602.151,-505.998C691.767,-496.104 1087.09,-452.459 1196.72,-440.355"/>
<polygon fill="green" stroke="green" points="1197.15,-443.829 1206.7,-439.253 1196.38,-436.871 1197.15,-443.829"/>
</g>
<!-- 28&#45;&gt;5 -->
<g id="edge1" class="edge"><title>28&#45;&gt;5</title>
<path fill="none" stroke="green" d="M1206.9,-432.946C1127.74,-422.453 816,-375.788 816,-291.693 816,-291.693 816,-291.693 816,-144.154 816,-64.8665 702.512,-27.0293 655.264,-14.7123"/>
<polygon fill="green" stroke="green" points="656.062,-11.3043 645.514,-12.291 654.375,-18.098 656.062,-11.3043"/>
</g>
<!-- 52 -->
<g id="node68" class="node"><title>52</title>
<ellipse fill="none" stroke="black" cx="1263" cy="-363.463" rx="18.2703" ry="18.2703"/>
<text text-anchor="middle" x="1263" y="-361.263" font-family="Times New Roman,serif" font-size="9.00">52</text>
</g>
<!-- 28&#45;&gt;52 -->
<g id="edge104" class="edge"><title>28&#45;&gt;52</title>
<path fill="none" stroke="green" d="M1233.43,-419.526C1238.25,-410.547 1244.41,-399.09 1249.85,-388.953"/>
<polygon fill="green" stroke="green" points="1252.94,-390.591 1254.59,-380.125 1246.78,-387.28 1252.94,-390.591"/>
</g>
<!-- 28&#45;&gt;34 -->
<g id="edge122" class="edge"><title>28&#45;&gt;34</title>
<path fill="none" stroke="green" d="M1226.97,-417.931C1229.07,-399.769 1232.56,-370.389 1236,-345.078 1237.15,-336.59 1238.5,-327.357 1239.76,-318.994"/>
<polygon fill="green" stroke="green" points="1243.24,-319.4 1241.29,-308.987 1236.32,-318.346 1243.24,-319.4"/>
</g>
<!-- 142&#45;&gt;5 -->
<g id="edge69" class="edge"><title>142&#45;&gt;5</title>
<path fill="none" stroke="green" d="M470.443,-787.523C464.267,-758.557 454,-703.233 454,-655.541 454,-655.541 454,-655.541 454,-144.154 454,-64.8665 567.488,-27.0293 614.736,-14.7123"/>
<polygon fill="green" stroke="green" points="615.625,-18.098 624.486,-12.291 613.938,-11.3043 615.625,-18.098"/>
</g>
<!-- 52&#45;&gt;34 -->
<g id="edge105" class="edge"><title>52&#45;&gt;34</title>
<path fill="none" stroke="green" d="M1258.4,-345.332C1256.23,-337.247 1253.59,-327.413 1251.17,-318.383"/>
<polygon fill="green" stroke="green" points="1254.53,-317.417 1248.56,-308.667 1247.77,-319.233 1254.53,-317.417"/>
</g>
<!-- 34&#45;&gt;5 -->
<g id="edge53" class="edge"><title>34&#45;&gt;5</title>
<path fill="none" stroke="green" d="M1228.56,-280.081C1164.07,-240.057 915.6,-87.1752 830,-54 769.264,-30.4614 692.77,-17.787 656.271,-12.6988"/>
<polygon fill="green" stroke="green" points="656.273,-9.1679 645.897,-11.3093 655.343,-16.1059 656.273,-9.1679"/>
</g>
<!-- 34&#45;&gt;60 -->
<g id="edge56" class="edge"><title>34&#45;&gt;60</title>
<path fill="none" stroke="green" d="M1244,-272.2C1244,-264.518 1244,-255.308 1244,-246.724"/>
<polygon fill="green" stroke="green" points="1247.5,-246.708 1244,-236.708 1240.5,-246.708 1247.5,-246.708"/>
</g>
<!-- 60&#45;&gt;5 -->
<g id="edge84" class="edge"><title>60&#45;&gt;5</title>
<path fill="none" stroke="green" d="M1228.91,-207.374C1183.35,-179.026 1042.49,-94.8068 914,-54 820.524,-24.3136 702.808,-14.1564 655.786,-11.1334"/>
<polygon fill="green" stroke="green" points="655.842,-7.63056 645.65,-10.5242 655.422,-14.618 655.842,-7.63056"/>
</g>
<!-- 60&#45;&gt;85 -->
<g id="edge64" class="edge"><title>60&#45;&gt;85</title>
<path fill="none" stroke="red" d="M1256.11,-203.944C1265.75,-193.6 1279.45,-178.917 1290.62,-166.94"/>
<polygon fill="red" stroke="red" points="1293.26,-169.233 1297.52,-159.533 1288.14,-164.459 1293.26,-169.233"/>
</g>
<!-- 70 -->
<g id="node72" class="node"><title>70</title>
<ellipse fill="none" stroke="black" cx="1263" cy="-72.3848" rx="18.2703" ry="18.2703"/>
<text text-anchor="middle" x="1263" y="-70.1848" font-family="Times New Roman,serif" font-size="9.00">70</text>
</g>
<!-- 85&#45;&gt;70 -->
<g id="edge65" class="edge"><title>85&#45;&gt;70</title>
<path fill="none" stroke="green" d="M1300.26,-129.491C1293.96,-120.002 1285.62,-107.443 1278.43,-96.6141"/>
<polygon fill="green" stroke="green" points="1281.17,-94.4234 1272.73,-88.0295 1275.34,-98.2961 1281.17,-94.4234"/>
</g>
<!-- 70&#45;&gt;5 -->
<g id="edge63" class="edge"><title>70&#45;&gt;5</title>
<path fill="none" stroke="green" d="M1244.55,-69.5809C1153.43,-60.6749 752.108,-21.4469 655.819,-12.035"/>
<polygon fill="green" stroke="green" points="655.924,-8.52861 645.63,-11.0391 655.243,-15.4954 655.924,-8.52861"/>
</g>
</g>
</svg>
