<?xml version="1.0" encoding="UTF-8" standalone="no"?>
<!DOCTYPE svg PUBLIC "-//W3C//DTD SVG 1.1//EN"
 "http://www.w3.org/Graphics/SVG/1.1/DTD/svg11.dtd">
<!-- Generated by graphviz version 2.38.0 (20140413.2041)
 -->
<!-- Title: %3 Pages: 1 -->
<svg width="587pt" height="1631pt"
 viewBox="0.00 0.00 586.67 1630.79" xmlns="http://www.w3.org/2000/svg" xmlns:xlink="http://www.w3.org/1999/xlink">
<g id="graph0" class="graph" transform="scale(1 1) rotate(0) translate(4 1626.79)">
<title>%3</title>
<polygon fill="white" stroke="none" points="-4,4 -4,-1626.79 582.673,-1626.79 582.673,4 -4,4"/>
<!-- 1 -->
<g id="node1" class="node"><title>1</title>
<polygon fill="lightgray" stroke="black" points="470.5,-1622.79 449.5,-1622.79 449.5,-1604.79 470.5,-1604.79 470.5,-1622.79"/>
<text text-anchor="middle" x="460" y="-1611.59" font-family="Times New Roman,serif" font-size="9.00">1</text>
</g>
<!-- 29 -->
<g id="node6" class="node"><title>29</title>
<ellipse fill="none" stroke="black" cx="427" cy="-1550.4" rx="18.2703" ry="18.2703"/>
<text text-anchor="middle" x="427" y="-1548.2" font-family="Times New Roman,serif" font-size="9.00">29</text>
</g>
<!-- 1&#45;&gt;29 -->
<g id="edge23" class="edge"><title>1&#45;&gt;29</title>
<path fill="none" stroke="green" d="M455.686,-1604.76C451.78,-1597.5 445.816,-1586.4 440.336,-1576.21"/>
<polygon fill="green" stroke="green" points="443.33,-1574.39 435.512,-1567.24 437.164,-1577.7 443.33,-1574.39"/>
</g>
<!-- 19 -->
<g id="node7" class="node"><title>19</title>
<ellipse fill="none" stroke="black" cx="324" cy="-1477.63" rx="18.2703" ry="18.2703"/>
<text text-anchor="middle" x="324" y="-1475.43" font-family="Times New Roman,serif" font-size="9.00">19</text>
</g>
<!-- 1&#45;&gt;19 -->
<g id="edge54" class="edge"><title>1&#45;&gt;19</title>
<path fill="none" stroke="red" d="M449.225,-1606.02C436.74,-1597.92 415.855,-1583.61 400,-1568.79 377.432,-1547.7 355.064,-1520.15 340.502,-1501.08"/>
<polygon fill="red" stroke="red" points="343.202,-1498.85 334.387,-1492.97 337.613,-1503.06 343.202,-1498.85"/>
</g>
<!-- 12 -->
<g id="node16" class="node"><title>12</title>
<ellipse fill="none" stroke="black" cx="531" cy="-1550.4" rx="18.2703" ry="18.2703"/>
<text text-anchor="middle" x="531" y="-1548.2" font-family="Times New Roman,serif" font-size="9.00">12</text>
</g>
<!-- 1&#45;&gt;12 -->
<g id="edge8" class="edge"><title>1&#45;&gt;12</title>
<path fill="none" stroke="green" d="M469.282,-1604.76C479.492,-1595.94 496.239,-1581.46 509.714,-1569.81"/>
<polygon fill="green" stroke="green" points="512.318,-1572.18 517.593,-1562.99 507.739,-1566.89 512.318,-1572.18"/>
</g>
<!-- 7 -->
<g id="node20" class="node"><title>7</title>
<ellipse fill="none" stroke="black" cx="531" cy="-1253.67" rx="14.7" ry="14.7"/>
<text text-anchor="middle" x="531" y="-1251.47" font-family="Times New Roman,serif" font-size="9.00">7</text>
</g>
<!-- 1&#45;&gt;7 -->
<g id="edge10" class="edge"><title>1&#45;&gt;7</title>
<path fill="none" stroke="red" d="M470.781,-1611.2C491.184,-1607.59 535.416,-1596.82 558,-1568.79 583.693,-1536.9 577,-1519.58 577,-1478.63 577,-1478.63 577,-1478.63 577,-1403.86 577,-1356.58 555.643,-1304.47 542.034,-1276.06"/>
<polygon fill="red" stroke="red" points="545.151,-1274.46 537.591,-1267.04 538.873,-1277.56 545.151,-1274.46"/>
</g>
<!-- 28 -->
<g id="node41" class="node"><title>28</title>
<ellipse fill="none" stroke="black" cx="267" cy="-217.924" rx="18.2703" ry="18.2703"/>
<text text-anchor="middle" x="267" y="-215.724" font-family="Times New Roman,serif" font-size="9.00">28</text>
</g>
<!-- 1&#45;&gt;28 -->
<g id="edge41" class="edge"><title>1&#45;&gt;28</title>
<path fill="none" stroke="green" d="M460.774,-1604.79C464.687,-1564.83 483.045,-1382.94 507,-1235.28 521.85,-1143.75 548,-1123.44 548,-1030.7 548,-1030.7 548,-1030.7 548,-362.463 548,-249.914 367.011,-225.566 295.539,-220.339"/>
<polygon fill="green" stroke="green" points="295.645,-216.838 285.437,-219.675 295.186,-223.823 295.645,-216.838"/>
</g>
<!-- 60 -->
<g id="node43" class="node"><title>60</title>
<ellipse fill="none" stroke="black" cx="30" cy="-72.3848" rx="18.2703" ry="18.2703"/>
<text text-anchor="middle" x="30" y="-70.1848" font-family="Times New Roman,serif" font-size="9.00">60</text>
</g>
<!-- 1&#45;&gt;60 -->
<g id="edge67" class="edge"><title>1&#45;&gt;60</title>
<path fill="none" stroke="red" d="M449.083,-1612.05C379.423,-1607.04 0,-1575.34 0,-1478.63 0,-1478.63 0,-1478.63 0,-216.924 0,-175.204 12.2933,-128.078 21.141,-99.5633"/>
<polygon fill="red" stroke="red" points="24.5047,-100.535 24.2157,-89.9444 17.8371,-98.4039 24.5047,-100.535"/>
</g>
<!-- 2 -->
<g id="node2" class="node"><title>2</title>
<polygon fill="lightgray" stroke="black" points="87.5,-965.933 66.5,-965.933 66.5,-947.933 87.5,-947.933 87.5,-965.933"/>
<text text-anchor="middle" x="77" y="-954.733" font-family="Times New Roman,serif" font-size="9.00">2</text>
</g>
<!-- 5 -->
<g id="node5" class="node"><title>5</title>
<polygon fill="lightblue" stroke="black" points="132.5,-18 111.5,-18 111.5,-0 132.5,-0 132.5,-18"/>
<text text-anchor="middle" x="122" y="-6.8" font-family="Times New Roman,serif" font-size="9.00">5</text>
</g>
<!-- 2&#45;&gt;5 -->
<g id="edge1" class="edge"><title>2&#45;&gt;5</title>
<path fill="none" stroke="red" d="M76.9077,-947.694C76.6602,-924.856 76,-858.808 76,-803.909 76,-803.909 76,-803.909 76,-144.154 76,-100.008 98.5644,-51.8933 112.086,-27.024"/>
<polygon fill="red" stroke="red" points="115.231,-28.5723 117.077,-18.1396 109.128,-25.1437 115.231,-28.5723"/>
</g>
<!-- 33 -->
<g id="node26" class="node"><title>33</title>
<ellipse fill="none" stroke="black" cx="160" cy="-881.335" rx="18.2703" ry="18.2703"/>
<text text-anchor="middle" x="160" y="-879.135" font-family="Times New Roman,serif" font-size="9.00">33</text>
</g>
<!-- 2&#45;&gt;33 -->
<g id="edge22" class="edge"><title>2&#45;&gt;33</title>
<path fill="none" stroke="red" d="M86.1996,-947.776C98.8222,-936.583 121.878,-916.139 138.872,-901.069"/>
<polygon fill="red" stroke="red" points="141.496,-903.421 146.656,-894.168 136.852,-898.183 141.496,-903.421"/>
</g>
<!-- 38 -->
<g id="node27" class="node"><title>38</title>
<ellipse fill="none" stroke="black" cx="160" cy="-802.909" rx="18.2703" ry="18.2703"/>
<text text-anchor="middle" x="160" y="-800.709" font-family="Times New Roman,serif" font-size="9.00">38</text>
</g>
<!-- 2&#45;&gt;38 -->
<g id="edge11" class="edge"><title>2&#45;&gt;38</title>
<path fill="none" stroke="green" d="M81.4624,-947.76C93.589,-925.548 127.514,-863.411 146.572,-828.504"/>
<polygon fill="green" stroke="green" points="149.802,-829.891 151.522,-819.437 143.658,-826.537 149.802,-829.891"/>
</g>
<!-- 3 -->
<g id="node3" class="node"><title>3</title>
<polygon fill="lightgray" stroke="black" points="307.5,-1111.47 286.5,-1111.47 286.5,-1093.47 307.5,-1093.47 307.5,-1111.47"/>
<text text-anchor="middle" x="297" y="-1100.27" font-family="Times New Roman,serif" font-size="9.00">3</text>
</g>
<!-- 6 -->
<g id="node18" class="node"><title>6</title>
<ellipse fill="none" stroke="black" cx="208" cy="-1029.7" rx="14.7" ry="14.7"/>
<text text-anchor="middle" x="208" y="-1027.5" font-family="Times New Roman,serif" font-size="9.00">6</text>
</g>
<!-- 3&#45;&gt;6 -->
<g id="edge64" class="edge"><title>3&#45;&gt;6</title>
<path fill="none" stroke="red" d="M286.791,-1093.35C272.351,-1081.87 245.689,-1060.67 227.412,-1046.14"/>
<polygon fill="red" stroke="red" points="229.21,-1043.1 219.204,-1039.61 224.853,-1048.58 229.21,-1043.1"/>
</g>
<!-- 11 -->
<g id="node19" class="node"><title>11</title>
<ellipse fill="none" stroke="black" cx="342" cy="-1029.7" rx="18.2703" ry="18.2703"/>
<text text-anchor="middle" x="342" y="-1027.5" font-family="Times New Roman,serif" font-size="9.00">11</text>
</g>
<!-- 3&#45;&gt;11 -->
<g id="edge62" class="edge"><title>3&#45;&gt;11</title>
<path fill="none" stroke="green" d="M302.162,-1093.35C308.164,-1083.91 318.344,-1067.91 326.91,-1054.43"/>
<polygon fill="green" stroke="green" points="330.099,-1055.94 332.512,-1045.62 324.192,-1052.19 330.099,-1055.94"/>
</g>
<!-- 4 -->
<g id="node4" class="node"><title>4</title>
<polygon fill="lightgray" stroke="black" points="455.5,-1338.27 434.5,-1338.27 434.5,-1320.27 455.5,-1320.27 455.5,-1338.27"/>
<text text-anchor="middle" x="445" y="-1327.07" font-family="Times New Roman,serif" font-size="9.00">4</text>
</g>
<!-- 54 -->
<g id="node8" class="node"><title>54</title>
<ellipse fill="none" stroke="black" cx="334" cy="-1253.67" rx="18.2703" ry="18.2703"/>
<text text-anchor="middle" x="334" y="-1251.47" font-family="Times New Roman,serif" font-size="9.00">54</text>
</g>
<!-- 4&#45;&gt;54 -->
<g id="edge31" class="edge"><title>4&#45;&gt;54</title>
<path fill="none" stroke="green" d="M434.357,-1321.21C416.747,-1309.53 381.139,-1285.92 357.426,-1270.2"/>
<polygon fill="green" stroke="green" points="359.251,-1267.21 348.983,-1264.6 355.383,-1273.05 359.251,-1267.21"/>
</g>
<!-- 20 -->
<g id="node15" class="node"><title>20</title>
<ellipse fill="none" stroke="black" cx="445" cy="-1178.07" rx="18.2703" ry="18.2703"/>
<text text-anchor="middle" x="445" y="-1175.87" font-family="Times New Roman,serif" font-size="9.00">20</text>
</g>
<!-- 4&#45;&gt;20 -->
<g id="edge5" class="edge"><title>4&#45;&gt;20</title>
<path fill="none" stroke="green" d="M445,-1320.24C445,-1299.27 445,-1242.03 445,-1207.21"/>
<polygon fill="green" stroke="green" points="448.5,-1206.77 445,-1196.77 441.5,-1206.77 448.5,-1206.77"/>
</g>
<!-- 4&#45;&gt;7 -->
<g id="edge12" class="edge"><title>4&#45;&gt;7</title>
<path fill="none" stroke="green" d="M454.532,-1320.11C468.363,-1308.27 494.282,-1286.09 512.079,-1270.86"/>
<polygon fill="green" stroke="green" points="514.753,-1273.18 520.075,-1264.02 510.202,-1267.86 514.753,-1273.18"/>
</g>
<!-- 29&#45;&gt;19 -->
<g id="edge24" class="edge"><title>29&#45;&gt;19</title>
<path fill="none" stroke="green" d="M412.243,-1539.26C395.263,-1527.6 367.164,-1508.29 347.24,-1494.6"/>
<polygon fill="green" stroke="green" points="348.954,-1491.53 338.73,-1488.75 344.99,-1497.3 348.954,-1491.53"/>
</g>
<!-- 71 -->
<g id="node9" class="node"><title>71</title>
<ellipse fill="none" stroke="black" cx="267" cy="-1404.86" rx="18.2703" ry="18.2703"/>
<text text-anchor="middle" x="267" y="-1402.66" font-family="Times New Roman,serif" font-size="9.00">71</text>
</g>
<!-- 19&#45;&gt;71 -->
<g id="edge26" class="edge"><title>19&#45;&gt;71</title>
<path fill="none" stroke="red" d="M312.739,-1462.65C304.697,-1452.67 293.724,-1439.04 284.541,-1427.64"/>
<polygon fill="red" stroke="red" points="287.237,-1425.41 278.238,-1419.82 281.785,-1429.8 287.237,-1425.41"/>
</g>
<!-- 30 -->
<g id="node11" class="node"><title>30</title>
<ellipse fill="none" stroke="black" cx="256" cy="-1253.67" rx="18.2703" ry="18.2703"/>
<text text-anchor="middle" x="256" y="-1251.47" font-family="Times New Roman,serif" font-size="9.00">30</text>
</g>
<!-- 19&#45;&gt;30 -->
<g id="edge58" class="edge"><title>19&#45;&gt;30</title>
<path fill="none" stroke="red" d="M322.613,-1459.29C319.661,-1428.04 311.203,-1360.67 290,-1308.05 285.643,-1297.24 279.058,-1286.22 272.839,-1277.02"/>
<polygon fill="red" stroke="red" points="275.691,-1274.99 267.075,-1268.83 269.966,-1279.02 275.691,-1274.99"/>
</g>
<!-- 56 -->
<g id="node33" class="node"><title>56</title>
<ellipse fill="none" stroke="black" cx="409" cy="-654.541" rx="18.2703" ry="18.2703"/>
<text text-anchor="middle" x="409" y="-652.341" font-family="Times New Roman,serif" font-size="9.00">56</text>
</g>
<!-- 19&#45;&gt;56 -->
<g id="edge68" class="edge"><title>19&#45;&gt;56</title>
<path fill="none" stroke="green" d="M333.754,-1461.97C349.799,-1436.38 380,-1381.42 380,-1330.27 380,-1330.27 380,-1330.27 380,-1177.07 380,-1043.9 434,-1015.51 434,-882.335 434,-882.335 434,-882.335 434,-801.909 434,-759.663 423.756,-711.526 416.382,-682.351"/>
<polygon fill="green" stroke="green" points="419.726,-681.302 413.82,-672.506 412.952,-683.065 419.726,-681.302"/>
</g>
<!-- 34 -->
<g id="node42" class="node"><title>34</title>
<ellipse fill="none" stroke="black" cx="122" cy="-145.154" rx="18.2703" ry="18.2703"/>
<text text-anchor="middle" x="122" y="-142.954" font-family="Times New Roman,serif" font-size="9.00">34</text>
</g>
<!-- 19&#45;&gt;34 -->
<g id="edge63" class="edge"><title>19&#45;&gt;34</title>
<path fill="none" stroke="red" d="M305.674,-1475.88C242.551,-1472.22 38,-1451.02 38,-1330.27 38,-1330.27 38,-1330.27 38,-289.693 38,-239.454 76.8059,-191.197 101.666,-165.437"/>
<polygon fill="red" stroke="red" points="104.305,-167.747 108.875,-158.188 99.3419,-162.811 104.305,-167.747"/>
</g>
<!-- 113 -->
<g id="node12" class="node"><title>113</title>
<ellipse fill="none" stroke="black" cx="293" cy="-1178.07" rx="21.4286" ry="21.4286"/>
<text text-anchor="middle" x="293" y="-1175.87" font-family="Times New Roman,serif" font-size="9.00">113</text>
</g>
<!-- 54&#45;&gt;113 -->
<g id="edge43" class="edge"><title>54&#45;&gt;113</title>
<path fill="none" stroke="green" d="M325.305,-1237.06C320.251,-1227.99 313.744,-1216.31 307.897,-1205.81"/>
<polygon fill="green" stroke="green" points="310.905,-1204.02 302.981,-1196.99 304.79,-1207.43 310.905,-1204.02"/>
</g>
<!-- 16 -->
<g id="node14" class="node"><title>16</title>
<ellipse fill="none" stroke="black" cx="244" cy="-1102.47" rx="18.2703" ry="18.2703"/>
<text text-anchor="middle" x="244" y="-1100.27" font-family="Times New Roman,serif" font-size="9.00">16</text>
</g>
<!-- 54&#45;&gt;16 -->
<g id="edge66" class="edge"><title>54&#45;&gt;16</title>
<path fill="none" stroke="green" d="M336.138,-1235.37C337.771,-1215.05 337.679,-1181.05 323,-1156.86 316.41,-1146 289.322,-1128.97 268.686,-1117.07"/>
<polygon fill="green" stroke="green" points="270.18,-1113.9 259.755,-1112.01 266.728,-1119.99 270.18,-1113.9"/>
</g>
<!-- 102 -->
<g id="node10" class="node"><title>102</title>
<ellipse fill="none" stroke="black" cx="260" cy="-1329.27" rx="21.4286" ry="21.4286"/>
<text text-anchor="middle" x="260" y="-1327.07" font-family="Times New Roman,serif" font-size="9.00">102</text>
</g>
<!-- 71&#45;&gt;102 -->
<g id="edge29" class="edge"><title>71&#45;&gt;102</title>
<path fill="none" stroke="green" d="M265.341,-1386.42C264.603,-1378.66 263.712,-1369.3 262.871,-1360.46"/>
<polygon fill="green" stroke="green" points="266.351,-1360.07 261.92,-1350.45 259.382,-1360.74 266.351,-1360.07"/>
</g>
<!-- 102&#45;&gt;30 -->
<g id="edge30" class="edge"><title>102&#45;&gt;30</title>
<path fill="none" stroke="red" d="M258.886,-1307.77C258.457,-1299.87 257.959,-1290.72 257.5,-1282.26"/>
<polygon fill="red" stroke="red" points="260.983,-1281.86 256.946,-1272.07 253.994,-1282.24 260.983,-1281.86"/>
</g>
<!-- 66 -->
<g id="node13" class="node"><title>66</title>
<ellipse fill="none" stroke="black" cx="198" cy="-1178.07" rx="18.2703" ry="18.2703"/>
<text text-anchor="middle" x="198" y="-1175.87" font-family="Times New Roman,serif" font-size="9.00">66</text>
</g>
<!-- 30&#45;&gt;66 -->
<g id="edge70" class="edge"><title>30&#45;&gt;66</title>
<path fill="none" stroke="green" d="M245.091,-1238.82C236.719,-1228.2 224.998,-1213.33 215.344,-1201.08"/>
<polygon fill="green" stroke="green" points="217.996,-1198.79 209.058,-1193.1 212.498,-1203.12 217.996,-1198.79"/>
</g>
<!-- 30&#45;&gt;16 -->
<g id="edge16" class="edge"><title>30&#45;&gt;16</title>
<path fill="none" stroke="green" d="M254.6,-1235.26C252.543,-1209.68 248.682,-1161.68 246.231,-1131.21"/>
<polygon fill="green" stroke="green" points="249.719,-1130.92 245.428,-1121.23 242.741,-1131.48 249.719,-1130.92"/>
</g>
<!-- 113&#45;&gt;16 -->
<g id="edge44" class="edge"><title>113&#45;&gt;16</title>
<path fill="none" stroke="green" d="M281.635,-1160C275.097,-1150.18 266.788,-1137.7 259.641,-1126.96"/>
<polygon fill="green" stroke="green" points="262.43,-1124.84 253.975,-1118.45 256.603,-1128.72 262.43,-1124.84"/>
</g>
<!-- 66&#45;&gt;16 -->
<g id="edge71" class="edge"><title>66&#45;&gt;16</title>
<path fill="none" stroke="red" d="M207.309,-1162.18C213.606,-1152.1 222.056,-1138.58 229.26,-1127.06"/>
<polygon fill="red" stroke="red" points="232.373,-1128.68 234.705,-1118.34 226.437,-1124.97 232.373,-1128.68"/>
</g>
<!-- 16&#45;&gt;6 -->
<g id="edge2" class="edge"><title>16&#45;&gt;6</title>
<path fill="none" stroke="red" d="M236.01,-1085.77C231.062,-1076.04 224.634,-1063.4 219.184,-1052.69"/>
<polygon fill="red" stroke="red" points="222.178,-1050.85 214.525,-1043.53 215.939,-1054.03 222.178,-1050.85"/>
</g>
<!-- 48 -->
<g id="node17" class="node"><title>48</title>
<ellipse fill="none" stroke="black" cx="426" cy="-1102.47" rx="18.2703" ry="18.2703"/>
<text text-anchor="middle" x="426" y="-1100.27" font-family="Times New Roman,serif" font-size="9.00">48</text>
</g>
<!-- 20&#45;&gt;48 -->
<g id="edge36" class="edge"><title>20&#45;&gt;48</title>
<path fill="none" stroke="green" d="M440.593,-1160C438.315,-1151.18 435.482,-1140.2 432.92,-1130.28"/>
<polygon fill="green" stroke="green" points="436.271,-1129.26 430.383,-1120.45 429.494,-1131.01 436.271,-1129.26"/>
</g>
<!-- 20&#45;&gt;11 -->
<g id="edge50" class="edge"><title>20&#45;&gt;11</title>
<path fill="none" stroke="red" d="M433.176,-1163.58C423.586,-1152.42 409.917,-1135.99 399,-1120.86 383.34,-1099.14 367.189,-1073.2 356.095,-1054.73"/>
<polygon fill="red" stroke="red" points="359.058,-1052.87 350.932,-1046.07 353.044,-1056.45 359.058,-1052.87"/>
</g>
<!-- 31 -->
<g id="node31" class="node"><title>31</title>
<ellipse fill="none" stroke="black" cx="464" cy="-654.541" rx="18.2703" ry="18.2703"/>
<text text-anchor="middle" x="464" y="-652.341" font-family="Times New Roman,serif" font-size="9.00">31</text>
</g>
<!-- 20&#45;&gt;31 -->
<g id="edge69" class="edge"><title>20&#45;&gt;31</title>
<path fill="none" stroke="green" d="M450.206,-1160.13C458.052,-1133.06 472,-1078.25 472,-1030.7 472,-1030.7 472,-1030.7 472,-801.909 472,-760.613 468.786,-712.861 466.432,-683.429"/>
<polygon fill="green" stroke="green" points="469.89,-682.777 465.581,-673.098 462.914,-683.352 469.89,-682.777"/>
</g>
<!-- 37 -->
<g id="node39" class="node"><title>37</title>
<ellipse fill="none" stroke="black" cx="366" cy="-363.463" rx="18.2703" ry="18.2703"/>
<text text-anchor="middle" x="366" y="-361.263" font-family="Times New Roman,serif" font-size="9.00">37</text>
</g>
<!-- 20&#45;&gt;37 -->
<g id="edge15" class="edge"><title>20&#45;&gt;37</title>
<path fill="none" stroke="red" d="M456.026,-1163.04C474.571,-1137.99 510,-1083.25 510,-1030.7 510,-1030.7 510,-1030.7 510,-508.002 510,-442.154 433.537,-396.054 392.047,-375.886"/>
<polygon fill="red" stroke="red" points="393.339,-372.626 382.8,-371.539 390.361,-378.961 393.339,-372.626"/>
</g>
<!-- 12&#45;&gt;7 -->
<g id="edge9" class="edge"><title>12&#45;&gt;7</title>
<path fill="none" stroke="red" d="M531,-1531.85C531,-1481.54 531,-1336.77 531,-1278.95"/>
<polygon fill="red" stroke="red" points="534.5,-1278.6 531,-1268.6 527.5,-1278.6 534.5,-1278.6"/>
</g>
<!-- 48&#45;&gt;11 -->
<g id="edge37" class="edge"><title>48&#45;&gt;11</title>
<path fill="none" stroke="red" d="M412.129,-1089.79C398.918,-1078.66 378.836,-1061.74 363.543,-1048.85"/>
<polygon fill="red" stroke="red" points="365.516,-1045.94 355.613,-1042.17 361.005,-1051.29 365.516,-1045.94"/>
</g>
<!-- 63 -->
<g id="node21" class="node"><title>63</title>
<ellipse fill="none" stroke="black" cx="162" cy="-956.933" rx="18.2703" ry="18.2703"/>
<text text-anchor="middle" x="162" y="-954.733" font-family="Times New Roman,serif" font-size="9.00">63</text>
</g>
<!-- 6&#45;&gt;63 -->
<g id="edge18" class="edge"><title>6&#45;&gt;63</title>
<path fill="none" stroke="green" d="M200.197,-1016.7C193.905,-1007.02 184.868,-993.116 177.164,-981.262"/>
<polygon fill="green" stroke="green" points="179.984,-979.178 171.599,-972.701 174.115,-982.993 179.984,-979.178"/>
</g>
<!-- 6&#45;&gt;33 -->
<g id="edge51" class="edge"><title>6&#45;&gt;33</title>
<path fill="none" stroke="green" d="M194.435,-1023.41C176.983,-1015.77 147.436,-999.819 135,-975.318 123.687,-953.029 134.119,-925.054 144.754,-905.641"/>
<polygon fill="green" stroke="green" points="147.862,-907.258 149.896,-896.86 141.822,-903.721 147.862,-907.258"/>
</g>
<!-- 10 -->
<g id="node37" class="node"><title>10</title>
<ellipse fill="none" stroke="black" cx="392" cy="-509.002" rx="18.2703" ry="18.2703"/>
<text text-anchor="middle" x="392" y="-506.802" font-family="Times New Roman,serif" font-size="9.00">10</text>
</g>
<!-- 6&#45;&gt;10 -->
<g id="edge32" class="edge"><title>6&#45;&gt;10</title>
<path fill="none" stroke="green" d="M209.516,-1014.74C216.417,-955.889 248.786,-723.68 345,-563.387 352.348,-551.145 362.646,-539.071 371.731,-529.511"/>
<polygon fill="green" stroke="green" points="374.476,-531.711 378.985,-522.123 369.481,-526.806 374.476,-531.711"/>
</g>
<!-- 40 -->
<g id="node22" class="node"><title>40</title>
<ellipse fill="none" stroke="black" cx="293" cy="-956.933" rx="18.2703" ry="18.2703"/>
<text text-anchor="middle" x="293" y="-954.733" font-family="Times New Roman,serif" font-size="9.00">40</text>
</g>
<!-- 11&#45;&gt;40 -->
<g id="edge25" class="edge"><title>11&#45;&gt;40</title>
<path fill="none" stroke="green" d="M331.847,-1014.04C325.211,-1004.46 316.408,-991.74 308.859,-980.838"/>
<polygon fill="green" stroke="green" points="311.71,-978.807 303.14,-972.578 305.955,-982.792 311.71,-978.807"/>
</g>
<!-- 32 -->
<g id="node25" class="node"><title>32</title>
<ellipse fill="none" stroke="black" cx="319" cy="-727.311" rx="18.2703" ry="18.2703"/>
<text text-anchor="middle" x="319" y="-725.111" font-family="Times New Roman,serif" font-size="9.00">32</text>
</g>
<!-- 11&#45;&gt;32 -->
<g id="edge49" class="edge"><title>11&#45;&gt;32</title>
<path fill="none" stroke="green" d="M340.664,-1011.25C336.829,-961.169 325.764,-816.657 321.106,-755.822"/>
<polygon fill="green" stroke="green" points="324.593,-755.511 320.34,-745.808 317.613,-756.046 324.593,-755.511"/>
</g>
<!-- 84 -->
<g id="node28" class="node"><title>84</title>
<ellipse fill="none" stroke="black" cx="388" cy="-956.933" rx="18.2703" ry="18.2703"/>
<text text-anchor="middle" x="388" y="-954.733" font-family="Times New Roman,serif" font-size="9.00">84</text>
</g>
<!-- 11&#45;&gt;84 -->
<g id="edge21" class="edge"><title>11&#45;&gt;84</title>
<path fill="none" stroke="red" d="M351.755,-1013.69C357.854,-1004.31 365.838,-992.029 372.759,-981.381"/>
<polygon fill="red" stroke="red" points="375.743,-983.212 378.259,-972.92 369.874,-979.397 375.743,-983.212"/>
</g>
<!-- 63&#45;&gt;33 -->
<g id="edge19" class="edge"><title>63&#45;&gt;33</title>
<path fill="none" stroke="red" d="M161.526,-938.491C161.296,-930.029 161.014,-919.658 160.756,-910.141"/>
<polygon fill="red" stroke="red" points="164.248,-909.808 160.478,-899.907 157.251,-909.998 164.248,-909.808"/>
</g>
<!-- 104 -->
<g id="node23" class="node"><title>104</title>
<ellipse fill="none" stroke="black" cx="293" cy="-881.335" rx="21.4286" ry="21.4286"/>
<text text-anchor="middle" x="293" y="-879.135" font-family="Times New Roman,serif" font-size="9.00">104</text>
</g>
<!-- 40&#45;&gt;104 -->
<g id="edge33" class="edge"><title>40&#45;&gt;104</title>
<path fill="none" stroke="red" d="M293,-938.491C293,-930.876 293,-921.714 293,-913.021"/>
<polygon fill="red" stroke="red" points="296.5,-912.784 293,-902.784 289.5,-912.784 296.5,-912.784"/>
</g>
<!-- 40&#45;&gt;38 -->
<g id="edge45" class="edge"><title>40&#45;&gt;38</title>
<path fill="none" stroke="red" d="M281.197,-942.442C258.087,-916.026 206.699,-857.287 178.836,-825.44"/>
<polygon fill="red" stroke="red" points="181.186,-822.81 171.968,-817.588 175.918,-827.419 181.186,-822.81"/>
</g>
<!-- 104&#45;&gt;5 -->
<g id="edge40" class="edge"><title>104&#45;&gt;5</title>
<path fill="none" stroke="green" d="M279.218,-865.031C258.624,-841.288 220.097,-793.334 200,-745.696 171.317,-677.704 168,-656.566 168,-582.772 168,-582.772 168,-582.772 168,-144.154 168,-100.008 145.436,-51.8933 131.914,-27.024"/>
<polygon fill="green" stroke="green" points="134.872,-25.1437 126.923,-18.1396 128.769,-28.5723 134.872,-25.1437"/>
</g>
<!-- 105 -->
<g id="node24" class="node"><title>105</title>
<ellipse fill="none" stroke="black" cx="293" cy="-802.909" rx="21.4286" ry="21.4286"/>
<text text-anchor="middle" x="293" y="-800.709" font-family="Times New Roman,serif" font-size="9.00">105</text>
</g>
<!-- 104&#45;&gt;105 -->
<g id="edge34" class="edge"><title>104&#45;&gt;105</title>
<path fill="none" stroke="green" d="M293,-859.854C293,-851.996 293,-842.851 293,-834.261"/>
<polygon fill="green" stroke="green" points="296.5,-834.181 293,-824.181 289.5,-834.181 296.5,-834.181"/>
</g>
<!-- 105&#45;&gt;32 -->
<g id="edge35" class="edge"><title>105&#45;&gt;32</title>
<path fill="none" stroke="red" d="M299.831,-782.572C302.881,-773.939 306.52,-763.638 309.804,-754.342"/>
<polygon fill="red" stroke="red" points="313.152,-755.371 313.183,-744.776 306.552,-753.039 313.152,-755.371"/>
</g>
<!-- 32&#45;&gt;31 -->
<g id="edge4" class="edge"><title>32&#45;&gt;31</title>
<path fill="none" stroke="green" d="M335.989,-719.366C359.051,-709.757 401.362,-691.484 436,-672.926 437.324,-672.217 438.671,-671.47 440.022,-670.701"/>
<polygon fill="green" stroke="green" points="442.007,-673.593 448.803,-665.465 438.422,-667.58 442.007,-673.593"/>
</g>
<!-- 45 -->
<g id="node40" class="node"><title>45</title>
<ellipse fill="none" stroke="black" cx="320" cy="-290.693" rx="18.2703" ry="18.2703"/>
<text text-anchor="middle" x="320" y="-288.493" font-family="Times New Roman,serif" font-size="9.00">45</text>
</g>
<!-- 32&#45;&gt;45 -->
<g id="edge65" class="edge"><title>32&#45;&gt;45</title>
<path fill="none" stroke="red" d="M319.202,-708.633C319.495,-681.542 320,-628.127 320,-582.772 320,-582.772 320,-582.772 320,-435.233 320,-395.016 320,-348.461 320,-319.542"/>
<polygon fill="red" stroke="red" points="323.5,-319.372 320,-309.372 316.5,-319.372 323.5,-319.372"/>
</g>
<!-- 33&#45;&gt;38 -->
<g id="edge6" class="edge"><title>33&#45;&gt;38</title>
<path fill="none" stroke="red" d="M160,-862.609C160,-853.446 160,-842.05 160,-831.745"/>
<polygon fill="red" stroke="red" points="163.5,-831.538 160,-821.538 156.5,-831.538 163.5,-831.538"/>
</g>
<!-- 51 -->
<g id="node29" class="node"><title>51</title>
<ellipse fill="none" stroke="black" cx="135" cy="-727.311" rx="18.2703" ry="18.2703"/>
<text text-anchor="middle" x="135" y="-725.111" font-family="Times New Roman,serif" font-size="9.00">51</text>
</g>
<!-- 38&#45;&gt;51 -->
<g id="edge20" class="edge"><title>38&#45;&gt;51</title>
<path fill="none" stroke="green" d="M154.327,-785.208C151.259,-776.175 147.398,-764.81 143.936,-754.617"/>
<polygon fill="green" stroke="green" points="147.181,-753.288 140.65,-744.945 140.553,-755.54 147.181,-753.288"/>
</g>
<!-- 21 -->
<g id="node30" class="node"><title>21</title>
<ellipse fill="none" stroke="black" cx="227" cy="-727.311" rx="18.2703" ry="18.2703"/>
<text text-anchor="middle" x="227" y="-725.111" font-family="Times New Roman,serif" font-size="9.00">21</text>
</g>
<!-- 38&#45;&gt;21 -->
<g id="edge53" class="edge"><title>38&#45;&gt;21</title>
<path fill="none" stroke="green" d="M171.978,-788.751C182.077,-777.657 196.702,-761.592 208.336,-748.813"/>
<polygon fill="green" stroke="green" points="210.982,-751.106 215.125,-741.355 205.805,-746.393 210.982,-751.106"/>
</g>
<!-- 99 -->
<g id="node32" class="node"><title>99</title>
<ellipse fill="none" stroke="black" cx="388" cy="-802.909" rx="18.2703" ry="18.2703"/>
<text text-anchor="middle" x="388" y="-800.709" font-family="Times New Roman,serif" font-size="9.00">99</text>
</g>
<!-- 84&#45;&gt;99 -->
<g id="edge72" class="edge"><title>84&#45;&gt;99</title>
<path fill="none" stroke="green" d="M388,-938.494C388,-912.401 388,-862.945 388,-831.798"/>
<polygon fill="green" stroke="green" points="391.5,-831.613 388,-821.613 384.5,-831.613 391.5,-831.613"/>
</g>
<!-- 21&#45;&gt;56 -->
<g id="edge59" class="edge"><title>21&#45;&gt;56</title>
<path fill="none" stroke="green" d="M243.796,-719.78C275.543,-707.435 344.571,-680.594 382.582,-665.814"/>
<polygon fill="green" stroke="green" points="383.928,-669.046 391.98,-662.159 381.391,-662.521 383.928,-669.046"/>
</g>
<!-- 57 -->
<g id="node36" class="node"><title>57</title>
<ellipse fill="none" stroke="black" cx="214" cy="-509.002" rx="18.2703" ry="18.2703"/>
<text text-anchor="middle" x="214" y="-506.802" font-family="Times New Roman,serif" font-size="9.00">57</text>
</g>
<!-- 21&#45;&gt;57 -->
<g id="edge27" class="edge"><title>21&#45;&gt;57</title>
<path fill="none" stroke="green" d="M225.936,-708.609C223.679,-671.044 218.393,-583.096 215.677,-537.9"/>
<polygon fill="green" stroke="green" points="219.154,-537.417 215.06,-527.645 212.167,-537.837 219.154,-537.417"/>
</g>
<!-- 21&#45;&gt;37 -->
<g id="edge57" class="edge"><title>21&#45;&gt;37</title>
<path fill="none" stroke="red" d="M230.159,-708.834C235.894,-678.615 249.187,-614.893 268,-563.387 292.692,-495.785 306.98,-482.303 339,-417.848 343.615,-408.558 348.739,-398.391 353.272,-389.446"/>
<polygon fill="red" stroke="red" points="356.5,-390.818 357.906,-380.317 350.258,-387.649 356.5,-390.818"/>
</g>
<!-- 36 -->
<g id="node34" class="node"><title>36</title>
<ellipse fill="none" stroke="black" cx="372" cy="-581.772" rx="18.2703" ry="18.2703"/>
<text text-anchor="middle" x="372" y="-579.572" font-family="Times New Roman,serif" font-size="9.00">36</text>
</g>
<!-- 31&#45;&gt;36 -->
<g id="edge42" class="edge"><title>31&#45;&gt;36</title>
<path fill="none" stroke="green" d="M449.625,-642.483C434.907,-631.162 411.817,-613.4 394.641,-600.188"/>
<polygon fill="green" stroke="green" points="396.334,-597.075 386.274,-593.752 392.066,-602.623 396.334,-597.075"/>
</g>
<!-- 47 -->
<g id="node35" class="node"><title>47</title>
<ellipse fill="none" stroke="black" cx="464" cy="-581.772" rx="18.2703" ry="18.2703"/>
<text text-anchor="middle" x="464" y="-579.572" font-family="Times New Roman,serif" font-size="9.00">47</text>
</g>
<!-- 31&#45;&gt;47 -->
<g id="edge13" class="edge"><title>31&#45;&gt;47</title>
<path fill="none" stroke="red" d="M464,-636.048C464,-628.365 464,-619.156 464,-610.572"/>
<polygon fill="red" stroke="red" points="467.5,-610.556 464,-600.556 460.5,-610.556 467.5,-610.556"/>
</g>
<!-- 31&#45;&gt;10 -->
<g id="edge3" class="edge"><title>31&#45;&gt;10</title>
<path fill="none" stroke="green" d="M455.944,-637.668C450.565,-627.056 443.342,-612.778 437,-600.156 426,-578.263 413.566,-553.34 404.56,-535.255"/>
<polygon fill="green" stroke="green" points="407.53,-533.367 399.941,-525.974 401.264,-536.486 407.53,-533.367"/>
</g>
<!-- 99&#45;&gt;36 -->
<g id="edge73" class="edge"><title>99&#45;&gt;36</title>
<path fill="none" stroke="red" d="M386.718,-784.346C383.937,-746.266 377.336,-655.859 374.002,-610.186"/>
<polygon fill="red" stroke="red" points="377.485,-609.832 373.266,-600.114 370.504,-610.342 377.485,-609.832"/>
</g>
<!-- 56&#45;&gt;36 -->
<g id="edge60" class="edge"><title>56&#45;&gt;36</title>
<path fill="none" stroke="red" d="M400.789,-637.835C396.142,-628.948 390.226,-617.632 384.967,-607.573"/>
<polygon fill="red" stroke="red" points="387.923,-605.674 380.189,-598.434 381.72,-608.917 387.923,-605.674"/>
</g>
<!-- 36&#45;&gt;10 -->
<g id="edge7" class="edge"><title>36&#45;&gt;10</title>
<path fill="none" stroke="green" d="M376.74,-564C379.023,-555.923 381.817,-546.036 384.387,-536.94"/>
<polygon fill="green" stroke="green" points="387.804,-537.72 387.155,-527.145 381.068,-535.816 387.804,-537.72"/>
</g>
<!-- 47&#45;&gt;10 -->
<g id="edge14" class="edge"><title>47&#45;&gt;10</title>
<path fill="none" stroke="red" d="M451.128,-568.119C440.275,-557.452 424.559,-542.005 412.057,-529.717"/>
<polygon fill="red" stroke="red" points="414.346,-527.059 404.761,-522.545 409.439,-532.051 414.346,-527.059"/>
</g>
<!-- 57&#45;&gt;37 -->
<g id="edge28" class="edge"><title>57&#45;&gt;37</title>
<path fill="none" stroke="green" d="M216.026,-490.627C219.19,-470.754 227.049,-438.327 246,-417.848 270.609,-391.253 310.903,-377.105 337.929,-370.199"/>
<polygon fill="green" stroke="green" points="339.004,-373.541 347.922,-367.819 337.383,-366.731 339.004,-373.541"/>
</g>
<!-- 67 -->
<g id="node38" class="node"><title>67</title>
<ellipse fill="none" stroke="black" cx="366" cy="-436.233" rx="18.2703" ry="18.2703"/>
<text text-anchor="middle" x="366" y="-434.033" font-family="Times New Roman,serif" font-size="9.00">67</text>
</g>
<!-- 10&#45;&gt;67 -->
<g id="edge38" class="edge"><title>10&#45;&gt;67</title>
<path fill="none" stroke="red" d="M385.97,-491.588C382.929,-483.312 379.166,-473.07 375.73,-463.716"/>
<polygon fill="red" stroke="red" points="378.912,-462.228 372.178,-454.049 372.341,-464.642 378.912,-462.228"/>
</g>
<!-- 10&#45;&gt;37 -->
<g id="edge52" class="edge"><title>10&#45;&gt;37</title>
<path fill="none" stroke="green" d="M394.643,-490.779C396.895,-472.429 398.919,-442.666 393,-417.848 390.532,-407.5 385.717,-396.887 380.828,-387.878"/>
<polygon fill="green" stroke="green" points="383.825,-386.067 375.802,-379.147 377.758,-389.56 383.825,-386.067"/>
</g>
<!-- 67&#45;&gt;37 -->
<g id="edge39" class="edge"><title>67&#45;&gt;37</title>
<path fill="none" stroke="green" d="M366,-417.739C366,-410.057 366,-400.847 366,-392.263"/>
<polygon fill="green" stroke="green" points="369.5,-392.247 366,-382.247 362.5,-392.247 369.5,-392.247"/>
</g>
<!-- 37&#45;&gt;45 -->
<g id="edge55" class="edge"><title>37&#45;&gt;45</title>
<path fill="none" stroke="green" d="M356.245,-347.455C350.146,-338.072 342.162,-325.79 335.241,-315.141"/>
<polygon fill="green" stroke="green" points="338.126,-313.157 329.741,-306.68 332.257,-316.972 338.126,-313.157"/>
</g>
<!-- 45&#45;&gt;28 -->
<g id="edge56" class="edge"><title>45&#45;&gt;28</title>
<path fill="none" stroke="green" d="M309.275,-275.372C301.947,-265.588 292.09,-252.426 283.737,-241.272"/>
<polygon fill="green" stroke="green" points="286.505,-239.13 277.709,-233.224 280.902,-243.326 286.505,-239.13"/>
</g>
<!-- 28&#45;&gt;5 -->
<g id="edge48" class="edge"><title>28&#45;&gt;5</title>
<path fill="none" stroke="red" d="M261.201,-200.181C249.764,-168.882 221.903,-100.475 182,-54 170.601,-40.7232 154.464,-29.1768 141.796,-21.2472"/>
<polygon fill="red" stroke="red" points="143.296,-18.0655 132.921,-15.9197 139.694,-24.0672 143.296,-18.0655"/>
</g>
<!-- 28&#45;&gt;34 -->
<g id="edge46" class="edge"><title>28&#45;&gt;34</title>
<path fill="none" stroke="red" d="M250.649,-208.943C225.628,-196.732 177.621,-173.301 147.851,-158.771"/>
<polygon fill="red" stroke="red" points="149.036,-155.455 138.514,-154.214 145.966,-161.746 149.036,-155.455"/>
</g>
<!-- 34&#45;&gt;5 -->
<g id="edge47" class="edge"><title>34&#45;&gt;5</title>
<path fill="none" stroke="red" d="M122,-126.616C122,-101.241 122,-54.4942 122,-28.5593"/>
<polygon fill="red" stroke="red" points="125.5,-28.2592 122,-18.2592 118.5,-28.2592 125.5,-28.2592"/>
</g>
<!-- 34&#45;&gt;60 -->
<g id="edge61" class="edge"><title>34&#45;&gt;60</title>
<path fill="none" stroke="red" d="M107.625,-133.097C92.9069,-121.775 69.8168,-104.013 52.6411,-90.8011"/>
<polygon fill="red" stroke="red" points="54.3343,-87.6878 44.2741,-84.3649 50.0663,-93.2362 54.3343,-87.6878"/>
</g>
<!-- 60&#45;&gt;5 -->
<g id="edge17" class="edge"><title>60&#45;&gt;5</title>
<path fill="none" stroke="red" d="M45.1919,-61.2483C60.9526,-50.7324 85.6431,-34.2583 102.758,-22.8388"/>
<polygon fill="red" stroke="red" points="105.006,-25.5464 111.382,-17.0847 101.121,-19.7235 105.006,-25.5464"/>
</g>
</g>
</svg>
