<?xml version="1.0" encoding="UTF-8" standalone="no"?>
<!DOCTYPE svg PUBLIC "-//W3C//DTD SVG 1.1//EN"
 "http://www.w3.org/Graphics/SVG/1.1/DTD/svg11.dtd">
<!-- Generated by graphviz version 2.38.0 (20140413.2041)
 -->
<!-- Title: %3 Pages: 1 -->
<svg width="1105pt" height="1894pt"
 viewBox="0.00 0.00 1105.38 1894.35" xmlns="http://www.w3.org/2000/svg" xmlns:xlink="http://www.w3.org/1999/xlink">
<g id="graph0" class="graph" transform="scale(1 1) rotate(0) translate(4 1890.35)">
<title>%3</title>
<polygon fill="white" stroke="none" points="-4,4 -4,-1890.35 1101.38,-1890.35 1101.38,4 -4,4"/>
<!-- 1 -->
<g id="node1" class="node"><title>1</title>
<polygon fill="lightgray" stroke="black" points="166.885,-1886.35 145.885,-1886.35 145.885,-1868.35 166.885,-1868.35 166.885,-1886.35"/>
<text text-anchor="middle" x="156.385" y="-1875.15" font-family="Times New Roman,serif" font-size="9.00">1</text>
</g>
<!-- 29 -->
<g id="node6" class="node"><title>29</title>
<ellipse fill="none" stroke="black" cx="585.385" cy="-1813.97" rx="18.2703" ry="18.2703"/>
<text text-anchor="middle" x="585.385" y="-1811.77" font-family="Times New Roman,serif" font-size="9.00">29</text>
</g>
<!-- 1&#45;&gt;29 -->
<g id="edge32" class="edge"><title>1&#45;&gt;29</title>
<path fill="none" stroke="red" d="M166.989,-1874.83C221.681,-1867.01 472.574,-1831.11 557.325,-1818.98"/>
<polygon fill="red" stroke="red" points="557.856,-1822.44 567.259,-1817.56 556.864,-1815.51 557.856,-1822.44"/>
</g>
<!-- 19 -->
<g id="node9" class="node"><title>19</title>
<ellipse fill="none" stroke="black" cx="683.385" cy="-1662.77" rx="18.2703" ry="18.2703"/>
<text text-anchor="middle" x="683.385" y="-1660.57" font-family="Times New Roman,serif" font-size="9.00">19</text>
</g>
<!-- 1&#45;&gt;19 -->
<g id="edge60" class="edge"><title>1&#45;&gt;19</title>
<path fill="none" stroke="red" d="M167.089,-1876.5C228.213,-1877.15 533.159,-1878.06 612.385,-1832.35 662.15,-1803.64 677.036,-1731.32 681.487,-1691.36"/>
<polygon fill="red" stroke="red" points="684.987,-1691.54 682.467,-1681.25 678.019,-1690.86 684.987,-1691.54"/>
</g>
<!-- 76 -->
<g id="node12" class="node"><title>76</title>
<ellipse fill="none" stroke="black" cx="110.385" cy="-1813.97" rx="18.2703" ry="18.2703"/>
<text text-anchor="middle" x="110.385" y="-1811.77" font-family="Times New Roman,serif" font-size="9.00">76</text>
</g>
<!-- 1&#45;&gt;76 -->
<g id="edge99" class="edge"><title>1&#45;&gt;76</title>
<path fill="none" stroke="red" d="M150.371,-1868.33C144.529,-1860.53 135.384,-1848.33 127.314,-1837.56"/>
<polygon fill="red" stroke="red" points="129.953,-1835.24 121.155,-1829.34 124.351,-1839.44 129.953,-1835.24"/>
</g>
<!-- 12 -->
<g id="node21" class="node"><title>12</title>
<ellipse fill="none" stroke="black" cx="18.3848" cy="-1738.37" rx="18.2703" ry="18.2703"/>
<text text-anchor="middle" x="18.3848" y="-1736.17" font-family="Times New Roman,serif" font-size="9.00">12</text>
</g>
<!-- 1&#45;&gt;12 -->
<g id="edge104" class="edge"><title>1&#45;&gt;12</title>
<path fill="none" stroke="red" d="M145.73,-1874.87C124.569,-1871.37 76.9941,-1860.66 50.3848,-1832.35 33.5586,-1814.45 25.5376,-1787.29 21.7395,-1766.94"/>
<polygon fill="red" stroke="red" points="25.1826,-1766.31 20.114,-1757 18.2745,-1767.44 25.1826,-1766.31"/>
</g>
<!-- 7 -->
<g id="node26" class="node"><title>7</title>
<ellipse fill="none" stroke="black" cx="64.3848" cy="-1587.17" rx="14.7" ry="14.7"/>
<text text-anchor="middle" x="64.3848" y="-1584.97" font-family="Times New Roman,serif" font-size="9.00">7</text>
</g>
<!-- 1&#45;&gt;7 -->
<g id="edge12" class="edge"><title>1&#45;&gt;7</title>
<path fill="none" stroke="red" d="M145.703,-1873.37C129.141,-1868.11 97.6862,-1855.52 83.3848,-1832.35 40.0681,-1762.18 51.4809,-1658.18 59.5581,-1611.89"/>
<polygon fill="red" stroke="red" points="63.0255,-1612.38 61.4065,-1601.91 56.1427,-1611.11 63.0255,-1612.38"/>
</g>
<!-- 28 -->
<g id="node57" class="node"><title>28</title>
<ellipse fill="none" stroke="black" cx="392.385" cy="-145.154" rx="18.2703" ry="18.2703"/>
<text text-anchor="middle" x="392.385" y="-142.954" font-family="Times New Roman,serif" font-size="9.00">28</text>
</g>
<!-- 1&#45;&gt;28 -->
<g id="edge56" class="edge"><title>1&#45;&gt;28</title>
<path fill="none" stroke="green" d="M160.308,-1868.23C170.017,-1847.37 194.385,-1789.96 194.385,-1739.37 194.385,-1739.37 194.385,-1739.37 194.385,-1048.5 194.385,-905.883 280.214,-556.555 313.385,-417.848 335.152,-326.826 368.275,-220.803 383.796,-172.522"/>
<polygon fill="green" stroke="green" points="387.175,-173.447 386.916,-162.855 380.513,-171.296 387.175,-173.447"/>
</g>
<!-- 60 -->
<g id="node60" class="node"><title>60</title>
<ellipse fill="none" stroke="black" cx="198.385" cy="-741.453" rx="18.2703" ry="18.2703"/>
<text text-anchor="middle" x="198.385" y="-739.253" font-family="Times New Roman,serif" font-size="9.00">60</text>
</g>
<!-- 1&#45;&gt;60 -->
<g id="edge62" class="edge"><title>1&#45;&gt;60</title>
<path fill="none" stroke="green" d="M156.385,-1868.32C156.385,-1847.2 156.385,-1788.36 156.385,-1739.37 156.385,-1739.37 156.385,-1739.37 156.385,-891.649 156.385,-846.877 174.126,-797.28 186.547,-768.043"/>
<polygon fill="green" stroke="green" points="189.881,-769.156 190.681,-758.591 183.467,-766.351 189.881,-769.156"/>
</g>
<!-- 2 -->
<g id="node2" class="node"><title>2</title>
<polygon fill="lightgray" stroke="black" points="967.885,-1058.5 946.885,-1058.5 946.885,-1040.5 967.885,-1040.5 967.885,-1058.5"/>
<text text-anchor="middle" x="957.385" y="-1047.3" font-family="Times New Roman,serif" font-size="9.00">2</text>
</g>
<!-- 5 -->
<g id="node5" class="node"><title>5</title>
<polygon fill="lightblue" stroke="black" points="356.885,-18 335.885,-18 335.885,-0 356.885,-0 356.885,-18"/>
<text text-anchor="middle" x="346.385" y="-6.8" font-family="Times New Roman,serif" font-size="9.00">5</text>
</g>
<!-- 2&#45;&gt;5 -->
<g id="edge85" class="edge"><title>2&#45;&gt;5</title>
<path fill="none" stroke="red" d="M967.916,-1040.37C993.977,-1019.24 1059.38,-959.643 1059.38,-893.649 1059.38,-893.649 1059.38,-893.649 1059.38,-289.693 1059.38,-174.467 1056.37,-101.49 951.385,-54 843.846,-5.35491 460.8,-8.16317 367.154,-9.61485"/>
<polygon fill="red" stroke="red" points="366.927,-6.11807 356.988,-9.78559 367.045,-13.1171 366.927,-6.11807"/>
</g>
<!-- 8 -->
<g id="node27" class="node"><title>8</title>
<ellipse fill="none" stroke="black" cx="1016.38" cy="-514.659" rx="14.7" ry="14.7"/>
<text text-anchor="middle" x="1016.38" y="-512.459" font-family="Times New Roman,serif" font-size="9.00">8</text>
</g>
<!-- 2&#45;&gt;8 -->
<g id="edge66" class="edge"><title>2&#45;&gt;8</title>
<path fill="none" stroke="red" d="M963.045,-1040.49C970.294,-1029.9 982.821,-1010.47 990.385,-992.288 1007.8,-950.43 1016.38,-938.986 1016.38,-893.649 1016.38,-893.649 1016.38,-893.649 1016.38,-664.855 1016.38,-620.757 1016.38,-569.327 1016.38,-539.82"/>
<polygon fill="red" stroke="red" points="1019.88,-539.646 1016.38,-529.646 1012.88,-539.646 1019.88,-539.646"/>
</g>
<!-- 33 -->
<g id="node34" class="node"><title>33</title>
<ellipse fill="none" stroke="black" cx="812.385" cy="-971.075" rx="18.2703" ry="18.2703"/>
<text text-anchor="middle" x="812.385" y="-968.875" font-family="Times New Roman,serif" font-size="9.00">33</text>
</g>
<!-- 2&#45;&gt;33 -->
<g id="edge43" class="edge"><title>2&#45;&gt;33</title>
<path fill="none" stroke="red" d="M946.73,-1043.52C926.64,-1034.06 881.894,-1012.58 845.385,-992.288 842.449,-990.656 839.401,-988.891 836.396,-987.106"/>
<polygon fill="red" stroke="red" points="838.035,-984.006 827.671,-981.809 834.403,-989.99 838.035,-984.006"/>
</g>
<!-- 38 -->
<g id="node36" class="node"><title>38</title>
<ellipse fill="none" stroke="black" cx="770.385" cy="-892.649" rx="18.2703" ry="18.2703"/>
<text text-anchor="middle" x="770.385" y="-890.449" font-family="Times New Roman,serif" font-size="9.00">38</text>
</g>
<!-- 2&#45;&gt;38 -->
<g id="edge13" class="edge"><title>2&#45;&gt;38</title>
<path fill="none" stroke="green" d="M947.629,-1040.28C927.475,-1023.3 879.749,-983.173 839.385,-949.862 823.693,-936.912 805.889,-922.413 792.297,-911.383"/>
<polygon fill="green" stroke="green" points="794.407,-908.588 784.435,-905.009 789.999,-914.026 794.407,-908.588"/>
</g>
<!-- 51 -->
<g id="node39" class="node"><title>51</title>
<ellipse fill="none" stroke="black" cx="724.385" cy="-741.453" rx="18.2703" ry="18.2703"/>
<text text-anchor="middle" x="724.385" y="-739.253" font-family="Times New Roman,serif" font-size="9.00">51</text>
</g>
<!-- 2&#45;&gt;51 -->
<g id="edge102" class="edge"><title>2&#45;&gt;51</title>
<path fill="none" stroke="red" d="M955.82,-1040.44C948.862,-1006.56 917.729,-874.001 843.385,-798.666 818.023,-772.967 778.629,-757.576 752.19,-749.559"/>
<polygon fill="red" stroke="red" points="752.987,-746.146 742.409,-746.749 751.054,-752.874 752.987,-746.146"/>
</g>
<!-- 97 -->
<g id="node54" class="node"><title>97</title>
<ellipse fill="none" stroke="black" cx="629.385" cy="-290.693" rx="18.2703" ry="18.2703"/>
<text text-anchor="middle" x="629.385" y="-288.493" font-family="Times New Roman,serif" font-size="9.00">97</text>
</g>
<!-- 2&#45;&gt;97 -->
<g id="edge110" class="edge"><title>2&#45;&gt;97</title>
<path fill="none" stroke="red" d="M959.071,-1040.48C963.721,-1017.65 976.385,-950.258 976.385,-893.649 976.385,-893.649 976.385,-893.649 976.385,-740.453 976.385,-668.512 992.312,-475.577 949.385,-417.848 877.974,-321.812 722.262,-298.825 658,-293.371"/>
<polygon fill="red" stroke="red" points="658.038,-289.863 647.8,-292.589 657.503,-296.843 658.038,-289.863"/>
</g>
<!-- 3 -->
<g id="node3" class="node"><title>3</title>
<polygon fill="lightgray" stroke="black" points="649.885,-1360.89 628.885,-1360.89 628.885,-1342.89 649.885,-1342.89 649.885,-1360.89"/>
<text text-anchor="middle" x="639.385" y="-1349.69" font-family="Times New Roman,serif" font-size="9.00">3</text>
</g>
<!-- 6 -->
<g id="node24" class="node"><title>6</title>
<ellipse fill="none" stroke="black" cx="790.385" cy="-1127.93" rx="14.7" ry="14.7"/>
<text text-anchor="middle" x="790.385" y="-1125.73" font-family="Times New Roman,serif" font-size="9.00">6</text>
</g>
<!-- 3&#45;&gt;6 -->
<g id="edge23" class="edge"><title>3&#45;&gt;6</title>
<path fill="none" stroke="red" d="M644.938,-1342.73C666.437,-1311.13 744.589,-1196.25 776.584,-1149.21"/>
<polygon fill="red" stroke="red" points="779.607,-1150.99 782.338,-1140.76 773.819,-1147.06 779.607,-1150.99"/>
</g>
<!-- 11 -->
<g id="node25" class="node"><title>11</title>
<ellipse fill="none" stroke="black" cx="443.385" cy="-1276.3" rx="18.2703" ry="18.2703"/>
<text text-anchor="middle" x="443.385" y="-1274.1" font-family="Times New Roman,serif" font-size="9.00">11</text>
</g>
<!-- 3&#45;&gt;11 -->
<g id="edge21" class="edge"><title>3&#45;&gt;11</title>
<path fill="none" stroke="green" d="M628.847,-1346.94C599.045,-1335.75 513.489,-1303.62 469.778,-1287.21"/>
<polygon fill="green" stroke="green" points="470.964,-1283.91 460.372,-1283.67 468.503,-1290.47 470.964,-1283.91"/>
</g>
<!-- 4 -->
<g id="node4" class="node"><title>4</title>
<polygon fill="lightgray" stroke="black" points="507.885,-1671.77 486.885,-1671.77 486.885,-1653.77 507.885,-1653.77 507.885,-1671.77"/>
<text text-anchor="middle" x="497.385" y="-1660.57" font-family="Times New Roman,serif" font-size="9.00">4</text>
</g>
<!-- 115 -->
<g id="node7" class="node"><title>115</title>
<ellipse fill="none" stroke="black" cx="546.385" cy="-1587.17" rx="21.4286" ry="21.4286"/>
<text text-anchor="middle" x="546.385" y="-1584.97" font-family="Times New Roman,serif" font-size="9.00">115</text>
</g>
<!-- 4&#45;&gt;115 -->
<g id="edge106" class="edge"><title>4&#45;&gt;115</title>
<path fill="none" stroke="red" d="M502.816,-1653.61C509.152,-1644.1 519.942,-1627.89 529.199,-1613.99"/>
<polygon fill="red" stroke="red" points="532.369,-1615.54 534.998,-1605.28 526.543,-1611.66 532.369,-1615.54"/>
</g>
<!-- 54 -->
<g id="node10" class="node"><title>54</title>
<ellipse fill="none" stroke="black" cx="679.385" cy="-1508.75" rx="18.2703" ry="18.2703"/>
<text text-anchor="middle" x="679.385" y="-1506.55" font-family="Times New Roman,serif" font-size="9.00">54</text>
</g>
<!-- 4&#45;&gt;54 -->
<g id="edge25" class="edge"><title>4&#45;&gt;54</title>
<path fill="none" stroke="green" d="M508.008,-1655.4C523.561,-1645.89 553.198,-1627.1 576.385,-1608.39 607.308,-1583.43 639.942,-1550.99 659.987,-1530.27"/>
<polygon fill="green" stroke="green" points="662.623,-1532.58 667.023,-1522.94 657.573,-1527.73 662.623,-1532.58"/>
</g>
<!-- 65 -->
<g id="node11" class="node"><title>65</title>
<ellipse fill="none" stroke="black" cx="505.385" cy="-1508.75" rx="18.2703" ry="18.2703"/>
<text text-anchor="middle" x="505.385" y="-1506.55" font-family="Times New Roman,serif" font-size="9.00">65</text>
</g>
<!-- 4&#45;&gt;65 -->
<g id="edge28" class="edge"><title>4&#45;&gt;65</title>
<path fill="none" stroke="red" d="M497.815,-1653.6C498.95,-1632.02 502.068,-1572.78 503.929,-1537.41"/>
<polygon fill="red" stroke="red" points="507.432,-1537.44 504.463,-1527.27 500.442,-1537.07 507.432,-1537.44"/>
</g>
<!-- 20 -->
<g id="node20" class="node"><title>20</title>
<ellipse fill="none" stroke="black" cx="504.385" cy="-1430.32" rx="18.2703" ry="18.2703"/>
<text text-anchor="middle" x="504.385" y="-1428.12" font-family="Times New Roman,serif" font-size="9.00">20</text>
</g>
<!-- 4&#45;&gt;20 -->
<g id="edge38" class="edge"><title>4&#45;&gt;20</title>
<path fill="none" stroke="red" d="M494.665,-1653.68C486.649,-1628.68 464.52,-1550.53 478.385,-1487.53 480.811,-1476.51 485.621,-1465.07 490.451,-1455.41"/>
<polygon fill="red" stroke="red" points="493.62,-1456.91 495.2,-1446.43 487.432,-1453.63 493.62,-1456.91"/>
</g>
<!-- 4&#45;&gt;7 -->
<g id="edge14" class="edge"><title>4&#45;&gt;7</title>
<path fill="none" stroke="red" d="M486.681,-1659.95C430.653,-1650.43 170.611,-1606.23 88.9738,-1592.35"/>
<polygon fill="red" stroke="red" points="89.3294,-1588.86 78.8843,-1590.64 88.1564,-1595.76 89.3294,-1588.86"/>
</g>
<!-- 63 -->
<g id="node28" class="node"><title>63</title>
<ellipse fill="none" stroke="black" cx="724.385" cy="-1049.5" rx="18.2703" ry="18.2703"/>
<text text-anchor="middle" x="724.385" y="-1047.3" font-family="Times New Roman,serif" font-size="9.00">63</text>
</g>
<!-- 4&#45;&gt;63 -->
<g id="edge111" class="edge"><title>4&#45;&gt;63</title>
<path fill="none" stroke="red" d="M508.132,-1659.23C544.942,-1649.84 665.896,-1613.31 706.385,-1529.96 755.492,-1428.87 716.385,-1389.68 716.385,-1277.3 716.385,-1277.3 716.385,-1277.3 716.385,-1202.53 716.385,-1159.21 719.663,-1109.06 722.022,-1078.57"/>
<polygon fill="red" stroke="red" points="725.537,-1078.52 722.842,-1068.27 718.559,-1077.96 725.537,-1078.52"/>
</g>
<!-- 37 -->
<g id="node53" class="node"><title>37</title>
<ellipse fill="none" stroke="black" cx="629.385" cy="-363.463" rx="18.2703" ry="18.2703"/>
<text text-anchor="middle" x="629.385" y="-361.263" font-family="Times New Roman,serif" font-size="9.00">37</text>
</g>
<!-- 4&#45;&gt;37 -->
<g id="edge30" class="edge"><title>4&#45;&gt;37</title>
<path fill="none" stroke="green" d="M486.668,-1660.87C437.091,-1656.08 232.385,-1629.09 232.385,-1509.75 232.385,-1509.75 232.385,-1509.75 232.385,-1048.5 232.385,-965.538 247.433,-763.723 313.385,-647.47 387.548,-516.743 544.291,-414.589 604.816,-378.531"/>
<polygon fill="green" stroke="green" points="606.833,-381.406 613.677,-373.318 603.283,-375.373 606.833,-381.406"/>
</g>
<!-- 120 -->
<g id="node8" class="node"><title>120</title>
<ellipse fill="none" stroke="black" cx="634.385" cy="-1738.37" rx="21.4286" ry="21.4286"/>
<text text-anchor="middle" x="634.385" y="-1736.17" font-family="Times New Roman,serif" font-size="9.00">120</text>
</g>
<!-- 29&#45;&gt;120 -->
<g id="edge33" class="edge"><title>29&#45;&gt;120</title>
<path fill="none" stroke="red" d="M595.301,-1798.07C601.612,-1788.59 609.952,-1776.07 617.307,-1765.02"/>
<polygon fill="red" stroke="red" points="620.308,-1766.83 622.937,-1756.56 614.482,-1762.95 620.308,-1766.83"/>
</g>
<!-- 29&#45;&gt;19 -->
<g id="edge44" class="edge"><title>29&#45;&gt;19</title>
<path fill="none" stroke="green" d="M584.984,-1795.56C585.33,-1775.14 588.532,-1741.03 604.385,-1717.16 617.21,-1697.84 639.649,-1683.68 657.343,-1674.82"/>
<polygon fill="green" stroke="green" points="659.053,-1677.88 666.594,-1670.44 656.058,-1671.55 659.053,-1677.88"/>
</g>
<!-- 115&#45;&gt;65 -->
<g id="edge107" class="edge"><title>115&#45;&gt;65</title>
<path fill="none" stroke="red" d="M536.668,-1568.06C531.284,-1558.02 524.511,-1545.4 518.646,-1534.47"/>
<polygon fill="red" stroke="red" points="521.595,-1532.56 513.783,-1525.4 515.426,-1535.87 521.595,-1532.56"/>
</g>
<!-- 120&#45;&gt;19 -->
<g id="edge34" class="edge"><title>120&#45;&gt;19</title>
<path fill="none" stroke="green" d="M645.75,-1720.3C652.287,-1710.48 660.597,-1698 667.744,-1687.26"/>
<polygon fill="green" stroke="green" points="670.781,-1689.02 673.41,-1678.75 664.955,-1685.14 670.781,-1689.02"/>
</g>
<!-- 71 -->
<g id="node13" class="node"><title>71</title>
<ellipse fill="none" stroke="black" cx="772.385" cy="-1587.17" rx="18.2703" ry="18.2703"/>
<text text-anchor="middle" x="772.385" y="-1584.97" font-family="Times New Roman,serif" font-size="9.00">71</text>
</g>
<!-- 19&#45;&gt;71 -->
<g id="edge35" class="edge"><title>19&#45;&gt;71</title>
<path fill="none" stroke="red" d="M697.291,-1650.27C711.529,-1638.5 733.866,-1620.03 750.482,-1606.29"/>
<polygon fill="red" stroke="red" points="753.1,-1608.66 758.576,-1599.59 748.639,-1603.27 753.1,-1608.66"/>
</g>
<!-- 30 -->
<g id="node15" class="node"><title>30</title>
<ellipse fill="none" stroke="black" cx="860.385" cy="-1430.32" rx="18.2703" ry="18.2703"/>
<text text-anchor="middle" x="860.385" y="-1428.12" font-family="Times New Roman,serif" font-size="9.00">30</text>
</g>
<!-- 19&#45;&gt;30 -->
<g id="edge61" class="edge"><title>19&#45;&gt;30</title>
<path fill="none" stroke="green" d="M701.195,-1658.05C726.358,-1651.91 772.265,-1637.36 799.385,-1608.39 838.821,-1566.26 852.895,-1497.44 857.819,-1459.18"/>
<polygon fill="green" stroke="green" points="861.348,-1459.14 859.025,-1448.81 854.394,-1458.33 861.348,-1459.14"/>
</g>
<!-- 56 -->
<g id="node43" class="node"><title>56</title>
<ellipse fill="none" stroke="black" cx="594.385" cy="-741.453" rx="18.2703" ry="18.2703"/>
<text text-anchor="middle" x="594.385" y="-739.253" font-family="Times New Roman,serif" font-size="9.00">56</text>
</g>
<!-- 19&#45;&gt;56 -->
<g id="edge27" class="edge"><title>19&#45;&gt;56</title>
<path fill="none" stroke="red" d="M679.243,-1644.74C673.173,-1619.65 661.585,-1571.26 652.385,-1529.96 636.896,-1460.43 631.496,-1443.31 619.385,-1373.11 599.073,-1255.37 599.732,-1225.06 583.385,-1106.71 575.116,-1046.85 564.385,-1032.51 564.385,-972.075 564.385,-972.075 564.385,-972.075 564.385,-891.649 564.385,-847.926 576.921,-798.385 585.786,-768.819"/>
<polygon fill="red" stroke="red" points="589.139,-769.824 588.742,-759.236 582.45,-767.76 589.139,-769.824"/>
</g>
<!-- 34 -->
<g id="node59" class="node"><title>34</title>
<ellipse fill="none" stroke="black" cx="411.385" cy="-72.3848" rx="18.2703" ry="18.2703"/>
<text text-anchor="middle" x="411.385" y="-70.1848" font-family="Times New Roman,serif" font-size="9.00">34</text>
</g>
<!-- 19&#45;&gt;34 -->
<g id="edge22" class="edge"><title>19&#45;&gt;34</title>
<path fill="none" stroke="red" d="M701.44,-1659.22C781.123,-1647.46 1097.38,-1595.41 1097.38,-1509.75 1097.38,-1509.75 1097.38,-1509.75 1097.38,-289.693 1097.38,-149.545 570.016,-88.8684 440.061,-76.0441"/>
<polygon fill="red" stroke="red" points="440.024,-72.5243 429.734,-75.044 439.35,-79.4917 440.024,-72.5243"/>
</g>
<!-- 113 -->
<g id="node16" class="node"><title>113</title>
<ellipse fill="none" stroke="black" cx="676.385" cy="-1430.32" rx="21.4286" ry="21.4286"/>
<text text-anchor="middle" x="676.385" y="-1428.12" font-family="Times New Roman,serif" font-size="9.00">113</text>
</g>
<!-- 54&#45;&gt;113 -->
<g id="edge58" class="edge"><title>54&#45;&gt;113</title>
<path fill="none" stroke="green" d="M678.689,-1490.02C678.358,-1481.6 677.954,-1471.3 677.577,-1461.69"/>
<polygon fill="green" stroke="green" points="681.072,-1461.51 677.183,-1451.65 674.078,-1461.78 681.072,-1461.51"/>
</g>
<!-- 16 -->
<g id="node19" class="node"><title>16</title>
<ellipse fill="none" stroke="black" cx="833.385" cy="-1276.3" rx="18.2703" ry="18.2703"/>
<text text-anchor="middle" x="833.385" y="-1274.1" font-family="Times New Roman,serif" font-size="9.00">16</text>
</g>
<!-- 54&#45;&gt;16 -->
<g id="edge26" class="edge"><title>54&#45;&gt;16</title>
<path fill="none" stroke="green" d="M692.486,-1495.51C715.833,-1473.13 765.025,-1423.26 795.385,-1373.11 808.643,-1351.21 818.95,-1323.86 825.464,-1304"/>
<polygon fill="green" stroke="green" points="828.834,-1304.95 828.52,-1294.36 822.161,-1302.83 828.834,-1304.95"/>
</g>
<!-- 65&#45;&gt;20 -->
<g id="edge29" class="edge"><title>65&#45;&gt;20</title>
<path fill="none" stroke="red" d="M505.153,-1490.02C505.033,-1480.86 504.884,-1469.46 504.749,-1459.16"/>
<polygon fill="red" stroke="red" points="508.246,-1458.9 504.615,-1448.95 501.247,-1458.99 508.246,-1458.9"/>
</g>
<!-- 102 -->
<g id="node14" class="node"><title>102</title>
<ellipse fill="none" stroke="black" cx="774.385" cy="-1508.75" rx="21.4286" ry="21.4286"/>
<text text-anchor="middle" x="774.385" y="-1506.55" font-family="Times New Roman,serif" font-size="9.00">102</text>
</g>
<!-- 71&#45;&gt;102 -->
<g id="edge47" class="edge"><title>71&#45;&gt;102</title>
<path fill="none" stroke="green" d="M772.849,-1568.45C773.069,-1560.03 773.339,-1549.72 773.59,-1540.11"/>
<polygon fill="green" stroke="green" points="777.09,-1540.16 773.853,-1530.08 770.092,-1539.98 777.09,-1540.16"/>
</g>
<!-- 71&#45;&gt;30 -->
<g id="edge36" class="edge"><title>71&#45;&gt;30</title>
<path fill="none" stroke="red" d="M781.082,-1570.91C787.52,-1559.6 796.504,-1543.82 804.385,-1529.96 818.836,-1504.54 835.362,-1475.42 846.696,-1455.45"/>
<polygon fill="red" stroke="red" points="849.77,-1457.12 851.66,-1446.7 843.681,-1453.67 849.77,-1457.12"/>
</g>
<!-- 71&#45;&gt;20 -->
<g id="edge77" class="edge"><title>71&#45;&gt;20</title>
<path fill="none" stroke="green" d="M755.69,-1579.29C732.142,-1569.38 688.064,-1550.06 652.385,-1529.96 606.304,-1504 555.633,-1468.62 527.142,-1448.05"/>
<polygon fill="green" stroke="green" points="529.19,-1445.21 519.042,-1442.17 525.077,-1450.88 529.19,-1445.21"/>
</g>
<!-- 102&#45;&gt;30 -->
<g id="edge48" class="edge"><title>102&#45;&gt;30</title>
<path fill="none" stroke="green" d="M789.76,-1494.08C803.666,-1481.72 824.256,-1463.43 839.621,-1449.77"/>
<polygon fill="green" stroke="green" points="841.967,-1452.37 847.117,-1443.11 837.317,-1447.14 841.967,-1452.37"/>
</g>
<!-- 66 -->
<g id="node17" class="node"><title>66</title>
<ellipse fill="none" stroke="black" cx="898.385" cy="-1351.89" rx="18.2703" ry="18.2703"/>
<text text-anchor="middle" x="898.385" y="-1349.69" font-family="Times New Roman,serif" font-size="9.00">66</text>
</g>
<!-- 30&#45;&gt;66 -->
<g id="edge63" class="edge"><title>30&#45;&gt;66</title>
<path fill="none" stroke="red" d="M868.258,-1413.48C873.354,-1403.24 880.097,-1389.67 885.912,-1377.98"/>
<polygon fill="red" stroke="red" points="889.203,-1379.22 890.521,-1368.71 882.935,-1376.1 889.203,-1379.22"/>
</g>
<!-- 30&#45;&gt;16 -->
<g id="edge18" class="edge"><title>30&#45;&gt;16</title>
<path fill="none" stroke="red" d="M857.34,-1412.18C852.701,-1386.06 843.819,-1336.05 838.271,-1304.81"/>
<polygon fill="red" stroke="red" points="841.655,-1303.84 836.46,-1294.61 834.763,-1305.07 841.655,-1303.84"/>
</g>
<!-- 139 -->
<g id="node18" class="node"><title>139</title>
<ellipse fill="none" stroke="black" cx="765.385" cy="-1351.89" rx="21.4286" ry="21.4286"/>
<text text-anchor="middle" x="765.385" y="-1349.69" font-family="Times New Roman,serif" font-size="9.00">139</text>
</g>
<!-- 113&#45;&gt;139 -->
<g id="edge114" class="edge"><title>113&#45;&gt;139</title>
<path fill="none" stroke="red" d="M692.296,-1415.66C706.091,-1403.81 726.243,-1386.51 741.894,-1373.07"/>
<polygon fill="red" stroke="red" points="744.305,-1375.61 749.611,-1366.44 739.744,-1370.3 744.305,-1375.61"/>
</g>
<!-- 113&#45;&gt;51 -->
<g id="edge108" class="edge"><title>113&#45;&gt;51</title>
<path fill="none" stroke="red" d="M676.829,-1408.67C677.418,-1379.42 678.385,-1324.28 678.385,-1277.3 678.385,-1277.3 678.385,-1277.3 678.385,-891.649 678.385,-849.469 683.93,-838.642 697.385,-798.666 701.011,-787.892 706.205,-776.499 711.07,-766.808"/>
<polygon fill="red" stroke="red" points="714.261,-768.259 715.756,-757.77 708.046,-765.037 714.261,-768.259"/>
</g>
<!-- 66&#45;&gt;16 -->
<g id="edge64" class="edge"><title>66&#45;&gt;16</title>
<path fill="none" stroke="red" d="M886.463,-1337.39C876.842,-1326.5 863.134,-1310.98 852.059,-1298.44"/>
<polygon fill="red" stroke="red" points="854.474,-1295.89 845.231,-1290.71 849.228,-1300.52 854.474,-1295.89"/>
</g>
<!-- 41 -->
<g id="node23" class="node"><title>41</title>
<ellipse fill="none" stroke="black" cx="897.385" cy="-1203.53" rx="18.2703" ry="18.2703"/>
<text text-anchor="middle" x="897.385" y="-1201.33" font-family="Times New Roman,serif" font-size="9.00">41</text>
</g>
<!-- 66&#45;&gt;41 -->
<g id="edge112" class="edge"><title>66&#45;&gt;41</title>
<path fill="none" stroke="green" d="M898.264,-1333.24C898.093,-1308.18 897.778,-1262.06 897.575,-1232.37"/>
<polygon fill="green" stroke="green" points="901.074,-1232.22 897.506,-1222.24 894.074,-1232.27 901.074,-1232.22"/>
</g>
<!-- 139&#45;&gt;16 -->
<g id="edge115" class="edge"><title>139&#45;&gt;16</title>
<path fill="none" stroke="green" d="M779.474,-1335.64C789.558,-1324.73 803.25,-1309.91 814.312,-1297.94"/>
<polygon fill="green" stroke="green" points="816.921,-1300.27 821.137,-1290.55 811.78,-1295.52 816.921,-1300.27"/>
</g>
<!-- 16&#45;&gt;41 -->
<g id="edge89" class="edge"><title>16&#45;&gt;41</title>
<path fill="none" stroke="green" d="M845.423,-1261.98C854.719,-1251.7 867.759,-1237.29 878.45,-1225.46"/>
<polygon fill="green" stroke="green" points="881.289,-1227.54 885.401,-1217.78 876.097,-1222.85 881.289,-1227.54"/>
</g>
<!-- 16&#45;&gt;6 -->
<g id="edge37" class="edge"><title>16&#45;&gt;6</title>
<path fill="none" stroke="red" d="M828.452,-1258.51C820.79,-1232.42 806.004,-1182.09 797.286,-1152.42"/>
<polygon fill="red" stroke="red" points="800.55,-1151.11 794.373,-1142.51 793.834,-1153.09 800.55,-1151.11"/>
</g>
<!-- 48 -->
<g id="node22" class="node"><title>48</title>
<ellipse fill="none" stroke="black" cx="458.385" cy="-1351.89" rx="18.2703" ry="18.2703"/>
<text text-anchor="middle" x="458.385" y="-1349.69" font-family="Times New Roman,serif" font-size="9.00">48</text>
</g>
<!-- 20&#45;&gt;48 -->
<g id="edge53" class="edge"><title>20&#45;&gt;48</title>
<path fill="none" stroke="red" d="M495.297,-1414.22C488.87,-1403.54 480.123,-1389.01 472.757,-1376.77"/>
<polygon fill="red" stroke="red" points="475.61,-1374.72 467.454,-1367.96 469.612,-1378.33 475.61,-1374.72"/>
</g>
<!-- 20&#45;&gt;11 -->
<g id="edge5" class="edge"><title>20&#45;&gt;11</title>
<path fill="none" stroke="red" d="M487.688,-1422.04C469.995,-1413.29 443.038,-1396.79 431.385,-1373.11 420.557,-1351.1 426.022,-1322.96 432.695,-1302.88"/>
<polygon fill="red" stroke="red" points="435.992,-1304.06 436.108,-1293.46 429.411,-1301.67 435.992,-1304.06"/>
</g>
<!-- 31 -->
<g id="node41" class="node"><title>31</title>
<ellipse fill="none" stroke="black" cx="481.385" cy="-817.051" rx="18.2703" ry="18.2703"/>
<text text-anchor="middle" x="481.385" y="-814.851" font-family="Times New Roman,serif" font-size="9.00">31</text>
</g>
<!-- 20&#45;&gt;31 -->
<g id="edge88" class="edge"><title>20&#45;&gt;31</title>
<path fill="none" stroke="red" d="M504.385,-1411.53C504.385,-1383.15 504.385,-1325.86 504.385,-1277.3 504.385,-1277.3 504.385,-1277.3 504.385,-970.075 504.385,-925.901 494.773,-875.31 487.977,-845.058"/>
<polygon fill="red" stroke="red" points="491.372,-844.205 485.711,-835.25 484.552,-845.781 491.372,-844.205"/>
</g>
<!-- 20&#45;&gt;37 -->
<g id="edge17" class="edge"><title>20&#45;&gt;37</title>
<path fill="none" stroke="red" d="M515.746,-1415.65C548.432,-1374.87 640.385,-1249.43 640.385,-1128.93 640.385,-1128.93 640.385,-1128.93 640.385,-1048.5 640.385,-878.042 678.385,-837.314 678.385,-666.855 678.385,-666.855 678.385,-666.855 678.385,-513.659 678.385,-470.247 674.428,-458.57 659.385,-417.848 655.611,-407.634 650.055,-397.047 644.747,-388.022"/>
<polygon fill="red" stroke="red" points="647.593,-385.967 639.39,-379.262 641.621,-389.619 647.593,-385.967"/>
</g>
<!-- 12&#45;&gt;7 -->
<g id="edge105" class="edge"><title>12&#45;&gt;7</title>
<path fill="none" stroke="red" d="M23.5721,-1720.54C31.8113,-1693.82 47.9082,-1641.61 57.2351,-1611.36"/>
<polygon fill="red" stroke="red" points="60.6261,-1612.24 60.2278,-1601.66 53.9368,-1610.18 60.6261,-1612.24"/>
</g>
<!-- 48&#45;&gt;11 -->
<g id="edge54" class="edge"><title>48&#45;&gt;11</title>
<path fill="none" stroke="green" d="M454.906,-1333.82C453.139,-1325.15 450.949,-1314.41 448.955,-1304.63"/>
<polygon fill="green" stroke="green" points="452.323,-1303.63 446.897,-1294.53 445.464,-1305.03 452.323,-1303.63"/>
</g>
<!-- 41&#45;&gt;6 -->
<g id="edge90" class="edge"><title>41&#45;&gt;6</title>
<path fill="none" stroke="green" d="M882.507,-1192.29C863.799,-1179.42 831.6,-1157.28 810.654,-1142.87"/>
<polygon fill="green" stroke="green" points="812.396,-1139.82 802.174,-1137.04 808.429,-1145.59 812.396,-1139.82"/>
</g>
<!-- 41&#45;&gt;37 -->
<g id="edge113" class="edge"><title>41&#45;&gt;37</title>
<path fill="none" stroke="green" d="M898.91,-1184.9C904.046,-1121.66 919.094,-900.382 895.385,-720.24 881.953,-618.184 866.27,-594.777 836.385,-496.274 825.682,-460.998 836.009,-443.345 809.385,-417.848 767.639,-377.87 697.36,-367.661 658.107,-365.163"/>
<polygon fill="green" stroke="green" points="658.073,-361.656 647.908,-364.644 657.717,-368.647 658.073,-361.656"/>
</g>
<!-- 6&#45;&gt;63 -->
<g id="edge40" class="edge"><title>6&#45;&gt;63</title>
<path fill="none" stroke="red" d="M780.929,-1115.98C771.036,-1104.52 755.255,-1086.25 742.875,-1071.91"/>
<polygon fill="red" stroke="red" points="745.234,-1069.29 736.049,-1064.01 739.936,-1073.86 745.234,-1069.29"/>
</g>
<!-- 6&#45;&gt;33 -->
<g id="edge6" class="edge"><title>6&#45;&gt;33</title>
<path fill="none" stroke="red" d="M792.337,-1113.19C795.943,-1087.81 803.711,-1033.13 808.448,-999.782"/>
<polygon fill="red" stroke="red" points="811.93,-1000.16 809.871,-989.768 804.999,-999.176 811.93,-1000.16"/>
</g>
<!-- 10 -->
<g id="node49" class="node"><title>10</title>
<ellipse fill="none" stroke="black" cx="538.385" cy="-590.257" rx="18.2703" ry="18.2703"/>
<text text-anchor="middle" x="538.385" y="-588.057" font-family="Times New Roman,serif" font-size="9.00">10</text>
</g>
<!-- 6&#45;&gt;10 -->
<g id="edge49" class="edge"><title>6&#45;&gt;10</title>
<path fill="none" stroke="green" d="M785.661,-1113.65C778.739,-1094.53 765.16,-1058.23 751.385,-1028.29 707.227,-932.295 640.385,-923.714 640.385,-818.051 640.385,-818.051 640.385,-818.051 640.385,-740.453 640.385,-684.526 590.938,-634.152 560.899,-608.71"/>
<polygon fill="green" stroke="green" points="562.945,-605.861 552.999,-602.211 558.498,-611.267 562.945,-605.861"/>
</g>
<!-- 40 -->
<g id="node29" class="node"><title>40</title>
<ellipse fill="none" stroke="black" cx="380.385" cy="-1203.53" rx="18.2703" ry="18.2703"/>
<text text-anchor="middle" x="380.385" y="-1201.33" font-family="Times New Roman,serif" font-size="9.00">40</text>
</g>
<!-- 11&#45;&gt;40 -->
<g id="edge45" class="edge"><title>11&#45;&gt;40</title>
<path fill="none" stroke="green" d="M431.535,-1261.98C422.383,-1251.7 409.548,-1237.29 399.024,-1225.46"/>
<polygon fill="green" stroke="green" points="401.445,-1222.92 392.181,-1217.78 396.216,-1227.57 401.445,-1222.92"/>
</g>
<!-- 32 -->
<g id="node33" class="node"><title>32</title>
<ellipse fill="none" stroke="black" cx="458.385" cy="-892.649" rx="18.2703" ry="18.2703"/>
<text text-anchor="middle" x="458.385" y="-890.449" font-family="Times New Roman,serif" font-size="9.00">32</text>
</g>
<!-- 11&#45;&gt;32 -->
<g id="edge3" class="edge"><title>11&#45;&gt;32</title>
<path fill="none" stroke="red" d="M447.819,-1258.31C454.503,-1231.16 466.385,-1176.26 466.385,-1128.93 466.385,-1128.93 466.385,-1128.93 466.385,-1048.5 466.385,-1003.95 463.042,-952.289 460.678,-921.326"/>
<polygon fill="red" stroke="red" points="464.161,-920.979 459.89,-911.283 457.183,-921.526 464.161,-920.979"/>
</g>
<!-- 84 -->
<g id="node37" class="node"><title>84</title>
<ellipse fill="none" stroke="black" cx="403.385" cy="-892.649" rx="18.2703" ry="18.2703"/>
<text text-anchor="middle" x="403.385" y="-890.449" font-family="Times New Roman,serif" font-size="9.00">84</text>
</g>
<!-- 11&#45;&gt;84 -->
<g id="edge92" class="edge"><title>11&#45;&gt;84</title>
<path fill="none" stroke="green" d="M440.421,-1257.78C436.05,-1230.38 428.385,-1175.67 428.385,-1128.93 428.385,-1128.93 428.385,-1128.93 428.385,-1048.5 428.385,-1003.19 417.824,-951.367 410.431,-920.635"/>
<polygon fill="green" stroke="green" points="413.77,-919.556 407.97,-910.69 406.974,-921.238 413.77,-919.556"/>
</g>
<!-- 8&#45;&gt;5 -->
<g id="edge67" class="edge"><title>8&#45;&gt;5</title>
<path fill="none" stroke="red" d="M1015.6,-499.677C1014.2,-473.266 1011.38,-414.223 1011.38,-364.463 1011.38,-364.463 1011.38,-364.463 1011.38,-144.154 1011.38,-9.36466 479.776,-8.36087 367.179,-9.65995"/>
<polygon fill="red" stroke="red" points="367.051,-6.16127 357.1,-9.79662 367.146,-13.1606 367.051,-6.16127"/>
</g>
<!-- 63&#45;&gt;33 -->
<g id="edge41" class="edge"><title>63&#45;&gt;33</title>
<path fill="none" stroke="green" d="M738.135,-1036.56C752.342,-1024.22 774.705,-1004.8 791.179,-990.492"/>
<polygon fill="green" stroke="green" points="793.476,-993.133 798.731,-983.933 788.886,-987.848 793.476,-993.133"/>
</g>
<!-- 127 -->
<g id="node30" class="node"><title>127</title>
<ellipse fill="none" stroke="black" cx="379.385" cy="-1127.93" rx="21.4286" ry="21.4286"/>
<text text-anchor="middle" x="379.385" y="-1125.73" font-family="Times New Roman,serif" font-size="9.00">127</text>
</g>
<!-- 40&#45;&gt;127 -->
<g id="edge100" class="edge"><title>40&#45;&gt;127</title>
<path fill="none" stroke="green" d="M380.148,-1185.08C380.044,-1177.47 379.92,-1168.31 379.802,-1159.61"/>
<polygon fill="green" stroke="green" points="383.298,-1159.33 379.663,-1149.38 376.299,-1159.42 383.298,-1159.33"/>
</g>
<!-- 104 -->
<g id="node31" class="node"><title>104</title>
<ellipse fill="none" stroke="black" cx="330.385" cy="-1049.5" rx="21.4286" ry="21.4286"/>
<text text-anchor="middle" x="330.385" y="-1047.3" font-family="Times New Roman,serif" font-size="9.00">104</text>
</g>
<!-- 40&#45;&gt;104 -->
<g id="edge50" class="edge"><title>40&#45;&gt;104</title>
<path fill="none" stroke="green" d="M370.002,-1187.78C363.173,-1177.42 354.57,-1162.99 349.385,-1149.14 341.093,-1126.99 336.254,-1100.62 333.537,-1080.73"/>
<polygon fill="green" stroke="green" points="336.994,-1080.17 332.269,-1070.69 330.049,-1081.05 336.994,-1080.17"/>
</g>
<!-- 129 -->
<g id="node35" class="node"><title>129</title>
<ellipse fill="none" stroke="black" cx="553.385" cy="-1127.93" rx="21.4286" ry="21.4286"/>
<text text-anchor="middle" x="553.385" y="-1125.73" font-family="Times New Roman,serif" font-size="9.00">129</text>
</g>
<!-- 40&#45;&gt;129 -->
<g id="edge116" class="edge"><title>40&#45;&gt;129</title>
<path fill="none" stroke="red" d="M396.973,-1195.47C426.425,-1182.94 488.177,-1156.67 524.662,-1141.15"/>
<polygon fill="red" stroke="red" points="526.403,-1144.21 534.234,-1137.08 523.662,-1137.77 526.403,-1144.21"/>
</g>
<!-- 127&#45;&gt;104 -->
<g id="edge101" class="edge"><title>127&#45;&gt;104</title>
<path fill="none" stroke="red" d="M368.266,-1109.59C362.001,-1099.81 354.052,-1087.42 347.055,-1076.5"/>
<polygon fill="red" stroke="red" points="349.803,-1074.3 341.46,-1067.78 343.911,-1078.08 349.803,-1074.3"/>
</g>
<!-- 104&#45;&gt;5 -->
<g id="edge95" class="edge"><title>104&#45;&gt;5</title>
<path fill="none" stroke="green" d="M330.046,-1028.09C329.262,-978.923 327.385,-850.053 327.385,-742.453 327.385,-742.453 327.385,-742.453 327.385,-144.154 327.385,-102.336 336.547,-53.9044 342.147,-28.2101"/>
<polygon fill="green" stroke="green" points="345.639,-28.6349 344.423,-18.11 338.81,-27.0958 345.639,-28.6349"/>
</g>
<!-- 105 -->
<g id="node32" class="node"><title>105</title>
<ellipse fill="none" stroke="black" cx="379.385" cy="-971.075" rx="21.4286" ry="21.4286"/>
<text text-anchor="middle" x="379.385" y="-968.875" font-family="Times New Roman,serif" font-size="9.00">105</text>
</g>
<!-- 104&#45;&gt;105 -->
<g id="edge51" class="edge"><title>104&#45;&gt;105</title>
<path fill="none" stroke="red" d="M341.504,-1031.16C347.769,-1021.39 355.717,-1008.99 362.714,-998.077"/>
<polygon fill="red" stroke="red" points="365.859,-999.656 368.31,-989.349 359.966,-995.878 365.859,-999.656"/>
</g>
<!-- 119 -->
<g id="node50" class="node"><title>119</title>
<ellipse fill="none" stroke="black" cx="281.385" cy="-971.075" rx="21.4286" ry="21.4286"/>
<text text-anchor="middle" x="281.385" y="-968.875" font-family="Times New Roman,serif" font-size="9.00">119</text>
</g>
<!-- 104&#45;&gt;119 -->
<g id="edge76" class="edge"><title>104&#45;&gt;119</title>
<path fill="none" stroke="red" d="M319.266,-1031.16C313.001,-1021.39 305.052,-1008.99 298.055,-998.077"/>
<polygon fill="red" stroke="red" points="300.803,-995.878 292.46,-989.349 294.911,-999.656 300.803,-995.878"/>
</g>
<!-- 105&#45;&gt;32 -->
<g id="edge52" class="edge"><title>105&#45;&gt;32</title>
<path fill="none" stroke="green" d="M394.244,-955.7C406.649,-943.7 424.451,-926.477 438.155,-913.219"/>
<polygon fill="green" stroke="green" points="440.925,-915.41 445.678,-905.941 436.058,-910.379 440.925,-915.41"/>
</g>
<!-- 105&#45;&gt;84 -->
<g id="edge103" class="edge"><title>105&#45;&gt;84</title>
<path fill="none" stroke="green" d="M385.565,-950.394C388.452,-941.202 391.931,-930.124 395.045,-920.205"/>
<polygon fill="green" stroke="green" points="398.463,-921.004 398.12,-910.415 391.784,-918.907 398.463,-921.004"/>
</g>
<!-- 32&#45;&gt;31 -->
<g id="edge4" class="edge"><title>32&#45;&gt;31</title>
<path fill="none" stroke="green" d="M463.604,-874.948C466.407,-865.978 469.928,-854.71 473.096,-844.573"/>
<polygon fill="green" stroke="green" points="476.465,-845.529 476.107,-834.94 469.783,-843.441 476.465,-845.529"/>
</g>
<!-- 45 -->
<g id="node56" class="node"><title>45</title>
<ellipse fill="none" stroke="black" cx="454.385" cy="-217.924" rx="18.2703" ry="18.2703"/>
<text text-anchor="middle" x="454.385" y="-215.724" font-family="Times New Roman,serif" font-size="9.00">45</text>
</g>
<!-- 32&#45;&gt;45 -->
<g id="edge24" class="edge"><title>32&#45;&gt;45</title>
<path fill="none" stroke="green" d="M443.9,-881.052C422.916,-865.644 386.339,-838.543 384.385,-835.436 361.931,-799.729 365.385,-784.632 365.385,-742.453 365.385,-742.453 365.385,-742.453 365.385,-362.463 365.385,-311.178 406.93,-262.968 433.251,-237.57"/>
<polygon fill="green" stroke="green" points="435.957,-239.831 440.868,-230.443 431.174,-234.72 435.957,-239.831"/>
</g>
<!-- 33&#45;&gt;38 -->
<g id="edge8" class="edge"><title>33&#45;&gt;38</title>
<path fill="none" stroke="green" d="M803.885,-954.609C798.136,-944.147 790.42,-930.107 783.843,-918.138"/>
<polygon fill="green" stroke="green" points="786.755,-916.17 778.871,-909.092 780.62,-919.541 786.755,-916.17"/>
</g>
<!-- 21 -->
<g id="node40" class="node"><title>21</title>
<ellipse fill="none" stroke="black" cx="816.385" cy="-817.051" rx="18.2703" ry="18.2703"/>
<text text-anchor="middle" x="816.385" y="-814.851" font-family="Times New Roman,serif" font-size="9.00">21</text>
</g>
<!-- 33&#45;&gt;21 -->
<g id="edge31" class="edge"><title>33&#45;&gt;21</title>
<path fill="none" stroke="green" d="M812.844,-952.636C813.53,-926.544 814.831,-877.087 815.651,-845.94"/>
<polygon fill="green" stroke="green" points="819.155,-845.844 815.919,-835.755 812.157,-845.659 819.155,-845.844"/>
</g>
<!-- 125 -->
<g id="node44" class="node"><title>125</title>
<ellipse fill="none" stroke="black" cx="865.385" cy="-741.453" rx="21.4286" ry="21.4286"/>
<text text-anchor="middle" x="865.385" y="-739.253" font-family="Times New Roman,serif" font-size="9.00">125</text>
</g>
<!-- 33&#45;&gt;125 -->
<g id="edge109" class="edge"><title>33&#45;&gt;125</title>
<path fill="none" stroke="red" d="M817.576,-952.931C820.858,-941.836 825.087,-927.053 828.385,-913.862 840.729,-864.478 852.732,-806.482 859.574,-772.19"/>
<polygon fill="red" stroke="red" points="863.014,-772.835 861.526,-762.345 856.148,-771.473 863.014,-772.835"/>
</g>
<!-- 129&#45;&gt;38 -->
<g id="edge117" class="edge"><title>129&#45;&gt;38</title>
<path fill="none" stroke="red" d="M567.623,-1111.62C605.426,-1070.98 708.356,-960.331 751.235,-914.235"/>
<polygon fill="red" stroke="red" points="754.034,-916.365 758.282,-906.659 748.909,-911.597 754.034,-916.365"/>
</g>
<!-- 90 -->
<g id="node38" class="node"><title>90</title>
<ellipse fill="none" stroke="black" cx="724.385" cy="-817.051" rx="18.2703" ry="18.2703"/>
<text text-anchor="middle" x="724.385" y="-814.851" font-family="Times New Roman,serif" font-size="9.00">90</text>
</g>
<!-- 38&#45;&gt;90 -->
<g id="edge97" class="edge"><title>38&#45;&gt;90</title>
<path fill="none" stroke="red" d="M761.076,-876.755C754.779,-866.68 746.328,-853.16 739.125,-841.634"/>
<polygon fill="red" stroke="red" points="741.948,-839.547 733.68,-832.922 736.012,-843.257 741.948,-839.547"/>
</g>
<!-- 38&#45;&gt;51 -->
<g id="edge42" class="edge"><title>38&#45;&gt;51</title>
<path fill="none" stroke="green" d="M768.127,-874.176C765.378,-855.233 760.004,-824.276 751.385,-798.666 747.758,-787.892 742.565,-776.499 737.699,-766.808"/>
<polygon fill="green" stroke="green" points="740.724,-765.037 733.014,-757.77 734.509,-768.259 740.724,-765.037"/>
</g>
<!-- 38&#45;&gt;21 -->
<g id="edge9" class="edge"><title>38&#45;&gt;21</title>
<path fill="none" stroke="green" d="M779.694,-876.755C785.991,-866.68 794.441,-853.16 801.645,-841.634"/>
<polygon fill="green" stroke="green" points="804.758,-843.257 807.09,-832.922 798.822,-839.547 804.758,-843.257"/>
</g>
<!-- 99 -->
<g id="node42" class="node"><title>99</title>
<ellipse fill="none" stroke="black" cx="411.385" cy="-817.051" rx="18.2703" ry="18.2703"/>
<text text-anchor="middle" x="411.385" y="-814.851" font-family="Times New Roman,serif" font-size="9.00">99</text>
</g>
<!-- 84&#45;&gt;99 -->
<g id="edge96" class="edge"><title>84&#45;&gt;99</title>
<path fill="none" stroke="red" d="M405.281,-874.207C406.217,-865.591 407.369,-854.997 408.419,-845.34"/>
<polygon fill="red" stroke="red" points="411.901,-845.687 409.502,-835.367 404.942,-844.931 411.901,-845.687"/>
</g>
<!-- 90&#45;&gt;51 -->
<g id="edge98" class="edge"><title>90&#45;&gt;51</title>
<path fill="none" stroke="red" d="M724.385,-798.609C724.385,-790.147 724.385,-779.775 724.385,-770.259"/>
<polygon fill="red" stroke="red" points="727.885,-770.024 724.385,-760.024 720.885,-770.024 727.885,-770.024"/>
</g>
<!-- 21&#45;&gt;56 -->
<g id="edge19" class="edge"><title>21&#45;&gt;56</title>
<path fill="none" stroke="red" d="M798.965,-810.276C760.383,-797.485 667.502,-766.693 621.35,-751.392"/>
<polygon fill="red" stroke="red" points="622.317,-748.026 611.724,-748.201 620.114,-754.67 622.317,-748.026"/>
</g>
<!-- 21&#45;&gt;125 -->
<g id="edge68" class="edge"><title>21&#45;&gt;125</title>
<path fill="none" stroke="red" d="M826.301,-801.157C832.612,-791.678 840.952,-779.151 848.307,-768.103"/>
<polygon fill="red" stroke="red" points="851.308,-769.911 853.937,-759.647 845.482,-766.032 851.308,-769.911"/>
</g>
<!-- 57 -->
<g id="node47" class="node"><title>57</title>
<ellipse fill="none" stroke="black" cx="816.385" cy="-665.855" rx="18.2703" ry="18.2703"/>
<text text-anchor="middle" x="816.385" y="-663.655" font-family="Times New Roman,serif" font-size="9.00">57</text>
</g>
<!-- 21&#45;&gt;57 -->
<g id="edge93" class="edge"><title>21&#45;&gt;57</title>
<path fill="none" stroke="green" d="M816.385,-798.644C816.385,-773.177 816.385,-725.485 816.385,-694.995"/>
<polygon fill="green" stroke="green" points="819.885,-694.613 816.385,-684.613 812.885,-694.613 819.885,-694.613"/>
</g>
<!-- 21&#45;&gt;37 -->
<g id="edge11" class="edge"><title>21&#45;&gt;37</title>
<path fill="none" stroke="red" d="M808.161,-800.424C794.93,-773.787 770.385,-717.542 770.385,-666.855 770.385,-666.855 770.385,-666.855 770.385,-513.659 770.385,-447.176 695.515,-398.362 654.889,-376.769"/>
<polygon fill="red" stroke="red" points="656.328,-373.573 645.835,-372.105 653.123,-379.796 656.328,-373.573"/>
</g>
<!-- 36 -->
<g id="node45" class="node"><title>36</title>
<ellipse fill="none" stroke="black" cx="411.385" cy="-665.855" rx="18.2703" ry="18.2703"/>
<text text-anchor="middle" x="411.385" y="-663.655" font-family="Times New Roman,serif" font-size="9.00">36</text>
</g>
<!-- 31&#45;&gt;36 -->
<g id="edge57" class="edge"><title>31&#45;&gt;36</title>
<path fill="none" stroke="red" d="M473.894,-800.084C461.736,-774.173 437.617,-722.765 423.152,-691.935"/>
<polygon fill="red" stroke="red" points="426.238,-690.273 418.822,-682.707 419.901,-693.246 426.238,-690.273"/>
</g>
<!-- 47 -->
<g id="node46" class="node"><title>47</title>
<ellipse fill="none" stroke="black" cx="495.385" cy="-741.453" rx="18.2703" ry="18.2703"/>
<text text-anchor="middle" x="495.385" y="-739.253" font-family="Times New Roman,serif" font-size="9.00">47</text>
</g>
<!-- 31&#45;&gt;47 -->
<g id="edge16" class="edge"><title>31&#45;&gt;47</title>
<path fill="none" stroke="green" d="M484.703,-798.609C486.341,-789.993 488.357,-779.399 490.194,-769.742"/>
<polygon fill="green" stroke="green" points="493.66,-770.247 492.091,-759.769 486.784,-768.939 493.66,-770.247"/>
</g>
<!-- 31&#45;&gt;10 -->
<g id="edge2" class="edge"><title>31&#45;&gt;10</title>
<path fill="none" stroke="green" d="M494.099,-803.734C503.634,-793.656 516.083,-778.522 522.385,-762.666 541.36,-714.922 542.066,-654.012 540.483,-619.143"/>
<polygon fill="green" stroke="green" points="543.957,-618.578 539.908,-608.787 536.968,-618.965 543.957,-618.578"/>
</g>
<!-- 31&#45;&gt;60 -->
<g id="edge70" class="edge"><title>31&#45;&gt;60</title>
<path fill="none" stroke="green" d="M464.859,-808.673C456.952,-805.324 447.288,-801.49 438.385,-798.666 363.045,-774.77 271.494,-756.095 226.337,-747.545"/>
<polygon fill="green" stroke="green" points="226.877,-744.086 216.404,-745.687 225.59,-750.966 226.877,-744.086"/>
</g>
<!-- 99&#45;&gt;36 -->
<g id="edge65" class="edge"><title>99&#45;&gt;36</title>
<path fill="none" stroke="green" d="M411.385,-798.644C411.385,-773.177 411.385,-725.485 411.385,-694.995"/>
<polygon fill="green" stroke="green" points="414.885,-694.613 411.385,-684.613 407.885,-694.613 414.885,-694.613"/>
</g>
<!-- 56&#45;&gt;36 -->
<g id="edge20" class="edge"><title>56&#45;&gt;36</title>
<path fill="none" stroke="red" d="M577.497,-733.661C545.494,-720.79 475.814,-692.767 437.657,-677.421"/>
<polygon fill="red" stroke="red" points="438.816,-674.115 428.232,-673.63 436.204,-680.609 438.816,-674.115"/>
</g>
<!-- 125&#45;&gt;57 -->
<g id="edge69" class="edge"><title>125&#45;&gt;57</title>
<path fill="none" stroke="red" d="M854.02,-723.383C847.482,-713.563 839.173,-701.082 832.026,-690.347"/>
<polygon fill="red" stroke="red" points="834.815,-688.222 826.36,-681.837 828.988,-692.101 834.815,-688.222"/>
</g>
<!-- 36&#45;&gt;10 -->
<g id="edge39" class="edge"><title>36&#45;&gt;10</title>
<path fill="none" stroke="green" d="M426.957,-655.83C448.666,-643.25 488.242,-620.315 513.914,-605.438"/>
<polygon fill="green" stroke="green" points="515.787,-608.398 522.685,-600.355 512.278,-602.341 515.787,-608.398"/>
</g>
<!-- 62 -->
<g id="node48" class="node"><title>62</title>
<ellipse fill="none" stroke="black" cx="503.385" cy="-665.855" rx="18.2703" ry="18.2703"/>
<text text-anchor="middle" x="503.385" y="-663.655" font-family="Times New Roman,serif" font-size="9.00">62</text>
</g>
<!-- 47&#45;&gt;62 -->
<g id="edge74" class="edge"><title>47&#45;&gt;62</title>
<path fill="none" stroke="green" d="M497.281,-723.011C498.217,-714.395 499.369,-703.801 500.419,-694.144"/>
<polygon fill="green" stroke="green" points="503.901,-694.491 501.502,-684.171 496.942,-693.735 503.901,-694.491"/>
</g>
<!-- 47&#45;&gt;10 -->
<g id="edge87" class="edge"><title>47&#45;&gt;10</title>
<path fill="none" stroke="green" d="M486.716,-725.027C477.282,-706.063 464.969,-673.229 476.385,-647.47 484.111,-630.036 500.212,-615.702 514.069,-605.873"/>
<polygon fill="green" stroke="green" points="516.372,-608.544 522.741,-600.077 512.482,-602.724 516.372,-608.544"/>
</g>
<!-- 57&#45;&gt;37 -->
<g id="edge46" class="edge"><title>57&#45;&gt;37</title>
<path fill="none" stroke="red" d="M819.75,-647.532C827.222,-603.616 840.397,-486.554 784.385,-417.848 753.337,-379.764 693.674,-368.768 658.11,-365.644"/>
<polygon fill="red" stroke="red" points="658.131,-362.136 647.905,-364.906 657.626,-369.118 658.131,-362.136"/>
</g>
<!-- 62&#45;&gt;10 -->
<g id="edge75" class="edge"><title>62&#45;&gt;10</title>
<path fill="none" stroke="red" d="M510.979,-648.885C515.474,-639.434 521.269,-627.249 526.371,-616.519"/>
<polygon fill="red" stroke="red" points="529.671,-617.729 530.805,-607.195 523.35,-614.723 529.671,-617.729"/>
</g>
<!-- 67 -->
<g id="node51" class="node"><title>67</title>
<ellipse fill="none" stroke="black" cx="584.385" cy="-514.659" rx="18.2703" ry="18.2703"/>
<text text-anchor="middle" x="584.385" y="-512.459" font-family="Times New Roman,serif" font-size="9.00">67</text>
</g>
<!-- 10&#45;&gt;67 -->
<g id="edge55" class="edge"><title>10&#45;&gt;67</title>
<path fill="none" stroke="red" d="M547.694,-574.363C553.991,-564.288 562.441,-550.768 569.645,-539.242"/>
<polygon fill="red" stroke="red" points="572.758,-540.865 575.09,-530.53 566.822,-537.155 572.758,-540.865"/>
</g>
<!-- 10&#45;&gt;37 -->
<g id="edge7" class="edge"><title>10&#45;&gt;37</title>
<path fill="none" stroke="green" d="M540.428,-571.899C544.808,-539.7 557.179,-469.319 586.385,-417.848 593.017,-406.16 602.165,-394.396 610.318,-384.897"/>
<polygon fill="green" stroke="green" points="613.132,-386.999 617.14,-377.192 607.89,-382.359 613.132,-386.999"/>
</g>
<!-- 143 -->
<g id="node55" class="node"><title>143</title>
<ellipse fill="none" stroke="black" cx="107.385" cy="-892.649" rx="21.4286" ry="21.4286"/>
<text text-anchor="middle" x="107.385" y="-890.449" font-family="Times New Roman,serif" font-size="9.00">143</text>
</g>
<!-- 119&#45;&gt;143 -->
<g id="edge79" class="edge"><title>119&#45;&gt;143</title>
<path fill="none" stroke="red" d="M262.099,-961.604C231.446,-948.141 171.443,-921.785 135.842,-906.148"/>
<polygon fill="red" stroke="red" points="137.055,-902.858 126.492,-902.041 134.24,-909.267 137.055,-902.858"/>
</g>
<!-- 137 -->
<g id="node52" class="node"><title>137</title>
<ellipse fill="none" stroke="black" cx="629.385" cy="-439.061" rx="21.4286" ry="21.4286"/>
<text text-anchor="middle" x="629.385" y="-436.861" font-family="Times New Roman,serif" font-size="9.00">137</text>
</g>
<!-- 67&#45;&gt;137 -->
<g id="edge83" class="edge"><title>67&#45;&gt;137</title>
<path fill="none" stroke="green" d="M593.709,-498.409C599.38,-489.133 606.777,-477.037 613.363,-466.264"/>
<polygon fill="green" stroke="green" points="616.419,-467.975 618.65,-457.618 610.447,-464.324 616.419,-467.975"/>
</g>
<!-- 67&#45;&gt;37 -->
<g id="edge94" class="edge"><title>67&#45;&gt;37</title>
<path fill="none" stroke="red" d="M585.249,-496.251C586.642,-476.701 590.232,-444.255 599.385,-417.848 602.951,-407.559 608.465,-396.958 613.799,-387.941"/>
<polygon fill="red" stroke="red" points="616.922,-389.545 619.201,-379.198 610.967,-385.865 616.922,-389.545"/>
</g>
<!-- 137&#45;&gt;37 -->
<g id="edge84" class="edge"><title>137&#45;&gt;37</title>
<path fill="none" stroke="red" d="M629.385,-417.56C629.385,-409.665 629.385,-400.515 629.385,-392.058"/>
<polygon fill="red" stroke="red" points="632.885,-391.864 629.385,-381.864 625.885,-391.864 632.885,-391.864"/>
</g>
<!-- 37&#45;&gt;97 -->
<g id="edge81" class="edge"><title>37&#45;&gt;97</title>
<path fill="none" stroke="red" d="M629.385,-344.969C629.385,-337.287 629.385,-328.078 629.385,-319.494"/>
<polygon fill="red" stroke="red" points="632.885,-319.477 629.385,-309.477 625.885,-319.477 632.885,-319.477"/>
</g>
<!-- 37&#45;&gt;45 -->
<g id="edge86" class="edge"><title>37&#45;&gt;45</title>
<path fill="none" stroke="red" d="M615.653,-351.2C585.516,-326.481 513.352,-267.29 476.644,-237.181"/>
<polygon fill="red" stroke="red" points="478.491,-234.169 468.539,-230.534 474.051,-239.582 478.491,-234.169"/>
</g>
<!-- 97&#45;&gt;45 -->
<g id="edge82" class="edge"><title>97&#45;&gt;45</title>
<path fill="none" stroke="red" d="M612.605,-282.908C582.03,-270.543 517.045,-244.264 480.588,-229.52"/>
<polygon fill="red" stroke="red" points="481.697,-226.193 471.114,-225.689 479.072,-232.683 481.697,-226.193"/>
</g>
<!-- 142 -->
<g id="node58" class="node"><title>142</title>
<ellipse fill="none" stroke="black" cx="109.385" cy="-590.257" rx="21.4286" ry="21.4286"/>
<text text-anchor="middle" x="109.385" y="-588.057" font-family="Times New Roman,serif" font-size="9.00">142</text>
</g>
<!-- 143&#45;&gt;142 -->
<g id="edge80" class="edge"><title>143&#45;&gt;142</title>
<path fill="none" stroke="red" d="M107.522,-871.002C107.868,-819.108 108.774,-683.016 109.181,-621.828"/>
<polygon fill="red" stroke="red" points="112.682,-621.674 109.249,-611.651 105.682,-621.628 112.682,-621.674"/>
</g>
<!-- 45&#45;&gt;28 -->
<g id="edge10" class="edge"><title>45&#45;&gt;28</title>
<path fill="none" stroke="green" d="M442.723,-203.613C433.831,-193.463 421.404,-179.278 411.123,-167.542"/>
<polygon fill="green" stroke="green" points="413.639,-165.104 404.417,-159.889 408.374,-169.717 413.639,-165.104"/>
</g>
<!-- 28&#45;&gt;5 -->
<g id="edge1" class="edge"><title>28&#45;&gt;5</title>
<path fill="none" stroke="green" d="M386.652,-127.435C377.927,-101.991 361.391,-53.765 352.465,-27.7315"/>
<polygon fill="green" stroke="green" points="355.704,-26.3882 349.15,-18.0641 349.083,-28.6587 355.704,-26.3882"/>
</g>
<!-- 28&#45;&gt;34 -->
<g id="edge15" class="edge"><title>28&#45;&gt;34</title>
<path fill="none" stroke="green" d="M396.984,-127.023C399.155,-118.939 401.795,-109.104 404.219,-100.075"/>
<polygon fill="green" stroke="green" points="407.615,-100.924 406.828,-90.3583 400.854,-99.1088 407.615,-100.924"/>
</g>
<!-- 142&#45;&gt;5 -->
<g id="edge78" class="edge"><title>142&#45;&gt;5</title>
<path fill="none" stroke="red" d="M110.716,-568.996C112.484,-540.31 115.385,-486.204 115.385,-440.061 115.385,-440.061 115.385,-440.061 115.385,-144.154 115.385,-101.926 113.988,-82.2407 145.385,-54 171.95,-30.105 279.735,-16.6866 325.583,-11.9625"/>
<polygon fill="red" stroke="red" points="326.212,-15.4174 335.818,-10.9477 325.521,-8.45158 326.212,-15.4174"/>
</g>
<!-- 34&#45;&gt;5 -->
<g id="edge59" class="edge"><title>34&#45;&gt;5</title>
<path fill="none" stroke="red" d="M398.231,-58.9627C387.843,-49.1524 373.309,-35.4266 362.271,-25.0031"/>
<polygon fill="red" stroke="red" points="364.635,-22.4214 354.962,-18.1 359.829,-27.5106 364.635,-22.4214"/>
</g>
<!-- 60&#45;&gt;5 -->
<g id="edge91" class="edge"><title>60&#45;&gt;5</title>
<path fill="none" stroke="red" d="M191.232,-724.258C179.973,-697.249 159.385,-641.054 159.385,-591.257 159.385,-591.257 159.385,-591.257 159.385,-144.154 159.385,-62.975 277.172,-26.1506 325.783,-14.4097"/>
<polygon fill="red" stroke="red" points="326.831,-17.7604 335.795,-12.1135 325.266,-10.9375 326.831,-17.7604"/>
</g>
<!-- 85 -->
<g id="node61" class="node"><title>85</title>
<ellipse fill="none" stroke="black" cx="205.385" cy="-665.855" rx="18.2703" ry="18.2703"/>
<text text-anchor="middle" x="205.385" y="-663.655" font-family="Times New Roman,serif" font-size="9.00">85</text>
</g>
<!-- 60&#45;&gt;85 -->
<g id="edge72" class="edge"><title>60&#45;&gt;85</title>
<path fill="none" stroke="green" d="M200.044,-723.011C200.863,-714.395 201.871,-703.801 202.789,-694.144"/>
<polygon fill="green" stroke="green" points="206.275,-694.458 203.738,-684.171 199.307,-693.795 206.275,-694.458"/>
</g>
<!-- 70 -->
<g id="node62" class="node"><title>70</title>
<ellipse fill="none" stroke="black" cx="216.385" cy="-439.061" rx="18.2703" ry="18.2703"/>
<text text-anchor="middle" x="216.385" y="-436.861" font-family="Times New Roman,serif" font-size="9.00">70</text>
</g>
<!-- 85&#45;&gt;70 -->
<g id="edge73" class="edge"><title>85&#45;&gt;70</title>
<path fill="none" stroke="red" d="M206.248,-647.216C208.156,-608.231 212.743,-514.493 215.034,-467.66"/>
<polygon fill="red" stroke="red" points="218.533,-467.777 215.526,-457.618 211.541,-467.435 218.533,-467.777"/>
</g>
<!-- 70&#45;&gt;5 -->
<g id="edge71" class="edge"><title>70&#45;&gt;5</title>
<path fill="none" stroke="green" d="M218.163,-420.509C220.786,-393.058 225.385,-338.283 225.385,-291.693 225.385,-291.693 225.385,-291.693 225.385,-144.154 225.385,-84.4915 292.193,-39.4233 326.525,-20.2023"/>
<polygon fill="green" stroke="green" points="328.511,-23.1077 335.647,-15.2767 325.185,-16.9483 328.511,-23.1077"/>
</g>
</g>
</svg>
