<?xml version="1.0" encoding="UTF-8" standalone="no"?>
<!DOCTYPE svg PUBLIC "-//W3C//DTD SVG 1.1//EN"
 "http://www.w3.org/Graphics/SVG/1.1/DTD/svg11.dtd">
<!-- Generated by graphviz version 2.38.0 (20140413.2041)
 -->
<!-- Title: %3 Pages: 1 -->
<svg width="784pt" height="1788pt"
 viewBox="0.00 0.00 784.38 1787.64" xmlns="http://www.w3.org/2000/svg" xmlns:xlink="http://www.w3.org/1999/xlink">
<g id="graph0" class="graph" transform="scale(1 1) rotate(0) translate(4 1783.64)">
<title>%3</title>
<polygon fill="white" stroke="none" points="-4,4 -4,-1783.64 780.385,-1783.64 780.385,4 -4,4"/>
<!-- 1 -->
<g id="node1" class="node"><title>1</title>
<polygon fill="lightgray" stroke="black" points="639.5,-1779.64 618.5,-1779.64 618.5,-1761.64 639.5,-1761.64 639.5,-1779.64"/>
<text text-anchor="middle" x="629" y="-1768.44" font-family="Times New Roman,serif" font-size="9.00">1</text>
</g>
<!-- 29 -->
<g id="node6" class="node"><title>29</title>
<ellipse fill="none" stroke="black" cx="354" cy="-1707.26" rx="18.2703" ry="18.2703"/>
<text text-anchor="middle" x="354" y="-1705.06" font-family="Times New Roman,serif" font-size="9.00">29</text>
</g>
<!-- 1&#45;&gt;29 -->
<g id="edge39" class="edge"><title>1&#45;&gt;29</title>
<path fill="none" stroke="red" d="M618.22,-1767.23C578.687,-1758.41 440.894,-1727.65 381.542,-1714.4"/>
<polygon fill="red" stroke="red" points="382.26,-1710.98 371.738,-1712.22 380.735,-1717.81 382.26,-1710.98"/>
</g>
<!-- 19 -->
<g id="node8" class="node"><title>19</title>
<ellipse fill="none" stroke="black" cx="305" cy="-1556.06" rx="18.2703" ry="18.2703"/>
<text text-anchor="middle" x="305" y="-1553.86" font-family="Times New Roman,serif" font-size="9.00">19</text>
</g>
<!-- 1&#45;&gt;19 -->
<g id="edge72" class="edge"><title>1&#45;&gt;19</title>
<path fill="none" stroke="red" d="M618.22,-1762.57C572.485,-1732.56 393.875,-1615.37 328.846,-1572.71"/>
<polygon fill="red" stroke="red" points="330.386,-1569.53 320.105,-1566.97 326.546,-1575.38 330.386,-1569.53"/>
</g>
<!-- 76 -->
<g id="node11" class="node"><title>76</title>
<ellipse fill="none" stroke="black" cx="758" cy="-1707.26" rx="18.2703" ry="18.2703"/>
<text text-anchor="middle" x="758" y="-1705.06" font-family="Times New Roman,serif" font-size="9.00">76</text>
</g>
<!-- 1&#45;&gt;76 -->
<g id="edge82" class="edge"><title>1&#45;&gt;76</title>
<path fill="none" stroke="red" d="M639.595,-1765.13C657.554,-1757.42 695.042,-1741.05 726,-1725.64 728.328,-1724.48 730.734,-1723.25 733.132,-1721.99"/>
<polygon fill="red" stroke="red" points="735.006,-1724.96 742.167,-1717.15 731.7,-1718.79 735.006,-1724.96"/>
</g>
<!-- 7 -->
<g id="node24" class="node"><title>7</title>
<ellipse fill="none" stroke="black" cx="717" cy="-1332.09" rx="14.7" ry="14.7"/>
<text text-anchor="middle" x="717" y="-1329.89" font-family="Times New Roman,serif" font-size="9.00">7</text>
</g>
<!-- 1&#45;&gt;7 -->
<g id="edge15" class="edge"><title>1&#45;&gt;7</title>
<path fill="none" stroke="green" d="M639.931,-1764.43C653.326,-1757.48 675.749,-1743.89 688,-1725.64 711.792,-1690.21 712,-1675.34 712,-1632.66 712,-1632.66 712,-1632.66 712,-1482.29 712,-1438.17 714.211,-1386.75 715.693,-1357.25"/>
<polygon fill="green" stroke="green" points="719.198,-1357.24 716.219,-1347.08 712.207,-1356.88 719.198,-1357.24"/>
</g>
<!-- 28 -->
<g id="node47" class="node"><title>28</title>
<ellipse fill="none" stroke="black" cx="501" cy="-217.924" rx="18.2703" ry="18.2703"/>
<text text-anchor="middle" x="501" y="-215.724" font-family="Times New Roman,serif" font-size="9.00">28</text>
</g>
<!-- 1&#45;&gt;28 -->
<g id="edge66" class="edge"><title>1&#45;&gt;28</title>
<path fill="none" stroke="green" d="M618.346,-1769.68C535.691,-1769.69 0,-1764.68 0,-1632.66 0,-1632.66 0,-1632.66 0,-580.772 0,-345.303 368.197,-247.627 473.297,-224.543"/>
<polygon fill="green" stroke="green" points="474.125,-227.945 483.169,-222.426 472.658,-221.101 474.125,-227.945"/>
</g>
<!-- 60 -->
<g id="node49" class="node"><title>60</title>
<ellipse fill="none" stroke="black" cx="652" cy="-72.3848" rx="18.2703" ry="18.2703"/>
<text text-anchor="middle" x="652" y="-70.1848" font-family="Times New Roman,serif" font-size="9.00">60</text>
</g>
<!-- 1&#45;&gt;60 -->
<g id="edge75" class="edge"><title>1&#45;&gt;60</title>
<path fill="none" stroke="green" d="M633.646,-1761.61C645.144,-1740.94 674,-1683.97 674,-1632.66 674,-1632.66 674,-1632.66 674,-216.924 674,-176.014 665.161,-129.295 658.688,-100.568"/>
<polygon fill="green" stroke="green" points="662.019,-99.4375 656.346,-90.4889 655.2,-101.022 662.019,-99.4375"/>
</g>
<!-- 2 -->
<g id="node2" class="node"><title>2</title>
<polygon fill="lightgray" stroke="black" points="94.5,-968.762 73.5,-968.762 73.5,-950.762 94.5,-950.762 94.5,-968.762"/>
<text text-anchor="middle" x="84" y="-957.562" font-family="Times New Roman,serif" font-size="9.00">2</text>
</g>
<!-- 5 -->
<g id="node5" class="node"><title>5</title>
<polygon fill="lightblue" stroke="black" points="578.5,-18 557.5,-18 557.5,-0 578.5,-0 578.5,-18"/>
<text text-anchor="middle" x="568" y="-6.8" font-family="Times New Roman,serif" font-size="9.00">5</text>
</g>
<!-- 2&#45;&gt;5 -->
<g id="edge1" class="edge"><title>2&#45;&gt;5</title>
<path fill="none" stroke="green" d="M79.7549,-950.623C68.3672,-928.011 38,-862.243 38,-803.909 38,-803.909 38,-803.909 38,-144.154 38,-37.1041 449.485,-14.5481 547.313,-10.6983"/>
<polygon fill="green" stroke="green" points="547.549,-14.1921 557.413,-10.3249 547.291,-7.19683 547.549,-14.1921"/>
</g>
<!-- 33 -->
<g id="node31" class="node"><title>33</title>
<ellipse fill="none" stroke="black" cx="160" cy="-881.335" rx="18.2703" ry="18.2703"/>
<text text-anchor="middle" x="160" y="-879.135" font-family="Times New Roman,serif" font-size="9.00">33</text>
</g>
<!-- 2&#45;&gt;33 -->
<g id="edge51" class="edge"><title>2&#45;&gt;33</title>
<path fill="none" stroke="green" d="M92.1333,-950.583C103.519,-939.133 124.57,-917.964 140.22,-902.227"/>
<polygon fill="green" stroke="green" points="142.833,-904.562 147.402,-895.004 137.869,-899.627 142.833,-904.562"/>
</g>
<!-- 38 -->
<g id="node32" class="node"><title>38</title>
<ellipse fill="none" stroke="black" cx="131" cy="-802.909" rx="18.2703" ry="18.2703"/>
<text text-anchor="middle" x="131" y="-800.709" font-family="Times New Roman,serif" font-size="9.00">38</text>
</g>
<!-- 2&#45;&gt;38 -->
<g id="edge16" class="edge"><title>2&#45;&gt;38</title>
<path fill="none" stroke="red" d="M86.5269,-950.436C93.295,-928.137 112.054,-866.33 122.925,-830.513"/>
<polygon fill="red" stroke="red" points="126.339,-831.315 125.895,-820.729 119.641,-829.282 126.339,-831.315"/>
</g>
<!-- 51 -->
<g id="node35" class="node"><title>51</title>
<ellipse fill="none" stroke="black" cx="89" cy="-654.541" rx="18.2703" ry="18.2703"/>
<text text-anchor="middle" x="89" y="-652.341" font-family="Times New Roman,serif" font-size="9.00">51</text>
</g>
<!-- 2&#45;&gt;51 -->
<g id="edge86" class="edge"><title>2&#45;&gt;51</title>
<path fill="none" stroke="green" d="M84.1337,-950.651C84.7648,-912.378 87.4597,-748.95 88.5447,-683.151"/>
<polygon fill="green" stroke="green" points="92.0449,-683.164 88.7103,-673.107 85.0458,-683.048 92.0449,-683.164"/>
</g>
<!-- 3 -->
<g id="node3" class="node"><title>3</title>
<polygon fill="lightgray" stroke="black" points="424.5,-1189.9 403.5,-1189.9 403.5,-1171.9 424.5,-1171.9 424.5,-1189.9"/>
<text text-anchor="middle" x="414" y="-1178.7" font-family="Times New Roman,serif" font-size="9.00">3</text>
</g>
<!-- 6 -->
<g id="node22" class="node"><title>6</title>
<ellipse fill="none" stroke="black" cx="193" cy="-1035.36" rx="14.7" ry="14.7"/>
<text text-anchor="middle" x="193" y="-1033.16" font-family="Times New Roman,serif" font-size="9.00">6</text>
</g>
<!-- 3&#45;&gt;6 -->
<g id="edge27" class="edge"><title>3&#45;&gt;6</title>
<path fill="none" stroke="green" d="M403.341,-1172.98C368.816,-1150.55 259.644,-1079.64 213.698,-1049.8"/>
<polygon fill="green" stroke="green" points="215.44,-1046.76 205.147,-1044.25 211.627,-1052.63 215.44,-1046.76"/>
</g>
<!-- 11 -->
<g id="node23" class="node"><title>11</title>
<ellipse fill="none" stroke="black" cx="457" cy="-1108.13" rx="18.2703" ry="18.2703"/>
<text text-anchor="middle" x="457" y="-1105.93" font-family="Times New Roman,serif" font-size="9.00">11</text>
</g>
<!-- 3&#45;&gt;11 -->
<g id="edge25" class="edge"><title>3&#45;&gt;11</title>
<path fill="none" stroke="red" d="M418.933,-1171.78C424.632,-1162.4 434.274,-1146.53 442.427,-1133.11"/>
<polygon fill="red" stroke="red" points="445.566,-1134.69 447.767,-1124.32 439.583,-1131.05 445.566,-1134.69"/>
</g>
<!-- 4 -->
<g id="node4" class="node"><title>4</title>
<polygon fill="lightgray" stroke="black" points="417.5,-1416.69 396.5,-1416.69 396.5,-1398.69 417.5,-1398.69 417.5,-1416.69"/>
<text text-anchor="middle" x="407" y="-1405.49" font-family="Times New Roman,serif" font-size="9.00">4</text>
</g>
<!-- 54 -->
<g id="node9" class="node"><title>54</title>
<ellipse fill="none" stroke="black" cx="212" cy="-1332.09" rx="18.2703" ry="18.2703"/>
<text text-anchor="middle" x="212" y="-1329.89" font-family="Times New Roman,serif" font-size="9.00">54</text>
</g>
<!-- 4&#45;&gt;54 -->
<g id="edge29" class="edge"><title>4&#45;&gt;54</title>
<path fill="none" stroke="green" d="M396.238,-1402.63C366.45,-1391.39 282.246,-1359.61 238.748,-1343.19"/>
<polygon fill="green" stroke="green" points="239.712,-1339.81 229.12,-1339.56 237.24,-1346.36 239.712,-1339.81"/>
</g>
<!-- 65 -->
<g id="node10" class="node"><title>65</title>
<ellipse fill="none" stroke="black" cx="407" cy="-1332.09" rx="18.2703" ry="18.2703"/>
<text text-anchor="middle" x="407" y="-1329.89" font-family="Times New Roman,serif" font-size="9.00">65</text>
</g>
<!-- 4&#45;&gt;65 -->
<g id="edge33" class="edge"><title>4&#45;&gt;65</title>
<path fill="none" stroke="green" d="M407,-1398.54C407,-1389.44 407,-1374.23 407,-1360.77"/>
<polygon fill="green" stroke="green" points="410.5,-1360.49 407,-1350.49 403.5,-1360.49 410.5,-1360.49"/>
</g>
<!-- 20 -->
<g id="node18" class="node"><title>20</title>
<ellipse fill="none" stroke="black" cx="453" cy="-1256.5" rx="18.2703" ry="18.2703"/>
<text text-anchor="middle" x="453" y="-1254.3" font-family="Times New Roman,serif" font-size="9.00">20</text>
</g>
<!-- 4&#45;&gt;20 -->
<g id="edge45" class="edge"><title>4&#45;&gt;20</title>
<path fill="none" stroke="green" d="M411.686,-1398.58C417.677,-1387.89 427.991,-1368.33 434,-1350.48 441.239,-1328.97 446.189,-1303.69 449.217,-1284.92"/>
<polygon fill="green" stroke="green" points="452.687,-1285.38 450.742,-1274.97 445.768,-1284.32 452.687,-1285.38"/>
</g>
<!-- 4&#45;&gt;7 -->
<g id="edge17" class="edge"><title>4&#45;&gt;7</title>
<path fill="none" stroke="green" d="M417.671,-1404.16C461.652,-1393.72 629.522,-1353.86 692.733,-1338.86"/>
<polygon fill="green" stroke="green" points="693.687,-1342.23 702.608,-1336.51 692.07,-1335.42 693.687,-1342.23"/>
</g>
<!-- 37 -->
<g id="node45" class="node"><title>37</title>
<ellipse fill="none" stroke="black" cx="353" cy="-363.463" rx="18.2703" ry="18.2703"/>
<text text-anchor="middle" x="353" y="-361.263" font-family="Times New Roman,serif" font-size="9.00">37</text>
</g>
<!-- 4&#45;&gt;37 -->
<g id="edge35" class="edge"><title>4&#45;&gt;37</title>
<path fill="none" stroke="green" d="M396.25,-1399.38C368.932,-1379.84 299,-1323.37 299,-1257.5 299,-1257.5 299,-1257.5 299,-958.762 299,-791.617 307,-749.916 307,-582.772 307,-582.772 307,-582.772 307,-508.002 307,-467.053 312.422,-456.48 326,-417.848 329.44,-408.061 334.305,-397.786 338.96,-388.892"/>
<polygon fill="green" stroke="green" points="342.161,-390.331 343.851,-379.872 336.007,-386.994 342.161,-390.331"/>
</g>
<!-- 120 -->
<g id="node7" class="node"><title>120</title>
<ellipse fill="none" stroke="black" cx="305" cy="-1631.66" rx="21.4286" ry="21.4286"/>
<text text-anchor="middle" x="305" y="-1629.46" font-family="Times New Roman,serif" font-size="9.00">120</text>
</g>
<!-- 29&#45;&gt;120 -->
<g id="edge40" class="edge"><title>29&#45;&gt;120</title>
<path fill="none" stroke="green" d="M344.084,-1691.36C337.773,-1681.88 329.433,-1669.36 322.077,-1658.31"/>
<polygon fill="green" stroke="green" points="324.903,-1656.24 316.448,-1649.85 319.076,-1660.12 324.903,-1656.24"/>
</g>
<!-- 29&#45;&gt;19 -->
<g id="edge52" class="edge"><title>29&#45;&gt;19</title>
<path fill="none" stroke="green" d="M352.223,-1688.85C349.848,-1669.3 344.755,-1636.85 335,-1610.44 331.227,-1600.23 325.671,-1589.64 320.362,-1580.62"/>
<polygon fill="green" stroke="green" points="323.208,-1578.56 315.005,-1571.86 317.237,-1582.22 323.208,-1578.56"/>
</g>
<!-- 120&#45;&gt;19 -->
<g id="edge41" class="edge"><title>120&#45;&gt;19</title>
<path fill="none" stroke="red" d="M305,-1610.16C305,-1602.26 305,-1593.11 305,-1584.66"/>
<polygon fill="red" stroke="red" points="308.5,-1584.46 305,-1574.46 301.5,-1584.46 308.5,-1584.46"/>
</g>
<!-- 71 -->
<g id="node12" class="node"><title>71</title>
<ellipse fill="none" stroke="black" cx="171" cy="-1483.29" rx="18.2703" ry="18.2703"/>
<text text-anchor="middle" x="171" y="-1481.09" font-family="Times New Roman,serif" font-size="9.00">71</text>
</g>
<!-- 19&#45;&gt;71 -->
<g id="edge42" class="edge"><title>19&#45;&gt;71</title>
<path fill="none" stroke="red" d="M289.102,-1546.66C266.033,-1534.48 223.063,-1511.79 195.805,-1497.39"/>
<polygon fill="red" stroke="red" points="197.354,-1494.25 186.877,-1492.68 194.085,-1500.44 197.354,-1494.25"/>
</g>
<!-- 30 -->
<g id="node14" class="node"><title>30</title>
<ellipse fill="none" stroke="black" cx="122" cy="-1332.09" rx="18.2703" ry="18.2703"/>
<text text-anchor="middle" x="122" y="-1329.89" font-family="Times New Roman,serif" font-size="9.00">30</text>
</g>
<!-- 19&#45;&gt;30 -->
<g id="edge73" class="edge"><title>19&#45;&gt;30</title>
<path fill="none" stroke="red" d="M290.711,-1543.65C278.361,-1533.4 260.432,-1517.56 247,-1501.68 207.551,-1455.03 209.693,-1434.56 172,-1386.48 162.851,-1374.81 151.644,-1362.68 142.161,-1352.93"/>
<polygon fill="red" stroke="red" points="144.516,-1350.34 134.997,-1345.68 139.537,-1355.26 144.516,-1350.34"/>
</g>
<!-- 56 -->
<g id="node39" class="node"><title>56</title>
<ellipse fill="none" stroke="black" cx="261" cy="-654.541" rx="18.2703" ry="18.2703"/>
<text text-anchor="middle" x="261" y="-652.341" font-family="Times New Roman,serif" font-size="9.00">56</text>
</g>
<!-- 19&#45;&gt;56 -->
<g id="edge31" class="edge"><title>19&#45;&gt;56</title>
<path fill="none" stroke="red" d="M296.93,-1539.28C284.227,-1512.95 261,-1458.05 261,-1408.69 261,-1408.69 261,-1408.69 261,-801.909 261,-760.674 261,-712.906 261,-683.454"/>
<polygon fill="red" stroke="red" points="264.5,-683.115 261,-673.115 257.5,-683.115 264.5,-683.115"/>
</g>
<!-- 34 -->
<g id="node48" class="node"><title>34</title>
<ellipse fill="none" stroke="black" cx="619" cy="-145.154" rx="18.2703" ry="18.2703"/>
<text text-anchor="middle" x="619" y="-142.954" font-family="Times New Roman,serif" font-size="9.00">34</text>
</g>
<!-- 19&#45;&gt;34 -->
<g id="edge26" class="edge"><title>19&#45;&gt;34</title>
<path fill="none" stroke="red" d="M323.744,-1555.39C393.765,-1555.58 636,-1546.3 636,-1408.69 636,-1408.69 636,-1408.69 636,-289.693 636,-248.973 629.17,-202.203 624.168,-173.414"/>
<polygon fill="red" stroke="red" points="627.567,-172.537 622.359,-163.311 620.676,-173.771 627.567,-172.537"/>
</g>
<!-- 113 -->
<g id="node15" class="node"><title>113</title>
<ellipse fill="none" stroke="black" cx="212" cy="-1256.5" rx="21.4286" ry="21.4286"/>
<text text-anchor="middle" x="212" y="-1254.3" font-family="Times New Roman,serif" font-size="9.00">113</text>
</g>
<!-- 54&#45;&gt;113 -->
<g id="edge68" class="edge"><title>54&#45;&gt;113</title>
<path fill="none" stroke="green" d="M212,-1313.65C212,-1306.04 212,-1296.88 212,-1288.18"/>
<polygon fill="green" stroke="green" points="215.5,-1287.95 212,-1277.95 208.5,-1287.95 215.5,-1287.95"/>
</g>
<!-- 16 -->
<g id="node17" class="node"><title>16</title>
<ellipse fill="none" stroke="black" cx="159" cy="-1180.9" rx="18.2703" ry="18.2703"/>
<text text-anchor="middle" x="159" y="-1178.7" font-family="Times New Roman,serif" font-size="9.00">16</text>
</g>
<!-- 54&#45;&gt;16 -->
<g id="edge30" class="edge"><title>54&#45;&gt;16</title>
<path fill="none" stroke="red" d="M202.169,-1316.23C195.656,-1305.81 187.357,-1291.37 182,-1277.71 173.251,-1255.4 167.191,-1228.83 163.496,-1209.33"/>
<polygon fill="red" stroke="red" points="166.906,-1208.51 161.685,-1199.3 160.017,-1209.76 166.906,-1208.51"/>
</g>
<!-- 65&#45;&gt;20 -->
<g id="edge34" class="edge"><title>65&#45;&gt;20</title>
<path fill="none" stroke="red" d="M416.309,-1316.2C422.606,-1306.13 431.056,-1292.61 438.26,-1281.08"/>
<polygon fill="red" stroke="red" points="441.373,-1282.7 443.705,-1272.37 435.437,-1278.99 441.373,-1282.7"/>
</g>
<!-- 12 -->
<g id="node19" class="node"><title>12</title>
<ellipse fill="none" stroke="black" cx="758" cy="-1407.69" rx="18.2703" ry="18.2703"/>
<text text-anchor="middle" x="758" y="-1405.49" font-family="Times New Roman,serif" font-size="9.00">12</text>
</g>
<!-- 76&#45;&gt;12 -->
<g id="edge83" class="edge"><title>76&#45;&gt;12</title>
<path fill="none" stroke="green" d="M758,-1688.53C758,-1638.71 758,-1497.11 758,-1436.63"/>
<polygon fill="green" stroke="green" points="761.5,-1436.32 758,-1426.32 754.5,-1436.32 761.5,-1436.32"/>
</g>
<!-- 102 -->
<g id="node13" class="node"><title>102</title>
<ellipse fill="none" stroke="black" cx="122" cy="-1407.69" rx="21.4286" ry="21.4286"/>
<text text-anchor="middle" x="122" y="-1405.49" font-family="Times New Roman,serif" font-size="9.00">102</text>
</g>
<!-- 71&#45;&gt;102 -->
<g id="edge56" class="edge"><title>71&#45;&gt;102</title>
<path fill="none" stroke="red" d="M161.084,-1467.4C154.773,-1457.92 146.433,-1445.39 139.077,-1434.34"/>
<polygon fill="red" stroke="red" points="141.903,-1432.27 133.448,-1425.89 136.076,-1436.15 141.903,-1432.27"/>
</g>
<!-- 71&#45;&gt;30 -->
<g id="edge43" class="edge"><title>71&#45;&gt;30</title>
<path fill="none" stroke="green" d="M169.223,-1464.88C166.848,-1445.33 161.755,-1412.89 152,-1386.48 148.227,-1376.27 142.671,-1365.68 137.362,-1356.65"/>
<polygon fill="green" stroke="green" points="140.208,-1354.6 132.005,-1347.89 134.237,-1358.25 140.208,-1354.6"/>
</g>
<!-- 102&#45;&gt;30 -->
<g id="edge57" class="edge"><title>102&#45;&gt;30</title>
<path fill="none" stroke="red" d="M122,-1386.19C122,-1378.3 122,-1369.15 122,-1360.69"/>
<polygon fill="red" stroke="red" points="125.5,-1360.5 122,-1350.5 118.5,-1360.5 125.5,-1360.5"/>
</g>
<!-- 66 -->
<g id="node16" class="node"><title>66</title>
<ellipse fill="none" stroke="black" cx="117" cy="-1256.5" rx="18.2703" ry="18.2703"/>
<text text-anchor="middle" x="117" y="-1254.3" font-family="Times New Roman,serif" font-size="9.00">66</text>
</g>
<!-- 30&#45;&gt;66 -->
<g id="edge76" class="edge"><title>30&#45;&gt;66</title>
<path fill="none" stroke="green" d="M120.815,-1313.65C120.24,-1305.19 119.536,-1294.82 118.889,-1285.3"/>
<polygon fill="green" stroke="green" points="122.364,-1284.81 118.194,-1275.07 115.38,-1285.28 122.364,-1284.81"/>
</g>
<!-- 30&#45;&gt;16 -->
<g id="edge22" class="edge"><title>30&#45;&gt;16</title>
<path fill="none" stroke="green" d="M110.832,-1317.31C96.8584,-1298.28 76.3267,-1263.15 90,-1235.28 98.9506,-1217.04 117.469,-1203.26 133.07,-1194.27"/>
<polygon fill="green" stroke="green" points="135.154,-1197.12 142.295,-1189.3 131.831,-1190.96 135.154,-1197.12"/>
</g>
<!-- 113&#45;&gt;16 -->
<g id="edge69" class="edge"><title>113&#45;&gt;16</title>
<path fill="none" stroke="red" d="M199.973,-1238.8C192.744,-1228.76 183.441,-1215.84 175.527,-1204.85"/>
<polygon fill="red" stroke="red" points="178.228,-1202.61 169.544,-1196.54 172.548,-1206.7 178.228,-1202.61"/>
</g>
<!-- 66&#45;&gt;16 -->
<g id="edge77" class="edge"><title>66&#45;&gt;16</title>
<path fill="none" stroke="red" d="M125.702,-1240.25C131.334,-1230.38 138.787,-1217.32 145.214,-1206.06"/>
<polygon fill="red" stroke="red" points="148.392,-1207.55 150.309,-1197.13 142.312,-1204.08 148.392,-1207.55"/>
</g>
<!-- 41 -->
<g id="node20" class="node"><title>41</title>
<ellipse fill="none" stroke="black" cx="201" cy="-1108.13" rx="18.2703" ry="18.2703"/>
<text text-anchor="middle" x="201" y="-1105.93" font-family="Times New Roman,serif" font-size="9.00">41</text>
</g>
<!-- 16&#45;&gt;41 -->
<g id="edge36" class="edge"><title>16&#45;&gt;41</title>
<path fill="none" stroke="green" d="M168.113,-1164.54C173.562,-1155.36 180.603,-1143.5 186.771,-1133.11"/>
<polygon fill="green" stroke="green" points="189.811,-1134.84 191.904,-1124.46 183.791,-1131.27 189.811,-1134.84"/>
</g>
<!-- 16&#45;&gt;6 -->
<g id="edge44" class="edge"><title>16&#45;&gt;6</title>
<path fill="none" stroke="red" d="M160.976,-1162.42C163.261,-1144.12 167.556,-1114.63 174,-1089.74 176.681,-1079.39 180.51,-1068.21 184.029,-1058.76"/>
<polygon fill="red" stroke="red" points="187.338,-1059.91 187.657,-1049.32 180.804,-1057.4 187.338,-1059.91"/>
</g>
<!-- 48 -->
<g id="node21" class="node"><title>48</title>
<ellipse fill="none" stroke="black" cx="499" cy="-1180.9" rx="18.2703" ry="18.2703"/>
<text text-anchor="middle" x="499" y="-1178.7" font-family="Times New Roman,serif" font-size="9.00">48</text>
</g>
<!-- 20&#45;&gt;48 -->
<g id="edge61" class="edge"><title>20&#45;&gt;48</title>
<path fill="none" stroke="red" d="M462.309,-1240.6C468.606,-1230.53 477.056,-1217.01 484.26,-1205.48"/>
<polygon fill="red" stroke="red" points="487.373,-1207.11 489.705,-1196.77 481.437,-1203.4 487.373,-1207.11"/>
</g>
<!-- 20&#45;&gt;11 -->
<g id="edge6" class="edge"><title>20&#45;&gt;11</title>
<path fill="none" stroke="red" d="M453.482,-1237.84C454.167,-1212.79 455.428,-1166.66 456.239,-1136.97"/>
<polygon fill="red" stroke="red" points="459.741,-1136.94 456.516,-1126.85 452.744,-1136.75 459.741,-1136.94"/>
</g>
<!-- 31 -->
<g id="node37" class="node"><title>31</title>
<ellipse fill="none" stroke="black" cx="424" cy="-654.541" rx="18.2703" ry="18.2703"/>
<text text-anchor="middle" x="424" y="-652.341" font-family="Times New Roman,serif" font-size="9.00">31</text>
</g>
<!-- 20&#45;&gt;31 -->
<g id="edge32" class="edge"><title>20&#45;&gt;31</title>
<path fill="none" stroke="green" d="M437.713,-1245.74C423.706,-1235.87 403.716,-1219.26 394,-1199.28 365.575,-1140.85 383.115,-1118.65 380,-1053.74 379.217,-1037.42 377.911,-1033.18 380,-1016.97 386.722,-964.831 401.805,-954.481 410,-902.548 422.458,-823.599 424.202,-728.915 424.225,-683.085"/>
<polygon fill="green" stroke="green" points="427.725,-683.029 424.202,-673.037 420.725,-683.045 427.725,-683.029"/>
</g>
<!-- 20&#45;&gt;37 -->
<g id="edge21" class="edge"><title>20&#45;&gt;37</title>
<path fill="none" stroke="green" d="M469.633,-1248.35C507.72,-1230.74 598,-1181.38 598,-1109.13 598,-1109.13 598,-1109.13 598,-726.311 598,-568.675 436.602,-428.554 375.802,-381.362"/>
<polygon fill="green" stroke="green" points="377.661,-378.378 367.592,-375.082 373.408,-383.938 377.661,-378.378"/>
</g>
<!-- 12&#45;&gt;7 -->
<g id="edge11" class="edge"><title>12&#45;&gt;7</title>
<path fill="none" stroke="green" d="M749.305,-1391.08C743.428,-1380.54 735.589,-1366.46 729.104,-1354.82"/>
<polygon fill="green" stroke="green" points="731.972,-1352.78 724.048,-1345.75 725.857,-1356.19 731.972,-1352.78"/>
</g>
<!-- 41&#45;&gt;6 -->
<g id="edge37" class="edge"><title>41&#45;&gt;6</title>
<path fill="none" stroke="red" d="M199.022,-1089.64C198.027,-1080.83 196.806,-1070.03 195.723,-1060.45"/>
<polygon fill="red" stroke="red" points="199.181,-1059.88 194.58,-1050.34 192.225,-1060.67 199.181,-1059.88"/>
</g>
<!-- 48&#45;&gt;11 -->
<g id="edge62" class="edge"><title>48&#45;&gt;11</title>
<path fill="none" stroke="green" d="M489.887,-1164.54C484.438,-1155.36 477.397,-1143.5 471.229,-1133.11"/>
<polygon fill="green" stroke="green" points="474.209,-1131.27 466.096,-1124.46 468.189,-1134.84 474.209,-1131.27"/>
</g>
<!-- 63 -->
<g id="node25" class="node"><title>63</title>
<ellipse fill="none" stroke="black" cx="177" cy="-959.762" rx="18.2703" ry="18.2703"/>
<text text-anchor="middle" x="177" y="-957.562" font-family="Times New Roman,serif" font-size="9.00">63</text>
</g>
<!-- 6&#45;&gt;63 -->
<g id="edge48" class="edge"><title>6&#45;&gt;63</title>
<path fill="none" stroke="green" d="M189.991,-1020.52C188.001,-1011.37 185.326,-999.061 182.921,-987.996"/>
<polygon fill="green" stroke="green" points="186.273,-986.939 180.728,-977.911 179.433,-988.426 186.273,-986.939"/>
</g>
<!-- 6&#45;&gt;33 -->
<g id="edge7" class="edge"><title>6&#45;&gt;33</title>
<path fill="none" stroke="green" d="M182.066,-1025.04C171.546,-1015.3 156.333,-998.932 150,-980.975 141.713,-957.475 145.996,-929.01 151.283,-908.71"/>
<polygon fill="green" stroke="green" points="154.701,-909.485 154.078,-898.909 147.97,-907.566 154.701,-909.485"/>
</g>
<!-- 10 -->
<g id="node43" class="node"><title>10</title>
<ellipse fill="none" stroke="black" cx="376" cy="-509.002" rx="18.2703" ry="18.2703"/>
<text text-anchor="middle" x="376" y="-506.802" font-family="Times New Roman,serif" font-size="9.00">10</text>
</g>
<!-- 6&#45;&gt;10 -->
<g id="edge58" class="edge"><title>6&#45;&gt;10</title>
<path fill="none" stroke="red" d="M197.427,-1021.11C205.772,-994.919 223,-934.525 223,-882.335 223,-882.335 223,-882.335 223,-801.909 223,-728.079 201.532,-702.464 234,-636.156 259.716,-583.638 317.94,-543.346 351.297,-523.542"/>
<polygon fill="red" stroke="red" points="353.096,-526.545 359.998,-518.506 349.59,-520.486 353.096,-526.545"/>
</g>
<!-- 40 -->
<g id="node26" class="node"><title>40</title>
<ellipse fill="none" stroke="black" cx="462" cy="-1035.36" rx="18.2703" ry="18.2703"/>
<text text-anchor="middle" x="462" y="-1033.16" font-family="Times New Roman,serif" font-size="9.00">40</text>
</g>
<!-- 11&#45;&gt;40 -->
<g id="edge53" class="edge"><title>11&#45;&gt;40</title>
<path fill="none" stroke="red" d="M458.236,-1089.64C458.779,-1081.95 459.429,-1072.74 460.036,-1064.16"/>
<polygon fill="red" stroke="red" points="463.53,-1064.37 460.744,-1054.14 456.547,-1063.87 463.53,-1064.37"/>
</g>
<!-- 32 -->
<g id="node30" class="node"><title>32</title>
<ellipse fill="none" stroke="black" cx="479" cy="-727.311" rx="18.2703" ry="18.2703"/>
<text text-anchor="middle" x="479" y="-725.111" font-family="Times New Roman,serif" font-size="9.00">32</text>
</g>
<!-- 11&#45;&gt;32 -->
<g id="edge4" class="edge"><title>11&#45;&gt;32</title>
<path fill="none" stroke="red" d="M468.087,-1093.11C475.501,-1082.85 484.665,-1068.24 489,-1053.74 498.275,-1022.73 491.333,-1013.34 492,-980.975 492.388,-962.123 493.555,-957.34 492,-938.548 490.662,-922.383 487.852,-918.663 486,-902.548 482.013,-867.85 482.476,-859.018 481,-824.122 480.032,-801.227 479.526,-775.233 479.266,-756.103"/>
<polygon fill="red" stroke="red" points="482.764,-755.933 479.143,-745.977 475.765,-756.019 482.764,-755.933"/>
</g>
<!-- 84 -->
<g id="node33" class="node"><title>84</title>
<ellipse fill="none" stroke="black" cx="407" cy="-1035.36" rx="18.2703" ry="18.2703"/>
<text text-anchor="middle" x="407" y="-1033.16" font-family="Times New Roman,serif" font-size="9.00">84</text>
</g>
<!-- 11&#45;&gt;84 -->
<g id="edge50" class="edge"><title>11&#45;&gt;84</title>
<path fill="none" stroke="red" d="M446.64,-1092.47C439.869,-1082.88 430.885,-1070.17 423.183,-1059.26"/>
<polygon fill="red" stroke="red" points="425.976,-1057.15 417.347,-1051 420.259,-1061.19 425.976,-1057.15"/>
</g>
<!-- 63&#45;&gt;33 -->
<g id="edge49" class="edge"><title>63&#45;&gt;33</title>
<path fill="none" stroke="red" d="M173.142,-941.419C171.041,-931.972 168.394,-920.071 166.027,-909.429"/>
<polygon fill="red" stroke="red" points="169.372,-908.347 163.784,-899.346 162.539,-909.867 169.372,-908.347"/>
</g>
<!-- 127 -->
<g id="node27" class="node"><title>127</title>
<ellipse fill="none" stroke="black" cx="462" cy="-959.762" rx="21.4286" ry="21.4286"/>
<text text-anchor="middle" x="462" y="-957.562" font-family="Times New Roman,serif" font-size="9.00">127</text>
</g>
<!-- 40&#45;&gt;127 -->
<g id="edge84" class="edge"><title>40&#45;&gt;127</title>
<path fill="none" stroke="red" d="M462,-1016.92C462,-1009.3 462,-1000.14 462,-991.447"/>
<polygon fill="red" stroke="red" points="465.5,-991.211 462,-981.211 458.5,-991.211 465.5,-991.211"/>
</g>
<!-- 40&#45;&gt;38 -->
<g id="edge70" class="edge"><title>40&#45;&gt;38</title>
<path fill="none" stroke="green" d="M447.35,-1024.16C395.131,-987.804 217.83,-864.362 154.074,-819.973"/>
<polygon fill="green" stroke="green" points="156.063,-817.093 145.856,-814.252 152.063,-822.838 156.063,-817.093"/>
</g>
<!-- 104 -->
<g id="node28" class="node"><title>104</title>
<ellipse fill="none" stroke="black" cx="516" cy="-881.335" rx="21.4286" ry="21.4286"/>
<text text-anchor="middle" x="516" y="-879.135" font-family="Times New Roman,serif" font-size="9.00">104</text>
</g>
<!-- 127&#45;&gt;104 -->
<g id="edge85" class="edge"><title>127&#45;&gt;104</title>
<path fill="none" stroke="red" d="M473.984,-941.8C481.115,-931.707 490.295,-918.715 498.255,-907.45"/>
<polygon fill="red" stroke="red" points="501.137,-909.436 504.049,-899.249 495.42,-905.397 501.137,-909.436"/>
</g>
<!-- 104&#45;&gt;5 -->
<g id="edge65" class="edge"><title>104&#45;&gt;5</title>
<path fill="none" stroke="red" d="M525.942,-862.158C531.34,-851.415 537.59,-837.361 541,-824.122 575.953,-688.428 568,-650.126 568,-510.002 568,-510.002 568,-510.002 568,-144.154 568,-102.75 568,-54.1569 568,-28.3258"/>
<polygon fill="red" stroke="red" points="571.5,-28.1667 568,-18.1667 564.5,-28.1668 571.5,-28.1667"/>
</g>
<!-- 105 -->
<g id="node29" class="node"><title>105</title>
<ellipse fill="none" stroke="black" cx="511" cy="-802.909" rx="21.4286" ry="21.4286"/>
<text text-anchor="middle" x="511" y="-800.709" font-family="Times New Roman,serif" font-size="9.00">105</text>
</g>
<!-- 104&#45;&gt;105 -->
<g id="edge59" class="edge"><title>104&#45;&gt;105</title>
<path fill="none" stroke="green" d="M514.66,-859.854C514.146,-851.996 513.548,-842.851 512.986,-834.261"/>
<polygon fill="green" stroke="green" points="516.472,-833.931 512.326,-824.181 509.487,-834.388 516.472,-833.931"/>
</g>
<!-- 105&#45;&gt;32 -->
<g id="edge60" class="edge"><title>105&#45;&gt;32</title>
<path fill="none" stroke="red" d="M502.759,-782.955C498.911,-774.104 494.272,-763.436 490.119,-753.884"/>
<polygon fill="red" stroke="red" points="493.217,-752.232 486.02,-744.456 486.798,-755.023 493.217,-752.232"/>
</g>
<!-- 32&#45;&gt;31 -->
<g id="edge5" class="edge"><title>32&#45;&gt;31</title>
<path fill="none" stroke="green" d="M468.134,-712.329C460.45,-702.442 449.991,-688.985 441.184,-677.652"/>
<polygon fill="green" stroke="green" points="443.744,-675.242 434.844,-669.494 438.217,-679.538 443.744,-675.242"/>
</g>
<!-- 45 -->
<g id="node46" class="node"><title>45</title>
<ellipse fill="none" stroke="black" cx="492" cy="-290.693" rx="18.2703" ry="18.2703"/>
<text text-anchor="middle" x="492" y="-288.493" font-family="Times New Roman,serif" font-size="9.00">45</text>
</g>
<!-- 32&#45;&gt;45 -->
<g id="edge28" class="edge"><title>32&#45;&gt;45</title>
<path fill="none" stroke="green" d="M481.631,-708.679C485.429,-681.649 492,-628.312 492,-582.772 492,-582.772 492,-582.772 492,-435.233 492,-395.016 492,-348.461 492,-319.542"/>
<polygon fill="green" stroke="green" points="495.5,-319.372 492,-309.372 488.5,-319.372 495.5,-319.372"/>
</g>
<!-- 33&#45;&gt;38 -->
<g id="edge9" class="edge"><title>33&#45;&gt;38</title>
<path fill="none" stroke="red" d="M153.707,-863.752C149.983,-853.937 145.182,-841.284 140.954,-830.142"/>
<polygon fill="red" stroke="red" points="144.1,-828.568 137.28,-820.46 137.556,-831.051 144.1,-828.568"/>
</g>
<!-- 21 -->
<g id="node36" class="node"><title>21</title>
<ellipse fill="none" stroke="black" cx="177" cy="-727.311" rx="18.2703" ry="18.2703"/>
<text text-anchor="middle" x="177" y="-725.111" font-family="Times New Roman,serif" font-size="9.00">21</text>
</g>
<!-- 33&#45;&gt;21 -->
<g id="edge38" class="edge"><title>33&#45;&gt;21</title>
<path fill="none" stroke="green" d="M161.95,-862.896C164.868,-836.803 170.398,-787.347 173.881,-756.2"/>
<polygon fill="green" stroke="green" points="177.387,-756.342 175.02,-746.015 170.431,-755.564 177.387,-756.342"/>
</g>
<!-- 90 -->
<g id="node34" class="node"><title>90</title>
<ellipse fill="none" stroke="black" cx="122" cy="-727.311" rx="18.2703" ry="18.2703"/>
<text text-anchor="middle" x="122" y="-725.111" font-family="Times New Roman,serif" font-size="9.00">90</text>
</g>
<!-- 38&#45;&gt;90 -->
<g id="edge80" class="edge"><title>38&#45;&gt;90</title>
<path fill="none" stroke="red" d="M128.867,-784.467C127.814,-775.851 126.518,-765.256 125.337,-755.6"/>
<polygon fill="red" stroke="red" points="128.806,-755.128 124.118,-745.627 121.857,-755.978 128.806,-755.128"/>
</g>
<!-- 38&#45;&gt;21 -->
<g id="edge10" class="edge"><title>38&#45;&gt;21</title>
<path fill="none" stroke="green" d="M140.309,-787.015C146.606,-776.94 155.056,-763.42 162.26,-751.894"/>
<polygon fill="green" stroke="green" points="165.373,-753.517 167.705,-743.182 159.437,-749.807 165.373,-753.517"/>
</g>
<!-- 99 -->
<g id="node38" class="node"><title>99</title>
<ellipse fill="none" stroke="black" cx="383" cy="-881.335" rx="18.2703" ry="18.2703"/>
<text text-anchor="middle" x="383" y="-879.135" font-family="Times New Roman,serif" font-size="9.00">99</text>
</g>
<!-- 84&#45;&gt;99 -->
<g id="edge78" class="edge"><title>84&#45;&gt;99</title>
<path fill="none" stroke="green" d="M404.247,-1016.92C400.106,-990.688 392.236,-940.841 387.324,-909.726"/>
<polygon fill="green" stroke="green" points="390.738,-908.903 385.721,-899.571 383.823,-909.994 390.738,-908.903"/>
</g>
<!-- 90&#45;&gt;51 -->
<g id="edge81" class="edge"><title>90&#45;&gt;51</title>
<path fill="none" stroke="red" d="M114.512,-710.252C110.461,-701.566 105.366,-690.638 100.795,-680.837"/>
<polygon fill="red" stroke="red" points="103.857,-679.12 96.4586,-671.536 97.5127,-682.079 103.857,-679.12"/>
</g>
<!-- 21&#45;&gt;56 -->
<g id="edge23" class="edge"><title>21&#45;&gt;56</title>
<path fill="none" stroke="green" d="M190.871,-714.625C204.082,-703.495 224.164,-686.576 239.457,-673.691"/>
<polygon fill="green" stroke="green" points="241.995,-676.13 247.387,-667.01 237.484,-670.776 241.995,-676.13"/>
</g>
<!-- 57 -->
<g id="node42" class="node"><title>57</title>
<ellipse fill="none" stroke="black" cx="223" cy="-509.002" rx="18.2703" ry="18.2703"/>
<text text-anchor="middle" x="223" y="-506.802" font-family="Times New Roman,serif" font-size="9.00">57</text>
</g>
<!-- 21&#45;&gt;57 -->
<g id="edge54" class="edge"><title>21&#45;&gt;57</title>
<path fill="none" stroke="red" d="M178.161,-708.901C180.479,-678.784 186.737,-615.21 201,-563.387 203.59,-553.977 207.392,-544.003 211.109,-535.255"/>
<polygon fill="red" stroke="red" points="214.361,-536.556 215.201,-525.995 207.958,-533.727 214.361,-536.556"/>
</g>
<!-- 21&#45;&gt;37 -->
<g id="edge14" class="edge"><title>21&#45;&gt;37</title>
<path fill="none" stroke="red" d="M169.852,-710.317C158.845,-684.185 139,-630.462 139,-582.772 139,-582.772 139,-582.772 139,-508.002 139,-419.561 266.622,-382.115 324.755,-369.645"/>
<polygon fill="red" stroke="red" points="325.658,-373.033 334.754,-367.601 324.256,-366.175 325.658,-373.033"/>
</g>
<!-- 36 -->
<g id="node40" class="node"><title>36</title>
<ellipse fill="none" stroke="black" cx="353" cy="-581.772" rx="18.2703" ry="18.2703"/>
<text text-anchor="middle" x="353" y="-579.572" font-family="Times New Roman,serif" font-size="9.00">36</text>
</g>
<!-- 31&#45;&gt;36 -->
<g id="edge67" class="edge"><title>31&#45;&gt;36</title>
<path fill="none" stroke="red" d="M411.307,-640.889C400.604,-630.222 385.107,-614.774 372.779,-602.486"/>
<polygon fill="red" stroke="red" points="375.137,-599.895 365.583,-595.314 370.195,-604.853 375.137,-599.895"/>
</g>
<!-- 47 -->
<g id="node41" class="node"><title>47</title>
<ellipse fill="none" stroke="black" cx="408" cy="-581.772" rx="18.2703" ry="18.2703"/>
<text text-anchor="middle" x="408" y="-579.572" font-family="Times New Roman,serif" font-size="9.00">47</text>
</g>
<!-- 31&#45;&gt;47 -->
<g id="edge19" class="edge"><title>31&#45;&gt;47</title>
<path fill="none" stroke="red" d="M420.127,-636.41C418.345,-628.53 416.188,-618.987 414.189,-610.148"/>
<polygon fill="red" stroke="red" points="417.568,-609.219 411.949,-600.237 410.74,-610.763 417.568,-609.219"/>
</g>
<!-- 31&#45;&gt;10 -->
<g id="edge3" class="edge"><title>31&#45;&gt;10</title>
<path fill="none" stroke="green" d="M430.937,-637.155C437.746,-618.488 445.681,-587.456 435,-563.387 427.852,-547.28 413.179,-533.97 400.254,-524.669"/>
<polygon fill="green" stroke="green" points="401.944,-521.587 391.699,-518.885 398.023,-527.385 401.944,-521.587"/>
</g>
<!-- 99&#45;&gt;36 -->
<g id="edge79" class="edge"><title>99&#45;&gt;36</title>
<path fill="none" stroke="red" d="M381.213,-862.612C376.19,-812.789 361.914,-671.187 355.817,-610.71"/>
<polygon fill="red" stroke="red" points="359.263,-610 354.777,-600.402 352.298,-610.702 359.263,-610"/>
</g>
<!-- 56&#45;&gt;36 -->
<g id="edge24" class="edge"><title>56&#45;&gt;36</title>
<path fill="none" stroke="red" d="M275.375,-642.483C290.093,-631.162 313.183,-613.4 330.359,-600.188"/>
<polygon fill="red" stroke="red" points="332.934,-602.623 338.726,-593.752 328.666,-597.075 332.934,-602.623"/>
</g>
<!-- 36&#45;&gt;10 -->
<g id="edge46" class="edge"><title>36&#45;&gt;10</title>
<path fill="none" stroke="red" d="M358.451,-564C361.143,-555.716 364.454,-545.528 367.472,-536.242"/>
<polygon fill="red" stroke="red" points="370.826,-537.245 370.588,-526.653 364.169,-535.082 370.826,-537.245"/>
</g>
<!-- 47&#45;&gt;10 -->
<g id="edge20" class="edge"><title>47&#45;&gt;10</title>
<path fill="none" stroke="green" d="M400.739,-564.713C396.811,-556.027 391.87,-545.099 387.438,-535.298"/>
<polygon fill="green" stroke="green" points="390.542,-533.667 383.233,-525.997 384.164,-536.551 390.542,-533.667"/>
</g>
<!-- 57&#45;&gt;37 -->
<g id="edge55" class="edge"><title>57&#45;&gt;37</title>
<path fill="none" stroke="green" d="M233.144,-493.293C246.123,-474.881 269.719,-442.741 293,-417.848 304.802,-405.228 319.238,-392.317 330.991,-382.353"/>
<polygon fill="green" stroke="green" points="333.568,-384.762 339,-375.666 329.081,-379.389 333.568,-384.762"/>
</g>
<!-- 67 -->
<g id="node44" class="node"><title>67</title>
<ellipse fill="none" stroke="black" cx="353" cy="-436.233" rx="18.2703" ry="18.2703"/>
<text text-anchor="middle" x="353" y="-434.033" font-family="Times New Roman,serif" font-size="9.00">67</text>
</g>
<!-- 10&#45;&gt;67 -->
<g id="edge63" class="edge"><title>10&#45;&gt;67</title>
<path fill="none" stroke="red" d="M370.549,-491.231C367.857,-482.946 364.546,-472.758 361.528,-463.473"/>
<polygon fill="red" stroke="red" points="364.831,-462.312 358.412,-453.884 358.174,-464.476 364.831,-462.312"/>
</g>
<!-- 10&#45;&gt;37 -->
<g id="edge8" class="edge"><title>10&#45;&gt;37</title>
<path fill="none" stroke="red" d="M379.546,-490.788C382.683,-472.446 385.924,-442.689 380,-417.848 377.532,-407.5 372.717,-396.887 367.828,-387.878"/>
<polygon fill="red" stroke="red" points="370.825,-386.067 362.802,-379.147 364.758,-389.56 370.825,-386.067"/>
</g>
<!-- 67&#45;&gt;37 -->
<g id="edge64" class="edge"><title>67&#45;&gt;37</title>
<path fill="none" stroke="red" d="M353,-417.739C353,-410.057 353,-400.847 353,-392.263"/>
<polygon fill="red" stroke="red" points="356.5,-392.247 353,-382.247 349.5,-392.247 356.5,-392.247"/>
</g>
<!-- 37&#45;&gt;45 -->
<g id="edge12" class="edge"><title>37&#45;&gt;45</title>
<path fill="none" stroke="red" d="M369.217,-354.206C393.176,-342.008 438.248,-319.06 466.612,-304.619"/>
<polygon fill="red" stroke="red" points="468.563,-307.554 475.886,-299.898 465.387,-301.316 468.563,-307.554"/>
</g>
<!-- 45&#45;&gt;28 -->
<g id="edge13" class="edge"><title>45&#45;&gt;28</title>
<path fill="none" stroke="green" d="M494.225,-272.2C495.217,-264.401 496.408,-255.029 497.514,-246.334"/>
<polygon fill="green" stroke="green" points="501.011,-246.578 498.801,-236.216 494.067,-245.695 501.011,-246.578"/>
</g>
<!-- 28&#45;&gt;5 -->
<g id="edge2" class="edge"><title>28&#45;&gt;5</title>
<path fill="none" stroke="red" d="M506.37,-200.34C518.802,-161.945 549.475,-67.2127 562.26,-27.7261"/>
<polygon fill="red" stroke="red" points="565.612,-28.7384 565.362,-18.1465 558.952,-26.582 565.612,-28.7384"/>
</g>
<!-- 28&#45;&gt;34 -->
<g id="edge18" class="edge"><title>28&#45;&gt;34</title>
<path fill="none" stroke="red" d="M516.426,-207.672C536.391,-195.698 571.395,-174.705 594.886,-160.617"/>
<polygon fill="red" stroke="red" points="596.794,-163.553 603.57,-155.408 593.194,-157.55 596.794,-163.553"/>
</g>
<!-- 34&#45;&gt;5 -->
<g id="edge71" class="edge"><title>34&#45;&gt;5</title>
<path fill="none" stroke="green" d="M612.746,-127.704C603.068,-102.246 584.546,-53.5247 574.639,-27.4637"/>
<polygon fill="green" stroke="green" points="577.905,-26.2059 571.08,-18.1023 571.362,-28.6934 577.905,-26.2059"/>
</g>
<!-- 34&#45;&gt;60 -->
<g id="edge74" class="edge"><title>34&#45;&gt;60</title>
<path fill="none" stroke="red" d="M626.488,-128.096C630.539,-119.409 635.634,-108.481 640.205,-98.6805"/>
<polygon fill="red" stroke="red" points="643.487,-99.9222 644.541,-89.3799 637.143,-96.9639 643.487,-99.9222"/>
</g>
<!-- 60&#45;&gt;5 -->
<g id="edge47" class="edge"><title>60&#45;&gt;5</title>
<path fill="none" stroke="red" d="M637.368,-60.6924C623.38,-50.47 602.217,-35.0052 586.946,-23.8455"/>
<polygon fill="red" stroke="red" points="588.874,-20.9189 578.735,-17.8446 584.744,-26.5707 588.874,-20.9189"/>
</g>
</g>
</svg>
