<?xml version="1.0" encoding="UTF-8" standalone="no"?>
<!DOCTYPE svg PUBLIC "-//W3C//DTD SVG 1.1//EN"
 "http://www.w3.org/Graphics/SVG/1.1/DTD/svg11.dtd">
<!-- Generated by graphviz version 2.38.0 (20140413.2041)
 -->
<!-- Title: %3 Pages: 1 -->
<svg width="303pt" height="953pt"
 viewBox="0.00 0.00 303.38 953.23" xmlns="http://www.w3.org/2000/svg" xmlns:xlink="http://www.w3.org/1999/xlink">
<g id="graph0" class="graph" transform="scale(1 1) rotate(0) translate(4 949.235)">
<title>%3</title>
<polygon fill="white" stroke="none" points="-4,4 -4,-949.235 299.385,-949.235 299.385,4 -4,4"/>
<!-- 1 -->
<g id="node1" class="node"><title>1</title>
<polygon fill="lightgray" stroke="black" points="232.5,-945.235 211.5,-945.235 211.5,-927.235 232.5,-927.235 232.5,-945.235"/>
<text text-anchor="middle" x="222" y="-934.035" font-family="Times New Roman,serif" font-size="9.00">1</text>
</g>
<!-- 19 -->
<g id="node6" class="node"><title>19</title>
<ellipse fill="none" stroke="black" cx="277" cy="-872.85" rx="18.2703" ry="18.2703"/>
<text text-anchor="middle" x="277" y="-870.65" font-family="Times New Roman,serif" font-size="9.00">19</text>
</g>
<!-- 1&#45;&gt;19 -->
<g id="edge13" class="edge"><title>1&#45;&gt;19</title>
<path fill="none" stroke="green" d="M229.19,-927.21C236.501,-919.051 248.138,-906.063 258.1,-894.944"/>
<polygon fill="green" stroke="green" points="260.906,-897.057 264.973,-887.274 255.693,-892.386 260.906,-897.057"/>
</g>
<!-- 12 -->
<g id="node10" class="node"><title>12</title>
<ellipse fill="none" stroke="black" cx="222" cy="-872.85" rx="18.2703" ry="18.2703"/>
<text text-anchor="middle" x="222" y="-870.65" font-family="Times New Roman,serif" font-size="9.00">12</text>
</g>
<!-- 1&#45;&gt;12 -->
<g id="edge15" class="edge"><title>1&#45;&gt;12</title>
<path fill="none" stroke="green" d="M222,-927.21C222,-920.646 222,-910.956 222,-901.629"/>
<polygon fill="green" stroke="green" points="225.5,-901.438 222,-891.438 218.5,-901.438 225.5,-901.438"/>
</g>
<!-- 7 -->
<g id="node13" class="node"><title>7</title>
<ellipse fill="none" stroke="black" cx="180" cy="-800.08" rx="14.7" ry="14.7"/>
<text text-anchor="middle" x="180" y="-797.88" font-family="Times New Roman,serif" font-size="9.00">7</text>
</g>
<!-- 1&#45;&gt;7 -->
<g id="edge20" class="edge"><title>1&#45;&gt;7</title>
<path fill="none" stroke="red" d="M215.575,-926.98C209.312,-918.497 200.02,-904.667 195,-891.235 186.959,-869.717 183.215,-843.704 181.48,-825.162"/>
<polygon fill="red" stroke="red" points="184.949,-824.63 180.656,-814.944 177.972,-825.193 184.949,-824.63"/>
</g>
<!-- 2 -->
<g id="node2" class="node"><title>2</title>
<polygon fill="lightgray" stroke="black" points="64.5,-590.772 43.5,-590.772 43.5,-572.772 64.5,-572.772 64.5,-590.772"/>
<text text-anchor="middle" x="54" y="-579.572" font-family="Times New Roman,serif" font-size="9.00">2</text>
</g>
<!-- 5 -->
<g id="node5" class="node"><title>5</title>
<polygon fill="lightblue" stroke="black" points="111.5,-18 90.5,-18 90.5,-0 111.5,-0 111.5,-18"/>
<text text-anchor="middle" x="101" y="-6.8" font-family="Times New Roman,serif" font-size="9.00">5</text>
</g>
<!-- 2&#45;&gt;5 -->
<g id="edge1" class="edge"><title>2&#45;&gt;5</title>
<path fill="none" stroke="green" d="M50.4569,-572.702C38.4434,-544.583 0,-448.068 0,-364.463 0,-364.463 0,-364.463 0,-144.154 0,-90.2569 52.6742,-44.2404 81.9433,-22.8311"/>
<polygon fill="green" stroke="green" points="84.0495,-25.6284 90.1912,-16.9953 80.0064,-19.9141 84.0495,-25.6284"/>
</g>
<!-- 38 -->
<g id="node16" class="node"><title>38</title>
<ellipse fill="none" stroke="black" cx="99" cy="-509.002" rx="18.2703" ry="18.2703"/>
<text text-anchor="middle" x="99" y="-506.802" font-family="Times New Roman,serif" font-size="9.00">38</text>
</g>
<!-- 2&#45;&gt;38 -->
<g id="edge21" class="edge"><title>2&#45;&gt;38</title>
<path fill="none" stroke="red" d="M59.1621,-572.653C65.1644,-563.214 75.3438,-547.205 83.91,-533.733"/>
<polygon fill="red" stroke="red" points="87.0993,-535.241 89.5116,-524.924 81.1923,-531.485 87.0993,-535.241"/>
</g>
<!-- 3 -->
<g id="node3" class="node"><title>3</title>
<polygon fill="lightgray" stroke="black" points="108.5,-809.08 87.5,-809.08 87.5,-791.08 108.5,-791.08 108.5,-809.08"/>
<text text-anchor="middle" x="98" y="-797.88" font-family="Times New Roman,serif" font-size="9.00">3</text>
</g>
<!-- 6 -->
<g id="node11" class="node"><title>6</title>
<ellipse fill="none" stroke="black" cx="130" cy="-654.541" rx="14.7" ry="14.7"/>
<text text-anchor="middle" x="130" y="-652.341" font-family="Times New Roman,serif" font-size="9.00">6</text>
</g>
<!-- 3&#45;&gt;6 -->
<g id="edge35" class="edge"><title>3&#45;&gt;6</title>
<path fill="none" stroke="red" d="M99.8121,-790.952C104.54,-769.745 117.388,-712.112 124.708,-679.277"/>
<polygon fill="red" stroke="red" points="128.199,-679.702 126.959,-669.18 121.367,-678.179 128.199,-679.702"/>
</g>
<!-- 11 -->
<g id="node12" class="node"><title>11</title>
<ellipse fill="none" stroke="black" cx="79" cy="-727.311" rx="18.2703" ry="18.2703"/>
<text text-anchor="middle" x="79" y="-725.111" font-family="Times New Roman,serif" font-size="9.00">11</text>
</g>
<!-- 3&#45;&gt;11 -->
<g id="edge33" class="edge"><title>3&#45;&gt;11</title>
<path fill="none" stroke="green" d="M95.8205,-790.962C93.4669,-782.196 89.5924,-767.764 86.1548,-754.96"/>
<polygon fill="green" stroke="green" points="89.5024,-753.931 83.5291,-745.18 82.7418,-755.746 89.5024,-753.931"/>
</g>
<!-- 4 -->
<g id="node4" class="node"><title>4</title>
<polygon fill="lightgray" stroke="black" points="147.5,-881.85 126.5,-881.85 126.5,-863.85 147.5,-863.85 147.5,-881.85"/>
<text text-anchor="middle" x="137" y="-870.65" font-family="Times New Roman,serif" font-size="9.00">4</text>
</g>
<!-- 16 -->
<g id="node8" class="node"><title>16</title>
<ellipse fill="none" stroke="black" cx="171" cy="-727.311" rx="18.2703" ry="18.2703"/>
<text text-anchor="middle" x="171" y="-725.111" font-family="Times New Roman,serif" font-size="9.00">16</text>
</g>
<!-- 4&#45;&gt;16 -->
<g id="edge14" class="edge"><title>4&#45;&gt;16</title>
<path fill="none" stroke="green" d="M138.595,-863.355C141.65,-847.32 148.676,-811.521 156,-781.696 158.155,-772.922 160.745,-763.407 163.163,-754.873"/>
<polygon fill="green" stroke="green" points="166.583,-755.644 165.985,-745.066 159.856,-753.708 166.583,-755.644"/>
</g>
<!-- 20 -->
<g id="node9" class="node"><title>20</title>
<ellipse fill="none" stroke="black" cx="51" cy="-800.08" rx="18.2703" ry="18.2703"/>
<text text-anchor="middle" x="51" y="-797.88" font-family="Times New Roman,serif" font-size="9.00">20</text>
</g>
<!-- 4&#45;&gt;20 -->
<g id="edge7" class="edge"><title>4&#45;&gt;20</title>
<path fill="none" stroke="green" d="M127.135,-863.732C113.94,-852.874 90.1839,-833.325 72.7061,-818.942"/>
<polygon fill="green" stroke="green" points="74.6499,-816.009 64.7042,-812.358 70.2019,-821.414 74.6499,-816.009"/>
</g>
<!-- 4&#45;&gt;7 -->
<g id="edge22" class="edge"><title>4&#45;&gt;7</title>
<path fill="none" stroke="green" d="M141.933,-863.732C148.122,-853.546 158.957,-835.712 167.49,-821.67"/>
<polygon fill="green" stroke="green" points="170.49,-823.472 172.692,-813.108 164.508,-819.837 170.49,-823.472"/>
</g>
<!-- 30 -->
<g id="node7" class="node"><title>30</title>
<ellipse fill="none" stroke="black" cx="231" cy="-800.08" rx="18.2703" ry="18.2703"/>
<text text-anchor="middle" x="231" y="-797.88" font-family="Times New Roman,serif" font-size="9.00">30</text>
</g>
<!-- 19&#45;&gt;30 -->
<g id="edge27" class="edge"><title>19&#45;&gt;30</title>
<path fill="none" stroke="red" d="M267.245,-856.841C261.146,-847.459 253.162,-835.177 246.241,-824.528"/>
<polygon fill="red" stroke="red" points="249.126,-822.544 240.741,-816.067 243.257,-826.359 249.126,-822.544"/>
</g>
<!-- 34 -->
<g id="node26" class="node"><title>34</title>
<ellipse fill="none" stroke="black" cx="147" cy="-145.154" rx="18.2703" ry="18.2703"/>
<text text-anchor="middle" x="147" y="-142.954" font-family="Times New Roman,serif" font-size="9.00">34</text>
</g>
<!-- 19&#45;&gt;34 -->
<g id="edge34" class="edge"><title>19&#45;&gt;34</title>
<path fill="none" stroke="red" d="M277,-854.172C277,-827.081 277,-773.665 277,-728.311 277,-728.311 277,-728.311 277,-289.693 277,-227.859 209.905,-180.787 172.118,-159.18"/>
<polygon fill="red" stroke="red" points="173.645,-156.025 163.202,-154.242 170.254,-162.149 173.645,-156.025"/>
</g>
<!-- 30&#45;&gt;16 -->
<g id="edge28" class="edge"><title>30&#45;&gt;16</title>
<path fill="none" stroke="green" d="M219.431,-785.435C210.882,-775.351 199.072,-761.421 189.254,-749.842"/>
<polygon fill="green" stroke="green" points="191.67,-747.278 182.533,-741.914 186.33,-751.805 191.67,-747.278"/>
</g>
<!-- 16&#45;&gt;6 -->
<g id="edge2" class="edge"><title>16&#45;&gt;6</title>
<path fill="none" stroke="green" d="M162.104,-710.955C156.347,-701.019 148.771,-687.942 142.424,-676.987"/>
<polygon fill="green" stroke="green" points="145.281,-674.936 137.24,-668.038 139.225,-678.445 145.281,-674.936"/>
</g>
<!-- 20&#45;&gt;11 -->
<g id="edge8" class="edge"><title>20&#45;&gt;11</title>
<path fill="none" stroke="green" d="M57.4941,-782.666C60.8514,-774.181 65.0263,-763.629 68.8019,-754.086"/>
<polygon fill="green" stroke="green" points="72.1165,-755.222 72.5411,-744.636 65.6075,-752.647 72.1165,-755.222"/>
</g>
<!-- 37 -->
<g id="node23" class="node"><title>37</title>
<ellipse fill="none" stroke="black" cx="101" cy="-363.463" rx="18.2703" ry="18.2703"/>
<text text-anchor="middle" x="101" y="-361.263" font-family="Times New Roman,serif" font-size="9.00">37</text>
</g>
<!-- 20&#45;&gt;37 -->
<g id="edge26" class="edge"><title>20&#45;&gt;37</title>
<path fill="none" stroke="green" d="M44.0588,-782.623C33.5977,-756.285 15,-702.814 15,-655.541 15,-655.541 15,-655.541 15,-580.772 15,-519.061 50.9129,-512.24 73,-454.617 81.0419,-433.637 88.5005,-409.273 93.6943,-391.166"/>
<polygon fill="green" stroke="green" points="97.1307,-391.875 96.4779,-381.3 90.3938,-389.974 97.1307,-391.875"/>
</g>
<!-- 12&#45;&gt;7 -->
<g id="edge16" class="edge"><title>12&#45;&gt;7</title>
<path fill="none" stroke="red" d="M212.887,-856.494C206.855,-846.331 198.873,-832.881 192.283,-821.777"/>
<polygon fill="red" stroke="red" points="195.262,-819.939 187.149,-813.125 189.242,-823.511 195.262,-819.939"/>
</g>
<!-- 33 -->
<g id="node15" class="node"><title>33</title>
<ellipse fill="none" stroke="black" cx="101" cy="-581.772" rx="18.2703" ry="18.2703"/>
<text text-anchor="middle" x="101" y="-579.572" font-family="Times New Roman,serif" font-size="9.00">33</text>
</g>
<!-- 6&#45;&gt;33 -->
<g id="edge9" class="edge"><title>6&#45;&gt;33</title>
<path fill="none" stroke="green" d="M124.681,-640.561C121.025,-631.64 116.047,-619.492 111.598,-608.635"/>
<polygon fill="green" stroke="green" points="114.745,-607.084 107.715,-599.158 108.268,-609.738 114.745,-607.084"/>
</g>
<!-- 32 -->
<g id="node14" class="node"><title>32</title>
<ellipse fill="none" stroke="black" cx="79" cy="-654.541" rx="18.2703" ry="18.2703"/>
<text text-anchor="middle" x="79" y="-652.341" font-family="Times New Roman,serif" font-size="9.00">32</text>
</g>
<!-- 11&#45;&gt;32 -->
<g id="edge5" class="edge"><title>11&#45;&gt;32</title>
<path fill="none" stroke="green" d="M79,-708.817C79,-701.135 79,-691.926 79,-683.341"/>
<polygon fill="green" stroke="green" points="82.5001,-683.325 79,-673.325 75.5001,-683.325 82.5001,-683.325"/>
</g>
<!-- 31 -->
<g id="node18" class="node"><title>31</title>
<ellipse fill="none" stroke="black" cx="193" cy="-581.772" rx="18.2703" ry="18.2703"/>
<text text-anchor="middle" x="193" y="-579.572" font-family="Times New Roman,serif" font-size="9.00">31</text>
</g>
<!-- 32&#45;&gt;31 -->
<g id="edge6" class="edge"><title>32&#45;&gt;31</title>
<path fill="none" stroke="red" d="M94.1,-643.737C97.9685,-641.248 102.13,-638.59 106,-636.156 127.013,-622.947 151.076,-608.211 168.56,-597.574"/>
<polygon fill="red" stroke="red" points="170.807,-600.305 177.536,-592.122 167.172,-594.322 170.807,-600.305"/>
</g>
<!-- 45 -->
<g id="node24" class="node"><title>45</title>
<ellipse fill="none" stroke="black" cx="124" cy="-290.693" rx="18.2703" ry="18.2703"/>
<text text-anchor="middle" x="124" y="-288.493" font-family="Times New Roman,serif" font-size="9.00">45</text>
</g>
<!-- 32&#45;&gt;45 -->
<g id="edge36" class="edge"><title>32&#45;&gt;45</title>
<path fill="none" stroke="green" d="M92.8055,-642.293C104.028,-632.381 119.367,-616.937 128,-600.156 146.733,-563.744 147,-550.951 147,-510.002 147,-510.002 147,-510.002 147,-435.233 147,-394.279 137.759,-347.572 130.992,-318.859"/>
<polygon fill="green" stroke="green" points="134.306,-317.676 128.544,-308.786 127.504,-319.329 134.306,-317.676"/>
</g>
<!-- 33&#45;&gt;38 -->
<g id="edge11" class="edge"><title>33&#45;&gt;38</title>
<path fill="none" stroke="green" d="M100.506,-563.278C100.289,-555.596 100.028,-546.387 99.7857,-537.802"/>
<polygon fill="green" stroke="green" points="103.284,-537.683 99.5026,-527.786 96.2866,-537.881 103.284,-537.683"/>
</g>
<!-- 21 -->
<g id="node17" class="node"><title>21</title>
<ellipse fill="none" stroke="black" cx="46" cy="-436.233" rx="18.2703" ry="18.2703"/>
<text text-anchor="middle" x="46" y="-434.033" font-family="Times New Roman,serif" font-size="9.00">21</text>
</g>
<!-- 38&#45;&gt;21 -->
<g id="edge12" class="edge"><title>38&#45;&gt;21</title>
<path fill="none" stroke="red" d="M88.2747,-493.681C80.9472,-483.897 71.0898,-470.734 62.7368,-459.581"/>
<polygon fill="red" stroke="red" points="65.5053,-457.439 56.7094,-451.533 59.9024,-461.635 65.5053,-457.439"/>
</g>
<!-- 56 -->
<g id="node19" class="node"><title>56</title>
<ellipse fill="none" stroke="black" cx="46" cy="-363.463" rx="18.2703" ry="18.2703"/>
<text text-anchor="middle" x="46" y="-361.263" font-family="Times New Roman,serif" font-size="9.00">56</text>
</g>
<!-- 21&#45;&gt;56 -->
<g id="edge29" class="edge"><title>21&#45;&gt;56</title>
<path fill="none" stroke="green" d="M46,-417.739C46,-410.057 46,-400.847 46,-392.263"/>
<polygon fill="green" stroke="green" points="49.5001,-392.247 46,-382.247 42.5001,-392.247 49.5001,-392.247"/>
</g>
<!-- 21&#45;&gt;37 -->
<g id="edge19" class="edge"><title>21&#45;&gt;37</title>
<path fill="none" stroke="red" d="M56.8662,-421.251C64.5499,-411.364 75.0087,-397.907 83.8163,-386.574"/>
<polygon fill="red" stroke="red" points="86.7834,-388.459 90.1563,-378.416 81.2563,-384.164 86.7834,-388.459"/>
</g>
<!-- 47 -->
<g id="node21" class="node"><title>47</title>
<ellipse fill="none" stroke="black" cx="231" cy="-509.002" rx="18.2703" ry="18.2703"/>
<text text-anchor="middle" x="231" y="-506.802" font-family="Times New Roman,serif" font-size="9.00">47</text>
</g>
<!-- 31&#45;&gt;47 -->
<g id="edge24" class="edge"><title>31&#45;&gt;47</title>
<path fill="none" stroke="green" d="M201.433,-565.066C206.255,-556.087 212.407,-544.629 217.85,-534.492"/>
<polygon fill="green" stroke="green" points="220.943,-536.13 222.59,-525.664 214.776,-532.819 220.943,-536.13"/>
</g>
<!-- 10 -->
<g id="node22" class="node"><title>10</title>
<ellipse fill="none" stroke="black" cx="193" cy="-436.233" rx="18.2703" ry="18.2703"/>
<text text-anchor="middle" x="193" y="-434.033" font-family="Times New Roman,serif" font-size="9.00">10</text>
</g>
<!-- 31&#45;&gt;10 -->
<g id="edge4" class="edge"><title>31&#45;&gt;10</title>
<path fill="none" stroke="green" d="M193,-563.171C193,-538.743 193,-494.297 193,-465.272"/>
<polygon fill="green" stroke="green" points="196.5,-464.977 193,-454.977 189.5,-464.977 196.5,-464.977"/>
</g>
<!-- 36 -->
<g id="node20" class="node"><title>36</title>
<ellipse fill="none" stroke="black" cx="46" cy="-290.693" rx="18.2703" ry="18.2703"/>
<text text-anchor="middle" x="46" y="-288.493" font-family="Times New Roman,serif" font-size="9.00">36</text>
</g>
<!-- 56&#45;&gt;36 -->
<g id="edge30" class="edge"><title>56&#45;&gt;36</title>
<path fill="none" stroke="red" d="M46,-344.969C46,-337.287 46,-328.078 46,-319.494"/>
<polygon fill="red" stroke="red" points="49.5001,-319.477 46,-309.477 42.5001,-319.477 49.5001,-319.477"/>
</g>
<!-- 47&#45;&gt;10 -->
<g id="edge25" class="edge"><title>47&#45;&gt;10</title>
<path fill="none" stroke="green" d="M222.567,-492.296C217.745,-483.317 211.593,-471.859 206.15,-461.723"/>
<polygon fill="green" stroke="green" points="209.224,-460.049 201.41,-452.895 203.057,-463.361 209.224,-460.049"/>
</g>
<!-- 10&#45;&gt;37 -->
<g id="edge10" class="edge"><title>10&#45;&gt;37</title>
<path fill="none" stroke="green" d="M178.625,-424.175C163.907,-412.853 140.817,-395.091 123.641,-381.879"/>
<polygon fill="green" stroke="green" points="125.334,-378.766 115.274,-375.443 121.066,-384.314 125.334,-378.766"/>
</g>
<!-- 37&#45;&gt;45 -->
<g id="edge17" class="edge"><title>37&#45;&gt;45</title>
<path fill="none" stroke="green" d="M106.451,-345.692C109.143,-337.407 112.454,-327.219 115.472,-317.934"/>
<polygon fill="green" stroke="green" points="118.826,-318.937 118.588,-308.344 112.169,-316.773 118.826,-318.937"/>
</g>
<!-- 28 -->
<g id="node25" class="node"><title>28</title>
<ellipse fill="none" stroke="black" cx="124" cy="-217.924" rx="18.2703" ry="18.2703"/>
<text text-anchor="middle" x="124" y="-215.724" font-family="Times New Roman,serif" font-size="9.00">28</text>
</g>
<!-- 45&#45;&gt;28 -->
<g id="edge18" class="edge"><title>45&#45;&gt;28</title>
<path fill="none" stroke="red" d="M124,-272.2C124,-264.518 124,-255.308 124,-246.724"/>
<polygon fill="red" stroke="red" points="127.5,-246.708 124,-236.708 120.5,-246.708 127.5,-246.708"/>
</g>
<!-- 28&#45;&gt;5 -->
<g id="edge3" class="edge"><title>28&#45;&gt;5</title>
<path fill="none" stroke="green" d="M122.079,-199.638C117.775,-160.916 107.394,-67.5276 103.009,-28.0751"/>
<polygon fill="green" stroke="green" points="106.481,-27.625 101.897,-18.0729 99.5235,-28.3984 106.481,-27.625"/>
</g>
<!-- 28&#45;&gt;34 -->
<g id="edge23" class="edge"><title>28&#45;&gt;34</title>
<path fill="none" stroke="green" d="M129.451,-200.152C132.143,-191.868 135.454,-181.68 138.472,-172.394"/>
<polygon fill="green" stroke="green" points="141.826,-173.398 141.588,-162.805 135.169,-171.234 141.826,-173.398"/>
</g>
<!-- 60 -->
<g id="node27" class="node"><title>60</title>
<ellipse fill="none" stroke="black" cx="147" cy="-72.3848" rx="18.2703" ry="18.2703"/>
<text text-anchor="middle" x="147" y="-70.1848" font-family="Times New Roman,serif" font-size="9.00">60</text>
</g>
<!-- 34&#45;&gt;60 -->
<g id="edge31" class="edge"><title>34&#45;&gt;60</title>
<path fill="none" stroke="green" d="M147,-126.661C147,-118.978 147,-109.769 147,-101.185"/>
<polygon fill="green" stroke="green" points="150.5,-101.169 147,-91.1687 143.5,-101.169 150.5,-101.169"/>
</g>
<!-- 60&#45;&gt;5 -->
<g id="edge32" class="edge"><title>60&#45;&gt;5</title>
<path fill="none" stroke="green" d="M136.331,-57.1476C129.493,-48.0221 120.589,-36.1412 113.431,-26.5892"/>
<polygon fill="green" stroke="green" points="116.025,-24.2141 107.228,-18.3105 110.424,-28.4119 116.025,-24.2141"/>
</g>
</g>
</svg>
