<?xml version="1.0" encoding="UTF-8" standalone="no"?>
<!DOCTYPE svg PUBLIC "-//W3C//DTD SVG 1.1//EN"
 "http://www.w3.org/Graphics/SVG/1.1/DTD/svg11.dtd">
<!-- Generated by graphviz version 2.38.0 (20140413.2041)
 -->
<!-- Title: %3 Pages: 1 -->
<svg width="289pt" height="1026pt"
 viewBox="0.00 0.00 288.77 1026.00" xmlns="http://www.w3.org/2000/svg" xmlns:xlink="http://www.w3.org/1999/xlink">
<g id="graph0" class="graph" transform="scale(1 1) rotate(0) translate(4 1022)">
<title>%3</title>
<polygon fill="white" stroke="none" points="-4,4 -4,-1022 284.77,-1022 284.77,4 -4,4"/>
<!-- 1 -->
<g id="node1" class="node"><title>1</title>
<polygon fill="lightgray" stroke="black" points="226.885,-1018 205.885,-1018 205.885,-1000 226.885,-1000 226.885,-1018"/>
<text text-anchor="middle" x="216.385" y="-1006.8" font-family="Times New Roman,serif" font-size="9.00">1</text>
</g>
<!-- 19 -->
<g id="node6" class="node"><title>19</title>
<ellipse fill="none" stroke="black" cx="150.385" cy="-945.619" rx="18.2703" ry="18.2703"/>
<text text-anchor="middle" x="150.385" y="-943.419" font-family="Times New Roman,serif" font-size="9.00">19</text>
</g>
<!-- 1&#45;&gt;19 -->
<g id="edge13" class="edge"><title>1&#45;&gt;19</title>
<path fill="none" stroke="green" d="M207.756,-999.979C198.584,-991.448 183.737,-977.639 171.444,-966.206"/>
<polygon fill="green" stroke="green" points="173.527,-963.363 163.82,-959.116 168.759,-968.489 173.527,-963.363"/>
</g>
<!-- 12 -->
<g id="node10" class="node"><title>12</title>
<ellipse fill="none" stroke="black" cx="262.385" cy="-945.619" rx="18.2703" ry="18.2703"/>
<text text-anchor="middle" x="262.385" y="-943.419" font-family="Times New Roman,serif" font-size="9.00">12</text>
</g>
<!-- 1&#45;&gt;12 -->
<g id="edge15" class="edge"><title>1&#45;&gt;12</title>
<path fill="none" stroke="green" d="M222.398,-999.979C228.24,-992.184 237.385,-979.98 245.456,-969.21"/>
<polygon fill="green" stroke="green" points="248.418,-971.093 251.614,-960.992 242.817,-966.896 248.418,-971.093"/>
</g>
<!-- 7 -->
<g id="node13" class="node"><title>7</title>
<ellipse fill="none" stroke="black" cx="230.385" cy="-800.08" rx="14.7" ry="14.7"/>
<text text-anchor="middle" x="230.385" y="-797.88" font-family="Times New Roman,serif" font-size="9.00">7</text>
</g>
<!-- 1&#45;&gt;7 -->
<g id="edge20" class="edge"><title>1&#45;&gt;7</title>
<path fill="none" stroke="red" d="M216.934,-999.893C218.899,-970.839 225.637,-871.252 228.765,-825.018"/>
<polygon fill="red" stroke="red" points="232.26,-825.205 229.444,-814.991 225.276,-824.732 232.26,-825.205"/>
</g>
<!-- 2 -->
<g id="node2" class="node"><title>2</title>
<polygon fill="lightgray" stroke="black" points="75.8848,-590.772 54.8848,-590.772 54.8848,-572.772 75.8848,-572.772 75.8848,-590.772"/>
<text text-anchor="middle" x="65.3848" y="-579.572" font-family="Times New Roman,serif" font-size="9.00">2</text>
</g>
<!-- 5 -->
<g id="node5" class="node"><title>5</title>
<polygon fill="lightblue" stroke="black" points="120.885,-18 99.8848,-18 99.8848,-0 120.885,-0 120.885,-18"/>
<text text-anchor="middle" x="110.385" y="-6.8" font-family="Times New Roman,serif" font-size="9.00">5</text>
</g>
<!-- 2&#45;&gt;5 -->
<g id="edge1" class="edge"><title>2&#45;&gt;5</title>
<path fill="none" stroke="green" d="M65.2889,-572.678C65.0386,-550.829 64.3848,-488.818 64.3848,-437.233 64.3848,-437.233 64.3848,-437.233 64.3848,-144.154 64.3848,-103.206 68.2323,-92.0421 83.3848,-54 87.1987,-44.4248 93.0345,-34.5732 98.3062,-26.6258"/>
<polygon fill="green" stroke="green" points="101.257,-28.5132 104.08,-18.3016 95.5048,-24.5234 101.257,-28.5132"/>
</g>
<!-- 38 -->
<g id="node17" class="node"><title>38</title>
<ellipse fill="none" stroke="black" cx="18.3848" cy="-509.002" rx="18.2703" ry="18.2703"/>
<text text-anchor="middle" x="18.3848" y="-506.802" font-family="Times New Roman,serif" font-size="9.00">38</text>
</g>
<!-- 2&#45;&gt;38 -->
<g id="edge21" class="edge"><title>2&#45;&gt;38</title>
<path fill="none" stroke="red" d="M59.9933,-572.653C53.6243,-563.063 42.7526,-546.694 33.7193,-533.092"/>
<polygon fill="red" stroke="red" points="36.5623,-531.046 28.1143,-524.652 30.7311,-534.919 36.5623,-531.046"/>
</g>
<!-- 3 -->
<g id="node3" class="node"><title>3</title>
<polygon fill="lightgray" stroke="black" points="265.885,-1018 244.885,-1018 244.885,-1000 265.885,-1000 265.885,-1018"/>
<text text-anchor="middle" x="255.385" y="-1006.8" font-family="Times New Roman,serif" font-size="9.00">3</text>
</g>
<!-- 4 -->
<g id="node4" class="node"><title>4</title>
<polygon fill="lightgray" stroke="black" points="187.885,-881.85 166.885,-881.85 166.885,-863.85 187.885,-863.85 187.885,-881.85"/>
<text text-anchor="middle" x="177.385" y="-870.65" font-family="Times New Roman,serif" font-size="9.00">4</text>
</g>
<!-- 16 -->
<g id="node8" class="node"><title>16</title>
<ellipse fill="none" stroke="black" cx="124.385" cy="-800.08" rx="18.2703" ry="18.2703"/>
<text text-anchor="middle" x="124.385" y="-797.88" font-family="Times New Roman,serif" font-size="9.00">16</text>
</g>
<!-- 4&#45;&gt;16 -->
<g id="edge14" class="edge"><title>4&#45;&gt;16</title>
<path fill="none" stroke="green" d="M171.305,-863.732C163.964,-853.93 151.32,-837.046 141.006,-823.274"/>
<polygon fill="green" stroke="green" points="143.749,-821.098 134.953,-815.192 138.146,-825.294 143.749,-821.098"/>
</g>
<!-- 20 -->
<g id="node9" class="node"><title>20</title>
<ellipse fill="none" stroke="black" cx="179.385" cy="-800.08" rx="18.2703" ry="18.2703"/>
<text text-anchor="middle" x="179.385" y="-797.88" font-family="Times New Roman,serif" font-size="9.00">20</text>
</g>
<!-- 4&#45;&gt;20 -->
<g id="edge7" class="edge"><title>4&#45;&gt;20</title>
<path fill="none" stroke="green" d="M177.614,-863.732C177.856,-855.166 178.251,-841.19 178.607,-828.61"/>
<polygon fill="green" stroke="green" points="182.108,-828.615 178.892,-818.52 175.111,-828.417 182.108,-828.615"/>
</g>
<!-- 4&#45;&gt;7 -->
<g id="edge22" class="edge"><title>4&#45;&gt;7</title>
<path fill="none" stroke="red" d="M183.465,-863.732C191.3,-853.269 205.18,-834.735 215.818,-820.531"/>
<polygon fill="red" stroke="red" points="218.746,-822.46 221.939,-812.358 213.143,-818.264 218.746,-822.46"/>
</g>
<!-- 30 -->
<g id="node7" class="node"><title>30</title>
<ellipse fill="none" stroke="black" cx="126.385" cy="-872.85" rx="18.2703" ry="18.2703"/>
<text text-anchor="middle" x="126.385" y="-870.65" font-family="Times New Roman,serif" font-size="9.00">30</text>
</g>
<!-- 19&#45;&gt;30 -->
<g id="edge27" class="edge"><title>19&#45;&gt;30</title>
<path fill="none" stroke="green" d="M144.697,-927.848C141.888,-919.563 138.433,-909.376 135.284,-900.09"/>
<polygon fill="green" stroke="green" points="138.558,-898.847 132.032,-890.501 131.929,-901.095 138.558,-898.847"/>
</g>
<!-- 30&#45;&gt;16 -->
<g id="edge28" class="edge"><title>30&#45;&gt;16</title>
<path fill="none" stroke="red" d="M125.89,-854.356C125.673,-846.674 125.413,-837.465 125.17,-828.881"/>
<polygon fill="red" stroke="red" points="128.669,-828.761 124.887,-818.864 121.671,-828.959 128.669,-828.761"/>
</g>
<!-- 6 -->
<g id="node11" class="node"><title>6</title>
<ellipse fill="none" stroke="black" cx="71.3848" cy="-727.311" rx="14.7" ry="14.7"/>
<text text-anchor="middle" x="71.3848" y="-725.111" font-family="Times New Roman,serif" font-size="9.00">6</text>
</g>
<!-- 16&#45;&gt;6 -->
<g id="edge2" class="edge"><title>16&#45;&gt;6</title>
<path fill="none" stroke="red" d="M113.659,-784.759C105.753,-774.202 94.9023,-759.713 86.1734,-748.058"/>
<polygon fill="red" stroke="red" points="88.7919,-745.715 79.9959,-739.809 83.1889,-749.911 88.7919,-745.715"/>
</g>
<!-- 11 -->
<g id="node12" class="node"><title>11</title>
<ellipse fill="none" stroke="black" cx="179.385" cy="-727.311" rx="18.2703" ry="18.2703"/>
<text text-anchor="middle" x="179.385" y="-725.111" font-family="Times New Roman,serif" font-size="9.00">11</text>
</g>
<!-- 20&#45;&gt;11 -->
<g id="edge8" class="edge"><title>20&#45;&gt;11</title>
<path fill="none" stroke="green" d="M179.385,-781.587C179.385,-773.904 179.385,-764.695 179.385,-756.111"/>
<polygon fill="green" stroke="green" points="182.885,-756.095 179.385,-746.095 175.885,-756.095 182.885,-756.095"/>
</g>
<!-- 37 -->
<g id="node24" class="node"><title>37</title>
<ellipse fill="none" stroke="black" cx="156.385" cy="-363.463" rx="18.2703" ry="18.2703"/>
<text text-anchor="middle" x="156.385" y="-361.263" font-family="Times New Roman,serif" font-size="9.00">37</text>
</g>
<!-- 20&#45;&gt;37 -->
<g id="edge26" class="edge"><title>20&#45;&gt;37</title>
<path fill="none" stroke="red" d="M191.09,-785.469C210.776,-761.132 248.385,-707.799 248.385,-655.541 248.385,-655.541 248.385,-655.541 248.385,-508.002 248.385,-456.008 205.068,-407.785 177.88,-382.638"/>
<polygon fill="red" stroke="red" points="180.137,-379.961 170.358,-375.884 175.461,-385.169 180.137,-379.961"/>
</g>
<!-- 12&#45;&gt;7 -->
<g id="edge16" class="edge"><title>12&#45;&gt;7</title>
<path fill="none" stroke="red" d="M258.588,-927.59C252.892,-902.04 242.116,-853.704 235.66,-824.741"/>
<polygon fill="red" stroke="red" points="239.008,-823.676 233.416,-814.677 232.176,-825.199 239.008,-823.676"/>
</g>
<!-- 63 -->
<g id="node14" class="node"><title>63</title>
<ellipse fill="none" stroke="black" cx="60.3848" cy="-654.541" rx="18.2703" ry="18.2703"/>
<text text-anchor="middle" x="60.3848" y="-652.341" font-family="Times New Roman,serif" font-size="9.00">63</text>
</g>
<!-- 6&#45;&gt;63 -->
<g id="edge33" class="edge"><title>6&#45;&gt;63</title>
<path fill="none" stroke="green" d="M69.2115,-712.329C67.9011,-703.898 66.187,-692.871 64.6183,-682.778"/>
<polygon fill="green" stroke="green" points="68.0537,-682.091 63.0592,-672.747 61.1367,-683.166 68.0537,-682.091"/>
</g>
<!-- 32 -->
<g id="node15" class="node"><title>32</title>
<ellipse fill="none" stroke="black" cx="156.385" cy="-654.541" rx="18.2703" ry="18.2703"/>
<text text-anchor="middle" x="156.385" y="-652.341" font-family="Times New Roman,serif" font-size="9.00">32</text>
</g>
<!-- 11&#45;&gt;32 -->
<g id="edge5" class="edge"><title>11&#45;&gt;32</title>
<path fill="none" stroke="green" d="M173.934,-709.539C171.242,-701.255 167.931,-691.067 164.913,-681.781"/>
<polygon fill="green" stroke="green" points="168.216,-680.621 161.796,-672.192 161.559,-682.784 168.216,-680.621"/>
</g>
<!-- 36 -->
<g id="node21" class="node"><title>36</title>
<ellipse fill="none" stroke="black" cx="202.385" cy="-509.002" rx="18.2703" ry="18.2703"/>
<text text-anchor="middle" x="202.385" y="-506.802" font-family="Times New Roman,serif" font-size="9.00">36</text>
</g>
<!-- 11&#45;&gt;36 -->
<g id="edge32" class="edge"><title>11&#45;&gt;36</title>
<path fill="none" stroke="red" d="M181.228,-708.975C185.215,-671.479 194.667,-582.587 199.472,-537.397"/>
<polygon fill="red" stroke="red" points="202.956,-537.734 200.533,-527.42 195.995,-536.994 202.956,-537.734"/>
</g>
<!-- 33 -->
<g id="node16" class="node"><title>33</title>
<ellipse fill="none" stroke="black" cx="18.3848" cy="-581.772" rx="18.2703" ry="18.2703"/>
<text text-anchor="middle" x="18.3848" y="-579.572" font-family="Times New Roman,serif" font-size="9.00">33</text>
</g>
<!-- 63&#45;&gt;33 -->
<g id="edge34" class="edge"><title>63&#45;&gt;33</title>
<path fill="none" stroke="red" d="M51.2714,-638.185C45.8227,-629.004 38.7821,-617.141 32.6141,-606.748"/>
<polygon fill="red" stroke="red" points="35.5939,-604.911 27.4804,-598.098 29.5742,-608.484 35.5939,-604.911"/>
</g>
<!-- 31 -->
<g id="node19" class="node"><title>31</title>
<ellipse fill="none" stroke="black" cx="156.385" cy="-581.772" rx="18.2703" ry="18.2703"/>
<text text-anchor="middle" x="156.385" y="-579.572" font-family="Times New Roman,serif" font-size="9.00">31</text>
</g>
<!-- 32&#45;&gt;31 -->
<g id="edge6" class="edge"><title>32&#45;&gt;31</title>
<path fill="none" stroke="green" d="M156.385,-636.048C156.385,-628.365 156.385,-619.156 156.385,-610.572"/>
<polygon fill="green" stroke="green" points="159.885,-610.556 156.385,-600.556 152.885,-610.556 159.885,-610.556"/>
</g>
<!-- 33&#45;&gt;38 -->
<g id="edge10" class="edge"><title>33&#45;&gt;38</title>
<path fill="none" stroke="green" d="M18.3848,-563.278C18.3848,-555.596 18.3848,-546.387 18.3848,-537.802"/>
<polygon fill="green" stroke="green" points="21.8849,-537.786 18.3848,-527.786 14.8849,-537.786 21.8849,-537.786"/>
</g>
<!-- 21 -->
<g id="node18" class="node"><title>21</title>
<ellipse fill="none" stroke="black" cx="18.3848" cy="-436.233" rx="18.2703" ry="18.2703"/>
<text text-anchor="middle" x="18.3848" y="-434.033" font-family="Times New Roman,serif" font-size="9.00">21</text>
</g>
<!-- 38&#45;&gt;21 -->
<g id="edge11" class="edge"><title>38&#45;&gt;21</title>
<path fill="none" stroke="red" d="M18.3848,-490.508C18.3848,-482.826 18.3848,-473.617 18.3848,-465.033"/>
<polygon fill="red" stroke="red" points="21.8849,-465.016 18.3848,-455.016 14.8849,-465.016 21.8849,-465.016"/>
</g>
<!-- 56 -->
<g id="node20" class="node"><title>56</title>
<ellipse fill="none" stroke="black" cx="18.3848" cy="-363.463" rx="18.2703" ry="18.2703"/>
<text text-anchor="middle" x="18.3848" y="-361.263" font-family="Times New Roman,serif" font-size="9.00">56</text>
</g>
<!-- 21&#45;&gt;56 -->
<g id="edge29" class="edge"><title>21&#45;&gt;56</title>
<path fill="none" stroke="green" d="M18.3848,-417.739C18.3848,-410.057 18.3848,-400.847 18.3848,-392.263"/>
<polygon fill="green" stroke="green" points="21.8849,-392.247 18.3848,-382.247 14.8849,-392.247 21.8849,-392.247"/>
</g>
<!-- 21&#45;&gt;37 -->
<g id="edge19" class="edge"><title>21&#45;&gt;37</title>
<path fill="none" stroke="green" d="M34.4852,-426.976C58.2718,-414.778 103.02,-391.83 131.18,-377.389"/>
<polygon fill="green" stroke="green" points="133.086,-380.345 140.387,-372.667 129.892,-374.116 133.086,-380.345"/>
</g>
<!-- 47 -->
<g id="node22" class="node"><title>47</title>
<ellipse fill="none" stroke="black" cx="110.385" cy="-509.002" rx="18.2703" ry="18.2703"/>
<text text-anchor="middle" x="110.385" y="-506.802" font-family="Times New Roman,serif" font-size="9.00">47</text>
</g>
<!-- 31&#45;&gt;47 -->
<g id="edge24" class="edge"><title>31&#45;&gt;47</title>
<path fill="none" stroke="red" d="M146.629,-565.763C140.531,-556.381 132.547,-544.098 125.626,-533.45"/>
<polygon fill="red" stroke="red" points="128.511,-531.466 120.126,-524.989 122.641,-535.281 128.511,-531.466"/>
</g>
<!-- 10 -->
<g id="node23" class="node"><title>10</title>
<ellipse fill="none" stroke="black" cx="156.385" cy="-436.233" rx="18.2703" ry="18.2703"/>
<text text-anchor="middle" x="156.385" y="-434.033" font-family="Times New Roman,serif" font-size="9.00">10</text>
</g>
<!-- 31&#45;&gt;10 -->
<g id="edge4" class="edge"><title>31&#45;&gt;10</title>
<path fill="none" stroke="green" d="M156.385,-563.171C156.385,-538.743 156.385,-494.297 156.385,-465.272"/>
<polygon fill="green" stroke="green" points="159.885,-464.977 156.385,-454.977 152.885,-464.977 159.885,-464.977"/>
</g>
<!-- 36&#45;&gt;10 -->
<g id="edge12" class="edge"><title>36&#45;&gt;10</title>
<path fill="none" stroke="green" d="M192.629,-492.994C186.531,-483.611 178.547,-471.329 171.626,-460.68"/>
<polygon fill="green" stroke="green" points="174.511,-458.696 166.126,-452.219 168.641,-462.511 174.511,-458.696"/>
</g>
<!-- 47&#45;&gt;10 -->
<g id="edge25" class="edge"><title>47&#45;&gt;10</title>
<path fill="none" stroke="green" d="M120.14,-492.994C126.239,-483.611 134.222,-471.329 141.144,-460.68"/>
<polygon fill="green" stroke="green" points="144.128,-462.511 146.643,-452.219 138.259,-458.696 144.128,-462.511"/>
</g>
<!-- 10&#45;&gt;37 -->
<g id="edge9" class="edge"><title>10&#45;&gt;37</title>
<path fill="none" stroke="green" d="M156.385,-417.739C156.385,-410.057 156.385,-400.847 156.385,-392.263"/>
<polygon fill="green" stroke="green" points="159.885,-392.247 156.385,-382.247 152.885,-392.247 159.885,-392.247"/>
</g>
<!-- 45 -->
<g id="node25" class="node"><title>45</title>
<ellipse fill="none" stroke="black" cx="156.385" cy="-290.693" rx="18.2703" ry="18.2703"/>
<text text-anchor="middle" x="156.385" y="-288.493" font-family="Times New Roman,serif" font-size="9.00">45</text>
</g>
<!-- 37&#45;&gt;45 -->
<g id="edge17" class="edge"><title>37&#45;&gt;45</title>
<path fill="none" stroke="green" d="M156.385,-344.969C156.385,-337.287 156.385,-328.078 156.385,-319.494"/>
<polygon fill="green" stroke="green" points="159.885,-319.477 156.385,-309.477 152.885,-319.477 159.885,-319.477"/>
</g>
<!-- 28 -->
<g id="node26" class="node"><title>28</title>
<ellipse fill="none" stroke="black" cx="156.385" cy="-217.924" rx="18.2703" ry="18.2703"/>
<text text-anchor="middle" x="156.385" y="-215.724" font-family="Times New Roman,serif" font-size="9.00">28</text>
</g>
<!-- 45&#45;&gt;28 -->
<g id="edge18" class="edge"><title>45&#45;&gt;28</title>
<path fill="none" stroke="green" d="M156.385,-272.2C156.385,-264.518 156.385,-255.308 156.385,-246.724"/>
<polygon fill="green" stroke="green" points="159.885,-246.708 156.385,-236.708 152.885,-246.708 159.885,-246.708"/>
</g>
<!-- 28&#45;&gt;5 -->
<g id="edge3" class="edge"><title>28&#45;&gt;5</title>
<path fill="none" stroke="red" d="M156.782,-199.253C156.935,-168.743 154.897,-104.592 137.385,-54 134.013,-44.2602 128.222,-34.3919 122.866,-26.476"/>
<polygon fill="red" stroke="red" points="125.614,-24.3016 116.949,-18.205 119.921,-28.3745 125.614,-24.3016"/>
</g>
<!-- 34 -->
<g id="node27" class="node"><title>34</title>
<ellipse fill="none" stroke="black" cx="110.385" cy="-145.154" rx="18.2703" ry="18.2703"/>
<text text-anchor="middle" x="110.385" y="-142.954" font-family="Times New Roman,serif" font-size="9.00">34</text>
</g>
<!-- 28&#45;&gt;34 -->
<g id="edge23" class="edge"><title>28&#45;&gt;34</title>
<path fill="none" stroke="green" d="M146.629,-201.915C140.531,-192.533 132.547,-180.251 125.626,-169.602"/>
<polygon fill="green" stroke="green" points="128.511,-167.618 120.126,-161.141 122.641,-171.433 128.511,-167.618"/>
</g>
<!-- 60 -->
<g id="node28" class="node"><title>60</title>
<ellipse fill="none" stroke="black" cx="110.385" cy="-72.3848" rx="18.2703" ry="18.2703"/>
<text text-anchor="middle" x="110.385" y="-70.1848" font-family="Times New Roman,serif" font-size="9.00">60</text>
</g>
<!-- 34&#45;&gt;60 -->
<g id="edge30" class="edge"><title>34&#45;&gt;60</title>
<path fill="none" stroke="red" d="M110.385,-126.661C110.385,-118.978 110.385,-109.769 110.385,-101.185"/>
<polygon fill="red" stroke="red" points="113.885,-101.169 110.385,-91.1687 106.885,-101.169 113.885,-101.169"/>
</g>
<!-- 60&#45;&gt;5 -->
<g id="edge31" class="edge"><title>60&#45;&gt;5</title>
<path fill="none" stroke="red" d="M110.385,-53.9586C110.385,-45.9601 110.385,-36.4732 110.385,-28.3636"/>
<polygon fill="red" stroke="red" points="113.885,-28.1158 110.385,-18.1158 106.885,-28.1158 113.885,-28.1158"/>
</g>
</g>
</svg>
