<?xml version="1.0" encoding="UTF-8" standalone="no"?>
<!DOCTYPE svg PUBLIC "-//W3C//DTD SVG 1.1//EN"
 "http://www.w3.org/Graphics/SVG/1.1/DTD/svg11.dtd">
<!-- Generated by graphviz version 2.38.0 (20140413.2041)
 -->
<!-- Title: %3 Pages: 1 -->
<svg width="686pt" height="1866pt"
 viewBox="0.00 0.00 686.00 1866.07" xmlns="http://www.w3.org/2000/svg" xmlns:xlink="http://www.w3.org/1999/xlink">
<g id="graph0" class="graph" transform="scale(1 1) rotate(0) translate(4 1862.07)">
<title>%3</title>
<polygon fill="white" stroke="none" points="-4,4 -4,-1862.07 682,-1862.07 682,4 -4,4"/>
<!-- 1 -->
<g id="node1" class="node"><title>1</title>
<polygon fill="lightgray" stroke="black" points="165.5,-1858.07 144.5,-1858.07 144.5,-1840.07 165.5,-1840.07 165.5,-1858.07"/>
<text text-anchor="middle" x="155" y="-1846.87" font-family="Times New Roman,serif" font-size="9.00">1</text>
</g>
<!-- 29 -->
<g id="node6" class="node"><title>29</title>
<ellipse fill="none" stroke="black" cx="201" cy="-1785.68" rx="18.2703" ry="18.2703"/>
<text text-anchor="middle" x="201" y="-1783.48" font-family="Times New Roman,serif" font-size="9.00">29</text>
</g>
<!-- 1&#45;&gt;29 -->
<g id="edge33" class="edge"><title>1&#45;&gt;29</title>
<path fill="none" stroke="red" d="M161.014,-1840.04C166.855,-1832.25 176,-1820.04 184.071,-1809.27"/>
<polygon fill="red" stroke="red" points="187.034,-1811.16 190.23,-1801.06 181.432,-1806.96 187.034,-1811.16"/>
</g>
<!-- 19 -->
<g id="node8" class="node"><title>19</title>
<ellipse fill="none" stroke="black" cx="222" cy="-1634.49" rx="18.2703" ry="18.2703"/>
<text text-anchor="middle" x="222" y="-1632.29" font-family="Times New Roman,serif" font-size="9.00">19</text>
</g>
<!-- 1&#45;&gt;19 -->
<g id="edge65" class="edge"><title>1&#45;&gt;19</title>
<path fill="none" stroke="green" d="M156.576,-1839.96C159.497,-1825.31 166.17,-1793.52 174,-1767.3 185.133,-1730.01 201.069,-1687.92 211.474,-1661.54"/>
<polygon fill="green" stroke="green" points="214.858,-1662.51 215.302,-1651.92 208.354,-1659.92 214.858,-1662.51"/>
</g>
<!-- 7 -->
<g id="node21" class="node"><title>7</title>
<ellipse fill="none" stroke="black" cx="517" cy="-1486.12" rx="14.7" ry="14.7"/>
<text text-anchor="middle" x="517" y="-1483.92" font-family="Times New Roman,serif" font-size="9.00">7</text>
</g>
<!-- 1&#45;&gt;7 -->
<g id="edge13" class="edge"><title>1&#45;&gt;7</title>
<path fill="none" stroke="green" d="M165.831,-1846.16C223.514,-1835.72 492,-1783.24 492,-1711.08 492,-1711.08 492,-1711.08 492,-1633.49 492,-1589.6 503.057,-1539.35 510.464,-1510.61"/>
<polygon fill="green" stroke="green" points="513.91,-1511.27 513.094,-1500.71 507.144,-1509.48 513.91,-1511.27"/>
</g>
<!-- 28 -->
<g id="node46" class="node"><title>28</title>
<ellipse fill="none" stroke="black" cx="314" cy="-363.463" rx="18.2703" ry="18.2703"/>
<text text-anchor="middle" x="314" y="-361.263" font-family="Times New Roman,serif" font-size="9.00">28</text>
</g>
<!-- 1&#45;&gt;28 -->
<g id="edge59" class="edge"><title>1&#45;&gt;28</title>
<path fill="none" stroke="green" d="M144.203,-1842.29C115.238,-1825.91 38,-1776.14 38,-1711.08 38,-1711.08 38,-1711.08 38,-659.198 38,-585.231 225.542,-432.936 291.438,-381.708"/>
<polygon fill="green" stroke="green" points="293.78,-384.321 299.55,-375.436 289.498,-378.784 293.78,-384.321"/>
</g>
<!-- 60 -->
<g id="node48" class="node"><title>60</title>
<ellipse fill="none" stroke="black" cx="476" cy="-217.924" rx="18.2703" ry="18.2703"/>
<text text-anchor="middle" x="476" y="-215.724" font-family="Times New Roman,serif" font-size="9.00">60</text>
</g>
<!-- 1&#45;&gt;60 -->
<g id="edge68" class="edge"><title>1&#45;&gt;60</title>
<path fill="none" stroke="red" d="M144.36,-1845.77C124.522,-1841.03 81.4198,-1828.49 54,-1804.07 18.3171,-1772.28 0,-1758.87 0,-1711.08 0,-1711.08 0,-1711.08 0,-659.198 0,-412.424 349.054,-265.436 449.349,-228.294"/>
<polygon fill="red" stroke="red" points="450.581,-231.57 458.778,-224.857 448.184,-224.994 450.581,-231.57"/>
</g>
<!-- 2 -->
<g id="node2" class="node"><title>2</title>
<polygon fill="lightgray" stroke="black" points="87.5,-1119.96 66.5,-1119.96 66.5,-1101.96 87.5,-1101.96 87.5,-1119.96"/>
<text text-anchor="middle" x="77" y="-1108.76" font-family="Times New Roman,serif" font-size="9.00">2</text>
</g>
<!-- 8 -->
<g id="node22" class="node"><title>8</title>
<ellipse fill="none" stroke="black" cx="81" cy="-660.198" rx="14.7" ry="14.7"/>
<text text-anchor="middle" x="81" y="-657.998" font-family="Times New Roman,serif" font-size="9.00">8</text>
</g>
<!-- 2&#45;&gt;8 -->
<g id="edge73" class="edge"><title>2&#45;&gt;8</title>
<path fill="none" stroke="red" d="M76.9077,-1101.72C76.6602,-1078.88 76,-1012.83 76,-957.933 76,-957.933 76,-957.933 76,-810.394 76,-766.271 78.2114,-714.849 79.6928,-685.351"/>
<polygon fill="red" stroke="red" points="83.1976,-685.347 80.2188,-675.18 76.207,-684.986 83.1976,-685.347"/>
</g>
<!-- 33 -->
<g id="node28" class="node"><title>33</title>
<ellipse fill="none" stroke="black" cx="160" cy="-1032.53" rx="18.2703" ry="18.2703"/>
<text text-anchor="middle" x="160" y="-1030.33" font-family="Times New Roman,serif" font-size="9.00">33</text>
</g>
<!-- 2&#45;&gt;33 -->
<g id="edge45" class="edge"><title>2&#45;&gt;33</title>
<path fill="none" stroke="red" d="M85.8825,-1101.78C98.5754,-1090.09 122.266,-1068.28 139.454,-1052.45"/>
<polygon fill="red" stroke="red" points="141.846,-1055.01 146.831,-1045.66 137.104,-1049.86 141.846,-1055.01"/>
</g>
<!-- 38 -->
<g id="node29" class="node"><title>38</title>
<ellipse fill="none" stroke="black" cx="144" cy="-956.933" rx="18.2703" ry="18.2703"/>
<text text-anchor="middle" x="144" y="-954.733" font-family="Times New Roman,serif" font-size="9.00">38</text>
</g>
<!-- 2&#45;&gt;38 -->
<g id="edge14" class="edge"><title>2&#45;&gt;38</title>
<path fill="none" stroke="red" d="M80.6022,-1101.78C90.2998,-1079.78 117.267,-1018.59 132.727,-983.513"/>
<polygon fill="red" stroke="red" points="136.11,-984.513 136.941,-973.951 129.705,-981.69 136.11,-984.513"/>
</g>
<!-- 3 -->
<g id="node3" class="node"><title>3</title>
<polygon fill="lightgray" stroke="black" points="315.5,-1343.92 294.5,-1343.92 294.5,-1325.92 315.5,-1325.92 315.5,-1343.92"/>
<text text-anchor="middle" x="305" y="-1332.72" font-family="Times New Roman,serif" font-size="9.00">3</text>
</g>
<!-- 6 -->
<g id="node19" class="node"><title>6</title>
<ellipse fill="none" stroke="black" cx="184" cy="-1186.56" rx="14.7" ry="14.7"/>
<text text-anchor="middle" x="184" y="-1184.36" font-family="Times New Roman,serif" font-size="9.00">6</text>
</g>
<!-- 3&#45;&gt;6 -->
<g id="edge24" class="edge"><title>3&#45;&gt;6</title>
<path fill="none" stroke="green" d="M298.148,-1325.63C279.24,-1302.76 225.982,-1238.34 199.438,-1206.23"/>
<polygon fill="green" stroke="green" points="202.074,-1203.93 193.005,-1198.45 196.679,-1208.39 202.074,-1203.93"/>
</g>
<!-- 11 -->
<g id="node20" class="node"><title>11</title>
<ellipse fill="none" stroke="black" cx="433" cy="-1259.33" rx="18.2703" ry="18.2703"/>
<text text-anchor="middle" x="433" y="-1257.13" font-family="Times New Roman,serif" font-size="9.00">11</text>
</g>
<!-- 3&#45;&gt;11 -->
<g id="edge22" class="edge"><title>3&#45;&gt;11</title>
<path fill="none" stroke="green" d="M315.913,-1327.65C336.336,-1315.91 380.78,-1290.35 408.657,-1274.32"/>
<polygon fill="green" stroke="green" points="410.492,-1277.3 417.417,-1269.29 407.003,-1271.24 410.492,-1277.3"/>
</g>
<!-- 4 -->
<g id="node4" class="node"><title>4</title>
<polygon fill="lightgray" stroke="black" points="438.5,-1570.72 417.5,-1570.72 417.5,-1552.72 438.5,-1552.72 438.5,-1570.72"/>
<text text-anchor="middle" x="428" y="-1559.52" font-family="Times New Roman,serif" font-size="9.00">4</text>
</g>
<!-- 54 -->
<g id="node9" class="node"><title>54</title>
<ellipse fill="none" stroke="black" cx="255" cy="-1410.52" rx="18.2703" ry="18.2703"/>
<text text-anchor="middle" x="255" y="-1408.32" font-family="Times New Roman,serif" font-size="9.00">54</text>
</g>
<!-- 4&#45;&gt;54 -->
<g id="edge26" class="edge"><title>4&#45;&gt;54</title>
<path fill="none" stroke="red" d="M418.699,-1552.7C391.947,-1529.62 314.298,-1462.66 276.363,-1429.94"/>
<polygon fill="red" stroke="red" points="278.335,-1427.02 268.476,-1423.14 273.763,-1432.32 278.335,-1427.02"/>
</g>
<!-- 65 -->
<g id="node10" class="node"><title>65</title>
<ellipse fill="none" stroke="black" cx="428" cy="-1486.12" rx="18.2703" ry="18.2703"/>
<text text-anchor="middle" x="428" y="-1483.92" font-family="Times New Roman,serif" font-size="9.00">65</text>
</g>
<!-- 4&#45;&gt;65 -->
<g id="edge29" class="edge"><title>4&#45;&gt;65</title>
<path fill="none" stroke="green" d="M428,-1552.56C428,-1543.46 428,-1528.26 428,-1514.79"/>
<polygon fill="green" stroke="green" points="431.5,-1514.52 428,-1504.52 424.5,-1514.52 431.5,-1514.52"/>
</g>
<!-- 20 -->
<g id="node17" class="node"><title>20</title>
<ellipse fill="none" stroke="black" cx="461" cy="-1410.52" rx="18.2703" ry="18.2703"/>
<text text-anchor="middle" x="461" y="-1408.32" font-family="Times New Roman,serif" font-size="9.00">20</text>
</g>
<!-- 4&#45;&gt;20 -->
<g id="edge39" class="edge"><title>4&#45;&gt;20</title>
<path fill="none" stroke="red" d="M433.526,-1552.46C439.982,-1542.32 450.369,-1524.37 455,-1507.33 461.058,-1485.05 462.315,-1458.81 462.195,-1439.44"/>
<polygon fill="red" stroke="red" points="465.689,-1439.11 461.999,-1429.17 458.69,-1439.24 465.689,-1439.11"/>
</g>
<!-- 4&#45;&gt;7 -->
<g id="edge15" class="edge"><title>4&#45;&gt;7</title>
<path fill="none" stroke="green" d="M437.865,-1552.56C452.386,-1540.55 479.786,-1517.89 498.219,-1502.65"/>
<polygon fill="green" stroke="green" points="500.503,-1505.3 505.979,-1496.23 496.043,-1499.91 500.503,-1505.3"/>
</g>
<!-- 37 -->
<g id="node44" class="node"><title>37</title>
<ellipse fill="none" stroke="black" cx="381" cy="-509.002" rx="18.2703" ry="18.2703"/>
<text text-anchor="middle" x="381" y="-506.802" font-family="Times New Roman,serif" font-size="9.00">37</text>
</g>
<!-- 4&#45;&gt;37 -->
<g id="edge31" class="edge"><title>4&#45;&gt;37</title>
<path fill="none" stroke="red" d="M423.067,-1552.7C417.009,-1542.51 406.823,-1524.22 401,-1507.33 386.85,-1466.29 382,-1454.93 382,-1411.52 382,-1411.52 382,-1411.52 382,-1185.56 382,-1083.83 358,-1059.66 358,-957.933 358,-957.933 358,-957.933 358,-659.198 358,-616.016 367.528,-566.616 374.318,-536.89"/>
<polygon fill="red" stroke="red" points="377.791,-537.412 376.674,-526.876 370.977,-535.809 377.791,-537.412"/>
</g>
<!-- 5 -->
<g id="node5" class="node"><title>5</title>
<polygon fill="lightblue" stroke="black" points="176.5,-18 155.5,-18 155.5,-0 176.5,-0 176.5,-18"/>
<text text-anchor="middle" x="166" y="-6.8" font-family="Times New Roman,serif" font-size="9.00">5</text>
</g>
<!-- 120 -->
<g id="node7" class="node"><title>120</title>
<ellipse fill="none" stroke="black" cx="246" cy="-1710.08" rx="21.4286" ry="21.4286"/>
<text text-anchor="middle" x="246" y="-1707.88" font-family="Times New Roman,serif" font-size="9.00">120</text>
</g>
<!-- 29&#45;&gt;120 -->
<g id="edge34" class="edge"><title>29&#45;&gt;120</title>
<path fill="none" stroke="green" d="M210.324,-1769.43C215.996,-1760.16 223.392,-1748.06 229.979,-1737.29"/>
<polygon fill="green" stroke="green" points="233.035,-1739 235.265,-1728.64 227.063,-1735.35 233.035,-1739"/>
</g>
<!-- 29&#45;&gt;19 -->
<g id="edge46" class="edge"><title>29&#45;&gt;19</title>
<path fill="none" stroke="green" d="M203.45,-1767.28C207.07,-1741.56 213.879,-1693.18 218.164,-1662.74"/>
<polygon fill="green" stroke="green" points="221.637,-1663.17 219.566,-1652.78 214.706,-1662.2 221.637,-1663.17"/>
</g>
<!-- 120&#45;&gt;19 -->
<g id="edge35" class="edge"><title>120&#45;&gt;19</title>
<path fill="none" stroke="green" d="M239.694,-1689.75C236.95,-1681.33 233.688,-1671.33 230.716,-1662.22"/>
<polygon fill="green" stroke="green" points="233.957,-1660.86 227.529,-1652.44 227.301,-1663.03 233.957,-1660.86"/>
</g>
<!-- 71 -->
<g id="node11" class="node"><title>71</title>
<ellipse fill="none" stroke="black" cx="222" cy="-1561.72" rx="18.2703" ry="18.2703"/>
<text text-anchor="middle" x="222" y="-1559.52" font-family="Times New Roman,serif" font-size="9.00">71</text>
</g>
<!-- 19&#45;&gt;71 -->
<g id="edge36" class="edge"><title>19&#45;&gt;71</title>
<path fill="none" stroke="red" d="M222,-1615.99C222,-1608.31 222,-1599.1 222,-1590.52"/>
<polygon fill="red" stroke="red" points="225.5,-1590.5 222,-1580.5 218.5,-1590.5 225.5,-1590.5"/>
</g>
<!-- 30 -->
<g id="node13" class="node"><title>30</title>
<ellipse fill="none" stroke="black" cx="160" cy="-1410.52" rx="18.2703" ry="18.2703"/>
<text text-anchor="middle" x="160" y="-1408.32" font-family="Times New Roman,serif" font-size="9.00">30</text>
</g>
<!-- 19&#45;&gt;30 -->
<g id="edge66" class="edge"><title>19&#45;&gt;30</title>
<path fill="none" stroke="green" d="M210.487,-1619.89C192.733,-1597.93 159.423,-1552.54 147,-1507.33 140.666,-1484.28 145.401,-1457.23 150.851,-1437.76"/>
<polygon fill="green" stroke="green" points="154.239,-1438.65 153.799,-1428.06 147.541,-1436.61 154.239,-1438.65"/>
</g>
<!-- 56 -->
<g id="node35" class="node"><title>56</title>
<ellipse fill="none" stroke="black" cx="312" cy="-811.394" rx="18.2703" ry="18.2703"/>
<text text-anchor="middle" x="312" y="-809.194" font-family="Times New Roman,serif" font-size="9.00">56</text>
</g>
<!-- 19&#45;&gt;56 -->
<g id="edge28" class="edge"><title>19&#45;&gt;56</title>
<path fill="none" stroke="red" d="M230.971,-1618.08C259.145,-1568.19 344,-1405.85 344,-1260.33 344,-1260.33 344,-1260.33 344,-1185.56 344,-1055.82 324.562,-901.642 315.985,-839.926"/>
<polygon fill="red" stroke="red" points="319.425,-839.249 314.565,-829.834 312.493,-840.225 319.425,-839.249"/>
</g>
<!-- 34 -->
<g id="node47" class="node"><title>34</title>
<ellipse fill="none" stroke="black" cx="648" cy="-290.693" rx="18.2703" ry="18.2703"/>
<text text-anchor="middle" x="648" y="-288.493" font-family="Times New Roman,serif" font-size="9.00">34</text>
</g>
<!-- 19&#45;&gt;34 -->
<g id="edge23" class="edge"><title>19&#45;&gt;34</title>
<path fill="none" stroke="green" d="M240.441,-1631.68C325.751,-1622.84 678,-1580.66 678,-1487.12 678,-1487.12 678,-1487.12 678,-435.233 678,-393.513 665.707,-346.387 656.859,-317.872"/>
<polygon fill="green" stroke="green" points="660.163,-316.713 653.784,-308.253 653.495,-318.844 660.163,-316.713"/>
</g>
<!-- 113 -->
<g id="node14" class="node"><title>113</title>
<ellipse fill="none" stroke="black" cx="255" cy="-1334.92" rx="21.4286" ry="21.4286"/>
<text text-anchor="middle" x="255" y="-1332.72" font-family="Times New Roman,serif" font-size="9.00">113</text>
</g>
<!-- 54&#45;&gt;113 -->
<g id="edge61" class="edge"><title>54&#45;&gt;113</title>
<path fill="none" stroke="red" d="M255,-1392.08C255,-1384.46 255,-1375.3 255,-1366.61"/>
<polygon fill="red" stroke="red" points="258.5,-1366.37 255,-1356.37 251.5,-1366.37 258.5,-1366.37"/>
</g>
<!-- 16 -->
<g id="node16" class="node"><title>16</title>
<ellipse fill="none" stroke="black" cx="184" cy="-1259.33" rx="18.2703" ry="18.2703"/>
<text text-anchor="middle" x="184" y="-1257.13" font-family="Times New Roman,serif" font-size="9.00">16</text>
</g>
<!-- 54&#45;&gt;16 -->
<g id="edge27" class="edge"><title>54&#45;&gt;16</title>
<path fill="none" stroke="red" d="M245.89,-1394.34C239.7,-1383.78 231.489,-1369.29 225,-1356.14 213.551,-1332.92 202.094,-1305.73 194.214,-1286.26"/>
<polygon fill="red" stroke="red" points="197.408,-1284.82 190.438,-1276.84 190.911,-1287.43 197.408,-1284.82"/>
</g>
<!-- 65&#45;&gt;20 -->
<g id="edge30" class="edge"><title>65&#45;&gt;20</title>
<path fill="none" stroke="red" d="M435.161,-1469.15C439.369,-1459.76 444.787,-1447.68 449.574,-1437"/>
<polygon fill="red" stroke="red" points="452.842,-1438.27 453.74,-1427.71 446.454,-1435.41 452.842,-1438.27"/>
</g>
<!-- 102 -->
<g id="node12" class="node"><title>102</title>
<ellipse fill="none" stroke="black" cx="177" cy="-1486.12" rx="21.4286" ry="21.4286"/>
<text text-anchor="middle" x="177" y="-1483.92" font-family="Times New Roman,serif" font-size="9.00">102</text>
</g>
<!-- 71&#45;&gt;102 -->
<g id="edge49" class="edge"><title>71&#45;&gt;102</title>
<path fill="none" stroke="red" d="M212.676,-1545.47C207.004,-1536.19 199.608,-1524.09 193.021,-1513.32"/>
<polygon fill="red" stroke="red" points="195.937,-1511.38 187.735,-1504.68 189.965,-1515.03 195.937,-1511.38"/>
</g>
<!-- 71&#45;&gt;30 -->
<g id="edge37" class="edge"><title>71&#45;&gt;30</title>
<path fill="none" stroke="green" d="M222.151,-1543.26C221.685,-1523.38 218.94,-1490.36 207,-1464.91 200.876,-1451.85 190.559,-1439.6 181.148,-1430.13"/>
<polygon fill="green" stroke="green" points="183.534,-1427.57 173.893,-1423.17 178.689,-1432.62 183.534,-1427.57"/>
</g>
<!-- 71&#45;&gt;20 -->
<g id="edge85" class="edge"><title>71&#45;&gt;20</title>
<path fill="none" stroke="red" d="M237.314,-1551.16C277.869,-1525.84 388.28,-1456.92 437.164,-1426.4"/>
<polygon fill="red" stroke="red" points="439.184,-1429.27 445.813,-1421 435.477,-1423.33 439.184,-1429.27"/>
</g>
<!-- 102&#45;&gt;30 -->
<g id="edge50" class="edge"><title>102&#45;&gt;30</title>
<path fill="none" stroke="red" d="M172.444,-1465.4C170.55,-1457.19 168.319,-1447.54 166.274,-1438.68"/>
<polygon fill="red" stroke="red" points="169.65,-1437.75 163.989,-1428.79 162.83,-1439.32 169.65,-1437.75"/>
</g>
<!-- 66 -->
<g id="node15" class="node"><title>66</title>
<ellipse fill="none" stroke="black" cx="160" cy="-1334.92" rx="18.2703" ry="18.2703"/>
<text text-anchor="middle" x="160" y="-1332.72" font-family="Times New Roman,serif" font-size="9.00">66</text>
</g>
<!-- 30&#45;&gt;66 -->
<g id="edge69" class="edge"><title>30&#45;&gt;66</title>
<path fill="none" stroke="green" d="M160,-1392.08C160,-1383.62 160,-1373.25 160,-1363.73"/>
<polygon fill="green" stroke="green" points="163.5,-1363.49 160,-1353.49 156.5,-1363.49 163.5,-1363.49"/>
</g>
<!-- 30&#45;&gt;16 -->
<g id="edge19" class="edge"><title>30&#45;&gt;16</title>
<path fill="none" stroke="green" d="M150.02,-1394.92C138.305,-1375.85 121.811,-1341.62 133,-1313.71 138.777,-1299.3 150.505,-1286.57 161.258,-1277.17"/>
<polygon fill="green" stroke="green" points="163.683,-1279.7 169.177,-1270.64 159.233,-1274.3 163.683,-1279.7"/>
</g>
<!-- 113&#45;&gt;16 -->
<g id="edge62" class="edge"><title>113&#45;&gt;16</title>
<path fill="none" stroke="green" d="M240.632,-1319.03C229.996,-1308 215.379,-1292.85 203.66,-1280.7"/>
<polygon fill="green" stroke="green" points="205.91,-1278 196.449,-1273.23 200.872,-1282.86 205.91,-1278"/>
</g>
<!-- 66&#45;&gt;16 -->
<g id="edge70" class="edge"><title>66&#45;&gt;16</title>
<path fill="none" stroke="green" d="M165.446,-1317.22C168.392,-1308.19 172.098,-1296.82 175.421,-1286.63"/>
<polygon fill="green" stroke="green" points="178.803,-1287.55 178.576,-1276.96 172.148,-1285.38 178.803,-1287.55"/>
</g>
<!-- 16&#45;&gt;6 -->
<g id="edge38" class="edge"><title>16&#45;&gt;6</title>
<path fill="none" stroke="red" d="M184,-1240.83C184,-1232.03 184,-1221.22 184,-1211.65"/>
<polygon fill="red" stroke="red" points="187.5,-1211.53 184,-1201.53 180.5,-1211.53 187.5,-1211.53"/>
</g>
<!-- 48 -->
<g id="node18" class="node"><title>48</title>
<ellipse fill="none" stroke="black" cx="431" cy="-1334.92" rx="18.2703" ry="18.2703"/>
<text text-anchor="middle" x="431" y="-1332.72" font-family="Times New Roman,serif" font-size="9.00">48</text>
</g>
<!-- 20&#45;&gt;48 -->
<g id="edge55" class="edge"><title>20&#45;&gt;48</title>
<path fill="none" stroke="green" d="M454.342,-1393.19C450.575,-1383.94 445.778,-1372.18 441.513,-1361.72"/>
<polygon fill="green" stroke="green" points="444.655,-1360.15 437.639,-1352.21 438.173,-1362.79 444.655,-1360.15"/>
</g>
<!-- 20&#45;&gt;11 -->
<g id="edge5" class="edge"><title>20&#45;&gt;11</title>
<path fill="none" stroke="green" d="M462.552,-1391.93C463.785,-1372.5 464.384,-1340.42 458,-1313.71 455.624,-1303.77 451.296,-1293.46 446.902,-1284.58"/>
<polygon fill="green" stroke="green" points="449.936,-1282.83 442.197,-1275.59 443.735,-1286.08 449.936,-1282.83"/>
</g>
<!-- 20&#45;&gt;37 -->
<g id="edge18" class="edge"><title>20&#45;&gt;37</title>
<path fill="none" stroke="red" d="M477.45,-1401.88C514.645,-1383.33 602,-1332.14 602,-1260.33 602,-1260.33 602,-1260.33 602,-883.164 602,-725.225 545.203,-687.084 447,-563.387 435.123,-548.427 418.355,-534.931 404.693,-525.252"/>
<polygon fill="red" stroke="red" points="406.474,-522.229 396.246,-519.465 402.517,-528.004 406.474,-522.229"/>
</g>
<!-- 48&#45;&gt;11 -->
<g id="edge56" class="edge"><title>48&#45;&gt;11</title>
<path fill="none" stroke="red" d="M431.474,-1316.48C431.704,-1308.02 431.986,-1297.65 432.244,-1288.13"/>
<polygon fill="red" stroke="red" points="435.749,-1287.99 432.522,-1277.9 428.752,-1287.8 435.749,-1287.99"/>
</g>
<!-- 63 -->
<g id="node23" class="node"><title>63</title>
<ellipse fill="none" stroke="black" cx="162" cy="-1110.96" rx="18.2703" ry="18.2703"/>
<text text-anchor="middle" x="162" y="-1108.76" font-family="Times New Roman,serif" font-size="9.00">63</text>
</g>
<!-- 6&#45;&gt;63 -->
<g id="edge41" class="edge"><title>6&#45;&gt;63</title>
<path fill="none" stroke="red" d="M179.965,-1172.06C177.173,-1162.72 173.363,-1149.97 169.971,-1138.62"/>
<polygon fill="red" stroke="red" points="173.231,-1137.31 167.014,-1128.73 166.524,-1139.31 173.231,-1137.31"/>
</g>
<!-- 6&#45;&gt;33 -->
<g id="edge6" class="edge"><title>6&#45;&gt;33</title>
<path fill="none" stroke="red" d="M172.023,-1176.93C160.052,-1167.5 142.395,-1151.16 135,-1132.17 125.372,-1107.44 135.65,-1077.77 145.788,-1057.47"/>
<polygon fill="red" stroke="red" points="148.907,-1059.06 150.515,-1048.59 142.728,-1055.78 148.907,-1059.06"/>
</g>
<!-- 10 -->
<g id="node41" class="node"><title>10</title>
<ellipse fill="none" stroke="black" cx="409" cy="-660.198" rx="18.2703" ry="18.2703"/>
<text text-anchor="middle" x="409" y="-657.998" font-family="Times New Roman,serif" font-size="9.00">10</text>
</g>
<!-- 6&#45;&gt;10 -->
<g id="edge51" class="edge"><title>6&#45;&gt;10</title>
<path fill="none" stroke="green" d="M186.558,-1171.92C198.168,-1110.81 246.983,-862.048 285,-793.009 311.233,-745.371 358.681,-701.893 386.662,-678.728"/>
<polygon fill="green" stroke="green" points="389.127,-681.235 394.676,-672.209 384.709,-675.805 389.127,-681.235"/>
</g>
<!-- 40 -->
<g id="node24" class="node"><title>40</title>
<ellipse fill="none" stroke="black" cx="295" cy="-1186.56" rx="18.2703" ry="18.2703"/>
<text text-anchor="middle" x="295" y="-1184.36" font-family="Times New Roman,serif" font-size="9.00">40</text>
</g>
<!-- 11&#45;&gt;40 -->
<g id="edge47" class="edge"><title>11&#45;&gt;40</title>
<path fill="none" stroke="green" d="M416.9,-1250.07C393.113,-1237.87 348.365,-1214.92 320.205,-1200.48"/>
<polygon fill="green" stroke="green" points="321.493,-1197.21 310.998,-1195.76 318.299,-1203.44 321.493,-1197.21"/>
</g>
<!-- 32 -->
<g id="node27" class="node"><title>32</title>
<ellipse fill="none" stroke="black" cx="511" cy="-956.933" rx="18.2703" ry="18.2703"/>
<text text-anchor="middle" x="511" y="-954.733" font-family="Times New Roman,serif" font-size="9.00">32</text>
</g>
<!-- 11&#45;&gt;32 -->
<g id="edge3" class="edge"><title>11&#45;&gt;32</title>
<path fill="none" stroke="green" d="M443.456,-1244.09C450.574,-1233.73 459.642,-1219.09 465,-1204.94 493.822,-1128.84 505.065,-1032.49 509.044,-985.809"/>
<polygon fill="green" stroke="green" points="512.554,-985.824 509.866,-975.575 505.576,-985.263 512.554,-985.824"/>
</g>
<!-- 84 -->
<g id="node30" class="node"><title>84</title>
<ellipse fill="none" stroke="black" cx="438" cy="-1186.56" rx="18.2703" ry="18.2703"/>
<text text-anchor="middle" x="438" y="-1184.36" font-family="Times New Roman,serif" font-size="9.00">84</text>
</g>
<!-- 11&#45;&gt;84 -->
<g id="edge44" class="edge"><title>11&#45;&gt;84</title>
<path fill="none" stroke="green" d="M434.236,-1240.83C434.779,-1233.15 435.429,-1223.94 436.036,-1215.36"/>
<polygon fill="green" stroke="green" points="439.53,-1215.56 436.744,-1205.34 432.547,-1215.07 439.53,-1215.56"/>
</g>
<!-- 8&#45;&gt;5 -->
<g id="edge74" class="edge"><title>8&#45;&gt;5</title>
<path fill="none" stroke="red" d="M77.8965,-645.257C70.4153,-610.391 52,-516.513 52,-437.233 52,-437.233 52,-437.233 52,-144.154 52,-86.2926 114.342,-40.6445 146.823,-20.7885"/>
<polygon fill="red" stroke="red" points="148.649,-23.7746 155.479,-15.6754 145.089,-17.7474 148.649,-23.7746"/>
</g>
<!-- 63&#45;&gt;33 -->
<g id="edge42" class="edge"><title>63&#45;&gt;33</title>
<path fill="none" stroke="red" d="M161.536,-1092.23C161.296,-1083.07 160.998,-1071.67 160.728,-1061.37"/>
<polygon fill="red" stroke="red" points="164.222,-1061.07 160.461,-1051.16 157.224,-1061.25 164.222,-1061.07"/>
</g>
<!-- 104 -->
<g id="node25" class="node"><title>104</title>
<ellipse fill="none" stroke="black" cx="295" cy="-1110.96" rx="21.4286" ry="21.4286"/>
<text text-anchor="middle" x="295" y="-1108.76" font-family="Times New Roman,serif" font-size="9.00">104</text>
</g>
<!-- 40&#45;&gt;104 -->
<g id="edge52" class="edge"><title>40&#45;&gt;104</title>
<path fill="none" stroke="green" d="M295,-1168.11C295,-1160.5 295,-1151.34 295,-1142.64"/>
<polygon fill="green" stroke="green" points="298.5,-1142.41 295,-1132.41 291.5,-1142.41 298.5,-1142.41"/>
</g>
<!-- 40&#45;&gt;38 -->
<g id="edge63" class="edge"><title>40&#45;&gt;38</title>
<path fill="none" stroke="red" d="M286.361,-1170.24C268.785,-1139.4 227.124,-1067.94 187,-1011.32 179.337,-1000.5 170.203,-988.994 162.328,-979.442"/>
<polygon fill="red" stroke="red" points="164.894,-977.054 155.8,-971.618 159.519,-981.539 164.894,-977.054"/>
</g>
<!-- 105 -->
<g id="node26" class="node"><title>105</title>
<ellipse fill="none" stroke="black" cx="407" cy="-1032.53" rx="21.4286" ry="21.4286"/>
<text text-anchor="middle" x="407" y="-1030.33" font-family="Times New Roman,serif" font-size="9.00">105</text>
</g>
<!-- 104&#45;&gt;105 -->
<g id="edge53" class="edge"><title>104&#45;&gt;105</title>
<path fill="none" stroke="red" d="M312.5,-1098.02C330.911,-1085.45 360.082,-1065.55 381.147,-1051.17"/>
<polygon fill="red" stroke="red" points="383.336,-1053.92 389.623,-1045.39 379.39,-1048.13 383.336,-1053.92"/>
</g>
<!-- 119 -->
<g id="node42" class="node"><title>119</title>
<ellipse fill="none" stroke="black" cx="141" cy="-584.6" rx="21.4286" ry="21.4286"/>
<text text-anchor="middle" x="141" y="-582.4" font-family="Times New Roman,serif" font-size="9.00">119</text>
</g>
<!-- 104&#45;&gt;119 -->
<g id="edge83" class="edge"><title>104&#45;&gt;119</title>
<path fill="none" stroke="green" d="M283.891,-1092.74C262.153,-1058.18 214.022,-977.282 190,-902.548 157.345,-800.959 146.121,-673.843 142.542,-616.356"/>
<polygon fill="green" stroke="green" points="146.022,-615.911 141.941,-606.134 139.034,-616.322 146.022,-615.911"/>
</g>
<!-- 105&#45;&gt;32 -->
<g id="edge54" class="edge"><title>105&#45;&gt;32</title>
<path fill="none" stroke="green" d="M424.173,-1019.38C441.584,-1007.06 468.635,-987.914 487.913,-974.271"/>
<polygon fill="green" stroke="green" points="490.021,-977.068 496.162,-968.434 485.977,-971.354 490.021,-977.068"/>
</g>
<!-- 31 -->
<g id="node33" class="node"><title>31</title>
<ellipse fill="none" stroke="black" cx="511" cy="-884.164" rx="18.2703" ry="18.2703"/>
<text text-anchor="middle" x="511" y="-881.964" font-family="Times New Roman,serif" font-size="9.00">31</text>
</g>
<!-- 32&#45;&gt;31 -->
<g id="edge4" class="edge"><title>32&#45;&gt;31</title>
<path fill="none" stroke="red" d="M511,-938.44C511,-930.757 511,-921.548 511,-912.964"/>
<polygon fill="red" stroke="red" points="514.5,-912.947 511,-902.947 507.5,-912.948 514.5,-912.947"/>
</g>
<!-- 45 -->
<g id="node45" class="node"><title>45</title>
<ellipse fill="none" stroke="black" cx="381" cy="-436.233" rx="18.2703" ry="18.2703"/>
<text text-anchor="middle" x="381" y="-434.033" font-family="Times New Roman,serif" font-size="9.00">45</text>
</g>
<!-- 32&#45;&gt;45 -->
<g id="edge25" class="edge"><title>32&#45;&gt;45</title>
<path fill="none" stroke="green" d="M520.762,-941.239C527.031,-930.9 534.613,-916.475 538,-902.548 573.625,-756.077 605.572,-699.119 540,-563.387 512.28,-506.008 444.381,-466.743 406.9,-448.632"/>
<polygon fill="green" stroke="green" points="408.172,-445.363 397.632,-444.286 405.2,-451.701 408.172,-445.363"/>
</g>
<!-- 33&#45;&gt;38 -->
<g id="edge8" class="edge"><title>33&#45;&gt;38</title>
<path fill="none" stroke="green" d="M156.289,-1014.46C154.384,-1005.7 152.019,-994.82 149.874,-984.952"/>
<polygon fill="green" stroke="green" points="153.291,-984.194 147.746,-975.165 146.451,-985.681 153.291,-984.194"/>
</g>
<!-- 21 -->
<g id="node32" class="node"><title>21</title>
<ellipse fill="none" stroke="black" cx="217" cy="-884.164" rx="18.2703" ry="18.2703"/>
<text text-anchor="middle" x="217" y="-881.964" font-family="Times New Roman,serif" font-size="9.00">21</text>
</g>
<!-- 33&#45;&gt;21 -->
<g id="edge32" class="edge"><title>33&#45;&gt;21</title>
<path fill="none" stroke="red" d="M166.428,-1015.03C176.263,-989.769 195.135,-941.309 206.838,-911.259"/>
<polygon fill="red" stroke="red" points="210.141,-912.422 210.508,-901.834 203.618,-909.882 210.141,-912.422"/>
</g>
<!-- 51 -->
<g id="node31" class="node"><title>51</title>
<ellipse fill="none" stroke="black" cx="125" cy="-884.164" rx="18.2703" ry="18.2703"/>
<text text-anchor="middle" x="125" y="-881.964" font-family="Times New Roman,serif" font-size="9.00">51</text>
</g>
<!-- 38&#45;&gt;51 -->
<g id="edge43" class="edge"><title>38&#45;&gt;51</title>
<path fill="none" stroke="red" d="M139.401,-938.802C137.23,-930.718 134.59,-920.883 132.166,-911.853"/>
<polygon fill="red" stroke="red" points="135.53,-910.888 129.557,-902.137 128.77,-912.703 135.53,-910.888"/>
</g>
<!-- 38&#45;&gt;21 -->
<g id="edge9" class="edge"><title>38&#45;&gt;21</title>
<path fill="none" stroke="red" d="M156.716,-943.606C167.676,-932.98 183.705,-917.442 196.479,-905.057"/>
<polygon fill="red" stroke="red" points="199.195,-907.299 203.939,-897.826 194.322,-902.274 199.195,-907.299"/>
</g>
<!-- 99 -->
<g id="node34" class="node"><title>99</title>
<ellipse fill="none" stroke="black" cx="465" cy="-1032.53" rx="18.2703" ry="18.2703"/>
<text text-anchor="middle" x="465" y="-1030.33" font-family="Times New Roman,serif" font-size="9.00">99</text>
</g>
<!-- 84&#45;&gt;99 -->
<g id="edge71" class="edge"><title>84&#45;&gt;99</title>
<path fill="none" stroke="red" d="M441.045,-1168.41C445.683,-1142.29 454.565,-1092.28 460.114,-1061.04"/>
<polygon fill="red" stroke="red" points="463.622,-1061.3 461.925,-1050.85 456.73,-1060.08 463.622,-1061.3"/>
</g>
<!-- 21&#45;&gt;56 -->
<g id="edge20" class="edge"><title>21&#45;&gt;56</title>
<path fill="none" stroke="green" d="M231.428,-872.415C246.862,-860.918 271.544,-842.531 289.527,-829.135"/>
<polygon fill="green" stroke="green" points="291.819,-831.793 297.747,-823.012 287.637,-826.179 291.819,-831.793"/>
</g>
<!-- 125 -->
<g id="node36" class="node"><title>125</title>
<ellipse fill="none" stroke="black" cx="239" cy="-735.796" rx="21.4286" ry="21.4286"/>
<text text-anchor="middle" x="239" y="-733.596" font-family="Times New Roman,serif" font-size="9.00">125</text>
</g>
<!-- 21&#45;&gt;125 -->
<g id="edge75" class="edge"><title>21&#45;&gt;125</title>
<path fill="none" stroke="green" d="M219.61,-865.799C223.259,-841.519 229.942,-797.06 234.428,-767.216"/>
<polygon fill="green" stroke="green" points="237.946,-767.355 235.971,-756.946 231.024,-766.315 237.946,-767.355"/>
</g>
<!-- 21&#45;&gt;37 -->
<g id="edge12" class="edge"><title>21&#45;&gt;37</title>
<path fill="none" stroke="red" d="M211.794,-866.225C203.948,-839.154 190,-784.341 190,-736.796 190,-736.796 190,-736.796 190,-659.198 190,-577.148 300.821,-533.53 353.634,-517.402"/>
<polygon fill="red" stroke="red" points="354.766,-520.718 363.374,-514.54 352.792,-514.002 354.766,-520.718"/>
</g>
<!-- 36 -->
<g id="node37" class="node"><title>36</title>
<ellipse fill="none" stroke="black" cx="409" cy="-735.796" rx="18.2703" ry="18.2703"/>
<text text-anchor="middle" x="409" y="-733.596" font-family="Times New Roman,serif" font-size="9.00">36</text>
</g>
<!-- 31&#45;&gt;36 -->
<g id="edge60" class="edge"><title>31&#45;&gt;36</title>
<path fill="none" stroke="green" d="M496.664,-872.577C483.943,-862.624 465.491,-846.754 453,-829.779 437.857,-809.2 425.898,-782.584 418.293,-763.104"/>
<polygon fill="green" stroke="green" points="421.526,-761.757 414.719,-753.638 414.977,-764.229 421.526,-761.757"/>
</g>
<!-- 47 -->
<g id="node38" class="node"><title>47</title>
<ellipse fill="none" stroke="black" cx="480" cy="-811.394" rx="18.2703" ry="18.2703"/>
<text text-anchor="middle" x="480" y="-809.194" font-family="Times New Roman,serif" font-size="9.00">47</text>
</g>
<!-- 31&#45;&gt;47 -->
<g id="edge17" class="edge"><title>31&#45;&gt;47</title>
<path fill="none" stroke="red" d="M503.966,-867.105C500.214,-858.541 495.508,-847.798 491.262,-838.105"/>
<polygon fill="red" stroke="red" points="494.44,-836.636 487.222,-828.88 488.028,-839.444 494.44,-836.636"/>
</g>
<!-- 31&#45;&gt;10 -->
<g id="edge2" class="edge"><title>31&#45;&gt;10</title>
<path fill="none" stroke="green" d="M514.528,-865.943C520.196,-833.422 527.8,-761.99 497,-714.583 482.777,-692.692 456.128,-678.4 435.868,-670.164"/>
<polygon fill="green" stroke="green" points="437.109,-666.891 426.518,-666.6 434.616,-673.432 437.109,-666.891"/>
</g>
<!-- 31&#45;&gt;60 -->
<g id="edge77" class="edge"><title>31&#45;&gt;60</title>
<path fill="none" stroke="red" d="M521.439,-868.931C545.342,-834.89 602,-745.328 602,-661.198 602,-661.198 602,-661.198 602,-362.463 602,-301.632 537.295,-254.273 500.621,-232.317"/>
<polygon fill="red" stroke="red" points="502.364,-229.281 491.958,-227.289 498.85,-235.336 502.364,-229.281"/>
</g>
<!-- 99&#45;&gt;36 -->
<g id="edge72" class="edge"><title>99&#45;&gt;36</title>
<path fill="none" stroke="red" d="M461.747,-1014.41C452.41,-965.269 425.47,-823.479 414.129,-763.789"/>
<polygon fill="red" stroke="red" points="417.567,-763.134 412.262,-753.963 410.69,-764.441 417.567,-763.134"/>
</g>
<!-- 56&#45;&gt;36 -->
<g id="edge21" class="edge"><title>56&#45;&gt;36</title>
<path fill="none" stroke="red" d="M326.313,-799.534C342.145,-787.522 367.866,-768.006 386.42,-753.928"/>
<polygon fill="red" stroke="red" points="388.778,-756.533 394.629,-747.7 384.547,-750.956 388.778,-756.533"/>
</g>
<!-- 57 -->
<g id="node39" class="node"><title>57</title>
<ellipse fill="none" stroke="black" cx="276" cy="-660.198" rx="18.2703" ry="18.2703"/>
<text text-anchor="middle" x="276" y="-657.998" font-family="Times New Roman,serif" font-size="9.00">57</text>
</g>
<!-- 125&#45;&gt;57 -->
<g id="edge76" class="edge"><title>125&#45;&gt;57</title>
<path fill="none" stroke="red" d="M248.146,-716.603C252.752,-707.442 258.407,-696.193 263.416,-686.23"/>
<polygon fill="red" stroke="red" points="266.6,-687.688 267.964,-677.182 260.346,-684.544 266.6,-687.688"/>
</g>
<!-- 36&#45;&gt;10 -->
<g id="edge40" class="edge"><title>36&#45;&gt;10</title>
<path fill="none" stroke="green" d="M409,-717.354C409,-708.892 409,-698.52 409,-689.004"/>
<polygon fill="green" stroke="green" points="412.5,-688.77 409,-678.77 405.5,-688.77 412.5,-688.77"/>
</g>
<!-- 62 -->
<g id="node40" class="node"><title>62</title>
<ellipse fill="none" stroke="black" cx="470" cy="-735.796" rx="18.2703" ry="18.2703"/>
<text text-anchor="middle" x="470" y="-733.596" font-family="Times New Roman,serif" font-size="9.00">62</text>
</g>
<!-- 47&#45;&gt;62 -->
<g id="edge81" class="edge"><title>47&#45;&gt;62</title>
<path fill="none" stroke="red" d="M477.63,-792.952C476.459,-784.337 475.02,-773.742 473.708,-764.085"/>
<polygon fill="red" stroke="red" points="477.167,-763.55 472.353,-754.113 470.231,-764.493 477.167,-763.55"/>
</g>
<!-- 57&#45;&gt;37 -->
<g id="edge48" class="edge"><title>57&#45;&gt;37</title>
<path fill="none" stroke="green" d="M286.259,-644.621C304.576,-618.594 343.032,-563.952 364.899,-532.881"/>
<polygon fill="green" stroke="green" points="367.961,-534.611 370.854,-524.419 362.236,-530.582 367.961,-534.611"/>
</g>
<!-- 62&#45;&gt;10 -->
<g id="edge82" class="edge"><title>62&#45;&gt;10</title>
<path fill="none" stroke="green" d="M458.526,-720.953C449.665,-710.262 437.237,-695.267 427.048,-682.973"/>
<polygon fill="green" stroke="green" points="429.498,-680.445 420.422,-674.979 424.109,-684.912 429.498,-680.445"/>
</g>
<!-- 67 -->
<g id="node43" class="node"><title>67</title>
<ellipse fill="none" stroke="black" cx="404" cy="-584.6" rx="18.2703" ry="18.2703"/>
<text text-anchor="middle" x="404" y="-582.4" font-family="Times New Roman,serif" font-size="9.00">67</text>
</g>
<!-- 10&#45;&gt;67 -->
<g id="edge57" class="edge"><title>10&#45;&gt;67</title>
<path fill="none" stroke="red" d="M407.815,-641.756C407.24,-633.294 406.536,-622.922 405.889,-613.406"/>
<polygon fill="red" stroke="red" points="409.364,-612.911 405.194,-603.172 402.38,-613.386 409.364,-612.911"/>
</g>
<!-- 10&#45;&gt;37 -->
<g id="edge7" class="edge"><title>10&#45;&gt;37</title>
<path fill="none" stroke="green" d="M418.036,-643.839C428.149,-624.554 441.788,-590.687 431,-563.387 425.347,-549.082 413.85,-536.363 403.305,-526.931"/>
<polygon fill="green" stroke="green" points="405.442,-524.154 395.539,-520.387 400.931,-529.508 405.442,-524.154"/>
</g>
<!-- 119&#45;&gt;5 -->
<g id="edge84" class="edge"><title>119&#45;&gt;5</title>
<path fill="none" stroke="red" d="M138.997,-563.382C135.351,-524.766 128,-437.828 128,-364.463 128,-364.463 128,-364.463 128,-144.154 128,-100.945 146.475,-52.7693 157.661,-27.5605"/>
<polygon fill="red" stroke="red" points="160.946,-28.7931 161.933,-18.2444 154.583,-25.875 160.946,-28.7931"/>
</g>
<!-- 67&#45;&gt;37 -->
<g id="edge58" class="edge"><title>67&#45;&gt;37</title>
<path fill="none" stroke="red" d="M398.781,-566.9C395.978,-557.93 392.456,-546.661 389.288,-536.524"/>
<polygon fill="red" stroke="red" points="392.602,-535.392 386.278,-526.891 385.92,-537.48 392.602,-535.392"/>
</g>
<!-- 37&#45;&gt;45 -->
<g id="edge10" class="edge"><title>37&#45;&gt;45</title>
<path fill="none" stroke="green" d="M381,-490.508C381,-482.826 381,-473.617 381,-465.033"/>
<polygon fill="green" stroke="green" points="384.5,-465.016 381,-455.016 377.5,-465.016 384.5,-465.016"/>
</g>
<!-- 45&#45;&gt;28 -->
<g id="edge11" class="edge"><title>45&#45;&gt;28</title>
<path fill="none" stroke="green" d="M368.711,-422.252C358.794,-411.778 344.665,-396.853 333.249,-384.795"/>
<polygon fill="green" stroke="green" points="335.628,-382.217 326.211,-377.361 330.544,-387.029 335.628,-382.217"/>
</g>
<!-- 28&#45;&gt;5 -->
<g id="edge1" class="edge"><title>28&#45;&gt;5</title>
<path fill="none" stroke="green" d="M297.023,-355.649C258.148,-338.797 166,-291.228 166,-218.924 166,-218.924 166,-218.924 166,-144.154 166,-102.75 166,-54.1569 166,-28.3258"/>
<polygon fill="green" stroke="green" points="169.5,-28.1667 166,-18.1667 162.5,-28.1668 169.5,-28.1667"/>
</g>
<!-- 28&#45;&gt;34 -->
<g id="edge16" class="edge"><title>28&#45;&gt;34</title>
<path fill="none" stroke="green" d="M331.957,-358.658C386.892,-347.018 552.996,-311.823 619.763,-297.676"/>
<polygon fill="green" stroke="green" points="620.897,-301.014 629.954,-295.517 619.446,-294.166 620.897,-301.014"/>
</g>
<!-- 34&#45;&gt;5 -->
<g id="edge64" class="edge"><title>34&#45;&gt;5</title>
<path fill="none" stroke="red" d="M638.297,-274.731C609.824,-232.186 521.752,-109.987 415,-54 338.109,-13.6736 231.401,-9.39534 186.845,-9.53501"/>
<polygon fill="red" stroke="red" points="186.642,-6.037 176.683,-9.65105 186.722,-13.0365 186.642,-6.037"/>
</g>
<!-- 34&#45;&gt;60 -->
<g id="edge67" class="edge"><title>34&#45;&gt;60</title>
<path fill="none" stroke="green" d="M632.324,-280.463C627.214,-277.649 621.451,-274.676 616,-272.309 569.591,-252.154 554.409,-256.463 508,-236.309 505.615,-235.273 503.171,-234.121 500.747,-232.918"/>
<polygon fill="green" stroke="green" points="502.157,-229.705 491.676,-228.154 498.902,-235.902 502.157,-229.705"/>
</g>
<!-- 85 -->
<g id="node49" class="node"><title>85</title>
<ellipse fill="none" stroke="black" cx="388" cy="-145.154" rx="18.2703" ry="18.2703"/>
<text text-anchor="middle" x="388" y="-142.954" font-family="Times New Roman,serif" font-size="9.00">85</text>
</g>
<!-- 60&#45;&gt;85 -->
<g id="edge79" class="edge"><title>60&#45;&gt;85</title>
<path fill="none" stroke="green" d="M461.861,-205.554C447.877,-194.307 426.273,-176.934 410.037,-163.876"/>
<polygon fill="green" stroke="green" points="412.09,-161.036 402.104,-157.496 407.703,-166.491 412.09,-161.036"/>
</g>
<!-- 70 -->
<g id="node50" class="node"><title>70</title>
<ellipse fill="none" stroke="black" cx="388" cy="-72.3848" rx="18.2703" ry="18.2703"/>
<text text-anchor="middle" x="388" y="-70.1848" font-family="Times New Roman,serif" font-size="9.00">70</text>
</g>
<!-- 85&#45;&gt;70 -->
<g id="edge80" class="edge"><title>85&#45;&gt;70</title>
<path fill="none" stroke="green" d="M388,-126.661C388,-118.978 388,-109.769 388,-101.185"/>
<polygon fill="green" stroke="green" points="391.5,-101.169 388,-91.1687 384.5,-101.169 391.5,-101.169"/>
</g>
<!-- 70&#45;&gt;5 -->
<g id="edge78" class="edge"><title>70&#45;&gt;5</title>
<path fill="none" stroke="red" d="M370.208,-66.4652C329.422,-55.1874 229.382,-27.5257 186.29,-15.6103"/>
<polygon fill="red" stroke="red" points="187.203,-12.2314 176.632,-12.9397 185.337,-18.9783 187.203,-12.2314"/>
</g>
</g>
</svg>
