<?xml version="1.0" encoding="UTF-8" standalone="no"?>
<!DOCTYPE svg PUBLIC "-//W3C//DTD SVG 1.1//EN"
 "http://www.w3.org/Graphics/SVG/1.1/DTD/svg11.dtd">
<!-- Generated by graphviz version 2.38.0 (20140413.2041)
 -->
<!-- Title: %3 Pages: 1 -->
<svg width="301pt" height="953pt"
 viewBox="0.00 0.00 301.00 953.23" xmlns="http://www.w3.org/2000/svg" xmlns:xlink="http://www.w3.org/1999/xlink">
<g id="graph0" class="graph" transform="scale(1 1) rotate(0) translate(4 949.235)">
<title>%3</title>
<polygon fill="white" stroke="none" points="-4,4 -4,-949.235 297,-949.235 297,4 -4,4"/>
<!-- 1 -->
<g id="node1" class="node"><title>1</title>
<polygon fill="lightgray" stroke="black" points="115,-945.235 94,-945.235 94,-927.235 115,-927.235 115,-945.235"/>
<text text-anchor="middle" x="104.5" y="-934.035" font-family="Times New Roman,serif" font-size="9.00">1</text>
</g>
<!-- 19 -->
<g id="node6" class="node"><title>19</title>
<ellipse fill="none" stroke="black" cx="49.5" cy="-872.85" rx="18.2703" ry="18.2703"/>
<text text-anchor="middle" x="49.5" y="-870.65" font-family="Times New Roman,serif" font-size="9.00">19</text>
</g>
<!-- 1&#45;&gt;19 -->
<g id="edge13" class="edge"><title>1&#45;&gt;19</title>
<path fill="none" stroke="green" d="M97.3097,-927.21C89.9993,-919.051 78.3625,-906.063 68.4,-894.944"/>
<polygon fill="green" stroke="green" points="70.8074,-892.386 61.5275,-887.274 65.5939,-897.057 70.8074,-892.386"/>
</g>
<!-- 12 -->
<g id="node10" class="node"><title>12</title>
<ellipse fill="none" stroke="black" cx="104.5" cy="-872.85" rx="18.2703" ry="18.2703"/>
<text text-anchor="middle" x="104.5" y="-870.65" font-family="Times New Roman,serif" font-size="9.00">12</text>
</g>
<!-- 1&#45;&gt;12 -->
<g id="edge15" class="edge"><title>1&#45;&gt;12</title>
<path fill="none" stroke="green" d="M104.5,-927.21C104.5,-920.646 104.5,-910.956 104.5,-901.629"/>
<polygon fill="green" stroke="green" points="108,-901.438 104.5,-891.438 101,-901.438 108,-901.438"/>
</g>
<!-- 7 -->
<g id="node13" class="node"><title>7</title>
<ellipse fill="none" stroke="black" cx="146.5" cy="-800.08" rx="14.7" ry="14.7"/>
<text text-anchor="middle" x="146.5" y="-797.88" font-family="Times New Roman,serif" font-size="9.00">7</text>
</g>
<!-- 1&#45;&gt;7 -->
<g id="edge20" class="edge"><title>1&#45;&gt;7</title>
<path fill="none" stroke="red" d="M110.925,-926.98C117.188,-918.497 126.48,-904.667 131.5,-891.235 139.541,-869.717 143.285,-843.704 145.02,-825.162"/>
<polygon fill="red" stroke="red" points="148.528,-825.193 145.844,-814.944 141.551,-824.63 148.528,-825.193"/>
</g>
<!-- 2 -->
<g id="node2" class="node"><title>2</title>
<polygon fill="lightgray" stroke="black" points="21,-590.772 0,-590.772 0,-572.772 21,-572.772 21,-590.772"/>
<text text-anchor="middle" x="10.5" y="-579.572" font-family="Times New Roman,serif" font-size="9.00">2</text>
</g>
<!-- 5 -->
<g id="node5" class="node"><title>5</title>
<polygon fill="lightblue" stroke="black" points="67,-18 46,-18 46,-0 67,-0 67,-18"/>
<text text-anchor="middle" x="56.5" y="-6.8" font-family="Times New Roman,serif" font-size="9.00">5</text>
</g>
<!-- 2&#45;&gt;5 -->
<g id="edge1" class="edge"><title>2&#45;&gt;5</title>
<path fill="none" stroke="red" d="M10.5,-572.678C10.5,-550.829 10.5,-488.817 10.5,-437.233 10.5,-437.233 10.5,-437.233 10.5,-144.154 10.5,-103.206 14.3475,-92.0421 29.5,-54 33.3139,-44.4248 39.1498,-34.5732 44.4214,-26.6258"/>
<polygon fill="red" stroke="red" points="47.3718,-28.5132 50.1956,-18.3016 41.6201,-24.5234 47.3718,-28.5132"/>
</g>
<!-- 38 -->
<g id="node16" class="node"><title>38</title>
<ellipse fill="none" stroke="black" cx="95.5" cy="-509.002" rx="18.2703" ry="18.2703"/>
<text text-anchor="middle" x="95.5" y="-506.802" font-family="Times New Roman,serif" font-size="9.00">38</text>
</g>
<!-- 2&#45;&gt;38 -->
<g id="edge21" class="edge"><title>2&#45;&gt;38</title>
<path fill="none" stroke="green" d="M20.2506,-572.653C33.2168,-561.858 56.5022,-542.471 73.7479,-528.113"/>
<polygon fill="green" stroke="green" points="76.2115,-530.616 81.6571,-521.527 71.7325,-525.236 76.2115,-530.616"/>
</g>
<!-- 3 -->
<g id="node3" class="node"><title>3</title>
<polygon fill="lightgray" stroke="black" points="293,-809.08 272,-809.08 272,-791.08 293,-791.08 293,-809.08"/>
<text text-anchor="middle" x="282.5" y="-797.88" font-family="Times New Roman,serif" font-size="9.00">3</text>
</g>
<!-- 11 -->
<g id="node12" class="node"><title>11</title>
<ellipse fill="none" stroke="black" cx="238.5" cy="-727.311" rx="18.2703" ry="18.2703"/>
<text text-anchor="middle" x="238.5" y="-725.111" font-family="Times New Roman,serif" font-size="9.00">11</text>
</g>
<!-- 3&#45;&gt;11 -->
<g id="edge33" class="edge"><title>3&#45;&gt;11</title>
<path fill="none" stroke="green" d="M277.453,-790.962C271.584,-781.522 261.631,-765.514 253.255,-752.042"/>
<polygon fill="green" stroke="green" points="256.03,-749.877 247.778,-743.233 250.085,-753.573 256.03,-749.877"/>
</g>
<!-- 4 -->
<g id="node4" class="node"><title>4</title>
<polygon fill="lightgray" stroke="black" points="200,-881.85 179,-881.85 179,-863.85 200,-863.85 200,-881.85"/>
<text text-anchor="middle" x="189.5" y="-870.65" font-family="Times New Roman,serif" font-size="9.00">4</text>
</g>
<!-- 16 -->
<g id="node8" class="node"><title>16</title>
<ellipse fill="none" stroke="black" cx="95.5" cy="-727.311" rx="18.2703" ry="18.2703"/>
<text text-anchor="middle" x="95.5" y="-725.111" font-family="Times New Roman,serif" font-size="9.00">16</text>
</g>
<!-- 4&#45;&gt;16 -->
<g id="edge14" class="edge"><title>4&#45;&gt;16</title>
<path fill="none" stroke="red" d="M189.689,-863.636C189.691,-846.835 187.68,-807.921 170.5,-781.696 158.493,-763.367 137.837,-749.359 121.239,-740.301"/>
<polygon fill="red" stroke="red" points="122.523,-737.024 112.032,-735.544 119.31,-743.244 122.523,-737.024"/>
</g>
<!-- 20 -->
<g id="node9" class="node"><title>20</title>
<ellipse fill="none" stroke="black" cx="235.5" cy="-800.08" rx="18.2703" ry="18.2703"/>
<text text-anchor="middle" x="235.5" y="-797.88" font-family="Times New Roman,serif" font-size="9.00">20</text>
</g>
<!-- 4&#45;&gt;20 -->
<g id="edge7" class="edge"><title>4&#45;&gt;20</title>
<path fill="none" stroke="green" d="M194.777,-863.732C200.972,-854.201 211.519,-837.975 220.327,-824.424"/>
<polygon fill="green" stroke="green" points="223.285,-826.294 225.801,-816.002 217.416,-822.479 223.285,-826.294"/>
</g>
<!-- 4&#45;&gt;7 -->
<g id="edge22" class="edge"><title>4&#45;&gt;7</title>
<path fill="none" stroke="green" d="M184.567,-863.732C178.378,-853.546 167.543,-835.712 159.01,-821.67"/>
<polygon fill="green" stroke="green" points="161.992,-819.837 153.808,-813.108 156.01,-823.472 161.992,-819.837"/>
</g>
<!-- 30 -->
<g id="node7" class="node"><title>30</title>
<ellipse fill="none" stroke="black" cx="95.5" cy="-800.08" rx="18.2703" ry="18.2703"/>
<text text-anchor="middle" x="95.5" y="-797.88" font-family="Times New Roman,serif" font-size="9.00">30</text>
</g>
<!-- 19&#45;&gt;30 -->
<g id="edge27" class="edge"><title>19&#45;&gt;30</title>
<path fill="none" stroke="red" d="M59.2554,-856.841C65.3541,-847.459 73.3375,-835.177 80.259,-824.528"/>
<polygon fill="red" stroke="red" points="83.2433,-826.359 85.7586,-816.067 77.3742,-822.544 83.2433,-826.359"/>
</g>
<!-- 34 -->
<g id="node26" class="node"><title>34</title>
<ellipse fill="none" stroke="black" cx="56.5" cy="-145.154" rx="18.2703" ry="18.2703"/>
<text text-anchor="middle" x="56.5" y="-142.954" font-family="Times New Roman,serif" font-size="9.00">34</text>
</g>
<!-- 19&#45;&gt;34 -->
<g id="edge34" class="edge"><title>19&#45;&gt;34</title>
<path fill="none" stroke="green" d="M49.5,-854.172C49.5,-827.081 49.5,-773.665 49.5,-728.311 49.5,-728.311 49.5,-728.311 49.5,-289.693 49.5,-249.429 52.2818,-202.887 54.3382,-173.983"/>
<polygon fill="green" stroke="green" points="57.8427,-174.048 55.0834,-163.819 50.8614,-173.536 57.8427,-174.048"/>
</g>
<!-- 30&#45;&gt;16 -->
<g id="edge28" class="edge"><title>30&#45;&gt;16</title>
<path fill="none" stroke="red" d="M95.5,-781.587C95.5,-773.904 95.5,-764.695 95.5,-756.111"/>
<polygon fill="red" stroke="red" points="99.0001,-756.095 95.5,-746.095 92.0001,-756.095 99.0001,-756.095"/>
</g>
<!-- 6 -->
<g id="node11" class="node"><title>6</title>
<ellipse fill="none" stroke="black" cx="95.5" cy="-654.541" rx="14.7" ry="14.7"/>
<text text-anchor="middle" x="95.5" y="-652.341" font-family="Times New Roman,serif" font-size="9.00">6</text>
</g>
<!-- 16&#45;&gt;6 -->
<g id="edge2" class="edge"><title>16&#45;&gt;6</title>
<path fill="none" stroke="green" d="M95.5,-708.817C95.5,-700.014 95.5,-689.207 95.5,-679.632"/>
<polygon fill="green" stroke="green" points="99.0001,-679.518 95.5,-669.518 92.0001,-679.518 99.0001,-679.518"/>
</g>
<!-- 20&#45;&gt;11 -->
<g id="edge8" class="edge"><title>20&#45;&gt;11</title>
<path fill="none" stroke="red" d="M236.242,-781.587C236.567,-773.904 236.958,-764.695 237.322,-756.111"/>
<polygon fill="red" stroke="red" points="240.819,-756.234 237.746,-746.095 233.826,-755.937 240.819,-756.234"/>
</g>
<!-- 37 -->
<g id="node23" class="node"><title>37</title>
<ellipse fill="none" stroke="black" cx="150.5" cy="-363.463" rx="18.2703" ry="18.2703"/>
<text text-anchor="middle" x="150.5" y="-361.263" font-family="Times New Roman,serif" font-size="9.00">37</text>
</g>
<!-- 20&#45;&gt;37 -->
<g id="edge26" class="edge"><title>20&#45;&gt;37</title>
<path fill="none" stroke="red" d="M222.219,-787.078C198.313,-764.085 150.5,-711.147 150.5,-655.541 150.5,-655.541 150.5,-655.541 150.5,-508.002 150.5,-467.786 150.5,-421.231 150.5,-392.311"/>
<polygon fill="red" stroke="red" points="154,-392.141 150.5,-382.141 147,-392.141 154,-392.141"/>
</g>
<!-- 12&#45;&gt;7 -->
<g id="edge16" class="edge"><title>12&#45;&gt;7</title>
<path fill="none" stroke="green" d="M113.613,-856.494C119.645,-846.331 127.627,-832.881 134.217,-821.777"/>
<polygon fill="green" stroke="green" points="137.258,-823.511 139.351,-813.125 131.238,-819.939 137.258,-823.511"/>
</g>
<!-- 33 -->
<g id="node15" class="node"><title>33</title>
<ellipse fill="none" stroke="black" cx="95.5" cy="-581.772" rx="18.2703" ry="18.2703"/>
<text text-anchor="middle" x="95.5" y="-579.572" font-family="Times New Roman,serif" font-size="9.00">33</text>
</g>
<!-- 6&#45;&gt;33 -->
<g id="edge9" class="edge"><title>6&#45;&gt;33</title>
<path fill="none" stroke="red" d="M95.5,-639.559C95.5,-631.276 95.5,-620.487 95.5,-610.541"/>
<polygon fill="red" stroke="red" points="99.0001,-610.237 95.5,-600.237 92.0001,-610.237 99.0001,-610.237"/>
</g>
<!-- 32 -->
<g id="node14" class="node"><title>32</title>
<ellipse fill="none" stroke="black" cx="238.5" cy="-654.541" rx="18.2703" ry="18.2703"/>
<text text-anchor="middle" x="238.5" y="-652.341" font-family="Times New Roman,serif" font-size="9.00">32</text>
</g>
<!-- 11&#45;&gt;32 -->
<g id="edge5" class="edge"><title>11&#45;&gt;32</title>
<path fill="none" stroke="green" d="M238.5,-708.817C238.5,-701.135 238.5,-691.926 238.5,-683.341"/>
<polygon fill="green" stroke="green" points="242,-683.325 238.5,-673.325 235,-683.325 242,-683.325"/>
</g>
<!-- 31 -->
<g id="node18" class="node"><title>31</title>
<ellipse fill="none" stroke="black" cx="238.5" cy="-581.772" rx="18.2703" ry="18.2703"/>
<text text-anchor="middle" x="238.5" y="-579.572" font-family="Times New Roman,serif" font-size="9.00">31</text>
</g>
<!-- 32&#45;&gt;31 -->
<g id="edge6" class="edge"><title>32&#45;&gt;31</title>
<path fill="none" stroke="red" d="M238.5,-636.048C238.5,-628.365 238.5,-619.156 238.5,-610.572"/>
<polygon fill="red" stroke="red" points="242,-610.556 238.5,-600.556 235,-610.556 242,-610.556"/>
</g>
<!-- 33&#45;&gt;38 -->
<g id="edge11" class="edge"><title>33&#45;&gt;38</title>
<path fill="none" stroke="green" d="M95.5,-563.278C95.5,-555.596 95.5,-546.387 95.5,-537.802"/>
<polygon fill="green" stroke="green" points="99.0001,-537.786 95.5,-527.786 92.0001,-537.786 99.0001,-537.786"/>
</g>
<!-- 21 -->
<g id="node17" class="node"><title>21</title>
<ellipse fill="none" stroke="black" cx="95.5" cy="-436.233" rx="18.2703" ry="18.2703"/>
<text text-anchor="middle" x="95.5" y="-434.033" font-family="Times New Roman,serif" font-size="9.00">21</text>
</g>
<!-- 38&#45;&gt;21 -->
<g id="edge12" class="edge"><title>38&#45;&gt;21</title>
<path fill="none" stroke="red" d="M95.5,-490.508C95.5,-482.826 95.5,-473.617 95.5,-465.033"/>
<polygon fill="red" stroke="red" points="99.0001,-465.016 95.5,-455.016 92.0001,-465.016 99.0001,-465.016"/>
</g>
<!-- 56 -->
<g id="node19" class="node"><title>56</title>
<ellipse fill="none" stroke="black" cx="95.5" cy="-363.463" rx="18.2703" ry="18.2703"/>
<text text-anchor="middle" x="95.5" y="-361.263" font-family="Times New Roman,serif" font-size="9.00">56</text>
</g>
<!-- 21&#45;&gt;56 -->
<g id="edge29" class="edge"><title>21&#45;&gt;56</title>
<path fill="none" stroke="green" d="M95.5,-417.739C95.5,-410.057 95.5,-400.847 95.5,-392.263"/>
<polygon fill="green" stroke="green" points="99.0001,-392.247 95.5,-382.247 92.0001,-392.247 99.0001,-392.247"/>
</g>
<!-- 21&#45;&gt;37 -->
<g id="edge19" class="edge"><title>21&#45;&gt;37</title>
<path fill="none" stroke="red" d="M106.366,-421.251C114.05,-411.364 124.509,-397.907 133.316,-386.574"/>
<polygon fill="red" stroke="red" points="136.283,-388.459 139.656,-378.416 130.756,-384.164 136.283,-388.459"/>
</g>
<!-- 47 -->
<g id="node21" class="node"><title>47</title>
<ellipse fill="none" stroke="black" cx="240.5" cy="-509.002" rx="18.2703" ry="18.2703"/>
<text text-anchor="middle" x="240.5" y="-506.802" font-family="Times New Roman,serif" font-size="9.00">47</text>
</g>
<!-- 31&#45;&gt;47 -->
<g id="edge24" class="edge"><title>31&#45;&gt;47</title>
<path fill="none" stroke="red" d="M238.994,-563.278C239.211,-555.596 239.472,-546.387 239.714,-537.802"/>
<polygon fill="red" stroke="red" points="243.213,-537.881 239.997,-527.786 236.216,-537.683 243.213,-537.881"/>
</g>
<!-- 10 -->
<g id="node22" class="node"><title>10</title>
<ellipse fill="none" stroke="black" cx="196.5" cy="-436.233" rx="18.2703" ry="18.2703"/>
<text text-anchor="middle" x="196.5" y="-434.033" font-family="Times New Roman,serif" font-size="9.00">10</text>
</g>
<!-- 31&#45;&gt;10 -->
<g id="edge4" class="edge"><title>31&#45;&gt;10</title>
<path fill="none" stroke="green" d="M229.988,-565.31C224.563,-554.871 217.775,-540.633 213.5,-527.387 206.906,-506.956 202.543,-483.047 199.89,-464.986"/>
<polygon fill="green" stroke="green" points="203.324,-464.266 198.488,-454.839 196.39,-465.224 203.324,-464.266"/>
</g>
<!-- 36 -->
<g id="node20" class="node"><title>36</title>
<ellipse fill="none" stroke="black" cx="95.5" cy="-290.693" rx="18.2703" ry="18.2703"/>
<text text-anchor="middle" x="95.5" y="-288.493" font-family="Times New Roman,serif" font-size="9.00">36</text>
</g>
<!-- 56&#45;&gt;36 -->
<g id="edge30" class="edge"><title>56&#45;&gt;36</title>
<path fill="none" stroke="green" d="M95.5,-344.969C95.5,-337.287 95.5,-328.078 95.5,-319.494"/>
<polygon fill="green" stroke="green" points="99.0001,-319.477 95.5,-309.477 92.0001,-319.477 99.0001,-319.477"/>
</g>
<!-- 47&#45;&gt;10 -->
<g id="edge25" class="edge"><title>47&#45;&gt;10</title>
<path fill="none" stroke="red" d="M231.169,-492.994C225.394,-483.705 217.851,-471.574 211.277,-461"/>
<polygon fill="red" stroke="red" points="214.07,-458.864 205.818,-452.219 208.126,-462.56 214.07,-458.864"/>
</g>
<!-- 10&#45;&gt;37 -->
<g id="edge10" class="edge"><title>10&#45;&gt;37</title>
<path fill="none" stroke="green" d="M186.745,-420.224C180.646,-410.841 172.662,-398.559 165.741,-387.911"/>
<polygon fill="green" stroke="green" points="168.626,-385.927 160.241,-379.45 162.757,-389.742 168.626,-385.927"/>
</g>
<!-- 45 -->
<g id="node24" class="node"><title>45</title>
<ellipse fill="none" stroke="black" cx="150.5" cy="-290.693" rx="18.2703" ry="18.2703"/>
<text text-anchor="middle" x="150.5" y="-288.493" font-family="Times New Roman,serif" font-size="9.00">45</text>
</g>
<!-- 37&#45;&gt;45 -->
<g id="edge17" class="edge"><title>37&#45;&gt;45</title>
<path fill="none" stroke="green" d="M150.5,-344.969C150.5,-337.287 150.5,-328.078 150.5,-319.494"/>
<polygon fill="green" stroke="green" points="154,-319.477 150.5,-309.477 147,-319.477 154,-319.477"/>
</g>
<!-- 28 -->
<g id="node25" class="node"><title>28</title>
<ellipse fill="none" stroke="black" cx="102.5" cy="-217.924" rx="18.2703" ry="18.2703"/>
<text text-anchor="middle" x="102.5" y="-215.724" font-family="Times New Roman,serif" font-size="9.00">28</text>
</g>
<!-- 45&#45;&gt;28 -->
<g id="edge18" class="edge"><title>45&#45;&gt;28</title>
<path fill="none" stroke="red" d="M140.554,-275.03C134.118,-265.541 125.601,-252.983 118.255,-242.153"/>
<polygon fill="red" stroke="red" points="120.943,-239.88 112.433,-233.569 115.15,-243.809 120.943,-239.88"/>
</g>
<!-- 28&#45;&gt;5 -->
<g id="edge3" class="edge"><title>28&#45;&gt;5</title>
<path fill="none" stroke="red" d="M102.897,-199.253C103.05,-168.743 101.012,-104.592 83.5,-54 80.1286,-44.2602 74.3376,-34.3919 68.9813,-26.476"/>
<polygon fill="red" stroke="red" points="71.7292,-24.3016 63.0641,-18.205 66.036,-28.3745 71.7292,-24.3016"/>
</g>
<!-- 28&#45;&gt;34 -->
<g id="edge23" class="edge"><title>28&#45;&gt;34</title>
<path fill="none" stroke="green" d="M92.7446,-201.915C86.6459,-192.533 78.6625,-180.251 71.741,-169.602"/>
<polygon fill="green" stroke="green" points="74.6258,-167.618 66.2414,-161.141 68.7567,-171.433 74.6258,-167.618"/>
</g>
<!-- 60 -->
<g id="node27" class="node"><title>60</title>
<ellipse fill="none" stroke="black" cx="56.5" cy="-72.3848" rx="18.2703" ry="18.2703"/>
<text text-anchor="middle" x="56.5" y="-70.1848" font-family="Times New Roman,serif" font-size="9.00">60</text>
</g>
<!-- 34&#45;&gt;60 -->
<g id="edge31" class="edge"><title>34&#45;&gt;60</title>
<path fill="none" stroke="green" d="M56.5,-126.661C56.5,-118.978 56.5,-109.769 56.5,-101.185"/>
<polygon fill="green" stroke="green" points="60.0001,-101.169 56.5,-91.1687 53.0001,-101.169 60.0001,-101.169"/>
</g>
<!-- 60&#45;&gt;5 -->
<g id="edge32" class="edge"><title>60&#45;&gt;5</title>
<path fill="none" stroke="green" d="M56.5,-53.9586C56.5,-45.9601 56.5,-36.4732 56.5,-28.3636"/>
<polygon fill="green" stroke="green" points="60.0001,-28.1158 56.5,-18.1158 53.0001,-28.1158 60.0001,-28.1158"/>
</g>
</g>
</svg>
