<?xml version="1.0" encoding="UTF-8" standalone="no"?>
<!DOCTYPE svg PUBLIC "-//W3C//DTD SVG 1.1//EN"
 "http://www.w3.org/Graphics/SVG/1.1/DTD/svg11.dtd">
<!-- Generated by graphviz version 2.38.0 (20140413.2041)
 -->
<!-- Title: %3 Pages: 1 -->
<svg width="337pt" height="995pt"
 viewBox="0.00 0.00 336.50 994.63" xmlns="http://www.w3.org/2000/svg" xmlns:xlink="http://www.w3.org/1999/xlink">
<g id="graph0" class="graph" transform="scale(1 1) rotate(0) translate(4 990.632)">
<title>%3</title>
<polygon fill="white" stroke="none" points="-4,4 -4,-990.632 332.5,-990.632 332.5,4 -4,4"/>
<!-- 1 -->
<g id="node1" class="node"><title>1</title>
<polygon fill="lightgray" stroke="black" points="218,-986.632 197,-986.632 197,-968.632 218,-968.632 218,-986.632"/>
<text text-anchor="middle" x="207.5" y="-975.432" font-family="Times New Roman,serif" font-size="9.00">1</text>
</g>
<!-- 29 -->
<g id="node6" class="node"><title>29</title>
<ellipse fill="none" stroke="black" cx="154.5" cy="-914.247" rx="18.2703" ry="18.2703"/>
<text text-anchor="middle" x="154.5" y="-912.047" font-family="Times New Roman,serif" font-size="9.00">29</text>
</g>
<!-- 1&#45;&gt;29 -->
<g id="edge27" class="edge"><title>1&#45;&gt;29</title>
<path fill="none" stroke="green" d="M200.571,-968.607C193.527,-960.448 182.313,-947.46 172.713,-936.341"/>
<polygon fill="green" stroke="green" points="175.275,-933.952 166.09,-928.671 169.976,-938.527 175.275,-933.952"/>
</g>
<!-- 12 -->
<g id="node15" class="node"><title>12</title>
<ellipse fill="none" stroke="black" cx="260.5" cy="-914.247" rx="18.2703" ry="18.2703"/>
<text text-anchor="middle" x="260.5" y="-912.047" font-family="Times New Roman,serif" font-size="9.00">12</text>
</g>
<!-- 1&#45;&gt;12 -->
<g id="edge9" class="edge"><title>1&#45;&gt;12</title>
<path fill="none" stroke="green" d="M214.429,-968.607C221.473,-960.448 232.687,-947.46 242.287,-936.341"/>
<polygon fill="green" stroke="green" points="245.024,-938.527 248.91,-928.671 239.725,-933.952 245.024,-938.527"/>
</g>
<!-- 7 -->
<g id="node19" class="node"><title>7</title>
<ellipse fill="none" stroke="black" cx="306.5" cy="-841.477" rx="14.7" ry="14.7"/>
<text text-anchor="middle" x="306.5" y="-839.277" font-family="Times New Roman,serif" font-size="9.00">7</text>
</g>
<!-- 1&#45;&gt;7 -->
<g id="edge11" class="edge"><title>1&#45;&gt;7</title>
<path fill="none" stroke="red" d="M218.301,-972.049C237.969,-963.494 278.439,-944.857 287.5,-932.632 301.659,-913.529 305.781,-886.213 306.748,-866.663"/>
<polygon fill="red" stroke="red" points="310.253,-866.521 307.005,-856.436 303.255,-866.345 310.253,-866.521"/>
</g>
<!-- 28 -->
<g id="node37" class="node"><title>28</title>
<ellipse fill="none" stroke="black" cx="89.5" cy="-687.453" rx="18.2703" ry="18.2703"/>
<text text-anchor="middle" x="89.5" y="-685.253" font-family="Times New Roman,serif" font-size="9.00">28</text>
</g>
<!-- 1&#45;&gt;28 -->
<g id="edge45" class="edge"><title>1&#45;&gt;28</title>
<path fill="none" stroke="red" d="M196.905,-974.056C179.356,-969.195 144.509,-956.907 127.5,-932.632 80.8095,-865.994 82.4435,-764.075 86.4262,-715.725"/>
<polygon fill="red" stroke="red" points="89.9164,-715.991 87.3503,-705.712 82.946,-715.348 89.9164,-715.991"/>
</g>
<!-- 2 -->
<g id="node2" class="node"><title>2</title>
<polygon fill="lightgray" stroke="black" points="21,-545.257 0,-545.257 0,-527.257 21,-527.257 21,-545.257"/>
<text text-anchor="middle" x="10.5" y="-534.057" font-family="Times New Roman,serif" font-size="9.00">2</text>
</g>
<!-- 5 -->
<g id="node5" class="node"><title>5</title>
<polygon fill="lightblue" stroke="black" points="102,-466.831 81,-466.831 81,-448.831 102,-448.831 102,-466.831"/>
<text text-anchor="middle" x="91.5" y="-455.631" font-family="Times New Roman,serif" font-size="9.00">5</text>
</g>
<!-- 2&#45;&gt;5 -->
<g id="edge1" class="edge"><title>2&#45;&gt;5</title>
<path fill="none" stroke="green" d="M19.1684,-527.078C32.4961,-514.503 58.2478,-490.205 75.1532,-474.254"/>
<polygon fill="green" stroke="green" points="77.7769,-476.591 82.6484,-467.182 72.9729,-471.499 77.7769,-476.591"/>
</g>
<!-- 33 -->
<g id="node25" class="node"><title>33</title>
<ellipse fill="none" stroke="black" cx="56.5" cy="-309.463" rx="18.2703" ry="18.2703"/>
<text text-anchor="middle" x="56.5" y="-307.263" font-family="Times New Roman,serif" font-size="9.00">33</text>
</g>
<!-- 2&#45;&gt;33 -->
<g id="edge26" class="edge"><title>2&#45;&gt;33</title>
<path fill="none" stroke="red" d="M12.7354,-526.911C15.6314,-515.964 20.7522,-496.137 24.5,-479.044 35.3806,-429.418 45.9659,-371.095 51.8205,-337.688"/>
<polygon fill="red" stroke="red" points="55.2819,-338.211 53.5495,-327.759 48.3857,-337.01 55.2819,-338.211"/>
</g>
<!-- 38 -->
<g id="node26" class="node"><title>38</title>
<ellipse fill="none" stroke="black" cx="33.5" cy="-236.693" rx="18.2703" ry="18.2703"/>
<text text-anchor="middle" x="33.5" y="-234.493" font-family="Times New Roman,serif" font-size="9.00">38</text>
</g>
<!-- 2&#45;&gt;38 -->
<g id="edge12" class="edge"><title>2&#45;&gt;38</title>
<path fill="none" stroke="red" d="M11.1392,-526.988C14.0746,-489.011 26.334,-330.404 31.3483,-265.531"/>
<polygon fill="red" stroke="red" points="34.8615,-265.495 32.1426,-255.255 27.8823,-264.955 34.8615,-265.495"/>
</g>
<!-- 3 -->
<g id="node3" class="node"><title>3</title>
<polygon fill="lightgray" stroke="black" points="257,-986.632 236,-986.632 236,-968.632 257,-968.632 257,-986.632"/>
<text text-anchor="middle" x="246.5" y="-975.432" font-family="Times New Roman,serif" font-size="9.00">3</text>
</g>
<!-- 4 -->
<g id="node4" class="node"><title>4</title>
<polygon fill="lightgray" stroke="black" points="224,-923.247 203,-923.247 203,-905.247 224,-905.247 224,-923.247"/>
<text text-anchor="middle" x="213.5" y="-912.047" font-family="Times New Roman,serif" font-size="9.00">4</text>
</g>
<!-- 54 -->
<g id="node8" class="node"><title>54</title>
<ellipse fill="none" stroke="black" cx="200.5" cy="-841.477" rx="18.2703" ry="18.2703"/>
<text text-anchor="middle" x="200.5" y="-839.277" font-family="Times New Roman,serif" font-size="9.00">54</text>
</g>
<!-- 4&#45;&gt;54 -->
<g id="edge35" class="edge"><title>4&#45;&gt;54</title>
<path fill="none" stroke="green" d="M212.009,-905.129C210.425,-896.506 207.834,-882.402 205.511,-869.757"/>
<polygon fill="green" stroke="green" points="208.9,-868.834 203.651,-859.631 202.015,-870.099 208.9,-868.834"/>
</g>
<!-- 20 -->
<g id="node14" class="node"><title>20</title>
<ellipse fill="none" stroke="black" cx="255.5" cy="-841.477" rx="18.2703" ry="18.2703"/>
<text text-anchor="middle" x="255.5" y="-839.277" font-family="Times New Roman,serif" font-size="9.00">20</text>
</g>
<!-- 4&#45;&gt;20 -->
<g id="edge6" class="edge"><title>4&#45;&gt;20</title>
<path fill="none" stroke="green" d="M218.318,-905.129C223.885,-895.748 233.302,-879.88 241.266,-866.461"/>
<polygon fill="green" stroke="green" points="244.388,-868.059 246.482,-857.673 238.368,-864.486 244.388,-868.059"/>
</g>
<!-- 4&#45;&gt;7 -->
<g id="edge13" class="edge"><title>4&#45;&gt;7</title>
<path fill="none" stroke="green" d="M222.723,-904.944C226.066,-902.012 229.904,-898.732 233.5,-895.862 238.498,-891.874 266.692,-871.346 286.539,-856.942"/>
<polygon fill="green" stroke="green" points="288.66,-859.728 294.699,-851.024 284.55,-854.062 288.66,-859.728"/>
</g>
<!-- 19 -->
<g id="node7" class="node"><title>19</title>
<ellipse fill="none" stroke="black" cx="143.5" cy="-841.477" rx="18.2703" ry="18.2703"/>
<text text-anchor="middle" x="143.5" y="-839.277" font-family="Times New Roman,serif" font-size="9.00">19</text>
</g>
<!-- 29&#45;&gt;19 -->
<g id="edge28" class="edge"><title>29&#45;&gt;19</title>
<path fill="none" stroke="red" d="M151.781,-895.753C150.569,-887.955 149.112,-878.582 147.761,-869.888"/>
<polygon fill="red" stroke="red" points="151.182,-869.113 146.188,-859.77 144.265,-870.189 151.182,-869.113"/>
</g>
<!-- 71 -->
<g id="node9" class="node"><title>71</title>
<ellipse fill="none" stroke="black" cx="142.5" cy="-765.879" rx="18.2703" ry="18.2703"/>
<text text-anchor="middle" x="142.5" y="-763.679" font-family="Times New Roman,serif" font-size="9.00">71</text>
</g>
<!-- 19&#45;&gt;71 -->
<g id="edge30" class="edge"><title>19&#45;&gt;71</title>
<path fill="none" stroke="green" d="M143.263,-823.036C143.148,-814.573 143.007,-804.202 142.878,-794.685"/>
<polygon fill="green" stroke="green" points="146.374,-794.402 142.739,-784.451 139.375,-794.498 146.374,-794.402"/>
</g>
<!-- 113 -->
<g id="node12" class="node"><title>113</title>
<ellipse fill="none" stroke="black" cx="200.5" cy="-765.879" rx="21.4286" ry="21.4286"/>
<text text-anchor="middle" x="200.5" y="-763.679" font-family="Times New Roman,serif" font-size="9.00">113</text>
</g>
<!-- 54&#45;&gt;113 -->
<g id="edge47" class="edge"><title>54&#45;&gt;113</title>
<path fill="none" stroke="red" d="M200.5,-823.036C200.5,-815.42 200.5,-806.258 200.5,-797.565"/>
<polygon fill="red" stroke="red" points="204,-797.328 200.5,-787.328 197,-797.329 204,-797.328"/>
</g>
<!-- 102 -->
<g id="node10" class="node"><title>102</title>
<ellipse fill="none" stroke="black" cx="147.5" cy="-687.453" rx="21.4286" ry="21.4286"/>
<text text-anchor="middle" x="147.5" y="-685.253" font-family="Times New Roman,serif" font-size="9.00">102</text>
</g>
<!-- 71&#45;&gt;102 -->
<g id="edge33" class="edge"><title>71&#45;&gt;102</title>
<path fill="none" stroke="green" d="M143.66,-747.153C144.21,-738.734 144.885,-728.43 145.513,-718.819"/>
<polygon fill="green" stroke="green" points="149.01,-718.99 146.17,-708.783 142.024,-718.533 149.01,-718.99"/>
</g>
<!-- 30 -->
<g id="node11" class="node"><title>30</title>
<ellipse fill="none" stroke="black" cx="150.5" cy="-611.855" rx="18.2703" ry="18.2703"/>
<text text-anchor="middle" x="150.5" y="-609.655" font-family="Times New Roman,serif" font-size="9.00">30</text>
</g>
<!-- 102&#45;&gt;30 -->
<g id="edge34" class="edge"><title>102&#45;&gt;30</title>
<path fill="none" stroke="red" d="M148.336,-665.952C148.657,-658.057 149.03,-648.907 149.375,-640.45"/>
<polygon fill="red" stroke="red" points="152.88,-640.39 149.791,-630.256 145.886,-640.105 152.88,-640.39"/>
</g>
<!-- 16 -->
<g id="node13" class="node"><title>16</title>
<ellipse fill="none" stroke="black" cx="150.5" cy="-536.257" rx="18.2703" ry="18.2703"/>
<text text-anchor="middle" x="150.5" y="-534.057" font-family="Times New Roman,serif" font-size="9.00">16</text>
</g>
<!-- 30&#45;&gt;16 -->
<g id="edge18" class="edge"><title>30&#45;&gt;16</title>
<path fill="none" stroke="red" d="M150.5,-593.413C150.5,-584.951 150.5,-574.579 150.5,-565.063"/>
<polygon fill="red" stroke="red" points="154,-564.828 150.5,-554.828 147,-564.829 154,-564.828"/>
</g>
<!-- 113&#45;&gt;16 -->
<g id="edge48" class="edge"><title>113&#45;&gt;16</title>
<path fill="none" stroke="red" d="M199.834,-744.656C198.312,-712.149 193.372,-646.544 177.5,-593.47 174.243,-582.579 169.116,-571.165 164.2,-561.49"/>
<polygon fill="red" stroke="red" points="167.202,-559.68 159.432,-552.478 161.015,-562.954 167.202,-559.68"/>
</g>
<!-- 6 -->
<g id="node17" class="node"><title>6</title>
<ellipse fill="none" stroke="black" cx="141.5" cy="-457.831" rx="14.7" ry="14.7"/>
<text text-anchor="middle" x="141.5" y="-455.631" font-family="Times New Roman,serif" font-size="9.00">6</text>
</g>
<!-- 16&#45;&gt;6 -->
<g id="edge2" class="edge"><title>16&#45;&gt;6</title>
<path fill="none" stroke="red" d="M148.458,-517.915C147.247,-507.635 145.694,-494.449 144.363,-483.143"/>
<polygon fill="red" stroke="red" points="147.818,-482.557 143.173,-473.035 140.866,-483.376 147.818,-482.557"/>
</g>
<!-- 48 -->
<g id="node16" class="node"><title>48</title>
<ellipse fill="none" stroke="black" cx="258.5" cy="-765.879" rx="18.2703" ry="18.2703"/>
<text text-anchor="middle" x="258.5" y="-763.679" font-family="Times New Roman,serif" font-size="9.00">48</text>
</g>
<!-- 20&#45;&gt;48 -->
<g id="edge40" class="edge"><title>20&#45;&gt;48</title>
<path fill="none" stroke="green" d="M256.211,-823.036C256.556,-814.573 256.979,-804.202 257.367,-794.685"/>
<polygon fill="green" stroke="green" points="260.873,-794.585 257.784,-784.451 253.879,-794.3 260.873,-794.585"/>
</g>
<!-- 37 -->
<g id="node36" class="node"><title>37</title>
<ellipse fill="none" stroke="black" cx="282.5" cy="-18.3848" rx="18.2703" ry="18.2703"/>
<text text-anchor="middle" x="282.5" y="-16.1848" font-family="Times New Roman,serif" font-size="9.00">37</text>
</g>
<!-- 20&#45;&gt;37 -->
<g id="edge17" class="edge"><title>20&#45;&gt;37</title>
<path fill="none" stroke="red" d="M267.229,-826.867C287.864,-801.476 328.5,-744.374 328.5,-688.453 328.5,-688.453 328.5,-688.453 328.5,-162.924 328.5,-121.975 323.078,-111.402 309.5,-72.7696 306.06,-62.9832 301.195,-52.7074 296.54,-43.8136"/>
<polygon fill="red" stroke="red" points="299.493,-41.9159 291.649,-34.7937 293.339,-45.2529 299.493,-41.9159"/>
</g>
<!-- 12&#45;&gt;7 -->
<g id="edge10" class="edge"><title>12&#45;&gt;7</title>
<path fill="none" stroke="green" d="M270.255,-898.238C276.915,-887.994 285.821,-874.292 293.138,-863.034"/>
<polygon fill="green" stroke="green" points="296.077,-864.935 298.592,-854.643 290.208,-861.12 296.077,-864.935"/>
</g>
<!-- 11 -->
<g id="node18" class="node"><title>11</title>
<ellipse fill="none" stroke="black" cx="258.5" cy="-687.453" rx="18.2703" ry="18.2703"/>
<text text-anchor="middle" x="258.5" y="-685.253" font-family="Times New Roman,serif" font-size="9.00">11</text>
</g>
<!-- 48&#45;&gt;11 -->
<g id="edge41" class="edge"><title>48&#45;&gt;11</title>
<path fill="none" stroke="red" d="M258.5,-747.153C258.5,-737.99 258.5,-726.594 258.5,-716.289"/>
<polygon fill="red" stroke="red" points="262,-716.083 258.5,-706.083 255,-716.083 262,-716.083"/>
</g>
<!-- 63 -->
<g id="node20" class="node"><title>63</title>
<ellipse fill="none" stroke="black" cx="95.5" cy="-382.233" rx="18.2703" ry="18.2703"/>
<text text-anchor="middle" x="95.5" y="-380.033" font-family="Times New Roman,serif" font-size="9.00">63</text>
</g>
<!-- 6&#45;&gt;63 -->
<g id="edge21" class="edge"><title>6&#45;&gt;63</title>
<path fill="none" stroke="green" d="M133.904,-444.677C127.497,-434.427 118.14,-419.455 110.265,-406.856"/>
<polygon fill="green" stroke="green" points="113.125,-404.829 104.857,-398.204 107.189,-408.539 113.125,-404.829"/>
</g>
<!-- 10 -->
<g id="node34" class="node"><title>10</title>
<ellipse fill="none" stroke="black" cx="227.5" cy="-163.924" rx="18.2703" ry="18.2703"/>
<text text-anchor="middle" x="227.5" y="-161.724" font-family="Times New Roman,serif" font-size="9.00">10</text>
</g>
<!-- 6&#45;&gt;10 -->
<g id="edge36" class="edge"><title>6&#45;&gt;10</title>
<path fill="none" stroke="green" d="M139.019,-443.141C132.805,-404.907 119.833,-294.781 160.5,-218.309 169.811,-200.801 187.596,-187.049 202.504,-177.89"/>
<polygon fill="green" stroke="green" points="204.414,-180.829 211.313,-172.788 200.905,-174.771 204.414,-180.829"/>
</g>
<!-- 40 -->
<g id="node21" class="node"><title>40</title>
<ellipse fill="none" stroke="black" cx="242.5" cy="-611.855" rx="18.2703" ry="18.2703"/>
<text text-anchor="middle" x="242.5" y="-609.655" font-family="Times New Roman,serif" font-size="9.00">40</text>
</g>
<!-- 11&#45;&gt;40 -->
<g id="edge29" class="edge"><title>11&#45;&gt;40</title>
<path fill="none" stroke="red" d="M254.789,-669.383C252.884,-660.622 250.519,-649.742 248.374,-639.873"/>
<polygon fill="red" stroke="red" points="251.791,-639.115 246.246,-630.087 244.951,-640.602 251.791,-639.115"/>
</g>
<!-- 84 -->
<g id="node27" class="node"><title>84</title>
<ellipse fill="none" stroke="black" cx="282.5" cy="-382.233" rx="18.2703" ry="18.2703"/>
<text text-anchor="middle" x="282.5" y="-380.033" font-family="Times New Roman,serif" font-size="9.00">84</text>
</g>
<!-- 11&#45;&gt;84 -->
<g id="edge24" class="edge"><title>11&#45;&gt;84</title>
<path fill="none" stroke="green" d="M262.5,-669.332C264.929,-658.246 267.866,-643.465 269.5,-630.24 279.297,-550.934 281.72,-456.412 282.313,-410.696"/>
<polygon fill="green" stroke="green" points="285.813,-410.713 282.423,-400.675 278.813,-410.636 285.813,-410.713"/>
</g>
<!-- 63&#45;&gt;33 -->
<g id="edge22" class="edge"><title>63&#45;&gt;33</title>
<path fill="none" stroke="green" d="M87.0376,-365.877C82.0978,-356.913 75.7489,-345.392 70.1208,-335.179"/>
<polygon fill="green" stroke="green" points="73.1078,-333.348 65.2159,-326.279 66.9771,-336.726 73.1078,-333.348"/>
</g>
<!-- 104 -->
<g id="node22" class="node"><title>104</title>
<ellipse fill="none" stroke="black" cx="227.5" cy="-536.257" rx="21.4286" ry="21.4286"/>
<text text-anchor="middle" x="227.5" y="-534.057" font-family="Times New Roman,serif" font-size="9.00">104</text>
</g>
<!-- 40&#45;&gt;104 -->
<g id="edge37" class="edge"><title>40&#45;&gt;104</title>
<path fill="none" stroke="green" d="M239.021,-593.785C237.399,-585.825 235.42,-576.116 233.563,-567.007"/>
<polygon fill="green" stroke="green" points="236.971,-566.2 231.544,-557.101 230.112,-567.598 236.971,-566.2"/>
</g>
<!-- 104&#45;&gt;5 -->
<g id="edge44" class="edge"><title>104&#45;&gt;5</title>
<path fill="none" stroke="green" d="M208.218,-526.752C185.772,-516.549 147.899,-498.384 117.5,-479.044 114.79,-477.319 112.016,-475.378 109.339,-473.398"/>
<polygon fill="green" stroke="green" points="111.348,-470.527 101.302,-467.16 107.055,-476.057 111.348,-470.527"/>
</g>
<!-- 105 -->
<g id="node23" class="node"><title>105</title>
<ellipse fill="none" stroke="black" cx="227.5" cy="-457.831" rx="21.4286" ry="21.4286"/>
<text text-anchor="middle" x="227.5" y="-455.631" font-family="Times New Roman,serif" font-size="9.00">105</text>
</g>
<!-- 104&#45;&gt;105 -->
<g id="edge38" class="edge"><title>104&#45;&gt;105</title>
<path fill="none" stroke="green" d="M227.5,-514.776C227.5,-506.917 227.5,-497.773 227.5,-489.183"/>
<polygon fill="green" stroke="green" points="231,-489.103 227.5,-479.103 224,-489.103 231,-489.103"/>
</g>
<!-- 32 -->
<g id="node24" class="node"><title>32</title>
<ellipse fill="none" stroke="black" cx="227.5" cy="-382.233" rx="18.2703" ry="18.2703"/>
<text text-anchor="middle" x="227.5" y="-380.033" font-family="Times New Roman,serif" font-size="9.00">32</text>
</g>
<!-- 105&#45;&gt;32 -->
<g id="edge39" class="edge"><title>105&#45;&gt;32</title>
<path fill="none" stroke="green" d="M227.5,-436.329C227.5,-428.434 227.5,-419.285 227.5,-410.828"/>
<polygon fill="green" stroke="green" points="231,-410.633 227.5,-400.633 224,-410.633 231,-410.633"/>
</g>
<!-- 31 -->
<g id="node30" class="node"><title>31</title>
<ellipse fill="none" stroke="black" cx="231.5" cy="-309.463" rx="18.2703" ry="18.2703"/>
<text text-anchor="middle" x="231.5" y="-307.263" font-family="Times New Roman,serif" font-size="9.00">31</text>
</g>
<!-- 32&#45;&gt;31 -->
<g id="edge5" class="edge"><title>32&#45;&gt;31</title>
<path fill="none" stroke="red" d="M228.489,-363.739C228.923,-356.057 229.443,-346.847 229.929,-338.263"/>
<polygon fill="red" stroke="red" points="233.425,-338.429 230.495,-328.247 226.436,-338.033 233.425,-338.429"/>
</g>
<!-- 33&#45;&gt;38 -->
<g id="edge7" class="edge"><title>33&#45;&gt;38</title>
<path fill="none" stroke="red" d="M51.0493,-291.692C48.3568,-283.407 45.0458,-273.219 42.028,-263.934"/>
<polygon fill="red" stroke="red" points="45.3311,-262.773 38.9116,-254.344 38.6738,-264.937 45.3311,-262.773"/>
</g>
<!-- 51 -->
<g id="node28" class="node"><title>51</title>
<ellipse fill="none" stroke="black" cx="33.5" cy="-163.924" rx="18.2703" ry="18.2703"/>
<text text-anchor="middle" x="33.5" y="-161.724" font-family="Times New Roman,serif" font-size="9.00">51</text>
</g>
<!-- 38&#45;&gt;51 -->
<g id="edge23" class="edge"><title>38&#45;&gt;51</title>
<path fill="none" stroke="red" d="M33.5,-218.2C33.5,-210.518 33.5,-201.308 33.5,-192.724"/>
<polygon fill="red" stroke="red" points="37.0001,-192.708 33.5,-182.708 30.0001,-192.708 37.0001,-192.708"/>
</g>
<!-- 36 -->
<g id="node31" class="node"><title>36</title>
<ellipse fill="none" stroke="black" cx="279.5" cy="-236.693" rx="18.2703" ry="18.2703"/>
<text text-anchor="middle" x="279.5" y="-234.493" font-family="Times New Roman,serif" font-size="9.00">36</text>
</g>
<!-- 84&#45;&gt;36 -->
<g id="edge25" class="edge"><title>84&#45;&gt;36</title>
<path fill="none" stroke="red" d="M282.132,-363.632C281.622,-339.204 280.693,-294.758 280.086,-265.733"/>
<polygon fill="red" stroke="red" points="283.579,-265.363 279.871,-255.438 276.581,-265.509 283.579,-265.363"/>
</g>
<!-- 21 -->
<g id="node29" class="node"><title>21</title>
<ellipse fill="none" stroke="black" cx="282.5" cy="-163.924" rx="18.2703" ry="18.2703"/>
<text text-anchor="middle" x="282.5" y="-161.724" font-family="Times New Roman,serif" font-size="9.00">21</text>
</g>
<!-- 57 -->
<g id="node33" class="node"><title>57</title>
<ellipse fill="none" stroke="black" cx="282.5" cy="-91.1543" rx="18.2703" ry="18.2703"/>
<text text-anchor="middle" x="282.5" y="-88.9543" font-family="Times New Roman,serif" font-size="9.00">57</text>
</g>
<!-- 21&#45;&gt;57 -->
<g id="edge31" class="edge"><title>21&#45;&gt;57</title>
<path fill="none" stroke="red" d="M282.5,-145.43C282.5,-137.748 282.5,-128.539 282.5,-119.955"/>
<polygon fill="red" stroke="red" points="286,-119.938 282.5,-109.938 279,-119.938 286,-119.938"/>
</g>
<!-- 31&#45;&gt;36 -->
<g id="edge46" class="edge"><title>31&#45;&gt;36</title>
<path fill="none" stroke="red" d="M241.446,-293.799C247.882,-284.311 256.399,-271.752 263.745,-260.923"/>
<polygon fill="red" stroke="red" points="266.85,-262.579 269.567,-252.338 261.057,-258.649 266.85,-262.579"/>
</g>
<!-- 47 -->
<g id="node32" class="node"><title>47</title>
<ellipse fill="none" stroke="black" cx="187.5" cy="-236.693" rx="18.2703" ry="18.2703"/>
<text text-anchor="middle" x="187.5" y="-234.493" font-family="Times New Roman,serif" font-size="9.00">47</text>
</g>
<!-- 31&#45;&gt;47 -->
<g id="edge15" class="edge"><title>31&#45;&gt;47</title>
<path fill="none" stroke="red" d="M222.169,-293.455C216.394,-284.166 208.851,-272.035 202.277,-261.461"/>
<polygon fill="red" stroke="red" points="205.07,-259.325 196.818,-252.68 199.126,-263.021 205.07,-259.325"/>
</g>
<!-- 31&#45;&gt;10 -->
<g id="edge4" class="edge"><title>31&#45;&gt;10</title>
<path fill="none" stroke="red" d="M231.01,-290.862C230.329,-266.434 229.09,-221.989 228.281,-192.964"/>
<polygon fill="red" stroke="red" points="231.772,-192.567 227.994,-182.669 224.775,-192.762 231.772,-192.567"/>
</g>
<!-- 36&#45;&gt;10 -->
<g id="edge8" class="edge"><title>36&#45;&gt;10</title>
<path fill="none" stroke="red" d="M268.977,-221.372C261.858,-211.684 252.306,-198.683 244.163,-187.601"/>
<polygon fill="red" stroke="red" points="246.749,-185.21 238.007,-179.224 241.108,-189.355 246.749,-185.21"/>
</g>
<!-- 47&#45;&gt;10 -->
<g id="edge16" class="edge"><title>47&#45;&gt;10</title>
<path fill="none" stroke="red" d="M196.179,-220.337C201.316,-211.249 207.939,-199.533 213.77,-189.216"/>
<polygon fill="red" stroke="red" points="216.964,-190.678 218.838,-180.25 210.87,-187.233 216.964,-190.678"/>
</g>
<!-- 57&#45;&gt;37 -->
<g id="edge32" class="edge"><title>57&#45;&gt;37</title>
<path fill="none" stroke="red" d="M282.5,-72.6607C282.5,-64.9784 282.5,-55.7693 282.5,-47.185"/>
<polygon fill="red" stroke="red" points="286,-47.1687 282.5,-37.1687 279,-47.1687 286,-47.1687"/>
</g>
<!-- 67 -->
<g id="node35" class="node"><title>67</title>
<ellipse fill="none" stroke="black" cx="227.5" cy="-91.1543" rx="18.2703" ry="18.2703"/>
<text text-anchor="middle" x="227.5" y="-88.9543" font-family="Times New Roman,serif" font-size="9.00">67</text>
</g>
<!-- 10&#45;&gt;67 -->
<g id="edge42" class="edge"><title>10&#45;&gt;67</title>
<path fill="none" stroke="green" d="M227.5,-145.43C227.5,-137.748 227.5,-128.539 227.5,-119.955"/>
<polygon fill="green" stroke="green" points="231,-119.938 227.5,-109.938 224,-119.938 231,-119.938"/>
</g>
<!-- 67&#45;&gt;37 -->
<g id="edge43" class="edge"><title>67&#45;&gt;37</title>
<path fill="none" stroke="red" d="M238.366,-76.1725C246.05,-66.2858 256.509,-52.8283 265.316,-41.4954"/>
<polygon fill="red" stroke="red" points="268.283,-43.3811 271.656,-33.3375 262.756,-39.0856 268.283,-43.3811"/>
</g>
<!-- 28&#45;&gt;5 -->
<g id="edge3" class="edge"><title>28&#45;&gt;5</title>
<path fill="none" stroke="green" d="M81.8574,-670.651C76.959,-659.617 71.0564,-644.387 68.5,-630.24 59.3964,-579.857 58.6203,-565.28 68.5,-515.044 71.183,-501.401 77.2041,-486.899 82.4127,-476.042"/>
<polygon fill="green" stroke="green" points="85.6466,-477.402 87.0221,-466.897 79.3957,-474.251 85.6466,-477.402"/>
</g>
<!-- 34 -->
<g id="node38" class="node"><title>34</title>
<ellipse fill="none" stroke="black" cx="95.5" cy="-611.855" rx="18.2703" ry="18.2703"/>
<text text-anchor="middle" x="95.5" y="-609.655" font-family="Times New Roman,serif" font-size="9.00">34</text>
</g>
<!-- 28&#45;&gt;34 -->
<g id="edge14" class="edge"><title>28&#45;&gt;34</title>
<path fill="none" stroke="green" d="M90.9219,-669.011C91.6118,-660.549 92.4573,-650.177 93.2332,-640.661"/>
<polygon fill="green" stroke="green" points="96.7433,-640.678 94.0675,-630.426 89.7664,-640.109 96.7433,-640.678"/>
</g>
<!-- 60 -->
<g id="node39" class="node"><title>60</title>
<ellipse fill="none" stroke="black" cx="95.5" cy="-536.257" rx="18.2703" ry="18.2703"/>
<text text-anchor="middle" x="95.5" y="-534.057" font-family="Times New Roman,serif" font-size="9.00">60</text>
</g>
<!-- 34&#45;&gt;60 -->
<g id="edge19" class="edge"><title>34&#45;&gt;60</title>
<path fill="none" stroke="green" d="M95.5,-593.413C95.5,-584.951 95.5,-574.579 95.5,-565.063"/>
<polygon fill="green" stroke="green" points="99.0001,-564.828 95.5,-554.828 92.0001,-564.829 99.0001,-564.828"/>
</g>
<!-- 60&#45;&gt;5 -->
<g id="edge20" class="edge"><title>60&#45;&gt;5</title>
<path fill="none" stroke="red" d="M94.5723,-517.531C93.9426,-505.501 93.1117,-489.625 92.4728,-477.417"/>
<polygon fill="red" stroke="red" points="95.9498,-476.885 91.9319,-467.082 88.9594,-477.251 95.9498,-476.885"/>
</g>
</g>
</svg>
