<?xml version="1.0" encoding="UTF-8" standalone="no"?>
<!DOCTYPE svg PUBLIC "-//W3C//DTD SVG 1.1//EN"
 "http://www.w3.org/Graphics/SVG/1.1/DTD/svg11.dtd">
<!-- Generated by graphviz version 2.38.0 (20140413.2041)
 -->
<!-- Title: %3 Pages: 1 -->
<svg width="1531pt" height="2051pt"
 viewBox="0.00 0.00 1530.74 2051.20" xmlns="http://www.w3.org/2000/svg" xmlns:xlink="http://www.w3.org/1999/xlink">
<g id="graph0" class="graph" transform="scale(1 1) rotate(0) translate(4 2047.2)">
<title>%3</title>
<polygon fill="white" stroke="none" points="-4,4 -4,-2047.2 1526.74,-2047.2 1526.74,4 -4,4"/>
<!-- 1 -->
<g id="node1" class="node"><title>1</title>
<polygon fill="lightgray" stroke="black" points="1021.24,-2043.2 1000.24,-2043.2 1000.24,-2025.2 1021.24,-2025.2 1021.24,-2043.2"/>
<text text-anchor="middle" x="1010.74" y="-2032" font-family="Times New Roman,serif" font-size="9.00">1</text>
</g>
<!-- 85 -->
<g id="node6" class="node"><title>85</title>
<ellipse fill="none" stroke="black" cx="964.741" cy="-1970.82" rx="18.2703" ry="18.2703"/>
<text text-anchor="middle" x="964.741" y="-1968.62" font-family="Times New Roman,serif" font-size="9.00">85</text>
</g>
<!-- 1&#45;&gt;85 -->
<g id="edge134" class="edge"><title>1&#45;&gt;85</title>
<path fill="none" stroke="green" d="M1004.73,-2025.18C998.885,-2017.38 989.74,-2005.18 981.67,-1994.41"/>
<polygon fill="green" stroke="green" points="984.309,-1992.1 975.511,-1986.19 978.707,-1996.29 984.309,-1992.1"/>
</g>
<!-- 101 -->
<g id="node8" class="node"><title>101</title>
<ellipse fill="none" stroke="black" cx="1087.74" cy="-1822.45" rx="21.4286" ry="21.4286"/>
<text text-anchor="middle" x="1087.74" y="-1820.25" font-family="Times New Roman,serif" font-size="9.00">101</text>
</g>
<!-- 1&#45;&gt;101 -->
<g id="edge44" class="edge"><title>1&#45;&gt;101</title>
<path fill="none" stroke="red" d="M1013.76,-2024.98C1024.25,-1996.41 1059.43,-1900.57 1077.23,-1852.07"/>
<polygon fill="red" stroke="red" points="1080.59,-1853.08 1080.75,-1842.49 1074.02,-1850.67 1080.59,-1853.08"/>
</g>
<!-- 95 -->
<g id="node18" class="node"><title>95</title>
<ellipse fill="none" stroke="black" cx="616.741" cy="-1898.05" rx="18.2703" ry="18.2703"/>
<text text-anchor="middle" x="616.741" y="-1895.85" font-family="Times New Roman,serif" font-size="9.00">95</text>
</g>
<!-- 1&#45;&gt;95 -->
<g id="edge66" class="edge"><title>1&#45;&gt;95</title>
<path fill="none" stroke="green" d="M1000.2,-2029.62C948.67,-2012.07 722.521,-1935.07 643.84,-1908.28"/>
<polygon fill="green" stroke="green" points="644.757,-1904.89 634.163,-1904.98 642.501,-1911.52 644.757,-1904.89"/>
</g>
<!-- 69 -->
<g id="node23" class="node"><title>69</title>
<ellipse fill="none" stroke="black" cx="1006.74" cy="-1438.81" rx="18.2703" ry="18.2703"/>
<text text-anchor="middle" x="1006.74" y="-1436.61" font-family="Times New Roman,serif" font-size="9.00">69</text>
</g>
<!-- 1&#45;&gt;69 -->
<g id="edge33" class="edge"><title>1&#45;&gt;69</title>
<path fill="none" stroke="green" d="M1010.74,-2025.04C1010.74,-2004.1 1010.74,-1946.8 1010.74,-1899.05 1010.74,-1899.05 1010.74,-1899.05 1010.74,-1589 1010.74,-1546.54 1009.1,-1497.3 1007.92,-1467.37"/>
<polygon fill="green" stroke="green" points="1011.41,-1467.11 1007.51,-1457.26 1004.42,-1467.39 1011.41,-1467.11"/>
</g>
<!-- 19 -->
<g id="node43" class="node"><title>19</title>
<ellipse fill="none" stroke="black" cx="1196.74" cy="-1049.5" rx="18.2703" ry="18.2703"/>
<text text-anchor="middle" x="1196.74" y="-1047.3" font-family="Times New Roman,serif" font-size="9.00">19</text>
</g>
<!-- 1&#45;&gt;19 -->
<g id="edge56" class="edge"><title>1&#45;&gt;19</title>
<path fill="none" stroke="green" d="M1021.33,-2032.7C1069.4,-2029.77 1264.74,-2011.01 1264.74,-1899.05 1264.74,-1899.05 1264.74,-1899.05 1264.74,-1664.6 1264.74,-1436.75 1217.92,-1164.22 1201.98,-1078.03"/>
<polygon fill="green" stroke="green" points="1205.39,-1077.2 1200.11,-1068.01 1198.51,-1078.48 1205.39,-1077.2"/>
</g>
<!-- 2 -->
<g id="node2" class="node"><title>2</title>
<polygon fill="lightgray" stroke="black" points="577.241,-1447.81 556.241,-1447.81 556.241,-1429.81 577.241,-1429.81 577.241,-1447.81"/>
<text text-anchor="middle" x="566.741" y="-1436.61" font-family="Times New Roman,serif" font-size="9.00">2</text>
</g>
<!-- 5 -->
<g id="node5" class="node"><title>5</title>
<polygon fill="lightblue" stroke="black" points="891.241,-18 870.241,-18 870.241,-0 891.241,-0 891.241,-18"/>
<text text-anchor="middle" x="880.741" y="-6.8" font-family="Times New Roman,serif" font-size="9.00">5</text>
</g>
<!-- 2&#45;&gt;5 -->
<g id="edge7" class="edge"><title>2&#45;&gt;5</title>
<path fill="none" stroke="green" d="M555.989,-1437.15C503.979,-1433.82 278.508,-1417.66 217.741,-1384.42 177.009,-1362.14 171.375,-1346.53 148.741,-1305.99 98.9955,-1216.91 48.7408,-1081.57 48.7408,-896.477 48.7408,-896.477 48.7408,-896.477 48.7408,-144.154 48.7408,-59.2952 732.042,-18.0643 860.171,-11.0789"/>
<polygon fill="green" stroke="green" points="860.423,-14.5705 870.221,-10.5397 860.048,-7.58052 860.423,-14.5705"/>
</g>
<!-- 84 -->
<g id="node15" class="node"><title>84</title>
<ellipse fill="none" stroke="black" cx="457.741" cy="-1284.78" rx="18.2703" ry="18.2703"/>
<text text-anchor="middle" x="457.741" y="-1282.58" font-family="Times New Roman,serif" font-size="9.00">84</text>
</g>
<!-- 2&#45;&gt;84 -->
<g id="edge101" class="edge"><title>2&#45;&gt;84</title>
<path fill="none" stroke="red" d="M556.187,-1432.54C540.666,-1424.29 511.692,-1406.91 494.741,-1384.42 478.638,-1363.05 468.857,-1333.9 463.43,-1312.83"/>
<polygon fill="red" stroke="red" points="466.788,-1311.82 461.044,-1302.92 459.983,-1313.46 466.788,-1311.82"/>
</g>
<!-- 35 -->
<g id="node19" class="node"><title>35</title>
<ellipse fill="none" stroke="black" cx="621.741" cy="-1363.21" rx="18.2703" ry="18.2703"/>
<text text-anchor="middle" x="621.741" y="-1361.01" font-family="Times New Roman,serif" font-size="9.00">35</text>
</g>
<!-- 2&#45;&gt;35 -->
<g id="edge9" class="edge"><title>2&#45;&gt;35</title>
<path fill="none" stroke="green" d="M572.837,-1429.65C580.552,-1419.32 594.15,-1401.13 605.052,-1386.54"/>
<polygon fill="green" stroke="green" points="607.912,-1388.56 611.094,-1378.45 602.305,-1384.37 607.912,-1388.56"/>
</g>
<!-- 43 -->
<g id="node32" class="node"><title>43</title>
<ellipse fill="none" stroke="black" cx="292.741" cy="-1206.35" rx="18.2703" ry="18.2703"/>
<text text-anchor="middle" x="292.741" y="-1204.15" font-family="Times New Roman,serif" font-size="9.00">43</text>
</g>
<!-- 2&#45;&gt;43 -->
<g id="edge106" class="edge"><title>2&#45;&gt;43</title>
<path fill="none" stroke="red" d="M556.136,-1433.26C537.489,-1425.02 498.033,-1406.39 468.741,-1384.42 404.223,-1336.02 340.508,-1264.43 310.517,-1228.93"/>
<polygon fill="red" stroke="red" points="313.077,-1226.54 303.971,-1221.12 307.712,-1231.03 313.077,-1226.54"/>
</g>
<!-- 54 -->
<g id="node33" class="node"><title>54</title>
<ellipse fill="none" stroke="black" cx="1310.74" cy="-1127.93" rx="18.2703" ry="18.2703"/>
<text text-anchor="middle" x="1310.74" y="-1125.73" font-family="Times New Roman,serif" font-size="9.00">54</text>
</g>
<!-- 2&#45;&gt;54 -->
<g id="edge36" class="edge"><title>2&#45;&gt;54</title>
<path fill="none" stroke="green" d="M577.515,-1436.63C636.278,-1430.16 916.753,-1398.74 952.741,-1384.42 1097.87,-1326.68 1239.64,-1198.09 1290.76,-1148.74"/>
<polygon fill="green" stroke="green" points="1293.45,-1151.01 1298.18,-1141.52 1288.57,-1145.99 1293.45,-1151.01"/>
</g>
<!-- 94 -->
<g id="node34" class="node"><title>94</title>
<ellipse fill="none" stroke="black" cx="566.741" cy="-1363.21" rx="18.2703" ry="18.2703"/>
<text text-anchor="middle" x="566.741" y="-1361.01" font-family="Times New Roman,serif" font-size="9.00">94</text>
</g>
<!-- 2&#45;&gt;94 -->
<g id="edge85" class="edge"><title>2&#45;&gt;94</title>
<path fill="none" stroke="green" d="M566.741,-1429.65C566.741,-1420.55 566.741,-1405.35 566.741,-1391.88"/>
<polygon fill="green" stroke="green" points="570.241,-1391.61 566.741,-1381.61 563.241,-1391.61 570.241,-1391.61"/>
</g>
<!-- 30 -->
<g id="node49" class="node"><title>30</title>
<ellipse fill="none" stroke="black" cx="328.741" cy="-822.708" rx="18.2703" ry="18.2703"/>
<text text-anchor="middle" x="328.741" y="-820.508" font-family="Times New Roman,serif" font-size="9.00">30</text>
</g>
<!-- 2&#45;&gt;30 -->
<g id="edge10" class="edge"><title>2&#45;&gt;30</title>
<path fill="none" stroke="green" d="M556.099,-1437.32C519.172,-1435.32 393.74,-1425.68 300.741,-1384.42 174.699,-1328.51 124.741,-1266.82 124.741,-1128.93 124.741,-1128.93 124.741,-1128.93 124.741,-970.075 124.741,-884.489 244.744,-844.087 300.671,-829.905"/>
<polygon fill="green" stroke="green" points="301.746,-833.246 310.637,-827.485 300.094,-826.444 301.746,-833.246"/>
</g>
<!-- 50 -->
<g id="node50" class="node"><title>50</title>
<ellipse fill="none" stroke="black" cx="1044.74" cy="-895.477" rx="18.2703" ry="18.2703"/>
<text text-anchor="middle" x="1044.74" y="-893.277" font-family="Times New Roman,serif" font-size="9.00">50</text>
</g>
<!-- 2&#45;&gt;50 -->
<g id="edge26" class="edge"><title>2&#45;&gt;50</title>
<path fill="none" stroke="red" d="M577.55,-1431.02C603.962,-1414.6 674.127,-1371.85 735.741,-1341.99 766.078,-1327.29 995.228,-1253.52 1016.74,-1227.57 1045.29,-1193.13 1036.74,-1173.66 1036.74,-1128.93 1036.74,-1128.93 1036.74,-1128.93 1036.74,-1048.5 1036.74,-1005.19 1040.02,-955.033 1042.38,-924.543"/>
<polygon fill="red" stroke="red" points="1045.89,-924.495 1043.2,-914.249 1038.92,-923.939 1045.89,-924.495"/>
</g>
<!-- 7 -->
<g id="node61" class="node"><title>7</title>
<ellipse fill="none" stroke="black" cx="1188.74" cy="-822.708" rx="14.7" ry="14.7"/>
<text text-anchor="middle" x="1188.74" y="-820.508" font-family="Times New Roman,serif" font-size="9.00">7</text>
</g>
<!-- 2&#45;&gt;7 -->
<g id="edge2" class="edge"><title>2&#45;&gt;7</title>
<path fill="none" stroke="green" d="M577.641,-1436.59C611.274,-1432.57 715.971,-1417.99 795.741,-1384.42 825.62,-1371.85 1021.46,-1252.85 1041.74,-1227.57 1091.81,-1165.16 1161.15,-923.902 1182.34,-847.236"/>
<polygon fill="green" stroke="green" points="1185.83,-847.729 1185.11,-837.159 1179.08,-845.875 1185.83,-847.729"/>
</g>
<!-- 3 -->
<g id="node3" class="node"><title>3</title>
<polygon fill="lightgray" stroke="black" points="757.241,-1523.4 736.241,-1523.4 736.241,-1505.4 757.241,-1505.4 757.241,-1523.4"/>
<text text-anchor="middle" x="746.741" y="-1512.2" font-family="Times New Roman,serif" font-size="9.00">3</text>
</g>
<!-- 3&#45;&gt;5 -->
<g id="edge1" class="edge"><title>3&#45;&gt;5</title>
<path fill="none" stroke="green" d="M736.037,-1508.76C724.745,-1504.06 706.325,-1496.97 689.741,-1493.19 457.41,-1440.24 342.854,-1542.71 164.741,-1384.42 105.318,-1331.61 10.7408,-1184.62 10.7408,-1050.5 10.7408,-1050.5 10.7408,-1050.5 10.7408,-144.154 10.7408,-123.124 -56.3571,-120.623 148.741,-54 286.166,-9.3595 755.389,-9.28984 859.966,-9.84728"/>
<polygon fill="green" stroke="green" points="860.132,-13.3483 870.153,-9.9103 860.175,-6.34841 860.132,-13.3483"/>
</g>
<!-- 57 -->
<g id="node12" class="node"><title>57</title>
<ellipse fill="none" stroke="black" cx="746.741" cy="-1438.81" rx="18.2703" ry="18.2703"/>
<text text-anchor="middle" x="746.741" y="-1436.61" font-family="Times New Roman,serif" font-size="9.00">57</text>
</g>
<!-- 3&#45;&gt;57 -->
<g id="edge92" class="edge"><title>3&#45;&gt;57</title>
<path fill="none" stroke="green" d="M746.741,-1505.25C746.741,-1496.15 746.741,-1480.94 746.741,-1467.48"/>
<polygon fill="green" stroke="green" points="750.241,-1467.2 746.741,-1457.2 743.241,-1467.2 750.241,-1467.2"/>
</g>
<!-- 46 -->
<g id="node21" class="node"><title>46</title>
<ellipse fill="none" stroke="black" cx="821.741" cy="-1127.93" rx="18.2703" ry="18.2703"/>
<text text-anchor="middle" x="821.741" y="-1125.73" font-family="Times New Roman,serif" font-size="9.00">46</text>
</g>
<!-- 3&#45;&gt;46 -->
<g id="edge107" class="edge"><title>3&#45;&gt;46</title>
<path fill="none" stroke="green" d="M757.526,-1509.8C776.086,-1502.94 813.535,-1486.05 828.741,-1457.19 855.981,-1405.49 835.097,-1226.04 825.702,-1156.64"/>
<polygon fill="green" stroke="green" points="829.135,-1155.91 824.302,-1146.48 822.2,-1156.86 829.135,-1155.91"/>
</g>
<!-- 83 -->
<g id="node24" class="node"><title>83</title>
<ellipse fill="none" stroke="black" cx="327.741" cy="-1363.21" rx="18.2703" ry="18.2703"/>
<text text-anchor="middle" x="327.741" y="-1361.01" font-family="Times New Roman,serif" font-size="9.00">83</text>
</g>
<!-- 3&#45;&gt;83 -->
<g id="edge42" class="edge"><title>3&#45;&gt;83</title>
<path fill="none" stroke="red" d="M736.025,-1508.81C724.724,-1504.15 706.296,-1497.1 689.741,-1493.19 562.475,-1463.16 510.951,-1522.62 397.741,-1457.19 370.768,-1441.6 350.894,-1411.06 339.351,-1389.23"/>
<polygon fill="red" stroke="red" points="342.415,-1387.54 334.779,-1380.19 336.169,-1390.7 342.415,-1387.54"/>
</g>
<!-- 29 -->
<g id="node40" class="node"><title>29</title>
<ellipse fill="none" stroke="black" cx="596.741" cy="-971.075" rx="18.2703" ry="18.2703"/>
<text text-anchor="middle" x="596.741" y="-968.875" font-family="Times New Roman,serif" font-size="9.00">29</text>
</g>
<!-- 3&#45;&gt;29 -->
<g id="edge18" class="edge"><title>3&#45;&gt;29</title>
<path fill="none" stroke="green" d="M751.176,-1505.2C756.896,-1494.41 766.917,-1474.75 773.741,-1457.19 805.115,-1376.46 821.294,-1346.32 795.741,-1263.57 759.754,-1147.03 659.422,-1035.49 616.562,-991.633"/>
<polygon fill="green" stroke="green" points="619.009,-989.129 609.49,-984.478 614.03,-994.05 619.009,-989.129"/>
</g>
<!-- 36 -->
<g id="node41" class="node"><title>36</title>
<ellipse fill="none" stroke="black" cx="402.741" cy="-1127.93" rx="18.2703" ry="18.2703"/>
<text text-anchor="middle" x="402.741" y="-1125.73" font-family="Times New Roman,serif" font-size="9.00">36</text>
</g>
<!-- 3&#45;&gt;36 -->
<g id="edge11" class="edge"><title>3&#45;&gt;36</title>
<path fill="none" stroke="red" d="M735.915,-1509.22C724.523,-1504.9 706.022,-1498.11 689.741,-1493.19 627.009,-1474.22 604.298,-1488.53 546.741,-1457.19 505.104,-1434.52 496.888,-1422.57 468.741,-1384.42 416.922,-1314.19 405.678,-1206.98 403.315,-1156.74"/>
<polygon fill="red" stroke="red" points="406.809,-1156.49 402.926,-1146.63 399.814,-1156.76 406.809,-1156.49"/>
</g>
<!-- 3&#45;&gt;7 -->
<g id="edge5" class="edge"><title>3&#45;&gt;7</title>
<path fill="none" stroke="green" d="M757.51,-1508.79C776.848,-1500.23 818.28,-1480.6 848.741,-1457.19 960.805,-1371.07 988.656,-1344.02 1068.74,-1227.57 1152.88,-1105.21 1158.57,-1060.21 1183.74,-913.862 1187.57,-891.625 1188.67,-865.892 1188.9,-847.625"/>
<polygon fill="green" stroke="green" points="1192.4,-847.582 1188.95,-837.565 1185.4,-847.547 1192.4,-847.582"/>
</g>
<!-- 4 -->
<g id="node4" class="node"><title>4</title>
<polygon fill="lightgray" stroke="black" points="1008.24,-1215.35 987.241,-1215.35 987.241,-1197.35 1008.24,-1197.35 1008.24,-1215.35"/>
<text text-anchor="middle" x="997.741" y="-1204.15" font-family="Times New Roman,serif" font-size="9.00">4</text>
</g>
<!-- 4&#45;&gt;5 -->
<g id="edge53" class="edge"><title>4&#45;&gt;5</title>
<path fill="none" stroke="green" d="M997.83,-1197.29C998.074,-1174.35 998.741,-1106.69 998.741,-1050.5 998.741,-1050.5 998.741,-1050.5 998.741,-970.075 998.741,-771.866 1004.74,-722.354 1004.74,-524.144 1004.74,-524.144 1004.74,-524.144 1004.74,-144.154 1004.74,-83.5348 935.619,-38.6522 900.59,-19.7989"/>
<polygon fill="green" stroke="green" points="901.801,-16.4842 891.313,-14.9865 898.578,-22.698 901.801,-16.4842"/>
</g>
<!-- 47 -->
<g id="node22" class="node"><title>47</title>
<ellipse fill="none" stroke="black" cx="876.741" cy="-1127.93" rx="18.2703" ry="18.2703"/>
<text text-anchor="middle" x="876.741" y="-1125.73" font-family="Times New Roman,serif" font-size="9.00">47</text>
</g>
<!-- 4&#45;&gt;47 -->
<g id="edge31" class="edge"><title>4&#45;&gt;47</title>
<path fill="none" stroke="green" d="M987.003,-1198.57C967.756,-1186.42 926.952,-1160.64 900.741,-1144.09"/>
<polygon fill="green" stroke="green" points="902.462,-1141.03 892.138,-1138.65 898.724,-1146.95 902.462,-1141.03"/>
</g>
<!-- 11 -->
<g id="node42" class="node"><title>11</title>
<ellipse fill="none" stroke="black" cx="1299.74" cy="-1049.5" rx="18.2703" ry="18.2703"/>
<text text-anchor="middle" x="1299.74" y="-1047.3" font-family="Times New Roman,serif" font-size="9.00">11</text>
</g>
<!-- 4&#45;&gt;11 -->
<g id="edge54" class="edge"><title>4&#45;&gt;11</title>
<path fill="none" stroke="red" d="M1008.49,-1199.84C1051.48,-1177.8 1211.72,-1095.63 1274.39,-1063.5"/>
<polygon fill="red" stroke="red" points="1276.28,-1066.47 1283.58,-1058.79 1273.08,-1060.24 1276.28,-1066.47"/>
</g>
<!-- 4&#45;&gt;7 -->
<g id="edge6" class="edge"><title>4&#45;&gt;7</title>
<path fill="none" stroke="red" d="M1000.2,-1197.09C1010.05,-1164.48 1048.61,-1042.05 1098.74,-949.862 1120.83,-909.235 1153.83,-866.29 1173.13,-842.456"/>
<polygon fill="red" stroke="red" points="1175.95,-844.536 1179.58,-834.58 1170.54,-840.103 1175.95,-844.536"/>
</g>
<!-- 8 -->
<g id="node63" class="node"><title>8</title>
<ellipse fill="none" stroke="black" cx="961.741" cy="-601.571" rx="14.7" ry="14.7"/>
<text text-anchor="middle" x="961.741" y="-599.371" font-family="Times New Roman,serif" font-size="9.00">8</text>
</g>
<!-- 4&#45;&gt;8 -->
<g id="edge45" class="edge"><title>4&#45;&gt;8</title>
<path fill="none" stroke="green" d="M994.326,-1197.13C985.167,-1174.29 960.741,-1107.99 960.741,-1050.5 960.741,-1050.5 960.741,-1050.5 960.741,-748.938 960.741,-705.9 961.178,-655.746 961.475,-626.728"/>
<polygon fill="green" stroke="green" points="964.975,-626.736 961.58,-616.7 957.975,-626.663 964.975,-626.736"/>
</g>
<!-- 74 -->
<g id="node7" class="node"><title>74</title>
<ellipse fill="none" stroke="black" cx="964.741" cy="-1898.05" rx="18.2703" ry="18.2703"/>
<text text-anchor="middle" x="964.741" y="-1895.85" font-family="Times New Roman,serif" font-size="9.00">74</text>
</g>
<!-- 85&#45;&gt;74 -->
<g id="edge135" class="edge"><title>85&#45;&gt;74</title>
<path fill="none" stroke="red" d="M964.741,-1952.33C964.741,-1944.64 964.741,-1935.43 964.741,-1926.85"/>
<polygon fill="red" stroke="red" points="968.241,-1926.83 964.741,-1916.83 961.241,-1926.83 968.241,-1926.83"/>
</g>
<!-- 74&#45;&gt;101 -->
<g id="edge37" class="edge"><title>74&#45;&gt;101</title>
<path fill="none" stroke="green" d="M980.07,-1887.88C1000.28,-1875.78 1036.18,-1854.3 1060.94,-1839.49"/>
<polygon fill="green" stroke="green" points="1063.04,-1842.31 1069.82,-1834.17 1059.44,-1836.31 1063.04,-1842.31"/>
</g>
<!-- 64 -->
<g id="node11" class="node"><title>64</title>
<ellipse fill="none" stroke="black" cx="1218.74" cy="-1590" rx="18.2703" ry="18.2703"/>
<text text-anchor="middle" x="1218.74" y="-1587.8" font-family="Times New Roman,serif" font-size="9.00">64</text>
</g>
<!-- 74&#45;&gt;64 -->
<g id="edge39" class="edge"><title>74&#45;&gt;64</title>
<path fill="none" stroke="red" d="M983.15,-1895.33C1014.54,-1891.47 1078.8,-1879.46 1117.74,-1843.67 1184.63,-1782.18 1208.02,-1670.48 1215.52,-1618.71"/>
<polygon fill="red" stroke="red" points="1219.01,-1618.99 1216.89,-1608.61 1212.07,-1618.05 1219.01,-1618.99"/>
</g>
<!-- 74&#45;&gt;43 -->
<g id="edge115" class="edge"><title>74&#45;&gt;43</title>
<path fill="none" stroke="green" d="M946.472,-1895.02C837.856,-1882.47 281.741,-1811.14 281.741,-1666.6 281.741,-1666.6 281.741,-1666.6 281.741,-1437.81 281.741,-1364.32 287.39,-1277.81 290.591,-1234.68"/>
<polygon fill="green" stroke="green" points="294.083,-1234.92 291.348,-1224.69 287.103,-1234.39 294.083,-1234.92"/>
</g>
<!-- 74&#45;&gt;30 -->
<g id="edge38" class="edge"><title>74&#45;&gt;30</title>
<path fill="none" stroke="red" d="M946.112,-1896.12C812.935,-1889.2 10.7408,-1843.45 10.7408,-1745.03 10.7408,-1745.03 10.7408,-1745.03 10.7408,-1283.78 10.7408,-1093.75 -0.377011,-1002.11 142.741,-877.092 187.819,-837.715 260.242,-827.29 300.115,-824.591"/>
<polygon fill="red" stroke="red" points="300.426,-828.08 310.215,-824.027 300.036,-821.09 300.426,-828.08"/>
</g>
<!-- 143 -->
<g id="node9" class="node"><title>143</title>
<ellipse fill="none" stroke="black" cx="1101.74" cy="-1744.03" rx="21.4286" ry="21.4286"/>
<text text-anchor="middle" x="1101.74" y="-1741.83" font-family="Times New Roman,serif" font-size="9.00">143</text>
</g>
<!-- 101&#45;&gt;143 -->
<g id="edge87" class="edge"><title>101&#45;&gt;143</title>
<path fill="none" stroke="red" d="M1091.42,-1801.37C1092.9,-1793.3 1094.63,-1783.82 1096.26,-1774.96"/>
<polygon fill="red" stroke="red" points="1099.73,-1775.44 1098.09,-1764.97 1092.84,-1774.18 1099.73,-1775.44"/>
</g>
<!-- 122 -->
<g id="node10" class="node"><title>122</title>
<ellipse fill="none" stroke="black" cx="1150.74" cy="-1665.6" rx="21.4286" ry="21.4286"/>
<text text-anchor="middle" x="1150.74" y="-1663.4" font-family="Times New Roman,serif" font-size="9.00">122</text>
</g>
<!-- 101&#45;&gt;122 -->
<g id="edge60" class="edge"><title>101&#45;&gt;122</title>
<path fill="none" stroke="green" d="M1102.65,-1806.55C1112.42,-1795.92 1124.65,-1780.8 1131.74,-1765.24 1141.54,-1743.71 1146.29,-1717.31 1148.59,-1697.24"/>
<polygon fill="green" stroke="green" points="1152.09,-1697.39 1149.61,-1687.1 1145.13,-1696.7 1152.09,-1697.39"/>
</g>
<!-- 101&#45;&gt;46 -->
<g id="edge52" class="edge"><title>101&#45;&gt;46</title>
<path fill="none" stroke="green" d="M1080.49,-1802.21C1070.24,-1773.24 1052.74,-1716.49 1052.74,-1666.6 1052.74,-1666.6 1052.74,-1666.6 1052.74,-1362.21 1052.74,-1336.35 920.92,-1202.48 901.741,-1185.14 880.891,-1166.29 872.693,-1165.37 849.741,-1149.14 848.089,-1147.97 846.385,-1146.76 844.673,-1145.54"/>
<polygon fill="green" stroke="green" points="846.397,-1142.47 836.234,-1139.47 842.312,-1148.15 846.397,-1142.47"/>
</g>
<!-- 101&#45;&gt;11 -->
<g id="edge46" class="edge"><title>101&#45;&gt;11</title>
<path fill="none" stroke="green" d="M1107.43,-1814.06C1187.53,-1782.6 1484.74,-1651.57 1484.74,-1439.81 1484.74,-1439.81 1484.74,-1439.81 1484.74,-1205.35 1484.74,-1124.05 1378.36,-1077.01 1326.94,-1059.02"/>
<polygon fill="green" stroke="green" points="1327.74,-1055.59 1317.15,-1055.71 1325.5,-1062.23 1327.74,-1055.59"/>
</g>
<!-- 143&#45;&gt;122 -->
<g id="edge88" class="edge"><title>143&#45;&gt;122</title>
<path fill="none" stroke="green" d="M1112.86,-1725.68C1119.12,-1715.91 1127.07,-1703.51 1134.07,-1692.6"/>
<polygon fill="green" stroke="green" points="1137.21,-1694.18 1139.67,-1683.87 1131.32,-1690.4 1137.21,-1694.18"/>
</g>
<!-- 122&#45;&gt;64 -->
<g id="edge61" class="edge"><title>122&#45;&gt;64</title>
<path fill="none" stroke="green" d="M1164.83,-1649.35C1174.91,-1638.44 1188.61,-1623.62 1199.67,-1611.64"/>
<polygon fill="green" stroke="green" points="1202.28,-1613.98 1206.49,-1604.26 1197.14,-1609.23 1202.28,-1613.98"/>
</g>
<!-- 122&#45;&gt;19 -->
<g id="edge69" class="edge"><title>122&#45;&gt;19</title>
<path fill="none" stroke="red" d="M1150.74,-1644.33C1150.74,-1615.63 1150.74,-1561.51 1150.74,-1515.4 1150.74,-1515.4 1150.74,-1515.4 1150.74,-1283.78 1150.74,-1207.51 1174.7,-1119.82 1188.04,-1076.92"/>
<polygon fill="red" stroke="red" points="1191.42,-1077.84 1191.1,-1067.25 1184.74,-1075.73 1191.42,-1077.84"/>
</g>
<!-- 64&#45;&gt;5 -->
<g id="edge65" class="edge"><title>64&#45;&gt;5</title>
<path fill="none" stroke="green" d="M1237.3,-1588.57C1303.3,-1585.96 1522.74,-1567.68 1522.74,-1439.81 1522.74,-1439.81 1522.74,-1439.81 1522.74,-144.154 1522.74,-14.1102 1011.64,-9.32825 901.495,-9.80752"/>
<polygon fill="green" stroke="green" points="901.325,-6.30844 891.348,-9.87285 901.371,-13.3083 901.325,-6.30844"/>
</g>
<!-- 224 -->
<g id="node17" class="node"><title>224</title>
<ellipse fill="none" stroke="black" cx="659.741" cy="-1514.4" rx="21.4286" ry="21.4286"/>
<text text-anchor="middle" x="659.741" y="-1512.2" font-family="Times New Roman,serif" font-size="9.00">224</text>
</g>
<!-- 64&#45;&gt;224 -->
<g id="edge132" class="edge"><title>64&#45;&gt;224</title>
<path fill="none" stroke="green" d="M1200.23,-1588.23C1134.88,-1585.23 909.025,-1572.67 726.741,-1535.62 714.217,-1533.07 700.673,-1529.2 689.062,-1525.53"/>
<polygon fill="green" stroke="green" points="690.023,-1522.16 679.43,-1522.39 687.854,-1528.82 690.023,-1522.16"/>
</g>
<!-- 49 -->
<g id="node20" class="node"><title>49</title>
<ellipse fill="none" stroke="black" cx="1324.74" cy="-1514.4" rx="18.2703" ry="18.2703"/>
<text text-anchor="middle" x="1324.74" y="-1512.2" font-family="Times New Roman,serif" font-size="9.00">49</text>
</g>
<!-- 64&#45;&gt;49 -->
<g id="edge23" class="edge"><title>64&#45;&gt;49</title>
<path fill="none" stroke="red" d="M1233.48,-1578.77C1251.1,-1566.53 1280.8,-1545.91 1301.52,-1531.53"/>
<polygon fill="red" stroke="red" points="1303.57,-1534.37 1309.79,-1525.79 1299.58,-1528.62 1303.57,-1534.37"/>
</g>
<!-- 59 -->
<g id="node29" class="node"><title>59</title>
<ellipse fill="none" stroke="black" cx="1389.74" cy="-1284.78" rx="18.2703" ry="18.2703"/>
<text text-anchor="middle" x="1389.74" y="-1282.58" font-family="Times New Roman,serif" font-size="9.00">59</text>
</g>
<!-- 64&#45;&gt;59 -->
<g id="edge59" class="edge"><title>64&#45;&gt;59</title>
<path fill="none" stroke="red" d="M1236.95,-1587.12C1265.93,-1583.1 1322.26,-1570.96 1351.74,-1535.62 1405.54,-1471.11 1400.12,-1363.36 1393.97,-1313.12"/>
<polygon fill="red" stroke="red" points="1397.42,-1312.48 1392.63,-1303.03 1390.48,-1313.4 1397.42,-1312.48"/>
</g>
<!-- 12 -->
<g id="node62" class="node"><title>12</title>
<ellipse fill="none" stroke="black" cx="641.741" cy="-217.924" rx="18.2703" ry="18.2703"/>
<text text-anchor="middle" x="641.741" y="-215.724" font-family="Times New Roman,serif" font-size="9.00">12</text>
</g>
<!-- 64&#45;&gt;12 -->
<g id="edge110" class="edge"><title>64&#45;&gt;12</title>
<path fill="none" stroke="red" d="M1202.79,-1580.36C1168.48,-1560.47 1090.74,-1507.89 1090.74,-1439.81 1090.74,-1439.81 1090.74,-1439.81 1090.74,-1362.21 1090.74,-1305.76 1047.61,-1306.31 1010.74,-1263.57 996.565,-1247.13 988.555,-1246.39 977.741,-1227.57 936.684,-1156.12 922.741,-1132.91 922.741,-1050.5 922.741,-1050.5 922.741,-1050.5 922.741,-821.708 922.741,-650.86 842.741,-616.565 842.741,-445.718 842.741,-445.718 842.741,-445.718 842.741,-368.12 842.741,-282.791 724.502,-240.588 669.397,-225.552"/>
<polygon fill="red" stroke="red" points="670.139,-222.128 659.578,-222.979 668.364,-228.9 670.139,-222.128"/>
</g>
<!-- 200 -->
<g id="node13" class="node"><title>200</title>
<ellipse fill="none" stroke="black" cx="765.741" cy="-1363.21" rx="21.4286" ry="21.4286"/>
<text text-anchor="middle" x="765.741" y="-1361.01" font-family="Times New Roman,serif" font-size="9.00">200</text>
</g>
<!-- 57&#45;&gt;200 -->
<g id="edge124" class="edge"><title>57&#45;&gt;200</title>
<path fill="none" stroke="green" d="M751.147,-1420.74C753.202,-1412.78 755.709,-1403.07 758.061,-1393.96"/>
<polygon fill="green" stroke="green" points="761.507,-1394.61 760.618,-1384.05 754.729,-1392.86 761.507,-1394.61"/>
</g>
<!-- 57&#45;&gt;84 -->
<g id="edge131" class="edge"><title>57&#45;&gt;84</title>
<path fill="none" stroke="red" d="M728.375,-1436.82C690.335,-1434.02 601.342,-1423.46 539.741,-1384.42 523.77,-1374.3 492.909,-1334.21 473.937,-1308.36"/>
<polygon fill="red" stroke="red" points="476.714,-1306.22 467.998,-1300.2 471.055,-1310.34 476.714,-1306.22"/>
</g>
<!-- 191 -->
<g id="node14" class="node"><title>191</title>
<ellipse fill="none" stroke="black" cx="765.741" cy="-1284.78" rx="21.4286" ry="21.4286"/>
<text text-anchor="middle" x="765.741" y="-1282.58" font-family="Times New Roman,serif" font-size="9.00">191</text>
</g>
<!-- 200&#45;&gt;191 -->
<g id="edge125" class="edge"><title>200&#45;&gt;191</title>
<path fill="none" stroke="red" d="M765.741,-1341.73C765.741,-1333.87 765.741,-1324.72 765.741,-1316.13"/>
<polygon fill="red" stroke="red" points="769.241,-1316.05 765.741,-1306.05 762.241,-1316.05 769.241,-1316.05"/>
</g>
<!-- 184 -->
<g id="node16" class="node"><title>184</title>
<ellipse fill="none" stroke="black" cx="871.741" cy="-1206.35" rx="21.4286" ry="21.4286"/>
<text text-anchor="middle" x="871.741" y="-1204.15" font-family="Times New Roman,serif" font-size="9.00">184</text>
</g>
<!-- 191&#45;&gt;184 -->
<g id="edge104" class="edge"><title>191&#45;&gt;184</title>
<path fill="none" stroke="red" d="M782.771,-1271.5C800.002,-1259.08 826.837,-1239.73 846.532,-1225.53"/>
<polygon fill="red" stroke="red" points="848.688,-1228.29 854.752,-1219.6 844.594,-1222.61 848.688,-1228.29"/>
</g>
<!-- 135 -->
<g id="node27" class="node"><title>135</title>
<ellipse fill="none" stroke="black" cx="591.741" cy="-1206.35" rx="21.4286" ry="21.4286"/>
<text text-anchor="middle" x="591.741" y="-1204.15" font-family="Times New Roman,serif" font-size="9.00">135</text>
</g>
<!-- 84&#45;&gt;135 -->
<g id="edge114" class="edge"><title>84&#45;&gt;135</title>
<path fill="none" stroke="red" d="M472.012,-1272.9C476.338,-1269.76 481.159,-1266.42 485.741,-1263.57 511.472,-1247.56 542.188,-1231.6 563.915,-1220.79"/>
<polygon fill="red" stroke="red" points="565.502,-1223.91 572.924,-1216.35 562.407,-1217.63 565.502,-1223.91"/>
</g>
<!-- 84&#45;&gt;43 -->
<g id="edge102" class="edge"><title>84&#45;&gt;43</title>
<path fill="none" stroke="red" d="M441.317,-1276.17C412.531,-1262.84 352.773,-1235.16 318.461,-1219.27"/>
<polygon fill="red" stroke="red" points="319.643,-1215.96 309.098,-1214.93 316.701,-1222.31 319.643,-1215.96"/>
</g>
<!-- 79 -->
<g id="node44" class="node"><title>79</title>
<ellipse fill="none" stroke="black" cx="458.741" cy="-1049.5" rx="18.2703" ry="18.2703"/>
<text text-anchor="middle" x="458.741" y="-1047.3" font-family="Times New Roman,serif" font-size="9.00">79</text>
</g>
<!-- 84&#45;&gt;79 -->
<g id="edge121" class="edge"><title>84&#45;&gt;79</title>
<path fill="none" stroke="green" d="M457.816,-1266.25C457.989,-1225.96 458.415,-1126.52 458.623,-1078.01"/>
<polygon fill="green" stroke="green" points="462.123,-1077.94 458.666,-1067.92 455.123,-1077.91 462.123,-1077.94"/>
</g>
<!-- 184&#45;&gt;46 -->
<g id="edge103" class="edge"><title>184&#45;&gt;46</title>
<path fill="none" stroke="green" d="M860.395,-1188.01C853.484,-1177.45 844.564,-1163.81 837.034,-1152.3"/>
<polygon fill="green" stroke="green" points="839.763,-1150.08 831.359,-1143.63 833.905,-1153.91 839.763,-1150.08"/>
</g>
<!-- 184&#45;&gt;47 -->
<g id="edge137" class="edge"><title>184&#45;&gt;47</title>
<path fill="none" stroke="red" d="M873.081,-1184.87C873.652,-1176.14 874.328,-1165.81 874.942,-1156.42"/>
<polygon fill="red" stroke="red" points="878.44,-1156.56 875.601,-1146.35 871.455,-1156.1 878.44,-1156.56"/>
</g>
<!-- 224&#45;&gt;35 -->
<g id="edge133" class="edge"><title>224&#45;&gt;35</title>
<path fill="none" stroke="green" d="M654.695,-1493.59C648.006,-1467.33 636.175,-1420.88 628.657,-1391.36"/>
<polygon fill="green" stroke="green" points="631.96,-1390.15 626.1,-1381.32 625.177,-1391.88 631.96,-1390.15"/>
</g>
<!-- 63 -->
<g id="node39" class="node"><title>63</title>
<ellipse fill="none" stroke="black" cx="246.741" cy="-1127.93" rx="18.2703" ry="18.2703"/>
<text text-anchor="middle" x="246.741" y="-1125.73" font-family="Times New Roman,serif" font-size="9.00">63</text>
</g>
<!-- 95&#45;&gt;63 -->
<g id="edge67" class="edge"><title>95&#45;&gt;63</title>
<path fill="none" stroke="green" d="M598.162,-1896.29C533.142,-1892.56 319.741,-1870.72 319.741,-1745.03 319.741,-1745.03 319.741,-1745.03 319.741,-1589 319.741,-1464.57 136.747,-1563.9 72.7408,-1457.19 3.34334,-1341.5 163.501,-1195.72 224.429,-1146.25"/>
<polygon fill="green" stroke="green" points="226.714,-1148.91 232.334,-1139.93 222.34,-1143.44 226.714,-1148.91"/>
</g>
<!-- 55 -->
<g id="node26" class="node"><title>55</title>
<ellipse fill="none" stroke="black" cx="246.741" cy="-1284.78" rx="18.2703" ry="18.2703"/>
<text text-anchor="middle" x="246.741" y="-1282.58" font-family="Times New Roman,serif" font-size="9.00">55</text>
</g>
<!-- 35&#45;&gt;55 -->
<g id="edge57" class="edge"><title>35&#45;&gt;55</title>
<path fill="none" stroke="red" d="M608.264,-1350.55C603.885,-1347.31 598.836,-1344.11 593.741,-1341.99 535.826,-1317.99 347.372,-1296.31 275.209,-1288.68"/>
<polygon fill="red" stroke="red" points="275.358,-1285.18 265.049,-1287.62 274.631,-1292.14 275.358,-1285.18"/>
</g>
<!-- 35&#45;&gt;135 -->
<g id="edge76" class="edge"><title>35&#45;&gt;135</title>
<path fill="none" stroke="green" d="M618.416,-1345.04C613.385,-1319.08 603.771,-1269.45 597.563,-1237.41"/>
<polygon fill="green" stroke="green" points="600.938,-1236.43 595.6,-1227.28 594.066,-1237.76 600.938,-1236.43"/>
</g>
<!-- 195 -->
<g id="node36" class="node"><title>195</title>
<ellipse fill="none" stroke="black" cx="515.741" cy="-1284.78" rx="21.4286" ry="21.4286"/>
<text text-anchor="middle" x="515.741" y="-1282.58" font-family="Times New Roman,serif" font-size="9.00">195</text>
</g>
<!-- 35&#45;&gt;195 -->
<g id="edge116" class="edge"><title>35&#45;&gt;195</title>
<path fill="none" stroke="red" d="M607.21,-1351.71C602.877,-1348.59 598.117,-1345.15 593.741,-1341.99 576.087,-1329.26 556.179,-1314.91 540.894,-1303.9"/>
<polygon fill="red" stroke="red" points="542.64,-1300.84 532.481,-1297.84 538.548,-1306.52 542.64,-1300.84"/>
</g>
<!-- 35&#45;&gt;29 -->
<g id="edge83" class="edge"><title>35&#45;&gt;29</title>
<path fill="none" stroke="green" d="M622.837,-1344.81C625.206,-1303.43 629.954,-1195.94 621.741,-1106.71 618.278,-1069.09 609.481,-1026.3 603.307,-999.252"/>
<polygon fill="green" stroke="green" points="606.681,-998.308 601.005,-989.362 599.863,-999.895 606.681,-998.308"/>
</g>
<!-- 38 -->
<g id="node54" class="node"><title>38</title>
<ellipse fill="none" stroke="black" cx="505.741" cy="-677.169" rx="18.2703" ry="18.2703"/>
<text text-anchor="middle" x="505.741" y="-674.969" font-family="Times New Roman,serif" font-size="9.00">38</text>
</g>
<!-- 35&#45;&gt;38 -->
<g id="edge16" class="edge"><title>35&#45;&gt;38</title>
<path fill="none" stroke="red" d="M611.765,-1347.39C583.472,-1303.87 504.741,-1171.89 504.741,-1050.5 504.741,-1050.5 504.741,-1050.5 504.741,-821.708 504.741,-781.49 505.138,-734.936 505.432,-706.017"/>
<polygon fill="red" stroke="red" points="508.933,-705.883 505.538,-695.847 501.934,-705.809 508.933,-705.883"/>
</g>
<!-- 35&#45;&gt;12 -->
<g id="edge24" class="edge"><title>35&#45;&gt;12</title>
<path fill="none" stroke="green" d="M628.029,-1345.73C632.003,-1334.65 636.906,-1319.64 639.741,-1305.99 676.948,-1126.9 680.741,-1079.39 680.741,-896.477 680.741,-896.477 680.741,-896.477 680.741,-368.12 680.741,-323.575 664.267,-273.91 652.733,-244.597"/>
<polygon fill="green" stroke="green" points="655.892,-243.074 648.894,-235.119 649.404,-245.702 655.892,-243.074"/>
</g>
<!-- 17 -->
<g id="node67" class="node"><title>17</title>
<ellipse fill="none" stroke="black" cx="880.741" cy="-72.3848" rx="18.2703" ry="18.2703"/>
<text text-anchor="middle" x="880.741" y="-70.1848" font-family="Times New Roman,serif" font-size="9.00">17</text>
</g>
<!-- 35&#45;&gt;17 -->
<g id="edge77" class="edge"><title>35&#45;&gt;17</title>
<path fill="none" stroke="green" d="M631.561,-1347.26C666.577,-1294.03 783.815,-1116.34 794.741,-1106.71 821.283,-1083.32 846.745,-1100.56 865.741,-1070.71 921.626,-982.905 880.741,-706.656 880.741,-602.571 880.741,-602.571 880.741,-602.571 880.741,-216.924 880.741,-176.707 880.741,-130.153 880.741,-101.233"/>
<polygon fill="green" stroke="green" points="884.241,-101.063 880.741,-91.063 877.241,-101.063 884.241,-101.063"/>
</g>
<!-- 82 -->
<g id="node25" class="node"><title>82</title>
<ellipse fill="none" stroke="black" cx="1324.74" cy="-1438.81" rx="18.2703" ry="18.2703"/>
<text text-anchor="middle" x="1324.74" y="-1436.61" font-family="Times New Roman,serif" font-size="9.00">82</text>
</g>
<!-- 49&#45;&gt;82 -->
<g id="edge91" class="edge"><title>49&#45;&gt;82</title>
<path fill="none" stroke="red" d="M1324.74,-1495.96C1324.74,-1487.5 1324.74,-1477.13 1324.74,-1467.61"/>
<polygon fill="red" stroke="red" points="1328.24,-1467.38 1324.74,-1457.38 1321.24,-1467.38 1328.24,-1467.38"/>
</g>
<!-- 56 -->
<g id="node28" class="node"><title>56</title>
<ellipse fill="none" stroke="black" cx="1347.74" cy="-1363.21" rx="18.2703" ry="18.2703"/>
<text text-anchor="middle" x="1347.74" y="-1361.01" font-family="Times New Roman,serif" font-size="9.00">56</text>
</g>
<!-- 49&#45;&gt;56 -->
<g id="edge93" class="edge"><title>49&#45;&gt;56</title>
<path fill="none" stroke="red" d="M1334.28,-1498.34C1340.62,-1487.4 1348.38,-1471.97 1351.74,-1457.19 1356.68,-1435.49 1355.15,-1410.23 1352.68,-1391.51"/>
<polygon fill="red" stroke="red" points="1356.13,-1390.97 1351.2,-1381.59 1349.21,-1392 1356.13,-1390.97"/>
</g>
<!-- 49&#45;&gt;54 -->
<g id="edge108" class="edge"><title>49&#45;&gt;54</title>
<path fill="none" stroke="red" d="M1315.21,-1498.34C1308.87,-1487.4 1301.11,-1471.97 1297.74,-1457.19 1294.11,-1441.26 1297.38,-1436.76 1297.74,-1420.42 1299.91,-1323.26 1306.13,-1208.01 1309.11,-1156.36"/>
<polygon fill="red" stroke="red" points="1312.61,-1156.52 1309.69,-1146.33 1305.62,-1156.11 1312.61,-1156.52"/>
</g>
<!-- 49&#45;&gt;11 -->
<g id="edge21" class="edge"><title>49&#45;&gt;11</title>
<path fill="none" stroke="red" d="M1336.73,-1500.43C1346.24,-1489.56 1359.29,-1473.29 1367.74,-1457.19 1424.93,-1348.18 1463.56,-1300.18 1419.74,-1185.14 1400.26,-1134.01 1351.46,-1089.95 1322.44,-1067.13"/>
<polygon fill="red" stroke="red" points="1324.54,-1064.32 1314.48,-1061.01 1320.27,-1069.87 1324.54,-1064.32"/>
</g>
<!-- 46&#45;&gt;29 -->
<g id="edge14" class="edge"><title>46&#45;&gt;29</title>
<path fill="none" stroke="green" d="M806.183,-1117.85C788.403,-1107.25 758.671,-1088.86 734.741,-1070.71 712.053,-1053.51 709.584,-1045.28 686.741,-1028.29 662.399,-1010.18 654.455,-1008.39 628.741,-992.288 626.097,-990.633 623.334,-988.897 620.586,-987.166"/>
<polygon fill="green" stroke="green" points="622.35,-984.141 612.026,-981.764 618.615,-990.061 622.35,-984.141"/>
</g>
<!-- 46&#45;&gt;19 -->
<g id="edge25" class="edge"><title>46&#45;&gt;19</title>
<path fill="none" stroke="red" d="M835.218,-1115.27C839.596,-1112.03 844.645,-1108.83 849.741,-1106.71 961.161,-1060.53 1107.36,-1052.15 1168.23,-1050.73"/>
<polygon fill="red" stroke="red" points="1168.31,-1054.23 1178.24,-1050.55 1168.18,-1047.23 1168.31,-1054.23"/>
</g>
<!-- 46&#45;&gt;38 -->
<g id="edge64" class="edge"><title>46&#45;&gt;38</title>
<path fill="none" stroke="green" d="M811.585,-1112.51C765.81,-1047.5 578.465,-781.446 521.953,-701.192"/>
<polygon fill="green" stroke="green" points="524.637,-698.924 516.018,-692.763 518.914,-702.955 524.637,-698.924"/>
</g>
<!-- 113 -->
<g id="node37" class="node"><title>113</title>
<ellipse fill="none" stroke="black" cx="835.741" cy="-1049.5" rx="21.4286" ry="21.4286"/>
<text text-anchor="middle" x="835.741" y="-1047.3" font-family="Times New Roman,serif" font-size="9.00">113</text>
</g>
<!-- 47&#45;&gt;113 -->
<g id="edge129" class="edge"><title>47&#45;&gt;113</title>
<path fill="none" stroke="red" d="M868.444,-1111.46C863.252,-1101.78 856.419,-1089.05 850.341,-1077.72"/>
<polygon fill="red" stroke="red" points="853.279,-1075.79 845.467,-1068.63 847.11,-1079.1 853.279,-1075.79"/>
</g>
<!-- 47&#45;&gt;11 -->
<g id="edge32" class="edge"><title>47&#45;&gt;11</title>
<path fill="none" stroke="red" d="M894.921,-1124.63C946.656,-1117.96 1099,-1097.34 1223.74,-1070.71 1240.07,-1067.23 1258.15,-1062.46 1272.57,-1058.43"/>
<polygon fill="red" stroke="red" points="1273.69,-1061.75 1282.35,-1055.65 1271.78,-1055.02 1273.69,-1061.75"/>
</g>
<!-- 69&#45;&gt;54 -->
<g id="edge74" class="edge"><title>69&#45;&gt;54</title>
<path fill="none" stroke="green" d="M1022.9,-1430.02C1058.75,-1412.14 1146.19,-1365.11 1202.74,-1305.99 1247.33,-1259.38 1282.41,-1191.29 1299.44,-1154.61"/>
<polygon fill="green" stroke="green" points="1302.8,-1155.69 1303.76,-1145.14 1296.43,-1152.79 1302.8,-1155.69"/>
</g>
<!-- 69&#45;&gt;94 -->
<g id="edge35" class="edge"><title>69&#45;&gt;94</title>
<path fill="none" stroke="red" d="M988.011,-1436.6C917.479,-1431.89 668.17,-1413.5 594.741,-1384.42 592.657,-1383.6 590.586,-1382.58 588.566,-1381.45"/>
<polygon fill="red" stroke="red" points="590.463,-1378.51 580.177,-1375.96 586.632,-1384.37 590.463,-1378.51"/>
</g>
<!-- 83&#45;&gt;36 -->
<g id="edge43" class="edge"><title>83&#45;&gt;36</title>
<path fill="none" stroke="green" d="M333.135,-1345.43C346.027,-1305.33 378.709,-1203.68 394.263,-1155.3"/>
<polygon fill="green" stroke="green" points="397.667,-1156.14 397.396,-1145.55 391.003,-1154 397.667,-1156.14"/>
</g>
<!-- 82&#45;&gt;56 -->
<g id="edge109" class="edge"><title>82&#45;&gt;56</title>
<path fill="none" stroke="red" d="M1329.96,-1421.1C1332.76,-1412.13 1336.28,-1400.87 1339.45,-1390.73"/>
<polygon fill="red" stroke="red" points="1342.82,-1391.69 1342.46,-1381.1 1336.14,-1389.6 1342.82,-1391.69"/>
</g>
<!-- 82&#45;&gt;94 -->
<g id="edge123" class="edge"><title>82&#45;&gt;94</title>
<path fill="none" stroke="green" d="M1306.2,-1436.74C1195.86,-1430.34 629.22,-1396.97 594.741,-1384.42 592.635,-1383.65 590.548,-1382.68 588.518,-1381.58"/>
<polygon fill="green" stroke="green" points="590.408,-1378.63 580.11,-1376.14 586.608,-1384.51 590.408,-1378.63"/>
</g>
<!-- 55&#45;&gt;43 -->
<g id="edge58" class="edge"><title>55&#45;&gt;43</title>
<path fill="none" stroke="green" d="M255.829,-1268.68C262.255,-1258 271.003,-1243.47 278.369,-1231.23"/>
<polygon fill="green" stroke="green" points="281.513,-1232.8 283.672,-1222.42 275.516,-1229.19 281.513,-1232.8"/>
</g>
<!-- 55&#45;&gt;63 -->
<g id="edge95" class="edge"><title>55&#45;&gt;63</title>
<path fill="none" stroke="red" d="M246.741,-1266.32C246.741,-1239.71 246.741,-1188.77 246.741,-1156.95"/>
<polygon fill="red" stroke="red" points="250.241,-1156.56 246.741,-1146.56 243.241,-1156.56 250.241,-1156.56"/>
</g>
<!-- 144 -->
<g id="node30" class="node"><title>144</title>
<ellipse fill="none" stroke="black" cx="591.741" cy="-1127.93" rx="21.4286" ry="21.4286"/>
<text text-anchor="middle" x="591.741" y="-1125.73" font-family="Times New Roman,serif" font-size="9.00">144</text>
</g>
<!-- 135&#45;&gt;144 -->
<g id="edge96" class="edge"><title>135&#45;&gt;144</title>
<path fill="none" stroke="green" d="M591.741,-1184.87C591.741,-1177.01 591.741,-1167.87 591.741,-1159.28"/>
<polygon fill="green" stroke="green" points="595.241,-1159.2 591.741,-1149.2 588.241,-1159.2 595.241,-1159.2"/>
</g>
<!-- 44 -->
<g id="node35" class="node"><title>44</title>
<ellipse fill="none" stroke="black" cx="550.741" cy="-1049.5" rx="18.2703" ry="18.2703"/>
<text text-anchor="middle" x="550.741" y="-1047.3" font-family="Times New Roman,serif" font-size="9.00">44</text>
</g>
<!-- 135&#45;&gt;44 -->
<g id="edge113" class="edge"><title>135&#45;&gt;44</title>
<path fill="none" stroke="green" d="M580.187,-1187.89C573.669,-1177.16 565.999,-1162.88 561.741,-1149.14 554.517,-1125.84 551.919,-1098.15 551.04,-1078.05"/>
<polygon fill="green" stroke="green" points="554.537,-1077.89 550.715,-1068.01 547.54,-1078.12 554.537,-1077.89"/>
</g>
<!-- 53 -->
<g id="node45" class="node"><title>53</title>
<ellipse fill="none" stroke="black" cx="301.741" cy="-1127.93" rx="18.2703" ry="18.2703"/>
<text text-anchor="middle" x="301.741" y="-1125.73" font-family="Times New Roman,serif" font-size="9.00">53</text>
</g>
<!-- 135&#45;&gt;53 -->
<g id="edge78" class="edge"><title>135&#45;&gt;53</title>
<path fill="none" stroke="green" d="M571.583,-1199.07C558.092,-1194.94 539.911,-1189.51 523.741,-1185.14 458.386,-1167.49 441.288,-1166.06 375.741,-1149.14 360.327,-1145.16 343.174,-1140.49 329.267,-1136.64"/>
<polygon fill="green" stroke="green" points="329.919,-1133.19 319.347,-1133.89 328.044,-1139.94 329.919,-1133.19"/>
</g>
<!-- 56&#45;&gt;59 -->
<g id="edge111" class="edge"><title>56&#45;&gt;59</title>
<path fill="none" stroke="red" d="M1356.24,-1346.74C1361.99,-1336.28 1369.71,-1322.24 1376.28,-1310.27"/>
<polygon fill="red" stroke="red" points="1379.51,-1311.67 1381.25,-1301.22 1373.37,-1308.3 1379.51,-1311.67"/>
</g>
<!-- 56&#45;&gt;54 -->
<g id="edge94" class="edge"><title>56&#45;&gt;54</title>
<path fill="none" stroke="red" d="M1344.96,-1344.67C1338.57,-1304.38 1322.8,-1204.94 1315.1,-1156.43"/>
<polygon fill="red" stroke="red" points="1318.53,-1155.68 1313.5,-1146.35 1311.61,-1156.77 1318.53,-1155.68"/>
</g>
<!-- 129 -->
<g id="node31" class="node"><title>129</title>
<ellipse fill="none" stroke="black" cx="1389.74" cy="-1206.35" rx="21.4286" ry="21.4286"/>
<text text-anchor="middle" x="1389.74" y="-1204.15" font-family="Times New Roman,serif" font-size="9.00">129</text>
</g>
<!-- 59&#45;&gt;129 -->
<g id="edge70" class="edge"><title>59&#45;&gt;129</title>
<path fill="none" stroke="green" d="M1389.74,-1266.06C1389.74,-1257.64 1389.74,-1247.33 1389.74,-1237.72"/>
<polygon fill="green" stroke="green" points="1393.24,-1237.68 1389.74,-1227.68 1386.24,-1237.68 1393.24,-1237.68"/>
</g>
<!-- 144&#45;&gt;44 -->
<g id="edge97" class="edge"><title>144&#45;&gt;44</title>
<path fill="none" stroke="red" d="M582.024,-1108.82C576.64,-1098.78 569.867,-1086.15 564.002,-1075.22"/>
<polygon fill="red" stroke="red" points="566.951,-1073.31 559.139,-1066.16 560.782,-1076.62 566.951,-1073.31"/>
</g>
<!-- 129&#45;&gt;54 -->
<g id="edge71" class="edge"><title>129&#45;&gt;54</title>
<path fill="none" stroke="green" d="M1374.88,-1190.98C1362.48,-1178.98 1344.67,-1161.76 1330.97,-1148.5"/>
<polygon fill="green" stroke="green" points="1333.07,-1145.66 1323.45,-1141.22 1328.2,-1150.69 1333.07,-1145.66"/>
</g>
<!-- 43&#45;&gt;63 -->
<g id="edge22" class="edge"><title>43&#45;&gt;63</title>
<path fill="none" stroke="red" d="M283.653,-1190.26C277.226,-1179.58 268.479,-1165.04 261.113,-1152.81"/>
<polygon fill="red" stroke="red" points="263.966,-1150.76 255.81,-1144 257.968,-1154.37 263.966,-1150.76"/>
</g>
<!-- 43&#45;&gt;53 -->
<g id="edge40" class="edge"><title>43&#45;&gt;53</title>
<path fill="none" stroke="red" d="M294.783,-1188.01C295.888,-1178.63 297.277,-1166.83 298.524,-1156.25"/>
<polygon fill="red" stroke="red" points="302.013,-1156.54 299.707,-1146.2 295.061,-1155.72 302.013,-1156.54"/>
</g>
<!-- 54&#45;&gt;11 -->
<g id="edge17" class="edge"><title>54&#45;&gt;11</title>
<path fill="none" stroke="green" d="M1308.24,-1109.59C1306.89,-1100.2 1305.2,-1088.4 1303.67,-1077.82"/>
<polygon fill="green" stroke="green" points="1307.12,-1077.17 1302.23,-1067.78 1300.19,-1078.17 1307.12,-1077.17"/>
</g>
<!-- 132 -->
<g id="node47" class="node"><title>132</title>
<ellipse fill="none" stroke="black" cx="263.741" cy="-971.075" rx="21.4286" ry="21.4286"/>
<text text-anchor="middle" x="263.741" y="-968.875" font-family="Times New Roman,serif" font-size="9.00">132</text>
</g>
<!-- 94&#45;&gt;132 -->
<g id="edge126" class="edge"><title>94&#45;&gt;132</title>
<path fill="none" stroke="red" d="M548.125,-1360.44C479.534,-1353.75 243.661,-1329.21 219.741,-1305.99 187.706,-1274.9 200.741,-1252 200.741,-1207.35 200.741,-1207.35 200.741,-1207.35 200.741,-1126.93 200.741,-1078.27 227.762,-1026.93 246.411,-997.286"/>
<polygon fill="red" stroke="red" points="249.4,-999.109 251.891,-988.811 243.522,-995.309 249.4,-999.109"/>
</g>
<!-- 44&#45;&gt;29 -->
<g id="edge75" class="edge"><title>44&#45;&gt;29</title>
<path fill="none" stroke="green" d="M559.829,-1033.4C566.255,-1022.73 575.003,-1008.19 582.369,-995.953"/>
<polygon fill="green" stroke="green" points="585.513,-997.516 587.672,-987.143 579.516,-993.906 585.513,-997.516"/>
</g>
<!-- 199 -->
<g id="node38" class="node"><title>199</title>
<ellipse fill="none" stroke="black" cx="493.741" cy="-1206.35" rx="21.4286" ry="21.4286"/>
<text text-anchor="middle" x="493.741" y="-1204.15" font-family="Times New Roman,serif" font-size="9.00">199</text>
</g>
<!-- 195&#45;&gt;199 -->
<g id="edge117" class="edge"><title>195&#45;&gt;199</title>
<path fill="none" stroke="red" d="M510.075,-1264.1C507.689,-1255.81 504.86,-1245.98 502.233,-1236.86"/>
<polygon fill="red" stroke="red" points="505.517,-1235.61 499.387,-1226.97 498.79,-1237.55 505.517,-1235.61"/>
</g>
<!-- 113&#45;&gt;29 -->
<g id="edge130" class="edge"><title>113&#45;&gt;29</title>
<path fill="none" stroke="green" d="M815.775,-1042.12C773.026,-1028.45 672.591,-996.33 624.01,-980.795"/>
<polygon fill="green" stroke="green" points="624.787,-977.369 614.196,-977.657 622.655,-984.037 624.787,-977.369"/>
</g>
<!-- 199&#45;&gt;36 -->
<g id="edge118" class="edge"><title>199&#45;&gt;36</title>
<path fill="none" stroke="green" d="M477.89,-1192.04C463.06,-1179.59 440.786,-1160.88 424.335,-1147.06"/>
<polygon fill="green" stroke="green" points="426.242,-1144.1 416.334,-1140.34 421.74,-1149.46 426.242,-1144.1"/>
</g>
<!-- 48 -->
<g id="node48" class="node"><title>48</title>
<ellipse fill="none" stroke="black" cx="277.741" cy="-895.477" rx="18.2703" ry="18.2703"/>
<text text-anchor="middle" x="277.741" y="-893.277" font-family="Times New Roman,serif" font-size="9.00">48</text>
</g>
<!-- 29&#45;&gt;48 -->
<g id="edge29" class="edge"><title>29&#45;&gt;48</title>
<path fill="none" stroke="green" d="M578.676,-965.907C525.489,-953.637 369.204,-917.579 305.374,-902.853"/>
<polygon fill="green" stroke="green" points="306.138,-899.437 295.607,-900.599 304.565,-906.258 306.138,-899.437"/>
</g>
<!-- 29&#45;&gt;12 -->
<g id="edge20" class="edge"><title>29&#45;&gt;12</title>
<path fill="none" stroke="red" d="M601.22,-953.107C612.602,-908.446 641.741,-783.799 641.741,-678.169 641.741,-678.169 641.741,-678.169 641.741,-368.12 641.741,-325.673 641.741,-276.433 641.741,-246.49"/>
<polygon fill="red" stroke="red" points="645.241,-246.38 641.741,-236.38 638.241,-246.38 645.241,-246.38"/>
</g>
<!-- 36&#45;&gt;79 -->
<g id="edge28" class="edge"><title>36&#45;&gt;79</title>
<path fill="none" stroke="red" d="M413.274,-1112.55C421.409,-1101.45 432.818,-1085.88 442.173,-1073.11"/>
<polygon fill="red" stroke="red" points="445.168,-1074.95 448.255,-1064.81 439.521,-1070.81 445.168,-1074.95"/>
</g>
<!-- 36&#45;&gt;30 -->
<g id="edge34" class="edge"><title>36&#45;&gt;30</title>
<path fill="none" stroke="green" d="M399.17,-1109.87C390.595,-1069.32 367.834,-964.023 344.741,-877.092 342.41,-868.317 339.637,-858.802 337.061,-850.268"/>
<polygon fill="green" stroke="green" points="340.333,-848.998 334.058,-840.461 333.639,-851.048 340.333,-848.998"/>
</g>
<!-- 58 -->
<g id="node52" class="node"><title>58</title>
<ellipse fill="none" stroke="black" cx="812.741" cy="-971.075" rx="18.2703" ry="18.2703"/>
<text text-anchor="middle" x="812.741" y="-968.875" font-family="Times New Roman,serif" font-size="9.00">58</text>
</g>
<!-- 36&#45;&gt;58 -->
<g id="edge72" class="edge"><title>36&#45;&gt;58</title>
<path fill="none" stroke="green" d="M420.299,-1121.84C452.02,-1112.52 520.872,-1091.74 577.741,-1070.71 654.938,-1042.18 744.021,-1003.03 786.96,-983.763"/>
<polygon fill="green" stroke="green" points="788.445,-986.933 796.127,-979.636 785.572,-980.55 788.445,-986.933"/>
</g>
<!-- 36&#45;&gt;12 -->
<g id="edge19" class="edge"><title>36&#45;&gt;12</title>
<path fill="none" stroke="red" d="M404.622,-1109.3C407.518,-1080.59 412.741,-1021.91 412.741,-972.075 412.741,-972.075 412.741,-972.075 412.741,-368.12 412.741,-273.447 551.842,-235.72 613.22,-223.681"/>
<polygon fill="red" stroke="red" points="614.2,-227.059 623.388,-221.784 612.915,-220.178 614.2,-227.059"/>
</g>
<!-- 26 -->
<g id="node51" class="node"><title>26</title>
<ellipse fill="none" stroke="black" cx="1299.74" cy="-971.075" rx="18.2703" ry="18.2703"/>
<text text-anchor="middle" x="1299.74" y="-968.875" font-family="Times New Roman,serif" font-size="9.00">26</text>
</g>
<!-- 11&#45;&gt;26 -->
<g id="edge50" class="edge"><title>11&#45;&gt;26</title>
<path fill="none" stroke="red" d="M1299.74,-1030.78C1299.74,-1021.61 1299.74,-1010.22 1299.74,-999.911"/>
<polygon fill="red" stroke="red" points="1303.24,-999.705 1299.74,-989.705 1296.24,-999.705 1303.24,-999.705"/>
</g>
<!-- 11&#45;&gt;7 -->
<g id="edge55" class="edge"><title>11&#45;&gt;7</title>
<path fill="none" stroke="red" d="M1291.9,-1032.29C1286.49,-1021.07 1279.15,-1005.79 1272.74,-992.288 1248.5,-941.204 1244.61,-927.373 1218.74,-877.092 1213.2,-866.315 1206.64,-854.55 1201.07,-844.814"/>
<polygon fill="red" stroke="red" points="1203.94,-842.779 1195.91,-835.866 1197.88,-846.277 1203.94,-842.779"/>
</g>
<!-- 19&#45;&gt;7 -->
<g id="edge15" class="edge"><title>19&#45;&gt;7</title>
<path fill="none" stroke="green" d="M1214.97,-1045.45C1242.87,-1039.84 1296.16,-1025.3 1326.74,-992.288 1362.47,-953.709 1384.68,-919.616 1353.74,-877.092 1321.5,-832.774 1251.68,-824.49 1214.03,-823.403"/>
<polygon fill="green" stroke="green" points="1213.93,-819.901 1203.89,-823.264 1213.84,-826.901 1213.93,-819.901"/>
</g>
<!-- 40 -->
<g id="node64" class="node"><title>40</title>
<ellipse fill="none" stroke="black" cx="1112.74" cy="-749.938" rx="18.2703" ry="18.2703"/>
<text text-anchor="middle" x="1112.74" y="-747.738" font-family="Times New Roman,serif" font-size="9.00">40</text>
</g>
<!-- 19&#45;&gt;40 -->
<g id="edge51" class="edge"><title>19&#45;&gt;40</title>
<path fill="none" stroke="green" d="M1191.98,-1031.65C1178.07,-982.359 1137.36,-838.135 1120.35,-777.88"/>
<polygon fill="green" stroke="green" points="1123.63,-776.646 1117.55,-767.973 1116.9,-778.548 1123.63,-776.646"/>
</g>
<!-- 169 -->
<g id="node46" class="node"><title>169</title>
<ellipse fill="none" stroke="black" cx="287.741" cy="-1049.5" rx="21.4286" ry="21.4286"/>
<text text-anchor="middle" x="287.741" y="-1047.3" font-family="Times New Roman,serif" font-size="9.00">169</text>
</g>
<!-- 53&#45;&gt;169 -->
<g id="edge119" class="edge"><title>53&#45;&gt;169</title>
<path fill="none" stroke="green" d="M298.564,-1109.59C296.983,-1100.96 295.027,-1090.28 293.215,-1080.38"/>
<polygon fill="green" stroke="green" points="296.644,-1079.68 291.4,-1070.48 289.759,-1080.94 296.644,-1079.68"/>
</g>
<!-- 53&#45;&gt;132 -->
<g id="edge79" class="edge"><title>53&#45;&gt;132</title>
<path fill="none" stroke="green" d="M288.474,-1115.04C277.866,-1104.57 263.801,-1088.29 257.741,-1070.71 250.025,-1048.34 252.367,-1021.44 256.168,-1001.38"/>
<polygon fill="green" stroke="green" points="259.596,-1002.09 258.243,-991.579 252.748,-1000.64 259.596,-1002.09"/>
</g>
<!-- 53&#45;&gt;48 -->
<g id="edge84" class="edge"><title>53&#45;&gt;48</title>
<path fill="none" stroke="green" d="M287.681,-1116.03C275.411,-1105.71 258.141,-1089.11 248.741,-1070.71 232.59,-1039.11 237.089,-1027.62 233.741,-992.288 231.962,-973.516 227.37,-967.609 233.741,-949.862 238.433,-936.792 247.862,-924.638 256.793,-915.239"/>
<polygon fill="green" stroke="green" points="259.425,-917.558 264.062,-908.032 254.496,-912.587 259.425,-917.558"/>
</g>
<!-- 53&#45;&gt;30 -->
<g id="edge41" class="edge"><title>53&#45;&gt;30</title>
<path fill="none" stroke="red" d="M307.534,-1110.43C311.152,-1099.35 315.53,-1084.34 317.741,-1070.71 330.538,-991.87 330.543,-897.138 329.591,-851.274"/>
<polygon fill="red" stroke="red" points="333.089,-851.133 329.35,-841.219 326.091,-851.301 333.089,-851.133"/>
</g>
<!-- 169&#45;&gt;132 -->
<g id="edge120" class="edge"><title>169&#45;&gt;132</title>
<path fill="none" stroke="red" d="M281.56,-1028.82C278.908,-1020.38 275.756,-1010.34 272.846,-1001.07"/>
<polygon fill="red" stroke="red" points="276.153,-999.918 269.817,-991.426 269.474,-1002.01 276.153,-999.918"/>
</g>
<!-- 132&#45;&gt;48 -->
<g id="edge80" class="edge"><title>132&#45;&gt;48</title>
<path fill="none" stroke="red" d="M267.566,-949.964C269.086,-941.976 270.859,-932.657 272.495,-924.056"/>
<polygon fill="red" stroke="red" points="275.966,-924.537 274.396,-914.059 269.089,-923.229 275.966,-924.537"/>
</g>
<!-- 48&#45;&gt;30 -->
<g id="edge30" class="edge"><title>48&#45;&gt;30</title>
<path fill="none" stroke="green" d="M288.061,-880.156C295.043,-870.468 304.412,-857.467 312.399,-846.385"/>
<polygon fill="green" stroke="green" points="315.428,-848.167 318.435,-838.008 309.749,-844.074 315.428,-848.167"/>
</g>
<!-- 81 -->
<g id="node53" class="node"><title>81</title>
<ellipse fill="none" stroke="black" cx="366.741" cy="-749.938" rx="18.2703" ry="18.2703"/>
<text text-anchor="middle" x="366.741" y="-747.738" font-family="Times New Roman,serif" font-size="9.00">81</text>
</g>
<!-- 30&#45;&gt;81 -->
<g id="edge127" class="edge"><title>30&#45;&gt;81</title>
<path fill="none" stroke="green" d="M337.174,-806.002C341.996,-797.023 348.148,-785.565 353.591,-775.429"/>
<polygon fill="green" stroke="green" points="356.684,-777.066 358.331,-766.6 350.517,-773.755 356.684,-777.066"/>
</g>
<!-- 30&#45;&gt;12 -->
<g id="edge8" class="edge"><title>30&#45;&gt;12</title>
<path fill="none" stroke="red" d="M327.122,-804.047C324.784,-776.979 320.741,-723.593 320.741,-678.169 320.741,-678.169 320.741,-678.169 320.741,-368.12 320.741,-239.874 534.048,-221.571 612.898,-219.187"/>
<polygon fill="red" stroke="red" points="613.18,-222.681 623.095,-218.946 613.015,-215.683 613.18,-222.681"/>
</g>
<!-- 30&#45;&gt;40 -->
<g id="edge136" class="edge"><title>30&#45;&gt;40</title>
<path fill="none" stroke="green" d="M346.966,-820.063C449.842,-810.776 957.782,-764.926 1084.21,-753.514"/>
<polygon fill="green" stroke="green" points="1084.62,-756.99 1094.27,-752.606 1084,-750.019 1084.62,-756.99"/>
</g>
<!-- 13 -->
<g id="node66" class="node"><title>13</title>
<ellipse fill="none" stroke="black" cx="1085.74" cy="-677.169" rx="18.2703" ry="18.2703"/>
<text text-anchor="middle" x="1085.74" y="-674.969" font-family="Times New Roman,serif" font-size="9.00">13</text>
</g>
<!-- 50&#45;&gt;13 -->
<g id="edge27" class="edge"><title>50&#45;&gt;13</title>
<path fill="none" stroke="green" d="M1048.03,-877.141C1055.15,-839.553 1072.07,-750.313 1080.61,-705.229"/>
<polygon fill="green" stroke="green" points="1084.07,-705.764 1082.5,-695.287 1077.19,-704.46 1084.07,-705.764"/>
</g>
<!-- 27 -->
<g id="node55" class="node"><title>27</title>
<ellipse fill="none" stroke="black" cx="1326.74" cy="-895.477" rx="18.2703" ry="18.2703"/>
<text text-anchor="middle" x="1326.74" y="-893.277" font-family="Times New Roman,serif" font-size="9.00">27</text>
</g>
<!-- 26&#45;&gt;27 -->
<g id="edge81" class="edge"><title>26&#45;&gt;27</title>
<path fill="none" stroke="red" d="M1305.87,-953.375C1309.24,-944.183 1313.5,-932.577 1317.29,-922.249"/>
<polygon fill="red" stroke="red" points="1320.57,-923.452 1320.73,-912.858 1314,-921.041 1320.57,-923.452"/>
</g>
<!-- 26&#45;&gt;7 -->
<g id="edge86" class="edge"><title>26&#45;&gt;7</title>
<path fill="none" stroke="red" d="M1294.68,-953.326C1288.15,-933.638 1275.39,-900.667 1256.74,-877.092 1243.63,-860.52 1224.38,-846.03 1209.7,-836.344"/>
<polygon fill="red" stroke="red" points="1211.56,-833.381 1201.25,-830.959 1207.8,-839.284 1211.56,-833.381"/>
</g>
<!-- 58&#45;&gt;7 -->
<g id="edge73" class="edge"><title>58&#45;&gt;7</title>
<path fill="none" stroke="red" d="M828.925,-961.905C863.185,-944.796 945.803,-904.517 1017.74,-877.092 1069.14,-857.499 1131.13,-839.499 1164.55,-830.242"/>
<polygon fill="red" stroke="red" points="1165.63,-833.575 1174.35,-827.552 1163.78,-826.824 1165.63,-833.575"/>
</g>
<!-- 81&#45;&gt;38 -->
<g id="edge128" class="edge"><title>81&#45;&gt;38</title>
<path fill="none" stroke="green" d="M382.958,-740.681C406.917,-728.483 451.989,-705.535 480.353,-691.094"/>
<polygon fill="green" stroke="green" points="482.303,-694.029 489.627,-686.373 479.127,-687.791 482.303,-694.029"/>
</g>
<!-- 111 -->
<g id="node56" class="node"><title>111</title>
<ellipse fill="none" stroke="black" cx="554.741" cy="-601.571" rx="21.4286" ry="21.4286"/>
<text text-anchor="middle" x="554.741" y="-599.371" font-family="Times New Roman,serif" font-size="9.00">111</text>
</g>
<!-- 38&#45;&gt;111 -->
<g id="edge47" class="edge"><title>38&#45;&gt;111</title>
<path fill="none" stroke="red" d="M515.657,-661.275C521.967,-651.796 530.308,-639.268 537.663,-628.221"/>
<polygon fill="red" stroke="red" points="540.664,-630.029 543.293,-619.765 534.838,-626.149 540.664,-630.029"/>
</g>
<!-- 38&#45;&gt;12 -->
<g id="edge12" class="edge"><title>38&#45;&gt;12</title>
<path fill="none" stroke="green" d="M505.741,-658.381C505.741,-629.997 505.741,-572.708 505.741,-524.144 505.741,-524.144 505.741,-524.144 505.741,-368.12 505.741,-303.176 576.992,-254.082 616.35,-231.917"/>
<polygon fill="green" stroke="green" points="618.502,-234.73 625.606,-226.869 615.151,-228.585 618.502,-234.73"/>
</g>
<!-- 27&#45;&gt;7 -->
<g id="edge82" class="edge"><title>27&#45;&gt;7</title>
<path fill="none" stroke="red" d="M1310.84,-885.713C1305.72,-882.924 1300.01,-879.848 1294.74,-877.092 1265.93,-862.015 1232.35,-845.237 1210.84,-834.587"/>
<polygon fill="red" stroke="red" points="1212.38,-831.444 1201.86,-830.152 1209.28,-837.72 1212.38,-831.444"/>
</g>
<!-- 134 -->
<g id="node57" class="node"><title>134</title>
<ellipse fill="none" stroke="black" cx="554.741" cy="-523.144" rx="21.4286" ry="21.4286"/>
<text text-anchor="middle" x="554.741" y="-520.944" font-family="Times New Roman,serif" font-size="9.00">134</text>
</g>
<!-- 111&#45;&gt;134 -->
<g id="edge98" class="edge"><title>111&#45;&gt;134</title>
<path fill="none" stroke="red" d="M554.741,-580.09C554.741,-572.231 554.741,-563.087 554.741,-554.497"/>
<polygon fill="red" stroke="red" points="558.241,-554.417 554.741,-544.417 551.241,-554.417 558.241,-554.417"/>
</g>
<!-- 126 -->
<g id="node58" class="node"><title>126</title>
<ellipse fill="none" stroke="black" cx="592.741" cy="-444.718" rx="21.4286" ry="21.4286"/>
<text text-anchor="middle" x="592.741" y="-442.518" font-family="Times New Roman,serif" font-size="9.00">126</text>
</g>
<!-- 111&#45;&gt;126 -->
<g id="edge112" class="edge"><title>111&#45;&gt;126</title>
<path fill="none" stroke="red" d="M566.143,-583.643C572.78,-572.876 580.627,-558.368 584.741,-544.357 591.234,-522.241 593.119,-496.216 593.442,-476.452"/>
<polygon fill="red" stroke="red" points="596.943,-476.194 593.48,-466.181 589.943,-476.168 596.943,-476.194"/>
</g>
<!-- 134&#45;&gt;126 -->
<g id="edge99" class="edge"><title>134&#45;&gt;126</title>
<path fill="none" stroke="red" d="M563.939,-503.644C568.467,-494.538 574.017,-483.375 579.033,-473.288"/>
<polygon fill="red" stroke="red" points="582.309,-474.561 583.627,-464.048 576.041,-471.444 582.309,-474.561"/>
</g>
<!-- 52 -->
<g id="node59" class="node"><title>52</title>
<ellipse fill="none" stroke="black" cx="592.741" cy="-369.12" rx="18.2703" ry="18.2703"/>
<text text-anchor="middle" x="592.741" y="-366.92" font-family="Times New Roman,serif" font-size="9.00">52</text>
</g>
<!-- 126&#45;&gt;52 -->
<g id="edge68" class="edge"><title>126&#45;&gt;52</title>
<path fill="none" stroke="green" d="M592.741,-423.217C592.741,-415.321 592.741,-406.172 592.741,-397.715"/>
<polygon fill="green" stroke="green" points="596.241,-397.521 592.741,-387.521 589.241,-397.521 596.241,-397.521"/>
</g>
<!-- 124 -->
<g id="node60" class="node"><title>124</title>
<ellipse fill="none" stroke="black" cx="592.741" cy="-293.522" rx="21.4286" ry="21.4286"/>
<text text-anchor="middle" x="592.741" y="-291.322" font-family="Times New Roman,serif" font-size="9.00">124</text>
</g>
<!-- 52&#45;&gt;124 -->
<g id="edge62" class="edge"><title>52&#45;&gt;124</title>
<path fill="none" stroke="red" d="M592.741,-350.678C592.741,-343.063 592.741,-333.901 592.741,-325.207"/>
<polygon fill="red" stroke="red" points="596.241,-324.971 592.741,-314.971 589.241,-324.971 596.241,-324.971"/>
</g>
<!-- 124&#45;&gt;12 -->
<g id="edge63" class="edge"><title>124&#45;&gt;12</title>
<path fill="none" stroke="red" d="M604.106,-275.452C610.643,-265.632 618.953,-253.151 626.1,-242.416"/>
<polygon fill="red" stroke="red" points="629.137,-244.17 631.766,-233.906 623.311,-240.29 629.137,-244.17"/>
</g>
<!-- 7&#45;&gt;40 -->
<g id="edge122" class="edge"><title>7&#45;&gt;40</title>
<path fill="none" stroke="red" d="M1178.17,-811.868C1166.61,-801.1 1147.79,-783.576 1133.3,-770.079"/>
<polygon fill="red" stroke="red" points="1135.47,-767.317 1125.76,-763.064 1130.7,-772.44 1135.47,-767.317"/>
</g>
<!-- 7&#45;&gt;13 -->
<g id="edge105" class="edge"><title>7&#45;&gt;13</title>
<path fill="none" stroke="red" d="M1183.17,-808.759C1175.04,-790.586 1158.79,-756.902 1139.74,-731.553 1130.27,-718.957 1117.87,-706.485 1107.35,-696.767"/>
<polygon fill="red" stroke="red" points="1109.51,-694.007 1099.74,-689.916 1104.83,-699.209 1109.51,-694.007"/>
</g>
<!-- 12&#45;&gt;5 -->
<g id="edge3" class="edge"><title>12&#45;&gt;5</title>
<path fill="none" stroke="green" d="M646.116,-200.037C655.575,-166.927 681.104,-93.2949 729.741,-54 768.331,-22.8224 828.203,-13.7366 859.711,-11.0889"/>
<polygon fill="green" stroke="green" points="860.212,-14.5626 869.944,-10.3757 859.725,-7.57952 860.212,-14.5626"/>
</g>
<!-- 91 -->
<g id="node65" class="node"><title>91</title>
<ellipse fill="none" stroke="black" cx="756.741" cy="-145.154" rx="18.2703" ry="18.2703"/>
<text text-anchor="middle" x="756.741" y="-142.954" font-family="Times New Roman,serif" font-size="9.00">91</text>
</g>
<!-- 12&#45;&gt;91 -->
<g id="edge89" class="edge"><title>12&#45;&gt;91</title>
<path fill="none" stroke="red" d="M657.25,-207.38C676.649,-195.442 710.067,-174.877 732.769,-160.906"/>
<polygon fill="red" stroke="red" points="734.795,-163.769 741.477,-155.547 731.126,-157.808 734.795,-163.769"/>
</g>
<!-- 8&#45;&gt;17 -->
<g id="edge48" class="edge"><title>8&#45;&gt;17</title>
<path fill="none" stroke="green" d="M958.642,-586.983C952.801,-560.141 940.741,-498.351 940.741,-445.718 940.741,-445.718 940.741,-445.718 940.741,-216.924 940.741,-171.303 914.621,-123.397 896.849,-96.0806"/>
<polygon fill="green" stroke="green" points="899.667,-93.9977 891.192,-87.6392 893.852,-97.8948 899.667,-93.9977"/>
</g>
<!-- 40&#45;&gt;13 -->
<g id="edge13" class="edge"><title>40&#45;&gt;13</title>
<path fill="none" stroke="red" d="M1106.48,-732.524C1103.24,-724.039 1099.22,-713.487 1095.57,-703.944"/>
<polygon fill="red" stroke="red" points="1098.8,-702.589 1091.97,-694.493 1092.26,-705.084 1098.8,-702.589"/>
</g>
<!-- 91&#45;&gt;17 -->
<g id="edge100" class="edge"><title>91&#45;&gt;17</title>
<path fill="none" stroke="green" d="M772.445,-135.191C793.595,-123.121 831.444,-101.519 856.325,-87.3195"/>
<polygon fill="green" stroke="green" points="858.213,-90.2716 865.164,-82.275 854.744,-84.192 858.213,-90.2716"/>
</g>
<!-- 22 -->
<g id="node68" class="node"><title>22</title>
<ellipse fill="none" stroke="black" cx="756.741" cy="-72.3848" rx="18.2703" ry="18.2703"/>
<text text-anchor="middle" x="756.741" y="-70.1848" font-family="Times New Roman,serif" font-size="9.00">22</text>
</g>
<!-- 91&#45;&gt;22 -->
<g id="edge90" class="edge"><title>91&#45;&gt;22</title>
<path fill="none" stroke="green" d="M756.741,-126.661C756.741,-118.978 756.741,-109.769 756.741,-101.185"/>
<polygon fill="green" stroke="green" points="760.241,-101.169 756.741,-91.1687 753.241,-101.169 760.241,-101.169"/>
</g>
<!-- 13&#45;&gt;5 -->
<g id="edge4" class="edge"><title>13&#45;&gt;5</title>
<path fill="none" stroke="red" d="M1081.79,-658.948C1075.71,-630.877 1064.74,-573.435 1064.74,-524.144 1064.74,-524.144 1064.74,-524.144 1064.74,-144.154 1064.74,-99.1714 1053.03,-83.1101 1018.74,-54 984.553,-24.9801 931.032,-15.0397 901.701,-11.6791"/>
<polygon fill="red" stroke="red" points="901.698,-8.16178 891.402,-10.6595 901.008,-15.1277 901.698,-8.16178"/>
</g>
<!-- 17&#45;&gt;5 -->
<g id="edge49" class="edge"><title>17&#45;&gt;5</title>
<path fill="none" stroke="red" d="M880.741,-53.9586C880.741,-45.9601 880.741,-36.4732 880.741,-28.3636"/>
<polygon fill="red" stroke="red" points="884.241,-28.1158 880.741,-18.1158 877.241,-28.1158 884.241,-28.1158"/>
</g>
</g>
</svg>
