<?xml version="1.0" encoding="UTF-8" standalone="no"?>
<!DOCTYPE svg PUBLIC "-//W3C//DTD SVG 1.1//EN"
 "http://www.w3.org/Graphics/SVG/1.1/DTD/svg11.dtd">
<!-- Generated by graphviz version 2.38.0 (20140413.2041)
 -->
<!-- Title: %3 Pages: 1 -->
<svg width="143pt" height="298pt"
 viewBox="0.00 0.00 143.26 298.31" xmlns="http://www.w3.org/2000/svg" xmlns:xlink="http://www.w3.org/1999/xlink">
<g id="graph0" class="graph" transform="scale(1 1) rotate(0) translate(4 294.309)">
<title>%3</title>
<polygon fill="white" stroke="none" points="-4,4 -4,-294.309 139.26,-294.309 139.26,4 -4,4"/>
<!-- 1 -->
<g id="node1" class="node"><title>1</title>
<polygon fill="lightgray" stroke="black" points="21,-226.924 0,-226.924 0,-208.924 21,-208.924 21,-226.924"/>
<text text-anchor="middle" x="10.5" y="-215.724" font-family="Times New Roman,serif" font-size="9.00">1</text>
</g>
<!-- 7 -->
<g id="node7" class="node"><title>7</title>
<ellipse fill="none" stroke="black" cx="39.5" cy="-145.154" rx="14.7" ry="14.7"/>
<text text-anchor="middle" x="39.5" y="-142.954" font-family="Times New Roman,serif" font-size="9.00">7</text>
</g>
<!-- 1&#45;&gt;7 -->
<g id="edge3" class="edge"><title>1&#45;&gt;7</title>
<path fill="none" stroke="red" d="M13.8267,-208.806C17.8253,-199.048 24.7003,-182.271 30.33,-168.532"/>
<polygon fill="red" stroke="red" points="33.5971,-169.79 34.1503,-159.209 27.1198,-167.135 33.5971,-169.79"/>
</g>
<!-- 2 -->
<g id="node2" class="node"><title>2</title>
<polygon fill="lightgray" stroke="black" points="115,-226.924 94,-226.924 94,-208.924 115,-208.924 115,-226.924"/>
<text text-anchor="middle" x="104.5" y="-215.724" font-family="Times New Roman,serif" font-size="9.00">2</text>
</g>
<!-- 2&#45;&gt;7 -->
<g id="edge4" class="edge"><title>2&#45;&gt;7</title>
<path fill="none" stroke="red" d="M97.0437,-208.806C87.1398,-198.023 69.363,-178.668 56.1798,-164.315"/>
<polygon fill="red" stroke="red" points="58.7497,-161.939 49.4075,-156.941 53.5942,-166.674 58.7497,-161.939"/>
</g>
<!-- 12 -->
<g id="node8" class="node"><title>12</title>
<ellipse fill="none" stroke="black" cx="104.5" cy="-145.154" rx="18.2703" ry="18.2703"/>
<text text-anchor="middle" x="104.5" y="-142.954" font-family="Times New Roman,serif" font-size="9.00">12</text>
</g>
<!-- 2&#45;&gt;12 -->
<g id="edge7" class="edge"><title>2&#45;&gt;12</title>
<path fill="none" stroke="red" d="M104.5,-208.806C104.5,-200.24 104.5,-186.264 104.5,-173.684"/>
<polygon fill="red" stroke="red" points="108,-173.594 104.5,-163.594 101,-173.594 108,-173.594"/>
</g>
<!-- 3 -->
<g id="node3" class="node"><title>3</title>
<polygon fill="lightgray" stroke="black" points="84,-81.3848 63,-81.3848 63,-63.3848 84,-63.3848 84,-81.3848"/>
<text text-anchor="middle" x="73.5" y="-70.1848" font-family="Times New Roman,serif" font-size="9.00">3</text>
</g>
<!-- 5 -->
<g id="node5" class="node"><title>5</title>
<polygon fill="lightblue" stroke="black" points="103,-18 82,-18 82,-0 103,-0 103,-18"/>
<text text-anchor="middle" x="92.5" y="-6.8" font-family="Times New Roman,serif" font-size="9.00">5</text>
</g>
<!-- 3&#45;&gt;5 -->
<g id="edge1" class="edge"><title>3&#45;&gt;5</title>
<path fill="none" stroke="green" d="M75.9839,-63.3598C78.7564,-54.4025 83.3302,-39.6255 86.9625,-27.8905"/>
<polygon fill="green" stroke="green" points="90.3414,-28.8107 89.9548,-18.2229 83.6544,-26.7408 90.3414,-28.8107"/>
</g>
<!-- 4 -->
<g id="node4" class="node"><title>4</title>
<polygon fill="lightgray" stroke="black" points="114,-290.309 93,-290.309 93,-272.309 114,-272.309 114,-290.309"/>
<text text-anchor="middle" x="103.5" y="-279.109" font-family="Times New Roman,serif" font-size="9.00">4</text>
</g>
<!-- 4&#45;&gt;5 -->
<g id="edge2" class="edge"><title>4&#45;&gt;5</title>
<path fill="none" stroke="green" d="M108.153,-272.17C112.847,-263.555 119.9,-249.417 123.5,-236.309 136.429,-189.238 137.716,-175.186 131.5,-126.77 127.243,-93.6155 123.679,-85.5015 112.5,-54 109.303,-44.9925 104.992,-35.2897 101.191,-27.2936"/>
<polygon fill="green" stroke="green" points="104.309,-25.7034 96.7705,-18.2589 98.0211,-28.7796 104.309,-25.7034"/>
</g>
<!-- 11 -->
<g id="node6" class="node"><title>11</title>
<ellipse fill="none" stroke="black" cx="57.5" cy="-217.924" rx="18.2703" ry="18.2703"/>
<text text-anchor="middle" x="57.5" y="-215.724" font-family="Times New Roman,serif" font-size="9.00">11</text>
</g>
<!-- 4&#45;&gt;11 -->
<g id="edge5" class="edge"><title>4&#45;&gt;11</title>
<path fill="none" stroke="red" d="M97.4863,-272.284C91.6446,-264.488 82.4997,-252.285 74.429,-241.515"/>
<polygon fill="red" stroke="red" points="77.0681,-239.2 68.2704,-233.297 71.4664,-243.398 77.0681,-239.2"/>
</g>
<!-- 11&#45;&gt;7 -->
<g id="edge6" class="edge"><title>11&#45;&gt;7</title>
<path fill="none" stroke="green" d="M53.1427,-199.793C50.8504,-190.78 48.0049,-179.592 45.5066,-169.77"/>
<polygon fill="green" stroke="green" points="48.8316,-168.644 42.9746,-159.815 42.0476,-170.369 48.8316,-168.644"/>
</g>
<!-- 13 -->
<g id="node9" class="node"><title>13</title>
<ellipse fill="none" stroke="black" cx="26.5" cy="-72.3848" rx="18.2703" ry="18.2703"/>
<text text-anchor="middle" x="26.5" y="-70.1848" font-family="Times New Roman,serif" font-size="9.00">13</text>
</g>
<!-- 7&#45;&gt;13 -->
<g id="edge9" class="edge"><title>7&#45;&gt;13</title>
<path fill="none" stroke="red" d="M36.9935,-130.509C35.4492,-122.103 33.414,-111.023 31.5473,-100.861"/>
<polygon fill="red" stroke="red" points="34.9398,-99.9566 29.6906,-90.7536 28.055,-101.221 34.9398,-99.9566"/>
</g>
<!-- 12&#45;&gt;5 -->
<g id="edge8" class="edge"><title>12&#45;&gt;5</title>
<path fill="none" stroke="red" d="M102.931,-126.616C100.661,-101.241 96.48,-54.4942 94.1601,-28.5593"/>
<polygon fill="red" stroke="red" points="97.6159,-27.9076 93.2388,-18.2592 90.6437,-28.5313 97.6159,-27.9076"/>
</g>
<!-- 13&#45;&gt;5 -->
<g id="edge10" class="edge"><title>13&#45;&gt;5</title>
<path fill="none" stroke="red" d="M39.5395,-59.2571C50.0595,-49.4728 64.9145,-35.6565 76.2156,-25.1456"/>
<polygon fill="red" stroke="red" points="78.7649,-27.5545 83.7037,-18.1812 73.9976,-22.4287 78.7649,-27.5545"/>
</g>
</g>
</svg>
