<?xml version="1.0" encoding="UTF-8" standalone="no"?>
<!DOCTYPE svg PUBLIC "-//W3C//DTD SVG 1.1//EN"
 "http://www.w3.org/Graphics/SVG/1.1/DTD/svg11.dtd">
<!-- Generated by graphviz version 2.38.0 (20140413.2041)
 -->
<!-- Title: %3 Pages: 1 -->
<svg width="1624pt" height="1978pt"
 viewBox="0.00 0.00 1624.00 1978.43" xmlns="http://www.w3.org/2000/svg" xmlns:xlink="http://www.w3.org/1999/xlink">
<g id="graph0" class="graph" transform="scale(1 1) rotate(0) translate(4 1974.43)">
<title>%3</title>
<polygon fill="white" stroke="none" points="-4,4 -4,-1974.43 1620,-1974.43 1620,4 -4,4"/>
<!-- 1 -->
<g id="node1" class="node"><title>1</title>
<polygon fill="lightgray" stroke="black" points="1072.5,-1970.43 1051.5,-1970.43 1051.5,-1952.43 1072.5,-1952.43 1072.5,-1970.43"/>
<text text-anchor="middle" x="1062" y="-1959.23" font-family="Times New Roman,serif" font-size="9.00">1</text>
</g>
<!-- 85 -->
<g id="node6" class="node"><title>85</title>
<ellipse fill="none" stroke="black" cx="1016" cy="-1898.05" rx="18.2703" ry="18.2703"/>
<text text-anchor="middle" x="1016" y="-1895.85" font-family="Times New Roman,serif" font-size="9.00">85</text>
</g>
<!-- 1&#45;&gt;85 -->
<g id="edge133" class="edge"><title>1&#45;&gt;85</title>
<path fill="none" stroke="green" d="M1055.99,-1952.41C1050.14,-1944.61 1041,-1932.41 1032.93,-1921.64"/>
<polygon fill="green" stroke="green" points="1035.57,-1919.33 1026.77,-1913.42 1029.97,-1923.52 1035.57,-1919.33"/>
</g>
<!-- 101 -->
<g id="node8" class="node"><title>101</title>
<ellipse fill="none" stroke="black" cx="1138" cy="-1749.68" rx="21.4286" ry="21.4286"/>
<text text-anchor="middle" x="1138" y="-1747.48" font-family="Times New Roman,serif" font-size="9.00">101</text>
</g>
<!-- 1&#45;&gt;101 -->
<g id="edge44" class="edge"><title>1&#45;&gt;101</title>
<path fill="none" stroke="green" d="M1064.98,-1952.21C1075.3,-1923.71 1109.89,-1828.28 1127.5,-1779.67"/>
<polygon fill="green" stroke="green" points="1130.87,-1780.64 1130.98,-1770.04 1124.29,-1778.25 1130.87,-1780.64"/>
</g>
<!-- 95 -->
<g id="node18" class="node"><title>95</title>
<ellipse fill="none" stroke="black" cx="242" cy="-1825.28" rx="18.2703" ry="18.2703"/>
<text text-anchor="middle" x="242" y="-1823.08" font-family="Times New Roman,serif" font-size="9.00">95</text>
</g>
<!-- 1&#45;&gt;95 -->
<g id="edge65" class="edge"><title>1&#45;&gt;95</title>
<path fill="none" stroke="green" d="M1051.33,-1958.69C966.699,-1944.84 403.621,-1852.72 270.275,-1830.91"/>
<polygon fill="green" stroke="green" points="270.502,-1827.4 260.069,-1829.24 269.372,-1834.31 270.502,-1827.4"/>
</g>
<!-- 69 -->
<g id="node23" class="node"><title>69</title>
<ellipse fill="none" stroke="black" cx="1024" cy="-1363.21" rx="18.2703" ry="18.2703"/>
<text text-anchor="middle" x="1024" y="-1361.01" font-family="Times New Roman,serif" font-size="9.00">69</text>
</g>
<!-- 1&#45;&gt;69 -->
<g id="edge33" class="edge"><title>1&#45;&gt;69</title>
<path fill="none" stroke="green" d="M1062,-1952.27C1062,-1931.33 1062,-1874.03 1062,-1826.28 1062,-1826.28 1062,-1826.28 1062,-1516.23 1062,-1470.72 1045.78,-1419.78 1034.53,-1389.93"/>
<polygon fill="green" stroke="green" points="1037.67,-1388.36 1030.79,-1380.3 1031.15,-1390.89 1037.67,-1388.36"/>
</g>
<!-- 19 -->
<g id="node43" class="node"><title>19</title>
<ellipse fill="none" stroke="black" cx="1234" cy="-1049.5" rx="18.2703" ry="18.2703"/>
<text text-anchor="middle" x="1234" y="-1047.3" font-family="Times New Roman,serif" font-size="9.00">19</text>
</g>
<!-- 1&#45;&gt;19 -->
<g id="edge55" class="edge"><title>1&#45;&gt;19</title>
<path fill="none" stroke="green" d="M1072.78,-1960.55C1125.64,-1960.5 1355,-1953 1355,-1826.28 1355,-1826.28 1355,-1826.28 1355,-1591.83 1355,-1409.66 1334.66,-1364.71 1304,-1185.14 1298,-1149.98 1303.62,-1138.27 1287,-1106.71 1279.36,-1092.2 1266.92,-1078.72 1256.01,-1068.6"/>
<polygon fill="green" stroke="green" points="1258.23,-1065.89 1248.43,-1061.86 1253.58,-1071.12 1258.23,-1065.89"/>
</g>
<!-- 2 -->
<g id="node2" class="node"><title>2</title>
<polygon fill="lightgray" stroke="black" points="644.5,-1450.63 623.5,-1450.63 623.5,-1432.63 644.5,-1432.63 644.5,-1450.63"/>
<text text-anchor="middle" x="634" y="-1439.43" font-family="Times New Roman,serif" font-size="9.00">2</text>
</g>
<!-- 5 -->
<g id="node5" class="node"><title>5</title>
<polygon fill="lightblue" stroke="black" points="920.5,-18 899.5,-18 899.5,-0 920.5,-0 920.5,-18"/>
<text text-anchor="middle" x="910" y="-6.8" font-family="Times New Roman,serif" font-size="9.00">5</text>
</g>
<!-- 2&#45;&gt;5 -->
<g id="edge7" class="edge"><title>2&#45;&gt;5</title>
<path fill="none" stroke="green" d="M628.269,-1432.58C624.693,-1428.22 619.693,-1423.16 614,-1420.42 479.497,-1355.61 423.425,-1425.91 280,-1384.42 203.924,-1362.42 178.554,-1359.32 120,-1305.99 55.0247,-1246.83 32,-1216.81 32,-1128.93 32,-1128.93 32,-1128.93 32,-144.154 32,-54.5357 756.044,-17.0524 889.118,-10.9201"/>
<polygon fill="green" stroke="green" points="889.384,-14.4118 899.216,-10.4633 889.068,-7.41891 889.384,-14.4118"/>
</g>
<!-- 84 -->
<g id="node15" class="node"><title>84</title>
<ellipse fill="none" stroke="black" cx="236" cy="-1284.78" rx="18.2703" ry="18.2703"/>
<text text-anchor="middle" x="236" y="-1282.58" font-family="Times New Roman,serif" font-size="9.00">84</text>
</g>
<!-- 2&#45;&gt;84 -->
<g id="edge100" class="edge"><title>2&#45;&gt;84</title>
<path fill="none" stroke="red" d="M627.89,-1432.25C624.328,-1428.01 619.465,-1423.18 614,-1420.42 514.57,-1370.23 467.052,-1431.25 366,-1384.42 340.167,-1372.45 340.451,-1359.5 318,-1341.99 299.052,-1327.22 276.462,-1311.89 259.795,-1300.98"/>
<polygon fill="red" stroke="red" points="261.499,-1297.91 251.205,-1295.4 257.688,-1303.78 261.499,-1297.91"/>
</g>
<!-- 35 -->
<g id="node19" class="node"><title>35</title>
<ellipse fill="none" stroke="black" cx="533" cy="-1363.21" rx="18.2703" ry="18.2703"/>
<text text-anchor="middle" x="533" y="-1361.01" font-family="Times New Roman,serif" font-size="9.00">35</text>
</g>
<!-- 2&#45;&gt;35 -->
<g id="edge9" class="edge"><title>2&#45;&gt;35</title>
<path fill="none" stroke="red" d="M626.532,-1432.41C622.902,-1428.6 618.385,-1424.1 614,-1420.42 595.754,-1405.09 573.398,-1389.81 556.798,-1379.06"/>
<polygon fill="red" stroke="red" points="558.541,-1376.02 548.231,-1373.58 554.77,-1381.92 558.541,-1376.02"/>
</g>
<!-- 43 -->
<g id="node32" class="node"><title>43</title>
<ellipse fill="none" stroke="black" cx="252" cy="-1206.35" rx="18.2703" ry="18.2703"/>
<text text-anchor="middle" x="252" y="-1204.15" font-family="Times New Roman,serif" font-size="9.00">43</text>
</g>
<!-- 2&#45;&gt;43 -->
<g id="edge105" class="edge"><title>2&#45;&gt;43</title>
<path fill="none" stroke="green" d="M627.678,-1432.63C624.054,-1428.5 619.199,-1423.65 614,-1420.42 571.031,-1393.71 553.568,-1401.66 506,-1384.42 416.236,-1351.88 377.667,-1369.08 306,-1305.99 283.888,-1286.53 269.082,-1255.74 260.652,-1233.74"/>
<polygon fill="green" stroke="green" points="263.933,-1232.52 257.223,-1224.32 257.355,-1234.92 263.933,-1232.52"/>
</g>
<!-- 54 -->
<g id="node33" class="node"><title>54</title>
<ellipse fill="none" stroke="black" cx="1450" cy="-1049.5" rx="18.2703" ry="18.2703"/>
<text text-anchor="middle" x="1450" y="-1047.3" font-family="Times New Roman,serif" font-size="9.00">54</text>
</g>
<!-- 2&#45;&gt;54 -->
<g id="edge36" class="edge"><title>2&#45;&gt;54</title>
<path fill="none" stroke="red" d="M644.759,-1439.99C702.372,-1436.44 974.638,-1418.1 1051,-1384.42 1223.86,-1308.17 1380.61,-1133.61 1432.18,-1072.29"/>
<polygon fill="red" stroke="red" points="1435.03,-1074.33 1438.75,-1064.41 1429.66,-1069.85 1435.03,-1074.33"/>
</g>
<!-- 94 -->
<g id="node34" class="node"><title>94</title>
<ellipse fill="none" stroke="black" cx="977" cy="-1284.78" rx="18.2703" ry="18.2703"/>
<text text-anchor="middle" x="977" y="-1282.58" font-family="Times New Roman,serif" font-size="9.00">94</text>
</g>
<!-- 2&#45;&gt;94 -->
<g id="edge84" class="edge"><title>2&#45;&gt;94</title>
<path fill="none" stroke="red" d="M644.691,-1439.55C677.646,-1435.9 779.962,-1422.02 855,-1384.42 895.517,-1364.12 934.902,-1328.54 957.511,-1306.12"/>
<polygon fill="red" stroke="red" points="960.228,-1308.35 964.783,-1298.78 955.257,-1303.42 960.228,-1308.35"/>
</g>
<!-- 30 -->
<g id="node49" class="node"><title>30</title>
<ellipse fill="none" stroke="black" cx="417" cy="-822.708" rx="18.2703" ry="18.2703"/>
<text text-anchor="middle" x="417" y="-820.508" font-family="Times New Roman,serif" font-size="9.00">30</text>
</g>
<!-- 2&#45;&gt;30 -->
<g id="edge10" class="edge"><title>2&#45;&gt;30</title>
<path fill="none" stroke="green" d="M628.255,-1432.61C624.674,-1428.26 619.674,-1423.2 614,-1420.42 495.008,-1362.08 435.506,-1445.7 318,-1384.42 295.555,-1372.72 301.159,-1355.89 280,-1341.99 237.708,-1314.22 211.184,-1338 172,-1305.99 101.665,-1248.54 70,-1219.75 70,-1128.93 70,-1128.93 70,-1128.93 70,-970.075 70,-832.273 305.198,-822.164 388.322,-822.895"/>
<polygon fill="green" stroke="green" points="388.293,-826.395 398.344,-823.043 388.397,-819.395 388.293,-826.395"/>
</g>
<!-- 50 -->
<g id="node50" class="node"><title>50</title>
<ellipse fill="none" stroke="black" cx="1054" cy="-895.477" rx="18.2703" ry="18.2703"/>
<text text-anchor="middle" x="1054" y="-893.277" font-family="Times New Roman,serif" font-size="9.00">50</text>
</g>
<!-- 2&#45;&gt;50 -->
<g id="edge26" class="edge"><title>2&#45;&gt;50</title>
<path fill="none" stroke="green" d="M644.696,-1435.79C663.94,-1426.87 705.342,-1406.69 737,-1384.42 803.137,-1337.9 803.976,-1305.69 873,-1263.57 910.834,-1240.48 936.422,-1260.58 966,-1227.57 1045.38,-1138.98 1054.44,-986.739 1054.61,-924.365"/>
<polygon fill="green" stroke="green" points="1058.1,-924.117 1054.55,-914.135 1051.1,-924.153 1058.1,-924.117"/>
</g>
<!-- 7 -->
<g id="node61" class="node"><title>7</title>
<ellipse fill="none" stroke="black" cx="1198" cy="-749.938" rx="14.7" ry="14.7"/>
<text text-anchor="middle" x="1198" y="-747.738" font-family="Times New Roman,serif" font-size="9.00">7</text>
</g>
<!-- 2&#45;&gt;7 -->
<g id="edge2" class="edge"><title>2&#45;&gt;7</title>
<path fill="none" stroke="red" d="M644.541,-1437.8C668.895,-1430.97 730.463,-1412.11 776,-1384.42 845.948,-1341.89 845.945,-1307.53 915,-1263.57 948.232,-1242.41 967.273,-1254.53 996,-1227.57 1024.68,-1200.65 1020.5,-1184.84 1037,-1149.14 1070.47,-1076.72 1160.47,-847.166 1189.12,-773.752"/>
<polygon fill="red" stroke="red" points="1192.51,-774.679 1192.88,-764.09 1185.99,-772.136 1192.51,-774.679"/>
</g>
<!-- 3 -->
<g id="node3" class="node"><title>3</title>
<polygon fill="lightgray" stroke="black" points="813.5,-1526.23 792.5,-1526.23 792.5,-1508.23 813.5,-1508.23 813.5,-1526.23"/>
<text text-anchor="middle" x="803" y="-1515.03" font-family="Times New Roman,serif" font-size="9.00">3</text>
</g>
<!-- 3&#45;&gt;5 -->
<g id="edge1" class="edge"><title>3&#45;&gt;5</title>
<path fill="none" stroke="green" d="M808.108,-1508.06C833.272,-1467.66 943.742,-1288.83 966,-1227.57 1024.13,-1067.58 986,-900.614 986,-678.169 986,-678.169 986,-678.169 986,-144.154 986,-95.785 948.136,-48.8606 925.86,-25.4394"/>
<polygon fill="green" stroke="green" points="928.223,-22.8512 918.718,-18.1714 923.23,-27.7573 928.223,-22.8512"/>
</g>
<!-- 57 -->
<g id="node12" class="node"><title>57</title>
<ellipse fill="none" stroke="black" cx="587" cy="-1441.63" rx="18.2703" ry="18.2703"/>
<text text-anchor="middle" x="587" y="-1439.43" font-family="Times New Roman,serif" font-size="9.00">57</text>
</g>
<!-- 3&#45;&gt;57 -->
<g id="edge91" class="edge"><title>3&#45;&gt;57</title>
<path fill="none" stroke="green" d="M792.264,-1514.62C762.612,-1509.87 677.581,-1494.27 614,-1462.85 612.412,-1462.06 610.822,-1461.18 609.253,-1460.24"/>
<polygon fill="green" stroke="green" points="610.888,-1457.11 600.654,-1454.37 606.945,-1462.9 610.888,-1457.11"/>
</g>
<!-- 46 -->
<g id="node21" class="node"><title>46</title>
<ellipse fill="none" stroke="black" cx="762" cy="-1127.93" rx="18.2703" ry="18.2703"/>
<text text-anchor="middle" x="762" y="-1125.73" font-family="Times New Roman,serif" font-size="9.00">46</text>
</g>
<!-- 3&#45;&gt;46 -->
<g id="edge106" class="edge"><title>3&#45;&gt;46</title>
<path fill="none" stroke="green" d="M805.852,-1508.04C809.297,-1497.67 814.892,-1479.19 817,-1462.85 828.327,-1375.01 844.25,-1347.84 817,-1263.57 810.928,-1244.79 799.686,-1245.29 791,-1227.57 779.761,-1204.64 772.027,-1176.53 767.39,-1156.19"/>
<polygon fill="green" stroke="green" points="770.792,-1155.36 765.246,-1146.34 763.952,-1156.85 770.792,-1155.36"/>
</g>
<!-- 83 -->
<g id="node24" class="node"><title>83</title>
<ellipse fill="none" stroke="black" cx="639" cy="-1363.21" rx="18.2703" ry="18.2703"/>
<text text-anchor="middle" x="639" y="-1361.01" font-family="Times New Roman,serif" font-size="9.00">83</text>
</g>
<!-- 3&#45;&gt;83 -->
<g id="edge42" class="edge"><title>3&#45;&gt;83</title>
<path fill="none" stroke="green" d="M794.183,-1508.06C768.946,-1484.66 695.93,-1416.98 659.78,-1383.47"/>
<polygon fill="green" stroke="green" points="661.96,-1380.72 652.247,-1376.49 657.202,-1385.85 661.96,-1380.72"/>
</g>
<!-- 29 -->
<g id="node40" class="node"><title>29</title>
<ellipse fill="none" stroke="black" cx="196" cy="-971.075" rx="18.2703" ry="18.2703"/>
<text text-anchor="middle" x="196" y="-968.875" font-family="Times New Roman,serif" font-size="9.00">29</text>
</g>
<!-- 3&#45;&gt;29 -->
<g id="edge18" class="edge"><title>3&#45;&gt;29</title>
<path fill="none" stroke="red" d="M792.49,-1516.35C724.9,-1516.52 348.642,-1508.16 172,-1305.99 89.731,-1211.84 73.3378,-1141.22 127,-1028.29 136.036,-1009.27 155,-994.574 170.765,-984.985"/>
<polygon fill="red" stroke="red" points="172.641,-987.943 179.577,-979.935 169.161,-981.87 172.641,-987.943"/>
</g>
<!-- 36 -->
<g id="node41" class="node"><title>36</title>
<ellipse fill="none" stroke="black" cx="594" cy="-1127.93" rx="18.2703" ry="18.2703"/>
<text text-anchor="middle" x="594" y="-1125.73" font-family="Times New Roman,serif" font-size="9.00">36</text>
</g>
<!-- 3&#45;&gt;36 -->
<g id="edge11" class="edge"><title>3&#45;&gt;36</title>
<path fill="none" stroke="green" d="M802.931,-1508.15C802.308,-1475.26 796.572,-1349.12 746,-1263.57 744.902,-1261.71 656.442,-1183.82 614.994,-1147.38"/>
<polygon fill="green" stroke="green" points="617.192,-1144.65 607.371,-1140.68 612.57,-1149.91 617.192,-1144.65"/>
</g>
<!-- 3&#45;&gt;7 -->
<g id="edge5" class="edge"><title>3&#45;&gt;7</title>
<path fill="none" stroke="red" d="M813.82,-1516.07C846.117,-1515.08 943.399,-1508.27 1005,-1462.85 1104.24,-1389.67 1110.91,-1343.82 1152,-1227.57 1210.25,-1062.77 1203.85,-847.168 1199.7,-775.373"/>
<polygon fill="red" stroke="red" points="1203.17,-774.879 1199.06,-765.115 1196.19,-775.312 1203.17,-774.879"/>
</g>
<!-- 4 -->
<g id="node4" class="node"><title>4</title>
<polygon fill="lightgray" stroke="black" points="957.5,-1215.35 936.5,-1215.35 936.5,-1197.35 957.5,-1197.35 957.5,-1215.35"/>
<text text-anchor="middle" x="947" y="-1204.15" font-family="Times New Roman,serif" font-size="9.00">4</text>
</g>
<!-- 4&#45;&gt;5 -->
<g id="edge52" class="edge"><title>4&#45;&gt;5</title>
<path fill="none" stroke="green" d="M946.01,-1197.32C940.126,-1148.81 910,-890.112 910,-678.169 910,-678.169 910,-678.169 910,-144.154 910,-102.75 910,-54.1569 910,-28.3258"/>
<polygon fill="green" stroke="green" points="913.5,-28.1667 910,-18.1667 906.5,-28.1668 913.5,-28.1667"/>
</g>
<!-- 47 -->
<g id="node22" class="node"><title>47</title>
<ellipse fill="none" stroke="black" cx="854" cy="-1127.93" rx="18.2703" ry="18.2703"/>
<text text-anchor="middle" x="854" y="-1125.73" font-family="Times New Roman,serif" font-size="9.00">47</text>
</g>
<!-- 4&#45;&gt;47 -->
<g id="edge31" class="edge"><title>4&#45;&gt;47</title>
<path fill="none" stroke="red" d="M937.047,-1197.18C922.451,-1185.18 894.876,-1162.52 875.517,-1146.61"/>
<polygon fill="red" stroke="red" points="877.733,-1143.9 867.785,-1140.26 873.289,-1149.31 877.733,-1143.9"/>
</g>
<!-- 11 -->
<g id="node42" class="node"><title>11</title>
<ellipse fill="none" stroke="black" cx="1416" cy="-971.075" rx="18.2703" ry="18.2703"/>
<text text-anchor="middle" x="1416" y="-968.875" font-family="Times New Roman,serif" font-size="9.00">11</text>
</g>
<!-- 4&#45;&gt;11 -->
<g id="edge53" class="edge"><title>4&#45;&gt;11</title>
<path fill="none" stroke="red" d="M957.576,-1202.65C1001.44,-1191.15 1172.55,-1143.58 1297,-1070.71 1335.32,-1048.28 1373.83,-1013.63 1396.26,-991.933"/>
<polygon fill="red" stroke="red" points="1398.81,-994.339 1403.5,-984.841 1393.91,-989.339 1398.81,-994.339"/>
</g>
<!-- 4&#45;&gt;7 -->
<g id="edge6" class="edge"><title>4&#45;&gt;7</title>
<path fill="none" stroke="green" d="M949.305,-1196.99C952.31,-1186.03 957.692,-1166.18 962,-1149.14 992.472,-1028.62 972.045,-988.6 1027,-877.092 1045.41,-839.745 1053.29,-830.086 1086,-804.323 1113.12,-782.96 1150.19,-767.421 1174.11,-758.787"/>
<polygon fill="green" stroke="green" points="1175.5,-762.009 1183.79,-755.412 1173.2,-755.399 1175.5,-762.009"/>
</g>
<!-- 8 -->
<g id="node63" class="node"><title>8</title>
<ellipse fill="none" stroke="black" cx="905" cy="-1127.93" rx="14.7" ry="14.7"/>
<text text-anchor="middle" x="905" y="-1125.73" font-family="Times New Roman,serif" font-size="9.00">8</text>
</g>
<!-- 4&#45;&gt;8 -->
<g id="edge45" class="edge"><title>4&#45;&gt;8</title>
<path fill="none" stroke="green" d="M942.505,-1197.18C936.407,-1186.08 925.291,-1165.85 916.738,-1150.29"/>
<polygon fill="green" stroke="green" points="919.696,-1148.4 911.812,-1141.32 913.561,-1151.77 919.696,-1148.4"/>
</g>
<!-- 74 -->
<g id="node7" class="node"><title>74</title>
<ellipse fill="none" stroke="black" cx="1016" cy="-1825.28" rx="18.2703" ry="18.2703"/>
<text text-anchor="middle" x="1016" y="-1823.08" font-family="Times New Roman,serif" font-size="9.00">74</text>
</g>
<!-- 85&#45;&gt;74 -->
<g id="edge134" class="edge"><title>85&#45;&gt;74</title>
<path fill="none" stroke="red" d="M1016,-1879.56C1016,-1871.87 1016,-1862.66 1016,-1854.08"/>
<polygon fill="red" stroke="red" points="1019.5,-1854.06 1016,-1844.06 1012.5,-1854.06 1019.5,-1854.06"/>
</g>
<!-- 74&#45;&gt;101 -->
<g id="edge37" class="edge"><title>74&#45;&gt;101</title>
<path fill="none" stroke="green" d="M1031.45,-1814.96C1051.46,-1802.89 1086.67,-1781.65 1111.11,-1766.9"/>
<polygon fill="green" stroke="green" points="1113.15,-1769.76 1119.9,-1761.6 1109.53,-1763.77 1113.15,-1769.76"/>
</g>
<!-- 64 -->
<g id="node11" class="node"><title>64</title>
<ellipse fill="none" stroke="black" cx="1271" cy="-1517.23" rx="18.2703" ry="18.2703"/>
<text text-anchor="middle" x="1271" y="-1515.03" font-family="Times New Roman,serif" font-size="9.00">64</text>
</g>
<!-- 74&#45;&gt;64 -->
<g id="edge39" class="edge"><title>74&#45;&gt;64</title>
<path fill="none" stroke="red" d="M1034.09,-1821.28C1081.92,-1812.22 1211.07,-1780.17 1255,-1692.47 1278.67,-1645.21 1277.56,-1581.7 1274.41,-1545.86"/>
<polygon fill="red" stroke="red" points="1277.87,-1545.28 1273.4,-1535.68 1270.91,-1545.98 1277.87,-1545.28"/>
</g>
<!-- 74&#45;&gt;43 -->
<g id="edge114" class="edge"><title>74&#45;&gt;43</title>
<path fill="none" stroke="red" d="M997.379,-1824.48C888.598,-1825.43 334.657,-1827.38 176,-1770.9 104.976,-1745.61 38,-1747.65 38,-1672.26 38,-1672.26 38,-1672.26 38,-1362.21 38,-1350.56 172.813,-1259.85 228.436,-1222.92"/>
<polygon fill="red" stroke="red" points="230.55,-1225.72 236.952,-1217.27 226.683,-1219.88 230.55,-1225.72"/>
</g>
<!-- 74&#45;&gt;30 -->
<g id="edge38" class="edge"><title>74&#45;&gt;30</title>
<path fill="none" stroke="green" d="M997.59,-1822.91C875.715,-1813.57 190,-1757.28 190,-1672.26 190,-1672.26 190,-1672.26 190,-1440.63 190,-1332.37 332.971,-1396.09 393,-1305.99 417.755,-1268.84 412,-1252 412,-1207.35 412,-1207.35 412,-1207.35 412,-970.075 412,-928.817 414.009,-881.055 415.48,-851.611"/>
<polygon fill="green" stroke="green" points="418.993,-851.442 416.012,-841.275 412.003,-851.082 418.993,-851.442"/>
</g>
<!-- 143 -->
<g id="node9" class="node"><title>143</title>
<ellipse fill="none" stroke="black" cx="1225" cy="-1671.26" rx="21.4286" ry="21.4286"/>
<text text-anchor="middle" x="1225" y="-1669.06" font-family="Times New Roman,serif" font-size="9.00">143</text>
</g>
<!-- 101&#45;&gt;143 -->
<g id="edge86" class="edge"><title>101&#45;&gt;143</title>
<path fill="none" stroke="red" d="M1153.55,-1735.02C1166.96,-1723.25 1186.49,-1706.08 1201.75,-1692.68"/>
<polygon fill="red" stroke="red" points="1204.08,-1695.29 1209.29,-1686.06 1199.46,-1690.03 1204.08,-1695.29"/>
</g>
<!-- 122 -->
<g id="node10" class="node"><title>122</title>
<ellipse fill="none" stroke="black" cx="1225" cy="-1592.83" rx="21.4286" ry="21.4286"/>
<text text-anchor="middle" x="1225" y="-1590.63" font-family="Times New Roman,serif" font-size="9.00">122</text>
</g>
<!-- 101&#45;&gt;122 -->
<g id="edge59" class="edge"><title>101&#45;&gt;122</title>
<path fill="none" stroke="green" d="M1147.98,-1730.92C1163.17,-1703.88 1192.21,-1652.2 1209.96,-1620.59"/>
<polygon fill="green" stroke="green" points="1213.02,-1622.3 1214.87,-1611.86 1206.92,-1618.87 1213.02,-1622.3"/>
</g>
<!-- 101&#45;&gt;46 -->
<g id="edge51" class="edge"><title>101&#45;&gt;46</title>
<path fill="none" stroke="green" d="M1130.13,-1729.5C1119,-1700.6 1100,-1643.93 1100,-1593.83 1100,-1593.83 1100,-1593.83 1100,-1516.23 1100,-1396.1 1097.89,-1338.5 1004,-1263.57 963.795,-1231.48 937.922,-1254.34 894,-1227.57 871.077,-1213.59 872.027,-1201.83 851,-1185.14 850.812,-1184.99 812.463,-1160.78 786.172,-1144.18"/>
<polygon fill="green" stroke="green" points="787.783,-1141.06 777.458,-1138.68 784.046,-1146.98 787.783,-1141.06"/>
</g>
<!-- 101&#45;&gt;11 -->
<g id="edge46" class="edge"><title>101&#45;&gt;11</title>
<path fill="none" stroke="red" d="M1157.76,-1741.62C1181.98,-1732.43 1223.65,-1714.88 1255,-1692.47 1421.5,-1573.43 1578,-1568.89 1578,-1364.21 1578,-1364.21 1578,-1364.21 1578,-1126.93 1578,-1052.8 1488.27,-1003.24 1442.37,-982.737"/>
<polygon fill="red" stroke="red" points="1443.6,-979.453 1433.03,-978.694 1440.82,-985.878 1443.6,-979.453"/>
</g>
<!-- 58 -->
<g id="node52" class="node"><title>58</title>
<ellipse fill="none" stroke="black" cx="1142" cy="-1049.5" rx="18.2703" ry="18.2703"/>
<text text-anchor="middle" x="1142" y="-1047.3" font-family="Times New Roman,serif" font-size="9.00">58</text>
</g>
<!-- 101&#45;&gt;58 -->
<g id="edge137" class="edge"><title>101&#45;&gt;58</title>
<path fill="none" stroke="green" d="M1138,-1728.14C1138,-1698.49 1138,-1641.95 1138,-1593.83 1138,-1593.83 1138,-1593.83 1138,-1205.35 1138,-1160.85 1139.67,-1109.17 1140.85,-1078.2"/>
<polygon fill="green" stroke="green" points="1144.35,-1078.28 1141.25,-1068.15 1137.36,-1078 1144.35,-1078.28"/>
</g>
<!-- 143&#45;&gt;122 -->
<g id="edge87" class="edge"><title>143&#45;&gt;122</title>
<path fill="none" stroke="red" d="M1225,-1649.78C1225,-1641.92 1225,-1632.77 1225,-1624.18"/>
<polygon fill="red" stroke="red" points="1228.5,-1624.1 1225,-1614.1 1221.5,-1624.1 1228.5,-1624.1"/>
</g>
<!-- 122&#45;&gt;64 -->
<g id="edge60" class="edge"><title>122&#45;&gt;64</title>
<path fill="none" stroke="green" d="M1235.9,-1574.39C1241.9,-1564.79 1249.44,-1552.73 1255.99,-1542.25"/>
<polygon fill="green" stroke="green" points="1259.09,-1543.89 1261.43,-1533.55 1253.16,-1540.18 1259.09,-1543.89"/>
</g>
<!-- 122&#45;&gt;19 -->
<g id="edge68" class="edge"><title>122&#45;&gt;19</title>
<path fill="none" stroke="green" d="M1229.01,-1571.86C1232.82,-1553.03 1238.71,-1524 1244,-1498.85 1263.92,-1404.04 1290,-1382.66 1290,-1285.78 1290,-1285.78 1290,-1285.78 1290,-1205.35 1290,-1156.6 1265.15,-1104.08 1248.55,-1074.45"/>
<polygon fill="green" stroke="green" points="1251.52,-1072.59 1243.5,-1065.67 1245.45,-1076.08 1251.52,-1072.59"/>
</g>
<!-- 64&#45;&gt;5 -->
<g id="edge64" class="edge"><title>64&#45;&gt;5</title>
<path fill="none" stroke="red" d="M1289.36,-1515.22C1326.93,-1512.38 1414.1,-1501.75 1474,-1462.85 1558.6,-1407.9 1616,-1386.66 1616,-1285.78 1616,-1285.78 1616,-1285.78 1616,-144.154 1616,-72.4638 1046.89,-21.3628 930.601,-11.6698"/>
<polygon fill="red" stroke="red" points="930.782,-8.17291 920.528,-10.84 930.207,-15.1493 930.782,-8.17291"/>
</g>
<!-- 224 -->
<g id="node17" class="node"><title>224</title>
<ellipse fill="none" stroke="black" cx="975" cy="-1441.63" rx="21.4286" ry="21.4286"/>
<text text-anchor="middle" x="975" y="-1439.43" font-family="Times New Roman,serif" font-size="9.00">224</text>
</g>
<!-- 64&#45;&gt;224 -->
<g id="edge131" class="edge"><title>64&#45;&gt;224</title>
<path fill="none" stroke="green" d="M1253.37,-1511.85C1204.54,-1499.71 1067.11,-1465.54 1005.52,-1450.22"/>
<polygon fill="green" stroke="green" points="1006.18,-1446.78 995.627,-1447.76 1004.49,-1453.57 1006.18,-1446.78"/>
</g>
<!-- 49 -->
<g id="node20" class="node"><title>49</title>
<ellipse fill="none" stroke="black" cx="1418" cy="-1441.63" rx="18.2703" ry="18.2703"/>
<text text-anchor="middle" x="1418" y="-1439.43" font-family="Times New Roman,serif" font-size="9.00">49</text>
</g>
<!-- 64&#45;&gt;49 -->
<g id="edge23" class="edge"><title>64&#45;&gt;49</title>
<path fill="none" stroke="green" d="M1286.88,-1507.43C1292,-1504.64 1297.72,-1501.57 1303,-1498.85 1333.42,-1483.16 1368.85,-1466 1392.26,-1454.82"/>
<polygon fill="green" stroke="green" points="1393.99,-1457.88 1401.51,-1450.42 1390.98,-1451.56 1393.99,-1457.88"/>
</g>
<!-- 59 -->
<g id="node29" class="node"><title>59</title>
<ellipse fill="none" stroke="black" cx="1491" cy="-1206.35" rx="18.2703" ry="18.2703"/>
<text text-anchor="middle" x="1491" y="-1204.15" font-family="Times New Roman,serif" font-size="9.00">59</text>
</g>
<!-- 64&#45;&gt;59 -->
<g id="edge58" class="edge"><title>64&#45;&gt;59</title>
<path fill="none" stroke="green" d="M1286.25,-1506.94C1291.43,-1504.06 1297.35,-1501.06 1303,-1498.85 1363.63,-1475.12 1399.77,-1509.68 1445,-1462.85 1505.36,-1400.35 1500.9,-1287.09 1495.01,-1234.96"/>
<polygon fill="green" stroke="green" points="1498.46,-1234.3 1493.76,-1224.81 1491.51,-1235.16 1498.46,-1234.3"/>
</g>
<!-- 12 -->
<g id="node62" class="node"><title>12</title>
<ellipse fill="none" stroke="black" cx="618" cy="-217.924" rx="18.2703" ry="18.2703"/>
<text text-anchor="middle" x="618" y="-215.724" font-family="Times New Roman,serif" font-size="9.00">12</text>
</g>
<!-- 64&#45;&gt;12 -->
<g id="edge109" class="edge"><title>64&#45;&gt;12</title>
<path fill="none" stroke="green" d="M1261.55,-1501.19C1233.48,-1457.71 1145.93,-1330.69 1041,-1263.57 996.242,-1234.94 972.007,-1255.81 927,-1227.57 905.048,-1213.79 907.19,-1201.39 887,-1185.14 862.772,-1165.64 843.797,-1175.31 827,-1149.14 670.676,-905.567 813.448,-785.391 755,-501.931 733.454,-397.438 744.974,-360.548 685,-272.309 674.095,-256.265 656.911,-242.712 642.675,-233.276"/>
<polygon fill="green" stroke="green" points="644.164,-230.076 633.843,-227.685 640.42,-235.991 644.164,-230.076"/>
</g>
<!-- 200 -->
<g id="node13" class="node"><title>200</title>
<ellipse fill="none" stroke="black" cx="707" cy="-1363.21" rx="21.4286" ry="21.4286"/>
<text text-anchor="middle" x="707" y="-1361.01" font-family="Times New Roman,serif" font-size="9.00">200</text>
</g>
<!-- 57&#45;&gt;200 -->
<g id="edge123" class="edge"><title>57&#45;&gt;200</title>
<path fill="none" stroke="red" d="M601.102,-1429.67C605.202,-1426.59 609.727,-1423.3 614,-1420.42 635.68,-1405.81 661.141,-1390.54 679.937,-1379.61"/>
<polygon fill="red" stroke="red" points="681.933,-1382.5 688.842,-1374.47 678.432,-1376.44 681.933,-1382.5"/>
</g>
<!-- 57&#45;&gt;84 -->
<g id="edge130" class="edge"><title>57&#45;&gt;84</title>
<path fill="none" stroke="green" d="M568.406,-1440.33C523.913,-1438.84 408.999,-1430.47 328,-1384.42 295.471,-1365.93 267.707,-1332.09 251.433,-1309.27"/>
<polygon fill="green" stroke="green" points="254.151,-1307.05 245.575,-1300.82 248.399,-1311.04 254.151,-1307.05"/>
</g>
<!-- 191 -->
<g id="node14" class="node"><title>191</title>
<ellipse fill="none" stroke="black" cx="716" cy="-1284.78" rx="21.4286" ry="21.4286"/>
<text text-anchor="middle" x="716" y="-1282.58" font-family="Times New Roman,serif" font-size="9.00">191</text>
</g>
<!-- 200&#45;&gt;191 -->
<g id="edge124" class="edge"><title>200&#45;&gt;191</title>
<path fill="none" stroke="green" d="M709.412,-1341.73C710.337,-1333.87 711.414,-1324.72 712.426,-1316.13"/>
<polygon fill="green" stroke="green" points="715.919,-1316.39 713.613,-1306.05 708.967,-1315.58 715.919,-1316.39"/>
</g>
<!-- 184 -->
<g id="node16" class="node"><title>184</title>
<ellipse fill="none" stroke="black" cx="821" cy="-1206.35" rx="21.4286" ry="21.4286"/>
<text text-anchor="middle" x="821" y="-1204.15" font-family="Times New Roman,serif" font-size="9.00">184</text>
</g>
<!-- 191&#45;&gt;184 -->
<g id="edge103" class="edge"><title>191&#45;&gt;184</title>
<path fill="none" stroke="green" d="M732.87,-1271.5C749.938,-1259.08 776.52,-1239.73 796.029,-1225.53"/>
<polygon fill="green" stroke="green" points="798.146,-1228.32 804.172,-1219.6 794.027,-1222.66 798.146,-1228.32"/>
</g>
<!-- 135 -->
<g id="node27" class="node"><title>135</title>
<ellipse fill="none" stroke="black" cx="157" cy="-1206.35" rx="21.4286" ry="21.4286"/>
<text text-anchor="middle" x="157" y="-1204.15" font-family="Times New Roman,serif" font-size="9.00">135</text>
</g>
<!-- 84&#45;&gt;135 -->
<g id="edge113" class="edge"><title>84&#45;&gt;135</title>
<path fill="none" stroke="green" d="M222.955,-1271.16C211.122,-1259.71 193.428,-1242.6 179.345,-1228.97"/>
<polygon fill="green" stroke="green" points="181.573,-1226.26 171.952,-1221.82 176.706,-1231.29 181.573,-1226.26"/>
</g>
<!-- 84&#45;&gt;43 -->
<g id="edge101" class="edge"><title>84&#45;&gt;43</title>
<path fill="none" stroke="green" d="M239.631,-1266.44C241.595,-1257.06 244.065,-1245.26 246.281,-1234.67"/>
<polygon fill="green" stroke="green" points="249.76,-1235.13 248.384,-1224.63 242.909,-1233.7 249.76,-1235.13"/>
</g>
<!-- 79 -->
<g id="node44" class="node"><title>79</title>
<ellipse fill="none" stroke="black" cx="458" cy="-1049.5" rx="18.2703" ry="18.2703"/>
<text text-anchor="middle" x="458" y="-1047.3" font-family="Times New Roman,serif" font-size="9.00">79</text>
</g>
<!-- 84&#45;&gt;79 -->
<g id="edge120" class="edge"><title>84&#45;&gt;79</title>
<path fill="none" stroke="green" d="M249.064,-1271.46C273.672,-1248.13 328.343,-1195.65 372,-1149.14 396.325,-1123.22 423.037,-1092.15 440.134,-1071.89"/>
<polygon fill="green" stroke="green" points="442.863,-1074.09 446.622,-1064.18 437.506,-1069.58 442.863,-1074.09"/>
</g>
<!-- 184&#45;&gt;46 -->
<g id="edge102" class="edge"><title>184&#45;&gt;46</title>
<path fill="none" stroke="red" d="M808.488,-1189.15C799.913,-1178.04 788.433,-1163.17 779.027,-1150.98"/>
<polygon fill="red" stroke="red" points="781.789,-1148.83 772.907,-1143.06 776.248,-1153.11 781.789,-1148.83"/>
</g>
<!-- 184&#45;&gt;47 -->
<g id="edge136" class="edge"><title>184&#45;&gt;47</title>
<path fill="none" stroke="red" d="M829.157,-1186.46C833.323,-1176.82 838.451,-1164.94 842.965,-1154.49"/>
<polygon fill="red" stroke="red" points="846.301,-1155.59 847.052,-1145.02 839.875,-1152.81 846.301,-1155.59"/>
</g>
<!-- 224&#45;&gt;35 -->
<g id="edge132" class="edge"><title>224&#45;&gt;35</title>
<path fill="none" stroke="green" d="M954.003,-1438.11C898.083,-1431.22 741.01,-1410.85 612,-1384.42 594.646,-1380.87 575.384,-1375.96 560.224,-1371.87"/>
<polygon fill="green" stroke="green" points="561.028,-1368.46 550.458,-1369.19 559.179,-1375.21 561.028,-1368.46"/>
</g>
<!-- 63 -->
<g id="node39" class="node"><title>63</title>
<ellipse fill="none" stroke="black" cx="345" cy="-1127.93" rx="18.2703" ry="18.2703"/>
<text text-anchor="middle" x="345" y="-1125.73" font-family="Times New Roman,serif" font-size="9.00">63</text>
</g>
<!-- 95&#45;&gt;63 -->
<g id="edge66" class="edge"><title>95&#45;&gt;63</title>
<path fill="none" stroke="green" d="M223.539,-1823.35C187.935,-1820.68 108.813,-1810.4 58,-1770.9 17.8489,-1739.68 0,-1723.11 0,-1672.26 0,-1672.26 0,-1672.26 0,-1362.21 0,-1298.5 50.8561,-1298.7 104,-1263.57 137.543,-1241.39 154.387,-1251.09 187,-1227.57 207.531,-1212.76 204.204,-1199.57 225,-1185.14 261.072,-1160.11 278.449,-1170.16 317,-1149.14 318.777,-1148.17 320.571,-1147.11 322.349,-1145.99"/>
<polygon fill="green" stroke="green" points="324.633,-1148.67 330.925,-1140.15 320.69,-1142.88 324.633,-1148.67"/>
</g>
<!-- 55 -->
<g id="node26" class="node"><title>55</title>
<ellipse fill="none" stroke="black" cx="366" cy="-1284.78" rx="18.2703" ry="18.2703"/>
<text text-anchor="middle" x="366" y="-1282.58" font-family="Times New Roman,serif" font-size="9.00">55</text>
</g>
<!-- 35&#45;&gt;55 -->
<g id="edge56" class="edge"><title>35&#45;&gt;55</title>
<path fill="none" stroke="green" d="M516.377,-1354.6C487.242,-1341.27 426.76,-1313.59 392.032,-1297.69"/>
<polygon fill="green" stroke="green" points="393.105,-1294.34 382.556,-1293.36 390.192,-1300.7 393.105,-1294.34"/>
</g>
<!-- 35&#45;&gt;135 -->
<g id="edge75" class="edge"><title>35&#45;&gt;135</title>
<path fill="none" stroke="red" d="M514.55,-1361.12C453.429,-1357.2 258.637,-1342.09 209,-1305.99 186.054,-1289.31 172.338,-1259.4 164.804,-1236.88"/>
<polygon fill="red" stroke="red" points="168.082,-1235.63 161.767,-1227.12 161.398,-1237.71 168.082,-1235.63"/>
</g>
<!-- 195 -->
<g id="node36" class="node"><title>195</title>
<ellipse fill="none" stroke="black" cx="533" cy="-1284.78" rx="21.4286" ry="21.4286"/>
<text text-anchor="middle" x="533" y="-1282.58" font-family="Times New Roman,serif" font-size="9.00">195</text>
</g>
<!-- 35&#45;&gt;195 -->
<g id="edge115" class="edge"><title>35&#45;&gt;195</title>
<path fill="none" stroke="green" d="M533,-1344.48C533,-1336.06 533,-1325.76 533,-1316.15"/>
<polygon fill="green" stroke="green" points="536.5,-1316.11 533,-1306.11 529.5,-1316.11 536.5,-1316.11"/>
</g>
<!-- 35&#45;&gt;29 -->
<g id="edge82" class="edge"><title>35&#45;&gt;29</title>
<path fill="none" stroke="red" d="M515.269,-1357.94C470.011,-1346.94 352.803,-1317.64 339,-1305.99 331.599,-1299.75 266.828,-1158.04 263,-1149.14 240.292,-1096.38 217.366,-1033.15 205.101,-998.319"/>
<polygon fill="red" stroke="red" points="208.401,-997.153 201.791,-988.873 201.795,-999.468 208.401,-997.153"/>
</g>
<!-- 38 -->
<g id="node54" class="node"><title>38</title>
<ellipse fill="none" stroke="black" cx="542" cy="-677.169" rx="18.2703" ry="18.2703"/>
<text text-anchor="middle" x="542" y="-674.969" font-family="Times New Roman,serif" font-size="9.00">38</text>
</g>
<!-- 35&#45;&gt;38 -->
<g id="edge16" class="edge"><title>35&#45;&gt;38</title>
<path fill="none" stroke="green" d="M522.719,-1347.76C515.625,-1336.86 506.812,-1321.23 503,-1305.99 466.741,-1161.04 542,-1121.49 542,-972.075 542,-972.075 542,-972.075 542,-821.708 542,-781.491 542,-734.936 542,-706.017"/>
<polygon fill="green" stroke="green" points="545.5,-705.847 542,-695.847 538.5,-705.847 545.5,-705.847"/>
</g>
<!-- 35&#45;&gt;12 -->
<g id="edge24" class="edge"><title>35&#45;&gt;12</title>
<path fill="none" stroke="red" d="M541.988,-1346.74C548.277,-1335.61 556.654,-1320.12 563,-1305.99 654.017,-1103.38 694,-1045.82 694,-823.708 694,-823.708 694,-823.708 694,-368.12 694,-317.803 659.255,-267.321 636.75,-239.9"/>
<polygon fill="red" stroke="red" points="639.337,-237.539 630.211,-232.157 633.989,-242.055 639.337,-237.539"/>
</g>
<!-- 17 -->
<g id="node68" class="node"><title>17</title>
<ellipse fill="none" stroke="black" cx="831" cy="-72.3848" rx="18.2703" ry="18.2703"/>
<text text-anchor="middle" x="831" y="-70.1848" font-family="Times New Roman,serif" font-size="9.00">17</text>
</g>
<!-- 35&#45;&gt;17 -->
<g id="edge76" class="edge"><title>35&#45;&gt;17</title>
<path fill="none" stroke="red" d="M546.763,-1350.33C558.556,-1339.63 575.422,-1323 587,-1305.99 678.067,-1172.26 732,-1133.87 732,-972.075 732,-972.075 732,-972.075 732,-676.169 732,-450.898 800.159,-184.458 823.368,-100.263"/>
<polygon fill="red" stroke="red" points="826.782,-101.05 826.091,-90.478 820.038,-99.174 826.782,-101.05"/>
</g>
<!-- 82 -->
<g id="node25" class="node"><title>82</title>
<ellipse fill="none" stroke="black" cx="1418" cy="-1363.21" rx="18.2703" ry="18.2703"/>
<text text-anchor="middle" x="1418" y="-1361.01" font-family="Times New Roman,serif" font-size="9.00">82</text>
</g>
<!-- 49&#45;&gt;82 -->
<g id="edge90" class="edge"><title>49&#45;&gt;82</title>
<path fill="none" stroke="green" d="M1418,-1422.91C1418,-1413.74 1418,-1402.35 1418,-1392.04"/>
<polygon fill="green" stroke="green" points="1421.5,-1391.84 1418,-1381.84 1414.5,-1391.84 1421.5,-1391.84"/>
</g>
<!-- 56 -->
<g id="node28" class="node"><title>56</title>
<ellipse fill="none" stroke="black" cx="1447" cy="-1284.78" rx="18.2703" ry="18.2703"/>
<text text-anchor="middle" x="1447" y="-1282.58" font-family="Times New Roman,serif" font-size="9.00">56</text>
</g>
<!-- 49&#45;&gt;56 -->
<g id="edge92" class="edge"><title>49&#45;&gt;56</title>
<path fill="none" stroke="red" d="M1427.44,-1425.55C1433.74,-1414.59 1441.49,-1399.16 1445,-1384.42 1450.62,-1360.83 1450.64,-1333.17 1449.53,-1313.15"/>
<polygon fill="red" stroke="red" points="1453.02,-1312.91 1448.85,-1303.17 1446.04,-1313.38 1453.02,-1312.91"/>
</g>
<!-- 49&#45;&gt;54 -->
<g id="edge107" class="edge"><title>49&#45;&gt;54</title>
<path fill="none" stroke="green" d="M1430.16,-1427.64C1439.83,-1416.76 1453.15,-1400.49 1462,-1384.42 1497.72,-1319.59 1503.98,-1300.25 1518,-1227.57 1528.18,-1174.81 1544.4,-1155.08 1521,-1106.71 1511.61,-1087.31 1491.92,-1072.57 1475.65,-1063.06"/>
<polygon fill="green" stroke="green" points="1477.02,-1059.82 1466.57,-1058.07 1473.65,-1065.95 1477.02,-1059.82"/>
</g>
<!-- 49&#45;&gt;11 -->
<g id="edge21" class="edge"><title>49&#45;&gt;11</title>
<path fill="none" stroke="green" d="M1408.47,-1425.57C1402.12,-1414.63 1394.37,-1399.2 1391,-1384.42 1386.81,-1366.03 1390.36,-1360.84 1391,-1341.99 1395.32,-1213.94 1408.04,-1061.38 1413.48,-999.84"/>
<polygon fill="green" stroke="green" points="1416.98,-1000.04 1414.38,-989.765 1410,-999.414 1416.98,-1000.04"/>
</g>
<!-- 46&#45;&gt;29 -->
<g id="edge14" class="edge"><title>46&#45;&gt;29</title>
<path fill="none" stroke="red" d="M745.113,-1119.87C702.301,-1102.22 585.759,-1055.6 485,-1028.29 402.046,-1005.81 379.329,-1008.89 295,-992.288 270.927,-987.551 243.608,-981.956 223.775,-977.856"/>
<polygon fill="red" stroke="red" points="224.372,-974.405 213.869,-975.803 222.951,-981.259 224.372,-974.405"/>
</g>
<!-- 46&#45;&gt;19 -->
<g id="edge25" class="edge"><title>46&#45;&gt;19</title>
<path fill="none" stroke="red" d="M779.138,-1120.58C792.106,-1116.03 810.448,-1110.12 827,-1106.71 976.696,-1075.87 1019.3,-1101.56 1169,-1070.71 1181.8,-1068.08 1195.67,-1063.95 1207.3,-1060.1"/>
<polygon fill="red" stroke="red" points="1208.53,-1063.39 1216.86,-1056.85 1206.27,-1056.76 1208.53,-1063.39"/>
</g>
<!-- 46&#45;&gt;38 -->
<g id="edge63" class="edge"><title>46&#45;&gt;38</title>
<path fill="none" stroke="green" d="M754.299,-1111.22C721.632,-1044.58 594.355,-784.963 554.205,-703.064"/>
<polygon fill="green" stroke="green" points="557.297,-701.421 549.752,-693.982 551.012,-704.502 557.297,-701.421"/>
</g>
<!-- 113 -->
<g id="node37" class="node"><title>113</title>
<ellipse fill="none" stroke="black" cx="857" cy="-1049.5" rx="21.4286" ry="21.4286"/>
<text text-anchor="middle" x="857" y="-1047.3" font-family="Times New Roman,serif" font-size="9.00">113</text>
</g>
<!-- 47&#45;&gt;113 -->
<g id="edge128" class="edge"><title>47&#45;&gt;113</title>
<path fill="none" stroke="red" d="M854.696,-1109.2C855.026,-1100.78 855.431,-1090.48 855.808,-1080.87"/>
<polygon fill="red" stroke="red" points="859.307,-1080.96 856.202,-1070.83 852.312,-1080.69 859.307,-1080.96"/>
</g>
<!-- 47&#45;&gt;11 -->
<g id="edge32" class="edge"><title>47&#45;&gt;11</title>
<path fill="none" stroke="green" d="M867.134,-1114.85C871.287,-1111.68 876.084,-1108.61 881,-1106.71 1039.25,-1045.6 1107.27,-1142.45 1261,-1070.71 1285.33,-1059.36 1281.85,-1043.46 1304,-1028.29 1336.16,-1006.25 1349.66,-1010.75 1384,-992.288 1386.75,-990.812 1389.58,-989.188 1392.36,-987.522"/>
<polygon fill="green" stroke="green" points="1394.31,-990.433 1400.96,-982.186 1390.62,-984.485 1394.31,-990.433"/>
</g>
<!-- 69&#45;&gt;54 -->
<g id="edge73" class="edge"><title>69&#45;&gt;54</title>
<path fill="none" stroke="red" d="M1036.88,-1349.91C1068.39,-1320.09 1152.43,-1242.16 1229,-1185.14 1281,-1146.42 1296.53,-1140.28 1352,-1106.71 1376.77,-1091.72 1405.56,-1075.33 1425.5,-1064.14"/>
<polygon fill="red" stroke="red" points="1427.24,-1067.17 1434.25,-1059.23 1423.82,-1061.07 1427.24,-1067.17"/>
</g>
<!-- 69&#45;&gt;94 -->
<g id="edge35" class="edge"><title>69&#45;&gt;94</title>
<path fill="none" stroke="green" d="M1014.71,-1347.11C1008.15,-1336.43 999.211,-1321.9 991.684,-1309.66"/>
<polygon fill="green" stroke="green" points="994.486,-1307.53 986.266,-1300.85 988.524,-1311.2 994.486,-1307.53"/>
</g>
<!-- 83&#45;&gt;36 -->
<g id="edge43" class="edge"><title>83&#45;&gt;36</title>
<path fill="none" stroke="green" d="M635.691,-1345.05C627.954,-1304.95 608.63,-1204.77 599.26,-1156.19"/>
<polygon fill="green" stroke="green" points="602.645,-1155.26 597.314,-1146.11 595.771,-1156.59 602.645,-1155.26"/>
</g>
<!-- 82&#45;&gt;56 -->
<g id="edge108" class="edge"><title>82&#45;&gt;56</title>
<path fill="none" stroke="green" d="M1424.29,-1345.62C1428.02,-1335.81 1432.82,-1323.16 1437.05,-1312.01"/>
<polygon fill="green" stroke="green" points="1440.44,-1312.92 1440.72,-1302.33 1433.9,-1310.44 1440.44,-1312.92"/>
</g>
<!-- 82&#45;&gt;94 -->
<g id="edge122" class="edge"><title>82&#45;&gt;94</title>
<path fill="none" stroke="green" d="M1399.89,-1359.07C1331.41,-1347.2 1088,-1305.02 1004.98,-1290.63"/>
<polygon fill="green" stroke="green" points="1005.47,-1287.16 995.018,-1288.9 1004.27,-1294.06 1005.47,-1287.16"/>
</g>
<!-- 55&#45;&gt;43 -->
<g id="edge57" class="edge"><title>55&#45;&gt;43</title>
<path fill="none" stroke="red" d="M351.096,-1273.79C331.809,-1260.86 297.991,-1238.19 275.297,-1222.97"/>
<polygon fill="red" stroke="red" points="277.162,-1220.01 266.907,-1217.35 273.264,-1225.82 277.162,-1220.01"/>
</g>
<!-- 55&#45;&gt;63 -->
<g id="edge94" class="edge"><title>55&#45;&gt;63</title>
<path fill="none" stroke="green" d="M363.632,-1266.32C360.008,-1239.6 353.055,-1188.33 348.744,-1156.54"/>
<polygon fill="green" stroke="green" points="352.204,-1156 347.392,-1146.56 345.267,-1156.94 352.204,-1156"/>
</g>
<!-- 144 -->
<g id="node30" class="node"><title>144</title>
<ellipse fill="none" stroke="black" cx="157" cy="-1127.93" rx="21.4286" ry="21.4286"/>
<text text-anchor="middle" x="157" y="-1125.73" font-family="Times New Roman,serif" font-size="9.00">144</text>
</g>
<!-- 135&#45;&gt;144 -->
<g id="edge95" class="edge"><title>135&#45;&gt;144</title>
<path fill="none" stroke="green" d="M157,-1184.87C157,-1177.01 157,-1167.87 157,-1159.28"/>
<polygon fill="green" stroke="green" points="160.5,-1159.2 157,-1149.2 153.5,-1159.2 160.5,-1159.2"/>
</g>
<!-- 44 -->
<g id="node35" class="node"><title>44</title>
<ellipse fill="none" stroke="black" cx="154" cy="-1049.5" rx="18.2703" ry="18.2703"/>
<text text-anchor="middle" x="154" y="-1047.3" font-family="Times New Roman,serif" font-size="9.00">44</text>
</g>
<!-- 135&#45;&gt;44 -->
<g id="edge112" class="edge"><title>135&#45;&gt;44</title>
<path fill="none" stroke="green" d="M168.803,-1188.54C175.591,-1177.81 183.457,-1163.31 187,-1149.14 191.576,-1130.85 191.946,-1124.91 187,-1106.71 183.727,-1094.68 177.153,-1082.58 170.728,-1072.71"/>
<polygon fill="green" stroke="green" points="173.519,-1070.59 164.968,-1064.34 167.751,-1074.56 173.519,-1070.59"/>
</g>
<!-- 53 -->
<g id="node45" class="node"><title>53</title>
<ellipse fill="none" stroke="black" cx="290" cy="-1127.93" rx="18.2703" ry="18.2703"/>
<text text-anchor="middle" x="290" y="-1125.73" font-family="Times New Roman,serif" font-size="9.00">53</text>
</g>
<!-- 135&#45;&gt;53 -->
<g id="edge77" class="edge"><title>135&#45;&gt;53</title>
<path fill="none" stroke="red" d="M175.16,-1194.85C180.576,-1191.73 186.527,-1188.29 192,-1185.14 217.095,-1170.7 245.835,-1154.22 265.672,-1142.86"/>
<polygon fill="red" stroke="red" points="267.439,-1145.88 274.377,-1137.87 263.96,-1139.8 267.439,-1145.88"/>
</g>
<!-- 56&#45;&gt;59 -->
<g id="edge110" class="edge"><title>56&#45;&gt;59</title>
<path fill="none" stroke="green" d="M1455.9,-1268.31C1462.03,-1257.68 1470.28,-1243.35 1477.24,-1231.25"/>
<polygon fill="green" stroke="green" points="1480.3,-1232.95 1482.26,-1222.54 1474.24,-1229.46 1480.3,-1232.95"/>
</g>
<!-- 56&#45;&gt;54 -->
<g id="edge93" class="edge"><title>56&#45;&gt;54</title>
<path fill="none" stroke="green" d="M1447.23,-1266.25C1447.74,-1225.96 1449.02,-1126.52 1449.65,-1078.01"/>
<polygon fill="green" stroke="green" points="1453.15,-1077.96 1449.78,-1067.92 1446.15,-1077.87 1453.15,-1077.96"/>
</g>
<!-- 129 -->
<g id="node31" class="node"><title>129</title>
<ellipse fill="none" stroke="black" cx="1491" cy="-1127.93" rx="21.4286" ry="21.4286"/>
<text text-anchor="middle" x="1491" y="-1125.73" font-family="Times New Roman,serif" font-size="9.00">129</text>
</g>
<!-- 59&#45;&gt;129 -->
<g id="edge69" class="edge"><title>59&#45;&gt;129</title>
<path fill="none" stroke="red" d="M1491,-1187.63C1491,-1179.21 1491,-1168.91 1491,-1159.29"/>
<polygon fill="red" stroke="red" points="1494.5,-1159.26 1491,-1149.26 1487.5,-1159.26 1494.5,-1159.26"/>
</g>
<!-- 144&#45;&gt;44 -->
<g id="edge96" class="edge"><title>144&#45;&gt;44</title>
<path fill="none" stroke="red" d="M156.196,-1106.45C155.853,-1097.71 155.448,-1087.38 155.079,-1077.99"/>
<polygon fill="red" stroke="red" points="158.574,-1077.78 154.684,-1067.93 151.579,-1078.06 158.574,-1077.78"/>
</g>
<!-- 129&#45;&gt;54 -->
<g id="edge70" class="edge"><title>129&#45;&gt;54</title>
<path fill="none" stroke="red" d="M1481.28,-1108.82C1475.9,-1098.78 1469.13,-1086.15 1463.26,-1075.22"/>
<polygon fill="red" stroke="red" points="1466.21,-1073.31 1458.4,-1066.16 1460.04,-1076.62 1466.21,-1073.31"/>
</g>
<!-- 43&#45;&gt;63 -->
<g id="edge22" class="edge"><title>43&#45;&gt;63</title>
<path fill="none" stroke="green" d="M265.722,-1194.08C280.833,-1181.66 305.339,-1161.52 323.109,-1146.92"/>
<polygon fill="green" stroke="green" points="325.717,-1149.3 331.221,-1140.25 321.273,-1143.9 325.717,-1149.3"/>
</g>
<!-- 43&#45;&gt;53 -->
<g id="edge40" class="edge"><title>43&#45;&gt;53</title>
<path fill="none" stroke="green" d="M259.874,-1189.52C264.969,-1179.27 271.712,-1165.71 277.527,-1154.01"/>
<polygon fill="green" stroke="green" points="280.818,-1155.26 282.136,-1144.74 274.55,-1152.14 280.818,-1155.26"/>
</g>
<!-- 54&#45;&gt;11 -->
<g id="edge17" class="edge"><title>54&#45;&gt;11</title>
<path fill="none" stroke="green" d="M1442.79,-1032.29C1438.28,-1022.16 1432.38,-1008.9 1427.27,-997.397"/>
<polygon fill="green" stroke="green" points="1430.46,-995.974 1423.2,-988.26 1424.07,-998.819 1430.46,-995.974"/>
</g>
<!-- 132 -->
<g id="node47" class="node"><title>132</title>
<ellipse fill="none" stroke="black" cx="325" cy="-971.075" rx="21.4286" ry="21.4286"/>
<text text-anchor="middle" x="325" y="-968.875" font-family="Times New Roman,serif" font-size="9.00">132</text>
</g>
<!-- 94&#45;&gt;132 -->
<g id="edge125" class="edge"><title>94&#45;&gt;132</title>
<path fill="none" stroke="red" d="M959.108,-1280.4C925.098,-1273.53 849.31,-1256.15 791,-1227.57 707.76,-1186.77 699.019,-1156.78 621,-1106.71 562.277,-1069.03 548.409,-1057.41 485,-1028.29 441.059,-1008.11 387.65,-990.688 355.003,-980.789"/>
<polygon fill="red" stroke="red" points="355.755,-977.361 345.172,-977.846 353.748,-984.067 355.755,-977.361"/>
</g>
<!-- 44&#45;&gt;29 -->
<g id="edge74" class="edge"><title>44&#45;&gt;29</title>
<path fill="none" stroke="green" d="M162.499,-1033.04C168.249,-1022.57 175.965,-1008.53 182.542,-996.565"/>
<polygon fill="green" stroke="green" points="185.764,-997.968 187.513,-987.518 179.63,-994.596 185.764,-997.968"/>
</g>
<!-- 199 -->
<g id="node38" class="node"><title>199</title>
<ellipse fill="none" stroke="black" cx="533" cy="-1206.35" rx="21.4286" ry="21.4286"/>
<text text-anchor="middle" x="533" y="-1204.15" font-family="Times New Roman,serif" font-size="9.00">199</text>
</g>
<!-- 195&#45;&gt;199 -->
<g id="edge116" class="edge"><title>195&#45;&gt;199</title>
<path fill="none" stroke="red" d="M533,-1263.3C533,-1255.44 533,-1246.3 533,-1237.71"/>
<polygon fill="red" stroke="red" points="536.5,-1237.63 533,-1227.63 529.5,-1237.63 536.5,-1237.63"/>
</g>
<!-- 113&#45;&gt;29 -->
<g id="edge129" class="edge"><title>113&#45;&gt;29</title>
<path fill="none" stroke="green" d="M835.722,-1047.16C761.128,-1042.28 504.648,-1024.09 295,-992.288 270.743,-988.609 243.44,-982.916 223.661,-978.509"/>
<polygon fill="green" stroke="green" points="224.313,-975.068 213.787,-976.276 222.769,-981.896 224.313,-975.068"/>
</g>
<!-- 199&#45;&gt;36 -->
<g id="edge117" class="edge"><title>199&#45;&gt;36</title>
<path fill="none" stroke="green" d="M545.937,-1189.15C554.802,-1178.04 566.671,-1163.17 576.396,-1150.98"/>
<polygon fill="green" stroke="green" points="579.22,-1153.06 582.723,-1143.06 573.749,-1148.69 579.22,-1153.06"/>
</g>
<!-- 48 -->
<g id="node48" class="node"><title>48</title>
<ellipse fill="none" stroke="black" cx="345" cy="-895.477" rx="18.2703" ry="18.2703"/>
<text text-anchor="middle" x="345" y="-893.277" font-family="Times New Roman,serif" font-size="9.00">48</text>
</g>
<!-- 29&#45;&gt;48 -->
<g id="edge29" class="edge"><title>29&#45;&gt;48</title>
<path fill="none" stroke="green" d="M212.229,-962.059C238.092,-949.284 288.862,-924.206 319.579,-909.034"/>
<polygon fill="green" stroke="green" points="321.375,-912.051 328.791,-904.484 318.275,-905.774 321.375,-912.051"/>
</g>
<!-- 29&#45;&gt;12 -->
<g id="edge20" class="edge"><title>29&#45;&gt;12</title>
<path fill="none" stroke="red" d="M196.79,-952.506C197.956,-925.032 200,-870.227 200,-823.708 200,-823.708 200,-823.708 200,-368.12 200,-285.115 496.058,-236.151 589.855,-222.721"/>
<polygon fill="red" stroke="red" points="590.355,-226.185 599.77,-221.326 589.38,-219.253 590.355,-226.185"/>
</g>
<!-- 36&#45;&gt;79 -->
<g id="edge28" class="edge"><title>36&#45;&gt;79</title>
<path fill="none" stroke="red" d="M577.956,-1118.69C557.366,-1108.01 520.646,-1088.65 490,-1070.71 487.308,-1069.14 484.514,-1067.45 481.748,-1065.75"/>
<polygon fill="red" stroke="red" points="483.503,-1062.72 473.171,-1060.38 479.788,-1068.65 483.503,-1062.72"/>
</g>
<!-- 36&#45;&gt;30 -->
<g id="edge34" class="edge"><title>36&#45;&gt;30</title>
<path fill="none" stroke="green" d="M584.979,-1111.47C556.158,-1062.1 466.145,-907.898 431.132,-847.917"/>
<polygon fill="green" stroke="green" points="434.067,-846.002 426.003,-839.13 428.021,-849.531 434.067,-846.002"/>
</g>
<!-- 36&#45;&gt;58 -->
<g id="edge71" class="edge"><title>36&#45;&gt;58</title>
<path fill="none" stroke="red" d="M612.248,-1124.28C639.12,-1120.39 690.921,-1112.92 735,-1106.71 877.183,-1086.7 1047.41,-1063.41 1113.66,-1054.36"/>
<polygon fill="red" stroke="red" points="1114.31,-1057.81 1123.74,-1052.99 1113.36,-1050.87 1114.31,-1057.81"/>
</g>
<!-- 36&#45;&gt;12 -->
<g id="edge19" class="edge"><title>36&#45;&gt;12</title>
<path fill="none" stroke="green" d="M598.402,-1109.88C605.331,-1081.49 618,-1022.68 618,-972.075 618,-972.075 618,-972.075 618,-368.12 618,-325.673 618,-276.433 618,-246.49"/>
<polygon fill="green" stroke="green" points="621.5,-246.38 618,-236.38 614.5,-246.38 621.5,-246.38"/>
</g>
<!-- 26 -->
<g id="node51" class="node"><title>26</title>
<ellipse fill="none" stroke="black" cx="1336" cy="-895.477" rx="18.2703" ry="18.2703"/>
<text text-anchor="middle" x="1336" y="-893.277" font-family="Times New Roman,serif" font-size="9.00">26</text>
</g>
<!-- 11&#45;&gt;26 -->
<g id="edge49" class="edge"><title>11&#45;&gt;26</title>
<path fill="none" stroke="green" d="M1402.79,-957.922C1390.28,-946.416 1371.31,-928.961 1356.78,-915.592"/>
<polygon fill="green" stroke="green" points="1358.96,-912.843 1349.23,-908.649 1354.22,-917.995 1358.96,-912.843"/>
</g>
<!-- 11&#45;&gt;7 -->
<g id="edge54" class="edge"><title>11&#45;&gt;7</title>
<path fill="none" stroke="green" d="M1398.87,-964.094C1376.34,-955.597 1336.41,-938.302 1309,-913.862 1284.39,-891.918 1233.95,-810.718 1210.5,-771.887"/>
<polygon fill="green" stroke="green" points="1213.3,-769.757 1205.15,-762.989 1207.3,-773.363 1213.3,-769.757"/>
</g>
<!-- 19&#45;&gt;7 -->
<g id="edge15" class="edge"><title>19&#45;&gt;7</title>
<path fill="none" stroke="red" d="M1247.04,-1035.99C1278.58,-1005.58 1356.85,-929.182 1363,-913.862 1381.15,-868.687 1391.64,-843.691 1363,-804.323 1330.76,-760.004 1260.94,-751.72 1223.29,-750.633"/>
<polygon fill="red" stroke="red" points="1223.19,-747.132 1213.15,-750.494 1223.1,-754.131 1223.19,-747.132"/>
</g>
<!-- 40 -->
<g id="node64" class="node"><title>40</title>
<ellipse fill="none" stroke="black" cx="1104" cy="-677.169" rx="18.2703" ry="18.2703"/>
<text text-anchor="middle" x="1104" y="-674.969" font-family="Times New Roman,serif" font-size="9.00">40</text>
</g>
<!-- 19&#45;&gt;40 -->
<g id="edge50" class="edge"><title>19&#45;&gt;40</title>
<path fill="none" stroke="green" d="M1228.08,-1031.63C1207.39,-972.69 1138.25,-775.728 1113.18,-704.313"/>
<polygon fill="green" stroke="green" points="1116.42,-702.996 1109.81,-694.719 1109.82,-705.314 1116.42,-702.996"/>
</g>
<!-- 169 -->
<g id="node46" class="node"><title>169</title>
<ellipse fill="none" stroke="black" cx="287" cy="-1049.5" rx="21.4286" ry="21.4286"/>
<text text-anchor="middle" x="287" y="-1047.3" font-family="Times New Roman,serif" font-size="9.00">169</text>
</g>
<!-- 53&#45;&gt;169 -->
<g id="edge118" class="edge"><title>53&#45;&gt;169</title>
<path fill="none" stroke="green" d="M289.304,-1109.2C288.974,-1100.78 288.569,-1090.48 288.192,-1080.87"/>
<polygon fill="green" stroke="green" points="291.688,-1080.69 287.798,-1070.83 284.693,-1080.96 291.688,-1080.69"/>
</g>
<!-- 53&#45;&gt;132 -->
<g id="edge78" class="edge"><title>53&#45;&gt;132</title>
<path fill="none" stroke="green" d="M299.168,-1111.77C305.336,-1100.79 313.04,-1085.35 317,-1070.71 323.022,-1048.47 324.93,-1022.45 325.381,-1002.72"/>
<polygon fill="green" stroke="green" points="328.884,-1002.51 325.499,-992.471 321.884,-1002.43 328.884,-1002.51"/>
</g>
<!-- 53&#45;&gt;48 -->
<g id="edge83" class="edge"><title>53&#45;&gt;48</title>
<path fill="none" stroke="red" d="M302.863,-1114.2C312.996,-1103.47 326.747,-1087.27 335,-1070.71 359.286,-1021.99 360.033,-1004.07 355,-949.862 354.203,-941.28 352.7,-932.02 351.098,-923.661"/>
<polygon fill="red" stroke="red" points="354.488,-922.772 349.059,-913.674 347.63,-924.172 354.488,-922.772"/>
</g>
<!-- 53&#45;&gt;30 -->
<g id="edge41" class="edge"><title>53&#45;&gt;30</title>
<path fill="none" stroke="green" d="M279.032,-1113.09C271.182,-1102.26 261.275,-1086.44 257,-1070.71 252.054,-1052.52 253.407,-1046.8 257,-1028.29 270.809,-957.155 269.685,-931.095 318,-877.092 337.533,-855.26 368.172,-840.682 390.192,-832.355"/>
<polygon fill="green" stroke="green" points="391.403,-835.638 399.631,-828.964 389.037,-829.05 391.403,-835.638"/>
</g>
<!-- 169&#45;&gt;132 -->
<g id="edge119" class="edge"><title>169&#45;&gt;132</title>
<path fill="none" stroke="green" d="M296.199,-1030C300.726,-1020.89 306.276,-1009.73 311.292,-999.645"/>
<polygon fill="green" stroke="green" points="314.568,-1000.92 315.886,-990.406 308.3,-997.802 314.568,-1000.92"/>
</g>
<!-- 132&#45;&gt;48 -->
<g id="edge79" class="edge"><title>132&#45;&gt;48</title>
<path fill="none" stroke="red" d="M330.36,-950.352C332.588,-942.151 335.212,-932.494 337.619,-923.639"/>
<polygon fill="red" stroke="red" points="341.062,-924.315 340.307,-913.747 334.307,-922.479 341.062,-924.315"/>
</g>
<!-- 48&#45;&gt;30 -->
<g id="edge30" class="edge"><title>48&#45;&gt;30</title>
<path fill="none" stroke="green" d="M357.872,-881.825C368.725,-871.158 384.441,-855.71 396.943,-843.422"/>
<polygon fill="green" stroke="green" points="399.561,-845.756 404.239,-836.25 394.654,-840.764 399.561,-845.756"/>
</g>
<!-- 81 -->
<g id="node53" class="node"><title>81</title>
<ellipse fill="none" stroke="black" cx="491" cy="-749.938" rx="18.2703" ry="18.2703"/>
<text text-anchor="middle" x="491" y="-747.738" font-family="Times New Roman,serif" font-size="9.00">81</text>
</g>
<!-- 30&#45;&gt;81 -->
<g id="edge126" class="edge"><title>30&#45;&gt;81</title>
<path fill="none" stroke="red" d="M429.89,-809.381C441,-798.755 457.248,-783.216 470.198,-770.832"/>
<polygon fill="red" stroke="red" points="472.952,-773.042 477.76,-763.601 468.113,-767.983 472.952,-773.042"/>
</g>
<!-- 30&#45;&gt;12 -->
<g id="edge8" class="edge"><title>30&#45;&gt;12</title>
<path fill="none" stroke="red" d="M418.821,-804.052C421.451,-776.99 426,-723.612 426,-678.169 426,-678.169 426,-678.169 426,-368.12 426,-285.802 537.401,-242.325 590.491,-226.279"/>
<polygon fill="red" stroke="red" points="591.656,-229.585 600.281,-223.432 589.702,-222.863 591.656,-229.585"/>
</g>
<!-- 30&#45;&gt;40 -->
<g id="edge135" class="edge"><title>30&#45;&gt;40</title>
<path fill="none" stroke="red" d="M435.022,-817.942C528.852,-798.338 961.514,-707.939 1076.09,-683.999"/>
<polygon fill="red" stroke="red" points="1077.09,-687.366 1086.17,-681.895 1075.66,-680.514 1077.09,-687.366"/>
</g>
<!-- 13 -->
<g id="node67" class="node"><title>13</title>
<ellipse fill="none" stroke="black" cx="1068" cy="-601.571" rx="18.2703" ry="18.2703"/>
<text text-anchor="middle" x="1068" y="-599.371" font-family="Times New Roman,serif" font-size="9.00">13</text>
</g>
<!-- 50&#45;&gt;13 -->
<g id="edge27" class="edge"><title>50&#45;&gt;13</title>
<path fill="none" stroke="red" d="M1054.83,-877.091C1057.17,-828.331 1063.81,-689.962 1066.67,-630.4"/>
<polygon fill="red" stroke="red" points="1070.17,-630.391 1067.15,-620.235 1063.18,-630.055 1070.17,-630.391"/>
</g>
<!-- 27 -->
<g id="node55" class="node"><title>27</title>
<ellipse fill="none" stroke="black" cx="1336" cy="-822.708" rx="18.2703" ry="18.2703"/>
<text text-anchor="middle" x="1336" y="-820.508" font-family="Times New Roman,serif" font-size="9.00">27</text>
</g>
<!-- 26&#45;&gt;27 -->
<g id="edge80" class="edge"><title>26&#45;&gt;27</title>
<path fill="none" stroke="red" d="M1336,-876.984C1336,-869.301 1336,-860.092 1336,-851.508"/>
<polygon fill="red" stroke="red" points="1339.5,-851.492 1336,-841.492 1332.5,-851.492 1339.5,-851.492"/>
</g>
<!-- 26&#45;&gt;7 -->
<g id="edge85" class="edge"><title>26&#45;&gt;7</title>
<path fill="none" stroke="red" d="M1326.1,-879.533C1313.37,-860.878 1290.04,-828.488 1266,-804.323 1251.41,-789.658 1232.83,-775.311 1218.77,-765.19"/>
<polygon fill="red" stroke="red" points="1220.46,-762.101 1210.28,-759.188 1216.42,-767.818 1220.46,-762.101"/>
</g>
<!-- 58&#45;&gt;7 -->
<g id="edge72" class="edge"><title>58&#45;&gt;7</title>
<path fill="none" stroke="red" d="M1145.25,-1031.22C1154.77,-980.644 1182.58,-832.879 1193.51,-774.787"/>
<polygon fill="red" stroke="red" points="1197,-775.198 1195.41,-764.723 1190.12,-773.903 1197,-775.198"/>
</g>
<!-- 81&#45;&gt;38 -->
<g id="edge127" class="edge"><title>81&#45;&gt;38</title>
<path fill="none" stroke="red" d="M501.321,-734.617C508.302,-724.929 517.671,-711.928 525.658,-700.846"/>
<polygon fill="red" stroke="red" points="528.688,-702.628 531.695,-692.469 523.009,-698.535 528.688,-702.628"/>
</g>
<!-- 111 -->
<g id="node56" class="node"><title>111</title>
<ellipse fill="none" stroke="black" cx="531" cy="-601.571" rx="21.4286" ry="21.4286"/>
<text text-anchor="middle" x="531" y="-599.371" font-family="Times New Roman,serif" font-size="9.00">111</text>
</g>
<!-- 38&#45;&gt;111 -->
<g id="edge47" class="edge"><title>38&#45;&gt;111</title>
<path fill="none" stroke="green" d="M539.393,-658.727C538.233,-650.967 536.833,-641.601 535.512,-632.761"/>
<polygon fill="green" stroke="green" points="538.956,-632.126 534.016,-622.753 532.033,-633.161 538.956,-632.126"/>
</g>
<!-- 38&#45;&gt;12 -->
<g id="edge12" class="edge"><title>38&#45;&gt;12</title>
<path fill="none" stroke="red" d="M548.794,-660.077C559.724,-632.686 580,-575.018 580,-524.144 580,-524.144 580,-524.144 580,-368.12 580,-323.647 596.052,-273.961 607.29,-244.624"/>
<polygon fill="red" stroke="red" points="610.618,-245.724 611.03,-235.137 604.106,-243.156 610.618,-245.724"/>
</g>
<!-- 27&#45;&gt;7 -->
<g id="edge81" class="edge"><title>27&#45;&gt;7</title>
<path fill="none" stroke="green" d="M1320.1,-812.944C1314.98,-810.154 1309.27,-807.078 1304,-804.323 1275.19,-789.245 1241.61,-772.468 1220.1,-761.817"/>
<polygon fill="green" stroke="green" points="1221.64,-758.674 1211.12,-757.383 1218.54,-764.95 1221.64,-758.674"/>
</g>
<!-- 134 -->
<g id="node57" class="node"><title>134</title>
<ellipse fill="none" stroke="black" cx="531" cy="-523.144" rx="21.4286" ry="21.4286"/>
<text text-anchor="middle" x="531" y="-520.944" font-family="Times New Roman,serif" font-size="9.00">134</text>
</g>
<!-- 111&#45;&gt;134 -->
<g id="edge97" class="edge"><title>111&#45;&gt;134</title>
<path fill="none" stroke="green" d="M531,-580.09C531,-572.231 531,-563.087 531,-554.497"/>
<polygon fill="green" stroke="green" points="534.5,-554.417 531,-544.417 527.5,-554.417 534.5,-554.417"/>
</g>
<!-- 126 -->
<g id="node58" class="node"><title>126</title>
<ellipse fill="none" stroke="black" cx="531" cy="-444.718" rx="21.4286" ry="21.4286"/>
<text text-anchor="middle" x="531" y="-442.518" font-family="Times New Roman,serif" font-size="9.00">126</text>
</g>
<!-- 111&#45;&gt;126 -->
<g id="edge111" class="edge"><title>111&#45;&gt;126</title>
<path fill="none" stroke="green" d="M519.197,-583.752C512.409,-573.026 504.543,-558.523 501,-544.357 496.424,-526.065 496.424,-520.224 501,-501.931 503.658,-491.307 508.746,-480.493 513.988,-471.225"/>
<polygon fill="green" stroke="green" points="517.057,-472.913 519.197,-462.537 511.053,-469.314 517.057,-472.913"/>
</g>
<!-- 134&#45;&gt;126 -->
<g id="edge98" class="edge"><title>134&#45;&gt;126</title>
<path fill="none" stroke="red" d="M531,-501.663C531,-493.805 531,-484.66 531,-476.07"/>
<polygon fill="red" stroke="red" points="534.5,-475.99 531,-465.99 527.5,-475.99 534.5,-475.99"/>
</g>
<!-- 52 -->
<g id="node59" class="node"><title>52</title>
<ellipse fill="none" stroke="black" cx="531" cy="-369.12" rx="18.2703" ry="18.2703"/>
<text text-anchor="middle" x="531" y="-366.92" font-family="Times New Roman,serif" font-size="9.00">52</text>
</g>
<!-- 126&#45;&gt;52 -->
<g id="edge67" class="edge"><title>126&#45;&gt;52</title>
<path fill="none" stroke="red" d="M531,-423.217C531,-415.321 531,-406.172 531,-397.715"/>
<polygon fill="red" stroke="red" points="534.5,-397.521 531,-387.521 527.5,-397.521 534.5,-397.521"/>
</g>
<!-- 124 -->
<g id="node60" class="node"><title>124</title>
<ellipse fill="none" stroke="black" cx="531" cy="-293.522" rx="21.4286" ry="21.4286"/>
<text text-anchor="middle" x="531" y="-291.322" font-family="Times New Roman,serif" font-size="9.00">124</text>
</g>
<!-- 52&#45;&gt;124 -->
<g id="edge61" class="edge"><title>52&#45;&gt;124</title>
<path fill="none" stroke="green" d="M531,-350.678C531,-343.063 531,-333.901 531,-325.207"/>
<polygon fill="green" stroke="green" points="534.5,-324.971 531,-314.971 527.5,-324.971 534.5,-324.971"/>
</g>
<!-- 124&#45;&gt;12 -->
<g id="edge62" class="edge"><title>124&#45;&gt;12</title>
<path fill="none" stroke="green" d="M546.957,-279.023C560.864,-267.258 581.152,-250.096 596.49,-237.12"/>
<polygon fill="green" stroke="green" points="599.056,-239.534 604.43,-230.403 594.535,-234.19 599.056,-239.534"/>
</g>
<!-- 7&#45;&gt;40 -->
<g id="edge121" class="edge"><title>7&#45;&gt;40</title>
<path fill="none" stroke="red" d="M1186.47,-740.26C1171.59,-729.058 1145.37,-709.317 1126.49,-695.098"/>
<polygon fill="red" stroke="red" points="1128.49,-692.222 1118.39,-689.004 1124.28,-697.815 1128.49,-692.222"/>
</g>
<!-- 7&#45;&gt;13 -->
<g id="edge104" class="edge"><title>7&#45;&gt;13</title>
<path fill="none" stroke="red" d="M1190.25,-736.966C1178.45,-719.114 1154.82,-684.833 1131,-658.784 1118.26,-644.851 1102.39,-630.71 1089.77,-620.096"/>
<polygon fill="red" stroke="red" points="1091.94,-617.352 1082.01,-613.669 1087.48,-622.743 1091.94,-617.352"/>
</g>
<!-- 12&#45;&gt;5 -->
<g id="edge3" class="edge"><title>12&#45;&gt;5</title>
<path fill="none" stroke="red" d="M619.929,-199.501C624.639,-165.779 639.94,-91.6049 686,-54 717.187,-28.5379 839.963,-15.7771 889.306,-11.5949"/>
<polygon fill="red" stroke="red" points="889.738,-15.0713 899.422,-10.7718 889.171,-8.09438 889.738,-15.0713"/>
</g>
<!-- 91 -->
<g id="node65" class="node"><title>91</title>
<ellipse fill="none" stroke="black" cx="713" cy="-145.154" rx="18.2703" ry="18.2703"/>
<text text-anchor="middle" x="713" y="-142.954" font-family="Times New Roman,serif" font-size="9.00">91</text>
</g>
<!-- 12&#45;&gt;91 -->
<g id="edge88" class="edge"><title>12&#45;&gt;91</title>
<path fill="none" stroke="green" d="M632.428,-206.176C647.862,-194.678 672.544,-176.292 690.527,-162.895"/>
<polygon fill="green" stroke="green" points="692.819,-165.553 698.747,-156.772 688.637,-159.939 692.819,-165.553"/>
</g>
<!-- 174 -->
<g id="node66" class="node"><title>174</title>
<ellipse fill="none" stroke="black" cx="854" cy="-523.144" rx="21.4286" ry="21.4286"/>
<text text-anchor="middle" x="854" y="-520.944" font-family="Times New Roman,serif" font-size="9.00">174</text>
</g>
<!-- 8&#45;&gt;174 -->
<g id="edge138" class="edge"><title>8&#45;&gt;174</title>
<path fill="none" stroke="green" d="M903.814,-1112.92C897.301,-1035.93 865.828,-663.94 856.568,-554.494"/>
<polygon fill="green" stroke="green" points="860.049,-554.124 855.718,-544.455 853.074,-554.714 860.049,-554.124"/>
</g>
<!-- 40&#45;&gt;13 -->
<g id="edge13" class="edge"><title>40&#45;&gt;13</title>
<path fill="none" stroke="green" d="M1096.19,-660.199C1091.52,-650.651 1085.48,-638.314 1080.2,-627.505"/>
<polygon fill="green" stroke="green" points="1083.33,-625.954 1075.8,-618.509 1077.05,-629.03 1083.33,-625.954"/>
</g>
<!-- 91&#45;&gt;17 -->
<g id="edge99" class="edge"><title>91&#45;&gt;17</title>
<path fill="none" stroke="green" d="M728.426,-134.902C748.391,-122.929 783.395,-101.936 806.886,-87.8471"/>
<polygon fill="green" stroke="green" points="808.794,-90.7839 815.57,-82.6389 805.194,-84.7807 808.794,-90.7839"/>
</g>
<!-- 22 -->
<g id="node69" class="node"><title>22</title>
<ellipse fill="none" stroke="black" cx="713" cy="-72.3848" rx="18.2703" ry="18.2703"/>
<text text-anchor="middle" x="713" y="-70.1848" font-family="Times New Roman,serif" font-size="9.00">22</text>
</g>
<!-- 91&#45;&gt;22 -->
<g id="edge89" class="edge"><title>91&#45;&gt;22</title>
<path fill="none" stroke="red" d="M713,-126.661C713,-118.978 713,-109.769 713,-101.185"/>
<polygon fill="red" stroke="red" points="716.5,-101.169 713,-91.1687 709.5,-101.169 716.5,-101.169"/>
</g>
<!-- 174&#45;&gt;17 -->
<g id="edge139" class="edge"><title>174&#45;&gt;17</title>
<path fill="none" stroke="red" d="M853.556,-501.49C852.967,-472.248 852,-417.104 852,-370.12 852,-370.12 852,-370.12 852,-216.924 852,-176.056 843.563,-129.326 837.384,-100.585"/>
<polygon fill="red" stroke="red" points="840.73,-99.5061 835.149,-90.5004 833.896,-101.021 840.73,-99.5061"/>
</g>
<!-- 13&#45;&gt;5 -->
<g id="edge4" class="edge"><title>13&#45;&gt;5</title>
<path fill="none" stroke="green" d="M1063.96,-583.497C1057.61,-555.084 1046,-496.225 1046,-445.718 1046,-445.718 1046,-445.718 1046,-144.154 1046,-99.1714 1032.08,-85.5349 1000,-54 980.235,-34.5697 950.202,-22.2799 930.344,-15.77"/>
<polygon fill="green" stroke="green" points="931.328,-12.4111 920.741,-12.8122 929.268,-19.101 931.328,-12.4111"/>
</g>
<!-- 17&#45;&gt;5 -->
<g id="edge48" class="edge"><title>17&#45;&gt;5</title>
<path fill="none" stroke="red" d="M845.124,-60.4104C858.061,-50.358 877.296,-35.4118 891.464,-24.4026"/>
<polygon fill="red" stroke="red" points="893.781,-27.0351 899.53,-18.1356 889.486,-21.5076 893.781,-27.0351"/>
</g>
</g>
</svg>
