<?xml version="1.0" encoding="UTF-8" standalone="no"?>
<!DOCTYPE svg PUBLIC "-//W3C//DTD SVG 1.1//EN"
 "http://www.w3.org/Graphics/SVG/1.1/DTD/svg11.dtd">
<!-- Generated by graphviz version 2.38.0 (20140413.2041)
 -->
<!-- Title: %3 Pages: 1 -->
<svg width="1566pt" height="1822pt"
 viewBox="0.00 0.00 1566.38 1821.58" xmlns="http://www.w3.org/2000/svg" xmlns:xlink="http://www.w3.org/1999/xlink">
<g id="graph0" class="graph" transform="scale(1 1) rotate(0) translate(4 1817.58)">
<title>%3</title>
<polygon fill="white" stroke="none" points="-4,4 -4,-1817.58 1562.38,-1817.58 1562.38,4 -4,4"/>
<!-- 1 -->
<g id="node1" class="node"><title>1</title>
<polygon fill="lightgray" stroke="black" points="1361.88,-1813.58 1340.88,-1813.58 1340.88,-1795.58 1361.88,-1795.58 1361.88,-1813.58"/>
<text text-anchor="middle" x="1351.38" y="-1802.38" font-family="Times New Roman,serif" font-size="9.00">1</text>
</g>
<!-- 74 -->
<g id="node6" class="node"><title>74</title>
<ellipse fill="none" stroke="black" cx="1184.38" cy="-1741.2" rx="18.2703" ry="18.2703"/>
<text text-anchor="middle" x="1184.38" y="-1739" font-family="Times New Roman,serif" font-size="9.00">74</text>
</g>
<!-- 1&#45;&gt;74 -->
<g id="edge29" class="edge"><title>1&#45;&gt;74</title>
<path fill="none" stroke="green" d="M1340.68,-1799.65C1314.89,-1790.17 1248.65,-1765.82 1211.21,-1752.06"/>
<polygon fill="green" stroke="green" points="1212.06,-1748.64 1201.47,-1748.48 1209.65,-1755.21 1212.06,-1748.64"/>
</g>
<!-- 101 -->
<g id="node7" class="node"><title>101</title>
<ellipse fill="none" stroke="black" cx="1379.38" cy="-1665.6" rx="21.4286" ry="21.4286"/>
<text text-anchor="middle" x="1379.38" y="-1663.4" font-family="Times New Roman,serif" font-size="9.00">101</text>
</g>
<!-- 1&#45;&gt;101 -->
<g id="edge49" class="edge"><title>1&#45;&gt;101</title>
<path fill="none" stroke="green" d="M1353.05,-1795.42C1356.93,-1776.43 1366.74,-1728.47 1373.23,-1696.73"/>
<polygon fill="green" stroke="green" points="1376.71,-1697.16 1375.28,-1686.66 1369.85,-1695.75 1376.71,-1697.16"/>
</g>
<!-- 95 -->
<g id="node15" class="node"><title>95</title>
<ellipse fill="none" stroke="black" cx="18.3848" cy="-1665.6" rx="18.2703" ry="18.2703"/>
<text text-anchor="middle" x="18.3848" y="-1663.4" font-family="Times New Roman,serif" font-size="9.00">95</text>
</g>
<!-- 1&#45;&gt;95 -->
<g id="edge71" class="edge"><title>1&#45;&gt;95</title>
<path fill="none" stroke="red" d="M1340.84,-1803.32C1231.81,-1800.51 308.95,-1774.35 50.3848,-1686.81 47.37,-1685.79 44.3505,-1684.43 41.4359,-1682.9"/>
<polygon fill="red" stroke="red" points="42.9949,-1679.76 32.6174,-1677.62 39.3986,-1685.76 42.9949,-1679.76"/>
</g>
<!-- 69 -->
<g id="node20" class="node"><title>69</title>
<ellipse fill="none" stroke="black" cx="1360.38" cy="-1287.61" rx="18.2703" ry="18.2703"/>
<text text-anchor="middle" x="1360.38" y="-1285.41" font-family="Times New Roman,serif" font-size="9.00">69</text>
</g>
<!-- 1&#45;&gt;69 -->
<g id="edge37" class="edge"><title>1&#45;&gt;69</title>
<path fill="none" stroke="red" d="M1349.22,-1795.31C1343.85,-1774.09 1330.38,-1715.92 1330.38,-1666.6 1330.38,-1666.6 1330.38,-1666.6 1330.38,-1432.15 1330.38,-1390.43 1342.68,-1343.3 1351.53,-1314.79"/>
<polygon fill="red" stroke="red" points="1354.89,-1315.76 1354.6,-1305.17 1348.22,-1313.63 1354.89,-1315.76"/>
</g>
<!-- 19 -->
<g id="node39" class="node"><title>19</title>
<ellipse fill="none" stroke="black" cx="1465.38" cy="-898.306" rx="18.2703" ry="18.2703"/>
<text text-anchor="middle" x="1465.38" y="-896.106" font-family="Times New Roman,serif" font-size="9.00">19</text>
</g>
<!-- 1&#45;&gt;19 -->
<g id="edge61" class="edge"><title>1&#45;&gt;19</title>
<path fill="none" stroke="green" d="M1361.96,-1800.72C1398.95,-1790 1520.38,-1748.56 1520.38,-1666.6 1520.38,-1666.6 1520.38,-1666.6 1520.38,-1054.16 1520.38,-1005.5 1495.98,-952.951 1479.68,-923.287"/>
<polygon fill="green" stroke="green" points="1482.68,-921.481 1474.71,-914.494 1476.58,-924.923 1482.68,-921.481"/>
</g>
<!-- 7 -->
<g id="node56" class="node"><title>7</title>
<ellipse fill="none" stroke="black" cx="1290.38" cy="-677.169" rx="14.7" ry="14.7"/>
<text text-anchor="middle" x="1290.38" y="-674.969" font-family="Times New Roman,serif" font-size="9.00">7</text>
</g>
<!-- 1&#45;&gt;7 -->
<g id="edge2" class="edge"><title>1&#45;&gt;7</title>
<path fill="none" stroke="green" d="M1362.14,-1802.68C1387.51,-1800.08 1452.09,-1790.63 1494.38,-1759.58 1534.83,-1729.89 1558.38,-1716.77 1558.38,-1666.6 1558.38,-1666.6 1558.38,-1666.6 1558.38,-821.708 1558.38,-711.963 1381.59,-685.799 1315.19,-679.843"/>
<polygon fill="green" stroke="green" points="1315.43,-676.351 1305.18,-679.025 1314.86,-683.327 1315.43,-676.351"/>
</g>
<!-- 2 -->
<g id="node2" class="node"><title>2</title>
<polygon fill="lightgray" stroke="black" points="966.885,-1369.38 945.885,-1369.38 945.885,-1351.38 966.885,-1351.38 966.885,-1369.38"/>
<text text-anchor="middle" x="956.385" y="-1358.18" font-family="Times New Roman,serif" font-size="9.00">2</text>
</g>
<!-- 5 -->
<g id="node5" class="node"><title>5</title>
<polygon fill="lightblue" stroke="black" points="920.885,-18 899.885,-18 899.885,-0 920.885,-0 920.885,-18"/>
<text text-anchor="middle" x="910.385" y="-6.8" font-family="Times New Roman,serif" font-size="9.00">5</text>
</g>
<!-- 2&#45;&gt;5 -->
<g id="edge8" class="edge"><title>2&#45;&gt;5</title>
<path fill="none" stroke="green" d="M955.026,-1351.27C949.82,-1320.24 930.566,-1206.14 913.385,-1112.37 896.004,-1017.52 872.385,-995.739 872.385,-899.306 872.385,-899.306 872.385,-899.306 872.385,-368.12 872.385,-237.045 897.869,-80.4824 907.098,-28.0809"/>
<polygon fill="green" stroke="green" points="910.58,-28.495 908.895,-18.0349 903.689,-27.2624 910.58,-28.495"/>
</g>
<!-- 84 -->
<g id="node13" class="node"><title>84</title>
<ellipse fill="none" stroke="black" cx="392.385" cy="-1212.01" rx="18.2703" ry="18.2703"/>
<text text-anchor="middle" x="392.385" y="-1209.81" font-family="Times New Roman,serif" font-size="9.00">84</text>
</g>
<!-- 2&#45;&gt;84 -->
<g id="edge106" class="edge"><title>2&#45;&gt;84</title>
<path fill="none" stroke="green" d="M945.467,-1358.68C877.32,-1354.26 511.83,-1329.57 468.385,-1305.99 439.845,-1290.5 417.901,-1259.44 405.091,-1237.49"/>
<polygon fill="green" stroke="green" points="408.112,-1235.73 400.168,-1228.72 402.007,-1239.15 408.112,-1235.73"/>
</g>
<!-- 35 -->
<g id="node16" class="node"><title>35</title>
<ellipse fill="none" stroke="black" cx="495.385" cy="-1287.61" rx="18.2703" ry="18.2703"/>
<text text-anchor="middle" x="495.385" y="-1285.41" font-family="Times New Roman,serif" font-size="9.00">35</text>
</g>
<!-- 2&#45;&gt;35 -->
<g id="edge10" class="edge"><title>2&#45;&gt;35</title>
<path fill="none" stroke="green" d="M945.444,-1357.7C887.204,-1348.76 612.907,-1306.65 523.579,-1292.94"/>
<polygon fill="green" stroke="green" points="524.044,-1289.47 513.629,-1291.41 522.982,-1296.39 524.044,-1289.47"/>
</g>
<!-- 43 -->
<g id="node29" class="node"><title>43</title>
<ellipse fill="none" stroke="black" cx="346.385" cy="-1133.58" rx="18.2703" ry="18.2703"/>
<text text-anchor="middle" x="346.385" y="-1131.38" font-family="Times New Roman,serif" font-size="9.00">43</text>
</g>
<!-- 2&#45;&gt;43 -->
<g id="edge112" class="edge"><title>2&#45;&gt;43</title>
<path fill="none" stroke="green" d="M945.861,-1358.82C875.19,-1354.97 471.056,-1331.97 423.385,-1305.99 387.067,-1286.21 382.686,-1270.79 365.385,-1233.22 354.995,-1210.67 350.285,-1182.68 348.151,-1162.29"/>
<polygon fill="green" stroke="green" points="351.617,-1161.75 347.232,-1152.1 344.645,-1162.38 351.617,-1161.75"/>
</g>
<!-- 54 -->
<g id="node30" class="node"><title>54</title>
<ellipse fill="none" stroke="black" cx="1314.38" cy="-976.732" rx="18.2703" ry="18.2703"/>
<text text-anchor="middle" x="1314.38" y="-974.532" font-family="Times New Roman,serif" font-size="9.00">54</text>
</g>
<!-- 2&#45;&gt;54 -->
<g id="edge41" class="edge"><title>2&#45;&gt;54</title>
<path fill="none" stroke="red" d="M967.163,-1354.79C997.353,-1341.29 1082.92,-1298.52 1119.38,-1233.22 1163.75,-1153.77 1104.31,-1100.48 1166.38,-1033.95 1203.21,-994.475 1233.37,-1020.55 1282.38,-997.945 1285.28,-996.612 1288.22,-995.06 1291.09,-993.419"/>
<polygon fill="red" stroke="red" points="1293.17,-996.248 1299.87,-988.036 1289.51,-990.28 1293.17,-996.248"/>
</g>
<!-- 94 -->
<g id="node31" class="node"><title>94</title>
<ellipse fill="none" stroke="black" cx="1267.38" cy="-1212.01" rx="18.2703" ry="18.2703"/>
<text text-anchor="middle" x="1267.38" y="-1209.81" font-family="Times New Roman,serif" font-size="9.00">94</text>
</g>
<!-- 2&#45;&gt;94 -->
<g id="edge90" class="edge"><title>2&#45;&gt;94</title>
<path fill="none" stroke="red" d="M967.236,-1356.93C994.281,-1350.6 1066.53,-1332.34 1122.38,-1305.99 1168.51,-1284.24 1217.53,-1250.2 1245.12,-1229.91"/>
<polygon fill="red" stroke="red" points="1247.35,-1232.61 1253.29,-1223.83 1243.18,-1226.99 1247.35,-1232.61"/>
</g>
<!-- 30 -->
<g id="node45" class="node"><title>30</title>
<ellipse fill="none" stroke="black" cx="403.385" cy="-749.938" rx="18.2703" ry="18.2703"/>
<text text-anchor="middle" x="403.385" y="-747.738" font-family="Times New Roman,serif" font-size="9.00">30</text>
</g>
<!-- 2&#45;&gt;30 -->
<g id="edge11" class="edge"><title>2&#45;&gt;30</title>
<path fill="none" stroke="red" d="M945.584,-1358.63C871.175,-1353.46 435.825,-1322.67 379.385,-1305.99 316.705,-1287.48 140.385,-1199.94 140.385,-1134.58 140.385,-1134.58 140.385,-1134.58 140.385,-1054.16 140.385,-909.698 312.847,-800.364 378.457,-763.997"/>
<polygon fill="red" stroke="red" points="380.221,-767.022 387.329,-759.165 376.873,-760.875 380.221,-767.022"/>
</g>
<!-- 50 -->
<g id="node46" class="node"><title>50</title>
<ellipse fill="none" stroke="black" cx="1137.38" cy="-749.938" rx="18.2703" ry="18.2703"/>
<text text-anchor="middle" x="1137.38" y="-747.738" font-family="Times New Roman,serif" font-size="9.00">50</text>
</g>
<!-- 2&#45;&gt;50 -->
<g id="edge30" class="edge"><title>2&#45;&gt;50</title>
<path fill="none" stroke="green" d="M960.114,-1351.16C977.582,-1312.35 1052.14,-1143.33 1092.38,-997.945 1114.08,-919.579 1128.05,-824.264 1134.04,-778.313"/>
<polygon fill="green" stroke="green" points="1137.53,-778.61 1135.32,-768.247 1130.58,-777.723 1137.53,-778.61"/>
</g>
<!-- 2&#45;&gt;7 -->
<g id="edge3" class="edge"><title>2&#45;&gt;7</title>
<path fill="none" stroke="red" d="M964.748,-1351.33C974.713,-1341.4 991.39,-1323.65 1002.38,-1305.99 1020.97,-1276.15 1019.79,-1265.64 1033.38,-1233.22 1080.02,-1122.01 1175.1,-832.956 1240.38,-731.553 1249.26,-717.77 1261.9,-704.312 1272.25,-694.357"/>
<polygon fill="red" stroke="red" points="1274.69,-696.862 1279.62,-687.48 1269.92,-691.744 1274.69,-696.862"/>
</g>
<!-- 3 -->
<g id="node3" class="node"><title>3</title>
<polygon fill="lightgray" stroke="black" points="834.885,-1296.61 813.885,-1296.61 813.885,-1278.61 834.885,-1278.61 834.885,-1296.61"/>
<text text-anchor="middle" x="824.385" y="-1285.41" font-family="Times New Roman,serif" font-size="9.00">3</text>
</g>
<!-- 3&#45;&gt;5 -->
<g id="edge1" class="edge"><title>3&#45;&gt;5</title>
<path fill="none" stroke="green" d="M831.253,-1278.38C847.174,-1258.64 886.103,-1206.42 897.385,-1154.8 901.411,-1136.38 900.468,-1130.97 897.385,-1112.37 881.239,-1014.95 834.385,-998.055 834.385,-899.306 834.385,-899.306 834.385,-899.306 834.385,-292.522 834.385,-188.821 882.724,-70.8315 902.299,-27.3028"/>
<polygon fill="green" stroke="green" points="905.53,-28.6534 906.511,-18.1041 899.166,-25.739 905.53,-28.6534"/>
</g>
<!-- 57 -->
<g id="node11" class="node"><title>57</title>
<ellipse fill="none" stroke="black" cx="776.385" cy="-1212.01" rx="18.2703" ry="18.2703"/>
<text text-anchor="middle" x="776.385" y="-1209.81" font-family="Times New Roman,serif" font-size="9.00">57</text>
</g>
<!-- 3&#45;&gt;57 -->
<g id="edge97" class="edge"><title>3&#45;&gt;57</title>
<path fill="none" stroke="red" d="M819.065,-1278.45C812.475,-1268.35 800.968,-1250.71 791.562,-1236.28"/>
<polygon fill="red" stroke="red" points="794.434,-1234.28 786.04,-1227.82 788.571,-1238.1 794.434,-1234.28"/>
</g>
<!-- 46 -->
<g id="node18" class="node"><title>46</title>
<ellipse fill="none" stroke="black" cx="620.385" cy="-976.732" rx="18.2703" ry="18.2703"/>
<text text-anchor="middle" x="620.385" y="-974.532" font-family="Times New Roman,serif" font-size="9.00">46</text>
</g>
<!-- 3&#45;&gt;46 -->
<g id="edge113" class="edge"><title>3&#45;&gt;46</title>
<path fill="none" stroke="red" d="M813.711,-1281.19C797.95,-1272.74 768.283,-1255.13 749.385,-1233.22 687.106,-1161.05 645.722,-1053.56 628.893,-1004.22"/>
<polygon fill="red" stroke="red" points="632.169,-1002.98 625.676,-994.611 625.531,-1005.2 632.169,-1002.98"/>
</g>
<!-- 83 -->
<g id="node21" class="node"><title>83</title>
<ellipse fill="none" stroke="black" cx="870.385" cy="-1133.58" rx="18.2703" ry="18.2703"/>
<text text-anchor="middle" x="870.385" y="-1131.38" font-family="Times New Roman,serif" font-size="9.00">83</text>
</g>
<!-- 3&#45;&gt;83 -->
<g id="edge47" class="edge"><title>3&#45;&gt;83</title>
<path fill="none" stroke="red" d="M826.858,-1278.44C833.465,-1256.6 851.748,-1196.18 862.4,-1160.97"/>
<polygon fill="red" stroke="red" points="865.766,-1161.93 865.312,-1151.35 859.066,-1159.91 865.766,-1161.93"/>
</g>
<!-- 29 -->
<g id="node36" class="node"><title>29</title>
<ellipse fill="none" stroke="black" cx="537.385" cy="-898.306" rx="18.2703" ry="18.2703"/>
<text text-anchor="middle" x="537.385" y="-896.106" font-family="Times New Roman,serif" font-size="9.00">29</text>
</g>
<!-- 3&#45;&gt;29 -->
<g id="edge21" class="edge"><title>3&#45;&gt;29</title>
<path fill="none" stroke="green" d="M813.756,-1283.8C792.566,-1277.73 744.511,-1261.61 714.385,-1233.22 618.232,-1142.62 563.836,-987.972 544.994,-926.073"/>
<polygon fill="green" stroke="green" points="548.289,-924.876 542.079,-916.292 541.581,-926.875 548.289,-924.876"/>
</g>
<!-- 36 -->
<g id="node37" class="node"><title>36</title>
<ellipse fill="none" stroke="black" cx="757.385" cy="-1055.16" rx="18.2703" ry="18.2703"/>
<text text-anchor="middle" x="757.385" y="-1052.96" font-family="Times New Roman,serif" font-size="9.00">36</text>
</g>
<!-- 3&#45;&gt;36 -->
<g id="edge12" class="edge"><title>3&#45;&gt;36</title>
<path fill="none" stroke="red" d="M825.132,-1278.55C827.171,-1252.98 831.082,-1171.87 805.385,-1112.37 799.303,-1098.29 788.436,-1085.1 778.578,-1075.04"/>
<polygon fill="red" stroke="red" points="780.942,-1072.46 771.333,-1068 776.063,-1077.48 780.942,-1072.46"/>
</g>
<!-- 3&#45;&gt;7 -->
<g id="edge6" class="edge"><title>3&#45;&gt;7</title>
<path fill="none" stroke="red" d="M834.954,-1282C852.706,-1273.91 889.052,-1255.86 914.385,-1233.22 1012.16,-1145.86 1026.37,-1111.24 1092.38,-997.945 1157.31,-886.524 1123.98,-829.905 1207.38,-731.553 1223.92,-712.059 1249.37,-697.156 1267.73,-688.113"/>
<polygon fill="red" stroke="red" points="1269.3,-691.244 1276.85,-683.813 1266.31,-684.912 1269.3,-691.244"/>
</g>
<!-- 4 -->
<g id="node4" class="node"><title>4</title>
<polygon fill="lightgray" stroke="black" points="1004.88,-1064.16 983.885,-1064.16 983.885,-1046.16 1004.88,-1046.16 1004.88,-1064.16"/>
<text text-anchor="middle" x="994.385" y="-1052.96" font-family="Times New Roman,serif" font-size="9.00">4</text>
</g>
<!-- 4&#45;&gt;5 -->
<g id="edge58" class="edge"><title>4&#45;&gt;5</title>
<path fill="none" stroke="green" d="M1002.75,-1045.95C1023.99,-1024.19 1078.38,-962.31 1078.38,-899.306 1078.38,-899.306 1078.38,-899.306 1078.38,-144.154 1078.38,-69.3288 975.362,-29.4261 930.669,-15.636"/>
<polygon fill="green" stroke="green" points="931.476,-12.2249 920.894,-12.7526 929.495,-18.9389 931.476,-12.2249"/>
</g>
<!-- 47 -->
<g id="node19" class="node"><title>47</title>
<ellipse fill="none" stroke="black" cx="994.385" cy="-976.732" rx="18.2703" ry="18.2703"/>
<text text-anchor="middle" x="994.385" y="-974.532" font-family="Times New Roman,serif" font-size="9.00">47</text>
</g>
<!-- 4&#45;&gt;47 -->
<g id="edge35" class="edge"><title>4&#45;&gt;47</title>
<path fill="none" stroke="red" d="M994.385,-1045.98C994.385,-1036.41 994.385,-1020.04 994.385,-1005.73"/>
<polygon fill="red" stroke="red" points="997.885,-1005.34 994.385,-995.338 990.885,-1005.34 997.885,-1005.34"/>
</g>
<!-- 11 -->
<g id="node38" class="node"><title>11</title>
<ellipse fill="none" stroke="black" cx="1314.38" cy="-898.306" rx="18.2703" ry="18.2703"/>
<text text-anchor="middle" x="1314.38" y="-896.106" font-family="Times New Roman,serif" font-size="9.00">11</text>
</g>
<!-- 4&#45;&gt;11 -->
<g id="edge59" class="edge"><title>4&#45;&gt;11</title>
<path fill="none" stroke="green" d="M1005.03,-1049.01C1049.7,-1027.39 1222.68,-943.684 1288.64,-911.766"/>
<polygon fill="green" stroke="green" points="1290.44,-914.781 1297.92,-907.275 1287.39,-908.48 1290.44,-914.781"/>
</g>
<!-- 4&#45;&gt;7 -->
<g id="edge7" class="edge"><title>4&#45;&gt;7</title>
<path fill="none" stroke="red" d="M1005.12,-1051.15C1032.62,-1043.35 1107.69,-1021.42 1168.38,-997.945 1207.75,-982.719 1317.18,-954.098 1341.38,-919.519 1389.32,-851.047 1370.37,-807.461 1335.38,-731.553 1328.98,-717.655 1317.95,-704.481 1308.41,-694.698"/>
<polygon fill="red" stroke="red" points="1310.79,-692.13 1301.2,-687.629 1305.89,-697.129 1310.79,-692.13"/>
</g>
<!-- 8 -->
<g id="node58" class="node"><title>8</title>
<ellipse fill="none" stroke="black" cx="978.385" cy="-444.718" rx="14.7" ry="14.7"/>
<text text-anchor="middle" x="978.385" y="-442.518" font-family="Times New Roman,serif" font-size="9.00">8</text>
</g>
<!-- 4&#45;&gt;8 -->
<g id="edge50" class="edge"><title>4&#45;&gt;8</title>
<path fill="none" stroke="red" d="M999.863,-1045.84C1006.48,-1035.24 1017.25,-1016.1 1021.38,-997.945 1025.57,-979.56 1022.03,-974.364 1021.38,-955.519 1017.16,-832.035 1002.38,-801.724 1002.38,-678.169 1002.38,-678.169 1002.38,-678.169 1002.38,-600.571 1002.38,-553.565 991.452,-499.471 984.344,-469.269"/>
<polygon fill="red" stroke="red" points="987.681,-468.175 981.926,-459.28 980.877,-469.823 987.681,-468.175"/>
</g>
<!-- 74&#45;&gt;101 -->
<g id="edge42" class="edge"><title>74&#45;&gt;101</title>
<path fill="none" stroke="red" d="M1201.35,-1733.79C1234.65,-1721.23 1308.91,-1693.2 1350.23,-1677.6"/>
<polygon fill="red" stroke="red" points="1351.62,-1680.82 1359.74,-1674.01 1349.15,-1674.27 1351.62,-1680.82"/>
</g>
<!-- 64 -->
<g id="node10" class="node"><title>64</title>
<ellipse fill="none" stroke="black" cx="1184.38" cy="-1433.15" rx="18.2703" ry="18.2703"/>
<text text-anchor="middle" x="1184.38" y="-1430.95" font-family="Times New Roman,serif" font-size="9.00">64</text>
</g>
<!-- 74&#45;&gt;64 -->
<g id="edge44" class="edge"><title>74&#45;&gt;64</title>
<path fill="none" stroke="green" d="M1184.38,-1722.42C1184.38,-1671.27 1184.38,-1523.46 1184.38,-1461.74"/>
<polygon fill="green" stroke="green" points="1187.88,-1461.59 1184.38,-1451.59 1180.88,-1461.59 1187.88,-1461.59"/>
</g>
<!-- 74&#45;&gt;43 -->
<g id="edge121" class="edge"><title>74&#45;&gt;43</title>
<path fill="none" stroke="green" d="M1165.91,-1739.31C1032.09,-1732.68 216.385,-1688.12 216.385,-1588.17 216.385,-1588.17 216.385,-1588.17 216.385,-1286.61 216.385,-1222.58 283.817,-1171.92 321.55,-1148.59"/>
<polygon fill="green" stroke="green" points="323.669,-1151.4 330.444,-1143.26 320.068,-1145.4 323.669,-1151.4"/>
</g>
<!-- 74&#45;&gt;30 -->
<g id="edge43" class="edge"><title>74&#45;&gt;30</title>
<path fill="none" stroke="green" d="M1165.97,-1739.86C1055.93,-1737.71 484.179,-1724.86 313.385,-1686.81 197.199,-1660.93 64.3848,-1707.21 64.3848,-1588.17 64.3848,-1588.17 64.3848,-1588.17 64.3848,-1054.16 64.3848,-911.924 143.778,-879.72 264.385,-804.323 300.111,-781.989 346.687,-766.455 375.818,-758.114"/>
<polygon fill="green" stroke="green" points="377.009,-761.416 385.708,-755.368 375.136,-754.671 377.009,-761.416"/>
</g>
<!-- 143 -->
<g id="node8" class="node"><title>143</title>
<ellipse fill="none" stroke="black" cx="1379.38" cy="-1587.17" rx="21.4286" ry="21.4286"/>
<text text-anchor="middle" x="1379.38" y="-1584.97" font-family="Times New Roman,serif" font-size="9.00">143</text>
</g>
<!-- 101&#45;&gt;143 -->
<g id="edge92" class="edge"><title>101&#45;&gt;143</title>
<path fill="none" stroke="green" d="M1379.38,-1644.12C1379.38,-1636.26 1379.38,-1627.12 1379.38,-1618.53"/>
<polygon fill="green" stroke="green" points="1382.88,-1618.45 1379.38,-1608.45 1375.88,-1618.45 1382.88,-1618.45"/>
</g>
<!-- 122 -->
<g id="node9" class="node"><title>122</title>
<ellipse fill="none" stroke="black" cx="1403.38" cy="-1508.75" rx="21.4286" ry="21.4286"/>
<text text-anchor="middle" x="1403.38" y="-1506.55" font-family="Times New Roman,serif" font-size="9.00">122</text>
</g>
<!-- 101&#45;&gt;122 -->
<g id="edge65" class="edge"><title>101&#45;&gt;122</title>
<path fill="none" stroke="red" d="M1391.19,-1647.78C1397.98,-1637.05 1405.84,-1622.55 1409.38,-1608.39 1415.03,-1585.81 1413.01,-1559.47 1409.86,-1539.69"/>
<polygon fill="red" stroke="red" points="1413.29,-1538.96 1408.09,-1529.72 1406.39,-1540.18 1413.29,-1538.96"/>
</g>
<!-- 101&#45;&gt;46 -->
<g id="edge57" class="edge"><title>101&#45;&gt;46</title>
<path fill="none" stroke="green" d="M1358.07,-1664.96C1234.19,-1666.48 612.385,-1666.31 612.385,-1509.75 612.385,-1509.75 612.385,-1509.75 612.385,-1132.58 612.385,-1088.04 615.728,-1036.37 618.092,-1005.41"/>
<polygon fill="green" stroke="green" points="621.587,-1005.61 618.88,-995.366 614.608,-1005.06 621.587,-1005.61"/>
</g>
<!-- 101&#45;&gt;11 -->
<g id="edge51" class="edge"><title>101&#45;&gt;11</title>
<path fill="none" stroke="green" d="M1395.93,-1651.65C1425.05,-1627.26 1482.38,-1571.42 1482.38,-1509.75 1482.38,-1509.75 1482.38,-1509.75 1482.38,-1286.61 1482.38,-1134.35 1485.22,-1077.72 1394.38,-955.519 1380.2,-936.437 1357.59,-921.409 1340.02,-911.71"/>
<polygon fill="green" stroke="green" points="1341.34,-908.449 1330.86,-906.878 1338.07,-914.641 1341.34,-908.449"/>
</g>
<!-- 143&#45;&gt;122 -->
<g id="edge93" class="edge"><title>143&#45;&gt;122</title>
<path fill="none" stroke="red" d="M1385.57,-1566.49C1388.22,-1558.05 1391.37,-1548.01 1394.28,-1538.74"/>
<polygon fill="red" stroke="red" points="1397.65,-1539.69 1397.31,-1529.1 1390.97,-1537.59 1397.65,-1539.69"/>
</g>
<!-- 122&#45;&gt;64 -->
<g id="edge66" class="edge"><title>122&#45;&gt;64</title>
<path fill="none" stroke="red" d="M1383.56,-1501.09C1344.1,-1487.82 1255.68,-1458.11 1211.12,-1443.13"/>
<polygon fill="red" stroke="red" points="1212.15,-1439.79 1201.56,-1439.92 1209.92,-1446.42 1212.15,-1439.79"/>
</g>
<!-- 122&#45;&gt;19 -->
<g id="edge74" class="edge"><title>122&#45;&gt;19</title>
<path fill="none" stroke="red" d="M1412.08,-1489.26C1424.12,-1461.94 1444.38,-1408.88 1444.38,-1361.38 1444.38,-1361.38 1444.38,-1361.38 1444.38,-1286.61 1444.38,-1216.49 1458.28,-1004.14 1463.47,-927.376"/>
<polygon fill="red" stroke="red" points="1466.98,-927.281 1464.16,-917.067 1460,-926.807 1466.98,-927.281"/>
</g>
<!-- 64&#45;&gt;5 -->
<g id="edge70" class="edge"><title>64&#45;&gt;5</title>
<path fill="none" stroke="red" d="M1171.9,-1419.43C1118.3,-1363.43 910.385,-1131.27 910.385,-899.306 910.385,-899.306 910.385,-899.306 910.385,-443.718 910.385,-342.392 948.385,-320.25 948.385,-218.924 948.385,-218.924 948.385,-218.924 948.385,-144.154 948.385,-100.945 929.91,-52.7693 918.724,-27.5605"/>
<polygon fill="red" stroke="red" points="921.802,-25.875 914.451,-18.2444 915.439,-28.7931 921.802,-25.875"/>
</g>
<!-- 49 -->
<g id="node17" class="node"><title>49</title>
<ellipse fill="none" stroke="black" cx="1268.38" cy="-1360.38" rx="18.2703" ry="18.2703"/>
<text text-anchor="middle" x="1268.38" y="-1358.18" font-family="Times New Roman,serif" font-size="9.00">49</text>
</g>
<!-- 64&#45;&gt;49 -->
<g id="edge26" class="edge"><title>64&#45;&gt;49</title>
<path fill="none" stroke="red" d="M1198.26,-1420.46C1211.47,-1409.33 1231.55,-1392.41 1246.84,-1379.53"/>
<polygon fill="red" stroke="red" points="1249.38,-1381.97 1254.77,-1372.85 1244.87,-1376.61 1249.38,-1381.97"/>
</g>
<!-- 59 -->
<g id="node26" class="node"><title>59</title>
<ellipse fill="none" stroke="black" cx="1196.38" cy="-1133.58" rx="18.2703" ry="18.2703"/>
<text text-anchor="middle" x="1196.38" y="-1131.38" font-family="Times New Roman,serif" font-size="9.00">59</text>
</g>
<!-- 64&#45;&gt;59 -->
<g id="edge64" class="edge"><title>64&#45;&gt;59</title>
<path fill="none" stroke="green" d="M1185.1,-1414.43C1187.11,-1364.6 1192.82,-1223 1195.26,-1162.52"/>
<polygon fill="green" stroke="green" points="1198.77,-1162.35 1195.67,-1152.21 1191.77,-1162.07 1198.77,-1162.35"/>
</g>
<!-- 12 -->
<g id="node57" class="node"><title>12</title>
<ellipse fill="none" stroke="black" cx="553.385" cy="-217.924" rx="18.2703" ry="18.2703"/>
<text text-anchor="middle" x="553.385" y="-215.724" font-family="Times New Roman,serif" font-size="9.00">12</text>
</g>
<!-- 64&#45;&gt;12 -->
<g id="edge116" class="edge"><title>64&#45;&gt;12</title>
<path fill="none" stroke="red" d="M1165.84,-1432.21C1070.57,-1431.96 627.562,-1424.24 292.385,-1305.99 185.133,-1268.16 102.385,-1248.32 102.385,-1134.58 102.385,-1134.58 102.385,-1134.58 102.385,-368.12 102.385,-300.219 159.348,-299.912 221.385,-272.309 326.078,-225.725 465.403,-219.192 524.707,-218.679"/>
<polygon fill="red" stroke="red" points="524.834,-222.179 534.822,-218.645 524.811,-215.179 524.834,-222.179"/>
</g>
<!-- 191 -->
<g id="node12" class="node"><title>191</title>
<ellipse fill="none" stroke="black" cx="775.385" cy="-1133.58" rx="21.4286" ry="21.4286"/>
<text text-anchor="middle" x="775.385" y="-1131.38" font-family="Times New Roman,serif" font-size="9.00">191</text>
</g>
<!-- 57&#45;&gt;191 -->
<g id="edge109" class="edge"><title>57&#45;&gt;191</title>
<path fill="none" stroke="red" d="M776.153,-1193.29C776.043,-1184.87 775.908,-1174.56 775.782,-1164.95"/>
<polygon fill="red" stroke="red" points="779.281,-1164.87 775.651,-1154.92 772.282,-1164.96 779.281,-1164.87"/>
</g>
<!-- 184 -->
<g id="node14" class="node"><title>184</title>
<ellipse fill="none" stroke="black" cx="699.385" cy="-1055.16" rx="21.4286" ry="21.4286"/>
<text text-anchor="middle" x="699.385" y="-1052.96" font-family="Times New Roman,serif" font-size="9.00">184</text>
</g>
<!-- 191&#45;&gt;184 -->
<g id="edge110" class="edge"><title>191&#45;&gt;184</title>
<path fill="none" stroke="green" d="M760.731,-1117.85C749.481,-1106.54 733.774,-1090.74 721.07,-1077.97"/>
<polygon fill="green" stroke="green" points="723.526,-1075.47 713.993,-1070.85 718.563,-1080.41 723.526,-1075.47"/>
</g>
<!-- 135 -->
<g id="node24" class="node"><title>135</title>
<ellipse fill="none" stroke="black" cx="449.385" cy="-1133.58" rx="21.4286" ry="21.4286"/>
<text text-anchor="middle" x="449.385" y="-1131.38" font-family="Times New Roman,serif" font-size="9.00">135</text>
</g>
<!-- 84&#45;&gt;135 -->
<g id="edge120" class="edge"><title>84&#45;&gt;135</title>
<path fill="none" stroke="red" d="M403.106,-1196.64C410.967,-1186.1 421.832,-1171.53 431.059,-1159.16"/>
<polygon fill="red" stroke="red" points="433.955,-1161.13 437.128,-1151.02 428.344,-1156.94 433.955,-1161.13"/>
</g>
<!-- 84&#45;&gt;43 -->
<g id="edge107" class="edge"><title>84&#45;&gt;43</title>
<path fill="none" stroke="green" d="M383.297,-1195.91C376.87,-1185.23 368.123,-1170.7 360.757,-1158.46"/>
<polygon fill="green" stroke="green" points="363.61,-1156.42 355.454,-1149.65 357.612,-1160.03 363.61,-1156.42"/>
</g>
<!-- 184&#45;&gt;46 -->
<g id="edge108" class="edge"><title>184&#45;&gt;46</title>
<path fill="none" stroke="green" d="M684.525,-1039.78C672.121,-1027.78 654.318,-1010.56 640.614,-997.303"/>
<polygon fill="green" stroke="green" points="642.712,-994.462 633.091,-990.025 637.845,-999.493 642.712,-994.462"/>
</g>
<!-- 63 -->
<g id="node35" class="node"><title>63</title>
<ellipse fill="none" stroke="black" cx="299.385" cy="-1055.16" rx="18.2703" ry="18.2703"/>
<text text-anchor="middle" x="299.385" y="-1052.96" font-family="Times New Roman,serif" font-size="9.00">63</text>
</g>
<!-- 95&#45;&gt;63 -->
<g id="edge72" class="edge"><title>95&#45;&gt;63</title>
<path fill="none" stroke="red" d="M35.2052,-1657.92C76.2846,-1640.37 178.385,-1588.8 178.385,-1509.75 178.385,-1509.75 178.385,-1509.75 178.385,-1286.61 178.385,-1200.49 245.448,-1114.87 279.721,-1076.74"/>
<polygon fill="red" stroke="red" points="282.711,-1078.66 286.891,-1068.92 277.552,-1073.93 282.711,-1078.66"/>
</g>
<!-- 55 -->
<g id="node23" class="node"><title>55</title>
<ellipse fill="none" stroke="black" cx="300.385" cy="-1212.01" rx="18.2703" ry="18.2703"/>
<text text-anchor="middle" x="300.385" y="-1209.81" font-family="Times New Roman,serif" font-size="9.00">55</text>
</g>
<!-- 35&#45;&gt;55 -->
<g id="edge62" class="edge"><title>35&#45;&gt;55</title>
<path fill="none" stroke="green" d="M478.421,-1280.21C444.423,-1267.38 367.724,-1238.43 326.983,-1223.05"/>
<polygon fill="green" stroke="green" points="328.04,-1219.71 317.448,-1219.45 325.568,-1226.26 328.04,-1219.71"/>
</g>
<!-- 35&#45;&gt;135 -->
<g id="edge81" class="edge"><title>35&#45;&gt;135</title>
<path fill="none" stroke="red" d="M490.286,-1269.76C482.594,-1244.34 467.912,-1195.81 458.391,-1164.35"/>
<polygon fill="red" stroke="red" points="461.623,-1162.95 455.377,-1154.39 454.923,-1164.97 461.623,-1162.95"/>
</g>
<!-- 195 -->
<g id="node33" class="node"><title>195</title>
<ellipse fill="none" stroke="black" cx="563.385" cy="-1212.01" rx="21.4286" ry="21.4286"/>
<text text-anchor="middle" x="563.385" y="-1209.81" font-family="Times New Roman,serif" font-size="9.00">195</text>
</g>
<!-- 35&#45;&gt;195 -->
<g id="edge122" class="edge"><title>35&#45;&gt;195</title>
<path fill="none" stroke="red" d="M507.542,-1273.45C517.194,-1263.01 530.918,-1248.15 542.346,-1235.78"/>
<polygon fill="red" stroke="red" points="545.242,-1237.81 549.457,-1228.09 540.1,-1233.06 545.242,-1237.81"/>
</g>
<!-- 35&#45;&gt;29 -->
<g id="edge88" class="edge"><title>35&#45;&gt;29</title>
<path fill="none" stroke="red" d="M497.271,-1269.22C503.919,-1207.91 526.298,-1001.54 534.413,-926.706"/>
<polygon fill="red" stroke="red" points="537.905,-926.971 535.504,-916.652 530.946,-926.216 537.905,-926.971"/>
</g>
<!-- 38 -->
<g id="node49" class="node"><title>38</title>
<ellipse fill="none" stroke="black" cx="487.385" cy="-677.169" rx="18.2703" ry="18.2703"/>
<text text-anchor="middle" x="487.385" y="-674.969" font-family="Times New Roman,serif" font-size="9.00">38</text>
</g>
<!-- 35&#45;&gt;38 -->
<g id="edge19" class="edge"><title>35&#45;&gt;38</title>
<path fill="none" stroke="red" d="M483.941,-1272.73C465.929,-1249.86 431.742,-1202.08 419.385,-1154.8 375.368,-986.381 447.969,-776.55 476.579,-704.144"/>
<polygon fill="red" stroke="red" points="479.982,-705.064 480.462,-694.48 473.486,-702.454 479.982,-705.064"/>
</g>
<!-- 35&#45;&gt;12 -->
<g id="edge27" class="edge"><title>35&#45;&gt;12</title>
<path fill="none" stroke="red" d="M476.986,-1284.15C429.762,-1277.54 305.71,-1258.17 273.385,-1233.22 202.678,-1178.67 178.385,-1145.47 178.385,-1056.16 178.385,-1056.16 178.385,-1056.16 178.385,-368.12 178.385,-293.459 438.26,-239.711 525.335,-223.797"/>
<polygon fill="red" stroke="red" points="526.076,-227.22 535.298,-222.004 524.836,-220.331 526.076,-227.22"/>
</g>
<!-- 17 -->
<g id="node62" class="node"><title>17</title>
<ellipse fill="none" stroke="black" cx="811.385" cy="-72.3848" rx="18.2703" ry="18.2703"/>
<text text-anchor="middle" x="811.385" y="-70.1848" font-family="Times New Roman,serif" font-size="9.00">17</text>
</g>
<!-- 35&#45;&gt;17 -->
<g id="edge82" class="edge"><title>35&#45;&gt;17</title>
<path fill="none" stroke="green" d="M511.887,-1278.82C531.82,-1269.14 566.075,-1251.64 593.385,-1233.22 604.77,-1225.55 778.1,-1088.58 784.385,-1076.37 820.49,-1006.24 796.385,-978.182 796.385,-899.306 796.385,-899.306 796.385,-899.306 796.385,-216.924 796.385,-176.266 802.412,-129.48 806.825,-100.67"/>
<polygon fill="green" stroke="green" points="810.319,-100.982 808.421,-90.5583 803.404,-99.89 810.319,-100.982"/>
</g>
<!-- 82 -->
<g id="node22" class="node"><title>82</title>
<ellipse fill="none" stroke="black" cx="1268.38" cy="-1287.61" rx="18.2703" ry="18.2703"/>
<text text-anchor="middle" x="1268.38" y="-1285.41" font-family="Times New Roman,serif" font-size="9.00">82</text>
</g>
<!-- 49&#45;&gt;82 -->
<g id="edge96" class="edge"><title>49&#45;&gt;82</title>
<path fill="none" stroke="red" d="M1268.38,-1341.89C1268.38,-1334.2 1268.38,-1324.99 1268.38,-1316.41"/>
<polygon fill="red" stroke="red" points="1271.88,-1316.39 1268.38,-1306.39 1264.88,-1316.39 1271.88,-1316.39"/>
</g>
<!-- 56 -->
<g id="node25" class="node"><title>56</title>
<ellipse fill="none" stroke="black" cx="1322.38" cy="-1212.01" rx="18.2703" ry="18.2703"/>
<text text-anchor="middle" x="1322.38" y="-1209.81" font-family="Times New Roman,serif" font-size="9.00">56</text>
</g>
<!-- 49&#45;&gt;56 -->
<g id="edge98" class="edge"><title>49&#45;&gt;56</title>
<path fill="none" stroke="green" d="M1277.21,-1343.85C1282.91,-1333.38 1290.21,-1319.14 1295.38,-1305.99 1303.93,-1284.32 1311.13,-1258.87 1315.95,-1240.08"/>
<polygon fill="green" stroke="green" points="1319.4,-1240.67 1318.43,-1230.12 1312.61,-1238.98 1319.4,-1240.67"/>
</g>
<!-- 49&#45;&gt;54 -->
<g id="edge114" class="edge"><title>49&#45;&gt;54</title>
<path fill="none" stroke="red" d="M1258.64,-1344.68C1252.38,-1334.34 1244.81,-1319.91 1241.38,-1305.99 1233.67,-1274.58 1240.61,-1265.57 1240.38,-1233.22 1240.26,-1214.37 1237.25,-1209.39 1240.38,-1190.8 1252.28,-1120.29 1284.86,-1041.96 1302.56,-1002.84"/>
<polygon fill="red" stroke="red" points="1305.83,-1004.1 1306.82,-993.55 1299.47,-1001.18 1305.83,-1004.1"/>
</g>
<!-- 49&#45;&gt;11 -->
<g id="edge24" class="edge"><title>49&#45;&gt;11</title>
<path fill="none" stroke="green" d="M1286.44,-1356.55C1312.88,-1351.42 1361.76,-1337.98 1387.38,-1305.99 1413.75,-1273.07 1406.38,-1255.19 1406.38,-1213.01 1406.38,-1213.01 1406.38,-1213.01 1406.38,-1054.16 1406.38,-998.706 1362.24,-945.775 1335.11,-918.48"/>
<polygon fill="green" stroke="green" points="1337.55,-915.974 1327.96,-911.48 1332.66,-920.976 1337.55,-915.974"/>
</g>
<!-- 46&#45;&gt;29 -->
<g id="edge17" class="edge"><title>46&#45;&gt;29</title>
<path fill="none" stroke="red" d="M607.049,-963.453C593.782,-951.236 573.242,-932.323 557.898,-918.194"/>
<polygon fill="red" stroke="red" points="560.141,-915.502 550.413,-911.302 555.399,-920.651 560.141,-915.502"/>
</g>
<!-- 46&#45;&gt;19 -->
<g id="edge28" class="edge"><title>46&#45;&gt;19</title>
<path fill="none" stroke="red" d="M638.129,-971.488C658.561,-966.779 693.194,-959.343 723.385,-955.519 996.336,-920.948 1067.91,-949.692 1341.38,-919.519 1374.58,-915.856 1412.43,-909.343 1437.49,-904.7"/>
<polygon fill="red" stroke="red" points="1438.21,-908.126 1447.39,-902.839 1436.92,-901.246 1438.21,-908.126"/>
</g>
<!-- 46&#45;&gt;38 -->
<g id="edge69" class="edge"><title>46&#45;&gt;38</title>
<path fill="none" stroke="green" d="M613.234,-959.734C591.404,-910.893 525.488,-763.418 498.794,-703.694"/>
<polygon fill="green" stroke="green" points="501.847,-701.947 494.571,-694.246 495.456,-704.804 501.847,-701.947"/>
</g>
<!-- 47&#45;&gt;29 -->
<g id="edge40" class="edge"><title>47&#45;&gt;29</title>
<path fill="none" stroke="red" d="M976.188,-972.689C905.821,-960.921 651.22,-918.343 565.657,-904.034"/>
<polygon fill="red" stroke="red" points="566.074,-900.555 555.634,-902.358 564.919,-907.459 566.074,-900.555"/>
</g>
<!-- 47&#45;&gt;11 -->
<g id="edge36" class="edge"><title>47&#45;&gt;11</title>
<path fill="none" stroke="red" d="M1012.05,-971.514C1064.92,-958.886 1222.26,-921.309 1286.55,-905.954"/>
<polygon fill="red" stroke="red" points="1287.47,-909.332 1296.38,-903.605 1285.84,-902.524 1287.47,-909.332"/>
</g>
<!-- 69&#45;&gt;54 -->
<g id="edge79" class="edge"><title>69&#45;&gt;54</title>
<path fill="none" stroke="green" d="M1359.45,-1268.98C1357.02,-1227.58 1349.41,-1121.07 1331.38,-1033.95 1329.32,-1023.97 1326.28,-1013.23 1323.34,-1003.83"/>
<polygon fill="green" stroke="green" points="1326.65,-1002.69 1320.24,-994.256 1319.99,-1004.85 1326.65,-1002.69"/>
</g>
<!-- 69&#45;&gt;94 -->
<g id="edge39" class="edge"><title>69&#45;&gt;94</title>
<path fill="none" stroke="red" d="M1346.26,-1275.43C1331.15,-1263.47 1306.99,-1244.35 1289.38,-1230.42"/>
<polygon fill="red" stroke="red" points="1291.35,-1227.51 1281.34,-1224.05 1287.01,-1233 1291.35,-1227.51"/>
</g>
<!-- 83&#45;&gt;36 -->
<g id="edge48" class="edge"><title>83&#45;&gt;36</title>
<path fill="none" stroke="green" d="M855.612,-1122.59C836.493,-1109.66 802.973,-1086.99 780.477,-1071.78"/>
<polygon fill="green" stroke="green" points="782.405,-1068.86 772.161,-1066.15 778.484,-1074.65 782.405,-1068.86"/>
</g>
<!-- 82&#45;&gt;56 -->
<g id="edge115" class="edge"><title>82&#45;&gt;56</title>
<path fill="none" stroke="red" d="M1278.8,-1272.42C1286.44,-1262 1296.98,-1247.63 1305.79,-1235.63"/>
<polygon fill="red" stroke="red" points="1308.73,-1237.54 1311.82,-1227.41 1303.08,-1233.4 1308.73,-1237.54"/>
</g>
<!-- 82&#45;&gt;94 -->
<g id="edge127" class="edge"><title>82&#45;&gt;94</title>
<path fill="none" stroke="red" d="M1268.15,-1269.17C1268.03,-1260.71 1267.89,-1250.33 1267.76,-1240.82"/>
<polygon fill="red" stroke="red" points="1271.26,-1240.53 1267.62,-1230.58 1264.26,-1240.63 1271.26,-1240.53"/>
</g>
<!-- 55&#45;&gt;43 -->
<g id="edge63" class="edge"><title>55&#45;&gt;43</title>
<path fill="none" stroke="red" d="M309.473,-1195.91C315.899,-1185.23 324.647,-1170.7 332.013,-1158.46"/>
<polygon fill="red" stroke="red" points="335.157,-1160.03 337.316,-1149.65 329.16,-1156.42 335.157,-1160.03"/>
</g>
<!-- 55&#45;&gt;63 -->
<g id="edge100" class="edge"><title>55&#45;&gt;63</title>
<path fill="none" stroke="red" d="M300.272,-1193.55C300.1,-1166.94 299.771,-1116 299.566,-1084.18"/>
<polygon fill="red" stroke="red" points="303.063,-1083.77 299.499,-1073.79 296.063,-1083.82 303.063,-1083.77"/>
</g>
<!-- 144 -->
<g id="node27" class="node"><title>144</title>
<ellipse fill="none" stroke="black" cx="487.385" cy="-1055.16" rx="21.4286" ry="21.4286"/>
<text text-anchor="middle" x="487.385" y="-1052.96" font-family="Times New Roman,serif" font-size="9.00">144</text>
</g>
<!-- 135&#45;&gt;144 -->
<g id="edge101" class="edge"><title>135&#45;&gt;144</title>
<path fill="none" stroke="red" d="M458.584,-1114.08C463.111,-1104.98 468.661,-1093.82 473.677,-1083.73"/>
<polygon fill="red" stroke="red" points="476.953,-1085 478.271,-1074.49 470.685,-1081.88 476.953,-1085"/>
</g>
<!-- 44 -->
<g id="node32" class="node"><title>44</title>
<ellipse fill="none" stroke="black" cx="489.385" cy="-976.732" rx="18.2703" ry="18.2703"/>
<text text-anchor="middle" x="489.385" y="-974.532" font-family="Times New Roman,serif" font-size="9.00">44</text>
</g>
<!-- 135&#45;&gt;44 -->
<g id="edge119" class="edge"><title>135&#45;&gt;44</title>
<path fill="none" stroke="red" d="M448.492,-1112.08C448.196,-1091.78 449.332,-1060.05 457.385,-1033.95 460.947,-1022.4 467.169,-1010.63 473.184,-1000.86"/>
<polygon fill="red" stroke="red" points="476.305,-1002.48 478.796,-992.181 470.427,-998.678 476.305,-1002.48"/>
</g>
<!-- 53 -->
<g id="node41" class="node"><title>53</title>
<ellipse fill="none" stroke="black" cx="354.385" cy="-1055.16" rx="18.2703" ry="18.2703"/>
<text text-anchor="middle" x="354.385" y="-1052.96" font-family="Times New Roman,serif" font-size="9.00">53</text>
</g>
<!-- 135&#45;&gt;53 -->
<g id="edge83" class="edge"><title>135&#45;&gt;53</title>
<path fill="none" stroke="red" d="M433.269,-1119.62C417.62,-1107.03 393.743,-1087.82 376.358,-1073.84"/>
<polygon fill="red" stroke="red" points="378.394,-1070.98 368.409,-1067.44 374.006,-1076.44 378.394,-1070.98"/>
</g>
<!-- 56&#45;&gt;59 -->
<g id="edge117" class="edge"><title>56&#45;&gt;59</title>
<path fill="none" stroke="red" d="M1308.05,-1200.23C1303.73,-1197.09 1298.92,-1193.72 1294.38,-1190.8 1270.06,-1175.1 1241.2,-1158.81 1221.12,-1147.84"/>
<polygon fill="red" stroke="red" points="1222.76,-1144.74 1212.3,-1143.05 1219.42,-1150.89 1222.76,-1144.74"/>
</g>
<!-- 56&#45;&gt;54 -->
<g id="edge99" class="edge"><title>56&#45;&gt;54</title>
<path fill="none" stroke="red" d="M1321.78,-1193.48C1320.4,-1153.19 1316.99,-1053.75 1315.33,-1005.24"/>
<polygon fill="red" stroke="red" points="1318.82,-1005.03 1314.98,-995.151 1311.83,-1005.27 1318.82,-1005.03"/>
</g>
<!-- 129 -->
<g id="node28" class="node"><title>129</title>
<ellipse fill="none" stroke="black" cx="1196.38" cy="-1055.16" rx="21.4286" ry="21.4286"/>
<text text-anchor="middle" x="1196.38" y="-1052.96" font-family="Times New Roman,serif" font-size="9.00">129</text>
</g>
<!-- 59&#45;&gt;129 -->
<g id="edge75" class="edge"><title>59&#45;&gt;129</title>
<path fill="none" stroke="red" d="M1196.38,-1114.86C1196.38,-1106.44 1196.38,-1096.14 1196.38,-1086.52"/>
<polygon fill="red" stroke="red" points="1199.88,-1086.49 1196.38,-1076.49 1192.88,-1086.49 1199.88,-1086.49"/>
</g>
<!-- 144&#45;&gt;44 -->
<g id="edge102" class="edge"><title>144&#45;&gt;44</title>
<path fill="none" stroke="green" d="M487.921,-1033.68C488.149,-1024.94 488.42,-1014.61 488.665,-1005.22"/>
<polygon fill="green" stroke="green" points="492.166,-1005.25 488.929,-995.158 485.168,-1005.06 492.166,-1005.25"/>
</g>
<!-- 129&#45;&gt;54 -->
<g id="edge76" class="edge"><title>129&#45;&gt;54</title>
<path fill="none" stroke="green" d="M1213.8,-1042.88C1234.17,-1029.69 1268.01,-1007.77 1290.74,-993.043"/>
<polygon fill="green" stroke="green" points="1292.66,-995.97 1299.15,-987.596 1288.86,-990.095 1292.66,-995.97"/>
</g>
<!-- 43&#45;&gt;63 -->
<g id="edge25" class="edge"><title>43&#45;&gt;63</title>
<path fill="none" stroke="green" d="M337.099,-1117.49C330.533,-1106.81 321.596,-1092.28 314.069,-1080.04"/>
<polygon fill="green" stroke="green" points="316.871,-1077.91 308.651,-1071.23 310.908,-1081.58 316.871,-1077.91"/>
</g>
<!-- 43&#45;&gt;53 -->
<g id="edge45" class="edge"><title>43&#45;&gt;53</title>
<path fill="none" stroke="red" d="M348.2,-1115.24C349.175,-1105.93 350.4,-1094.23 351.502,-1083.7"/>
<polygon fill="red" stroke="red" points="354.989,-1084.01 352.549,-1073.7 348.027,-1083.28 354.989,-1084.01"/>
</g>
<!-- 54&#45;&gt;11 -->
<g id="edge20" class="edge"><title>54&#45;&gt;11</title>
<path fill="none" stroke="green" d="M1314.38,-958.006C1314.38,-948.843 1314.38,-937.447 1314.38,-927.141"/>
<polygon fill="green" stroke="green" points="1317.88,-926.935 1314.38,-916.935 1310.88,-926.935 1317.88,-926.935"/>
</g>
<!-- 44&#45;&gt;29 -->
<g id="edge80" class="edge"><title>44&#45;&gt;29</title>
<path fill="none" stroke="green" d="M498.868,-960.633C505.574,-949.956 514.701,-935.422 522.388,-923.184"/>
<polygon fill="green" stroke="green" points="525.567,-924.704 527.921,-914.374 519.639,-920.981 525.567,-924.704"/>
</g>
<!-- 199 -->
<g id="node34" class="node"><title>199</title>
<ellipse fill="none" stroke="black" cx="563.385" cy="-1133.58" rx="21.4286" ry="21.4286"/>
<text text-anchor="middle" x="563.385" y="-1131.38" font-family="Times New Roman,serif" font-size="9.00">199</text>
</g>
<!-- 195&#45;&gt;199 -->
<g id="edge123" class="edge"><title>195&#45;&gt;199</title>
<path fill="none" stroke="red" d="M563.385,-1190.53C563.385,-1182.67 563.385,-1173.53 563.385,-1164.94"/>
<polygon fill="red" stroke="red" points="566.885,-1164.86 563.385,-1154.86 559.885,-1164.86 566.885,-1164.86"/>
</g>
<!-- 199&#45;&gt;36 -->
<g id="edge124" class="edge"><title>199&#45;&gt;36</title>
<path fill="none" stroke="green" d="M583.844,-1127.77C615.984,-1119.74 679.755,-1101.95 729.385,-1076.37 731.183,-1075.44 732.994,-1074.41 734.783,-1073.31"/>
<polygon fill="green" stroke="green" points="737.049,-1076.01 743.384,-1067.52 733.136,-1070.2 737.049,-1076.01"/>
</g>
<!-- 48 -->
<g id="node44" class="node"><title>48</title>
<ellipse fill="none" stroke="black" cx="403.385" cy="-822.708" rx="18.2703" ry="18.2703"/>
<text text-anchor="middle" x="403.385" y="-820.508" font-family="Times New Roman,serif" font-size="9.00">48</text>
</g>
<!-- 29&#45;&gt;48 -->
<g id="edge33" class="edge"><title>29&#45;&gt;48</title>
<path fill="none" stroke="green" d="M521.487,-888.574C498.418,-875.903 455.447,-852.303 428.19,-837.331"/>
<polygon fill="green" stroke="green" points="429.712,-834.174 419.262,-832.428 426.342,-840.31 429.712,-834.174"/>
</g>
<!-- 29&#45;&gt;12 -->
<g id="edge23" class="edge"><title>29&#45;&gt;12</title>
<path fill="none" stroke="red" d="M550.51,-884.983C574.135,-861.396 621.385,-807.191 621.385,-750.938 621.385,-750.938 621.385,-750.938 621.385,-368.12 621.385,-319.317 590.886,-268.966 570.739,-241.029"/>
<polygon fill="red" stroke="red" points="573.384,-238.72 564.614,-232.776 567.763,-242.892 573.384,-238.72"/>
</g>
<!-- 79 -->
<g id="node40" class="node"><title>79</title>
<ellipse fill="none" stroke="black" cx="750.385" cy="-976.732" rx="18.2703" ry="18.2703"/>
<text text-anchor="middle" x="750.385" y="-974.532" font-family="Times New Roman,serif" font-size="9.00">79</text>
</g>
<!-- 36&#45;&gt;79 -->
<g id="edge32" class="edge"><title>36&#45;&gt;79</title>
<path fill="none" stroke="red" d="M755.796,-1036.82C754.943,-1027.5 753.871,-1015.8 752.907,-1005.27"/>
<polygon fill="red" stroke="red" points="756.389,-1004.91 751.991,-995.27 749.418,-1005.55 756.389,-1004.91"/>
</g>
<!-- 36&#45;&gt;30 -->
<g id="edge38" class="edge"><title>36&#45;&gt;30</title>
<path fill="none" stroke="red" d="M743.507,-1043.06C729.761,-1031.94 708.239,-1014.2 690.385,-997.945 670.529,-979.874 666.699,-974.167 647.385,-955.519 610.875,-920.266 602.845,-910.207 564.385,-877.092 516.666,-836.006 457.805,-791.309 426.135,-767.717"/>
<polygon fill="red" stroke="red" points="428.07,-764.795 417.955,-761.643 423.897,-770.415 428.07,-764.795"/>
</g>
<!-- 58 -->
<g id="node48" class="node"><title>58</title>
<ellipse fill="none" stroke="black" cx="975.385" cy="-822.708" rx="18.2703" ry="18.2703"/>
<text text-anchor="middle" x="975.385" y="-820.508" font-family="Times New Roman,serif" font-size="9.00">58</text>
</g>
<!-- 36&#45;&gt;58 -->
<g id="edge77" class="edge"><title>36&#45;&gt;58</title>
<path fill="none" stroke="red" d="M769.73,-1041.11C806.002,-1002.76 912.44,-890.248 956.23,-843.957"/>
<polygon fill="red" stroke="red" points="958.845,-846.285 963.175,-836.615 953.76,-841.474 958.845,-846.285"/>
</g>
<!-- 36&#45;&gt;12 -->
<g id="edge22" class="edge"><title>36&#45;&gt;12</title>
<path fill="none" stroke="green" d="M746.621,-1039.64C739.023,-1028.7 729.198,-1013.06 723.385,-997.945 707.36,-956.275 704.385,-943.951 704.385,-899.306 704.385,-899.306 704.385,-899.306 704.385,-368.12 704.385,-298.714 622.663,-250.682 579.459,-230.138"/>
<polygon fill="green" stroke="green" points="580.669,-226.842 570.121,-225.841 577.742,-233.201 580.669,-226.842"/>
</g>
<!-- 26 -->
<g id="node47" class="node"><title>26</title>
<ellipse fill="none" stroke="black" cx="1305.38" cy="-822.708" rx="18.2703" ry="18.2703"/>
<text text-anchor="middle" x="1305.38" y="-820.508" font-family="Times New Roman,serif" font-size="9.00">26</text>
</g>
<!-- 11&#45;&gt;26 -->
<g id="edge55" class="edge"><title>11&#45;&gt;26</title>
<path fill="none" stroke="red" d="M1312.25,-879.864C1311.2,-871.248 1309.9,-860.653 1308.72,-850.997"/>
<polygon fill="red" stroke="red" points="1312.19,-850.525 1307.5,-841.024 1305.24,-851.375 1312.19,-850.525"/>
</g>
<!-- 11&#45;&gt;7 -->
<g id="edge60" class="edge"><title>11&#45;&gt;7</title>
<path fill="none" stroke="green" d="M1321.12,-880.907C1325.29,-869.866 1330.23,-854.862 1332.38,-841.092 1340.44,-789.53 1316.79,-730.583 1301.77,-699.674"/>
<polygon fill="green" stroke="green" points="1304.87,-698.034 1297.25,-690.668 1298.61,-701.176 1304.87,-698.034"/>
</g>
<!-- 19&#45;&gt;7 -->
<g id="edge18" class="edge"><title>19&#45;&gt;7</title>
<path fill="none" stroke="red" d="M1460.77,-880.227C1450.33,-842.613 1424.19,-754.165 1403.38,-731.553 1379.48,-705.565 1340.3,-691.044 1314.93,-683.913"/>
<polygon fill="red" stroke="red" points="1315.54,-680.457 1304.98,-681.298 1313.76,-687.227 1315.54,-680.457"/>
</g>
<!-- 40 -->
<g id="node59" class="node"><title>40</title>
<ellipse fill="none" stroke="black" cx="1290.38" cy="-601.571" rx="18.2703" ry="18.2703"/>
<text text-anchor="middle" x="1290.38" y="-599.371" font-family="Times New Roman,serif" font-size="9.00">40</text>
</g>
<!-- 19&#45;&gt;40 -->
<g id="edge56" class="edge"><title>19&#45;&gt;40</title>
<path fill="none" stroke="green" d="M1465.25,-879.887C1464.24,-848.01 1458.43,-779.188 1428.38,-731.553 1397.82,-683.08 1344.68,-640.683 1314.03,-618.653"/>
<polygon fill="green" stroke="green" points="1315.84,-615.647 1305.65,-612.738 1311.8,-621.366 1315.84,-615.647"/>
</g>
<!-- 169 -->
<g id="node42" class="node"><title>169</title>
<ellipse fill="none" stroke="black" cx="318.385" cy="-976.732" rx="21.4286" ry="21.4286"/>
<text text-anchor="middle" x="318.385" y="-974.532" font-family="Times New Roman,serif" font-size="9.00">169</text>
</g>
<!-- 53&#45;&gt;169 -->
<g id="edge125" class="edge"><title>53&#45;&gt;169</title>
<path fill="none" stroke="red" d="M346.926,-1038.32C342.465,-1028.85 336.672,-1016.56 331.472,-1005.51"/>
<polygon fill="red" stroke="red" points="334.53,-1003.79 327.102,-996.239 328.197,-1006.78 334.53,-1003.79"/>
</g>
<!-- 132 -->
<g id="node43" class="node"><title>132</title>
<ellipse fill="none" stroke="black" cx="356.385" cy="-898.306" rx="21.4286" ry="21.4286"/>
<text text-anchor="middle" x="356.385" y="-896.106" font-family="Times New Roman,serif" font-size="9.00">132</text>
</g>
<!-- 53&#45;&gt;132 -->
<g id="edge84" class="edge"><title>53&#45;&gt;132</title>
<path fill="none" stroke="red" d="M354.61,-1036.7C354.945,-1010.76 355.579,-961.685 355.992,-929.753"/>
<polygon fill="red" stroke="red" points="359.493,-929.683 356.122,-919.639 352.493,-929.593 359.493,-929.683"/>
</g>
<!-- 53&#45;&gt;48 -->
<g id="edge89" class="edge"><title>53&#45;&gt;48</title>
<path fill="none" stroke="red" d="M359.192,-1036.99C362.245,-1025.89 366.205,-1011.1 369.385,-997.945 377.763,-963.278 379.49,-954.512 386.385,-919.519 390.931,-896.443 395.56,-870.13 398.838,-850.925"/>
<polygon fill="red" stroke="red" points="402.291,-851.497 400.51,-841.053 395.389,-850.328 402.291,-851.497"/>
</g>
<!-- 53&#45;&gt;30 -->
<g id="edge46" class="edge"><title>53&#45;&gt;30</title>
<path fill="none" stroke="green" d="M340.206,-1043.13C321.659,-1028.55 291.177,-1003.99 288.385,-997.945 280.479,-980.827 284.167,-973.897 288.385,-955.519 305.189,-882.3 357.439,-808.43 385.362,-772.826"/>
<polygon fill="green" stroke="green" points="388.405,-774.624 391.9,-764.622 382.931,-770.261 388.405,-774.624"/>
</g>
<!-- 169&#45;&gt;132 -->
<g id="edge126" class="edge"><title>169&#45;&gt;132</title>
<path fill="none" stroke="red" d="M327.584,-957.231C332.111,-948.125 337.661,-936.963 342.677,-926.876"/>
<polygon fill="red" stroke="red" points="345.953,-928.149 347.271,-917.636 339.685,-925.032 345.953,-928.149"/>
</g>
<!-- 132&#45;&gt;48 -->
<g id="edge85" class="edge"><title>132&#45;&gt;48</title>
<path fill="none" stroke="red" d="M367.523,-879.864C373.801,-870.034 381.723,-857.628 388.524,-846.978"/>
<polygon fill="red" stroke="red" points="391.48,-848.852 393.913,-838.54 385.58,-845.085 391.48,-848.852"/>
</g>
<!-- 48&#45;&gt;30 -->
<g id="edge34" class="edge"><title>48&#45;&gt;30</title>
<path fill="none" stroke="green" d="M403.385,-804.214C403.385,-796.532 403.385,-787.323 403.385,-778.738"/>
<polygon fill="green" stroke="green" points="406.885,-778.722 403.385,-768.722 399.885,-778.722 406.885,-778.722"/>
</g>
<!-- 30&#45;&gt;38 -->
<g id="edge13" class="edge"><title>30&#45;&gt;38</title>
<path fill="none" stroke="green" d="M417.256,-737.252C430.466,-726.122 450.548,-709.203 465.842,-696.318"/>
<polygon fill="green" stroke="green" points="468.379,-698.757 473.772,-689.637 463.869,-693.404 468.379,-698.757"/>
</g>
<!-- 30&#45;&gt;12 -->
<g id="edge9" class="edge"><title>30&#45;&gt;12</title>
<path fill="none" stroke="green" d="M407.048,-731.906C412.569,-704.705 422.385,-649.719 422.385,-602.571 422.385,-602.571 422.385,-602.571 422.385,-368.12 422.385,-304.566 490.336,-255.168 528.359,-232.501"/>
<polygon fill="green" stroke="green" points="530.414,-235.355 537.322,-227.322 526.912,-229.295 530.414,-235.355"/>
</g>
<!-- 13 -->
<g id="node61" class="node"><title>13</title>
<ellipse fill="none" stroke="black" cx="1191.38" cy="-523.144" rx="18.2703" ry="18.2703"/>
<text text-anchor="middle" x="1191.38" y="-520.944" font-family="Times New Roman,serif" font-size="9.00">13</text>
</g>
<!-- 50&#45;&gt;13 -->
<g id="edge31" class="edge"><title>50&#45;&gt;13</title>
<path fill="none" stroke="red" d="M1141.53,-731.672C1150.88,-692.757 1173.65,-597.957 1184.89,-551.171"/>
<polygon fill="red" stroke="red" points="1188.36,-551.702 1187.3,-541.161 1181.56,-550.067 1188.36,-551.702"/>
</g>
<!-- 27 -->
<g id="node50" class="node"><title>27</title>
<ellipse fill="none" stroke="black" cx="1267.38" cy="-749.938" rx="18.2703" ry="18.2703"/>
<text text-anchor="middle" x="1267.38" y="-747.738" font-family="Times New Roman,serif" font-size="9.00">27</text>
</g>
<!-- 26&#45;&gt;27 -->
<g id="edge86" class="edge"><title>26&#45;&gt;27</title>
<path fill="none" stroke="red" d="M1296.95,-806.002C1292.13,-797.023 1285.98,-785.565 1280.53,-775.429"/>
<polygon fill="red" stroke="red" points="1283.61,-773.755 1275.79,-766.6 1277.44,-777.066 1283.61,-773.755"/>
</g>
<!-- 26&#45;&gt;7 -->
<g id="edge91" class="edge"><title>26&#45;&gt;7</title>
<path fill="none" stroke="green" d="M1303.58,-804.394C1300.91,-778.872 1295.91,-731.064 1292.89,-702.171"/>
<polygon fill="green" stroke="green" points="1296.36,-701.692 1291.84,-692.11 1289.4,-702.42 1296.36,-701.692"/>
</g>
<!-- 58&#45;&gt;7 -->
<g id="edge78" class="edge"><title>58&#45;&gt;7</title>
<path fill="none" stroke="green" d="M989.121,-810.467C1012.63,-791.722 1062.67,-753.933 1110.38,-731.553 1163.34,-706.717 1230.49,-690.47 1265.92,-682.973"/>
<polygon fill="green" stroke="green" points="1266.76,-686.374 1275.85,-680.928 1265.35,-679.518 1266.76,-686.374"/>
</g>
<!-- 111 -->
<g id="node51" class="node"><title>111</title>
<ellipse fill="none" stroke="black" cx="534.385" cy="-601.571" rx="21.4286" ry="21.4286"/>
<text text-anchor="middle" x="534.385" y="-599.371" font-family="Times New Roman,serif" font-size="9.00">111</text>
</g>
<!-- 38&#45;&gt;111 -->
<g id="edge52" class="edge"><title>38&#45;&gt;111</title>
<path fill="none" stroke="green" d="M496.896,-661.275C502.949,-651.796 510.949,-639.268 518.004,-628.221"/>
<polygon fill="green" stroke="green" points="520.972,-630.077 523.404,-619.765 515.072,-626.309 520.972,-630.077"/>
</g>
<!-- 38&#45;&gt;12 -->
<g id="edge14" class="edge"><title>38&#45;&gt;12</title>
<path fill="none" stroke="green" d="M486.999,-658.382C486.418,-630 485.385,-572.712 485.385,-524.144 485.385,-524.144 485.385,-524.144 485.385,-368.12 485.385,-319.317 515.883,-268.966 536.03,-241.029"/>
<polygon fill="green" stroke="green" points="539.006,-242.892 542.156,-232.776 533.385,-238.72 539.006,-242.892"/>
</g>
<!-- 27&#45;&gt;7 -->
<g id="edge87" class="edge"><title>27&#45;&gt;7</title>
<path fill="none" stroke="green" d="M1272.84,-732.167C1275.83,-722.945 1279.6,-711.364 1282.87,-701.295"/>
<polygon fill="green" stroke="green" points="1286.29,-702.103 1286.05,-691.511 1279.63,-699.94 1286.29,-702.103"/>
</g>
<!-- 134 -->
<g id="node52" class="node"><title>134</title>
<ellipse fill="none" stroke="black" cx="572.385" cy="-523.144" rx="21.4286" ry="21.4286"/>
<text text-anchor="middle" x="572.385" y="-520.944" font-family="Times New Roman,serif" font-size="9.00">134</text>
</g>
<!-- 111&#45;&gt;134 -->
<g id="edge103" class="edge"><title>111&#45;&gt;134</title>
<path fill="none" stroke="green" d="M543.584,-582.07C548.111,-572.964 553.661,-561.801 558.677,-551.714"/>
<polygon fill="green" stroke="green" points="561.953,-552.987 563.271,-542.475 555.685,-549.871 561.953,-552.987"/>
</g>
<!-- 126 -->
<g id="node53" class="node"><title>126</title>
<ellipse fill="none" stroke="black" cx="553.385" cy="-444.718" rx="21.4286" ry="21.4286"/>
<text text-anchor="middle" x="553.385" y="-442.518" font-family="Times New Roman,serif" font-size="9.00">126</text>
</g>
<!-- 111&#45;&gt;126 -->
<g id="edge118" class="edge"><title>111&#45;&gt;126</title>
<path fill="none" stroke="green" d="M535.373,-580.095C536.497,-560.094 538.675,-528.823 542.385,-501.931 543.573,-493.317 545.233,-484.029 546.904,-475.532"/>
<polygon fill="green" stroke="green" points="550.348,-476.157 548.916,-465.659 543.489,-474.759 550.348,-476.157"/>
</g>
<!-- 134&#45;&gt;126 -->
<g id="edge104" class="edge"><title>134&#45;&gt;126</title>
<path fill="none" stroke="green" d="M567.492,-502.463C565.447,-494.236 563.026,-484.498 560.772,-475.432"/>
<polygon fill="green" stroke="green" points="564.137,-474.459 558.327,-465.598 557.343,-476.147 564.137,-474.459"/>
</g>
<!-- 52 -->
<g id="node54" class="node"><title>52</title>
<ellipse fill="none" stroke="black" cx="553.385" cy="-369.12" rx="18.2703" ry="18.2703"/>
<text text-anchor="middle" x="553.385" y="-366.92" font-family="Times New Roman,serif" font-size="9.00">52</text>
</g>
<!-- 126&#45;&gt;52 -->
<g id="edge73" class="edge"><title>126&#45;&gt;52</title>
<path fill="none" stroke="green" d="M553.385,-423.217C553.385,-415.321 553.385,-406.172 553.385,-397.715"/>
<polygon fill="green" stroke="green" points="556.885,-397.521 553.385,-387.521 549.885,-397.521 556.885,-397.521"/>
</g>
<!-- 124 -->
<g id="node55" class="node"><title>124</title>
<ellipse fill="none" stroke="black" cx="553.385" cy="-293.522" rx="21.4286" ry="21.4286"/>
<text text-anchor="middle" x="553.385" y="-291.322" font-family="Times New Roman,serif" font-size="9.00">124</text>
</g>
<!-- 52&#45;&gt;124 -->
<g id="edge67" class="edge"><title>52&#45;&gt;124</title>
<path fill="none" stroke="green" d="M553.385,-350.678C553.385,-343.063 553.385,-333.901 553.385,-325.207"/>
<polygon fill="green" stroke="green" points="556.885,-324.971 553.385,-314.971 549.885,-324.971 556.885,-324.971"/>
</g>
<!-- 124&#45;&gt;12 -->
<g id="edge68" class="edge"><title>124&#45;&gt;12</title>
<path fill="none" stroke="red" d="M553.385,-272.021C553.385,-264.125 553.385,-254.976 553.385,-246.519"/>
<polygon fill="red" stroke="red" points="556.885,-246.325 553.385,-236.325 549.885,-246.325 556.885,-246.325"/>
</g>
<!-- 7&#45;&gt;40 -->
<g id="edge15" class="edge"><title>7&#45;&gt;40</title>
<path fill="none" stroke="green" d="M1290.38,-661.978C1290.38,-653.018 1290.38,-641.139 1290.38,-630.359"/>
<polygon fill="green" stroke="green" points="1293.88,-630.094 1290.38,-620.094 1286.88,-630.094 1293.88,-630.094"/>
</g>
<!-- 7&#45;&gt;13 -->
<g id="edge111" class="edge"><title>7&#45;&gt;13</title>
<path fill="none" stroke="red" d="M1282.62,-664.24C1266.28,-639.159 1228.13,-580.569 1206.7,-547.655"/>
<polygon fill="red" stroke="red" points="1209.52,-545.572 1201.13,-539.102 1203.65,-549.392 1209.52,-545.572"/>
</g>
<!-- 12&#45;&gt;5 -->
<g id="edge4" class="edge"><title>12&#45;&gt;5</title>
<path fill="none" stroke="green" d="M557.971,-200.023C568.09,-166.216 595.722,-90.3888 648.385,-54 687.619,-26.8902 834.424,-14.8676 889.413,-11.2472"/>
<polygon fill="green" stroke="green" points="889.922,-14.7222 899.682,-10.5998 889.481,-7.73607 889.922,-14.7222"/>
</g>
<!-- 91 -->
<g id="node60" class="node"><title>91</title>
<ellipse fill="none" stroke="black" cx="675.385" cy="-145.154" rx="18.2703" ry="18.2703"/>
<text text-anchor="middle" x="675.385" y="-142.954" font-family="Times New Roman,serif" font-size="9.00">91</text>
</g>
<!-- 12&#45;&gt;91 -->
<g id="edge94" class="edge"><title>12&#45;&gt;91</title>
<path fill="none" stroke="green" d="M568.836,-207.961C589.531,-195.956 626.477,-174.525 650.96,-160.323"/>
<polygon fill="green" stroke="green" points="652.78,-163.313 659.673,-155.268 649.267,-157.258 652.78,-163.313"/>
</g>
<!-- 8&#45;&gt;17 -->
<g id="edge53" class="edge"><title>8&#45;&gt;17</title>
<path fill="none" stroke="green" d="M972.636,-430.97C948.589,-377.644 855.79,-171.857 822.968,-99.0722"/>
<polygon fill="green" stroke="green" points="826.05,-97.3915 818.749,-89.7144 819.669,-100.269 826.05,-97.3915"/>
</g>
<!-- 40&#45;&gt;13 -->
<g id="edge16" class="edge"><title>40&#45;&gt;13</title>
<path fill="none" stroke="green" d="M1276.2,-589.621C1259.81,-576.965 1232.63,-555.984 1213.46,-541.189"/>
<polygon fill="green" stroke="green" points="1215.6,-538.414 1205.54,-535.074 1211.32,-543.955 1215.6,-538.414"/>
</g>
<!-- 91&#45;&gt;17 -->
<g id="edge105" class="edge"><title>91&#45;&gt;17</title>
<path fill="none" stroke="green" d="M691.52,-135.758C714.934,-123.575 758.545,-100.881 786.21,-86.485"/>
<polygon fill="green" stroke="green" points="788.016,-89.4909 795.271,-81.77 784.784,-83.2813 788.016,-89.4909"/>
</g>
<!-- 22 -->
<g id="node63" class="node"><title>22</title>
<ellipse fill="none" stroke="black" cx="675.385" cy="-72.3848" rx="18.2703" ry="18.2703"/>
<text text-anchor="middle" x="675.385" y="-70.1848" font-family="Times New Roman,serif" font-size="9.00">22</text>
</g>
<!-- 91&#45;&gt;22 -->
<g id="edge95" class="edge"><title>91&#45;&gt;22</title>
<path fill="none" stroke="red" d="M675.385,-126.661C675.385,-118.978 675.385,-109.769 675.385,-101.185"/>
<polygon fill="red" stroke="red" points="678.885,-101.169 675.385,-91.1687 671.885,-101.169 678.885,-101.169"/>
</g>
<!-- 13&#45;&gt;5 -->
<g id="edge5" class="edge"><title>13&#45;&gt;5</title>
<path fill="none" stroke="green" d="M1184.59,-506.053C1173.66,-478.662 1153.38,-420.993 1153.38,-370.12 1153.38,-370.12 1153.38,-370.12 1153.38,-144.154 1153.38,-95.7756 1132.13,-81.5785 1092.38,-54 1042.02,-19.0524 967.088,-11.7165 931.12,-10.2763"/>
<polygon fill="green" stroke="green" points="930.986,-6.77124 920.891,-9.98835 930.789,-13.7685 930.986,-6.77124"/>
</g>
<!-- 17&#45;&gt;5 -->
<g id="edge54" class="edge"><title>17&#45;&gt;5</title>
<path fill="none" stroke="red" d="M826.854,-61.7934C844.253,-51.005 872.525,-33.4749 891.287,-21.8416"/>
<polygon fill="red" stroke="red" points="893.229,-24.7555 899.884,-16.5111 889.541,-18.8063 893.229,-24.7555"/>
</g>
</g>
</svg>
