<?xml version="1.0" encoding="UTF-8" standalone="no"?>
<!DOCTYPE svg PUBLIC "-//W3C//DTD SVG 1.1//EN"
 "http://www.w3.org/Graphics/SVG/1.1/DTD/svg11.dtd">
<!-- Generated by graphviz version 2.38.0 (20140413.2041)
 -->
<!-- Title: %3 Pages: 1 -->
<svg width="1920pt" height="2141pt"
 viewBox="0.00 0.00 1920.00 2140.94" xmlns="http://www.w3.org/2000/svg" xmlns:xlink="http://www.w3.org/1999/xlink">
<g id="graph0" class="graph" transform="scale(1 1) rotate(0) translate(4 2136.94)">
<title>%3</title>
<polygon fill="white" stroke="none" points="-4,4 -4,-2136.94 1916,-2136.94 1916,4 -4,4"/>
<!-- 1 -->
<g id="node1" class="node"><title>1</title>
<polygon fill="lightgray" stroke="black" points="1425.5,-2132.94 1404.5,-2132.94 1404.5,-2114.94 1425.5,-2114.94 1425.5,-2132.94"/>
<text text-anchor="middle" x="1415" y="-2121.74" font-family="Times New Roman,serif" font-size="9.00">1</text>
</g>
<!-- 85 -->
<g id="node6" class="node"><title>85</title>
<ellipse fill="none" stroke="black" cx="1368" cy="-2060.56" rx="18.2703" ry="18.2703"/>
<text text-anchor="middle" x="1368" y="-2058.36" font-family="Times New Roman,serif" font-size="9.00">85</text>
</g>
<!-- 1&#45;&gt;85 -->
<g id="edge158" class="edge"><title>1&#45;&gt;85</title>
<path fill="none" stroke="green" d="M1408.86,-2114.92C1402.89,-2107.12 1393.54,-2094.92 1385.3,-2084.15"/>
<polygon fill="green" stroke="green" points="1387.86,-2081.74 1379,-2075.93 1382.3,-2086 1387.86,-2081.74"/>
</g>
<!-- 74 -->
<g id="node7" class="node"><title>74</title>
<ellipse fill="none" stroke="black" cx="1318" cy="-1987.79" rx="18.2703" ry="18.2703"/>
<text text-anchor="middle" x="1318" y="-1985.59" font-family="Times New Roman,serif" font-size="9.00">74</text>
</g>
<!-- 1&#45;&gt;74 -->
<g id="edge25" class="edge"><title>1&#45;&gt;74</title>
<path fill="none" stroke="green" d="M1404.38,-2119.6C1388.16,-2113.92 1357.38,-2100.85 1341,-2078.94 1327.51,-2060.91 1321.9,-2035.78 1319.57,-2016.63"/>
<polygon fill="green" stroke="green" points="1323.03,-2016.03 1318.58,-2006.42 1316.07,-2016.71 1323.03,-2016.03"/>
</g>
<!-- 101 -->
<g id="node9" class="node"><title>101</title>
<ellipse fill="none" stroke="black" cx="1415" cy="-1912.19" rx="21.4286" ry="21.4286"/>
<text text-anchor="middle" x="1415" y="-1909.99" font-family="Times New Roman,serif" font-size="9.00">101</text>
</g>
<!-- 1&#45;&gt;101 -->
<g id="edge45" class="edge"><title>1&#45;&gt;101</title>
<path fill="none" stroke="green" d="M1415,-2114.72C1415,-2086.5 1415,-1992.6 1415,-1943.58"/>
<polygon fill="green" stroke="green" points="1418.5,-1943.55 1415,-1933.55 1411.5,-1943.55 1418.5,-1943.55"/>
</g>
<!-- 95 -->
<g id="node24" class="node"><title>95</title>
<ellipse fill="none" stroke="black" cx="190" cy="-1363.21" rx="18.2703" ry="18.2703"/>
<text text-anchor="middle" x="190" y="-1361.01" font-family="Times New Roman,serif" font-size="9.00">95</text>
</g>
<!-- 1&#45;&gt;95 -->
<g id="edge67" class="edge"><title>1&#45;&gt;95</title>
<path fill="none" stroke="green" d="M1404.32,-2123.07C1276.15,-2124.51 38,-2134.56 38,-1988.79 38,-1988.79 38,-1988.79 38,-1675.91 38,-1555.5 130.766,-1432.99 171.357,-1385.15"/>
<polygon fill="green" stroke="green" points="174.196,-1387.21 178.073,-1377.35 168.894,-1382.65 174.196,-1387.21"/>
</g>
<!-- 69 -->
<g id="node29" class="node"><title>69</title>
<ellipse fill="none" stroke="black" cx="1724" cy="-1441.63" rx="18.2703" ry="18.2703"/>
<text text-anchor="middle" x="1724" y="-1439.43" font-family="Times New Roman,serif" font-size="9.00">69</text>
</g>
<!-- 1&#45;&gt;69 -->
<g id="edge33" class="edge"><title>1&#45;&gt;69</title>
<path fill="none" stroke="red" d="M1425.55,-2123.37C1480.55,-2125.01 1732,-2125.04 1732,-1988.79 1732,-1988.79 1732,-1988.79 1732,-1597.49 1732,-1552.94 1728.66,-1501.27 1726.29,-1470.31"/>
<polygon fill="red" stroke="red" points="1729.78,-1469.96 1725.5,-1460.27 1722.8,-1470.51 1729.78,-1469.96"/>
</g>
<!-- 19 -->
<g id="node51" class="node"><title>19</title>
<ellipse fill="none" stroke="black" cx="1366" cy="-1127.93" rx="18.2703" ry="18.2703"/>
<text text-anchor="middle" x="1366" y="-1125.73" font-family="Times New Roman,serif" font-size="9.00">19</text>
</g>
<!-- 1&#45;&gt;19 -->
<g id="edge57" class="edge"><title>1&#45;&gt;19</title>
<path fill="none" stroke="red" d="M1425.57,-2122.21C1472.1,-2118.87 1658.68,-2104.1 1711,-2078.94 1764.04,-2053.44 1808,-2047.65 1808,-1988.79 1808,-1988.79 1808,-1988.79 1808,-1675.91 1808,-1437.06 1786.68,-1319.2 1589,-1185.14 1529.39,-1144.72 1500.55,-1167.85 1431,-1149.14 1418.38,-1145.75 1404.53,-1141.51 1392.87,-1137.8"/>
<polygon fill="red" stroke="red" points="1393.87,-1134.44 1383.27,-1134.7 1391.72,-1141.1 1393.87,-1134.44"/>
</g>
<!-- 7 -->
<g id="node71" class="node"><title>7</title>
<ellipse fill="none" stroke="black" cx="1302" cy="-825.536" rx="14.7" ry="14.7"/>
<text text-anchor="middle" x="1302" y="-823.336" font-family="Times New Roman,serif" font-size="9.00">7</text>
</g>
<!-- 1&#45;&gt;7 -->
<g id="edge2" class="edge"><title>1&#45;&gt;7</title>
<path fill="none" stroke="red" d="M1425.56,-2122.33C1476.63,-2119.22 1698.31,-2104.48 1762,-2078.94 1824.58,-2053.86 1884,-2056.21 1884,-1988.79 1884,-1988.79 1884,-1988.79 1884,-1440.63 1884,-1336.86 1874,-1311.13 1874,-1207.35 1874,-1207.35 1874,-1207.35 1874,-1126.93 1874,-876.155 1437.74,-834.287 1327.21,-827.704"/>
<polygon fill="red" stroke="red" points="1327.18,-824.197 1317.01,-827.143 1326.8,-831.186 1327.18,-824.197"/>
</g>
<!-- 2 -->
<g id="node2" class="node"><title>2</title>
<polygon fill="lightgray" stroke="black" points="1016.5,-1685.91 995.5,-1685.91 995.5,-1667.91 1016.5,-1667.91 1016.5,-1685.91"/>
<text text-anchor="middle" x="1006" y="-1674.71" font-family="Times New Roman,serif" font-size="9.00">2</text>
</g>
<!-- 5 -->
<g id="node5" class="node"><title>5</title>
<polygon fill="lightblue" stroke="black" points="668.5,-18 647.5,-18 647.5,-0 668.5,-0 668.5,-18"/>
<text text-anchor="middle" x="658" y="-6.8" font-family="Times New Roman,serif" font-size="9.00">5</text>
</g>
<!-- 2&#45;&gt;5 -->
<g id="edge7" class="edge"><title>2&#45;&gt;5</title>
<path fill="none" stroke="green" d="M995.418,-1675.93C912.999,-1675.96 372.981,-1674.03 221,-1619.7 114.43,-1581.61 38,-1555.81 38,-1442.63 38,-1442.63 38,-1442.63 38,-1283.78 38,-1178.73 0,-1155.55 0,-1050.5 0,-1050.5 0,-1050.5 0,-144.154 0,-80.2535 52.6358,-77.6476 112,-54 210.179,-14.8903 549.435,-10.5247 637.161,-10.0534"/>
<polygon fill="green" stroke="green" points="637.22,-13.5533 647.205,-10.0112 637.191,-6.55331 637.22,-13.5533"/>
</g>
<!-- 264 -->
<g id="node8" class="node"><title>264</title>
<ellipse fill="none" stroke="black" cx="840" cy="-1598.49" rx="21.4286" ry="21.4286"/>
<text text-anchor="middle" x="840" y="-1596.29" font-family="Times New Roman,serif" font-size="9.00">264</text>
</g>
<!-- 2&#45;&gt;264 -->
<g id="edge173" class="edge"><title>2&#45;&gt;264</title>
<path fill="none" stroke="green" d="M995.278,-1671.81C972.667,-1663.06 918.588,-1641.54 875,-1619.7 872.265,-1618.33 869.447,-1616.84 866.653,-1615.31"/>
<polygon fill="green" stroke="green" points="868.371,-1612.26 857.942,-1610.39 864.929,-1618.36 868.371,-1612.26"/>
</g>
<!-- 158 -->
<g id="node10" class="node"><title>158</title>
<ellipse fill="none" stroke="black" cx="976" cy="-1598.49" rx="21.4286" ry="21.4286"/>
<text text-anchor="middle" x="976" y="-1596.29" font-family="Times New Roman,serif" font-size="9.00">158</text>
</g>
<!-- 2&#45;&gt;158 -->
<g id="edge121" class="edge"><title>2&#45;&gt;158</title>
<path fill="none" stroke="green" d="M1002.79,-1667.73C999.08,-1658.29 992.774,-1642.22 987.211,-1628.05"/>
<polygon fill="green" stroke="green" points="990.431,-1626.67 983.519,-1618.64 983.915,-1629.23 990.431,-1626.67"/>
</g>
<!-- 84 -->
<g id="node19" class="node"><title>84</title>
<ellipse fill="none" stroke="black" cx="910" cy="-1441.63" rx="18.2703" ry="18.2703"/>
<text text-anchor="middle" x="910" y="-1439.43" font-family="Times New Roman,serif" font-size="9.00">84</text>
</g>
<!-- 2&#45;&gt;84 -->
<g id="edge136" class="edge"><title>2&#45;&gt;84</title>
<path fill="none" stroke="green" d="M995.203,-1668.98C981.476,-1659.56 958.109,-1641.38 946,-1619.7 919.319,-1571.92 912.284,-1507.03 910.51,-1470.54"/>
<polygon fill="green" stroke="green" points="913.993,-1470.04 910.112,-1460.18 906.998,-1470.31 913.993,-1470.04"/>
</g>
<!-- 133 -->
<g id="node21" class="node"><title>133</title>
<ellipse fill="none" stroke="black" cx="1036" cy="-1598.49" rx="21.4286" ry="21.4286"/>
<text text-anchor="middle" x="1036" y="-1596.29" font-family="Times New Roman,serif" font-size="9.00">133</text>
</g>
<!-- 2&#45;&gt;133 -->
<g id="edge127" class="edge"><title>2&#45;&gt;133</title>
<path fill="none" stroke="green" d="M1009.21,-1667.73C1012.92,-1658.29 1019.23,-1642.22 1024.79,-1628.05"/>
<polygon fill="green" stroke="green" points="1028.08,-1629.23 1028.48,-1618.64 1021.57,-1626.67 1028.08,-1629.23"/>
</g>
<!-- 35 -->
<g id="node25" class="node"><title>35</title>
<ellipse fill="none" stroke="black" cx="627" cy="-1441.63" rx="18.2703" ry="18.2703"/>
<text text-anchor="middle" x="627" y="-1439.43" font-family="Times New Roman,serif" font-size="9.00">35</text>
</g>
<!-- 2&#45;&gt;35 -->
<g id="edge133" class="edge"><title>2&#45;&gt;35</title>
<path fill="none" stroke="red" d="M995.396,-1668.8C979.807,-1658.3 949.862,-1637.9 925,-1619.7 900.088,-1601.47 895.652,-1594.45 870,-1577.27 841.012,-1557.86 764.559,-1515.68 734,-1498.85 706.14,-1483.5 673.762,-1466.62 651.981,-1455.4"/>
<polygon fill="red" stroke="red" points="653.552,-1452.28 643.057,-1450.82 650.353,-1458.5 653.552,-1452.28"/>
</g>
<!-- 43 -->
<g id="node39" class="node"><title>43</title>
<ellipse fill="none" stroke="black" cx="812" cy="-1284.78" rx="18.2703" ry="18.2703"/>
<text text-anchor="middle" x="812" y="-1282.58" font-family="Times New Roman,serif" font-size="9.00">43</text>
</g>
<!-- 2&#45;&gt;43 -->
<g id="edge106" class="edge"><title>2&#45;&gt;43</title>
<path fill="none" stroke="green" d="M1016.52,-1670.59C1032.65,-1661.95 1063.57,-1643.41 1082,-1619.7 1120.08,-1570.71 1151.07,-1389.37 1111,-1341.99 1102.2,-1331.59 913.22,-1301.42 840.328,-1290.12"/>
<polygon fill="green" stroke="green" points="840.477,-1286.6 830.06,-1288.54 839.408,-1293.52 840.477,-1286.6"/>
</g>
<!-- 54 -->
<g id="node40" class="node"><title>54</title>
<ellipse fill="none" stroke="black" cx="1594" cy="-1127.93" rx="18.2703" ry="18.2703"/>
<text text-anchor="middle" x="1594" y="-1125.73" font-family="Times New Roman,serif" font-size="9.00">54</text>
</g>
<!-- 2&#45;&gt;54 -->
<g id="edge37" class="edge"><title>2&#45;&gt;54</title>
<path fill="none" stroke="green" d="M1016.51,-1675.66C1052.39,-1674.37 1172.38,-1666.6 1256,-1619.7 1401.75,-1537.95 1485.23,-1215.73 1512,-1185.14 1527.92,-1166.95 1550.97,-1151.84 1568.57,-1141.88"/>
<polygon fill="green" stroke="green" points="1570.62,-1144.75 1577.72,-1136.89 1567.26,-1138.61 1570.62,-1144.75"/>
</g>
<!-- 94 -->
<g id="node41" class="node"><title>94</title>
<ellipse fill="none" stroke="black" cx="1023" cy="-1363.21" rx="18.2703" ry="18.2703"/>
<text text-anchor="middle" x="1023" y="-1361.01" font-family="Times New Roman,serif" font-size="9.00">94</text>
</g>
<!-- 2&#45;&gt;94 -->
<g id="edge135" class="edge"><title>2&#45;&gt;94</title>
<path fill="none" stroke="green" d="M1016.5,-1669.93C1030.84,-1661.08 1055.9,-1643.01 1066,-1619.7 1073.5,-1602.4 1067.87,-1596.04 1066,-1577.27 1064.17,-1558.96 1040.16,-1444.85 1028.84,-1391.57"/>
<polygon fill="green" stroke="green" points="1032.19,-1390.52 1026.69,-1381.47 1025.35,-1391.98 1032.19,-1390.52"/>
</g>
<!-- 30 -->
<g id="node58" class="node"><title>30</title>
<ellipse fill="none" stroke="black" cx="584" cy="-901.134" rx="18.2703" ry="18.2703"/>
<text text-anchor="middle" x="584" y="-898.934" font-family="Times New Roman,serif" font-size="9.00">30</text>
</g>
<!-- 2&#45;&gt;30 -->
<g id="edge9" class="edge"><title>2&#45;&gt;30</title>
<path fill="none" stroke="green" d="M995.361,-1675.24C894.721,-1668.73 114,-1615.17 114,-1521.06 114,-1521.06 114,-1521.06 114,-1362.21 114,-1111.89 458.654,-952.909 557.685,-912.394"/>
<polygon fill="green" stroke="green" points="559.029,-915.626 566.995,-908.64 556.411,-909.134 559.029,-915.626"/>
</g>
<!-- 50 -->
<g id="node59" class="node"><title>50</title>
<ellipse fill="none" stroke="black" cx="1132" cy="-973.904" rx="18.2703" ry="18.2703"/>
<text text-anchor="middle" x="1132" y="-971.704" font-family="Times New Roman,serif" font-size="9.00">50</text>
</g>
<!-- 2&#45;&gt;50 -->
<g id="edge26" class="edge"><title>2&#45;&gt;50</title>
<path fill="none" stroke="red" d="M1016.83,-1675.79C1047.27,-1674.85 1134.36,-1667.86 1180,-1619.7 1279.2,-1515.01 1244.4,-1449.01 1263,-1305.99 1265.43,-1287.3 1271.52,-1280.39 1263,-1263.57 1250.8,-1239.46 1233.66,-1246.11 1214,-1227.57 1197.53,-1212.04 1157.7,-1170.04 1149,-1149.14 1128.72,-1100.45 1128.12,-1037.7 1129.84,-1002.33"/>
<polygon fill="red" stroke="red" points="1133.34,-1002.47 1130.43,-992.28 1126.35,-1002.06 1133.34,-1002.47"/>
</g>
<!-- 2&#45;&gt;7 -->
<g id="edge3" class="edge"><title>2&#45;&gt;7</title>
<path fill="none" stroke="red" d="M1016.79,-1672.36C1036.88,-1665.25 1080.39,-1647.57 1107,-1619.7 1241.27,-1479.06 1257.51,-1417.08 1301,-1227.57 1313.01,-1175.22 1304.7,-1160.3 1301,-1106.71 1295.21,-1022.92 1280.79,-1003.32 1275,-919.519 1273.87,-903.216 1271.37,-898.684 1275,-882.749 1277.81,-870.43 1283.66,-857.66 1289.21,-847.411"/>
<polygon fill="red" stroke="red" points="1292.4,-848.875 1294.32,-838.454 1286.32,-845.405 1292.4,-848.875"/>
</g>
<!-- 3 -->
<g id="node3" class="node"><title>3</title>
<polygon fill="lightgray" stroke="black" points="538.5,-1607.49 517.5,-1607.49 517.5,-1589.49 538.5,-1589.49 538.5,-1607.49"/>
<text text-anchor="middle" x="528" y="-1596.29" font-family="Times New Roman,serif" font-size="9.00">3</text>
</g>
<!-- 3&#45;&gt;5 -->
<g id="edge1" class="edge"><title>3&#45;&gt;5</title>
<path fill="none" stroke="green" d="M517.263,-1597.77C479.53,-1598.29 350.721,-1595.74 266,-1541.27 146.967,-1464.75 76,-1427.29 76,-1285.78 76,-1285.78 76,-1285.78 76,-144.154 76,-26.4696 533.572,-12.0099 637.274,-10.244"/>
<polygon fill="green" stroke="green" points="637.454,-13.7418 647.401,-10.0942 637.351,-6.74261 637.454,-13.7418"/>
</g>
<!-- 57 -->
<g id="node15" class="node"><title>57</title>
<ellipse fill="none" stroke="black" cx="1087" cy="-1520.06" rx="18.2703" ry="18.2703"/>
<text text-anchor="middle" x="1087" y="-1517.86" font-family="Times New Roman,serif" font-size="9.00">57</text>
</g>
<!-- 3&#45;&gt;57 -->
<g id="edge92" class="edge"><title>3&#45;&gt;57</title>
<path fill="none" stroke="red" d="M538.668,-1596.03C604.488,-1587.03 955.942,-1538.98 1058.74,-1524.92"/>
<polygon fill="red" stroke="red" points="1059.26,-1528.39 1068.7,-1523.56 1058.31,-1521.45 1059.26,-1528.39"/>
</g>
<!-- 46 -->
<g id="node27" class="node"><title>46</title>
<ellipse fill="none" stroke="black" cx="1144" cy="-1206.35" rx="18.2703" ry="18.2703"/>
<text text-anchor="middle" x="1144" y="-1204.15" font-family="Times New Roman,serif" font-size="9.00">46</text>
</g>
<!-- 3&#45;&gt;46 -->
<g id="edge107" class="edge"><title>3&#45;&gt;46</title>
<path fill="none" stroke="red" d="M538.623,-1590.55C553.868,-1580.41 582.582,-1560.64 605,-1541.27 607.31,-1539.28 680.21,-1465.32 682,-1462.85 711.233,-1422.47 744.56,-1292.72 785,-1263.57 798.483,-1253.85 1033.1,-1222.03 1115.59,-1211.09"/>
<polygon fill="red" stroke="red" points="1116.08,-1214.56 1125.53,-1209.77 1115.16,-1207.62 1116.08,-1214.56"/>
</g>
<!-- 83 -->
<g id="node30" class="node"><title>83</title>
<ellipse fill="none" stroke="black" cx="555" cy="-1441.63" rx="18.2703" ry="18.2703"/>
<text text-anchor="middle" x="555" y="-1439.43" font-family="Times New Roman,serif" font-size="9.00">83</text>
</g>
<!-- 3&#45;&gt;83 -->
<g id="edge43" class="edge"><title>3&#45;&gt;83</title>
<path fill="none" stroke="red" d="M529.452,-1589.16C533.303,-1567.07 543.914,-1506.21 550.184,-1470.25"/>
<polygon fill="red" stroke="red" points="553.708,-1470.42 551.978,-1459.97 546.812,-1469.22 553.708,-1470.42"/>
</g>
<!-- 29 -->
<g id="node48" class="node"><title>29</title>
<ellipse fill="none" stroke="black" cx="997" cy="-1049.5" rx="18.2703" ry="18.2703"/>
<text text-anchor="middle" x="997" y="-1047.3" font-family="Times New Roman,serif" font-size="9.00">29</text>
</g>
<!-- 3&#45;&gt;29 -->
<g id="edge17" class="edge"><title>3&#45;&gt;29</title>
<path fill="none" stroke="green" d="M523.401,-1589.31C508.128,-1561.64 459.154,-1468.51 443,-1384.42 424.417,-1287.69 460.812,-1243.73 540,-1185.14 590.611,-1147.7 616.461,-1166.42 677,-1149.14 786.238,-1117.97 915.156,-1076.91 970.064,-1059.22"/>
<polygon fill="green" stroke="green" points="971.29,-1062.51 979.733,-1056.1 969.141,-1055.84 971.29,-1062.51"/>
</g>
<!-- 36 -->
<g id="node49" class="node"><title>36</title>
<ellipse fill="none" stroke="black" cx="567" cy="-1206.35" rx="18.2703" ry="18.2703"/>
<text text-anchor="middle" x="567" y="-1204.15" font-family="Times New Roman,serif" font-size="9.00">36</text>
</g>
<!-- 3&#45;&gt;36 -->
<g id="edge10" class="edge"><title>3&#45;&gt;36</title>
<path fill="none" stroke="green" d="M527.478,-1589.34C525.975,-1564.16 522.109,-1485.32 528,-1420.42 534.147,-1352.69 551.071,-1274.33 560.478,-1234.15"/>
<polygon fill="green" stroke="green" points="563.906,-1234.87 562.807,-1224.33 557.094,-1233.26 563.906,-1234.87"/>
</g>
<!-- 3&#45;&gt;7 -->
<g id="edge5" class="edge"><title>3&#45;&gt;7</title>
<path fill="none" stroke="red" d="M517.442,-1596.75C466.661,-1592.58 250,-1567.49 250,-1442.63 250,-1442.63 250,-1442.63 250,-1362.21 250,-885.852 1117.14,-832.918 1276.87,-827.209"/>
<polygon fill="red" stroke="red" points="1277.25,-830.698 1287.13,-826.874 1277.02,-823.702 1277.25,-830.698"/>
</g>
<!-- 8 -->
<g id="node73" class="node"><title>8</title>
<ellipse fill="none" stroke="black" cx="844" cy="-1206.35" rx="14.7" ry="14.7"/>
<text text-anchor="middle" x="844" y="-1204.15" font-family="Times New Roman,serif" font-size="9.00">8</text>
</g>
<!-- 3&#45;&gt;8 -->
<g id="edge176" class="edge"><title>3&#45;&gt;8</title>
<path fill="none" stroke="green" d="M533.781,-1589.34C546.398,-1571.82 577.778,-1529.67 609,-1498.85 627.226,-1480.85 637.964,-1482.82 654,-1462.85 715.796,-1385.89 685.472,-1336.47 752,-1263.57 754.739,-1260.57 796.103,-1235.77 822.425,-1220.13"/>
<polygon fill="green" stroke="green" points="824.528,-1222.95 831.342,-1214.83 820.956,-1216.93 824.528,-1222.95"/>
</g>
<!-- 4 -->
<g id="node4" class="node"><title>4</title>
<polygon fill="lightgray" stroke="black" points="1771.5,-1293.78 1750.5,-1293.78 1750.5,-1275.78 1771.5,-1275.78 1771.5,-1293.78"/>
<text text-anchor="middle" x="1761" y="-1282.58" font-family="Times New Roman,serif" font-size="9.00">4</text>
</g>
<!-- 4&#45;&gt;5 -->
<g id="edge54" class="edge"><title>4&#45;&gt;5</title>
<path fill="none" stroke="green" d="M1768.19,-1275.73C1786.96,-1253.85 1836,-1190.76 1836,-1128.93 1836,-1128.93 1836,-1128.93 1836,-144.154 1836,-22.7895 836.163,-11.1822 678.75,-10.1069"/>
<polygon fill="green" stroke="green" points="678.565,-6.60578 668.544,-10.0444 678.522,-13.6056 678.565,-6.60578"/>
</g>
<!-- 47 -->
<g id="node28" class="node"><title>47</title>
<ellipse fill="none" stroke="black" cx="1274" cy="-1206.35" rx="18.2703" ry="18.2703"/>
<text text-anchor="middle" x="1274" y="-1204.15" font-family="Times New Roman,serif" font-size="9.00">47</text>
</g>
<!-- 4&#45;&gt;47 -->
<g id="edge31" class="edge"><title>4&#45;&gt;47</title>
<path fill="none" stroke="red" d="M1750.38,-1282.11C1690.57,-1272.73 1395.24,-1226.38 1302.16,-1211.77"/>
<polygon fill="red" stroke="red" points="1302.5,-1208.28 1292.08,-1210.19 1301.41,-1215.2 1302.5,-1208.28"/>
</g>
<!-- 11 -->
<g id="node50" class="node"><title>11</title>
<ellipse fill="none" stroke="black" cx="1500" cy="-1049.5" rx="18.2703" ry="18.2703"/>
<text text-anchor="middle" x="1500" y="-1047.3" font-family="Times New Roman,serif" font-size="9.00">11</text>
</g>
<!-- 4&#45;&gt;11 -->
<g id="edge55" class="edge"><title>4&#45;&gt;11</title>
<path fill="none" stroke="red" d="M1756.88,-1275.74C1742.28,-1248.03 1690.15,-1155.53 1621,-1106.71 1591.26,-1085.72 1552.44,-1069.32 1526.89,-1059.78"/>
<polygon fill="red" stroke="red" points="1528.07,-1056.49 1517.47,-1056.35 1525.67,-1063.06 1528.07,-1056.49"/>
</g>
<!-- 4&#45;&gt;7 -->
<g id="edge6" class="edge"><title>4&#45;&gt;7</title>
<path fill="none" stroke="red" d="M1759.55,-1275.65C1756.19,-1258.16 1746.75,-1216.06 1729,-1185.14 1675.38,-1091.74 1489.18,-933.732 1415,-882.749 1385.9,-862.75 1348.66,-845.654 1325.06,-835.731"/>
<polygon fill="red" stroke="red" points="1326.12,-832.386 1315.55,-831.811 1323.46,-838.858 1326.12,-832.386"/>
</g>
<!-- 4&#45;&gt;8 -->
<g id="edge46" class="edge"><title>4&#45;&gt;8</title>
<path fill="none" stroke="green" d="M1750.37,-1282.33C1723.11,-1278.65 1648.47,-1268.88 1586,-1263.57 1294.17,-1238.75 1217.79,-1270 928,-1227.57 907.547,-1224.57 884.772,-1218.94 868.102,-1214.39"/>
<polygon fill="green" stroke="green" points="868.688,-1210.92 858.115,-1211.58 866.797,-1217.66 868.688,-1210.92"/>
</g>
<!-- 85&#45;&gt;74 -->
<g id="edge159" class="edge"><title>85&#45;&gt;74</title>
<path fill="none" stroke="green" d="M1357.64,-2044.9C1350.87,-2035.31 1341.89,-2022.6 1334.18,-2011.7"/>
<polygon fill="green" stroke="green" points="1336.98,-2009.58 1328.35,-2003.43 1331.26,-2013.62 1336.98,-2009.58"/>
</g>
<!-- 74&#45;&gt;101 -->
<g id="edge38" class="edge"><title>74&#45;&gt;101</title>
<path fill="none" stroke="red" d="M1332.31,-1975.93C1347.44,-1964.45 1371.59,-1946.13 1389.9,-1932.24"/>
<polygon fill="red" stroke="red" points="1392.5,-1934.66 1398.35,-1925.83 1388.27,-1929.08 1392.5,-1934.66"/>
</g>
<!-- 64 -->
<g id="node14" class="node"><title>64</title>
<ellipse fill="none" stroke="black" cx="1467" cy="-1598.49" rx="18.2703" ry="18.2703"/>
<text text-anchor="middle" x="1467" y="-1596.29" font-family="Times New Roman,serif" font-size="9.00">64</text>
</g>
<!-- 74&#45;&gt;64 -->
<g id="edge40" class="edge"><title>74&#45;&gt;64</title>
<path fill="none" stroke="red" d="M1318,-1969C1318,-1940.62 1318,-1883.33 1318,-1834.77 1318,-1834.77 1318,-1834.77 1318,-1754.34 1318,-1684.08 1398.64,-1633.39 1441.27,-1611.5"/>
<polygon fill="red" stroke="red" points="1443.09,-1614.5 1450.49,-1606.91 1439.97,-1608.23 1443.09,-1614.5"/>
</g>
<!-- 234 -->
<g id="node23" class="node"><title>234</title>
<ellipse fill="none" stroke="black" cx="683" cy="-1833.77" rx="21.4286" ry="21.4286"/>
<text text-anchor="middle" x="683" y="-1831.57" font-family="Times New Roman,serif" font-size="9.00">234</text>
</g>
<!-- 74&#45;&gt;234 -->
<g id="edge125" class="edge"><title>74&#45;&gt;234</title>
<path fill="none" stroke="green" d="M1299.56,-1986.1C1206.08,-1982.46 787.184,-1964.51 739,-1933.41 714.499,-1917.59 699.605,-1887.07 691.402,-1864.14"/>
<polygon fill="green" stroke="green" points="694.681,-1862.91 688.191,-1854.54 688.042,-1865.13 694.681,-1862.91"/>
</g>
<!-- 74&#45;&gt;43 -->
<g id="edge137" class="edge"><title>74&#45;&gt;43</title>
<path fill="none" stroke="green" d="M1299.52,-1985.9C1202.15,-1980.75 753,-1950.69 753,-1834.77 753,-1834.77 753,-1834.77 753,-1597.49 753,-1541.53 790.168,-1378.04 805.503,-1312.96"/>
<polygon fill="green" stroke="green" points="808.953,-1313.58 807.851,-1303.04 802.142,-1311.97 808.953,-1313.58"/>
</g>
<!-- 74&#45;&gt;30 -->
<g id="edge39" class="edge"><title>74&#45;&gt;30</title>
<path fill="none" stroke="green" d="M1299.66,-1986.29C1224.74,-1984.01 934.688,-1972.96 700,-1933.41 383.553,-1880.07 0,-2077.25 0,-1756.34 0,-1756.34 0,-1756.34 0,-1283.78 0,-1055.86 179.944,-1033.81 394,-955.519 450.379,-934.899 518.582,-917.498 556.017,-908.568"/>
<polygon fill="green" stroke="green" points="557.233,-911.878 566.163,-906.177 555.626,-905.065 557.233,-911.878"/>
</g>
<!-- 39 -->
<g id="node16" class="node"><title>39</title>
<ellipse fill="none" stroke="black" cx="707" cy="-1520.06" rx="18.2703" ry="18.2703"/>
<text text-anchor="middle" x="707" y="-1517.86" font-family="Times New Roman,serif" font-size="9.00">39</text>
</g>
<!-- 264&#45;&gt;39 -->
<g id="edge174" class="edge"><title>264&#45;&gt;39</title>
<path fill="none" stroke="green" d="M821.786,-1587.02C798.342,-1573.55 757.527,-1550.09 731.413,-1535.09"/>
<polygon fill="green" stroke="green" points="732.93,-1531.92 722.516,-1529.98 729.443,-1537.99 732.93,-1531.92"/>
</g>
<!-- 143 -->
<g id="node11" class="node"><title>143</title>
<ellipse fill="none" stroke="black" cx="1367" cy="-1833.77" rx="21.4286" ry="21.4286"/>
<text text-anchor="middle" x="1367" y="-1831.57" font-family="Times New Roman,serif" font-size="9.00">143</text>
</g>
<!-- 101&#45;&gt;143 -->
<g id="edge87" class="edge"><title>101&#45;&gt;143</title>
<path fill="none" stroke="green" d="M1404.11,-1893.85C1397.97,-1884.08 1390.18,-1871.68 1383.33,-1860.77"/>
<polygon fill="green" stroke="green" points="1386.13,-1858.65 1377.85,-1852.04 1380.2,-1862.37 1386.13,-1858.65"/>
</g>
<!-- 122 -->
<g id="node12" class="node"><title>122</title>
<ellipse fill="none" stroke="black" cx="1405" cy="-1755.34" rx="21.4286" ry="21.4286"/>
<text text-anchor="middle" x="1405" y="-1753.14" font-family="Times New Roman,serif" font-size="9.00">122</text>
</g>
<!-- 101&#45;&gt;122 -->
<g id="edge61" class="edge"><title>101&#45;&gt;122</title>
<path fill="none" stroke="green" d="M1413.69,-1890.95C1411.98,-1864.4 1408.96,-1817.59 1406.96,-1786.77"/>
<polygon fill="green" stroke="green" points="1410.44,-1786.34 1406.31,-1776.59 1403.46,-1786.79 1410.44,-1786.34"/>
</g>
<!-- 101&#45;&gt;46 -->
<g id="edge53" class="edge"><title>101&#45;&gt;46</title>
<path fill="none" stroke="red" d="M1396.18,-1902.24C1378.41,-1892.85 1352.28,-1876.47 1337,-1854.98 1327.47,-1841.58 1186.56,-1354.79 1151.74,-1234.18"/>
<polygon fill="red" stroke="red" points="1155.02,-1232.92 1148.88,-1224.28 1148.29,-1234.86 1155.02,-1232.92"/>
</g>
<!-- 101&#45;&gt;11 -->
<g id="edge47" class="edge"><title>101&#45;&gt;11</title>
<path fill="none" stroke="red" d="M1436.18,-1910.99C1477.48,-1909.54 1569.78,-1900.97 1628,-1854.98 1826.67,-1698.04 1766.34,-1558.8 1780,-1305.99 1781.02,-1287.17 1785.36,-1281.65 1780,-1263.57 1754.97,-1179.16 1732.11,-1155.77 1659,-1106.71 1617.76,-1079.04 1561.35,-1063.36 1527.99,-1055.93"/>
<polygon fill="red" stroke="red" points="1528.53,-1052.47 1518.02,-1053.8 1527.07,-1059.31 1528.53,-1052.47"/>
</g>
<!-- 58 -->
<g id="node61" class="node"><title>58</title>
<ellipse fill="none" stroke="black" cx="1176" cy="-1127.93" rx="18.2703" ry="18.2703"/>
<text text-anchor="middle" x="1176" y="-1125.73" font-family="Times New Roman,serif" font-size="9.00">58</text>
</g>
<!-- 101&#45;&gt;58 -->
<g id="edge154" class="edge"><title>101&#45;&gt;58</title>
<path fill="none" stroke="red" d="M1435.97,-1908.03C1494.6,-1897.9 1656,-1860.53 1656,-1756.34 1656,-1756.34 1656,-1756.34 1656,-1597.49 1656,-1445.85 1698.49,-1365.25 1586,-1263.57 1529.8,-1212.77 1312.5,-1265.63 1247,-1227.57 1231.74,-1218.7 1206.11,-1179.31 1190.17,-1153.06"/>
<polygon fill="red" stroke="red" points="1193.12,-1151.18 1184.98,-1144.4 1187.12,-1154.78 1193.12,-1151.18"/>
</g>
<!-- 158&#45;&gt;84 -->
<g id="edge122" class="edge"><title>158&#45;&gt;84</title>
<path fill="none" stroke="green" d="M970.073,-1577.84C963.746,-1557.67 952.995,-1525.53 941,-1498.85 936.152,-1488.06 929.998,-1476.56 924.453,-1466.79"/>
<polygon fill="green" stroke="green" points="927.424,-1464.94 919.386,-1458.03 921.365,-1468.44 927.424,-1464.94"/>
</g>
<!-- 143&#45;&gt;122 -->
<g id="edge88" class="edge"><title>143&#45;&gt;122</title>
<path fill="none" stroke="red" d="M1376.2,-1814.27C1380.73,-1805.16 1386.28,-1794 1391.29,-1783.91"/>
<polygon fill="red" stroke="red" points="1394.57,-1785.18 1395.89,-1774.67 1388.3,-1782.07 1394.57,-1785.18"/>
</g>
<!-- 79 -->
<g id="node52" class="node"><title>79</title>
<ellipse fill="none" stroke="black" cx="970" cy="-1127.93" rx="18.2703" ry="18.2703"/>
<text text-anchor="middle" x="970" y="-1125.73" font-family="Times New Roman,serif" font-size="9.00">79</text>
</g>
<!-- 143&#45;&gt;79 -->
<g id="edge175" class="edge"><title>143&#45;&gt;79</title>
<path fill="none" stroke="green" d="M1359.42,-1813.89C1332.38,-1747.33 1236.75,-1518.06 1133,-1341.99 1089.51,-1268.19 1074.76,-1251.83 1021,-1185.14 1011.11,-1172.88 999.342,-1159.81 989.6,-1149.37"/>
<polygon fill="green" stroke="green" points="992.014,-1146.82 982.61,-1141.94 986.919,-1151.62 992.014,-1146.82"/>
</g>
<!-- 153 -->
<g id="node13" class="node"><title>153</title>
<ellipse fill="none" stroke="black" cx="1443" cy="-1676.91" rx="21.4286" ry="21.4286"/>
<text text-anchor="middle" x="1443" y="-1674.71" font-family="Times New Roman,serif" font-size="9.00">153</text>
</g>
<!-- 122&#45;&gt;153 -->
<g id="edge160" class="edge"><title>122&#45;&gt;153</title>
<path fill="none" stroke="green" d="M1414.2,-1735.84C1418.73,-1726.73 1424.28,-1715.57 1429.29,-1705.48"/>
<polygon fill="green" stroke="green" points="1432.57,-1706.76 1433.89,-1696.24 1426.3,-1703.64 1432.57,-1706.76"/>
</g>
<!-- 122&#45;&gt;64 -->
<g id="edge62" class="edge"><title>122&#45;&gt;64</title>
<path fill="none" stroke="green" d="M1423.68,-1745.02C1440.09,-1735.68 1462.89,-1719.61 1473,-1698.13 1483.69,-1675.42 1480.2,-1646.45 1475.25,-1625.8"/>
<polygon fill="green" stroke="green" points="1478.63,-1624.88 1472.68,-1616.11 1471.86,-1626.67 1478.63,-1624.88"/>
</g>
<!-- 122&#45;&gt;57 -->
<g id="edge157" class="edge"><title>122&#45;&gt;57</title>
<path fill="none" stroke="red" d="M1388.35,-1742.13C1335.37,-1703.26 1170.58,-1582.37 1109.81,-1537.79"/>
<polygon fill="red" stroke="red" points="1111.76,-1534.88 1101.63,-1531.79 1107.62,-1540.53 1111.76,-1534.88"/>
</g>
<!-- 122&#45;&gt;84 -->
<g id="edge123" class="edge"><title>122&#45;&gt;84</title>
<path fill="none" stroke="red" d="M1383.79,-1753.29C1285.34,-1747.91 874.878,-1719.64 810,-1619.7 799.733,-1603.88 800.71,-1593.68 810,-1577.27 825.322,-1550.21 849.781,-1564.9 870,-1541.27 887.759,-1520.52 898.346,-1490.85 904.122,-1469.47"/>
<polygon fill="red" stroke="red" points="907.529,-1470.28 906.581,-1459.72 900.742,-1468.56 907.529,-1470.28"/>
</g>
<!-- 122&#45;&gt;19 -->
<g id="edge70" class="edge"><title>122&#45;&gt;19</title>
<path fill="none" stroke="green" d="M1401.15,-1734.18C1389.93,-1674.68 1358,-1500.37 1358,-1442.63 1358,-1442.63 1358,-1442.63 1358,-1283.78 1358,-1239.23 1361.34,-1187.57 1363.71,-1156.61"/>
<polygon fill="green" stroke="green" points="1367.2,-1156.81 1364.5,-1146.56 1360.22,-1156.26 1367.2,-1156.81"/>
</g>
<!-- 153&#45;&gt;64 -->
<g id="edge161" class="edge"><title>153&#45;&gt;64</title>
<path fill="none" stroke="red" d="M1449.18,-1656.23C1452.07,-1647.04 1455.55,-1635.96 1458.66,-1626.04"/>
<polygon fill="red" stroke="red" points="1462.08,-1626.84 1461.73,-1616.25 1455.4,-1624.74 1462.08,-1626.84"/>
</g>
<!-- 64&#45;&gt;5 -->
<g id="edge66" class="edge"><title>64&#45;&gt;5</title>
<path fill="none" stroke="green" d="M1484.6,-1592.91C1532.32,-1579.77 1666.3,-1537.98 1751,-1462.85 1851.41,-1373.78 1912,-1341.57 1912,-1207.35 1912,-1207.35 1912,-1207.35 1912,-144.154 1912,-34.7733 1790,-76.692 1683,-54 1481.3,-11.2245 806.07,-9.83189 678.789,-9.95666"/>
<polygon fill="green" stroke="green" points="678.496,-6.45698 668.501,-9.97157 678.507,-13.457 678.496,-6.45698"/>
</g>
<!-- 224 -->
<g id="node22" class="node"><title>224</title>
<ellipse fill="none" stroke="black" cx="840" cy="-1520.06" rx="21.4286" ry="21.4286"/>
<text text-anchor="middle" x="840" y="-1517.86" font-family="Times New Roman,serif" font-size="9.00">224</text>
</g>
<!-- 64&#45;&gt;224 -->
<g id="edge150" class="edge"><title>64&#45;&gt;224</title>
<path fill="none" stroke="green" d="M1448.57,-1595.24C1360.58,-1584.51 982.793,-1538.47 871.172,-1524.86"/>
<polygon fill="green" stroke="green" points="871.277,-1521.35 860.927,-1523.61 870.43,-1528.3 871.277,-1521.35"/>
</g>
<!-- 49 -->
<g id="node26" class="node"><title>49</title>
<ellipse fill="none" stroke="black" cx="1503" cy="-1520.06" rx="18.2703" ry="18.2703"/>
<text text-anchor="middle" x="1503" y="-1517.86" font-family="Times New Roman,serif" font-size="9.00">49</text>
</g>
<!-- 64&#45;&gt;49 -->
<g id="edge22" class="edge"><title>64&#45;&gt;49</title>
<path fill="none" stroke="red" d="M1474.46,-1581.65C1479.29,-1571.4 1485.67,-1557.84 1491.18,-1546.15"/>
<polygon fill="red" stroke="red" points="1494.46,-1547.41 1495.55,-1536.88 1488.12,-1544.43 1494.46,-1547.41"/>
</g>
<!-- 59 -->
<g id="node35" class="node"><title>59</title>
<ellipse fill="none" stroke="black" cx="1559" cy="-1284.78" rx="18.2703" ry="18.2703"/>
<text text-anchor="middle" x="1559" y="-1282.58" font-family="Times New Roman,serif" font-size="9.00">59</text>
</g>
<!-- 64&#45;&gt;59 -->
<g id="edge60" class="edge"><title>64&#45;&gt;59</title>
<path fill="none" stroke="green" d="M1482.04,-1587.59C1496.27,-1577.51 1517.28,-1560.63 1530,-1541.27 1576.81,-1470.01 1569.92,-1362.88 1563.4,-1313.06"/>
<polygon fill="green" stroke="green" points="1566.85,-1312.47 1561.99,-1303.05 1559.92,-1313.44 1566.85,-1312.47"/>
</g>
<!-- 100 -->
<g id="node54" class="node"><title>100</title>
<ellipse fill="none" stroke="black" cx="1405" cy="-444.718" rx="21.4286" ry="21.4286"/>
<text text-anchor="middle" x="1405" y="-442.518" font-family="Times New Roman,serif" font-size="9.00">100</text>
</g>
<!-- 64&#45;&gt;100 -->
<g id="edge171" class="edge"><title>64&#45;&gt;100</title>
<path fill="none" stroke="green" d="M1463.35,-1580.34C1457.13,-1548.67 1445.78,-1478.87 1453,-1420.42 1466.21,-1313.43 1480.57,-1288.27 1512,-1185.14 1550.98,-1057.25 1614,-1035.84 1614,-902.134 1614,-902.134 1614,-902.134 1614,-600.571 1614,-512.812 1493.56,-469.057 1435.54,-453.069"/>
<polygon fill="green" stroke="green" points="1436.37,-449.667 1425.8,-450.486 1434.57,-456.433 1436.37,-449.667"/>
</g>
<!-- 200 -->
<g id="node17" class="node"><title>200</title>
<ellipse fill="none" stroke="black" cx="1081" cy="-1441.63" rx="21.4286" ry="21.4286"/>
<text text-anchor="middle" x="1081" y="-1439.43" font-family="Times New Roman,serif" font-size="9.00">200</text>
</g>
<!-- 57&#45;&gt;200 -->
<g id="edge143" class="edge"><title>57&#45;&gt;200</title>
<path fill="none" stroke="red" d="M1085.64,-1501.72C1084.97,-1493.24 1084.15,-1482.8 1083.39,-1473.05"/>
<polygon fill="red" stroke="red" points="1086.86,-1472.58 1082.59,-1462.88 1079.88,-1473.13 1086.86,-1472.58"/>
</g>
<!-- 191 -->
<g id="node18" class="node"><title>191</title>
<ellipse fill="none" stroke="black" cx="1081" cy="-1363.21" rx="21.4286" ry="21.4286"/>
<text text-anchor="middle" x="1081" y="-1361.01" font-family="Times New Roman,serif" font-size="9.00">191</text>
</g>
<!-- 57&#45;&gt;191 -->
<g id="edge103" class="edge"><title>57&#45;&gt;191</title>
<path fill="none" stroke="green" d="M1075.05,-1505.39C1066.49,-1494.65 1055.69,-1478.86 1051,-1462.85 1045.7,-1444.75 1046.42,-1438.71 1051,-1420.42 1053.66,-1409.8 1058.75,-1398.98 1063.99,-1389.71"/>
<polygon fill="green" stroke="green" points="1067.06,-1391.4 1069.2,-1381.03 1061.05,-1387.8 1067.06,-1391.4"/>
</g>
<!-- 57&#45;&gt;84 -->
<g id="edge149" class="edge"><title>57&#45;&gt;84</title>
<path fill="none" stroke="green" d="M1070.35,-1511.87C1039.51,-1498.56 973.304,-1469.97 936.335,-1454"/>
<polygon fill="green" stroke="green" points="937.305,-1450.61 926.736,-1449.86 934.53,-1457.04 937.305,-1450.61"/>
</g>
<!-- 39&#45;&gt;35 -->
<g id="edge130" class="edge"><title>39&#45;&gt;35</title>
<path fill="none" stroke="red" d="M694.147,-1506.78C681.55,-1494.75 662.154,-1476.22 647.441,-1462.16"/>
<polygon fill="red" stroke="red" points="649.47,-1459.26 639.821,-1454.88 644.635,-1464.32 649.47,-1459.26"/>
</g>
<!-- 200&#45;&gt;191 -->
<g id="edge144" class="edge"><title>200&#45;&gt;191</title>
<path fill="none" stroke="green" d="M1081,-1420.15C1081,-1412.29 1081,-1403.15 1081,-1394.56"/>
<polygon fill="green" stroke="green" points="1084.5,-1394.48 1081,-1384.48 1077.5,-1394.48 1084.5,-1394.48"/>
</g>
<!-- 184 -->
<g id="node20" class="node"><title>184</title>
<ellipse fill="none" stroke="black" cx="1233" cy="-1284.78" rx="21.4286" ry="21.4286"/>
<text text-anchor="middle" x="1233" y="-1282.58" font-family="Times New Roman,serif" font-size="9.00">184</text>
</g>
<!-- 191&#45;&gt;184 -->
<g id="edge104" class="edge"><title>191&#45;&gt;184</title>
<path fill="none" stroke="red" d="M1099.64,-1352.84C1125.96,-1339.6 1174.24,-1315.33 1204.92,-1299.9"/>
<polygon fill="red" stroke="red" points="1206.85,-1302.85 1214.21,-1295.23 1203.7,-1296.59 1206.85,-1302.85"/>
</g>
<!-- 135 -->
<g id="node33" class="node"><title>135</title>
<ellipse fill="none" stroke="black" cx="910" cy="-1363.21" rx="21.4286" ry="21.4286"/>
<text text-anchor="middle" x="910" y="-1361.01" font-family="Times New Roman,serif" font-size="9.00">135</text>
</g>
<!-- 84&#45;&gt;135 -->
<g id="edge113" class="edge"><title>84&#45;&gt;135</title>
<path fill="none" stroke="green" d="M910,-1422.91C910,-1414.49 910,-1404.18 910,-1394.57"/>
<polygon fill="green" stroke="green" points="913.5,-1394.54 910,-1384.54 906.5,-1394.54 913.5,-1394.54"/>
</g>
<!-- 84&#45;&gt;43 -->
<g id="edge101" class="edge"><title>84&#45;&gt;43</title>
<path fill="none" stroke="red" d="M900.603,-1425.79C883.598,-1398.92 847.585,-1342.01 827.094,-1309.63"/>
<polygon fill="red" stroke="red" points="829.817,-1307.39 821.512,-1300.81 823.902,-1311.13 829.817,-1307.39"/>
</g>
<!-- 84&#45;&gt;79 -->
<g id="edge142" class="edge"><title>84&#45;&gt;79</title>
<path fill="none" stroke="red" d="M922.026,-1427.28C947.15,-1399.04 1003.65,-1333.59 1013,-1305.99 1031.18,-1252.31 1002.85,-1187.05 984.211,-1152.7"/>
<polygon fill="red" stroke="red" points="987.201,-1150.88 979.256,-1143.87 981.097,-1154.3 987.201,-1150.88"/>
</g>
<!-- 184&#45;&gt;46 -->
<g id="edge102" class="edge"><title>184&#45;&gt;46</title>
<path fill="none" stroke="green" d="M1217.09,-1270.12C1202.61,-1257.69 1181.14,-1239.24 1165.21,-1225.56"/>
<polygon fill="green" stroke="green" points="1167.31,-1222.76 1157.45,-1218.9 1162.75,-1228.07 1167.31,-1222.76"/>
</g>
<!-- 184&#45;&gt;47 -->
<g id="edge153" class="edge"><title>184&#45;&gt;47</title>
<path fill="none" stroke="red" d="M1242.72,-1265.67C1248.1,-1255.63 1254.87,-1243.01 1260.74,-1232.07"/>
<polygon fill="red" stroke="red" points="1263.96,-1233.48 1265.6,-1223.01 1257.79,-1230.17 1263.96,-1233.48"/>
</g>
<!-- 133&#45;&gt;94 -->
<g id="edge128" class="edge"><title>133&#45;&gt;94</title>
<path fill="none" stroke="green" d="M1025.8,-1579.49C1012.19,-1554.33 988.774,-1506.79 980,-1462.85 976.308,-1444.36 973.952,-1438.28 980,-1420.42 984.602,-1406.83 993.954,-1393.94 1002.76,-1383.94"/>
<polygon fill="green" stroke="green" points="1005.36,-1386.29 1009.61,-1376.58 1000.24,-1381.52 1005.36,-1386.29"/>
</g>
<!-- 224&#45;&gt;35 -->
<g id="edge151" class="edge"><title>224&#45;&gt;35</title>
<path fill="none" stroke="green" d="M822.227,-1507.8C816.821,-1504.65 810.78,-1501.39 805,-1498.85 753.662,-1476.24 690.371,-1458.5 654.761,-1449.39"/>
<polygon fill="green" stroke="green" points="655.195,-1445.89 644.643,-1446.84 653.485,-1452.68 655.195,-1445.89"/>
</g>
<!-- 234&#45;&gt;43 -->
<g id="edge126" class="edge"><title>234&#45;&gt;43</title>
<path fill="none" stroke="red" d="M678.334,-1812.85C671.876,-1783.49 661,-1726.79 661,-1677.91 661,-1677.91 661,-1677.91 661,-1597.49 661,-1552.84 661.922,-1539.67 680,-1498.85 688.098,-1480.56 695.883,-1479.47 707,-1462.85 742.409,-1409.89 779.412,-1344.84 798.624,-1310.21"/>
<polygon fill="red" stroke="red" points="801.783,-1311.73 803.554,-1301.28 795.655,-1308.34 801.783,-1311.73"/>
</g>
<!-- 163 -->
<g id="node37" class="node"><title>163</title>
<ellipse fill="none" stroke="black" cx="163" cy="-1284.78" rx="21.4286" ry="21.4286"/>
<text text-anchor="middle" x="163" y="-1282.58" font-family="Times New Roman,serif" font-size="9.00">163</text>
</g>
<!-- 95&#45;&gt;163 -->
<g id="edge168" class="edge"><title>95&#45;&gt;163</title>
<path fill="none" stroke="red" d="M184.141,-1345.62C180.944,-1336.57 176.895,-1325.11 173.198,-1314.65"/>
<polygon fill="red" stroke="red" points="176.431,-1313.29 169.8,-1305.03 169.831,-1315.62 176.431,-1313.29"/>
</g>
<!-- 63 -->
<g id="node47" class="node"><title>63</title>
<ellipse fill="none" stroke="black" cx="210" cy="-1206.35" rx="18.2703" ry="18.2703"/>
<text text-anchor="middle" x="210" y="-1204.15" font-family="Times New Roman,serif" font-size="9.00">63</text>
</g>
<!-- 95&#45;&gt;63 -->
<g id="edge68" class="edge"><title>95&#45;&gt;63</title>
<path fill="none" stroke="green" d="M192.255,-1344.74C195.706,-1318.02 202.328,-1266.75 206.434,-1234.96"/>
<polygon fill="green" stroke="green" points="209.912,-1235.36 207.722,-1224.99 202.97,-1234.46 209.912,-1235.36"/>
</g>
<!-- 55 -->
<g id="node32" class="node"><title>55</title>
<ellipse fill="none" stroke="black" cx="470" cy="-1363.21" rx="18.2703" ry="18.2703"/>
<text text-anchor="middle" x="470" y="-1361.01" font-family="Times New Roman,serif" font-size="9.00">55</text>
</g>
<!-- 35&#45;&gt;55 -->
<g id="edge58" class="edge"><title>35&#45;&gt;55</title>
<path fill="none" stroke="green" d="M610.79,-1432.74C583.525,-1419.47 528.282,-1392.58 495.689,-1376.71"/>
<polygon fill="green" stroke="green" points="496.881,-1373.4 486.357,-1372.17 493.817,-1379.69 496.881,-1373.4"/>
</g>
<!-- 35&#45;&gt;135 -->
<g id="edge77" class="edge"><title>35&#45;&gt;135</title>
<path fill="none" stroke="red" d="M644.703,-1435.85C691.848,-1423.12 820.863,-1388.28 879.85,-1372.35"/>
<polygon fill="red" stroke="red" points="880.943,-1375.68 889.685,-1369.69 879.118,-1368.92 880.943,-1375.68"/>
</g>
<!-- 195 -->
<g id="node43" class="node"><title>195</title>
<ellipse fill="none" stroke="black" cx="603" cy="-1363.21" rx="21.4286" ry="21.4286"/>
<text text-anchor="middle" x="603" y="-1361.01" font-family="Times New Roman,serif" font-size="9.00">195</text>
</g>
<!-- 35&#45;&gt;195 -->
<g id="edge114" class="edge"><title>35&#45;&gt;195</title>
<path fill="none" stroke="green" d="M621.674,-1423.67C618.877,-1414.77 615.372,-1403.6 612.155,-1393.36"/>
<polygon fill="green" stroke="green" points="615.408,-1392.04 609.073,-1383.55 608.73,-1394.13 615.408,-1392.04"/>
</g>
<!-- 35&#45;&gt;29 -->
<g id="edge84" class="edge"><title>35&#45;&gt;29</title>
<path fill="none" stroke="red" d="M632.814,-1424.1C645.007,-1391.03 675.747,-1315.46 719,-1263.57 724.135,-1257.41 909.705,-1116.62 974.75,-1067.35"/>
<polygon fill="red" stroke="red" points="976.896,-1070.11 982.754,-1061.29 972.67,-1064.53 976.896,-1070.11"/>
</g>
<!-- 38 -->
<g id="node64" class="node"><title>38</title>
<ellipse fill="none" stroke="black" cx="612" cy="-677.169" rx="18.2703" ry="18.2703"/>
<text text-anchor="middle" x="612" y="-674.969" font-family="Times New Roman,serif" font-size="9.00">38</text>
</g>
<!-- 35&#45;&gt;38 -->
<g id="edge15" class="edge"><title>35&#45;&gt;38</title>
<path fill="none" stroke="green" d="M610.603,-1432.46C602.19,-1428.48 591.697,-1423.83 582,-1420.42 521.79,-1399.27 484.641,-1432.78 443,-1384.42 345.63,-1271.34 408,-1199.72 408,-1050.5 408,-1050.5 408,-1050.5 408,-824.536 408,-738.95 528.003,-698.548 583.931,-684.366"/>
<polygon fill="green" stroke="green" points="585.005,-687.707 593.896,-681.945 583.353,-680.905 585.005,-687.707"/>
</g>
<!-- 12 -->
<g id="node72" class="node"><title>12</title>
<ellipse fill="none" stroke="black" cx="658" cy="-217.924" rx="18.2703" ry="18.2703"/>
<text text-anchor="middle" x="658" y="-215.724" font-family="Times New Roman,serif" font-size="9.00">12</text>
</g>
<!-- 35&#45;&gt;12 -->
<g id="edge23" class="edge"><title>35&#45;&gt;12</title>
<path fill="none" stroke="green" d="M610.669,-1432.27C602.273,-1428.24 591.774,-1423.6 582,-1420.42 507.724,-1396.28 467.976,-1436.75 410,-1384.42 217.786,-1210.92 321.378,-1060.93 356,-804.323 380.411,-623.394 422.971,-583.994 510,-423.505 546.958,-355.352 547.829,-332.25 597,-272.309 608.241,-258.606 623.184,-245.466 635.467,-235.65"/>
<polygon fill="green" stroke="green" points="637.728,-238.326 643.468,-229.421 633.427,-232.803 637.728,-238.326"/>
</g>
<!-- 17 -->
<g id="node78" class="node"><title>17</title>
<ellipse fill="none" stroke="black" cx="538" cy="-72.3848" rx="18.2703" ry="18.2703"/>
<text text-anchor="middle" x="538" y="-70.1848" font-family="Times New Roman,serif" font-size="9.00">17</text>
</g>
<!-- 35&#45;&gt;17 -->
<g id="edge78" class="edge"><title>35&#45;&gt;17</title>
<path fill="none" stroke="green" d="M611.141,-1432.3C602.691,-1428.17 592.002,-1423.44 582,-1420.42 488.412,-1392.16 446.57,-1438.31 365,-1384.42 261.994,-1316.37 256,-1252.38 256,-1128.93 256,-1128.93 256,-1128.93 256,-216.924 256,-104.057 437.633,-79.9011 509.359,-74.7623"/>
<polygon fill="green" stroke="green" points="509.742,-78.245 519.497,-74.1118 509.294,-71.2594 509.742,-78.245"/>
</g>
<!-- 82 -->
<g id="node31" class="node"><title>82</title>
<ellipse fill="none" stroke="black" cx="1480" cy="-1441.63" rx="18.2703" ry="18.2703"/>
<text text-anchor="middle" x="1480" y="-1439.43" font-family="Times New Roman,serif" font-size="9.00">82</text>
</g>
<!-- 49&#45;&gt;82 -->
<g id="edge91" class="edge"><title>49&#45;&gt;82</title>
<path fill="none" stroke="red" d="M1497.9,-1502.1C1495.01,-1492.5 1491.33,-1480.28 1488.06,-1469.42"/>
<polygon fill="red" stroke="red" points="1491.32,-1468.11 1485.09,-1459.55 1484.62,-1470.13 1491.32,-1468.11"/>
</g>
<!-- 56 -->
<g id="node34" class="node"><title>56</title>
<ellipse fill="none" stroke="black" cx="1521" cy="-1363.21" rx="18.2703" ry="18.2703"/>
<text text-anchor="middle" x="1521" y="-1361.01" font-family="Times New Roman,serif" font-size="9.00">56</text>
</g>
<!-- 49&#45;&gt;56 -->
<g id="edge93" class="edge"><title>49&#45;&gt;56</title>
<path fill="none" stroke="red" d="M1514.91,-1505.89C1523.76,-1495.17 1535.1,-1479.19 1540,-1462.85 1547.32,-1438.41 1540.07,-1409.69 1532.51,-1389.56"/>
<polygon fill="red" stroke="red" points="1535.71,-1388.13 1528.72,-1380.16 1529.21,-1390.74 1535.71,-1388.13"/>
</g>
<!-- 49&#45;&gt;54 -->
<g id="edge108" class="edge"><title>49&#45;&gt;54</title>
<path fill="none" stroke="green" d="M1517.06,-1508.16C1529.33,-1497.85 1546.6,-1481.24 1556,-1462.85 1608.62,-1359.89 1602.54,-1216.24 1597.11,-1156.59"/>
<polygon fill="green" stroke="green" points="1600.58,-1156.07 1596.12,-1146.46 1593.61,-1156.75 1600.58,-1156.07"/>
</g>
<!-- 44 -->
<g id="node42" class="node"><title>44</title>
<ellipse fill="none" stroke="black" cx="955" cy="-1206.35" rx="18.2703" ry="18.2703"/>
<text text-anchor="middle" x="955" y="-1204.15" font-family="Times New Roman,serif" font-size="9.00">44</text>
</g>
<!-- 49&#45;&gt;44 -->
<g id="edge120" class="edge"><title>49&#45;&gt;44</title>
<path fill="none" stroke="red" d="M1487.19,-1510.07C1410.08,-1466.21 1073.34,-1274.67 979.41,-1221.24"/>
<polygon fill="red" stroke="red" points="981.034,-1218.14 970.611,-1216.23 977.573,-1224.22 981.034,-1218.14"/>
</g>
<!-- 49&#45;&gt;11 -->
<g id="edge20" class="edge"><title>49&#45;&gt;11</title>
<path fill="none" stroke="green" d="M1505.9,-1501.81C1508.73,-1482 1511.93,-1448.61 1507,-1420.42 1504.07,-1403.66 1498.8,-1400.74 1494,-1384.42 1473.82,-1315.8 1466.05,-1298.64 1458,-1227.57 1455.88,-1208.83 1451.16,-1202.71 1458,-1185.14 1465.87,-1164.91 1482.22,-1168.99 1491,-1149.14 1500.91,-1126.75 1502.58,-1098.74 1502.11,-1078.3"/>
<polygon fill="green" stroke="green" points="1505.6,-1077.94 1501.68,-1068.09 1498.6,-1078.23 1505.6,-1077.94"/>
</g>
<!-- 46&#45;&gt;29 -->
<g id="edge13" class="edge"><title>46&#45;&gt;29</title>
<path fill="none" stroke="red" d="M1129.72,-1194.41C1115.9,-1183.54 1094.66,-1166.11 1078,-1149.14 1053.95,-1124.66 1029.36,-1093.7 1013.67,-1073.06"/>
<polygon fill="red" stroke="red" points="1016.34,-1070.77 1007.53,-1064.89 1010.75,-1074.98 1016.34,-1070.77"/>
</g>
<!-- 46&#45;&gt;19 -->
<g id="edge24" class="edge"><title>46&#45;&gt;19</title>
<path fill="none" stroke="red" d="M1161.42,-1199.36C1200,-1186.08 1292.88,-1154.1 1339.04,-1138.21"/>
<polygon fill="red" stroke="red" points="1340.34,-1141.46 1348.66,-1134.9 1338.07,-1134.84 1340.34,-1141.46"/>
</g>
<!-- 46&#45;&gt;38 -->
<g id="edge65" class="edge"><title>46&#45;&gt;38</title>
<path fill="none" stroke="red" d="M1135.32,-1189.66C1117.12,-1157.48 1072.59,-1082.48 1024,-1028.29 892.923,-882.118 701.004,-741.078 635.165,-694.361"/>
<polygon fill="red" stroke="red" points="636.918,-691.315 626.731,-688.405 632.88,-697.033 636.918,-691.315"/>
</g>
<!-- 103 -->
<g id="node44" class="node"><title>103</title>
<ellipse fill="none" stroke="black" cx="1461" cy="-1127.93" rx="21.4286" ry="21.4286"/>
<text text-anchor="middle" x="1461" y="-1125.73" font-family="Times New Roman,serif" font-size="9.00">103</text>
</g>
<!-- 47&#45;&gt;103 -->
<g id="edge139" class="edge"><title>47&#45;&gt;103</title>
<path fill="none" stroke="red" d="M1291.72,-1199.89C1320.49,-1190.77 1378.88,-1171.26 1426,-1149.14 1428.77,-1147.84 1431.61,-1146.4 1434.42,-1144.9"/>
<polygon fill="red" stroke="red" points="1436.13,-1147.95 1443.15,-1140.02 1432.71,-1141.84 1436.13,-1147.95"/>
</g>
<!-- 113 -->
<g id="node45" class="node"><title>113</title>
<ellipse fill="none" stroke="black" cx="1271" cy="-1127.93" rx="21.4286" ry="21.4286"/>
<text text-anchor="middle" x="1271" y="-1125.73" font-family="Times New Roman,serif" font-size="9.00">113</text>
</g>
<!-- 47&#45;&gt;113 -->
<g id="edge147" class="edge"><title>47&#45;&gt;113</title>
<path fill="none" stroke="red" d="M1273.3,-1187.63C1272.97,-1179.21 1272.57,-1168.91 1272.19,-1159.29"/>
<polygon fill="red" stroke="red" points="1275.69,-1159.11 1271.8,-1149.26 1268.69,-1159.39 1275.69,-1159.11"/>
</g>
<!-- 47&#45;&gt;29 -->
<g id="edge36" class="edge"><title>47&#45;&gt;29</title>
<path fill="none" stroke="red" d="M1264.84,-1190.17C1249.62,-1165.41 1219.21,-1117.96 1203,-1106.71 1147.95,-1068.51 1067.93,-1056.23 1025.65,-1052.31"/>
<polygon fill="red" stroke="red" points="1025.77,-1048.81 1015.51,-1051.47 1025.19,-1055.79 1025.77,-1048.81"/>
</g>
<!-- 47&#45;&gt;11 -->
<g id="edge32" class="edge"><title>47&#45;&gt;11</title>
<path fill="none" stroke="red" d="M1291.33,-1199.65C1315.6,-1191.14 1360.4,-1173.46 1393,-1149.14 1413.29,-1134.01 1412.69,-1124.19 1431,-1106.71 1445.81,-1092.58 1463.77,-1078.02 1477.66,-1067.26"/>
<polygon fill="red" stroke="red" points="1479.9,-1069.95 1485.71,-1061.09 1475.65,-1064.39 1479.9,-1069.95"/>
</g>
<!-- 69&#45;&gt;54 -->
<g id="edge75" class="edge"><title>69&#45;&gt;54</title>
<path fill="none" stroke="red" d="M1723.28,-1423.08C1720.76,-1379.5 1709.52,-1264.19 1660,-1185.14 1646.77,-1164.02 1635.92,-1165.37 1617,-1149.14 1616.43,-1148.65 1615.84,-1148.15 1615.26,-1147.64"/>
<polygon fill="red" stroke="red" points="1617.41,-1144.88 1607.57,-1140.95 1612.82,-1150.16 1617.41,-1144.88"/>
</g>
<!-- 69&#45;&gt;94 -->
<g id="edge35" class="edge"><title>69&#45;&gt;94</title>
<path fill="none" stroke="red" d="M1705.72,-1438.84C1668.39,-1435.21 1580.7,-1426.76 1507,-1420.42 1405.73,-1411.71 1146.42,-1419.47 1051,-1384.42 1048.9,-1383.65 1046.81,-1382.67 1044.78,-1381.56"/>
<polygon fill="red" stroke="red" points="1046.67,-1378.62 1036.38,-1376.12 1042.87,-1384.5 1046.67,-1378.62"/>
</g>
<!-- 83&#45;&gt;36 -->
<g id="edge44" class="edge"><title>83&#45;&gt;36</title>
<path fill="none" stroke="green" d="M555.902,-1423.1C557.975,-1382.81 563.09,-1283.37 565.585,-1234.86"/>
<polygon fill="green" stroke="green" points="569.086,-1234.94 566.104,-1224.77 562.095,-1234.58 569.086,-1234.94"/>
</g>
<!-- 82&#45;&gt;56 -->
<g id="edge109" class="edge"><title>82&#45;&gt;56</title>
<path fill="none" stroke="green" d="M1488.3,-1425.17C1493.91,-1414.7 1501.44,-1400.67 1507.86,-1388.7"/>
<polygon fill="green" stroke="green" points="1511.07,-1390.12 1512.72,-1379.65 1504.9,-1386.81 1511.07,-1390.12"/>
</g>
<!-- 82&#45;&gt;94 -->
<g id="edge119" class="edge"><title>82&#45;&gt;94</title>
<path fill="none" stroke="red" d="M1461.49,-1439.42C1389.43,-1434.51 1127.8,-1414.9 1051,-1384.42 1048.92,-1383.59 1046.85,-1382.58 1044.83,-1381.45"/>
<polygon fill="red" stroke="red" points="1046.72,-1378.5 1036.44,-1375.96 1042.89,-1384.36 1046.72,-1378.5"/>
</g>
<!-- 55&#45;&gt;43 -->
<g id="edge59" class="edge"><title>55&#45;&gt;43</title>
<path fill="none" stroke="red" d="M487.906,-1358.21C544.004,-1345.67 716.628,-1307.09 784.339,-1291.96"/>
<polygon fill="red" stroke="red" points="785.275,-1295.34 794.271,-1289.74 783.749,-1288.51 785.275,-1295.34"/>
</g>
<!-- 55&#45;&gt;63 -->
<g id="edge95" class="edge"><title>55&#45;&gt;63</title>
<path fill="none" stroke="green" d="M454.514,-1352.98C410.89,-1327 286.74,-1253.06 234.083,-1221.7"/>
<polygon fill="green" stroke="green" points="235.787,-1218.64 225.404,-1216.53 232.205,-1224.65 235.787,-1218.64"/>
</g>
<!-- 55&#45;&gt;30 -->
<g id="edge138" class="edge"><title>55&#45;&gt;30</title>
<path fill="none" stroke="green" d="M471.133,-1344.5C475.323,-1286.62 492.786,-1098.49 550,-955.519 554.331,-944.696 560.912,-933.674 567.134,-924.478"/>
<polygon fill="green" stroke="green" points="570.007,-926.477 572.904,-916.286 564.284,-922.446 570.007,-926.477"/>
</g>
<!-- 144 -->
<g id="node36" class="node"><title>144</title>
<ellipse fill="none" stroke="black" cx="983" cy="-1284.78" rx="21.4286" ry="21.4286"/>
<text text-anchor="middle" x="983" y="-1282.58" font-family="Times New Roman,serif" font-size="9.00">144</text>
</g>
<!-- 135&#45;&gt;144 -->
<g id="edge96" class="edge"><title>135&#45;&gt;144</title>
<path fill="none" stroke="green" d="M924.422,-1347.11C935.021,-1336.01 949.597,-1320.75 961.557,-1308.23"/>
<polygon fill="green" stroke="green" points="964.231,-1310.5 968.608,-1300.85 959.169,-1305.66 964.231,-1310.5"/>
</g>
<!-- 135&#45;&gt;44 -->
<g id="edge112" class="edge"><title>135&#45;&gt;44</title>
<path fill="none" stroke="green" d="M915.699,-1342.6C923.689,-1315.1 938.244,-1265.02 947.223,-1234.12"/>
<polygon fill="green" stroke="green" points="950.607,-1235.01 950.037,-1224.43 943.885,-1233.06 950.607,-1235.01"/>
</g>
<!-- 53 -->
<g id="node53" class="node"><title>53</title>
<ellipse fill="none" stroke="black" cx="737" cy="-1206.35" rx="18.2703" ry="18.2703"/>
<text text-anchor="middle" x="737" y="-1204.15" font-family="Times New Roman,serif" font-size="9.00">53</text>
</g>
<!-- 135&#45;&gt;53 -->
<g id="edge79" class="edge"><title>135&#45;&gt;53</title>
<path fill="none" stroke="green" d="M900.219,-1343.97C888.079,-1322.63 865.683,-1287.22 839,-1263.57 816.301,-1243.45 785.177,-1227.6 763.298,-1217.93"/>
<polygon fill="green" stroke="green" points="764.529,-1214.65 753.959,-1213.93 761.772,-1221.09 764.529,-1214.65"/>
</g>
<!-- 56&#45;&gt;59 -->
<g id="edge110" class="edge"><title>56&#45;&gt;59</title>
<path fill="none" stroke="red" d="M1528.87,-1346.37C1533.97,-1336.12 1540.71,-1322.56 1546.53,-1310.87"/>
<polygon fill="red" stroke="red" points="1549.82,-1312.11 1551.14,-1301.6 1543.55,-1308.99 1549.82,-1312.11"/>
</g>
<!-- 56&#45;&gt;54 -->
<g id="edge94" class="edge"><title>56&#45;&gt;54</title>
<path fill="none" stroke="red" d="M1517.51,-1345.02C1511.7,-1312.08 1503.09,-1238.58 1529,-1185.14 1533.77,-1175.31 1554.36,-1158.33 1571.1,-1145.59"/>
<polygon fill="red" stroke="red" points="1573.49,-1148.18 1579.41,-1139.38 1569.3,-1142.57 1573.49,-1148.18"/>
</g>
<!-- 129 -->
<g id="node38" class="node"><title>129</title>
<ellipse fill="none" stroke="black" cx="1559" cy="-1206.35" rx="21.4286" ry="21.4286"/>
<text text-anchor="middle" x="1559" y="-1204.15" font-family="Times New Roman,serif" font-size="9.00">129</text>
</g>
<!-- 59&#45;&gt;129 -->
<g id="edge71" class="edge"><title>59&#45;&gt;129</title>
<path fill="none" stroke="red" d="M1559,-1266.06C1559,-1257.64 1559,-1247.33 1559,-1237.72"/>
<polygon fill="red" stroke="red" points="1562.5,-1237.68 1559,-1227.68 1555.5,-1237.68 1562.5,-1237.68"/>
</g>
<!-- 144&#45;&gt;44 -->
<g id="edge97" class="edge"><title>144&#45;&gt;44</title>
<path fill="none" stroke="red" d="M975.934,-1264.5C972.484,-1255.08 968.281,-1243.61 964.549,-1233.42"/>
<polygon fill="red" stroke="red" points="967.746,-1231.97 961.02,-1223.79 961.173,-1234.38 967.746,-1231.97"/>
</g>
<!-- 163&#45;&gt;63 -->
<g id="edge169" class="edge"><title>163&#45;&gt;63</title>
<path fill="none" stroke="red" d="M173.665,-1266.44C180.119,-1255.94 188.436,-1242.42 195.484,-1230.96"/>
<polygon fill="red" stroke="red" points="198.547,-1232.66 200.805,-1222.31 192.585,-1228.99 198.547,-1232.66"/>
</g>
<!-- 129&#45;&gt;54 -->
<g id="edge72" class="edge"><title>129&#45;&gt;54</title>
<path fill="none" stroke="green" d="M1567.47,-1186.85C1571.96,-1177.05 1577.55,-1164.85 1582.43,-1154.18"/>
<polygon fill="green" stroke="green" points="1585.69,-1155.48 1586.67,-1144.93 1579.33,-1152.56 1585.69,-1155.48"/>
</g>
<!-- 43&#45;&gt;63 -->
<g id="edge21" class="edge"><title>43&#45;&gt;63</title>
<path fill="none" stroke="red" d="M793.655,-1281.45C707.537,-1270.52 343.185,-1224.26 238.335,-1210.95"/>
<polygon fill="red" stroke="red" points="238.563,-1207.45 228.202,-1209.67 237.682,-1214.4 238.563,-1207.45"/>
</g>
<!-- 43&#45;&gt;53 -->
<g id="edge41" class="edge"><title>43&#45;&gt;53</title>
<path fill="none" stroke="green" d="M799.615,-1271.16C787.89,-1259.21 770.103,-1241.09 756.479,-1227.2"/>
<polygon fill="green" stroke="green" points="758.905,-1224.68 749.403,-1219.99 753.909,-1229.58 758.905,-1224.68"/>
</g>
<!-- 54&#45;&gt;11 -->
<g id="edge16" class="edge"><title>54&#45;&gt;11</title>
<path fill="none" stroke="green" d="M1580.13,-1115.65C1564.86,-1103.23 1540.09,-1083.09 1522.13,-1068.49"/>
<polygon fill="green" stroke="green" points="1523.89,-1065.42 1513.93,-1061.82 1519.48,-1070.85 1523.89,-1065.42"/>
</g>
<!-- 94&#45;&gt;36 -->
<g id="edge141" class="edge"><title>94&#45;&gt;36</title>
<path fill="none" stroke="green" d="M1007.95,-1352.18C977.424,-1332.28 905.443,-1287.67 839,-1263.57 753.27,-1232.47 645.759,-1216.64 595.437,-1210.49"/>
<polygon fill="green" stroke="green" points="595.658,-1206.99 585.315,-1209.29 594.834,-1213.95 595.658,-1206.99"/>
</g>
<!-- 132 -->
<g id="node56" class="node"><title>132</title>
<ellipse fill="none" stroke="black" cx="761" cy="-1049.5" rx="21.4286" ry="21.4286"/>
<text text-anchor="middle" x="761" y="-1047.3" font-family="Times New Roman,serif" font-size="9.00">132</text>
</g>
<!-- 94&#45;&gt;132 -->
<g id="edge145" class="edge"><title>94&#45;&gt;132</title>
<path fill="none" stroke="red" d="M1027.73,-1345.32C1039.52,-1299.18 1064.61,-1170.19 997,-1106.71 967.503,-1079.02 849.365,-1061.24 792.242,-1054.08"/>
<polygon fill="red" stroke="red" points="792.348,-1050.57 781.998,-1052.83 791.5,-1057.52 792.348,-1050.57"/>
</g>
<!-- 44&#45;&gt;29 -->
<g id="edge76" class="edge"><title>44&#45;&gt;29</title>
<path fill="none" stroke="green" d="M948.267,-1189C941.04,-1168.9 931.985,-1134.08 943,-1106.71 949.364,-1090.9 962.535,-1077.05 974.275,-1067.04"/>
<polygon fill="green" stroke="green" points="976.483,-1069.76 982.074,-1060.76 972.091,-1064.31 976.483,-1069.76"/>
</g>
<!-- 199 -->
<g id="node46" class="node"><title>199</title>
<ellipse fill="none" stroke="black" cx="603" cy="-1284.78" rx="21.4286" ry="21.4286"/>
<text text-anchor="middle" x="603" y="-1282.58" font-family="Times New Roman,serif" font-size="9.00">199</text>
</g>
<!-- 195&#45;&gt;199 -->
<g id="edge115" class="edge"><title>195&#45;&gt;199</title>
<path fill="none" stroke="red" d="M603,-1341.73C603,-1333.87 603,-1324.72 603,-1316.13"/>
<polygon fill="red" stroke="red" points="606.5,-1316.05 603,-1306.05 599.5,-1316.05 606.5,-1316.05"/>
</g>
<!-- 48 -->
<g id="node57" class="node"><title>48</title>
<ellipse fill="none" stroke="black" cx="752" cy="-973.904" rx="18.2703" ry="18.2703"/>
<text text-anchor="middle" x="752" y="-971.704" font-family="Times New Roman,serif" font-size="9.00">48</text>
</g>
<!-- 195&#45;&gt;48 -->
<g id="edge124" class="edge"><title>195&#45;&gt;48</title>
<path fill="none" stroke="green" d="M614.803,-1345.39C621.591,-1334.66 629.457,-1320.16 633,-1305.99 654.562,-1219.8 582.507,-1188.6 617,-1106.71 639.549,-1053.18 695.634,-1010.57 727.976,-989.431"/>
<polygon fill="green" stroke="green" points="729.87,-992.375 736.421,-984.048 726.107,-986.472 729.87,-992.375"/>
</g>
<!-- 103&#45;&gt;11 -->
<g id="edge140" class="edge"><title>103&#45;&gt;11</title>
<path fill="none" stroke="red" d="M1470.24,-1108.82C1475.36,-1098.78 1481.81,-1086.15 1487.39,-1075.22"/>
<polygon fill="red" stroke="red" points="1490.58,-1076.65 1492.01,-1066.16 1484.35,-1073.47 1490.58,-1076.65"/>
</g>
<!-- 113&#45;&gt;29 -->
<g id="edge148" class="edge"><title>113&#45;&gt;29</title>
<path fill="none" stroke="green" d="M1253.7,-1115.6C1248.21,-1112.37 1242,-1109.09 1236,-1106.71 1162.81,-1077.71 1070.83,-1061.3 1025.26,-1054.4"/>
<polygon fill="green" stroke="green" points="1025.64,-1050.92 1015.23,-1052.93 1024.62,-1057.85 1025.64,-1050.92"/>
</g>
<!-- 199&#45;&gt;36 -->
<g id="edge116" class="edge"><title>199&#45;&gt;36</title>
<path fill="none" stroke="green" d="M594.285,-1265.28C589.665,-1255.47 583.921,-1243.28 578.896,-1232.61"/>
<polygon fill="green" stroke="green" points="581.965,-1230.91 574.537,-1223.36 575.632,-1233.89 581.965,-1230.91"/>
</g>
<!-- 40 -->
<g id="node74" class="node"><title>40</title>
<ellipse fill="none" stroke="black" cx="1118" cy="-749.938" rx="18.2703" ry="18.2703"/>
<text text-anchor="middle" x="1118" y="-747.738" font-family="Times New Roman,serif" font-size="9.00">40</text>
</g>
<!-- 63&#45;&gt;40 -->
<g id="edge162" class="edge"><title>63&#45;&gt;40</title>
<path fill="none" stroke="green" d="M212.276,-1187.79C215.721,-1166.79 223.889,-1131.39 242,-1106.71 343.649,-968.238 404.266,-961.366 557,-882.749 744.675,-786.147 1004.04,-759.246 1089.46,-752.771"/>
<polygon fill="green" stroke="green" points="1089.73,-756.261 1099.45,-752.049 1089.22,-749.28 1089.73,-756.261"/>
</g>
<!-- 29&#45;&gt;48 -->
<g id="edge29" class="edge"><title>29&#45;&gt;48</title>
<path fill="none" stroke="green" d="M979.38,-1043.21C937.089,-1030.5 829.608,-998.217 779.057,-983.032"/>
<polygon fill="green" stroke="green" points="780.044,-979.674 769.46,-980.149 778.03,-986.378 780.044,-979.674"/>
</g>
<!-- 29&#45;&gt;12 -->
<g id="edge19" class="edge"><title>29&#45;&gt;12</title>
<path fill="none" stroke="green" d="M1006.48,-1033.35C1021.72,-1007.48 1050,-952.672 1050,-902.134 1050,-902.134 1050,-902.134 1050,-368.12 1050,-290.187 775.949,-238.273 686.13,-223.352"/>
<polygon fill="green" stroke="green" points="686.554,-219.875 676.121,-221.716 685.425,-226.783 686.554,-219.875"/>
</g>
<!-- 36&#45;&gt;79 -->
<g id="edge28" class="edge"><title>36&#45;&gt;79</title>
<path fill="none" stroke="green" d="M585.099,-1201.92C649.022,-1189.8 864.498,-1148.94 941.966,-1134.24"/>
<polygon fill="green" stroke="green" points="942.778,-1137.65 951.951,-1132.35 941.474,-1130.78 942.778,-1137.65"/>
</g>
<!-- 36&#45;&gt;30 -->
<g id="edge34" class="edge"><title>36&#45;&gt;30</title>
<path fill="none" stroke="red" d="M559.357,-1189.55C554.459,-1178.52 548.556,-1163.29 546,-1149.14 536.449,-1096.28 538.171,-1081.43 546,-1028.29 551.246,-992.687 564.395,-953.198 573.753,-928.046"/>
<polygon fill="red" stroke="red" points="577.095,-929.105 577.374,-918.514 570.551,-926.619 577.095,-929.105"/>
</g>
<!-- 36&#45;&gt;58 -->
<g id="edge73" class="edge"><title>36&#45;&gt;58</title>
<path fill="none" stroke="red" d="M585.043,-1202.68C612.149,-1198.7 665.002,-1191.03 710,-1185.14 875.62,-1163.45 1074.78,-1140.46 1147.58,-1132.15"/>
<polygon fill="red" stroke="red" points="1148.23,-1135.6 1157.77,-1130.99 1147.44,-1128.65 1148.23,-1135.6"/>
</g>
<!-- 36&#45;&gt;12 -->
<g id="edge18" class="edge"><title>36&#45;&gt;12</title>
<path fill="none" stroke="green" d="M549.17,-1200.71C500.677,-1186.88 370,-1141.2 370,-1050.5 370,-1050.5 370,-1050.5 370,-824.536 370,-695.949 584.428,-338.366 643.238,-242.712"/>
<polygon fill="green" stroke="green" points="646.312,-244.395 648.581,-234.046 640.354,-240.721 646.312,-244.395"/>
</g>
<!-- 26 -->
<g id="node60" class="node"><title>26</title>
<ellipse fill="none" stroke="black" cx="1394" cy="-973.904" rx="18.2703" ry="18.2703"/>
<text text-anchor="middle" x="1394" y="-971.704" font-family="Times New Roman,serif" font-size="9.00">26</text>
</g>
<!-- 11&#45;&gt;26 -->
<g id="edge51" class="edge"><title>11&#45;&gt;26</title>
<path fill="none" stroke="red" d="M1485.26,-1038.27C1467.64,-1026.03 1437.94,-1005.41 1417.22,-991.027"/>
<polygon fill="red" stroke="red" points="1419.17,-988.116 1408.96,-985.288 1415.17,-993.866 1419.17,-988.116"/>
</g>
<!-- 111 -->
<g id="node66" class="node"><title>111</title>
<ellipse fill="none" stroke="black" cx="907" cy="-601.571" rx="21.4286" ry="21.4286"/>
<text text-anchor="middle" x="907" y="-599.371" font-family="Times New Roman,serif" font-size="9.00">111</text>
</g>
<!-- 11&#45;&gt;111 -->
<g id="edge165" class="edge"><title>11&#45;&gt;111</title>
<path fill="none" stroke="green" d="M1511.28,-1034.86C1534.08,-1005.53 1581.1,-934.895 1552,-882.749 1422.89,-651.378 1049.14,-610.938 938.323,-603.987"/>
<polygon fill="green" stroke="green" points="938.332,-600.482 928.146,-603.398 937.928,-607.47 938.332,-600.482"/>
</g>
<!-- 11&#45;&gt;7 -->
<g id="edge56" class="edge"><title>11&#45;&gt;7</title>
<path fill="none" stroke="red" d="M1491.8,-1032.93C1474.87,-1001.81 1433.56,-930.77 1385,-882.749 1366.62,-864.578 1341.64,-848.573 1323.89,-838.336"/>
<polygon fill="red" stroke="red" points="1325.3,-835.112 1314.87,-833.264 1321.87,-841.215 1325.3,-835.112"/>
</g>
<!-- 19&#45;&gt;7 -->
<g id="edge14" class="edge"><title>19&#45;&gt;7</title>
<path fill="none" stroke="red" d="M1365.13,-1109.36C1362.72,-1068.67 1354.39,-965.104 1329,-882.749 1325.28,-870.675 1319.34,-857.927 1313.98,-847.629"/>
<polygon fill="red" stroke="red" points="1316.94,-845.744 1309.1,-838.609 1310.78,-849.071 1316.94,-845.744"/>
</g>
<!-- 19&#45;&gt;40 -->
<g id="edge52" class="edge"><title>19&#45;&gt;40</title>
<path fill="none" stroke="green" d="M1356.28,-1112.19C1318.4,-1054.76 1180.46,-845.639 1133.66,-774.68"/>
<polygon fill="green" stroke="green" points="1136.35,-772.405 1127.92,-765.984 1130.51,-776.259 1136.35,-772.405"/>
</g>
<!-- 169 -->
<g id="node55" class="node"><title>169</title>
<ellipse fill="none" stroke="black" cx="647" cy="-1127.93" rx="21.4286" ry="21.4286"/>
<text text-anchor="middle" x="647" y="-1125.73" font-family="Times New Roman,serif" font-size="9.00">169</text>
</g>
<!-- 53&#45;&gt;169 -->
<g id="edge117" class="edge"><title>53&#45;&gt;169</title>
<path fill="none" stroke="green" d="M723.331,-1193.75C709.385,-1181.9 687.47,-1163.29 670.693,-1149.05"/>
<polygon fill="green" stroke="green" points="672.815,-1146.26 662.927,-1142.45 668.284,-1151.59 672.815,-1146.26"/>
</g>
<!-- 53&#45;&gt;132 -->
<g id="edge80" class="edge"><title>53&#45;&gt;132</title>
<path fill="none" stroke="green" d="M740.648,-1188.18C742.936,-1177.08 745.849,-1162.29 748,-1149.14 751.717,-1126.42 755.088,-1100.61 757.466,-1081.09"/>
<polygon fill="green" stroke="green" points="760.966,-1081.3 758.68,-1070.96 754.015,-1080.47 760.966,-1081.3"/>
</g>
<!-- 53&#45;&gt;48 -->
<g id="edge85" class="edge"><title>53&#45;&gt;48</title>
<path fill="none" stroke="green" d="M733.919,-1188.07C728.782,-1156.16 720.056,-1086.01 731,-1028.29 732.806,-1018.76 736.276,-1008.76 739.883,-1000.02"/>
<polygon fill="green" stroke="green" points="743.122,-1001.35 743.932,-990.787 736.711,-998.54 743.122,-1001.35"/>
</g>
<!-- 53&#45;&gt;30 -->
<g id="edge42" class="edge"><title>53&#45;&gt;30</title>
<path fill="none" stroke="green" d="M718.923,-1202.44C691.967,-1197.07 641.761,-1182.91 617,-1149.14 568.357,-1082.81 573.763,-978.767 579.767,-929.61"/>
<polygon fill="green" stroke="green" points="583.271,-929.813 581.117,-919.439 576.332,-928.892 583.271,-929.813"/>
</g>
<!-- 100&#45;&gt;12 -->
<g id="edge172" class="edge"><title>100&#45;&gt;12</title>
<path fill="none" stroke="red" d="M1387.42,-432.171C1338.51,-400.653 1195.74,-312.808 1064,-272.309 927.213,-230.256 754.519,-221.329 686.957,-219.434"/>
<polygon fill="red" stroke="red" points="686.76,-215.929 676.676,-219.179 686.586,-222.926 686.76,-215.929"/>
</g>
<!-- 169&#45;&gt;132 -->
<g id="edge118" class="edge"><title>169&#45;&gt;132</title>
<path fill="none" stroke="red" d="M664.314,-1115.32C683.146,-1102.7 713.452,-1082.38 735.114,-1067.86"/>
<polygon fill="red" stroke="red" points="737.166,-1070.69 743.523,-1062.22 733.268,-1064.88 737.166,-1070.69"/>
</g>
<!-- 169&#45;&gt;30 -->
<g id="edge164" class="edge"><title>169&#45;&gt;30</title>
<path fill="none" stroke="green" d="M644.735,-1106.64C640.684,-1074.04 630.806,-1008.31 612,-955.519 608.403,-945.421 603.202,-934.858 598.257,-925.819"/>
<polygon fill="green" stroke="green" points="601.251,-924.005 593.273,-917.033 595.163,-927.458 601.251,-924.005"/>
</g>
<!-- 132&#45;&gt;48 -->
<g id="edge81" class="edge"><title>132&#45;&gt;48</title>
<path fill="none" stroke="red" d="M758.541,-1028.39C757.564,-1020.4 756.424,-1011.08 755.373,-1002.48"/>
<polygon fill="red" stroke="red" points="758.838,-1001.99 754.15,-992.485 751.89,-1002.84 758.838,-1001.99"/>
</g>
<!-- 48&#45;&gt;30 -->
<g id="edge30" class="edge"><title>48&#45;&gt;30</title>
<path fill="none" stroke="green" d="M735.277,-965.859C705.968,-953.513 645.123,-927.882 610.188,-913.166"/>
<polygon fill="green" stroke="green" points="611.23,-909.807 600.655,-909.15 608.512,-916.258 611.23,-909.807"/>
</g>
<!-- 27 -->
<g id="node65" class="node"><title>27</title>
<ellipse fill="none" stroke="black" cx="1302" cy="-901.134" rx="18.2703" ry="18.2703"/>
<text text-anchor="middle" x="1302" y="-898.934" font-family="Times New Roman,serif" font-size="9.00">27</text>
</g>
<!-- 48&#45;&gt;27 -->
<g id="edge170" class="edge"><title>48&#45;&gt;27</title>
<path fill="none" stroke="red" d="M770.299,-970.549C851.056,-960.158 1175.87,-918.363 1273.87,-905.754"/>
<polygon fill="red" stroke="red" points="1274.44,-909.209 1283.91,-904.462 1273.55,-902.267 1274.44,-909.209"/>
</g>
<!-- 238 -->
<g id="node62" class="node"><title>238</title>
<ellipse fill="none" stroke="black" cx="571" cy="-825.536" rx="21.4286" ry="21.4286"/>
<text text-anchor="middle" x="571" y="-823.336" font-family="Times New Roman,serif" font-size="9.00">238</text>
</g>
<!-- 30&#45;&gt;238 -->
<g id="edge131" class="edge"><title>30&#45;&gt;238</title>
<path fill="none" stroke="red" d="M580.919,-882.692C579.548,-874.932 577.894,-865.566 576.333,-856.726"/>
<polygon fill="red" stroke="red" points="579.751,-855.957 574.565,-846.719 572.858,-857.175 579.751,-855.957"/>
</g>
<!-- 81 -->
<g id="node63" class="node"><title>81</title>
<ellipse fill="none" stroke="black" cx="571" cy="-749.938" rx="18.2703" ry="18.2703"/>
<text text-anchor="middle" x="571" y="-747.738" font-family="Times New Roman,serif" font-size="9.00">81</text>
</g>
<!-- 30&#45;&gt;81 -->
<g id="edge146" class="edge"><title>30&#45;&gt;81</title>
<path fill="none" stroke="red" d="M570.626,-888.516C560.314,-878.607 546.858,-863.36 541,-846.749 534.729,-828.967 536.226,-822.565 541,-804.323 543.826,-793.524 549.381,-782.602 554.951,-773.476"/>
<polygon fill="red" stroke="red" points="557.929,-775.315 560.425,-765.019 552.053,-771.512 557.929,-775.315"/>
</g>
<!-- 30&#45;&gt;38 -->
<g id="edge134" class="edge"><title>30&#45;&gt;38</title>
<path fill="none" stroke="green" d="M590.424,-883.573C594.171,-873.165 598.616,-859.366 601,-846.749 610.246,-797.812 612.066,-739.625 612.243,-705.99"/>
<polygon fill="green" stroke="green" points="615.743,-705.575 612.249,-695.573 608.743,-705.571 615.743,-705.575"/>
</g>
<!-- 30&#45;&gt;12 -->
<g id="edge8" class="edge"><title>30&#45;&gt;12</title>
<path fill="none" stroke="green" d="M595.889,-886.844C616.807,-862.032 658,-806.162 658,-750.938 658,-750.938 658,-750.938 658,-368.12 658,-325.673 658,-276.433 658,-246.49"/>
<polygon fill="green" stroke="green" points="661.5,-246.38 658,-236.38 654.5,-246.38 661.5,-246.38"/>
</g>
<!-- 30&#45;&gt;40 -->
<g id="edge152" class="edge"><title>30&#45;&gt;40</title>
<path fill="none" stroke="green" d="M601.464,-895.255C679.341,-873.496 995.292,-785.222 1090.63,-758.585"/>
<polygon fill="green" stroke="green" points="1091.71,-761.917 1100.4,-755.855 1089.83,-755.176 1091.71,-761.917"/>
</g>
<!-- 13 -->
<g id="node77" class="node"><title>13</title>
<ellipse fill="none" stroke="black" cx="1162" cy="-677.169" rx="18.2703" ry="18.2703"/>
<text text-anchor="middle" x="1162" y="-674.969" font-family="Times New Roman,serif" font-size="9.00">13</text>
</g>
<!-- 50&#45;&gt;13 -->
<g id="edge27" class="edge"><title>50&#45;&gt;13</title>
<path fill="none" stroke="red" d="M1133.79,-955.349C1138.81,-905.999 1153.09,-765.744 1159.18,-705.841"/>
<polygon fill="red" stroke="red" points="1162.69,-705.934 1160.22,-695.631 1155.73,-705.225 1162.69,-705.934"/>
</g>
<!-- 26&#45;&gt;27 -->
<g id="edge82" class="edge"><title>26&#45;&gt;27</title>
<path fill="none" stroke="red" d="M1379.63,-961.846C1364.91,-950.524 1341.82,-932.763 1324.64,-919.55"/>
<polygon fill="red" stroke="red" points="1326.33,-916.437 1316.27,-913.114 1322.07,-921.986 1326.33,-916.437"/>
</g>
<!-- 126 -->
<g id="node68" class="node"><title>126</title>
<ellipse fill="none" stroke="black" cx="911" cy="-444.718" rx="21.4286" ry="21.4286"/>
<text text-anchor="middle" x="911" y="-442.518" font-family="Times New Roman,serif" font-size="9.00">126</text>
</g>
<!-- 26&#45;&gt;126 -->
<g id="edge163" class="edge"><title>26&#45;&gt;126</title>
<path fill="none" stroke="red" d="M1410.52,-965.725C1448.34,-948.046 1538,-898.543 1538,-826.536 1538,-826.536 1538,-826.536 1538,-748.938 1538,-536.898 1297.49,-637.487 1107,-544.357 1046.84,-514.946 976.88,-479.415 938.948,-460.038"/>
<polygon fill="red" stroke="red" points="940.073,-456.682 929.576,-455.246 936.886,-462.915 940.073,-456.682"/>
</g>
<!-- 26&#45;&gt;7 -->
<g id="edge86" class="edge"><title>26&#45;&gt;7</title>
<path fill="none" stroke="green" d="M1390.43,-955.519C1385.96,-936.503 1377.01,-905.679 1362,-882.749 1351.23,-866.29 1334.67,-851.261 1321.67,-840.893"/>
<polygon fill="green" stroke="green" points="1323.8,-838.114 1313.74,-834.784 1319.53,-843.66 1323.8,-838.114"/>
</g>
<!-- 58&#45;&gt;7 -->
<g id="edge74" class="edge"><title>58&#45;&gt;7</title>
<path fill="none" stroke="red" d="M1173.03,-1109.48C1166.73,-1066.8 1156.26,-955.282 1204,-882.749 1221.21,-856.607 1255.04,-841.215 1278.08,-833.328"/>
<polygon fill="red" stroke="red" points="1279.35,-836.597 1287.81,-830.221 1277.22,-829.928 1279.35,-836.597"/>
</g>
<!-- 238&#45;&gt;81 -->
<g id="edge132" class="edge"><title>238&#45;&gt;81</title>
<path fill="none" stroke="red" d="M571,-804.035C571,-796.14 571,-786.99 571,-778.534"/>
<polygon fill="red" stroke="red" points="574.5,-778.339 571,-768.339 567.5,-778.339 574.5,-778.339"/>
</g>
<!-- 81&#45;&gt;38 -->
<g id="edge129" class="edge"><title>81&#45;&gt;38</title>
<path fill="none" stroke="green" d="M579.896,-733.582C585.162,-724.494 591.95,-712.777 597.927,-702.46"/>
<polygon fill="green" stroke="green" points="601.136,-703.902 603.121,-693.495 595.08,-700.393 601.136,-703.902"/>
</g>
<!-- 38&#45;&gt;111 -->
<g id="edge48" class="edge"><title>38&#45;&gt;111</title>
<path fill="none" stroke="green" d="M630.009,-671.676C679.085,-659.432 815.574,-625.38 876.709,-610.128"/>
<polygon fill="green" stroke="green" points="877.676,-613.494 886.531,-607.677 875.982,-606.702 877.676,-613.494"/>
</g>
<!-- 27&#45;&gt;7 -->
<g id="edge83" class="edge"><title>27&#45;&gt;7</title>
<path fill="none" stroke="green" d="M1302,-882.692C1302,-873.102 1302,-861.058 1302,-850.587"/>
<polygon fill="green" stroke="green" points="1305.5,-850.412 1302,-840.412 1298.5,-850.412 1305.5,-850.412"/>
</g>
<!-- 134 -->
<g id="node67" class="node"><title>134</title>
<ellipse fill="none" stroke="black" cx="935" cy="-523.144" rx="21.4286" ry="21.4286"/>
<text text-anchor="middle" x="935" y="-520.944" font-family="Times New Roman,serif" font-size="9.00">134</text>
</g>
<!-- 111&#45;&gt;134 -->
<g id="edge98" class="edge"><title>111&#45;&gt;134</title>
<path fill="none" stroke="green" d="M914.066,-581.285C917.216,-572.686 920.993,-562.377 924.466,-552.897"/>
<polygon fill="green" stroke="green" points="927.783,-554.017 927.937,-543.424 921.21,-551.609 927.783,-554.017"/>
</g>
<!-- 111&#45;&gt;126 -->
<g id="edge111" class="edge"><title>111&#45;&gt;126</title>
<path fill="none" stroke="green" d="M905.713,-580.153C904.661,-560.196 903.562,-528.956 905,-501.931 905.447,-493.524 906.269,-484.439 907.163,-476.075"/>
<polygon fill="green" stroke="green" points="910.66,-476.303 908.312,-465.971 903.704,-475.511 910.66,-476.303"/>
</g>
<!-- 134&#45;&gt;126 -->
<g id="edge99" class="edge"><title>134&#45;&gt;126</title>
<path fill="none" stroke="green" d="M928.819,-502.463C926.168,-494.018 923.015,-483.98 920.105,-474.712"/>
<polygon fill="green" stroke="green" points="923.412,-473.56 917.077,-465.068 916.733,-475.658 923.412,-473.56"/>
</g>
<!-- 52 -->
<g id="node69" class="node"><title>52</title>
<ellipse fill="none" stroke="black" cx="855" cy="-369.12" rx="18.2703" ry="18.2703"/>
<text text-anchor="middle" x="855" y="-366.92" font-family="Times New Roman,serif" font-size="9.00">52</text>
</g>
<!-- 126&#45;&gt;52 -->
<g id="edge69" class="edge"><title>126&#45;&gt;52</title>
<path fill="none" stroke="green" d="M898.572,-427.384C890.766,-417.125 880.592,-403.755 872.039,-392.514"/>
<polygon fill="green" stroke="green" points="874.721,-390.258 865.88,-384.419 869.15,-394.497 874.721,-390.258"/>
</g>
<!-- 124 -->
<g id="node70" class="node"><title>124</title>
<ellipse fill="none" stroke="black" cx="743" cy="-293.522" rx="21.4286" ry="21.4286"/>
<text text-anchor="middle" x="743" y="-291.322" font-family="Times New Roman,serif" font-size="9.00">124</text>
</g>
<!-- 52&#45;&gt;124 -->
<g id="edge63" class="edge"><title>52&#45;&gt;124</title>
<path fill="none" stroke="green" d="M839.895,-358.194C821.737,-346.262 790.967,-326.042 768.972,-311.589"/>
<polygon fill="green" stroke="green" points="770.716,-308.547 760.437,-305.98 766.872,-314.397 770.716,-308.547"/>
</g>
<!-- 124&#45;&gt;12 -->
<g id="edge64" class="edge"><title>124&#45;&gt;12</title>
<path fill="none" stroke="green" d="M727.41,-279.023C713.903,-267.328 694.237,-250.3 679.284,-237.352"/>
<polygon fill="green" stroke="green" points="681.381,-234.539 671.53,-230.639 676.799,-239.831 681.381,-234.539"/>
</g>
<!-- 7&#45;&gt;40 -->
<g id="edge11" class="edge"><title>7&#45;&gt;40</title>
<path fill="none" stroke="red" d="M1288.47,-819.124C1258.1,-806.975 1184.04,-777.354 1144.27,-761.448"/>
<polygon fill="red" stroke="red" points="1145.53,-758.182 1134.95,-757.718 1142.94,-764.682 1145.53,-758.182"/>
</g>
<!-- 7&#45;&gt;13 -->
<g id="edge105" class="edge"><title>7&#45;&gt;13</title>
<path fill="none" stroke="green" d="M1291.93,-814.01C1268.81,-789.839 1211.6,-730.022 1181.39,-698.443"/>
<polygon fill="green" stroke="green" points="1183.77,-695.869 1174.33,-691.061 1178.71,-700.707 1183.77,-695.869"/>
</g>
<!-- 12&#45;&gt;5 -->
<g id="edge4" class="edge"><title>12&#45;&gt;5</title>
<path fill="none" stroke="red" d="M658,-199.282C658,-160.404 658,-67.6803 658,-28.2489"/>
<polygon fill="red" stroke="red" points="661.5,-28.0362 658,-18.0363 654.5,-28.0363 661.5,-28.0362"/>
</g>
<!-- 91 -->
<g id="node75" class="node"><title>91</title>
<ellipse fill="none" stroke="black" cx="599" cy="-145.154" rx="18.2703" ry="18.2703"/>
<text text-anchor="middle" x="599" y="-142.954" font-family="Times New Roman,serif" font-size="9.00">91</text>
</g>
<!-- 12&#45;&gt;91 -->
<g id="edge89" class="edge"><title>12&#45;&gt;91</title>
<path fill="none" stroke="green" d="M646.624,-203.279C638.217,-193.195 626.604,-179.265 616.95,-167.685"/>
<polygon fill="green" stroke="green" points="619.433,-165.197 610.341,-159.758 614.056,-169.68 619.433,-165.197"/>
</g>
<!-- 174 -->
<g id="node76" class="node"><title>174</title>
<ellipse fill="none" stroke="black" cx="558" cy="-601.571" rx="21.4286" ry="21.4286"/>
<text text-anchor="middle" x="558" y="-599.371" font-family="Times New Roman,serif" font-size="9.00">174</text>
</g>
<!-- 8&#45;&gt;174 -->
<g id="edge155" class="edge"><title>8&#45;&gt;174</title>
<path fill="none" stroke="red" d="M839.604,-1192.11C823.972,-1143.78 772,-972.14 772,-826.536 772,-826.536 772,-826.536 772,-748.938 772,-661.254 648.084,-622.263 588.84,-608.632"/>
<polygon fill="red" stroke="red" points="589.427,-605.178 578.909,-606.446 587.923,-612.014 589.427,-605.178"/>
</g>
<!-- 8&#45;&gt;17 -->
<g id="edge49" class="edge"><title>8&#45;&gt;17</title>
<path fill="none" stroke="green" d="M844.608,-1191.27C845.727,-1164.06 848,-1102.41 848,-1050.5 848,-1050.5 848,-1050.5 848,-972.904 848,-697.381 740.658,-645.516 644,-387.505 604.45,-281.931 563.366,-154.017 546.249,-99.7558"/>
<polygon fill="green" stroke="green" points="549.585,-98.6968 543.246,-90.2082 542.908,-100.798 549.585,-98.6968"/>
</g>
<!-- 40&#45;&gt;13 -->
<g id="edge12" class="edge"><title>40&#45;&gt;13</title>
<path fill="none" stroke="red" d="M1127.33,-733.93C1133.11,-724.641 1140.65,-712.51 1147.22,-701.936"/>
<polygon fill="red" stroke="red" points="1150.37,-703.496 1152.68,-693.155 1144.43,-699.8 1150.37,-703.496"/>
</g>
<!-- 91&#45;&gt;17 -->
<g id="edge100" class="edge"><title>91&#45;&gt;17</title>
<path fill="none" stroke="red" d="M587.239,-130.509C578.462,-120.327 566.306,-106.224 556.268,-94.579"/>
<polygon fill="red" stroke="red" points="558.905,-92.2774 549.725,-86.988 553.603,-96.8477 558.905,-92.2774"/>
</g>
<!-- 22 -->
<g id="node79" class="node"><title>22</title>
<ellipse fill="none" stroke="black" cx="599" cy="-72.3848" rx="18.2703" ry="18.2703"/>
<text text-anchor="middle" x="599" y="-70.1848" font-family="Times New Roman,serif" font-size="9.00">22</text>
</g>
<!-- 91&#45;&gt;22 -->
<g id="edge90" class="edge"><title>91&#45;&gt;22</title>
<path fill="none" stroke="green" d="M599,-126.661C599,-118.978 599,-109.769 599,-101.185"/>
<polygon fill="green" stroke="green" points="602.5,-101.169 599,-91.1687 595.5,-101.169 602.5,-101.169"/>
</g>
<!-- 174&#45;&gt;17 -->
<g id="edge156" class="edge"><title>174&#45;&gt;17</title>
<path fill="none" stroke="green" d="M546.817,-583.249C529.963,-555.428 500,-498.541 500,-445.718 500,-445.718 500,-445.718 500,-216.924 500,-174.45 515.741,-127.19 526.961,-98.8991"/>
<polygon fill="green" stroke="green" points="530.309,-99.9593 530.852,-89.3785 523.829,-97.3108 530.309,-99.9593"/>
</g>
<!-- 28 -->
<g id="node80" class="node"><title>28</title>
<ellipse fill="none" stroke="black" cx="1134" cy="-523.144" rx="18.2703" ry="18.2703"/>
<text text-anchor="middle" x="1134" y="-520.944" font-family="Times New Roman,serif" font-size="9.00">28</text>
</g>
<!-- 13&#45;&gt;28 -->
<g id="edge166" class="edge"><title>13&#45;&gt;28</title>
<path fill="none" stroke="red" d="M1158.84,-659.025C1154.03,-632.907 1144.82,-582.897 1139.07,-551.656"/>
<polygon fill="red" stroke="red" points="1142.44,-550.659 1137.19,-541.458 1135.56,-551.927 1142.44,-550.659"/>
</g>
<!-- 17&#45;&gt;5 -->
<g id="edge50" class="edge"><title>17&#45;&gt;5</title>
<path fill="none" stroke="green" d="M554.184,-63.1062C576.015,-51.9386 614.863,-32.0663 638.346,-20.0536"/>
<polygon fill="green" stroke="green" points="640.067,-23.105 647.375,-15.4349 636.879,-16.8731 640.067,-23.105"/>
</g>
<!-- 28&#45;&gt;5 -->
<g id="edge167" class="edge"><title>28&#45;&gt;5</title>
<path fill="none" stroke="green" d="M1133.04,-504.363C1131.58,-475.988 1129,-418.709 1129,-370.12 1129,-370.12 1129,-370.12 1129,-144.154 1129,-49.1651 770.181,-17.7919 678.915,-11.3484"/>
<polygon fill="green" stroke="green" points="678.937,-7.84189 668.722,-10.6554 678.462,-14.8258 678.937,-7.84189"/>
</g>
</g>
</svg>
