<?xml version="1.0" encoding="UTF-8" standalone="no"?>
<!DOCTYPE svg PUBLIC "-//W3C//DTD SVG 1.1//EN"
 "http://www.w3.org/Graphics/SVG/1.1/DTD/svg11.dtd">
<!-- Generated by graphviz version 2.38.0 (20140413.2041)
 -->
<!-- Title: %3 Pages: 1 -->
<svg width="852pt" height="735pt"
 viewBox="0.00 0.00 852.38 734.93" xmlns="http://www.w3.org/2000/svg" xmlns:xlink="http://www.w3.org/1999/xlink">
<g id="graph0" class="graph" transform="scale(1 1) rotate(0) translate(4 730.926)">
<title>%3</title>
<polygon fill="white" stroke="none" points="-4,4 -4,-730.926 848.385,-730.926 848.385,4 -4,4"/>
<!-- 1 -->
<g id="node1" class="node"><title>1</title>
<polygon fill="lightgray" stroke="black" points="697.885,-726.926 676.885,-726.926 676.885,-708.926 697.885,-708.926 697.885,-726.926"/>
<text text-anchor="middle" x="687.385" y="-715.726" font-family="Times New Roman,serif" font-size="9.00">1</text>
</g>
<!-- 64 -->
<g id="node6" class="node"><title>64</title>
<ellipse fill="none" stroke="black" cx="713.385" cy="-654.541" rx="18.2703" ry="18.2703"/>
<text text-anchor="middle" x="713.385" y="-652.341" font-family="Times New Roman,serif" font-size="9.00">64</text>
</g>
<!-- 1&#45;&gt;64 -->
<g id="edge49" class="edge"><title>1&#45;&gt;64</title>
<path fill="none" stroke="green" d="M690.784,-708.901C693.757,-701.881 698.244,-691.288 702.438,-681.385"/>
<polygon fill="green" stroke="green" points="705.791,-682.443 706.468,-671.87 699.345,-679.713 705.791,-682.443"/>
</g>
<!-- 63 -->
<g id="node13" class="node"><title>63</title>
<ellipse fill="none" stroke="black" cx="18.3848" cy="-436.233" rx="18.2703" ry="18.2703"/>
<text text-anchor="middle" x="18.3848" y="-434.033" font-family="Times New Roman,serif" font-size="9.00">63</text>
</g>
<!-- 1&#45;&gt;63 -->
<g id="edge48" class="edge"><title>1&#45;&gt;63</title>
<path fill="none" stroke="green" d="M676.778,-716.792C599.74,-715.579 126.715,-703.925 42.3848,-600.156 11.01,-561.55 11.1979,-500.157 14.5373,-464.789"/>
<polygon fill="green" stroke="green" points="18.0325,-465.024 15.6434,-454.702 11.0742,-464.261 18.0325,-465.024"/>
</g>
<!-- 19 -->
<g id="node17" class="node"><title>19</title>
<ellipse fill="none" stroke="black" cx="658.385" cy="-581.772" rx="18.2703" ry="18.2703"/>
<text text-anchor="middle" x="658.385" y="-579.572" font-family="Times New Roman,serif" font-size="9.00">19</text>
</g>
<!-- 1&#45;&gt;19 -->
<g id="edge33" class="edge"><title>1&#45;&gt;19</title>
<path fill="none" stroke="green" d="M685.571,-708.534C681.4,-689.24 670.977,-641.023 664.316,-610.21"/>
<polygon fill="green" stroke="green" points="667.667,-609.147 662.133,-600.112 660.825,-610.626 667.667,-609.147"/>
</g>
<!-- 7 -->
<g id="node22" class="node"><title>7</title>
<ellipse fill="none" stroke="black" cx="575.385" cy="-290.693" rx="14.7" ry="14.7"/>
<text text-anchor="middle" x="575.385" y="-288.493" font-family="Times New Roman,serif" font-size="9.00">7</text>
</g>
<!-- 1&#45;&gt;7 -->
<g id="edge3" class="edge"><title>1&#45;&gt;7</title>
<path fill="none" stroke="green" d="M697.945,-711.6C727.069,-696.08 806.385,-647.84 806.385,-582.772 806.385,-582.772 806.385,-582.772 806.385,-435.233 806.385,-388.977 790.678,-373.756 754.385,-345.078 708.184,-308.571 637.471,-296.995 600.26,-293.349"/>
<polygon fill="green" stroke="green" points="600.54,-289.861 590.276,-292.485 599.937,-296.835 600.54,-289.861"/>
</g>
<!-- 2 -->
<g id="node2" class="node"><title>2</title>
<polygon fill="lightgray" stroke="black" points="270.885,-663.541 249.885,-663.541 249.885,-645.541 270.885,-645.541 270.885,-663.541"/>
<text text-anchor="middle" x="260.385" y="-652.341" font-family="Times New Roman,serif" font-size="9.00">2</text>
</g>
<!-- 5 -->
<g id="node5" class="node"><title>5</title>
<polygon fill="lightblue" stroke="black" points="345.885,-18 324.885,-18 324.885,-0 345.885,-0 345.885,-18"/>
<text text-anchor="middle" x="335.385" y="-6.8" font-family="Times New Roman,serif" font-size="9.00">5</text>
</g>
<!-- 2&#45;&gt;5 -->
<g id="edge10" class="edge"><title>2&#45;&gt;5</title>
<path fill="none" stroke="green" d="M270.804,-645.407C295.278,-625.298 354.385,-570.472 354.385,-510.002 354.385,-510.002 354.385,-510.002 354.385,-144.154 354.385,-102.336 345.222,-53.9044 339.623,-28.2101"/>
<polygon fill="green" stroke="green" points="342.96,-27.0958 337.347,-18.11 336.131,-28.6349 342.96,-27.0958"/>
</g>
<!-- 35 -->
<g id="node7" class="node"><title>35</title>
<ellipse fill="none" stroke="black" cx="167.385" cy="-581.772" rx="18.2703" ry="18.2703"/>
<text text-anchor="middle" x="167.385" y="-579.572" font-family="Times New Roman,serif" font-size="9.00">35</text>
</g>
<!-- 2&#45;&gt;35 -->
<g id="edge14" class="edge"><title>2&#45;&gt;35</title>
<path fill="none" stroke="green" d="M249.716,-645.423C235.153,-634.341 208.69,-614.204 189.693,-599.748"/>
<polygon fill="green" stroke="green" points="191.638,-596.829 181.56,-593.559 187.399,-602.4 191.638,-596.829"/>
</g>
<!-- 43 -->
<g id="node11" class="node"><title>43</title>
<ellipse fill="none" stroke="black" cx="102.385" cy="-509.002" rx="18.2703" ry="18.2703"/>
<text text-anchor="middle" x="102.385" y="-506.802" font-family="Times New Roman,serif" font-size="9.00">43</text>
</g>
<!-- 2&#45;&gt;43 -->
<g id="edge16" class="edge"><title>2&#45;&gt;43</title>
<path fill="none" stroke="red" d="M249.564,-651.526C226.492,-646.699 171.993,-632.393 140.385,-600.156 123.45,-582.885 113.597,-556.932 108.188,-537.3"/>
<polygon fill="red" stroke="red" points="111.533,-536.25 105.686,-527.414 104.747,-537.967 111.533,-536.25"/>
</g>
<!-- 30 -->
<g id="node19" class="node"><title>30</title>
<ellipse fill="none" stroke="black" cx="102.385" cy="-290.693" rx="18.2703" ry="18.2703"/>
<text text-anchor="middle" x="102.385" y="-288.493" font-family="Times New Roman,serif" font-size="9.00">30</text>
</g>
<!-- 2&#45;&gt;30 -->
<g id="edge17" class="edge"><title>2&#45;&gt;30</title>
<path fill="none" stroke="green" d="M249.523,-652.241C223.324,-648.592 155.765,-636.062 114.385,-600.156 86.6697,-576.108 84.3204,-562.976 75.3848,-527.387 56.6749,-452.868 79.5692,-361.801 93.3693,-317.871"/>
<polygon fill="green" stroke="green" points="96.7346,-318.839 96.4868,-308.247 90.0753,-316.682 96.7346,-318.839"/>
</g>
<!-- 2&#45;&gt;7 -->
<g id="edge4" class="edge"><title>2&#45;&gt;7</title>
<path fill="none" stroke="green" d="M271.248,-653.971C329.102,-655.656 598.385,-655.677 598.385,-510.002 598.385,-510.002 598.385,-510.002 598.385,-435.233 598.385,-392.489 588.318,-343.477 581.504,-315.199"/>
<polygon fill="green" stroke="green" points="584.886,-314.295 579.08,-305.433 578.093,-315.981 584.886,-314.295"/>
</g>
<!-- 13 -->
<g id="node25" class="node"><title>13</title>
<ellipse fill="none" stroke="black" cx="485.385" cy="-145.154" rx="18.2703" ry="18.2703"/>
<text text-anchor="middle" x="485.385" y="-142.954" font-family="Times New Roman,serif" font-size="9.00">13</text>
</g>
<!-- 2&#45;&gt;13 -->
<g id="edge13" class="edge"><title>2&#45;&gt;13</title>
<path fill="none" stroke="green" d="M271.143,-651.363C292.965,-646.368 342.545,-631.982 368.385,-600.156 475.232,-468.559 485.667,-250.617 485.843,-173.904"/>
<polygon fill="green" stroke="green" points="489.342,-173.625 485.805,-163.638 482.342,-173.651 489.342,-173.625"/>
</g>
<!-- 3 -->
<g id="node3" class="node"><title>3</title>
<polygon fill="lightgray" stroke="black" points="325.885,-518.002 304.885,-518.002 304.885,-500.002 325.885,-500.002 325.885,-518.002"/>
<text text-anchor="middle" x="315.385" y="-506.802" font-family="Times New Roman,serif" font-size="9.00">3</text>
</g>
<!-- 3&#45;&gt;5 -->
<g id="edge1" class="edge"><title>3&#45;&gt;5</title>
<path fill="none" stroke="green" d="M315.481,-499.909C315.731,-478.06 316.385,-416.049 316.385,-364.463 316.385,-364.463 316.385,-364.463 316.385,-144.154 316.385,-102.336 325.547,-53.9044 331.147,-28.2101"/>
<polygon fill="green" stroke="green" points="334.639,-28.6349 333.423,-18.11 327.81,-27.0958 334.639,-28.6349"/>
</g>
<!-- 46 -->
<g id="node9" class="node"><title>46</title>
<ellipse fill="none" stroke="black" cx="270.385" cy="-436.233" rx="18.2703" ry="18.2703"/>
<text text-anchor="middle" x="270.385" y="-434.033" font-family="Times New Roman,serif" font-size="9.00">46</text>
</g>
<!-- 3&#45;&gt;46 -->
<g id="edge26" class="edge"><title>3&#45;&gt;46</title>
<path fill="none" stroke="red" d="M310.223,-499.884C304.22,-490.444 294.041,-474.436 285.475,-460.964"/>
<polygon fill="red" stroke="red" points="288.192,-458.715 279.873,-452.154 282.285,-462.471 288.192,-458.715"/>
</g>
<!-- 29 -->
<g id="node14" class="node"><title>29</title>
<ellipse fill="none" stroke="black" cx="224.385" cy="-363.463" rx="18.2703" ry="18.2703"/>
<text text-anchor="middle" x="224.385" y="-361.263" font-family="Times New Roman,serif" font-size="9.00">29</text>
</g>
<!-- 3&#45;&gt;29 -->
<g id="edge38" class="edge"><title>3&#45;&gt;29</title>
<path fill="none" stroke="green" d="M304.647,-503.175C288.615,-495.382 258.674,-478.457 243.385,-454.617 231.419,-435.959 226.84,-411.084 225.157,-392.19"/>
<polygon fill="green" stroke="green" points="228.643,-391.86 224.479,-382.118 221.659,-392.33 228.643,-391.86"/>
</g>
<!-- 36 -->
<g id="node15" class="node"><title>36</title>
<ellipse fill="none" stroke="black" cx="491.385" cy="-436.233" rx="18.2703" ry="18.2703"/>
<text text-anchor="middle" x="491.385" y="-434.033" font-family="Times New Roman,serif" font-size="9.00">36</text>
</g>
<!-- 3&#45;&gt;36 -->
<g id="edge18" class="edge"><title>3&#45;&gt;36</title>
<path fill="none" stroke="green" d="M326.129,-503.682C353.386,-492.722 425.84,-463.588 465.144,-447.784"/>
<polygon fill="green" stroke="green" points="466.631,-450.958 474.603,-443.98 464.019,-444.464 466.631,-450.958"/>
</g>
<!-- 3&#45;&gt;7 -->
<g id="edge8" class="edge"><title>3&#45;&gt;7</title>
<path fill="none" stroke="green" d="M324.253,-499.985C350.964,-475.917 433.198,-402.418 504.385,-345.078 521.293,-331.459 541.077,-316.674 555.459,-306.125"/>
<polygon fill="green" stroke="green" points="557.629,-308.874 563.643,-300.152 553.502,-303.22 557.629,-308.874"/>
</g>
<!-- 4 -->
<g id="node4" class="node"><title>4</title>
<polygon fill="lightgray" stroke="black" points="777.885,-445.233 756.885,-445.233 756.885,-427.233 777.885,-427.233 777.885,-445.233"/>
<text text-anchor="middle" x="767.385" y="-434.033" font-family="Times New Roman,serif" font-size="9.00">4</text>
</g>
<!-- 4&#45;&gt;5 -->
<g id="edge2" class="edge"><title>4&#45;&gt;5</title>
<path fill="none" stroke="green" d="M775.625,-427.012C795.489,-406.279 844.385,-349.383 844.385,-291.693 844.385,-291.693 844.385,-291.693 844.385,-144.154 844.385,-41.4095 451.686,-15.6564 356.147,-10.9114"/>
<polygon fill="green" stroke="green" points="356.17,-7.40861 346.016,-10.4331 355.84,-14.4008 356.17,-7.40861"/>
</g>
<!-- 11 -->
<g id="node16" class="node"><title>11</title>
<ellipse fill="none" stroke="black" cx="701.385" cy="-363.463" rx="18.2703" ry="18.2703"/>
<text text-anchor="middle" x="701.385" y="-361.263" font-family="Times New Roman,serif" font-size="9.00">11</text>
</g>
<!-- 4&#45;&gt;11 -->
<g id="edge30" class="edge"><title>4&#45;&gt;11</title>
<path fill="none" stroke="red" d="M759.814,-427.114C750.272,-416.883 733.532,-398.934 720.41,-384.863"/>
<polygon fill="red" stroke="red" points="722.94,-382.444 713.56,-377.518 717.821,-387.218 722.94,-382.444"/>
</g>
<!-- 4&#45;&gt;7 -->
<g id="edge9" class="edge"><title>4&#45;&gt;7</title>
<path fill="none" stroke="red" d="M766.094,-426.987C762.919,-409.428 753.111,-368.072 728.385,-345.078 692.292,-311.514 633.943,-298.887 600.704,-294.26"/>
<polygon fill="red" stroke="red" points="600.82,-290.747 590.463,-292.979 599.951,-297.693 600.82,-290.747"/>
</g>
<!-- 49 -->
<g id="node8" class="node"><title>49</title>
<ellipse fill="none" stroke="black" cx="721.385" cy="-581.772" rx="18.2703" ry="18.2703"/>
<text text-anchor="middle" x="721.385" y="-579.572" font-family="Times New Roman,serif" font-size="9.00">49</text>
</g>
<!-- 64&#45;&gt;49 -->
<g id="edge50" class="edge"><title>64&#45;&gt;49</title>
<path fill="none" stroke="green" d="M715.362,-636.048C716.244,-628.249 717.303,-618.877 718.286,-610.182"/>
<polygon fill="green" stroke="green" points="721.784,-610.394 719.43,-600.064 714.829,-609.608 721.784,-610.394"/>
</g>
<!-- 35&#45;&gt;43 -->
<g id="edge24" class="edge"><title>35&#45;&gt;43</title>
<path fill="none" stroke="red" d="M155.159,-567.46C145.717,-557.18 132.473,-542.762 121.616,-530.94"/>
<polygon fill="red" stroke="red" points="123.898,-528.251 114.556,-523.254 118.743,-532.986 123.898,-528.251"/>
</g>
<!-- 35&#45;&gt;29 -->
<g id="edge15" class="edge"><title>35&#45;&gt;29</title>
<path fill="none" stroke="red" d="M171.857,-563.798C181.722,-526.364 205.411,-436.465 217.311,-391.306"/>
<polygon fill="red" stroke="red" points="220.769,-391.919 219.933,-381.358 214,-390.136 220.769,-391.919"/>
</g>
<!-- 38 -->
<g id="node21" class="node"><title>38</title>
<ellipse fill="none" stroke="black" cx="148.385" cy="-217.924" rx="18.2703" ry="18.2703"/>
<text text-anchor="middle" x="148.385" y="-215.724" font-family="Times New Roman,serif" font-size="9.00">38</text>
</g>
<!-- 35&#45;&gt;38 -->
<g id="edge35" class="edge"><title>35&#45;&gt;38</title>
<path fill="none" stroke="red" d="M163.631,-563.635C158.094,-536.816 148.385,-483.234 148.385,-437.233 148.385,-437.233 148.385,-437.233 148.385,-362.463 148.385,-322.246 148.385,-275.692 148.385,-246.772"/>
<polygon fill="red" stroke="red" points="151.885,-246.602 148.385,-236.602 144.885,-246.602 151.885,-246.602"/>
</g>
<!-- 56 -->
<g id="node10" class="node"><title>56</title>
<ellipse fill="none" stroke="black" cx="682.385" cy="-509.002" rx="18.2703" ry="18.2703"/>
<text text-anchor="middle" x="682.385" y="-506.802" font-family="Times New Roman,serif" font-size="9.00">56</text>
</g>
<!-- 49&#45;&gt;56 -->
<g id="edge28" class="edge"><title>49&#45;&gt;56</title>
<path fill="none" stroke="green" d="M712.922,-565.416C707.983,-556.452 701.634,-544.931 696.006,-534.719"/>
<polygon fill="green" stroke="green" points="698.993,-532.887 691.101,-525.818 692.862,-536.266 698.993,-532.887"/>
</g>
<!-- 54 -->
<g id="node12" class="node"><title>54</title>
<ellipse fill="none" stroke="black" cx="682.385" cy="-436.233" rx="18.2703" ry="18.2703"/>
<text text-anchor="middle" x="682.385" y="-434.033" font-family="Times New Roman,serif" font-size="9.00">54</text>
</g>
<!-- 49&#45;&gt;54 -->
<g id="edge36" class="edge"><title>49&#45;&gt;54</title>
<path fill="none" stroke="green" d="M720.78,-563.116C719.747,-544.664 716.951,-515.052 709.385,-490.617 706.316,-480.708 701.533,-470.406 696.839,-461.524"/>
<polygon fill="green" stroke="green" points="699.768,-459.589 691.867,-452.531 693.642,-462.976 699.768,-459.589"/>
</g>
<!-- 49&#45;&gt;11 -->
<g id="edge43" class="edge"><title>49&#45;&gt;11</title>
<path fill="none" stroke="green" d="M723.822,-563.502C725.17,-553.07 726.707,-539.492 727.385,-527.387 728.299,-511.07 729.043,-506.875 727.385,-490.617 723.851,-455.968 714.994,-416.784 708.598,-391.409"/>
<polygon fill="green" stroke="green" points="711.912,-390.244 706.03,-381.432 705.133,-391.989 711.912,-390.244"/>
</g>
<!-- 46&#45;&gt;29 -->
<g id="edge27" class="edge"><title>46&#45;&gt;29</title>
<path fill="none" stroke="green" d="M260.629,-420.224C254.531,-410.841 246.547,-398.559 239.626,-387.911"/>
<polygon fill="green" stroke="green" points="242.511,-385.927 234.126,-379.45 236.641,-389.742 242.511,-385.927"/>
</g>
<!-- 56&#45;&gt;54 -->
<g id="edge29" class="edge"><title>56&#45;&gt;54</title>
<path fill="none" stroke="red" d="M682.385,-490.508C682.385,-482.826 682.385,-473.617 682.385,-465.033"/>
<polygon fill="red" stroke="red" points="685.885,-465.016 682.385,-455.016 678.885,-465.016 685.885,-465.016"/>
</g>
<!-- 43&#45;&gt;63 -->
<g id="edge46" class="edge"><title>43&#45;&gt;63</title>
<path fill="none" stroke="red" d="M88.5139,-496.316C75.3033,-485.186 55.2211,-468.267 39.9274,-455.382"/>
<polygon fill="red" stroke="red" points="41.9003,-452.468 31.9976,-448.701 37.3901,-457.821 41.9003,-452.468"/>
</g>
<!-- 43&#45;&gt;30 -->
<g id="edge32" class="edge"><title>43&#45;&gt;30</title>
<path fill="none" stroke="green" d="M102.385,-490.301C102.385,-452.735 102.385,-364.787 102.385,-319.592"/>
<polygon fill="green" stroke="green" points="105.885,-319.336 102.385,-309.336 98.8849,-319.336 105.885,-319.336"/>
</g>
<!-- 54&#45;&gt;11 -->
<g id="edge37" class="edge"><title>54&#45;&gt;11</title>
<path fill="none" stroke="green" d="M686.984,-418.101C689.155,-410.017 691.795,-400.182 694.219,-391.153"/>
<polygon fill="green" stroke="green" points="697.615,-392.002 696.828,-381.437 690.854,-390.187 697.615,-392.002"/>
</g>
<!-- 53 -->
<g id="node18" class="node"><title>53</title>
<ellipse fill="none" stroke="black" cx="18.3848" cy="-363.463" rx="18.2703" ry="18.2703"/>
<text text-anchor="middle" x="18.3848" y="-361.263" font-family="Times New Roman,serif" font-size="9.00">53</text>
</g>
<!-- 63&#45;&gt;53 -->
<g id="edge47" class="edge"><title>63&#45;&gt;53</title>
<path fill="none" stroke="red" d="M18.3848,-417.739C18.3848,-410.057 18.3848,-400.847 18.3848,-392.263"/>
<polygon fill="red" stroke="red" points="21.8849,-392.247 18.3848,-382.247 14.8849,-392.247 21.8849,-392.247"/>
</g>
<!-- 29&#45;&gt;30 -->
<g id="edge11" class="edge"><title>29&#45;&gt;30</title>
<path fill="none" stroke="green" d="M208.933,-353.5C188.238,-341.495 151.293,-320.064 126.809,-305.862"/>
<polygon fill="green" stroke="green" points="128.502,-302.797 118.096,-300.807 124.99,-308.852 128.502,-302.797"/>
</g>
<!-- 12 -->
<g id="node23" class="node"><title>12</title>
<ellipse fill="none" stroke="black" cx="225.385" cy="-145.154" rx="18.2703" ry="18.2703"/>
<text text-anchor="middle" x="225.385" y="-142.954" font-family="Times New Roman,serif" font-size="9.00">12</text>
</g>
<!-- 29&#45;&gt;12 -->
<g id="edge42" class="edge"><title>29&#45;&gt;12</title>
<path fill="none" stroke="green" d="M224.467,-344.762C224.64,-307.196 225.047,-219.248 225.256,-174.052"/>
<polygon fill="green" stroke="green" points="228.757,-173.813 225.303,-163.797 221.757,-173.781 228.757,-173.813"/>
</g>
<!-- 58 -->
<g id="node20" class="node"><title>58</title>
<ellipse fill="none" stroke="black" cx="552.385" cy="-363.463" rx="18.2703" ry="18.2703"/>
<text text-anchor="middle" x="552.385" y="-361.263" font-family="Times New Roman,serif" font-size="9.00">58</text>
</g>
<!-- 36&#45;&gt;58 -->
<g id="edge44" class="edge"><title>36&#45;&gt;58</title>
<path fill="none" stroke="green" d="M503.146,-421.587C511.923,-411.405 524.079,-397.302 534.116,-385.657"/>
<polygon fill="green" stroke="green" points="536.782,-387.926 540.659,-378.066 531.479,-383.356 536.782,-387.926"/>
</g>
<!-- 36&#45;&gt;7 -->
<g id="edge19" class="edge"><title>36&#45;&gt;7</title>
<path fill="none" stroke="green" d="M495.691,-418.039C500.893,-399.19 510.802,-368.512 525.385,-345.078 534.046,-331.16 546.686,-317.704 557.091,-307.783"/>
<polygon fill="green" stroke="green" points="559.534,-310.291 564.508,-300.936 554.786,-305.147 559.534,-310.291"/>
</g>
<!-- 36&#45;&gt;12 -->
<g id="edge39" class="edge"><title>36&#45;&gt;12</title>
<path fill="none" stroke="red" d="M479.264,-422.06C437.028,-376.16 296.106,-223.011 244.517,-166.947"/>
<polygon fill="red" stroke="red" points="246.923,-164.393 237.577,-159.404 241.772,-169.133 246.923,-164.393"/>
</g>
<!-- 11&#45;&gt;7 -->
<g id="edge31" class="edge"><title>11&#45;&gt;7</title>
<path fill="none" stroke="green" d="M685.682,-353.643C663.336,-341.092 622.282,-318.034 597.054,-303.864"/>
<polygon fill="green" stroke="green" points="598.665,-300.755 588.232,-298.909 595.237,-306.858 598.665,-300.755"/>
</g>
<!-- 19&#45;&gt;7 -->
<g id="edge34" class="edge"><title>19&#45;&gt;7</title>
<path fill="none" stroke="green" d="M657.42,-563.2C654.696,-523.046 644.891,-422.089 612.385,-345.078 607.094,-332.543 598.571,-319.965 591.039,-310.169"/>
<polygon fill="green" stroke="green" points="593.761,-307.969 584.78,-302.348 588.295,-312.343 593.761,-307.969"/>
</g>
<!-- 53&#45;&gt;30 -->
<g id="edge25" class="edge"><title>53&#45;&gt;30</title>
<path fill="none" stroke="red" d="M32.2557,-350.777C45.4663,-339.647 65.5485,-322.728 80.8422,-309.843"/>
<polygon fill="red" stroke="red" points="83.3794,-312.282 88.772,-303.162 78.8692,-306.929 83.3794,-312.282"/>
</g>
<!-- 30&#45;&gt;38 -->
<g id="edge20" class="edge"><title>30&#45;&gt;38</title>
<path fill="none" stroke="red" d="M112.14,-274.685C118.239,-265.302 126.222,-253.02 133.144,-242.372"/>
<polygon fill="red" stroke="red" points="136.128,-244.203 138.643,-233.911 130.259,-240.388 136.128,-244.203"/>
</g>
<!-- 30&#45;&gt;12 -->
<g id="edge12" class="edge"><title>30&#45;&gt;12</title>
<path fill="none" stroke="red" d="M101.799,-272.279C102.027,-252.667 105.173,-220.77 121.385,-199.539 140.268,-174.809 173.834,-160.553 197.723,-153.095"/>
<polygon fill="red" stroke="red" points="198.99,-156.372 207.615,-150.219 197.035,-149.65 198.99,-156.372"/>
</g>
<!-- 58&#45;&gt;7 -->
<g id="edge45" class="edge"><title>58&#45;&gt;7</title>
<path fill="none" stroke="green" d="M557.835,-345.692C560.833,-336.469 564.596,-324.889 567.869,-314.82"/>
<polygon fill="green" stroke="green" points="571.286,-315.628 571.049,-305.036 564.629,-313.464 571.286,-315.628"/>
</g>
<!-- 38&#45;&gt;12 -->
<g id="edge21" class="edge"><title>38&#45;&gt;12</title>
<path fill="none" stroke="red" d="M161.447,-204.919C173.283,-194.04 190.926,-177.825 204.682,-165.182"/>
<polygon fill="red" stroke="red" points="207.264,-167.562 212.259,-158.218 202.528,-162.408 207.264,-167.562"/>
</g>
<!-- 40 -->
<g id="node24" class="node"><title>40</title>
<ellipse fill="none" stroke="black" cx="571.385" cy="-217.924" rx="18.2703" ry="18.2703"/>
<text text-anchor="middle" x="571.385" y="-215.724" font-family="Times New Roman,serif" font-size="9.00">40</text>
</g>
<!-- 7&#45;&gt;40 -->
<g id="edge22" class="edge"><title>7&#45;&gt;40</title>
<path fill="none" stroke="red" d="M574.595,-275.712C574.121,-267.341 573.504,-256.41 572.936,-246.376"/>
<polygon fill="red" stroke="red" points="576.431,-246.176 572.372,-236.389 569.442,-246.571 576.431,-246.176"/>
</g>
<!-- 7&#45;&gt;13 -->
<g id="edge6" class="edge"><title>7&#45;&gt;13</title>
<path fill="none" stroke="red" d="M567.711,-277.455C552.841,-253.739 519.86,-201.139 500.458,-170.194"/>
<polygon fill="red" stroke="red" points="503.185,-167.955 494.907,-161.342 497.254,-171.673 503.185,-167.955"/>
</g>
<!-- 12&#45;&gt;5 -->
<g id="edge5" class="edge"><title>12&#45;&gt;5</title>
<path fill="none" stroke="red" d="M236.742,-130.303C257.258,-105.282 300.386,-52.6845 322.18,-26.1043"/>
<polygon fill="red" stroke="red" points="325.056,-28.117 328.69,-18.1649 319.643,-23.6786 325.056,-28.117"/>
</g>
<!-- 22 -->
<g id="node26" class="node"><title>22</title>
<ellipse fill="none" stroke="black" cx="229.385" cy="-72.3848" rx="18.2703" ry="18.2703"/>
<text text-anchor="middle" x="229.385" y="-70.1848" font-family="Times New Roman,serif" font-size="9.00">22</text>
</g>
<!-- 12&#45;&gt;22 -->
<g id="edge40" class="edge"><title>12&#45;&gt;22</title>
<path fill="none" stroke="red" d="M226.374,-126.661C226.808,-118.978 227.328,-109.769 227.813,-101.185"/>
<polygon fill="red" stroke="red" points="231.31,-101.35 228.38,-91.1687 224.321,-100.955 231.31,-101.35"/>
</g>
<!-- 40&#45;&gt;13 -->
<g id="edge23" class="edge"><title>40&#45;&gt;13</title>
<path fill="none" stroke="red" d="M557.567,-205.554C543.901,-194.307 522.788,-176.934 506.92,-163.876"/>
<polygon fill="red" stroke="red" points="509.114,-161.148 499.168,-157.496 504.666,-166.553 509.114,-161.148"/>
</g>
<!-- 13&#45;&gt;5 -->
<g id="edge7" class="edge"><title>13&#45;&gt;5</title>
<path fill="none" stroke="green" d="M472.073,-132.249C444.678,-107.748 382.05,-51.736 352.03,-24.8873"/>
<polygon fill="green" stroke="green" points="354.271,-22.1959 344.484,-18.1383 349.605,-27.4136 354.271,-22.1959"/>
</g>
<!-- 22&#45;&gt;5 -->
<g id="edge41" class="edge"><title>22&#45;&gt;5</title>
<path fill="none" stroke="red" d="M245.025,-62.3272C263.917,-51.3869 295.695,-32.9846 316.09,-21.1736"/>
<polygon fill="red" stroke="red" points="317.928,-24.154 324.827,-16.1138 314.42,-18.0964 317.928,-24.154"/>
</g>
</g>
</svg>
