<?xml version="1.0" encoding="UTF-8" standalone="no"?>
<!DOCTYPE svg PUBLIC "-//W3C//DTD SVG 1.1//EN"
 "http://www.w3.org/Graphics/SVG/1.1/DTD/svg11.dtd">
<!-- Generated by graphviz version 2.38.0 (20140413.2041)
 -->
<!-- Title: %3 Pages: 1 -->
<svg width="896pt" height="880pt"
 viewBox="0.00 0.00 895.50 880.47" xmlns="http://www.w3.org/2000/svg" xmlns:xlink="http://www.w3.org/1999/xlink">
<g id="graph0" class="graph" transform="scale(1 1) rotate(0) translate(4 876.465)">
<title>%3</title>
<polygon fill="white" stroke="none" points="-4,4 -4,-876.465 891.5,-876.465 891.5,4 -4,4"/>
<!-- 1 -->
<g id="node1" class="node"><title>1</title>
<polygon fill="lightgray" stroke="black" points="699.5,-872.465 678.5,-872.465 678.5,-854.465 699.5,-854.465 699.5,-872.465"/>
<text text-anchor="middle" x="689" y="-861.265" font-family="Times New Roman,serif" font-size="9.00">1</text>
</g>
<!-- 74 -->
<g id="node6" class="node"><title>74</title>
<ellipse fill="none" stroke="black" cx="760" cy="-800.08" rx="18.2703" ry="18.2703"/>
<text text-anchor="middle" x="760" y="-797.88" font-family="Times New Roman,serif" font-size="9.00">74</text>
</g>
<!-- 1&#45;&gt;74 -->
<g id="edge47" class="edge"><title>1&#45;&gt;74</title>
<path fill="none" stroke="red" d="M698.282,-854.44C708.492,-845.613 725.239,-831.133 738.714,-819.484"/>
<polygon fill="red" stroke="red" points="741.318,-821.859 746.593,-812.671 736.739,-816.564 741.318,-821.859"/>
</g>
<!-- 63 -->
<g id="node14" class="node"><title>63</title>
<ellipse fill="none" stroke="black" cx="215" cy="-363.463" rx="18.2703" ry="18.2703"/>
<text text-anchor="middle" x="215" y="-361.263" font-family="Times New Roman,serif" font-size="9.00">63</text>
</g>
<!-- 1&#45;&gt;63 -->
<g id="edge43" class="edge"><title>1&#45;&gt;63</title>
<path fill="none" stroke="green" d="M678.415,-861.657C610.875,-856.223 243,-822.308 243,-728.311 243,-728.311 243,-728.311 243,-580.772 243,-512.119 228.957,-432.217 220.761,-391.432"/>
<polygon fill="green" stroke="green" points="224.156,-390.564 218.718,-381.471 217.299,-391.97 224.156,-390.564"/>
</g>
<!-- 19 -->
<g id="node18" class="node"><title>19</title>
<ellipse fill="none" stroke="black" cx="586" cy="-436.233" rx="18.2703" ry="18.2703"/>
<text text-anchor="middle" x="586" y="-434.033" font-family="Times New Roman,serif" font-size="9.00">19</text>
</g>
<!-- 1&#45;&gt;19 -->
<g id="edge29" class="edge"><title>1&#45;&gt;19</title>
<path fill="none" stroke="green" d="M687.038,-854.355C682.184,-833.551 670,-776.533 670,-728.311 670,-728.311 670,-728.311 670,-580.772 670,-530.532 631.194,-482.275 606.334,-456.515"/>
<polygon fill="green" stroke="green" points="608.658,-453.889 599.125,-449.266 603.695,-458.825 608.658,-453.889"/>
</g>
<!-- 7 -->
<g id="node27" class="node"><title>7</title>
<ellipse fill="none" stroke="black" cx="609" cy="-363.463" rx="14.7" ry="14.7"/>
<text text-anchor="middle" x="609" y="-361.263" font-family="Times New Roman,serif" font-size="9.00">7</text>
</g>
<!-- 1&#45;&gt;7 -->
<g id="edge3" class="edge"><title>1&#45;&gt;7</title>
<path fill="none" stroke="green" d="M690.962,-854.355C695.816,-833.551 708,-776.533 708,-728.311 708,-728.311 708,-728.311 708,-508.002 708,-452.621 657.443,-403.091 628.587,-379.331"/>
<polygon fill="green" stroke="green" points="630.743,-376.573 620.745,-373.067 626.374,-382.043 630.743,-376.573"/>
</g>
<!-- 2 -->
<g id="node2" class="node"><title>2</title>
<polygon fill="lightgray" stroke="black" points="147.5,-590.772 126.5,-590.772 126.5,-572.772 147.5,-572.772 147.5,-590.772"/>
<text text-anchor="middle" x="137" y="-579.572" font-family="Times New Roman,serif" font-size="9.00">2</text>
</g>
<!-- 5 -->
<g id="node5" class="node"><title>5</title>
<polygon fill="lightblue" stroke="black" points="379.5,-18 358.5,-18 358.5,-0 379.5,-0 379.5,-18"/>
<text text-anchor="middle" x="369" y="-6.8" font-family="Times New Roman,serif" font-size="9.00">5</text>
</g>
<!-- 2&#45;&gt;5 -->
<g id="edge10" class="edge"><title>2&#45;&gt;5</title>
<path fill="none" stroke="green" d="M126.25,-575.981C93.9534,-560.775 0,-510.264 0,-437.233 0,-437.233 0,-437.233 0,-144.154 0,-69.4392 270.584,-24.3107 348.337,-12.8852"/>
<polygon fill="green" stroke="green" points="348.955,-16.3325 358.354,-11.4445 347.958,-9.4038 348.955,-16.3325"/>
</g>
<!-- 35 -->
<g id="node8" class="node"><title>35</title>
<ellipse fill="none" stroke="black" cx="114" cy="-509.002" rx="18.2703" ry="18.2703"/>
<text text-anchor="middle" x="114" y="-506.802" font-family="Times New Roman,serif" font-size="9.00">35</text>
</g>
<!-- 2&#45;&gt;35 -->
<g id="edge12" class="edge"><title>2&#45;&gt;35</title>
<path fill="none" stroke="green" d="M134.362,-572.653C131.494,-563.83 126.761,-549.267 122.58,-536.401"/>
<polygon fill="green" stroke="green" points="125.81,-535.017 119.391,-526.589 119.153,-537.181 125.81,-535.017"/>
</g>
<!-- 43 -->
<g id="node12" class="node"><title>43</title>
<ellipse fill="none" stroke="black" cx="160" cy="-436.233" rx="18.2703" ry="18.2703"/>
<text text-anchor="middle" x="160" y="-434.033" font-family="Times New Roman,serif" font-size="9.00">43</text>
</g>
<!-- 2&#45;&gt;43 -->
<g id="edge14" class="edge"><title>2&#45;&gt;43</title>
<path fill="none" stroke="green" d="M138.302,-572.643C141.578,-552.201 150.277,-497.909 155.613,-464.611"/>
<polygon fill="green" stroke="green" points="159.09,-465.035 157.216,-454.607 152.178,-463.927 159.09,-465.035"/>
</g>
<!-- 30 -->
<g id="node23" class="node"><title>30</title>
<ellipse fill="none" stroke="black" cx="178" cy="-290.693" rx="18.2703" ry="18.2703"/>
<text text-anchor="middle" x="178" y="-288.493" font-family="Times New Roman,serif" font-size="9.00">30</text>
</g>
<!-- 2&#45;&gt;30 -->
<g id="edge15" class="edge"><title>2&#45;&gt;30</title>
<path fill="none" stroke="red" d="M126.117,-573.217C113.923,-564.018 94.8404,-547.227 87,-527.387 80.9941,-512.188 84.5084,-506.768 87,-490.617 97.3432,-423.572 100.283,-404.506 133,-345.078 139.668,-332.966 149.328,-321.049 157.989,-311.558"/>
<polygon fill="red" stroke="red" points="160.615,-313.876 164.942,-304.205 155.529,-309.066 160.615,-313.876"/>
</g>
<!-- 50 -->
<g id="node25" class="node"><title>50</title>
<ellipse fill="none" stroke="black" cx="480" cy="-290.693" rx="18.2703" ry="18.2703"/>
<text text-anchor="middle" x="480" y="-288.493" font-family="Times New Roman,serif" font-size="9.00">50</text>
</g>
<!-- 2&#45;&gt;50 -->
<g id="edge49" class="edge"><title>2&#45;&gt;50</title>
<path fill="none" stroke="green" d="M144.069,-572.524C158.809,-555.66 194.424,-516.635 230,-490.617 257.286,-470.662 269.297,-473.989 297,-454.617 361.546,-409.482 428.454,-344.409 460.542,-311.849"/>
<polygon fill="green" stroke="green" points="463.074,-314.266 467.569,-304.672 458.072,-309.369 463.074,-314.266"/>
</g>
<!-- 2&#45;&gt;7 -->
<g id="edge4" class="edge"><title>2&#45;&gt;7</title>
<path fill="none" stroke="red" d="M147.747,-574.351C186.992,-551.08 326.669,-469.806 449,-417.848 495.978,-397.895 553.155,-380.365 584.866,-371.208"/>
<polygon fill="red" stroke="red" points="585.937,-374.542 594.592,-368.432 584.016,-367.811 585.937,-374.542"/>
</g>
<!-- 3 -->
<g id="node3" class="node"><title>3</title>
<polygon fill="lightgray" stroke="black" points="434.5,-590.772 413.5,-590.772 413.5,-572.772 434.5,-572.772 434.5,-590.772"/>
<text text-anchor="middle" x="424" y="-579.572" font-family="Times New Roman,serif" font-size="9.00">3</text>
</g>
<!-- 3&#45;&gt;5 -->
<g id="edge1" class="edge"><title>3&#45;&gt;5</title>
<path fill="none" stroke="green" d="M422.457,-572.568C416.064,-538.323 392,-406.601 392,-364.463 392,-364.463 392,-364.463 392,-144.154 392,-101.956 380.809,-53.3519 374.039,-27.8116"/>
<polygon fill="green" stroke="green" points="377.392,-26.8041 371.375,-18.0838 370.641,-28.6532 377.392,-26.8041"/>
</g>
<!-- 46 -->
<g id="node10" class="node"><title>46</title>
<ellipse fill="none" stroke="black" cx="378" cy="-509.002" rx="18.2703" ry="18.2703"/>
<text text-anchor="middle" x="378" y="-506.802" font-family="Times New Roman,serif" font-size="9.00">46</text>
</g>
<!-- 3&#45;&gt;46 -->
<g id="edge23" class="edge"><title>3&#45;&gt;46</title>
<path fill="none" stroke="green" d="M418.723,-572.653C412.528,-563.123 401.981,-546.897 393.173,-533.346"/>
<polygon fill="green" stroke="green" points="396.084,-531.401 387.699,-524.924 390.215,-535.216 396.084,-531.401"/>
</g>
<!-- 29 -->
<g id="node15" class="node"><title>29</title>
<ellipse fill="none" stroke="black" cx="270" cy="-436.233" rx="18.2703" ry="18.2703"/>
<text text-anchor="middle" x="270" y="-434.033" font-family="Times New Roman,serif" font-size="9.00">29</text>
</g>
<!-- 3&#45;&gt;29 -->
<g id="edge34" class="edge"><title>3&#45;&gt;29</title>
<path fill="none" stroke="red" d="M413.074,-573.82C398.315,-564.203 371.497,-545.92 351,-527.387 327.208,-505.874 303.029,-478.014 287.361,-458.995"/>
<polygon fill="red" stroke="red" points="290.023,-456.721 280.993,-451.181 284.597,-461.144 290.023,-456.721"/>
</g>
<!-- 36 -->
<g id="node16" class="node"><title>36</title>
<ellipse fill="none" stroke="black" cx="476" cy="-509.002" rx="18.2703" ry="18.2703"/>
<text text-anchor="middle" x="476" y="-506.802" font-family="Times New Roman,serif" font-size="9.00">36</text>
</g>
<!-- 3&#45;&gt;36 -->
<g id="edge16" class="edge"><title>3&#45;&gt;36</title>
<path fill="none" stroke="red" d="M429.965,-572.653C437.123,-562.912 449.421,-546.175 459.506,-532.449"/>
<polygon fill="red" stroke="red" points="462.333,-534.513 465.434,-524.382 456.692,-530.368 462.333,-534.513"/>
</g>
<!-- 3&#45;&gt;7 -->
<g id="edge8" class="edge"><title>3&#45;&gt;7</title>
<path fill="none" stroke="red" d="M434.618,-578.253C470.478,-569.106 587.347,-533.925 632,-454.617 644.407,-432.582 633.038,-403.783 622.333,-384.732"/>
<polygon fill="red" stroke="red" points="625.232,-382.761 617.082,-375.991 619.231,-386.366 625.232,-382.761"/>
</g>
<!-- 4 -->
<g id="node4" class="node"><title>4</title>
<polygon fill="lightgray" stroke="black" points="887.5,-518.002 866.5,-518.002 866.5,-500.002 887.5,-500.002 887.5,-518.002"/>
<text text-anchor="middle" x="877" y="-506.802" font-family="Times New Roman,serif" font-size="9.00">4</text>
</g>
<!-- 4&#45;&gt;5 -->
<g id="edge2" class="edge"><title>4&#45;&gt;5</title>
<path fill="none" stroke="green" d="M876.904,-499.909C876.654,-478.06 876,-416.049 876,-364.463 876,-364.463 876,-364.463 876,-144.154 876,-41.787 484.844,-15.7482 389.681,-10.9281"/>
<polygon fill="green" stroke="green" points="389.746,-7.42729 379.589,-10.4418 389.409,-14.4192 389.746,-7.42729"/>
</g>
<!-- 11 -->
<g id="node17" class="node"><title>11</title>
<ellipse fill="none" stroke="black" cx="792" cy="-436.233" rx="18.2703" ry="18.2703"/>
<text text-anchor="middle" x="792" y="-434.033" font-family="Times New Roman,serif" font-size="9.00">11</text>
</g>
<!-- 4&#45;&gt;11 -->
<g id="edge27" class="edge"><title>4&#45;&gt;11</title>
<path fill="none" stroke="green" d="M867.249,-499.884C854.283,-489.088 830.998,-469.701 813.752,-455.343"/>
<polygon fill="green" stroke="green" points="815.767,-452.467 805.843,-448.758 811.289,-457.846 815.767,-452.467"/>
</g>
<!-- 4&#45;&gt;7 -->
<g id="edge9" class="edge"><title>4&#45;&gt;7</title>
<path fill="none" stroke="red" d="M874.124,-499.803C867.432,-481.961 849.056,-439.488 819,-417.848 761.971,-376.787 676.351,-367.225 634.233,-365.056"/>
<polygon fill="red" stroke="red" points="634.171,-361.55 624.035,-364.634 633.882,-368.544 634.171,-361.55"/>
</g>
<!-- 64 -->
<g id="node7" class="node"><title>64</title>
<ellipse fill="none" stroke="black" cx="771" cy="-727.311" rx="18.2703" ry="18.2703"/>
<text text-anchor="middle" x="771" y="-725.111" font-family="Times New Roman,serif" font-size="9.00">64</text>
</g>
<!-- 74&#45;&gt;64 -->
<g id="edge48" class="edge"><title>74&#45;&gt;64</title>
<path fill="none" stroke="red" d="M762.719,-781.587C763.931,-773.788 765.388,-764.416 766.739,-755.721"/>
<polygon fill="red" stroke="red" points="770.235,-756.022 768.312,-745.603 763.318,-754.947 770.235,-756.022"/>
</g>
<!-- 49 -->
<g id="node9" class="node"><title>49</title>
<ellipse fill="none" stroke="black" cx="794" cy="-654.541" rx="18.2703" ry="18.2703"/>
<text text-anchor="middle" x="794" y="-652.341" font-family="Times New Roman,serif" font-size="9.00">49</text>
</g>
<!-- 64&#45;&gt;49 -->
<g id="edge44" class="edge"><title>64&#45;&gt;49</title>
<path fill="none" stroke="red" d="M776.451,-709.539C779.143,-701.255 782.454,-691.067 785.472,-681.781"/>
<polygon fill="red" stroke="red" points="788.826,-682.784 788.588,-672.192 782.169,-680.621 788.826,-682.784"/>
</g>
<!-- 35&#45;&gt;43 -->
<g id="edge22" class="edge"><title>35&#45;&gt;43</title>
<path fill="none" stroke="green" d="M123.755,-492.994C129.854,-483.611 137.838,-471.329 144.759,-460.68"/>
<polygon fill="green" stroke="green" points="147.743,-462.511 150.259,-452.219 141.874,-458.696 147.743,-462.511"/>
</g>
<!-- 35&#45;&gt;29 -->
<g id="edge13" class="edge"><title>35&#45;&gt;29</title>
<path fill="none" stroke="red" d="M130.4,-500.562C157.481,-488.277 211.762,-463.652 244.08,-448.991"/>
<polygon fill="red" stroke="red" points="245.69,-452.104 253.35,-444.786 242.798,-445.73 245.69,-452.104"/>
</g>
<!-- 38 -->
<g id="node26" class="node"><title>38</title>
<ellipse fill="none" stroke="black" cx="178" cy="-217.924" rx="18.2703" ry="18.2703"/>
<text text-anchor="middle" x="178" y="-215.724" font-family="Times New Roman,serif" font-size="9.00">38</text>
</g>
<!-- 35&#45;&gt;38 -->
<g id="edge31" class="edge"><title>35&#45;&gt;38</title>
<path fill="none" stroke="green" d="M114.389,-490.55C115.775,-450.644 122.105,-350.167 151,-272.309 154.609,-262.584 159.512,-252.321 164.149,-243.421"/>
<polygon fill="green" stroke="green" points="167.353,-244.853 169.004,-234.388 161.187,-241.54 167.353,-244.853"/>
</g>
<!-- 12 -->
<g id="node28" class="node"><title>12</title>
<ellipse fill="none" stroke="black" cx="300" cy="-145.154" rx="18.2703" ry="18.2703"/>
<text text-anchor="middle" x="300" y="-142.954" font-family="Times New Roman,serif" font-size="9.00">12</text>
</g>
<!-- 35&#45;&gt;12 -->
<g id="edge45" class="edge"><title>35&#45;&gt;12</title>
<path fill="none" stroke="green" d="M110.111,-490.725C99.6327,-439.3 76.3851,-285.472 151,-199.539 181.724,-164.154 237.639,-152.223 271.546,-148.2"/>
<polygon fill="green" stroke="green" points="272.132,-151.658 281.721,-147.152 271.415,-144.695 272.132,-151.658"/>
</g>
<!-- 56 -->
<g id="node11" class="node"><title>56</title>
<ellipse fill="none" stroke="black" cx="754" cy="-581.772" rx="18.2703" ry="18.2703"/>
<text text-anchor="middle" x="754" y="-579.572" font-family="Times New Roman,serif" font-size="9.00">56</text>
</g>
<!-- 49&#45;&gt;56 -->
<g id="edge25" class="edge"><title>49&#45;&gt;56</title>
<path fill="none" stroke="red" d="M785.321,-638.185C780.184,-629.097 773.561,-617.38 767.73,-607.063"/>
<polygon fill="red" stroke="red" points="770.63,-605.081 762.662,-598.098 764.536,-608.525 770.63,-605.081"/>
</g>
<!-- 54 -->
<g id="node13" class="node"><title>54</title>
<ellipse fill="none" stroke="black" cx="792" cy="-509.002" rx="18.2703" ry="18.2703"/>
<text text-anchor="middle" x="792" y="-506.802" font-family="Times New Roman,serif" font-size="9.00">54</text>
</g>
<!-- 49&#45;&gt;54 -->
<g id="edge32" class="edge"><title>49&#45;&gt;54</title>
<path fill="none" stroke="green" d="M793.755,-635.94C793.414,-611.512 792.795,-567.067 792.391,-538.042"/>
<polygon fill="green" stroke="green" points="795.886,-537.697 792.247,-527.747 788.887,-537.795 795.886,-537.697"/>
</g>
<!-- 49&#45;&gt;11 -->
<g id="edge39" class="edge"><title>49&#45;&gt;11</title>
<path fill="none" stroke="green" d="M800.643,-637.184C811.733,-607.633 831.614,-543.505 819,-490.617 816.532,-480.27 811.717,-469.657 806.828,-460.647"/>
<polygon fill="green" stroke="green" points="809.825,-458.837 801.802,-451.917 803.758,-462.33 809.825,-458.837"/>
</g>
<!-- 46&#45;&gt;29 -->
<g id="edge24" class="edge"><title>46&#45;&gt;29</title>
<path fill="none" stroke="green" d="M362.983,-498.162C345.03,-486.398 314.768,-466.568 293.66,-452.737"/>
<polygon fill="green" stroke="green" points="295.52,-449.771 285.238,-447.217 291.683,-455.626 295.52,-449.771"/>
</g>
<!-- 46&#45;&gt;19 -->
<g id="edge46" class="edge"><title>46&#45;&gt;19</title>
<path fill="none" stroke="green" d="M395.803,-503.373C435.127,-493.041 528.264,-467.967 558,-454.617 559.403,-453.988 560.82,-453.298 562.232,-452.569"/>
<polygon fill="green" stroke="green" points="564.354,-455.388 571.296,-447.383 560.878,-449.312 564.354,-455.388"/>
</g>
<!-- 56&#45;&gt;54 -->
<g id="edge26" class="edge"><title>56&#45;&gt;54</title>
<path fill="none" stroke="red" d="M762.433,-565.066C767.255,-556.087 773.407,-544.629 778.85,-534.492"/>
<polygon fill="red" stroke="red" points="781.943,-536.13 783.59,-525.664 775.776,-532.819 781.943,-536.13"/>
</g>
<!-- 43&#45;&gt;63 -->
<g id="edge42" class="edge"><title>43&#45;&gt;63</title>
<path fill="none" stroke="green" d="M170.866,-421.251C178.55,-411.364 189.009,-397.907 197.816,-386.574"/>
<polygon fill="green" stroke="green" points="200.783,-388.459 204.156,-378.416 195.256,-384.164 200.783,-388.459"/>
</g>
<!-- 53 -->
<g id="node20" class="node"><title>53</title>
<ellipse fill="none" stroke="black" cx="160" cy="-363.463" rx="18.2703" ry="18.2703"/>
<text text-anchor="middle" x="160" y="-361.263" font-family="Times New Roman,serif" font-size="9.00">53</text>
</g>
<!-- 43&#45;&gt;53 -->
<g id="edge53" class="edge"><title>43&#45;&gt;53</title>
<path fill="none" stroke="green" d="M160,-417.739C160,-410.057 160,-400.847 160,-392.263"/>
<polygon fill="green" stroke="green" points="163.5,-392.247 160,-382.247 156.5,-392.247 163.5,-392.247"/>
</g>
<!-- 54&#45;&gt;11 -->
<g id="edge33" class="edge"><title>54&#45;&gt;11</title>
<path fill="none" stroke="red" d="M792,-490.508C792,-482.826 792,-473.617 792,-465.033"/>
<polygon fill="red" stroke="red" points="795.5,-465.016 792,-455.016 788.5,-465.016 795.5,-465.016"/>
</g>
<!-- 48 -->
<g id="node22" class="node"><title>48</title>
<ellipse fill="none" stroke="black" cx="270" cy="-363.463" rx="18.2703" ry="18.2703"/>
<text text-anchor="middle" x="270" y="-361.263" font-family="Times New Roman,serif" font-size="9.00">48</text>
</g>
<!-- 29&#45;&gt;48 -->
<g id="edge55" class="edge"><title>29&#45;&gt;48</title>
<path fill="none" stroke="green" d="M270,-417.739C270,-410.057 270,-400.847 270,-392.263"/>
<polygon fill="green" stroke="green" points="273.5,-392.247 270,-382.247 266.5,-392.247 273.5,-392.247"/>
</g>
<!-- 29&#45;&gt;12 -->
<g id="edge38" class="edge"><title>29&#45;&gt;12</title>
<path fill="none" stroke="green" d="M279.745,-420.535C286.007,-410.194 293.586,-395.768 297,-381.848 315.009,-308.413 308.585,-218.205 303.616,-173.689"/>
<polygon fill="green" stroke="green" points="307.078,-173.165 302.431,-163.644 300.126,-173.985 307.078,-173.165"/>
</g>
<!-- 79 -->
<g id="node19" class="node"><title>79</title>
<ellipse fill="none" stroke="black" cx="476" cy="-436.233" rx="18.2703" ry="18.2703"/>
<text text-anchor="middle" x="476" y="-434.033" font-family="Times New Roman,serif" font-size="9.00">79</text>
</g>
<!-- 36&#45;&gt;79 -->
<g id="edge51" class="edge"><title>36&#45;&gt;79</title>
<path fill="none" stroke="red" d="M476,-490.508C476,-482.826 476,-473.617 476,-465.033"/>
<polygon fill="red" stroke="red" points="479.5,-465.016 476,-455.016 472.5,-465.016 479.5,-465.016"/>
</g>
<!-- 58 -->
<g id="node24" class="node"><title>58</title>
<ellipse fill="none" stroke="black" cx="531" cy="-436.233" rx="18.2703" ry="18.2703"/>
<text text-anchor="middle" x="531" y="-434.033" font-family="Times New Roman,serif" font-size="9.00">58</text>
</g>
<!-- 36&#45;&gt;58 -->
<g id="edge40" class="edge"><title>36&#45;&gt;58</title>
<path fill="none" stroke="green" d="M486.866,-494.02C494.55,-484.134 505.009,-470.676 513.816,-459.343"/>
<polygon fill="green" stroke="green" points="516.783,-461.229 520.156,-451.185 511.256,-456.933 516.783,-461.229"/>
</g>
<!-- 36&#45;&gt;7 -->
<g id="edge17" class="edge"><title>36&#45;&gt;7</title>
<path fill="none" stroke="red" d="M494.622,-507.047C525.378,-504.346 586.062,-494.025 613,-454.617 626.49,-434.883 622.479,-406.647 617.036,-387.054"/>
<polygon fill="red" stroke="red" points="620.357,-385.945 614.056,-377.427 613.67,-388.014 620.357,-385.945"/>
</g>
<!-- 36&#45;&gt;12 -->
<g id="edge35" class="edge"><title>36&#45;&gt;12</title>
<path fill="none" stroke="red" d="M466.851,-492.593C461.011,-482.177 453.684,-467.943 449,-454.617 435.422,-415.985 430,-405.412 430,-364.463 430,-364.463 430,-364.463 430,-289.693 430,-227.859 362.905,-180.787 325.118,-159.18"/>
<polygon fill="red" stroke="red" points="326.645,-156.025 316.202,-154.242 323.254,-162.149 326.645,-156.025"/>
</g>
<!-- 11&#45;&gt;7 -->
<g id="edge28" class="edge"><title>11&#45;&gt;7</title>
<path fill="none" stroke="red" d="M775.112,-428.702C742.275,-416.003 669.77,-387.964 632.353,-373.494"/>
<polygon fill="red" stroke="red" points="633.382,-370.139 622.792,-369.797 630.857,-376.668 633.382,-370.139"/>
</g>
<!-- 19&#45;&gt;7 -->
<g id="edge30" class="edge"><title>19&#45;&gt;7</title>
<path fill="none" stroke="red" d="M591.451,-418.461C594.448,-409.239 598.211,-397.659 601.484,-387.589"/>
<polygon fill="red" stroke="red" points="604.901,-388.398 604.664,-377.805 598.244,-386.234 604.901,-388.398"/>
</g>
<!-- 66 -->
<g id="node21" class="node"><title>66</title>
<ellipse fill="none" stroke="black" cx="476" cy="-363.463" rx="18.2703" ry="18.2703"/>
<text text-anchor="middle" x="476" y="-361.263" font-family="Times New Roman,serif" font-size="9.00">66</text>
</g>
<!-- 79&#45;&gt;66 -->
<g id="edge52" class="edge"><title>79&#45;&gt;66</title>
<path fill="none" stroke="red" d="M476,-417.739C476,-410.057 476,-400.847 476,-392.263"/>
<polygon fill="red" stroke="red" points="479.5,-392.247 476,-382.247 472.5,-392.247 479.5,-392.247"/>
</g>
<!-- 53&#45;&gt;30 -->
<g id="edge54" class="edge"><title>53&#45;&gt;30</title>
<path fill="none" stroke="green" d="M164.357,-345.332C166.414,-337.247 168.915,-327.413 171.212,-318.383"/>
<polygon fill="green" stroke="green" points="174.61,-319.221 173.683,-308.667 167.826,-317.496 174.61,-319.221"/>
</g>
<!-- 48&#45;&gt;30 -->
<g id="edge56" class="edge"><title>48&#45;&gt;30</title>
<path fill="none" stroke="green" d="M255.625,-351.405C240.907,-340.084 217.817,-322.322 200.641,-309.11"/>
<polygon fill="green" stroke="green" points="202.334,-305.997 192.274,-302.674 198.066,-311.545 202.334,-305.997"/>
</g>
<!-- 30&#45;&gt;38 -->
<g id="edge18" class="edge"><title>30&#45;&gt;38</title>
<path fill="none" stroke="green" d="M178,-272.2C178,-264.518 178,-255.308 178,-246.724"/>
<polygon fill="green" stroke="green" points="181.5,-246.708 178,-236.708 174.5,-246.708 181.5,-246.708"/>
</g>
<!-- 30&#45;&gt;12 -->
<g id="edge11" class="edge"><title>30&#45;&gt;12</title>
<path fill="none" stroke="green" d="M189.477,-276.19C210.731,-251.183 256.367,-197.491 281.848,-167.511"/>
<polygon fill="green" stroke="green" points="284.655,-169.613 288.464,-159.727 279.321,-165.08 284.655,-169.613"/>
</g>
<!-- 58&#45;&gt;7 -->
<g id="edge41" class="edge"><title>58&#45;&gt;7</title>
<path fill="none" stroke="green" d="M544.232,-423.227C557.021,-411.624 576.502,-393.948 590.76,-381.013"/>
<polygon fill="green" stroke="green" points="593.406,-383.337 598.46,-374.026 588.702,-378.153 593.406,-383.337"/>
</g>
<!-- 13 -->
<g id="node30" class="node"><title>13</title>
<ellipse fill="none" stroke="black" cx="516" cy="-217.924" rx="18.2703" ry="18.2703"/>
<text text-anchor="middle" x="516" y="-215.724" font-family="Times New Roman,serif" font-size="9.00">13</text>
</g>
<!-- 50&#45;&gt;13 -->
<g id="edge50" class="edge"><title>50&#45;&gt;13</title>
<path fill="none" stroke="red" d="M487.99,-273.987C492.511,-265.1 498.267,-253.784 503.384,-243.725"/>
<polygon fill="red" stroke="red" points="506.618,-245.086 508.033,-234.586 500.379,-241.912 506.618,-245.086"/>
</g>
<!-- 38&#45;&gt;12 -->
<g id="edge19" class="edge"><title>38&#45;&gt;12</title>
<path fill="none" stroke="green" d="M193.451,-207.961C214.147,-195.956 251.092,-174.525 275.575,-160.323"/>
<polygon fill="green" stroke="green" points="277.395,-163.313 284.289,-155.268 273.882,-157.258 277.395,-163.313"/>
</g>
<!-- 40 -->
<g id="node29" class="node"><title>40</title>
<ellipse fill="none" stroke="black" cx="551" cy="-290.693" rx="18.2703" ry="18.2703"/>
<text text-anchor="middle" x="551" y="-288.493" font-family="Times New Roman,serif" font-size="9.00">40</text>
</g>
<!-- 7&#45;&gt;40 -->
<g id="edge20" class="edge"><title>7&#45;&gt;40</title>
<path fill="none" stroke="red" d="M599.938,-351.405C591.574,-341.201 578.923,-325.764 568.579,-313.143"/>
<polygon fill="red" stroke="red" points="571.229,-310.854 562.183,-305.339 565.815,-315.291 571.229,-310.854"/>
</g>
<!-- 7&#45;&gt;13 -->
<g id="edge6" class="edge"><title>7&#45;&gt;13</title>
<path fill="none" stroke="green" d="M606.598,-348.618C602.866,-329.993 594.341,-296.424 578,-272.309 567.9,-257.404 552.603,-244.172 539.731,-234.61"/>
<polygon fill="green" stroke="green" points="541.475,-231.555 531.3,-228.6 537.412,-237.255 541.475,-231.555"/>
</g>
<!-- 12&#45;&gt;5 -->
<g id="edge5" class="edge"><title>12&#45;&gt;5</title>
<path fill="none" stroke="red" d="M300.451,-126.718C301.647,-107.656 305.693,-76.7928 319,-54 326.561,-41.0495 339.293,-29.9283 350.016,-22.1065"/>
<polygon fill="red" stroke="red" points="352.138,-24.8952 358.394,-16.3445 348.171,-19.1276 352.138,-24.8952"/>
</g>
<!-- 22 -->
<g id="node31" class="node"><title>22</title>
<ellipse fill="none" stroke="black" cx="346" cy="-72.3848" rx="18.2703" ry="18.2703"/>
<text text-anchor="middle" x="346" y="-70.1848" font-family="Times New Roman,serif" font-size="9.00">22</text>
</g>
<!-- 12&#45;&gt;22 -->
<g id="edge36" class="edge"><title>12&#45;&gt;22</title>
<path fill="none" stroke="green" d="M309.755,-129.146C315.854,-119.763 323.838,-107.481 330.759,-96.8325"/>
<polygon fill="green" stroke="green" points="333.743,-98.6635 336.259,-88.3715 327.874,-94.8485 333.743,-98.6635"/>
</g>
<!-- 40&#45;&gt;13 -->
<g id="edge21" class="edge"><title>40&#45;&gt;13</title>
<path fill="none" stroke="green" d="M543.232,-273.987C538.898,-265.223 533.396,-254.098 528.473,-244.145"/>
<polygon fill="green" stroke="green" points="531.559,-242.489 523.989,-235.077 525.284,-245.592 531.559,-242.489"/>
</g>
<!-- 13&#45;&gt;5 -->
<g id="edge7" class="edge"><title>13&#45;&gt;5</title>
<path fill="none" stroke="red" d="M506.503,-201.731C488.051,-172.479 445.68,-106.575 406,-54 398.771,-44.4216 390.171,-34.1347 383.082,-25.9177"/>
<polygon fill="red" stroke="red" points="385.576,-23.4522 376.362,-18.2205 380.302,-28.0556 385.576,-23.4522"/>
</g>
<!-- 22&#45;&gt;5 -->
<g id="edge37" class="edge"><title>22&#45;&gt;5</title>
<path fill="none" stroke="red" d="M352.164,-54.9348C355.342,-46.4515 359.22,-36.103 362.452,-27.4763"/>
<polygon fill="red" stroke="red" points="365.753,-28.641 365.984,-18.0486 359.198,-26.1848 365.753,-28.641"/>
</g>
</g>
</svg>
