<?xml version="1.0" encoding="UTF-8" standalone="no"?>
<!DOCTYPE svg PUBLIC "-//W3C//DTD SVG 1.1//EN"
 "http://www.w3.org/Graphics/SVG/1.1/DTD/svg11.dtd">
<!-- Generated by graphviz version 2.38.0 (20140413.2041)
 -->
<!-- Title: %3 Pages: 1 -->
<svg width="852pt" height="880pt"
 viewBox="0.00 0.00 851.50 880.47" xmlns="http://www.w3.org/2000/svg" xmlns:xlink="http://www.w3.org/1999/xlink">
<g id="graph0" class="graph" transform="scale(1 1) rotate(0) translate(4 876.465)">
<title>%3</title>
<polygon fill="white" stroke="none" points="-4,4 -4,-876.465 847.5,-876.465 847.5,4 -4,4"/>
<!-- 1 -->
<g id="node1" class="node"><title>1</title>
<polygon fill="lightgray" stroke="black" points="712.5,-872.465 691.5,-872.465 691.5,-854.465 712.5,-854.465 712.5,-872.465"/>
<text text-anchor="middle" x="702" y="-861.265" font-family="Times New Roman,serif" font-size="9.00">1</text>
</g>
<!-- 74 -->
<g id="node6" class="node"><title>74</title>
<ellipse fill="none" stroke="black" cx="756" cy="-800.08" rx="18.2703" ry="18.2703"/>
<text text-anchor="middle" x="756" y="-797.88" font-family="Times New Roman,serif" font-size="9.00">74</text>
</g>
<!-- 1&#45;&gt;74 -->
<g id="edge43" class="edge"><title>1&#45;&gt;74</title>
<path fill="none" stroke="green" d="M709.06,-854.44C716.237,-846.281 727.662,-833.293 737.444,-822.174"/>
<polygon fill="green" stroke="green" points="740.214,-824.324 744.191,-814.504 734.958,-819.701 740.214,-824.324"/>
</g>
<!-- 63 -->
<g id="node14" class="node"><title>63</title>
<ellipse fill="none" stroke="black" cx="84" cy="-363.463" rx="18.2703" ry="18.2703"/>
<text text-anchor="middle" x="84" y="-361.263" font-family="Times New Roman,serif" font-size="9.00">63</text>
</g>
<!-- 1&#45;&gt;63 -->
<g id="edge40" class="edge"><title>1&#45;&gt;63</title>
<path fill="none" stroke="red" d="M691.254,-861.596C602.934,-854.314 0,-801.906 0,-728.311 0,-728.311 0,-728.311 0,-508.002 0,-457.762 38.8059,-409.506 63.6659,-383.746"/>
<polygon fill="red" stroke="red" points="66.3055,-386.055 70.875,-376.497 61.3419,-381.119 66.3055,-386.055"/>
</g>
<!-- 19 -->
<g id="node18" class="node"><title>19</title>
<ellipse fill="none" stroke="black" cx="702" cy="-727.311" rx="18.2703" ry="18.2703"/>
<text text-anchor="middle" x="702" y="-725.111" font-family="Times New Roman,serif" font-size="9.00">19</text>
</g>
<!-- 1&#45;&gt;19 -->
<g id="edge53" class="edge"><title>1&#45;&gt;19</title>
<path fill="none" stroke="red" d="M702,-854.073C702,-834.882 702,-787.075 702,-756.242"/>
<polygon fill="red" stroke="red" points="705.5,-756.119 702,-746.119 698.5,-756.119 705.5,-756.119"/>
</g>
<!-- 2 -->
<g id="node2" class="node"><title>2</title>
<polygon fill="lightgray" stroke="black" points="248.5,-590.772 227.5,-590.772 227.5,-572.772 248.5,-572.772 248.5,-590.772"/>
<text text-anchor="middle" x="238" y="-579.572" font-family="Times New Roman,serif" font-size="9.00">2</text>
</g>
<!-- 5 -->
<g id="node5" class="node"><title>5</title>
<polygon fill="lightblue" stroke="black" points="431.5,-18 410.5,-18 410.5,-0 431.5,-0 431.5,-18"/>
<text text-anchor="middle" x="421" y="-6.8" font-family="Times New Roman,serif" font-size="9.00">5</text>
</g>
<!-- 2&#45;&gt;5 -->
<g id="edge9" class="edge"><title>2&#45;&gt;5</title>
<path fill="none" stroke="green" d="M227.247,-578.633C185.705,-569.685 38,-531.259 38,-437.233 38,-437.233 38,-437.233 38,-144.154 38,-66.7621 320.072,-23.4014 400.077,-12.6595"/>
<polygon fill="green" stroke="green" points="400.897,-16.082 410.357,-11.3111 399.986,-9.1414 400.897,-16.082"/>
</g>
<!-- 35 -->
<g id="node8" class="node"><title>35</title>
<ellipse fill="none" stroke="black" cx="215" cy="-509.002" rx="18.2703" ry="18.2703"/>
<text text-anchor="middle" x="215" y="-506.802" font-family="Times New Roman,serif" font-size="9.00">35</text>
</g>
<!-- 2&#45;&gt;35 -->
<g id="edge11" class="edge"><title>2&#45;&gt;35</title>
<path fill="none" stroke="red" d="M235.362,-572.653C232.494,-563.83 227.761,-549.267 223.58,-536.401"/>
<polygon fill="red" stroke="red" points="226.81,-535.017 220.391,-526.589 220.153,-537.181 226.81,-535.017"/>
</g>
<!-- 43 -->
<g id="node12" class="node"><title>43</title>
<ellipse fill="none" stroke="black" cx="139" cy="-436.233" rx="18.2703" ry="18.2703"/>
<text text-anchor="middle" x="139" y="-434.033" font-family="Times New Roman,serif" font-size="9.00">43</text>
</g>
<!-- 2&#45;&gt;43 -->
<g id="edge13" class="edge"><title>2&#45;&gt;43</title>
<path fill="none" stroke="red" d="M229.141,-572.671C218.538,-562.688 200.635,-544.89 188,-527.387 173.083,-506.723 159.536,-480.999 150.486,-462.325"/>
<polygon fill="red" stroke="red" points="153.634,-460.795 146.18,-453.266 147.312,-463.8 153.634,-460.795"/>
</g>
<!-- 30 -->
<g id="node23" class="node"><title>30</title>
<ellipse fill="none" stroke="black" cx="269" cy="-290.693" rx="18.2703" ry="18.2703"/>
<text text-anchor="middle" x="269" y="-288.493" font-family="Times New Roman,serif" font-size="9.00">30</text>
</g>
<!-- 2&#45;&gt;30 -->
<g id="edge14" class="edge"><title>2&#45;&gt;30</title>
<path fill="none" stroke="red" d="M238.861,-572.738C242.809,-535.93 259.264,-382.48 266.052,-319.181"/>
<polygon fill="red" stroke="red" points="269.543,-319.456 267.129,-309.14 262.583,-318.71 269.543,-319.456"/>
</g>
<!-- 50 -->
<g id="node25" class="node"><title>50</title>
<ellipse fill="none" stroke="black" cx="395" cy="-290.693" rx="18.2703" ry="18.2703"/>
<text text-anchor="middle" x="395" y="-288.493" font-family="Times New Roman,serif" font-size="9.00">50</text>
</g>
<!-- 2&#45;&gt;50 -->
<g id="edge45" class="edge"><title>2&#45;&gt;50</title>
<path fill="none" stroke="red" d="M247.274,-572.567C267.985,-553.754 318.351,-505.219 346,-454.617 370.154,-410.413 383.872,-352.799 390.339,-319.26"/>
<polygon fill="red" stroke="red" points="393.811,-319.734 392.188,-309.265 386.928,-318.461 393.811,-319.734"/>
</g>
<!-- 7 -->
<g id="node27" class="node"><title>7</title>
<ellipse fill="none" stroke="black" cx="626" cy="-363.463" rx="14.7" ry="14.7"/>
<text text-anchor="middle" x="626" y="-361.263" font-family="Times New Roman,serif" font-size="9.00">7</text>
</g>
<!-- 2&#45;&gt;7 -->
<g id="edge3" class="edge"><title>2&#45;&gt;7</title>
<path fill="none" stroke="red" d="M248.529,-578.265C272.84,-572.171 334.229,-555.02 379,-527.387 409.585,-508.509 467.732,-437.231 498,-417.848 531.652,-396.298 575.47,-380.252 602.128,-371.631"/>
<polygon fill="red" stroke="red" points="603.285,-374.936 611.773,-368.595 601.183,-368.259 603.285,-374.936"/>
</g>
<!-- 3 -->
<g id="node3" class="node"><title>3</title>
<polygon fill="lightgray" stroke="black" points="505.5,-590.772 484.5,-590.772 484.5,-572.772 505.5,-572.772 505.5,-590.772"/>
<text text-anchor="middle" x="495" y="-579.572" font-family="Times New Roman,serif" font-size="9.00">3</text>
</g>
<!-- 3&#45;&gt;5 -->
<g id="edge1" class="edge"><title>3&#45;&gt;5</title>
<path fill="none" stroke="green" d="M493.442,-572.593C484.588,-525.841 441,-291.968 441,-218.924 441,-218.924 441,-218.924 441,-144.154 441,-102.104 431.268,-53.4409 425.382,-27.852"/>
<polygon fill="green" stroke="green" points="428.782,-27.0236 423.065,-18.1039 421.972,-28.6422 428.782,-27.0236"/>
</g>
<!-- 46 -->
<g id="node10" class="node"><title>46</title>
<ellipse fill="none" stroke="black" cx="449" cy="-509.002" rx="18.2703" ry="18.2703"/>
<text text-anchor="middle" x="449" y="-506.802" font-family="Times New Roman,serif" font-size="9.00">46</text>
</g>
<!-- 3&#45;&gt;46 -->
<g id="edge22" class="edge"><title>3&#45;&gt;46</title>
<path fill="none" stroke="red" d="M489.723,-572.653C483.528,-563.123 472.981,-546.897 464.173,-533.346"/>
<polygon fill="red" stroke="red" points="467.084,-531.401 458.699,-524.924 461.215,-535.216 467.084,-531.401"/>
</g>
<!-- 29 -->
<g id="node15" class="node"><title>29</title>
<ellipse fill="none" stroke="black" cx="319" cy="-436.233" rx="18.2703" ry="18.2703"/>
<text text-anchor="middle" x="319" y="-434.033" font-family="Times New Roman,serif" font-size="9.00">29</text>
</g>
<!-- 3&#45;&gt;29 -->
<g id="edge31" class="edge"><title>3&#45;&gt;29</title>
<path fill="none" stroke="green" d="M484.388,-573.45C469.985,-563.415 443.57,-544.66 422,-527.387 392.523,-503.783 359.954,-474.745 339.49,-456.115"/>
<polygon fill="green" stroke="green" points="341.758,-453.446 332.015,-449.282 337.035,-458.613 341.758,-453.446"/>
</g>
<!-- 36 -->
<g id="node16" class="node"><title>36</title>
<ellipse fill="none" stroke="black" cx="541" cy="-509.002" rx="18.2703" ry="18.2703"/>
<text text-anchor="middle" x="541" y="-506.802" font-family="Times New Roman,serif" font-size="9.00">36</text>
</g>
<!-- 3&#45;&gt;36 -->
<g id="edge15" class="edge"><title>3&#45;&gt;36</title>
<path fill="none" stroke="green" d="M500.277,-572.653C506.472,-563.123 517.019,-546.897 525.827,-533.346"/>
<polygon fill="green" stroke="green" points="528.785,-535.216 531.301,-524.924 522.916,-531.401 528.785,-535.216"/>
</g>
<!-- 3&#45;&gt;7 -->
<g id="edge7" class="edge"><title>3&#45;&gt;7</title>
<path fill="none" stroke="red" d="M505.764,-575.293C533.444,-560.468 606.503,-516.473 629,-454.617 636.83,-433.087 634.732,-406.724 631.495,-388.082"/>
<polygon fill="red" stroke="red" points="634.894,-387.226 629.524,-378.093 628.026,-388.581 634.894,-387.226"/>
</g>
<!-- 4 -->
<g id="node4" class="node"><title>4</title>
<polygon fill="lightgray" stroke="black" points="843.5,-518.002 822.5,-518.002 822.5,-500.002 843.5,-500.002 843.5,-518.002"/>
<text text-anchor="middle" x="833" y="-506.802" font-family="Times New Roman,serif" font-size="9.00">4</text>
</g>
<!-- 4&#45;&gt;5 -->
<g id="edge2" class="edge"><title>4&#45;&gt;5</title>
<path fill="none" stroke="green" d="M832.904,-499.909C832.654,-478.06 832,-416.049 832,-364.463 832,-364.463 832,-364.463 832,-144.154 832,-61.0914 524.794,-21.3789 441.577,-12.1451"/>
<polygon fill="green" stroke="green" points="441.891,-8.65878 431.573,-11.0638 441.139,-15.6182 441.891,-8.65878"/>
</g>
<!-- 11 -->
<g id="node17" class="node"><title>11</title>
<ellipse fill="none" stroke="black" cx="748" cy="-436.233" rx="18.2703" ry="18.2703"/>
<text text-anchor="middle" x="748" y="-434.033" font-family="Times New Roman,serif" font-size="9.00">11</text>
</g>
<!-- 4&#45;&gt;11 -->
<g id="edge26" class="edge"><title>4&#45;&gt;11</title>
<path fill="none" stroke="red" d="M823.686,-499.811C820.335,-496.889 816.514,-493.587 813,-490.617 798.726,-478.556 782.481,-465.214 769.801,-454.884"/>
<polygon fill="red" stroke="red" points="772.008,-452.168 762.041,-448.576 767.593,-457.599 772.008,-452.168"/>
</g>
<!-- 4&#45;&gt;7 -->
<g id="edge8" class="edge"><title>4&#45;&gt;7</title>
<path fill="none" stroke="red" d="M829.86,-499.747C822.768,-482.168 803.848,-440.777 775,-417.848 737.67,-388.177 682.481,-374.201 650.8,-368.276"/>
<polygon fill="red" stroke="red" points="651.095,-364.775 640.642,-366.503 649.892,-371.67 651.095,-364.775"/>
</g>
<!-- 64 -->
<g id="node7" class="node"><title>64</title>
<ellipse fill="none" stroke="black" cx="764" cy="-727.311" rx="18.2703" ry="18.2703"/>
<text text-anchor="middle" x="764" y="-725.111" font-family="Times New Roman,serif" font-size="9.00">64</text>
</g>
<!-- 74&#45;&gt;64 -->
<g id="edge44" class="edge"><title>74&#45;&gt;64</title>
<path fill="none" stroke="green" d="M757.978,-781.587C758.859,-773.788 759.919,-764.416 760.901,-755.721"/>
<polygon fill="green" stroke="green" points="764.4,-755.933 762.045,-745.603 757.444,-755.147 764.4,-755.933"/>
</g>
<!-- 49 -->
<g id="node9" class="node"><title>49</title>
<ellipse fill="none" stroke="black" cx="778" cy="-654.541" rx="18.2703" ry="18.2703"/>
<text text-anchor="middle" x="778" y="-652.341" font-family="Times New Roman,serif" font-size="9.00">49</text>
</g>
<!-- 64&#45;&gt;49 -->
<g id="edge41" class="edge"><title>64&#45;&gt;49</title>
<path fill="none" stroke="green" d="M767.389,-709.179C768.948,-701.3 770.836,-691.757 772.584,-682.918"/>
<polygon fill="green" stroke="green" points="776.038,-683.496 774.545,-673.006 769.171,-682.137 776.038,-683.496"/>
</g>
<!-- 35&#45;&gt;43 -->
<g id="edge21" class="edge"><title>35&#45;&gt;43</title>
<path fill="none" stroke="red" d="M201.762,-495.675C190.101,-484.817 172.93,-468.828 159.495,-456.317"/>
<polygon fill="red" stroke="red" points="161.79,-453.672 152.086,-449.418 157.02,-458.795 161.79,-453.672"/>
</g>
<!-- 35&#45;&gt;29 -->
<g id="edge12" class="edge"><title>35&#45;&gt;29</title>
<path fill="none" stroke="red" d="M229.901,-497.863C247.123,-486.143 275.673,-466.716 295.806,-453.016"/>
<polygon fill="red" stroke="red" points="297.829,-455.873 304.127,-447.353 293.89,-450.086 297.829,-455.873"/>
</g>
<!-- 38 -->
<g id="node26" class="node"><title>38</title>
<ellipse fill="none" stroke="black" cx="265" cy="-217.924" rx="18.2703" ry="18.2703"/>
<text text-anchor="middle" x="265" y="-215.724" font-family="Times New Roman,serif" font-size="9.00">38</text>
</g>
<!-- 35&#45;&gt;38 -->
<g id="edge28" class="edge"><title>35&#45;&gt;38</title>
<path fill="none" stroke="green" d="M215.266,-490.528C216.241,-450.988 220.789,-351.904 242,-272.309 244.53,-262.815 248.462,-252.821 252.364,-244.08"/>
<polygon fill="green" stroke="green" points="255.62,-245.38 256.68,-234.838 249.278,-242.417 255.62,-245.38"/>
</g>
<!-- 12 -->
<g id="node28" class="node"><title>12</title>
<ellipse fill="none" stroke="black" cx="349" cy="-145.154" rx="18.2703" ry="18.2703"/>
<text text-anchor="middle" x="349" y="-142.954" font-family="Times New Roman,serif" font-size="9.00">12</text>
</g>
<!-- 35&#45;&gt;12 -->
<g id="edge42" class="edge"><title>35&#45;&gt;12</title>
<path fill="none" stroke="red" d="M209.216,-491.442C200.498,-464.965 185,-411.307 185,-364.463 185,-364.463 185,-364.463 185,-289.693 185,-243.214 203.796,-231.01 238,-199.539 262.234,-177.242 297.48,-162.452 321.719,-154.206"/>
<polygon fill="red" stroke="red" points="322.941,-157.49 331.369,-151.07 320.777,-150.832 322.941,-157.49"/>
</g>
<!-- 56 -->
<g id="node11" class="node"><title>56</title>
<ellipse fill="none" stroke="black" cx="786" cy="-581.772" rx="18.2703" ry="18.2703"/>
<text text-anchor="middle" x="786" y="-579.572" font-family="Times New Roman,serif" font-size="9.00">56</text>
</g>
<!-- 49&#45;&gt;56 -->
<g id="edge24" class="edge"><title>49&#45;&gt;56</title>
<path fill="none" stroke="green" d="M779.978,-636.048C780.859,-628.249 781.919,-618.877 782.901,-610.182"/>
<polygon fill="green" stroke="green" points="786.4,-610.394 784.045,-600.064 779.444,-609.608 786.4,-610.394"/>
</g>
<!-- 54 -->
<g id="node13" class="node"><title>54</title>
<ellipse fill="none" stroke="black" cx="786" cy="-509.002" rx="18.2703" ry="18.2703"/>
<text text-anchor="middle" x="786" y="-506.802" font-family="Times New Roman,serif" font-size="9.00">54</text>
</g>
<!-- 49&#45;&gt;54 -->
<g id="edge29" class="edge"><title>49&#45;&gt;54</title>
<path fill="none" stroke="green" d="M789.962,-640.181C798.221,-630.012 808.498,-615.236 813,-600.156 817.675,-584.498 816.791,-579.283 813,-563.387 810.532,-553.039 805.717,-542.426 800.828,-533.417"/>
<polygon fill="green" stroke="green" points="803.825,-531.606 795.802,-524.686 797.758,-535.099 803.825,-531.606"/>
</g>
<!-- 49&#45;&gt;11 -->
<g id="edge36" class="edge"><title>49&#45;&gt;11</title>
<path fill="none" stroke="red" d="M770.993,-637.518C766.759,-627.085 761.679,-613.064 759,-600.156 749.319,-553.521 747.607,-497.925 747.574,-465.216"/>
<polygon fill="red" stroke="red" points="751.075,-465.062 747.618,-455.047 744.075,-465.032 751.075,-465.062"/>
</g>
<!-- 46&#45;&gt;29 -->
<g id="edge23" class="edge"><title>46&#45;&gt;29</title>
<path fill="none" stroke="green" d="M433.059,-499.324C410.838,-487.227 370.327,-465.174 344.048,-450.868"/>
<polygon fill="green" stroke="green" points="345.527,-447.689 335.071,-445.981 342.18,-453.837 345.527,-447.689"/>
</g>
<!-- 56&#45;&gt;54 -->
<g id="edge25" class="edge"><title>56&#45;&gt;54</title>
<path fill="none" stroke="green" d="M786,-563.278C786,-555.596 786,-546.387 786,-537.802"/>
<polygon fill="green" stroke="green" points="789.5,-537.786 786,-527.786 782.5,-537.786 789.5,-537.786"/>
</g>
<!-- 43&#45;&gt;63 -->
<g id="edge39" class="edge"><title>43&#45;&gt;63</title>
<path fill="none" stroke="red" d="M128.134,-421.251C120.45,-411.364 109.991,-397.907 101.184,-386.574"/>
<polygon fill="red" stroke="red" points="103.744,-384.164 94.8437,-378.416 98.2166,-388.459 103.744,-384.164"/>
</g>
<!-- 53 -->
<g id="node20" class="node"><title>53</title>
<ellipse fill="none" stroke="black" cx="139" cy="-363.463" rx="18.2703" ry="18.2703"/>
<text text-anchor="middle" x="139" y="-361.263" font-family="Times New Roman,serif" font-size="9.00">53</text>
</g>
<!-- 43&#45;&gt;53 -->
<g id="edge49" class="edge"><title>43&#45;&gt;53</title>
<path fill="none" stroke="red" d="M139,-417.739C139,-410.057 139,-400.847 139,-392.263"/>
<polygon fill="red" stroke="red" points="142.5,-392.247 139,-382.247 135.5,-392.247 142.5,-392.247"/>
</g>
<!-- 54&#45;&gt;11 -->
<g id="edge30" class="edge"><title>54&#45;&gt;11</title>
<path fill="none" stroke="green" d="M777.567,-492.296C772.745,-483.317 766.593,-471.859 761.15,-461.723"/>
<polygon fill="green" stroke="green" points="764.224,-460.049 756.41,-452.895 758.057,-463.361 764.224,-460.049"/>
</g>
<!-- 48 -->
<g id="node22" class="node"><title>48</title>
<ellipse fill="none" stroke="black" cx="307" cy="-363.463" rx="18.2703" ry="18.2703"/>
<text text-anchor="middle" x="307" y="-361.263" font-family="Times New Roman,serif" font-size="9.00">48</text>
</g>
<!-- 29&#45;&gt;48 -->
<g id="edge51" class="edge"><title>29&#45;&gt;48</title>
<path fill="none" stroke="green" d="M316.034,-417.739C314.711,-409.94 313.122,-400.568 311.648,-391.873"/>
<polygon fill="green" stroke="green" points="315.055,-391.029 309.932,-381.755 308.153,-392.2 315.055,-391.029"/>
</g>
<!-- 29&#45;&gt;12 -->
<g id="edge35" class="edge"><title>29&#45;&gt;12</title>
<path fill="none" stroke="red" d="M324.646,-418.608C327.945,-408.177 331.866,-394.375 334,-381.848 346.664,-307.511 348.874,-218.337 349.114,-174.012"/>
<polygon fill="red" stroke="red" points="352.615,-173.753 349.138,-163.745 345.615,-173.737 352.615,-173.753"/>
</g>
<!-- 79 -->
<g id="node19" class="node"><title>79</title>
<ellipse fill="none" stroke="black" cx="525" cy="-436.233" rx="18.2703" ry="18.2703"/>
<text text-anchor="middle" x="525" y="-434.033" font-family="Times New Roman,serif" font-size="9.00">79</text>
</g>
<!-- 36&#45;&gt;79 -->
<g id="edge47" class="edge"><title>36&#45;&gt;79</title>
<path fill="none" stroke="green" d="M537.127,-490.871C535.345,-482.991 533.188,-473.448 531.189,-464.609"/>
<polygon fill="green" stroke="green" points="534.568,-463.68 528.949,-454.698 527.74,-465.223 534.568,-463.68"/>
</g>
<!-- 58 -->
<g id="node24" class="node"><title>58</title>
<ellipse fill="none" stroke="black" cx="580" cy="-436.233" rx="18.2703" ry="18.2703"/>
<text text-anchor="middle" x="580" y="-434.033" font-family="Times New Roman,serif" font-size="9.00">58</text>
</g>
<!-- 36&#45;&gt;58 -->
<g id="edge37" class="edge"><title>36&#45;&gt;58</title>
<path fill="none" stroke="green" d="M549.462,-492.646C554.402,-483.682 560.751,-472.162 566.379,-461.949"/>
<polygon fill="green" stroke="green" points="569.523,-463.496 571.284,-453.049 563.392,-460.117 569.523,-463.496"/>
</g>
<!-- 36&#45;&gt;7 -->
<g id="edge16" class="edge"><title>36&#45;&gt;7</title>
<path fill="none" stroke="green" d="M556.978,-499.425C572.271,-490.357 594.768,-474.604 607,-454.617 619.342,-434.451 623.766,-407.516 625.301,-388.353"/>
<polygon fill="green" stroke="green" points="628.796,-388.529 625.899,-378.338 621.809,-388.112 628.796,-388.529"/>
</g>
<!-- 36&#45;&gt;12 -->
<g id="edge32" class="edge"><title>36&#45;&gt;12</title>
<path fill="none" stroke="green" d="M528.54,-494.746C519.27,-484.397 506.76,-469.347 498,-454.617 453.129,-379.167 460.954,-350.977 422,-272.309 403.779,-235.512 379.327,-194.676 363.864,-169.707"/>
<polygon fill="green" stroke="green" points="366.67,-167.591 358.41,-160.955 360.729,-171.293 366.67,-167.591"/>
</g>
<!-- 11&#45;&gt;7 -->
<g id="edge27" class="edge"><title>11&#45;&gt;7</title>
<path fill="none" stroke="green" d="M732.549,-426.27C711.039,-413.792 671.974,-391.132 647.594,-376.989"/>
<polygon fill="green" stroke="green" points="649.142,-373.841 638.736,-371.851 645.63,-379.896 649.142,-373.841"/>
</g>
<!-- 19&#45;&gt;7 -->
<g id="edge54" class="edge"><title>19&#45;&gt;7</title>
<path fill="none" stroke="red" d="M702,-708.633C702,-681.541 702,-628.126 702,-582.772 702,-582.772 702,-582.772 702,-508.002 702,-457.841 665.302,-408.082 642.908,-382.388"/>
<polygon fill="red" stroke="red" points="645.224,-379.728 635.936,-374.631 640.018,-384.408 645.224,-379.728"/>
</g>
<!-- 66 -->
<g id="node21" class="node"><title>66</title>
<ellipse fill="none" stroke="black" cx="525" cy="-363.463" rx="18.2703" ry="18.2703"/>
<text text-anchor="middle" x="525" y="-361.263" font-family="Times New Roman,serif" font-size="9.00">66</text>
</g>
<!-- 79&#45;&gt;66 -->
<g id="edge48" class="edge"><title>79&#45;&gt;66</title>
<path fill="none" stroke="red" d="M525,-417.739C525,-410.057 525,-400.847 525,-392.263"/>
<polygon fill="red" stroke="red" points="528.5,-392.247 525,-382.247 521.5,-392.247 528.5,-392.247"/>
</g>
<!-- 53&#45;&gt;30 -->
<g id="edge50" class="edge"><title>53&#45;&gt;30</title>
<path fill="none" stroke="green" d="M154.941,-353.785C177.162,-341.688 217.673,-319.635 243.952,-305.329"/>
<polygon fill="green" stroke="green" points="245.82,-308.297 252.929,-300.442 242.473,-302.149 245.82,-308.297"/>
</g>
<!-- 48&#45;&gt;30 -->
<g id="edge52" class="edge"><title>48&#45;&gt;30</title>
<path fill="none" stroke="red" d="M298.567,-346.757C293.745,-337.778 287.593,-326.32 282.15,-316.184"/>
<polygon fill="red" stroke="red" points="285.224,-314.51 277.41,-307.356 279.057,-317.822 285.224,-314.51"/>
</g>
<!-- 30&#45;&gt;38 -->
<g id="edge17" class="edge"><title>30&#45;&gt;38</title>
<path fill="none" stroke="green" d="M268.011,-272.2C267.577,-264.518 267.057,-255.308 266.571,-246.724"/>
<polygon fill="green" stroke="green" points="270.064,-246.494 266.005,-236.708 263.075,-246.889 270.064,-246.494"/>
</g>
<!-- 30&#45;&gt;12 -->
<g id="edge10" class="edge"><title>30&#45;&gt;12</title>
<path fill="none" stroke="green" d="M277.561,-274.332C291.383,-249.533 318.732,-200.462 335.291,-170.751"/>
<polygon fill="green" stroke="green" points="338.446,-172.279 340.258,-161.84 332.332,-168.871 338.446,-172.279"/>
</g>
<!-- 58&#45;&gt;7 -->
<g id="edge38" class="edge"><title>58&#45;&gt;7</title>
<path fill="none" stroke="green" d="M589.755,-420.224C596.415,-409.979 605.321,-396.277 612.638,-385.02"/>
<polygon fill="green" stroke="green" points="615.577,-386.921 618.092,-376.629 609.708,-383.106 615.577,-386.921"/>
</g>
<!-- 13 -->
<g id="node30" class="node"><title>13</title>
<ellipse fill="none" stroke="black" cx="513" cy="-217.924" rx="18.2703" ry="18.2703"/>
<text text-anchor="middle" x="513" y="-215.724" font-family="Times New Roman,serif" font-size="9.00">13</text>
</g>
<!-- 50&#45;&gt;13 -->
<g id="edge46" class="edge"><title>50&#45;&gt;13</title>
<path fill="none" stroke="green" d="M410.426,-280.442C430.391,-268.468 465.395,-247.475 488.886,-233.386"/>
<polygon fill="green" stroke="green" points="490.794,-236.323 497.57,-228.178 487.194,-230.32 490.794,-236.323"/>
</g>
<!-- 38&#45;&gt;12 -->
<g id="edge18" class="edge"><title>38&#45;&gt;12</title>
<path fill="none" stroke="red" d="M278.871,-205.238C292.082,-194.108 312.164,-177.189 327.457,-164.304"/>
<polygon fill="red" stroke="red" points="329.995,-166.743 335.387,-157.623 325.484,-161.389 329.995,-166.743"/>
</g>
<!-- 40 -->
<g id="node29" class="node"><title>40</title>
<ellipse fill="none" stroke="black" cx="539" cy="-290.693" rx="18.2703" ry="18.2703"/>
<text text-anchor="middle" x="539" y="-288.493" font-family="Times New Roman,serif" font-size="9.00">40</text>
</g>
<!-- 7&#45;&gt;40 -->
<g id="edge19" class="edge"><title>7&#45;&gt;40</title>
<path fill="none" stroke="red" d="M614.981,-353.5C601.386,-342.441 577.955,-323.381 560.698,-309.344"/>
<polygon fill="red" stroke="red" points="562.759,-306.508 552.793,-302.913 558.342,-311.939 562.759,-306.508"/>
</g>
<!-- 7&#45;&gt;13 -->
<g id="edge5" class="edge"><title>7&#45;&gt;13</title>
<path fill="none" stroke="red" d="M618.933,-350.276C608.368,-332.447 587.398,-298.527 566,-272.309 556.13,-260.214 543.922,-247.776 533.711,-237.951"/>
<polygon fill="red" stroke="red" points="536.033,-235.329 526.364,-230.996 531.221,-240.412 536.033,-235.329"/>
</g>
<!-- 12&#45;&gt;5 -->
<g id="edge4" class="edge"><title>12&#45;&gt;5</title>
<path fill="none" stroke="red" d="M358.185,-128.866C364.48,-118.262 372.936,-103.764 380,-90.7696 391.706,-69.2356 404.355,-43.9837 412.461,-27.523"/>
<polygon fill="red" stroke="red" points="415.819,-28.6231 417.075,-18.103 409.533,-25.5437 415.819,-28.6231"/>
</g>
<!-- 22 -->
<g id="node31" class="node"><title>22</title>
<ellipse fill="none" stroke="black" cx="353" cy="-72.3848" rx="18.2703" ry="18.2703"/>
<text text-anchor="middle" x="353" y="-70.1848" font-family="Times New Roman,serif" font-size="9.00">22</text>
</g>
<!-- 12&#45;&gt;22 -->
<g id="edge33" class="edge"><title>12&#45;&gt;22</title>
<path fill="none" stroke="red" d="M349.989,-126.661C350.423,-118.978 350.943,-109.769 351.429,-101.185"/>
<polygon fill="red" stroke="red" points="354.925,-101.35 351.995,-91.1687 347.936,-100.955 354.925,-101.35"/>
</g>
<!-- 40&#45;&gt;13 -->
<g id="edge20" class="edge"><title>40&#45;&gt;13</title>
<path fill="none" stroke="green" d="M532.97,-273.28C529.929,-265.003 526.166,-254.761 522.73,-245.407"/>
<polygon fill="green" stroke="green" points="525.912,-243.92 519.178,-235.74 519.341,-246.334 525.912,-243.92"/>
</g>
<!-- 13&#45;&gt;5 -->
<g id="edge6" class="edge"><title>13&#45;&gt;5</title>
<path fill="none" stroke="green" d="M508.875,-200.003C501.05,-169.56 482.347,-104.064 455,-54 449.562,-44.0451 441.954,-33.9592 435.312,-25.9596"/>
<polygon fill="green" stroke="green" points="437.811,-23.4976 428.634,-18.2031 432.506,-28.0649 437.811,-23.4976"/>
</g>
<!-- 22&#45;&gt;5 -->
<g id="edge34" class="edge"><title>22&#45;&gt;5</title>
<path fill="none" stroke="green" d="M366.435,-59.2571C377.273,-49.4728 392.579,-35.6565 404.222,-25.1456"/>
<polygon fill="green" stroke="green" points="406.86,-27.48 411.937,-18.1812 402.169,-22.284 406.86,-27.48"/>
</g>
</g>
</svg>
