<?xml version="1.0" encoding="UTF-8" standalone="no"?>
<!DOCTYPE svg PUBLIC "-//W3C//DTD SVG 1.1//EN"
 "http://www.w3.org/Graphics/SVG/1.1/DTD/svg11.dtd">
<!-- Generated by graphviz version 2.38.0 (20140413.2041)
 -->
<!-- Title: %3 Pages: 1 -->
<svg width="182pt" height="291pt"
 viewBox="0.00 0.00 181.52 291.24" xmlns="http://www.w3.org/2000/svg" xmlns:xlink="http://www.w3.org/1999/xlink">
<g id="graph0" class="graph" transform="scale(1 1) rotate(0) translate(4 287.238)">
<title>%3</title>
<polygon fill="white" stroke="none" points="-4,4 -4,-287.238 177.516,-287.238 177.516,4 -4,4"/>
<!-- 1 -->
<g id="node1" class="node"><title>1</title>
<polygon fill="lightgray" stroke="black" points="79.516,-219.853 58.516,-219.853 58.516,-201.853 79.516,-201.853 79.516,-219.853"/>
<text text-anchor="middle" x="69.016" y="-208.653" font-family="Times New Roman,serif" font-size="9.00">1</text>
</g>
<!-- 7 -->
<g id="node7" class="node"><title>7</title>
<ellipse fill="none" stroke="black" cx="76.016" cy="-141.619" rx="14.7" ry="14.7"/>
<text text-anchor="middle" x="76.016" y="-139.419" font-family="Times New Roman,serif" font-size="9.00">7</text>
</g>
<!-- 1&#45;&gt;7 -->
<g id="edge3" class="edge"><title>1&#45;&gt;7</title>
<path fill="none" stroke="red" d="M69.8744,-201.609C70.7779,-192.93 72.2431,-178.857 73.5157,-166.634"/>
<polygon fill="red" stroke="red" points="77.0112,-166.858 74.5656,-156.55 70.0488,-166.133 77.0112,-166.858"/>
</g>
<!-- 2 -->
<g id="node2" class="node"><title>2</title>
<polygon fill="lightgray" stroke="black" points="173.516,-219.853 152.516,-219.853 152.516,-201.853 173.516,-201.853 173.516,-219.853"/>
<text text-anchor="middle" x="163.016" y="-208.653" font-family="Times New Roman,serif" font-size="9.00">2</text>
</g>
<!-- 2&#45;&gt;7 -->
<g id="edge4" class="edge"><title>2&#45;&gt;7</title>
<path fill="none" stroke="green" d="M153.78,-201.567C150.436,-198.636 146.6,-195.352 143.016,-192.468 127.635,-180.091 109.66,-166.777 96.2025,-157.024"/>
<polygon fill="green" stroke="green" points="98.2436,-154.181 88.084,-151.176 94.1519,-159.861 98.2436,-154.181"/>
</g>
<!-- 12 -->
<g id="node8" class="node"><title>12</title>
<ellipse fill="none" stroke="black" cx="147.016" cy="-72.3848" rx="18.2703" ry="18.2703"/>
<text text-anchor="middle" x="147.016" y="-70.1848" font-family="Times New Roman,serif" font-size="9.00">12</text>
</g>
<!-- 2&#45;&gt;12 -->
<g id="edge7" class="edge"><title>2&#45;&gt;12</title>
<path fill="none" stroke="green" d="M162.063,-201.725C159.788,-182.322 153.955,-132.572 150.256,-101.02"/>
<polygon fill="green" stroke="green" points="153.687,-100.223 149.046,-90.6988 146.734,-101.038 153.687,-100.223"/>
</g>
<!-- 3 -->
<g id="node3" class="node"><title>3</title>
<polygon fill="lightgray" stroke="black" points="40.516,-219.853 19.516,-219.853 19.516,-201.853 40.516,-201.853 40.516,-219.853"/>
<text text-anchor="middle" x="30.016" y="-208.653" font-family="Times New Roman,serif" font-size="9.00">3</text>
</g>
<!-- 5 -->
<g id="node5" class="node"><title>5</title>
<polygon fill="lightblue" stroke="black" points="63.516,-18 42.516,-18 42.516,-0 63.516,-0 63.516,-18"/>
<text text-anchor="middle" x="53.016" y="-6.8" font-family="Times New Roman,serif" font-size="9.00">5</text>
</g>
<!-- 3&#45;&gt;5 -->
<g id="edge1" class="edge"><title>3&#45;&gt;5</title>
<path fill="none" stroke="green" d="M30.9461,-201.771C34.3334,-172.338 46.0641,-70.4067 50.9033,-28.3578"/>
<polygon fill="green" stroke="green" points="54.3825,-28.7388 52.0488,-18.4042 47.4284,-27.9384 54.3825,-28.7388"/>
</g>
<!-- 3&#45;&gt;7 -->
<g id="edge11" class="edge"><title>3&#45;&gt;7</title>
<path fill="none" stroke="red" d="M35.6565,-201.609C42.206,-192.036 53.2455,-175.9 62.1248,-162.922"/>
<polygon fill="red" stroke="red" points="65.0871,-164.791 67.8452,-154.561 59.3098,-160.838 65.0871,-164.791"/>
</g>
<!-- 4 -->
<g id="node4" class="node"><title>4</title>
<polygon fill="lightgray" stroke="black" points="63.516,-283.238 42.516,-283.238 42.516,-265.238 63.516,-265.238 63.516,-283.238"/>
<text text-anchor="middle" x="53.016" y="-272.038" font-family="Times New Roman,serif" font-size="9.00">4</text>
</g>
<!-- 4&#45;&gt;5 -->
<g id="edge2" class="edge"><title>4&#45;&gt;5</title>
<path fill="none" stroke="green" d="M42.1312,-265.992C31.6497,-258.295 16.4651,-245.064 10.016,-229.238 -19.0168,-157.991 22.7545,-65.5343 43.0397,-27.5068"/>
<polygon fill="green" stroke="green" points="46.3585,-28.7356 48.1147,-18.2873 40.2262,-25.3599 46.3585,-28.7356"/>
</g>
<!-- 11 -->
<g id="node6" class="node"><title>11</title>
<ellipse fill="none" stroke="black" cx="116.016" cy="-210.853" rx="18.2703" ry="18.2703"/>
<text text-anchor="middle" x="116.016" y="-208.653" font-family="Times New Roman,serif" font-size="9.00">11</text>
</g>
<!-- 4&#45;&gt;11 -->
<g id="edge5" class="edge"><title>4&#45;&gt;11</title>
<path fill="none" stroke="green" d="M61.2522,-265.213C70.0074,-256.682 84.1802,-242.872 95.914,-231.439"/>
<polygon fill="green" stroke="green" points="98.4713,-233.834 103.191,-224.349 93.5862,-228.821 98.4713,-233.834"/>
</g>
<!-- 11&#45;&gt;7 -->
<g id="edge6" class="edge"><title>11&#45;&gt;7</title>
<path fill="none" stroke="red" d="M106.939,-194.596C101.433,-185.341 94.3338,-173.408 88.3263,-163.311"/>
<polygon fill="red" stroke="red" points="91.3141,-161.487 83.1932,-154.683 85.2982,-165.066 91.3141,-161.487"/>
</g>
<!-- 13 -->
<g id="node9" class="node"><title>13</title>
<ellipse fill="none" stroke="black" cx="76.016" cy="-72.3848" rx="18.2703" ry="18.2703"/>
<text text-anchor="middle" x="76.016" y="-70.1848" font-family="Times New Roman,serif" font-size="9.00">13</text>
</g>
<!-- 7&#45;&gt;13 -->
<g id="edge9" class="edge"><title>7&#45;&gt;13</title>
<path fill="none" stroke="red" d="M76.016,-126.688C76.016,-119.359 76.016,-110.104 76.016,-101.37"/>
<polygon fill="red" stroke="red" points="79.5161,-101.14 76.016,-91.1404 72.5161,-101.14 79.5161,-101.14"/>
</g>
<!-- 12&#45;&gt;5 -->
<g id="edge8" class="edge"><title>12&#45;&gt;5</title>
<path fill="none" stroke="red" d="M131.913,-61.5223C115.65,-50.9017 89.7385,-33.9809 72.082,-22.4506"/>
<polygon fill="red" stroke="red" points="73.9826,-19.5116 63.6961,-16.9744 70.1552,-25.3726 73.9826,-19.5116"/>
</g>
<!-- 13&#45;&gt;5 -->
<g id="edge10" class="edge"><title>13&#45;&gt;5</title>
<path fill="none" stroke="red" d="M69.8524,-54.9348C66.6739,-46.4515 62.7964,-36.103 59.5641,-27.4763"/>
<polygon fill="red" stroke="red" points="62.8179,-26.1848 56.0317,-18.0486 56.263,-28.641 62.8179,-26.1848"/>
</g>
</g>
</svg>
