<?xml version="1.0" encoding="UTF-8" standalone="no"?>
<!DOCTYPE svg PUBLIC "-//W3C//DTD SVG 1.1//EN"
 "http://www.w3.org/Graphics/SVG/1.1/DTD/svg11.dtd">
<!-- Generated by graphviz version 2.38.0 (20140413.2041)
 -->
<!-- Title: %3 Pages: 1 -->
<svg width="1730pt" height="1194pt"
 viewBox="0.00 0.00 1730.00 1194.17" xmlns="http://www.w3.org/2000/svg" xmlns:xlink="http://www.w3.org/1999/xlink">
<g id="graph0" class="graph" transform="scale(1 1) rotate(0) translate(4 1190.17)">
<title>%3</title>
<polygon fill="white" stroke="none" points="-4,4 -4,-1190.17 1726,-1190.17 1726,4 -4,4"/>
<!-- 1 -->
<g id="node1" class="node"><title>1</title>
<polygon fill="lightgray" stroke="black" points="376.5,-1186.17 355.5,-1186.17 355.5,-1168.17 376.5,-1168.17 376.5,-1186.17"/>
<text text-anchor="middle" x="366" y="-1174.97" font-family="Times New Roman,serif" font-size="9.00">1</text>
</g>
<!-- 119 -->
<g id="node6" class="node"><title>119</title>
<ellipse fill="none" stroke="black" cx="470" cy="-1110.96" rx="21.4286" ry="21.4286"/>
<text text-anchor="middle" x="470" y="-1108.76" font-family="Times New Roman,serif" font-size="9.00">119</text>
</g>
<!-- 1&#45;&gt;119 -->
<g id="edge103" class="edge"><title>1&#45;&gt;119</title>
<path fill="none" stroke="red" d="M376.957,-1169.73C391.302,-1161.26 417.186,-1145.85 439,-1132.17 440.674,-1131.12 442.393,-1130.03 444.122,-1128.93"/>
<polygon fill="red" stroke="red" points="446.186,-1131.76 452.69,-1123.4 442.39,-1125.88 446.186,-1131.76"/>
</g>
<!-- 74 -->
<g id="node7" class="node"><title>74</title>
<ellipse fill="none" stroke="black" cx="412" cy="-1110.96" rx="18.2703" ry="18.2703"/>
<text text-anchor="middle" x="412" y="-1108.76" font-family="Times New Roman,serif" font-size="9.00">74</text>
</g>
<!-- 1&#45;&gt;74 -->
<g id="edge46" class="edge"><title>1&#45;&gt;74</title>
<path fill="none" stroke="red" d="M371.826,-1168.04C377.76,-1159.76 387.236,-1146.53 395.496,-1135"/>
<polygon fill="red" stroke="red" points="398.517,-1136.79 401.495,-1126.62 392.826,-1132.71 398.517,-1136.79"/>
</g>
<!-- 69 -->
<g id="node15" class="node"><title>69</title>
<ellipse fill="none" stroke="black" cx="185" cy="-811.394" rx="18.2703" ry="18.2703"/>
<text text-anchor="middle" x="185" y="-809.194" font-family="Times New Roman,serif" font-size="9.00">69</text>
</g>
<!-- 1&#45;&gt;69 -->
<g id="edge62" class="edge"><title>1&#45;&gt;69</title>
<path fill="none" stroke="red" d="M355.401,-1173.21C337.283,-1167.7 299.992,-1154.39 276,-1132.17 238.684,-1097.62 218,-1084.39 218,-1033.53 218,-1033.53 218,-1033.53 218,-955.933 218,-914.03 204.477,-866.956 194.745,-838.501"/>
<polygon fill="red" stroke="red" points="197.988,-837.173 191.363,-828.905 191.386,-839.5 197.988,-837.173"/>
</g>
<!-- 94 -->
<g id="node22" class="node"><title>94</title>
<ellipse fill="none" stroke="black" cx="354" cy="-738.624" rx="18.2703" ry="18.2703"/>
<text text-anchor="middle" x="354" y="-736.424" font-family="Times New Roman,serif" font-size="9.00">94</text>
</g>
<!-- 1&#45;&gt;94 -->
<g id="edge87" class="edge"><title>1&#45;&gt;94</title>
<path fill="none" stroke="red" d="M357.867,-1167.99C338.261,-1147.36 290,-1090.77 290,-1033.53 290,-1033.53 290,-1033.53 290,-955.933 290,-884.088 322.866,-804.131 341.494,-764.583"/>
<polygon fill="red" stroke="red" points="344.716,-765.958 345.894,-755.429 338.407,-762.926 344.716,-765.958"/>
</g>
<!-- 63 -->
<g id="node24" class="node"><title>63</title>
<ellipse fill="none" stroke="black" cx="122" cy="-593.085" rx="18.2703" ry="18.2703"/>
<text text-anchor="middle" x="122" y="-590.885" font-family="Times New Roman,serif" font-size="9.00">63</text>
</g>
<!-- 1&#45;&gt;63 -->
<g id="edge42" class="edge"><title>1&#45;&gt;63</title>
<path fill="none" stroke="green" d="M355.441,-1174.48C295.432,-1164.6 0,-1111.96 0,-1033.53 0,-1033.53 0,-1033.53 0,-737.624 0,-678.18 61.4987,-630.79 97.169,-608.302"/>
<polygon fill="green" stroke="green" points="99.3397,-611.077 106.051,-602.879 95.6918,-605.103 99.3397,-611.077"/>
</g>
<!-- 19 -->
<g id="node28" class="node"><title>19</title>
<ellipse fill="none" stroke="black" cx="617" cy="-593.085" rx="18.2703" ry="18.2703"/>
<text text-anchor="middle" x="617" y="-590.885" font-family="Times New Roman,serif" font-size="9.00">19</text>
</g>
<!-- 1&#45;&gt;19 -->
<g id="edge28" class="edge"><title>1&#45;&gt;19</title>
<path fill="none" stroke="green" d="M366,-1168.13C366,-1146.42 366,-1084.79 366,-1033.53 366,-1033.53 366,-1033.53 366,-883.164 366,-813.495 534.322,-664.073 595.286,-612.238"/>
<polygon fill="green" stroke="green" points="597.772,-614.72 603.148,-605.591 593.252,-609.375 597.772,-614.72"/>
</g>
<!-- 7 -->
<g id="node40" class="node"><title>7</title>
<ellipse fill="none" stroke="black" cx="1386" cy="-447.546" rx="14.7" ry="14.7"/>
<text text-anchor="middle" x="1386" y="-445.346" font-family="Times New Roman,serif" font-size="9.00">7</text>
</g>
<!-- 1&#45;&gt;7 -->
<g id="edge3" class="edge"><title>1&#45;&gt;7</title>
<path fill="none" stroke="red" d="M376.681,-1176.15C499.807,-1175.81 1646,-1168.95 1646,-1033.53 1646,-1033.53 1646,-1033.53 1646,-592.085 1646,-544.916 1627.96,-529.928 1590,-501.931 1535.21,-461.525 1452.38,-451.652 1411.16,-449.274"/>
<polygon fill="red" stroke="red" points="1411.07,-445.766 1400.92,-448.791 1410.74,-452.759 1411.07,-445.766"/>
</g>
<!-- 2 -->
<g id="node2" class="node"><title>2</title>
<polygon fill="lightgray" stroke="black" points="280.5,-820.394 259.5,-820.394 259.5,-802.394 280.5,-802.394 280.5,-820.394"/>
<text text-anchor="middle" x="270" y="-809.194" font-family="Times New Roman,serif" font-size="9.00">2</text>
</g>
<!-- 5 -->
<g id="node5" class="node"><title>5</title>
<polygon fill="lightblue" stroke="black" points="1062.5,-18 1041.5,-18 1041.5,-0 1062.5,-0 1062.5,-18"/>
<text text-anchor="middle" x="1052" y="-6.8" font-family="Times New Roman,serif" font-size="9.00">5</text>
</g>
<!-- 2&#45;&gt;5 -->
<g id="edge10" class="edge"><title>2&#45;&gt;5</title>
<path fill="none" stroke="green" d="M259.429,-806.659C214.043,-789.882 38,-716.889 38,-594.085 38,-594.085 38,-594.085 38,-144.154 38,-40.2021 886.357,-14.177 1031.12,-10.4929"/>
<polygon fill="green" stroke="green" points="1031.39,-13.9874 1041.3,-10.2416 1031.22,-6.9895 1031.39,-13.9874"/>
</g>
<!-- 84 -->
<g id="node10" class="node"><title>84</title>
<ellipse fill="none" stroke="black" cx="244" cy="-738.624" rx="18.2703" ry="18.2703"/>
<text text-anchor="middle" x="244" y="-736.424" font-family="Times New Roman,serif" font-size="9.00">84</text>
</g>
<!-- 2&#45;&gt;84 -->
<g id="edge100" class="edge"><title>2&#45;&gt;84</title>
<path fill="none" stroke="red" d="M267.017,-802.276C263.744,-793.365 258.319,-778.6 253.558,-765.642"/>
<polygon fill="red" stroke="red" points="256.828,-764.391 250.094,-756.211 250.257,-766.805 256.828,-764.391"/>
</g>
<!-- 35 -->
<g id="node11" class="node"><title>35</title>
<ellipse fill="none" stroke="black" cx="299" cy="-738.624" rx="18.2703" ry="18.2703"/>
<text text-anchor="middle" x="299" y="-736.424" font-family="Times New Roman,serif" font-size="9.00">35</text>
</g>
<!-- 2&#45;&gt;35 -->
<g id="edge12" class="edge"><title>2&#45;&gt;35</title>
<path fill="none" stroke="green" d="M273.327,-802.276C277.002,-793.307 283.107,-778.408 288.442,-765.389"/>
<polygon fill="green" stroke="green" points="291.765,-766.51 292.318,-755.93 285.288,-763.856 291.765,-766.51"/>
</g>
<!-- 54 -->
<g id="node21" class="node"><title>54</title>
<ellipse fill="none" stroke="black" cx="846" cy="-593.085" rx="18.2703" ry="18.2703"/>
<text text-anchor="middle" x="846" y="-590.885" font-family="Times New Roman,serif" font-size="9.00">54</text>
</g>
<!-- 2&#45;&gt;54 -->
<g id="edge67" class="edge"><title>2&#45;&gt;54</title>
<path fill="none" stroke="green" d="M280.755,-810.174C340.844,-808.786 635.12,-799.864 713,-757.009 771.144,-725.014 813.768,-656.324 833.601,-619.173"/>
<polygon fill="green" stroke="green" points="836.854,-620.504 838.366,-610.018 830.645,-617.272 836.854,-620.504"/>
</g>
<!-- 2&#45;&gt;94 -->
<g id="edge78" class="edge"><title>2&#45;&gt;94</title>
<path fill="none" stroke="green" d="M279.636,-802.276C292.45,-791.48 315.461,-772.093 332.504,-757.735"/>
<polygon fill="green" stroke="green" points="334.927,-760.27 340.32,-751.15 330.417,-754.916 334.927,-760.27"/>
</g>
<!-- 30 -->
<g id="node34" class="node"><title>30</title>
<ellipse fill="none" stroke="black" cx="316" cy="-447.546" rx="18.2703" ry="18.2703"/>
<text text-anchor="middle" x="316" y="-445.346" font-family="Times New Roman,serif" font-size="9.00">30</text>
</g>
<!-- 2&#45;&gt;30 -->
<g id="edge14" class="edge"><title>2&#45;&gt;30</title>
<path fill="none" stroke="red" d="M259.39,-803.631C246.542,-794.738 225.559,-777.778 217,-757.009 198.451,-711.997 205.859,-694.862 217,-647.47 233.046,-579.216 276.211,-507.606 299.899,-471.812"/>
<polygon fill="red" stroke="red" points="303.079,-473.355 305.749,-463.102 297.268,-469.452 303.079,-473.355"/>
</g>
<!-- 50 -->
<g id="node36" class="node"><title>50</title>
<ellipse fill="none" stroke="black" cx="1272" cy="-447.546" rx="18.2703" ry="18.2703"/>
<text text-anchor="middle" x="1272" y="-445.346" font-family="Times New Roman,serif" font-size="9.00">50</text>
</g>
<!-- 2&#45;&gt;50 -->
<g id="edge48" class="edge"><title>2&#45;&gt;50</title>
<path fill="none" stroke="red" d="M280.65,-810.338C365.998,-809.8 939.717,-804.435 1105,-757.009 1186.08,-733.746 1272,-751.202 1272,-666.855 1272,-666.855 1272,-666.855 1272,-592.085 1272,-551.869 1272,-505.314 1272,-476.395"/>
<polygon fill="red" stroke="red" points="1275.5,-476.224 1272,-466.224 1268.5,-476.225 1275.5,-476.224"/>
</g>
<!-- 2&#45;&gt;7 -->
<g id="edge4" class="edge"><title>2&#45;&gt;7</title>
<path fill="none" stroke="red" d="M280.719,-810.016C377.44,-806.573 1098.27,-780.242 1191,-757.009 1283.62,-733.805 1386,-762.336 1386,-666.855 1386,-666.855 1386,-666.855 1386,-592.085 1386,-550.066 1386,-501.127 1386,-472.614"/>
<polygon fill="red" stroke="red" points="1389.5,-472.403 1386,-462.403 1382.5,-472.403 1389.5,-472.403"/>
</g>
<!-- 3 -->
<g id="node3" class="node"><title>3</title>
<polygon fill="lightgray" stroke="black" points="1453.5,-820.394 1432.5,-820.394 1432.5,-802.394 1453.5,-802.394 1453.5,-820.394"/>
<text text-anchor="middle" x="1443" y="-809.194" font-family="Times New Roman,serif" font-size="9.00">3</text>
</g>
<!-- 3&#45;&gt;5 -->
<g id="edge1" class="edge"><title>3&#45;&gt;5</title>
<path fill="none" stroke="green" d="M1453.67,-806.896C1500.31,-790.863 1684,-719.741 1684,-594.085 1684,-594.085 1684,-594.085 1684,-144.154 1684,-16.1858 1181.92,-9.75982 1072.78,-9.87471"/>
<polygon fill="green" stroke="green" points="1072.69,-6.37486 1062.7,-9.90639 1072.72,-13.3748 1072.69,-6.37486"/>
</g>
<!-- 46 -->
<g id="node13" class="node"><title>46</title>
<ellipse fill="none" stroke="black" cx="686" cy="-738.624" rx="18.2703" ry="18.2703"/>
<text text-anchor="middle" x="686" y="-736.424" font-family="Times New Roman,serif" font-size="9.00">46</text>
</g>
<!-- 3&#45;&gt;46 -->
<g id="edge22" class="edge"><title>3&#45;&gt;46</title>
<path fill="none" stroke="red" d="M1432.3,-809.394C1351.8,-801.868 840.914,-754.107 714.341,-742.274"/>
<polygon fill="red" stroke="red" points="714.556,-738.779 704.273,-741.333 713.904,-745.748 714.556,-738.779"/>
</g>
<!-- 83 -->
<g id="node16" class="node"><title>83</title>
<ellipse fill="none" stroke="black" cx="1508" cy="-738.624" rx="18.2703" ry="18.2703"/>
<text text-anchor="middle" x="1508" y="-736.424" font-family="Times New Roman,serif" font-size="9.00">83</text>
</g>
<!-- 3&#45;&gt;83 -->
<g id="edge76" class="edge"><title>3&#45;&gt;83</title>
<path fill="none" stroke="green" d="M1450.46,-802.276C1459.77,-792.139 1476.03,-774.427 1488.9,-760.416"/>
<polygon fill="green" stroke="green" points="1491.82,-762.412 1496.01,-752.679 1486.67,-757.677 1491.82,-762.412"/>
</g>
<!-- 29 -->
<g id="node25" class="node"><title>29</title>
<ellipse fill="none" stroke="black" cx="523" cy="-593.085" rx="18.2703" ry="18.2703"/>
<text text-anchor="middle" x="523" y="-590.885" font-family="Times New Roman,serif" font-size="9.00">29</text>
</g>
<!-- 3&#45;&gt;29 -->
<g id="edge33" class="edge"><title>3&#45;&gt;29</title>
<path fill="none" stroke="red" d="M1432.49,-810.068C1344.66,-807.294 734.241,-787.015 659,-757.009 611.859,-738.21 603.091,-723.557 571,-684.24 554.959,-664.587 541.857,-638.745 533.418,-619.768"/>
<polygon fill="red" stroke="red" points="536.612,-618.337 529.439,-610.539 530.184,-621.108 536.612,-618.337"/>
</g>
<!-- 36 -->
<g id="node26" class="node"><title>36</title>
<ellipse fill="none" stroke="black" cx="1489" cy="-665.855" rx="18.2703" ry="18.2703"/>
<text text-anchor="middle" x="1489" y="-663.655" font-family="Times New Roman,serif" font-size="9.00">36</text>
</g>
<!-- 3&#45;&gt;36 -->
<g id="edge15" class="edge"><title>3&#45;&gt;36</title>
<path fill="none" stroke="green" d="M1445.6,-802.265C1452.22,-781.627 1469.89,-726.488 1480.53,-693.281"/>
<polygon fill="green" stroke="green" points="1483.87,-694.334 1483.59,-683.743 1477.2,-692.198 1483.87,-694.334"/>
</g>
<!-- 3&#45;&gt;7 -->
<g id="edge8" class="edge"><title>3&#45;&gt;7</title>
<path fill="none" stroke="red" d="M1441.18,-802.35C1436.42,-780.624 1424,-718.889 1424,-666.855 1424,-666.855 1424,-666.855 1424,-592.085 1424,-547.969 1407.02,-498.689 1395.76,-470.865"/>
<polygon fill="red" stroke="red" points="1398.85,-469.189 1391.77,-461.307 1392.39,-471.884 1398.85,-469.189"/>
</g>
<!-- 4 -->
<g id="node4" class="node"><title>4</title>
<polygon fill="lightgray" stroke="black" points="1096.5,-747.624 1075.5,-747.624 1075.5,-729.624 1096.5,-729.624 1096.5,-747.624"/>
<text text-anchor="middle" x="1086" y="-736.424" font-family="Times New Roman,serif" font-size="9.00">4</text>
</g>
<!-- 4&#45;&gt;5 -->
<g id="edge2" class="edge"><title>4&#45;&gt;5</title>
<path fill="none" stroke="green" d="M1092.88,-729.358C1095.38,-726.429 1098.27,-723.141 1101,-720.24 1149.12,-669.147 1196,-664.274 1196,-594.085 1196,-594.085 1196,-594.085 1196,-144.154 1196,-77.3464 1112,-34.3315 1072.31,-17.7372"/>
<polygon fill="green" stroke="green" points="1073.41,-14.4063 1062.82,-13.9234 1070.8,-20.9011 1073.41,-14.4063"/>
</g>
<!-- 47 -->
<g id="node14" class="node"><title>47</title>
<ellipse fill="none" stroke="black" cx="1036" cy="-665.855" rx="18.2703" ry="18.2703"/>
<text text-anchor="middle" x="1036" y="-663.655" font-family="Times New Roman,serif" font-size="9.00">47</text>
</g>
<!-- 4&#45;&gt;47 -->
<g id="edge57" class="edge"><title>4&#45;&gt;47</title>
<path fill="none" stroke="red" d="M1080.26,-729.506C1073.45,-719.857 1061.78,-703.343 1052.13,-689.691"/>
<polygon fill="red" stroke="red" points="1054.79,-687.382 1046.16,-681.235 1049.07,-691.422 1054.79,-687.382"/>
</g>
<!-- 11 -->
<g id="node27" class="node"><title>11</title>
<ellipse fill="none" stroke="black" cx="960" cy="-520.316" rx="18.2703" ry="18.2703"/>
<text text-anchor="middle" x="960" y="-518.116" font-family="Times New Roman,serif" font-size="9.00">11</text>
</g>
<!-- 4&#45;&gt;11 -->
<g id="edge26" class="edge"><title>4&#45;&gt;11</title>
<path fill="none" stroke="red" d="M1075.4,-733.022C1058.85,-725.307 1026.91,-708.219 1009,-684.24 978.535,-643.456 966.881,-583.742 962.518,-549.072"/>
<polygon fill="red" stroke="red" points="965.952,-548.291 961.343,-538.751 958.997,-549.083 965.952,-548.291"/>
</g>
<!-- 4&#45;&gt;7 -->
<g id="edge9" class="edge"><title>4&#45;&gt;7</title>
<path fill="none" stroke="red" d="M1096.6,-735.072C1119.31,-729.199 1173.57,-712.984 1210,-684.24 1289.19,-621.765 1350.95,-515.398 1375.04,-470.052"/>
<polygon fill="red" stroke="red" points="1378.19,-471.581 1379.72,-461.098 1371.98,-468.335 1378.19,-471.581"/>
</g>
<!-- 8 -->
<g id="node42" class="node"><title>8</title>
<ellipse fill="none" stroke="black" cx="1153" cy="-371.948" rx="14.7" ry="14.7"/>
<text text-anchor="middle" x="1153" y="-369.748" font-family="Times New Roman,serif" font-size="9.00">8</text>
</g>
<!-- 4&#45;&gt;8 -->
<g id="edge79" class="edge"><title>4&#45;&gt;8</title>
<path fill="none" stroke="red" d="M1092.42,-729.49C1099.94,-719.473 1112.12,-701.642 1118,-684.24 1152.63,-581.789 1154.58,-450.673 1153.72,-397.242"/>
<polygon fill="red" stroke="red" points="1157.22,-396.981 1153.51,-387.057 1150.22,-397.129 1157.22,-396.981"/>
</g>
<!-- 22 -->
<g id="node46" class="node"><title>22</title>
<ellipse fill="none" stroke="black" cx="930" cy="-72.3848" rx="18.2703" ry="18.2703"/>
<text text-anchor="middle" x="930" y="-70.1848" font-family="Times New Roman,serif" font-size="9.00">22</text>
</g>
<!-- 4&#45;&gt;22 -->
<g id="edge56" class="edge"><title>4&#45;&gt;22</title>
<path fill="none" stroke="red" d="M1075.41,-734.909C1054.86,-729.106 1009.36,-713.573 984,-684.24 939.176,-632.388 944.714,-606.233 933,-538.701 904.568,-374.787 919.937,-173.487 927.036,-101.013"/>
<polygon fill="red" stroke="red" points="930.536,-101.193 928.057,-90.8921 923.571,-100.49 930.536,-101.193"/>
</g>
<!-- 101 -->
<g id="node8" class="node"><title>101</title>
<ellipse fill="none" stroke="black" cx="470" cy="-1032.53" rx="21.4286" ry="21.4286"/>
<text text-anchor="middle" x="470" y="-1030.33" font-family="Times New Roman,serif" font-size="9.00">101</text>
</g>
<!-- 119&#45;&gt;101 -->
<g id="edge104" class="edge"><title>119&#45;&gt;101</title>
<path fill="none" stroke="green" d="M470,-1089.48C470,-1081.62 470,-1072.47 470,-1063.88"/>
<polygon fill="green" stroke="green" points="473.5,-1063.8 470,-1053.8 466.5,-1063.8 473.5,-1063.8"/>
</g>
<!-- 74&#45;&gt;101 -->
<g id="edge68" class="edge"><title>74&#45;&gt;101</title>
<path fill="none" stroke="green" d="M422.638,-1095.94C430.663,-1085.37 441.874,-1070.59 451.374,-1058.07"/>
<polygon fill="green" stroke="green" points="454.36,-1059.93 457.618,-1049.85 448.784,-1055.7 454.36,-1059.93"/>
</g>
<!-- 64 -->
<g id="node9" class="node"><title>64</title>
<ellipse fill="none" stroke="black" cx="446" cy="-956.933" rx="18.2703" ry="18.2703"/>
<text text-anchor="middle" x="446" y="-954.733" font-family="Times New Roman,serif" font-size="9.00">64</text>
</g>
<!-- 74&#45;&gt;64 -->
<g id="edge47" class="edge"><title>74&#45;&gt;64</title>
<path fill="none" stroke="red" d="M415.834,-1092.81C421.701,-1066.58 432.958,-1016.25 439.938,-985.037"/>
<polygon fill="red" stroke="red" points="443.361,-985.77 442.128,-975.247 436.529,-984.242 443.361,-985.77"/>
</g>
<!-- 74&#45;&gt;30 -->
<g id="edge71" class="edge"><title>74&#45;&gt;30</title>
<path fill="none" stroke="green" d="M400.22,-1096.44C362.256,-1051.88 243.254,-903.993 203,-757.009 172.391,-645.244 188.679,-595.529 257,-501.931 267.093,-488.104 281.239,-475.155 293.15,-465.473"/>
<polygon fill="green" stroke="green" points="295.64,-467.967 301.338,-459.034 291.314,-462.464 295.64,-467.967"/>
</g>
<!-- 101&#45;&gt;64 -->
<g id="edge69" class="edge"><title>101&#45;&gt;64</title>
<path fill="none" stroke="green" d="M463.694,-1012.19C460.95,-1003.78 457.688,-993.774 454.716,-984.663"/>
<polygon fill="green" stroke="green" points="457.957,-983.309 451.529,-974.887 451.301,-985.48 457.957,-983.309"/>
</g>
<!-- 101&#45;&gt;11 -->
<g id="edge81" class="edge"><title>101&#45;&gt;11</title>
<path fill="none" stroke="green" d="M491.325,-1030.68C569.736,-1026.23 842.02,-998.674 929,-829.779 954.035,-781.166 958.858,-615.4 959.783,-549.075"/>
<polygon fill="green" stroke="green" points="963.284,-549.002 959.904,-538.96 956.284,-548.918 963.284,-549.002"/>
</g>
<!-- 13 -->
<g id="node45" class="node"><title>13</title>
<ellipse fill="none" stroke="black" cx="1359" cy="-293.522" rx="18.2703" ry="18.2703"/>
<text text-anchor="middle" x="1359" y="-291.322" font-family="Times New Roman,serif" font-size="9.00">13</text>
</g>
<!-- 101&#45;&gt;13 -->
<g id="edge84" class="edge"><title>101&#45;&gt;13</title>
<path fill="none" stroke="green" d="M491.205,-1031.36C655.728,-1029.76 1722,-1014.42 1722,-885.164 1722,-885.164 1722,-885.164 1722,-519.316 1722,-362.216 1473.21,-311.166 1387.56,-298.246"/>
<polygon fill="green" stroke="green" points="1387.9,-294.758 1377.5,-296.792 1386.9,-301.686 1387.9,-294.758"/>
</g>
<!-- 49 -->
<g id="node12" class="node"><title>49</title>
<ellipse fill="none" stroke="black" cx="819" cy="-884.164" rx="18.2703" ry="18.2703"/>
<text text-anchor="middle" x="819" y="-881.964" font-family="Times New Roman,serif" font-size="9.00">49</text>
</g>
<!-- 64&#45;&gt;49 -->
<g id="edge43" class="edge"><title>64&#45;&gt;49</title>
<path fill="none" stroke="red" d="M463.991,-952.52C524.049,-941.125 717.948,-904.336 790.898,-890.495"/>
<polygon fill="red" stroke="red" points="791.581,-893.928 800.753,-888.626 790.276,-887.051 791.581,-893.928"/>
</g>
<!-- 12 -->
<g id="node41" class="node"><title>12</title>
<ellipse fill="none" stroke="black" cx="443" cy="-145.154" rx="18.2703" ry="18.2703"/>
<text text-anchor="middle" x="443" y="-142.954" font-family="Times New Roman,serif" font-size="9.00">12</text>
</g>
<!-- 64&#45;&gt;12 -->
<g id="edge61" class="edge"><title>64&#45;&gt;12</title>
<path fill="none" stroke="red" d="M438.1,-940.019C425.934,-913.999 404,-860.429 404,-812.394 404,-812.394 404,-812.394 404,-446.546 404,-368.892 406.251,-349.215 417,-272.309 421.821,-237.815 430.4,-198.597 436.379,-173.171"/>
<polygon fill="red" stroke="red" points="439.848,-173.712 438.764,-163.173 433.039,-172.088 439.848,-173.712"/>
</g>
<!-- 43 -->
<g id="node20" class="node"><title>43</title>
<ellipse fill="none" stroke="black" cx="244" cy="-665.855" rx="18.2703" ry="18.2703"/>
<text text-anchor="middle" x="244" y="-663.655" font-family="Times New Roman,serif" font-size="9.00">43</text>
</g>
<!-- 84&#45;&gt;43 -->
<g id="edge101" class="edge"><title>84&#45;&gt;43</title>
<path fill="none" stroke="green" d="M244,-720.131C244,-712.449 244,-703.239 244,-694.655"/>
<polygon fill="green" stroke="green" points="247.5,-694.639 244,-684.639 240.5,-694.639 247.5,-694.639"/>
</g>
<!-- 35&#45;&gt;43 -->
<g id="edge21" class="edge"><title>35&#45;&gt;43</title>
<path fill="none" stroke="red" d="M288.134,-723.643C280.45,-713.756 269.991,-700.298 261.184,-688.966"/>
<polygon fill="red" stroke="red" points="263.744,-686.556 254.844,-680.808 258.217,-690.851 263.744,-686.556"/>
</g>
<!-- 35&#45;&gt;29 -->
<g id="edge13" class="edge"><title>35&#45;&gt;29</title>
<path fill="none" stroke="red" d="M314.045,-727.984C352.209,-703.528 453.029,-638.923 499.245,-609.308"/>
<polygon fill="red" stroke="red" points="501.194,-612.216 507.725,-603.873 497.417,-606.322 501.194,-612.216"/>
</g>
<!-- 38 -->
<g id="node37" class="node"><title>38</title>
<ellipse fill="none" stroke="black" cx="358" cy="-371.948" rx="18.2703" ry="18.2703"/>
<text text-anchor="middle" x="358" y="-369.748" font-family="Times New Roman,serif" font-size="9.00">38</text>
</g>
<!-- 35&#45;&gt;38 -->
<g id="edge30" class="edge"><title>35&#45;&gt;38</title>
<path fill="none" stroke="red" d="M306.317,-721.297C316.546,-697.631 334.784,-652.169 343,-611.47 358.17,-536.323 359.256,-445.401 358.686,-400.62"/>
<polygon fill="red" stroke="red" points="362.184,-400.459 358.518,-390.519 355.185,-400.575 362.184,-400.459"/>
</g>
<!-- 35&#45;&gt;12 -->
<g id="edge44" class="edge"><title>35&#45;&gt;12</title>
<path fill="none" stroke="green" d="M295.149,-720.623C287.26,-684.261 270,-596.148 270,-521.316 270,-521.316 270,-521.316 270,-292.522 270,-217.043 367.164,-172.49 415.857,-154.901"/>
<polygon fill="green" stroke="green" points="417.168,-158.151 425.46,-151.556 414.865,-151.541 417.168,-158.151"/>
</g>
<!-- 82 -->
<g id="node17" class="node"><title>82</title>
<ellipse fill="none" stroke="black" cx="884" cy="-811.394" rx="18.2703" ry="18.2703"/>
<text text-anchor="middle" x="884" y="-809.194" font-family="Times New Roman,serif" font-size="9.00">82</text>
</g>
<!-- 49&#45;&gt;82 -->
<g id="edge59" class="edge"><title>49&#45;&gt;82</title>
<path fill="none" stroke="red" d="M831.226,-869.852C840.668,-859.572 853.911,-845.153 864.769,-833.332"/>
<polygon fill="red" stroke="red" points="867.642,-835.378 871.829,-825.646 862.487,-830.643 867.642,-835.378"/>
</g>
<!-- 56 -->
<g id="node18" class="node"><title>56</title>
<ellipse fill="none" stroke="black" cx="903" cy="-738.624" rx="18.2703" ry="18.2703"/>
<text text-anchor="middle" x="903" y="-736.424" font-family="Times New Roman,serif" font-size="9.00">56</text>
</g>
<!-- 49&#45;&gt;56 -->
<g id="edge24" class="edge"><title>49&#45;&gt;56</title>
<path fill="none" stroke="red" d="M836.714,-878.698C858.647,-872.11 895.057,-857.463 911,-829.779 922.234,-810.272 918.39,-784.366 912.825,-765.331"/>
<polygon fill="red" stroke="red" points="916.151,-764.242 909.736,-755.811 909.493,-766.403 916.151,-764.242"/>
</g>
<!-- 49&#45;&gt;54 -->
<g id="edge31" class="edge"><title>49&#45;&gt;54</title>
<path fill="none" stroke="green" d="M820.648,-865.516C825.197,-816.816 837.95,-680.274 843.437,-621.528"/>
<polygon fill="green" stroke="green" points="846.928,-621.785 844.373,-611.502 839.958,-621.134 846.928,-621.785"/>
</g>
<!-- 49&#45;&gt;11 -->
<g id="edge38" class="edge"><title>49&#45;&gt;11</title>
<path fill="none" stroke="green" d="M815.246,-866.027C809.709,-839.208 800,-785.626 800,-739.624 800,-739.624 800,-739.624 800,-664.855 800,-623.906 792.362,-605.8 819,-574.701 847.608,-541.302 899.395,-528.748 931.616,-524.064"/>
<polygon fill="green" stroke="green" points="932.262,-527.509 941.732,-522.758 931.366,-520.567 932.262,-527.509"/>
</g>
<!-- 52 -->
<g id="node39" class="node"><title>52</title>
<ellipse fill="none" stroke="black" cx="488" cy="-217.924" rx="18.2703" ry="18.2703"/>
<text text-anchor="middle" x="488" y="-215.724" font-family="Times New Roman,serif" font-size="9.00">52</text>
</g>
<!-- 49&#45;&gt;52 -->
<g id="edge95" class="edge"><title>49&#45;&gt;52</title>
<path fill="none" stroke="green" d="M802.271,-876.477C763.276,-860.318 664.6,-816.078 598,-757.009 538.906,-704.597 518.704,-687.125 496,-611.47 475.186,-542.115 496,-520.957 496,-448.546 496,-448.546 496,-448.546 496,-370.948 496,-327.637 492.722,-277.48 490.362,-246.99"/>
<polygon fill="green" stroke="green" points="493.825,-246.386 489.542,-236.695 486.848,-246.942 493.825,-246.386"/>
</g>
<!-- 76 -->
<g id="node23" class="node"><title>76</title>
<ellipse fill="none" stroke="black" cx="640" cy="-665.855" rx="18.2703" ry="18.2703"/>
<text text-anchor="middle" x="640" y="-663.655" font-family="Times New Roman,serif" font-size="9.00">76</text>
</g>
<!-- 46&#45;&gt;76 -->
<g id="edge96" class="edge"><title>46&#45;&gt;76</title>
<path fill="none" stroke="green" d="M676.245,-722.616C670.146,-713.233 662.162,-700.951 655.241,-690.303"/>
<polygon fill="green" stroke="green" points="658.126,-688.319 649.741,-681.842 652.257,-692.134 658.126,-688.319"/>
</g>
<!-- 46&#45;&gt;29 -->
<g id="edge23" class="edge"><title>46&#45;&gt;29</title>
<path fill="none" stroke="green" d="M670.948,-727.632C655.818,-717.358 632.07,-700.593 613,-684.24 586.999,-661.943 559.518,-633.628 541.864,-614.737"/>
<polygon fill="green" stroke="green" points="544.299,-612.215 534.933,-607.263 539.166,-616.975 544.299,-612.215"/>
</g>
<!-- 46&#45;&gt;19 -->
<g id="edge45" class="edge"><title>46&#45;&gt;19</title>
<path fill="none" stroke="red" d="M685.097,-720.077C683.508,-701.192 679.118,-670.736 667,-647.47 660.057,-634.14 648.846,-621.725 638.798,-612.227"/>
<polygon fill="red" stroke="red" points="640.862,-609.375 631.092,-605.275 636.172,-614.572 640.862,-609.375"/>
</g>
<!-- 46&#45;&gt;52 -->
<g id="edge93" class="edge"><title>46&#45;&gt;52</title>
<path fill="none" stroke="green" d="M693.148,-721.631C704.155,-695.499 724,-641.776 724,-594.085 724,-594.085 724,-594.085 724,-370.948 724,-273.045 578.688,-235.182 516.112,-223.416"/>
<polygon fill="green" stroke="green" points="516.587,-219.946 506.127,-221.63 515.354,-226.836 516.587,-219.946"/>
</g>
<!-- 47&#45;&gt;5 -->
<g id="edge99" class="edge"><title>47&#45;&gt;5</title>
<path fill="none" stroke="red" d="M1032.02,-647.861C1023.86,-611.512 1006,-523.425 1006,-448.546 1006,-448.546 1006,-448.546 1006,-144.154 1006,-100.008 1028.56,-51.8933 1042.09,-27.024"/>
<polygon fill="red" stroke="red" points="1045.23,-28.5723 1047.08,-18.1396 1039.13,-25.1437 1045.23,-28.5723"/>
</g>
<!-- 47&#45;&gt;29 -->
<g id="edge66" class="edge"><title>47&#45;&gt;29</title>
<path fill="none" stroke="red" d="M1017.6,-663.546C956.412,-659.006 754.373,-642.487 590,-611.47 576.848,-608.988 562.458,-605.376 550.397,-602.086"/>
<polygon fill="red" stroke="red" points="551.06,-598.637 540.487,-599.314 549.175,-605.378 551.06,-598.637"/>
</g>
<!-- 47&#45;&gt;11 -->
<g id="edge58" class="edge"><title>47&#45;&gt;11</title>
<path fill="none" stroke="red" d="M1027.72,-649.22C1014.53,-624.306 988.634,-575.396 972.966,-545.805"/>
<polygon fill="red" stroke="red" points="976.04,-544.131 968.268,-536.931 969.854,-547.406 976.04,-544.131"/>
</g>
<!-- 47&#45;&gt;7 -->
<g id="edge90" class="edge"><title>47&#45;&gt;7</title>
<path fill="none" stroke="red" d="M1051.16,-655.175C1091.05,-629.744 1202.31,-559.061 1296,-501.931 1319.38,-487.675 1346.43,-471.7 1364.72,-460.972"/>
<polygon fill="red" stroke="red" points="1366.56,-463.95 1373.42,-455.877 1363.02,-457.91 1366.56,-463.95"/>
</g>
<!-- 69&#45;&gt;94 -->
<g id="edge64" class="edge"><title>69&#45;&gt;94</title>
<path fill="none" stroke="green" d="M202.381,-805.022C229.456,-796.387 283.053,-778.222 326,-757.009 327.379,-756.328 328.777,-755.599 330.174,-754.838"/>
<polygon fill="green" stroke="green" points="332.331,-757.631 339.193,-749.559 328.795,-751.59 332.331,-757.631"/>
</g>
<!-- 69&#45;&gt;12 -->
<g id="edge92" class="edge"><title>69&#45;&gt;12</title>
<path fill="none" stroke="green" d="M169.844,-800.542C139.894,-779.743 76,-728.185 76,-666.855 76,-666.855 76,-666.855 76,-292.522 76,-219.586 329.242,-166.825 414.999,-151.049"/>
<polygon fill="green" stroke="green" points="415.834,-154.455 425.05,-149.229 414.587,-147.567 415.834,-154.455"/>
</g>
<!-- 83&#45;&gt;36 -->
<g id="edge77" class="edge"><title>83&#45;&gt;36</title>
<path fill="none" stroke="red" d="M1503.4,-720.493C1501.23,-712.409 1498.59,-702.574 1496.17,-693.545"/>
<polygon fill="red" stroke="red" points="1499.53,-692.579 1493.56,-683.828 1492.77,-694.394 1499.53,-692.579"/>
</g>
<!-- 82&#45;&gt;56 -->
<g id="edge60" class="edge"><title>82&#45;&gt;56</title>
<path fill="none" stroke="green" d="M888.599,-793.263C890.77,-785.178 893.41,-775.344 895.834,-766.314"/>
<polygon fill="green" stroke="green" points="899.23,-767.164 898.443,-756.598 892.47,-765.348 899.23,-767.164"/>
</g>
<!-- 59 -->
<g id="node19" class="node"><title>59</title>
<ellipse fill="none" stroke="black" cx="1091" cy="-665.855" rx="18.2703" ry="18.2703"/>
<text text-anchor="middle" x="1091" y="-663.655" font-family="Times New Roman,serif" font-size="9.00">59</text>
</g>
<!-- 56&#45;&gt;59 -->
<g id="edge85" class="edge"><title>56&#45;&gt;59</title>
<path fill="none" stroke="red" d="M920.801,-733.151C950.905,-725.267 1013.43,-707.506 1063,-684.24 1064.39,-683.586 1065.8,-682.879 1067.21,-682.135"/>
<polygon fill="red" stroke="red" points="1069.34,-684.942 1076.25,-676.906 1065.84,-678.882 1069.34,-684.942"/>
</g>
<!-- 56&#45;&gt;54 -->
<g id="edge25" class="edge"><title>56&#45;&gt;54</title>
<path fill="none" stroke="red" d="M896.461,-721.159C886.626,-696.391 867.936,-649.326 856.27,-619.947"/>
<polygon fill="red" stroke="red" points="859.406,-618.361 852.462,-610.359 852.9,-620.945 859.406,-618.361"/>
</g>
<!-- 59&#45;&gt;54 -->
<g id="edge86" class="edge"><title>59&#45;&gt;54</title>
<path fill="none" stroke="red" d="M1076.36,-654.563C1072.18,-651.968 1067.54,-649.379 1063,-647.47 998.362,-620.261 916.813,-604.86 874.462,-598.158"/>
<polygon fill="red" stroke="red" points="874.746,-594.66 864.331,-596.603 873.684,-601.579 874.746,-594.66"/>
</g>
<!-- 58 -->
<g id="node35" class="node"><title>58</title>
<ellipse fill="none" stroke="black" cx="1563" cy="-520.316" rx="18.2703" ry="18.2703"/>
<text text-anchor="middle" x="1563" y="-518.116" font-family="Times New Roman,serif" font-size="9.00">58</text>
</g>
<!-- 59&#45;&gt;58 -->
<g id="edge98" class="edge"><title>59&#45;&gt;58</title>
<path fill="none" stroke="red" d="M1108.96,-661.624C1170.4,-650.188 1377.05,-608.522 1535,-538.701 1536.41,-538.079 1537.83,-537.396 1539.24,-536.672"/>
<polygon fill="red" stroke="red" points="1541.36,-539.494 1548.31,-531.501 1537.89,-533.413 1541.36,-539.494"/>
</g>
<!-- 43&#45;&gt;63 -->
<g id="edge41" class="edge"><title>43&#45;&gt;63</title>
<path fill="none" stroke="red" d="M228.549,-655.892C207.853,-643.887 170.908,-622.456 146.425,-608.254"/>
<polygon fill="red" stroke="red" points="148.118,-605.189 137.711,-603.199 144.605,-611.244 148.118,-605.189"/>
</g>
<!-- 53 -->
<g id="node30" class="node"><title>53</title>
<ellipse fill="none" stroke="black" cx="316" cy="-593.085" rx="18.2703" ry="18.2703"/>
<text text-anchor="middle" x="316" y="-590.885" font-family="Times New Roman,serif" font-size="9.00">53</text>
</g>
<!-- 43&#45;&gt;53 -->
<g id="edge52" class="edge"><title>43&#45;&gt;53</title>
<path fill="none" stroke="red" d="M256.872,-652.203C267.725,-641.535 283.441,-626.088 295.943,-613.8"/>
<polygon fill="red" stroke="red" points="298.561,-616.134 303.239,-606.628 293.654,-611.142 298.561,-616.134"/>
</g>
<!-- 54&#45;&gt;11 -->
<g id="edge32" class="edge"><title>54&#45;&gt;11</title>
<path fill="none" stroke="red" d="M861.375,-582.541C880.498,-570.67 913.364,-550.267 935.86,-536.301"/>
<polygon fill="red" stroke="red" points="937.855,-539.183 944.505,-530.935 934.163,-533.236 937.855,-539.183"/>
</g>
<!-- 94&#45;&gt;19 -->
<g id="edge65" class="edge"><title>94&#45;&gt;19</title>
<path fill="none" stroke="green" d="M370.056,-728.862C414.454,-704.63 539.103,-636.6 592.365,-607.53"/>
<polygon fill="green" stroke="green" points="594.053,-610.597 601.154,-602.734 590.7,-604.452 594.053,-610.597"/>
</g>
<!-- 76&#45;&gt;19 -->
<g id="edge97" class="edge"><title>76&#45;&gt;19</title>
<path fill="none" stroke="green" d="M634.549,-648.084C631.857,-639.799 628.546,-629.611 625.528,-620.326"/>
<polygon fill="green" stroke="green" points="628.831,-619.165 622.412,-610.736 622.174,-621.329 628.831,-619.165"/>
</g>
<!-- 48 -->
<g id="node32" class="node"><title>48</title>
<ellipse fill="none" stroke="black" cx="450" cy="-520.316" rx="18.2703" ry="18.2703"/>
<text text-anchor="middle" x="450" y="-518.116" font-family="Times New Roman,serif" font-size="9.00">48</text>
</g>
<!-- 29&#45;&gt;48 -->
<g id="edge54" class="edge"><title>29&#45;&gt;48</title>
<path fill="none" stroke="green" d="M510.284,-579.758C499.324,-569.133 483.295,-553.594 470.521,-541.209"/>
<polygon fill="green" stroke="green" points="472.678,-538.426 463.061,-533.978 467.805,-543.452 472.678,-538.426"/>
</g>
<!-- 29&#45;&gt;12 -->
<g id="edge37" class="edge"><title>29&#45;&gt;12</title>
<path fill="none" stroke="green" d="M525.226,-574.44C528.44,-547.393 534,-494.034 534,-448.546 534,-448.546 534,-448.546 534,-292.522 534,-250.342 537.661,-235.114 515,-199.539 503.678,-181.766 484.187,-167.857 468.337,-158.699"/>
<polygon fill="green" stroke="green" points="469.967,-155.6 459.515,-153.862 466.601,-161.738 469.967,-155.6"/>
</g>
<!-- 79 -->
<g id="node29" class="node"><title>79</title>
<ellipse fill="none" stroke="black" cx="1508" cy="-593.085" rx="18.2703" ry="18.2703"/>
<text text-anchor="middle" x="1508" y="-590.885" font-family="Times New Roman,serif" font-size="9.00">79</text>
</g>
<!-- 36&#45;&gt;79 -->
<g id="edge50" class="edge"><title>36&#45;&gt;79</title>
<path fill="none" stroke="red" d="M1493.6,-647.724C1495.77,-639.639 1498.41,-629.805 1500.83,-620.775"/>
<polygon fill="red" stroke="red" points="1504.23,-621.624 1503.44,-611.059 1497.47,-619.809 1504.23,-621.624"/>
</g>
<!-- 72 -->
<g id="node33" class="node"><title>72</title>
<ellipse fill="none" stroke="black" cx="1600" cy="-593.085" rx="18.2703" ry="18.2703"/>
<text text-anchor="middle" x="1600" y="-590.885" font-family="Times New Roman,serif" font-size="9.00">72</text>
</g>
<!-- 36&#45;&gt;72 -->
<g id="edge73" class="edge"><title>36&#45;&gt;72</title>
<path fill="none" stroke="red" d="M1504.43,-655.015C1522.99,-643.184 1554.34,-623.196 1576.05,-609.356"/>
<polygon fill="red" stroke="red" points="1578.15,-612.169 1584.7,-603.842 1574.38,-606.267 1578.15,-612.169"/>
</g>
<!-- 36&#45;&gt;30 -->
<g id="edge63" class="edge"><title>36&#45;&gt;30</title>
<path fill="none" stroke="green" d="M1471.83,-659.159C1386.66,-630.911 1012.47,-507.004 987,-501.931 741.705,-453.073 437.56,-448.595 344.418,-448.441"/>
<polygon fill="green" stroke="green" points="344.364,-444.941 334.363,-448.44 344.363,-451.941 344.364,-444.941"/>
</g>
<!-- 36&#45;&gt;58 -->
<g id="edge39" class="edge"><title>36&#45;&gt;58</title>
<path fill="none" stroke="green" d="M1502.38,-652.409C1512.6,-642.259 1526.34,-627.092 1535,-611.47 1545.94,-591.727 1553.22,-567.132 1557.6,-548.62"/>
<polygon fill="green" stroke="green" points="1561.04,-549.292 1559.8,-538.769 1554.21,-547.767 1561.04,-549.292"/>
</g>
<!-- 36&#45;&gt;7 -->
<g id="edge16" class="edge"><title>36&#45;&gt;7</title>
<path fill="none" stroke="green" d="M1486.33,-647.595C1480.97,-616.614 1466.85,-550.295 1438,-501.931 1429.44,-487.586 1416.29,-474.134 1405.36,-464.321"/>
<polygon fill="green" stroke="green" points="1407.4,-461.458 1397.54,-457.572 1402.82,-466.756 1407.4,-461.458"/>
</g>
<!-- 36&#45;&gt;12 -->
<g id="edge34" class="edge"><title>36&#45;&gt;12</title>
<path fill="none" stroke="red" d="M1473.5,-655.114C1398.94,-608.491 1068.85,-404.927 781,-272.309 668.536,-220.494 528.201,-173.473 470.11,-154.742"/>
<polygon fill="red" stroke="red" points="470.837,-151.299 460.246,-151.579 468.7,-157.965 470.837,-151.299"/>
</g>
<!-- 11&#45;&gt;52 -->
<g id="edge102" class="edge"><title>11&#45;&gt;52</title>
<path fill="none" stroke="green" d="M951.224,-504.13C925.05,-460.315 842.804,-332.946 738,-272.309 666.037,-230.672 565.524,-221.385 516.779,-219.399"/>
<polygon fill="green" stroke="green" points="516.753,-215.896 506.643,-219.063 516.521,-222.893 516.753,-215.896"/>
</g>
<!-- 11&#45;&gt;7 -->
<g id="edge27" class="edge"><title>11&#45;&gt;7</title>
<path fill="none" stroke="red" d="M977.43,-514.418C991.521,-510.596 1011.92,-505.375 1030,-501.931 1148.49,-479.36 1180.02,-485.759 1299,-465.931 1320.26,-462.387 1344.28,-457.523 1361.68,-453.84"/>
<polygon fill="red" stroke="red" points="1362.54,-457.237 1371.58,-451.722 1361.07,-450.392 1362.54,-457.237"/>
</g>
<!-- 19&#45;&gt;48 -->
<g id="edge94" class="edge"><title>19&#45;&gt;48</title>
<path fill="none" stroke="red" d="M600.377,-585.041C571.242,-572.695 510.76,-547.064 476.032,-532.347"/>
<polygon fill="red" stroke="red" points="477.129,-529.011 466.556,-528.332 474.398,-535.456 477.129,-529.011"/>
</g>
<!-- 19&#45;&gt;7 -->
<g id="edge29" class="edge"><title>19&#45;&gt;7</title>
<path fill="none" stroke="red" d="M635.178,-589.979C689.081,-583.621 852.658,-563.53 987,-538.701 1129.96,-512.279 1299.42,-470.466 1361.58,-454.771"/>
<polygon fill="red" stroke="red" points="1362.76,-458.084 1371.59,-452.236 1361.04,-451.299 1362.76,-458.084"/>
</g>
<!-- 66 -->
<g id="node31" class="node"><title>66</title>
<ellipse fill="none" stroke="black" cx="1508" cy="-520.316" rx="18.2703" ry="18.2703"/>
<text text-anchor="middle" x="1508" y="-518.116" font-family="Times New Roman,serif" font-size="9.00">66</text>
</g>
<!-- 79&#45;&gt;66 -->
<g id="edge51" class="edge"><title>79&#45;&gt;66</title>
<path fill="none" stroke="red" d="M1508,-574.592C1508,-566.909 1508,-557.7 1508,-549.116"/>
<polygon fill="red" stroke="red" points="1511.5,-549.1 1508,-539.1 1504.5,-549.1 1511.5,-549.1"/>
</g>
<!-- 53&#45;&gt;48 -->
<g id="edge72" class="edge"><title>53&#45;&gt;48</title>
<path fill="none" stroke="red" d="M331.898,-583.689C354.967,-571.506 397.937,-548.812 425.195,-534.416"/>
<polygon fill="red" stroke="red" points="426.915,-537.466 434.123,-529.701 423.646,-531.276 426.915,-537.466"/>
</g>
<!-- 53&#45;&gt;30 -->
<g id="edge53" class="edge"><title>53&#45;&gt;30</title>
<path fill="none" stroke="green" d="M316,-574.485C316,-550.056 316,-505.611 316,-476.586"/>
<polygon fill="green" stroke="green" points="319.5,-476.291 316,-466.291 312.5,-476.291 319.5,-476.291"/>
</g>
<!-- 48&#45;&gt;30 -->
<g id="edge55" class="edge"><title>48&#45;&gt;30</title>
<path fill="none" stroke="red" d="M434.102,-510.92C411.033,-498.736 368.063,-476.042 340.805,-461.646"/>
<polygon fill="red" stroke="red" points="342.354,-458.507 331.877,-456.931 339.085,-464.696 342.354,-458.507"/>
</g>
<!-- 72&#45;&gt;58 -->
<g id="edge74" class="edge"><title>72&#45;&gt;58</title>
<path fill="none" stroke="green" d="M1591.79,-576.379C1587.14,-567.492 1581.23,-556.176 1575.97,-546.117"/>
<polygon fill="green" stroke="green" points="1578.92,-544.218 1571.19,-536.978 1572.72,-547.462 1578.92,-544.218"/>
</g>
<!-- 30&#45;&gt;38 -->
<g id="edge17" class="edge"><title>30&#45;&gt;38</title>
<path fill="none" stroke="green" d="M324.702,-431.297C330.334,-421.429 337.787,-408.368 344.214,-397.106"/>
<polygon fill="green" stroke="green" points="347.392,-398.598 349.309,-388.178 341.312,-395.129 347.392,-398.598"/>
</g>
<!-- 30&#45;&gt;12 -->
<g id="edge11" class="edge"><title>30&#45;&gt;12</title>
<path fill="none" stroke="red" d="M315.243,-428.946C314.254,-385.868 316.973,-273.279 367,-199.539 379.41,-181.246 400.324,-167.236 417.075,-158.167"/>
<polygon fill="red" stroke="red" points="419.06,-161.083 426.361,-153.404 415.865,-154.854 419.06,-161.083"/>
</g>
<!-- 58&#45;&gt;7 -->
<g id="edge40" class="edge"><title>58&#45;&gt;7</title>
<path fill="none" stroke="red" d="M1548.22,-509.329C1544.05,-506.735 1539.43,-504.071 1535,-501.931 1492.5,-481.41 1439.96,-464.395 1409.98,-455.419"/>
<polygon fill="red" stroke="red" points="1410.95,-452.057 1400.37,-452.586 1408.98,-458.771 1410.95,-452.057"/>
</g>
<!-- 58&#45;&gt;13 -->
<g id="edge70" class="edge"><title>58&#45;&gt;13</title>
<path fill="none" stroke="red" d="M1553.27,-504.322C1532.92,-473.581 1483.48,-401.992 1432,-350.735 1416.74,-335.546 1397.35,-320.791 1382.39,-310.211"/>
<polygon fill="red" stroke="red" points="1384.37,-307.323 1374.16,-304.493 1380.37,-313.073 1384.37,-307.323"/>
</g>
<!-- 50&#45;&gt;8 -->
<g id="edge91" class="edge"><title>50&#45;&gt;8</title>
<path fill="none" stroke="green" d="M1256.44,-436.925C1235.31,-423.853 1197.46,-400.446 1173.87,-385.858"/>
<polygon fill="green" stroke="green" points="1175.65,-382.844 1165.31,-380.56 1171.97,-388.797 1175.65,-382.844"/>
</g>
<!-- 118 -->
<g id="node43" class="node"><title>118</title>
<ellipse fill="none" stroke="black" cx="1272" cy="-371.948" rx="21.4286" ry="21.4286"/>
<text text-anchor="middle" x="1272" y="-369.748" font-family="Times New Roman,serif" font-size="9.00">118</text>
</g>
<!-- 50&#45;&gt;118 -->
<g id="edge88" class="edge"><title>50&#45;&gt;118</title>
<path fill="none" stroke="red" d="M1272,-429.105C1272,-421.489 1272,-412.327 1272,-403.634"/>
<polygon fill="red" stroke="red" points="1275.5,-403.397 1272,-393.397 1268.5,-403.398 1275.5,-403.397"/>
</g>
<!-- 50&#45;&gt;13 -->
<g id="edge49" class="edge"><title>50&#45;&gt;13</title>
<path fill="none" stroke="green" d="M1280.82,-431.133C1295.93,-404.727 1326.89,-350.633 1344.98,-319.013"/>
<polygon fill="green" stroke="green" points="1348.23,-320.394 1350.16,-309.976 1342.15,-316.917 1348.23,-320.394"/>
</g>
<!-- 111 -->
<g id="node38" class="node"><title>111</title>
<ellipse fill="none" stroke="black" cx="447" cy="-293.522" rx="21.4286" ry="21.4286"/>
<text text-anchor="middle" x="447" y="-291.322" font-family="Times New Roman,serif" font-size="9.00">111</text>
</g>
<!-- 38&#45;&gt;111 -->
<g id="edge82" class="edge"><title>38&#45;&gt;111</title>
<path fill="none" stroke="red" d="M371.517,-359.341C385.308,-347.498 406.979,-328.889 423.57,-314.641"/>
<polygon fill="red" stroke="red" points="425.944,-317.217 431.25,-308.046 421.383,-311.906 425.944,-317.217"/>
</g>
<!-- 38&#45;&gt;12 -->
<g id="edge18" class="edge"><title>38&#45;&gt;12</title>
<path fill="none" stroke="red" d="M356.925,-353.458C355.707,-321.042 356.725,-250.317 384,-199.539 392.285,-184.115 406.83,-170.877 419.404,-161.442"/>
<polygon fill="red" stroke="red" points="421.579,-164.19 427.693,-155.538 417.518,-158.489 421.579,-164.19"/>
</g>
<!-- 111&#45;&gt;52 -->
<g id="edge83" class="edge"><title>111&#45;&gt;52</title>
<path fill="none" stroke="red" d="M456.925,-274.706C462.151,-265.325 468.639,-253.679 474.333,-243.457"/>
<polygon fill="red" stroke="red" points="477.471,-245.016 479.28,-234.577 471.356,-241.61 477.471,-245.016"/>
</g>
<!-- 52&#45;&gt;12 -->
<g id="edge75" class="edge"><title>52&#45;&gt;12</title>
<path fill="none" stroke="red" d="M478.457,-201.915C472.491,-192.533 464.681,-180.251 457.91,-169.602"/>
<polygon fill="red" stroke="red" points="460.849,-167.702 452.53,-161.141 454.942,-171.458 460.849,-167.702"/>
</g>
<!-- 40 -->
<g id="node44" class="node"><title>40</title>
<ellipse fill="none" stroke="black" cx="1405" cy="-371.948" rx="18.2703" ry="18.2703"/>
<text text-anchor="middle" x="1405" y="-369.748" font-family="Times New Roman,serif" font-size="9.00">40</text>
</g>
<!-- 7&#45;&gt;40 -->
<g id="edge19" class="edge"><title>7&#45;&gt;40</title>
<path fill="none" stroke="red" d="M1389.48,-433.047C1391.88,-423.77 1395.14,-411.136 1398.06,-399.845"/>
<polygon fill="red" stroke="red" points="1401.49,-400.547 1400.6,-389.989 1394.71,-398.797 1401.49,-400.547"/>
</g>
<!-- 7&#45;&gt;13 -->
<g id="edge6" class="edge"><title>7&#45;&gt;13</title>
<path fill="none" stroke="red" d="M1383.56,-432.787C1379.12,-407.834 1369.68,-354.681 1363.89,-322.031"/>
<polygon fill="red" stroke="red" points="1367.27,-321.049 1362.07,-311.815 1360.37,-322.273 1367.27,-321.049"/>
</g>
<!-- 12&#45;&gt;5 -->
<g id="edge5" class="edge"><title>12&#45;&gt;5</title>
<path fill="none" stroke="green" d="M460.896,-140.212C549.064,-120.79 936.773,-35.3828 1031.21,-14.5802"/>
<polygon fill="green" stroke="green" points="1032.22,-17.9418 1041.23,-12.3724 1030.71,-11.1057 1032.22,-17.9418"/>
</g>
<!-- 12&#45;&gt;22 -->
<g id="edge35" class="edge"><title>12&#45;&gt;22</title>
<path fill="none" stroke="red" d="M461.202,-141.509C535.042,-130.779 812.547,-90.4527 902.013,-77.4517"/>
<polygon fill="red" stroke="red" points="902.573,-80.9073 911.965,-76.0055 901.566,-73.9801 902.573,-80.9073"/>
</g>
<!-- 8&#45;&gt;5 -->
<g id="edge80" class="edge"><title>8&#45;&gt;5</title>
<path fill="none" stroke="red" d="M1145.49,-358.857C1130.65,-333.771 1099,-273.821 1099,-218.924 1099,-218.924 1099,-218.924 1099,-144.154 1099,-99.9062 1075.95,-51.8322 1062.13,-26.9965"/>
<polygon fill="red" stroke="red" points="1065.05,-25.0505 1057.03,-18.1253 1058.98,-28.5392 1065.05,-25.0505"/>
</g>
<!-- 118&#45;&gt;13 -->
<g id="edge89" class="edge"><title>118&#45;&gt;13</title>
<path fill="none" stroke="green" d="M1287.55,-357.285C1301.62,-344.927 1322.45,-326.628 1338,-312.974"/>
<polygon fill="green" stroke="green" points="1340.37,-315.542 1345.58,-306.313 1335.75,-310.283 1340.37,-315.542"/>
</g>
<!-- 40&#45;&gt;13 -->
<g id="edge20" class="edge"><title>40&#45;&gt;13</title>
<path fill="none" stroke="green" d="M1395.91,-355.849C1389.49,-345.172 1380.74,-330.639 1373.37,-318.4"/>
<polygon fill="green" stroke="green" points="1376.22,-316.353 1368.07,-309.59 1370.23,-319.963 1376.22,-316.353"/>
</g>
<!-- 13&#45;&gt;5 -->
<g id="edge7" class="edge"><title>13&#45;&gt;5</title>
<path fill="none" stroke="green" d="M1353.39,-275.672C1337.95,-231.975 1290.55,-114.229 1210,-54 1168.18,-22.7326 1105.2,-13.6831 1072.83,-11.065"/>
<polygon fill="green" stroke="green" points="1072.96,-7.56567 1062.75,-10.3813 1072.49,-14.5496 1072.96,-7.56567"/>
</g>
<!-- 22&#45;&gt;5 -->
<g id="edge36" class="edge"><title>22&#45;&gt;5</title>
<path fill="none" stroke="red" d="M946.201,-63.2334C968.433,-52.0471 1008.36,-31.9578 1032.3,-19.9145"/>
<polygon fill="red" stroke="red" points="1034.12,-22.9163 1041.48,-15.2951 1030.97,-16.6633 1034.12,-22.9163"/>
</g>
</g>
</svg>
