<?xml version="1.0" encoding="UTF-8" standalone="no"?>
<!DOCTYPE svg PUBLIC "-//W3C//DTD SVG 1.1//EN"
 "http://www.w3.org/Graphics/SVG/1.1/DTD/svg11.dtd">
<!-- Generated by graphviz version 2.38.0 (20140413.2041)
 -->
<!-- Title: %3 Pages: 1 -->
<svg width="1264pt" height="1515pt"
 viewBox="0.00 0.00 1264.38 1515.33" xmlns="http://www.w3.org/2000/svg" xmlns:xlink="http://www.w3.org/1999/xlink">
<g id="graph0" class="graph" transform="scale(1 1) rotate(0) translate(4 1511.33)">
<title>%3</title>
<polygon fill="white" stroke="none" points="-4,4 -4,-1511.33 1260.38,-1511.33 1260.38,4 -4,4"/>
<!-- 1 -->
<g id="node1" class="node"><title>1</title>
<polygon fill="lightgray" stroke="black" points="322.5,-1507.33 301.5,-1507.33 301.5,-1489.33 322.5,-1489.33 322.5,-1507.33"/>
<text text-anchor="middle" x="312" y="-1496.13" font-family="Times New Roman,serif" font-size="9.00">1</text>
</g>
<!-- 74 -->
<g id="node6" class="node"><title>74</title>
<ellipse fill="none" stroke="black" cx="336" cy="-1434.95" rx="18.2703" ry="18.2703"/>
<text text-anchor="middle" x="336" y="-1432.75" font-family="Times New Roman,serif" font-size="9.00">74</text>
</g>
<!-- 1&#45;&gt;74 -->
<g id="edge35" class="edge"><title>1&#45;&gt;74</title>
<path fill="none" stroke="red" d="M315.138,-1489.31C317.882,-1482.29 322.024,-1471.69 325.896,-1461.79"/>
<polygon fill="red" stroke="red" points="329.234,-1462.86 329.616,-1452.28 322.715,-1460.32 329.234,-1462.86"/>
</g>
<!-- 101 -->
<g id="node7" class="node"><title>101</title>
<ellipse fill="none" stroke="black" cx="288" cy="-1359.35" rx="21.4286" ry="21.4286"/>
<text text-anchor="middle" x="288" y="-1357.15" font-family="Times New Roman,serif" font-size="9.00">101</text>
</g>
<!-- 1&#45;&gt;101 -->
<g id="edge63" class="edge"><title>1&#45;&gt;101</title>
<path fill="none" stroke="red" d="M310.571,-1489.17C307.243,-1470.18 298.841,-1422.22 293.28,-1390.48"/>
<polygon fill="red" stroke="red" points="296.688,-1389.65 291.514,-1380.41 289.793,-1390.86 296.688,-1389.65"/>
</g>
<!-- 95 -->
<g id="node10" class="node"><title>95</title>
<ellipse fill="none" stroke="black" cx="1215" cy="-1359.35" rx="18.2703" ry="18.2703"/>
<text text-anchor="middle" x="1215" y="-1357.15" font-family="Times New Roman,serif" font-size="9.00">95</text>
</g>
<!-- 1&#45;&gt;95 -->
<g id="edge89" class="edge"><title>1&#45;&gt;95</title>
<path fill="none" stroke="red" d="M322.704,-1497.42C416.287,-1498.15 1093.72,-1501.69 1168,-1453.33 1190.77,-1438.51 1203,-1409.07 1209.22,-1387.27"/>
<polygon fill="red" stroke="red" points="1212.61,-1388.13 1211.74,-1377.57 1205.84,-1386.37 1212.61,-1388.13"/>
</g>
<!-- 69 -->
<g id="node15" class="node"><title>69</title>
<ellipse fill="none" stroke="black" cx="524" cy="-987.016" rx="18.2703" ry="18.2703"/>
<text text-anchor="middle" x="524" y="-984.816" font-family="Times New Roman,serif" font-size="9.00">69</text>
</g>
<!-- 1&#45;&gt;69 -->
<g id="edge47" class="edge"><title>1&#45;&gt;69</title>
<path fill="none" stroke="red" d="M322.646,-1496.77C420.115,-1491.5 1154,-1448.84 1154,-1360.35 1154,-1360.35 1154,-1360.35 1154,-1131.56 1154,-1123.72 673.788,-1020.16 551.876,-993.989"/>
<polygon fill="red" stroke="red" points="552.352,-990.511 541.84,-991.836 550.883,-997.356 552.352,-990.511"/>
</g>
<!-- 19 -->
<g id="node29" class="node"><title>19</title>
<ellipse fill="none" stroke="black" cx="114" cy="-690.281" rx="18.2703" ry="18.2703"/>
<text text-anchor="middle" x="114" y="-688.081" font-family="Times New Roman,serif" font-size="9.00">19</text>
</g>
<!-- 1&#45;&gt;19 -->
<g id="edge78" class="edge"><title>1&#45;&gt;19</title>
<path fill="none" stroke="red" d="M301.259,-1497.07C250.6,-1495.21 38,-1480.28 38,-1360.35 38,-1360.35 38,-1360.35 38,-1131.56 38,-1033.95 76,-1012.86 76,-915.247 76,-915.247 76,-915.247 76,-837.649 76,-794.202 91.8795,-745.762 103.108,-716.94"/>
<polygon fill="red" stroke="red" points="106.379,-718.188 106.852,-707.604 99.8817,-715.583 106.379,-718.188"/>
</g>
<!-- 7 -->
<g id="node43" class="node"><title>7</title>
<ellipse fill="none" stroke="black" cx="275" cy="-544.742" rx="14.7" ry="14.7"/>
<text text-anchor="middle" x="275" y="-542.542" font-family="Times New Roman,serif" font-size="9.00">7</text>
</g>
<!-- 1&#45;&gt;7 -->
<g id="edge2" class="edge"><title>1&#45;&gt;7</title>
<path fill="none" stroke="green" d="M301.356,-1496.64C258.514,-1493.67 99.0291,-1480.94 58,-1453.33 17.5905,-1426.14 0,-1409.06 0,-1360.35 0,-1360.35 0,-1360.35 0,-1058.79 0,-959.938 38,-938.497 38,-839.649 38,-839.649 38,-839.649 38,-689.281 38,-590.808 189.545,-558.039 250.271,-548.86"/>
<polygon fill="green" stroke="green" points="250.766,-552.325 260.175,-547.453 249.782,-545.395 250.766,-552.325"/>
</g>
<!-- 2 -->
<g id="node2" class="node"><title>2</title>
<polygon fill="lightgray" stroke="black" points="637.5,-996.016 616.5,-996.016 616.5,-978.016 637.5,-978.016 637.5,-996.016"/>
<text text-anchor="middle" x="627" y="-984.816" font-family="Times New Roman,serif" font-size="9.00">2</text>
</g>
<!-- 5 -->
<g id="node5" class="node"><title>5</title>
<polygon fill="lightblue" stroke="black" points="592.5,-27.3848 571.5,-27.3848 571.5,-9.38478 592.5,-9.38478 592.5,-27.3848"/>
<text text-anchor="middle" x="582" y="-16.1848" font-family="Times New Roman,serif" font-size="9.00">5</text>
</g>
<!-- 2&#45;&gt;5 -->
<g id="edge9" class="edge"><title>2&#45;&gt;5</title>
<path fill="none" stroke="green" d="M627.874,-978.011C632.075,-938.791 650,-762.988 650,-618.512 650,-618.512 650,-618.512 650,-165.752 650,-114.37 615.108,-61.4966 595.312,-35.6333"/>
<polygon fill="green" stroke="green" points="597.962,-33.3422 589.021,-27.6583 592.466,-37.6774 597.962,-33.3422"/>
</g>
<!-- 35 -->
<g id="node11" class="node"><title>35</title>
<ellipse fill="none" stroke="black" cx="986" cy="-914.247" rx="18.2703" ry="18.2703"/>
<text text-anchor="middle" x="986" y="-912.047" font-family="Times New Roman,serif" font-size="9.00">35</text>
</g>
<!-- 2&#45;&gt;35 -->
<g id="edge11" class="edge"><title>2&#45;&gt;35</title>
<path fill="none" stroke="red" d="M637.744,-983.898C686.004,-974.385 883.603,-935.432 957.732,-920.819"/>
<polygon fill="red" stroke="red" points="958.606,-924.214 967.74,-918.846 957.252,-917.347 958.606,-924.214"/>
</g>
<!-- 43 -->
<g id="node22" class="node"><title>43</title>
<ellipse fill="none" stroke="black" cx="1089" cy="-763.051" rx="18.2703" ry="18.2703"/>
<text text-anchor="middle" x="1089" y="-760.851" font-family="Times New Roman,serif" font-size="9.00">43</text>
</g>
<!-- 2&#45;&gt;43 -->
<g id="edge13" class="edge"><title>2&#45;&gt;43</title>
<path fill="none" stroke="green" d="M637.681,-985.36C692.556,-981.867 942.913,-964.407 1013,-932.632 1057.99,-912.236 1076.48,-904.791 1097,-859.862 1107.04,-837.882 1103.17,-810.123 1097.9,-790.149"/>
<polygon fill="green" stroke="green" points="1101.25,-789.11 1095.09,-780.485 1094.53,-791.065 1101.25,-789.11"/>
</g>
<!-- 54 -->
<g id="node23" class="node"><title>54</title>
<ellipse fill="none" stroke="black" cx="236" cy="-763.051" rx="18.2703" ry="18.2703"/>
<text text-anchor="middle" x="236" y="-760.851" font-family="Times New Roman,serif" font-size="9.00">54</text>
</g>
<!-- 2&#45;&gt;54 -->
<g id="edge52" class="edge"><title>2&#45;&gt;54</title>
<path fill="none" stroke="green" d="M616.303,-982.997C593.299,-976.217 537.898,-958.343 497,-932.632 432.205,-891.898 434.739,-856.627 369,-817.436 328.067,-793.033 311.513,-800.869 268,-781.436 265.626,-780.375 263.189,-779.207 260.77,-777.993"/>
<polygon fill="green" stroke="green" points="262.184,-774.782 251.706,-773.214 258.919,-780.974 262.184,-774.782"/>
</g>
<!-- 94 -->
<g id="node24" class="node"><title>94</title>
<ellipse fill="none" stroke="black" cx="524" cy="-914.247" rx="18.2703" ry="18.2703"/>
<text text-anchor="middle" x="524" y="-912.047" font-family="Times New Roman,serif" font-size="9.00">94</text>
</g>
<!-- 2&#45;&gt;94 -->
<g id="edge64" class="edge"><title>2&#45;&gt;94</title>
<path fill="none" stroke="red" d="M616.365,-978.709C600.102,-967.535 568.665,-945.936 547.02,-931.063"/>
<polygon fill="red" stroke="red" points="548.92,-928.122 538.696,-925.344 544.956,-933.892 548.92,-928.122"/>
</g>
<!-- 30 -->
<g id="node34" class="node"><title>30</title>
<ellipse fill="none" stroke="black" cx="1113" cy="-544.742" rx="18.2703" ry="18.2703"/>
<text text-anchor="middle" x="1113" y="-542.542" font-family="Times New Roman,serif" font-size="9.00">30</text>
</g>
<!-- 2&#45;&gt;30 -->
<g id="edge14" class="edge"><title>2&#45;&gt;30</title>
<path fill="none" stroke="red" d="M637.773,-985.604C696.693,-983.21 980.126,-969.897 1058,-932.632 1111.58,-906.991 1154,-899.048 1154,-839.649 1154,-839.649 1154,-839.649 1154,-689.281 1154,-646.58 1137.02,-599.385 1124.91,-571.17"/>
<polygon fill="red" stroke="red" points="1127.96,-569.407 1120.71,-561.677 1121.56,-572.238 1127.96,-569.407"/>
</g>
<!-- 50 -->
<g id="node35" class="node"><title>50</title>
<ellipse fill="none" stroke="black" cx="389" cy="-544.742" rx="18.2703" ry="18.2703"/>
<text text-anchor="middle" x="389" y="-542.542" font-family="Times New Roman,serif" font-size="9.00">50</text>
</g>
<!-- 2&#45;&gt;50 -->
<g id="edge36" class="edge"><title>2&#45;&gt;50</title>
<path fill="none" stroke="green" d="M625.214,-977.869C621.01,-960.5 608.91,-919.492 584,-895.862 553.641,-867.062 531.876,-882.987 497,-859.862 474.624,-845.025 476.036,-832.772 454,-817.436 422.993,-795.856 397.282,-813.307 377,-781.436 335.179,-715.717 362.094,-617.616 378.716,-571.478"/>
<polygon fill="green" stroke="green" points="382.059,-572.53 382.277,-561.938 375.501,-570.083 382.059,-572.53"/>
</g>
<!-- 2&#45;&gt;7 -->
<g id="edge3" class="edge"><title>2&#45;&gt;7</title>
<path fill="none" stroke="red" d="M620.422,-977.736C603.58,-956.608 559.624,-901.926 551,-895.862 513.385,-869.411 493.066,-884.12 454,-859.862 430.648,-845.362 430.36,-834.736 409,-817.436 387.156,-799.744 374.012,-803.812 357,-781.436 306.494,-715.003 285.569,-615.108 278.303,-569.714"/>
<polygon fill="red" stroke="red" points="281.736,-569.009 276.775,-559.647 274.815,-570.059 281.736,-569.009"/>
</g>
<!-- 3 -->
<g id="node3" class="node"><title>3</title>
<polygon fill="lightgray" stroke="black" points="698.5,-847.649 677.5,-847.649 677.5,-829.649 698.5,-829.649 698.5,-847.649"/>
<text text-anchor="middle" x="688" y="-836.449" font-family="Times New Roman,serif" font-size="9.00">3</text>
</g>
<!-- 3&#45;&gt;5 -->
<g id="edge1" class="edge"><title>3&#45;&gt;5</title>
<path fill="none" stroke="green" d="M688,-829.396C688,-807.116 688,-743.882 688,-691.281 688,-691.281 688,-691.281 688,-165.752 688,-123.072 688.908,-107.428 664,-72.7696 648.358,-51.0045 620.848,-35.7894 602.042,-27.3182"/>
<polygon fill="green" stroke="green" points="603.192,-24.0038 592.62,-23.307 600.45,-30.4444 603.192,-24.0038"/>
</g>
<!-- 46 -->
<g id="node13" class="node"><title>46</title>
<ellipse fill="none" stroke="black" cx="826" cy="-763.051" rx="18.2703" ry="18.2703"/>
<text text-anchor="middle" x="826" y="-760.851" font-family="Times New Roman,serif" font-size="9.00">46</text>
</g>
<!-- 3&#45;&gt;46 -->
<g id="edge20" class="edge"><title>3&#45;&gt;46</title>
<path fill="none" stroke="green" d="M696.833,-829.556C701.437,-825.591 707.287,-820.931 713,-817.436 746.605,-796.875 758.664,-798.853 794,-781.436 796.332,-780.286 798.741,-779.057 801.141,-777.804"/>
<polygon fill="green" stroke="green" points="803.013,-780.772 810.179,-772.969 799.711,-774.6 803.013,-780.772"/>
</g>
<!-- 83 -->
<g id="node16" class="node"><title>83</title>
<ellipse fill="none" stroke="black" cx="734" cy="-763.051" rx="18.2703" ry="18.2703"/>
<text text-anchor="middle" x="734" y="-760.851" font-family="Times New Roman,serif" font-size="9.00">83</text>
</g>
<!-- 3&#45;&gt;83 -->
<g id="edge61" class="edge"><title>3&#45;&gt;83</title>
<path fill="none" stroke="red" d="M693.099,-829.491C699.316,-819.544 710.1,-802.29 719.034,-787.996"/>
<polygon fill="red" stroke="red" points="722.239,-789.471 724.572,-779.136 716.303,-785.761 722.239,-789.471"/>
</g>
<!-- 29 -->
<g id="node26" class="node"><title>29</title>
<ellipse fill="none" stroke="black" cx="893" cy="-690.281" rx="18.2703" ry="18.2703"/>
<text text-anchor="middle" x="893" y="-688.081" font-family="Times New Roman,serif" font-size="9.00">29</text>
</g>
<!-- 3&#45;&gt;29 -->
<g id="edge26" class="edge"><title>3&#45;&gt;29</title>
<path fill="none" stroke="green" d="M698.74,-836.905C727.423,-834.373 806.773,-823.712 853,-781.436 871.185,-764.805 881.565,-738.381 887.169,-718.431"/>
<polygon fill="green" stroke="green" points="890.577,-719.231 889.68,-708.674 883.798,-717.487 890.577,-719.231"/>
</g>
<!-- 36 -->
<g id="node27" class="node"><title>36</title>
<ellipse fill="none" stroke="black" cx="741" cy="-690.281" rx="18.2703" ry="18.2703"/>
<text text-anchor="middle" x="741" y="-688.081" font-family="Times New Roman,serif" font-size="9.00">36</text>
</g>
<!-- 3&#45;&gt;36 -->
<g id="edge15" class="edge"><title>3&#45;&gt;36</title>
<path fill="none" stroke="red" d="M698.15,-829.303C702.666,-825.626 708.068,-821.277 713,-817.436 734.038,-801.05 749.074,-805.287 761,-781.436 771.441,-760.555 763.533,-734.259 754.772,-715.464"/>
<polygon fill="red" stroke="red" points="757.827,-713.748 750.205,-706.388 751.573,-716.895 757.827,-713.748"/>
</g>
<!-- 3&#45;&gt;7 -->
<g id="edge7" class="edge"><title>3&#45;&gt;7</title>
<path fill="none" stroke="green" d="M677.376,-830.14C622.285,-791.202 368.855,-612.078 295.155,-559.988"/>
<polygon fill="green" stroke="green" points="296.901,-556.936 286.715,-554.022 292.861,-562.652 296.901,-556.936"/>
</g>
<!-- 4 -->
<g id="node4" class="node"><title>4</title>
<polygon fill="lightgray" stroke="black" points="527.5,-847.649 506.5,-847.649 506.5,-829.649 527.5,-829.649 527.5,-847.649"/>
<text text-anchor="middle" x="517" y="-836.449" font-family="Times New Roman,serif" font-size="9.00">4</text>
</g>
<!-- 4&#45;&gt;5 -->
<g id="edge74" class="edge"><title>4&#45;&gt;5</title>
<path fill="none" stroke="green" d="M515.046,-829.329C512.591,-818.411 508.516,-798.617 507,-781.436 505.563,-765.157 505.818,-760.965 507,-744.666 513.461,-655.555 536,-635.087 536,-545.742 536,-545.742 536,-545.742 536,-165.752 536,-117.311 559.214,-63.8297 572.66,-36.9147"/>
<polygon fill="green" stroke="green" points="575.952,-38.1672 577.421,-27.6747 569.729,-34.9608 575.952,-38.1672"/>
</g>
<!-- 47 -->
<g id="node14" class="node"><title>47</title>
<ellipse fill="none" stroke="black" cx="404" cy="-763.051" rx="18.2703" ry="18.2703"/>
<text text-anchor="middle" x="404" y="-760.851" font-family="Times New Roman,serif" font-size="9.00">47</text>
</g>
<!-- 4&#45;&gt;47 -->
<g id="edge42" class="edge"><title>4&#45;&gt;47</title>
<path fill="none" stroke="red" d="M507.5,-829.465C502.927,-825.658 497.297,-821.158 492,-817.436 471.209,-802.824 446.361,-787.972 428.38,-777.656"/>
<polygon fill="red" stroke="red" points="430.084,-774.598 419.66,-772.7 426.625,-780.684 430.084,-774.598"/>
</g>
<!-- 11 -->
<g id="node28" class="node"><title>11</title>
<ellipse fill="none" stroke="black" cx="229" cy="-690.281" rx="18.2703" ry="18.2703"/>
<text text-anchor="middle" x="229" y="-688.081" font-family="Times New Roman,serif" font-size="9.00">11</text>
</g>
<!-- 4&#45;&gt;11 -->
<g id="edge76" class="edge"><title>4&#45;&gt;11</title>
<path fill="none" stroke="green" d="M506.2,-834.002C482.348,-825.8 423.6,-804.783 377,-781.436 331.369,-758.573 281.224,-726.422 252.585,-707.333"/>
<polygon fill="green" stroke="green" points="254.329,-704.288 244.075,-701.622 250.429,-710.101 254.329,-704.288"/>
</g>
<!-- 4&#45;&gt;7 -->
<g id="edge8" class="edge"><title>4&#45;&gt;7</title>
<path fill="none" stroke="red" d="M509.214,-829.211C478.901,-796.319 368.88,-676.514 337,-635.897 318.94,-612.887 300.175,-584.94 288.086,-566.32"/>
<polygon fill="red" stroke="red" points="290.924,-564.262 282.567,-557.75 285.039,-568.052 290.924,-564.262"/>
</g>
<!-- 8 -->
<g id="node45" class="node"><title>8</title>
<ellipse fill="none" stroke="black" cx="531" cy="-763.051" rx="14.7" ry="14.7"/>
<text text-anchor="middle" x="531" y="-760.851" font-family="Times New Roman,serif" font-size="9.00">8</text>
</g>
<!-- 4&#45;&gt;8 -->
<g id="edge65" class="edge"><title>4&#45;&gt;8</title>
<path fill="none" stroke="green" d="M518.552,-829.491C520.447,-819.53 523.735,-802.241 526.457,-787.935"/>
<polygon fill="green" stroke="green" points="529.964,-788.225 528.395,-777.747 523.088,-786.917 529.964,-788.225"/>
</g>
<!-- 22 -->
<g id="node48" class="node"><title>22</title>
<ellipse fill="none" stroke="black" cx="1103" cy="-18.3848" rx="18.2703" ry="18.2703"/>
<text text-anchor="middle" x="1103" y="-16.1848" font-family="Times New Roman,serif" font-size="9.00">22</text>
</g>
<!-- 4&#45;&gt;22 -->
<g id="edge41" class="edge"><title>4&#45;&gt;22</title>
<path fill="none" stroke="green" d="M527.783,-836.327C598.57,-827.492 997.009,-775.327 1097,-708.666 1174.77,-656.816 1230,-639.216 1230,-545.742 1230,-545.742 1230,-545.742 1230,-165.752 1230,-103.878 1164.45,-55.3633 1127.54,-32.9473"/>
<polygon fill="green" stroke="green" points="1129.22,-29.8763 1118.83,-27.8184 1125.67,-35.9083 1129.22,-29.8763"/>
</g>
<!-- 74&#45;&gt;101 -->
<g id="edge53" class="edge"><title>74&#45;&gt;101</title>
<path fill="none" stroke="green" d="M326.286,-1419.05C320.104,-1409.57 311.934,-1397.05 304.729,-1386"/>
<polygon fill="green" stroke="green" points="307.609,-1384.01 299.214,-1377.54 301.745,-1387.83 307.609,-1384.01"/>
</g>
<!-- 64 -->
<g id="node9" class="node"><title>64</title>
<ellipse fill="none" stroke="black" cx="312" cy="-1205.33" rx="18.2703" ry="18.2703"/>
<text text-anchor="middle" x="312" y="-1203.13" font-family="Times New Roman,serif" font-size="9.00">64</text>
</g>
<!-- 74&#45;&gt;64 -->
<g id="edge56" class="edge"><title>74&#45;&gt;64</title>
<path fill="none" stroke="green" d="M334.263,-1416.63C331.11,-1385.31 324.195,-1317.16 318,-1259.71 317.086,-1251.23 316.06,-1242 315.118,-1233.64"/>
<polygon fill="green" stroke="green" points="318.587,-1233.17 313.985,-1223.63 311.632,-1233.96 318.587,-1233.17"/>
</g>
<!-- 74&#45;&gt;30 -->
<g id="edge54" class="edge"><title>74&#45;&gt;30</title>
<path fill="none" stroke="green" d="M354.512,-1432.37C472.63,-1422.04 1116,-1362.12 1116,-1281.92 1116,-1281.92 1116,-1281.92 1116,-1204.33 1116,-1102.43 1192,-1089.91 1192,-988.016 1192,-988.016 1192,-988.016 1192,-689.281 1192,-640.045 1155.88,-591.768 1132.49,-565.663"/>
<polygon fill="green" stroke="green" points="1135.05,-563.272 1125.69,-558.297 1129.9,-568.019 1135.05,-563.272"/>
</g>
<!-- 122 -->
<g id="node8" class="node"><title>122</title>
<ellipse fill="none" stroke="black" cx="288" cy="-1280.92" rx="21.4286" ry="21.4286"/>
<text text-anchor="middle" x="288" y="-1278.72" font-family="Times New Roman,serif" font-size="9.00">122</text>
</g>
<!-- 101&#45;&gt;122 -->
<g id="edge83" class="edge"><title>101&#45;&gt;122</title>
<path fill="none" stroke="red" d="M288,-1337.87C288,-1330.01 288,-1320.87 288,-1312.28"/>
<polygon fill="red" stroke="red" points="291.5,-1312.2 288,-1302.2 284.5,-1312.2 291.5,-1312.2"/>
</g>
<!-- 101&#45;&gt;46 -->
<g id="edge73" class="edge"><title>101&#45;&gt;46</title>
<path fill="none" stroke="red" d="M308.333,-1352.75C357.348,-1337.87 478,-1292.51 478,-1206.33 478,-1206.33 478,-1206.33 478,-986.016 478,-945.068 467.501,-924.263 497,-895.862 565.217,-830.185 620.683,-898.805 707,-859.862 747.01,-841.811 785.02,-807.06 806.896,-784.743"/>
<polygon fill="red" stroke="red" points="809.533,-787.051 813.938,-777.416 804.485,-782.201 809.533,-787.051"/>
</g>
<!-- 101&#45;&gt;11 -->
<g id="edge66" class="edge"><title>101&#45;&gt;11</title>
<path fill="none" stroke="red" d="M276.639,-1341.08C243.952,-1289.66 152,-1132.19 152,-988.016 152,-988.016 152,-988.016 152,-837.649 152,-787.949 187.203,-738.542 210.003,-711.754"/>
<polygon fill="red" stroke="red" points="212.672,-714.019 216.629,-704.191 207.406,-709.407 212.672,-714.019"/>
</g>
<!-- 122&#45;&gt;64 -->
<g id="edge84" class="edge"><title>122&#45;&gt;64</title>
<path fill="none" stroke="green" d="M294.306,-1260.59C297.05,-1252.17 300.312,-1242.17 303.284,-1233.05"/>
<polygon fill="green" stroke="green" points="306.699,-1233.87 306.471,-1223.28 300.043,-1231.7 306.699,-1233.87"/>
</g>
<!-- 122&#45;&gt;19 -->
<g id="edge93" class="edge"><title>122&#45;&gt;19</title>
<path fill="none" stroke="green" d="M272.252,-1266.21C229.42,-1227.3 114,-1111.03 114,-988.016 114,-988.016 114,-988.016 114,-837.649 114,-796.414 114,-748.646 114,-719.194"/>
<polygon fill="green" stroke="green" points="117.5,-718.855 114,-708.855 110.5,-718.855 117.5,-718.855"/>
</g>
<!-- 64&#45;&gt;5 -->
<g id="edge88" class="edge"><title>64&#45;&gt;5</title>
<path fill="none" stroke="red" d="M296.099,-1196.07C232.519,-1161.78 0,-1023.79 0,-839.649 0,-839.649 0,-839.649 0,-165.752 0,-47.5038 457.572,-23.878 561.274,-20.042"/>
<polygon fill="red" stroke="red" points="561.529,-23.5354 571.401,-19.6901 561.286,-16.5396 561.529,-23.5354"/>
</g>
<!-- 49 -->
<g id="node12" class="node"><title>49</title>
<ellipse fill="none" stroke="black" cx="266" cy="-1132.56" rx="18.2703" ry="18.2703"/>
<text text-anchor="middle" x="266" y="-1130.36" font-family="Times New Roman,serif" font-size="9.00">49</text>
</g>
<!-- 64&#45;&gt;49 -->
<g id="edge32" class="edge"><title>64&#45;&gt;49</title>
<path fill="none" stroke="green" d="M302.245,-1189.32C296.146,-1179.93 288.162,-1167.65 281.241,-1157"/>
<polygon fill="green" stroke="green" points="284.126,-1155.02 275.741,-1148.54 278.257,-1158.83 284.126,-1155.02"/>
</g>
<!-- 59 -->
<g id="node20" class="node"><title>59</title>
<ellipse fill="none" stroke="black" cx="315" cy="-914.247" rx="18.2703" ry="18.2703"/>
<text text-anchor="middle" x="315" y="-912.047" font-family="Times New Roman,serif" font-size="9.00">59</text>
</g>
<!-- 64&#45;&gt;59 -->
<g id="edge82" class="edge"><title>64&#45;&gt;59</title>
<path fill="none" stroke="red" d="M316.824,-1187.37C323.39,-1163.32 334.805,-1117.82 339,-1078.17 344.082,-1030.15 332.01,-974.57 323.208,-942.313"/>
<polygon fill="red" stroke="red" points="326.468,-940.981 320.378,-932.312 319.733,-942.887 326.468,-940.981"/>
</g>
<!-- 12 -->
<g id="node44" class="node"><title>12</title>
<ellipse fill="none" stroke="black" cx="977" cy="-91.1543" rx="18.2703" ry="18.2703"/>
<text text-anchor="middle" x="977" y="-88.9543" font-family="Times New Roman,serif" font-size="9.00">12</text>
</g>
<!-- 64&#45;&gt;12 -->
<g id="edge46" class="edge"><title>64&#45;&gt;12</title>
<path fill="none" stroke="red" d="M327.952,-1196.17C362.265,-1177.36 440,-1127.4 440,-1060.79 440,-1060.79 440,-1060.79 440,-986.016 440,-943.348 445.471,-928.462 473,-895.862 493.807,-871.223 516.62,-885.639 536,-859.862 558.612,-829.786 612,-735.223 612,-545.742 612,-545.742 612,-545.742 612,-470.973 612,-300.503 680.928,-250.823 815,-145.539 854.997,-114.13 914.235,-100.838 948.899,-95.4897"/>
<polygon fill="red" stroke="red" points="949.414,-98.9517 958.819,-94.0738 948.425,-92.0219 949.414,-98.9517"/>
</g>
<!-- 63 -->
<g id="node25" class="node"><title>63</title>
<ellipse fill="none" stroke="black" cx="1238" cy="-690.281" rx="18.2703" ry="18.2703"/>
<text text-anchor="middle" x="1238" y="-688.081" font-family="Times New Roman,serif" font-size="9.00">63</text>
</g>
<!-- 95&#45;&gt;63 -->
<g id="edge90" class="edge"><title>95&#45;&gt;63</title>
<path fill="none" stroke="green" d="M1218.57,-1341.11C1224.08,-1313.01 1234,-1255.53 1234,-1206.33 1234,-1206.33 1234,-1206.33 1234,-837.649 1234,-796.399 1235.61,-748.635 1236.78,-719.188"/>
<polygon fill="green" stroke="green" points="1240.3,-718.986 1237.21,-708.851 1233.3,-718.698 1240.3,-718.986"/>
</g>
<!-- 55 -->
<g id="node19" class="node"><title>55</title>
<ellipse fill="none" stroke="black" cx="1070" cy="-838.649" rx="18.2703" ry="18.2703"/>
<text text-anchor="middle" x="1070" y="-836.449" font-family="Times New Roman,serif" font-size="9.00">55</text>
</g>
<!-- 35&#45;&gt;55 -->
<g id="edge79" class="edge"><title>35&#45;&gt;55</title>
<path fill="none" stroke="red" d="M999.496,-901.422C1012.84,-889.727 1033.47,-871.659 1048.97,-858.079"/>
<polygon fill="red" stroke="red" points="1051.32,-860.667 1056.54,-851.444 1046.71,-855.402 1051.32,-860.667"/>
</g>
<!-- 35&#45;&gt;29 -->
<g id="edge12" class="edge"><title>35&#45;&gt;29</title>
<path fill="none" stroke="green" d="M979.161,-896.925C963.139,-858.683 923.068,-763.045 903.748,-716.935"/>
<polygon fill="green" stroke="green" points="906.941,-715.498 899.849,-707.627 900.485,-718.203 906.941,-715.498"/>
</g>
<!-- 38 -->
<g id="node38" class="node"><title>38</title>
<ellipse fill="none" stroke="black" cx="1026" cy="-471.973" rx="18.2703" ry="18.2703"/>
<text text-anchor="middle" x="1026" y="-469.773" font-family="Times New Roman,serif" font-size="9.00">38</text>
</g>
<!-- 35&#45;&gt;38 -->
<g id="edge23" class="edge"><title>35&#45;&gt;38</title>
<path fill="none" stroke="red" d="M992.97,-897.033C1003.94,-869.999 1024,-813.767 1024,-764.051 1024,-764.051 1024,-764.051 1024,-616.512 1024,-576.291 1024.79,-529.738 1025.38,-500.819"/>
<polygon fill="red" stroke="red" points="1028.89,-500.721 1025.6,-490.65 1021.89,-500.574 1028.89,-500.721"/>
</g>
<!-- 35&#45;&gt;12 -->
<g id="edge33" class="edge"><title>35&#45;&gt;12</title>
<path fill="none" stroke="green" d="M985.541,-895.746C983.707,-824.209 977,-546.995 977,-318.948 977,-318.948 977,-318.948 977,-241.35 977,-198.903 977,-149.663 977,-119.721"/>
<polygon fill="green" stroke="green" points="980.5,-119.611 977,-109.611 973.5,-119.611 980.5,-119.611"/>
</g>
<!-- 82 -->
<g id="node17" class="node"><title>82</title>
<ellipse fill="none" stroke="black" cx="312" cy="-1059.79" rx="18.2703" ry="18.2703"/>
<text text-anchor="middle" x="312" y="-1057.59" font-family="Times New Roman,serif" font-size="9.00">82</text>
</g>
<!-- 49&#45;&gt;82 -->
<g id="edge44" class="edge"><title>49&#45;&gt;82</title>
<path fill="none" stroke="green" d="M275.755,-1116.55C281.854,-1107.16 289.838,-1094.88 296.759,-1084.23"/>
<polygon fill="green" stroke="green" points="299.743,-1086.06 302.259,-1075.77 293.874,-1082.25 299.743,-1086.06"/>
</g>
<!-- 56 -->
<g id="node18" class="node"><title>56</title>
<ellipse fill="none" stroke="black" cx="293" cy="-987.016" rx="18.2703" ry="18.2703"/>
<text text-anchor="middle" x="293" y="-984.816" font-family="Times New Roman,serif" font-size="9.00">56</text>
</g>
<!-- 49&#45;&gt;56 -->
<g id="edge75" class="edge"><title>49&#45;&gt;56</title>
<path fill="none" stroke="green" d="M269.257,-1114.24C273.879,-1089.67 282.387,-1044.44 287.864,-1015.32"/>
<polygon fill="green" stroke="green" points="291.323,-1015.87 289.732,-1005.39 284.443,-1014.57 291.323,-1015.87"/>
</g>
<!-- 49&#45;&gt;54 -->
<g id="edge24" class="edge"><title>49&#45;&gt;54</title>
<path fill="none" stroke="red" d="M258.852,-1115.56C247.845,-1089.43 228,-1035.71 228,-988.016 228,-988.016 228,-988.016 228,-913.247 228,-870.739 231.278,-821.516 233.638,-791.594"/>
<polygon fill="red" stroke="red" points="237.137,-791.742 234.458,-781.491 230.16,-791.175 237.137,-791.742"/>
</g>
<!-- 49&#45;&gt;11 -->
<g id="edge30" class="edge"><title>49&#45;&gt;11</title>
<path fill="none" stroke="green" d="M253.45,-1118.54C231.864,-1094.71 190,-1041.59 190,-988.016 190,-988.016 190,-988.016 190,-837.649 190,-794.129 206.297,-745.711 217.822,-716.913"/>
<polygon fill="green" stroke="green" points="221.091,-718.165 221.664,-707.585 214.619,-715.498 221.091,-718.165"/>
</g>
<!-- 46&#45;&gt;29 -->
<g id="edge21" class="edge"><title>46&#45;&gt;29</title>
<path fill="none" stroke="green" d="M838.289,-749.071C848.206,-738.596 862.335,-723.672 873.751,-711.614"/>
<polygon fill="green" stroke="green" points="876.456,-713.847 880.789,-704.179 871.372,-709.035 876.456,-713.847"/>
</g>
<!-- 46&#45;&gt;19 -->
<g id="edge34" class="edge"><title>46&#45;&gt;19</title>
<path fill="none" stroke="red" d="M808.822,-756.462C795.834,-752.481 777.483,-747.374 761,-744.666 515.334,-704.308 448.869,-740.86 202,-708.666 181.667,-706.014 158.97,-701.491 141.72,-697.724"/>
<polygon fill="red" stroke="red" points="142.275,-694.261 131.753,-695.499 140.75,-701.093 142.275,-694.261"/>
</g>
<!-- 46&#45;&gt;38 -->
<g id="edge87" class="edge"><title>46&#45;&gt;38</title>
<path fill="none" stroke="green" d="M831.869,-745.456C838.778,-726.869 851.204,-696.166 866,-671.897 908.93,-601.479 973.987,-528.329 1006.32,-493.624"/>
<polygon fill="green" stroke="green" points="1009.15,-495.727 1013.44,-486.04 1004.04,-490.937 1009.15,-495.727"/>
</g>
<!-- 47&#45;&gt;29 -->
<g id="edge51" class="edge"><title>47&#45;&gt;29</title>
<path fill="none" stroke="red" d="M422.207,-758.807C442.769,-755.184 477.244,-749.228 507,-744.666 622.746,-726.92 652.009,-724.731 768,-708.666 801.233,-704.063 839.432,-698.747 864.766,-695.217"/>
<polygon fill="red" stroke="red" points="865.363,-698.668 874.784,-693.821 864.396,-691.735 865.363,-698.668"/>
</g>
<!-- 47&#45;&gt;11 -->
<g id="edge43" class="edge"><title>47&#45;&gt;11</title>
<path fill="none" stroke="green" d="M387.22,-755.265C356.645,-742.901 291.66,-716.621 255.203,-701.878"/>
<polygon fill="green" stroke="green" points="256.312,-698.551 245.729,-698.046 253.687,-705.04 256.312,-698.551"/>
</g>
<!-- 69&#45;&gt;54 -->
<g id="edge98" class="edge"><title>69&#45;&gt;54</title>
<path fill="none" stroke="red" d="M505.543,-983.62C476.665,-978.929 420.724,-965.909 388,-932.632 349.683,-893.666 382.065,-857.594 345,-817.436 319.378,-789.675 301.724,-798.46 268,-781.436 265.679,-780.264 263.278,-779.02 260.882,-777.757"/>
<polygon fill="red" stroke="red" points="262.317,-774.555 251.851,-772.908 259.005,-780.722 262.317,-774.555"/>
</g>
<!-- 69&#45;&gt;94 -->
<g id="edge49" class="edge"><title>69&#45;&gt;94</title>
<path fill="none" stroke="green" d="M524,-968.523C524,-960.84 524,-951.631 524,-943.047"/>
<polygon fill="green" stroke="green" points="527.5,-943.031 524,-933.031 520.5,-943.031 527.5,-943.031"/>
</g>
<!-- 83&#45;&gt;36 -->
<g id="edge62" class="edge"><title>83&#45;&gt;36</title>
<path fill="none" stroke="green" d="M735.73,-744.557C736.49,-736.875 737.401,-727.666 738.25,-719.082"/>
<polygon fill="green" stroke="green" points="741.74,-719.361 739.241,-709.065 734.774,-718.672 741.74,-719.361"/>
</g>
<!-- 82&#45;&gt;56 -->
<g id="edge45" class="edge"><title>82&#45;&gt;56</title>
<path fill="none" stroke="green" d="M307.401,-1041.65C305.23,-1033.57 302.59,-1023.74 300.166,-1014.71"/>
<polygon fill="green" stroke="green" points="303.53,-1013.74 297.557,-1004.99 296.77,-1015.56 303.53,-1013.74"/>
</g>
<!-- 56&#45;&gt;59 -->
<g id="edge50" class="edge"><title>56&#45;&gt;59</title>
<path fill="none" stroke="green" d="M298.214,-969.245C300.789,-960.96 303.956,-950.773 306.843,-941.487"/>
<polygon fill="green" stroke="green" points="310.197,-942.486 309.824,-931.898 303.513,-940.408 310.197,-942.486"/>
</g>
<!-- 56&#45;&gt;54 -->
<g id="edge55" class="edge"><title>56&#45;&gt;54</title>
<path fill="none" stroke="red" d="M288.622,-968.968C278.779,-930.637 254.834,-837.394 242.941,-791.078"/>
<polygon fill="red" stroke="red" points="246.27,-789.973 240.393,-781.158 239.49,-791.714 246.27,-789.973"/>
</g>
<!-- 55&#45;&gt;43 -->
<g id="edge80" class="edge"><title>55&#45;&gt;43</title>
<path fill="none" stroke="red" d="M1074.41,-820.579C1076.68,-811.754 1079.52,-800.781 1082.08,-790.856"/>
<polygon fill="red" stroke="red" points="1085.51,-791.586 1084.62,-781.028 1078.73,-789.836 1085.51,-791.586"/>
</g>
<!-- 129 -->
<g id="node21" class="node"><title>129</title>
<ellipse fill="none" stroke="black" cx="315" cy="-838.649" rx="21.4286" ry="21.4286"/>
<text text-anchor="middle" x="315" y="-836.449" font-family="Times New Roman,serif" font-size="9.00">129</text>
</g>
<!-- 59&#45;&gt;129 -->
<g id="edge94" class="edge"><title>59&#45;&gt;129</title>
<path fill="none" stroke="green" d="M315,-895.805C315,-888.19 315,-879.028 315,-870.334"/>
<polygon fill="green" stroke="green" points="318.5,-870.098 315,-860.098 311.5,-870.098 318.5,-870.098"/>
</g>
<!-- 129&#45;&gt;54 -->
<g id="edge95" class="edge"><title>129&#45;&gt;54</title>
<path fill="none" stroke="green" d="M299.768,-823.458C287.474,-812.005 270.06,-795.782 256.535,-783.182"/>
<polygon fill="green" stroke="green" points="258.792,-780.501 249.09,-776.245 254.021,-785.623 258.792,-780.501"/>
</g>
<!-- 43&#45;&gt;63 -->
<g id="edge31" class="edge"><title>43&#45;&gt;63</title>
<path fill="none" stroke="red" d="M1105.23,-754.343C1131.09,-742.059 1181.86,-717.945 1212.58,-703.355"/>
<polygon fill="red" stroke="red" points="1214.26,-706.432 1221.79,-698.98 1211.26,-700.109 1214.26,-706.432"/>
</g>
<!-- 53 -->
<g id="node31" class="node"><title>53</title>
<ellipse fill="none" stroke="black" cx="1070" cy="-690.281" rx="18.2703" ry="18.2703"/>
<text text-anchor="middle" x="1070" y="-688.081" font-family="Times New Roman,serif" font-size="9.00">53</text>
</g>
<!-- 43&#45;&gt;53 -->
<g id="edge57" class="edge"><title>43&#45;&gt;53</title>
<path fill="none" stroke="green" d="M1084.4,-744.92C1082.23,-736.835 1079.59,-727.001 1077.17,-717.971"/>
<polygon fill="green" stroke="green" points="1080.53,-717.005 1074.56,-708.255 1073.77,-718.82 1080.53,-717.005"/>
</g>
<!-- 54&#45;&gt;11 -->
<g id="edge25" class="edge"><title>54&#45;&gt;11</title>
<path fill="none" stroke="red" d="M234.27,-744.557C233.51,-736.875 232.599,-727.666 231.75,-719.082"/>
<polygon fill="red" stroke="red" points="235.226,-718.672 230.759,-709.065 228.26,-719.361 235.226,-718.672"/>
</g>
<!-- 48 -->
<g id="node32" class="node"><title>48</title>
<ellipse fill="none" stroke="black" cx="1070" cy="-617.512" rx="18.2703" ry="18.2703"/>
<text text-anchor="middle" x="1070" y="-615.312" font-family="Times New Roman,serif" font-size="9.00">48</text>
</g>
<!-- 29&#45;&gt;48 -->
<g id="edge39" class="edge"><title>29&#45;&gt;48</title>
<path fill="none" stroke="red" d="M909.972,-682.496C940.896,-670.131 1006.62,-643.851 1043.5,-629.108"/>
<polygon fill="red" stroke="red" points="1045.09,-632.239 1053.08,-625.277 1042.5,-625.74 1045.09,-632.239"/>
</g>
<!-- 29&#45;&gt;12 -->
<g id="edge29" class="edge"><title>29&#45;&gt;12</title>
<path fill="none" stroke="red" d="M894.821,-671.625C897.451,-644.563 902,-591.186 902,-545.742 902,-545.742 902,-545.742 902,-241.35 902,-191.169 936.288,-140.639 958.497,-113.173"/>
<polygon fill="red" stroke="red" points="961.245,-115.342 964.95,-105.416 955.864,-110.865 961.245,-115.342"/>
</g>
<!-- 79 -->
<g id="node30" class="node"><title>79</title>
<ellipse fill="none" stroke="black" cx="741" cy="-617.512" rx="18.2703" ry="18.2703"/>
<text text-anchor="middle" x="741" y="-615.312" font-family="Times New Roman,serif" font-size="9.00">79</text>
</g>
<!-- 36&#45;&gt;79 -->
<g id="edge38" class="edge"><title>36&#45;&gt;79</title>
<path fill="none" stroke="green" d="M741,-671.788C741,-664.105 741,-654.896 741,-646.312"/>
<polygon fill="green" stroke="green" points="744.5,-646.296 741,-636.296 737.5,-646.296 744.5,-646.296"/>
</g>
<!-- 72 -->
<g id="node33" class="node"><title>72</title>
<ellipse fill="none" stroke="black" cx="490" cy="-617.512" rx="18.2703" ry="18.2703"/>
<text text-anchor="middle" x="490" y="-615.312" font-family="Times New Roman,serif" font-size="9.00">72</text>
</g>
<!-- 36&#45;&gt;72 -->
<g id="edge60" class="edge"><title>36&#45;&gt;72</title>
<path fill="none" stroke="green" d="M723.35,-684.305C680.235,-672.149 569.301,-640.871 517.462,-626.255"/>
<polygon fill="green" stroke="green" points="518.205,-622.828 507.63,-623.483 516.305,-629.565 518.205,-622.828"/>
</g>
<!-- 36&#45;&gt;30 -->
<g id="edge48" class="edge"><title>36&#45;&gt;30</title>
<path fill="none" stroke="red" d="M757.951,-682.741C817.017,-659.949 1014.1,-583.905 1086.24,-556.067"/>
<polygon fill="red" stroke="red" points="1087.88,-559.186 1095.95,-552.321 1085.36,-552.656 1087.88,-559.186"/>
</g>
<!-- 58 -->
<g id="node37" class="node"><title>58</title>
<ellipse fill="none" stroke="black" cx="435" cy="-617.512" rx="18.2703" ry="18.2703"/>
<text text-anchor="middle" x="435" y="-615.312" font-family="Times New Roman,serif" font-size="9.00">58</text>
</g>
<!-- 36&#45;&gt;58 -->
<g id="edge96" class="edge"><title>36&#45;&gt;58</title>
<path fill="none" stroke="red" d="M722.726,-686.663C668.832,-678.8 511.29,-654.775 463,-635.897 461.568,-635.337 460.128,-634.703 458.697,-634.016"/>
<polygon fill="red" stroke="red" points="460.023,-630.749 449.58,-628.959 456.627,-636.87 460.023,-630.749"/>
</g>
<!-- 36&#45;&gt;12 -->
<g id="edge27" class="edge"><title>36&#45;&gt;12</title>
<path fill="none" stroke="red" d="M751.277,-675C768.181,-650.063 800,-596.395 800,-545.742 800,-545.742 800,-545.742 800,-241.35 800,-163.87 900.38,-118.474 949.953,-100.78"/>
<polygon fill="red" stroke="red" points="951.39,-103.987 959.706,-97.4229 949.112,-97.3682 951.39,-103.987"/>
</g>
<!-- 26 -->
<g id="node36" class="node"><title>26</title>
<ellipse fill="none" stroke="black" cx="229" cy="-617.512" rx="18.2703" ry="18.2703"/>
<text text-anchor="middle" x="229" y="-615.312" font-family="Times New Roman,serif" font-size="9.00">26</text>
</g>
<!-- 11&#45;&gt;26 -->
<g id="edge70" class="edge"><title>11&#45;&gt;26</title>
<path fill="none" stroke="green" d="M229,-671.788C229,-664.105 229,-654.896 229,-646.312"/>
<polygon fill="green" stroke="green" points="232.5,-646.296 229,-636.296 225.5,-646.296 232.5,-646.296"/>
</g>
<!-- 11&#45;&gt;7 -->
<g id="edge77" class="edge"><title>11&#45;&gt;7</title>
<path fill="none" stroke="green" d="M218.291,-674.944C206.035,-656.643 189.207,-624.332 202,-599.127 212.396,-578.645 234.748,-564.139 251.998,-555.468"/>
<polygon fill="green" stroke="green" points="253.872,-558.454 261.435,-551.035 250.896,-552.118 253.872,-558.454"/>
</g>
<!-- 19&#45;&gt;7 -->
<g id="edge22" class="edge"><title>19&#45;&gt;7</title>
<path fill="none" stroke="red" d="M124.646,-675.117C139.101,-656.429 166.321,-623.104 194,-599.127 212.516,-583.087 236.14,-568.04 253.09,-558.036"/>
<polygon fill="red" stroke="red" points="255.307,-560.797 262.21,-552.759 251.802,-554.738 255.307,-560.797"/>
</g>
<!-- 40 -->
<g id="node46" class="node"><title>40</title>
<ellipse fill="none" stroke="black" cx="275" cy="-471.973" rx="18.2703" ry="18.2703"/>
<text text-anchor="middle" x="275" y="-469.773" font-family="Times New Roman,serif" font-size="9.00">40</text>
</g>
<!-- 19&#45;&gt;40 -->
<g id="edge72" class="edge"><title>19&#45;&gt;40</title>
<path fill="none" stroke="green" d="M119.719,-672.461C126.535,-653.67 139.034,-622.787 155,-599.127 183.836,-556.395 227.508,-514.61 253.451,-491.475"/>
<polygon fill="green" stroke="green" points="256.019,-493.878 261.21,-484.642 251.393,-488.624 256.019,-493.878"/>
</g>
<!-- 53&#45;&gt;48 -->
<g id="edge59" class="edge"><title>53&#45;&gt;48</title>
<path fill="none" stroke="green" d="M1070,-671.788C1070,-664.105 1070,-654.896 1070,-646.312"/>
<polygon fill="green" stroke="green" points="1073.5,-646.296 1070,-636.296 1066.5,-646.296 1073.5,-646.296"/>
</g>
<!-- 53&#45;&gt;30 -->
<g id="edge58" class="edge"><title>53&#45;&gt;30</title>
<path fill="none" stroke="green" d="M1079.29,-673.921C1085.19,-663.525 1092.53,-649.296 1097,-635.897 1103.78,-615.571 1107.86,-591.656 1110.2,-573.566"/>
<polygon fill="green" stroke="green" points="1113.7,-573.745 1111.41,-563.4 1106.75,-572.915 1113.7,-573.745"/>
</g>
<!-- 48&#45;&gt;30 -->
<g id="edge40" class="edge"><title>48&#45;&gt;30</title>
<path fill="none" stroke="red" d="M1079.12,-601.503C1084.76,-592.215 1092.13,-580.084 1098.56,-569.51"/>
<polygon fill="red" stroke="red" points="1101.69,-571.093 1103.89,-560.729 1095.71,-567.458 1101.69,-571.093"/>
</g>
<!-- 72&#45;&gt;50 -->
<g id="edge81" class="edge"><title>72&#45;&gt;50</title>
<path fill="none" stroke="green" d="M475.097,-606.069C458.442,-594.4 431.278,-575.366 411.916,-561.8"/>
<polygon fill="green" stroke="green" points="413.834,-558.869 403.636,-555.997 409.817,-564.602 413.834,-558.869"/>
</g>
<!-- 30&#45;&gt;38 -->
<g id="edge16" class="edge"><title>30&#45;&gt;38</title>
<path fill="none" stroke="green" d="M1099.02,-532.372C1085.2,-521.126 1063.84,-503.752 1047.79,-490.694"/>
<polygon fill="green" stroke="green" points="1049.91,-487.91 1039.94,-484.315 1045.49,-493.34 1049.91,-487.91"/>
</g>
<!-- 30&#45;&gt;12 -->
<g id="edge10" class="edge"><title>30&#45;&gt;12</title>
<path fill="none" stroke="red" d="M1113,-526.169C1113,-498.689 1113,-443.877 1113,-397.375 1113,-397.375 1113,-397.375 1113,-241.35 1113,-196.313 1109.43,-179.631 1080,-145.539 1060.05,-122.431 1027.62,-107.972 1004.48,-100.021"/>
<polygon fill="red" stroke="red" points="1005.48,-96.666 994.884,-96.912 1003.32,-103.325 1005.48,-96.666"/>
</g>
<!-- 13 -->
<g id="node47" class="node"><title>13</title>
<ellipse fill="none" stroke="black" cx="359" cy="-396.375" rx="18.2703" ry="18.2703"/>
<text text-anchor="middle" x="359" y="-394.175" font-family="Times New Roman,serif" font-size="9.00">13</text>
</g>
<!-- 50&#45;&gt;13 -->
<g id="edge37" class="edge"><title>50&#45;&gt;13</title>
<path fill="none" stroke="green" d="M385.5,-526.666C380.379,-501.681 370.789,-454.893 364.658,-424.981"/>
<polygon fill="green" stroke="green" points="368.007,-423.89 362.571,-414.796 361.15,-425.295 368.007,-423.89"/>
</g>
<!-- 26&#45;&gt;7 -->
<g id="edge71" class="edge"><title>26&#45;&gt;7</title>
<path fill="none" stroke="green" d="M238.755,-601.503C245.415,-591.258 254.321,-577.557 261.638,-566.299"/>
<polygon fill="green" stroke="green" points="264.577,-568.2 267.092,-557.908 258.708,-564.385 264.577,-568.2"/>
</g>
<!-- 58&#45;&gt;7 -->
<g id="edge97" class="edge"><title>58&#45;&gt;7</title>
<path fill="none" stroke="green" d="M418.48,-609.205C389.681,-596.467 330.253,-570.181 297.642,-555.757"/>
<polygon fill="green" stroke="green" points="299.007,-552.534 288.446,-551.689 296.175,-558.935 299.007,-552.534"/>
</g>
<!-- 111 -->
<g id="node39" class="node"><title>111</title>
<ellipse fill="none" stroke="black" cx="1026" cy="-396.375" rx="21.4286" ry="21.4286"/>
<text text-anchor="middle" x="1026" y="-394.175" font-family="Times New Roman,serif" font-size="9.00">111</text>
</g>
<!-- 38&#45;&gt;111 -->
<g id="edge67" class="edge"><title>38&#45;&gt;111</title>
<path fill="none" stroke="red" d="M1026,-453.531C1026,-445.915 1026,-436.754 1026,-428.06"/>
<polygon fill="red" stroke="red" points="1029.5,-427.824 1026,-417.824 1022.5,-427.824 1029.5,-427.824"/>
</g>
<!-- 38&#45;&gt;12 -->
<g id="edge17" class="edge"><title>38&#45;&gt;12</title>
<path fill="none" stroke="green" d="M1036.03,-456.183C1042.63,-445.801 1050.95,-431.364 1056,-417.588 1071.36,-375.666 1075,-363.594 1075,-318.948 1075,-318.948 1075,-318.948 1075,-241.35 1075,-197.938 1080.01,-181.705 1056,-145.539 1043.18,-126.224 1020.74,-112.064 1003.04,-103.2"/>
<polygon fill="green" stroke="green" points="1004.33,-99.9364 993.791,-98.8215 1001.33,-106.263 1004.33,-99.9364"/>
</g>
<!-- 126 -->
<g id="node40" class="node"><title>126</title>
<ellipse fill="none" stroke="black" cx="1026" cy="-317.948" rx="21.4286" ry="21.4286"/>
<text text-anchor="middle" x="1026" y="-315.748" font-family="Times New Roman,serif" font-size="9.00">126</text>
</g>
<!-- 111&#45;&gt;126 -->
<g id="edge91" class="edge"><title>111&#45;&gt;126</title>
<path fill="none" stroke="green" d="M1026,-374.894C1026,-367.035 1026,-357.891 1026,-349.301"/>
<polygon fill="green" stroke="green" points="1029.5,-349.221 1026,-339.221 1022.5,-349.221 1029.5,-349.221"/>
</g>
<!-- 52 -->
<g id="node41" class="node"><title>52</title>
<ellipse fill="none" stroke="black" cx="1026" cy="-242.35" rx="18.2703" ry="18.2703"/>
<text text-anchor="middle" x="1026" y="-240.15" font-family="Times New Roman,serif" font-size="9.00">52</text>
</g>
<!-- 126&#45;&gt;52 -->
<g id="edge92" class="edge"><title>126&#45;&gt;52</title>
<path fill="none" stroke="red" d="M1026,-296.447C1026,-288.552 1026,-279.402 1026,-270.946"/>
<polygon fill="red" stroke="red" points="1029.5,-270.751 1026,-260.751 1022.5,-270.751 1029.5,-270.751"/>
</g>
<!-- 124 -->
<g id="node42" class="node"><title>124</title>
<ellipse fill="none" stroke="black" cx="1026" cy="-166.752" rx="21.4286" ry="21.4286"/>
<text text-anchor="middle" x="1026" y="-164.552" font-family="Times New Roman,serif" font-size="9.00">124</text>
</g>
<!-- 52&#45;&gt;124 -->
<g id="edge85" class="edge"><title>52&#45;&gt;124</title>
<path fill="none" stroke="green" d="M1026,-223.909C1026,-216.293 1026,-207.131 1026,-198.438"/>
<polygon fill="green" stroke="green" points="1029.5,-198.201 1026,-188.202 1022.5,-198.202 1029.5,-198.201"/>
</g>
<!-- 124&#45;&gt;12 -->
<g id="edge86" class="edge"><title>124&#45;&gt;12</title>
<path fill="none" stroke="green" d="M1014.64,-148.682C1008.1,-138.863 999.788,-126.382 992.641,-115.647"/>
<polygon fill="green" stroke="green" points="995.43,-113.521 986.975,-107.137 989.603,-117.4 995.43,-113.521"/>
</g>
<!-- 7&#45;&gt;40 -->
<g id="edge18" class="edge"><title>7&#45;&gt;40</title>
<path fill="none" stroke="red" d="M275,-529.76C275,-521.477 275,-510.688 275,-500.742"/>
<polygon fill="red" stroke="red" points="278.5,-500.438 275,-490.438 271.5,-500.438 278.5,-500.438"/>
</g>
<!-- 7&#45;&gt;13 -->
<g id="edge5" class="edge"><title>7&#45;&gt;13</title>
<path fill="none" stroke="green" d="M282.017,-531.515C295.811,-507.48 326.692,-453.671 344.872,-421.993"/>
<polygon fill="green" stroke="green" points="348.131,-423.345 350.073,-412.929 342.06,-419.86 348.131,-423.345"/>
</g>
<!-- 12&#45;&gt;5 -->
<g id="edge4" class="edge"><title>12&#45;&gt;5</title>
<path fill="none" stroke="green" d="M959.001,-86.9296C894.095,-75.3007 672.24,-35.5525 602.891,-23.1276"/>
<polygon fill="green" stroke="green" points="603.24,-19.6346 592.78,-21.3161 602.006,-26.5249 603.24,-19.6346"/>
</g>
<!-- 12&#45;&gt;22 -->
<g id="edge28" class="edge"><title>12&#45;&gt;22</title>
<path fill="none" stroke="green" d="M992.703,-81.3344C1014.11,-69.3093 1052.7,-47.6384 1078.08,-33.3814"/>
<polygon fill="green" stroke="green" points="1080.09,-36.2646 1087.1,-28.3159 1076.67,-30.1614 1080.09,-36.2646"/>
</g>
<!-- 17 -->
<g id="node49" class="node"><title>17</title>
<ellipse fill="none" stroke="black" cx="582" cy="-317.948" rx="18.2703" ry="18.2703"/>
<text text-anchor="middle" x="582" y="-315.748" font-family="Times New Roman,serif" font-size="9.00">17</text>
</g>
<!-- 8&#45;&gt;17 -->
<g id="edge68" class="edge"><title>8&#45;&gt;17</title>
<path fill="none" stroke="green" d="M535.602,-748.57C546.695,-714.832 574,-623.851 574,-545.742 574,-545.742 574,-545.742 574,-470.973 574,-427.661 577.278,-377.504 579.638,-347.014"/>
<polygon fill="green" stroke="green" points="583.152,-346.966 580.458,-336.72 576.175,-346.41 583.152,-346.966"/>
</g>
<!-- 40&#45;&gt;13 -->
<g id="edge19" class="edge"><title>40&#45;&gt;13</title>
<path fill="none" stroke="red" d="M288.496,-459.148C301.845,-447.452 322.466,-429.384 337.965,-415.805"/>
<polygon fill="red" stroke="red" points="340.323,-418.393 345.537,-409.17 335.709,-413.128 340.323,-418.393"/>
</g>
<!-- 13&#45;&gt;5 -->
<g id="edge6" class="edge"><title>13&#45;&gt;5</title>
<path fill="none" stroke="red" d="M368.839,-380.557C385.387,-354.159 417,-296.74 417,-243.35 417,-243.35 417,-243.35 417,-165.752 417,-89.1796 517.677,-42.9253 561.747,-26.346"/>
<polygon fill="red" stroke="red" points="562.964,-29.6277 571.174,-22.9304 560.58,-23.0464 562.964,-29.6277"/>
</g>
<!-- 17&#45;&gt;5 -->
<g id="edge69" class="edge"><title>17&#45;&gt;5</title>
<path fill="none" stroke="green" d="M582,-299.225C582,-246.533 582,-91.1858 582,-37.7141"/>
<polygon fill="green" stroke="green" points="585.5,-37.4184 582,-27.4185 578.5,-37.4185 585.5,-37.4184"/>
</g>
</g>
</svg>
