<?xml version="1.0" encoding="UTF-8" standalone="no"?>
<!DOCTYPE svg PUBLIC "-//W3C//DTD SVG 1.1//EN"
 "http://www.w3.org/Graphics/SVG/1.1/DTD/svg11.dtd">
<!-- Generated by graphviz version 2.38.0 (20140413.2041)
 -->
<!-- Title: %3 Pages: 1 -->
<svg width="1247pt" height="1497pt"
 viewBox="0.00 0.00 1247.00 1496.56" xmlns="http://www.w3.org/2000/svg" xmlns:xlink="http://www.w3.org/1999/xlink">
<g id="graph0" class="graph" transform="scale(1 1) rotate(0) translate(4 1492.56)">
<title>%3</title>
<polygon fill="white" stroke="none" points="-4,4 -4,-1492.56 1243,-1492.56 1243,4 -4,4"/>
<!-- 1 -->
<g id="node1" class="node"><title>1</title>
<polygon fill="lightgray" stroke="black" points="1086.5,-1488.56 1065.5,-1488.56 1065.5,-1470.56 1086.5,-1470.56 1086.5,-1488.56"/>
<text text-anchor="middle" x="1076" y="-1477.36" font-family="Times New Roman,serif" font-size="9.00">1</text>
</g>
<!-- 74 -->
<g id="node6" class="node"><title>74</title>
<ellipse fill="none" stroke="black" cx="881" cy="-1416.18" rx="18.2703" ry="18.2703"/>
<text text-anchor="middle" x="881" y="-1413.98" font-family="Times New Roman,serif" font-size="9.00">74</text>
</g>
<!-- 1&#45;&gt;74 -->
<g id="edge33" class="edge"><title>1&#45;&gt;74</title>
<path fill="none" stroke="red" d="M1065.36,-1475.77C1040.67,-1469.22 977.659,-1452.08 926,-1434.56 920.004,-1432.53 913.626,-1430.18 907.613,-1427.88"/>
<polygon fill="red" stroke="red" points="908.561,-1424.49 897.972,-1424.12 906.017,-1431.01 908.561,-1424.49"/>
</g>
<!-- 101 -->
<g id="node7" class="node"><title>101</title>
<ellipse fill="none" stroke="black" cx="904" cy="-1340.58" rx="21.4286" ry="21.4286"/>
<text text-anchor="middle" x="904" y="-1338.38" font-family="Times New Roman,serif" font-size="9.00">101</text>
</g>
<!-- 1&#45;&gt;101 -->
<g id="edge60" class="edge"><title>1&#45;&gt;101</title>
<path fill="none" stroke="green" d="M1065.23,-1472.16C1051.72,-1463.97 1028.01,-1449.1 1009,-1434.56 979.159,-1411.74 947.148,-1382.65 926.422,-1363.14"/>
<polygon fill="green" stroke="green" points="928.726,-1360.5 919.059,-1356.17 923.911,-1365.58 928.726,-1360.5"/>
</g>
<!-- 95 -->
<g id="node10" class="node"><title>95</title>
<ellipse fill="none" stroke="black" cx="1133" cy="-1262.15" rx="18.2703" ry="18.2703"/>
<text text-anchor="middle" x="1133" y="-1259.95" font-family="Times New Roman,serif" font-size="9.00">95</text>
</g>
<!-- 1&#45;&gt;95 -->
<g id="edge85" class="edge"><title>1&#45;&gt;95</title>
<path fill="none" stroke="green" d="M1078.16,-1470.38C1085.97,-1440.88 1112.89,-1339.15 1125.88,-1290.06"/>
<polygon fill="green" stroke="green" points="1129.33,-1290.72 1128.5,-1280.16 1122.56,-1288.93 1129.33,-1290.72"/>
</g>
<!-- 69 -->
<g id="node15" class="node"><title>69</title>
<ellipse fill="none" stroke="black" cx="1036" cy="-1416.18" rx="18.2703" ry="18.2703"/>
<text text-anchor="middle" x="1036" y="-1413.98" font-family="Times New Roman,serif" font-size="9.00">69</text>
</g>
<!-- 1&#45;&gt;69 -->
<g id="edge44" class="edge"><title>1&#45;&gt;69</title>
<path fill="none" stroke="green" d="M1070.77,-1470.54C1065.81,-1462.92 1058.1,-1451.1 1051.21,-1440.51"/>
<polygon fill="green" stroke="green" points="1054.07,-1438.5 1045.68,-1432.03 1048.21,-1442.32 1054.07,-1438.5"/>
</g>
<!-- 19 -->
<g id="node31" class="node"><title>19</title>
<ellipse fill="none" stroke="black" cx="1057" cy="-671.512" rx="18.2703" ry="18.2703"/>
<text text-anchor="middle" x="1057" y="-669.312" font-family="Times New Roman,serif" font-size="9.00">19</text>
</g>
<!-- 1&#45;&gt;19 -->
<g id="edge74" class="edge"><title>1&#45;&gt;19</title>
<path fill="none" stroke="red" d="M1086.66,-1473.43C1116.89,-1458.05 1201,-1409.19 1201,-1341.58 1201,-1341.58 1201,-1341.58 1201,-818.879 1201,-752.216 1124.16,-704.842 1082.74,-684.149"/>
<polygon fill="red" stroke="red" points="1084.05,-680.893 1073.52,-679.69 1081,-687.194 1084.05,-680.893"/>
</g>
<!-- 7 -->
<g id="node45" class="node"><title>7</title>
<ellipse fill="none" stroke="black" cx="864" cy="-525.973" rx="14.7" ry="14.7"/>
<text text-anchor="middle" x="864" y="-523.773" font-family="Times New Roman,serif" font-size="9.00">7</text>
</g>
<!-- 1&#45;&gt;7 -->
<g id="edge2" class="edge"><title>1&#45;&gt;7</title>
<path fill="none" stroke="red" d="M1086.74,-1476.2C1106.79,-1471.35 1150.46,-1458.64 1179,-1434.56 1216.59,-1402.85 1239,-1390.76 1239,-1341.58 1239,-1341.58 1239,-1341.58 1239,-818.879 1239,-640.251 970.771,-554.975 888.017,-532.916"/>
<polygon fill="red" stroke="red" points="888.801,-529.504 878.243,-530.377 887.041,-536.279 888.801,-529.504"/>
</g>
<!-- 2 -->
<g id="node2" class="node"><title>2</title>
<polygon fill="lightgray" stroke="black" points="607.5,-977.247 586.5,-977.247 586.5,-959.247 607.5,-959.247 607.5,-977.247"/>
<text text-anchor="middle" x="597" y="-966.047" font-family="Times New Roman,serif" font-size="9.00">2</text>
</g>
<!-- 5 -->
<g id="node5" class="node"><title>5</title>
<polygon fill="lightblue" stroke="black" points="628.5,-18 607.5,-18 607.5,-0 628.5,-0 628.5,-18"/>
<text text-anchor="middle" x="618" y="-6.8" font-family="Times New Roman,serif" font-size="9.00">5</text>
</g>
<!-- 2&#45;&gt;5 -->
<g id="edge9" class="edge"><title>2&#45;&gt;5</title>
<path fill="none" stroke="green" d="M586.265,-966.665C546.578,-964.243 404.817,-953.167 296,-913.862 153.609,-862.429 0,-896.677 0,-745.281 0,-745.281 0,-745.281 0,-146.983 0,-21.8647 488.93,-10.9493 597.017,-10.0649"/>
<polygon fill="green" stroke="green" points="597.295,-13.5634 607.273,-10.0031 597.253,-6.56351 597.295,-13.5634"/>
</g>
<!-- 35 -->
<g id="node11" class="node"><title>35</title>
<ellipse fill="none" stroke="black" cx="399" cy="-895.477" rx="18.2703" ry="18.2703"/>
<text text-anchor="middle" x="399" y="-893.277" font-family="Times New Roman,serif" font-size="9.00">35</text>
</g>
<!-- 2&#45;&gt;35 -->
<g id="edge11" class="edge"><title>2&#45;&gt;35</title>
<path fill="none" stroke="green" d="M586.355,-963.442C556.248,-952.681 469.82,-921.79 425.663,-906.007"/>
<polygon fill="green" stroke="green" points="426.755,-902.681 416.16,-902.611 424.399,-909.272 426.755,-902.681"/>
</g>
<!-- 43 -->
<g id="node23" class="node"><title>43</title>
<ellipse fill="none" stroke="black" cx="589" cy="-744.281" rx="18.2703" ry="18.2703"/>
<text text-anchor="middle" x="589" y="-742.081" font-family="Times New Roman,serif" font-size="9.00">43</text>
</g>
<!-- 2&#45;&gt;43 -->
<g id="edge12" class="edge"><title>2&#45;&gt;43</title>
<path fill="none" stroke="red" d="M596.706,-959.084C595.624,-929.062 591.833,-823.893 590.003,-773.122"/>
<polygon fill="red" stroke="red" points="593.492,-772.743 589.634,-762.875 586.497,-772.995 593.492,-772.743"/>
</g>
<!-- 54 -->
<g id="node24" class="node"><title>54</title>
<ellipse fill="none" stroke="black" cx="973" cy="-744.281" rx="18.2703" ry="18.2703"/>
<text text-anchor="middle" x="973" y="-742.081" font-family="Times New Roman,serif" font-size="9.00">54</text>
</g>
<!-- 2&#45;&gt;54 -->
<g id="edge49" class="edge"><title>2&#45;&gt;54</title>
<path fill="none" stroke="green" d="M607.729,-964.487C631.932,-957.986 692.158,-940.24 737,-913.862 805.569,-873.527 808.201,-843.378 874,-798.666 897.842,-782.465 927.107,-767.197 947.612,-757.173"/>
<polygon fill="green" stroke="green" points="949.151,-760.317 956.639,-752.822 946.111,-754.011 949.151,-760.317"/>
</g>
<!-- 30 -->
<g id="node36" class="node"><title>30</title>
<ellipse fill="none" stroke="black" cx="312" cy="-525.973" rx="18.2703" ry="18.2703"/>
<text text-anchor="middle" x="312" y="-523.773" font-family="Times New Roman,serif" font-size="9.00">30</text>
</g>
<!-- 2&#45;&gt;30 -->
<g id="edge13" class="edge"><title>2&#45;&gt;30</title>
<path fill="none" stroke="green" d="M586.15,-966.311C552.7,-963.09 448.791,-950.566 372,-913.862 282.848,-871.25 243.88,-855.117 209,-762.666 178.262,-681.193 254.113,-587.086 292.007,-546.864"/>
<polygon fill="green" stroke="green" points="294.625,-549.191 299.037,-539.558 289.581,-544.337 294.625,-549.191"/>
</g>
<!-- 50 -->
<g id="node37" class="node"><title>50</title>
<ellipse fill="none" stroke="black" cx="782" cy="-525.973" rx="18.2703" ry="18.2703"/>
<text text-anchor="middle" x="782" y="-523.773" font-family="Times New Roman,serif" font-size="9.00">50</text>
</g>
<!-- 2&#45;&gt;50 -->
<g id="edge34" class="edge"><title>2&#45;&gt;50</title>
<path fill="none" stroke="red" d="M607.508,-961.241C643.397,-939.957 760.469,-863.936 789,-762.666 809.613,-689.499 796.64,-598.469 787.959,-553.986"/>
<polygon fill="red" stroke="red" points="791.344,-553.069 785.92,-543.968 784.485,-554.465 791.344,-553.069"/>
</g>
<!-- 2&#45;&gt;7 -->
<g id="edge3" class="edge"><title>2&#45;&gt;7</title>
<path fill="none" stroke="red" d="M598.846,-959.135C608.287,-917.671 650.867,-731.156 654,-725.897 691.18,-663.489 723.487,-667.32 776,-617.127 801.48,-592.773 829.753,-563.355 847.205,-544.899"/>
<polygon fill="red" stroke="red" points="849.887,-547.157 854.198,-537.478 844.792,-542.356 849.887,-547.157"/>
</g>
<!-- 3 -->
<g id="node3" class="node"><title>3</title>
<polygon fill="lightgray" stroke="black" points="408.5,-828.879 387.5,-828.879 387.5,-810.879 408.5,-810.879 408.5,-828.879"/>
<text text-anchor="middle" x="398" y="-817.679" font-family="Times New Roman,serif" font-size="9.00">3</text>
</g>
<!-- 3&#45;&gt;5 -->
<g id="edge1" class="edge"><title>3&#45;&gt;5</title>
<path fill="none" stroke="green" d="M397.015,-810.661C395.21,-794.439 391.756,-757.162 394,-725.897 398.679,-660.71 403.265,-644.649 415,-580.357 437.901,-454.894 477,-427.715 477,-300.179 477,-300.179 477,-300.179 477,-146.983 477,-80.2509 559.253,-35.5458 598.114,-18.1489"/>
<polygon fill="green" stroke="green" points="599.606,-21.317 607.402,-14.143 596.834,-14.8893 599.606,-21.317"/>
</g>
<!-- 46 -->
<g id="node13" class="node"><title>46</title>
<ellipse fill="none" stroke="black" cx="236" cy="-744.281" rx="18.2703" ry="18.2703"/>
<text text-anchor="middle" x="236" y="-742.081" font-family="Times New Roman,serif" font-size="9.00">46</text>
</g>
<!-- 3&#45;&gt;46 -->
<g id="edge19" class="edge"><title>3&#45;&gt;46</title>
<path fill="none" stroke="red" d="M387.317,-815.058C364.273,-806.673 308.389,-785.574 264,-762.666 262.633,-761.961 261.245,-761.212 259.855,-760.437"/>
<polygon fill="red" stroke="red" points="261.247,-757.194 250.858,-755.113 257.682,-763.218 261.247,-757.194"/>
</g>
<!-- 83 -->
<g id="node16" class="node"><title>83</title>
<ellipse fill="none" stroke="black" cx="421" cy="-744.281" rx="18.2703" ry="18.2703"/>
<text text-anchor="middle" x="421" y="-742.081" font-family="Times New Roman,serif" font-size="9.00">83</text>
</g>
<!-- 3&#45;&gt;83 -->
<g id="edge58" class="edge"><title>3&#45;&gt;83</title>
<path fill="none" stroke="red" d="M400.549,-810.722C403.457,-801.417 408.363,-785.718 412.641,-772.028"/>
<polygon fill="red" stroke="red" points="416.105,-772.68 415.747,-762.091 409.423,-770.592 416.105,-772.68"/>
</g>
<!-- 29 -->
<g id="node28" class="node"><title>29</title>
<ellipse fill="none" stroke="black" cx="295" cy="-671.512" rx="18.2703" ry="18.2703"/>
<text text-anchor="middle" x="295" y="-669.312" font-family="Times New Roman,serif" font-size="9.00">29</text>
</g>
<!-- 3&#45;&gt;29 -->
<g id="edge25" class="edge"><title>3&#45;&gt;29</title>
<path fill="none" stroke="green" d="M392.167,-810.591C376.697,-788.607 334.214,-728.236 310.873,-695.069"/>
<polygon fill="green" stroke="green" points="313.725,-693.039 305.108,-686.875 308,-697.068 313.725,-693.039"/>
</g>
<!-- 36 -->
<g id="node29" class="node"><title>36</title>
<ellipse fill="none" stroke="black" cx="488" cy="-671.512" rx="18.2703" ry="18.2703"/>
<text text-anchor="middle" x="488" y="-669.312" font-family="Times New Roman,serif" font-size="9.00">36</text>
</g>
<!-- 3&#45;&gt;36 -->
<g id="edge14" class="edge"><title>3&#45;&gt;36</title>
<path fill="none" stroke="red" d="M406.688,-810.794C417.445,-800.435 435.834,-781.552 448,-762.666 460.988,-742.504 471.738,-717.417 478.81,-698.83"/>
<polygon fill="red" stroke="red" points="482.169,-699.838 482.352,-689.245 475.603,-697.412 482.169,-699.838"/>
</g>
<!-- 3&#45;&gt;7 -->
<g id="edge7" class="edge"><title>3&#45;&gt;7</title>
<path fill="none" stroke="red" d="M408.783,-811.181C423.414,-800.625 450.224,-780.89 472,-762.666 527.127,-716.531 527.902,-687.565 591,-653.127 646.638,-622.76 671.174,-643.088 729,-617.127 773.618,-597.095 819.781,-562.793 844.891,-542.774"/>
<polygon fill="red" stroke="red" points="847.28,-545.343 852.857,-536.335 842.88,-539.899 847.28,-545.343"/>
</g>
<!-- 4 -->
<g id="node4" class="node"><title>4</title>
<polygon fill="lightgray" stroke="black" points="732.5,-828.879 711.5,-828.879 711.5,-810.879 732.5,-810.879 732.5,-828.879"/>
<text text-anchor="middle" x="722" y="-817.679" font-family="Times New Roman,serif" font-size="9.00">4</text>
</g>
<!-- 4&#45;&gt;5 -->
<g id="edge70" class="edge"><title>4&#45;&gt;5</title>
<path fill="none" stroke="green" d="M728.877,-810.798C737.193,-800.442 750.73,-781.562 756,-762.666 760.39,-746.925 761.141,-741.409 756,-725.897 737.037,-668.683 699.792,-672.066 675,-617.127 658.157,-579.803 656,-567.921 656,-526.973 656,-526.973 656,-526.973 656,-146.983 656,-102.713 637.344,-53.2289 626.175,-27.572"/>
<polygon fill="green" stroke="green" points="629.218,-25.8038 621.924,-18.1197 622.834,-28.6754 629.218,-25.8038"/>
</g>
<!-- 47 -->
<g id="node14" class="node"><title>47</title>
<ellipse fill="none" stroke="black" cx="729" cy="-744.281" rx="18.2703" ry="18.2703"/>
<text text-anchor="middle" x="729" y="-742.081" font-family="Times New Roman,serif" font-size="9.00">47</text>
</g>
<!-- 4&#45;&gt;47 -->
<g id="edge39" class="edge"><title>4&#45;&gt;47</title>
<path fill="none" stroke="red" d="M722.776,-810.722C723.641,-801.626 725.087,-786.421 726.368,-772.955"/>
<polygon fill="red" stroke="red" points="729.883,-772.966 727.345,-762.679 722.914,-772.303 729.883,-772.966"/>
</g>
<!-- 11 -->
<g id="node30" class="node"><title>11</title>
<ellipse fill="none" stroke="black" cx="927" cy="-671.512" rx="18.2703" ry="18.2703"/>
<text text-anchor="middle" x="927" y="-669.312" font-family="Times New Roman,serif" font-size="9.00">11</text>
</g>
<!-- 4&#45;&gt;11 -->
<g id="edge72" class="edge"><title>4&#45;&gt;11</title>
<path fill="none" stroke="green" d="M732.621,-814.24C752.143,-805.489 794.688,-785.375 827,-762.666 857.221,-741.427 888.236,-712.057 907.549,-692.687"/>
<polygon fill="green" stroke="green" points="910.063,-695.122 914.592,-685.544 905.079,-690.207 910.063,-695.122"/>
</g>
<!-- 4&#45;&gt;7 -->
<g id="edge8" class="edge"><title>4&#45;&gt;7</title>
<path fill="none" stroke="red" d="M732.627,-812.622C747.326,-803.448 773.768,-784.992 789,-762.666 835.505,-694.506 854.452,-595.876 861.01,-550.92"/>
<polygon fill="red" stroke="red" points="864.487,-551.327 862.388,-540.942 857.553,-550.369 864.487,-551.327"/>
</g>
<!-- 8 -->
<g id="node47" class="node"><title>8</title>
<ellipse fill="none" stroke="black" cx="678" cy="-744.281" rx="14.7" ry="14.7"/>
<text text-anchor="middle" x="678" y="-742.081" font-family="Times New Roman,serif" font-size="9.00">8</text>
</g>
<!-- 4&#45;&gt;8 -->
<g id="edge61" class="edge"><title>4&#45;&gt;8</title>
<path fill="none" stroke="green" d="M717.123,-810.722C710.772,-800.099 699.44,-781.144 690.601,-766.358"/>
<polygon fill="green" stroke="green" points="693.365,-764.161 685.23,-757.374 687.357,-767.753 693.365,-764.161"/>
</g>
<!-- 74&#45;&gt;101 -->
<g id="edge50" class="edge"><title>74&#45;&gt;101</title>
<path fill="none" stroke="red" d="M886.219,-1398.48C888.769,-1390.32 891.914,-1380.25 894.846,-1370.87"/>
<polygon fill="red" stroke="red" points="898.264,-1371.67 897.906,-1361.08 891.582,-1369.58 898.264,-1371.67"/>
</g>
<!-- 64 -->
<g id="node9" class="node"><title>64</title>
<ellipse fill="none" stroke="black" cx="893" cy="-1186.56" rx="18.2703" ry="18.2703"/>
<text text-anchor="middle" x="893" y="-1184.36" font-family="Times New Roman,serif" font-size="9.00">64</text>
</g>
<!-- 74&#45;&gt;64 -->
<g id="edge53" class="edge"><title>74&#45;&gt;64</title>
<path fill="none" stroke="red" d="M877.893,-1397.71C872.81,-1366.14 864.214,-1297.62 874,-1240.94 875.612,-1231.6 878.7,-1221.74 881.926,-1213.06"/>
<polygon fill="red" stroke="red" points="885.275,-1214.11 885.696,-1203.52 878.765,-1211.53 885.275,-1214.11"/>
</g>
<!-- 74&#45;&gt;30 -->
<g id="edge51" class="edge"><title>74&#45;&gt;30</title>
<path fill="none" stroke="green" d="M862.674,-1413.72C742.849,-1403.97 76,-1346 76,-1263.15 76,-1263.15 76,-1263.15 76,-818.879 76,-685.572 226.681,-578.926 287.24,-541.448"/>
<polygon fill="green" stroke="green" points="289.421,-544.219 296.149,-536.034 285.786,-538.237 289.421,-544.219"/>
</g>
<!-- 122 -->
<g id="node8" class="node"><title>122</title>
<ellipse fill="none" stroke="black" cx="904" cy="-1262.15" rx="21.4286" ry="21.4286"/>
<text text-anchor="middle" x="904" y="-1259.95" font-family="Times New Roman,serif" font-size="9.00">122</text>
</g>
<!-- 101&#45;&gt;122 -->
<g id="edge79" class="edge"><title>101&#45;&gt;122</title>
<path fill="none" stroke="red" d="M904,-1319.1C904,-1311.24 904,-1302.1 904,-1293.51"/>
<polygon fill="red" stroke="red" points="907.5,-1293.43 904,-1283.43 900.5,-1293.43 907.5,-1293.43"/>
</g>
<!-- 101&#45;&gt;46 -->
<g id="edge69" class="edge"><title>101&#45;&gt;46</title>
<path fill="none" stroke="green" d="M882.779,-1339.51C767.327,-1338.58 220,-1326.84 220,-1187.56 220,-1187.56 220,-1187.56 220,-894.477 220,-851.787 226.556,-802.615 231.275,-772.753"/>
<polygon fill="green" stroke="green" points="234.764,-773.105 232.915,-762.673 227.855,-771.981 234.764,-773.105"/>
</g>
<!-- 101&#45;&gt;11 -->
<g id="edge62" class="edge"><title>101&#45;&gt;11</title>
<path fill="none" stroke="green" d="M924.283,-1333.51C971.93,-1317.87 1087,-1271.4 1087,-1187.56 1087,-1187.56 1087,-1187.56 1087,-894.477 1087,-810.163 1054.82,-789.952 1000,-725.897 986.388,-709.993 967.154,-696.174 951.846,-686.583"/>
<polygon fill="green" stroke="green" points="953.275,-683.357 942.907,-681.176 949.652,-689.347 953.275,-683.357"/>
</g>
<!-- 122&#45;&gt;64 -->
<g id="edge80" class="edge"><title>122&#45;&gt;64</title>
<path fill="none" stroke="green" d="M900.994,-1241.04C899.8,-1233.05 898.407,-1223.74 897.122,-1215.13"/>
<polygon fill="green" stroke="green" points="900.568,-1214.51 895.628,-1205.14 893.645,-1215.54 900.568,-1214.51"/>
</g>
<!-- 122&#45;&gt;19 -->
<g id="edge89" class="edge"><title>122&#45;&gt;19</title>
<path fill="none" stroke="green" d="M923.255,-1252.78C962.698,-1234.19 1049,-1185.43 1049,-1114.79 1049,-1114.79 1049,-1114.79 1049,-894.477 1049,-824.418 1053.03,-742.002 1055.37,-700.056"/>
<polygon fill="green" stroke="green" points="1058.86,-700.239 1055.94,-690.056 1051.88,-699.841 1058.86,-700.239"/>
</g>
<!-- 64&#45;&gt;5 -->
<g id="edge84" class="edge"><title>64&#45;&gt;5</title>
<path fill="none" stroke="red" d="M910.715,-1180.86C970.783,-1163.78 1163,-1098.98 1163,-969.247 1163,-969.247 1163,-969.247 1163,-146.983 1163,-36.8374 739.009,-14.4258 638.967,-10.6707"/>
<polygon fill="red" stroke="red" points="639.004,-7.16996 628.887,-10.3158 638.757,-14.1656 639.004,-7.16996"/>
</g>
<!-- 49 -->
<g id="node12" class="node"><title>49</title>
<ellipse fill="none" stroke="black" cx="883" cy="-1113.79" rx="18.2703" ry="18.2703"/>
<text text-anchor="middle" x="883" y="-1111.59" font-family="Times New Roman,serif" font-size="9.00">49</text>
</g>
<!-- 64&#45;&gt;49 -->
<g id="edge30" class="edge"><title>64&#45;&gt;49</title>
<path fill="none" stroke="green" d="M890.528,-1168.06C889.426,-1160.26 888.102,-1150.89 886.873,-1142.2"/>
<polygon fill="green" stroke="green" points="890.308,-1141.49 885.443,-1132.08 883.377,-1142.47 890.308,-1141.49"/>
</g>
<!-- 59 -->
<g id="node21" class="node"><title>59</title>
<ellipse fill="none" stroke="black" cx="924" cy="-895.477" rx="18.2703" ry="18.2703"/>
<text text-anchor="middle" x="924" y="-893.277" font-family="Times New Roman,serif" font-size="9.00">59</text>
</g>
<!-- 64&#45;&gt;59 -->
<g id="edge78" class="edge"><title>64&#45;&gt;59</title>
<path fill="none" stroke="red" d="M899.45,-1169C903.207,-1158.59 907.653,-1144.79 910,-1132.17 923.808,-1057.9 924.991,-968.405 924.57,-924.105"/>
<polygon fill="red" stroke="red" points="928.07,-924.056 924.439,-914.103 921.07,-924.148 928.07,-924.056"/>
</g>
<!-- 12 -->
<g id="node46" class="node"><title>12</title>
<ellipse fill="none" stroke="black" cx="301" cy="-72.3848" rx="18.2703" ry="18.2703"/>
<text text-anchor="middle" x="301" y="-70.1848" font-family="Times New Roman,serif" font-size="9.00">12</text>
</g>
<!-- 64&#45;&gt;12 -->
<g id="edge43" class="edge"><title>64&#45;&gt;12</title>
<path fill="none" stroke="red" d="M875.142,-1182.12C752.361,-1158.02 38,-1009.69 38,-820.879 38,-820.879 38,-820.879 38,-222.581 38,-173.7 53.2005,-156.5 92,-126.77 146.123,-85.2978 228.977,-75.8132 272.318,-73.7939"/>
<polygon fill="red" stroke="red" points="272.577,-77.2869 282.444,-73.4264 272.323,-70.2915 272.577,-77.2869"/>
</g>
<!-- 63 -->
<g id="node27" class="node"><title>63</title>
<ellipse fill="none" stroke="black" cx="872" cy="-671.512" rx="18.2703" ry="18.2703"/>
<text text-anchor="middle" x="872" y="-669.312" font-family="Times New Roman,serif" font-size="9.00">63</text>
</g>
<!-- 95&#45;&gt;63 -->
<g id="edge86" class="edge"><title>95&#45;&gt;63</title>
<path fill="none" stroke="green" d="M1131.42,-1243.6C1129.09,-1216.14 1125,-1161.36 1125,-1114.79 1125,-1114.79 1125,-1114.79 1125,-818.879 1125,-703.613 1003.76,-740.095 900,-689.897 898.616,-689.227 897.214,-688.506 895.812,-687.753"/>
<polygon fill="green" stroke="green" points="897.186,-684.502 886.783,-682.494 893.663,-690.551 897.186,-684.502"/>
</g>
<!-- 55 -->
<g id="node19" class="node"><title>55</title>
<ellipse fill="none" stroke="black" cx="551" cy="-819.879" rx="18.2703" ry="18.2703"/>
<text text-anchor="middle" x="551" y="-817.679" font-family="Times New Roman,serif" font-size="9.00">55</text>
</g>
<!-- 35&#45;&gt;55 -->
<g id="edge75" class="edge"><title>35&#45;&gt;55</title>
<path fill="none" stroke="green" d="M416.062,-887.8C439.668,-878.357 483.408,-860.122 519,-841.092 521.751,-839.622 524.582,-838.002 527.368,-836.338"/>
<polygon fill="green" stroke="green" points="529.314,-839.249 535.968,-831.004 525.625,-833.301 529.314,-839.249"/>
</g>
<!-- 135 -->
<g id="node20" class="node"><title>135</title>
<ellipse fill="none" stroke="black" cx="308" cy="-819.879" rx="21.4286" ry="21.4286"/>
<text text-anchor="middle" x="308" y="-817.679" font-family="Times New Roman,serif" font-size="9.00">135</text>
</g>
<!-- 35&#45;&gt;135 -->
<g id="edge96" class="edge"><title>35&#45;&gt;135</title>
<path fill="none" stroke="red" d="M385.179,-883.299C371.079,-871.895 348.92,-853.974 331.956,-840.254"/>
<polygon fill="red" stroke="red" points="334.08,-837.47 324.104,-833.903 329.678,-842.913 334.08,-837.47"/>
</g>
<!-- 38 -->
<g id="node40" class="node"><title>38</title>
<ellipse fill="none" stroke="black" cx="277" cy="-453.203" rx="18.2703" ry="18.2703"/>
<text text-anchor="middle" x="277" y="-451.003" font-family="Times New Roman,serif" font-size="9.00">38</text>
</g>
<!-- 35&#45;&gt;38 -->
<g id="edge22" class="edge"><title>35&#45;&gt;38</title>
<path fill="none" stroke="green" d="M381.328,-889.357C356.588,-881.622 310.967,-865.249 278,-841.092 240.552,-813.652 230.119,-804.011 209,-762.666 171.542,-689.336 148.73,-658.053 176,-580.357 191.694,-535.643 230.646,-495.015 255.334,-472.546"/>
<polygon fill="green" stroke="green" points="257.953,-474.901 263.105,-465.643 253.304,-469.668 257.953,-474.901"/>
</g>
<!-- 35&#45;&gt;12 -->
<g id="edge31" class="edge"><title>35&#45;&gt;12</title>
<path fill="none" stroke="green" d="M380.78,-892.976C347.149,-889.377 274.435,-877.63 227,-841.092 126.758,-763.881 76,-726.273 76,-599.742 76,-599.742 76,-599.742 76,-222.581 76,-129.065 212.671,-90.6916 272.977,-78.3111"/>
<polygon fill="green" stroke="green" points="273.826,-81.7115 282.968,-76.3559 272.482,-74.8418 273.826,-81.7115"/>
</g>
<!-- 17 -->
<g id="node50" class="node"><title>17</title>
<ellipse fill="none" stroke="black" cx="618" cy="-671.512" rx="18.2703" ry="18.2703"/>
<text text-anchor="middle" x="618" y="-669.312" font-family="Times New Roman,serif" font-size="9.00">17</text>
</g>
<!-- 35&#45;&gt;17 -->
<g id="edge98" class="edge"><title>35&#45;&gt;17</title>
<path fill="none" stroke="green" d="M411.094,-881.616C437.905,-853.184 504.511,-782.98 562,-725.897 573.545,-714.433 586.702,-701.866 597.36,-691.807"/>
<polygon fill="green" stroke="green" points="600.07,-694.063 604.956,-684.662 595.274,-688.964 600.07,-694.063"/>
</g>
<!-- 82 -->
<g id="node17" class="node"><title>82</title>
<ellipse fill="none" stroke="black" cx="883" cy="-1041.02" rx="18.2703" ry="18.2703"/>
<text text-anchor="middle" x="883" y="-1038.82" font-family="Times New Roman,serif" font-size="9.00">82</text>
</g>
<!-- 49&#45;&gt;82 -->
<g id="edge41" class="edge"><title>49&#45;&gt;82</title>
<path fill="none" stroke="green" d="M883,-1095.29C883,-1087.61 883,-1078.4 883,-1069.82"/>
<polygon fill="green" stroke="green" points="886.5,-1069.8 883,-1059.8 879.5,-1069.8 886.5,-1069.8"/>
</g>
<!-- 56 -->
<g id="node18" class="node"><title>56</title>
<ellipse fill="none" stroke="black" cx="879" cy="-968.247" rx="18.2703" ry="18.2703"/>
<text text-anchor="middle" x="879" y="-966.047" font-family="Times New Roman,serif" font-size="9.00">56</text>
</g>
<!-- 49&#45;&gt;56 -->
<g id="edge71" class="edge"><title>49&#45;&gt;56</title>
<path fill="none" stroke="red" d="M873.198,-1098.1C866.911,-1087.77 859.325,-1073.34 856,-1059.4 852.209,-1043.5 852.699,-1038.64 856,-1022.63 858.036,-1012.76 861.984,-1002.47 866.042,-993.581"/>
<polygon fill="red" stroke="red" points="869.193,-995.105 870.404,-984.579 862.894,-992.052 869.193,-995.105"/>
</g>
<!-- 49&#45;&gt;54 -->
<g id="edge23" class="edge"><title>49&#45;&gt;54</title>
<path fill="none" stroke="green" d="M891.857,-1097.27C897.574,-1086.81 904.873,-1072.56 910,-1059.4 934.39,-996.782 937.505,-979.695 951,-913.862 961.108,-864.55 967.512,-806.124 970.661,-772.611"/>
<polygon fill="green" stroke="green" points="974.147,-772.926 971.57,-762.649 967.176,-772.29 974.147,-772.926"/>
</g>
<!-- 49&#45;&gt;11 -->
<g id="edge28" class="edge"><title>49&#45;&gt;11</title>
<path fill="none" stroke="green" d="M869.875,-1100.75C846.25,-1077.71 799,-1024.68 799,-969.247 799,-969.247 799,-969.247 799,-894.477 799,-872.131 877.858,-748.117 911.781,-695.801"/>
<polygon fill="green" stroke="green" points="914.863,-697.482 917.379,-687.19 908.994,-693.667 914.863,-697.482"/>
</g>
<!-- 46&#45;&gt;29 -->
<g id="edge20" class="edge"><title>46&#45;&gt;29</title>
<path fill="none" stroke="green" d="M247.376,-729.636C255.783,-719.552 267.396,-705.622 277.05,-694.043"/>
<polygon fill="green" stroke="green" points="279.944,-696.037 283.659,-686.115 274.567,-691.555 279.944,-696.037"/>
</g>
<!-- 46&#45;&gt;19 -->
<g id="edge32" class="edge"><title>46&#45;&gt;19</title>
<path fill="none" stroke="red" d="M250.432,-732.412C254.604,-729.814 259.305,-727.369 264,-725.897 410.507,-679.953 801.381,-706.701 954,-689.897 979.481,-687.091 1008.23,-682.083 1028.86,-678.16"/>
<polygon fill="red" stroke="red" points="1029.7,-681.563 1038.85,-676.225 1028.37,-674.69 1029.7,-681.563"/>
</g>
<!-- 46&#45;&gt;38 -->
<g id="edge83" class="edge"><title>46&#45;&gt;38</title>
<path fill="none" stroke="green" d="M238.503,-725.633C245.41,-676.934 264.776,-540.392 273.108,-481.645"/>
<polygon fill="green" stroke="green" points="276.591,-482.013 274.53,-471.62 269.66,-481.029 276.591,-482.013"/>
</g>
<!-- 47&#45;&gt;29 -->
<g id="edge48" class="edge"><title>47&#45;&gt;29</title>
<path fill="none" stroke="green" d="M714.806,-732.359C710.853,-729.828 706.425,-727.429 702,-725.897 542.113,-670.527 483.336,-743.951 323,-689.897 321.543,-689.405 320.083,-688.826 318.637,-688.181"/>
<polygon fill="green" stroke="green" points="319.939,-684.907 309.475,-683.249 316.621,-691.071 319.939,-684.907"/>
</g>
<!-- 47&#45;&gt;11 -->
<g id="edge40" class="edge"><title>47&#45;&gt;11</title>
<path fill="none" stroke="green" d="M746.917,-739.233C778.522,-731.751 845.854,-714.267 899,-689.897 900.398,-689.256 901.811,-688.558 903.22,-687.822"/>
<polygon fill="green" stroke="green" points="905.35,-690.634 912.274,-682.615 901.86,-684.566 905.35,-690.634"/>
</g>
<!-- 69&#45;&gt;54 -->
<g id="edge94" class="edge"><title>69&#45;&gt;54</title>
<path fill="none" stroke="red" d="M1025.6,-1400.9C1007.7,-1374.88 973,-1317.44 973,-1263.15 973,-1263.15 973,-1263.15 973,-1185.56 973,-1032.43 978.444,-994.211 980,-841.092 980.192,-822.237 981.228,-817.482 980,-798.666 979.443,-790.14 978.392,-780.897 977.27,-772.535"/>
<polygon fill="red" stroke="red" points="980.721,-771.941 975.843,-762.536 973.791,-772.93 980.721,-771.941"/>
</g>
<!-- 94 -->
<g id="node25" class="node"><title>94</title>
<ellipse fill="none" stroke="black" cx="1036" cy="-1340.58" rx="18.2703" ry="18.2703"/>
<text text-anchor="middle" x="1036" y="-1338.38" font-family="Times New Roman,serif" font-size="9.00">94</text>
</g>
<!-- 69&#45;&gt;94 -->
<g id="edge46" class="edge"><title>69&#45;&gt;94</title>
<path fill="none" stroke="green" d="M1036,-1397.74C1036,-1389.27 1036,-1378.9 1036,-1369.39"/>
<polygon fill="green" stroke="green" points="1039.5,-1369.15 1036,-1359.15 1032.5,-1369.15 1039.5,-1369.15"/>
</g>
<!-- 83&#45;&gt;36 -->
<g id="edge59" class="edge"><title>83&#45;&gt;36</title>
<path fill="none" stroke="green" d="M433.289,-730.301C443.206,-719.826 457.335,-704.902 468.751,-692.844"/>
<polygon fill="green" stroke="green" points="471.456,-695.078 475.789,-685.41 466.372,-690.265 471.456,-695.078"/>
</g>
<!-- 82&#45;&gt;56 -->
<g id="edge42" class="edge"><title>82&#45;&gt;56</title>
<path fill="none" stroke="red" d="M882.011,-1022.52C881.577,-1014.84 881.057,-1005.63 880.571,-997.047"/>
<polygon fill="red" stroke="red" points="884.064,-996.817 880.005,-987.031 877.075,-997.212 884.064,-996.817"/>
</g>
<!-- 56&#45;&gt;59 -->
<g id="edge47" class="edge"><title>56&#45;&gt;59</title>
<path fill="none" stroke="green" d="M888.543,-952.238C894.509,-942.856 902.319,-930.574 909.09,-919.925"/>
<polygon fill="green" stroke="green" points="912.058,-921.781 914.47,-911.464 906.151,-918.025 912.058,-921.781"/>
</g>
<!-- 56&#45;&gt;54 -->
<g id="edge52" class="edge"><title>56&#45;&gt;54</title>
<path fill="none" stroke="red" d="M875.972,-950.019C871.238,-917.793 865.352,-847.267 894,-798.666 900.451,-787.722 927.566,-770.71 948.247,-758.841"/>
<polygon fill="red" stroke="red" points="950.21,-761.752 957.199,-753.79 946.77,-755.656 950.21,-761.752"/>
</g>
<!-- 55&#45;&gt;43 -->
<g id="edge76" class="edge"><title>55&#45;&gt;43</title>
<path fill="none" stroke="green" d="M559.059,-803.271C564.047,-793.611 570.56,-780.995 576.238,-769.999"/>
<polygon fill="green" stroke="green" points="579.475,-771.358 580.953,-760.867 573.255,-768.147 579.475,-771.358"/>
</g>
<!-- 44 -->
<g id="node26" class="node"><title>44</title>
<ellipse fill="none" stroke="black" cx="291" cy="-744.281" rx="18.2703" ry="18.2703"/>
<text text-anchor="middle" x="291" y="-742.081" font-family="Times New Roman,serif" font-size="9.00">44</text>
</g>
<!-- 135&#45;&gt;44 -->
<g id="edge97" class="edge"><title>135&#45;&gt;44</title>
<path fill="none" stroke="green" d="M303.444,-799.156C301.55,-790.955 299.319,-781.299 297.274,-772.443"/>
<polygon fill="green" stroke="green" points="300.65,-771.507 294.989,-762.551 293.83,-773.082 300.65,-771.507"/>
</g>
<!-- 129 -->
<g id="node22" class="node"><title>129</title>
<ellipse fill="none" stroke="black" cx="924" cy="-819.879" rx="21.4286" ry="21.4286"/>
<text text-anchor="middle" x="924" y="-817.679" font-family="Times New Roman,serif" font-size="9.00">129</text>
</g>
<!-- 59&#45;&gt;129 -->
<g id="edge90" class="edge"><title>59&#45;&gt;129</title>
<path fill="none" stroke="red" d="M924,-877.036C924,-869.42 924,-860.258 924,-851.565"/>
<polygon fill="red" stroke="red" points="927.5,-851.328 924,-841.328 920.5,-851.329 927.5,-851.328"/>
</g>
<!-- 129&#45;&gt;54 -->
<g id="edge91" class="edge"><title>129&#45;&gt;54</title>
<path fill="none" stroke="red" d="M935.365,-801.809C941.903,-791.99 950.212,-779.509 957.359,-768.774"/>
<polygon fill="red" stroke="red" points="960.397,-770.527 963.025,-760.264 954.57,-766.648 960.397,-770.527"/>
</g>
<!-- 43&#45;&gt;63 -->
<g id="edge29" class="edge"><title>43&#45;&gt;63</title>
<path fill="none" stroke="green" d="M606.63,-738.458C619.69,-734.911 637.931,-730.012 654,-725.897 722.233,-708.419 802.799,-689.006 844.261,-679.106"/>
<polygon fill="green" stroke="green" points="845.25,-682.468 854.166,-676.744 843.626,-675.659 845.25,-682.468"/>
</g>
<!-- 53 -->
<g id="node33" class="node"><title>53</title>
<ellipse fill="none" stroke="black" cx="350" cy="-671.512" rx="18.2703" ry="18.2703"/>
<text text-anchor="middle" x="350" y="-669.312" font-family="Times New Roman,serif" font-size="9.00">53</text>
</g>
<!-- 43&#45;&gt;53 -->
<g id="edge54" class="edge"><title>43&#45;&gt;53</title>
<path fill="none" stroke="green" d="M571.426,-738.077C530.162,-725.859 426.839,-695.264 377.311,-680.599"/>
<polygon fill="green" stroke="green" points="378.182,-677.207 367.6,-677.723 376.195,-683.918 378.182,-677.207"/>
</g>
<!-- 54&#45;&gt;11 -->
<g id="edge24" class="edge"><title>54&#45;&gt;11</title>
<path fill="none" stroke="red" d="M963.245,-728.273C957.146,-718.89 949.162,-706.608 942.241,-695.96"/>
<polygon fill="red" stroke="red" points="945.126,-693.976 936.741,-687.499 939.257,-697.79 945.126,-693.976"/>
</g>
<!-- 44&#45;&gt;29 -->
<g id="edge95" class="edge"><title>44&#45;&gt;29</title>
<path fill="none" stroke="green" d="M291.989,-725.788C292.423,-718.105 292.943,-708.896 293.429,-700.312"/>
<polygon fill="green" stroke="green" points="296.925,-700.477 293.995,-690.296 289.936,-700.082 296.925,-700.477"/>
</g>
<!-- 48 -->
<g id="node34" class="node"><title>48</title>
<ellipse fill="none" stroke="black" cx="312" cy="-598.742" rx="18.2703" ry="18.2703"/>
<text text-anchor="middle" x="312" y="-596.542" font-family="Times New Roman,serif" font-size="9.00">48</text>
</g>
<!-- 29&#45;&gt;48 -->
<g id="edge37" class="edge"><title>29&#45;&gt;48</title>
<path fill="none" stroke="green" d="M299.115,-653.38C301.036,-645.383 303.369,-635.673 305.519,-626.723"/>
<polygon fill="green" stroke="green" points="308.99,-627.257 307.923,-616.716 302.184,-625.622 308.99,-627.257"/>
</g>
<!-- 29&#45;&gt;12 -->
<g id="edge27" class="edge"><title>29&#45;&gt;12</title>
<path fill="none" stroke="green" d="M283.634,-656.843C264.519,-632.417 228,-578.95 228,-526.973 228,-526.973 228,-526.973 228,-222.581 228,-179.169 226.437,-165.003 247,-126.77 254.638,-112.569 267.304,-99.7512 278.45,-90.2369"/>
<polygon fill="green" stroke="green" points="280.662,-92.9498 286.204,-83.9203 276.24,-87.5226 280.662,-92.9498"/>
</g>
<!-- 79 -->
<g id="node32" class="node"><title>79</title>
<ellipse fill="none" stroke="black" cx="442" cy="-598.742" rx="18.2703" ry="18.2703"/>
<text text-anchor="middle" x="442" y="-596.542" font-family="Times New Roman,serif" font-size="9.00">79</text>
</g>
<!-- 36&#45;&gt;79 -->
<g id="edge36" class="edge"><title>36&#45;&gt;79</title>
<path fill="none" stroke="green" d="M478.245,-655.503C472.146,-646.121 464.162,-633.838 457.241,-623.19"/>
<polygon fill="green" stroke="green" points="460.126,-621.206 451.741,-614.729 454.257,-625.021 460.126,-621.206"/>
</g>
<!-- 72 -->
<g id="node35" class="node"><title>72</title>
<ellipse fill="none" stroke="black" cx="572" cy="-598.742" rx="18.2703" ry="18.2703"/>
<text text-anchor="middle" x="572" y="-596.542" font-family="Times New Roman,serif" font-size="9.00">72</text>
</g>
<!-- 36&#45;&gt;72 -->
<g id="edge57" class="edge"><title>36&#45;&gt;72</title>
<path fill="none" stroke="red" d="M501.871,-658.826C515.082,-647.696 535.164,-630.777 550.457,-617.892"/>
<polygon fill="red" stroke="red" points="552.995,-620.331 558.387,-611.211 548.484,-614.977 552.995,-620.331"/>
</g>
<!-- 36&#45;&gt;30 -->
<g id="edge45" class="edge"><title>36&#45;&gt;30</title>
<path fill="none" stroke="red" d="M489.128,-653.005C489.439,-633.008 486.828,-600.465 469,-580.357 436.027,-543.167 376.125,-531.859 340.611,-528.438"/>
<polygon fill="red" stroke="red" points="340.68,-524.932 330.429,-527.609 340.112,-531.909 340.68,-524.932"/>
</g>
<!-- 58 -->
<g id="node39" class="node"><title>58</title>
<ellipse fill="none" stroke="black" cx="702" cy="-598.742" rx="18.2703" ry="18.2703"/>
<text text-anchor="middle" x="702" y="-596.542" font-family="Times New Roman,serif" font-size="9.00">58</text>
</g>
<!-- 36&#45;&gt;58 -->
<g id="edge92" class="edge"><title>36&#45;&gt;58</title>
<path fill="none" stroke="red" d="M505.449,-664.506C515.292,-661.133 527.821,-656.863 539,-653.127 586.656,-637.201 642.305,-619.076 674.706,-608.571"/>
<polygon fill="red" stroke="red" points="675.935,-611.852 684.369,-605.44 673.777,-605.192 675.935,-611.852"/>
</g>
<!-- 36&#45;&gt;12 -->
<g id="edge26" class="edge"><title>36&#45;&gt;12</title>
<path fill="none" stroke="red" d="M490.18,-653.194C492.138,-635.018 494.369,-605.627 492,-580.357 480.171,-454.178 439,-426.911 439,-300.179 439,-300.179 439,-300.179 439,-222.581 439,-156.925 366.086,-107.888 326.259,-86.0002"/>
<polygon fill="red" stroke="red" points="327.844,-82.8789 317.372,-81.2649 324.552,-89.0565 327.844,-82.8789"/>
</g>
<!-- 26 -->
<g id="node38" class="node"><title>26</title>
<ellipse fill="none" stroke="black" cx="908" cy="-598.742" rx="18.2703" ry="18.2703"/>
<text text-anchor="middle" x="908" y="-596.542" font-family="Times New Roman,serif" font-size="9.00">26</text>
</g>
<!-- 11&#45;&gt;26 -->
<g id="edge66" class="edge"><title>11&#45;&gt;26</title>
<path fill="none" stroke="green" d="M922.401,-653.38C920.23,-645.296 917.59,-635.461 915.166,-626.432"/>
<polygon fill="green" stroke="green" points="918.53,-625.466 912.557,-616.716 911.77,-627.281 918.53,-625.466"/>
</g>
<!-- 11&#45;&gt;7 -->
<g id="edge73" class="edge"><title>11&#45;&gt;7</title>
<path fill="none" stroke="green" d="M933.366,-654.249C939.661,-635.421 946.791,-603.976 935,-580.357 924.98,-560.288 903.426,-545.79 886.679,-537.012"/>
<polygon fill="green" stroke="green" points="888.017,-533.77 877.498,-532.506 884.933,-540.054 888.017,-533.77"/>
</g>
<!-- 19&#45;&gt;7 -->
<g id="edge21" class="edge"><title>19&#45;&gt;7</title>
<path fill="none" stroke="red" d="M1044.15,-658.067C1025.09,-639.917 987.824,-605.602 953,-580.357 931.012,-564.418 904.063,-548.742 885.618,-538.545"/>
<polygon fill="red" stroke="red" points="887.273,-535.46 876.819,-533.739 883.918,-541.604 887.273,-535.46"/>
</g>
<!-- 40 -->
<g id="node48" class="node"><title>40</title>
<ellipse fill="none" stroke="black" cx="866" cy="-453.203" rx="18.2703" ry="18.2703"/>
<text text-anchor="middle" x="866" y="-451.003" font-family="Times New Roman,serif" font-size="9.00">40</text>
</g>
<!-- 19&#45;&gt;40 -->
<g id="edge68" class="edge"><title>19&#45;&gt;40</title>
<path fill="none" stroke="red" d="M1047.14,-655.992C1034.56,-637.777 1011.81,-605.839 990,-580.357 955.942,-540.569 912.23,-497.806 886.842,-473.69"/>
<polygon fill="red" stroke="red" points="888.951,-470.867 879.279,-466.542 884.143,-475.955 888.951,-470.867"/>
</g>
<!-- 53&#45;&gt;48 -->
<g id="edge56" class="edge"><title>53&#45;&gt;48</title>
<path fill="none" stroke="green" d="M341.567,-654.806C336.745,-645.827 330.593,-634.369 325.15,-624.233"/>
<polygon fill="green" stroke="green" points="328.224,-622.559 320.41,-615.404 322.057,-625.87 328.224,-622.559"/>
</g>
<!-- 53&#45;&gt;30 -->
<g id="edge55" class="edge"><title>53&#45;&gt;30</title>
<path fill="none" stroke="green" d="M349.642,-652.859C348.856,-634.409 346.422,-604.799 339,-580.357 335.986,-570.432 331.214,-560.125 326.515,-551.246"/>
<polygon fill="green" stroke="green" points="329.441,-549.305 321.53,-542.257 323.319,-552.7 329.441,-549.305"/>
</g>
<!-- 48&#45;&gt;30 -->
<g id="edge38" class="edge"><title>48&#45;&gt;30</title>
<path fill="none" stroke="green" d="M312,-580.249C312,-572.566 312,-563.357 312,-554.773"/>
<polygon fill="green" stroke="green" points="315.5,-554.757 312,-544.757 308.5,-554.757 315.5,-554.757"/>
</g>
<!-- 72&#45;&gt;50 -->
<g id="edge77" class="edge"><title>72&#45;&gt;50</title>
<path fill="none" stroke="red" d="M589.185,-591.951C625.732,-579.635 711.399,-550.765 755.193,-536.006"/>
<polygon fill="red" stroke="red" points="756.513,-539.255 764.872,-532.745 754.278,-532.622 756.513,-539.255"/>
</g>
<!-- 30&#45;&gt;38 -->
<g id="edge15" class="edge"><title>30&#45;&gt;38</title>
<path fill="none" stroke="red" d="M304.232,-509.267C299.898,-500.503 294.396,-489.377 289.473,-479.424"/>
<polygon fill="red" stroke="red" points="292.559,-477.768 284.989,-470.356 286.284,-480.871 292.559,-477.768"/>
</g>
<!-- 30&#45;&gt;12 -->
<g id="edge10" class="edge"><title>30&#45;&gt;12</title>
<path fill="none" stroke="red" d="M321.297,-509.795C336.254,-483.889 364,-429.033 364,-378.605 364,-378.605 364,-378.605 364,-222.581 364,-174.63 336.041,-124.354 317.374,-96.1313"/>
<polygon fill="red" stroke="red" points="320.206,-94.0725 311.687,-87.774 314.419,-98.0105 320.206,-94.0725"/>
</g>
<!-- 13 -->
<g id="node49" class="node"><title>13</title>
<ellipse fill="none" stroke="black" cx="801" cy="-377.605" rx="18.2703" ry="18.2703"/>
<text text-anchor="middle" x="801" y="-375.405" font-family="Times New Roman,serif" font-size="9.00">13</text>
</g>
<!-- 50&#45;&gt;13 -->
<g id="edge35" class="edge"><title>50&#45;&gt;13</title>
<path fill="none" stroke="green" d="M784.254,-507.608C787.511,-482.519 793.565,-435.882 797.432,-406.09"/>
<polygon fill="green" stroke="green" points="800.932,-406.315 798.749,-395.948 793.991,-405.414 800.932,-406.315"/>
</g>
<!-- 26&#45;&gt;7 -->
<g id="edge67" class="edge"><title>26&#45;&gt;7</title>
<path fill="none" stroke="green" d="M898.669,-582.734C892.362,-572.59 883.949,-559.058 876.989,-547.865"/>
<polygon fill="green" stroke="green" points="879.816,-545.783 871.564,-539.138 873.872,-549.479 879.816,-545.783"/>
</g>
<!-- 58&#45;&gt;7 -->
<g id="edge93" class="edge"><title>58&#45;&gt;7</title>
<path fill="none" stroke="red" d="M717.776,-588.733C722.892,-585.93 728.632,-582.909 734,-580.357 770.573,-562.976 814.365,-545.693 840.644,-535.687"/>
<polygon fill="red" stroke="red" points="842.008,-538.913 850.125,-532.104 839.533,-532.365 842.008,-538.913"/>
</g>
<!-- 111 -->
<g id="node41" class="node"><title>111</title>
<ellipse fill="none" stroke="black" cx="277" cy="-377.605" rx="21.4286" ry="21.4286"/>
<text text-anchor="middle" x="277" y="-375.405" font-family="Times New Roman,serif" font-size="9.00">111</text>
</g>
<!-- 38&#45;&gt;111 -->
<g id="edge63" class="edge"><title>38&#45;&gt;111</title>
<path fill="none" stroke="red" d="M277,-434.761C277,-427.146 277,-417.984 277,-409.291"/>
<polygon fill="red" stroke="red" points="280.5,-409.054 277,-399.054 273.5,-409.054 280.5,-409.054"/>
</g>
<!-- 38&#45;&gt;12 -->
<g id="edge16" class="edge"><title>38&#45;&gt;12</title>
<path fill="none" stroke="red" d="M287.029,-437.413C293.63,-427.031 301.954,-412.594 307,-398.818 322.356,-356.897 326,-344.824 326,-300.179 326,-300.179 326,-300.179 326,-222.581 326,-179.308 315.644,-129.934 308.263,-100.238"/>
<polygon fill="red" stroke="red" points="311.573,-99.0554 305.702,-90.2355 304.791,-100.791 311.573,-99.0554"/>
</g>
<!-- 126 -->
<g id="node42" class="node"><title>126</title>
<ellipse fill="none" stroke="black" cx="277" cy="-299.179" rx="21.4286" ry="21.4286"/>
<text text-anchor="middle" x="277" y="-296.979" font-family="Times New Roman,serif" font-size="9.00">126</text>
</g>
<!-- 111&#45;&gt;126 -->
<g id="edge87" class="edge"><title>111&#45;&gt;126</title>
<path fill="none" stroke="red" d="M277,-356.124C277,-348.266 277,-339.121 277,-330.531"/>
<polygon fill="red" stroke="red" points="280.5,-330.451 277,-320.451 273.5,-330.451 280.5,-330.451"/>
</g>
<!-- 52 -->
<g id="node43" class="node"><title>52</title>
<ellipse fill="none" stroke="black" cx="277" cy="-223.581" rx="18.2703" ry="18.2703"/>
<text text-anchor="middle" x="277" y="-221.381" font-family="Times New Roman,serif" font-size="9.00">52</text>
</g>
<!-- 126&#45;&gt;52 -->
<g id="edge88" class="edge"><title>126&#45;&gt;52</title>
<path fill="none" stroke="red" d="M277,-277.678C277,-269.782 277,-260.633 277,-252.176"/>
<polygon fill="red" stroke="red" points="280.5,-251.982 277,-241.982 273.5,-251.982 280.5,-251.982"/>
</g>
<!-- 124 -->
<g id="node44" class="node"><title>124</title>
<ellipse fill="none" stroke="black" cx="277" cy="-147.983" rx="21.4286" ry="21.4286"/>
<text text-anchor="middle" x="277" y="-145.783" font-family="Times New Roman,serif" font-size="9.00">124</text>
</g>
<!-- 52&#45;&gt;124 -->
<g id="edge81" class="edge"><title>52&#45;&gt;124</title>
<path fill="none" stroke="green" d="M277,-205.139C277,-197.524 277,-188.362 277,-179.668"/>
<polygon fill="green" stroke="green" points="280.5,-179.432 277,-169.432 273.5,-179.432 280.5,-179.432"/>
</g>
<!-- 124&#45;&gt;12 -->
<g id="edge82" class="edge"><title>124&#45;&gt;12</title>
<path fill="none" stroke="red" d="M283.306,-127.646C286.05,-119.229 289.312,-109.226 292.284,-100.115"/>
<polygon fill="red" stroke="red" points="295.699,-100.931 295.471,-90.3389 289.043,-98.7611 295.699,-100.931"/>
</g>
<!-- 7&#45;&gt;40 -->
<g id="edge17" class="edge"><title>7&#45;&gt;40</title>
<path fill="none" stroke="red" d="M864.395,-510.991C864.629,-502.708 864.934,-491.919 865.215,-481.972"/>
<polygon fill="red" stroke="red" points="868.722,-481.763 865.506,-471.668 861.725,-481.565 868.722,-481.763"/>
</g>
<!-- 7&#45;&gt;13 -->
<g id="edge5" class="edge"><title>7&#45;&gt;13</title>
<path fill="none" stroke="red" d="M857.86,-512.326C852.685,-501.56 845.161,-485.649 839,-471.588 829.152,-449.112 818.65,-423.253 811.187,-404.519"/>
<polygon fill="red" stroke="red" points="814.42,-403.176 807.48,-395.17 807.913,-405.756 814.42,-403.176"/>
</g>
<!-- 12&#45;&gt;5 -->
<g id="edge4" class="edge"><title>12&#45;&gt;5</title>
<path fill="none" stroke="green" d="M318.952,-67.9086C373.83,-57.2818 539.161,-25.2666 597.415,-13.9862"/>
<polygon fill="green" stroke="green" points="598.133,-17.4122 607.285,-12.0748 596.802,-10.5398 598.133,-17.4122"/>
</g>
<!-- 8&#45;&gt;17 -->
<g id="edge64" class="edge"><title>8&#45;&gt;17</title>
<path fill="none" stroke="green" d="M668.887,-732.533C660.282,-722.383 647.124,-706.864 636.344,-694.149"/>
<polygon fill="green" stroke="green" points="638.812,-691.647 629.675,-686.283 633.473,-696.174 638.812,-691.647"/>
</g>
<!-- 40&#45;&gt;13 -->
<g id="edge18" class="edge"><title>40&#45;&gt;13</title>
<path fill="none" stroke="red" d="M854.078,-438.704C844.457,-427.811 830.75,-412.29 819.675,-399.75"/>
<polygon fill="red" stroke="red" points="822.09,-397.197 812.846,-392.019 816.843,-401.831 822.09,-397.197"/>
</g>
<!-- 13&#45;&gt;5 -->
<g id="edge6" class="edge"><title>13&#45;&gt;5</title>
<path fill="none" stroke="green" d="M791.768,-361.247C776.583,-334.485 748,-277.129 748,-224.581 748,-224.581 748,-224.581 748,-146.983 748,-83.7485 674.213,-38.0436 637.819,-19.3466"/>
<polygon fill="green" stroke="green" points="639.153,-16.1012 628.638,-14.7971 636.045,-22.3734 639.153,-16.1012"/>
</g>
<!-- 17&#45;&gt;5 -->
<g id="edge65" class="edge"><title>17&#45;&gt;5</title>
<path fill="none" stroke="green" d="M618,-652.834C618,-625.742 618,-572.327 618,-526.973 618,-526.973 618,-526.973 618,-146.983 618,-104.499 618,-54.6036 618,-28.3279"/>
<polygon fill="green" stroke="green" points="621.5,-28.0287 618,-18.0287 614.5,-28.0288 621.5,-28.0287"/>
</g>
</g>
</svg>
