<?xml version="1.0" encoding="UTF-8" standalone="no"?>
<!DOCTYPE svg PUBLIC "-//W3C//DTD SVG 1.1//EN"
 "http://www.w3.org/Graphics/SVG/1.1/DTD/svg11.dtd">
<!-- Generated by graphviz version 2.38.0 (20140413.2041)
 -->
<!-- Title: %3 Pages: 1 -->
<svg width="2325pt" height="1870pt"
 viewBox="0.00 0.00 2324.88 1870.31" xmlns="http://www.w3.org/2000/svg" xmlns:xlink="http://www.w3.org/1999/xlink">
<g id="graph0" class="graph" transform="scale(1 1) rotate(0) translate(4 1866.31)">
<title>%3</title>
<polygon fill="white" stroke="none" points="-4,4 -4,-1866.31 2320.88,-1866.31 2320.88,4 -4,4"/>
<!-- 1 -->
<g id="node1" class="node"><title>1</title>
<polygon fill="lightgray" stroke="black" points="746.5,-1415.28 725.5,-1415.28 725.5,-1397.28 746.5,-1397.28 746.5,-1415.28"/>
<text text-anchor="middle" x="736" y="-1404.08" font-family="Times New Roman,serif" font-size="9.00">1</text>
</g>
<!-- 5 -->
<g id="node5" class="node"><title>5</title>
<polygon fill="lightblue" stroke="black" points="811.5,-18 790.5,-18 790.5,-0 811.5,-0 811.5,-18"/>
<text text-anchor="middle" x="801" y="-6.8" font-family="Times New Roman,serif" font-size="9.00">5</text>
</g>
<!-- 1&#45;&gt;5 -->
<g id="edge9" class="edge"><title>1&#45;&gt;5</title>
<path fill="none" stroke="green" d="M734.104,-1397.01C713.841,-1308.51 538,-537.522 538,-433.697 538,-433.697 538,-433.697 538,-144.154 538,-35.5839 718.051,-14.835 780.201,-10.9069"/>
<polygon fill="green" stroke="green" points="780.57,-14.392 790.364,-10.3518 780.188,-7.40245 780.57,-14.392"/>
</g>
<!-- 36 -->
<g id="node16" class="node"><title>36</title>
<ellipse fill="none" stroke="black" cx="967" cy="-1327.85" rx="18.2703" ry="18.2703"/>
<text text-anchor="middle" x="967" y="-1325.65" font-family="Times New Roman,serif" font-size="9.00">36</text>
</g>
<!-- 1&#45;&gt;36 -->
<g id="edge67" class="edge"><title>1&#45;&gt;36</title>
<path fill="none" stroke="red" d="M746.602,-1403.71C777.52,-1398.84 869.773,-1382.31 939,-1349.07 940.824,-1348.19 942.654,-1347.19 944.456,-1346.12"/>
<polygon fill="red" stroke="red" points="946.699,-1348.83 953.084,-1340.38 942.82,-1343.01 946.699,-1348.83"/>
</g>
<!-- 51 -->
<g id="node20" class="node"><title>51</title>
<ellipse fill="none" stroke="black" cx="820" cy="-1327.85" rx="18.2703" ry="18.2703"/>
<text text-anchor="middle" x="820" y="-1325.65" font-family="Times New Roman,serif" font-size="9.00">51</text>
</g>
<!-- 1&#45;&gt;51 -->
<g id="edge172" class="edge"><title>1&#45;&gt;51</title>
<path fill="none" stroke="red" d="M744.989,-1397.1C757.835,-1385.41 781.811,-1363.6 799.207,-1347.77"/>
<polygon fill="red" stroke="red" points="801.631,-1350.3 806.673,-1340.98 796.92,-1345.12 801.631,-1350.3"/>
</g>
<!-- 43 -->
<g id="node26" class="node"><title>43</title>
<ellipse fill="none" stroke="black" cx="625" cy="-1179.48" rx="18.2703" ry="18.2703"/>
<text text-anchor="middle" x="625" y="-1177.28" font-family="Times New Roman,serif" font-size="9.00">43</text>
</g>
<!-- 1&#45;&gt;43 -->
<g id="edge13" class="edge"><title>1&#45;&gt;43</title>
<path fill="none" stroke="red" d="M725.702,-1397.1C720.754,-1393.29 714.678,-1388.79 709,-1385.07 682.041,-1367.37 663.883,-1375.9 646,-1349.07 617.468,-1306.25 618.071,-1243.5 621.35,-1207.87"/>
<polygon fill="red" stroke="red" points="624.85,-1208.05 622.424,-1197.73 617.889,-1207.31 624.85,-1208.05"/>
</g>
<!-- 64 -->
<g id="node58" class="node"><title>64</title>
<ellipse fill="none" stroke="black" cx="880" cy="-501.931" rx="18.2703" ry="18.2703"/>
<text text-anchor="middle" x="880" y="-499.731" font-family="Times New Roman,serif" font-size="9.00">64</text>
</g>
<!-- 1&#45;&gt;64 -->
<g id="edge54" class="edge"><title>1&#45;&gt;64</title>
<path fill="none" stroke="green" d="M736.966,-1397.02C739.221,-1379.65 745.753,-1338.3 760,-1306.64 767.993,-1288.87 775.375,-1287.57 785,-1270.64 843.905,-1167 896,-1145.67 896,-1026.46 896,-1026.46 896,-1026.46 896,-946.034 896,-788.936 885.832,-600.713 881.707,-530.829"/>
<polygon fill="green" stroke="green" points="885.19,-530.425 881.1,-520.652 878.202,-530.843 885.19,-530.425"/>
</g>
<!-- 8 -->
<g id="node59" class="node"><title>8</title>
<ellipse fill="none" stroke="black" cx="831" cy="-432.697" rx="14.7" ry="14.7"/>
<text text-anchor="middle" x="831" y="-430.497" font-family="Times New Roman,serif" font-size="9.00">8</text>
</g>
<!-- 1&#45;&gt;8 -->
<g id="edge14" class="edge"><title>1&#45;&gt;8</title>
<path fill="none" stroke="green" d="M736.446,-1397.08C737.396,-1380.16 739.798,-1340.14 743,-1306.64 764.594,-1080.72 804,-1026.61 804,-799.666 804,-799.666 804,-799.666 804,-573.701 804,-531.961 815.714,-484.468 823.71,-456.908"/>
<polygon fill="green" stroke="green" points="827.147,-457.63 826.662,-447.047 820.441,-455.623 827.147,-457.63"/>
</g>
<!-- 7 -->
<g id="node60" class="node"><title>7</title>
<ellipse fill="none" stroke="black" cx="1390" cy="-947.034" rx="14.7" ry="14.7"/>
<text text-anchor="middle" x="1390" y="-944.834" font-family="Times New Roman,serif" font-size="9.00">7</text>
</g>
<!-- 1&#45;&gt;7 -->
<g id="edge6" class="edge"><title>1&#45;&gt;7</title>
<path fill="none" stroke="green" d="M739.407,-1397.23C747.143,-1379.54 767.369,-1336.51 793,-1306.64 799.472,-1299.1 1064.12,-1088.73 1072,-1082.67 1093.43,-1066.21 1100.44,-1064.21 1121,-1046.67 1141.43,-1029.25 1140.59,-1017.38 1164,-1004.25 1181.73,-994.302 1311.06,-965.295 1365.72,-953.31"/>
<polygon fill="green" stroke="green" points="1366.58,-956.704 1375.6,-951.15 1365.08,-949.866 1366.58,-956.704"/>
</g>
<!-- 2 -->
<g id="node2" class="node"><title>2</title>
<polygon fill="lightgray" stroke="black" points="979.5,-1862.31 958.5,-1862.31 958.5,-1844.31 979.5,-1844.31 979.5,-1862.31"/>
<text text-anchor="middle" x="969" y="-1851.11" font-family="Times New Roman,serif" font-size="9.00">2</text>
</g>
<!-- 2&#45;&gt;5 -->
<g id="edge1" class="edge"><title>2&#45;&gt;5</title>
<path fill="none" stroke="green" d="M958.494,-1852.11C859.055,-1850.18 86.3481,-1834.36 46,-1808.31 8.20945,-1783.91 0,-1763.14 0,-1718.16 0,-1718.16 0,-1718.16 0,-144.154 0,-72.0052 66.6829,-77.2006 135,-54 258.75,-11.9742 681.495,-9.84762 780.251,-9.93588"/>
<polygon fill="green" stroke="green" points="780.412,-13.4361 790.419,-9.95444 780.425,-6.43609 780.412,-13.4361"/>
</g>
<!-- 62 -->
<g id="node6" class="node"><title>62</title>
<ellipse fill="none" stroke="black" cx="923" cy="-1789.93" rx="18.2703" ry="18.2703"/>
<text text-anchor="middle" x="923" y="-1787.73" font-family="Times New Roman,serif" font-size="9.00">62</text>
</g>
<!-- 2&#45;&gt;62 -->
<g id="edge80" class="edge"><title>2&#45;&gt;62</title>
<path fill="none" stroke="green" d="M962.986,-1844.28C957.145,-1836.49 948,-1824.29 939.929,-1813.52"/>
<polygon fill="green" stroke="green" points="942.568,-1811.2 933.77,-1805.3 936.966,-1815.4 942.568,-1811.2"/>
</g>
<!-- 32 -->
<g id="node7" class="node"><title>32</title>
<ellipse fill="none" stroke="black" cx="946" cy="-1717.16" rx="18.2703" ry="18.2703"/>
<text text-anchor="middle" x="946" y="-1714.96" font-family="Times New Roman,serif" font-size="9.00">32</text>
</g>
<!-- 2&#45;&gt;32 -->
<g id="edge113" class="edge"><title>2&#45;&gt;32</title>
<path fill="none" stroke="red" d="M967.561,-1843.92C964.253,-1824.62 955.987,-1776.41 950.704,-1745.59"/>
<polygon fill="red" stroke="red" points="954.113,-1744.76 948.973,-1735.5 947.213,-1745.94 954.113,-1744.76"/>
</g>
<!-- 2&#45;&gt;36 -->
<g id="edge66" class="edge"><title>2&#45;&gt;36</title>
<path fill="none" stroke="red" d="M979.518,-1852.31C1059.99,-1852.03 1575,-1845.31 1575,-1718.16 1575,-1718.16 1575,-1718.16 1575,-1483.7 1575,-1433.07 1560.8,-1412.11 1518,-1385.07 1433.57,-1331.72 1168.94,-1362.7 1070,-1349.07 1044.33,-1345.53 1015.39,-1339.68 994.742,-1335.18"/>
<polygon fill="red" stroke="red" points="995.28,-1331.72 984.76,-1332.98 993.767,-1338.55 995.28,-1331.72"/>
</g>
<!-- 85 -->
<g id="node23" class="node"><title>85</title>
<ellipse fill="none" stroke="black" cx="2251" cy="-1717.16" rx="18.2703" ry="18.2703"/>
<text text-anchor="middle" x="2251" y="-1714.96" font-family="Times New Roman,serif" font-size="9.00">85</text>
</g>
<!-- 2&#45;&gt;85 -->
<g id="edge151" class="edge"><title>2&#45;&gt;85</title>
<path fill="none" stroke="green" d="M979.696,-1852.28C1098.39,-1851.87 2166.07,-1847.1 2219,-1808.31 2238.51,-1794.01 2246.18,-1766.81 2249.16,-1746.01"/>
<polygon fill="green" stroke="green" points="2252.67,-1746.15 2250.34,-1735.82 2245.71,-1745.35 2252.67,-1746.15"/>
</g>
<!-- 15 -->
<g id="node25" class="node"><title>15</title>
<ellipse fill="none" stroke="black" cx="1265" cy="-1179.48" rx="18.2703" ry="18.2703"/>
<text text-anchor="middle" x="1265" y="-1177.28" font-family="Times New Roman,serif" font-size="9.00">15</text>
</g>
<!-- 2&#45;&gt;15 -->
<g id="edge10" class="edge"><title>2&#45;&gt;15</title>
<path fill="none" stroke="red" d="M979.743,-1852.25C1096.68,-1851.41 2129,-1840.55 2129,-1718.16 2129,-1718.16 2129,-1718.16 2129,-1405.28 2129,-1296.5 2007.97,-1341.72 1905,-1306.64 1676.31,-1228.74 1384.34,-1193.06 1293.36,-1183.34"/>
<polygon fill="red" stroke="red" points="1293.59,-1179.84 1283.28,-1182.28 1292.85,-1186.8 1293.59,-1179.84"/>
</g>
<!-- 10 -->
<g id="node30" class="node"><title>10</title>
<ellipse fill="none" stroke="black" cx="955" cy="-1252.25" rx="18.2703" ry="18.2703"/>
<text text-anchor="middle" x="955" y="-1250.05" font-family="Times New Roman,serif" font-size="9.00">10</text>
</g>
<!-- 2&#45;&gt;10 -->
<g id="edge155" class="edge"><title>2&#45;&gt;10</title>
<path fill="none" stroke="green" d="M958.184,-1847.05C930.941,-1833.16 859.436,-1792.61 828,-1735.54 794.988,-1675.61 803.336,-1652.63 799,-1584.34 793.359,-1495.51 778.32,-1464.24 819,-1385.07 824.205,-1374.93 876.756,-1314.5 885,-1306.64 899.568,-1292.75 917.668,-1279.03 931.813,-1268.97"/>
<polygon fill="green" stroke="green" points="933.854,-1271.82 940.043,-1263.22 929.842,-1266.08 933.854,-1271.82"/>
</g>
<!-- 171 -->
<g id="node41" class="node"><title>171</title>
<ellipse fill="none" stroke="black" cx="1667" cy="-1025.46" rx="21.4286" ry="21.4286"/>
<text text-anchor="middle" x="1667" y="-1023.26" font-family="Times New Roman,serif" font-size="9.00">171</text>
</g>
<!-- 2&#45;&gt;171 -->
<g id="edge174" class="edge"><title>2&#45;&gt;171</title>
<path fill="none" stroke="red" d="M979.786,-1852.34C1074.3,-1852.57 1762.86,-1852.68 1964,-1808.31 2060.4,-1787.04 2167,-1816.88 2167,-1718.16 2167,-1718.16 2167,-1718.16 2167,-1405.28 2167,-1297.69 1903.12,-1128.95 1806,-1082.67 1760.32,-1060.91 1743.56,-1068.67 1698,-1046.67 1696.22,-1045.81 1694.42,-1044.87 1692.63,-1043.87"/>
<polygon fill="red" stroke="red" points="1694.29,-1040.78 1683.92,-1038.61 1690.67,-1046.77 1694.29,-1040.78"/>
</g>
<!-- 13 -->
<g id="node43" class="node"><title>13</title>
<ellipse fill="none" stroke="black" cx="479" cy="-1025.46" rx="18.2703" ry="18.2703"/>
<text text-anchor="middle" x="479" y="-1023.26" font-family="Times New Roman,serif" font-size="9.00">13</text>
</g>
<!-- 2&#45;&gt;13 -->
<g id="edge20" class="edge"><title>2&#45;&gt;13</title>
<path fill="none" stroke="red" d="M958.284,-1851.64C864.72,-1845.69 190,-1799.9 190,-1718.16 190,-1718.16 190,-1718.16 190,-1178.48 190,-1061.74 377.004,-1034.44 450.157,-1028.23"/>
<polygon fill="red" stroke="red" points="450.782,-1031.7 460.482,-1027.43 450.242,-1024.72 450.782,-1031.7"/>
</g>
<!-- 34 -->
<g id="node45" class="node"><title>34</title>
<ellipse fill="none" stroke="black" cx="1861" cy="-1025.46" rx="18.2703" ry="18.2703"/>
<text text-anchor="middle" x="1861" y="-1023.26" font-family="Times New Roman,serif" font-size="9.00">34</text>
</g>
<!-- 2&#45;&gt;34 -->
<g id="edge162" class="edge"><title>2&#45;&gt;34</title>
<path fill="none" stroke="green" d="M979.747,-1852.23C1086.84,-1851.38 1960.58,-1843.37 2070,-1808.31 2138.71,-1786.29 2205,-1790.3 2205,-1718.16 2205,-1718.16 2205,-1718.16 2205,-1405.28 2205,-1216.15 1967.09,-1079.6 1886.97,-1038.98"/>
<polygon fill="green" stroke="green" points="1888.1,-1035.63 1877.59,-1034.29 1884.98,-1041.89 1888.1,-1035.63"/>
</g>
<!-- 17 -->
<g id="node55" class="node"><title>17</title>
<ellipse fill="none" stroke="black" cx="454" cy="-650.299" rx="18.2703" ry="18.2703"/>
<text text-anchor="middle" x="454" y="-648.099" font-family="Times New Roman,serif" font-size="9.00">17</text>
</g>
<!-- 2&#45;&gt;17 -->
<g id="edge190" class="edge"><title>2&#45;&gt;17</title>
<path fill="none" stroke="green" d="M958.452,-1852.07C883.698,-1850.33 433.061,-1838.65 300,-1808.31 195.368,-1784.46 76,-1825.47 76,-1718.16 76,-1718.16 76,-1718.16 76,-946.034 76,-768.11 339.671,-681.796 426.582,-658.178"/>
<polygon fill="green" stroke="green" points="427.507,-661.554 436.275,-655.607 425.712,-654.788 427.507,-661.554"/>
</g>
<!-- 2&#45;&gt;8 -->
<g id="edge24" class="edge"><title>2&#45;&gt;8</title>
<path fill="none" stroke="green" d="M958.343,-1852.38C863.705,-1852.95 168.831,-1855.46 91,-1808.31 51.2469,-1784.23 38,-1764.64 38,-1718.16 38,-1718.16 38,-1718.16 38,-946.034 38,-651.065 239.055,-590.373 514,-483.546 616.994,-443.529 750.674,-435.597 805.671,-434.054"/>
<polygon fill="green" stroke="green" points="805.966,-437.548 815.882,-433.818 805.804,-430.55 805.966,-437.548"/>
</g>
<!-- 58 -->
<g id="node67" class="node"><title>58</title>
<ellipse fill="none" stroke="black" cx="1387" cy="-290.693" rx="18.2703" ry="18.2703"/>
<text text-anchor="middle" x="1387" y="-288.493" font-family="Times New Roman,serif" font-size="9.00">58</text>
</g>
<!-- 2&#45;&gt;58 -->
<g id="edge74" class="edge"><title>2&#45;&gt;58</title>
<path fill="none" stroke="red" d="M979.531,-1852.26C1098.65,-1851.71 2189.27,-1845.6 2245,-1808.31 2274.51,-1788.56 2270.5,-1770.25 2278,-1735.54 2362.97,-1342.45 2313.12,-1179.33 2078,-853.051 1878.83,-576.662 1510.4,-360.078 1411.8,-305.2"/>
<polygon fill="red" stroke="red" points="1413.31,-302.035 1402.87,-300.259 1409.93,-308.161 1413.31,-302.035"/>
</g>
<!-- 3 -->
<g id="node3" class="node"><title>3</title>
<polygon fill="lightgray" stroke="black" points="1278.5,-1493.7 1257.5,-1493.7 1257.5,-1475.7 1278.5,-1475.7 1278.5,-1493.7"/>
<text text-anchor="middle" x="1268" y="-1482.5" font-family="Times New Roman,serif" font-size="9.00">3</text>
</g>
<!-- 3&#45;&gt;5 -->
<g id="edge5" class="edge"><title>3&#45;&gt;5</title>
<path fill="none" stroke="green" d="M1278.67,-1481.24C1303.9,-1475.09 1368.59,-1457.37 1415,-1427.49 1437.57,-1412.96 1435.82,-1400.19 1458,-1385.07 1490.55,-1362.87 1506.5,-1371.33 1539,-1349.07 1617.62,-1295.22 1626.55,-1268.05 1691,-1197.87 1719.54,-1166.79 1727.1,-1159.18 1752,-1125.1 1764.62,-1107.82 1958,-821.063 1958,-799.666 1958,-799.666 1958,-799.666 1958,-144.154 1958,-25.0484 978.017,-11.5463 821.862,-10.1509"/>
<polygon fill="green" stroke="green" points="821.744,-6.64987 811.715,-10.0674 821.686,-13.6496 821.744,-6.64987"/>
</g>
<!-- 137 -->
<g id="node8" class="node"><title>137</title>
<ellipse fill="none" stroke="black" cx="878" cy="-1406.28" rx="21.4286" ry="21.4286"/>
<text text-anchor="middle" x="878" y="-1404.08" font-family="Times New Roman,serif" font-size="9.00">137</text>
</g>
<!-- 3&#45;&gt;137 -->
<g id="edge95" class="edge"><title>3&#45;&gt;137</title>
<path fill="none" stroke="red" d="M1257.16,-1481.58C1206.3,-1471.61 990.348,-1429.29 909.089,-1413.37"/>
<polygon fill="red" stroke="red" points="909.472,-1409.88 898.985,-1411.39 908.126,-1416.75 909.472,-1409.88"/>
</g>
<!-- 29 -->
<g id="node14" class="node"><title>29</title>
<ellipse fill="none" stroke="black" cx="515" cy="-1327.85" rx="18.2703" ry="18.2703"/>
<text text-anchor="middle" x="515" y="-1325.65" font-family="Times New Roman,serif" font-size="9.00">29</text>
</g>
<!-- 3&#45;&gt;29 -->
<g id="edge91" class="edge"><title>3&#45;&gt;29</title>
<path fill="none" stroke="green" d="M1257.46,-1483.58C1189.91,-1482.62 817.312,-1475.2 716,-1427.49 691.711,-1416.05 696.24,-1398.51 673,-1385.07 621.104,-1355.05 597.043,-1375.02 543,-1349.07 541.176,-1348.19 539.346,-1347.19 537.544,-1346.12"/>
<polygon fill="green" stroke="green" points="539.18,-1343.01 528.916,-1340.38 535.301,-1348.83 539.18,-1343.01"/>
</g>
<!-- 92 -->
<g id="node15" class="node"><title>92</title>
<ellipse fill="none" stroke="black" cx="1211" cy="-1252.25" rx="18.2703" ry="18.2703"/>
<text text-anchor="middle" x="1211" y="-1250.05" font-family="Times New Roman,serif" font-size="9.00">92</text>
</g>
<!-- 3&#45;&gt;92 -->
<g id="edge52" class="edge"><title>3&#45;&gt;92</title>
<path fill="none" stroke="red" d="M1261.73,-1475.46C1254.08,-1464.94 1241.38,-1445.88 1235,-1427.49 1217.8,-1377.9 1212.88,-1316.35 1211.5,-1281.26"/>
<polygon fill="red" stroke="red" points="1214.98,-1280.73 1211.17,-1270.84 1207.99,-1280.95 1214.98,-1280.73"/>
</g>
<!-- 3&#45;&gt;15 -->
<g id="edge111" class="edge"><title>3&#45;&gt;15</title>
<path fill="none" stroke="red" d="M1267.92,-1475.59C1267.54,-1437.32 1265.92,-1273.89 1265.27,-1208.09"/>
<polygon fill="red" stroke="red" points="1268.77,-1208.02 1265.17,-1198.05 1261.77,-1208.08 1268.77,-1208.02"/>
</g>
<!-- 18 -->
<g id="node28" class="node"><title>18</title>
<ellipse fill="none" stroke="black" cx="1664" cy="-1179.48" rx="18.2703" ry="18.2703"/>
<text text-anchor="middle" x="1664" y="-1177.28" font-family="Times New Roman,serif" font-size="9.00">18</text>
</g>
<!-- 3&#45;&gt;18 -->
<g id="edge27" class="edge"><title>3&#45;&gt;18</title>
<path fill="none" stroke="green" d="M1278.73,-1475.5C1292.76,-1464.71 1318.02,-1445.05 1339,-1427.49 1360.84,-1409.22 1364.86,-1402.97 1387,-1385.07 1478.28,-1311.26 1592.48,-1230.32 1640.76,-1196.61"/>
<polygon fill="green" stroke="green" points="1643.04,-1199.28 1649.24,-1190.69 1639.04,-1193.54 1643.04,-1199.28"/>
</g>
<!-- 3&#45;&gt;10 -->
<g id="edge165" class="edge"><title>3&#45;&gt;10</title>
<path fill="none" stroke="red" d="M1257.21,-1481.2C1235.32,-1475.55 1185.51,-1459.72 1159,-1427.49 1123.48,-1384.3 1163.06,-1346.65 1124,-1306.64 1086.34,-1268.06 1021.07,-1257.28 983.622,-1254.32"/>
<polygon fill="red" stroke="red" points="983.606,-1250.81 973.399,-1253.66 983.149,-1257.8 983.606,-1250.81"/>
</g>
<!-- 111 -->
<g id="node33" class="node"><title>111</title>
<ellipse fill="none" stroke="black" cx="1265" cy="-1025.46" rx="21.4286" ry="21.4286"/>
<text text-anchor="middle" x="1265" y="-1023.26" font-family="Times New Roman,serif" font-size="9.00">111</text>
</g>
<!-- 3&#45;&gt;111 -->
<g id="edge185" class="edge"><title>3&#45;&gt;111</title>
<path fill="none" stroke="red" d="M1268.93,-1475.64C1273.36,-1436.89 1292.1,-1265.86 1295,-1125.1 1295.39,-1106.25 1299.58,-1100.97 1295,-1082.67 1292.34,-1072.05 1287.25,-1061.24 1282.01,-1051.97"/>
<polygon fill="red" stroke="red" points="1284.95,-1050.06 1276.8,-1043.28 1278.94,-1053.66 1284.95,-1050.06"/>
</g>
<!-- 3&#45;&gt;34 -->
<g id="edge142" class="edge"><title>3&#45;&gt;34</title>
<path fill="none" stroke="red" d="M1278.62,-1481.37C1325.94,-1470.95 1515.37,-1429.16 1518,-1427.49 1538.17,-1414.69 1531.28,-1398.54 1551,-1385.07 1597.32,-1353.41 1623.75,-1377.69 1672,-1349.07 1785.43,-1281.77 1837.86,-1118.07 1854.67,-1053.39"/>
<polygon fill="red" stroke="red" points="1858.1,-1054.1 1857.15,-1043.54 1851.31,-1052.39 1858.1,-1054.1"/>
</g>
<!-- 3&#45;&gt;8 -->
<g id="edge3" class="edge"><title>3&#45;&gt;8</title>
<path fill="none" stroke="red" d="M1260.07,-1475.39C1250.21,-1464.8 1233.18,-1445.67 1221,-1427.49 1192.97,-1385.66 1010,-1076.81 1010,-1026.46 1010,-1026.46 1010,-1026.46 1010,-573.701 1010,-495.962 903.955,-454.951 855.109,-440.184"/>
<polygon fill="red" stroke="red" points="855.925,-436.777 845.346,-437.353 853.976,-443.5 855.925,-436.777"/>
</g>
<!-- 3&#45;&gt;7 -->
<g id="edge18" class="edge"><title>3&#45;&gt;7</title>
<path fill="none" stroke="green" d="M1271.92,-1475.64C1292.44,-1432.81 1387.45,-1227.16 1409,-1046.67 1411.24,-1027.95 1412.06,-1022.85 1409,-1004.25 1407.12,-992.811 1403.22,-980.57 1399.44,-970.441"/>
<polygon fill="green" stroke="green" points="1402.7,-969.151 1395.79,-961.123 1396.18,-971.71 1402.7,-969.151"/>
</g>
<!-- 14 -->
<g id="node68" class="node"><title>14</title>
<ellipse fill="none" stroke="black" cx="1585" cy="-798.666" rx="18.2703" ry="18.2703"/>
<text text-anchor="middle" x="1585" y="-796.466" font-family="Times New Roman,serif" font-size="9.00">14</text>
</g>
<!-- 3&#45;&gt;14 -->
<g id="edge65" class="edge"><title>3&#45;&gt;14</title>
<path fill="none" stroke="red" d="M1278.7,-1479.25C1298.82,-1470.65 1343.26,-1450.57 1377,-1427.49 1400.5,-1411.42 1403.49,-1403.72 1425,-1385.07 1493.33,-1325.83 1580,-1343.68 1580,-1253.25 1580,-1253.25 1580,-1253.25 1580,-1178.48 1580,-1065.87 1603.63,-1038.34 1599,-925.82 1597.67,-893.396 1596.74,-885.286 1593,-853.051 1592.01,-844.542 1590.71,-835.303 1589.44,-826.941"/>
<polygon fill="red" stroke="red" points="1592.88,-826.28 1587.89,-816.938 1585.97,-827.357 1592.88,-826.28"/>
</g>
<!-- 4 -->
<g id="node4" class="node"><title>4</title>
<polygon fill="lightgray" stroke="black" points="1873.5,-1493.7 1852.5,-1493.7 1852.5,-1475.7 1873.5,-1475.7 1873.5,-1493.7"/>
<text text-anchor="middle" x="1863" y="-1482.5" font-family="Times New Roman,serif" font-size="9.00">4</text>
</g>
<!-- 4&#45;&gt;5 -->
<g id="edge2" class="edge"><title>4&#45;&gt;5</title>
<path fill="none" stroke="green" d="M1873.75,-1483.07C1904.96,-1480.76 1997.19,-1470.46 2057,-1427.49 2198.77,-1325.65 2281,-1279.44 2281,-1104.89 2281,-1104.89 2281,-1104.89 2281,-144.154 2281,-29.3776 2151.58,-76.3602 2039,-54 1792.53,-5.04614 964.483,-8.80174 821.97,-9.82872"/>
<polygon fill="green" stroke="green" points="821.577,-6.33151 811.604,-9.90763 821.63,-13.3313 821.577,-6.33151"/>
</g>
<!-- 101 -->
<g id="node9" class="node"><title>101</title>
<ellipse fill="none" stroke="black" cx="1488" cy="-1406.28" rx="21.4286" ry="21.4286"/>
<text text-anchor="middle" x="1488" y="-1404.08" font-family="Times New Roman,serif" font-size="9.00">101</text>
</g>
<!-- 4&#45;&gt;101 -->
<g id="edge181" class="edge"><title>4&#45;&gt;101</title>
<path fill="none" stroke="red" d="M1852.18,-1481.5C1802.75,-1471.43 1597.4,-1429.57 1518.8,-1413.55"/>
<polygon fill="red" stroke="red" points="1519.07,-1410.04 1508.57,-1411.47 1517.67,-1416.9 1519.07,-1410.04"/>
</g>
<!-- 37 -->
<g id="node17" class="node"><title>37</title>
<ellipse fill="none" stroke="black" cx="1855" cy="-1327.85" rx="18.2703" ry="18.2703"/>
<text text-anchor="middle" x="1855" y="-1325.65" font-family="Times New Roman,serif" font-size="9.00">37</text>
</g>
<!-- 4&#45;&gt;37 -->
<g id="edge84" class="edge"><title>4&#45;&gt;37</title>
<path fill="none" stroke="green" d="M1862.57,-1475.38C1861.43,-1453.35 1858.3,-1392.74 1856.44,-1356.75"/>
<polygon fill="green" stroke="green" points="1859.92,-1356.25 1855.91,-1346.44 1852.93,-1356.61 1859.92,-1356.25"/>
</g>
<!-- 122 -->
<g id="node24" class="node"><title>122</title>
<ellipse fill="none" stroke="black" cx="1738" cy="-1406.28" rx="21.4286" ry="21.4286"/>
<text text-anchor="middle" x="1738" y="-1404.08" font-family="Times New Roman,serif" font-size="9.00">122</text>
</g>
<!-- 4&#45;&gt;122 -->
<g id="edge144" class="edge"><title>4&#45;&gt;122</title>
<path fill="none" stroke="red" d="M1852.34,-1477.19C1833.03,-1465.38 1791.74,-1440.14 1764.43,-1423.44"/>
<polygon fill="red" stroke="red" points="1766.11,-1420.36 1755.75,-1418.13 1762.46,-1426.33 1766.11,-1420.36"/>
</g>
<!-- 4&#45;&gt;15 -->
<g id="edge11" class="edge"><title>4&#45;&gt;15</title>
<path fill="none" stroke="red" d="M1867.58,-1475.46C1882.23,-1447.88 1924.57,-1357.69 1882,-1306.64 1853.5,-1272.46 1728.65,-1279.31 1685,-1270.64 1536.76,-1241.19 1360.02,-1201.87 1292.8,-1186.76"/>
<polygon fill="red" stroke="red" points="1293.5,-1183.33 1282.97,-1184.55 1291.96,-1190.16 1293.5,-1183.33"/>
</g>
<!-- 23 -->
<g id="node27" class="node"><title>23</title>
<ellipse fill="none" stroke="black" cx="1855" cy="-1252.25" rx="18.2703" ry="18.2703"/>
<text text-anchor="middle" x="1855" y="-1250.05" font-family="Times New Roman,serif" font-size="9.00">23</text>
</g>
<!-- 4&#45;&gt;23 -->
<g id="edge112" class="edge"><title>4&#45;&gt;23</title>
<path fill="none" stroke="green" d="M1873.87,-1476.06C1886.53,-1466.42 1906.76,-1448.54 1915,-1427.49 1934.59,-1377.48 1936.99,-1355.64 1915,-1306.64 1907.67,-1290.31 1892.6,-1276.93 1879.4,-1267.65"/>
<polygon fill="green" stroke="green" points="1880.96,-1264.48 1870.68,-1261.9 1877.1,-1270.33 1880.96,-1264.48"/>
</g>
<!-- 4&#45;&gt;18 -->
<g id="edge26" class="edge"><title>4&#45;&gt;18</title>
<path fill="none" stroke="green" d="M1860.57,-1475.42C1852.64,-1449.16 1825.69,-1365.99 1786,-1306.64 1756.96,-1263.22 1712.1,-1221.37 1685.63,-1198.47"/>
<polygon fill="green" stroke="green" points="1687.61,-1195.55 1677.73,-1191.72 1683.06,-1200.88 1687.61,-1195.55"/>
</g>
<!-- 4&#45;&gt;10 -->
<g id="edge167" class="edge"><title>4&#45;&gt;10</title>
<path fill="none" stroke="green" d="M1852.47,-1482.87C1819.06,-1479.86 1713.24,-1467.55 1637,-1427.49 1611.8,-1414.25 1614.46,-1397.82 1589,-1385.07 1374.11,-1277.42 1075.98,-1257.64 983.504,-1254.04"/>
<polygon fill="green" stroke="green" points="983.622,-1250.55 973.504,-1253.69 983.374,-1257.54 983.622,-1250.55"/>
</g>
<!-- 19 -->
<g id="node49" class="node"><title>19</title>
<ellipse fill="none" stroke="black" cx="516" cy="-871.436" rx="18.2703" ry="18.2703"/>
<text text-anchor="middle" x="516" y="-869.236" font-family="Times New Roman,serif" font-size="9.00">19</text>
</g>
<!-- 4&#45;&gt;19 -->
<g id="edge42" class="edge"><title>4&#45;&gt;19</title>
<path fill="none" stroke="green" d="M1852.45,-1481.66C1826.25,-1476.21 1756.81,-1459.55 1708,-1427.49 1646.29,-1386.95 1645.3,-1359.75 1594,-1306.64 1462.7,-1170.69 1462.7,-1091.41 1295,-1004.25 1159.28,-933.708 668.822,-886.035 544.7,-874.923"/>
<polygon fill="green" stroke="green" points="544.752,-871.414 534.482,-874.017 544.134,-878.387 544.752,-871.414"/>
</g>
<!-- 53 -->
<g id="node51" class="node"><title>53</title>
<ellipse fill="none" stroke="black" cx="1759" cy="-1327.85" rx="18.2703" ry="18.2703"/>
<text text-anchor="middle" x="1759" y="-1325.65" font-family="Times New Roman,serif" font-size="9.00">53</text>
</g>
<!-- 4&#45;&gt;53 -->
<g id="edge108" class="edge"><title>4&#45;&gt;53</title>
<path fill="none" stroke="green" d="M1854.14,-1475.55C1843.14,-1465.12 1824.21,-1446.16 1811,-1427.49 1794.47,-1404.13 1779.69,-1374.86 1770.16,-1354.3"/>
<polygon fill="green" stroke="green" points="1773.24,-1352.62 1765.91,-1344.96 1766.86,-1355.52 1773.24,-1352.62"/>
</g>
<!-- 4&#45;&gt;7 -->
<g id="edge8" class="edge"><title>4&#45;&gt;7</title>
<path fill="none" stroke="red" d="M1873.59,-1477.97C1889.18,-1469.05 1918.38,-1450.47 1936,-1427.49 1964.89,-1389.82 1977,-1376.33 1977,-1328.85 1977,-1328.85 1977,-1328.85 1977,-1251.25 1977,-1193.05 1928.3,-1196.37 1882,-1161.1 1828.32,-1120.21 1813.53,-1110.38 1752,-1082.67 1703.17,-1060.68 1687.46,-1064.62 1637,-1046.67 1553.22,-1016.88 1455.73,-976.098 1412.55,-957.715"/>
<polygon fill="red" stroke="red" points="1413.82,-954.451 1403.25,-953.743 1411.07,-960.889 1413.82,-954.451"/>
</g>
<!-- 6 -->
<g id="node61" class="node"><title>6</title>
<ellipse fill="none" stroke="black" cx="2162" cy="-725.897" rx="14.7" ry="14.7"/>
<text text-anchor="middle" x="2162" y="-723.697" font-family="Times New Roman,serif" font-size="9.00">6</text>
</g>
<!-- 4&#45;&gt;6 -->
<g id="edge168" class="edge"><title>4&#45;&gt;6</title>
<path fill="none" stroke="red" d="M1873.9,-1483.08C1902.98,-1480.85 1983.33,-1470.87 2029,-1427.49 2070.91,-1387.69 2052.66,-1359.05 2077,-1306.64 2136.5,-1178.53 2227,-1167.71 2227,-1026.46 2227,-1026.46 2227,-1026.46 2227,-870.436 2227,-822.263 2196.24,-772.446 2177.05,-746.04"/>
<polygon fill="red" stroke="red" points="2179.83,-743.925 2171.04,-738.019 2174.23,-748.121 2179.83,-743.925"/>
</g>
<!-- 27 -->
<g id="node70" class="node"><title>27</title>
<ellipse fill="none" stroke="black" cx="1387" cy="-217.924" rx="18.2703" ry="18.2703"/>
<text text-anchor="middle" x="1387" y="-215.724" font-family="Times New Roman,serif" font-size="9.00">27</text>
</g>
<!-- 4&#45;&gt;27 -->
<g id="edge21" class="edge"><title>4&#45;&gt;27</title>
<path fill="none" stroke="red" d="M1873.57,-1480.27C1893.68,-1473.26 1937.89,-1455.56 1965,-1427.49 1999.15,-1392.14 2015,-1378 2015,-1328.85 2015,-1328.85 2015,-1328.85 2015,-1251.25 2015,-1046.16 1920,-1004.76 1920,-799.666 1920,-799.666 1920,-799.666 1920,-724.897 1920,-540.67 1887.12,-472.431 1754,-345.078 1711.11,-304.042 1696.88,-294.947 1642,-272.309 1563.67,-239.995 1463.43,-226.387 1415.29,-221.411"/>
<polygon fill="red" stroke="red" points="1415.59,-217.924 1405.3,-220.426 1414.9,-224.89 1415.59,-217.924"/>
</g>
<!-- 62&#45;&gt;32 -->
<g id="edge81" class="edge"><title>62&#45;&gt;32</title>
<path fill="none" stroke="green" d="M928.451,-1772.15C931.143,-1763.87 934.454,-1753.68 937.472,-1744.4"/>
<polygon fill="green" stroke="green" points="940.826,-1745.4 940.588,-1734.81 934.169,-1743.24 940.826,-1745.4"/>
</g>
<!-- 35 -->
<g id="node18" class="node"><title>35</title>
<ellipse fill="none" stroke="black" cx="912" cy="-1327.85" rx="18.2703" ry="18.2703"/>
<text text-anchor="middle" x="912" y="-1325.65" font-family="Times New Roman,serif" font-size="9.00">35</text>
</g>
<!-- 62&#45;&gt;35 -->
<g id="edge196" class="edge"><title>62&#45;&gt;35</title>
<path fill="none" stroke="red" d="M907.705,-1778.84C877.48,-1757.56 813,-1704.86 813,-1642.56 813,-1642.56 813,-1642.56 813,-1483.7 813,-1437.19 821.906,-1423.58 848,-1385.07 858.752,-1369.2 875.021,-1354.99 888.466,-1344.83"/>
<polygon fill="red" stroke="red" points="890.781,-1347.47 896.806,-1338.75 886.662,-1341.81 890.781,-1347.47"/>
</g>
<!-- 114 -->
<g id="node10" class="node"><title>114</title>
<ellipse fill="none" stroke="black" cx="1014" cy="-1641.56" rx="21.4286" ry="21.4286"/>
<text text-anchor="middle" x="1014" y="-1639.36" font-family="Times New Roman,serif" font-size="9.00">114</text>
</g>
<!-- 32&#45;&gt;114 -->
<g id="edge131" class="edge"><title>32&#45;&gt;114</title>
<path fill="none" stroke="red" d="M958.157,-1703C967.809,-1692.55 981.533,-1677.7 992.961,-1665.33"/>
<polygon fill="red" stroke="red" points="995.857,-1667.35 1000.07,-1657.63 990.716,-1662.6 995.857,-1667.35"/>
</g>
<!-- 47 -->
<g id="node13" class="node"><title>47</title>
<ellipse fill="none" stroke="black" cx="382" cy="-1406.28" rx="18.2703" ry="18.2703"/>
<text text-anchor="middle" x="382" y="-1404.08" font-family="Times New Roman,serif" font-size="9.00">47</text>
</g>
<!-- 32&#45;&gt;47 -->
<g id="edge33" class="edge"><title>32&#45;&gt;47</title>
<path fill="none" stroke="red" d="M931.964,-1704.5C905.772,-1683.49 846.851,-1639.66 789,-1620.34 710.221,-1594.05 481.31,-1636.9 417,-1584.34 373.104,-1548.47 373.77,-1474.87 377.938,-1434.78"/>
<polygon fill="red" stroke="red" points="381.436,-1435 379.141,-1424.66 374.485,-1434.17 381.436,-1435"/>
</g>
<!-- 32&#45;&gt;29 -->
<g id="edge62" class="edge"><title>32&#45;&gt;29</title>
<path fill="none" stroke="red" d="M933.22,-1703.58C914.362,-1685.1 877.872,-1649.62 846,-1620.34 731.185,-1514.87 589.624,-1392.78 536.49,-1347.23"/>
<polygon fill="red" stroke="red" points="538.611,-1344.44 528.739,-1340.59 534.057,-1349.75 538.611,-1344.44"/>
</g>
<!-- 32&#45;&gt;36 -->
<g id="edge68" class="edge"><title>32&#45;&gt;36</title>
<path fill="none" stroke="red" d="M942.426,-1698.92C936.922,-1670.82 927,-1613.34 927,-1564.13 927,-1564.13 927,-1564.13 927,-1483.7 927,-1437.05 944.228,-1384.94 956.071,-1354.63"/>
<polygon fill="red" stroke="red" points="959.37,-1355.8 959.849,-1345.22 952.874,-1353.2 959.37,-1355.8"/>
</g>
<!-- 22 -->
<g id="node19" class="node"><title>22</title>
<ellipse fill="none" stroke="black" cx="1097" cy="-1327.85" rx="18.2703" ry="18.2703"/>
<text text-anchor="middle" x="1097" y="-1325.65" font-family="Times New Roman,serif" font-size="9.00">22</text>
</g>
<!-- 32&#45;&gt;22 -->
<g id="edge188" class="edge"><title>32&#45;&gt;22</title>
<path fill="none" stroke="green" d="M964.061,-1713.33C990.503,-1708.2 1039.38,-1694.76 1065,-1662.77 1138.12,-1571.45 1116.19,-1417.84 1103.36,-1355.93"/>
<polygon fill="green" stroke="green" points="1106.77,-1355.17 1101.24,-1346.13 1099.93,-1356.65 1106.77,-1355.17"/>
</g>
<!-- 121 -->
<g id="node32" class="node"><title>121</title>
<ellipse fill="none" stroke="black" cx="1051" cy="-1563.13" rx="21.4286" ry="21.4286"/>
<text text-anchor="middle" x="1051" y="-1560.93" font-family="Times New Roman,serif" font-size="9.00">121</text>
</g>
<!-- 32&#45;&gt;121 -->
<g id="edge140" class="edge"><title>32&#45;&gt;121</title>
<path fill="none" stroke="green" d="M963.717,-1712.07C986.601,-1705.76 1025.66,-1691.29 1044,-1662.77 1056.97,-1642.6 1057.87,-1615.08 1056.01,-1594.24"/>
<polygon fill="green" stroke="green" points="1059.46,-1593.55 1054.84,-1584.02 1052.5,-1594.35 1059.46,-1593.55"/>
</g>
<!-- 42 -->
<g id="node44" class="node"><title>42</title>
<ellipse fill="none" stroke="black" cx="1094" cy="-1025.46" rx="18.2703" ry="18.2703"/>
<text text-anchor="middle" x="1094" y="-1023.26" font-family="Times New Roman,serif" font-size="9.00">42</text>
</g>
<!-- 32&#45;&gt;42 -->
<g id="edge59" class="edge"><title>32&#45;&gt;42</title>
<path fill="none" stroke="green" d="M927.583,-1714.5C839.479,-1706.19 462.064,-1666.21 384,-1584.34 229,-1421.79 170.062,-1247.17 323,-1082.67 348.803,-1054.92 929.333,-1032.38 1065.57,-1027.46"/>
<polygon fill="green" stroke="green" points="1065.77,-1030.95 1075.64,-1027.1 1065.52,-1023.96 1065.77,-1030.95"/>
</g>
<!-- 32&#45;&gt;7 -->
<g id="edge43" class="edge"><title>32&#45;&gt;7</title>
<path fill="none" stroke="green" d="M948.334,-1698.8C959.315,-1621.62 1010.95,-1303.64 1143,-1082.67 1166.37,-1043.57 1171.05,-1029.45 1209,-1004.25 1235.15,-986.88 1322.89,-964.169 1365.87,-953.731"/>
<polygon fill="green" stroke="green" points="1366.86,-957.093 1375.76,-951.353 1365.22,-950.287 1366.86,-957.093"/>
</g>
<!-- 137&#45;&gt;35 -->
<g id="edge96" class="edge"><title>137&#45;&gt;35</title>
<path fill="none" stroke="red" d="M886.404,-1386.39C890.741,-1376.64 896.089,-1364.62 900.774,-1354.09"/>
<polygon fill="red" stroke="red" points="903.975,-1355.5 904.841,-1344.94 897.579,-1352.66 903.975,-1355.5"/>
</g>
<!-- 101&#45;&gt;22 -->
<g id="edge182" class="edge"><title>101&#45;&gt;22</title>
<path fill="none" stroke="green" d="M1467.25,-1401.22C1401.8,-1388.43 1199.56,-1348.9 1124.99,-1334.32"/>
<polygon fill="green" stroke="green" points="1125.43,-1330.84 1114.94,-1332.36 1124.09,-1337.71 1125.43,-1330.84"/>
</g>
<!-- 107 -->
<g id="node11" class="node"><title>107</title>
<ellipse fill="none" stroke="black" cx="447" cy="-1563.13" rx="21.4286" ry="21.4286"/>
<text text-anchor="middle" x="447" y="-1560.93" font-family="Times New Roman,serif" font-size="9.00">107</text>
</g>
<!-- 114&#45;&gt;107 -->
<g id="edge132" class="edge"><title>114&#45;&gt;107</title>
<path fill="none" stroke="green" d="M992.781,-1637.67C963.883,-1633.74 910.531,-1626.49 865,-1620.34 720.354,-1600.81 547.532,-1577.61 478.112,-1568.3"/>
<polygon fill="green" stroke="green" points="478.255,-1564.79 467.878,-1566.93 477.324,-1571.73 478.255,-1564.79"/>
</g>
<!-- 114&#45;&gt;53 -->
<g id="edge143" class="edge"><title>114&#45;&gt;53</title>
<path fill="none" stroke="green" d="M1033.66,-1633.2C1104.2,-1606.71 1350.96,-1513.25 1551,-1427.49 1627.48,-1394.71 1646.46,-1386.05 1721,-1349.07 1725.26,-1346.95 1729.74,-1344.64 1734.08,-1342.36"/>
<polygon fill="green" stroke="green" points="1736.02,-1345.3 1743.2,-1337.51 1732.73,-1339.12 1736.02,-1345.3"/>
</g>
<!-- 104 -->
<g id="node12" class="node"><title>104</title>
<ellipse fill="none" stroke="black" cx="423" cy="-1484.7" rx="21.4286" ry="21.4286"/>
<text text-anchor="middle" x="423" y="-1482.5" font-family="Times New Roman,serif" font-size="9.00">104</text>
</g>
<!-- 107&#45;&gt;104 -->
<g id="edge125" class="edge"><title>107&#45;&gt;104</title>
<path fill="none" stroke="green" d="M440.819,-1542.45C438.168,-1534 435.015,-1523.97 432.105,-1514.7"/>
<polygon fill="green" stroke="green" points="435.412,-1513.55 429.077,-1505.06 428.733,-1515.64 435.412,-1513.55"/>
</g>
<!-- 30 -->
<g id="node35" class="node"><title>30</title>
<ellipse fill="none" stroke="black" cx="462" cy="-1179.48" rx="18.2703" ry="18.2703"/>
<text text-anchor="middle" x="462" y="-1177.28" font-family="Times New Roman,serif" font-size="9.00">30</text>
</g>
<!-- 107&#45;&gt;30 -->
<g id="edge138" class="edge"><title>107&#45;&gt;30</title>
<path fill="none" stroke="green" d="M449.552,-1541.87C450.798,-1531.19 452.198,-1517.87 453,-1505.92 460.378,-1395.95 461.738,-1264.69 461.967,-1208.38"/>
<polygon fill="green" stroke="green" points="465.468,-1208.16 461.999,-1198.15 458.468,-1208.13 465.468,-1208.16"/>
</g>
<!-- 107&#45;&gt;64 -->
<g id="edge126" class="edge"><title>107&#45;&gt;64</title>
<path fill="none" stroke="red" d="M426.256,-1556.77C359.108,-1538.04 152,-1468.91 152,-1328.85 152,-1328.85 152,-1328.85 152,-1178.48 152,-1144.35 400.657,-650.79 427,-629.085 444.061,-615.028 756.626,-534.427 852.363,-509.967"/>
<polygon fill="red" stroke="red" points="853.365,-513.324 862.189,-507.46 851.634,-506.541 853.365,-513.324"/>
</g>
<!-- 104&#45;&gt;47 -->
<g id="edge121" class="edge"><title>104&#45;&gt;47</title>
<path fill="none" stroke="green" d="M413.284,-1465.59C407.899,-1455.56 401.127,-1442.93 395.261,-1432"/>
<polygon fill="green" stroke="green" points="398.21,-1430.09 390.398,-1422.93 392.041,-1433.4 398.21,-1430.09"/>
</g>
<!-- 47&#45;&gt;5 -->
<g id="edge139" class="edge"><title>47&#45;&gt;5</title>
<path fill="none" stroke="red" d="M363.579,-1403.68C303.03,-1397.32 114,-1368.26 114,-1253.25 114,-1253.25 114,-1253.25 114,-144.154 114,-79.5586 167.843,-77.5322 228,-54 331.584,-13.4798 689.389,-10.1654 780.011,-9.98473"/>
<polygon fill="red" stroke="red" points="780.135,-13.4847 790.132,-9.97609 780.129,-6.48473 780.135,-13.4847"/>
</g>
<!-- 47&#45;&gt;29 -->
<g id="edge34" class="edge"><title>47&#45;&gt;29</title>
<path fill="none" stroke="green" d="M397.517,-1396.36C420.319,-1383.26 463.108,-1358.67 490.271,-1343.06"/>
<polygon fill="green" stroke="green" points="492.243,-1345.97 499.169,-1337.95 488.755,-1339.9 492.243,-1345.97"/>
</g>
<!-- 108 -->
<g id="node21" class="node"><title>108</title>
<ellipse fill="none" stroke="black" cx="573" cy="-1327.85" rx="21.4286" ry="21.4286"/>
<text text-anchor="middle" x="573" y="-1325.65" font-family="Times New Roman,serif" font-size="9.00">108</text>
</g>
<!-- 47&#45;&gt;108 -->
<g id="edge57" class="edge"><title>47&#45;&gt;108</title>
<path fill="none" stroke="red" d="M399.841,-1400.53C430.004,-1392.18 492.613,-1373.4 542,-1349.07 543.772,-1348.19 545.566,-1347.24 547.35,-1346.23"/>
<polygon fill="red" stroke="red" points="549.325,-1349.13 556.054,-1340.94 545.69,-1343.15 549.325,-1349.13"/>
</g>
<!-- 110 -->
<g id="node46" class="node"><title>110</title>
<ellipse fill="none" stroke="black" cx="353" cy="-1103.89" rx="21.4286" ry="21.4286"/>
<text text-anchor="middle" x="353" y="-1101.69" font-family="Times New Roman,serif" font-size="9.00">110</text>
</g>
<!-- 47&#45;&gt;110 -->
<g id="edge98" class="edge"><title>47&#45;&gt;110</title>
<path fill="none" stroke="green" d="M380.315,-1387.83C375.55,-1338.47 361.931,-1197.4 355.916,-1135.09"/>
<polygon fill="green" stroke="green" points="359.396,-1134.72 354.952,-1125.1 352.429,-1135.39 359.396,-1134.72"/>
</g>
<!-- 29&#45;&gt;5 -->
<g id="edge104" class="edge"><title>29&#45;&gt;5</title>
<path fill="none" stroke="red" d="M497.292,-1321.48C472.541,-1313.35 427.042,-1296.14 395,-1270.64 362.855,-1245.06 358.061,-1233.72 338,-1197.87 245.802,-1033.1 190,-988.474 190,-799.666 190,-799.666 190,-799.666 190,-144.154 190,-20.5079 673.392,-10.6839 780.255,-10.0228"/>
<polygon fill="red" stroke="red" points="780.409,-13.5223 790.395,-9.98197 780.381,-6.52236 780.409,-13.5223"/>
</g>
<!-- 40 -->
<g id="node22" class="node"><title>40</title>
<ellipse fill="none" stroke="black" cx="668" cy="-1252.25" rx="18.2703" ry="18.2703"/>
<text text-anchor="middle" x="668" y="-1250.05" font-family="Times New Roman,serif" font-size="9.00">40</text>
</g>
<!-- 29&#45;&gt;40 -->
<g id="edge118" class="edge"><title>29&#45;&gt;40</title>
<path fill="none" stroke="green" d="M529.126,-1315.73C533.447,-1312.58 538.303,-1309.29 543,-1306.64 575.463,-1288.29 615.478,-1272.25 641.352,-1262.66"/>
<polygon fill="green" stroke="green" points="642.662,-1265.91 650.857,-1259.2 640.263,-1259.34 642.662,-1265.91"/>
</g>
<!-- 29&#45;&gt;15 -->
<g id="edge28" class="edge"><title>29&#45;&gt;15</title>
<path fill="none" stroke="green" d="M528.512,-1315.28C532.891,-1312.04 537.933,-1308.82 543,-1306.64 608.456,-1278.5 1112.02,-1203.03 1237,-1184.59"/>
<polygon fill="green" stroke="green" points="1237.56,-1188.05 1246.94,-1183.13 1236.54,-1181.12 1237.56,-1188.05"/>
</g>
<!-- 91 -->
<g id="node29" class="node"><title>91</title>
<ellipse fill="none" stroke="black" cx="500" cy="-1252.25" rx="18.2703" ry="18.2703"/>
<text text-anchor="middle" x="500" y="-1250.05" font-family="Times New Roman,serif" font-size="9.00">91</text>
</g>
<!-- 29&#45;&gt;91 -->
<g id="edge50" class="edge"><title>29&#45;&gt;91</title>
<path fill="none" stroke="red" d="M511.521,-1309.78C509.754,-1301.11 507.564,-1290.37 505.57,-1280.58"/>
<polygon fill="red" stroke="red" points="508.939,-1279.59 503.512,-1270.49 502.08,-1280.98 508.939,-1279.59"/>
</g>
<!-- 29&#45;&gt;10 -->
<g id="edge157" class="edge"><title>29&#45;&gt;10</title>
<path fill="none" stroke="red" d="M528.409,-1315.02C532.784,-1311.78 537.849,-1308.61 543,-1306.64 683.661,-1252.75 731.468,-1295.69 880,-1270.64 895.754,-1267.98 913.147,-1264.02 927.215,-1260.54"/>
<polygon fill="red" stroke="red" points="928.402,-1263.85 937.241,-1258.01 926.689,-1257.07 928.402,-1263.85"/>
</g>
<!-- 29&#45;&gt;13 -->
<g id="edge116" class="edge"><title>29&#45;&gt;13</title>
<path fill="none" stroke="green" d="M499.839,-1317.17C461.274,-1291.51 359.886,-1217.36 323,-1125.1 316,-1107.59 312.16,-1098.1 323,-1082.67 351.921,-1041.51 414.049,-1030.35 450.572,-1027.41"/>
<polygon fill="green" stroke="green" points="450.831,-1030.9 460.583,-1026.76 450.377,-1023.92 450.831,-1030.9"/>
</g>
<!-- 48 -->
<g id="node63" class="node"><title>48</title>
<ellipse fill="none" stroke="black" cx="1327" cy="-798.666" rx="18.2703" ry="18.2703"/>
<text text-anchor="middle" x="1327" y="-796.466" font-family="Times New Roman,serif" font-size="9.00">48</text>
</g>
<!-- 29&#45;&gt;48 -->
<g id="edge87" class="edge"><title>29&#45;&gt;48</title>
<path fill="none" stroke="green" d="M521.081,-1310.3C529.329,-1289.88 545.857,-1255.27 570,-1233.87 599.787,-1207.47 619.598,-1220.98 652,-1197.87 785.925,-1102.33 768.049,-1019.91 903,-925.82 1032.14,-835.788 1226.31,-809.053 1298.58,-801.973"/>
<polygon fill="green" stroke="green" points="1299.08,-805.441 1308.72,-801.032 1298.44,-798.471 1299.08,-805.441"/>
</g>
<!-- 29&#45;&gt;14 -->
<g id="edge117" class="edge"><title>29&#45;&gt;14</title>
<path fill="none" stroke="green" d="M529.127,-1315.93C552.19,-1298.2 599.519,-1262.31 641,-1233.87 771.093,-1144.67 1092.37,-908.603 1240,-853.051 1351.61,-811.052 1495.45,-802.077 1556.05,-800.172"/>
<polygon fill="green" stroke="green" points="1556.47,-803.662 1566.37,-799.892 1556.28,-796.665 1556.47,-803.662"/>
</g>
<!-- 92&#45;&gt;15 -->
<g id="edge53" class="edge"><title>92&#45;&gt;15</title>
<path fill="none" stroke="red" d="M1221.67,-1237.27C1229.11,-1227.51 1239.21,-1214.28 1247.79,-1203.04"/>
<polygon fill="red" stroke="red" points="1250.7,-1205 1253.98,-1194.92 1245.13,-1200.75 1250.7,-1205"/>
</g>
<!-- 36&#45;&gt;10 -->
<g id="edge161" class="edge"><title>36&#45;&gt;10</title>
<path fill="none" stroke="green" d="M964.156,-1309.41C962.751,-1300.79 961.024,-1290.2 959.449,-1280.54"/>
<polygon fill="green" stroke="green" points="962.887,-1279.88 957.823,-1270.57 955.978,-1281 962.887,-1279.88"/>
</g>
<!-- 112 -->
<g id="node31" class="node"><title>112</title>
<ellipse fill="none" stroke="black" cx="1265" cy="-1103.89" rx="21.4286" ry="21.4286"/>
<text text-anchor="middle" x="1265" y="-1101.69" font-family="Times New Roman,serif" font-size="9.00">112</text>
</g>
<!-- 36&#45;&gt;112 -->
<g id="edge175" class="edge"><title>36&#45;&gt;112</title>
<path fill="none" stroke="red" d="M981.373,-1316.15C1028.69,-1280.9 1179.99,-1168.2 1240.07,-1123.46"/>
<polygon fill="red" stroke="red" points="1242.32,-1126.14 1248.25,-1117.36 1238.14,-1120.53 1242.32,-1126.14"/>
</g>
<!-- 37&#45;&gt;23 -->
<g id="edge85" class="edge"><title>37&#45;&gt;23</title>
<path fill="none" stroke="red" d="M1855,-1309.41C1855,-1300.95 1855,-1290.58 1855,-1281.06"/>
<polygon fill="red" stroke="red" points="1858.5,-1280.83 1855,-1270.83 1851.5,-1280.83 1858.5,-1280.83"/>
</g>
<!-- 37&#45;&gt;10 -->
<g id="edge164" class="edge"><title>37&#45;&gt;10</title>
<path fill="none" stroke="red" d="M1837.96,-1320.69C1824.15,-1315.98 1804.08,-1309.79 1786,-1306.64 1521.94,-1260.67 1451.42,-1288.78 1184,-1270.64 1111.76,-1265.74 1026.77,-1259.04 983.472,-1255.56"/>
<polygon fill="red" stroke="red" points="983.645,-1252.07 973.396,-1254.75 983.083,-1259.04 983.645,-1252.07"/>
</g>
<!-- 35&#45;&gt;10 -->
<g id="edge163" class="edge"><title>35&#45;&gt;10</title>
<path fill="none" stroke="green" d="M920.91,-1311.6C926.675,-1301.73 934.306,-1288.67 940.886,-1277.41"/>
<polygon fill="green" stroke="green" points="944.079,-1278.88 946.102,-1268.48 938.035,-1275.35 944.079,-1278.88"/>
</g>
<!-- 22&#45;&gt;10 -->
<g id="edge166" class="edge"><title>22&#45;&gt;10</title>
<path fill="none" stroke="red" d="M1080.99,-1318.55C1056.48,-1305.85 1009.47,-1281.49 980.316,-1266.38"/>
<polygon fill="red" stroke="red" points="981.661,-1263.13 971.173,-1261.64 978.44,-1269.35 981.661,-1263.13"/>
</g>
<!-- 51&#45;&gt;10 -->
<g id="edge173" class="edge"><title>51&#45;&gt;10</title>
<path fill="none" stroke="red" d="M835.139,-1316.92C840.415,-1313.56 846.414,-1309.84 852,-1306.64 859.345,-1302.43 901.489,-1280.71 929.542,-1266.31"/>
<polygon fill="red" stroke="red" points="931.498,-1269.24 938.797,-1261.56 928.302,-1263.01 931.498,-1269.24"/>
</g>
<!-- 108&#45;&gt;23 -->
<g id="edge82" class="edge"><title>108&#45;&gt;23</title>
<path fill="none" stroke="green" d="M594.214,-1324.61C633.428,-1320.53 719.926,-1311.83 793,-1306.64 1202.78,-1277.53 1702.62,-1258.69 1826.31,-1254.26"/>
<polygon fill="green" stroke="green" points="1826.6,-1257.75 1836.46,-1253.9 1826.35,-1250.76 1826.6,-1257.75"/>
</g>
<!-- 108&#45;&gt;91 -->
<g id="edge58" class="edge"><title>108&#45;&gt;91</title>
<path fill="none" stroke="green" d="M558.227,-1311.96C547.187,-1300.83 531.977,-1285.49 519.871,-1273.29"/>
<polygon fill="green" stroke="green" points="522.326,-1270.79 512.799,-1266.16 517.356,-1275.72 522.326,-1270.79"/>
</g>
<!-- 40&#45;&gt;15 -->
<g id="edge119" class="edge"><title>40&#45;&gt;15</title>
<path fill="none" stroke="red" d="M686.193,-1249.1C771.501,-1238.98 1132.12,-1196.24 1236.55,-1183.86"/>
<polygon fill="red" stroke="red" points="1237.14,-1187.31 1246.66,-1182.66 1236.31,-1180.36 1237.14,-1187.31"/>
</g>
<!-- 40&#45;&gt;43 -->
<g id="edge147" class="edge"><title>40&#45;&gt;43</title>
<path fill="none" stroke="green" d="M658.881,-1236.25C653.237,-1226.96 645.866,-1214.83 639.441,-1204.25"/>
<polygon fill="green" stroke="green" points="642.29,-1202.2 634.106,-1195.47 636.308,-1205.83 642.29,-1202.2"/>
</g>
<!-- 85&#45;&gt;34 -->
<g id="edge152" class="edge"><title>85&#45;&gt;34</title>
<path fill="none" stroke="green" d="M2249.46,-1698.38C2247.13,-1670.02 2243,-1612.76 2243,-1564.13 2243,-1564.13 2243,-1564.13 2243,-1405.28 2243,-1246.4 2219.7,-1173.01 2089,-1082.67 2027.06,-1039.86 1935.82,-1029.56 1889.8,-1027.15"/>
<polygon fill="green" stroke="green" points="1889.78,-1023.65 1879.64,-1026.71 1889.48,-1030.64 1889.78,-1023.65"/>
</g>
<!-- 122&#45;&gt;53 -->
<g id="edge145" class="edge"><title>122&#45;&gt;53</title>
<path fill="none" stroke="red" d="M1743.41,-1385.6C1745.92,-1376.47 1748.93,-1365.49 1751.64,-1355.62"/>
<polygon fill="red" stroke="red" points="1755.05,-1356.44 1754.32,-1345.87 1748.3,-1354.59 1755.05,-1356.44"/>
</g>
<!-- 15&#45;&gt;112 -->
<g id="edge75" class="edge"><title>15&#45;&gt;112</title>
<path fill="none" stroke="green" d="M1265,-1161.04C1265,-1153.43 1265,-1144.27 1265,-1135.57"/>
<polygon fill="green" stroke="green" points="1268.5,-1135.34 1265,-1125.34 1261.5,-1135.34 1268.5,-1135.34"/>
</g>
<!-- 86 -->
<g id="node36" class="node"><title>86</title>
<ellipse fill="none" stroke="black" cx="1170" cy="-1103.89" rx="18.2703" ry="18.2703"/>
<text text-anchor="middle" x="1170" y="-1101.69" font-family="Times New Roman,serif" font-size="9.00">86</text>
</g>
<!-- 15&#45;&gt;86 -->
<g id="edge45" class="edge"><title>15&#45;&gt;86</title>
<path fill="none" stroke="red" d="M1250.57,-1167.31C1235.14,-1155.35 1210.46,-1136.23 1192.47,-1122.3"/>
<polygon fill="red" stroke="red" points="1194.3,-1119.29 1184.25,-1115.93 1190.01,-1124.82 1194.3,-1119.29"/>
</g>
<!-- 60 -->
<g id="node42" class="node"><title>60</title>
<ellipse fill="none" stroke="black" cx="1725" cy="-1103.89" rx="18.2703" ry="18.2703"/>
<text text-anchor="middle" x="1725" y="-1101.69" font-family="Times New Roman,serif" font-size="9.00">60</text>
</g>
<!-- 15&#45;&gt;60 -->
<g id="edge106" class="edge"><title>15&#45;&gt;60</title>
<path fill="none" stroke="green" d="M1283.64,-1177.42C1356.19,-1173.07 1619.62,-1155.48 1697,-1125.1 1699.09,-1124.28 1701.16,-1123.27 1703.18,-1122.14"/>
<polygon fill="green" stroke="green" points="1705.11,-1125.06 1711.57,-1116.66 1701.28,-1119.2 1705.11,-1125.06"/>
</g>
<!-- 31 -->
<g id="node54" class="node"><title>31</title>
<ellipse fill="none" stroke="black" cx="1267" cy="-871.436" rx="18.2703" ry="18.2703"/>
<text text-anchor="middle" x="1267" y="-869.236" font-family="Times New Roman,serif" font-size="9.00">31</text>
</g>
<!-- 15&#45;&gt;31 -->
<g id="edge107" class="edge"><title>15&#45;&gt;31</title>
<path fill="none" stroke="red" d="M1275.58,-1164.4C1282.61,-1154.11 1291.23,-1139.5 1295,-1125.1 1317.43,-1039.42 1316.18,-1011.82 1295,-925.82 1292.44,-915.412 1287.44,-904.787 1282.37,-895.785"/>
<polygon fill="red" stroke="red" points="1285.3,-893.855 1277.16,-887.068 1279.29,-897.447 1285.3,-893.855"/>
</g>
<!-- 15&#45;&gt;8 -->
<g id="edge16" class="edge"><title>15&#45;&gt;8</title>
<path fill="none" stroke="green" d="M1247.34,-1173.17C1222.58,-1165.21 1176.81,-1148.57 1143,-1125.1 1069.64,-1074.17 1048,-1037.34 1048,-948.034 1048,-948.034 1048,-948.034 1048,-573.701 1048,-532.236 1053.43,-512.757 1024,-483.546 1000.3,-460.017 902.612,-443.63 855.988,-436.991"/>
<polygon fill="green" stroke="green" points="856.209,-433.488 845.823,-435.584 855.249,-440.422 856.209,-433.488"/>
</g>
<!-- 15&#45;&gt;7 -->
<g id="edge15" class="edge"><title>15&#45;&gt;7</title>
<path fill="none" stroke="red" d="M1282.97,-1174.38C1306.23,-1168.05 1346.13,-1153.56 1366,-1125.1 1398.35,-1078.77 1396.82,-1008.72 1393.24,-972.168"/>
<polygon fill="red" stroke="red" points="1396.69,-971.511 1392.1,-961.962 1389.73,-972.289 1396.69,-971.511"/>
</g>
<!-- 26 -->
<g id="node64" class="node"><title>26</title>
<ellipse fill="none" stroke="black" cx="1341" cy="-363.463" rx="18.2703" ry="18.2703"/>
<text text-anchor="middle" x="1341" y="-361.263" font-family="Times New Roman,serif" font-size="9.00">26</text>
</g>
<!-- 15&#45;&gt;26 -->
<g id="edge17" class="edge"><title>15&#45;&gt;26</title>
<path fill="none" stroke="green" d="M1283.34,-1175.9C1310.78,-1171.03 1362.25,-1157.88 1390,-1125.1 1424.72,-1084.08 1444,-964.44 1444,-799.666 1444,-799.666 1444,-799.666 1444,-724.897 1444,-594.164 1380.58,-446.67 1353.27,-389.215"/>
<polygon fill="green" stroke="green" points="1356.4,-387.658 1348.91,-380.168 1350.1,-390.696 1356.4,-387.658"/>
</g>
<!-- 43&#45;&gt;5 -->
<g id="edge150" class="edge"><title>43&#45;&gt;5</title>
<path fill="none" stroke="red" d="M623.642,-1160.79C619.112,-1109.95 601.346,-960.268 543,-853.051 486.54,-749.299 370,-769.418 370,-651.299 370,-651.299 370,-651.299 370,-144.154 370,-57.1543 694.209,-20.1518 780.248,-11.8639"/>
<polygon fill="red" stroke="red" points="780.716,-15.3355 790.346,-10.9193 780.063,-8.36597 780.716,-15.3355"/>
</g>
<!-- 80 -->
<g id="node37" class="node"><title>80</title>
<ellipse fill="none" stroke="black" cx="584" cy="-1103.89" rx="18.2703" ry="18.2703"/>
<text text-anchor="middle" x="584" y="-1101.69" font-family="Times New Roman,serif" font-size="9.00">80</text>
</g>
<!-- 43&#45;&gt;80 -->
<g id="edge127" class="edge"><title>43&#45;&gt;80</title>
<path fill="none" stroke="red" d="M616.305,-1162.88C610.832,-1153.05 603.657,-1140.17 597.459,-1129.05"/>
<polygon fill="red" stroke="red" points="600.466,-1127.25 592.542,-1120.22 594.351,-1130.66 600.466,-1127.25"/>
</g>
<!-- 43&#45;&gt;13 -->
<g id="edge30" class="edge"><title>43&#45;&gt;13</title>
<path fill="none" stroke="green" d="M610.119,-1168.36C595.763,-1158.25 573.798,-1141.84 557,-1125.1 533.049,-1101.23 509.53,-1070.14 494.686,-1049.3"/>
<polygon fill="green" stroke="green" points="497.496,-1047.21 488.879,-1041.05 491.771,-1051.24 497.496,-1047.21"/>
</g>
<!-- 43&#45;&gt;110 -->
<g id="edge93" class="edge"><title>43&#45;&gt;110</title>
<path fill="none" stroke="red" d="M607.153,-1173.66C561.535,-1161.31 440.26,-1128.5 383.322,-1113.09"/>
<polygon fill="red" stroke="red" points="384.039,-1109.66 373.472,-1110.43 382.211,-1116.42 384.039,-1109.66"/>
</g>
<!-- 43&#45;&gt;8 -->
<g id="edge100" class="edge"><title>43&#45;&gt;8</title>
<path fill="none" stroke="green" d="M631.443,-1161.8C635.354,-1151.35 640.289,-1137.54 644,-1125.1 674.747,-1021.99 676.82,-994.662 701,-889.82 742.542,-709.701 709.268,-649.833 790,-483.546 795.845,-471.507 805.161,-459.85 813.436,-450.841"/>
<polygon fill="green" stroke="green" points="816.206,-453.01 820.614,-443.375 811.16,-448.158 816.206,-453.01"/>
</g>
<!-- 43&#45;&gt;14 -->
<g id="edge148" class="edge"><title>43&#45;&gt;14</title>
<path fill="none" stroke="red" d="M637.872,-1166.08C670.26,-1135.36 758.651,-1054.64 844,-1004.25 994.494,-915.389 1038.45,-899.243 1207,-853.051 1334.49,-818.111 1492.79,-805.209 1556.49,-801.215"/>
<polygon fill="red" stroke="red" points="1556.8,-804.703 1566.57,-800.609 1556.38,-797.715 1556.8,-804.703"/>
</g>
<!-- 75 -->
<g id="node34" class="node"><title>75</title>
<ellipse fill="none" stroke="black" cx="1855" cy="-1179.48" rx="18.2703" ry="18.2703"/>
<text text-anchor="middle" x="1855" y="-1177.28" font-family="Times New Roman,serif" font-size="9.00">75</text>
</g>
<!-- 23&#45;&gt;75 -->
<g id="edge55" class="edge"><title>23&#45;&gt;75</title>
<path fill="none" stroke="red" d="M1855,-1233.76C1855,-1226.08 1855,-1216.87 1855,-1208.28"/>
<polygon fill="red" stroke="red" points="1858.5,-1208.27 1855,-1198.27 1851.5,-1208.27 1858.5,-1208.27"/>
</g>
<!-- 23&#45;&gt;60 -->
<g id="edge115" class="edge"><title>23&#45;&gt;60</title>
<path fill="none" stroke="green" d="M1843.23,-1238.01C1820.63,-1212.56 1770.96,-1156.63 1743.74,-1125.99"/>
<polygon fill="green" stroke="green" points="1746.28,-1123.57 1737.02,-1118.42 1741.05,-1128.22 1746.28,-1123.57"/>
</g>
<!-- 23&#45;&gt;34 -->
<g id="edge31" class="edge"><title>23&#45;&gt;34</title>
<path fill="none" stroke="green" d="M1864.8,-1236.57C1871.09,-1226.23 1878.67,-1211.81 1882,-1197.87 1894.04,-1147.39 1880.2,-1086.81 1869.97,-1052.87"/>
<polygon fill="green" stroke="green" points="1873.28,-1051.72 1866.94,-1043.23 1866.6,-1053.82 1873.28,-1051.72"/>
</g>
<!-- 56 -->
<g id="node72" class="node"><title>56</title>
<ellipse fill="none" stroke="black" cx="858" cy="-72.3848" rx="18.2703" ry="18.2703"/>
<text text-anchor="middle" x="858" y="-70.1848" font-family="Times New Roman,serif" font-size="9.00">56</text>
</g>
<!-- 23&#45;&gt;56 -->
<g id="edge135" class="edge"><title>23&#45;&gt;56</title>
<path fill="none" stroke="green" d="M1868.79,-1239.69C1901.68,-1211.08 1984.08,-1133.06 2013,-1046.67 2124.42,-713.838 2140.17,-481.052 1858,-272.309 1785.64,-218.777 1753.08,-231.661 1669,-199.539 1583.75,-166.973 1565.97,-147.054 1477,-126.77 1253.89,-75.9034 975.459,-72.6814 886.623,-73.0699"/>
<polygon fill="green" stroke="green" points="886.492,-69.5706 876.514,-73.1342 886.536,-76.5704 886.492,-69.5706"/>
</g>
<!-- 203 -->
<g id="node38" class="node"><title>203</title>
<ellipse fill="none" stroke="black" cx="1667" cy="-1103.89" rx="21.4286" ry="21.4286"/>
<text text-anchor="middle" x="1667" y="-1101.69" font-family="Times New Roman,serif" font-size="9.00">203</text>
</g>
<!-- 18&#45;&gt;203 -->
<g id="edge183" class="edge"><title>18&#45;&gt;203</title>
<path fill="none" stroke="green" d="M1664.71,-1161.04C1665.02,-1153.43 1665.39,-1144.27 1665.75,-1135.57"/>
<polygon fill="green" stroke="green" points="1669.26,-1135.47 1666.17,-1125.34 1662.26,-1135.18 1669.26,-1135.47"/>
</g>
<!-- 18&#45;&gt;60 -->
<g id="edge99" class="edge"><title>18&#45;&gt;60</title>
<path fill="none" stroke="red" d="M1675.47,-1164.64C1684.33,-1153.95 1696.76,-1138.96 1706.95,-1126.66"/>
<polygon fill="red" stroke="red" points="1709.89,-1128.6 1713.58,-1118.67 1704.5,-1124.13 1709.89,-1128.6"/>
</g>
<!-- 39 -->
<g id="node47" class="node"><title>39</title>
<ellipse fill="none" stroke="black" cx="1725" cy="-1025.46" rx="18.2703" ry="18.2703"/>
<text text-anchor="middle" x="1725" y="-1023.26" font-family="Times New Roman,serif" font-size="9.00">39</text>
</g>
<!-- 18&#45;&gt;39 -->
<g id="edge195" class="edge"><title>18&#45;&gt;39</title>
<path fill="none" stroke="green" d="M1653.35,-1164.02C1640.4,-1144.5 1622.01,-1109.14 1637,-1082.67 1652.32,-1055.61 1671.04,-1063.79 1697,-1046.67 1698.69,-1045.56 1700.42,-1044.39 1702.15,-1043.19"/>
<polygon fill="green" stroke="green" points="1704.49,-1045.82 1710.63,-1037.19 1700.45,-1040.11 1704.49,-1045.82"/>
</g>
<!-- 18&#45;&gt;8 -->
<g id="edge156" class="edge"><title>18&#45;&gt;8</title>
<path fill="none" stroke="green" d="M1652.22,-1164.92C1617.82,-1123.9 1520,-996.337 1520,-872.436 1520,-872.436 1520,-872.436 1520,-724.897 1520,-614.93 1191.28,-521.309 1088,-483.546 1006.2,-453.637 902.851,-440.572 856.055,-435.894"/>
<polygon fill="green" stroke="green" points="856.218,-432.394 845.931,-434.926 855.552,-439.362 856.218,-432.394"/>
</g>
<!-- 91&#45;&gt;13 -->
<g id="edge51" class="edge"><title>91&#45;&gt;13</title>
<path fill="none" stroke="red" d="M483.646,-1243.27C467.88,-1234.57 444.986,-1218.99 435,-1197.87 411.355,-1147.85 442.744,-1083.39 463.444,-1049.55"/>
<polygon fill="red" stroke="red" points="466.556,-1051.18 468.944,-1040.86 460.64,-1047.44 466.556,-1051.18"/>
</g>
<!-- 10&#45;&gt;30 -->
<g id="edge159" class="edge"><title>10&#45;&gt;30</title>
<path fill="none" stroke="red" d="M936.869,-1248.65C862.501,-1237.98 580.509,-1197.5 490.086,-1184.52"/>
<polygon fill="red" stroke="red" points="490.431,-1181.03 480.035,-1183.07 489.436,-1187.96 490.431,-1181.03"/>
</g>
<!-- 10&#45;&gt;13 -->
<g id="edge160" class="edge"><title>10&#45;&gt;13</title>
<path fill="none" stroke="green" d="M939.025,-1243.05C890.269,-1218.09 738.91,-1141.2 611,-1082.67 574.648,-1066.04 531.994,-1048.17 505.228,-1037.15"/>
<polygon fill="green" stroke="green" points="506.374,-1033.84 495.794,-1033.28 503.717,-1040.31 506.374,-1033.84"/>
</g>
<!-- 24 -->
<g id="node57" class="node"><title>24</title>
<ellipse fill="none" stroke="black" cx="964" cy="-574.701" rx="18.2703" ry="18.2703"/>
<text text-anchor="middle" x="964" y="-572.501" font-family="Times New Roman,serif" font-size="9.00">24</text>
</g>
<!-- 10&#45;&gt;24 -->
<g id="edge158" class="edge"><title>10&#45;&gt;24</title>
<path fill="none" stroke="red" d="M958.359,-1233.76C963.313,-1206.38 972,-1151.7 972,-1104.89 972,-1104.89 972,-1104.89 972,-724.897 972,-682.389 968.722,-633.166 966.362,-603.243"/>
<polygon fill="red" stroke="red" points="969.84,-602.825 965.542,-593.141 962.863,-603.391 969.84,-602.825"/>
</g>
<!-- 112&#45;&gt;111 -->
<g id="edge76" class="edge"><title>112&#45;&gt;111</title>
<path fill="none" stroke="green" d="M1265,-1082.41C1265,-1074.55 1265,-1065.4 1265,-1056.81"/>
<polygon fill="green" stroke="green" points="1268.5,-1056.73 1265,-1046.73 1261.5,-1056.73 1268.5,-1056.73"/>
</g>
<!-- 112&#45;&gt;171 -->
<g id="edge153" class="edge"><title>112&#45;&gt;171</title>
<path fill="none" stroke="red" d="M1285.77,-1098.94C1351.8,-1086.39 1557.18,-1047.34 1635.88,-1032.38"/>
<polygon fill="red" stroke="red" points="1636.95,-1035.74 1646.12,-1030.43 1635.64,-1028.86 1636.95,-1035.74"/>
</g>
<!-- 121&#45;&gt;7 -->
<g id="edge141" class="edge"><title>121&#45;&gt;7</title>
<path fill="none" stroke="green" d="M1048.96,-1541.84C1045.26,-1497.61 1040.36,-1389.81 1070,-1306.64 1103.05,-1213.88 1153.5,-1213.44 1197,-1125.1 1221.87,-1074.59 1196.06,-1044.91 1235,-1004.25 1253.41,-985.019 1326.9,-964.055 1365.71,-954.029"/>
<polygon fill="green" stroke="green" points="1366.83,-957.356 1375.66,-951.502 1365.11,-950.572 1366.83,-957.356"/>
</g>
<!-- 55 -->
<g id="node39" class="node"><title>55</title>
<ellipse fill="none" stroke="black" cx="1268" cy="-947.034" rx="18.2703" ry="18.2703"/>
<text text-anchor="middle" x="1268" y="-944.834" font-family="Times New Roman,serif" font-size="9.00">55</text>
</g>
<!-- 111&#45;&gt;55 -->
<g id="edge73" class="edge"><title>111&#45;&gt;55</title>
<path fill="none" stroke="green" d="M1265.8,-1003.98C1266.15,-995.241 1266.55,-984.913 1266.92,-975.525"/>
<polygon fill="green" stroke="green" points="1270.42,-975.589 1267.32,-965.46 1263.43,-975.315 1270.42,-975.589"/>
</g>
<!-- 75&#45;&gt;60 -->
<g id="edge56" class="edge"><title>75&#45;&gt;60</title>
<path fill="none" stroke="red" d="M1839.32,-1169.61C1817.07,-1157.01 1776.1,-1133.82 1749.73,-1118.89"/>
<polygon fill="red" stroke="red" points="1751.16,-1115.68 1740.74,-1113.8 1747.71,-1121.77 1751.16,-1115.68"/>
</g>
<!-- 75&#45;&gt;14 -->
<g id="edge177" class="edge"><title>75&#45;&gt;14</title>
<path fill="none" stroke="red" d="M1864.26,-1163.04C1881.93,-1131.36 1916.32,-1057.53 1888,-1004.25 1827.9,-891.157 1674.32,-829.249 1611.94,-808.094"/>
<polygon fill="red" stroke="red" points="1613,-804.757 1602.4,-804.938 1610.8,-811.402 1613,-804.757"/>
</g>
<!-- 141 -->
<g id="node40" class="node"><title>141</title>
<ellipse fill="none" stroke="black" cx="489" cy="-1103.89" rx="21.4286" ry="21.4286"/>
<text text-anchor="middle" x="489" y="-1101.69" font-family="Times New Roman,serif" font-size="9.00">141</text>
</g>
<!-- 30&#45;&gt;141 -->
<g id="edge170" class="edge"><title>30&#45;&gt;141</title>
<path fill="none" stroke="red" d="M468.127,-1161.78C471.175,-1153.47 474.947,-1143.19 478.443,-1133.66"/>
<polygon fill="red" stroke="red" points="481.785,-1134.71 481.944,-1124.12 475.213,-1132.3 481.785,-1134.71"/>
</g>
<!-- 30&#45;&gt;13 -->
<g id="edge41" class="edge"><title>30&#45;&gt;13</title>
<path fill="none" stroke="green" d="M459.362,-1161.03C456.926,-1141.71 454.33,-1109.73 459,-1082.67 460.76,-1072.48 464.19,-1061.68 467.72,-1052.31"/>
<polygon fill="green" stroke="green" points="471.064,-1053.37 471.516,-1042.78 464.562,-1050.78 471.064,-1053.37"/>
</g>
<!-- 30&#45;&gt;110 -->
<g id="edge97" class="edge"><title>30&#45;&gt;110</title>
<path fill="none" stroke="green" d="M446.844,-1168.25C429.237,-1156.36 399.898,-1136.55 378.706,-1122.24"/>
<polygon fill="green" stroke="green" points="380.427,-1119.18 370.181,-1116.49 376.51,-1124.98 380.427,-1119.18"/>
</g>
<!-- 86&#45;&gt;42 -->
<g id="edge46" class="edge"><title>86&#45;&gt;42</title>
<path fill="none" stroke="green" d="M1157.45,-1090.27C1145.57,-1078.32 1127.54,-1060.19 1113.74,-1046.31"/>
<polygon fill="green" stroke="green" points="1116.1,-1043.72 1106.57,-1039.1 1111.14,-1048.66 1116.1,-1043.72"/>
</g>
<!-- 80&#45;&gt;13 -->
<g id="edge128" class="edge"><title>80&#45;&gt;13</title>
<path fill="none" stroke="green" d="M569.4,-1092.26C551.847,-1079.48 522.191,-1057.9 501.656,-1042.95"/>
<polygon fill="green" stroke="green" points="503.621,-1040.05 493.476,-1037 499.501,-1045.71 503.621,-1040.05"/>
</g>
<!-- 80&#45;&gt;56 -->
<g id="edge146" class="edge"><title>80&#45;&gt;56</title>
<path fill="none" stroke="red" d="M589.12,-1086C608.814,-1019.25 677.993,-767.071 666,-556.316 662.884,-501.553 652,-488.548 652,-433.697 652,-433.697 652,-433.697 652,-362.463 652,-321.514 650.839,-307.951 671,-272.309 679.739,-256.859 776.018,-176.635 788,-163.539 807.862,-141.831 828.233,-114.975 841.84,-96.2466"/>
<polygon fill="red" stroke="red" points="844.766,-98.1732 847.767,-88.0125 839.085,-94.0837 844.766,-98.1732"/>
</g>
<!-- 203&#45;&gt;39 -->
<g id="edge184" class="edge"><title>203&#45;&gt;39</title>
<path fill="none" stroke="green" d="M1679.59,-1086.3C1687.9,-1075.35 1698.89,-1060.87 1707.98,-1048.89"/>
<polygon fill="green" stroke="green" points="1710.94,-1050.78 1714.19,-1040.7 1705.36,-1046.55 1710.94,-1050.78"/>
</g>
<!-- 55&#45;&gt;31 -->
<g id="edge64" class="edge"><title>55&#45;&gt;31</title>
<path fill="none" stroke="red" d="M1267.76,-928.592C1267.65,-920.13 1267.51,-909.758 1267.38,-900.241"/>
<polygon fill="red" stroke="red" points="1270.87,-899.959 1267.24,-890.007 1263.88,-900.054 1270.87,-899.959"/>
</g>
<!-- 141&#45;&gt;13 -->
<g id="edge171" class="edge"><title>141&#45;&gt;13</title>
<path fill="none" stroke="green" d="M486.373,-1082.81C485.221,-1074 483.85,-1063.53 482.605,-1054.01"/>
<polygon fill="green" stroke="green" points="486.038,-1053.27 481.27,-1043.81 479.097,-1054.18 486.038,-1053.27"/>
</g>
<!-- 21 -->
<g id="node53" class="node"><title>21</title>
<ellipse fill="none" stroke="black" cx="530" cy="-725.897" rx="18.2703" ry="18.2703"/>
<text text-anchor="middle" x="530" y="-723.697" font-family="Times New Roman,serif" font-size="9.00">21</text>
</g>
<!-- 171&#45;&gt;21 -->
<g id="edge154" class="edge"><title>171&#45;&gt;21</title>
<path fill="none" stroke="green" d="M1669.62,-1004.35C1674.56,-956.739 1679.34,-836.92 1612,-780.281 1606.8,-775.911 729.654,-735.945 558.692,-728.195"/>
<polygon fill="green" stroke="green" points="558.831,-724.698 548.683,-727.741 558.514,-731.691 558.831,-724.698"/>
</g>
<!-- 60&#45;&gt;42 -->
<g id="edge49" class="edge"><title>60&#45;&gt;42</title>
<path fill="none" stroke="red" d="M1711.63,-1090.97C1707.25,-1087.72 1702.18,-1084.57 1697,-1082.67 1600.32,-1047.22 1337.35,-1057.99 1235,-1046.67 1195.77,-1042.34 1150.65,-1035.55 1122.23,-1031.05"/>
<polygon fill="red" stroke="red" points="1122.63,-1027.57 1112.2,-1029.45 1121.53,-1034.49 1122.63,-1027.57"/>
</g>
<!-- 60&#45;&gt;34 -->
<g id="edge178" class="edge"><title>60&#45;&gt;34</title>
<path fill="none" stroke="red" d="M1740.6,-1094.12C1764.05,-1080.94 1808.57,-1055.92 1836.41,-1040.28"/>
<polygon fill="red" stroke="red" points="1838.16,-1043.31 1845.16,-1035.36 1834.73,-1037.21 1838.16,-1043.31"/>
</g>
<!-- 60&#45;&gt;24 -->
<g id="edge35" class="edge"><title>60&#45;&gt;24</title>
<path fill="none" stroke="green" d="M1734.53,-1087.82C1740.88,-1076.88 1748.63,-1061.45 1752,-1046.67 1756.19,-1028.29 1754.01,-1023 1752,-1004.25 1740.76,-899.296 1756.78,-844.49 1673,-780.281 1452.26,-611.096 1096.04,-581.734 992.86,-576.717"/>
<polygon fill="green" stroke="green" points="992.753,-573.209 982.607,-576.26 992.442,-580.202 992.753,-573.209"/>
</g>
<!-- 60&#45;&gt;7 -->
<g id="edge86" class="edge"><title>60&#45;&gt;7</title>
<path fill="none" stroke="red" d="M1711.46,-1091.38C1707.08,-1088.15 1702.04,-1084.91 1697,-1082.67 1626.8,-1051.53 1598.27,-1077.65 1528,-1046.67 1480.55,-1025.75 1433.08,-986.941 1408.07,-964.75"/>
<polygon fill="red" stroke="red" points="1410.26,-962.007 1400.48,-957.912 1405.57,-967.207 1410.26,-962.007"/>
</g>
<!-- 45 -->
<g id="node48" class="node"><title>45</title>
<ellipse fill="none" stroke="black" cx="470" cy="-947.034" rx="18.2703" ry="18.2703"/>
<text text-anchor="middle" x="470" y="-944.834" font-family="Times New Roman,serif" font-size="9.00">45</text>
</g>
<!-- 13&#45;&gt;45 -->
<g id="edge89" class="edge"><title>13&#45;&gt;45</title>
<path fill="none" stroke="red" d="M476.958,-1007.12C475.853,-997.737 474.463,-985.936 473.217,-975.351"/>
<polygon fill="red" stroke="red" points="476.68,-974.829 472.034,-965.307 469.728,-975.648 476.68,-974.829"/>
</g>
<!-- 13&#45;&gt;19 -->
<g id="edge101" class="edge"><title>13&#45;&gt;19</title>
<path fill="none" stroke="red" d="M484.859,-1007.88C488.652,-996.762 493.514,-981.74 497,-968.247 502.906,-945.389 508.007,-919.057 511.433,-899.789"/>
<polygon fill="red" stroke="red" points="514.891,-900.331 513.158,-889.879 507.995,-899.13 514.891,-900.331"/>
</g>
<!-- 13&#45;&gt;17 -->
<g id="edge186" class="edge"><title>13&#45;&gt;17</title>
<path fill="none" stroke="red" d="M467.05,-1010.79C458.493,-1000.05 447.689,-984.263 443,-968.247 412.689,-864.712 435.221,-733.993 447.462,-678.355"/>
<polygon fill="red" stroke="red" points="450.953,-678.785 449.754,-668.258 444.127,-677.235 450.953,-678.785"/>
</g>
<!-- 13&#45;&gt;64 -->
<g id="edge110" class="edge"><title>13&#45;&gt;64</title>
<path fill="none" stroke="red" d="M489.726,-1010.51C544.691,-939.024 794.844,-613.683 862.877,-525.201"/>
<polygon fill="red" stroke="red" points="865.732,-527.229 869.053,-517.168 860.183,-522.962 865.732,-527.229"/>
</g>
<!-- 13&#45;&gt;8 -->
<g id="edge189" class="edge"><title>13&#45;&gt;8</title>
<path fill="none" stroke="red" d="M465.074,-1013.15C453.451,-1002.81 437.602,-986.398 430,-968.247 399.95,-896.502 407.022,-661.655 427,-629.085 436.089,-614.267 688.191,-490.776 704,-483.546 739.404,-467.356 781.695,-451.408 807.437,-442.064"/>
<polygon fill="red" stroke="red" points="808.851,-445.275 817.074,-438.594 806.479,-438.689 808.851,-445.275"/>
</g>
<!-- 13&#45;&gt;7 -->
<g id="edge130" class="edge"><title>13&#45;&gt;7</title>
<path fill="none" stroke="red" d="M497.484,-1024.15C586.292,-1022.45 977.882,-1012.68 1295,-968.247 1319.26,-964.847 1346.59,-958.796 1365.68,-954.197"/>
<polygon fill="red" stroke="red" points="1366.75,-957.538 1375.63,-951.754 1365.08,-950.74 1366.75,-957.538"/>
</g>
<!-- 42&#45;&gt;8 -->
<g id="edge47" class="edge"><title>42&#45;&gt;8</title>
<path fill="none" stroke="red" d="M1092.46,-1006.69C1090.13,-978.326 1086,-921.066 1086,-872.436 1086,-872.436 1086,-872.436 1086,-573.701 1086,-532.236 1092.01,-512.159 1062,-483.546 1032.48,-455.404 909.501,-440.908 856.02,-435.836"/>
<polygon fill="red" stroke="red" points="856.287,-432.346 846.01,-434.92 855.649,-439.317 856.287,-432.346"/>
</g>
<!-- 42&#45;&gt;7 -->
<g id="edge12" class="edge"><title>42&#45;&gt;7</title>
<path fill="none" stroke="green" d="M1108.39,-1013.85C1113.7,-1010.35 1119.91,-1006.72 1126,-1004.25 1126.18,-1004.18 1300.22,-967.137 1365.58,-953.229"/>
<polygon fill="green" stroke="green" points="1366.39,-956.636 1375.44,-951.131 1364.93,-949.789 1366.39,-956.636"/>
</g>
<!-- 16 -->
<g id="node65" class="node"><title>16</title>
<ellipse fill="none" stroke="black" cx="831" cy="-363.463" rx="18.2703" ry="18.2703"/>
<text text-anchor="middle" x="831" y="-361.263" font-family="Times New Roman,serif" font-size="9.00">16</text>
</g>
<!-- 42&#45;&gt;16 -->
<g id="edge48" class="edge"><title>42&#45;&gt;16</title>
<path fill="none" stroke="red" d="M1100.22,-1007.64C1125.64,-935.687 1214.49,-649.875 1088,-483.546 1030.37,-407.768 912.932,-378.5 859.098,-368.733"/>
<polygon fill="red" stroke="red" points="859.665,-365.279 849.216,-367.032 858.477,-372.178 859.665,-365.279"/>
</g>
<!-- 115 -->
<g id="node50" class="node"><title>115</title>
<ellipse fill="none" stroke="black" cx="1569" cy="-947.034" rx="21.4286" ry="21.4286"/>
<text text-anchor="middle" x="1569" y="-944.834" font-family="Times New Roman,serif" font-size="9.00">115</text>
</g>
<!-- 34&#45;&gt;115 -->
<g id="edge78" class="edge"><title>34&#45;&gt;115</title>
<path fill="none" stroke="red" d="M1843.17,-1019.79C1794.6,-1007.08 1659.5,-971.719 1598.98,-955.881"/>
<polygon fill="red" stroke="red" points="1599.82,-952.483 1589.26,-953.336 1598.05,-959.255 1599.82,-952.483"/>
</g>
<!-- 34&#45;&gt;7 -->
<g id="edge32" class="edge"><title>34&#45;&gt;7</title>
<path fill="none" stroke="green" d="M1842.9,-1020.94C1821.3,-1016.77 1784.06,-1009.71 1752,-1004.25 1625.66,-982.727 1473.92,-960.256 1415.05,-951.665"/>
<polygon fill="green" stroke="green" points="1415.25,-948.158 1404.85,-950.181 1414.24,-955.085 1415.25,-948.158"/>
</g>
<!-- 110&#45;&gt;8 -->
<g id="edge94" class="edge"><title>110&#45;&gt;8</title>
<path fill="none" stroke="red" d="M351.163,-1082.67C345.867,-1014.7 335.537,-789.64 413,-629.085 487.152,-475.394 727.332,-442.19 805.884,-435.374"/>
<polygon fill="red" stroke="red" points="806.57,-438.83 816.261,-434.548 806.015,-431.852 806.57,-438.83"/>
</g>
<!-- 39&#45;&gt;115 -->
<g id="edge176" class="edge"><title>39&#45;&gt;115</title>
<path fill="none" stroke="red" d="M1710.86,-1013.36C1706.54,-1010.22 1701.68,-1006.93 1697,-1004.25 1664.49,-985.655 1624.68,-969.055 1598.17,-958.799"/>
<polygon fill="red" stroke="red" points="1599.29,-955.482 1588.7,-955.188 1596.8,-962.022 1599.29,-955.482"/>
</g>
<!-- 105 -->
<g id="node56" class="node"><title>105</title>
<ellipse fill="none" stroke="black" cx="923" cy="-650.299" rx="21.4286" ry="21.4286"/>
<text text-anchor="middle" x="923" y="-648.099" font-family="Times New Roman,serif" font-size="9.00">105</text>
</g>
<!-- 39&#45;&gt;105 -->
<g id="edge180" class="edge"><title>39&#45;&gt;105</title>
<path fill="none" stroke="red" d="M1725.2,-1007.04C1724.68,-960.788 1716.12,-834.765 1641,-780.281 1550.48,-714.632 1502.21,-763.16 1392,-744.281 1225.9,-715.829 1028.29,-674.027 953.609,-657.943"/>
<polygon fill="red" stroke="red" points="954.014,-654.449 943.501,-655.761 952.537,-661.292 954.014,-654.449"/>
</g>
<!-- 39&#45;&gt;8 -->
<g id="edge149" class="edge"><title>39&#45;&gt;8</title>
<path fill="none" stroke="red" d="M1728.85,-1007.34C1731.15,-996.26 1733.83,-981.478 1735,-968.247 1739.56,-916.628 1736.85,-900.917 1717,-853.051 1667.75,-734.315 1638.56,-703.86 1534,-629.085 1403.28,-535.603 1357.72,-526.989 1203,-483.546 1075.73,-447.811 916.554,-437.408 855.97,-434.63"/>
<polygon fill="red" stroke="red" points="855.975,-431.127 845.835,-434.195 855.676,-438.12 855.975,-431.127"/>
</g>
<!-- 45&#45;&gt;19 -->
<g id="edge90" class="edge"><title>45&#45;&gt;19</title>
<path fill="none" stroke="red" d="M479.309,-931.14C485.606,-921.064 494.056,-907.544 501.26,-896.019"/>
<polygon fill="red" stroke="red" points="504.373,-897.642 506.705,-887.307 498.437,-893.932 504.373,-897.642"/>
</g>
<!-- 93 -->
<g id="node52" class="node"><title>93</title>
<ellipse fill="none" stroke="black" cx="568" cy="-798.666" rx="18.2703" ry="18.2703"/>
<text text-anchor="middle" x="568" y="-796.466" font-family="Times New Roman,serif" font-size="9.00">93</text>
</g>
<!-- 19&#45;&gt;93 -->
<g id="edge136" class="edge"><title>19&#45;&gt;93</title>
<path fill="none" stroke="green" d="M526.523,-856.114C533.642,-846.426 543.194,-833.426 551.337,-822.343"/>
<polygon fill="green" stroke="green" points="554.392,-824.097 557.493,-813.966 548.751,-819.952 554.392,-824.097"/>
</g>
<!-- 19&#45;&gt;21 -->
<g id="edge40" class="edge"><title>19&#45;&gt;21</title>
<path fill="none" stroke="green" d="M517.689,-853.121C520.075,-828.658 524.458,-783.717 527.299,-754.587"/>
<polygon fill="green" stroke="green" points="530.818,-754.565 528.305,-744.272 523.851,-753.885 530.818,-754.565"/>
</g>
<!-- 19&#45;&gt;17 -->
<g id="edge194" class="edge"><title>19&#45;&gt;17</title>
<path fill="none" stroke="green" d="M511.238,-853.604C500.531,-815.762 474.486,-723.707 461.549,-677.982"/>
<polygon fill="green" stroke="green" points="464.869,-676.857 458.778,-668.187 458.133,-678.763 464.869,-676.857"/>
</g>
<!-- 115&#45;&gt;31 -->
<g id="edge79" class="edge"><title>115&#45;&gt;31</title>
<path fill="none" stroke="red" d="M1547.65,-944.232C1500.55,-939.709 1384.78,-925.574 1295,-889.82 1293.57,-889.251 1292.13,-888.61 1290.71,-887.919"/>
<polygon fill="red" stroke="red" points="1292.03,-884.653 1281.6,-882.844 1288.63,-890.768 1292.03,-884.653"/>
</g>
<!-- 67 -->
<g id="node66" class="node"><title>67</title>
<ellipse fill="none" stroke="black" cx="1566" cy="-871.436" rx="18.2703" ry="18.2703"/>
<text text-anchor="middle" x="1566" y="-869.236" font-family="Times New Roman,serif" font-size="9.00">67</text>
</g>
<!-- 115&#45;&gt;67 -->
<g id="edge83" class="edge"><title>115&#45;&gt;67</title>
<path fill="none" stroke="green" d="M1568.16,-925.532C1567.84,-917.637 1567.47,-908.488 1567.12,-900.031"/>
<polygon fill="green" stroke="green" points="1570.61,-899.686 1566.71,-889.837 1563.62,-899.971 1570.61,-899.686"/>
</g>
<!-- 53&#45;&gt;27 -->
<g id="edge109" class="edge"><title>53&#45;&gt;27</title>
<path fill="none" stroke="red" d="M1776.49,-1321.01C1806.96,-1310.5 1867.87,-1287.9 1882,-1270.64 1903.03,-1244.94 1894.22,-1230.74 1899,-1197.87 1911.4,-1112.62 1920.08,-1089.54 1908,-1004.25 1885.11,-842.574 1806,-814.584 1806,-651.299 1806,-651.299 1806,-651.299 1806,-500.931 1806,-311.806 1508.57,-241.183 1414.9,-223.631"/>
<polygon fill="red" stroke="red" points="1415.47,-220.178 1405,-221.834 1414.22,-227.065 1415.47,-220.178"/>
</g>
<!-- 93&#45;&gt;21 -->
<g id="edge137" class="edge"><title>93&#45;&gt;21</title>
<path fill="none" stroke="red" d="M559.567,-781.96C554.745,-772.981 548.593,-761.523 543.15,-751.387"/>
<polygon fill="red" stroke="red" points="546.224,-749.713 538.41,-742.559 540.057,-753.025 546.224,-749.713"/>
</g>
<!-- 93&#45;&gt;56 -->
<g id="edge179" class="edge"><title>93&#45;&gt;56</title>
<path fill="none" stroke="green" d="M566.175,-780.05C559.807,-710.691 543.793,-451.482 638,-272.309 650.255,-249.001 783.391,-135.932 836.403,-91.4312"/>
<polygon fill="green" stroke="green" points="838.777,-94.0082 844.193,-84.9019 834.281,-88.6435 838.777,-94.0082"/>
</g>
<!-- 21&#45;&gt;17 -->
<g id="edge193" class="edge"><title>21&#45;&gt;17</title>
<path fill="none" stroke="green" d="M517.108,-712.412C505.354,-701.03 487.8,-684.031 474.188,-670.848"/>
<polygon fill="green" stroke="green" points="476.321,-668.041 466.702,-663.599 471.451,-673.07 476.321,-668.041"/>
</g>
<!-- 21&#45;&gt;105 -->
<g id="edge122" class="edge"><title>21&#45;&gt;105</title>
<path fill="none" stroke="red" d="M547.908,-721.543C609.576,-709.994 813.645,-671.778 891.994,-657.105"/>
<polygon fill="red" stroke="red" points="893.002,-660.477 902.187,-655.196 891.714,-653.597 893.002,-660.477"/>
</g>
<!-- 21&#45;&gt;56 -->
<g id="edge120" class="edge"><title>21&#45;&gt;56</title>
<path fill="none" stroke="red" d="M524.357,-708.113C515.667,-680.727 500,-624.579 500,-575.701 500,-575.701 500,-575.701 500,-362.463 500,-276.678 751.97,-131.37 833.133,-86.7892"/>
<polygon fill="red" stroke="red" points="835.056,-89.7269 842.155,-81.8627 831.701,-83.5831 835.056,-89.7269"/>
</g>
<!-- 31&#45;&gt;26 -->
<g id="edge63" class="edge"><title>31&#45;&gt;26</title>
<path fill="none" stroke="red" d="M1265.79,-852.767C1264.03,-825.689 1261,-772.291 1261,-726.897 1261,-726.897 1261,-726.897 1261,-649.299 1261,-550.068 1306.56,-438.393 1328.92,-389.568"/>
<polygon fill="red" stroke="red" points="1332.14,-390.939 1333.18,-380.396 1325.79,-387.986 1332.14,-390.939"/>
</g>
<!-- 17&#45;&gt;24 -->
<g id="edge191" class="edge"><title>17&#45;&gt;24</title>
<path fill="none" stroke="green" d="M472.151,-646.679C548.362,-635.681 842.817,-593.188 935.737,-579.779"/>
<polygon fill="green" stroke="green" points="936.403,-583.219 945.801,-578.327 935.403,-576.291 936.403,-583.219"/>
</g>
<!-- 17&#45;&gt;8 -->
<g id="edge187" class="edge"><title>17&#45;&gt;8</title>
<path fill="none" stroke="red" d="M471.183,-643.306C497.418,-633.912 548.757,-614.559 590,-593.085 643.316,-565.326 654.763,-554.795 704,-520.316 726.013,-504.901 729.947,-498.903 752,-483.546 771.135,-470.221 793.696,-456.139 809.799,-446.354"/>
<polygon fill="red" stroke="red" points="811.706,-449.291 818.459,-441.127 808.088,-443.298 811.706,-449.291"/>
</g>
<!-- 105&#45;&gt;64 -->
<g id="edge123" class="edge"><title>105&#45;&gt;64</title>
<path fill="none" stroke="green" d="M917.29,-629.862C909.721,-604.098 896.333,-558.528 887.827,-529.572"/>
<polygon fill="green" stroke="green" points="891.11,-528.331 884.933,-519.723 884.394,-530.305 891.11,-528.331"/>
</g>
<!-- 24&#45;&gt;64 -->
<g id="edge36" class="edge"><title>24&#45;&gt;64</title>
<path fill="none" stroke="green" d="M950.129,-562.014C936.918,-550.885 916.836,-533.965 901.543,-521.081"/>
<polygon fill="green" stroke="green" points="903.516,-518.166 893.613,-514.4 899.005,-523.52 903.516,-518.166"/>
</g>
<!-- 24&#45;&gt;8 -->
<g id="edge61" class="edge"><title>24&#45;&gt;8</title>
<path fill="none" stroke="red" d="M956.497,-557.613C946.966,-538.383 929.073,-505.991 907,-483.546 891.241,-467.521 869.49,-453.896 853.294,-444.962"/>
<polygon fill="red" stroke="red" points="854.502,-441.64 844.031,-440.026 851.21,-447.817 854.502,-441.64"/>
</g>
<!-- 64&#45;&gt;8 -->
<g id="edge37" class="edge"><title>64&#45;&gt;8</title>
<path fill="none" stroke="red" d="M869.608,-486.672C862.585,-477.036 853.216,-464.18 845.466,-453.545"/>
<polygon fill="red" stroke="red" points="848.142,-451.275 839.423,-445.255 842.485,-455.398 848.142,-451.275"/>
</g>
<!-- 64&#45;&gt;58 -->
<g id="edge92" class="edge"><title>64&#45;&gt;58</title>
<path fill="none" stroke="green" d="M898.32,-499.045C978.823,-490.386 1300.19,-451.84 1368,-381.848 1383.94,-365.391 1387.99,-339.121 1388.47,-319.175"/>
<polygon fill="green" stroke="green" points="1391.97,-319.111 1388.43,-309.126 1384.97,-319.141 1391.97,-319.111"/>
</g>
<!-- 8&#45;&gt;5 -->
<g id="edge4" class="edge"><title>8&#45;&gt;5</title>
<path fill="none" stroke="green" d="M822.588,-420.096C816.105,-410.407 807.651,-395.949 804,-381.848 771.572,-256.603 801.667,-220.143 801,-90.7696 800.89,-69.3308 800.911,-44.6906 800.946,-28.3199"/>
<polygon fill="green" stroke="green" points="804.447,-28.0339 800.973,-18.0249 797.447,-28.0159 804.447,-28.0339"/>
</g>
<!-- 8&#45;&gt;26 -->
<g id="edge129" class="edge"><title>8&#45;&gt;26</title>
<path fill="none" stroke="green" d="M845.713,-429.757C916.087,-420.48 1218.81,-380.572 1312.95,-368.161"/>
<polygon fill="green" stroke="green" points="1313.42,-371.629 1322.88,-366.852 1312.51,-364.689 1313.42,-371.629"/>
</g>
<!-- 8&#45;&gt;16 -->
<g id="edge25" class="edge"><title>8&#45;&gt;16</title>
<path fill="none" stroke="red" d="M831,-417.766C831,-410.438 831,-401.182 831,-392.448"/>
<polygon fill="red" stroke="red" points="834.5,-392.219 831,-382.219 827.5,-392.219 834.5,-392.219"/>
</g>
<!-- 12 -->
<g id="node69" class="node"><title>12</title>
<ellipse fill="none" stroke="black" cx="698" cy="-290.693" rx="18.2703" ry="18.2703"/>
<text text-anchor="middle" x="698" y="-288.493" font-family="Times New Roman,serif" font-size="9.00">12</text>
</g>
<!-- 8&#45;&gt;12 -->
<g id="edge192" class="edge"><title>8&#45;&gt;12</title>
<path fill="none" stroke="green" d="M816.488,-428.277C794.719,-422.42 753.645,-408.446 730,-381.848 714.451,-364.357 706.324,-338.808 702.16,-319.37"/>
<polygon fill="green" stroke="green" points="705.548,-318.455 700.232,-309.29 698.673,-319.77 705.548,-318.455"/>
</g>
<!-- 7&#45;&gt;5 -->
<g id="edge7" class="edge"><title>7&#45;&gt;5</title>
<path fill="none" stroke="green" d="M1395.66,-933.279C1418.28,-881.079 1501,-678.194 1501,-502.931 1501,-502.931 1501,-502.931 1501,-144.154 1501,-69.398 1429.91,-77.6708 1359,-54 1256.35,-19.7323 909.909,-11.7863 821.615,-10.2999"/>
<polygon fill="green" stroke="green" points="821.588,-6.79913 811.534,-10.14 821.477,-13.7982 821.588,-6.79913"/>
</g>
<!-- 84 -->
<g id="node62" class="node"><title>84</title>
<ellipse fill="none" stroke="black" cx="1322" cy="-871.436" rx="18.2703" ry="18.2703"/>
<text text-anchor="middle" x="1322" y="-869.236" font-family="Times New Roman,serif" font-size="9.00">84</text>
</g>
<!-- 7&#45;&gt;84 -->
<g id="edge77" class="edge"><title>7&#45;&gt;84</title>
<path fill="none" stroke="green" d="M1380.26,-935.489C1370.07,-924.458 1353.81,-906.859 1341.05,-893.054"/>
<polygon fill="green" stroke="green" points="1343.37,-890.412 1334.02,-885.443 1338.23,-895.163 1343.37,-890.412"/>
</g>
<!-- 7&#45;&gt;48 -->
<g id="edge114" class="edge"><title>7&#45;&gt;48</title>
<path fill="none" stroke="green" d="M1384.41,-933.044C1374.03,-908.928 1351.61,-856.831 1338.06,-825.359"/>
<polygon fill="green" stroke="green" points="1341.17,-823.728 1334,-815.927 1334.74,-826.496 1341.17,-823.728"/>
</g>
<!-- 7&#45;&gt;67 -->
<g id="edge71" class="edge"><title>7&#45;&gt;67</title>
<path fill="none" stroke="red" d="M1403.52,-940.381C1432.7,-928.176 1502.04,-899.18 1540.02,-883.298"/>
<polygon fill="red" stroke="red" points="1541.53,-886.462 1549.4,-879.375 1538.83,-880.004 1541.53,-886.462"/>
</g>
<!-- 7&#45;&gt;14 -->
<g id="edge22" class="edge"><title>7&#45;&gt;14</title>
<path fill="none" stroke="green" d="M1401.61,-937.316C1433.15,-913.644 1520.8,-847.853 1562.46,-816.586"/>
<polygon fill="green" stroke="green" points="1564.72,-819.268 1570.61,-810.466 1560.51,-813.67 1564.72,-819.268"/>
</g>
<!-- 6&#45;&gt;5 -->
<g id="edge169" class="edge"><title>6&#45;&gt;5</title>
<path fill="none" stroke="red" d="M2153.66,-713.169C2137.17,-688.806 2102,-630.42 2102,-575.701 2102,-575.701 2102,-575.701 2102,-144.154 2102,-73.8424 2038.7,-76.248 1972,-54 1858.79,-16.2393 969.388,-10.7349 821.737,-10.0792"/>
<polygon fill="red" stroke="red" points="821.749,-6.57933 811.735,-10.0373 821.72,-13.5793 821.749,-6.57933"/>
</g>
<!-- 84&#45;&gt;48 -->
<g id="edge105" class="edge"><title>84&#45;&gt;48</title>
<path fill="none" stroke="red" d="M1323.24,-852.942C1323.78,-845.26 1324.43,-836.051 1325.04,-827.466"/>
<polygon fill="red" stroke="red" points="1328.53,-827.672 1325.74,-817.45 1321.55,-827.178 1328.53,-827.672"/>
</g>
<!-- 48&#45;&gt;5 -->
<g id="edge88" class="edge"><title>48&#45;&gt;5</title>
<path fill="none" stroke="green" d="M1325.09,-780.214C1318.21,-715.568 1295,-483.573 1295,-291.693 1295,-291.693 1295,-291.693 1295,-144.154 1295,-44.5527 916.272,-16.521 822.036,-11.0878"/>
<polygon fill="green" stroke="green" points="821.955,-7.57807 811.777,-10.5223 821.569,-14.5675 821.955,-7.57807"/>
</g>
<!-- 26&#45;&gt;58 -->
<g id="edge69" class="edge"><title>26&#45;&gt;58</title>
<path fill="none" stroke="green" d="M1350.76,-347.455C1356.85,-338.072 1364.84,-325.79 1371.76,-315.141"/>
<polygon fill="green" stroke="green" points="1374.74,-316.972 1377.26,-306.68 1368.87,-313.157 1374.74,-316.972"/>
</g>
<!-- 26&#45;&gt;27 -->
<g id="edge19" class="edge"><title>26&#45;&gt;27</title>
<path fill="none" stroke="green" d="M1343.28,-345.152C1346.02,-326.73 1351.35,-296.906 1360,-272.309 1363.44,-262.522 1368.3,-252.247 1372.96,-243.353"/>
<polygon fill="green" stroke="green" points="1376.16,-244.792 1377.85,-234.333 1370.01,-241.455 1376.16,-244.792"/>
</g>
<!-- 16&#45;&gt;5 -->
<g id="edge29" class="edge"><title>16&#45;&gt;5</title>
<path fill="none" stroke="red" d="M829.512,-344.984C824.425,-285.217 807.752,-89.3298 802.559,-28.3138"/>
<polygon fill="red" stroke="red" points="806.039,-27.9368 801.704,-18.2697 799.065,-28.5306 806.039,-27.9368"/>
</g>
<!-- 16&#45;&gt;12 -->
<g id="edge103" class="edge"><title>16&#45;&gt;12</title>
<path fill="none" stroke="red" d="M814.957,-353.927C792.09,-341.759 749.913,-319.316 722.947,-304.968"/>
<polygon fill="red" stroke="red" points="724.572,-301.868 714.1,-300.26 721.284,-308.047 724.572,-301.868"/>
</g>
<!-- 16&#45;&gt;56 -->
<g id="edge124" class="edge"><title>16&#45;&gt;56</title>
<path fill="none" stroke="red" d="M832.648,-344.815C837.197,-296.116 849.95,-159.573 855.437,-100.827"/>
<polygon fill="red" stroke="red" points="858.928,-101.084 856.373,-90.8018 851.958,-100.433 858.928,-101.084"/>
</g>
<!-- 67&#45;&gt;14 -->
<g id="edge72" class="edge"><title>67&#45;&gt;14</title>
<path fill="none" stroke="green" d="M1570.6,-853.304C1572.77,-845.22 1575.41,-835.385 1577.83,-826.356"/>
<polygon fill="green" stroke="green" points="1581.23,-827.205 1580.44,-816.64 1574.47,-825.39 1581.23,-827.205"/>
</g>
<!-- 58&#45;&gt;27 -->
<g id="edge70" class="edge"><title>58&#45;&gt;27</title>
<path fill="none" stroke="green" d="M1387,-272.2C1387,-264.518 1387,-255.308 1387,-246.724"/>
<polygon fill="green" stroke="green" points="1390.5,-246.708 1387,-236.708 1383.5,-246.708 1390.5,-246.708"/>
</g>
<!-- 14&#45;&gt;5 -->
<g id="edge23" class="edge"><title>14&#45;&gt;5</title>
<path fill="none" stroke="green" d="M1603.21,-796.108C1662.17,-789.977 1844,-762.085 1844,-651.299 1844,-651.299 1844,-651.299 1844,-144.154 1844,-37.1685 969.565,-13.6294 822.019,-10.419"/>
<polygon fill="green" stroke="green" points="821.734,-6.91236 811.663,-10.2017 821.587,-13.9108 821.734,-6.91236"/>
</g>
<!-- 14&#45;&gt;56 -->
<g id="edge44" class="edge"><title>14&#45;&gt;56</title>
<path fill="none" stroke="red" d="M1601.63,-790.521C1639.72,-772.912 1730,-723.552 1730,-651.299 1730,-651.299 1730,-651.299 1730,-362.463 1730,-184.392 1572.47,-190.001 1406,-126.77 1309.43,-90.0863 985.271,-77.291 886.686,-74.1962"/>
<polygon fill="red" stroke="red" points="886.675,-70.6944 876.573,-73.8883 886.462,-77.6911 886.675,-70.6944"/>
</g>
<!-- 12&#45;&gt;5 -->
<g id="edge102" class="edge"><title>12&#45;&gt;5</title>
<path fill="none" stroke="red" d="M684.321,-278.139C673.774,-268.267 660.006,-253.039 654,-236.309 626.623,-160.048 605.613,-118.992 654,-54 683.315,-14.6249 746.594,-9.13754 779.751,-9.15365"/>
<polygon fill="red" stroke="red" points="780.056,-12.6597 790.118,-9.34234 780.183,-5.66084 780.056,-12.6597"/>
</g>
<!-- 27&#45;&gt;5 -->
<g id="edge60" class="edge"><title>27&#45;&gt;5</title>
<path fill="none" stroke="green" d="M1395.94,-201.799C1405.64,-183.242 1418.23,-151.235 1406,-126.77 1381.9,-78.5636 1359.34,-73.2382 1309,-54 1217.69,-19.1059 905.853,-11.6711 821.938,-10.2872"/>
<polygon fill="green" stroke="green" points="821.908,-6.78645 811.855,-10.1327 821.8,-13.7856 821.908,-6.78645"/>
</g>
<!-- 72 -->
<g id="node71" class="node"><title>72</title>
<ellipse fill="none" stroke="black" cx="1379" cy="-145.154" rx="18.2703" ry="18.2703"/>
<text text-anchor="middle" x="1379" y="-142.954" font-family="Times New Roman,serif" font-size="9.00">72</text>
</g>
<!-- 27&#45;&gt;72 -->
<g id="edge133" class="edge"><title>27&#45;&gt;72</title>
<path fill="none" stroke="red" d="M1385.02,-199.43C1384.14,-191.632 1383.08,-182.259 1382.1,-173.565"/>
<polygon fill="red" stroke="red" points="1385.56,-172.99 1380.95,-163.447 1378.6,-173.777 1385.56,-172.99"/>
</g>
<!-- 27&#45;&gt;56 -->
<g id="edge38" class="edge"><title>27&#45;&gt;56</title>
<path fill="none" stroke="red" d="M1369.4,-212.148C1291.81,-191.096 980.007,-106.49 885.371,-80.8115"/>
<polygon fill="red" stroke="red" points="886.234,-77.4194 875.667,-78.1785 884.401,-84.1752 886.234,-77.4194"/>
</g>
<!-- 72&#45;&gt;56 -->
<g id="edge134" class="edge"><title>72&#45;&gt;56</title>
<path fill="none" stroke="red" d="M1363.91,-134.394C1358.74,-131.48 1352.79,-128.582 1347,-126.77 1178.81,-74.1527 964.044,-71.6747 887.066,-72.6926"/>
<polygon fill="red" stroke="red" points="886.671,-69.1985 876.73,-72.8626 886.786,-76.1976 886.671,-69.1985"/>
</g>
<!-- 56&#45;&gt;5 -->
<g id="edge39" class="edge"><title>56&#45;&gt;5</title>
<path fill="none" stroke="green" d="M845.912,-58.3666C837.041,-48.8139 824.953,-35.796 815.552,-25.672"/>
<polygon fill="green" stroke="green" points="818.071,-23.241 808.702,-18.2946 812.942,-28.0041 818.071,-23.241"/>
</g>
</g>
</svg>
