<?xml version="1.0" encoding="UTF-8" standalone="no"?>
<!DOCTYPE svg PUBLIC "-//W3C//DTD SVG 1.1//EN"
 "http://www.w3.org/Graphics/SVG/1.1/DTD/svg11.dtd">
<!-- Generated by graphviz version 2.38.0 (20140413.2041)
 -->
<!-- Title: %3 Pages: 1 -->
<svg width="2265pt" height="1870pt"
 viewBox="0.00 0.00 2265.10 1870.31" xmlns="http://www.w3.org/2000/svg" xmlns:xlink="http://www.w3.org/1999/xlink">
<g id="graph0" class="graph" transform="scale(1 1) rotate(0) translate(4 1866.31)">
<title>%3</title>
<polygon fill="white" stroke="none" points="-4,4 -4,-1866.31 2261.1,-1866.31 2261.1,4 -4,4"/>
<!-- 1 -->
<g id="node1" class="node"><title>1</title>
<polygon fill="lightgray" stroke="black" points="1085.5,-1415.28 1064.5,-1415.28 1064.5,-1397.28 1085.5,-1397.28 1085.5,-1415.28"/>
<text text-anchor="middle" x="1075" y="-1404.08" font-family="Times New Roman,serif" font-size="9.00">1</text>
</g>
<!-- 5 -->
<g id="node5" class="node"><title>5</title>
<polygon fill="lightblue" stroke="black" points="1537.5,-18 1516.5,-18 1516.5,-0 1537.5,-0 1537.5,-18"/>
<text text-anchor="middle" x="1527" y="-6.8" font-family="Times New Roman,serif" font-size="9.00">5</text>
</g>
<!-- 1&#45;&gt;5 -->
<g id="edge8" class="edge"><title>1&#45;&gt;5</title>
<path fill="none" stroke="red" d="M1085.84,-1404.18C1153.49,-1397.31 1516.59,-1360.17 1565,-1349.07 1590.7,-1343.17 1766.22,-1283.93 1789,-1270.64 1954.49,-1174.05 2075,-1139.65 2075,-948.034 2075,-948.034 2075,-948.034 2075,-144.154 2075,-33.5718 1648.68,-13.6946 1548.08,-10.5437"/>
<polygon fill="red" stroke="red" points="1548.04,-7.04118 1537.95,-10.2497 1547.84,-14.0382 1548.04,-7.04118"/>
</g>
<!-- 36 -->
<g id="node16" class="node"><title>36</title>
<ellipse fill="none" stroke="black" cx="898" cy="-1327.85" rx="18.2703" ry="18.2703"/>
<text text-anchor="middle" x="898" y="-1325.65" font-family="Times New Roman,serif" font-size="9.00">36</text>
</g>
<!-- 1&#45;&gt;36 -->
<g id="edge66" class="edge"><title>1&#45;&gt;36</title>
<path fill="none" stroke="green" d="M1066.81,-1397.25C1062.19,-1393.11 1056.13,-1388.27 1050,-1385.07 999.131,-1358.5 977.576,-1374.23 926,-1349.07 924.181,-1348.18 922.356,-1347.17 920.556,-1346.1"/>
<polygon fill="green" stroke="green" points="922.195,-1342.98 911.934,-1340.34 918.308,-1348.81 922.195,-1342.98"/>
</g>
<!-- 51 -->
<g id="node20" class="node"><title>51</title>
<ellipse fill="none" stroke="black" cx="953" cy="-1327.85" rx="18.2703" ry="18.2703"/>
<text text-anchor="middle" x="953" y="-1325.65" font-family="Times New Roman,serif" font-size="9.00">51</text>
</g>
<!-- 1&#45;&gt;51 -->
<g id="edge171" class="edge"><title>1&#45;&gt;51</title>
<path fill="none" stroke="red" d="M1065.57,-1397C1061.01,-1393.17 1055.37,-1388.68 1050,-1385.07 1022.61,-1366.61 1013.42,-1365.89 985,-1349.07 982.316,-1347.48 979.527,-1345.78 976.765,-1344.07"/>
<polygon fill="red" stroke="red" points="978.521,-1341.04 968.19,-1338.7 974.802,-1346.98 978.521,-1341.04"/>
</g>
<!-- 43 -->
<g id="node26" class="node"><title>43</title>
<ellipse fill="none" stroke="black" cx="1174" cy="-1179.48" rx="18.2703" ry="18.2703"/>
<text text-anchor="middle" x="1174" y="-1177.28" font-family="Times New Roman,serif" font-size="9.00">43</text>
</g>
<!-- 1&#45;&gt;43 -->
<g id="edge12" class="edge"><title>1&#45;&gt;43</title>
<path fill="none" stroke="green" d="M1075.54,-1397.06C1076.91,-1379.77 1081.33,-1338.57 1094,-1306.64 1109.67,-1267.13 1138.06,-1226.51 1156.47,-1202.39"/>
<polygon fill="green" stroke="green" points="1159.39,-1204.33 1162.75,-1194.28 1153.86,-1200.04 1159.39,-1204.33"/>
</g>
<!-- 64 -->
<g id="node58" class="node"><title>64</title>
<ellipse fill="none" stroke="black" cx="1003" cy="-501.931" rx="18.2703" ry="18.2703"/>
<text text-anchor="middle" x="1003" y="-499.731" font-family="Times New Roman,serif" font-size="9.00">64</text>
</g>
<!-- 1&#45;&gt;64 -->
<g id="edge53" class="edge"><title>1&#45;&gt;64</title>
<path fill="none" stroke="green" d="M1074.57,-1397.01C1072.28,-1350.32 1062.66,-1114.98 1090,-925.82 1098.29,-868.461 1123,-857.621 1123,-799.666 1123,-799.666 1123,-799.666 1123,-649.299 1123,-589.574 1062.51,-540.875 1027.42,-517.652"/>
<polygon fill="green" stroke="green" points="1028.99,-514.501 1018.69,-512.047 1025.21,-520.393 1028.99,-514.501"/>
</g>
<!-- 8 -->
<g id="node59" class="node"><title>8</title>
<ellipse fill="none" stroke="black" cx="600" cy="-432.697" rx="14.7" ry="14.7"/>
<text text-anchor="middle" x="600" y="-430.497" font-family="Times New Roman,serif" font-size="9.00">8</text>
</g>
<!-- 1&#45;&gt;8 -->
<g id="edge13" class="edge"><title>1&#45;&gt;8</title>
<path fill="none" stroke="green" d="M1069.23,-1397.25C1055.63,-1378.86 1019.72,-1333.21 980,-1306.64 906.557,-1257.52 880.9,-1254.55 795,-1233.87 715.33,-1214.69 495.421,-1244.45 428,-1197.87 398.313,-1177.36 400.216,-1160.24 392,-1125.1 359.516,-986.18 319.643,-588.757 416,-483.546 437.425,-460.153 529.934,-443.843 575.058,-437.125"/>
<polygon fill="green" stroke="green" points="575.791,-440.555 585.187,-435.66 574.789,-433.627 575.791,-440.555"/>
</g>
<!-- 7 -->
<g id="node60" class="node"><title>7</title>
<ellipse fill="none" stroke="black" cx="1773" cy="-947.034" rx="14.7" ry="14.7"/>
<text text-anchor="middle" x="1773" y="-944.834" font-family="Times New Roman,serif" font-size="9.00">7</text>
</g>
<!-- 1&#45;&gt;7 -->
<g id="edge6" class="edge"><title>1&#45;&gt;7</title>
<path fill="none" stroke="red" d="M1085.79,-1404.23C1160.28,-1396.79 1598.05,-1350.12 1701,-1270.64 1760.12,-1225 1765.68,-1197.24 1785,-1125.1 1789.88,-1106.89 1785.48,-1101.52 1785,-1082.67 1784.11,-1047.78 1784.35,-1038.99 1781,-1004.25 1779.97,-993.582 1778.37,-981.841 1776.88,-971.859"/>
<polygon fill="red" stroke="red" points="1780.32,-971.197 1775.32,-961.853 1773.4,-972.271 1780.32,-971.197"/>
</g>
<!-- 2 -->
<g id="node2" class="node"><title>2</title>
<polygon fill="lightgray" stroke="black" points="856.5,-1862.31 835.5,-1862.31 835.5,-1844.31 856.5,-1844.31 856.5,-1862.31"/>
<text text-anchor="middle" x="846" y="-1851.11" font-family="Times New Roman,serif" font-size="9.00">2</text>
</g>
<!-- 2&#45;&gt;5 -->
<g id="edge1" class="edge"><title>2&#45;&gt;5</title>
<path fill="none" stroke="green" d="M835.346,-1852.13C748.918,-1850.66 164.031,-1839.53 93,-1808.31 40.2991,-1785.15 0,-1775.72 0,-1718.16 0,-1718.16 0,-1718.16 0,-144.154 0,-94.2323 22.7403,-77.093 67,-54 133.721,-19.1875 1332.41,-11.102 1506.09,-10.1116"/>
<polygon fill="green" stroke="green" points="1506.24,-13.6109 1516.22,-10.0553 1506.2,-6.61102 1506.24,-13.6109"/>
</g>
<!-- 62 -->
<g id="node6" class="node"><title>62</title>
<ellipse fill="none" stroke="black" cx="892" cy="-1789.93" rx="18.2703" ry="18.2703"/>
<text text-anchor="middle" x="892" y="-1787.73" font-family="Times New Roman,serif" font-size="9.00">62</text>
</g>
<!-- 2&#45;&gt;62 -->
<g id="edge79" class="edge"><title>2&#45;&gt;62</title>
<path fill="none" stroke="green" d="M852.014,-1844.28C857.855,-1836.49 867,-1824.29 875.071,-1813.52"/>
<polygon fill="green" stroke="green" points="878.034,-1815.4 881.23,-1805.3 872.432,-1811.2 878.034,-1815.4"/>
</g>
<!-- 32 -->
<g id="node7" class="node"><title>32</title>
<ellipse fill="none" stroke="black" cx="1167" cy="-1717.16" rx="18.2703" ry="18.2703"/>
<text text-anchor="middle" x="1167" y="-1714.96" font-family="Times New Roman,serif" font-size="9.00">32</text>
</g>
<!-- 2&#45;&gt;32 -->
<g id="edge112" class="edge"><title>2&#45;&gt;32</title>
<path fill="none" stroke="red" d="M856.68,-1847.85C901.381,-1829.16 1074.21,-1756.94 1140.71,-1729.14"/>
<polygon fill="red" stroke="red" points="1142.2,-1732.31 1150.08,-1725.23 1139.5,-1725.85 1142.2,-1732.31"/>
</g>
<!-- 2&#45;&gt;36 -->
<g id="edge65" class="edge"><title>2&#45;&gt;36</title>
<path fill="none" stroke="green" d="M846,-1844.14C846,-1823.21 846,-1765.9 846,-1718.16 846,-1718.16 846,-1718.16 846,-1640.56 846,-1533.83 876.026,-1409.32 890.446,-1355.68"/>
<polygon fill="green" stroke="green" points="893.852,-1356.49 893.108,-1345.92 887.099,-1354.64 893.852,-1356.49"/>
</g>
<!-- 85 -->
<g id="node23" class="node"><title>85</title>
<ellipse fill="none" stroke="black" cx="2132" cy="-1717.16" rx="18.2703" ry="18.2703"/>
<text text-anchor="middle" x="2132" y="-1714.96" font-family="Times New Roman,serif" font-size="9.00">85</text>
</g>
<!-- 2&#45;&gt;85 -->
<g id="edge150" class="edge"><title>2&#45;&gt;85</title>
<path fill="none" stroke="red" d="M856.686,-1852.18C973.072,-1850.69 2002.09,-1836.73 2059,-1808.31 2086.78,-1794.44 2107.58,-1764.57 2119.73,-1743.01"/>
<polygon fill="red" stroke="red" points="2122.88,-1744.53 2124.55,-1734.06 2116.72,-1741.21 2122.88,-1744.53"/>
</g>
<!-- 15 -->
<g id="node25" class="node"><title>15</title>
<ellipse fill="none" stroke="black" cx="1405" cy="-1179.48" rx="18.2703" ry="18.2703"/>
<text text-anchor="middle" x="1405" y="-1177.28" font-family="Times New Roman,serif" font-size="9.00">15</text>
</g>
<!-- 2&#45;&gt;15 -->
<g id="edge9" class="edge"><title>2&#45;&gt;15</title>
<path fill="none" stroke="green" d="M856.58,-1852.14C967.603,-1850.26 1915,-1830.85 1915,-1718.16 1915,-1718.16 1915,-1718.16 1915,-1483.7 1915,-1355.05 1800.07,-1366.14 1686,-1306.64 1638.51,-1281.87 1616.05,-1299.6 1571,-1270.64 1552.53,-1258.76 1555.99,-1246.46 1538,-1233.87 1505.1,-1210.85 1460.83,-1195.64 1432.59,-1187.54"/>
<polygon fill="green" stroke="green" points="1433.19,-1184.07 1422.61,-1184.78 1431.32,-1190.82 1433.19,-1184.07"/>
</g>
<!-- 10 -->
<g id="node30" class="node"><title>10</title>
<ellipse fill="none" stroke="black" cx="768" cy="-1252.25" rx="18.2703" ry="18.2703"/>
<text text-anchor="middle" x="768" y="-1250.05" font-family="Times New Roman,serif" font-size="9.00">10</text>
</g>
<!-- 2&#45;&gt;10 -->
<g id="edge154" class="edge"><title>2&#45;&gt;10</title>
<path fill="none" stroke="green" d="M835.328,-1848.01C803.268,-1834.33 710,-1788.47 710,-1718.16 710,-1718.16 710,-1718.16 710,-1483.7 710,-1403.81 715.809,-1382.46 741,-1306.64 744.271,-1296.79 749.099,-1286.51 753.772,-1277.62"/>
<polygon fill="green" stroke="green" points="756.97,-1279.06 758.7,-1268.61 750.829,-1275.7 756.97,-1279.06"/>
</g>
<!-- 171 -->
<g id="node41" class="node"><title>171</title>
<ellipse fill="none" stroke="black" cx="827" cy="-1025.46" rx="21.4286" ry="21.4286"/>
<text text-anchor="middle" x="827" y="-1023.26" font-family="Times New Roman,serif" font-size="9.00">171</text>
</g>
<!-- 2&#45;&gt;171 -->
<g id="edge173" class="edge"><title>2&#45;&gt;171</title>
<path fill="none" stroke="red" d="M835.377,-1851.43C748.063,-1844.04 152,-1790.94 152,-1718.16 152,-1718.16 152,-1718.16 152,-1483.7 152,-1289.67 341.618,-1331.82 482,-1197.87 528.418,-1153.58 514.958,-1117.25 569,-1082.67 640.738,-1036.77 744.234,-1027.89 795.611,-1026.47"/>
<polygon fill="red" stroke="red" points="795.824,-1029.96 805.753,-1026.27 795.685,-1022.96 795.824,-1029.96"/>
</g>
<!-- 13 -->
<g id="node43" class="node"><title>13</title>
<ellipse fill="none" stroke="black" cx="964" cy="-1025.46" rx="18.2703" ry="18.2703"/>
<text text-anchor="middle" x="964" y="-1023.26" font-family="Times New Roman,serif" font-size="9.00">13</text>
</g>
<!-- 2&#45;&gt;13 -->
<g id="edge19" class="edge"><title>2&#45;&gt;13</title>
<path fill="none" stroke="red" d="M835.394,-1850.44C778.91,-1840.22 516,-1788.81 516,-1718.16 516,-1718.16 516,-1718.16 516,-1405.28 516,-1240.87 563.381,-1178.46 697,-1082.67 767.917,-1031.83 804.952,-1066.19 890,-1046.67 905.516,-1043.11 922.675,-1038.47 936.561,-1034.53"/>
<polygon fill="red" stroke="red" points="937.815,-1037.81 946.46,-1031.69 935.882,-1031.09 937.815,-1037.81"/>
</g>
<!-- 34 -->
<g id="node45" class="node"><title>34</title>
<ellipse fill="none" stroke="black" cx="1664" cy="-1025.46" rx="18.2703" ry="18.2703"/>
<text text-anchor="middle" x="1664" y="-1023.26" font-family="Times New Roman,serif" font-size="9.00">34</text>
</g>
<!-- 2&#45;&gt;34 -->
<g id="edge161" class="edge"><title>2&#45;&gt;34</title>
<path fill="none" stroke="green" d="M856.72,-1852.31C971.415,-1852.27 1970.3,-1850.69 2094,-1808.31 2158.8,-1786.11 2219,-1786.65 2219,-1718.16 2219,-1718.16 2219,-1718.16 2219,-1483.7 2219,-1215.14 1987.22,-1236.39 1767,-1082.67 1739.28,-1063.33 1729.63,-1062.95 1700,-1046.67 1696.36,-1044.67 1692.52,-1042.54 1688.76,-1040.44"/>
<polygon fill="green" stroke="green" points="1690.17,-1037.22 1679.74,-1035.38 1686.74,-1043.32 1690.17,-1037.22"/>
</g>
<!-- 17 -->
<g id="node55" class="node"><title>17</title>
<ellipse fill="none" stroke="black" cx="826" cy="-650.299" rx="18.2703" ry="18.2703"/>
<text text-anchor="middle" x="826" y="-648.099" font-family="Times New Roman,serif" font-size="9.00">17</text>
</g>
<!-- 2&#45;&gt;17 -->
<g id="edge189" class="edge"><title>2&#45;&gt;17</title>
<path fill="none" stroke="green" d="M835.084,-1852.03C765.09,-1850.16 378.632,-1838.58 265,-1808.31 175.069,-1784.35 76,-1811.22 76,-1718.16 76,-1718.16 76,-1718.16 76,-1405.28 76,-986.01 666.139,-717.292 799.455,-661.937"/>
<polygon fill="green" stroke="green" points="801.006,-665.083 808.926,-658.046 798.346,-658.608 801.006,-665.083"/>
</g>
<!-- 2&#45;&gt;8 -->
<g id="edge23" class="edge"><title>2&#45;&gt;8</title>
<path fill="none" stroke="green" d="M835.486,-1852.2C766.419,-1851.34 377.013,-1844.93 265,-1808.31 124.161,-1762.26 38,-1712.31 38,-1564.13 38,-1564.13 38,-1564.13 38,-1024.46 38,-882.995 151,-868.362 151,-726.897 151,-726.897 151,-726.897 151,-649.299 151,-459.65 480.54,-436.708 574.984,-434.027"/>
<polygon fill="green" stroke="green" points="575.144,-437.524 585.061,-433.795 574.983,-430.526 575.144,-437.524"/>
</g>
<!-- 58 -->
<g id="node67" class="node"><title>58</title>
<ellipse fill="none" stroke="black" cx="1003" cy="-290.693" rx="18.2703" ry="18.2703"/>
<text text-anchor="middle" x="1003" y="-288.493" font-family="Times New Roman,serif" font-size="9.00">58</text>
</g>
<!-- 2&#45;&gt;58 -->
<g id="edge73" class="edge"><title>2&#45;&gt;58</title>
<path fill="none" stroke="red" d="M856.732,-1852.29C975.767,-1851.88 2045,-1844.75 2045,-1718.16 2045,-1718.16 2045,-1718.16 2045,-1640.56 2045,-1457.79 2067.47,-1396.47 1984,-1233.87 1883.8,-1038.69 1758.72,-1067.49 1630,-889.82 1471.93,-671.63 1581.44,-504.178 1364,-345.078 1311.12,-306.389 1108.05,-295.369 1031.99,-292.563"/>
<polygon fill="red" stroke="red" points="1031.84,-289.056 1021.72,-292.207 1031.59,-296.052 1031.84,-289.056"/>
</g>
<!-- 3 -->
<g id="node3" class="node"><title>3</title>
<polygon fill="lightgray" stroke="black" points="1640.5,-1493.7 1619.5,-1493.7 1619.5,-1475.7 1640.5,-1475.7 1640.5,-1493.7"/>
<text text-anchor="middle" x="1630" y="-1482.5" font-family="Times New Roman,serif" font-size="9.00">3</text>
</g>
<!-- 3&#45;&gt;5 -->
<g id="edge5" class="edge"><title>3&#45;&gt;5</title>
<path fill="none" stroke="green" d="M1640.62,-1482.4C1720.71,-1471.93 2227,-1394.27 2227,-1104.89 2227,-1104.89 2227,-1104.89 2227,-144.154 2227,-80.2535 2174.43,-77.4777 2115,-54 2008.63,-11.9802 1639.99,-9.79203 1547.95,-9.91508"/>
<polygon fill="green" stroke="green" points="1547.69,-6.41561 1537.7,-9.94061 1547.71,-13.4156 1547.69,-6.41561"/>
</g>
<!-- 137 -->
<g id="node8" class="node"><title>137</title>
<ellipse fill="none" stroke="black" cx="949" cy="-1406.28" rx="21.4286" ry="21.4286"/>
<text text-anchor="middle" x="949" y="-1404.08" font-family="Times New Roman,serif" font-size="9.00">137</text>
</g>
<!-- 3&#45;&gt;137 -->
<g id="edge94" class="edge"><title>3&#45;&gt;137</title>
<path fill="none" stroke="green" d="M1619.29,-1483.41C1545.33,-1481.26 1109.63,-1467.08 984,-1427.49 981.018,-1426.55 978.013,-1425.33 975.084,-1423.94"/>
<polygon fill="green" stroke="green" points="976.577,-1420.77 966.107,-1419.15 973.278,-1426.95 976.577,-1420.77"/>
</g>
<!-- 29 -->
<g id="node14" class="node"><title>29</title>
<ellipse fill="none" stroke="black" cx="1388" cy="-1327.85" rx="18.2703" ry="18.2703"/>
<text text-anchor="middle" x="1388" y="-1325.65" font-family="Times New Roman,serif" font-size="9.00">29</text>
</g>
<!-- 3&#45;&gt;29 -->
<g id="edge90" class="edge"><title>3&#45;&gt;29</title>
<path fill="none" stroke="red" d="M1619.29,-1476.85C1582.79,-1453.49 1462.69,-1376.65 1411.48,-1343.87"/>
<polygon fill="red" stroke="red" points="1413.34,-1340.91 1403.03,-1338.47 1409.57,-1346.81 1413.34,-1340.91"/>
</g>
<!-- 92 -->
<g id="node15" class="node"><title>92</title>
<ellipse fill="none" stroke="black" cx="1511" cy="-1252.25" rx="18.2703" ry="18.2703"/>
<text text-anchor="middle" x="1511" y="-1250.05" font-family="Times New Roman,serif" font-size="9.00">92</text>
</g>
<!-- 3&#45;&gt;92 -->
<g id="edge51" class="edge"><title>3&#45;&gt;92</title>
<path fill="none" stroke="red" d="M1636.68,-1475.59C1644.75,-1465.19 1657.89,-1446.27 1663,-1427.49 1677.09,-1375.66 1695.06,-1349.73 1663,-1306.64 1629.76,-1261.97 1594.4,-1292.04 1543,-1270.64 1540.6,-1269.64 1538.14,-1268.51 1535.71,-1267.32"/>
<polygon fill="red" stroke="red" points="1537.12,-1264.11 1526.63,-1262.58 1533.88,-1270.31 1537.12,-1264.11"/>
</g>
<!-- 3&#45;&gt;15 -->
<g id="edge110" class="edge"><title>3&#45;&gt;15</title>
<path fill="none" stroke="red" d="M1623.98,-1475.59C1594.81,-1436.28 1467.62,-1264.88 1421.65,-1202.93"/>
<polygon fill="red" stroke="red" points="1424.25,-1200.56 1415.48,-1194.61 1418.63,-1204.73 1424.25,-1200.56"/>
</g>
<!-- 18 -->
<g id="node28" class="node"><title>18</title>
<ellipse fill="none" stroke="black" cx="455" cy="-1179.48" rx="18.2703" ry="18.2703"/>
<text text-anchor="middle" x="455" y="-1177.28" font-family="Times New Roman,serif" font-size="9.00">18</text>
</g>
<!-- 3&#45;&gt;18 -->
<g id="edge26" class="edge"><title>3&#45;&gt;18</title>
<path fill="none" stroke="red" d="M1619.35,-1483.85C1540.88,-1484.78 1051.46,-1488.05 919,-1427.49 894.583,-1416.33 899.304,-1398.4 876,-1385.07 822.1,-1354.23 798.276,-1373.05 741,-1349.07 686.752,-1326.35 537.238,-1232.71 478.824,-1195.67"/>
<polygon fill="red" stroke="red" points="480.578,-1192.64 470.26,-1190.23 476.825,-1198.55 480.578,-1192.64"/>
</g>
<!-- 3&#45;&gt;10 -->
<g id="edge164" class="edge"><title>3&#45;&gt;10</title>
<path fill="none" stroke="red" d="M1619.17,-1483.25C1549.71,-1480.25 1166.28,-1462.32 1055,-1427.49 1018.08,-1415.94 1014.39,-1400.68 979,-1385.07 932.708,-1364.64 914.514,-1374.88 871,-1349.07 837.104,-1328.95 805.011,-1296.12 785.919,-1274.6"/>
<polygon fill="red" stroke="red" points="788.468,-1272.2 779.261,-1266.96 783.19,-1276.8 788.468,-1272.2"/>
</g>
<!-- 111 -->
<g id="node33" class="node"><title>111</title>
<ellipse fill="none" stroke="black" cx="1141" cy="-1025.46" rx="21.4286" ry="21.4286"/>
<text text-anchor="middle" x="1141" y="-1023.26" font-family="Times New Roman,serif" font-size="9.00">111</text>
</g>
<!-- 3&#45;&gt;111 -->
<g id="edge184" class="edge"><title>3&#45;&gt;111</title>
<path fill="none" stroke="red" d="M1619.15,-1483.59C1565.72,-1482.79 1331.03,-1476.48 1282,-1427.49 1172.17,-1317.75 1310.27,-1213.07 1226,-1082.67 1212.69,-1062.08 1188.88,-1047.31 1169.84,-1038.09"/>
<polygon fill="red" stroke="red" points="1171.22,-1034.88 1160.67,-1033.89 1168.31,-1041.24 1171.22,-1034.88"/>
</g>
<!-- 3&#45;&gt;34 -->
<g id="edge141" class="edge"><title>3&#45;&gt;34</title>
<path fill="none" stroke="green" d="M1640.73,-1476.46C1653.74,-1466.96 1675.03,-1448.97 1684,-1427.49 1738.93,-1295.9 1693.31,-1118.55 1672.75,-1052.59"/>
<polygon fill="green" stroke="green" points="1676.06,-1051.45 1669.69,-1042.99 1669.39,-1053.58 1676.06,-1051.45"/>
</g>
<!-- 3&#45;&gt;8 -->
<g id="edge3" class="edge"><title>3&#45;&gt;8</title>
<path fill="none" stroke="red" d="M1619.43,-1483.31C1539.37,-1480.3 1027.29,-1459.95 876,-1427.49 776.141,-1406.07 742.585,-1409.15 660,-1349.07 640.683,-1335.01 646.115,-1320.97 627,-1306.64 592.197,-1280.55 575.57,-1288.69 536,-1270.64 472.201,-1241.53 438.659,-1253.53 396,-1197.87 202.864,-945.878 157.693,-701.028 389,-483.546 415.889,-458.264 525.405,-442.463 575.174,-436.454"/>
<polygon fill="red" stroke="red" points="575.584,-439.93 585.108,-435.29 574.769,-432.978 575.584,-439.93"/>
</g>
<!-- 3&#45;&gt;7 -->
<g id="edge17" class="edge"><title>3&#45;&gt;7</title>
<path fill="none" stroke="red" d="M1640.65,-1481C1689.38,-1467.99 1892.02,-1406.75 1967,-1270.64 2001.32,-1208.34 1865.01,-1008.76 1861,-1004.25 1842.66,-983.617 1815,-967.64 1795.6,-958.08"/>
<polygon fill="red" stroke="red" points="1797.09,-954.915 1786.56,-953.793 1794.09,-961.24 1797.09,-954.915"/>
</g>
<!-- 14 -->
<g id="node68" class="node"><title>14</title>
<ellipse fill="none" stroke="black" cx="1624" cy="-798.666" rx="18.2703" ry="18.2703"/>
<text text-anchor="middle" x="1624" y="-796.466" font-family="Times New Roman,serif" font-size="9.00">14</text>
</g>
<!-- 3&#45;&gt;14 -->
<g id="edge64" class="edge"><title>3&#45;&gt;14</title>
<path fill="none" stroke="green" d="M1640.6,-1481.11C1721.5,-1460.73 2235.02,-1320.99 2127,-1082.67 2063.08,-941.648 2003.13,-923.011 1865,-853.051 1794.06,-817.124 1699.35,-805.232 1652.59,-801.407"/>
<polygon fill="green" stroke="green" points="1652.81,-797.914 1642.57,-800.653 1652.28,-804.894 1652.81,-797.914"/>
</g>
<!-- 4 -->
<g id="node4" class="node"><title>4</title>
<polygon fill="lightgray" stroke="black" points="487.5,-1493.7 466.5,-1493.7 466.5,-1475.7 487.5,-1475.7 487.5,-1493.7"/>
<text text-anchor="middle" x="477" y="-1482.5" font-family="Times New Roman,serif" font-size="9.00">4</text>
</g>
<!-- 4&#45;&gt;5 -->
<g id="edge2" class="edge"><title>4&#45;&gt;5</title>
<path fill="none" stroke="green" d="M466.287,-1482.71C437.622,-1479.56 357.96,-1467.5 308,-1427.49 177.407,-1322.91 114,-1272.19 114,-1104.89 114,-1104.89 114,-1104.89 114,-946.034 114,-848.638 113,-824.292 113,-726.897 113,-726.897 113,-726.897 113,-144.154 113,-46.6519 218.062,-76.2152 313,-54 433.585,-25.7834 1354.86,-12.3047 1506.04,-10.2728"/>
<polygon fill="green" stroke="green" points="1506.31,-13.7697 1516.26,-10.1373 1506.21,-6.77032 1506.31,-13.7697"/>
</g>
<!-- 101 -->
<g id="node9" class="node"><title>101</title>
<ellipse fill="none" stroke="black" cx="603" cy="-1406.28" rx="21.4286" ry="21.4286"/>
<text text-anchor="middle" x="603" y="-1404.08" font-family="Times New Roman,serif" font-size="9.00">101</text>
</g>
<!-- 4&#45;&gt;101 -->
<g id="edge180" class="edge"><title>4&#45;&gt;101</title>
<path fill="none" stroke="red" d="M487.743,-1477.19C507.205,-1465.38 548.828,-1440.14 576.361,-1423.44"/>
<polygon fill="red" stroke="red" points="578.371,-1426.31 585.106,-1418.13 574.741,-1420.33 578.371,-1426.31"/>
</g>
<!-- 37 -->
<g id="node17" class="node"><title>37</title>
<ellipse fill="none" stroke="black" cx="1121" cy="-1327.85" rx="18.2703" ry="18.2703"/>
<text text-anchor="middle" x="1121" y="-1325.65" font-family="Times New Roman,serif" font-size="9.00">37</text>
</g>
<!-- 4&#45;&gt;37 -->
<g id="edge83" class="edge"><title>4&#45;&gt;37</title>
<path fill="none" stroke="red" d="M487.796,-1483.45C566.127,-1481.52 1045.56,-1468.07 1094,-1427.49 1114.56,-1410.27 1120.26,-1379.02 1121.47,-1356.3"/>
<polygon fill="red" stroke="red" points="1124.97,-1356.33 1121.76,-1346.24 1117.98,-1356.13 1124.97,-1356.33"/>
</g>
<!-- 122 -->
<g id="node24" class="node"><title>122</title>
<ellipse fill="none" stroke="black" cx="391" cy="-1406.28" rx="21.4286" ry="21.4286"/>
<text text-anchor="middle" x="391" y="-1404.08" font-family="Times New Roman,serif" font-size="9.00">122</text>
</g>
<!-- 4&#45;&gt;122 -->
<g id="edge143" class="edge"><title>4&#45;&gt;122</title>
<path fill="none" stroke="red" d="M467.796,-1475.53C455.096,-1464.24 431.768,-1443.51 414.143,-1427.85"/>
<polygon fill="red" stroke="red" points="416.305,-1425.08 406.505,-1421.06 411.655,-1430.32 416.305,-1425.08"/>
</g>
<!-- 4&#45;&gt;15 -->
<g id="edge10" class="edge"><title>4&#45;&gt;15</title>
<path fill="none" stroke="green" d="M487.603,-1483.3C566.649,-1480.24 1062.51,-1459.85 1120,-1427.49 1213,-1375.15 1176.89,-1298.25 1262,-1233.87 1296.78,-1207.55 1345.95,-1193.01 1376.63,-1185.98"/>
<polygon fill="green" stroke="green" points="1377.63,-1189.34 1386.66,-1183.8 1376.14,-1182.5 1377.63,-1189.34"/>
</g>
<!-- 23 -->
<g id="node27" class="node"><title>23</title>
<ellipse fill="none" stroke="black" cx="1641" cy="-1252.25" rx="18.2703" ry="18.2703"/>
<text text-anchor="middle" x="1641" y="-1250.05" font-family="Times New Roman,serif" font-size="9.00">23</text>
</g>
<!-- 4&#45;&gt;23 -->
<g id="edge111" class="edge"><title>4&#45;&gt;23</title>
<path fill="none" stroke="red" d="M487.752,-1483.3C571.308,-1480.09 1115.37,-1458.1 1181,-1427.49 1249.32,-1395.63 1232.85,-1340.89 1300,-1306.64 1395.3,-1258.03 1432.36,-1287.54 1538,-1270.64 1563.31,-1266.59 1592.08,-1261.71 1612.76,-1258.15"/>
<polygon fill="red" stroke="red" points="1613.52,-1261.57 1622.78,-1256.43 1612.33,-1254.68 1613.52,-1261.57"/>
</g>
<!-- 4&#45;&gt;18 -->
<g id="edge25" class="edge"><title>4&#45;&gt;18</title>
<path fill="none" stroke="green" d="M474.558,-1475.42C471.474,-1464.53 466.291,-1444.77 464,-1427.49 453.503,-1348.33 453.511,-1253.74 454.298,-1207.98"/>
<polygon fill="green" stroke="green" points="457.798,-1208.02 454.498,-1197.95 450.799,-1207.88 457.798,-1208.02"/>
</g>
<!-- 4&#45;&gt;10 -->
<g id="edge166" class="edge"><title>4&#45;&gt;10</title>
<path fill="none" stroke="green" d="M478.965,-1475.52C486.164,-1447.36 513.825,-1353.58 573,-1306.64 622.35,-1267.49 698.339,-1257 739.366,-1254.22"/>
<polygon fill="green" stroke="green" points="739.697,-1257.71 749.483,-1253.64 739.3,-1250.72 739.697,-1257.71"/>
</g>
<!-- 19 -->
<g id="node49" class="node"><title>19</title>
<ellipse fill="none" stroke="black" cx="951" cy="-871.436" rx="18.2703" ry="18.2703"/>
<text text-anchor="middle" x="951" y="-869.236" font-family="Times New Roman,serif" font-size="9.00">19</text>
</g>
<!-- 4&#45;&gt;19 -->
<g id="edge41" class="edge"><title>4&#45;&gt;19</title>
<path fill="none" stroke="green" d="M476.73,-1475.47C475.65,-1427.28 477.145,-1180.49 616,-1082.67 704.537,-1020.3 768.407,-1108.96 857,-1046.67 906.891,-1011.59 892.999,-979.473 922,-925.82 927.137,-916.317 932.805,-905.873 937.758,-896.762"/>
<polygon fill="green" stroke="green" points="940.904,-898.302 942.607,-887.845 934.755,-894.958 940.904,-898.302"/>
</g>
<!-- 53 -->
<g id="node51" class="node"><title>53</title>
<ellipse fill="none" stroke="black" cx="350" cy="-1327.85" rx="18.2703" ry="18.2703"/>
<text text-anchor="middle" x="350" y="-1325.65" font-family="Times New Roman,serif" font-size="9.00">53</text>
</g>
<!-- 4&#45;&gt;53 -->
<g id="edge107" class="edge"><title>4&#45;&gt;53</title>
<path fill="none" stroke="red" d="M466.485,-1482.06C443.103,-1477.79 386.835,-1464.04 361,-1427.49 346.451,-1406.91 344.937,-1377.64 346.312,-1356.33"/>
<polygon fill="red" stroke="red" points="349.805,-1356.57 347.208,-1346.3 342.833,-1355.95 349.805,-1356.57"/>
</g>
<!-- 4&#45;&gt;7 -->
<g id="edge7" class="edge"><title>4&#45;&gt;7</title>
<path fill="none" stroke="red" d="M487.557,-1483.18C579.886,-1478.6 1248.72,-1444.97 1336,-1427.49 1441.49,-1406.37 1465.14,-1389.08 1565,-1349.07 1642.24,-1318.12 1671.9,-1324.87 1735,-1270.64 1764.38,-1245.38 1767.46,-1233.36 1783,-1197.87 1817.61,-1118.84 1816.44,-1088.31 1797,-1004.25 1794.25,-992.338 1789.11,-979.765 1784.3,-969.537"/>
<polygon fill="red" stroke="red" points="1787.43,-967.97 1779.87,-960.547 1781.15,-971.064 1787.43,-967.97"/>
</g>
<!-- 6 -->
<g id="node61" class="node"><title>6</title>
<ellipse fill="none" stroke="black" cx="57" cy="-725.897" rx="14.7" ry="14.7"/>
<text text-anchor="middle" x="57" y="-723.697" font-family="Times New Roman,serif" font-size="9.00">6</text>
</g>
<!-- 4&#45;&gt;6 -->
<g id="edge167" class="edge"><title>4&#45;&gt;6</title>
<path fill="none" stroke="red" d="M466.491,-1483.14C418.544,-1480.38 220.945,-1466.74 176,-1427.49 62.9382,-1328.75 76,-1255 76,-1104.89 76,-1104.89 76,-1104.89 76,-1024.46 76,-922.674 64.791,-801.701 59.5918,-751.063"/>
<polygon fill="red" stroke="red" points="63.0419,-750.402 58.5227,-740.82 56.0797,-751.129 63.0419,-750.402"/>
</g>
<!-- 27 -->
<g id="node70" class="node"><title>27</title>
<ellipse fill="none" stroke="black" cx="957" cy="-217.924" rx="18.2703" ry="18.2703"/>
<text text-anchor="middle" x="957" y="-215.724" font-family="Times New Roman,serif" font-size="9.00">27</text>
</g>
<!-- 4&#45;&gt;27 -->
<g id="edge20" class="edge"><title>4&#45;&gt;27</title>
<path fill="none" stroke="green" d="M466.264,-1482.23C441.081,-1478.23 377.726,-1464.79 343,-1427.49 237.988,-1314.71 189,-1029.25 189,-726.897 189,-726.897 189,-726.897 189,-431.697 189,-335.93 248.148,-314.743 334,-272.309 440.553,-219.642 820.66,-218.015 928.368,-218.646"/>
<polygon fill="green" stroke="green" points="928.454,-222.147 938.479,-218.717 928.504,-215.147 928.454,-222.147"/>
</g>
<!-- 62&#45;&gt;32 -->
<g id="edge80" class="edge"><title>62&#45;&gt;32</title>
<path fill="none" stroke="green" d="M909.621,-1784.39C956.173,-1772.41 1082.72,-1739.84 1139.17,-1725.32"/>
<polygon fill="green" stroke="green" points="1140.36,-1728.63 1149.17,-1722.74 1138.61,-1721.85 1140.36,-1728.63"/>
</g>
<!-- 35 -->
<g id="node18" class="node"><title>35</title>
<ellipse fill="none" stroke="black" cx="768" cy="-1327.85" rx="18.2703" ry="18.2703"/>
<text text-anchor="middle" x="768" y="-1325.65" font-family="Times New Roman,serif" font-size="9.00">35</text>
</g>
<!-- 62&#45;&gt;35 -->
<g id="edge195" class="edge"><title>62&#45;&gt;35</title>
<path fill="none" stroke="red" d="M875.481,-1781.75C837.657,-1764.07 748,-1714.56 748,-1642.56 748,-1642.56 748,-1642.56 748,-1483.7 748,-1438.6 756.448,-1386.72 762.363,-1355.91"/>
<polygon fill="red" stroke="red" points="765.828,-1356.43 764.332,-1345.94 758.961,-1355.08 765.828,-1356.43"/>
</g>
<!-- 114 -->
<g id="node10" class="node"><title>114</title>
<ellipse fill="none" stroke="black" cx="797" cy="-1641.56" rx="21.4286" ry="21.4286"/>
<text text-anchor="middle" x="797" y="-1639.36" font-family="Times New Roman,serif" font-size="9.00">114</text>
</g>
<!-- 32&#45;&gt;114 -->
<g id="edge130" class="edge"><title>32&#45;&gt;114</title>
<path fill="none" stroke="red" d="M1149.15,-1712.61C1090.4,-1700.92 902.545,-1663.55 827.953,-1648.71"/>
<polygon fill="red" stroke="red" points="828.289,-1645.21 817.798,-1646.69 826.923,-1652.08 828.289,-1645.21"/>
</g>
<!-- 47 -->
<g id="node13" class="node"><title>47</title>
<ellipse fill="none" stroke="black" cx="1309" cy="-1406.28" rx="18.2703" ry="18.2703"/>
<text text-anchor="middle" x="1309" y="-1404.08" font-family="Times New Roman,serif" font-size="9.00">47</text>
</g>
<!-- 32&#45;&gt;47 -->
<g id="edge32" class="edge"><title>32&#45;&gt;47</title>
<path fill="none" stroke="green" d="M1174.43,-1699.98C1197.68,-1649.42 1269.11,-1494.05 1297.34,-1432.64"/>
<polygon fill="green" stroke="green" points="1300.64,-1433.84 1301.64,-1423.29 1294.28,-1430.91 1300.64,-1433.84"/>
</g>
<!-- 32&#45;&gt;29 -->
<g id="edge61" class="edge"><title>32&#45;&gt;29</title>
<path fill="none" stroke="red" d="M1184.75,-1712.09C1234.38,-1699.56 1371,-1656.67 1371,-1564.13 1371,-1564.13 1371,-1564.13 1371,-1483.7 1371,-1438.71 1378.18,-1386.79 1383.21,-1355.95"/>
<polygon fill="red" stroke="red" points="1386.68,-1356.41 1384.88,-1345.97 1379.78,-1355.25 1386.68,-1356.41"/>
</g>
<!-- 32&#45;&gt;36 -->
<g id="edge67" class="edge"><title>32&#45;&gt;36</title>
<path fill="none" stroke="green" d="M1151.2,-1707.67C1116.36,-1687.67 1036,-1633.99 1036,-1564.13 1036,-1564.13 1036,-1564.13 1036,-1483.7 1036,-1406.43 989.293,-1393.39 926,-1349.07 924.343,-1347.9 922.636,-1346.7 920.921,-1345.48"/>
<polygon fill="green" stroke="green" points="922.642,-1342.41 912.476,-1339.42 918.562,-1348.09 922.642,-1342.41"/>
</g>
<!-- 22 -->
<g id="node19" class="node"><title>22</title>
<ellipse fill="none" stroke="black" cx="600" cy="-1327.85" rx="18.2703" ry="18.2703"/>
<text text-anchor="middle" x="600" y="-1325.65" font-family="Times New Roman,serif" font-size="9.00">22</text>
</g>
<!-- 32&#45;&gt;22 -->
<g id="edge187" class="edge"><title>32&#45;&gt;22</title>
<path fill="none" stroke="green" d="M1148.69,-1715.2C1079.76,-1711.35 836.296,-1695.68 767,-1662.77 709.163,-1635.3 662,-1628.16 662,-1564.13 662,-1564.13 662,-1564.13 662,-1483.7 662,-1434.06 634.192,-1381.45 615.823,-1352.12"/>
<polygon fill="green" stroke="green" points="618.595,-1349.96 610.238,-1343.45 612.71,-1353.75 618.595,-1349.96"/>
</g>
<!-- 121 -->
<g id="node32" class="node"><title>121</title>
<ellipse fill="none" stroke="black" cx="2132" cy="-1563.13" rx="21.4286" ry="21.4286"/>
<text text-anchor="middle" x="2132" y="-1560.93" font-family="Times New Roman,serif" font-size="9.00">121</text>
</g>
<!-- 32&#45;&gt;121 -->
<g id="edge139" class="edge"><title>32&#45;&gt;121</title>
<path fill="none" stroke="green" d="M1185.63,-1715.72C1303.33,-1712.86 1941.37,-1695.92 2021,-1662.77 2059.11,-1646.91 2092.97,-1612.3 2112.99,-1588.6"/>
<polygon fill="green" stroke="green" points="2115.82,-1590.67 2119.48,-1580.72 2110.42,-1586.22 2115.82,-1590.67"/>
</g>
<!-- 42 -->
<g id="node44" class="node"><title>42</title>
<ellipse fill="none" stroke="black" cx="1405" cy="-1025.46" rx="18.2703" ry="18.2703"/>
<text text-anchor="middle" x="1405" y="-1023.26" font-family="Times New Roman,serif" font-size="9.00">42</text>
</g>
<!-- 32&#45;&gt;42 -->
<g id="edge58" class="edge"><title>32&#45;&gt;42</title>
<path fill="none" stroke="green" d="M1185.37,-1714.44C1271.46,-1705.23 1632.87,-1653.33 1684,-1427.49 1695.86,-1375.1 1714.24,-1352.34 1686,-1306.64 1667.19,-1276.2 1643.82,-1290.41 1614,-1270.64 1593.04,-1256.74 1592.07,-1247.6 1571,-1233.87 1540.02,-1213.68 1522.67,-1223.48 1496,-1197.87 1484.37,-1186.7 1439.24,-1096.37 1417.22,-1051.53"/>
<polygon fill="green" stroke="green" points="1420.31,-1049.88 1412.77,-1042.44 1414.02,-1052.96 1420.31,-1049.88"/>
</g>
<!-- 32&#45;&gt;7 -->
<g id="edge42" class="edge"><title>32&#45;&gt;7</title>
<path fill="none" stroke="red" d="M1185.4,-1714.16C1234.37,-1708.62 1371.76,-1691.5 1483,-1662.77 1759.53,-1591.34 1909.04,-1655.53 2081,-1427.49 2174.09,-1304.04 2214.77,-1209.96 2127,-1082.67 2087.5,-1025.39 1871.37,-970.802 1797.65,-953.602"/>
<polygon fill="red" stroke="red" points="1798,-950.09 1787.47,-951.253 1796.42,-956.911 1798,-950.09"/>
</g>
<!-- 137&#45;&gt;35 -->
<g id="edge95" class="edge"><title>137&#45;&gt;35</title>
<path fill="none" stroke="green" d="M931.227,-1394.01C925.821,-1390.86 919.78,-1387.61 914,-1385.07 865.373,-1363.65 848.193,-1371.44 800,-1349.07 797.113,-1347.72 794.173,-1346.17 791.303,-1344.52"/>
<polygon fill="green" stroke="green" points="792.88,-1341.39 782.527,-1339.14 789.219,-1347.35 792.88,-1341.39"/>
</g>
<!-- 101&#45;&gt;22 -->
<g id="edge181" class="edge"><title>101&#45;&gt;22</title>
<path fill="none" stroke="red" d="M602.196,-1384.8C601.853,-1376.06 601.448,-1365.73 601.079,-1356.34"/>
<polygon fill="red" stroke="red" points="604.574,-1356.13 600.684,-1346.28 597.579,-1356.41 604.574,-1356.13"/>
</g>
<!-- 107 -->
<g id="node11" class="node"><title>107</title>
<ellipse fill="none" stroke="black" cx="797" cy="-1563.13" rx="21.4286" ry="21.4286"/>
<text text-anchor="middle" x="797" y="-1560.93" font-family="Times New Roman,serif" font-size="9.00">107</text>
</g>
<!-- 114&#45;&gt;107 -->
<g id="edge131" class="edge"><title>114&#45;&gt;107</title>
<path fill="none" stroke="red" d="M797,-1620.08C797,-1612.22 797,-1603.07 797,-1594.48"/>
<polygon fill="red" stroke="red" points="800.5,-1594.4 797,-1584.4 793.5,-1594.4 800.5,-1594.4"/>
</g>
<!-- 114&#45;&gt;53 -->
<g id="edge142" class="edge"><title>114&#45;&gt;53</title>
<path fill="none" stroke="green" d="M775.799,-1638.97C698.448,-1631.87 431.339,-1595.49 343,-1427.49 331.243,-1405.13 335.314,-1375.89 340.902,-1355.06"/>
<polygon fill="green" stroke="green" points="344.309,-1355.88 343.795,-1345.3 337.597,-1353.89 344.309,-1355.88"/>
</g>
<!-- 104 -->
<g id="node12" class="node"><title>104</title>
<ellipse fill="none" stroke="black" cx="936" cy="-1484.7" rx="21.4286" ry="21.4286"/>
<text text-anchor="middle" x="936" y="-1482.5" font-family="Times New Roman,serif" font-size="9.00">104</text>
</g>
<!-- 107&#45;&gt;104 -->
<g id="edge124" class="edge"><title>107&#45;&gt;104</title>
<path fill="none" stroke="green" d="M815.172,-1552.14C839.106,-1538.98 881.388,-1515.73 909.051,-1500.52"/>
<polygon fill="green" stroke="green" points="910.747,-1503.58 917.824,-1495.7 907.375,-1497.45 910.747,-1503.58"/>
</g>
<!-- 30 -->
<g id="node35" class="node"><title>30</title>
<ellipse fill="none" stroke="black" cx="768" cy="-1179.48" rx="18.2703" ry="18.2703"/>
<text text-anchor="middle" x="768" y="-1177.28" font-family="Times New Roman,serif" font-size="9.00">30</text>
</g>
<!-- 107&#45;&gt;30 -->
<g id="edge137" class="edge"><title>107&#45;&gt;30</title>
<path fill="none" stroke="red" d="M798.101,-1541.58C801.251,-1479.17 809.194,-1292.59 795,-1233.87 792.501,-1223.53 787.679,-1212.92 782.794,-1203.91"/>
<polygon fill="red" stroke="red" points="785.793,-1202.1 777.775,-1195.18 779.724,-1205.59 785.793,-1202.1"/>
</g>
<!-- 107&#45;&gt;64 -->
<g id="edge125" class="edge"><title>107&#45;&gt;64</title>
<path fill="none" stroke="red" d="M775.816,-1560.19C681.453,-1550.96 304,-1507.76 304,-1407.28 304,-1407.28 304,-1407.28 304,-1178.48 304,-796.858 849.38,-562.331 976.665,-512.792"/>
<polygon fill="red" stroke="red" points="977.991,-516.032 986.068,-509.175 975.478,-509.499 977.991,-516.032"/>
</g>
<!-- 104&#45;&gt;47 -->
<g id="edge120" class="edge"><title>104&#45;&gt;47</title>
<path fill="none" stroke="red" d="M956.983,-1479.72C1003.98,-1470.76 1121.23,-1448.18 1219,-1427.49 1239.86,-1423.08 1263.36,-1417.79 1281.12,-1413.73"/>
<polygon fill="red" stroke="red" points="1282.14,-1417.09 1291.1,-1411.44 1280.57,-1410.26 1282.14,-1417.09"/>
</g>
<!-- 47&#45;&gt;5 -->
<g id="edge138" class="edge"><title>47&#45;&gt;5</title>
<path fill="none" stroke="green" d="M1327.46,-1404.8C1384.45,-1402.87 1562.17,-1393.44 1701,-1349.07 1944.4,-1271.26 2113,-1203.57 2113,-948.034 2113,-948.034 2113,-948.034 2113,-144.154 2113,-102.69 2120.86,-80.5331 2089,-54 2046.72,-18.7947 1645.13,-11.4886 1548.05,-10.232"/>
<polygon fill="green" stroke="green" points="1547.81,-6.7289 1537.76,-10.1073 1547.72,-13.7284 1547.81,-6.7289"/>
</g>
<!-- 47&#45;&gt;29 -->
<g id="edge33" class="edge"><title>47&#45;&gt;29</title>
<path fill="none" stroke="green" d="M1322.05,-1392.66C1334.47,-1380.64 1353.36,-1362.37 1367.74,-1348.45"/>
<polygon fill="green" stroke="green" points="1370.44,-1350.71 1375.2,-1341.24 1365.58,-1345.67 1370.44,-1350.71"/>
</g>
<!-- 108 -->
<g id="node21" class="node"><title>108</title>
<ellipse fill="none" stroke="black" cx="1330" cy="-1327.85" rx="21.4286" ry="21.4286"/>
<text text-anchor="middle" x="1330" y="-1325.65" font-family="Times New Roman,serif" font-size="9.00">108</text>
</g>
<!-- 47&#45;&gt;108 -->
<g id="edge56" class="edge"><title>47&#45;&gt;108</title>
<path fill="none" stroke="green" d="M1313.66,-1388.32C1316.09,-1379.48 1319.13,-1368.41 1321.93,-1358.23"/>
<polygon fill="green" stroke="green" points="1325.34,-1359.04 1324.61,-1348.47 1318.59,-1357.18 1325.34,-1359.04"/>
</g>
<!-- 110 -->
<g id="node46" class="node"><title>110</title>
<ellipse fill="none" stroke="black" cx="815" cy="-1103.89" rx="21.4286" ry="21.4286"/>
<text text-anchor="middle" x="815" y="-1101.69" font-family="Times New Roman,serif" font-size="9.00">110</text>
</g>
<!-- 47&#45;&gt;110 -->
<g id="edge97" class="edge"><title>47&#45;&gt;110</title>
<path fill="none" stroke="green" d="M1293.47,-1395.73C1264.77,-1378.09 1201.47,-1339.21 1148,-1306.64 1033.99,-1237.18 897.691,-1154.81 841.355,-1120.79"/>
<polygon fill="green" stroke="green" points="843.078,-1117.74 832.708,-1115.57 839.46,-1123.74 843.078,-1117.74"/>
</g>
<!-- 29&#45;&gt;5 -->
<g id="edge103" class="edge"><title>29&#45;&gt;5</title>
<path fill="none" stroke="green" d="M1406.5,-1326.94C1460.45,-1326.57 1621.42,-1321.01 1742,-1270.64 1792.39,-1249.59 1803.57,-1237.63 1841,-1197.87 1967.7,-1063.28 1961,-984.507 1961,-799.666 1961,-799.666 1961,-799.666 1961,-144.154 1961,-56.6021 1634.53,-20.0053 1547.9,-11.8347"/>
<polygon fill="green" stroke="green" points="1548.01,-8.33017 1537.73,-10.904 1547.37,-15.301 1548.01,-8.33017"/>
</g>
<!-- 40 -->
<g id="node22" class="node"><title>40</title>
<ellipse fill="none" stroke="black" cx="1381" cy="-1252.25" rx="18.2703" ry="18.2703"/>
<text text-anchor="middle" x="1381" y="-1250.05" font-family="Times New Roman,serif" font-size="9.00">40</text>
</g>
<!-- 29&#45;&gt;40 -->
<g id="edge117" class="edge"><title>29&#45;&gt;40</title>
<path fill="none" stroke="red" d="M1386.34,-1309.41C1385.52,-1300.79 1384.51,-1290.2 1383.6,-1280.54"/>
<polygon fill="red" stroke="red" points="1387.08,-1280.19 1382.65,-1270.57 1380.11,-1280.86 1387.08,-1280.19"/>
</g>
<!-- 29&#45;&gt;15 -->
<g id="edge27" class="edge"><title>29&#45;&gt;15</title>
<path fill="none" stroke="red" d="M1395.48,-1310.53C1400.11,-1299.52 1405.6,-1284.52 1408,-1270.64 1411.59,-1249.84 1410.57,-1225.95 1408.8,-1207.99"/>
<polygon fill="red" stroke="red" points="1412.26,-1207.46 1407.66,-1197.91 1405.3,-1208.24 1412.26,-1207.46"/>
</g>
<!-- 91 -->
<g id="node29" class="node"><title>91</title>
<ellipse fill="none" stroke="black" cx="1289" cy="-1252.25" rx="18.2703" ry="18.2703"/>
<text text-anchor="middle" x="1289" y="-1250.05" font-family="Times New Roman,serif" font-size="9.00">91</text>
</g>
<!-- 29&#45;&gt;91 -->
<g id="edge49" class="edge"><title>29&#45;&gt;91</title>
<path fill="none" stroke="red" d="M1373.39,-1315.99C1357.07,-1303.86 1330.44,-1284.06 1311.46,-1269.95"/>
<polygon fill="red" stroke="red" points="1313.46,-1267.08 1303.35,-1263.92 1309.28,-1272.69 1313.46,-1267.08"/>
</g>
<!-- 29&#45;&gt;10 -->
<g id="edge156" class="edge"><title>29&#45;&gt;10</title>
<path fill="none" stroke="green" d="M1374.61,-1314.97C1370.24,-1311.72 1365.17,-1308.57 1360,-1306.64 1254.73,-1267.3 900.101,-1256.26 796.59,-1253.84"/>
<polygon fill="green" stroke="green" points="796.642,-1250.34 786.566,-1253.61 796.485,-1257.34 796.642,-1250.34"/>
</g>
<!-- 29&#45;&gt;13 -->
<g id="edge115" class="edge"><title>29&#45;&gt;13</title>
<path fill="none" stroke="red" d="M1378.4,-1312.06C1362.8,-1288.48 1332.08,-1243.97 1316,-1233.87 1250.97,-1193.02 1215.22,-1233.14 1147,-1197.87 1074.69,-1160.49 1010.37,-1086.25 980.953,-1048.95"/>
<polygon fill="red" stroke="red" points="983.465,-1046.48 974.566,-1040.73 977.938,-1050.78 983.465,-1046.48"/>
</g>
<!-- 48 -->
<g id="node63" class="node"><title>48</title>
<ellipse fill="none" stroke="black" cx="1815" cy="-798.666" rx="18.2703" ry="18.2703"/>
<text text-anchor="middle" x="1815" y="-796.466" font-family="Times New Roman,serif" font-size="9.00">48</text>
</g>
<!-- 29&#45;&gt;48 -->
<g id="edge86" class="edge"><title>29&#45;&gt;48</title>
<path fill="none" stroke="green" d="M1406.61,-1325.22C1465.58,-1319.79 1647.3,-1300.93 1697,-1270.64 1813.96,-1199.36 1885,-1163.42 1885,-1026.46 1885,-1026.46 1885,-1026.46 1885,-946.034 1885,-903.763 1884.6,-890.501 1865,-853.051 1858.03,-839.735 1846.82,-827.321 1836.77,-817.821"/>
<polygon fill="green" stroke="green" points="1838.84,-814.971 1829.07,-810.865 1834.15,-820.166 1838.84,-814.971"/>
</g>
<!-- 29&#45;&gt;14 -->
<g id="edge116" class="edge"><title>29&#45;&gt;14</title>
<path fill="none" stroke="red" d="M1405.71,-1322C1421.87,-1317.67 1446.44,-1311.3 1468,-1306.64 1556.28,-1287.56 1606.6,-1336.88 1668,-1270.64 1748.79,-1183.49 1714.45,-1120.75 1691,-1004.25 1680.12,-950.181 1659.43,-942.467 1643,-889.82 1636.55,-869.142 1631.61,-845.113 1628.38,-827.065"/>
<polygon fill="red" stroke="red" points="1631.83,-826.461 1626.68,-817.2 1624.93,-827.649 1631.83,-826.461"/>
</g>
<!-- 92&#45;&gt;15 -->
<g id="edge52" class="edge"><title>92&#45;&gt;15</title>
<path fill="none" stroke="green" d="M1495.81,-1241.11C1478.16,-1229.33 1448.83,-1209.75 1428.29,-1196.03"/>
<polygon fill="green" stroke="green" points="1430.08,-1193.02 1419.82,-1190.38 1426.19,-1198.84 1430.08,-1193.02"/>
</g>
<!-- 36&#45;&gt;10 -->
<g id="edge160" class="edge"><title>36&#45;&gt;10</title>
<path fill="none" stroke="green" d="M882.319,-1317.97C860.065,-1305.38 819.102,-1282.18 792.73,-1267.25"/>
<polygon fill="green" stroke="green" points="794.163,-1264.04 783.737,-1262.16 790.715,-1270.14 794.163,-1264.04"/>
</g>
<!-- 112 -->
<g id="node31" class="node"><title>112</title>
<ellipse fill="none" stroke="black" cx="1141" cy="-1103.89" rx="21.4286" ry="21.4286"/>
<text text-anchor="middle" x="1141" y="-1101.69" font-family="Times New Roman,serif" font-size="9.00">112</text>
</g>
<!-- 36&#45;&gt;112 -->
<g id="edge174" class="edge"><title>36&#45;&gt;112</title>
<path fill="none" stroke="green" d="M911.411,-1314.6C951.09,-1278.36 1068.25,-1171.34 1118.11,-1125.79"/>
<polygon fill="green" stroke="green" points="1120.77,-1128.11 1125.79,-1118.78 1116.05,-1122.94 1120.77,-1128.11"/>
</g>
<!-- 37&#45;&gt;23 -->
<g id="edge84" class="edge"><title>37&#45;&gt;23</title>
<path fill="none" stroke="green" d="M1138.34,-1320.91C1152.38,-1316.33 1172.75,-1310.19 1191,-1306.64 1343.19,-1277.01 1384.37,-1291.55 1538,-1270.64 1563.4,-1267.18 1592.16,-1262.24 1612.81,-1258.51"/>
<polygon fill="green" stroke="green" points="1613.61,-1261.92 1622.82,-1256.68 1612.35,-1255.04 1613.61,-1261.92"/>
</g>
<!-- 37&#45;&gt;10 -->
<g id="edge163" class="edge"><title>37&#45;&gt;10</title>
<path fill="none" stroke="green" d="M1103.01,-1323.1C1045.41,-1311.09 865.272,-1273.53 795.754,-1259.04"/>
<polygon fill="green" stroke="green" points="796.458,-1255.61 785.954,-1257 795.03,-1262.46 796.458,-1255.61"/>
</g>
<!-- 35&#45;&gt;10 -->
<g id="edge162" class="edge"><title>35&#45;&gt;10</title>
<path fill="none" stroke="red" d="M768,-1309.41C768,-1300.95 768,-1290.58 768,-1281.06"/>
<polygon fill="red" stroke="red" points="771.5,-1280.83 768,-1270.83 764.5,-1280.83 771.5,-1280.83"/>
</g>
<!-- 22&#45;&gt;10 -->
<g id="edge165" class="edge"><title>22&#45;&gt;10</title>
<path fill="none" stroke="green" d="M616.723,-1319.53C646.032,-1306.69 706.877,-1280.03 741.812,-1264.73"/>
<polygon fill="green" stroke="green" points="743.59,-1267.77 751.345,-1260.55 740.781,-1261.36 743.59,-1267.77"/>
</g>
<!-- 51&#45;&gt;10 -->
<g id="edge172" class="edge"><title>51&#45;&gt;10</title>
<path fill="none" stroke="red" d="M939.069,-1315.35C934.753,-1312.2 929.852,-1309 925,-1306.64 873.014,-1281.34 853.493,-1292.57 800,-1270.64 797.594,-1269.65 795.136,-1268.53 792.703,-1267.35"/>
<polygon fill="red" stroke="red" points="794.105,-1264.14 783.619,-1262.62 790.87,-1270.34 794.105,-1264.14"/>
</g>
<!-- 108&#45;&gt;23 -->
<g id="edge81" class="edge"><title>108&#45;&gt;23</title>
<path fill="none" stroke="green" d="M1346.72,-1314.26C1351.18,-1311.39 1356.11,-1308.61 1361,-1306.64 1384.26,-1297.26 1546.25,-1269.26 1612.68,-1258.01"/>
<polygon fill="green" stroke="green" points="1613.57,-1261.41 1622.85,-1256.29 1612.4,-1254.51 1613.57,-1261.41"/>
</g>
<!-- 108&#45;&gt;91 -->
<g id="edge57" class="edge"><title>108&#45;&gt;91</title>
<path fill="none" stroke="red" d="M1320.08,-1309.04C1314.85,-1299.66 1308.36,-1288.01 1302.67,-1277.79"/>
<polygon fill="red" stroke="red" points="1305.64,-1275.94 1297.72,-1268.91 1299.53,-1279.35 1305.64,-1275.94"/>
</g>
<!-- 40&#45;&gt;15 -->
<g id="edge118" class="edge"><title>40&#45;&gt;15</title>
<path fill="none" stroke="green" d="M1386.69,-1234.48C1389.5,-1226.2 1392.95,-1216.01 1396.1,-1206.72"/>
<polygon fill="green" stroke="green" points="1399.46,-1207.73 1399.35,-1197.14 1392.83,-1205.48 1399.46,-1207.73"/>
</g>
<!-- 40&#45;&gt;43 -->
<g id="edge146" class="edge"><title>40&#45;&gt;43</title>
<path fill="none" stroke="red" d="M1365.36,-1241.94C1360.25,-1239.12 1354.48,-1236.17 1349,-1233.87 1298.56,-1212.73 1236.8,-1195.87 1201.77,-1187.11"/>
<polygon fill="red" stroke="red" points="1202.35,-1183.64 1191.8,-1184.65 1200.67,-1190.44 1202.35,-1183.64"/>
</g>
<!-- 85&#45;&gt;34 -->
<g id="edge151" class="edge"><title>85&#45;&gt;34</title>
<path fill="none" stroke="green" d="M2140.12,-1700.64C2155.28,-1669.46 2184.43,-1597.41 2162,-1541.92 2110.28,-1413.95 1774.22,-1120.68 1685.47,-1044.71"/>
<polygon fill="green" stroke="green" points="1687.55,-1041.88 1677.67,-1038.04 1683,-1047.2 1687.55,-1041.88"/>
</g>
<!-- 122&#45;&gt;53 -->
<g id="edge144" class="edge"><title>122&#45;&gt;53</title>
<path fill="none" stroke="red" d="M381.284,-1387.17C375.899,-1377.13 369.127,-1364.51 363.261,-1353.57"/>
<polygon fill="red" stroke="red" points="366.21,-1351.66 358.398,-1344.51 360.041,-1354.97 366.21,-1351.66"/>
</g>
<!-- 15&#45;&gt;112 -->
<g id="edge74" class="edge"><title>15&#45;&gt;112</title>
<path fill="none" stroke="green" d="M1386.8,-1176.52C1346.64,-1171.73 1248.02,-1157.37 1172,-1125.1 1170.18,-1124.33 1168.35,-1123.45 1166.54,-1122.5"/>
<polygon fill="green" stroke="green" points="1168.17,-1119.4 1157.77,-1117.35 1164.63,-1125.43 1168.17,-1119.4"/>
</g>
<!-- 86 -->
<g id="node36" class="node"><title>86</title>
<ellipse fill="none" stroke="black" cx="1405" cy="-1103.89" rx="18.2703" ry="18.2703"/>
<text text-anchor="middle" x="1405" y="-1101.69" font-family="Times New Roman,serif" font-size="9.00">86</text>
</g>
<!-- 15&#45;&gt;86 -->
<g id="edge44" class="edge"><title>15&#45;&gt;86</title>
<path fill="none" stroke="red" d="M1405,-1161.04C1405,-1152.58 1405,-1142.21 1405,-1132.69"/>
<polygon fill="red" stroke="red" points="1408.5,-1132.46 1405,-1122.46 1401.5,-1132.46 1408.5,-1132.46"/>
</g>
<!-- 60 -->
<g id="node42" class="node"><title>60</title>
<ellipse fill="none" stroke="black" cx="1497" cy="-1103.89" rx="18.2703" ry="18.2703"/>
<text text-anchor="middle" x="1497" y="-1101.69" font-family="Times New Roman,serif" font-size="9.00">60</text>
</g>
<!-- 15&#45;&gt;60 -->
<g id="edge105" class="edge"><title>15&#45;&gt;60</title>
<path fill="none" stroke="green" d="M1418.97,-1167.31C1433.83,-1155.42 1457.55,-1136.45 1474.93,-1122.54"/>
<polygon fill="green" stroke="green" points="1477.27,-1125.15 1482.9,-1116.17 1472.9,-1119.68 1477.27,-1125.15"/>
</g>
<!-- 31 -->
<g id="node54" class="node"><title>31</title>
<ellipse fill="none" stroke="black" cx="1247" cy="-871.436" rx="18.2703" ry="18.2703"/>
<text text-anchor="middle" x="1247" y="-869.236" font-family="Times New Roman,serif" font-size="9.00">31</text>
</g>
<!-- 15&#45;&gt;31 -->
<g id="edge106" class="edge"><title>15&#45;&gt;31</title>
<path fill="none" stroke="green" d="M1394.54,-1163.94C1361.64,-1118.16 1262.21,-979.361 1258,-968.247 1249.69,-946.318 1247.18,-919.704 1246.61,-900.097"/>
<polygon fill="green" stroke="green" points="1250.11,-899.948 1246.47,-889.998 1243.11,-900.046 1250.11,-899.948"/>
</g>
<!-- 15&#45;&gt;8 -->
<g id="edge15" class="edge"><title>15&#45;&gt;8</title>
<path fill="none" stroke="red" d="M1386.78,-1176.94C1329.65,-1171.9 1149.05,-1154.57 1002,-1125.1 931.129,-1110.89 916.037,-1096.03 845,-1082.67 771.85,-1068.92 566.759,-1097.09 512,-1046.67 479.154,-1016.43 493,-992.679 493,-948.034 493,-948.034 493,-948.034 493,-870.436 493,-771.588 455,-750.146 455,-651.299 455,-651.299 455,-651.299 455,-573.701 455,-506.621 536.303,-461.499 577.149,-443.063"/>
<polygon fill="red" stroke="red" points="578.59,-446.253 586.359,-439.05 575.793,-439.836 578.59,-446.253"/>
</g>
<!-- 15&#45;&gt;7 -->
<g id="edge14" class="edge"><title>15&#45;&gt;7</title>
<path fill="none" stroke="red" d="M1422.28,-1173.16C1446.48,-1165.19 1491.2,-1148.53 1524,-1125.1 1583.83,-1082.35 1576.54,-1046.1 1637,-1004.25 1672.39,-979.749 1720.1,-963.149 1748.59,-954.662"/>
<polygon fill="red" stroke="red" points="1749.86,-957.939 1758.5,-951.807 1747.92,-951.212 1749.86,-957.939"/>
</g>
<!-- 26 -->
<g id="node64" class="node"><title>26</title>
<ellipse fill="none" stroke="black" cx="957" cy="-363.463" rx="18.2703" ry="18.2703"/>
<text text-anchor="middle" x="957" y="-361.263" font-family="Times New Roman,serif" font-size="9.00">26</text>
</g>
<!-- 15&#45;&gt;26 -->
<g id="edge16" class="edge"><title>15&#45;&gt;26</title>
<path fill="none" stroke="green" d="M1386.68,-1175.58C1340.34,-1168.16 1214.71,-1147.44 1111,-1125.1 1102.21,-1123.21 802.866,-1053.49 797,-1046.67 675.454,-905.507 702.622,-805.985 761,-629.085 796.262,-522.232 893.154,-423.269 936.07,-383.221"/>
<polygon fill="green" stroke="green" points="938.681,-385.575 943.664,-376.226 933.938,-380.426 938.681,-385.575"/>
</g>
<!-- 43&#45;&gt;5 -->
<g id="edge149" class="edge"><title>43&#45;&gt;5</title>
<path fill="none" stroke="red" d="M1189.54,-1169.48C1206.32,-1159.49 1233.52,-1142.46 1255,-1125.1 1314.61,-1076.93 1313.09,-1044.99 1378,-1004.25 1505.58,-924.174 1598.02,-1003.35 1697,-889.82 1723.91,-858.955 1716,-840.615 1716,-799.666 1716,-799.666 1716,-799.666 1716,-144.154 1716,-62.2286 1596.45,-25.7601 1547.51,-14.2635"/>
<polygon fill="red" stroke="red" points="1548.23,-10.8365 1537.7,-12.0747 1546.7,-17.6685 1548.23,-10.8365"/>
</g>
<!-- 80 -->
<g id="node37" class="node"><title>80</title>
<ellipse fill="none" stroke="black" cx="1199" cy="-1103.89" rx="18.2703" ry="18.2703"/>
<text text-anchor="middle" x="1199" y="-1101.69" font-family="Times New Roman,serif" font-size="9.00">80</text>
</g>
<!-- 43&#45;&gt;80 -->
<g id="edge126" class="edge"><title>43&#45;&gt;80</title>
<path fill="none" stroke="red" d="M1179.67,-1161.78C1182.74,-1152.75 1186.6,-1141.39 1190.06,-1131.19"/>
<polygon fill="red" stroke="red" points="1193.45,-1132.12 1193.35,-1121.52 1186.82,-1129.86 1193.45,-1132.12"/>
</g>
<!-- 43&#45;&gt;13 -->
<g id="edge29" class="edge"><title>43&#45;&gt;13</title>
<path fill="none" stroke="red" d="M1159.98,-1167.12C1147.03,-1156.5 1127.4,-1140.1 1111,-1125.1 1091.19,-1106.98 1089.58,-1098.64 1068,-1082.67 1043.25,-1064.36 1011.79,-1048.2 989.987,-1037.97"/>
<polygon fill="red" stroke="red" points="991.255,-1034.7 980.707,-1033.69 988.327,-1041.06 991.255,-1034.7"/>
</g>
<!-- 43&#45;&gt;110 -->
<g id="edge92" class="edge"><title>43&#45;&gt;110</title>
<path fill="none" stroke="red" d="M1155.51,-1177.75C1105.07,-1175.27 961.382,-1164.94 850,-1125.1 847.056,-1124.05 844.076,-1122.75 841.162,-1121.32"/>
<polygon fill="red" stroke="red" points="842.664,-1118.15 832.204,-1116.47 839.33,-1124.31 842.664,-1118.15"/>
</g>
<!-- 43&#45;&gt;8 -->
<g id="edge99" class="edge"><title>43&#45;&gt;8</title>
<path fill="none" stroke="red" d="M1156.51,-1173.53C1078.5,-1151.35 765.487,-1061.71 750,-1046.67 662.398,-961.63 613.635,-560.044 602.484,-457.553"/>
<polygon fill="red" stroke="red" points="605.96,-457.141 601.414,-447.571 599,-457.887 605.96,-457.141"/>
</g>
<!-- 43&#45;&gt;14 -->
<g id="edge147" class="edge"><title>43&#45;&gt;14</title>
<path fill="none" stroke="green" d="M1187.06,-1166.34C1197.99,-1155.89 1213.74,-1140.14 1226,-1125.1 1293.59,-1042.18 1279.96,-995.659 1361,-925.82 1434.75,-862.261 1546.06,-823.017 1596.92,-807.414"/>
<polygon fill="green" stroke="green" points="1597.97,-810.754 1606.54,-804.526 1595.95,-804.049 1597.97,-810.754"/>
</g>
<!-- 75 -->
<g id="node34" class="node"><title>75</title>
<ellipse fill="none" stroke="black" cx="1543" cy="-1179.48" rx="18.2703" ry="18.2703"/>
<text text-anchor="middle" x="1543" y="-1177.28" font-family="Times New Roman,serif" font-size="9.00">75</text>
</g>
<!-- 23&#45;&gt;75 -->
<g id="edge54" class="edge"><title>23&#45;&gt;75</title>
<path fill="none" stroke="red" d="M1626.54,-1240.81C1610.54,-1229.26 1584.56,-1210.5 1565.81,-1196.96"/>
<polygon fill="red" stroke="red" points="1567.68,-1193.99 1557.52,-1190.97 1563.58,-1199.66 1567.68,-1193.99"/>
</g>
<!-- 23&#45;&gt;60 -->
<g id="edge114" class="edge"><title>23&#45;&gt;60</title>
<path fill="none" stroke="red" d="M1625.25,-1242.18C1620.14,-1239.37 1614.39,-1236.37 1609,-1233.87 1568.78,-1215.25 1544.6,-1231.73 1516,-1197.87 1500.77,-1179.84 1496.63,-1152.87 1495.95,-1132.62"/>
<polygon fill="red" stroke="red" points="1499.44,-1132.41 1495.87,-1122.43 1492.44,-1132.46 1499.44,-1132.41"/>
</g>
<!-- 23&#45;&gt;34 -->
<g id="edge30" class="edge"><title>23&#45;&gt;34</title>
<path fill="none" stroke="red" d="M1642.8,-1233.61C1646.79,-1194.63 1656.38,-1100.89 1661.18,-1054.06"/>
<polygon fill="red" stroke="red" points="1664.67,-1054.32 1662.2,-1044.02 1657.7,-1053.61 1664.67,-1054.32"/>
</g>
<!-- 56 -->
<g id="node72" class="node"><title>56</title>
<ellipse fill="none" stroke="black" cx="1337" cy="-72.3848" rx="18.2703" ry="18.2703"/>
<text text-anchor="middle" x="1337" y="-70.1848" font-family="Times New Roman,serif" font-size="9.00">56</text>
</g>
<!-- 23&#45;&gt;56 -->
<g id="edge134" class="edge"><title>23&#45;&gt;56</title>
<path fill="none" stroke="green" d="M1630.55,-1236.94C1596.21,-1188.43 1489,-1024.79 1489,-872.436 1489,-872.436 1489,-872.436 1489,-216.924 1489,-148.568 1406.74,-103.103 1363.25,-83.8424"/>
<polygon fill="green" stroke="green" points="1364.42,-80.5364 1353.85,-79.8202 1361.66,-86.972 1364.42,-80.5364"/>
</g>
<!-- 203 -->
<g id="node38" class="node"><title>203</title>
<ellipse fill="none" stroke="black" cx="429" cy="-1103.89" rx="21.4286" ry="21.4286"/>
<text text-anchor="middle" x="429" y="-1101.69" font-family="Times New Roman,serif" font-size="9.00">203</text>
</g>
<!-- 18&#45;&gt;203 -->
<g id="edge182" class="edge"><title>18&#45;&gt;203</title>
<path fill="none" stroke="green" d="M449.1,-1161.78C446.165,-1153.47 442.532,-1143.19 439.166,-1133.66"/>
<polygon fill="green" stroke="green" points="442.426,-1132.38 435.795,-1124.12 435.826,-1134.72 442.426,-1132.38"/>
</g>
<!-- 18&#45;&gt;60 -->
<g id="edge98" class="edge"><title>18&#45;&gt;60</title>
<path fill="none" stroke="red" d="M473.399,-1177.31C518.822,-1174.42 639.931,-1166.8 741,-1161.1 1048.04,-1143.77 1129.26,-1179.18 1432,-1125.1 1444.96,-1122.79 1458.94,-1118.66 1470.61,-1114.73"/>
<polygon fill="red" stroke="red" points="1471.9,-1117.99 1480.18,-1111.39 1469.59,-1111.38 1471.9,-1117.99"/>
</g>
<!-- 39 -->
<g id="node47" class="node"><title>39</title>
<ellipse fill="none" stroke="black" cx="539" cy="-1025.46" rx="18.2703" ry="18.2703"/>
<text text-anchor="middle" x="539" y="-1023.26" font-family="Times New Roman,serif" font-size="9.00">39</text>
</g>
<!-- 18&#45;&gt;39 -->
<g id="edge194" class="edge"><title>18&#45;&gt;39</title>
<path fill="none" stroke="red" d="M462.213,-1162.23C470.959,-1142.91 486.467,-1109.86 502,-1082.67 508.455,-1071.37 516.297,-1059.27 523.097,-1049.19"/>
<polygon fill="red" stroke="red" points="525.988,-1051.17 528.743,-1040.94 520.21,-1047.22 525.988,-1051.17"/>
</g>
<!-- 18&#45;&gt;8 -->
<g id="edge155" class="edge"><title>18&#45;&gt;8</title>
<path fill="none" stroke="red" d="M439.556,-1169.05C425.997,-1159.77 407.197,-1144.24 399,-1125.1 391.576,-1107.77 397.748,-1101.49 399,-1082.67 403.009,-1022.43 417,-1008.41 417,-948.034 417,-948.034 417,-948.034 417,-573.701 417,-532.236 412.327,-513.498 441,-483.546 476.561,-446.399 539.4,-436.805 574.489,-434.41"/>
<polygon fill="red" stroke="red" points="575.036,-437.886 584.836,-433.86 574.665,-430.896 575.036,-437.886"/>
</g>
<!-- 91&#45;&gt;13 -->
<g id="edge50" class="edge"><title>91&#45;&gt;13</title>
<path fill="none" stroke="red" d="M1273.83,-1241.75C1268.65,-1238.85 1262.72,-1235.9 1257,-1233.87 1175.19,-1204.79 1136.07,-1247.74 1065,-1197.87 1014.09,-1162.14 984.826,-1091.87 971.948,-1053.32"/>
<polygon fill="red" stroke="red" points="975.135,-1051.8 968.746,-1043.35 968.47,-1053.94 975.135,-1051.8"/>
</g>
<!-- 10&#45;&gt;30 -->
<g id="edge158" class="edge"><title>10&#45;&gt;30</title>
<path fill="none" stroke="green" d="M768,-1233.76C768,-1226.08 768,-1216.87 768,-1208.28"/>
<polygon fill="green" stroke="green" points="771.5,-1208.27 768,-1198.27 764.5,-1208.27 771.5,-1208.27"/>
</g>
<!-- 10&#45;&gt;13 -->
<g id="edge159" class="edge"><title>10&#45;&gt;13</title>
<path fill="none" stroke="red" d="M756.137,-1237.84C730.358,-1207.04 674.596,-1130.24 714,-1082.67 768.826,-1016.48 820.856,-1068.44 904,-1046.67 915.085,-1043.77 927.092,-1039.88 937.432,-1036.29"/>
<polygon fill="red" stroke="red" points="938.871,-1039.49 947.12,-1032.84 936.525,-1032.9 938.871,-1039.49"/>
</g>
<!-- 24 -->
<g id="node57" class="node"><title>24</title>
<ellipse fill="none" stroke="black" cx="959" cy="-574.701" rx="18.2703" ry="18.2703"/>
<text text-anchor="middle" x="959" y="-572.501" font-family="Times New Roman,serif" font-size="9.00">24</text>
</g>
<!-- 10&#45;&gt;24 -->
<g id="edge157" class="edge"><title>10&#45;&gt;24</title>
<path fill="none" stroke="green" d="M752.046,-1242.57C737.139,-1233.52 715.634,-1217.87 705,-1197.87 689.726,-1169.14 698.78,-1157.59 697,-1125.1 684.684,-900.373 648.079,-796.048 799,-629.085 832.989,-591.483 894.163,-580.324 930.221,-577.04"/>
<polygon fill="green" stroke="green" points="930.842,-580.503 940.547,-576.253 930.31,-573.523 930.842,-580.503"/>
</g>
<!-- 112&#45;&gt;111 -->
<g id="edge75" class="edge"><title>112&#45;&gt;111</title>
<path fill="none" stroke="red" d="M1141,-1082.41C1141,-1074.55 1141,-1065.4 1141,-1056.81"/>
<polygon fill="red" stroke="red" points="1144.5,-1056.73 1141,-1046.73 1137.5,-1056.73 1144.5,-1056.73"/>
</g>
<!-- 112&#45;&gt;171 -->
<g id="edge152" class="edge"><title>112&#45;&gt;171</title>
<path fill="none" stroke="red" d="M1120.4,-1097.87C1066.5,-1084.75 921.133,-1049.37 857.513,-1033.89"/>
<polygon fill="red" stroke="red" points="858.222,-1030.46 847.678,-1031.49 856.567,-1037.26 858.222,-1030.46"/>
</g>
<!-- 121&#45;&gt;7 -->
<g id="edge140" class="edge"><title>121&#45;&gt;7</title>
<path fill="none" stroke="green" d="M2144.25,-1545.24C2183.31,-1489.15 2299.1,-1304.54 2241,-1161.1 2168.6,-982.346 1885.12,-953.554 1798.37,-948.921"/>
<polygon fill="green" stroke="green" points="1798.28,-945.413 1788.13,-948.44 1797.95,-952.406 1798.28,-945.413"/>
</g>
<!-- 55 -->
<g id="node39" class="node"><title>55</title>
<ellipse fill="none" stroke="black" cx="1117" cy="-947.034" rx="18.2703" ry="18.2703"/>
<text text-anchor="middle" x="1117" y="-944.834" font-family="Times New Roman,serif" font-size="9.00">55</text>
</g>
<!-- 111&#45;&gt;55 -->
<g id="edge72" class="edge"><title>111&#45;&gt;55</title>
<path fill="none" stroke="red" d="M1134.82,-1004.78C1131.93,-995.587 1128.45,-984.509 1125.34,-974.59"/>
<polygon fill="red" stroke="red" points="1128.6,-973.292 1122.27,-964.8 1121.92,-975.389 1128.6,-973.292"/>
</g>
<!-- 75&#45;&gt;60 -->
<g id="edge55" class="edge"><title>75&#45;&gt;60</title>
<path fill="none" stroke="green" d="M1533.69,-1163.59C1527.39,-1153.52 1518.94,-1140 1511.74,-1128.47"/>
<polygon fill="green" stroke="green" points="1514.56,-1126.38 1506.29,-1119.76 1508.63,-1130.09 1514.56,-1126.38"/>
</g>
<!-- 75&#45;&gt;14 -->
<g id="edge176" class="edge"><title>75&#45;&gt;14</title>
<path fill="none" stroke="red" d="M1546.23,-1161.13C1555.39,-1112.38 1582.61,-970.161 1610,-853.051 1612.02,-844.428 1614.4,-835.073 1616.63,-826.639"/>
<polygon fill="red" stroke="red" points="1620.02,-827.483 1619.23,-816.918 1613.26,-825.675 1620.02,-827.483"/>
</g>
<!-- 141 -->
<g id="node40" class="node"><title>141</title>
<ellipse fill="none" stroke="black" cx="755" cy="-1103.89" rx="21.4286" ry="21.4286"/>
<text text-anchor="middle" x="755" y="-1101.69" font-family="Times New Roman,serif" font-size="9.00">141</text>
</g>
<!-- 30&#45;&gt;141 -->
<g id="edge169" class="edge"><title>30&#45;&gt;141</title>
<path fill="none" stroke="green" d="M764.919,-1161.04C763.548,-1153.28 761.894,-1143.92 760.333,-1135.08"/>
<polygon fill="green" stroke="green" points="763.751,-1134.31 758.565,-1125.07 756.858,-1135.53 763.751,-1134.31"/>
</g>
<!-- 30&#45;&gt;13 -->
<g id="edge40" class="edge"><title>30&#45;&gt;13</title>
<path fill="none" stroke="green" d="M754.981,-1166.48C735.602,-1147.18 703.63,-1108.77 725,-1082.67 776.414,-1019.89 825.615,-1067.67 904,-1046.67 915.069,-1043.71 927.073,-1039.81 937.414,-1036.22"/>
<polygon fill="green" stroke="green" points="938.848,-1039.43 947.106,-1032.79 936.511,-1032.83 938.848,-1039.43"/>
</g>
<!-- 30&#45;&gt;110 -->
<g id="edge96" class="edge"><title>30&#45;&gt;110</title>
<path fill="none" stroke="green" d="M777.511,-1163.59C783.564,-1154.11 791.565,-1141.58 798.62,-1130.54"/>
<polygon fill="green" stroke="green" points="801.587,-1132.39 804.02,-1122.08 795.687,-1128.63 801.587,-1132.39"/>
</g>
<!-- 86&#45;&gt;42 -->
<g id="edge45" class="edge"><title>86&#45;&gt;42</title>
<path fill="none" stroke="red" d="M1405,-1085.16C1405,-1076 1405,-1064.6 1405,-1054.3"/>
<polygon fill="red" stroke="red" points="1408.5,-1054.09 1405,-1044.09 1401.5,-1054.09 1408.5,-1054.09"/>
</g>
<!-- 80&#45;&gt;13 -->
<g id="edge127" class="edge"><title>80&#45;&gt;13</title>
<path fill="none" stroke="green" d="M1185.09,-1091.34C1180.78,-1088.19 1175.87,-1085 1171,-1082.67 1110.68,-1053.89 1033.21,-1037.84 992.271,-1030.81"/>
<polygon fill="green" stroke="green" points="992.648,-1027.33 982.21,-1029.14 991.502,-1034.23 992.648,-1027.33"/>
</g>
<!-- 80&#45;&gt;56 -->
<g id="edge145" class="edge"><title>80&#45;&gt;56</title>
<path fill="none" stroke="green" d="M1198.35,-1085.25C1197.29,-1043.9 1197.22,-937.748 1220,-853.051 1282.39,-621.098 1451,-604.66 1451,-364.463 1451,-364.463 1451,-364.463 1451,-216.924 1451,-159.375 1394.11,-111.504 1360.71,-88.3561"/>
<polygon fill="green" stroke="green" points="1362.63,-85.4273 1352.37,-82.7533 1358.72,-91.2368 1362.63,-85.4273"/>
</g>
<!-- 203&#45;&gt;39 -->
<g id="edge183" class="edge"><title>203&#45;&gt;39</title>
<path fill="none" stroke="red" d="M446.188,-1090.94C464.904,-1077.94 494.944,-1057.07 515.756,-1042.61"/>
<polygon fill="red" stroke="red" points="517.835,-1045.43 524.05,-1036.85 513.841,-1039.68 517.835,-1045.43"/>
</g>
<!-- 55&#45;&gt;31 -->
<g id="edge63" class="edge"><title>55&#45;&gt;31</title>
<path fill="none" stroke="red" d="M1132.68,-937.156C1154.93,-924.557 1195.9,-901.366 1222.27,-886.436"/>
<polygon fill="red" stroke="red" points="1224.29,-889.317 1231.26,-881.345 1220.84,-883.226 1224.29,-889.317"/>
</g>
<!-- 141&#45;&gt;13 -->
<g id="edge170" class="edge"><title>141&#45;&gt;13</title>
<path fill="none" stroke="red" d="M771.607,-1090.42C775.83,-1087.61 780.462,-1084.83 785,-1082.67 834.914,-1058.97 851.367,-1063.5 904,-1046.67 914.837,-1043.21 926.718,-1039.24 937.028,-1035.75"/>
<polygon fill="red" stroke="red" points="938.383,-1038.98 946.718,-1032.44 936.123,-1032.36 938.383,-1038.98"/>
</g>
<!-- 21 -->
<g id="node53" class="node"><title>21</title>
<ellipse fill="none" stroke="black" cx="963" cy="-725.897" rx="18.2703" ry="18.2703"/>
<text text-anchor="middle" x="963" y="-723.697" font-family="Times New Roman,serif" font-size="9.00">21</text>
</g>
<!-- 171&#45;&gt;21 -->
<g id="edge153" class="edge"><title>171&#45;&gt;21</title>
<path fill="none" stroke="green" d="M835.507,-1005.85C858.98,-954.488 924.684,-810.732 951.441,-752.187"/>
<polygon fill="green" stroke="green" points="954.705,-753.466 955.678,-742.916 948.338,-750.556 954.705,-753.466"/>
</g>
<!-- 60&#45;&gt;42 -->
<g id="edge48" class="edge"><title>60&#45;&gt;42</title>
<path fill="none" stroke="red" d="M1483.03,-1091.28C1468.08,-1078.86 1444.18,-1059.01 1426.76,-1044.54"/>
<polygon fill="red" stroke="red" points="1428.73,-1041.62 1418.8,-1037.93 1424.26,-1047.01 1428.73,-1041.62"/>
</g>
<!-- 60&#45;&gt;34 -->
<g id="edge177" class="edge"><title>60&#45;&gt;34</title>
<path fill="none" stroke="red" d="M1513.62,-1095.28C1542.76,-1081.95 1603.24,-1054.27 1637.97,-1038.37"/>
<polygon fill="red" stroke="red" points="1639.81,-1041.38 1647.44,-1034.04 1636.89,-1035.02 1639.81,-1041.38"/>
</g>
<!-- 60&#45;&gt;24 -->
<g id="edge34" class="edge"><title>60&#45;&gt;24</title>
<path fill="none" stroke="red" d="M1493.52,-1085.73C1486.06,-1052.19 1465.94,-976.775 1427,-925.82 1296.43,-754.945 1061.29,-627.033 984.218,-588.061"/>
<polygon fill="red" stroke="red" points="985.725,-584.902 975.216,-583.553 982.59,-591.16 985.725,-584.902"/>
</g>
<!-- 60&#45;&gt;7 -->
<g id="edge85" class="edge"><title>60&#45;&gt;7</title>
<path fill="none" stroke="red" d="M1506.81,-1088.23C1521.95,-1066.71 1553.05,-1026.7 1589,-1004.25 1640.31,-972.195 1711.12,-957.359 1748.15,-951.422"/>
<polygon fill="red" stroke="red" points="1748.72,-954.876 1758.08,-949.916 1747.67,-947.955 1748.72,-954.876"/>
</g>
<!-- 45 -->
<g id="node48" class="node"><title>45</title>
<ellipse fill="none" stroke="black" cx="949" cy="-947.034" rx="18.2703" ry="18.2703"/>
<text text-anchor="middle" x="949" y="-944.834" font-family="Times New Roman,serif" font-size="9.00">45</text>
</g>
<!-- 13&#45;&gt;45 -->
<g id="edge88" class="edge"><title>13&#45;&gt;45</title>
<path fill="none" stroke="red" d="M960.596,-1007.12C958.755,-997.737 956.439,-985.936 954.362,-975.351"/>
<polygon fill="red" stroke="red" points="957.751,-974.446 952.39,-965.307 950.882,-975.794 957.751,-974.446"/>
</g>
<!-- 13&#45;&gt;19 -->
<g id="edge100" class="edge"><title>13&#45;&gt;19</title>
<path fill="none" stroke="red" d="M969.41,-1007.89C975.075,-988.151 982.333,-954.279 976,-925.82 973.78,-915.843 969.486,-905.525 965.076,-896.651"/>
<polygon fill="red" stroke="red" points="968.1,-894.883 960.337,-887.673 961.91,-898.151 968.1,-894.883"/>
</g>
<!-- 13&#45;&gt;17 -->
<g id="edge185" class="edge"><title>13&#45;&gt;17</title>
<path fill="none" stroke="green" d="M951.844,-1011.04C942.554,-1000.17 930.022,-984.121 922,-968.247 871.087,-867.492 841.8,-734.845 830.915,-678.496"/>
<polygon fill="green" stroke="green" points="834.337,-677.756 829.039,-668.581 827.459,-679.057 834.337,-677.756"/>
</g>
<!-- 13&#45;&gt;64 -->
<g id="edge109" class="edge"><title>13&#45;&gt;64</title>
<path fill="none" stroke="green" d="M972.831,-1009.13C978.909,-998.063 986.796,-982.596 992,-968.247 1029.51,-864.823 1047,-836.913 1047,-726.897 1047,-726.897 1047,-726.897 1047,-649.299 1047,-605.15 1028.41,-556.561 1015.4,-527.953"/>
<polygon fill="green" stroke="green" points="1018.48,-526.278 1011.07,-518.707 1012.14,-529.247 1018.48,-526.278"/>
</g>
<!-- 13&#45;&gt;8 -->
<g id="edge188" class="edge"><title>13&#45;&gt;8</title>
<path fill="none" stroke="green" d="M948.516,-1015.08C888.695,-977.524 676,-831.337 676,-651.299 676,-651.299 676,-651.299 676,-573.701 676,-524.751 639.672,-476.565 617.249,-451.484"/>
<polygon fill="green" stroke="green" points="619.603,-448.874 610.25,-443.897 614.457,-453.62 619.603,-448.874"/>
</g>
<!-- 13&#45;&gt;7 -->
<g id="edge129" class="edge"><title>13&#45;&gt;7</title>
<path fill="none" stroke="green" d="M982.067,-1021.67C1009.76,-1017.46 1064.4,-1009.43 1111,-1004.25 1358.91,-976.696 1660.37,-955.579 1748.01,-949.686"/>
<polygon fill="green" stroke="green" points="1748.31,-953.173 1758.06,-949.014 1747.85,-946.189 1748.31,-953.173"/>
</g>
<!-- 42&#45;&gt;8 -->
<g id="edge46" class="edge"><title>42&#45;&gt;8</title>
<path fill="none" stroke="green" d="M1387.16,-1020.2C1358.35,-1012.78 1300.51,-995.6 1258,-968.247 1077.45,-852.065 1076.16,-769.803 914,-629.085 833.393,-559.137 815.719,-536.398 723,-483.546 690.276,-464.893 649.188,-449.735 623.763,-441.215"/>
<polygon fill="green" stroke="green" points="624.801,-437.872 614.209,-438.08 622.619,-444.523 624.801,-437.872"/>
</g>
<!-- 42&#45;&gt;7 -->
<g id="edge11" class="edge"><title>42&#45;&gt;7</title>
<path fill="none" stroke="red" d="M1422.43,-1018.93C1436.52,-1014.58 1456.91,-1008.55 1475,-1004.25 1575.44,-980.329 1696.87,-960.068 1748.19,-951.897"/>
<polygon fill="red" stroke="red" points="1748.99,-955.314 1758.32,-950.297 1747.9,-948.4 1748.99,-955.314"/>
</g>
<!-- 16 -->
<g id="node65" class="node"><title>16</title>
<ellipse fill="none" stroke="black" cx="1337" cy="-363.463" rx="18.2703" ry="18.2703"/>
<text text-anchor="middle" x="1337" y="-361.263" font-family="Times New Roman,serif" font-size="9.00">16</text>
</g>
<!-- 42&#45;&gt;16 -->
<g id="edge47" class="edge"><title>42&#45;&gt;16</title>
<path fill="none" stroke="green" d="M1396.8,-1008.87C1378.71,-973.003 1337,-881.416 1337,-799.666 1337,-799.666 1337,-799.666 1337,-500.931 1337,-463.282 1337,-419.791 1337,-392.217"/>
<polygon fill="green" stroke="green" points="1340.5,-392.128 1337,-382.128 1333.5,-392.129 1340.5,-392.128"/>
</g>
<!-- 115 -->
<g id="node50" class="node"><title>115</title>
<ellipse fill="none" stroke="black" cx="1288" cy="-947.034" rx="21.4286" ry="21.4286"/>
<text text-anchor="middle" x="1288" y="-944.834" font-family="Times New Roman,serif" font-size="9.00">115</text>
</g>
<!-- 34&#45;&gt;115 -->
<g id="edge77" class="edge"><title>34&#45;&gt;115</title>
<path fill="none" stroke="red" d="M1645.86,-1020.77C1586.02,-1008.61 1394.36,-969.653 1318.92,-954.319"/>
<polygon fill="red" stroke="red" points="1319.16,-950.797 1308.67,-952.234 1317.77,-957.656 1319.16,-950.797"/>
</g>
<!-- 34&#45;&gt;7 -->
<g id="edge31" class="edge"><title>34&#45;&gt;7</title>
<path fill="none" stroke="green" d="M1678.7,-1014.15C1697.82,-1000.75 1731.3,-977.269 1752.8,-962.198"/>
<polygon fill="green" stroke="green" points="1755.02,-964.915 1761.2,-956.308 1751,-959.183 1755.02,-964.915"/>
</g>
<!-- 34&#45;&gt;16 -->
<g id="edge196" class="edge"><title>34&#45;&gt;16</title>
<path fill="none" stroke="green" d="M1646.12,-1020.12C1621.39,-1013.21 1576.86,-997.443 1551,-968.247 1510.06,-922.025 1379.1,-501.595 1345.12,-391.011"/>
<polygon fill="green" stroke="green" points="1348.42,-389.833 1342.14,-381.3 1341.72,-391.887 1348.42,-389.833"/>
</g>
<!-- 110&#45;&gt;8 -->
<g id="edge93" class="edge"><title>110&#45;&gt;8</title>
<path fill="none" stroke="green" d="M798.228,-1090.74C794.01,-1087.93 789.422,-1085.06 785,-1082.67 748.531,-1063 733.227,-1070.03 699,-1046.67 658.907,-1019.32 643.41,-1012.28 623,-968.247 552.546,-816.232 594.232,-760.43 586,-593.085 583.608,-544.46 579.356,-531.775 586,-483.546 587.225,-474.655 589.624,-465.117 592.095,-456.788"/>
<polygon fill="green" stroke="green" points="595.504,-457.616 595.18,-447.026 588.829,-455.506 595.504,-457.616"/>
</g>
<!-- 39&#45;&gt;115 -->
<g id="edge175" class="edge"><title>39&#45;&gt;115</title>
<path fill="none" stroke="green" d="M557.347,-1023.07C631.083,-1017.42 912.965,-995.18 1144,-968.247 1183.08,-963.691 1227.95,-957.19 1257.08,-952.801"/>
<polygon fill="green" stroke="green" points="1257.69,-956.248 1267.05,-951.287 1256.64,-949.327 1257.69,-956.248"/>
</g>
<!-- 105 -->
<g id="node56" class="node"><title>105</title>
<ellipse fill="none" stroke="black" cx="884" cy="-650.299" rx="21.4286" ry="21.4286"/>
<text text-anchor="middle" x="884" y="-648.099" font-family="Times New Roman,serif" font-size="9.00">105</text>
</g>
<!-- 39&#45;&gt;105 -->
<g id="edge179" class="edge"><title>39&#45;&gt;105</title>
<path fill="none" stroke="red" d="M553.485,-1013.94C592.335,-985.277 700.91,-902.254 775,-817.051 814.043,-772.152 850.029,-712.368 869.305,-678.236"/>
<polygon fill="red" stroke="red" points="872.463,-679.759 874.287,-669.323 866.352,-676.344 872.463,-679.759"/>
</g>
<!-- 39&#45;&gt;8 -->
<g id="edge148" class="edge"><title>39&#45;&gt;8</title>
<path fill="none" stroke="green" d="M537.458,-1006.69C535.133,-978.326 531,-921.066 531,-872.436 531,-872.436 531,-872.436 531,-797.666 531,-657.853 489.679,-610.615 548,-483.546 554.734,-468.873 567.9,-456.323 579.298,-447.485"/>
<polygon fill="green" stroke="green" points="581.518,-450.198 587.534,-441.477 577.392,-444.543 581.518,-450.198"/>
</g>
<!-- 45&#45;&gt;19 -->
<g id="edge89" class="edge"><title>45&#45;&gt;19</title>
<path fill="none" stroke="red" d="M949.474,-928.592C949.704,-920.13 949.986,-909.758 950.244,-900.241"/>
<polygon fill="red" stroke="red" points="953.749,-900.099 950.522,-890.007 946.752,-899.908 953.749,-900.099"/>
</g>
<!-- 93 -->
<g id="node52" class="node"><title>93</title>
<ellipse fill="none" stroke="black" cx="1001" cy="-798.666" rx="18.2703" ry="18.2703"/>
<text text-anchor="middle" x="1001" y="-796.466" font-family="Times New Roman,serif" font-size="9.00">93</text>
</g>
<!-- 19&#45;&gt;93 -->
<g id="edge135" class="edge"><title>19&#45;&gt;93</title>
<path fill="none" stroke="red" d="M961.36,-855.772C968.131,-846.188 977.115,-833.473 984.817,-822.571"/>
<polygon fill="red" stroke="red" points="987.741,-824.498 990.653,-814.311 982.024,-820.458 987.741,-824.498"/>
</g>
<!-- 19&#45;&gt;21 -->
<g id="edge39" class="edge"><title>19&#45;&gt;21</title>
<path fill="none" stroke="red" d="M952.471,-852.835C954.514,-828.407 958.229,-783.961 960.656,-754.936"/>
<polygon fill="red" stroke="red" points="964.171,-754.898 961.517,-744.641 957.196,-754.315 964.171,-754.898"/>
</g>
<!-- 19&#45;&gt;17 -->
<g id="edge193" class="edge"><title>19&#45;&gt;17</title>
<path fill="none" stroke="red" d="M942.21,-855.026C920.783,-817.463 865.723,-720.937 839.838,-675.558"/>
<polygon fill="red" stroke="red" points="842.775,-673.643 834.78,-666.691 836.695,-677.111 842.775,-673.643"/>
</g>
<!-- 115&#45;&gt;31 -->
<g id="edge78" class="edge"><title>115&#45;&gt;31</title>
<path fill="none" stroke="green" d="M1278.08,-928.218C1272.85,-918.837 1266.36,-907.19 1260.67,-896.969"/>
<polygon fill="green" stroke="green" points="1263.64,-895.122 1255.72,-888.089 1257.53,-898.528 1263.64,-895.122"/>
</g>
<!-- 67 -->
<g id="node66" class="node"><title>67</title>
<ellipse fill="none" stroke="black" cx="1670" cy="-871.436" rx="18.2703" ry="18.2703"/>
<text text-anchor="middle" x="1670" y="-869.236" font-family="Times New Roman,serif" font-size="9.00">67</text>
</g>
<!-- 115&#45;&gt;67 -->
<g id="edge82" class="edge"><title>115&#45;&gt;67</title>
<path fill="none" stroke="red" d="M1308.01,-939.918C1322.6,-935.598 1342.91,-929.878 1361,-925.82 1463.59,-902.814 1587.25,-884.138 1641.8,-876.351"/>
<polygon fill="red" stroke="red" points="1642.35,-879.808 1651.77,-874.941 1641.37,-872.877 1642.35,-879.808"/>
</g>
<!-- 53&#45;&gt;27 -->
<g id="edge108" class="edge"><title>53&#45;&gt;27</title>
<path fill="none" stroke="red" d="M348.097,-1309.5C343.344,-1265.56 330.842,-1146.34 324,-1046.67 309.649,-837.636 303,-785.23 303,-575.701 303,-575.701 303,-575.701 303,-362.463 303,-232.427 802.509,-220.047 928.443,-218.993"/>
<polygon fill="red" stroke="red" points="928.504,-222.492 938.481,-218.927 928.458,-215.492 928.504,-222.492"/>
</g>
<!-- 93&#45;&gt;21 -->
<g id="edge136" class="edge"><title>93&#45;&gt;21</title>
<path fill="none" stroke="red" d="M992.567,-781.96C987.745,-772.981 981.593,-761.523 976.15,-751.387"/>
<polygon fill="red" stroke="red" points="979.224,-749.713 971.41,-742.559 973.057,-753.025 979.224,-749.713"/>
</g>
<!-- 93&#45;&gt;56 -->
<g id="edge178" class="edge"><title>93&#45;&gt;56</title>
<path fill="none" stroke="green" d="M1016.26,-787.686C1065.65,-754.043 1218,-639.229 1218,-502.931 1218,-502.931 1218,-502.931 1218,-216.924 1218,-158.089 1277.99,-110.442 1312.78,-87.7546"/>
<polygon fill="green" stroke="green" points="1314.86,-90.581 1321.44,-82.2802 1311.12,-84.6635 1314.86,-90.581"/>
</g>
<!-- 21&#45;&gt;17 -->
<g id="edge192" class="edge"><title>21&#45;&gt;17</title>
<path fill="none" stroke="green" d="M947.149,-716.04C942.029,-713.245 936.305,-710.19 931,-707.512 897.276,-690.487 886.57,-690.652 854,-671.512 852.255,-670.487 850.484,-669.38 848.724,-668.232"/>
<polygon fill="green" stroke="green" points="850.398,-665.135 840.183,-662.325 846.416,-670.892 850.398,-665.135"/>
</g>
<!-- 21&#45;&gt;105 -->
<g id="edge121" class="edge"><title>21&#45;&gt;105</title>
<path fill="none" stroke="green" d="M949.955,-712.743C938.196,-701.789 920.649,-685.441 906.609,-672.362"/>
<polygon fill="green" stroke="green" points="908.932,-669.742 899.229,-665.486 904.16,-674.864 908.932,-669.742"/>
</g>
<!-- 21&#45;&gt;56 -->
<g id="edge119" class="edge"><title>21&#45;&gt;56</title>
<path fill="none" stroke="green" d="M976.056,-712.246C1007.53,-680.324 1085,-592.636 1085,-502.931 1085,-502.931 1085,-502.931 1085,-216.924 1085,-115.097 1242.28,-84.5735 1308.33,-76.2445"/>
<polygon fill="green" stroke="green" points="1308.95,-79.696 1318.47,-75.0514 1308.13,-72.744 1308.95,-79.696"/>
</g>
<!-- 31&#45;&gt;26 -->
<g id="edge62" class="edge"><title>31&#45;&gt;26</title>
<path fill="none" stroke="red" d="M1243.64,-853.354C1233.47,-804.287 1199.78,-659.82 1137,-556.316 1092.52,-482.979 1016.43,-413.995 979.05,-382.443"/>
<polygon fill="red" stroke="red" points="981.181,-379.664 971.262,-375.941 976.695,-385.037 981.181,-379.664"/>
</g>
<!-- 17&#45;&gt;24 -->
<g id="edge190" class="edge"><title>17&#45;&gt;24</title>
<path fill="none" stroke="red" d="M840.241,-638.369C844.566,-635.228 849.394,-631.896 854,-629.085 880.19,-613.106 911.744,-597.522 933.381,-587.357"/>
<polygon fill="red" stroke="red" points="934.976,-590.475 942.569,-583.086 932.025,-584.127 934.976,-590.475"/>
</g>
<!-- 17&#45;&gt;8 -->
<g id="edge186" class="edge"><title>17&#45;&gt;8</title>
<path fill="none" stroke="red" d="M816.635,-634.425C796.502,-603.34 746.333,-530.491 690,-483.546 669.318,-466.311 641.791,-452.09 622.649,-443.309"/>
<polygon fill="red" stroke="red" points="624.043,-440.099 613.484,-439.226 621.194,-446.493 624.043,-440.099"/>
</g>
<!-- 105&#45;&gt;64 -->
<g id="edge122" class="edge"><title>105&#45;&gt;64</title>
<path fill="none" stroke="green" d="M904.39,-643.824C927.926,-636.395 965.959,-620.762 986,-593.085 999.024,-575.1 1002.9,-549.967 1003.74,-530.804"/>
<polygon fill="green" stroke="green" points="1007.24,-530.646 1003.92,-520.584 1000.24,-530.519 1007.24,-530.646"/>
</g>
<!-- 24&#45;&gt;64 -->
<g id="edge35" class="edge"><title>24&#45;&gt;64</title>
<path fill="none" stroke="green" d="M968.331,-558.692C974.106,-549.403 981.649,-537.273 988.223,-526.699"/>
<polygon fill="green" stroke="green" points="991.374,-528.258 993.682,-517.918 985.43,-524.562 991.374,-528.258"/>
</g>
<!-- 24&#45;&gt;8 -->
<g id="edge60" class="edge"><title>24&#45;&gt;8</title>
<path fill="none" stroke="red" d="M957.962,-556.102C955.736,-535.385 948.767,-501.529 927,-483.546 880.974,-445.521 693.998,-436.38 625.396,-434.288"/>
<polygon fill="red" stroke="red" points="625.177,-430.78 615.084,-434 624.982,-437.778 625.177,-430.78"/>
</g>
<!-- 64&#45;&gt;8 -->
<g id="edge36" class="edge"><title>64&#45;&gt;8</title>
<path fill="none" stroke="green" d="M987.424,-491.831C981.516,-488.749 974.616,-485.577 968,-483.546 843.251,-445.254 685.726,-436.351 625.234,-434.302"/>
<polygon fill="green" stroke="green" points="625.199,-430.799 615.097,-433.993 624.986,-437.796 625.199,-430.799"/>
</g>
<!-- 64&#45;&gt;58 -->
<g id="edge91" class="edge"><title>64&#45;&gt;58</title>
<path fill="none" stroke="green" d="M1003,-483.451C1003,-447.143 1003,-363.3 1003,-319.492"/>
<polygon fill="green" stroke="green" points="1006.5,-319.27 1003,-309.27 999.5,-319.27 1006.5,-319.27"/>
</g>
<!-- 8&#45;&gt;5 -->
<g id="edge4" class="edge"><title>8&#45;&gt;5</title>
<path fill="none" stroke="green" d="M585.378,-429.53C516.416,-418.907 227,-369.681 227,-291.693 227,-291.693 227,-291.693 227,-144.154 227,-9.96285 1337.17,-9.22174 1505.68,-9.88209"/>
<polygon fill="green" stroke="green" points="1506.14,-13.3841 1516.15,-9.93023 1506.17,-6.38422 1506.14,-13.3841"/>
</g>
<!-- 8&#45;&gt;26 -->
<g id="edge128" class="edge"><title>8&#45;&gt;26</title>
<path fill="none" stroke="red" d="M614.437,-428.978C668.163,-418.86 857.117,-383.274 928.977,-369.741"/>
<polygon fill="red" stroke="red" points="929.905,-373.127 939.084,-367.837 928.609,-366.248 929.905,-373.127"/>
</g>
<!-- 8&#45;&gt;16 -->
<g id="edge24" class="edge"><title>8&#45;&gt;16</title>
<path fill="none" stroke="red" d="M614.722,-430.354C705.213,-422.099 1186.2,-378.22 1308.63,-367.051"/>
<polygon fill="red" stroke="red" points="1309.07,-370.525 1318.72,-366.131 1308.44,-363.554 1309.07,-370.525"/>
</g>
<!-- 12 -->
<g id="node69" class="node"><title>12</title>
<ellipse fill="none" stroke="black" cx="911" cy="-290.693" rx="18.2703" ry="18.2703"/>
<text text-anchor="middle" x="911" y="-288.493" font-family="Times New Roman,serif" font-size="9.00">12</text>
</g>
<!-- 8&#45;&gt;12 -->
<g id="edge191" class="edge"><title>8&#45;&gt;12</title>
<path fill="none" stroke="red" d="M613.363,-425.681C660.818,-404.318 821.766,-331.864 885.096,-303.355"/>
<polygon fill="red" stroke="red" points="886.707,-306.468 894.389,-299.171 883.834,-300.085 886.707,-306.468"/>
</g>
<!-- 84 -->
<g id="node62" class="node"><title>84</title>
<ellipse fill="none" stroke="black" cx="1838" cy="-871.436" rx="18.2703" ry="18.2703"/>
<text text-anchor="middle" x="1838" y="-869.236" font-family="Times New Roman,serif" font-size="9.00">84</text>
</g>
<!-- 7&#45;&gt;84 -->
<g id="edge76" class="edge"><title>7&#45;&gt;84</title>
<path fill="none" stroke="red" d="M1782.59,-935.174C1792.27,-924.21 1807.48,-906.997 1819.51,-893.372"/>
<polygon fill="red" stroke="red" points="1822.17,-895.651 1826.16,-885.838 1816.92,-891.017 1822.17,-895.651"/>
</g>
<!-- 7&#45;&gt;48 -->
<g id="edge113" class="edge"><title>7&#45;&gt;48</title>
<path fill="none" stroke="red" d="M1776.88,-932.526C1783.77,-908.492 1798.29,-857.887 1807.29,-826.535"/>
<polygon fill="red" stroke="red" points="1810.72,-827.284 1810.11,-816.707 1803.99,-825.354 1810.72,-827.284"/>
</g>
<!-- 7&#45;&gt;67 -->
<g id="edge70" class="edge"><title>7&#45;&gt;67</title>
<path fill="none" stroke="red" d="M1761.18,-937.591C1744.56,-925.711 1713.93,-903.825 1692.79,-888.719"/>
<polygon fill="red" stroke="red" points="1694.82,-885.871 1684.65,-882.905 1690.75,-891.566 1694.82,-885.871"/>
</g>
<!-- 7&#45;&gt;14 -->
<g id="edge21" class="edge"><title>7&#45;&gt;14</title>
<path fill="none" stroke="green" d="M1764.95,-934.367C1751.93,-915.928 1724.85,-879.438 1697,-853.051 1681.9,-838.741 1662.87,-824.943 1648.03,-814.961"/>
<polygon fill="green" stroke="green" points="1649.68,-811.854 1639.4,-809.268 1645.82,-817.697 1649.68,-811.854"/>
</g>
<!-- 6&#45;&gt;5 -->
<g id="edge168" class="edge"><title>6&#45;&gt;5</title>
<path fill="none" stroke="red" d="M58.4063,-710.926C60.9375,-684.534 66,-625.523 66,-575.701 66,-575.701 66,-575.701 66,-144.154 66,-101.486 64.4062,-78.9775 99,-54 158.649,-10.9319 1334.69,-9.90132 1506.2,-9.98061"/>
<polygon fill="red" stroke="red" points="1506.41,-13.4806 1516.41,-9.98733 1506.41,-6.48065 1506.41,-13.4806"/>
</g>
<!-- 84&#45;&gt;48 -->
<g id="edge104" class="edge"><title>84&#45;&gt;48</title>
<path fill="none" stroke="green" d="M1832.55,-853.664C1829.86,-845.38 1826.55,-835.192 1823.53,-825.906"/>
<polygon fill="green" stroke="green" points="1826.83,-824.746 1820.41,-816.317 1820.17,-826.909 1826.83,-824.746"/>
</g>
<!-- 48&#45;&gt;5 -->
<g id="edge87" class="edge"><title>48&#45;&gt;5</title>
<path fill="none" stroke="green" d="M1809.22,-780.771C1800.5,-753.759 1785,-699.027 1785,-651.299 1785,-651.299 1785,-651.299 1785,-144.154 1785,-97.218 1768.25,-81.2039 1730,-54 1673.56,-13.8613 1587.56,-9.18303 1548.11,-9.35078"/>
<polygon fill="green" stroke="green" points="1547.81,-5.85507 1537.86,-9.51268 1547.92,-12.8542 1547.81,-5.85507"/>
</g>
<!-- 26&#45;&gt;58 -->
<g id="edge68" class="edge"><title>26&#45;&gt;58</title>
<path fill="none" stroke="red" d="M966.755,-347.455C972.854,-338.072 980.838,-325.79 987.759,-315.141"/>
<polygon fill="red" stroke="red" points="990.743,-316.972 993.259,-306.68 984.874,-313.157 990.743,-316.972"/>
</g>
<!-- 26&#45;&gt;27 -->
<g id="edge18" class="edge"><title>26&#45;&gt;27</title>
<path fill="none" stroke="red" d="M957,-344.862C957,-320.434 957,-275.989 957,-246.964"/>
<polygon fill="red" stroke="red" points="960.5,-246.669 957,-236.669 953.5,-246.669 960.5,-246.669"/>
</g>
<!-- 16&#45;&gt;5 -->
<g id="edge28" class="edge"><title>16&#45;&gt;5</title>
<path fill="none" stroke="red" d="M1354.87,-358.196C1402.17,-345.731 1527,-304.707 1527,-218.924 1527,-218.924 1527,-218.924 1527,-144.154 1527,-102.75 1527,-54.1569 1527,-28.3258"/>
<polygon fill="red" stroke="red" points="1530.5,-28.1667 1527,-18.1667 1523.5,-28.1668 1530.5,-28.1667"/>
</g>
<!-- 16&#45;&gt;12 -->
<g id="edge102" class="edge"><title>16&#45;&gt;12</title>
<path fill="none" stroke="red" d="M1318.84,-360.523C1265.74,-354.692 1106.28,-336.042 976,-309.078 963.564,-306.504 949.967,-302.981 938.439,-299.779"/>
<polygon fill="red" stroke="red" points="939.102,-296.329 928.526,-296.965 937.19,-303.063 939.102,-296.329"/>
</g>
<!-- 16&#45;&gt;56 -->
<g id="edge123" class="edge"><title>16&#45;&gt;56</title>
<path fill="none" stroke="green" d="M1337,-344.815C1337,-296.116 1337,-159.573 1337,-100.827"/>
<polygon fill="green" stroke="green" points="1340.5,-100.802 1337,-90.8018 1333.5,-100.802 1340.5,-100.802"/>
</g>
<!-- 67&#45;&gt;14 -->
<g id="edge71" class="edge"><title>67&#45;&gt;14</title>
<path fill="none" stroke="green" d="M1660.24,-855.427C1654.15,-846.045 1646.16,-833.762 1639.24,-823.114"/>
<polygon fill="green" stroke="green" points="1642.13,-821.13 1633.74,-814.653 1636.26,-824.945 1642.13,-821.13"/>
</g>
<!-- 58&#45;&gt;27 -->
<g id="edge69" class="edge"><title>58&#45;&gt;27</title>
<path fill="none" stroke="red" d="M993.245,-274.685C987.146,-265.302 979.162,-253.02 972.241,-242.372"/>
<polygon fill="red" stroke="red" points="975.126,-240.388 966.741,-233.911 969.257,-244.203 975.126,-240.388"/>
</g>
<!-- 14&#45;&gt;5 -->
<g id="edge22" class="edge"><title>14&#45;&gt;5</title>
<path fill="none" stroke="green" d="M1623.8,-780.093C1623.51,-752.614 1623,-697.802 1623,-651.299 1623,-651.299 1623,-651.299 1623,-144.154 1623,-91.6933 1573.85,-45.6224 1545.89,-23.6561"/>
<polygon fill="green" stroke="green" points="1547.72,-20.6548 1537.64,-17.3936 1543.49,-26.2292 1547.72,-20.6548"/>
</g>
<!-- 14&#45;&gt;56 -->
<g id="edge43" class="edge"><title>14&#45;&gt;56</title>
<path fill="none" stroke="green" d="M1616.48,-781.381C1604.89,-754.769 1584,-700.033 1584,-651.299 1584,-651.299 1584,-651.299 1584,-216.924 1584,-116.853 1430.57,-85.3601 1365.56,-76.5078"/>
<polygon fill="green" stroke="green" points="1365.93,-73.0267 1355.57,-75.232 1365.04,-79.9703 1365.93,-73.0267"/>
</g>
<!-- 12&#45;&gt;5 -->
<g id="edge101" class="edge"><title>12&#45;&gt;5</title>
<path fill="none" stroke="green" d="M914.078,-272.275C917.441,-254.016 923.26,-224.56 930,-199.539 938.858,-166.656 935.201,-155.166 954,-126.77 981.081,-85.8624 991.904,-73.316 1037,-54 1123.61,-16.9032 1424.87,-11.0677 1506.48,-10.1633"/>
<polygon fill="green" stroke="green" points="1506.52,-13.6631 1516.49,-10.0656 1506.45,-6.66339 1506.52,-13.6631"/>
</g>
<!-- 27&#45;&gt;5 -->
<g id="edge59" class="edge"><title>27&#45;&gt;5</title>
<path fill="none" stroke="green" d="M955.05,-199.447C953.83,-179.169 955.224,-146.058 974,-126.77 1050.47,-48.2167 1414.74,-17.8318 1506.15,-11.3739"/>
<polygon fill="green" stroke="green" points="1506.6,-14.8513 1516.34,-10.6747 1506.13,-7.8677 1506.6,-14.8513"/>
</g>
<!-- 72 -->
<g id="node71" class="node"><title>72</title>
<ellipse fill="none" stroke="black" cx="1001" cy="-145.154" rx="18.2703" ry="18.2703"/>
<text text-anchor="middle" x="1001" y="-142.954" font-family="Times New Roman,serif" font-size="9.00">72</text>
</g>
<!-- 27&#45;&gt;72 -->
<g id="edge132" class="edge"><title>27&#45;&gt;72</title>
<path fill="none" stroke="green" d="M966.331,-201.915C972.106,-192.627 979.649,-180.496 986.223,-169.922"/>
<polygon fill="green" stroke="green" points="989.374,-171.482 991.682,-161.141 983.43,-167.785 989.374,-171.482"/>
</g>
<!-- 27&#45;&gt;56 -->
<g id="edge37" class="edge"><title>27&#45;&gt;56</title>
<path fill="none" stroke="green" d="M971.617,-206.347C986.116,-195.76 1008.87,-178.883 1028,-163.539 1047.61,-147.804 1048.39,-137.769 1071,-126.77 1151.1,-87.802 1258.03,-77.2742 1308.43,-74.433"/>
<polygon fill="green" stroke="green" points="1308.76,-77.9206 1318.57,-73.9235 1308.41,-70.9294 1308.76,-77.9206"/>
</g>
<!-- 72&#45;&gt;56 -->
<g id="edge133" class="edge"><title>72&#45;&gt;56</title>
<path fill="none" stroke="green" d="M1016.16,-134.614C1021.34,-131.714 1027.27,-128.769 1033,-126.77 1130.71,-92.673 1254.01,-79.6391 1308.68,-75.2935"/>
<polygon fill="green" stroke="green" points="1308.96,-78.782 1318.67,-74.5365 1308.43,-71.802 1308.96,-78.782"/>
</g>
<!-- 56&#45;&gt;5 -->
<g id="edge38" class="edge"><title>56&#45;&gt;5</title>
<path fill="none" stroke="red" d="M1354.2,-65.829C1389.28,-54.4937 1468.97,-28.7473 1506.6,-16.5902"/>
<polygon fill="red" stroke="red" points="1507.99,-19.8191 1516.43,-13.4142 1505.84,-13.1581 1507.99,-19.8191"/>
</g>
</g>
</svg>
