<?xml version="1.0" encoding="UTF-8" standalone="no"?>
<!DOCTYPE svg PUBLIC "-//W3C//DTD SVG 1.1//EN"
 "http://www.w3.org/Graphics/SVG/1.1/DTD/svg11.dtd">
<!-- Generated by graphviz version 2.38.0 (20140413.2041)
 -->
<!-- Title: %3 Pages: 1 -->
<svg width="2353pt" height="1949pt"
 viewBox="0.00 0.00 2353.00 1948.74" xmlns="http://www.w3.org/2000/svg" xmlns:xlink="http://www.w3.org/1999/xlink">
<g id="graph0" class="graph" transform="scale(1 1) rotate(0) translate(4 1944.74)">
<title>%3</title>
<polygon fill="white" stroke="none" points="-4,4 -4,-1944.74 2349,-1944.74 2349,4 -4,4"/>
<!-- 1 -->
<g id="node1" class="node"><title>1</title>
<polygon fill="lightgray" stroke="black" points="764.5,-1420.94 743.5,-1420.94 743.5,-1402.94 764.5,-1402.94 764.5,-1420.94"/>
<text text-anchor="middle" x="754" y="-1409.74" font-family="Times New Roman,serif" font-size="9.00">1</text>
</g>
<!-- 5 -->
<g id="node5" class="node"><title>5</title>
<polygon fill="lightblue" stroke="black" points="820.5,-18 799.5,-18 799.5,-0 820.5,-0 820.5,-18"/>
<text text-anchor="middle" x="810" y="-6.8" font-family="Times New Roman,serif" font-size="9.00">5</text>
</g>
<!-- 1&#45;&gt;5 -->
<g id="edge8" class="edge"><title>1&#45;&gt;5</title>
<path fill="none" stroke="red" d="M743.265,-1407.16C723.228,-1399.69 679.582,-1381.42 651,-1354.72 620.794,-1326.5 621.526,-1312.18 601,-1276.3 491.434,-1084.76 462,-1020.33 462,-799.666 462,-799.666 462,-799.666 462,-144.154 462,-73.6351 713.935,-25.9977 789.086,-13.3565"/>
<polygon fill="red" stroke="red" points="789.906,-16.7685 799.203,-11.688 788.767,-9.86178 789.906,-16.7685"/>
</g>
<!-- 36 -->
<g id="node16" class="node"><title>36</title>
<ellipse fill="none" stroke="black" cx="1273" cy="-1333.51" rx="18.2703" ry="18.2703"/>
<text text-anchor="middle" x="1273" y="-1331.31" font-family="Times New Roman,serif" font-size="9.00">36</text>
</g>
<!-- 1&#45;&gt;36 -->
<g id="edge66" class="edge"><title>1&#45;&gt;36</title>
<path fill="none" stroke="green" d="M760.47,-1402.89C764.459,-1398.53 769.959,-1393.48 776,-1390.72 797.511,-1380.91 1142.2,-1347.1 1244.56,-1337.23"/>
<polygon fill="green" stroke="green" points="1245.14,-1340.69 1254.76,-1336.25 1244.47,-1333.73 1245.14,-1340.69"/>
</g>
<!-- 51 -->
<g id="node20" class="node"><title>51</title>
<ellipse fill="none" stroke="black" cx="876" cy="-1333.51" rx="18.2703" ry="18.2703"/>
<text text-anchor="middle" x="876" y="-1331.31" font-family="Times New Roman,serif" font-size="9.00">51</text>
</g>
<!-- 1&#45;&gt;51 -->
<g id="edge169" class="edge"><title>1&#45;&gt;51</title>
<path fill="none" stroke="green" d="M761.726,-1402.92C765.765,-1398.98 770.916,-1394.31 776,-1390.72 803.931,-1370.99 814.412,-1371.87 844,-1354.72 846.699,-1353.16 849.497,-1351.48 852.265,-1349.78"/>
<polygon fill="green" stroke="green" points="854.224,-1352.69 860.845,-1344.41 850.511,-1346.75 854.224,-1352.69"/>
</g>
<!-- 43 -->
<g id="node28" class="node"><title>43</title>
<ellipse fill="none" stroke="black" cx="369" cy="-1176.66" rx="18.2703" ry="18.2703"/>
<text text-anchor="middle" x="369" y="-1174.46" font-family="Times New Roman,serif" font-size="9.00">43</text>
</g>
<!-- 1&#45;&gt;43 -->
<g id="edge12" class="edge"><title>1&#45;&gt;43</title>
<path fill="none" stroke="red" d="M743.121,-1409.21C713.887,-1404.23 631.796,-1388.05 572,-1354.72 494.904,-1311.76 421.153,-1235.91 387.716,-1199.01"/>
<polygon fill="red" stroke="red" points="390.119,-1196.45 380.837,-1191.34 384.907,-1201.12 390.119,-1196.45"/>
</g>
<!-- 64 -->
<g id="node60" class="node"><title>64</title>
<ellipse fill="none" stroke="black" cx="1194" cy="-501.931" rx="18.2703" ry="18.2703"/>
<text text-anchor="middle" x="1194" y="-499.731" font-family="Times New Roman,serif" font-size="9.00">64</text>
</g>
<!-- 1&#45;&gt;64 -->
<g id="edge53" class="edge"><title>1&#45;&gt;64</title>
<path fill="none" stroke="green" d="M752.681,-1402.82C747.718,-1369.75 732.668,-1242.85 778,-1155.44 890.012,-939.48 1194,-1042.95 1194,-799.666 1194,-799.666 1194,-799.666 1194,-649.299 1194,-608.064 1194,-560.296 1194,-530.844"/>
<polygon fill="green" stroke="green" points="1197.5,-530.505 1194,-520.505 1190.5,-530.505 1197.5,-530.505"/>
</g>
<!-- 8 -->
<g id="node61" class="node"><title>8</title>
<ellipse fill="none" stroke="black" cx="728" cy="-432.697" rx="14.7" ry="14.7"/>
<text text-anchor="middle" x="728" y="-430.497" font-family="Times New Roman,serif" font-size="9.00">8</text>
</g>
<!-- 1&#45;&gt;8 -->
<g id="edge13" class="edge"><title>1&#45;&gt;8</title>
<path fill="none" stroke="green" d="M743.334,-1405.59C727.367,-1397.05 697.381,-1378.79 681,-1354.72 517.596,-1114.66 500,-1017.29 500,-726.897 500,-726.897 500,-726.897 500,-573.701 500,-479.028 644.519,-446.361 703.439,-436.976"/>
<polygon fill="green" stroke="green" points="704.02,-440.428 713.391,-435.485 702.982,-433.506 704.02,-440.428"/>
</g>
<!-- 7 -->
<g id="node62" class="node"><title>7</title>
<ellipse fill="none" stroke="black" cx="1403" cy="-947.034" rx="14.7" ry="14.7"/>
<text text-anchor="middle" x="1403" y="-944.834" font-family="Times New Roman,serif" font-size="9.00">7</text>
</g>
<!-- 1&#45;&gt;7 -->
<g id="edge6" class="edge"><title>1&#45;&gt;7</title>
<path fill="none" stroke="red" d="M759.279,-1402.71C772.094,-1383.47 806.908,-1335.42 849,-1312.3 919.357,-1273.64 956.354,-1316.22 1026,-1276.3 1047.96,-1263.71 1044.87,-1250.45 1064,-1233.87 1085.8,-1214.98 1094.8,-1215.01 1118,-1197.87 1162.31,-1165.12 1173.01,-1156.26 1214,-1119.44 1233.97,-1101.5 1237.24,-1095.19 1257,-1077.02 1275.09,-1060.37 1280.5,-1057.21 1299,-1041.02 1329.41,-1014.4 1364.36,-982.979 1385.01,-964.324"/>
<polygon fill="red" stroke="red" points="1387.36,-966.914 1392.44,-957.611 1382.67,-961.721 1387.36,-966.914"/>
</g>
<!-- 2 -->
<g id="node2" class="node"><title>2</title>
<polygon fill="lightgray" stroke="black" points="1034.5,-1940.74 1013.5,-1940.74 1013.5,-1922.74 1034.5,-1922.74 1034.5,-1940.74"/>
<text text-anchor="middle" x="1024" y="-1929.54" font-family="Times New Roman,serif" font-size="9.00">2</text>
</g>
<!-- 2&#45;&gt;5 -->
<g id="edge1" class="edge"><title>2&#45;&gt;5</title>
<path fill="none" stroke="green" d="M1013.39,-1930.69C916.112,-1930.22 180.718,-1925.42 92,-1886.74 39.5241,-1863.85 0,-1853.83 0,-1796.58 0,-1796.58 0,-1796.58 0,-144.154 0,-96.749 16.1628,-78.0747 57,-54 121.62,-15.9049 673.794,-10.7548 788.991,-10.0934"/>
<polygon fill="green" stroke="green" points="789.295,-13.592 799.277,-10.04 789.259,-6.59206 789.295,-13.592"/>
</g>
<!-- 62 -->
<g id="node6" class="node"><title>62</title>
<ellipse fill="none" stroke="black" cx="1024" cy="-1868.35" rx="18.2703" ry="18.2703"/>
<text text-anchor="middle" x="1024" y="-1866.15" font-family="Times New Roman,serif" font-size="9.00">62</text>
</g>
<!-- 2&#45;&gt;62 -->
<g id="edge79" class="edge"><title>2&#45;&gt;62</title>
<path fill="none" stroke="green" d="M1024,-1922.71C1024,-1916.15 1024,-1906.46 1024,-1897.13"/>
<polygon fill="green" stroke="green" points="1027.5,-1896.94 1024,-1886.94 1020.5,-1896.94 1027.5,-1896.94"/>
</g>
<!-- 32 -->
<g id="node7" class="node"><title>32</title>
<ellipse fill="none" stroke="black" cx="1304" cy="-1795.58" rx="18.2703" ry="18.2703"/>
<text text-anchor="middle" x="1304" y="-1793.38" font-family="Times New Roman,serif" font-size="9.00">32</text>
</g>
<!-- 2&#45;&gt;32 -->
<g id="edge111" class="edge"><title>2&#45;&gt;32</title>
<path fill="none" stroke="red" d="M1034.63,-1925.64C1075.04,-1906.28 1219.72,-1836.96 1278.7,-1808.7"/>
<polygon fill="red" stroke="red" points="1280.21,-1811.86 1287.72,-1804.38 1277.19,-1805.55 1280.21,-1811.86"/>
</g>
<!-- 2&#45;&gt;36 -->
<g id="edge65" class="edge"><title>2&#45;&gt;36</title>
<path fill="none" stroke="red" d="M1034.78,-1929.58C1098.87,-1922.45 1427,-1881.75 1427,-1796.58 1427,-1796.58 1427,-1796.58 1427,-1486.53 1427,-1403.94 1360.11,-1406.8 1296,-1354.72 1295.41,-1354.24 1294.82,-1353.76 1294.22,-1353.26"/>
<polygon fill="red" stroke="red" points="1296.35,-1350.48 1286.47,-1346.66 1291.81,-1355.81 1296.35,-1350.48"/>
</g>
<!-- 85 -->
<g id="node23" class="node"><title>85</title>
<ellipse fill="none" stroke="black" cx="2277" cy="-1795.58" rx="18.2703" ry="18.2703"/>
<text text-anchor="middle" x="2277" y="-1793.38" font-family="Times New Roman,serif" font-size="9.00">85</text>
</g>
<!-- 2&#45;&gt;85 -->
<g id="edge148" class="edge"><title>2&#45;&gt;85</title>
<path fill="none" stroke="green" d="M1034.81,-1930.69C1152.55,-1930.18 2193.37,-1924.61 2245,-1886.74 2264.5,-1872.43 2272.17,-1845.23 2275.16,-1824.43"/>
<polygon fill="green" stroke="green" points="2278.67,-1824.58 2276.33,-1814.24 2271.71,-1823.78 2278.67,-1824.58"/>
</g>
<!-- 15 -->
<g id="node27" class="node"><title>15</title>
<ellipse fill="none" stroke="black" cx="999" cy="-1255.08" rx="18.2703" ry="18.2703"/>
<text text-anchor="middle" x="999" y="-1252.88" font-family="Times New Roman,serif" font-size="9.00">15</text>
</g>
<!-- 2&#45;&gt;15 -->
<g id="edge9" class="edge"><title>2&#45;&gt;15</title>
<path fill="none" stroke="green" d="M1013.27,-1930.94C927.606,-1932.32 358,-1936.2 358,-1796.58 358,-1796.58 358,-1796.58 358,-1410.94 358,-1283.13 845.536,-1260.47 970.232,-1256.76"/>
<polygon fill="green" stroke="green" points="970.609,-1260.25 980.507,-1256.48 970.414,-1253.26 970.609,-1260.25"/>
</g>
<!-- 10 -->
<g id="node32" class="node"><title>10</title>
<ellipse fill="none" stroke="black" cx="1091" cy="-1255.08" rx="18.2703" ry="18.2703"/>
<text text-anchor="middle" x="1091" y="-1252.88" font-family="Times New Roman,serif" font-size="9.00">10</text>
</g>
<!-- 2&#45;&gt;10 -->
<g id="edge152" class="edge"><title>2&#45;&gt;10</title>
<path fill="none" stroke="red" d="M1013.43,-1928C976.43,-1917.74 855,-1877.87 855,-1796.58 855,-1796.58 855,-1796.58 855,-1486.53 855,-1443.35 908.059,-1340.21 941,-1312.3 983.154,-1276.57 1009.91,-1299.62 1060,-1276.3 1062.68,-1275.05 1065.39,-1273.6 1068.04,-1272.06"/>
<polygon fill="red" stroke="red" points="1070.07,-1274.92 1076.67,-1266.64 1066.34,-1268.99 1070.07,-1274.92"/>
</g>
<!-- 171 -->
<g id="node43" class="node"><title>171</title>
<ellipse fill="none" stroke="black" cx="1956" cy="-1098.23" rx="21.4286" ry="21.4286"/>
<text text-anchor="middle" x="1956" y="-1096.03" font-family="Times New Roman,serif" font-size="9.00">171</text>
</g>
<!-- 2&#45;&gt;171 -->
<g id="edge171" class="edge"><title>2&#45;&gt;171</title>
<path fill="none" stroke="green" d="M1034.85,-1930.7C1150.81,-1930.27 2158.57,-1925.41 2207,-1886.74 2239.4,-1860.86 2231,-1838.05 2231,-1796.58 2231,-1796.58 2231,-1796.58 2231,-1486.53 2231,-1320.09 2192.33,-1250.93 2056,-1155.44 2026.04,-1134.46 2013.05,-1138.77 1982,-1119.44 1981.36,-1119.05 1980.72,-1118.64 1980.08,-1118.22"/>
<polygon fill="green" stroke="green" points="1982.03,-1115.31 1971.85,-1112.39 1977.99,-1121.02 1982.03,-1115.31"/>
</g>
<!-- 13 -->
<g id="node45" class="node"><title>13</title>
<ellipse fill="none" stroke="black" cx="661" cy="-1022.63" rx="18.2703" ry="18.2703"/>
<text text-anchor="middle" x="661" y="-1020.43" font-family="Times New Roman,serif" font-size="9.00">13</text>
</g>
<!-- 2&#45;&gt;13 -->
<g id="edge19" class="edge"><title>2&#45;&gt;13</title>
<path fill="none" stroke="green" d="M1013.08,-1930.42C939.571,-1928.19 515.83,-1914.31 390,-1886.74 279.509,-1862.53 152,-1909.69 152,-1796.58 152,-1796.58 152,-1796.58 152,-1332.51 152,-1211.36 152.156,-1152.39 247,-1077.02 306.788,-1029.5 548.741,-1024.04 632.386,-1023.59"/>
<polygon fill="green" stroke="green" points="632.456,-1027.09 642.444,-1023.56 632.433,-1020.09 632.456,-1027.09"/>
</g>
<!-- 34 -->
<g id="node47" class="node"><title>34</title>
<ellipse fill="none" stroke="black" cx="1801" cy="-1022.63" rx="18.2703" ry="18.2703"/>
<text text-anchor="middle" x="1801" y="-1020.43" font-family="Times New Roman,serif" font-size="9.00">34</text>
</g>
<!-- 2&#45;&gt;34 -->
<g id="edge159" class="edge"><title>2&#45;&gt;34</title>
<path fill="none" stroke="green" d="M1034.83,-1930.68C1152.68,-1929.94 2193,-1919.92 2193,-1796.58 2193,-1796.58 2193,-1796.58 2193,-1486.53 2193,-1253.06 2036.53,-1234.31 1864,-1077.02 1850.66,-1064.85 1835.2,-1051.74 1822.93,-1041.55"/>
<polygon fill="green" stroke="green" points="1824.95,-1038.68 1815.01,-1035.01 1820.5,-1044.08 1824.95,-1038.68"/>
</g>
<!-- 17 -->
<g id="node57" class="node"><title>17</title>
<ellipse fill="none" stroke="black" cx="804" cy="-650.299" rx="18.2703" ry="18.2703"/>
<text text-anchor="middle" x="804" y="-648.099" font-family="Times New Roman,serif" font-size="9.00">17</text>
</g>
<!-- 2&#45;&gt;17 -->
<g id="edge187" class="edge"><title>2&#45;&gt;17</title>
<path fill="none" stroke="green" d="M1013.35,-1930.66C920.265,-1929.89 246.158,-1923.13 165,-1886.74 113.624,-1863.7 76,-1852.89 76,-1796.58 76,-1796.58 76,-1796.58 76,-1254.08 76,-883.03 644.006,-697.174 776.573,-658.85"/>
<polygon fill="green" stroke="green" points="777.707,-662.166 786.365,-656.06 775.789,-655.434 777.707,-662.166"/>
</g>
<!-- 2&#45;&gt;8 -->
<g id="edge23" class="edge"><title>2&#45;&gt;8</title>
<path fill="none" stroke="green" d="M1013.26,-1930.82C919.387,-1931.51 239.824,-1934.82 165,-1886.74 62.0927,-1820.6 38,-1764.88 38,-1642.56 38,-1642.56 38,-1642.56 38,-1254.08 38,-1045.86 152,-1007.89 152,-799.666 152,-799.666 152,-799.666 152,-724.897 152,-577.029 249.649,-551.456 381,-483.546 437.45,-454.361 632.705,-439.62 702.746,-435.178"/>
<polygon fill="green" stroke="green" points="703.107,-438.663 712.872,-434.553 702.675,-431.676 703.107,-438.663"/>
</g>
<!-- 58 -->
<g id="node69" class="node"><title>58</title>
<ellipse fill="none" stroke="black" cx="1726" cy="-290.693" rx="18.2703" ry="18.2703"/>
<text text-anchor="middle" x="1726" y="-288.493" font-family="Times New Roman,serif" font-size="9.00">58</text>
</g>
<!-- 2&#45;&gt;58 -->
<g id="edge73" class="edge"><title>2&#45;&gt;58</title>
<path fill="none" stroke="red" d="M1034.62,-1930.61C1152.43,-1929.21 2212.32,-1915.76 2271,-1886.74 2317.46,-1863.75 2345,-1848.42 2345,-1796.58 2345,-1796.58 2345,-1796.58 2345,-1486.53 2345,-1364.41 2303.24,-1336.47 2237,-1233.87 2211.33,-1194.12 2197.34,-1189.99 2165,-1155.44 2077.9,-1062.41 1967,-1075.48 1967,-948.034 1967,-948.034 1967,-948.034 1967,-649.299 1967,-493.739 1808.24,-355.119 1748.43,-308.418"/>
<polygon fill="red" stroke="red" points="1750.41,-305.529 1740.35,-302.204 1746.14,-311.076 1750.41,-305.529"/>
</g>
<!-- 3 -->
<g id="node3" class="node"><title>3</title>
<polygon fill="lightgray" stroke="black" points="1152.5,-1496.53 1131.5,-1496.53 1131.5,-1478.53 1152.5,-1478.53 1152.5,-1496.53"/>
<text text-anchor="middle" x="1142" y="-1485.33" font-family="Times New Roman,serif" font-size="9.00">3</text>
</g>
<!-- 3&#45;&gt;5 -->
<g id="edge5" class="edge"><title>3&#45;&gt;5</title>
<path fill="none" stroke="green" d="M1131.39,-1486.09C1085.5,-1483.51 903.96,-1466.31 849,-1354.72 780.776,-1216.21 1010,-808.392 1010,-726.897 1010,-726.897 1010,-726.897 1010,-649.299 1010,-391.061 859.522,-99.8139 819.616,-27.1182"/>
<polygon fill="green" stroke="green" points="822.657,-25.3848 814.747,-18.3371 816.536,-28.7798 822.657,-25.3848"/>
</g>
<!-- 137 -->
<g id="node8" class="node"><title>137</title>
<ellipse fill="none" stroke="black" cx="981" cy="-1411.94" rx="21.4286" ry="21.4286"/>
<text text-anchor="middle" x="981" y="-1409.74" font-family="Times New Roman,serif" font-size="9.00">137</text>
</g>
<!-- 3&#45;&gt;137 -->
<g id="edge93" class="edge"><title>3&#45;&gt;137</title>
<path fill="none" stroke="green" d="M1131.25,-1482.9C1108.6,-1475.07 1054.55,-1455.5 1012,-1433.15 1010.25,-1432.23 1008.47,-1431.24 1006.7,-1430.21"/>
<polygon fill="green" stroke="green" points="1008.38,-1427.13 998.032,-1424.86 1004.7,-1433.09 1008.38,-1427.13"/>
</g>
<!-- 29 -->
<g id="node14" class="node"><title>29</title>
<ellipse fill="none" stroke="black" cx="510" cy="-1411.94" rx="18.2703" ry="18.2703"/>
<text text-anchor="middle" x="510" y="-1409.74" font-family="Times New Roman,serif" font-size="9.00">29</text>
</g>
<!-- 3&#45;&gt;29 -->
<g id="edge89" class="edge"><title>3&#45;&gt;29</title>
<path fill="none" stroke="green" d="M1131.3,-1485.29C1059.79,-1476.96 650.858,-1429.34 538.539,-1416.26"/>
<polygon fill="green" stroke="green" points="538.666,-1412.75 528.328,-1415.07 537.856,-1419.7 538.666,-1412.75"/>
</g>
<!-- 92 -->
<g id="node15" class="node"><title>92</title>
<ellipse fill="none" stroke="black" cx="1039" cy="-1411.94" rx="18.2703" ry="18.2703"/>
<text text-anchor="middle" x="1039" y="-1409.74" font-family="Times New Roman,serif" font-size="9.00">92</text>
</g>
<!-- 3&#45;&gt;92 -->
<g id="edge51" class="edge"><title>3&#45;&gt;92</title>
<path fill="none" stroke="red" d="M1131.37,-1478.93C1115.1,-1467.31 1083.67,-1444.85 1062.02,-1429.38"/>
<polygon fill="red" stroke="red" points="1063.87,-1426.4 1053.7,-1423.44 1059.8,-1432.1 1063.87,-1426.4"/>
</g>
<!-- 3&#45;&gt;15 -->
<g id="edge109" class="edge"><title>3&#45;&gt;15</title>
<path fill="none" stroke="green" d="M1140.44,-1478.48C1135.03,-1452.25 1115.09,-1367.76 1073,-1312.3 1059.71,-1294.78 1039.6,-1279.99 1023.7,-1269.98"/>
<polygon fill="green" stroke="green" points="1025.28,-1266.84 1014.91,-1264.65 1021.65,-1272.83 1025.28,-1266.84"/>
</g>
<!-- 18 -->
<g id="node30" class="node"><title>18</title>
<ellipse fill="none" stroke="black" cx="1598" cy="-1176.66" rx="18.2703" ry="18.2703"/>
<text text-anchor="middle" x="1598" y="-1174.46" font-family="Times New Roman,serif" font-size="9.00">18</text>
</g>
<!-- 3&#45;&gt;18 -->
<g id="edge26" class="edge"><title>3&#45;&gt;18</title>
<path fill="none" stroke="red" d="M1152.68,-1483.58C1177.4,-1476.54 1240.19,-1457.55 1289,-1433.15 1345.99,-1404.66 1358.9,-1394.08 1409,-1354.72 1426.72,-1340.8 1532.58,-1240.11 1577.68,-1197.07"/>
<polygon fill="red" stroke="red" points="1580.29,-1199.41 1585.11,-1189.98 1575.46,-1194.35 1580.29,-1199.41"/>
</g>
<!-- 3&#45;&gt;10 -->
<g id="edge162" class="edge"><title>3&#45;&gt;10</title>
<path fill="none" stroke="green" d="M1142.66,-1478.26C1144.41,-1452.73 1147.72,-1373.24 1127,-1312.3 1122.85,-1300.08 1115.49,-1287.85 1108.51,-1277.93"/>
<polygon fill="green" stroke="green" points="1111.31,-1275.84 1102.56,-1269.87 1105.68,-1280 1111.31,-1275.84"/>
</g>
<!-- 111 -->
<g id="node35" class="node"><title>111</title>
<ellipse fill="none" stroke="black" cx="1287" cy="-1098.23" rx="21.4286" ry="21.4286"/>
<text text-anchor="middle" x="1287" y="-1096.03" font-family="Times New Roman,serif" font-size="9.00">111</text>
</g>
<!-- 3&#45;&gt;111 -->
<g id="edge182" class="edge"><title>3&#45;&gt;111</title>
<path fill="none" stroke="green" d="M1147.7,-1478.52C1154.77,-1468.33 1166.88,-1450.04 1175,-1433.15 1226.63,-1325.8 1264.54,-1188.47 1279.71,-1128.95"/>
<polygon fill="green" stroke="green" points="1283.14,-1129.64 1282.2,-1119.09 1276.36,-1127.93 1283.14,-1129.64"/>
</g>
<!-- 3&#45;&gt;34 -->
<g id="edge140" class="edge"><title>3&#45;&gt;34</title>
<path fill="none" stroke="red" d="M1152.8,-1485.07C1183.43,-1480.62 1273,-1465.53 1340,-1433.15 1392.77,-1407.65 1401.26,-1392.57 1446,-1354.72 1466.74,-1337.18 1467.58,-1327.63 1490,-1312.3 1590.2,-1243.78 1655.9,-1287.29 1738,-1197.87 1776.51,-1155.92 1791.89,-1088.67 1797.71,-1051.17"/>
<polygon fill="red" stroke="red" points="1801.21,-1051.38 1799.16,-1040.99 1794.28,-1050.39 1801.21,-1051.38"/>
</g>
<!-- 3&#45;&gt;8 -->
<g id="edge3" class="edge"><title>3&#45;&gt;8</title>
<path fill="none" stroke="red" d="M1143.02,-1478.23C1144.25,-1467.74 1146.25,-1449.14 1147,-1433.15 1151.18,-1343.74 1162.27,-1311.66 1118,-1233.87 1073.63,-1155.91 1051,-1143.69 991,-1077.02 912.337,-989.601 871.433,-986.164 804,-889.82 758.183,-824.36 728,-806.798 728,-726.897 728,-726.897 728,-726.897 728,-573.701 728,-532.931 728,-485.483 728,-457.61"/>
<polygon fill="red" stroke="red" points="731.5,-457.607 728,-447.607 724.5,-457.607 731.5,-457.607"/>
</g>
<!-- 3&#45;&gt;7 -->
<g id="edge17" class="edge"><title>3&#45;&gt;7</title>
<path fill="none" stroke="green" d="M1152.66,-1482.88C1173.09,-1475.57 1218.57,-1457.69 1251,-1433.15 1271.18,-1417.87 1268.5,-1405.57 1289,-1390.72 1321.23,-1367.37 1348.6,-1387.62 1371,-1354.72 1458.7,-1225.88 1354.12,-1157.41 1383,-1004.25 1385.16,-992.795 1389.28,-980.553 1393.23,-970.426"/>
<polygon fill="green" stroke="green" points="1396.49,-971.693 1397.03,-961.112 1390.01,-969.045 1396.49,-971.693"/>
</g>
<!-- 14 -->
<g id="node70" class="node"><title>14</title>
<ellipse fill="none" stroke="black" cx="1463" cy="-798.666" rx="18.2703" ry="18.2703"/>
<text text-anchor="middle" x="1463" y="-796.466" font-family="Times New Roman,serif" font-size="9.00">14</text>
</g>
<!-- 3&#45;&gt;14 -->
<g id="edge64" class="edge"><title>3&#45;&gt;14</title>
<path fill="none" stroke="red" d="M1150.81,-1478.31C1169.07,-1461.39 1212.52,-1421.67 1251,-1390.72 1272.06,-1373.79 1284.62,-1376.94 1300,-1354.72 1365.13,-1260.61 1363.19,-882.084 1381,-853.051 1382.81,-850.098 1415.62,-829.225 1439.18,-814.473"/>
<polygon fill="red" stroke="red" points="1441.05,-817.435 1447.67,-809.169 1437.34,-811.497 1441.05,-817.435"/>
</g>
<!-- 4 -->
<g id="node4" class="node"><title>4</title>
<polygon fill="lightgray" stroke="black" points="1915.5,-1496.53 1894.5,-1496.53 1894.5,-1478.53 1915.5,-1478.53 1915.5,-1496.53"/>
<text text-anchor="middle" x="1905" y="-1485.33" font-family="Times New Roman,serif" font-size="9.00">4</text>
</g>
<!-- 4&#45;&gt;5 -->
<g id="edge2" class="edge"><title>4&#45;&gt;5</title>
<path fill="none" stroke="green" d="M1915.67,-1486.29C1945.75,-1485.06 2032.31,-1477.61 2083,-1433.15 2205.32,-1325.87 2233,-1261.92 2233,-1099.23 2233,-1099.23 2233,-1099.23 2233,-144.154 2233,-3.65307 2068.61,-76.9711 1930,-54 1706.85,-17.0191 965.378,-10.9185 830.984,-10.1095"/>
<polygon fill="green" stroke="green" points="830.827,-6.60869 820.807,-10.0517 830.787,-13.6086 830.827,-6.60869"/>
</g>
<!-- 101 -->
<g id="node9" class="node"><title>101</title>
<ellipse fill="none" stroke="black" cx="1628" cy="-1411.94" rx="21.4286" ry="21.4286"/>
<text text-anchor="middle" x="1628" y="-1409.74" font-family="Times New Roman,serif" font-size="9.00">101</text>
</g>
<!-- 4&#45;&gt;101 -->
<g id="edge178" class="edge"><title>4&#45;&gt;101</title>
<path fill="none" stroke="red" d="M1894.37,-1483.81C1864.1,-1476.04 1774.88,-1453.04 1701,-1433.15 1686.97,-1429.37 1671.46,-1425.09 1658.35,-1421.44"/>
<polygon fill="red" stroke="red" points="1659,-1417.99 1648.43,-1418.68 1657.12,-1424.73 1659,-1417.99"/>
</g>
<!-- 37 -->
<g id="node17" class="node"><title>37</title>
<ellipse fill="none" stroke="black" cx="1783" cy="-1333.51" rx="18.2703" ry="18.2703"/>
<text text-anchor="middle" x="1783" y="-1331.31" font-family="Times New Roman,serif" font-size="9.00">37</text>
</g>
<!-- 4&#45;&gt;37 -->
<g id="edge82" class="edge"><title>4&#45;&gt;37</title>
<path fill="none" stroke="red" d="M1894.44,-1483.09C1875.69,-1476.45 1836.56,-1460.11 1815,-1433.15 1798.55,-1412.58 1790.45,-1383.31 1786.53,-1362"/>
<polygon fill="red" stroke="red" points="1789.96,-1361.26 1784.88,-1351.96 1783.05,-1362.39 1789.96,-1361.26"/>
</g>
<!-- 122 -->
<g id="node24" class="node"><title>122</title>
<ellipse fill="none" stroke="black" cx="2030" cy="-1411.94" rx="21.4286" ry="21.4286"/>
<text text-anchor="middle" x="2030" y="-1409.74" font-family="Times New Roman,serif" font-size="9.00">122</text>
</g>
<!-- 4&#45;&gt;122 -->
<g id="edge142" class="edge"><title>4&#45;&gt;122</title>
<path fill="none" stroke="red" d="M1915.66,-1480.26C1934.86,-1468.95 1975.8,-1444.84 2003.12,-1428.76"/>
<polygon fill="red" stroke="red" points="2004.97,-1431.73 2011.81,-1423.64 2001.42,-1425.7 2004.97,-1431.73"/>
</g>
<!-- 4&#45;&gt;15 -->
<g id="edge10" class="edge"><title>4&#45;&gt;15</title>
<path fill="none" stroke="green" d="M1894.5,-1481.75C1874.23,-1472.5 1828.33,-1451.46 1790,-1433.15 1680.08,-1380.64 1661.54,-1344.29 1544,-1312.3 1337.58,-1256.11 1274.16,-1316.32 1064,-1276.3 1051.07,-1273.83 1037.09,-1269.69 1025.42,-1265.79"/>
<polygon fill="green" stroke="green" points="1026.43,-1262.44 1015.84,-1262.48 1024.14,-1269.05 1026.43,-1262.44"/>
</g>
<!-- 23 -->
<g id="node29" class="node"><title>23</title>
<ellipse fill="none" stroke="black" cx="1841" cy="-1255.08" rx="18.2703" ry="18.2703"/>
<text text-anchor="middle" x="1841" y="-1252.88" font-family="Times New Roman,serif" font-size="9.00">23</text>
</g>
<!-- 4&#45;&gt;23 -->
<g id="edge110" class="edge"><title>4&#45;&gt;23</title>
<path fill="none" stroke="red" d="M1902.72,-1478.33C1894.06,-1447.13 1862.9,-1334.95 1848.45,-1282.92"/>
<polygon fill="red" stroke="red" points="1851.77,-1281.77 1845.72,-1273.07 1845.02,-1283.65 1851.77,-1281.77"/>
</g>
<!-- 4&#45;&gt;18 -->
<g id="edge25" class="edge"><title>4&#45;&gt;18</title>
<path fill="none" stroke="red" d="M1900.28,-1478.24C1894.32,-1467.76 1883.81,-1449.17 1875,-1433.15 1845.62,-1379.71 1851.54,-1356.95 1810,-1312.3 1754.49,-1252.61 1667,-1208.3 1623.84,-1188.73"/>
<polygon fill="red" stroke="red" points="1625.16,-1185.49 1614.6,-1184.62 1622.31,-1191.88 1625.16,-1185.49"/>
</g>
<!-- 4&#45;&gt;10 -->
<g id="edge164" class="edge"><title>4&#45;&gt;10</title>
<path fill="none" stroke="red" d="M1894.48,-1485.53C1854.94,-1481.57 1711.64,-1465.67 1598,-1433.15 1460.59,-1393.83 1435.48,-1357.8 1300,-1312.3 1236.08,-1290.83 1159.07,-1271.83 1118.73,-1262.39"/>
<polygon fill="red" stroke="red" points="1119.37,-1258.95 1108.83,-1260.1 1117.78,-1265.77 1119.37,-1258.95"/>
</g>
<!-- 19 -->
<g id="node51" class="node"><title>19</title>
<ellipse fill="none" stroke="black" cx="858" cy="-871.436" rx="18.2703" ry="18.2703"/>
<text text-anchor="middle" x="858" y="-869.236" font-family="Times New Roman,serif" font-size="9.00">19</text>
</g>
<!-- 4&#45;&gt;19 -->
<g id="edge41" class="edge"><title>4&#45;&gt;19</title>
<path fill="none" stroke="red" d="M1908.66,-1478.42C1913.09,-1468.14 1920.28,-1449.75 1923,-1433.15 1931.71,-1380.06 1926.32,-1365.1 1916,-1312.3 1890.85,-1183.61 1847.67,-1148.89 1738,-1077.02 1700.58,-1052.49 1685.53,-1057.65 1644,-1041.02 1624.55,-1033.23 1487.44,-979.861 1470,-968.247 1447.65,-953.368 1451.33,-937.161 1427,-925.82 1329.38,-880.327 988.149,-873.601 886.674,-872.608"/>
<polygon fill="red" stroke="red" points="886.589,-869.107 876.559,-872.52 886.529,-876.107 886.589,-869.107"/>
</g>
<!-- 53 -->
<g id="node53" class="node"><title>53</title>
<ellipse fill="none" stroke="black" cx="2077" cy="-1333.51" rx="18.2703" ry="18.2703"/>
<text text-anchor="middle" x="2077" y="-1331.31" font-family="Times New Roman,serif" font-size="9.00">53</text>
</g>
<!-- 4&#45;&gt;53 -->
<g id="edge106" class="edge"><title>4&#45;&gt;53</title>
<path fill="none" stroke="red" d="M1915.67,-1486.35C1944.04,-1485.23 2021.83,-1478.02 2060,-1433.15 2076.57,-1413.67 2079.71,-1384 2079.38,-1362.28"/>
<polygon fill="red" stroke="red" points="2082.87,-1361.9 2078.97,-1352.05 2075.87,-1362.18 2082.87,-1361.9"/>
</g>
<!-- 4&#45;&gt;7 -->
<g id="edge7" class="edge"><title>4&#45;&gt;7</title>
<path fill="none" stroke="green" d="M1905.95,-1478.36C1909.38,-1445.13 1918.49,-1317.83 1868,-1233.87 1854.07,-1210.71 1839.51,-1215.47 1819,-1197.87 1761.32,-1148.37 1763.48,-1115.61 1698,-1077.02 1648.19,-1047.66 1626.56,-1062.77 1573,-1041.02 1516.79,-1018.18 1455.41,-981.376 1424.04,-961.614"/>
<polygon fill="green" stroke="green" points="1425.62,-958.473 1415.31,-956.063 1421.87,-964.381 1425.62,-958.473"/>
</g>
<!-- 6 -->
<g id="node63" class="node"><title>6</title>
<ellipse fill="none" stroke="black" cx="2294" cy="-725.897" rx="14.7" ry="14.7"/>
<text text-anchor="middle" x="2294" y="-723.697" font-family="Times New Roman,serif" font-size="9.00">6</text>
</g>
<!-- 4&#45;&gt;6 -->
<g id="edge165" class="edge"><title>4&#45;&gt;6</title>
<path fill="none" stroke="green" d="M1915.91,-1485.75C1980.8,-1480.42 2313,-1444 2313,-1256.08 2313,-1256.08 2313,-1256.08 2313,-870.436 2313,-828.05 2304.76,-779.228 2299.13,-750.836"/>
<polygon fill="green" stroke="green" points="2302.48,-749.769 2297.05,-740.673 2295.63,-751.171 2302.48,-749.769"/>
</g>
<!-- 27 -->
<g id="node72" class="node"><title>27</title>
<ellipse fill="none" stroke="black" cx="1749" cy="-217.924" rx="18.2703" ry="18.2703"/>
<text text-anchor="middle" x="1749" y="-215.724" font-family="Times New Roman,serif" font-size="9.00">27</text>
</g>
<!-- 4&#45;&gt;27 -->
<g id="edge20" class="edge"><title>4&#45;&gt;27</title>
<path fill="none" stroke="red" d="M1911.9,-1478.46C1920,-1468.5 1933.21,-1450.72 1940,-1433.15 2006.45,-1261.26 2005,-1207.92 2005,-1023.63 2005,-1023.63 2005,-1023.63 2005,-362.463 2005,-259.172 1844.48,-229.46 1777.66,-221.566"/>
<polygon fill="red" stroke="red" points="1777.73,-218.054 1767.41,-220.442 1776.97,-225.012 1777.73,-218.054"/>
</g>
<!-- 62&#45;&gt;32 -->
<g id="edge80" class="edge"><title>62&#45;&gt;32</title>
<path fill="none" stroke="red" d="M1041.94,-1862.82C1089.55,-1850.78 1219.34,-1817.98 1276.43,-1803.55"/>
<polygon fill="red" stroke="red" points="1277.37,-1806.92 1286.21,-1801.08 1275.66,-1800.14 1277.37,-1806.92"/>
</g>
<!-- 35 -->
<g id="node18" class="node"><title>35</title>
<ellipse fill="none" stroke="black" cx="1029" cy="-1333.51" rx="18.2703" ry="18.2703"/>
<text text-anchor="middle" x="1029" y="-1331.31" font-family="Times New Roman,serif" font-size="9.00">35</text>
</g>
<!-- 62&#45;&gt;35 -->
<g id="edge193" class="edge"><title>62&#45;&gt;35</title>
<path fill="none" stroke="green" d="M1010.28,-1856.03C984.408,-1833.33 931,-1779.39 931,-1720.98 931,-1720.98 931,-1720.98 931,-1486.53 931,-1443.03 927.296,-1427.2 951,-1390.72 965.921,-1367.76 978.788,-1370.74 1001,-1354.72 1002.64,-1353.54 1004.34,-1352.32 1006.04,-1351.08"/>
<polygon fill="green" stroke="green" points="1008.41,-1353.69 1014.47,-1345 1004.31,-1348.02 1008.41,-1353.69"/>
</g>
<!-- 114 -->
<g id="node10" class="node"><title>114</title>
<ellipse fill="none" stroke="black" cx="1541" cy="-1719.98" rx="21.4286" ry="21.4286"/>
<text text-anchor="middle" x="1541" y="-1717.78" font-family="Times New Roman,serif" font-size="9.00">114</text>
</g>
<!-- 32&#45;&gt;114 -->
<g id="edge129" class="edge"><title>32&#45;&gt;114</title>
<path fill="none" stroke="red" d="M1321.43,-1789.17C1361.63,-1776.69 1461.24,-1745.75 1511.3,-1730.21"/>
<polygon fill="red" stroke="red" points="1512.39,-1733.53 1520.9,-1727.23 1510.31,-1726.85 1512.39,-1733.53"/>
</g>
<!-- 47 -->
<g id="node13" class="node"><title>47</title>
<ellipse fill="none" stroke="black" cx="809" cy="-1487.53" rx="18.2703" ry="18.2703"/>
<text text-anchor="middle" x="809" y="-1485.33" font-family="Times New Roman,serif" font-size="9.00">47</text>
</g>
<!-- 32&#45;&gt;47 -->
<g id="edge32" class="edge"><title>32&#45;&gt;47</title>
<path fill="none" stroke="green" d="M1288.64,-1785.09C1217.48,-1741.09 919.554,-1556.89 832.799,-1503.25"/>
<polygon fill="green" stroke="green" points="834.524,-1500.2 824.178,-1497.92 830.843,-1506.15 834.524,-1500.2"/>
</g>
<!-- 32&#45;&gt;29 -->
<g id="edge61" class="edge"><title>32&#45;&gt;29</title>
<path fill="none" stroke="red" d="M1286.61,-1789.43C1257.76,-1780.69 1198.4,-1761.88 1150,-1741.2 902.877,-1635.6 618.96,-1475.57 534.749,-1427.24"/>
<polygon fill="red" stroke="red" points="536.33,-1424.11 525.917,-1422.16 532.84,-1430.18 536.33,-1424.11"/>
</g>
<!-- 32&#45;&gt;36 -->
<g id="edge67" class="edge"><title>32&#45;&gt;36</title>
<path fill="none" stroke="red" d="M1312.19,-1779.09C1325.65,-1752.14 1351,-1694.49 1351,-1642.56 1351,-1642.56 1351,-1642.56 1351,-1486.53 1351,-1434.92 1314.97,-1383.24 1291.88,-1355.42"/>
<polygon fill="red" stroke="red" points="1294.34,-1352.92 1285.19,-1347.58 1289.02,-1357.46 1294.34,-1352.92"/>
</g>
<!-- 22 -->
<g id="node19" class="node"><title>22</title>
<ellipse fill="none" stroke="black" cx="1517" cy="-1333.51" rx="18.2703" ry="18.2703"/>
<text text-anchor="middle" x="1517" y="-1331.31" font-family="Times New Roman,serif" font-size="9.00">22</text>
</g>
<!-- 32&#45;&gt;22 -->
<g id="edge185" class="edge"><title>32&#45;&gt;22</title>
<path fill="none" stroke="green" d="M1316.91,-1782.1C1340.69,-1757.69 1389,-1700.92 1389,-1642.56 1389,-1642.56 1389,-1642.56 1389,-1562.13 1389,-1475.36 1460.54,-1391.11 1496.65,-1354.11"/>
<polygon fill="green" stroke="green" points="1499.21,-1356.5 1503.78,-1346.95 1494.25,-1351.56 1499.21,-1356.5"/>
</g>
<!-- 121 -->
<g id="node34" class="node"><title>121</title>
<ellipse fill="none" stroke="black" cx="1729" cy="-1641.56" rx="21.4286" ry="21.4286"/>
<text text-anchor="middle" x="1729" y="-1639.36" font-family="Times New Roman,serif" font-size="9.00">121</text>
</g>
<!-- 32&#45;&gt;121 -->
<g id="edge138" class="edge"><title>32&#45;&gt;121</title>
<path fill="none" stroke="green" d="M1322.25,-1793.09C1382.74,-1787.91 1576.02,-1769.49 1631,-1741.2 1664.5,-1723.96 1693.57,-1691.08 1711.17,-1668.04"/>
<polygon fill="green" stroke="green" points="1714.18,-1669.85 1717.34,-1659.74 1708.56,-1665.68 1714.18,-1669.85"/>
</g>
<!-- 42 -->
<g id="node46" class="node"><title>42</title>
<ellipse fill="none" stroke="black" cx="1025" cy="-1022.63" rx="18.2703" ry="18.2703"/>
<text text-anchor="middle" x="1025" y="-1020.43" font-family="Times New Roman,serif" font-size="9.00">42</text>
</g>
<!-- 32&#45;&gt;42 -->
<g id="edge58" class="edge"><title>32&#45;&gt;42</title>
<path fill="none" stroke="green" d="M1285.28,-1794.97C1157.81,-1796.46 417.868,-1786.28 266,-1354.72 236.29,-1270.3 257.468,-1236.69 295,-1155.44 311.76,-1119.16 305.321,-1098.54 339,-1077.02 367.151,-1059.03 870.047,-1031.71 996.388,-1025.11"/>
<polygon fill="green" stroke="green" points="996.649,-1028.6 1006.45,-1024.58 996.285,-1021.61 996.649,-1028.6"/>
</g>
<!-- 32&#45;&gt;7 -->
<g id="edge42" class="edge"><title>32&#45;&gt;7</title>
<path fill="none" stroke="green" d="M1322.21,-1793.07C1375.83,-1788.29 1531.78,-1772.01 1571,-1741.2 1609.04,-1711.31 1617,-1690.93 1617,-1642.56 1617,-1642.56 1617,-1642.56 1617,-1562.13 1617,-1533.8 1583.64,-1334.46 1566,-1312.3 1541.97,-1282.11 1511.87,-1305.8 1487,-1276.3 1417.3,-1193.62 1451.23,-1145.93 1425,-1041.02 1419.09,-1017.36 1412.71,-990.222 1408.35,-971.394"/>
<polygon fill="green" stroke="green" points="1411.76,-970.569 1406.1,-961.611 1404.94,-972.141 1411.76,-970.569"/>
</g>
<!-- 137&#45;&gt;35 -->
<g id="edge94" class="edge"><title>137&#45;&gt;35</title>
<path fill="none" stroke="green" d="M991.892,-1393.59C998.483,-1383.1 1006.98,-1369.57 1014.18,-1358.11"/>
<polygon fill="green" stroke="green" points="1017.25,-1359.79 1019.61,-1349.46 1011.33,-1356.07 1017.25,-1359.79"/>
</g>
<!-- 101&#45;&gt;22 -->
<g id="edge179" class="edge"><title>101&#45;&gt;22</title>
<path fill="none" stroke="red" d="M1610.66,-1398.99C1591.66,-1385.92 1561.11,-1364.88 1540.1,-1350.41"/>
<polygon fill="red" stroke="red" points="1541.96,-1347.45 1531.74,-1344.66 1537.99,-1353.21 1541.96,-1347.45"/>
</g>
<!-- 107 -->
<g id="node11" class="node"><title>107</title>
<ellipse fill="none" stroke="black" cx="1541" cy="-1641.56" rx="21.4286" ry="21.4286"/>
<text text-anchor="middle" x="1541" y="-1639.36" font-family="Times New Roman,serif" font-size="9.00">107</text>
</g>
<!-- 114&#45;&gt;107 -->
<g id="edge130" class="edge"><title>114&#45;&gt;107</title>
<path fill="none" stroke="red" d="M1541,-1698.5C1541,-1690.64 1541,-1681.5 1541,-1672.91"/>
<polygon fill="red" stroke="red" points="1544.5,-1672.83 1541,-1662.83 1537.5,-1672.83 1544.5,-1672.83"/>
</g>
<!-- 114&#45;&gt;53 -->
<g id="edge141" class="edge"><title>114&#45;&gt;53</title>
<path fill="none" stroke="green" d="M1562.49,-1718.29C1671.17,-1714.21 2155,-1689.04 2155,-1564.13 2155,-1564.13 2155,-1564.13 2155,-1486.53 2155,-1434.92 2118.97,-1383.24 2095.88,-1355.42"/>
<polygon fill="green" stroke="green" points="2098.34,-1352.92 2089.19,-1347.58 2093.02,-1357.46 2098.34,-1352.92"/>
</g>
<!-- 104 -->
<g id="node12" class="node"><title>104</title>
<ellipse fill="none" stroke="black" cx="1484" cy="-1563.13" rx="21.4286" ry="21.4286"/>
<text text-anchor="middle" x="1484" y="-1560.93" font-family="Times New Roman,serif" font-size="9.00">104</text>
</g>
<!-- 107&#45;&gt;104 -->
<g id="edge123" class="edge"><title>107&#45;&gt;104</title>
<path fill="none" stroke="red" d="M1528.63,-1623.97C1521.01,-1613.76 1511.1,-1600.47 1502.55,-1589.01"/>
<polygon fill="red" stroke="red" points="1505.13,-1586.61 1496.34,-1580.68 1499.52,-1590.79 1505.13,-1586.61"/>
</g>
<!-- 30 -->
<g id="node37" class="node"><title>30</title>
<ellipse fill="none" stroke="black" cx="898" cy="-1176.66" rx="18.2703" ry="18.2703"/>
<text text-anchor="middle" x="898" y="-1174.46" font-family="Times New Roman,serif" font-size="9.00">30</text>
</g>
<!-- 107&#45;&gt;30 -->
<g id="edge136" class="edge"><title>107&#45;&gt;30</title>
<path fill="none" stroke="red" d="M1544.44,-1620.29C1554.83,-1556.14 1582.91,-1359.07 1544,-1312.3 1499.34,-1258.61 990.207,-1225.33 926,-1197.87 923.94,-1196.99 921.884,-1195.93 919.876,-1194.77"/>
<polygon fill="red" stroke="red" points="921.779,-1191.84 911.507,-1189.24 917.92,-1197.68 921.779,-1191.84"/>
</g>
<!-- 107&#45;&gt;64 -->
<g id="edge124" class="edge"><title>107&#45;&gt;64</title>
<path fill="none" stroke="green" d="M1553.88,-1624.63C1579.77,-1591.47 1637.42,-1511.52 1658,-1433.15 1682.96,-1338.08 1571.74,-1200.47 1571,-1197.87 1528.99,-1049.19 1572.46,-1000.71 1527,-853.051 1516.32,-818.374 1511.79,-809.293 1490,-780.281 1445.67,-721.257 1275.45,-572.911 1215.25,-521.117"/>
<polygon fill="green" stroke="green" points="1217.37,-518.33 1207.51,-514.469 1212.81,-523.64 1217.37,-518.33"/>
</g>
<!-- 104&#45;&gt;47 -->
<g id="edge119" class="edge"><title>104&#45;&gt;47</title>
<path fill="none" stroke="green" d="M1462.68,-1559.81C1363.9,-1549.04 950.652,-1503.98 837.661,-1491.66"/>
<polygon fill="green" stroke="green" points="837.715,-1488.14 827.395,-1490.54 836.956,-1495.1 837.715,-1488.14"/>
</g>
<!-- 47&#45;&gt;5 -->
<g id="edge137" class="edge"><title>47&#45;&gt;5</title>
<path fill="none" stroke="red" d="M790.464,-1486.27C712.488,-1484.89 411.33,-1476.78 329,-1433.15 131.709,-1328.6 38,-1246.91 38,-1023.63 38,-1023.63 38,-1023.63 38,-144.154 38,-84.9717 81.5925,-77.2895 136,-54 197.367,-27.7315 682.801,-13.3823 789.365,-10.5311"/>
<polygon fill="red" stroke="red" points="789.562,-14.0272 799.466,-10.2652 789.377,-7.02964 789.562,-14.0272"/>
</g>
<!-- 47&#45;&gt;29 -->
<g id="edge33" class="edge"><title>47&#45;&gt;29</title>
<path fill="none" stroke="green" d="M793.8,-1477.11C788.62,-1474.21 782.696,-1471.24 777,-1469.15 693.13,-1438.29 587.871,-1422.38 538.297,-1416.15"/>
<polygon fill="green" stroke="green" points="538.664,-1412.67 528.314,-1414.93 537.817,-1419.62 538.664,-1412.67"/>
</g>
<!-- 108 -->
<g id="node21" class="node"><title>108</title>
<ellipse fill="none" stroke="black" cx="806" cy="-1411.94" rx="21.4286" ry="21.4286"/>
<text text-anchor="middle" x="806" y="-1409.74" font-family="Times New Roman,serif" font-size="9.00">108</text>
</g>
<!-- 47&#45;&gt;108 -->
<g id="edge56" class="edge"><title>47&#45;&gt;108</title>
<path fill="none" stroke="green" d="M808.289,-1469.09C807.979,-1461.48 807.605,-1452.31 807.251,-1443.62"/>
<polygon fill="green" stroke="green" points="810.738,-1443.23 806.834,-1433.38 803.744,-1443.52 810.738,-1443.23"/>
</g>
<!-- 110 -->
<g id="node48" class="node"><title>110</title>
<ellipse fill="none" stroke="black" cx="369" cy="-1098.23" rx="21.4286" ry="21.4286"/>
<text text-anchor="middle" x="369" y="-1096.03" font-family="Times New Roman,serif" font-size="9.00">110</text>
</g>
<!-- 47&#45;&gt;110 -->
<g id="edge96" class="edge"><title>47&#45;&gt;110</title>
<path fill="none" stroke="green" d="M790.705,-1485.07C704.942,-1477.76 344.377,-1442.11 285,-1354.72 233.632,-1279.12 309.932,-1169.76 348.694,-1122.46"/>
<polygon fill="green" stroke="green" points="351.508,-1124.55 355.234,-1114.64 346.136,-1120.07 351.508,-1124.55"/>
</g>
<!-- 29&#45;&gt;5 -->
<g id="edge102" class="edge"><title>29&#45;&gt;5</title>
<path fill="none" stroke="green" d="M492.063,-1407.34C441.693,-1397.12 301.536,-1367.81 285,-1354.72 155.127,-1251.95 114,-1189.25 114,-1023.63 114,-1023.63 114,-1023.63 114,-144.154 114,-79.2094 168.456,-77.4992 229,-54 334.357,-13.1078 698.417,-10.0788 789.312,-9.96979"/>
<polygon fill="green" stroke="green" points="789.434,-13.4699 799.434,-9.96909 789.433,-6.46988 789.434,-13.4699"/>
</g>
<!-- 40 -->
<g id="node22" class="node"><title>40</title>
<ellipse fill="none" stroke="black" cx="312" cy="-1333.51" rx="18.2703" ry="18.2703"/>
<text text-anchor="middle" x="312" y="-1331.31" font-family="Times New Roman,serif" font-size="9.00">40</text>
</g>
<!-- 29&#45;&gt;40 -->
<g id="edge116" class="edge"><title>29&#45;&gt;40</title>
<path fill="none" stroke="red" d="M493.119,-1404.42C458.56,-1391.08 379.54,-1360.58 338.239,-1344.64"/>
<polygon fill="red" stroke="red" points="339.428,-1341.34 328.839,-1341.01 336.907,-1347.87 339.428,-1341.34"/>
</g>
<!-- 29&#45;&gt;15 -->
<g id="edge27" class="edge"><title>29&#45;&gt;15</title>
<path fill="none" stroke="green" d="M520.007,-1396.29C536.106,-1374.02 570.033,-1332.15 610,-1312.3 673.766,-1280.62 892.065,-1263.23 970.581,-1257.89"/>
<polygon fill="green" stroke="green" points="970.957,-1261.37 980.702,-1257.21 970.492,-1254.39 970.957,-1261.37"/>
</g>
<!-- 91 -->
<g id="node31" class="node"><title>91</title>
<ellipse fill="none" stroke="black" cx="708" cy="-1333.51" rx="18.2703" ry="18.2703"/>
<text text-anchor="middle" x="708" y="-1331.31" font-family="Times New Roman,serif" font-size="9.00">91</text>
</g>
<!-- 29&#45;&gt;91 -->
<g id="edge49" class="edge"><title>29&#45;&gt;91</title>
<path fill="none" stroke="green" d="M526.881,-1404.42C561.44,-1391.08 640.46,-1360.58 681.761,-1344.64"/>
<polygon fill="green" stroke="green" points="683.093,-1347.87 691.161,-1341.01 680.572,-1341.34 683.093,-1347.87"/>
</g>
<!-- 29&#45;&gt;10 -->
<g id="edge154" class="edge"><title>29&#45;&gt;10</title>
<path fill="none" stroke="red" d="M524.959,-1401.21C560.208,-1378.49 647.991,-1323 681,-1312.3 827.647,-1264.74 874.991,-1307.34 1026,-1276.3 1038.8,-1273.66 1052.68,-1269.53 1064.3,-1265.69"/>
<polygon fill="red" stroke="red" points="1065.53,-1268.97 1073.86,-1262.43 1063.27,-1262.35 1065.53,-1268.97"/>
</g>
<!-- 29&#45;&gt;13 -->
<g id="edge114" class="edge"><title>29&#45;&gt;13</title>
<path fill="none" stroke="red" d="M492.626,-1405.83C471.122,-1398.47 435.454,-1382.6 420,-1354.72 410.857,-1338.23 413.573,-1330.02 420,-1312.3 464.701,-1189 587.64,-1081.46 638.509,-1040.87"/>
<polygon fill="red" stroke="red" points="640.897,-1043.44 646.585,-1034.51 636.564,-1037.95 640.897,-1043.44"/>
</g>
<!-- 48 -->
<g id="node65" class="node"><title>48</title>
<ellipse fill="none" stroke="black" cx="1408" cy="-798.666" rx="18.2703" ry="18.2703"/>
<text text-anchor="middle" x="1408" y="-796.466" font-family="Times New Roman,serif" font-size="9.00">48</text>
</g>
<!-- 29&#45;&gt;48 -->
<g id="edge85" class="edge"><title>29&#45;&gt;48</title>
<path fill="none" stroke="red" d="M495.368,-1400.35C482.767,-1390.26 465.465,-1373.79 458,-1354.72 451.124,-1337.16 451.408,-1329.96 458,-1312.3 490.258,-1225.85 524.512,-1216.15 594,-1155.44 850.009,-931.802 1268.59,-829.53 1380.02,-805.416"/>
<polygon fill="red" stroke="red" points="1381.06,-808.772 1390.11,-803.265 1379.6,-801.926 1381.06,-808.772"/>
</g>
<!-- 29&#45;&gt;14 -->
<g id="edge115" class="edge"><title>29&#45;&gt;14</title>
<path fill="none" stroke="red" d="M514.17,-1393.7C519.916,-1372.7 531.905,-1336.98 552,-1312.3 629.194,-1217.48 677.396,-1224.92 778,-1155.44 875.623,-1088.02 896.886,-1066.31 998,-1004.25 1088.59,-948.644 1120.47,-950.115 1208,-889.82 1228.71,-875.556 1228.36,-863.996 1251,-853.051 1326.02,-816.781 1357.44,-847.527 1435,-817.051 1436.43,-816.488 1437.87,-815.853 1439.3,-815.165"/>
<polygon fill="red" stroke="red" points="1441.37,-818.017 1448.42,-810.102 1437.97,-811.898 1441.37,-818.017"/>
</g>
<!-- 92&#45;&gt;15 -->
<g id="edge52" class="edge"><title>92&#45;&gt;15</title>
<path fill="none" stroke="red" d="M1046.86,-1395.3C1055.76,-1375.33 1067.6,-1340.03 1056,-1312.3 1049.16,-1295.94 1034.98,-1281.93 1022.48,-1271.98"/>
<polygon fill="red" stroke="red" points="1024.3,-1268.97 1014.2,-1265.77 1020.1,-1274.57 1024.3,-1268.97"/>
</g>
<!-- 36&#45;&gt;10 -->
<g id="edge158" class="edge"><title>36&#45;&gt;10</title>
<path fill="none" stroke="red" d="M1256.2,-1325.46C1224.38,-1312.09 1155.08,-1282.99 1117.13,-1267.05"/>
<polygon fill="red" stroke="red" points="1118.33,-1263.76 1107.76,-1263.12 1115.62,-1270.22 1118.33,-1263.76"/>
</g>
<!-- 112 -->
<g id="node33" class="node"><title>112</title>
<ellipse fill="none" stroke="black" cx="1314" cy="-1176.66" rx="21.4286" ry="21.4286"/>
<text text-anchor="middle" x="1314" y="-1174.46" font-family="Times New Roman,serif" font-size="9.00">112</text>
</g>
<!-- 36&#45;&gt;112 -->
<g id="edge172" class="edge"><title>36&#45;&gt;112</title>
<path fill="none" stroke="red" d="M1277.47,-1315.64C1284.36,-1289.61 1297.68,-1239.31 1306.19,-1207.16"/>
<polygon fill="red" stroke="red" points="1309.59,-1207.98 1308.77,-1197.42 1302.83,-1206.19 1309.59,-1207.98"/>
</g>
<!-- 37&#45;&gt;23 -->
<g id="edge83" class="edge"><title>37&#45;&gt;23</title>
<path fill="none" stroke="green" d="M1793.64,-1318.49C1802.17,-1307.25 1814.3,-1291.26 1824.15,-1278.28"/>
<polygon fill="green" stroke="green" points="1826.98,-1280.35 1830.23,-1270.27 1821.4,-1276.12 1826.98,-1280.35"/>
</g>
<!-- 37&#45;&gt;10 -->
<g id="edge161" class="edge"><title>37&#45;&gt;10</title>
<path fill="none" stroke="red" d="M1764.86,-1330.25C1734.07,-1326.43 1669.58,-1318.51 1615,-1312.3 1426.16,-1290.81 1198.76,-1267.18 1119.72,-1259.03"/>
<polygon fill="red" stroke="red" points="1119.88,-1255.53 1109.57,-1257.99 1119.16,-1262.49 1119.88,-1255.53"/>
</g>
<!-- 35&#45;&gt;10 -->
<g id="edge160" class="edge"><title>35&#45;&gt;10</title>
<path fill="none" stroke="red" d="M1040.37,-1318.49C1049.61,-1307.11 1062.79,-1290.86 1073.38,-1277.8"/>
<polygon fill="red" stroke="red" points="1076.33,-1279.73 1079.91,-1269.75 1070.89,-1275.32 1076.33,-1279.73"/>
</g>
<!-- 22&#45;&gt;10 -->
<g id="edge163" class="edge"><title>22&#45;&gt;10</title>
<path fill="none" stroke="red" d="M1498.97,-1329.27C1432.43,-1317.34 1200.39,-1275.71 1119.26,-1261.15"/>
<polygon fill="red" stroke="red" points="1119.74,-1257.68 1109.28,-1259.36 1118.5,-1264.57 1119.74,-1257.68"/>
</g>
<!-- 51&#45;&gt;10 -->
<g id="edge170" class="edge"><title>51&#45;&gt;10</title>
<path fill="none" stroke="green" d="M890.42,-1321.98C895.737,-1318.49 901.944,-1314.85 908,-1312.3 971.581,-1285.51 995.419,-1303.08 1059,-1276.3 1061.93,-1275.06 1064.9,-1273.57 1067.79,-1271.96"/>
<polygon fill="green" stroke="green" points="1069.86,-1274.8 1076.58,-1266.61 1066.22,-1268.82 1069.86,-1274.8"/>
</g>
<!-- 187 -->
<g id="node25" class="node"><title>187</title>
<ellipse fill="none" stroke="black" cx="971" cy="-1333.51" rx="21.4286" ry="21.4286"/>
<text text-anchor="middle" x="971" y="-1331.31" font-family="Times New Roman,serif" font-size="9.00">187</text>
</g>
<!-- 108&#45;&gt;187 -->
<g id="edge199" class="edge"><title>108&#45;&gt;187</title>
<path fill="none" stroke="red" d="M824.928,-1402.17C853.819,-1388.79 909.103,-1363.18 942.753,-1347.59"/>
<polygon fill="red" stroke="red" points="944.437,-1350.67 952.04,-1343.29 941.495,-1344.32 944.437,-1350.67"/>
</g>
<!-- 108&#45;&gt;91 -->
<g id="edge57" class="edge"><title>108&#45;&gt;91</title>
<path fill="none" stroke="green" d="M789.376,-1397.97C773.138,-1385.31 748.315,-1365.95 730.355,-1351.94"/>
<polygon fill="green" stroke="green" points="732.195,-1348.94 722.157,-1345.55 727.89,-1354.46 732.195,-1348.94"/>
</g>
<!-- 209 -->
<g id="node26" class="node"><title>209</title>
<ellipse fill="none" stroke="black" cx="317" cy="-1255.08" rx="21.4286" ry="21.4286"/>
<text text-anchor="middle" x="317" y="-1252.88" font-family="Times New Roman,serif" font-size="9.00">209</text>
</g>
<!-- 40&#45;&gt;209 -->
<g id="edge195" class="edge"><title>40&#45;&gt;209</title>
<path fill="none" stroke="red" d="M313.16,-1314.78C313.71,-1306.36 314.385,-1296.06 315.013,-1286.45"/>
<polygon fill="red" stroke="red" points="318.51,-1286.62 315.67,-1276.41 311.524,-1286.16 318.51,-1286.62"/>
</g>
<!-- 40&#45;&gt;15 -->
<g id="edge117" class="edge"><title>40&#45;&gt;15</title>
<path fill="none" stroke="red" d="M326.228,-1321.47C331.527,-1317.93 337.772,-1314.39 344,-1312.3 462.824,-1272.33 860.06,-1259.56 970.37,-1256.74"/>
<polygon fill="red" stroke="red" points="970.505,-1260.24 980.415,-1256.49 970.331,-1253.24 970.505,-1260.24"/>
</g>
<!-- 40&#45;&gt;43 -->
<g id="edge197" class="edge"><title>40&#45;&gt;43</title>
<path fill="none" stroke="green" d="M322.638,-1318.44C330.443,-1307.49 340.734,-1291.62 347,-1276.3 356.457,-1253.17 362.2,-1225.25 365.435,-1205.02"/>
<polygon fill="green" stroke="green" points="368.926,-1205.35 366.943,-1194.94 362.003,-1204.31 368.926,-1205.35"/>
</g>
<!-- 85&#45;&gt;34 -->
<g id="edge149" class="edge"><title>85&#45;&gt;34</title>
<path fill="none" stroke="green" d="M2275.46,-1776.81C2273.13,-1748.45 2269,-1691.19 2269,-1642.56 2269,-1642.56 2269,-1642.56 2269,-1486.53 2269,-1429.02 2245.1,-1281.59 2213,-1233.87 2178.78,-1182.99 2041.4,-1103.29 1986,-1077.02 1933.22,-1051.99 1866.29,-1036.25 1829.13,-1028.79"/>
<polygon fill="green" stroke="green" points="1829.52,-1025.3 1819.03,-1026.82 1828.18,-1032.17 1829.52,-1025.3"/>
</g>
<!-- 122&#45;&gt;53 -->
<g id="edge143" class="edge"><title>122&#45;&gt;53</title>
<path fill="none" stroke="green" d="M2040.67,-1393.59C2047.12,-1383.1 2055.44,-1369.57 2062.48,-1358.11"/>
<polygon fill="green" stroke="green" points="2065.55,-1359.81 2067.8,-1349.46 2059.58,-1356.15 2065.55,-1359.81"/>
</g>
<!-- 187&#45;&gt;23 -->
<g id="edge200" class="edge"><title>187&#45;&gt;23</title>
<path fill="none" stroke="red" d="M987.245,-1319.71C991.784,-1316.77 996.881,-1314.01 1002,-1312.3 1157.06,-1260.5 1683,-1256.31 1812.17,-1256.07"/>
<polygon fill="red" stroke="red" points="1812.44,-1259.57 1822.43,-1256.06 1812.43,-1252.57 1812.44,-1259.57"/>
</g>
<!-- 209&#45;&gt;43 -->
<g id="edge196" class="edge"><title>209&#45;&gt;43</title>
<path fill="none" stroke="green" d="M328.54,-1237.12C335.789,-1226.47 345.236,-1212.58 353.178,-1200.91"/>
<polygon fill="green" stroke="green" points="356.165,-1202.74 358.897,-1192.51 350.378,-1198.8 356.165,-1202.74"/>
</g>
<!-- 15&#45;&gt;112 -->
<g id="edge74" class="edge"><title>15&#45;&gt;112</title>
<path fill="none" stroke="green" d="M1016.24,-1248.2C1029.27,-1243.88 1047.63,-1238.07 1064,-1233.87 1141.76,-1213.92 1162.94,-1216.59 1241,-1197.87 1255.23,-1194.46 1270.88,-1190.19 1284.02,-1186.46"/>
<polygon fill="green" stroke="green" points="1285.31,-1189.73 1293.96,-1183.61 1283.38,-1183.01 1285.31,-1189.73"/>
</g>
<!-- 86 -->
<g id="node38" class="node"><title>86</title>
<ellipse fill="none" stroke="black" cx="953" cy="-1176.66" rx="18.2703" ry="18.2703"/>
<text text-anchor="middle" x="953" y="-1174.46" font-family="Times New Roman,serif" font-size="9.00">86</text>
</g>
<!-- 15&#45;&gt;86 -->
<g id="edge44" class="edge"><title>15&#45;&gt;86</title>
<path fill="none" stroke="red" d="M989.912,-1238.98C983.486,-1228.31 974.738,-1213.77 967.372,-1201.53"/>
<polygon fill="red" stroke="red" points="970.225,-1199.49 962.069,-1192.72 964.227,-1203.1 970.225,-1199.49"/>
</g>
<!-- 60 -->
<g id="node44" class="node"><title>60</title>
<ellipse fill="none" stroke="black" cx="1671" cy="-1098.23" rx="18.2703" ry="18.2703"/>
<text text-anchor="middle" x="1671" y="-1096.03" font-family="Times New Roman,serif" font-size="9.00">60</text>
</g>
<!-- 15&#45;&gt;60 -->
<g id="edge104" class="edge"><title>15&#45;&gt;60</title>
<path fill="none" stroke="green" d="M1015.63,-1246.78C1058.89,-1228.13 1178.92,-1178.56 1284,-1155.44 1440.61,-1120.99 1493.07,-1176.32 1643,-1119.44 1645.1,-1118.65 1647.18,-1117.65 1649.2,-1116.54"/>
<polygon fill="green" stroke="green" points="1651.12,-1119.46 1657.6,-1111.08 1647.31,-1113.59 1651.12,-1119.46"/>
</g>
<!-- 31 -->
<g id="node56" class="node"><title>31</title>
<ellipse fill="none" stroke="black" cx="1278" cy="-871.436" rx="18.2703" ry="18.2703"/>
<text text-anchor="middle" x="1278" y="-869.236" font-family="Times New Roman,serif" font-size="9.00">31</text>
</g>
<!-- 15&#45;&gt;31 -->
<g id="edge105" class="edge"><title>15&#45;&gt;31</title>
<path fill="none" stroke="red" d="M1009.29,-1239.44C1023.11,-1219.93 1048.65,-1184.51 1072,-1155.44 1141.09,-1069.44 1175.55,-1061.18 1235,-968.247 1249.14,-946.144 1260.97,-918.613 1268.62,-898.742"/>
<polygon fill="red" stroke="red" points="1272,-899.71 1272.23,-889.118 1265.44,-897.252 1272,-899.71"/>
</g>
<!-- 15&#45;&gt;8 -->
<g id="edge15" class="edge"><title>15&#45;&gt;8</title>
<path fill="none" stroke="red" d="M980.885,-1251.72C944.531,-1246.42 860.877,-1231.3 799,-1197.87 644.742,-1114.52 576,-1047.77 576,-872.436 576,-872.436 576,-872.436 576,-573.701 576,-527.665 593.544,-515.169 627,-483.546 649.205,-462.558 681.931,-448.62 704.062,-440.944"/>
<polygon fill="red" stroke="red" points="705.296,-444.223 713.696,-437.766 703.103,-437.575 705.296,-444.223"/>
</g>
<!-- 15&#45;&gt;7 -->
<g id="edge14" class="edge"><title>15&#45;&gt;7</title>
<path fill="none" stroke="green" d="M1013.5,-1243.61C1044.08,-1221.41 1117.2,-1167.69 1176,-1119.44 1198.01,-1101.38 1202.63,-1095.83 1224,-1077.02 1260.82,-1044.6 1267.21,-1032.94 1307,-1004.25 1331.23,-986.772 1361.23,-969.891 1381.18,-959.267"/>
<polygon fill="green" stroke="green" points="1382.87,-962.33 1390.1,-954.579 1379.62,-956.135 1382.87,-962.33"/>
</g>
<!-- 26 -->
<g id="node66" class="node"><title>26</title>
<ellipse fill="none" stroke="black" cx="1341" cy="-363.463" rx="18.2703" ry="18.2703"/>
<text text-anchor="middle" x="1341" y="-361.263" font-family="Times New Roman,serif" font-size="9.00">26</text>
</g>
<!-- 15&#45;&gt;26 -->
<g id="edge16" class="edge"><title>15&#45;&gt;26</title>
<path fill="none" stroke="green" d="M1004.05,-1237.13C1014.56,-1201.27 1038.87,-1114.95 1052,-1041.02 1076.56,-902.757 1086,-867.321 1086,-726.897 1086,-726.897 1086,-726.897 1086,-649.299 1086,-567.305 1106.05,-538.387 1167,-483.546 1215.5,-439.906 1280.82,-399.307 1316.02,-378.67"/>
<polygon fill="green" stroke="green" points="1318.22,-381.44 1325.11,-373.393 1314.7,-375.386 1318.22,-381.44"/>
</g>
<!-- 43&#45;&gt;5 -->
<g id="edge147" class="edge"><title>43&#45;&gt;5</title>
<path fill="none" stroke="green" d="M351.376,-1171.16C325.839,-1163.91 278.198,-1147.53 247,-1119.44 210.175,-1086.29 190,-1073.18 190,-1023.63 190,-1023.63 190,-1023.63 190,-144.154 190,-18.6369 681.552,-10.2818 789.293,-9.95804"/>
<polygon fill="green" stroke="green" points="789.502,-13.458 799.499,-9.94935 789.496,-6.45796 789.502,-13.458"/>
</g>
<!-- 80 -->
<g id="node39" class="node"><title>80</title>
<ellipse fill="none" stroke="black" cx="274" cy="-1098.23" rx="18.2703" ry="18.2703"/>
<text text-anchor="middle" x="274" y="-1096.03" font-family="Times New Roman,serif" font-size="9.00">80</text>
</g>
<!-- 43&#45;&gt;80 -->
<g id="edge125" class="edge"><title>43&#45;&gt;80</title>
<path fill="none" stroke="green" d="M354.982,-1164.38C339.407,-1151.85 314.058,-1131.46 295.868,-1116.82"/>
<polygon fill="green" stroke="green" points="298.061,-1114.09 288.075,-1110.55 293.673,-1119.55 298.061,-1114.09"/>
</g>
<!-- 43&#45;&gt;13 -->
<g id="edge29" class="edge"><title>43&#45;&gt;13</title>
<path fill="none" stroke="red" d="M384.967,-1167.13C417.211,-1149.94 492.444,-1109.93 556,-1077.02 583.243,-1062.91 614.616,-1047 635.922,-1036.25"/>
<polygon fill="red" stroke="red" points="637.598,-1039.32 644.952,-1031.7 634.447,-1033.07 637.598,-1039.32"/>
</g>
<!-- 43&#45;&gt;110 -->
<g id="edge91" class="edge"><title>43&#45;&gt;110</title>
<path fill="none" stroke="green" d="M369,-1157.93C369,-1149.51 369,-1139.21 369,-1129.6"/>
<polygon fill="green" stroke="green" points="372.5,-1129.56 369,-1119.56 365.5,-1129.56 372.5,-1129.56"/>
</g>
<!-- 43&#45;&gt;8 -->
<g id="edge98" class="edge"><title>43&#45;&gt;8</title>
<path fill="none" stroke="green" d="M378.996,-1160.58C385.761,-1149.63 394.291,-1134.2 399,-1119.44 422.353,-1046.27 421,-1024.84 421,-948.034 421,-948.034 421,-948.034 421,-573.701 421,-450.283 628.933,-435.182 702.547,-433.703"/>
<polygon fill="green" stroke="green" points="702.822,-437.2 712.776,-433.57 702.731,-430.2 702.822,-437.2"/>
</g>
<!-- 43&#45;&gt;14 -->
<g id="edge145" class="edge"><title>43&#45;&gt;14</title>
<path fill="none" stroke="green" d="M386.216,-1169.99C416.043,-1160.1 479.2,-1138.92 532,-1119.44 838.864,-1006.26 902.419,-938.977 1218,-853.051 1312.33,-827.367 1343.5,-851.492 1435,-817.051 1436.44,-816.509 1437.88,-815.89 1439.32,-815.214"/>
<polygon fill="green" stroke="green" points="1441.38,-818.078 1448.45,-810.19 1438,-811.945 1441.38,-818.078"/>
</g>
<!-- 75 -->
<g id="node36" class="node"><title>75</title>
<ellipse fill="none" stroke="black" cx="1711" cy="-1176.66" rx="18.2703" ry="18.2703"/>
<text text-anchor="middle" x="1711" y="-1174.46" font-family="Times New Roman,serif" font-size="9.00">75</text>
</g>
<!-- 23&#45;&gt;75 -->
<g id="edge54" class="edge"><title>23&#45;&gt;75</title>
<path fill="none" stroke="green" d="M1825.27,-1245.33C1805.81,-1234.44 1771.73,-1215.17 1743,-1197.87 1740.33,-1196.26 1737.55,-1194.55 1734.79,-1192.84"/>
<polygon fill="green" stroke="green" points="1736.55,-1189.81 1726.22,-1187.45 1732.82,-1195.74 1736.55,-1189.81"/>
</g>
<!-- 23&#45;&gt;60 -->
<g id="edge113" class="edge"><title>23&#45;&gt;60</title>
<path fill="none" stroke="green" d="M1823.64,-1248.98C1784.71,-1237.39 1693.14,-1209.19 1684,-1197.87 1668.04,-1178.09 1666.13,-1148.46 1667.39,-1126.84"/>
<polygon fill="green" stroke="green" points="1670.9,-1126.91 1668.25,-1116.65 1663.93,-1126.32 1670.9,-1126.91"/>
</g>
<!-- 23&#45;&gt;34 -->
<g id="edge30" class="edge"><title>23&#45;&gt;34</title>
<path fill="none" stroke="red" d="M1845.37,-1236.83C1852.72,-1204.4 1864.95,-1132.58 1845,-1077.02 1840.31,-1063.95 1830.88,-1051.79 1821.95,-1042.39"/>
<polygon fill="red" stroke="red" points="1824.24,-1039.74 1814.68,-1035.19 1819.32,-1044.71 1824.24,-1039.74"/>
</g>
<!-- 56 -->
<g id="node74" class="node"><title>56</title>
<ellipse fill="none" stroke="black" cx="1084" cy="-72.3848" rx="18.2703" ry="18.2703"/>
<text text-anchor="middle" x="1084" y="-70.1848" font-family="Times New Roman,serif" font-size="9.00">56</text>
</g>
<!-- 23&#45;&gt;56 -->
<g id="edge133" class="edge"><title>23&#45;&gt;56</title>
<path fill="none" stroke="green" d="M1859.24,-1252.66C1921.09,-1246.76 2119,-1218.56 2119,-1099.23 2119,-1099.23 2119,-1099.23 2119,-362.463 2119,-267.223 1871.72,-162.011 1754,-126.77 1630.94,-89.9303 1223.98,-76.9706 1112.47,-74.0644"/>
<polygon fill="green" stroke="green" points="1112.42,-70.5621 1102.33,-73.807 1112.24,-77.5599 1112.42,-70.5621"/>
</g>
<!-- 203 -->
<g id="node40" class="node"><title>203</title>
<ellipse fill="none" stroke="black" cx="1613" cy="-1098.23" rx="21.4286" ry="21.4286"/>
<text text-anchor="middle" x="1613" y="-1096.03" font-family="Times New Roman,serif" font-size="9.00">203</text>
</g>
<!-- 18&#45;&gt;203 -->
<g id="edge180" class="edge"><title>18&#45;&gt;203</title>
<path fill="none" stroke="red" d="M1601.4,-1158.31C1603.1,-1149.68 1605.19,-1139.01 1607.13,-1129.11"/>
<polygon fill="red" stroke="red" points="1610.59,-1129.69 1609.08,-1119.2 1603.72,-1128.34 1610.59,-1129.69"/>
</g>
<!-- 18&#45;&gt;60 -->
<g id="edge97" class="edge"><title>18&#45;&gt;60</title>
<path fill="none" stroke="red" d="M1610.38,-1162.69C1621.67,-1150.87 1638.53,-1133.22 1651.61,-1119.53"/>
<polygon fill="red" stroke="red" points="1654.42,-1121.65 1658.8,-1112 1649.36,-1116.82 1654.42,-1121.65"/>
</g>
<!-- 39 -->
<g id="node49" class="node"><title>39</title>
<ellipse fill="none" stroke="black" cx="1671" cy="-1022.63" rx="18.2703" ry="18.2703"/>
<text text-anchor="middle" x="1671" y="-1020.43" font-family="Times New Roman,serif" font-size="9.00">39</text>
</g>
<!-- 18&#45;&gt;39 -->
<g id="edge192" class="edge"><title>18&#45;&gt;39</title>
<path fill="none" stroke="green" d="M1589.82,-1159.86C1580.46,-1139.41 1568.21,-1103.28 1583,-1077.02 1586.58,-1070.67 1621.34,-1050.73 1646.08,-1037.1"/>
<polygon fill="green" stroke="green" points="1647.9,-1040.09 1654.99,-1032.22 1644.54,-1033.95 1647.9,-1040.09"/>
</g>
<!-- 18&#45;&gt;8 -->
<g id="edge153" class="edge"><title>18&#45;&gt;8</title>
<path fill="none" stroke="red" d="M1589.17,-1160.5C1583.29,-1149.51 1576.11,-1134.07 1573,-1119.44 1569.08,-1101 1571.75,-1095.83 1573,-1077.02 1579.64,-977.079 1612.96,-952.086 1598,-853.051 1581.72,-745.262 1579.85,-701.088 1498,-629.085 1393.58,-537.23 1354.17,-523.616 1221,-483.546 1131.73,-456.686 840.261,-439.577 752.941,-434.96"/>
<polygon fill="red" stroke="red" points="753.058,-431.461 742.889,-434.436 752.693,-438.452 753.058,-431.461"/>
</g>
<!-- 91&#45;&gt;13 -->
<g id="edge50" class="edge"><title>91&#45;&gt;13</title>
<path fill="none" stroke="green" d="M705.338,-1315.02C697.534,-1263.73 674.665,-1113.44 665.188,-1051.16"/>
<polygon fill="green" stroke="green" points="668.597,-1050.29 663.632,-1040.93 661.677,-1051.34 668.597,-1050.29"/>
</g>
<!-- 10&#45;&gt;30 -->
<g id="edge156" class="edge"><title>10&#45;&gt;30</title>
<path fill="none" stroke="green" d="M1073.59,-1248.48C1033.99,-1235.67 939.544,-1204.87 926,-1197.87 924.202,-1196.94 922.392,-1195.91 920.603,-1194.81"/>
<polygon fill="green" stroke="green" points="922.251,-1191.7 912.004,-1189.01 918.337,-1197.5 922.251,-1191.7"/>
</g>
<!-- 10&#45;&gt;13 -->
<g id="edge157" class="edge"><title>10&#45;&gt;13</title>
<path fill="none" stroke="green" d="M1073.72,-1248.33C1060.68,-1244.08 1042.31,-1238.29 1026,-1233.87 957.743,-1215.36 934.556,-1228.89 871,-1197.87 790.257,-1158.46 713.891,-1081.81 679.733,-1044.73"/>
<polygon fill="green" stroke="green" points="682.043,-1042.07 672.724,-1037.03 676.866,-1046.78 682.043,-1042.07"/>
</g>
<!-- 24 -->
<g id="node59" class="node"><title>24</title>
<ellipse fill="none" stroke="black" cx="1132" cy="-574.701" rx="18.2703" ry="18.2703"/>
<text text-anchor="middle" x="1132" y="-572.501" font-family="Times New Roman,serif" font-size="9.00">24</text>
</g>
<!-- 10&#45;&gt;24 -->
<g id="edge155" class="edge"><title>10&#45;&gt;24</title>
<path fill="none" stroke="red" d="M1092.21,-1236.66C1093.98,-1210.99 1097.36,-1161.53 1100,-1119.44 1112.43,-921.592 1125.96,-683.147 1130.46,-603.273"/>
<polygon fill="red" stroke="red" points="1133.96,-603.256 1131.03,-593.075 1126.97,-602.863 1133.96,-603.256"/>
</g>
<!-- 112&#45;&gt;111 -->
<g id="edge75" class="edge"><title>112&#45;&gt;111</title>
<path fill="none" stroke="green" d="M1307.19,-1156.37C1304.15,-1147.77 1300.51,-1137.46 1297.16,-1127.98"/>
<polygon fill="green" stroke="green" points="1300.44,-1126.77 1293.81,-1118.51 1293.84,-1129.1 1300.44,-1126.77"/>
</g>
<!-- 112&#45;&gt;171 -->
<g id="edge150" class="edge"><title>112&#45;&gt;171</title>
<path fill="none" stroke="green" d="M1335,-1173.16C1429.1,-1161.95 1812.33,-1116.33 1924.82,-1102.94"/>
<polygon fill="green" stroke="green" points="1925.32,-1106.41 1934.84,-1101.75 1924.5,-1099.46 1925.32,-1106.41"/>
</g>
<!-- 121&#45;&gt;7 -->
<g id="edge139" class="edge"><title>121&#45;&gt;7</title>
<path fill="none" stroke="green" d="M1731.21,-1620.38C1736.16,-1566.89 1743.83,-1418.33 1691,-1312.3 1658.14,-1246.33 1620.42,-1252.53 1571,-1197.87 1511.77,-1132.36 1495.93,-1115.83 1449,-1041.02 1434.49,-1017.89 1421.04,-989.552 1412.48,-970.281"/>
<polygon fill="green" stroke="green" points="1415.68,-968.866 1408.46,-961.106 1409.26,-971.671 1415.68,-968.866"/>
</g>
<!-- 55 -->
<g id="node41" class="node"><title>55</title>
<ellipse fill="none" stroke="black" cx="1208" cy="-947.034" rx="18.2703" ry="18.2703"/>
<text text-anchor="middle" x="1208" y="-944.834" font-family="Times New Roman,serif" font-size="9.00">55</text>
</g>
<!-- 111&#45;&gt;55 -->
<g id="edge72" class="edge"><title>111&#45;&gt;55</title>
<path fill="none" stroke="red" d="M1270.33,-1084.72C1257.7,-1074.36 1240.87,-1058.54 1231,-1041.02 1219.57,-1020.72 1213.76,-994.802 1210.85,-975.486"/>
<polygon fill="red" stroke="red" points="1214.31,-974.957 1209.51,-965.512 1207.37,-975.889 1214.31,-974.957"/>
</g>
<!-- 75&#45;&gt;60 -->
<g id="edge55" class="edge"><title>75&#45;&gt;60</title>
<path fill="none" stroke="green" d="M1702.71,-1159.82C1697.26,-1149.4 1690.01,-1135.56 1683.82,-1123.73"/>
<polygon fill="green" stroke="green" points="1686.88,-1122.02 1679.14,-1114.78 1680.68,-1125.27 1686.88,-1122.02"/>
</g>
<!-- 75&#45;&gt;14 -->
<g id="edge174" class="edge"><title>75&#45;&gt;14</title>
<path fill="none" stroke="green" d="M1713.78,-1158.24C1718.09,-1125.95 1723.44,-1055.43 1698,-1004.25 1650.84,-909.364 1538.27,-839.909 1488,-812.518"/>
<polygon fill="green" stroke="green" points="1489.55,-809.382 1479.08,-807.751 1486.25,-815.554 1489.55,-809.382"/>
</g>
<!-- 141 -->
<g id="node42" class="node"><title>141</title>
<ellipse fill="none" stroke="black" cx="961" cy="-1098.23" rx="21.4286" ry="21.4286"/>
<text text-anchor="middle" x="961" y="-1096.03" font-family="Times New Roman,serif" font-size="9.00">141</text>
</g>
<!-- 30&#45;&gt;141 -->
<g id="edge167" class="edge"><title>30&#45;&gt;141</title>
<path fill="none" stroke="green" d="M909.263,-1161.99C918.147,-1151.22 930.756,-1135.92 941.301,-1123.13"/>
<polygon fill="green" stroke="green" points="944.213,-1125.1 947.873,-1115.15 938.812,-1120.64 944.213,-1125.1"/>
</g>
<!-- 30&#45;&gt;13 -->
<g id="edge40" class="edge"><title>30&#45;&gt;13</title>
<path fill="none" stroke="red" d="M885,-1163.63C863.215,-1143.87 817.441,-1104.05 774,-1077.02 745.792,-1059.46 710.9,-1043.81 687.413,-1034.06"/>
<polygon fill="red" stroke="red" points="688.678,-1030.8 678.097,-1030.26 686.032,-1037.28 688.678,-1030.8"/>
</g>
<!-- 30&#45;&gt;110 -->
<g id="edge95" class="edge"><title>30&#45;&gt;110</title>
<path fill="none" stroke="red" d="M879.791,-1173.03C802.137,-1161.81 498.157,-1117.89 399.851,-1103.69"/>
<polygon fill="red" stroke="red" points="400.343,-1100.22 389.945,-1102.26 399.342,-1107.15 400.343,-1100.22"/>
</g>
<!-- 86&#45;&gt;42 -->
<g id="edge45" class="edge"><title>86&#45;&gt;42</title>
<path fill="none" stroke="green" d="M964.065,-1161.49C972.285,-1150.48 983.352,-1134.58 991,-1119.44 1002.26,-1097.14 1011.47,-1070.21 1017.44,-1050.58"/>
<polygon fill="green" stroke="green" points="1020.86,-1051.36 1020.35,-1040.78 1014.15,-1049.37 1020.86,-1051.36"/>
</g>
<!-- 80&#45;&gt;13 -->
<g id="edge126" class="edge"><title>80&#45;&gt;13</title>
<path fill="none" stroke="red" d="M288.306,-1086.41C293.612,-1082.89 299.842,-1079.31 306,-1077.02 421.714,-1033.95 570.927,-1025.57 632.498,-1023.98"/>
<polygon fill="red" stroke="red" points="632.692,-1027.48 642.614,-1023.76 632.541,-1020.48 632.692,-1027.48"/>
</g>
<!-- 80&#45;&gt;56 -->
<g id="edge144" class="edge"><title>80&#45;&gt;56</title>
<path fill="none" stroke="red" d="M285.724,-1083.46C305.89,-1058.32 345,-1002.54 345,-948.034 345,-948.034 345,-948.034 345,-573.701 345,-223.726 920.348,-101.834 1055.72,-77.9978"/>
<polygon fill="red" stroke="red" points="1056.47,-81.4205 1065.73,-76.2745 1055.28,-74.522 1056.47,-81.4205"/>
</g>
<!-- 203&#45;&gt;39 -->
<g id="edge181" class="edge"><title>203&#45;&gt;39</title>
<path fill="none" stroke="green" d="M1625.87,-1080.9C1634.06,-1070.5 1644.77,-1056.91 1653.7,-1045.58"/>
<polygon fill="green" stroke="green" points="1656.67,-1047.47 1660.11,-1037.45 1651.17,-1043.14 1656.67,-1047.47"/>
</g>
<!-- 55&#45;&gt;31 -->
<g id="edge63" class="edge"><title>55&#45;&gt;31</title>
<path fill="none" stroke="red" d="M1220.19,-933.214C1230.7,-922.164 1246.07,-906.004 1258.32,-893.124"/>
<polygon fill="red" stroke="red" points="1261.12,-895.262 1265.48,-885.604 1256.05,-890.438 1261.12,-895.262"/>
</g>
<!-- 55&#45;&gt;17 -->
<g id="edge198" class="edge"><title>55&#45;&gt;17</title>
<path fill="none" stroke="red" d="M1189.5,-943.906C1115.43,-935.31 843.696,-902.973 831,-889.82 775.587,-832.416 787.955,-727.468 797.715,-678.195"/>
<polygon fill="red" stroke="red" points="801.166,-678.794 799.794,-668.289 794.315,-677.357 801.166,-678.794"/>
</g>
<!-- 141&#45;&gt;13 -->
<g id="edge168" class="edge"><title>141&#45;&gt;13</title>
<path fill="none" stroke="red" d="M940.38,-1092.17C887.68,-1079.24 748.03,-1044.98 688.504,-1030.38"/>
<polygon fill="red" stroke="red" points="689.23,-1026.95 678.684,-1027.97 687.562,-1033.75 689.23,-1026.95"/>
</g>
<!-- 21 -->
<g id="node55" class="node"><title>21</title>
<ellipse fill="none" stroke="black" cx="926" cy="-725.897" rx="18.2703" ry="18.2703"/>
<text text-anchor="middle" x="926" y="-723.697" font-family="Times New Roman,serif" font-size="9.00">21</text>
</g>
<!-- 171&#45;&gt;21 -->
<g id="edge151" class="edge"><title>171&#45;&gt;21</title>
<path fill="none" stroke="green" d="M1941.16,-1082.69C1886.72,-1030.4 1690.64,-851.206 1490,-780.281 1389.56,-744.776 1055.24,-731.133 954.789,-727.777"/>
<polygon fill="green" stroke="green" points="954.611,-724.269 944.503,-727.442 954.383,-731.266 954.611,-724.269"/>
</g>
<!-- 60&#45;&gt;42 -->
<g id="edge48" class="edge"><title>60&#45;&gt;42</title>
<path fill="none" stroke="green" d="M1657.62,-1085.34C1653.24,-1082.09 1648.17,-1078.94 1643,-1077.02 1532.7,-1036.04 1160.43,-1026.12 1053.77,-1024.09"/>
<polygon fill="green" stroke="green" points="1053.53,-1020.59 1043.47,-1023.91 1053.41,-1027.59 1053.53,-1020.59"/>
</g>
<!-- 60&#45;&gt;34 -->
<g id="edge175" class="edge"><title>60&#45;&gt;34</title>
<path fill="none" stroke="green" d="M1686.68,-1088.35C1708.93,-1075.75 1749.9,-1052.56 1776.27,-1037.63"/>
<polygon fill="green" stroke="green" points="1778.29,-1040.51 1785.26,-1032.54 1774.84,-1034.42 1778.29,-1040.51"/>
</g>
<!-- 60&#45;&gt;24 -->
<g id="edge34" class="edge"><title>60&#45;&gt;24</title>
<path fill="none" stroke="green" d="M1680.75,-1082.37C1691.56,-1063.98 1706.44,-1031.72 1698,-1004.25 1662.66,-889.254 1633.66,-862.667 1546,-780.281 1425.73,-667.246 1231.15,-603.707 1159.57,-583.158"/>
<polygon fill="green" stroke="green" points="1160.5,-579.784 1149.92,-580.438 1158.6,-586.521 1160.5,-579.784"/>
</g>
<!-- 60&#45;&gt;7 -->
<g id="edge84" class="edge"><title>60&#45;&gt;7</title>
<path fill="none" stroke="green" d="M1657.41,-1085.82C1653.03,-1082.6 1648.01,-1079.33 1643,-1077.02 1582.35,-1048.94 1555.3,-1073.69 1497,-1041.02 1463.74,-1022.37 1434.06,-988.775 1417.33,-967.479"/>
<polygon fill="green" stroke="green" points="1420.03,-965.254 1411.17,-959.448 1414.48,-969.514 1420.03,-965.254"/>
</g>
<!-- 45 -->
<g id="node50" class="node"><title>45</title>
<ellipse fill="none" stroke="black" cx="698" cy="-947.034" rx="18.2703" ry="18.2703"/>
<text text-anchor="middle" x="698" y="-944.834" font-family="Times New Roman,serif" font-size="9.00">45</text>
</g>
<!-- 13&#45;&gt;45 -->
<g id="edge87" class="edge"><title>13&#45;&gt;45</title>
<path fill="none" stroke="green" d="M669.028,-1005.66C673.861,-996.049 680.116,-983.607 685.576,-972.746"/>
<polygon fill="green" stroke="green" points="688.75,-974.226 690.114,-963.719 682.496,-971.082 688.75,-974.226"/>
</g>
<!-- 13&#45;&gt;19 -->
<g id="edge99" class="edge"><title>13&#45;&gt;19</title>
<path fill="none" stroke="green" d="M675.016,-1010.5C688.176,-999.921 708.285,-983.416 725,-968.247 744.881,-950.204 746.742,-942.218 768,-925.82 788.457,-910.041 813.959,-895.319 832.588,-885.348"/>
<polygon fill="green" stroke="green" points="834.419,-888.34 841.64,-880.587 831.161,-882.145 834.419,-888.34"/>
</g>
<!-- 13&#45;&gt;17 -->
<g id="edge183" class="edge"><title>13&#45;&gt;17</title>
<path fill="none" stroke="green" d="M661.026,-1003.98C661.47,-984.49 663.438,-952.359 671,-925.82 699.036,-827.425 760.5,-721.199 788.973,-674.996"/>
<polygon fill="green" stroke="green" points="792.057,-676.664 794.366,-666.324 786.113,-672.967 792.057,-676.664"/>
</g>
<!-- 13&#45;&gt;64 -->
<g id="edge108" class="edge"><title>13&#45;&gt;64</title>
<path fill="none" stroke="red" d="M677.714,-1014.38C698.235,-1005.11 733.673,-987.887 761,-968.247 783.321,-952.205 783.187,-941.154 806,-925.82 838.024,-904.296 855.444,-914.624 885,-889.82 1021.02,-775.674 977.108,-679.501 1105,-556.316 1123.57,-538.434 1149.18,-523.866 1168.16,-514.493"/>
<polygon fill="red" stroke="red" points="1169.89,-517.543 1177.41,-510.075 1166.88,-511.226 1169.89,-517.543"/>
</g>
<!-- 13&#45;&gt;8 -->
<g id="edge186" class="edge"><title>13&#45;&gt;8</title>
<path fill="none" stroke="red" d="M652.597,-1006.03C639.078,-979.42 614,-923.219 614,-872.436 614,-872.436 614,-872.436 614,-573.701 614,-515.539 673.892,-468.138 706.854,-446.454"/>
<polygon fill="red" stroke="red" points="708.811,-449.357 715.364,-441.033 705.05,-443.454 708.811,-449.357"/>
</g>
<!-- 13&#45;&gt;7 -->
<g id="edge128" class="edge"><title>13&#45;&gt;7</title>
<path fill="none" stroke="red" d="M679.356,-1020.11C750.721,-1014.14 1016.56,-991.542 1235,-968.247 1285.91,-962.817 1345.38,-955.411 1378.14,-951.237"/>
<polygon fill="red" stroke="red" points="1378.71,-954.693 1388.18,-949.953 1377.82,-947.75 1378.71,-954.693"/>
</g>
<!-- 42&#45;&gt;8 -->
<g id="edge46" class="edge"><title>42&#45;&gt;8</title>
<path fill="none" stroke="red" d="M1006.99,-1018.8C937.406,-1006.76 690,-953.155 690,-799.666 690,-799.666 690,-799.666 690,-573.701 690,-530.822 706.807,-483.055 718.066,-455.866"/>
<polygon fill="red" stroke="red" points="721.354,-457.077 722.063,-446.506 714.916,-454.328 721.354,-457.077"/>
</g>
<!-- 42&#45;&gt;7 -->
<g id="edge11" class="edge"><title>42&#45;&gt;7</title>
<path fill="none" stroke="green" d="M1042.98,-1018.13C1104.53,-1006.15 1306.96,-966.734 1378.05,-952.892"/>
<polygon fill="green" stroke="green" points="1379.14,-956.245 1388.29,-950.898 1377.8,-949.374 1379.14,-956.245"/>
</g>
<!-- 16 -->
<g id="node67" class="node"><title>16</title>
<ellipse fill="none" stroke="black" cx="869" cy="-363.463" rx="18.2703" ry="18.2703"/>
<text text-anchor="middle" x="869" y="-361.263" font-family="Times New Roman,serif" font-size="9.00">16</text>
</g>
<!-- 42&#45;&gt;16 -->
<g id="edge47" class="edge"><title>42&#45;&gt;16</title>
<path fill="none" stroke="green" d="M1021.19,-1004.59C1010.6,-957.344 979.84,-820.748 953,-707.512 925.043,-589.56 890.171,-449.201 875.736,-391.386"/>
<polygon fill="green" stroke="green" points="879.105,-390.428 873.285,-381.575 872.313,-392.125 879.105,-390.428"/>
</g>
<!-- 115 -->
<g id="node52" class="node"><title>115</title>
<ellipse fill="none" stroke="black" cx="1500" cy="-947.034" rx="21.4286" ry="21.4286"/>
<text text-anchor="middle" x="1500" y="-944.834" font-family="Times New Roman,serif" font-size="9.00">115</text>
</g>
<!-- 34&#45;&gt;115 -->
<g id="edge77" class="edge"><title>34&#45;&gt;115</title>
<path fill="none" stroke="red" d="M1783.07,-1017.25C1733.3,-1005.08 1592.99,-970.772 1530.59,-955.512"/>
<polygon fill="red" stroke="red" points="1531.12,-952.039 1520.57,-953.063 1529.45,-958.838 1531.12,-952.039"/>
</g>
<!-- 34&#45;&gt;7 -->
<g id="edge31" class="edge"><title>34&#45;&gt;7</title>
<path fill="none" stroke="red" d="M1782.78,-1018.5C1762.2,-1014.97 1727.71,-1009.1 1698,-1004.25 1596.75,-987.71 1570.01,-991.115 1470,-968.247 1455.38,-964.904 1439.28,-960.085 1426.53,-955.991"/>
<polygon fill="red" stroke="red" points="1427.3,-952.562 1416.71,-952.771 1425.12,-959.213 1427.3,-952.562"/>
</g>
<!-- 34&#45;&gt;16 -->
<g id="edge194" class="edge"><title>34&#45;&gt;16</title>
<path fill="none" stroke="green" d="M1798.1,-1004.22C1785.79,-936.022 1731.6,-684.525 1583,-556.316 1371.34,-373.699 1003.04,-362.946 897.822,-363.805"/>
<polygon fill="green" stroke="green" points="897.613,-360.307 887.658,-363.932 897.701,-367.306 897.613,-360.307"/>
</g>
<!-- 110&#45;&gt;8 -->
<g id="edge92" class="edge"><title>110&#45;&gt;8</title>
<path fill="none" stroke="green" d="M372.107,-1077.02C376.232,-1048.38 383,-994.342 383,-948.034 383,-948.034 383,-948.034 383,-573.701 383,-532.236 376.167,-511.27 407,-483.546 450.599,-444.344 635.132,-435.938 702.903,-434.163"/>
<polygon fill="green" stroke="green" points="703.176,-437.658 713.091,-433.924 703.012,-430.66 703.176,-437.658"/>
</g>
<!-- 39&#45;&gt;115 -->
<g id="edge173" class="edge"><title>39&#45;&gt;115</title>
<path fill="none" stroke="red" d="M1654.29,-1014.44C1625.1,-1001.88 1564.51,-975.797 1528.55,-960.322"/>
<polygon fill="red" stroke="red" points="1529.68,-956.997 1519.11,-956.259 1526.91,-963.427 1529.68,-956.997"/>
</g>
<!-- 105 -->
<g id="node58" class="node"><title>105</title>
<ellipse fill="none" stroke="black" cx="1243" cy="-650.299" rx="21.4286" ry="21.4286"/>
<text text-anchor="middle" x="1243" y="-648.099" font-family="Times New Roman,serif" font-size="9.00">105</text>
</g>
<!-- 39&#45;&gt;105 -->
<g id="edge177" class="edge"><title>39&#45;&gt;105</title>
<path fill="none" stroke="red" d="M1662.73,-1006.21C1639.97,-964.955 1572.62,-850.48 1490,-780.281 1421.34,-721.941 1321.84,-680.217 1272.72,-661.813"/>
<polygon fill="red" stroke="red" points="1273.63,-658.417 1263.04,-658.242 1271.21,-664.985 1273.63,-658.417"/>
</g>
<!-- 39&#45;&gt;8 -->
<g id="edge146" class="edge"><title>39&#45;&gt;8</title>
<path fill="none" stroke="red" d="M1674.69,-1004.56C1682.65,-964.526 1699,-861.822 1677,-780.281 1630.08,-606.389 1571.44,-541.772 1401,-483.546 1338.77,-462.287 868.02,-439.974 753.199,-434.808"/>
<polygon fill="red" stroke="red" points="753.087,-431.3 742.941,-434.35 752.774,-438.293 753.087,-431.3"/>
</g>
<!-- 45&#45;&gt;19 -->
<g id="edge88" class="edge"><title>45&#45;&gt;19</title>
<path fill="none" stroke="green" d="M712.992,-935.832C718.257,-932.448 724.286,-928.79 730,-925.82 763.762,-908.276 804.615,-892.05 830.94,-882.199"/>
<polygon fill="green" stroke="green" points="832.44,-885.376 840.605,-878.625 830.012,-878.811 832.44,-885.376"/>
</g>
<!-- 93 -->
<g id="node54" class="node"><title>93</title>
<ellipse fill="none" stroke="black" cx="888" cy="-798.666" rx="18.2703" ry="18.2703"/>
<text text-anchor="middle" x="888" y="-796.466" font-family="Times New Roman,serif" font-size="9.00">93</text>
</g>
<!-- 19&#45;&gt;93 -->
<g id="edge134" class="edge"><title>19&#45;&gt;93</title>
<path fill="none" stroke="green" d="M864.958,-854.022C868.555,-845.536 873.028,-834.984 877.073,-825.442"/>
<polygon fill="green" stroke="green" points="880.399,-826.564 881.08,-815.991 873.954,-823.832 880.399,-826.564"/>
</g>
<!-- 19&#45;&gt;21 -->
<g id="edge39" class="edge"><title>19&#45;&gt;21</title>
<path fill="none" stroke="red" d="M873.174,-860.814C886.598,-851.407 905.487,-835.79 915,-817.051 924.786,-797.776 927.245,-773.29 927.419,-754.703"/>
<polygon fill="red" stroke="red" points="930.916,-754.481 927.295,-744.524 923.917,-754.566 930.916,-754.481"/>
</g>
<!-- 19&#45;&gt;17 -->
<g id="edge191" class="edge"><title>19&#45;&gt;17</title>
<path fill="none" stroke="red" d="M853.815,-853.308C846.555,-823.616 831.144,-760.666 818,-707.512 815.632,-697.935 813.023,-687.445 810.706,-678.147"/>
<polygon fill="red" stroke="red" points="814.058,-677.124 808.242,-668.268 807.266,-678.818 814.058,-677.124"/>
</g>
<!-- 115&#45;&gt;31 -->
<g id="edge78" class="edge"><title>115&#45;&gt;31</title>
<path fill="none" stroke="green" d="M1482.27,-934.667C1476.87,-931.515 1470.81,-928.285 1465,-925.82 1410.68,-902.796 1343.38,-886.33 1306.14,-878.197"/>
<polygon fill="green" stroke="green" points="1306.54,-874.704 1296.03,-876.034 1305.07,-881.549 1306.54,-874.704"/>
</g>
<!-- 67 -->
<g id="node68" class="node"><title>67</title>
<ellipse fill="none" stroke="black" cx="1500" cy="-871.436" rx="18.2703" ry="18.2703"/>
<text text-anchor="middle" x="1500" y="-869.236" font-family="Times New Roman,serif" font-size="9.00">67</text>
</g>
<!-- 115&#45;&gt;67 -->
<g id="edge81" class="edge"><title>115&#45;&gt;67</title>
<path fill="none" stroke="red" d="M1500,-925.532C1500,-917.637 1500,-908.488 1500,-900.031"/>
<polygon fill="red" stroke="red" points="1503.5,-899.837 1500,-889.837 1496.5,-899.837 1503.5,-899.837"/>
</g>
<!-- 53&#45;&gt;27 -->
<g id="edge107" class="edge"><title>53&#45;&gt;27</title>
<path fill="none" stroke="green" d="M2086.18,-1317.29C2107.19,-1280.96 2157,-1185.72 2157,-1099.23 2157,-1099.23 2157,-1099.23 2157,-431.697 2157,-260.142 1869.9,-226.683 1777.37,-220.354"/>
<polygon fill="green" stroke="green" points="1777.52,-216.857 1767.32,-219.723 1777.08,-223.843 1777.52,-216.857"/>
</g>
<!-- 93&#45;&gt;21 -->
<g id="edge135" class="edge"><title>93&#45;&gt;21</title>
<path fill="none" stroke="red" d="M896.433,-781.96C901.255,-772.981 907.407,-761.523 912.85,-751.387"/>
<polygon fill="red" stroke="red" points="915.943,-753.025 917.59,-742.559 909.776,-749.713 915.943,-753.025"/>
</g>
<!-- 93&#45;&gt;56 -->
<g id="edge176" class="edge"><title>93&#45;&gt;56</title>
<path fill="none" stroke="red" d="M886.419,-780.109C884.088,-752.653 880,-697.87 880,-651.299 880,-651.299 880,-651.299 880,-573.701 880,-375.752 1018.62,-164.184 1067.32,-95.956"/>
<polygon fill="red" stroke="red" points="1070.31,-97.8044 1073.32,-87.6472 1064.63,-93.7081 1070.31,-97.8044"/>
</g>
<!-- 21&#45;&gt;17 -->
<g id="edge190" class="edge"><title>21&#45;&gt;17</title>
<path fill="none" stroke="green" d="M910.549,-715.575C889.74,-703.022 852.501,-680.558 828.022,-665.79"/>
<polygon fill="green" stroke="green" points="829.696,-662.713 819.326,-660.544 826.081,-668.707 829.696,-662.713"/>
</g>
<!-- 21&#45;&gt;105 -->
<g id="edge120" class="edge"><title>21&#45;&gt;105</title>
<path fill="none" stroke="red" d="M943.952,-720.729C995.936,-708.659 1147.03,-673.579 1212.34,-658.417"/>
<polygon fill="red" stroke="red" points="1213.47,-661.748 1222.42,-656.077 1211.88,-654.93 1213.47,-661.748"/>
</g>
<!-- 21&#45;&gt;56 -->
<g id="edge118" class="edge"><title>21&#45;&gt;56</title>
<path fill="none" stroke="green" d="M936.788,-710.687C971.181,-663.924 1076,-509.508 1076,-364.463 1076,-364.463 1076,-364.463 1076,-216.924 1076,-176.645 1079.18,-130.106 1081.53,-101.208"/>
<polygon fill="green" stroke="green" points="1085.03,-101.303 1082.38,-91.0454 1078.06,-100.718 1085.03,-101.303"/>
</g>
<!-- 31&#45;&gt;26 -->
<g id="edge62" class="edge"><title>31&#45;&gt;26</title>
<path fill="none" stroke="red" d="M1291.13,-858.402C1314.75,-835.356 1362,-782.334 1362,-726.897 1362,-726.897 1362,-726.897 1362,-649.299 1362,-554.598 1350.31,-442.666 1344.38,-391.921"/>
<polygon fill="red" stroke="red" points="1347.82,-391.287 1343.17,-381.77 1340.87,-392.113 1347.82,-391.287"/>
</g>
<!-- 17&#45;&gt;24 -->
<g id="edge188" class="edge"><title>17&#45;&gt;24</title>
<path fill="none" stroke="green" d="M822.102,-645.237C876.424,-633.048 1038.33,-596.719 1103.93,-581.999"/>
<polygon fill="green" stroke="green" points="1104.96,-585.354 1113.95,-579.75 1103.43,-578.524 1104.96,-585.354"/>
</g>
<!-- 17&#45;&gt;8 -->
<g id="edge184" class="edge"><title>17&#45;&gt;8</title>
<path fill="none" stroke="red" d="M798.163,-632.739C784.68,-594.49 751.354,-499.949 735.991,-456.367"/>
<polygon fill="red" stroke="red" points="739.288,-455.191 732.662,-446.923 732.686,-457.518 739.288,-455.191"/>
</g>
<!-- 105&#45;&gt;64 -->
<g id="edge121" class="edge"><title>105&#45;&gt;64</title>
<path fill="none" stroke="green" d="M1236.49,-629.862C1227.87,-604.098 1212.61,-558.528 1202.92,-529.572"/>
<polygon fill="green" stroke="green" points="1206.12,-528.095 1199.62,-519.723 1199.48,-530.317 1206.12,-528.095"/>
</g>
<!-- 24&#45;&gt;64 -->
<g id="edge35" class="edge"><title>24&#45;&gt;64</title>
<path fill="none" stroke="green" d="M1143.66,-560.389C1152.55,-550.239 1164.98,-536.055 1175.26,-524.319"/>
<polygon fill="green" stroke="green" points="1178.01,-526.493 1181.97,-516.665 1172.75,-521.881 1178.01,-526.493"/>
</g>
<!-- 24&#45;&gt;8 -->
<g id="edge60" class="edge"><title>24&#45;&gt;8</title>
<path fill="none" stroke="green" d="M1114.9,-567.774C1050.91,-545.6 825.515,-467.49 751.641,-441.89"/>
<polygon fill="green" stroke="green" points="752.473,-438.474 741.878,-438.506 750.18,-445.088 752.473,-438.474"/>
</g>
<!-- 64&#45;&gt;8 -->
<g id="edge36" class="edge"><title>64&#45;&gt;8</title>
<path fill="none" stroke="green" d="M1175.73,-498.295C1103.26,-487.839 835.929,-449.269 752.821,-437.278"/>
<polygon fill="green" stroke="green" points="753.172,-433.793 742.775,-435.829 752.173,-440.721 753.172,-433.793"/>
</g>
<!-- 64&#45;&gt;58 -->
<g id="edge90" class="edge"><title>64&#45;&gt;58</title>
<path fill="none" stroke="green" d="M1210.8,-494.323C1287.66,-464.096 1606.01,-338.886 1699.85,-301.977"/>
<polygon fill="green" stroke="green" points="1701.17,-305.22 1709.2,-298.303 1698.61,-298.706 1701.17,-305.22"/>
</g>
<!-- 8&#45;&gt;5 -->
<g id="edge4" class="edge"><title>8&#45;&gt;5</title>
<path fill="none" stroke="red" d="M727.339,-417.791C726.203,-392.635 724,-337.894 724,-291.693 724,-291.693 724,-291.693 724,-144.154 724,-94.1944 766.794,-47.963 792.008,-25.0603"/>
<polygon fill="red" stroke="red" points="794.595,-27.4458 799.797,-18.2159 789.975,-22.1874 794.595,-27.4458"/>
</g>
<!-- 8&#45;&gt;26 -->
<g id="edge127" class="edge"><title>8&#45;&gt;26</title>
<path fill="none" stroke="red" d="M742.849,-430.068C823.015,-421.276 1204.51,-379.433 1312.47,-367.592"/>
<polygon fill="red" stroke="red" points="1313.05,-371.05 1322.61,-366.48 1312.28,-364.092 1313.05,-371.05"/>
</g>
<!-- 8&#45;&gt;16 -->
<g id="edge24" class="edge"><title>8&#45;&gt;16</title>
<path fill="none" stroke="green" d="M741.012,-425.492C764.266,-414.404 813.338,-391.005 843.509,-376.618"/>
<polygon fill="green" stroke="green" points="845.064,-379.754 852.584,-372.291 842.051,-373.436 845.064,-379.754"/>
</g>
<!-- 12 -->
<g id="node71" class="node"><title>12</title>
<ellipse fill="none" stroke="black" cx="770" cy="-290.693" rx="18.2703" ry="18.2703"/>
<text text-anchor="middle" x="770" y="-288.493" font-family="Times New Roman,serif" font-size="9.00">12</text>
</g>
<!-- 8&#45;&gt;12 -->
<g id="edge189" class="edge"><title>8&#45;&gt;12</title>
<path fill="none" stroke="green" d="M732.027,-418.273C738.896,-395.376 753.002,-348.357 761.954,-318.516"/>
<polygon fill="green" stroke="green" points="765.364,-319.329 764.885,-308.745 758.659,-317.317 765.364,-319.329"/>
</g>
<!-- 84 -->
<g id="node64" class="node"><title>84</title>
<ellipse fill="none" stroke="black" cx="1408" cy="-871.436" rx="18.2703" ry="18.2703"/>
<text text-anchor="middle" x="1408" y="-869.236" font-family="Times New Roman,serif" font-size="9.00">84</text>
</g>
<!-- 7&#45;&gt;84 -->
<g id="edge76" class="edge"><title>7&#45;&gt;84</title>
<path fill="none" stroke="green" d="M1403.94,-932.19C1404.56,-923.103 1405.39,-910.905 1406.13,-899.899"/>
<polygon fill="green" stroke="green" points="1409.63,-900.068 1406.82,-889.854 1402.65,-899.594 1409.63,-900.068"/>
</g>
<!-- 7&#45;&gt;48 -->
<g id="edge112" class="edge"><title>7&#45;&gt;48</title>
<path fill="none" stroke="green" d="M1396.52,-933.49C1391.16,-922.356 1383.95,-905.474 1381,-889.82 1377.97,-873.762 1377.21,-868.947 1381,-853.051 1383.47,-842.703 1388.28,-832.09 1393.17,-823.081"/>
<polygon fill="green" stroke="green" points="1396.24,-824.763 1398.2,-814.35 1390.18,-821.27 1396.24,-824.763"/>
</g>
<!-- 7&#45;&gt;67 -->
<g id="edge70" class="edge"><title>7&#45;&gt;67</title>
<path fill="none" stroke="red" d="M1414.51,-937.302C1429.98,-925.56 1457.83,-904.433 1477.53,-889.484"/>
<polygon fill="red" stroke="red" points="1479.83,-892.137 1485.68,-883.304 1475.59,-886.56 1479.83,-892.137"/>
</g>
<!-- 7&#45;&gt;14 -->
<g id="edge21" class="edge"><title>7&#45;&gt;14</title>
<path fill="none" stroke="green" d="M1410.91,-933.929C1417.94,-922.805 1428.12,-905.686 1435,-889.82 1443.98,-869.112 1451.41,-844.589 1456.35,-826.352"/>
<polygon fill="green" stroke="green" points="1459.73,-827.236 1458.9,-816.674 1452.96,-825.453 1459.73,-827.236"/>
</g>
<!-- 6&#45;&gt;5 -->
<g id="edge166" class="edge"><title>6&#45;&gt;5</title>
<path fill="none" stroke="green" d="M2292.13,-710.94C2288.75,-684.57 2282,-625.593 2282,-575.701 2282,-575.701 2282,-575.701 2282,-144.154 2282,-101.172 2282.09,-78.8181 2247,-54 2186.52,-11.2301 1002.28,-9.94672 830.662,-9.98578"/>
<polygon fill="green" stroke="green" points="830.652,-6.48569 820.653,-9.98996 830.655,-13.4857 830.652,-6.48569"/>
</g>
<!-- 84&#45;&gt;48 -->
<g id="edge103" class="edge"><title>84&#45;&gt;48</title>
<path fill="none" stroke="red" d="M1408,-852.942C1408,-845.26 1408,-836.051 1408,-827.466"/>
<polygon fill="red" stroke="red" points="1411.5,-827.45 1408,-817.45 1404.5,-827.45 1411.5,-827.45"/>
</g>
<!-- 48&#45;&gt;5 -->
<g id="edge86" class="edge"><title>48&#45;&gt;5</title>
<path fill="none" stroke="red" d="M1411.36,-780.169C1416.31,-752.792 1425,-698.113 1425,-651.299 1425,-651.299 1425,-651.299 1425,-431.697 1425,-283.857 935.484,-64.1586 829.912,-18.4958"/>
<polygon fill="red" stroke="red" points="831.244,-15.2588 820.674,-14.5222 828.477,-21.689 831.244,-15.2588"/>
</g>
<!-- 26&#45;&gt;58 -->
<g id="edge68" class="edge"><title>26&#45;&gt;58</title>
<path fill="none" stroke="red" d="M1356.13,-352.842C1361.31,-349.937 1367.25,-347.01 1373,-345.078 1489.13,-306.094 1636.34,-295.485 1697.43,-292.674"/>
<polygon fill="red" stroke="red" points="1697.63,-296.168 1707.48,-292.247 1697.34,-289.175 1697.63,-296.168"/>
</g>
<!-- 26&#45;&gt;27 -->
<g id="edge18" class="edge"><title>26&#45;&gt;27</title>
<path fill="none" stroke="red" d="M1356.68,-353.239C1361.79,-350.425 1367.55,-347.451 1373,-345.078 1499.51,-289.988 1658.37,-243.839 1721.4,-226.394"/>
<polygon fill="red" stroke="red" points="1722.64,-229.684 1731.36,-223.658 1720.79,-222.934 1722.64,-229.684"/>
</g>
<!-- 16&#45;&gt;5 -->
<g id="edge28" class="edge"><title>16&#45;&gt;5</title>
<path fill="none" stroke="green" d="M865.846,-345.187C859.573,-310.693 845.176,-230.82 834,-163.539 825.879,-114.65 817.055,-56.8681 812.719,-28.1273"/>
<polygon fill="green" stroke="green" points="816.144,-27.3688 811.195,-18.0007 809.222,-28.4101 816.144,-27.3688"/>
</g>
<!-- 16&#45;&gt;12 -->
<g id="edge101" class="edge"><title>16&#45;&gt;12</title>
<path fill="none" stroke="green" d="M854.392,-352.021C838.234,-340.47 811.982,-321.704 793.045,-308.167"/>
<polygon fill="green" stroke="green" points="794.838,-305.147 784.668,-302.179 790.768,-310.841 794.838,-305.147"/>
</g>
<!-- 16&#45;&gt;56 -->
<g id="edge122" class="edge"><title>16&#45;&gt;56</title>
<path fill="none" stroke="red" d="M869.97,-344.822C873.262,-301.812 887.492,-190.422 948,-126.77 976.921,-96.346 1025.28,-82.9478 1055.87,-77.2767"/>
<polygon fill="red" stroke="red" points="1056.61,-80.7011 1065.88,-75.5778 1055.44,-73.7997 1056.61,-80.7011"/>
</g>
<!-- 67&#45;&gt;14 -->
<g id="edge71" class="edge"><title>67&#45;&gt;14</title>
<path fill="none" stroke="green" d="M1491.79,-854.73C1487.14,-845.842 1481.23,-834.526 1475.97,-824.467"/>
<polygon fill="green" stroke="green" points="1478.92,-822.569 1471.19,-815.328 1472.72,-825.812 1478.92,-822.569"/>
</g>
<!-- 58&#45;&gt;27 -->
<g id="edge69" class="edge"><title>58&#45;&gt;27</title>
<path fill="none" stroke="green" d="M1731.45,-272.922C1734.14,-264.637 1737.45,-254.45 1740.47,-245.164"/>
<polygon fill="green" stroke="green" points="1743.83,-246.167 1743.59,-235.575 1737.17,-244.003 1743.83,-246.167"/>
</g>
<!-- 14&#45;&gt;5 -->
<g id="edge22" class="edge"><title>14&#45;&gt;5</title>
<path fill="none" stroke="red" d="M1476.19,-785.797C1565.76,-705.169 2081,-240.399 2081,-218.924 2081,-218.924 2081,-218.924 2081,-144.154 2081,-12.9244 995.591,-9.67124 830.849,-9.93326"/>
<polygon fill="red" stroke="red" points="830.598,-6.43372 820.606,-9.95648 830.614,-13.4337 830.598,-6.43372"/>
</g>
<!-- 14&#45;&gt;56 -->
<g id="edge43" class="edge"><title>14&#45;&gt;56</title>
<path fill="none" stroke="green" d="M1480.9,-793.414C1528.93,-780.833 1657,-739.056 1657,-651.299 1657,-651.299 1657,-651.299 1657,-216.924 1657,-103.419 1228.58,-78.8846 1112.64,-74.3233"/>
<polygon fill="green" stroke="green" points="1112.54,-70.8173 1102.42,-73.9419 1112.28,-77.8125 1112.54,-70.8173"/>
</g>
<!-- 12&#45;&gt;5 -->
<g id="edge100" class="edge"><title>12&#45;&gt;5</title>
<path fill="none" stroke="red" d="M770.751,-272.06C772.69,-232.601 778.963,-134.342 796,-54 797.852,-45.2661 800.742,-35.8036 803.417,-27.8995"/>
<polygon fill="red" stroke="red" points="806.777,-28.8969 806.813,-18.3021 800.178,-26.5618 806.777,-28.8969"/>
</g>
<!-- 27&#45;&gt;5 -->
<g id="edge59" class="edge"><title>27&#45;&gt;5</title>
<path fill="none" stroke="red" d="M1756.03,-200.699C1763.46,-180.724 1771.86,-146.971 1754,-126.77 1690.44,-54.8593 963.847,-17.2588 830.841,-10.9553"/>
<polygon fill="red" stroke="red" points="830.907,-7.45466 820.755,-10.4838 830.581,-14.447 830.907,-7.45466"/>
</g>
<!-- 72 -->
<g id="node73" class="node"><title>72</title>
<ellipse fill="none" stroke="black" cx="1703" cy="-145.154" rx="18.2703" ry="18.2703"/>
<text text-anchor="middle" x="1703" y="-142.954" font-family="Times New Roman,serif" font-size="9.00">72</text>
</g>
<!-- 27&#45;&gt;72 -->
<g id="edge131" class="edge"><title>27&#45;&gt;72</title>
<path fill="none" stroke="red" d="M1739.24,-201.915C1733.15,-192.533 1725.16,-180.251 1718.24,-169.602"/>
<polygon fill="red" stroke="red" points="1721.13,-167.618 1712.74,-161.141 1715.26,-171.433 1721.13,-167.618"/>
</g>
<!-- 27&#45;&gt;56 -->
<g id="edge37" class="edge"><title>27&#45;&gt;56</title>
<path fill="none" stroke="green" d="M1750.91,-199.327C1752.08,-178.611 1750.39,-144.756 1730,-126.77 1683.14,-85.444 1231.48,-75.6437 1112.57,-73.7717"/>
<polygon fill="green" stroke="green" points="1112.48,-70.2701 1102.43,-73.6189 1112.38,-77.2693 1112.48,-70.2701"/>
</g>
<!-- 72&#45;&gt;56 -->
<g id="edge132" class="edge"><title>72&#45;&gt;56</title>
<path fill="none" stroke="green" d="M1687.93,-134.333C1682.76,-131.414 1676.81,-128.529 1671,-126.77 1564.46,-94.4914 1215.02,-78.5184 1112.51,-74.4504"/>
<polygon fill="green" stroke="green" points="1112.44,-70.9451 1102.31,-74.0529 1112.17,-77.9398 1112.44,-70.9451"/>
</g>
<!-- 56&#45;&gt;5 -->
<g id="edge38" class="edge"><title>56&#45;&gt;5</title>
<path fill="none" stroke="red" d="M1068.83,-61.8644C1063.66,-58.966 1057.72,-56.017 1052,-54 973.25,-26.253 873.622,-15.2234 830.949,-11.5608"/>
<polygon fill="red" stroke="red" points="831.178,-8.06807 820.928,-10.7488 830.613,-15.0452 831.178,-8.06807"/>
</g>
</g>
</svg>
