<?xml version="1.0" encoding="UTF-8" standalone="no"?>
<!DOCTYPE svg PUBLIC "-//W3C//DTD SVG 1.1//EN"
 "http://www.w3.org/Graphics/SVG/1.1/DTD/svg11.dtd">
<!-- Generated by graphviz version 2.38.0 (20140413.2041)
 -->
<!-- Title: %3 Pages: 1 -->
<svg width="227pt" height="437pt"
 viewBox="0.00 0.00 226.50 436.78" xmlns="http://www.w3.org/2000/svg" xmlns:xlink="http://www.w3.org/1999/xlink">
<g id="graph0" class="graph" transform="scale(1 1) rotate(0) translate(4 432.777)">
<title>%3</title>
<polygon fill="white" stroke="none" points="-4,4 -4,-432.777 222.5,-432.777 222.5,4 -4,4"/>
<!-- 1 -->
<g id="node1" class="node"><title>1</title>
<polygon fill="lightgray" stroke="black" points="21,-77.8492 0,-77.8492 0,-59.8492 21,-59.8492 21,-77.8492"/>
<text text-anchor="middle" x="10.5" y="-66.6492" font-family="Times New Roman,serif" font-size="9.00">1</text>
</g>
<!-- 5 -->
<g id="node5" class="node"><title>5</title>
<polygon fill="lightblue" stroke="black" points="99,-18 78,-18 78,-0 99,-0 99,-18"/>
<text text-anchor="middle" x="88.5" y="-6.8" font-family="Times New Roman,serif" font-size="9.00">5</text>
</g>
<!-- 1&#45;&gt;5 -->
<g id="edge1" class="edge"><title>1&#45;&gt;5</title>
<path fill="none" stroke="red" d="M21.0194,-60.0474C33.4639,-50.8179 54.415,-35.2794 69.6769,-23.9603"/>
<polygon fill="red" stroke="red" points="71.951,-26.6312 77.8981,-17.863 67.7811,-21.0088 71.951,-26.6312"/>
</g>
<!-- 2 -->
<g id="node2" class="node"><title>2</title>
<polygon fill="lightgray" stroke="black" points="60,-77.8492 39,-77.8492 39,-59.8492 60,-59.8492 60,-77.8492"/>
<text text-anchor="middle" x="49.5" y="-66.6492" font-family="Times New Roman,serif" font-size="9.00">2</text>
</g>
<!-- 2&#45;&gt;5 -->
<g id="edge2" class="edge"><title>2&#45;&gt;5</title>
<path fill="none" stroke="green" d="M54.9228,-59.8056C60.6785,-51.268 69.9379,-37.5334 77.2768,-26.6475"/>
<polygon fill="green" stroke="green" points="80.1828,-28.5982 82.8707,-18.35 74.3786,-24.6852 80.1828,-28.5982"/>
</g>
<!-- 3 -->
<g id="node3" class="node"><title>3</title>
<polygon fill="lightgray" stroke="black" points="143,-428.777 122,-428.777 122,-410.777 143,-410.777 143,-428.777"/>
<text text-anchor="middle" x="132.5" y="-417.577" font-family="Times New Roman,serif" font-size="9.00">3</text>
</g>
<!-- 3&#45;&gt;5 -->
<g id="edge5" class="edge"><title>3&#45;&gt;5</title>
<path fill="none" stroke="green" d="M127.791,-410.609C116.44,-390.125 88.5,-334.626 88.5,-284.622 88.5,-284.622 88.5,-284.622 88.5,-137.083 88.5,-98.2281 88.5,-52.6906 88.5,-28.0527"/>
<polygon fill="green" stroke="green" points="92.0001,-28.029 88.5,-18.029 85.0001,-28.029 92.0001,-28.029"/>
</g>
<!-- 10 -->
<g id="node6" class="node"><title>10</title>
<ellipse fill="none" stroke="black" cx="153.5" cy="-356.392" rx="18.2703" ry="18.2703"/>
<text text-anchor="middle" x="153.5" y="-354.192" font-family="Times New Roman,serif" font-size="9.00">10</text>
</g>
<!-- 3&#45;&gt;10 -->
<g id="edge6" class="edge"><title>3&#45;&gt;10</title>
<path fill="none" stroke="green" d="M135.245,-410.752C137.63,-403.781 141.221,-393.285 144.588,-383.442"/>
<polygon fill="green" stroke="green" points="147.903,-384.565 147.828,-373.971 141.28,-382.299 147.903,-384.565"/>
</g>
<!-- 4 -->
<g id="node4" class="node"><title>4</title>
<polygon fill="lightgray" stroke="black" points="185,-428.777 164,-428.777 164,-410.777 185,-410.777 185,-428.777"/>
<text text-anchor="middle" x="174.5" y="-417.577" font-family="Times New Roman,serif" font-size="9.00">4</text>
</g>
<!-- 4&#45;&gt;5 -->
<g id="edge3" class="edge"><title>4&#45;&gt;5</title>
<path fill="none" stroke="green" d="M179.209,-410.609C190.56,-390.125 218.5,-334.626 218.5,-284.622 218.5,-284.622 218.5,-284.622 218.5,-137.083 218.5,-76.2106 144.713,-34.9278 108.319,-18.2682"/>
<polygon fill="green" stroke="green" points="109.701,-15.0524 99.1384,-14.2265 106.881,-21.4591 109.701,-15.0524"/>
</g>
<!-- 4&#45;&gt;10 -->
<g id="edge7" class="edge"><title>4&#45;&gt;10</title>
<path fill="none" stroke="green" d="M171.755,-410.752C169.37,-403.781 165.779,-393.285 162.412,-383.442"/>
<polygon fill="green" stroke="green" points="165.72,-382.299 159.172,-373.971 159.097,-384.565 165.72,-382.299"/>
</g>
<!-- 13 -->
<g id="node7" class="node"><title>13</title>
<ellipse fill="none" stroke="black" cx="153.5" cy="-283.622" rx="18.2703" ry="18.2703"/>
<text text-anchor="middle" x="153.5" y="-281.422" font-family="Times New Roman,serif" font-size="9.00">13</text>
</g>
<!-- 10&#45;&gt;13 -->
<g id="edge8" class="edge"><title>10&#45;&gt;13</title>
<path fill="none" stroke="green" d="M153.5,-337.898C153.5,-330.216 153.5,-321.007 153.5,-312.423"/>
<polygon fill="green" stroke="green" points="157,-312.406 153.5,-302.406 150,-312.406 157,-312.406"/>
</g>
<!-- 19 -->
<g id="node8" class="node"><title>19</title>
<ellipse fill="none" stroke="black" cx="134.5" cy="-210.853" rx="18.2703" ry="18.2703"/>
<text text-anchor="middle" x="134.5" y="-208.653" font-family="Times New Roman,serif" font-size="9.00">19</text>
</g>
<!-- 13&#45;&gt;19 -->
<g id="edge11" class="edge"><title>13&#45;&gt;19</title>
<path fill="none" stroke="red" d="M148.901,-265.491C146.73,-257.407 144.09,-247.572 141.666,-238.543"/>
<polygon fill="red" stroke="red" points="145.03,-237.577 139.057,-228.826 138.27,-239.392 145.03,-237.577"/>
</g>
<!-- 8 -->
<g id="node10" class="node"><title>8</title>
<ellipse fill="none" stroke="black" cx="134.5" cy="-68.8492" rx="14.7" ry="14.7"/>
<text text-anchor="middle" x="134.5" y="-66.6492" font-family="Times New Roman,serif" font-size="9.00">8</text>
</g>
<!-- 13&#45;&gt;8 -->
<g id="edge9" class="edge"><title>13&#45;&gt;8</title>
<path fill="none" stroke="red" d="M157.559,-265.646C164.022,-235.659 174.649,-171.582 161.5,-119.698 158.872,-109.329 153.609,-98.779 148.422,-90.0709"/>
<polygon fill="red" stroke="red" points="151.261,-88.0128 142.951,-81.4404 145.349,-91.7604 151.261,-88.0128"/>
</g>
<!-- 17 -->
<g id="node9" class="node"><title>17</title>
<ellipse fill="none" stroke="black" cx="134.5" cy="-138.083" rx="18.2703" ry="18.2703"/>
<text text-anchor="middle" x="134.5" y="-135.883" font-family="Times New Roman,serif" font-size="9.00">17</text>
</g>
<!-- 19&#45;&gt;17 -->
<g id="edge12" class="edge"><title>19&#45;&gt;17</title>
<path fill="none" stroke="red" d="M134.5,-192.359C134.5,-184.677 134.5,-175.468 134.5,-166.884"/>
<polygon fill="red" stroke="red" points="138,-166.867 134.5,-156.867 131,-166.867 138,-166.867"/>
</g>
<!-- 17&#45;&gt;8 -->
<g id="edge10" class="edge"><title>17&#45;&gt;8</title>
<path fill="none" stroke="red" d="M134.5,-119.418C134.5,-111.735 134.5,-102.605 134.5,-94.2874"/>
<polygon fill="red" stroke="red" points="138,-94.0103 134.5,-84.0103 131,-94.0103 138,-94.0103"/>
</g>
<!-- 8&#45;&gt;5 -->
<g id="edge4" class="edge"><title>8&#45;&gt;5</title>
<path fill="none" stroke="red" d="M125.631,-56.6953C118.755,-48.048 109.128,-35.941 101.399,-26.2218"/>
<polygon fill="red" stroke="red" points="103.932,-23.7839 94.9688,-18.1351 98.4532,-28.1406 103.932,-23.7839"/>
</g>
</g>
</svg>
