<?xml version="1.0" encoding="UTF-8" standalone="no"?>
<!DOCTYPE svg PUBLIC "-//W3C//DTD SVG 1.1//EN"
 "http://www.w3.org/Graphics/SVG/1.1/DTD/svg11.dtd">
<!-- Generated by graphviz version 2.38.0 (20140413.2041)
 -->
<!-- Title: %3 Pages: 1 -->
<svg width="187pt" height="291pt"
 viewBox="0.00 0.00 187.01 291.24" xmlns="http://www.w3.org/2000/svg" xmlns:xlink="http://www.w3.org/1999/xlink">
<g id="graph0" class="graph" transform="scale(1 1) rotate(0) translate(4 287.238)">
<title>%3</title>
<polygon fill="white" stroke="none" points="-4,4 -4,-287.238 183.014,-287.238 183.014,4 -4,4"/>
<!-- 1 -->
<g id="node1" class="node"><title>1</title>
<polygon fill="lightgray" stroke="black" points="21,-77.8492 0,-77.8492 0,-59.8492 21,-59.8492 21,-77.8492"/>
<text text-anchor="middle" x="10.5" y="-66.6492" font-family="Times New Roman,serif" font-size="9.00">1</text>
</g>
<!-- 5 -->
<g id="node5" class="node"><title>5</title>
<polygon fill="lightblue" stroke="black" points="99,-18 78,-18 78,-0 99,-0 99,-18"/>
<text text-anchor="middle" x="88.5" y="-6.8" font-family="Times New Roman,serif" font-size="9.00">5</text>
</g>
<!-- 1&#45;&gt;5 -->
<g id="edge1" class="edge"><title>1&#45;&gt;5</title>
<path fill="none" stroke="green" d="M21.0194,-60.0474C33.4639,-50.8179 54.415,-35.2794 69.6769,-23.9603"/>
<polygon fill="green" stroke="green" points="71.951,-26.6312 77.8981,-17.863 67.7811,-21.0088 71.951,-26.6312"/>
</g>
<!-- 2 -->
<g id="node2" class="node"><title>2</title>
<polygon fill="lightgray" stroke="black" points="60,-77.8492 39,-77.8492 39,-59.8492 60,-59.8492 60,-77.8492"/>
<text text-anchor="middle" x="49.5" y="-66.6492" font-family="Times New Roman,serif" font-size="9.00">2</text>
</g>
<!-- 2&#45;&gt;5 -->
<g id="edge2" class="edge"><title>2&#45;&gt;5</title>
<path fill="none" stroke="green" d="M54.9228,-59.8056C60.6785,-51.268 69.9379,-37.5334 77.2768,-26.6475"/>
<polygon fill="green" stroke="green" points="80.1828,-28.5982 82.8707,-18.35 74.3786,-24.6852 80.1828,-28.5982"/>
</g>
<!-- 3 -->
<g id="node3" class="node"><title>3</title>
<polygon fill="lightgray" stroke="black" points="124,-283.238 103,-283.238 103,-265.238 124,-265.238 124,-283.238"/>
<text text-anchor="middle" x="113.5" y="-272.038" font-family="Times New Roman,serif" font-size="9.00">3</text>
</g>
<!-- 3&#45;&gt;5 -->
<g id="edge5" class="edge"><title>3&#45;&gt;5</title>
<path fill="none" stroke="green" d="M112.275,-265.143C110.969,-256.327 108.9,-241.804 107.5,-229.238 99.2167,-154.912 92.492,-66.0669 89.7854,-28.3641"/>
<polygon fill="green" stroke="green" points="93.276,-28.1052 89.0772,-18.3779 86.2935,-28.6004 93.276,-28.1052"/>
</g>
<!-- 10 -->
<g id="node6" class="node"><title>10</title>
<ellipse fill="none" stroke="black" cx="134.5" cy="-210.853" rx="18.2703" ry="18.2703"/>
<text text-anchor="middle" x="134.5" y="-208.653" font-family="Times New Roman,serif" font-size="9.00">10</text>
</g>
<!-- 3&#45;&gt;10 -->
<g id="edge6" class="edge"><title>3&#45;&gt;10</title>
<path fill="none" stroke="red" d="M116.245,-265.213C118.63,-258.242 122.221,-247.746 125.588,-237.903"/>
<polygon fill="red" stroke="red" points="128.903,-239.026 128.828,-228.432 122.28,-236.76 128.903,-239.026"/>
</g>
<!-- 4 -->
<g id="node4" class="node"><title>4</title>
<polygon fill="lightgray" stroke="black" points="166,-283.238 145,-283.238 145,-265.238 166,-265.238 166,-283.238"/>
<text text-anchor="middle" x="155.5" y="-272.038" font-family="Times New Roman,serif" font-size="9.00">4</text>
</g>
<!-- 4&#45;&gt;5 -->
<g id="edge3" class="edge"><title>4&#45;&gt;5</title>
<path fill="none" stroke="green" d="M158.401,-264.907C168.545,-234.212 199.589,-125.512 157.5,-54 146.741,-35.7198 125.063,-23.7964 108.862,-17.0326"/>
<polygon fill="green" stroke="green" points="109.766,-13.6308 99.1754,-13.318 107.259,-20.1667 109.766,-13.6308"/>
</g>
<!-- 4&#45;&gt;10 -->
<g id="edge7" class="edge"><title>4&#45;&gt;10</title>
<path fill="none" stroke="red" d="M152.755,-265.213C150.37,-258.242 146.779,-247.746 143.412,-237.903"/>
<polygon fill="red" stroke="red" points="146.72,-236.76 140.172,-228.432 140.097,-239.026 146.72,-236.76"/>
</g>
<!-- 13 -->
<g id="node7" class="node"><title>13</title>
<ellipse fill="none" stroke="black" cx="134.5" cy="-138.083" rx="18.2703" ry="18.2703"/>
<text text-anchor="middle" x="134.5" y="-135.883" font-family="Times New Roman,serif" font-size="9.00">13</text>
</g>
<!-- 10&#45;&gt;13 -->
<g id="edge8" class="edge"><title>10&#45;&gt;13</title>
<path fill="none" stroke="green" d="M134.5,-192.359C134.5,-184.677 134.5,-175.468 134.5,-166.884"/>
<polygon fill="green" stroke="green" points="138,-166.867 134.5,-156.867 131,-166.867 138,-166.867"/>
</g>
<!-- 8 -->
<g id="node8" class="node"><title>8</title>
<ellipse fill="none" stroke="black" cx="133.5" cy="-68.8492" rx="14.7" ry="14.7"/>
<text text-anchor="middle" x="133.5" y="-66.6492" font-family="Times New Roman,serif" font-size="9.00">8</text>
</g>
<!-- 13&#45;&gt;8 -->
<g id="edge9" class="edge"><title>13&#45;&gt;8</title>
<path fill="none" stroke="green" d="M134.237,-119.418C134.123,-111.735 133.987,-102.605 133.863,-94.2874"/>
<polygon fill="green" stroke="green" points="137.359,-93.9571 133.711,-84.0103 130.36,-94.0613 137.359,-93.9571"/>
</g>
<!-- 8&#45;&gt;5 -->
<g id="edge4" class="edge"><title>8&#45;&gt;5</title>
<path fill="none" stroke="red" d="M124.824,-56.6953C118.097,-48.048 108.679,-35.941 101.119,-26.2218"/>
<polygon fill="red" stroke="red" points="103.731,-23.8793 94.8282,-18.1351 98.2056,-28.1772 103.731,-23.8793"/>
</g>
</g>
</svg>
