<?xml version="1.0" encoding="UTF-8" standalone="no"?>
<!DOCTYPE svg PUBLIC "-//W3C//DTD SVG 1.1//EN"
 "http://www.w3.org/Graphics/SVG/1.1/DTD/svg11.dtd">
<!-- Generated by graphviz version 2.38.0 (20140413.2041)
 -->
<!-- Title: %3 Pages: 1 -->
<svg width="778pt" height="735pt"
 viewBox="0.00 0.00 778.00 734.93" xmlns="http://www.w3.org/2000/svg" xmlns:xlink="http://www.w3.org/1999/xlink">
<g id="graph0" class="graph" transform="scale(1 1) rotate(0) translate(4 730.926)">
<title>%3</title>
<polygon fill="white" stroke="none" points="-4,4 -4,-730.926 774,-730.926 774,4 -4,4"/>
<!-- 1 -->
<g id="node1" class="node"><title>1</title>
<polygon fill="lightgray" stroke="black" points="590.5,-663.541 569.5,-663.541 569.5,-645.541 590.5,-645.541 590.5,-663.541"/>
<text text-anchor="middle" x="580" y="-652.341" font-family="Times New Roman,serif" font-size="9.00">1</text>
</g>
<!-- 5 -->
<g id="node5" class="node"><title>5</title>
<polygon fill="lightblue" stroke="black" points="384.5,-18 363.5,-18 363.5,-0 384.5,-0 384.5,-18"/>
<text text-anchor="middle" x="374" y="-6.8" font-family="Times New Roman,serif" font-size="9.00">5</text>
</g>
<!-- 1&#45;&gt;5 -->
<g id="edge1" class="edge"><title>1&#45;&gt;5</title>
<path fill="none" stroke="green" d="M585.232,-645.342C611.96,-602.649 732,-400.778 732,-218.924 732,-218.924 732,-218.924 732,-144.154 732,-71.7098 471.693,-25.268 395.012,-13.1589"/>
<polygon fill="green" stroke="green" points="395.132,-9.63593 384.714,-11.5666 394.062,-16.5537 395.132,-9.63593"/>
</g>
<!-- 36 -->
<g id="node8" class="node"><title>36</title>
<ellipse fill="none" stroke="black" cx="496" cy="-581.772" rx="18.2703" ry="18.2703"/>
<text text-anchor="middle" x="496" y="-579.572" font-family="Times New Roman,serif" font-size="9.00">36</text>
</g>
<!-- 1&#45;&gt;36 -->
<g id="edge40" class="edge"><title>1&#45;&gt;36</title>
<path fill="none" stroke="red" d="M570.364,-645.423C557.55,-634.628 534.539,-615.241 517.496,-600.882"/>
<polygon fill="red" stroke="red" points="519.583,-598.063 509.68,-594.297 515.073,-603.417 519.583,-598.063"/>
</g>
<!-- 10 -->
<g id="node10" class="node"><title>10</title>
<ellipse fill="none" stroke="black" cx="496" cy="-509.002" rx="18.2703" ry="18.2703"/>
<text text-anchor="middle" x="496" y="-506.802" font-family="Times New Roman,serif" font-size="9.00">10</text>
</g>
<!-- 1&#45;&gt;10 -->
<g id="edge12" class="edge"><title>1&#45;&gt;10</title>
<path fill="none" stroke="green" d="M575.243,-645.413C562.924,-624.361 529.598,-567.415 510.315,-534.463"/>
<polygon fill="green" stroke="green" points="513.12,-532.326 505.048,-525.463 507.078,-535.862 513.12,-532.326"/>
</g>
<!-- 8 -->
<g id="node22" class="node"><title>8</title>
<ellipse fill="none" stroke="black" cx="545" cy="-72.3848" rx="14.7" ry="14.7"/>
<text text-anchor="middle" x="545" y="-70.1848" font-family="Times New Roman,serif" font-size="9.00">8</text>
</g>
<!-- 1&#45;&gt;8 -->
<g id="edge9" class="edge"><title>1&#45;&gt;8</title>
<path fill="none" stroke="green" d="M577.883,-645.456C567.899,-606.585 526,-434.923 526,-291.693 526,-291.693 526,-291.693 526,-216.924 526,-174.538 534.243,-125.716 539.87,-97.3244"/>
<polygon fill="green" stroke="green" points="543.374,-97.6593 541.947,-87.161 536.516,-96.2576 543.374,-97.6593"/>
</g>
<!-- 2 -->
<g id="node2" class="node"><title>2</title>
<polygon fill="lightgray" stroke="black" points="608.5,-726.926 587.5,-726.926 587.5,-708.926 608.5,-708.926 608.5,-726.926"/>
<text text-anchor="middle" x="598" y="-715.726" font-family="Times New Roman,serif" font-size="9.00">2</text>
</g>
<!-- 2&#45;&gt;5 -->
<g id="edge2" class="edge"><title>2&#45;&gt;5</title>
<path fill="none" stroke="green" d="M608.539,-715.136C630.065,-711.03 679.766,-699.192 712,-672.926 748.935,-642.829 770,-630.416 770,-582.772 770,-582.772 770,-582.772 770,-144.154 770,-78.155 712.668,-79.9863 652,-54 561.953,-15.4299 442.458,-10.2854 394.856,-9.86833"/>
<polygon fill="green" stroke="green" points="394.611,-6.36787 384.604,-9.8455 394.596,-13.3679 394.611,-6.36787"/>
</g>
<!-- 32 -->
<g id="node6" class="node"><title>32</title>
<ellipse fill="none" stroke="black" cx="495" cy="-654.541" rx="18.2703" ry="18.2703"/>
<text text-anchor="middle" x="495" y="-652.341" font-family="Times New Roman,serif" font-size="9.00">32</text>
</g>
<!-- 2&#45;&gt;32 -->
<g id="edge29" class="edge"><title>2&#45;&gt;32</title>
<path fill="none" stroke="green" d="M587.365,-710.588C571.354,-701.046 540.637,-682.739 519.034,-669.864"/>
<polygon fill="green" stroke="green" points="520.785,-666.834 510.403,-664.721 517.201,-672.847 520.785,-666.834"/>
</g>
<!-- 2&#45;&gt;36 -->
<g id="edge38" class="edge"><title>2&#45;&gt;36</title>
<path fill="none" stroke="red" d="M590.473,-708.691C582.625,-699.996 570.088,-685.795 560,-672.926 542.598,-650.727 524.086,-624.306 511.472,-605.826"/>
<polygon fill="red" stroke="red" points="514.296,-603.754 505.784,-597.445 508.504,-607.685 514.296,-603.754"/>
</g>
<!-- 15 -->
<g id="node11" class="node"><title>15</title>
<ellipse fill="none" stroke="black" cx="312" cy="-509.002" rx="18.2703" ry="18.2703"/>
<text text-anchor="middle" x="312" y="-506.802" font-family="Times New Roman,serif" font-size="9.00">15</text>
</g>
<!-- 2&#45;&gt;15 -->
<g id="edge10" class="edge"><title>2&#45;&gt;15</title>
<path fill="none" stroke="green" d="M587.392,-717.201C537.15,-718.258 323.865,-719.896 283,-672.926 249.043,-633.896 277.205,-569.163 296.898,-534.197"/>
<polygon fill="green" stroke="green" points="300.149,-535.571 302.169,-525.171 294.104,-532.041 300.149,-535.571"/>
</g>
<!-- 13 -->
<g id="node15" class="node"><title>13</title>
<ellipse fill="none" stroke="black" cx="594" cy="-436.233" rx="18.2703" ry="18.2703"/>
<text text-anchor="middle" x="594" y="-434.033" font-family="Times New Roman,serif" font-size="9.00">13</text>
</g>
<!-- 2&#45;&gt;13 -->
<g id="edge16" class="edge"><title>2&#45;&gt;13</title>
<path fill="none" stroke="green" d="M598.239,-708.817C598.487,-699.99 598.858,-685.456 599,-672.926 599.855,-597.658 596.901,-508.891 595.17,-464.869"/>
<polygon fill="green" stroke="green" points="598.659,-464.527 594.759,-454.676 591.664,-464.809 598.659,-464.527"/>
</g>
<!-- 34 -->
<g id="node16" class="node"><title>34</title>
<ellipse fill="none" stroke="black" cx="122" cy="-436.233" rx="18.2703" ry="18.2703"/>
<text text-anchor="middle" x="122" y="-434.033" font-family="Times New Roman,serif" font-size="9.00">34</text>
</g>
<!-- 2&#45;&gt;34 -->
<g id="edge47" class="edge"><title>2&#45;&gt;34</title>
<path fill="none" stroke="green" d="M587.409,-716.477C537.154,-714.203 322.749,-702.878 264,-672.926 186.467,-633.397 167.972,-607.079 133,-527.387 124.313,-507.592 121.776,-483.144 121.293,-464.703"/>
<polygon fill="green" stroke="green" points="124.792,-464.592 121.215,-454.62 117.792,-464.646 124.792,-464.592"/>
</g>
<!-- 17 -->
<g id="node19" class="node"><title>17</title>
<ellipse fill="none" stroke="black" cx="610" cy="-217.924" rx="18.2703" ry="18.2703"/>
<text text-anchor="middle" x="610" y="-215.724" font-family="Times New Roman,serif" font-size="9.00">17</text>
</g>
<!-- 2&#45;&gt;17 -->
<g id="edge18" class="edge"><title>2&#45;&gt;17</title>
<path fill="none" stroke="green" d="M608.64,-709.532C633.635,-691.201 694,-640.91 694,-582.772 694,-582.772 694,-582.772 694,-508.002 694,-400.23 674.235,-373.445 637,-272.309 633.416,-262.574 628.519,-252.31 623.879,-243.411"/>
<polygon fill="green" stroke="green" points="626.84,-241.527 619.019,-234.379 620.676,-244.844 626.84,-241.527"/>
</g>
<!-- 2&#45;&gt;8 -->
<g id="edge22" class="edge"><title>2&#45;&gt;8</title>
<path fill="none" stroke="green" d="M608.594,-713.299C625.247,-707.169 657.829,-693.392 679,-672.926 712.418,-640.621 732,-629.251 732,-582.772 732,-582.772 732,-582.772 732,-435.233 732,-291.783 726.292,-239.04 637,-126.77 619.219,-104.413 589.336,-89.5826 568.468,-81.3458"/>
<polygon fill="green" stroke="green" points="569.633,-78.0448 559.04,-77.8278 567.186,-84.6031 569.633,-78.0448"/>
</g>
<!-- 3 -->
<g id="node3" class="node"><title>3</title>
<polygon fill="lightgray" stroke="black" points="313.5,-663.541 292.5,-663.541 292.5,-645.541 313.5,-645.541 313.5,-663.541"/>
<text text-anchor="middle" x="303" y="-652.341" font-family="Times New Roman,serif" font-size="9.00">3</text>
</g>
<!-- 3&#45;&gt;5 -->
<g id="edge4" class="edge"><title>3&#45;&gt;5</title>
<path fill="none" stroke="green" d="M305.527,-645.511C318.175,-605.046 374,-423.118 374,-364.463 374,-364.463 374,-364.463 374,-144.154 374,-102.75 374,-54.1569 374,-28.3258"/>
<polygon fill="green" stroke="green" points="377.5,-28.1667 374,-18.1667 370.5,-28.1668 377.5,-28.1667"/>
</g>
<!-- 35 -->
<g id="node9" class="node"><title>35</title>
<ellipse fill="none" stroke="black" cx="441" cy="-581.772" rx="18.2703" ry="18.2703"/>
<text text-anchor="middle" x="441" y="-579.572" font-family="Times New Roman,serif" font-size="9.00">35</text>
</g>
<!-- 3&#45;&gt;35 -->
<g id="edge50" class="edge"><title>3&#45;&gt;35</title>
<path fill="none" stroke="green" d="M313.806,-648.749C333.736,-639.812 377.492,-619.727 413,-600.156 414.315,-599.431 415.655,-598.672 417.001,-597.894"/>
<polygon fill="green" stroke="green" points="418.997,-600.778 425.766,-592.628 415.392,-594.778 418.997,-600.778"/>
</g>
<!-- 18 -->
<g id="node13" class="node"><title>18</title>
<ellipse fill="none" stroke="black" cx="404" cy="-509.002" rx="18.2703" ry="18.2703"/>
<text text-anchor="middle" x="404" y="-506.802" font-family="Times New Roman,serif" font-size="9.00">18</text>
</g>
<!-- 3&#45;&gt;18 -->
<g id="edge25" class="edge"><title>3&#45;&gt;18</title>
<path fill="none" stroke="red" d="M307.567,-645.328C316.666,-629.17 337.995,-592.31 359,-563.387 367.124,-552.199 376.943,-540.383 385.332,-530.72"/>
<polygon fill="red" stroke="red" points="387.997,-532.989 391.975,-523.169 382.742,-528.365 387.997,-532.989"/>
</g>
<!-- 7 -->
<g id="node23" class="node"><title>7</title>
<ellipse fill="none" stroke="black" cx="99" cy="-363.463" rx="14.7" ry="14.7"/>
<text text-anchor="middle" x="99" y="-361.263" font-family="Times New Roman,serif" font-size="9.00">7</text>
</g>
<!-- 3&#45;&gt;7 -->
<g id="edge15" class="edge"><title>3&#45;&gt;7</title>
<path fill="none" stroke="red" d="M292.259,-650.556C257.559,-640.279 148.107,-602.776 103,-527.387 76.9142,-483.788 85.4552,-421.193 92.8807,-387.702"/>
<polygon fill="red" stroke="red" points="96.3003,-388.45 95.2071,-377.911 89.49,-386.831 96.3003,-388.45"/>
</g>
<!-- 14 -->
<g id="node27" class="node"><title>14</title>
<ellipse fill="none" stroke="black" cx="99" cy="-217.924" rx="18.2703" ry="18.2703"/>
<text text-anchor="middle" x="99" y="-215.724" font-family="Times New Roman,serif" font-size="9.00">14</text>
</g>
<!-- 3&#45;&gt;14 -->
<g id="edge37" class="edge"><title>3&#45;&gt;14</title>
<path fill="none" stroke="red" d="M292.216,-653.519C238.24,-652.799 0,-642.135 0,-510.002 0,-510.002 0,-510.002 0,-362.463 0,-309.011 47.0967,-261.009 76.3223,-236.367"/>
<polygon fill="red" stroke="red" points="78.8654,-238.809 84.3922,-229.769 74.4348,-233.389 78.8654,-238.809"/>
</g>
<!-- 4 -->
<g id="node4" class="node"><title>4</title>
<polygon fill="lightgray" stroke="black" points="225.5,-590.772 204.5,-590.772 204.5,-572.772 225.5,-572.772 225.5,-590.772"/>
<text text-anchor="middle" x="215" y="-579.572" font-family="Times New Roman,serif" font-size="9.00">4</text>
</g>
<!-- 4&#45;&gt;5 -->
<g id="edge3" class="edge"><title>4&#45;&gt;5</title>
<path fill="none" stroke="green" d="M220.705,-572.559C239.457,-544.734 298,-450.943 298,-364.463 298,-364.463 298,-364.463 298,-144.154 298,-95.785 335.864,-48.8606 358.14,-25.4394"/>
<polygon fill="green" stroke="green" points="360.77,-27.7573 365.282,-18.1714 355.777,-22.8512 360.77,-27.7573"/>
</g>
<!-- 4&#45;&gt;10 -->
<g id="edge5" class="edge"><title>4&#45;&gt;10</title>
<path fill="none" stroke="red" d="M225.806,-578.178C257.418,-570.574 352.439,-547.599 431,-527.387 443.299,-524.223 456.875,-520.61 468.425,-517.502"/>
<polygon fill="red" stroke="red" points="469.627,-520.802 478.368,-514.815 467.801,-514.045 469.627,-520.802"/>
</g>
<!-- 23 -->
<g id="node12" class="node"><title>23</title>
<ellipse fill="none" stroke="black" cx="160" cy="-509.002" rx="18.2703" ry="18.2703"/>
<text text-anchor="middle" x="160" y="-506.802" font-family="Times New Roman,serif" font-size="9.00">23</text>
</g>
<!-- 4&#45;&gt;23 -->
<g id="edge13" class="edge"><title>4&#45;&gt;23</title>
<path fill="none" stroke="green" d="M208.691,-572.653C201.073,-562.852 187.952,-545.968 177.248,-532.196"/>
<polygon fill="green" stroke="green" points="179.867,-529.862 170.967,-524.114 174.34,-534.157 179.867,-529.862"/>
</g>
<!-- 4&#45;&gt;18 -->
<g id="edge23" class="edge"><title>4&#45;&gt;18</title>
<path fill="none" stroke="green" d="M225.703,-576.764C254.632,-565.932 335.039,-535.824 377.287,-520.005"/>
<polygon fill="green" stroke="green" points="378.771,-523.186 386.909,-516.402 376.316,-516.631 378.771,-523.186"/>
</g>
<!-- 4&#45;&gt;7 -->
<g id="edge26" class="edge"><title>4&#45;&gt;7</title>
<path fill="none" stroke="red" d="M204.453,-576.098C187.544,-568.169 154.132,-550.648 133,-527.387 108.466,-500.381 103.695,-490.052 95,-454.617 91.1056,-438.746 94.389,-434.178 95,-417.848 95.3596,-408.235 96.0823,-397.669 96.8156,-388.492"/>
<polygon fill="red" stroke="red" points="100.306,-388.756 97.6604,-378.497 93.3306,-388.167 100.306,-388.756"/>
</g>
<!-- 27 -->
<g id="node28" class="node"><title>27</title>
<ellipse fill="none" stroke="black" cx="252" cy="-145.154" rx="18.2703" ry="18.2703"/>
<text text-anchor="middle" x="252" y="-142.954" font-family="Times New Roman,serif" font-size="9.00">27</text>
</g>
<!-- 4&#45;&gt;27 -->
<g id="edge17" class="edge"><title>4&#45;&gt;27</title>
<path fill="none" stroke="green" d="M214.137,-572.689C211.884,-550.868 206,-488.918 206,-437.233 206,-437.233 206,-437.233 206,-289.693 206,-248.745 211.422,-238.171 225,-199.539 228.44,-189.753 233.305,-179.477 237.96,-170.583"/>
<polygon fill="green" stroke="green" points="241.161,-172.022 242.851,-161.563 235.007,-168.685 241.161,-172.022"/>
</g>
<!-- 29 -->
<g id="node7" class="node"><title>29</title>
<ellipse fill="none" stroke="black" cx="386" cy="-581.772" rx="18.2703" ry="18.2703"/>
<text text-anchor="middle" x="386" y="-579.572" font-family="Times New Roman,serif" font-size="9.00">29</text>
</g>
<!-- 32&#45;&gt;29 -->
<g id="edge30" class="edge"><title>32&#45;&gt;29</title>
<path fill="none" stroke="red" d="M479.844,-643.701C461.622,-631.87 430.837,-611.882 409.519,-598.042"/>
<polygon fill="red" stroke="red" points="411.32,-595.038 401.027,-592.528 407.509,-600.909 411.32,-595.038"/>
</g>
<!-- 32&#45;&gt;36 -->
<g id="edge44" class="edge"><title>32&#45;&gt;36</title>
<path fill="none" stroke="green" d="M495.247,-636.048C495.356,-628.365 495.486,-619.156 495.607,-610.572"/>
<polygon fill="green" stroke="green" points="499.107,-610.604 495.749,-600.556 492.108,-610.505 499.107,-610.604"/>
</g>
<!-- 29&#45;&gt;5 -->
<g id="edge28" class="edge"><title>29&#45;&gt;5</title>
<path fill="none" stroke="green" d="M399.983,-569.282C410.767,-559.448 424.845,-544.238 431,-527.387 436.607,-512.037 431.802,-506.94 431,-490.617 421.433,-295.861 427.333,-244.983 388,-54 386.199,-45.2554 383.315,-35.7915 380.632,-27.8893"/>
<polygon fill="green" stroke="green" points="383.868,-26.5431 377.217,-18.2958 377.273,-28.8905 383.868,-26.5431"/>
</g>
<!-- 29&#45;&gt;10 -->
<g id="edge31" class="edge"><title>29&#45;&gt;10</title>
<path fill="none" stroke="red" d="M401.295,-570.931C419.684,-559.101 450.752,-539.113 472.265,-525.272"/>
<polygon fill="red" stroke="red" points="474.319,-528.113 480.835,-519.759 470.531,-522.226 474.319,-528.113"/>
</g>
<!-- 29&#45;&gt;15 -->
<g id="edge27" class="edge"><title>29&#45;&gt;15</title>
<path fill="none" stroke="green" d="M373.11,-568.445C362,-557.819 345.752,-542.28 332.802,-529.896"/>
<polygon fill="green" stroke="green" points="334.887,-527.047 325.24,-522.664 330.048,-532.106 334.887,-527.047"/>
</g>
<!-- 36&#45;&gt;10 -->
<g id="edge39" class="edge"><title>36&#45;&gt;10</title>
<path fill="none" stroke="green" d="M496,-563.278C496,-555.596 496,-546.387 496,-537.802"/>
<polygon fill="green" stroke="green" points="499.5,-537.786 496,-527.786 492.5,-537.786 499.5,-537.786"/>
</g>
<!-- 35&#45;&gt;10 -->
<g id="edge51" class="edge"><title>35&#45;&gt;10</title>
<path fill="none" stroke="green" d="M451.866,-566.79C459.55,-556.903 470.009,-543.446 478.816,-532.113"/>
<polygon fill="green" stroke="green" points="481.783,-533.998 485.156,-523.955 476.256,-529.703 481.783,-533.998"/>
</g>
<!-- 10&#45;&gt;13 -->
<g id="edge6" class="edge"><title>10&#45;&gt;13</title>
<path fill="none" stroke="red" d="M510.46,-497.56C526.456,-486.009 552.442,-467.243 571.187,-453.706"/>
<polygon fill="red" stroke="red" points="573.422,-456.41 579.48,-447.718 569.324,-450.735 573.422,-456.41"/>
</g>
<!-- 55 -->
<g id="node14" class="node"><title>55</title>
<ellipse fill="none" stroke="black" cx="252" cy="-436.233" rx="18.2703" ry="18.2703"/>
<text text-anchor="middle" x="252" y="-434.033" font-family="Times New Roman,serif" font-size="9.00">55</text>
</g>
<!-- 15&#45;&gt;55 -->
<g id="edge35" class="edge"><title>15&#45;&gt;55</title>
<path fill="none" stroke="red" d="M300.431,-494.357C291.882,-484.273 280.072,-470.343 270.254,-458.763"/>
<polygon fill="red" stroke="red" points="272.67,-456.2 263.533,-450.836 267.33,-460.727 272.67,-456.2"/>
</g>
<!-- 15&#45;&gt;8 -->
<g id="edge14" class="edge"><title>15&#45;&gt;8</title>
<path fill="none" stroke="green" d="M317.754,-491.403C337.258,-436.4 404.656,-256.255 494,-126.77 503.397,-113.15 516.286,-99.6912 526.755,-89.6942"/>
<polygon fill="green" stroke="green" points="529.252,-92.152 534.191,-82.779 524.485,-87.0259 529.252,-92.152"/>
</g>
<!-- 15&#45;&gt;7 -->
<g id="edge11" class="edge"><title>15&#45;&gt;7</title>
<path fill="none" stroke="red" d="M296.391,-498.877C278.817,-488.498 249.514,-470.879 225,-454.617 186.671,-429.191 143.328,-397.508 118.772,-379.271"/>
<polygon fill="red" stroke="red" points="120.729,-376.364 110.618,-373.197 116.547,-381.978 120.729,-376.364"/>
</g>
<!-- 23&#45;&gt;34 -->
<g id="edge33" class="edge"><title>23&#45;&gt;34</title>
<path fill="none" stroke="green" d="M151.567,-492.296C146.745,-483.317 140.593,-471.859 135.15,-461.723"/>
<polygon fill="green" stroke="green" points="138.224,-460.049 130.41,-452.895 132.057,-463.361 138.224,-460.049"/>
</g>
<!-- 18&#45;&gt;8 -->
<g id="edge24" class="edge"><title>18&#45;&gt;8</title>
<path fill="none" stroke="green" d="M407.119,-490.698C417.394,-435.735 452.942,-260.865 512,-126.77 517.125,-115.132 524.436,-103.011 530.874,-93.2651"/>
<polygon fill="green" stroke="green" points="533.942,-94.9777 536.679,-84.7426 528.157,-91.0368 533.942,-94.9777"/>
</g>
<!-- 31 -->
<g id="node20" class="node"><title>31</title>
<ellipse fill="none" stroke="black" cx="252" cy="-363.463" rx="18.2703" ry="18.2703"/>
<text text-anchor="middle" x="252" y="-361.263" font-family="Times New Roman,serif" font-size="9.00">31</text>
</g>
<!-- 55&#45;&gt;31 -->
<g id="edge36" class="edge"><title>55&#45;&gt;31</title>
<path fill="none" stroke="green" d="M252,-417.739C252,-410.057 252,-400.847 252,-392.263"/>
<polygon fill="green" stroke="green" points="255.5,-392.247 252,-382.247 248.5,-392.247 255.5,-392.247"/>
</g>
<!-- 45 -->
<g id="node17" class="node"><title>45</title>
<ellipse fill="none" stroke="black" cx="610" cy="-363.463" rx="18.2703" ry="18.2703"/>
<text text-anchor="middle" x="610" y="-361.263" font-family="Times New Roman,serif" font-size="9.00">45</text>
</g>
<!-- 13&#45;&gt;45 -->
<g id="edge42" class="edge"><title>13&#45;&gt;45</title>
<path fill="none" stroke="green" d="M597.873,-418.101C599.655,-410.221 601.812,-400.679 603.811,-391.84"/>
<polygon fill="green" stroke="green" points="607.26,-392.454 606.051,-381.928 600.432,-390.91 607.26,-392.454"/>
</g>
<!-- 13&#45;&gt;8 -->
<g id="edge7" class="edge"><title>13&#45;&gt;8</title>
<path fill="none" stroke="red" d="M588.216,-418.673C579.498,-392.195 564,-338.537 564,-291.693 564,-291.693 564,-291.693 564,-216.924 564,-174.538 555.757,-125.716 550.13,-97.3244"/>
<polygon fill="red" stroke="red" points="553.484,-96.2576 548.053,-87.161 546.626,-97.6593 553.484,-96.2576"/>
</g>
<!-- 34&#45;&gt;31 -->
<g id="edge41" class="edge"><title>34&#45;&gt;31</title>
<path fill="none" stroke="green" d="M137.941,-426.555C160.162,-414.458 200.673,-392.405 226.952,-378.099"/>
<polygon fill="green" stroke="green" points="228.82,-381.067 235.929,-373.212 225.473,-374.919 228.82,-381.067"/>
</g>
<!-- 34&#45;&gt;7 -->
<g id="edge34" class="edge"><title>34&#45;&gt;7</title>
<path fill="none" stroke="green" d="M116.549,-418.461C113.552,-409.239 109.789,-397.659 106.516,-387.589"/>
<polygon fill="green" stroke="green" points="109.756,-386.234 103.336,-377.805 103.099,-388.398 109.756,-386.234"/>
</g>
<!-- 19 -->
<g id="node18" class="node"><title>19</title>
<ellipse fill="none" stroke="black" cx="610" cy="-290.693" rx="18.2703" ry="18.2703"/>
<text text-anchor="middle" x="610" y="-288.493" font-family="Times New Roman,serif" font-size="9.00">19</text>
</g>
<!-- 45&#45;&gt;19 -->
<g id="edge43" class="edge"><title>45&#45;&gt;19</title>
<path fill="none" stroke="green" d="M610,-344.969C610,-337.287 610,-328.078 610,-319.494"/>
<polygon fill="green" stroke="green" points="613.5,-319.477 610,-309.477 606.5,-319.477 613.5,-319.477"/>
</g>
<!-- 19&#45;&gt;17 -->
<g id="edge8" class="edge"><title>19&#45;&gt;17</title>
<path fill="none" stroke="red" d="M610,-272.2C610,-264.518 610,-255.308 610,-246.724"/>
<polygon fill="red" stroke="red" points="613.5,-246.708 610,-236.708 606.5,-246.708 613.5,-246.708"/>
</g>
<!-- 24 -->
<g id="node21" class="node"><title>24</title>
<ellipse fill="none" stroke="black" cx="610" cy="-145.154" rx="18.2703" ry="18.2703"/>
<text text-anchor="middle" x="610" y="-142.954" font-family="Times New Roman,serif" font-size="9.00">24</text>
</g>
<!-- 17&#45;&gt;24 -->
<g id="edge19" class="edge"><title>17&#45;&gt;24</title>
<path fill="none" stroke="red" d="M610,-199.43C610,-191.748 610,-182.539 610,-173.955"/>
<polygon fill="red" stroke="red" points="613.5,-173.938 610,-163.938 606.5,-173.938 613.5,-173.938"/>
</g>
<!-- 26 -->
<g id="node24" class="node"><title>26</title>
<ellipse fill="none" stroke="black" cx="252" cy="-290.693" rx="18.2703" ry="18.2703"/>
<text text-anchor="middle" x="252" y="-288.493" font-family="Times New Roman,serif" font-size="9.00">26</text>
</g>
<!-- 31&#45;&gt;26 -->
<g id="edge32" class="edge"><title>31&#45;&gt;26</title>
<path fill="none" stroke="red" d="M252,-344.969C252,-337.287 252,-328.078 252,-319.494"/>
<polygon fill="red" stroke="red" points="255.5,-319.477 252,-309.477 248.5,-319.477 255.5,-319.477"/>
</g>
<!-- 24&#45;&gt;8 -->
<g id="edge20" class="edge"><title>24&#45;&gt;8</title>
<path fill="none" stroke="green" d="M597.774,-130.843C587.517,-119.676 572.775,-103.625 561.477,-91.3246"/>
<polygon fill="green" stroke="green" points="563.975,-88.8696 554.633,-83.8723 558.819,-93.6048 563.975,-88.8696"/>
</g>
<!-- 67 -->
<g id="node25" class="node"><title>67</title>
<ellipse fill="none" stroke="black" cx="99" cy="-290.693" rx="18.2703" ry="18.2703"/>
<text text-anchor="middle" x="99" y="-288.493" font-family="Times New Roman,serif" font-size="9.00">67</text>
</g>
<!-- 7&#45;&gt;67 -->
<g id="edge48" class="edge"><title>7&#45;&gt;67</title>
<path fill="none" stroke="green" d="M99,-348.481C99,-340.198 99,-329.409 99,-319.462"/>
<polygon fill="green" stroke="green" points="102.5,-319.159 99,-309.159 95.5001,-319.159 102.5,-319.159"/>
</g>
<!-- 58 -->
<g id="node26" class="node"><title>58</title>
<ellipse fill="none" stroke="black" cx="252" cy="-217.924" rx="18.2703" ry="18.2703"/>
<text text-anchor="middle" x="252" y="-215.724" font-family="Times New Roman,serif" font-size="9.00">58</text>
</g>
<!-- 26&#45;&gt;58 -->
<g id="edge45" class="edge"><title>26&#45;&gt;58</title>
<path fill="none" stroke="green" d="M252,-272.2C252,-264.518 252,-255.308 252,-246.724"/>
<polygon fill="green" stroke="green" points="255.5,-246.708 252,-236.708 248.5,-246.708 255.5,-246.708"/>
</g>
<!-- 67&#45;&gt;14 -->
<g id="edge49" class="edge"><title>67&#45;&gt;14</title>
<path fill="none" stroke="green" d="M99,-272.2C99,-264.518 99,-255.308 99,-246.724"/>
<polygon fill="green" stroke="green" points="102.5,-246.708 99,-236.708 95.5001,-246.708 102.5,-246.708"/>
</g>
<!-- 58&#45;&gt;27 -->
<g id="edge46" class="edge"><title>58&#45;&gt;27</title>
<path fill="none" stroke="green" d="M252,-199.43C252,-191.748 252,-182.539 252,-173.955"/>
<polygon fill="green" stroke="green" points="255.5,-173.938 252,-163.938 248.5,-173.938 255.5,-173.938"/>
</g>
<!-- 14&#45;&gt;5 -->
<g id="edge21" class="edge"><title>14&#45;&gt;5</title>
<path fill="none" stroke="green" d="M106.986,-200.79C124.024,-168.048 167.15,-93.5623 225,-54 265.076,-26.5929 322.46,-15.974 352.999,-12.0846"/>
<polygon fill="green" stroke="green" points="353.761,-15.5202 363.297,-10.9025 352.963,-8.56588 353.761,-15.5202"/>
</g>
<!-- 56 -->
<g id="node29" class="node"><title>56</title>
<ellipse fill="none" stroke="black" cx="252" cy="-72.3848" rx="18.2703" ry="18.2703"/>
<text text-anchor="middle" x="252" y="-70.1848" font-family="Times New Roman,serif" font-size="9.00">56</text>
</g>
<!-- 27&#45;&gt;56 -->
<g id="edge52" class="edge"><title>27&#45;&gt;56</title>
<path fill="none" stroke="green" d="M252,-126.661C252,-118.978 252,-109.769 252,-101.185"/>
<polygon fill="green" stroke="green" points="255.5,-101.169 252,-91.1687 248.5,-101.169 255.5,-101.169"/>
</g>
<!-- 56&#45;&gt;5 -->
<g id="edge53" class="edge"><title>56&#45;&gt;5</title>
<path fill="none" stroke="red" d="M267.88,-62.5833C273.001,-59.7919 278.718,-56.7243 284,-54 307.998,-41.6225 335.989,-28.0754 354.304,-19.3295"/>
<polygon fill="red" stroke="red" points="355.871,-22.4599 363.396,-15.0025 352.863,-16.1391 355.871,-22.4599"/>
</g>
</g>
</svg>
