<?xml version="1.0" encoding="UTF-8" standalone="no"?>
<!DOCTYPE svg PUBLIC "-//W3C//DTD SVG 1.1//EN"
 "http://www.w3.org/Graphics/SVG/1.1/DTD/svg11.dtd">
<!-- Generated by graphviz version 2.38.0 (20140413.2041)
 -->
<!-- Title: %3 Pages: 1 -->
<svg width="838pt" height="674pt"
 viewBox="0.00 0.00 838.00 673.85" xmlns="http://www.w3.org/2000/svg" xmlns:xlink="http://www.w3.org/1999/xlink">
<g id="graph0" class="graph" transform="scale(1 1) rotate(0) translate(4 669.855)">
<title>%3</title>
<polygon fill="white" stroke="none" points="-4,4 -4,-669.855 834,-669.855 834,4 -4,4"/>
<!-- 1 -->
<g id="node1" class="node"><title>1</title>
<polygon fill="lightgray" stroke="black" points="546.5,-602.47 525.5,-602.47 525.5,-584.47 546.5,-584.47 546.5,-602.47"/>
<text text-anchor="middle" x="536" y="-591.27" font-family="Times New Roman,serif" font-size="9.00">1</text>
</g>
<!-- 5 -->
<g id="node5" class="node"><title>5</title>
<polygon fill="lightblue" stroke="black" points="339.5,-23.8492 318.5,-23.8492 318.5,-5.84924 339.5,-5.84924 339.5,-23.8492"/>
<text text-anchor="middle" x="329" y="-12.6492" font-family="Times New Roman,serif" font-size="9.00">5</text>
</g>
<!-- 1&#45;&gt;5 -->
<g id="edge1" class="edge"><title>1&#45;&gt;5</title>
<path fill="none" stroke="red" d="M542.298,-584.259C557.884,-563.092 597,-504.439 597,-448.931 597,-448.931 597,-448.931 597,-374.161 597,-212.913 518.867,-180.86 406,-65.6985 389.292,-48.6509 365.752,-34.477 349.108,-25.6559"/>
<polygon fill="red" stroke="red" points="350.257,-22.3121 339.759,-20.8774 347.071,-28.5451 350.257,-22.3121"/>
</g>
<!-- 36 -->
<g id="node8" class="node"><title>36</title>
<ellipse fill="none" stroke="black" cx="391" cy="-520.701" rx="18.2703" ry="18.2703"/>
<text text-anchor="middle" x="391" y="-518.501" font-family="Times New Roman,serif" font-size="9.00">36</text>
</g>
<!-- 1&#45;&gt;36 -->
<g id="edge42" class="edge"><title>1&#45;&gt;36</title>
<path fill="none" stroke="green" d="M525.101,-587.151C502.181,-575.964 448.467,-549.748 416.407,-534.101"/>
<polygon fill="green" stroke="green" points="417.733,-530.854 407.211,-529.613 414.663,-537.144 417.733,-530.854"/>
</g>
<!-- 10 -->
<g id="node9" class="node"><title>10</title>
<ellipse fill="none" stroke="black" cx="475" cy="-447.931" rx="18.2703" ry="18.2703"/>
<text text-anchor="middle" x="475" y="-445.731" font-family="Times New Roman,serif" font-size="9.00">10</text>
</g>
<!-- 1&#45;&gt;10 -->
<g id="edge13" class="edge"><title>1&#45;&gt;10</title>
<path fill="none" stroke="green" d="M527.497,-584.245C517.854,-574.416 502.388,-557.034 494,-539.085 484.716,-519.219 479.927,-494.775 477.481,-476.354"/>
<polygon fill="green" stroke="green" points="480.94,-475.807 476.295,-466.285 473.988,-476.625 480.94,-475.807"/>
</g>
<!-- 8 -->
<g id="node21" class="node"><title>8</title>
<ellipse fill="none" stroke="black" cx="654" cy="-14.8492" rx="14.7" ry="14.7"/>
<text text-anchor="middle" x="654" y="-12.6492" font-family="Times New Roman,serif" font-size="9.00">8</text>
</g>
<!-- 1&#45;&gt;8 -->
<g id="edge10" class="edge"><title>1&#45;&gt;8</title>
<path fill="none" stroke="green" d="M546.593,-585.514C566.209,-572.547 606.606,-545.423 611,-539.085 634.624,-505.009 635,-490.395 635,-448.931 635,-448.931 635,-448.931 635,-155.853 635,-114.709 643.157,-67.3773 648.781,-39.6294"/>
<polygon fill="green" stroke="green" points="652.242,-40.1795 650.863,-29.6748 645.39,-38.747 652.242,-40.1795"/>
</g>
<!-- 2 -->
<g id="node2" class="node"><title>2</title>
<polygon fill="lightgray" stroke="black" points="373.5,-665.855 352.5,-665.855 352.5,-647.855 373.5,-647.855 373.5,-665.855"/>
<text text-anchor="middle" x="363" y="-654.655" font-family="Times New Roman,serif" font-size="9.00">2</text>
</g>
<!-- 2&#45;&gt;5 -->
<g id="edge2" class="edge"><title>2&#45;&gt;5</title>
<path fill="none" stroke="green" d="M352.136,-654.318C291.737,-645.48 0,-598.798 0,-521.701 0,-521.701 0,-521.701 0,-155.853 0,-21.2151 236.168,-14.2219 308.316,-15.2269"/>
<polygon fill="green" stroke="green" points="308.355,-18.7284 318.426,-15.4386 308.502,-11.7299 308.355,-18.7284"/>
</g>
<!-- 32 -->
<g id="node6" class="node"><title>32</title>
<ellipse fill="none" stroke="black" cx="338" cy="-593.47" rx="18.2703" ry="18.2703"/>
<text text-anchor="middle" x="338" y="-591.27" font-family="Times New Roman,serif" font-size="9.00">32</text>
</g>
<!-- 2&#45;&gt;32 -->
<g id="edge31" class="edge"><title>2&#45;&gt;32</title>
<path fill="none" stroke="red" d="M359.732,-647.83C356.873,-640.81 352.558,-630.217 348.525,-620.314"/>
<polygon fill="red" stroke="red" points="351.664,-618.74 344.65,-610.799 345.181,-621.381 351.664,-618.74"/>
</g>
<!-- 2&#45;&gt;36 -->
<g id="edge40" class="edge"><title>2&#45;&gt;36</title>
<path fill="none" stroke="green" d="M364.752,-647.463C368.778,-628.169 378.842,-579.952 385.273,-549.139"/>
<polygon fill="green" stroke="green" points="388.764,-549.546 387.381,-539.041 381.911,-548.115 388.764,-549.546"/>
</g>
<!-- 15 -->
<g id="node10" class="node"><title>15</title>
<ellipse fill="none" stroke="black" cx="290" cy="-447.931" rx="18.2703" ry="18.2703"/>
<text text-anchor="middle" x="290" y="-445.731" font-family="Times New Roman,serif" font-size="9.00">15</text>
</g>
<!-- 2&#45;&gt;15 -->
<g id="edge11" class="edge"><title>2&#45;&gt;15</title>
<path fill="none" stroke="red" d="M352.157,-650.018C339.923,-642.802 320.496,-629.306 311,-611.855 287.629,-568.907 286.143,-510.411 287.711,-476.455"/>
<polygon fill="red" stroke="red" points="291.212,-476.532 288.303,-466.344 284.224,-476.122 291.212,-476.532"/>
</g>
<!-- 13 -->
<g id="node14" class="node"><title>13</title>
<ellipse fill="none" stroke="black" cx="681" cy="-375.161" rx="18.2703" ry="18.2703"/>
<text text-anchor="middle" x="681" y="-372.961" font-family="Times New Roman,serif" font-size="9.00">13</text>
</g>
<!-- 2&#45;&gt;13 -->
<g id="edge18" class="edge"><title>2&#45;&gt;13</title>
<path fill="none" stroke="green" d="M373.783,-655.572C418.075,-653.749 586.606,-640.175 649,-539.085 674.957,-497.03 680.499,-438.232 681.328,-403.978"/>
<polygon fill="green" stroke="green" points="684.83,-403.813 681.452,-393.772 677.831,-403.729 684.83,-403.813"/>
</g>
<!-- 34 -->
<g id="node15" class="node"><title>34</title>
<ellipse fill="none" stroke="black" cx="131" cy="-375.161" rx="18.2703" ry="18.2703"/>
<text text-anchor="middle" x="131" y="-372.961" font-family="Times New Roman,serif" font-size="9.00">34</text>
</g>
<!-- 2&#45;&gt;34 -->
<g id="edge49" class="edge"><title>2&#45;&gt;34</title>
<path fill="none" stroke="red" d="M352.181,-652.433C319.056,-641.433 217.89,-603.864 162,-539.085 129.187,-501.054 126.7,-439.197 128.444,-403.648"/>
<polygon fill="red" stroke="red" points="131.947,-403.718 129.093,-393.515 124.961,-403.271 131.947,-403.718"/>
</g>
<!-- 17 -->
<g id="node18" class="node"><title>17</title>
<ellipse fill="none" stroke="black" cx="784" cy="-156.853" rx="18.2703" ry="18.2703"/>
<text text-anchor="middle" x="784" y="-154.653" font-family="Times New Roman,serif" font-size="9.00">17</text>
</g>
<!-- 2&#45;&gt;17 -->
<g id="edge20" class="edge"><title>2&#45;&gt;17</title>
<path fill="none" stroke="green" d="M373.586,-656.012C431.457,-656.686 709.474,-657.473 779,-611.855 817.49,-586.6 830,-567.736 830,-521.701 830,-521.701 830,-521.701 830,-301.392 830,-260.443 824.578,-249.87 811,-211.238 807.56,-201.451 802.695,-191.175 798.04,-182.282"/>
<polygon fill="green" stroke="green" points="800.993,-180.384 793.149,-173.262 794.839,-183.721 800.993,-180.384"/>
</g>
<!-- 2&#45;&gt;8 -->
<g id="edge24" class="edge"><title>2&#45;&gt;8</title>
<path fill="none" stroke="red" d="M373.753,-654.698C437.682,-647.53 765,-606.68 765,-521.701 765,-521.701 765,-521.701 765,-374.161 765,-304.019 696.891,-104.042 681,-65.6985 676.904,-55.8162 671.42,-45.3398 666.464,-36.555"/>
<polygon fill="red" stroke="red" points="669.428,-34.6899 661.384,-27.7947 663.372,-38.2013 669.428,-34.6899"/>
</g>
<!-- 3 -->
<g id="node3" class="node"><title>3</title>
<polygon fill="lightgray" stroke="black" points="524.5,-529.701 503.5,-529.701 503.5,-511.701 524.5,-511.701 524.5,-529.701"/>
<text text-anchor="middle" x="514" y="-518.501" font-family="Times New Roman,serif" font-size="9.00">3</text>
</g>
<!-- 3&#45;&gt;5 -->
<g id="edge4" class="edge"><title>3&#45;&gt;5</title>
<path fill="none" stroke="green" d="M516.018,-511.666C519.691,-495.821 526.598,-459.483 521,-429.546 489.124,-259.073 475.515,-210.454 380,-65.6985 371.176,-52.3253 358.241,-39.7346 347.606,-30.5524"/>
<polygon fill="green" stroke="green" points="349.619,-27.674 339.693,-23.9694 345.142,-33.0554 349.619,-27.674"/>
</g>
<!-- 3&#45;&gt;10 -->
<g id="edge5" class="edge"><title>3&#45;&gt;10</title>
<path fill="none" stroke="red" d="M509.526,-511.582C504.389,-502.261 495.722,-486.533 488.357,-473.169"/>
<polygon fill="red" stroke="red" points="491.417,-471.47 483.526,-464.402 485.287,-474.849 491.417,-471.47"/>
</g>
<!-- 18 -->
<g id="node12" class="node"><title>18</title>
<ellipse fill="none" stroke="black" cx="420" cy="-447.931" rx="18.2703" ry="18.2703"/>
<text text-anchor="middle" x="420" y="-445.731" font-family="Times New Roman,serif" font-size="9.00">18</text>
</g>
<!-- 3&#45;&gt;18 -->
<g id="edge27" class="edge"><title>3&#45;&gt;18</title>
<path fill="none" stroke="red" d="M503.217,-511.582C488.497,-500.5 461.75,-480.363 442.548,-465.907"/>
<polygon fill="red" stroke="red" points="444.422,-462.936 434.328,-459.718 440.212,-468.529 444.422,-462.936"/>
</g>
<!-- 7 -->
<g id="node22" class="node"><title>7</title>
<ellipse fill="none" stroke="black" cx="307" cy="-302.392" rx="14.7" ry="14.7"/>
<text text-anchor="middle" x="307" y="-300.192" font-family="Times New Roman,serif" font-size="9.00">7</text>
</g>
<!-- 3&#45;&gt;7 -->
<g id="edge16" class="edge"><title>3&#45;&gt;7</title>
<path fill="none" stroke="green" d="M503.302,-517.495C480.451,-512.297 426.254,-497.315 393,-466.316 350.595,-426.787 325.127,-361.562 313.869,-326.842"/>
<polygon fill="green" stroke="green" points="317.151,-325.61 310.828,-317.108 310.469,-327.697 317.151,-325.61"/>
</g>
<!-- 14 -->
<g id="node26" class="node"><title>14</title>
<ellipse fill="none" stroke="black" cx="329" cy="-156.853" rx="18.2703" ry="18.2703"/>
<text text-anchor="middle" x="329" y="-154.653" font-family="Times New Roman,serif" font-size="9.00">14</text>
</g>
<!-- 3&#45;&gt;14 -->
<g id="edge39" class="edge"><title>3&#45;&gt;14</title>
<path fill="none" stroke="green" d="M514.076,-511.462C513.974,-495.26 512.494,-458.325 502,-429.546 464.566,-326.888 383.483,-222.651 347.197,-179.057"/>
<polygon fill="green" stroke="green" points="349.876,-176.805 340.763,-171.401 344.517,-181.309 349.876,-176.805"/>
</g>
<!-- 4 -->
<g id="node4" class="node"><title>4</title>
<polygon fill="lightgray" stroke="black" points="214.5,-529.701 193.5,-529.701 193.5,-511.701 214.5,-511.701 214.5,-529.701"/>
<text text-anchor="middle" x="204" y="-518.501" font-family="Times New Roman,serif" font-size="9.00">4</text>
</g>
<!-- 4&#45;&gt;5 -->
<g id="edge3" class="edge"><title>4&#45;&gt;5</title>
<path fill="none" stroke="green" d="M193.108,-516.31C156.178,-504.066 38,-458.456 38,-376.161 38,-376.161 38,-376.161 38,-155.853 38,-35.8129 241.564,-18.634 308.178,-16.2261"/>
<polygon fill="green" stroke="green" points="308.401,-19.7213 318.298,-15.9394 308.203,-12.7241 308.401,-19.7213"/>
</g>
<!-- 4&#45;&gt;10 -->
<g id="edge6" class="edge"><title>4&#45;&gt;10</title>
<path fill="none" stroke="green" d="M214.733,-517.843C255.83,-510.651 403.082,-484.161 447,-466.316 448.425,-465.737 449.859,-465.088 451.285,-464.39"/>
<polygon fill="green" stroke="green" points="453.369,-467.234 460.388,-459.298 449.952,-461.125 453.369,-467.234"/>
</g>
<!-- 23 -->
<g id="node11" class="node"><title>23</title>
<ellipse fill="none" stroke="black" cx="160" cy="-447.931" rx="18.2703" ry="18.2703"/>
<text text-anchor="middle" x="160" y="-445.731" font-family="Times New Roman,serif" font-size="9.00">23</text>
</g>
<!-- 4&#45;&gt;23 -->
<g id="edge14" class="edge"><title>4&#45;&gt;23</title>
<path fill="none" stroke="red" d="M198.953,-511.582C193.084,-502.143 183.131,-486.134 174.755,-472.662"/>
<polygon fill="red" stroke="red" points="177.53,-470.497 169.278,-463.853 171.585,-474.193 177.53,-470.497"/>
</g>
<!-- 4&#45;&gt;18 -->
<g id="edge25" class="edge"><title>4&#45;&gt;18</title>
<path fill="none" stroke="red" d="M214.711,-516.191C247.148,-505.564 345.007,-473.502 392.945,-457.795"/>
<polygon fill="red" stroke="red" points="394.232,-461.057 402.646,-454.617 392.053,-454.405 394.232,-461.057"/>
</g>
<!-- 4&#45;&gt;7 -->
<g id="edge28" class="edge"><title>4&#45;&gt;7</title>
<path fill="none" stroke="red" d="M203.48,-511.492C202.28,-486.258 201.574,-408.413 234,-356.777 246.075,-337.548 267.804,-323.008 284.426,-313.995"/>
<polygon fill="red" stroke="red" points="286.211,-317.013 293.51,-309.334 283.015,-310.785 286.211,-317.013"/>
</g>
<!-- 27 -->
<g id="node27" class="node"><title>27</title>
<ellipse fill="none" stroke="black" cx="177" cy="-84.0833" rx="18.2703" ry="18.2703"/>
<text text-anchor="middle" x="177" y="-81.8833" font-family="Times New Roman,serif" font-size="9.00">27</text>
</g>
<!-- 4&#45;&gt;27 -->
<g id="edge19" class="edge"><title>4&#45;&gt;27</title>
<path fill="none" stroke="red" d="M193.4,-514.21C178.111,-505.803 149.858,-488.37 133,-466.316 87.1564,-406.343 85,-378.88 85,-303.392 85,-303.392 85,-303.392 85,-228.622 85,-176.628 128.317,-128.405 155.504,-103.258"/>
<polygon fill="red" stroke="red" points="157.924,-105.79 163.027,-96.5046 153.248,-100.581 157.924,-105.79"/>
</g>
<!-- 29 -->
<g id="node7" class="node"><title>29</title>
<ellipse fill="none" stroke="black" cx="336" cy="-520.701" rx="18.2703" ry="18.2703"/>
<text text-anchor="middle" x="336" y="-518.501" font-family="Times New Roman,serif" font-size="9.00">29</text>
</g>
<!-- 32&#45;&gt;29 -->
<g id="edge32" class="edge"><title>32&#45;&gt;29</title>
<path fill="none" stroke="red" d="M337.506,-574.977C337.289,-567.294 337.028,-558.085 336.786,-549.501"/>
<polygon fill="red" stroke="red" points="340.284,-549.382 336.503,-539.484 333.287,-549.579 340.284,-549.382"/>
</g>
<!-- 32&#45;&gt;36 -->
<g id="edge46" class="edge"><title>32&#45;&gt;36</title>
<path fill="none" stroke="green" d="M348.725,-578.149C356.053,-568.365 365.91,-555.202 374.263,-544.049"/>
<polygon fill="green" stroke="green" points="377.098,-546.103 380.291,-536.001 371.495,-541.907 377.098,-546.103"/>
</g>
<!-- 32&#45;&gt;23 -->
<g id="edge52" class="edge"><title>32&#45;&gt;23</title>
<path fill="none" stroke="green" d="M319.612,-591.487C287.346,-588.747 220.498,-578.37 184,-539.085 168.373,-522.265 162.693,-496.431 160.736,-476.722"/>
<polygon fill="green" stroke="green" points="164.209,-476.219 159.993,-466.499 157.228,-476.727 164.209,-476.219"/>
</g>
<!-- 29&#45;&gt;5 -->
<g id="edge30" class="edge"><title>29&#45;&gt;5</title>
<path fill="none" stroke="red" d="M342.144,-503.139C354.884,-467.268 383,-379.483 383,-303.392 383,-303.392 383,-303.392 383,-155.853 383,-108.497 355.773,-57.8036 339.986,-32.3891"/>
<polygon fill="red" stroke="red" points="342.918,-30.4775 334.576,-23.9461 337.024,-34.2541 342.918,-30.4775"/>
</g>
<!-- 29&#45;&gt;10 -->
<g id="edge33" class="edge"><title>29&#45;&gt;10</title>
<path fill="none" stroke="red" d="M351.168,-509.723C355.264,-507.184 359.742,-504.546 364,-502.316 399.62,-483.661 411.38,-484.971 447,-466.316 448.331,-465.619 449.683,-464.882 451.038,-464.121"/>
<polygon fill="red" stroke="red" points="453.014,-467.019 459.832,-458.909 449.445,-460.997 453.014,-467.019"/>
</g>
<!-- 29&#45;&gt;15 -->
<g id="edge29" class="edge"><title>29&#45;&gt;15</title>
<path fill="none" stroke="green" d="M326.245,-504.692C320.146,-495.309 312.162,-483.027 305.241,-472.379"/>
<polygon fill="green" stroke="green" points="308.126,-470.395 299.741,-463.918 302.257,-474.21 308.126,-470.395"/>
</g>
<!-- 36&#45;&gt;10 -->
<g id="edge41" class="edge"><title>36&#45;&gt;10</title>
<path fill="none" stroke="green" d="M404.871,-508.014C418.082,-496.885 438.164,-479.965 453.457,-467.081"/>
<polygon fill="green" stroke="green" points="455.995,-469.52 461.387,-460.4 451.484,-464.166 455.995,-469.52"/>
</g>
<!-- 31 -->
<g id="node19" class="node"><title>31</title>
<ellipse fill="none" stroke="black" cx="177" cy="-302.392" rx="18.2703" ry="18.2703"/>
<text text-anchor="middle" x="177" y="-300.192" font-family="Times New Roman,serif" font-size="9.00">31</text>
</g>
<!-- 36&#45;&gt;31 -->
<g id="edge53" class="edge"><title>36&#45;&gt;31</title>
<path fill="none" stroke="red" d="M376.217,-509.719C372.043,-507.124 367.43,-504.459 363,-502.316 320.478,-481.744 298.658,-497.297 263,-466.316 220.369,-429.276 195.633,-365.824 184.388,-330.015"/>
<polygon fill="red" stroke="red" points="187.687,-328.833 181.448,-320.271 180.985,-330.856 187.687,-328.833"/>
</g>
<!-- 10&#45;&gt;13 -->
<g id="edge7" class="edge"><title>10&#45;&gt;13</title>
<path fill="none" stroke="red" d="M492.209,-441.019C528.108,-428.686 611.202,-400.14 654.178,-385.376"/>
<polygon fill="red" stroke="red" points="655.375,-388.666 663.695,-382.106 653.1,-382.045 655.375,-388.666"/>
</g>
<!-- 55 -->
<g id="node13" class="node"><title>55</title>
<ellipse fill="none" stroke="black" cx="261" cy="-375.161" rx="18.2703" ry="18.2703"/>
<text text-anchor="middle" x="261" y="-372.961" font-family="Times New Roman,serif" font-size="9.00">55</text>
</g>
<!-- 15&#45;&gt;55 -->
<g id="edge37" class="edge"><title>15&#45;&gt;55</title>
<path fill="none" stroke="red" d="M283.274,-430.517C279.797,-422.032 275.473,-411.48 271.562,-401.937"/>
<polygon fill="red" stroke="red" points="274.72,-400.412 267.69,-392.486 268.243,-403.067 274.72,-400.412"/>
</g>
<!-- 15&#45;&gt;8 -->
<g id="edge15" class="edge"><title>15&#45;&gt;8</title>
<path fill="none" stroke="red" d="M300.569,-432.478C338.647,-380.736 473.274,-200.635 600,-65.6985 611.136,-53.8404 624.575,-41.429 635.26,-31.9568"/>
<polygon fill="red" stroke="red" points="637.593,-34.5656 642.81,-25.3441 632.981,-29.2997 637.593,-34.5656"/>
</g>
<!-- 15&#45;&gt;7 -->
<g id="edge12" class="edge"><title>15&#45;&gt;7</title>
<path fill="none" stroke="red" d="M292.051,-429.617C295.073,-404.095 300.735,-356.287 304.157,-327.395"/>
<polygon fill="red" stroke="red" points="307.648,-327.676 305.349,-317.333 300.697,-326.852 307.648,-327.676"/>
</g>
<!-- 23&#45;&gt;34 -->
<g id="edge35" class="edge"><title>23&#45;&gt;34</title>
<path fill="none" stroke="red" d="M153.274,-430.517C149.797,-422.032 145.473,-411.48 141.562,-401.937"/>
<polygon fill="red" stroke="red" points="144.72,-400.412 137.69,-392.486 138.243,-403.067 144.72,-400.412"/>
</g>
<!-- 18&#45;&gt;8 -->
<g id="edge26" class="edge"><title>18&#45;&gt;8</title>
<path fill="none" stroke="red" d="M429.17,-431.9C453.808,-391.259 522.958,-275.5 573,-175.238 596.737,-127.679 595.569,-112.373 621,-65.6985 626.586,-55.4453 633.636,-44.5769 639.784,-35.614"/>
<polygon fill="red" stroke="red" points="642.679,-37.5802 645.543,-27.3797 636.943,-33.568 642.679,-37.5802"/>
</g>
<!-- 55&#45;&gt;31 -->
<g id="edge38" class="edge"><title>55&#45;&gt;31</title>
<path fill="none" stroke="green" d="M247.129,-362.475C233.918,-351.345 213.836,-334.426 198.543,-321.541"/>
<polygon fill="green" stroke="green" points="200.516,-318.627 190.613,-314.861 196.005,-323.98 200.516,-318.627"/>
</g>
<!-- 45 -->
<g id="node16" class="node"><title>45</title>
<ellipse fill="none" stroke="black" cx="719" cy="-302.392" rx="18.2703" ry="18.2703"/>
<text text-anchor="middle" x="719" y="-300.192" font-family="Times New Roman,serif" font-size="9.00">45</text>
</g>
<!-- 13&#45;&gt;45 -->
<g id="edge44" class="edge"><title>13&#45;&gt;45</title>
<path fill="none" stroke="red" d="M689.433,-358.455C694.255,-349.476 700.407,-338.019 705.85,-327.882"/>
<polygon fill="red" stroke="red" points="708.943,-329.52 710.59,-319.054 702.776,-326.209 708.943,-329.52"/>
</g>
<!-- 13&#45;&gt;8 -->
<g id="edge8" class="edge"><title>13&#45;&gt;8</title>
<path fill="none" stroke="red" d="M679.381,-356.501C677.043,-329.433 673,-276.047 673,-230.622 673,-230.622 673,-230.622 673,-155.853 673,-114.709 664.843,-67.3773 659.219,-39.6294"/>
<polygon fill="red" stroke="red" points="662.61,-38.747 657.137,-29.6748 655.758,-40.1795 662.61,-38.747"/>
</g>
<!-- 34&#45;&gt;31 -->
<g id="edge43" class="edge"><title>34&#45;&gt;31</title>
<path fill="none" stroke="red" d="M140.755,-359.153C146.854,-349.77 154.838,-337.488 161.759,-326.84"/>
<polygon fill="red" stroke="red" points="164.743,-328.671 167.259,-318.379 158.874,-324.856 164.743,-328.671"/>
</g>
<!-- 34&#45;&gt;7 -->
<g id="edge36" class="edge"><title>34&#45;&gt;7</title>
<path fill="none" stroke="red" d="M147.876,-367.376C179.512,-354.655 247.779,-327.205 283.746,-312.742"/>
<polygon fill="red" stroke="red" points="285.414,-315.844 293.386,-308.866 282.802,-309.349 285.414,-315.844"/>
</g>
<!-- 19 -->
<g id="node17" class="node"><title>19</title>
<ellipse fill="none" stroke="black" cx="784" cy="-229.622" rx="18.2703" ry="18.2703"/>
<text text-anchor="middle" x="784" y="-227.422" font-family="Times New Roman,serif" font-size="9.00">19</text>
</g>
<!-- 45&#45;&gt;19 -->
<g id="edge45" class="edge"><title>45&#45;&gt;19</title>
<path fill="none" stroke="red" d="M731.226,-288.081C740.668,-277.801 753.911,-263.382 764.769,-251.56"/>
<polygon fill="red" stroke="red" points="767.642,-253.606 771.829,-243.874 762.487,-248.871 767.642,-253.606"/>
</g>
<!-- 19&#45;&gt;17 -->
<g id="edge9" class="edge"><title>19&#45;&gt;17</title>
<path fill="none" stroke="red" d="M784,-211.129C784,-203.446 784,-194.237 784,-185.653"/>
<polygon fill="red" stroke="red" points="787.5,-185.637 784,-175.637 780.5,-185.637 787.5,-185.637"/>
</g>
<!-- 24 -->
<g id="node20" class="node"><title>24</title>
<ellipse fill="none" stroke="black" cx="784" cy="-84.0833" rx="18.2703" ry="18.2703"/>
<text text-anchor="middle" x="784" y="-81.8833" font-family="Times New Roman,serif" font-size="9.00">24</text>
</g>
<!-- 17&#45;&gt;24 -->
<g id="edge21" class="edge"><title>17&#45;&gt;24</title>
<path fill="none" stroke="green" d="M784,-138.359C784,-130.677 784,-121.468 784,-112.884"/>
<polygon fill="green" stroke="green" points="787.5,-112.867 784,-102.867 780.5,-112.867 787.5,-112.867"/>
</g>
<!-- 26 -->
<g id="node23" class="node"><title>26</title>
<ellipse fill="none" stroke="black" cx="177" cy="-229.622" rx="18.2703" ry="18.2703"/>
<text text-anchor="middle" x="177" y="-227.422" font-family="Times New Roman,serif" font-size="9.00">26</text>
</g>
<!-- 31&#45;&gt;26 -->
<g id="edge34" class="edge"><title>31&#45;&gt;26</title>
<path fill="none" stroke="green" d="M177,-283.898C177,-276.216 177,-267.007 177,-258.423"/>
<polygon fill="green" stroke="green" points="180.5,-258.406 177,-248.406 173.5,-258.406 180.5,-258.406"/>
</g>
<!-- 24&#45;&gt;8 -->
<g id="edge22" class="edge"><title>24&#45;&gt;8</title>
<path fill="none" stroke="green" d="M768.094,-74.332C762.972,-71.5432 757.26,-68.4645 752,-65.6985 726.129,-52.0942 696.144,-36.9292 676.223,-26.9381"/>
<polygon fill="green" stroke="green" points="677.566,-23.6961 667.057,-22.3497 674.432,-29.9557 677.566,-23.6961"/>
</g>
<!-- 67 -->
<g id="node24" class="node"><title>67</title>
<ellipse fill="none" stroke="black" cx="322" cy="-229.622" rx="18.2703" ry="18.2703"/>
<text text-anchor="middle" x="322" y="-227.422" font-family="Times New Roman,serif" font-size="9.00">67</text>
</g>
<!-- 7&#45;&gt;67 -->
<g id="edge50" class="edge"><title>7&#45;&gt;67</title>
<path fill="none" stroke="red" d="M309.892,-287.747C311.705,-279.192 314.106,-267.868 316.29,-257.56"/>
<polygon fill="red" stroke="red" points="319.724,-258.24 318.374,-247.731 312.876,-256.788 319.724,-258.24"/>
</g>
<!-- 58 -->
<g id="node25" class="node"><title>58</title>
<ellipse fill="none" stroke="black" cx="177" cy="-156.853" rx="18.2703" ry="18.2703"/>
<text text-anchor="middle" x="177" y="-154.653" font-family="Times New Roman,serif" font-size="9.00">58</text>
</g>
<!-- 26&#45;&gt;58 -->
<g id="edge47" class="edge"><title>26&#45;&gt;58</title>
<path fill="none" stroke="green" d="M177,-211.129C177,-203.446 177,-194.237 177,-185.653"/>
<polygon fill="green" stroke="green" points="180.5,-185.637 177,-175.637 173.5,-185.637 180.5,-185.637"/>
</g>
<!-- 67&#45;&gt;14 -->
<g id="edge51" class="edge"><title>67&#45;&gt;14</title>
<path fill="none" stroke="red" d="M323.73,-211.129C324.49,-203.446 325.401,-194.237 326.25,-185.653"/>
<polygon fill="red" stroke="red" points="329.74,-185.933 327.241,-175.637 322.774,-185.244 329.74,-185.933"/>
</g>
<!-- 58&#45;&gt;27 -->
<g id="edge48" class="edge"><title>58&#45;&gt;27</title>
<path fill="none" stroke="green" d="M177,-138.359C177,-130.677 177,-121.468 177,-112.884"/>
<polygon fill="green" stroke="green" points="180.5,-112.867 177,-102.867 173.5,-112.867 180.5,-112.867"/>
</g>
<!-- 14&#45;&gt;5 -->
<g id="edge23" class="edge"><title>14&#45;&gt;5</title>
<path fill="none" stroke="green" d="M329,-138.404C329,-111.723 329,-61.0356 329,-33.9617"/>
<polygon fill="green" stroke="green" points="332.5,-33.9431 329,-23.9432 325.5,-33.9432 332.5,-33.9431"/>
</g>
<!-- 27&#45;&gt;5 -->
<g id="edge17" class="edge"><title>27&#45;&gt;5</title>
<path fill="none" stroke="green" d="M193.556,-75.7601C221.638,-63.3386 278.507,-38.1837 308.854,-24.7605"/>
<polygon fill="green" stroke="green" points="310.661,-27.7881 318.391,-20.5419 307.83,-21.3864 310.661,-27.7881"/>
</g>
</g>
</svg>
