<?xml version="1.0" encoding="UTF-8" standalone="no"?>
<!DOCTYPE svg PUBLIC "-//W3C//DTD SVG 1.1//EN"
 "http://www.w3.org/Graphics/SVG/1.1/DTD/svg11.dtd">
<!-- Generated by graphviz version 2.38.0 (20140413.2041)
 -->
<!-- Title: %3 Pages: 1 -->
<svg width="1153pt" height="1092pt"
 viewBox="0.00 0.00 1153.00 1091.70" xmlns="http://www.w3.org/2000/svg" xmlns:xlink="http://www.w3.org/1999/xlink">
<g id="graph0" class="graph" transform="scale(1 1) rotate(0) translate(4 1087.7)">
<title>%3</title>
<polygon fill="white" stroke="none" points="-4,4 -4,-1087.7 1149,-1087.7 1149,4 -4,4"/>
<!-- 1 -->
<g id="node1" class="node"><title>1</title>
<polygon fill="lightgray" stroke="black" points="498.5,-802.009 477.5,-802.009 477.5,-784.009 498.5,-784.009 498.5,-802.009"/>
<text text-anchor="middle" x="488" y="-790.809" font-family="Times New Roman,serif" font-size="9.00">1</text>
</g>
<!-- 5 -->
<g id="node5" class="node"><title>5</title>
<polygon fill="lightblue" stroke="black" points="680.5,-18 659.5,-18 659.5,-0 680.5,-0 680.5,-18"/>
<text text-anchor="middle" x="670" y="-6.8" font-family="Times New Roman,serif" font-size="9.00">5</text>
</g>
<!-- 1&#45;&gt;5 -->
<g id="edge9" class="edge"><title>1&#45;&gt;5</title>
<path fill="none" stroke="red" d="M485.397,-783.804C471.639,-741.302 404.11,-543.049 301,-410.777 247.654,-342.343 152,-371.393 152,-284.622 152,-284.622 152,-284.622 152,-144.154 152,-39.6037 552.455,-15.1933 649.166,-10.8225"/>
<polygon fill="red" stroke="red" points="649.34,-14.3184 659.181,-10.3939 649.04,-7.32479 649.34,-14.3184"/>
</g>
<!-- 43 -->
<g id="node12" class="node"><title>43</title>
<ellipse fill="none" stroke="black" cx="404" cy="-720.24" rx="18.2703" ry="18.2703"/>
<text text-anchor="middle" x="404" y="-718.04" font-family="Times New Roman,serif" font-size="9.00">43</text>
</g>
<!-- 1&#45;&gt;43 -->
<g id="edge16" class="edge"><title>1&#45;&gt;43</title>
<path fill="none" stroke="red" d="M478.364,-783.891C465.55,-773.096 442.539,-753.709 425.496,-739.35"/>
<polygon fill="red" stroke="red" points="427.583,-736.532 417.68,-732.765 423.073,-741.885 427.583,-736.532"/>
</g>
<!-- 64 -->
<g id="node27" class="node"><title>64</title>
<ellipse fill="none" stroke="black" cx="426" cy="-283.622" rx="18.2703" ry="18.2703"/>
<text text-anchor="middle" x="426" y="-281.422" font-family="Times New Roman,serif" font-size="9.00">64</text>
</g>
<!-- 1&#45;&gt;64 -->
<g id="edge76" class="edge"><title>1&#45;&gt;64</title>
<path fill="none" stroke="green" d="M486.976,-783.626C480.146,-727.734 441.121,-408.364 429.356,-312.089"/>
<polygon fill="green" stroke="green" points="432.808,-311.481 428.121,-301.979 425.86,-312.33 432.808,-311.481"/>
</g>
<!-- 8 -->
<g id="node28" class="node"><title>8</title>
<ellipse fill="none" stroke="black" cx="529" cy="-214.388" rx="14.7" ry="14.7"/>
<text text-anchor="middle" x="529" y="-212.188" font-family="Times New Roman,serif" font-size="9.00">8</text>
</g>
<!-- 1&#45;&gt;8 -->
<g id="edge20" class="edge"><title>1&#45;&gt;8</title>
<path fill="none" stroke="green" d="M489.443,-783.788C494.338,-755.173 510,-657.235 510,-575.701 510,-575.701 510,-575.701 510,-355.392 510,-314.248 518.157,-266.916 523.781,-239.168"/>
<polygon fill="green" stroke="green" points="527.242,-239.719 525.863,-229.214 520.39,-238.286 527.242,-239.719"/>
</g>
<!-- 7 -->
<g id="node29" class="node"><title>7</title>
<ellipse fill="none" stroke="black" cx="817" cy="-501.931" rx="14.7" ry="14.7"/>
<text text-anchor="middle" x="817" y="-499.731" font-family="Times New Roman,serif" font-size="9.00">7</text>
</g>
<!-- 1&#45;&gt;7 -->
<g id="edge6" class="edge"><title>1&#45;&gt;7</title>
<path fill="none" stroke="green" d="M498.649,-784.705C521.159,-769.285 575.265,-732.321 621,-701.855 645.315,-685.658 653.252,-684.186 676,-665.855 711.917,-636.912 719.708,-627.872 750,-593.085 769.92,-570.21 790.368,-541.85 803.349,-523.115"/>
<polygon fill="green" stroke="green" points="806.312,-524.982 809.086,-514.757 800.541,-521.021 806.312,-524.982"/>
</g>
<!-- 2 -->
<g id="node2" class="node"><title>2</title>
<polygon fill="lightgray" stroke="black" points="183.5,-1083.7 162.5,-1083.7 162.5,-1065.7 183.5,-1065.7 183.5,-1083.7"/>
<text text-anchor="middle" x="173" y="-1072.5" font-family="Times New Roman,serif" font-size="9.00">2</text>
</g>
<!-- 2&#45;&gt;5 -->
<g id="edge1" class="edge"><title>2&#45;&gt;5</title>
<path fill="none" stroke="green" d="M162.191,-1072.43C139.09,-1069.19 84.2299,-1058.77 50,-1029.7 15.074,-1000.05 0,-985.367 0,-939.548 0,-939.548 0,-939.548 0,-144.154 0,-8.24733 536.738,-8.15423 649.407,-9.63185"/>
<polygon fill="green" stroke="green" points="649.424,-13.1324 659.476,-9.78421 649.53,-6.13322 649.424,-13.1324"/>
</g>
<!-- 32 -->
<g id="node6" class="node"><title>32</title>
<ellipse fill="none" stroke="black" cx="1044" cy="-1011.32" rx="18.2703" ry="18.2703"/>
<text text-anchor="middle" x="1044" y="-1009.12" font-family="Times New Roman,serif" font-size="9.00">32</text>
</g>
<!-- 2&#45;&gt;32 -->
<g id="edge42" class="edge"><title>2&#45;&gt;32</title>
<path fill="none" stroke="red" d="M183.7,-1073.79C269.443,-1074.39 845.827,-1076.59 1012,-1029.7 1014.65,-1028.96 1017.32,-1027.96 1019.93,-1026.82"/>
<polygon fill="red" stroke="red" points="1021.61,-1029.89 1028.97,-1022.27 1018.46,-1023.64 1021.61,-1029.89"/>
</g>
<!-- 15 -->
<g id="node10" class="node"><title>15</title>
<ellipse fill="none" stroke="black" cx="831" cy="-720.24" rx="18.2703" ry="18.2703"/>
<text text-anchor="middle" x="831" y="-718.04" font-family="Times New Roman,serif" font-size="9.00">15</text>
</g>
<!-- 2&#45;&gt;15 -->
<g id="edge10" class="edge"><title>2&#45;&gt;15</title>
<path fill="none" stroke="red" d="M183.582,-1073.19C240.771,-1070.09 517.718,-1050.61 718,-956.933 794.454,-921.172 824.091,-894.285 840,-811.394 844.04,-790.345 841.229,-766.163 837.717,-748.145"/>
<polygon fill="red" stroke="red" points="841.129,-747.366 835.614,-738.32 834.284,-748.831 841.129,-747.366"/>
</g>
<!-- 10 -->
<g id="node11" class="node"><title>10</title>
<ellipse fill="none" stroke="black" cx="316" cy="-793.009" rx="18.2703" ry="18.2703"/>
<text text-anchor="middle" x="316" y="-790.809" font-family="Times New Roman,serif" font-size="9.00">10</text>
</g>
<!-- 2&#45;&gt;10 -->
<g id="edge13" class="edge"><title>2&#45;&gt;10</title>
<path fill="none" stroke="red" d="M177.125,-1065.63C195.778,-1029.15 272.647,-878.803 303.298,-818.852"/>
<polygon fill="red" stroke="red" points="306.534,-820.212 307.97,-809.715 300.301,-817.026 306.534,-820.212"/>
</g>
<!-- 13 -->
<g id="node20" class="node"><title>13</title>
<ellipse fill="none" stroke="black" cx="251" cy="-647.47" rx="18.2703" ry="18.2703"/>
<text text-anchor="middle" x="251" y="-645.27" font-family="Times New Roman,serif" font-size="9.00">13</text>
</g>
<!-- 2&#45;&gt;13 -->
<g id="edge27" class="edge"><title>2&#45;&gt;13</title>
<path fill="none" stroke="green" d="M166.461,-1065.47C151.099,-1045.29 114,-991.199 114,-939.548 114,-939.548 114,-939.548 114,-864.779 114,-779.496 190.945,-700.552 229.505,-666.344"/>
<polygon fill="green" stroke="green" points="231.856,-668.938 237.11,-659.737 227.265,-663.654 231.856,-668.938"/>
</g>
<!-- 17 -->
<g id="node25" class="node"><title>17</title>
<ellipse fill="none" stroke="black" cx="274" cy="-429.161" rx="18.2703" ry="18.2703"/>
<text text-anchor="middle" x="274" y="-426.961" font-family="Times New Roman,serif" font-size="9.00">17</text>
</g>
<!-- 2&#45;&gt;17 -->
<g id="edge29" class="edge"><title>2&#45;&gt;17</title>
<path fill="none" stroke="red" d="M162.249,-1066.34C136.994,-1048.06 76,-997.893 76,-939.548 76,-939.548 76,-939.548 76,-646.47 76,-545.343 195.208,-470.919 248.631,-442.644"/>
<polygon fill="red" stroke="red" points="250.521,-445.607 257.797,-437.905 247.306,-439.388 250.521,-445.607"/>
</g>
<!-- 2&#45;&gt;8 -->
<g id="edge35" class="edge"><title>2&#45;&gt;8</title>
<path fill="none" stroke="red" d="M162.249,-1070.32C145.005,-1064.43 110.881,-1050.89 89,-1029.7 55.9265,-997.681 38,-985.584 38,-939.548 38,-939.548 38,-939.548 38,-646.47 38,-444.821 114.588,-374.609 284,-265.238 354.053,-220.012 456.927,-214.591 503.92,-214.702"/>
<polygon fill="red" stroke="red" points="504.06,-218.204 514.099,-214.818 504.139,-211.204 504.06,-218.204"/>
</g>
<!-- 27 -->
<g id="node35" class="node"><title>27</title>
<ellipse fill="none" stroke="black" cx="1008" cy="-574.701" rx="18.2703" ry="18.2703"/>
<text text-anchor="middle" x="1008" y="-572.501" font-family="Times New Roman,serif" font-size="9.00">27</text>
</g>
<!-- 2&#45;&gt;27 -->
<g id="edge79" class="edge"><title>2&#45;&gt;27</title>
<path fill="none" stroke="red" d="M183.617,-1073.6C282.455,-1072.56 1038.81,-1063.51 1071,-1029.7 1187.82,-907.015 1066.77,-674.403 1022.69,-599.546"/>
<polygon fill="red" stroke="red" points="1025.62,-597.618 1017.49,-590.828 1019.61,-601.208 1025.62,-597.618"/>
</g>
<!-- 3 -->
<g id="node3" class="node"><title>3</title>
<polygon fill="lightgray" stroke="black" points="532.5,-874.779 511.5,-874.779 511.5,-856.779 532.5,-856.779 532.5,-874.779"/>
<text text-anchor="middle" x="522" y="-863.579" font-family="Times New Roman,serif" font-size="9.00">3</text>
</g>
<!-- 3&#45;&gt;5 -->
<g id="edge5" class="edge"><title>3&#45;&gt;5</title>
<path fill="none" stroke="green" d="M511.218,-864.342C460.093,-862.079 242.355,-850.27 189,-811.394 124.574,-764.451 114,-728.185 114,-648.47 114,-648.47 114,-648.47 114,-144.154 114,-90.8788 145.54,-78.2044 193,-54 274.381,-12.4957 567.384,-9.82296 648.851,-9.89959"/>
<polygon fill="green" stroke="green" points="649.277,-13.4006 659.286,-9.92656 649.295,-6.40063 649.277,-13.4006"/>
</g>
<!-- 92 -->
<g id="node9" class="node"><title>92</title>
<ellipse fill="none" stroke="black" cx="724" cy="-793.009" rx="18.2703" ry="18.2703"/>
<text text-anchor="middle" x="724" y="-790.809" font-family="Times New Roman,serif" font-size="9.00">92</text>
</g>
<!-- 3&#45;&gt;92 -->
<g id="edge73" class="edge"><title>3&#45;&gt;92</title>
<path fill="none" stroke="green" d="M532.601,-862.214C559.724,-855.489 633.613,-836.146 692,-811.394 694.394,-810.379 696.844,-809.242 699.272,-808.047"/>
<polygon fill="green" stroke="green" points="701.111,-811.035 708.348,-803.297 697.866,-804.833 701.111,-811.035"/>
</g>
<!-- 3&#45;&gt;10 -->
<g id="edge11" class="edge"><title>3&#45;&gt;10</title>
<path fill="none" stroke="green" d="M511.145,-862.254C483.373,-855.622 407.721,-836.48 348,-811.394 345.603,-810.387 343.15,-809.255 340.721,-808.064"/>
<polygon fill="green" stroke="green" points="342.126,-804.849 331.642,-803.318 338.883,-811.053 342.126,-804.849"/>
</g>
<!-- 18 -->
<g id="node14" class="node"><title>18</title>
<ellipse fill="none" stroke="black" cx="564" cy="-793.009" rx="18.2703" ry="18.2703"/>
<text text-anchor="middle" x="564" y="-790.809" font-family="Times New Roman,serif" font-size="9.00">18</text>
</g>
<!-- 3&#45;&gt;18 -->
<g id="edge40" class="edge"><title>3&#45;&gt;18</title>
<path fill="none" stroke="red" d="M526.818,-856.661C532.385,-847.28 541.802,-831.412 549.766,-817.993"/>
<polygon fill="red" stroke="red" points="552.888,-819.591 554.982,-809.205 546.868,-816.018 552.888,-819.591"/>
</g>
<!-- 3&#45;&gt;8 -->
<g id="edge3" class="edge"><title>3&#45;&gt;8</title>
<path fill="none" stroke="red" d="M511.451,-864.065C465.056,-860.746 279.448,-845.508 234,-811.394 169.167,-762.729 152,-729.535 152,-648.47 152,-648.47 152,-648.47 152,-573.701 152,-458.288 194.239,-432.151 261,-338.007 287.866,-300.121 295.5,-287.973 336,-265.238 390.931,-234.401 465.326,-222.213 503.731,-217.745"/>
<polygon fill="red" stroke="red" points="504.432,-221.19 513.998,-216.637 503.681,-214.23 504.432,-221.19"/>
</g>
<!-- 3&#45;&gt;7 -->
<g id="edge25" class="edge"><title>3&#45;&gt;7</title>
<path fill="none" stroke="red" d="M532.63,-862.189C556.58,-856.035 616.025,-838.955 659,-811.394 678.782,-798.707 679.071,-789.818 697,-774.624 712.501,-761.489 834.855,-683.999 844,-665.855 867.507,-619.218 843.891,-556.462 828.311,-524.137"/>
<polygon fill="red" stroke="red" points="831.407,-522.503 823.795,-515.134 825.151,-525.642 831.407,-522.503"/>
</g>
<!-- 4 -->
<g id="node4" class="node"><title>4</title>
<polygon fill="lightgray" stroke="black" points="802.5,-874.779 781.5,-874.779 781.5,-856.779 802.5,-856.779 802.5,-874.779"/>
<text text-anchor="middle" x="792" y="-863.579" font-family="Times New Roman,serif" font-size="9.00">4</text>
</g>
<!-- 4&#45;&gt;5 -->
<g id="edge2" class="edge"><title>4&#45;&gt;5</title>
<path fill="none" stroke="green" d="M802.565,-863.608C861.299,-856.465 1145,-813.424 1145,-648.47 1145,-648.47 1145,-648.47 1145,-144.154 1145,-48.3212 782.396,-17.5393 690.813,-11.2931"/>
<polygon fill="green" stroke="green" points="691.021,-7.79933 680.814,-10.6366 690.563,-14.7843 691.021,-7.79933"/>
</g>
<!-- 4&#45;&gt;15 -->
<g id="edge14" class="edge"><title>4&#45;&gt;15</title>
<path fill="none" stroke="green" d="M798.04,-856.588C805.116,-846.515 816.56,-828.629 822,-811.394 828.382,-791.175 830.538,-767.255 831.15,-749.136"/>
<polygon fill="green" stroke="green" points="834.653,-749.018 831.353,-738.95 827.654,-748.878 834.653,-749.018"/>
</g>
<!-- 4&#45;&gt;10 -->
<g id="edge12" class="edge"><title>4&#45;&gt;10</title>
<path fill="none" stroke="red" d="M781.06,-861.723C766.7,-857.825 740.655,-851.14 718,-847.394 554.992,-820.44 505.972,-859.798 348,-811.394 345.37,-810.588 342.711,-809.554 340.107,-808.393"/>
<polygon fill="red" stroke="red" points="341.576,-805.214 331.074,-803.81 338.408,-811.456 341.576,-805.214"/>
</g>
<!-- 23 -->
<g id="node13" class="node"><title>23</title>
<ellipse fill="none" stroke="black" cx="632" cy="-793.009" rx="18.2703" ry="18.2703"/>
<text text-anchor="middle" x="632" y="-790.809" font-family="Times New Roman,serif" font-size="9.00">23</text>
</g>
<!-- 4&#45;&gt;23 -->
<g id="edge22" class="edge"><title>4&#45;&gt;23</title>
<path fill="none" stroke="green" d="M781.254,-860.026C756.212,-848.949 693.405,-821.169 657.758,-805.402"/>
<polygon fill="green" stroke="green" points="659.039,-802.142 648.478,-801.297 656.207,-808.543 659.039,-802.142"/>
</g>
<!-- 4&#45;&gt;18 -->
<g id="edge38" class="edge"><title>4&#45;&gt;18</title>
<path fill="none" stroke="red" d="M781.312,-862.218C752.491,-855.209 670.897,-834.672 605,-811.394 600.025,-809.636 594.788,-807.58 589.783,-805.51"/>
<polygon fill="red" stroke="red" points="591.145,-802.286 580.574,-801.585 588.401,-808.726 591.145,-802.286"/>
</g>
<!-- 19 -->
<g id="node23" class="node"><title>19</title>
<ellipse fill="none" stroke="black" cx="274" cy="-574.701" rx="18.2703" ry="18.2703"/>
<text text-anchor="middle" x="274" y="-572.501" font-family="Times New Roman,serif" font-size="9.00">19</text>
</g>
<!-- 4&#45;&gt;19 -->
<g id="edge63" class="edge"><title>4&#45;&gt;19</title>
<path fill="none" stroke="green" d="M781.279,-861.948C766.94,-858.233 740.693,-851.685 718,-847.394 607.697,-826.537 571.008,-856.015 468,-811.394 372.287,-769.933 309.077,-652.912 284.965,-601.02"/>
<polygon fill="green" stroke="green" points="288.116,-599.493 280.793,-591.836 281.743,-602.388 288.116,-599.493"/>
</g>
<!-- 4&#45;&gt;7 -->
<g id="edge8" class="edge"><title>4&#45;&gt;7</title>
<path fill="none" stroke="green" d="M801.219,-856.508C811.769,-846.636 829.005,-829.214 840,-811.394 876.476,-752.273 883.641,-734.026 897,-665.855 906.363,-618.078 921.086,-599.18 898,-556.316 885.895,-533.84 859.727,-519.264 840.394,-511.113"/>
<polygon fill="green" stroke="green" points="841.605,-507.828 831.017,-507.428 839.044,-514.343 841.605,-507.828"/>
</g>
<!-- 4&#45;&gt;27 -->
<g id="edge28" class="edge"><title>4&#45;&gt;27</title>
<path fill="none" stroke="green" d="M802.681,-863.224C827.819,-859.072 891.564,-845.622 931,-811.394 986.906,-762.871 993.404,-737.508 1012,-665.855 1017.36,-645.192 1015.88,-620.984 1013.33,-602.859"/>
<polygon fill="green" stroke="green" points="1016.78,-602.283 1011.74,-592.963 1009.87,-603.391 1016.78,-602.283"/>
</g>
<!-- 47 -->
<g id="node7" class="node"><title>47</title>
<ellipse fill="none" stroke="black" cx="691" cy="-938.548" rx="18.2703" ry="18.2703"/>
<text text-anchor="middle" x="691" y="-936.348" font-family="Times New Roman,serif" font-size="9.00">47</text>
</g>
<!-- 32&#45;&gt;47 -->
<g id="edge51" class="edge"><title>32&#45;&gt;47</title>
<path fill="none" stroke="green" d="M1026.01,-1006.71C968.53,-995.188 789.012,-959.198 719.184,-945.199"/>
<polygon fill="green" stroke="green" points="719.447,-941.682 708.954,-943.148 718.071,-948.545 719.447,-941.682"/>
</g>
<!-- 32&#45;&gt;7 -->
<g id="edge64" class="edge"><title>32&#45;&gt;7</title>
<path fill="none" stroke="green" d="M1050.16,-993.971C1066.01,-950.353 1107,-827.309 1107,-721.24 1107,-721.24 1107,-721.24 1107,-646.47 1107,-528.89 913.149,-507.625 842.428,-503.78"/>
<polygon fill="green" stroke="green" points="842.336,-500.272 832.183,-503.3 842.009,-507.264 842.336,-500.272"/>
</g>
<!-- 29 -->
<g id="node8" class="node"><title>29</title>
<ellipse fill="none" stroke="black" cx="691" cy="-865.779" rx="18.2703" ry="18.2703"/>
<text text-anchor="middle" x="691" y="-863.579" font-family="Times New Roman,serif" font-size="9.00">29</text>
</g>
<!-- 47&#45;&gt;29 -->
<g id="edge52" class="edge"><title>47&#45;&gt;29</title>
<path fill="none" stroke="red" d="M691,-920.055C691,-912.372 691,-903.163 691,-894.579"/>
<polygon fill="red" stroke="red" points="694.5,-894.563 691,-884.563 687.5,-894.563 694.5,-894.563"/>
</g>
<!-- 91 -->
<g id="node15" class="node"><title>91</title>
<ellipse fill="none" stroke="black" cx="261" cy="-793.009" rx="18.2703" ry="18.2703"/>
<text text-anchor="middle" x="261" y="-790.809" font-family="Times New Roman,serif" font-size="9.00">91</text>
</g>
<!-- 47&#45;&gt;91 -->
<g id="edge75" class="edge"><title>47&#45;&gt;91</title>
<path fill="none" stroke="green" d="M673.109,-933.8C615.464,-921.338 430.134,-878.255 289,-811.394 287.61,-810.736 286.204,-810.024 284.799,-809.277"/>
<polygon fill="green" stroke="green" points="286.167,-806.025 275.76,-804.039 282.658,-812.081 286.167,-806.025"/>
</g>
<!-- 29&#45;&gt;15 -->
<g id="edge41" class="edge"><title>29&#45;&gt;15</title>
<path fill="none" stroke="green" d="M708.013,-858.481C728.261,-850.273 762.079,-834.222 784,-811.394 801.594,-793.071 814.26,-766.858 821.979,-747.416"/>
<polygon fill="green" stroke="green" points="825.297,-748.536 825.564,-737.944 818.75,-746.058 825.297,-748.536"/>
</g>
<!-- 29&#45;&gt;10 -->
<g id="edge43" class="edge"><title>29&#45;&gt;10</title>
<path fill="none" stroke="green" d="M672.581,-862.755C610.521,-855.804 409.515,-832.192 348,-811.394 345.395,-810.513 342.751,-809.43 340.157,-808.238"/>
<polygon fill="green" stroke="green" points="341.633,-805.061 331.137,-803.615 338.44,-811.291 341.633,-805.061"/>
</g>
<!-- 29&#45;&gt;91 -->
<g id="edge71" class="edge"><title>29&#45;&gt;91</title>
<path fill="none" stroke="red" d="M672.841,-862.584C596.846,-853.369 307.414,-817.987 289,-811.394 287.552,-810.876 286.1,-810.275 284.66,-809.614"/>
<polygon fill="red" stroke="red" points="285.97,-806.342 275.514,-804.632 282.622,-812.489 285.97,-806.342"/>
</g>
<!-- 48 -->
<g id="node30" class="node"><title>48</title>
<ellipse fill="none" stroke="black" cx="733" cy="-429.161" rx="18.2703" ry="18.2703"/>
<text text-anchor="middle" x="733" y="-426.961" font-family="Times New Roman,serif" font-size="9.00">48</text>
</g>
<!-- 29&#45;&gt;48 -->
<g id="edge44" class="edge"><title>29&#45;&gt;48</title>
<path fill="none" stroke="green" d="M706.681,-856.135C721.239,-847.117 741.98,-831.493 751,-811.394 806.124,-688.564 762.404,-520.551 742.02,-456.458"/>
<polygon fill="green" stroke="green" points="745.281,-455.169 738.854,-446.746 738.626,-457.339 745.281,-455.169"/>
</g>
<!-- 92&#45;&gt;15 -->
<g id="edge74" class="edge"><title>92&#45;&gt;15</title>
<path fill="none" stroke="red" d="M738.878,-782.169C756.665,-770.405 786.647,-750.575 807.559,-736.744"/>
<polygon fill="red" stroke="red" points="809.494,-739.66 815.904,-731.224 805.632,-733.822 809.494,-739.66"/>
</g>
<!-- 86 -->
<g id="node18" class="node"><title>86</title>
<ellipse fill="none" stroke="black" cx="817" cy="-647.47" rx="18.2703" ry="18.2703"/>
<text text-anchor="middle" x="817" y="-645.27" font-family="Times New Roman,serif" font-size="9.00">86</text>
</g>
<!-- 15&#45;&gt;86 -->
<g id="edge66" class="edge"><title>15&#45;&gt;86</title>
<path fill="none" stroke="red" d="M827.611,-702.108C826.052,-694.229 824.164,-684.686 822.416,-675.847"/>
<polygon fill="red" stroke="red" points="825.829,-675.066 820.455,-665.935 818.962,-676.424 825.829,-675.066"/>
</g>
<!-- 15&#45;&gt;8 -->
<g id="edge23" class="edge"><title>15&#45;&gt;8</title>
<path fill="none" stroke="red" d="M814.607,-711.694C780.554,-695.179 701.853,-652.502 660,-593.085 616.456,-531.267 611,-505.776 611,-430.161 611,-430.161 611,-430.161 611,-355.392 611,-305.065 571.06,-256.793 546.929,-232.221"/>
<polygon fill="red" stroke="red" points="549.295,-229.638 539.72,-225.103 544.377,-234.619 549.295,-229.638"/>
</g>
<!-- 15&#45;&gt;7 -->
<g id="edge21" class="edge"><title>15&#45;&gt;7</title>
<path fill="none" stroke="red" d="M845.287,-707.815C856.306,-698.019 870.696,-682.829 877,-665.855 893.95,-620.217 896.933,-600.732 877,-556.316 869.086,-538.681 852.148,-524.49 838.28,-515.185"/>
<polygon fill="red" stroke="red" points="840.06,-512.17 829.736,-509.789 836.322,-518.088 840.06,-512.17"/>
</g>
<!-- 26 -->
<g id="node31" class="node"><title>26</title>
<ellipse fill="none" stroke="black" cx="985" cy="-647.47" rx="18.2703" ry="18.2703"/>
<text text-anchor="middle" x="985" y="-645.27" font-family="Times New Roman,serif" font-size="9.00">26</text>
</g>
<!-- 15&#45;&gt;26 -->
<g id="edge24" class="edge"><title>15&#45;&gt;26</title>
<path fill="none" stroke="red" d="M847.481,-711.666C874.343,-699.322 927.75,-674.779 959.524,-660.177"/>
<polygon fill="red" stroke="red" points="961.013,-663.345 968.638,-655.989 958.09,-656.985 961.013,-663.345"/>
</g>
<!-- 30 -->
<g id="node17" class="node"><title>30</title>
<ellipse fill="none" stroke="black" cx="274" cy="-720.24" rx="18.2703" ry="18.2703"/>
<text text-anchor="middle" x="274" y="-718.04" font-family="Times New Roman,serif" font-size="9.00">30</text>
</g>
<!-- 10&#45;&gt;30 -->
<g id="edge61" class="edge"><title>10&#45;&gt;30</title>
<path fill="none" stroke="green" d="M306.887,-776.653C301.438,-767.472 294.397,-755.609 288.229,-745.216"/>
<polygon fill="green" stroke="green" points="291.209,-743.379 283.096,-736.566 285.189,-746.952 291.209,-743.379"/>
</g>
<!-- 24 -->
<g id="node26" class="node"><title>24</title>
<ellipse fill="none" stroke="black" cx="373" cy="-356.392" rx="18.2703" ry="18.2703"/>
<text text-anchor="middle" x="373" y="-354.192" font-family="Times New Roman,serif" font-size="9.00">24</text>
</g>
<!-- 10&#45;&gt;24 -->
<g id="edge58" class="edge"><title>10&#45;&gt;24</title>
<path fill="none" stroke="green" d="M316.809,-774.335C317.978,-747.25 320,-693.842 320,-648.47 320,-648.47 320,-648.47 320,-573.701 320,-503.098 346.966,-423.16 362.429,-383.127"/>
<polygon fill="green" stroke="green" points="365.768,-384.199 366.18,-373.612 359.256,-381.631 365.768,-384.199"/>
</g>
<!-- 43&#45;&gt;13 -->
<g id="edge48" class="edge"><title>43&#45;&gt;13</title>
<path fill="none" stroke="green" d="M387.626,-711.666C361.079,-699.387 308.433,-675.036 276.808,-660.407"/>
<polygon fill="green" stroke="green" points="278.265,-657.225 267.72,-656.204 275.327,-663.579 278.265,-657.225"/>
</g>
<!-- 43&#45;&gt;8 -->
<g id="edge17" class="edge"><title>43&#45;&gt;8</title>
<path fill="none" stroke="red" d="M405.14,-701.64C409.656,-639.594 429.426,-426.121 496,-265.238 500.465,-254.449 507.378,-243.515 513.726,-234.648"/>
<polygon fill="red" stroke="red" points="516.594,-236.658 519.774,-226.551 510.985,-232.469 516.594,-236.658"/>
</g>
<!-- 75 -->
<g id="node16" class="node"><title>75</title>
<ellipse fill="none" stroke="black" cx="648" cy="-720.24" rx="18.2703" ry="18.2703"/>
<text text-anchor="middle" x="648" y="-718.04" font-family="Times New Roman,serif" font-size="9.00">75</text>
</g>
<!-- 23&#45;&gt;75 -->
<g id="edge77" class="edge"><title>23&#45;&gt;75</title>
<path fill="none" stroke="green" d="M635.873,-774.878C637.655,-766.998 639.812,-757.455 641.811,-748.616"/>
<polygon fill="green" stroke="green" points="645.26,-749.231 644.051,-738.705 638.432,-747.687 645.26,-749.231"/>
</g>
<!-- 34 -->
<g id="node22" class="node"><title>34</title>
<ellipse fill="none" stroke="black" cx="649" cy="-647.47" rx="18.2703" ry="18.2703"/>
<text text-anchor="middle" x="649" y="-645.27" font-family="Times New Roman,serif" font-size="9.00">34</text>
</g>
<!-- 23&#45;&gt;34 -->
<g id="edge49" class="edge"><title>23&#45;&gt;34</title>
<path fill="none" stroke="red" d="M645.374,-780.391C655.686,-770.482 669.142,-755.235 675,-738.624 682.843,-716.385 673.501,-690.468 663.903,-672.145"/>
<polygon fill="red" stroke="red" points="666.894,-670.324 658.949,-663.315 660.789,-673.749 666.894,-670.324"/>
</g>
<!-- 18&#45;&gt;8 -->
<g id="edge39" class="edge"><title>18&#45;&gt;8</title>
<path fill="none" stroke="red" d="M561.842,-774.658C557.475,-737.987 548,-649.883 548,-575.701 548,-575.701 548,-575.701 548,-355.392 548,-314.248 539.843,-266.916 534.219,-239.168"/>
<polygon fill="red" stroke="red" points="537.61,-238.286 532.137,-229.214 530.758,-239.719 537.61,-238.286"/>
</g>
<!-- 91&#45;&gt;13 -->
<g id="edge72" class="edge"><title>91&#45;&gt;13</title>
<path fill="none" stroke="green" d="M255.466,-775.397C252.289,-764.97 248.617,-751.168 247,-738.624 244.299,-717.68 245.552,-693.798 247.343,-675.878"/>
<polygon fill="green" stroke="green" points="250.834,-676.154 248.465,-665.828 243.877,-675.377 250.834,-676.154"/>
</g>
<!-- 60 -->
<g id="node19" class="node"><title>60</title>
<ellipse fill="none" stroke="black" cx="594" cy="-647.47" rx="18.2703" ry="18.2703"/>
<text text-anchor="middle" x="594" y="-645.27" font-family="Times New Roman,serif" font-size="9.00">60</text>
</g>
<!-- 75&#45;&gt;60 -->
<g id="edge78" class="edge"><title>75&#45;&gt;60</title>
<path fill="none" stroke="green" d="M637.331,-705.258C629.885,-695.5 619.785,-682.263 611.209,-671.023"/>
<polygon fill="green" stroke="green" points="613.866,-668.736 605.017,-662.909 608.301,-672.982 613.866,-668.736"/>
</g>
<!-- 30&#45;&gt;13 -->
<g id="edge62" class="edge"><title>30&#45;&gt;13</title>
<path fill="none" stroke="red" d="M268.549,-702.468C265.857,-694.184 262.546,-683.996 259.528,-674.71"/>
<polygon fill="red" stroke="red" points="262.831,-673.55 256.412,-665.121 256.174,-675.713 262.831,-673.55"/>
</g>
<!-- 42 -->
<g id="node21" class="node"><title>42</title>
<ellipse fill="none" stroke="black" cx="687" cy="-574.701" rx="18.2703" ry="18.2703"/>
<text text-anchor="middle" x="687" y="-572.501" font-family="Times New Roman,serif" font-size="9.00">42</text>
</g>
<!-- 86&#45;&gt;42 -->
<g id="edge67" class="edge"><title>86&#45;&gt;42</title>
<path fill="none" stroke="red" d="M801.059,-637.792C778.838,-625.695 738.327,-603.642 712.048,-589.336"/>
<polygon fill="red" stroke="red" points="713.527,-586.157 703.071,-584.449 710.18,-592.305 713.527,-586.157"/>
</g>
<!-- 60&#45;&gt;42 -->
<g id="edge70" class="edge"><title>60&#45;&gt;42</title>
<path fill="none" stroke="red" d="M608.531,-635.412C623.546,-623.987 647.179,-606.003 664.589,-592.754"/>
<polygon fill="red" stroke="red" points="666.732,-595.522 672.571,-586.681 662.493,-589.951 666.732,-595.522"/>
</g>
<!-- 60&#45;&gt;24 -->
<g id="edge53" class="edge"><title>60&#45;&gt;24</title>
<path fill="none" stroke="green" d="M583.041,-632.135C547.169,-585.214 433.097,-436.001 389.846,-379.427"/>
<polygon fill="green" stroke="green" points="392.619,-377.292 383.765,-371.473 387.058,-381.543 392.619,-377.292"/>
</g>
<!-- 13&#45;&gt;19 -->
<g id="edge19" class="edge"><title>13&#45;&gt;19</title>
<path fill="none" stroke="green" d="M256.451,-629.699C259.143,-621.414 262.454,-611.226 265.472,-601.941"/>
<polygon fill="green" stroke="green" points="268.826,-602.944 268.588,-592.352 262.169,-600.78 268.826,-602.944"/>
</g>
<!-- 13&#45;&gt;8 -->
<g id="edge18" class="edge"><title>13&#45;&gt;8</title>
<path fill="none" stroke="red" d="M246.208,-629.582C235.795,-589.598 214.537,-486.804 247,-410.777 283.728,-324.76 320.002,-315.309 399,-265.238 432.885,-243.76 477.474,-229.179 504.646,-221.579"/>
<polygon fill="red" stroke="red" points="505.739,-224.909 514.48,-218.922 503.913,-218.152 505.739,-224.909"/>
</g>
<!-- 42&#45;&gt;8 -->
<g id="edge68" class="edge"><title>42&#45;&gt;8</title>
<path fill="none" stroke="red" d="M679.852,-557.707C668.845,-531.575 649,-477.852 649,-430.161 649,-430.161 649,-430.161 649,-355.392 649,-313.928 650.944,-297.583 625,-265.238 606.64,-242.347 574.928,-228.829 553.003,-221.769"/>
<polygon fill="red" stroke="red" points="553.999,-218.414 543.415,-218.89 551.986,-225.118 553.999,-218.414"/>
</g>
<!-- 42&#45;&gt;7 -->
<g id="edge15" class="edge"><title>42&#45;&gt;7</title>
<path fill="none" stroke="red" d="M702.941,-565.023C726.027,-552.455 768.852,-529.142 794.952,-514.934"/>
<polygon fill="red" stroke="red" points="796.95,-517.831 804.06,-509.975 793.603,-511.683 796.95,-517.831"/>
</g>
<!-- 16 -->
<g id="node32" class="node"><title>16</title>
<ellipse fill="none" stroke="black" cx="666" cy="-145.154" rx="18.2703" ry="18.2703"/>
<text text-anchor="middle" x="666" y="-142.954" font-family="Times New Roman,serif" font-size="9.00">16</text>
</g>
<!-- 42&#45;&gt;16 -->
<g id="edge69" class="edge"><title>42&#45;&gt;16</title>
<path fill="none" stroke="red" d="M687,-556.022C687,-528.931 687,-475.516 687,-430.161 687,-430.161 687,-430.161 687,-282.622 687,-244.319 678.818,-200.664 672.669,-173.262"/>
<polygon fill="red" stroke="red" points="676.018,-172.21 670.351,-163.259 669.199,-173.791 676.018,-172.21"/>
</g>
<!-- 34&#45;&gt;19 -->
<g id="edge80" class="edge"><title>34&#45;&gt;19</title>
<path fill="none" stroke="red" d="M634.463,-635.911C630.29,-633.314 625.615,-630.792 621,-629.085 508.517,-587.497 363.963,-578.301 303.08,-576.273"/>
<polygon fill="red" stroke="red" points="302.809,-572.763 292.712,-575.971 302.606,-579.76 302.809,-572.763"/>
</g>
<!-- 34&#45;&gt;7 -->
<g id="edge50" class="edge"><title>34&#45;&gt;7</title>
<path fill="none" stroke="red" d="M663.052,-635.141C676.289,-624.419 696.625,-607.818 714,-593.085 743.949,-567.69 778.147,-537.519 798.632,-519.317"/>
<polygon fill="red" stroke="red" points="801.128,-521.781 806.272,-512.519 796.474,-516.552 801.128,-521.781"/>
</g>
<!-- 21 -->
<g id="node24" class="node"><title>21</title>
<ellipse fill="none" stroke="black" cx="274" cy="-501.931" rx="18.2703" ry="18.2703"/>
<text text-anchor="middle" x="274" y="-499.731" font-family="Times New Roman,serif" font-size="9.00">21</text>
</g>
<!-- 19&#45;&gt;21 -->
<g id="edge59" class="edge"><title>19&#45;&gt;21</title>
<path fill="none" stroke="red" d="M274,-556.207C274,-548.525 274,-539.316 274,-530.731"/>
<polygon fill="red" stroke="red" points="277.5,-530.715 274,-520.715 270.5,-530.715 277.5,-530.715"/>
</g>
<!-- 21&#45;&gt;17 -->
<g id="edge60" class="edge"><title>21&#45;&gt;17</title>
<path fill="none" stroke="green" d="M274,-483.437C274,-475.755 274,-466.546 274,-457.962"/>
<polygon fill="green" stroke="green" points="277.5,-457.945 274,-447.945 270.5,-457.945 277.5,-457.945"/>
</g>
<!-- 17&#45;&gt;24 -->
<g id="edge30" class="edge"><title>17&#45;&gt;24</title>
<path fill="none" stroke="green" d="M288.608,-417.719C304.766,-406.168 331.018,-387.403 349.955,-373.866"/>
<polygon fill="green" stroke="green" points="352.232,-376.54 358.332,-367.877 348.162,-370.845 352.232,-376.54"/>
</g>
<!-- 24&#45;&gt;64 -->
<g id="edge54" class="edge"><title>24&#45;&gt;64</title>
<path fill="none" stroke="red" d="M383.725,-341.071C391.053,-331.286 400.91,-318.124 409.263,-306.971"/>
<polygon fill="red" stroke="red" points="412.098,-309.025 415.291,-298.922 406.495,-304.828 412.098,-309.025"/>
</g>
<!-- 64&#45;&gt;8 -->
<g id="edge55" class="edge"><title>64&#45;&gt;8</title>
<path fill="none" stroke="red" d="M441.198,-272.702C458.976,-261.097 488.496,-241.828 508.342,-228.873"/>
<polygon fill="red" stroke="red" points="510.497,-231.646 516.958,-223.249 506.671,-225.784 510.497,-231.646"/>
</g>
<!-- 8&#45;&gt;5 -->
<g id="edge4" class="edge"><title>8&#45;&gt;5</title>
<path fill="none" stroke="green" d="M531.716,-199.335C538.155,-169.31 556.907,-98.0556 597,-54 611.706,-37.8401 633.733,-25.6839 649.744,-18.2889"/>
<polygon fill="green" stroke="green" points="651.502,-21.3398 659.259,-14.1226 648.694,-14.9275 651.502,-21.3398"/>
</g>
<!-- 8&#45;&gt;16 -->
<g id="edge36" class="edge"><title>8&#45;&gt;16</title>
<path fill="none" stroke="green" d="M542.052,-207.184C561.648,-197.844 599.807,-179.557 632,-163.539 634.818,-162.137 637.759,-160.657 640.682,-159.177"/>
<polygon fill="green" stroke="green" points="642.46,-162.199 649.78,-154.539 639.281,-155.963 642.46,-162.199"/>
</g>
<!-- 12 -->
<g id="node34" class="node"><title>12</title>
<ellipse fill="none" stroke="black" cx="624" cy="-72.3848" rx="18.2703" ry="18.2703"/>
<text text-anchor="middle" x="624" y="-70.1848" font-family="Times New Roman,serif" font-size="9.00">12</text>
</g>
<!-- 8&#45;&gt;12 -->
<g id="edge33" class="edge"><title>8&#45;&gt;12</title>
<path fill="none" stroke="green" d="M537.1,-201.452C552.796,-178.32 587.609,-127.015 608.09,-96.8322"/>
<polygon fill="green" stroke="green" points="611.23,-98.4379 613.949,-88.1979 605.437,-94.5075 611.23,-98.4379"/>
</g>
<!-- 7&#45;&gt;5 -->
<g id="edge7" class="edge"><title>7&#45;&gt;5</title>
<path fill="none" stroke="red" d="M811.229,-488.17C800.598,-463.463 779,-407.144 779,-357.392 779,-357.392 779,-357.392 779,-144.154 779,-88.1307 721.034,-42.4737 689.644,-21.8571"/>
<polygon fill="red" stroke="red" points="691.169,-18.6796 680.85,-16.279 687.42,-24.5908 691.169,-18.6796"/>
</g>
<!-- 7&#45;&gt;48 -->
<g id="edge47" class="edge"><title>7&#45;&gt;48</title>
<path fill="none" stroke="green" d="M806.018,-491.679C793.067,-480.768 771.224,-462.365 754.796,-448.524"/>
<polygon fill="green" stroke="green" points="756.677,-445.532 746.774,-441.766 752.166,-450.886 756.677,-445.532"/>
</g>
<!-- 14 -->
<g id="node33" class="node"><title>14</title>
<ellipse fill="none" stroke="black" cx="825" cy="-429.161" rx="18.2703" ry="18.2703"/>
<text text-anchor="middle" x="825" y="-426.961" font-family="Times New Roman,serif" font-size="9.00">14</text>
</g>
<!-- 7&#45;&gt;14 -->
<g id="edge31" class="edge"><title>7&#45;&gt;14</title>
<path fill="none" stroke="green" d="M818.581,-486.949C819.527,-478.578 820.763,-467.647 821.897,-457.613"/>
<polygon fill="green" stroke="green" points="825.38,-457.957 823.026,-447.627 818.424,-457.17 825.38,-457.957"/>
</g>
<!-- 48&#45;&gt;5 -->
<g id="edge45" class="edge"><title>48&#45;&gt;5</title>
<path fill="none" stroke="red" d="M732.191,-410.488C731.022,-383.402 729,-329.994 729,-284.622 729,-284.622 729,-284.622 729,-144.154 729,-98.3549 699.83,-50.6356 682.511,-26.3398"/>
<polygon fill="red" stroke="red" points="685.287,-24.206 676.539,-18.2279 679.649,-28.356 685.287,-24.206"/>
</g>
<!-- 26&#45;&gt;27 -->
<g id="edge26" class="edge"><title>26&#45;&gt;27</title>
<path fill="none" stroke="red" d="M990.451,-629.699C993.143,-621.414 996.454,-611.226 999.472,-601.941"/>
<polygon fill="red" stroke="red" points="1002.83,-602.944 1002.59,-592.352 996.169,-600.78 1002.83,-602.944"/>
</g>
<!-- 16&#45;&gt;5 -->
<g id="edge46" class="edge"><title>16&#45;&gt;5</title>
<path fill="none" stroke="green" d="M666.523,-126.616C667.28,-101.241 668.673,-54.4942 669.447,-28.5593"/>
<polygon fill="green" stroke="green" points="672.954,-28.3591 669.754,-18.2592 665.957,-28.1504 672.954,-28.3591"/>
</g>
<!-- 16&#45;&gt;12 -->
<g id="edge37" class="edge"><title>16&#45;&gt;12</title>
<path fill="none" stroke="green" d="M656.887,-128.798C651.438,-119.617 644.397,-107.754 638.229,-97.3611"/>
<polygon fill="green" stroke="green" points="641.209,-95.5241 633.096,-88.7107 635.189,-99.0966 641.209,-95.5241"/>
</g>
<!-- 14&#45;&gt;5 -->
<g id="edge32" class="edge"><title>14&#45;&gt;5</title>
<path fill="none" stroke="green" d="M823.381,-410.501C821.043,-383.433 817,-330.047 817,-284.622 817,-284.622 817,-284.622 817,-144.154 817,-102.69 821.072,-84.5158 793,-54 766.01,-24.6603 718.093,-14.8673 690.713,-11.6109"/>
<polygon fill="green" stroke="green" points="690.973,-8.11955 680.674,-10.6031 690.274,-15.0845 690.973,-8.11955"/>
</g>
<!-- 56 -->
<g id="node36" class="node"><title>56</title>
<ellipse fill="none" stroke="black" cx="863" cy="-356.392" rx="18.2703" ry="18.2703"/>
<text text-anchor="middle" x="863" y="-354.192" font-family="Times New Roman,serif" font-size="9.00">56</text>
</g>
<!-- 14&#45;&gt;56 -->
<g id="edge65" class="edge"><title>14&#45;&gt;56</title>
<path fill="none" stroke="red" d="M833.433,-412.455C838.255,-403.476 844.407,-392.019 849.85,-381.882"/>
<polygon fill="red" stroke="red" points="852.943,-383.52 854.59,-373.054 846.776,-380.209 852.943,-383.52"/>
</g>
<!-- 12&#45;&gt;5 -->
<g id="edge34" class="edge"><title>12&#45;&gt;5</title>
<path fill="none" stroke="green" d="M634.669,-57.1476C641.507,-48.0221 650.411,-36.1412 657.569,-26.5892"/>
<polygon fill="green" stroke="green" points="660.576,-28.4119 663.772,-18.3105 654.975,-24.2141 660.576,-28.4119"/>
</g>
<!-- 27&#45;&gt;56 -->
<g id="edge56" class="edge"><title>27&#45;&gt;56</title>
<path fill="none" stroke="red" d="M998.034,-558.833C973.192,-521.774 908.377,-425.085 878.498,-380.512"/>
<polygon fill="red" stroke="red" points="881.32,-378.435 872.844,-372.078 875.505,-382.333 881.32,-378.435"/>
</g>
<!-- 56&#45;&gt;5 -->
<g id="edge57" class="edge"><title>56&#45;&gt;5</title>
<path fill="none" stroke="green" d="M862.171,-337.716C861,-311.164 859,-259.4 859,-215.388 859,-215.388 859,-215.388 859,-144.154 859,-102.198 861.173,-83.1538 831,-54 792.246,-16.5546 724.83,-10.2938 690.849,-9.6703"/>
<polygon fill="green" stroke="green" points="690.707,-6.16994 680.696,-9.63808 690.685,-13.1699 690.707,-6.16994"/>
</g>
</g>
</svg>
