<?xml version="1.0" encoding="UTF-8" standalone="no"?>
<!DOCTYPE svg PUBLIC "-//W3C//DTD SVG 1.1//EN"
 "http://www.w3.org/Graphics/SVG/1.1/DTD/svg11.dtd">
<!-- Generated by graphviz version 2.38.0 (20140413.2041)
 -->
<!-- Title: %3 Pages: 1 -->
<svg width="1991pt" height="1870pt"
 viewBox="0.00 0.00 1991.00 1870.31" xmlns="http://www.w3.org/2000/svg" xmlns:xlink="http://www.w3.org/1999/xlink">
<g id="graph0" class="graph" transform="scale(1 1) rotate(0) translate(4 1866.31)">
<title>%3</title>
<polygon fill="white" stroke="none" points="-4,4 -4,-1866.31 1987,-1866.31 1987,4 -4,4"/>
<!-- 1 -->
<g id="node1" class="node"><title>1</title>
<polygon fill="lightgray" stroke="black" points="311.5,-1266.91 290.5,-1266.91 290.5,-1248.91 311.5,-1248.91 311.5,-1266.91"/>
<text text-anchor="middle" x="301" y="-1255.71" font-family="Times New Roman,serif" font-size="9.00">1</text>
</g>
<!-- 5 -->
<g id="node5" class="node"><title>5</title>
<polygon fill="lightblue" stroke="black" points="1000.5,-18 979.5,-18 979.5,-0 1000.5,-0 1000.5,-18"/>
<text text-anchor="middle" x="990" y="-6.8" font-family="Times New Roman,serif" font-size="9.00">5</text>
</g>
<!-- 1&#45;&gt;5 -->
<g id="edge9" class="edge"><title>1&#45;&gt;5</title>
<path fill="none" stroke="red" d="M294.38,-1248.82C261.246,-1207.98 115,-1023.79 115,-953.69 115,-953.69 115,-953.69 115,-144.154 115,-102.69 106.788,-80.109 139,-54 172.261,-27.0407 841.402,-12.8565 969.059,-10.3905"/>
<polygon fill="red" stroke="red" points="969.465,-13.8835 979.396,-10.1937 969.331,-6.88474 969.465,-13.8835"/>
</g>
<!-- 36 -->
<g id="node15" class="node"><title>36</title>
<ellipse fill="none" stroke="black" cx="160" cy="-1185.14" rx="18.2703" ry="18.2703"/>
<text text-anchor="middle" x="160" y="-1182.94" font-family="Times New Roman,serif" font-size="9.00">36</text>
</g>
<!-- 1&#45;&gt;36 -->
<g id="edge66" class="edge"><title>1&#45;&gt;36</title>
<path fill="none" stroke="red" d="M290.402,-1251.59C268.23,-1240.46 216.425,-1214.46 185.195,-1198.79"/>
<polygon fill="red" stroke="red" points="186.727,-1195.64 176.22,-1194.28 183.587,-1201.9 186.727,-1195.64"/>
</g>
<!-- 43 -->
<g id="node25" class="node"><title>43</title>
<ellipse fill="none" stroke="black" cx="578" cy="-1185.14" rx="18.2703" ry="18.2703"/>
<text text-anchor="middle" x="578" y="-1182.94" font-family="Times New Roman,serif" font-size="9.00">43</text>
</g>
<!-- 1&#45;&gt;43 -->
<g id="edge13" class="edge"><title>1&#45;&gt;43</title>
<path fill="none" stroke="red" d="M311.52,-1254.22C350.955,-1244.15 490.788,-1208.42 550.569,-1193.15"/>
<polygon fill="red" stroke="red" points="551.61,-1196.5 560.433,-1190.63 549.877,-1189.71 551.61,-1196.5"/>
</g>
<!-- 64 -->
<g id="node54" class="node"><title>64</title>
<ellipse fill="none" stroke="black" cx="777" cy="-501.931" rx="18.2703" ry="18.2703"/>
<text text-anchor="middle" x="777" y="-499.731" font-family="Times New Roman,serif" font-size="9.00">64</text>
</g>
<!-- 1&#45;&gt;64 -->
<g id="edge54" class="edge"><title>1&#45;&gt;64</title>
<path fill="none" stroke="red" d="M300.282,-1248.66C298.433,-1223.25 295.423,-1144.5 323,-1088.33 360.207,-1012.55 457,-1038.12 457,-953.69 457,-953.69 457,-953.69 457,-724.897 457,-583.477 670.617,-524.974 748.784,-508.301"/>
<polygon fill="red" stroke="red" points="749.79,-511.667 758.879,-506.222 748.378,-504.811 749.79,-511.667"/>
</g>
<!-- 8 -->
<g id="node55" class="node"><title>8</title>
<ellipse fill="none" stroke="black" cx="800" cy="-432.697" rx="14.7" ry="14.7"/>
<text text-anchor="middle" x="800" y="-430.497" font-family="Times New Roman,serif" font-size="9.00">8</text>
</g>
<!-- 1&#45;&gt;8 -->
<g id="edge14" class="edge"><title>1&#45;&gt;8</title>
<path fill="none" stroke="green" d="M299.98,-1248.61C298.748,-1238.12 296.747,-1219.52 296,-1203.53 295.237,-1187.2 295.131,-1183.08 296,-1166.76 306.459,-970.429 343,-923.503 343,-726.897 343,-726.897 343,-726.897 343,-652.127 343,-569.757 352.233,-530.37 420,-483.546 477.796,-443.612 698.787,-435.641 774.429,-434.074"/>
<polygon fill="green" stroke="green" points="774.954,-437.565 784.887,-433.88 774.824,-430.566 774.954,-437.565"/>
</g>
<!-- 7 -->
<g id="node56" class="node"><title>7</title>
<ellipse fill="none" stroke="black" cx="1512" cy="-952.69" rx="14.7" ry="14.7"/>
<text text-anchor="middle" x="1512" y="-950.49" font-family="Times New Roman,serif" font-size="9.00">7</text>
</g>
<!-- 1&#45;&gt;7 -->
<g id="edge6" class="edge"><title>1&#45;&gt;7</title>
<path fill="none" stroke="red" d="M307.137,-1248.78C328.729,-1220.86 404.576,-1128.38 491,-1088.33 546.808,-1062.47 977.9,-1016.99 1039,-1009.9 1218.51,-989.096 1266.5,-1007.82 1444,-973.904 1459.08,-971.022 1475.6,-966.153 1488.58,-961.916"/>
<polygon fill="red" stroke="red" points="1489.77,-965.208 1498.14,-958.703 1487.54,-958.573 1489.77,-965.208"/>
</g>
<!-- 2 -->
<g id="node2" class="node"><title>2</title>
<polygon fill="lightgray" stroke="black" points="239.5,-1862.31 218.5,-1862.31 218.5,-1844.31 239.5,-1844.31 239.5,-1862.31"/>
<text text-anchor="middle" x="229" y="-1851.11" font-family="Times New Roman,serif" font-size="9.00">2</text>
</g>
<!-- 2&#45;&gt;5 -->
<g id="edge1" class="edge"><title>2&#45;&gt;5</title>
<path fill="none" stroke="green" d="M218.26,-1852.64C187.957,-1853.01 100.517,-1850.16 47,-1808.31 11.4062,-1780.47 0,-1763.34 0,-1718.16 0,-1718.16 0,-1718.16 0,-144.154 0,-91.1707 30.3576,-77.1834 78,-54 160.585,-13.8133 841.079,-10.3276 969.232,-10.0279"/>
<polygon fill="green" stroke="green" points="969.301,-13.5278 979.294,-10.0085 969.288,-6.52784 969.301,-13.5278"/>
</g>
<!-- 62 -->
<g id="node6" class="node"><title>62</title>
<ellipse fill="none" stroke="black" cx="307" cy="-1789.93" rx="18.2703" ry="18.2703"/>
<text text-anchor="middle" x="307" y="-1787.73" font-family="Times New Roman,serif" font-size="9.00">62</text>
</g>
<!-- 2&#45;&gt;62 -->
<g id="edge79" class="edge"><title>2&#45;&gt;62</title>
<path fill="none" stroke="green" d="M239.197,-1844.28C250.658,-1835.27 269.616,-1820.35 284.576,-1808.57"/>
<polygon fill="green" stroke="green" points="287.141,-1811.01 292.835,-1802.07 282.812,-1805.51 287.141,-1811.01"/>
</g>
<!-- 32 -->
<g id="node7" class="node"><title>32</title>
<ellipse fill="none" stroke="black" cx="679" cy="-1717.16" rx="18.2703" ry="18.2703"/>
<text text-anchor="middle" x="679" y="-1714.96" font-family="Times New Roman,serif" font-size="9.00">32</text>
</g>
<!-- 2&#45;&gt;32 -->
<g id="edge121" class="edge"><title>2&#45;&gt;32</title>
<path fill="none" stroke="green" d="M239.68,-1849.13C296.594,-1832.16 564.884,-1752.18 651.772,-1726.27"/>
<polygon fill="green" stroke="green" points="652.859,-1729.6 661.443,-1723.39 650.859,-1722.89 652.859,-1729.6"/>
</g>
<!-- 2&#45;&gt;36 -->
<g id="edge65" class="edge"><title>2&#45;&gt;36</title>
<path fill="none" stroke="red" d="M220.167,-1844.16C199.942,-1824.57 152,-1772.4 152,-1718.16 152,-1718.16 152,-1718.16 152,-1332.51 152,-1291.21 155.214,-1243.46 157.568,-1214.03"/>
<polygon fill="red" stroke="red" points="161.086,-1213.95 158.419,-1203.7 154.11,-1213.38 161.086,-1213.95"/>
</g>
<!-- 85 -->
<g id="node21" class="node"><title>85</title>
<ellipse fill="none" stroke="black" cx="1816" cy="-1717.16" rx="18.2703" ry="18.2703"/>
<text text-anchor="middle" x="1816" y="-1714.96" font-family="Times New Roman,serif" font-size="9.00">85</text>
</g>
<!-- 2&#45;&gt;85 -->
<g id="edge160" class="edge"><title>2&#45;&gt;85</title>
<path fill="none" stroke="red" d="M239.566,-1852.31C371.712,-1852.34 1700.07,-1851.47 1769,-1808.31 1791.24,-1794.38 1803.5,-1766.23 1809.87,-1745.06"/>
<polygon fill="red" stroke="red" points="1813.27,-1745.9 1812.54,-1735.33 1806.52,-1744.05 1813.27,-1745.9"/>
</g>
<!-- 15 -->
<g id="node24" class="node"><title>15</title>
<ellipse fill="none" stroke="black" cx="1111" cy="-1185.14" rx="18.2703" ry="18.2703"/>
<text text-anchor="middle" x="1111" y="-1182.94" font-family="Times New Roman,serif" font-size="9.00">15</text>
</g>
<!-- 2&#45;&gt;15 -->
<g id="edge10" class="edge"><title>2&#45;&gt;15</title>
<path fill="none" stroke="green" d="M239.822,-1852.2C378.006,-1850.54 1793,-1825.25 1793,-1485.7 1793,-1485.7 1793,-1485.7 1793,-1408.11 1793,-1310.43 1741.84,-1277.85 1652,-1239.53 1558.18,-1199.51 1237.12,-1189.01 1139.43,-1186.71"/>
<polygon fill="green" stroke="green" points="1139.48,-1183.21 1129.41,-1186.49 1139.33,-1190.21 1139.48,-1183.21"/>
</g>
<!-- 13 -->
<g id="node39" class="node"><title>13</title>
<ellipse fill="none" stroke="black" cx="617" cy="-1031.12" rx="18.2703" ry="18.2703"/>
<text text-anchor="middle" x="617" y="-1028.92" font-family="Times New Roman,serif" font-size="9.00">13</text>
</g>
<!-- 2&#45;&gt;13 -->
<g id="edge20" class="edge"><title>2&#45;&gt;13</title>
<path fill="none" stroke="red" d="M218.482,-1847.35C204.413,-1840.29 179.349,-1826.2 163,-1808.31 132.239,-1774.64 114,-1763.76 114,-1718.16 114,-1718.16 114,-1718.16 114,-1256.91 114,-1215.96 106.824,-1198.25 133,-1166.76 193.06,-1094.51 494.832,-1048.5 588.933,-1035.74"/>
<polygon fill="red" stroke="red" points="589.413,-1039.21 598.862,-1034.42 588.486,-1032.27 589.413,-1039.21"/>
</g>
<!-- 17 -->
<g id="node51" class="node"><title>17</title>
<ellipse fill="none" stroke="black" cx="617" cy="-653.127" rx="18.2703" ry="18.2703"/>
<text text-anchor="middle" x="617" y="-650.927" font-family="Times New Roman,serif" font-size="9.00">17</text>
</g>
<!-- 2&#45;&gt;17 -->
<g id="edge104" class="edge"><title>2&#45;&gt;17</title>
<path fill="none" stroke="green" d="M218.229,-1850.07C198.151,-1845.43 154.553,-1833.05 127,-1808.31 92.7452,-1777.55 76,-1764.19 76,-1718.16 76,-1718.16 76,-1718.16 76,-1256.91 76,-996.026 289.758,-1010.36 471,-822.708 519.642,-772.346 572.418,-709.012 599.214,-676.165"/>
<polygon fill="green" stroke="green" points="602.161,-678.088 605.753,-668.12 596.73,-673.672 602.161,-678.088"/>
</g>
<!-- 2&#45;&gt;8 -->
<g id="edge24" class="edge"><title>2&#45;&gt;8</title>
<path fill="none" stroke="green" d="M218.471,-1851.7C193.066,-1849.73 127.517,-1841.53 87,-1808.31 51.7325,-1779.4 38,-1763.76 38,-1718.16 38,-1718.16 38,-1718.16 38,-1108.54 38,-922.772 155.469,-908.139 243,-744.281 304.199,-629.716 268.498,-557.896 375,-483.546 440.16,-438.057 693.225,-433.784 774.627,-433.608"/>
<polygon fill="green" stroke="green" points="774.937,-437.108 784.936,-433.606 774.936,-430.108 774.937,-437.108"/>
</g>
<!-- 58 -->
<g id="node62" class="node"><title>58</title>
<ellipse fill="none" stroke="black" cx="1323" cy="-290.693" rx="18.2703" ry="18.2703"/>
<text text-anchor="middle" x="1323" y="-288.493" font-family="Times New Roman,serif" font-size="9.00">58</text>
</g>
<!-- 2&#45;&gt;58 -->
<g id="edge73" class="edge"><title>2&#45;&gt;58</title>
<path fill="none" stroke="green" d="M239.891,-1852.29C370.682,-1851.97 1638.33,-1847.94 1799,-1808.31 1887.42,-1786.5 1983,-1809.22 1983,-1718.16 1983,-1718.16 1983,-1718.16 1983,-1332.51 1983,-1070.24 1921.59,-997.76 1775,-780.281 1765.97,-766.881 1427.44,-403.674 1342.29,-312.367"/>
<polygon fill="green" stroke="green" points="1344.66,-309.786 1335.28,-304.86 1339.55,-314.56 1344.66,-309.786"/>
</g>
<!-- 3 -->
<g id="node3" class="node"><title>3</title>
<polygon fill="lightgray" stroke="black" points="1125.5,-1418.11 1104.5,-1418.11 1104.5,-1400.11 1125.5,-1400.11 1125.5,-1418.11"/>
<text text-anchor="middle" x="1115" y="-1406.91" font-family="Times New Roman,serif" font-size="9.00">3</text>
</g>
<!-- 3&#45;&gt;5 -->
<g id="edge5" class="edge"><title>3&#45;&gt;5</title>
<path fill="none" stroke="red" d="M1125.51,-1400.03C1137.55,-1390.34 1157.26,-1373.09 1170,-1354.72 1307.13,-1156.99 1242.71,-1051.27 1387,-858.708 1401.95,-838.762 1417.3,-844.152 1430,-822.708 1452.12,-785.357 1449,-770.309 1449,-726.897 1449,-726.897 1449,-726.897 1449,-652.127 1449,-508.348 1597,-508.242 1597,-364.463 1597,-364.463 1597,-364.463 1597,-144.154 1597,-21.28 1116.77,-10.8546 1010.61,-10.0511"/>
<polygon fill="red" stroke="red" points="1010.55,-6.55085 1000.54,-9.99662 1010.52,-13.5508 1010.55,-6.55085"/>
</g>
<!-- 137 -->
<g id="node8" class="node"><title>137</title>
<ellipse fill="none" stroke="black" cx="1140" cy="-1333.51" rx="21.4286" ry="21.4286"/>
<text text-anchor="middle" x="1140" y="-1331.31" font-family="Times New Roman,serif" font-size="9.00">137</text>
</g>
<!-- 3&#45;&gt;137 -->
<g id="edge94" class="edge"><title>3&#45;&gt;137</title>
<path fill="none" stroke="green" d="M1117.77,-1399.95C1120.77,-1391.12 1125.72,-1376.54 1130.19,-1363.38"/>
<polygon fill="green" stroke="green" points="1133.58,-1364.3 1133.48,-1353.71 1126.95,-1362.05 1133.58,-1364.3"/>
</g>
<!-- 29 -->
<g id="node13" class="node"><title>29</title>
<ellipse fill="none" stroke="black" cx="670" cy="-1333.51" rx="18.2703" ry="18.2703"/>
<text text-anchor="middle" x="670" y="-1331.31" font-family="Times New Roman,serif" font-size="9.00">29</text>
</g>
<!-- 3&#45;&gt;29 -->
<g id="edge90" class="edge"><title>3&#45;&gt;29</title>
<path fill="none" stroke="green" d="M1104.28,-1407.45C1046.88,-1403.84 775.553,-1385.37 698,-1354.72 695.916,-1353.9 693.844,-1352.88 691.824,-1351.75"/>
<polygon fill="green" stroke="green" points="693.72,-1348.81 683.435,-1346.27 689.891,-1354.67 693.72,-1348.81"/>
</g>
<!-- 92 -->
<g id="node14" class="node"><title>92</title>
<ellipse fill="none" stroke="black" cx="1013" cy="-1257.91" rx="18.2703" ry="18.2703"/>
<text text-anchor="middle" x="1013" y="-1255.71" font-family="Times New Roman,serif" font-size="9.00">92</text>
</g>
<!-- 3&#45;&gt;92 -->
<g id="edge52" class="edge"><title>3&#45;&gt;92</title>
<path fill="none" stroke="green" d="M1104.39,-1403.58C1087.85,-1395.96 1056.04,-1379.01 1039,-1354.72 1024.76,-1334.42 1018.31,-1306.66 1015.4,-1286.25"/>
<polygon fill="green" stroke="green" points="1018.87,-1285.82 1014.17,-1276.32 1011.92,-1286.68 1018.87,-1285.82"/>
</g>
<!-- 3&#45;&gt;15 -->
<g id="edge119" class="edge"><title>3&#45;&gt;15</title>
<path fill="none" stroke="green" d="M1106.68,-1399.97C1097.36,-1390.23 1082.82,-1372.93 1077,-1354.72 1070.79,-1335.28 1081.86,-1243.46 1083,-1239.53 1085.99,-1229.23 1091.07,-1218.63 1096.09,-1209.61"/>
<polygon fill="green" stroke="green" points="1099.17,-1211.27 1101.2,-1200.87 1093.13,-1207.73 1099.17,-1211.27"/>
</g>
<!-- 18 -->
<g id="node27" class="node"><title>18</title>
<ellipse fill="none" stroke="black" cx="1349" cy="-1333.51" rx="18.2703" ry="18.2703"/>
<text text-anchor="middle" x="1349" y="-1331.31" font-family="Times New Roman,serif" font-size="9.00">18</text>
</g>
<!-- 3&#45;&gt;18 -->
<g id="edge27" class="edge"><title>3&#45;&gt;18</title>
<path fill="none" stroke="green" d="M1125.66,-1404.75C1160.29,-1393.86 1270.34,-1359.25 1321.88,-1343.04"/>
<polygon fill="green" stroke="green" points="1323.16,-1346.3 1331.65,-1339.96 1321.06,-1339.63 1323.16,-1346.3"/>
</g>
<!-- 34 -->
<g id="node41" class="node"><title>34</title>
<ellipse fill="none" stroke="black" cx="1606" cy="-1185.14" rx="18.2703" ry="18.2703"/>
<text text-anchor="middle" x="1606" y="-1182.94" font-family="Times New Roman,serif" font-size="9.00">34</text>
</g>
<!-- 3&#45;&gt;34 -->
<g id="edge150" class="edge"><title>3&#45;&gt;34</title>
<path fill="none" stroke="green" d="M1125.52,-1408.54C1166.97,-1409.82 1322.01,-1410.43 1431,-1354.72 1495.98,-1321.51 1495.15,-1289.84 1548,-1239.53 1560.12,-1227.98 1573.9,-1215.28 1584.99,-1205.17"/>
<polygon fill="green" stroke="green" points="1587.48,-1207.63 1592.52,-1198.31 1582.77,-1202.46 1587.48,-1207.63"/>
</g>
<!-- 3&#45;&gt;8 -->
<g id="edge3" class="edge"><title>3&#45;&gt;8</title>
<path fill="none" stroke="red" d="M1104.47,-1405.34C1065.12,-1394.3 929,-1349.57 929,-1258.91 929,-1258.91 929,-1258.91 929,-1184.14 929,-1137.07 908.54,-1020.65 903,-973.904 889.998,-864.187 875,-837.381 875,-726.897 875,-726.897 875,-726.897 875,-576.529 875,-526.957 839.15,-477.657 817.022,-451.948"/>
<polygon fill="red" stroke="red" points="819.371,-449.323 810.115,-444.168 814.136,-453.97 819.371,-449.323"/>
</g>
<!-- 3&#45;&gt;7 -->
<g id="edge18" class="edge"><title>3&#45;&gt;7</title>
<path fill="none" stroke="green" d="M1125.58,-1403.29C1143,-1395.02 1178.23,-1376.88 1203,-1354.72 1341.64,-1230.7 1462.23,-1037.66 1499.87,-974.474"/>
<polygon fill="green" stroke="green" points="1502.92,-976.186 1505,-965.797 1496.9,-972.623 1502.92,-976.186"/>
</g>
<!-- 14 -->
<g id="node63" class="node"><title>14</title>
<ellipse fill="none" stroke="black" cx="1403" cy="-801.495" rx="18.2703" ry="18.2703"/>
<text text-anchor="middle" x="1403" y="-799.295" font-family="Times New Roman,serif" font-size="9.00">14</text>
</g>
<!-- 3&#45;&gt;14 -->
<g id="edge64" class="edge"><title>3&#45;&gt;14</title>
<path fill="none" stroke="green" d="M1113.03,-1399.98C1107.38,-1374.93 1092.91,-1297.12 1116,-1239.53 1127.57,-1210.67 1186.94,-1156.75 1204,-1130.76 1225.59,-1097.88 1229.5,-1088.48 1245,-1052.33 1280.83,-968.773 1254.16,-929.663 1311,-858.708 1328.2,-837.241 1355.97,-821.896 1376.5,-812.719"/>
<polygon fill="green" stroke="green" points="1378.1,-815.845 1385.93,-808.709 1375.35,-809.404 1378.1,-815.845"/>
</g>
<!-- 4 -->
<g id="node4" class="node"><title>4</title>
<polygon fill="lightgray" stroke="black" points="1536.5,-1418.11 1515.5,-1418.11 1515.5,-1400.11 1536.5,-1400.11 1536.5,-1418.11"/>
<text text-anchor="middle" x="1526" y="-1406.91" font-family="Times New Roman,serif" font-size="9.00">4</text>
</g>
<!-- 4&#45;&gt;5 -->
<g id="edge2" class="edge"><title>4&#45;&gt;5</title>
<path fill="none" stroke="green" d="M1536.64,-1408.44C1594.54,-1409.66 1869,-1407.62 1869,-1258.91 1869,-1258.91 1869,-1258.91 1869,-144.154 1869,-49.4795 1767.72,-77.4712 1676,-54 1545.47,-20.5972 1111.52,-11.888 1010.94,-10.298"/>
<polygon fill="green" stroke="green" points="1010.89,-6.79686 1000.83,-10.1449 1010.78,-13.7961 1010.89,-6.79686"/>
</g>
<!-- 37 -->
<g id="node16" class="node"><title>37</title>
<ellipse fill="none" stroke="black" cx="1404" cy="-1333.51" rx="18.2703" ry="18.2703"/>
<text text-anchor="middle" x="1404" y="-1331.31" font-family="Times New Roman,serif" font-size="9.00">37</text>
</g>
<!-- 4&#45;&gt;37 -->
<g id="edge83" class="edge"><title>4&#45;&gt;37</title>
<path fill="none" stroke="red" d="M1515.17,-1401.58C1495.77,-1389.87 1454.63,-1365.05 1428.2,-1349.11"/>
<polygon fill="red" stroke="red" points="1429.9,-1346.04 1419.52,-1343.87 1426.28,-1352.04 1429.9,-1346.04"/>
</g>
<!-- 22 -->
<g id="node18" class="node"><title>22</title>
<ellipse fill="none" stroke="black" cx="1671" cy="-1333.51" rx="18.2703" ry="18.2703"/>
<text text-anchor="middle" x="1671" y="-1331.31" font-family="Times New Roman,serif" font-size="9.00">22</text>
</g>
<!-- 4&#45;&gt;22 -->
<g id="edge113" class="edge"><title>4&#45;&gt;22</title>
<path fill="none" stroke="red" d="M1536.67,-1404.06C1557.67,-1395.93 1605.56,-1376.49 1643,-1354.72 1644.75,-1353.7 1646.52,-1352.6 1648.29,-1351.46"/>
<polygon fill="red" stroke="red" points="1650.59,-1354.12 1656.83,-1345.56 1646.61,-1348.36 1650.59,-1354.12"/>
</g>
<!-- 122 -->
<g id="node22" class="node"><title>122</title>
<ellipse fill="none" stroke="black" cx="1613" cy="-1333.51" rx="21.4286" ry="21.4286"/>
<text text-anchor="middle" x="1613" y="-1331.31" font-family="Times New Roman,serif" font-size="9.00">122</text>
</g>
<!-- 4&#45;&gt;122 -->
<g id="edge152" class="edge"><title>4&#45;&gt;122</title>
<path fill="none" stroke="red" d="M1535.64,-1399.95C1548.53,-1389.04 1571.81,-1369.36 1589.47,-1354.42"/>
<polygon fill="red" stroke="red" points="1591.76,-1357.06 1597.13,-1347.93 1587.24,-1351.72 1591.76,-1357.06"/>
</g>
<!-- 4&#45;&gt;15 -->
<g id="edge11" class="edge"><title>4&#45;&gt;15</title>
<path fill="none" stroke="green" d="M1515.37,-1407.73C1480.67,-1406.1 1368.41,-1397.63 1289,-1354.72 1224.24,-1319.73 1223.74,-1289.83 1170,-1239.53 1157.66,-1227.98 1143.65,-1215.28 1132.37,-1205.17"/>
<polygon fill="green" stroke="green" points="1134.5,-1202.37 1124.71,-1198.31 1129.83,-1207.59 1134.5,-1202.37"/>
</g>
<!-- 23 -->
<g id="node26" class="node"><title>23</title>
<ellipse fill="none" stroke="black" cx="1469" cy="-1257.91" rx="18.2703" ry="18.2703"/>
<text text-anchor="middle" x="1469" y="-1255.71" font-family="Times New Roman,serif" font-size="9.00">23</text>
</g>
<!-- 4&#45;&gt;23 -->
<g id="edge120" class="edge"><title>4&#45;&gt;23</title>
<path fill="none" stroke="green" d="M1522.94,-1400.09C1514.77,-1378.71 1492.21,-1319.66 1479,-1285.08"/>
<polygon fill="green" stroke="green" points="1482.22,-1283.7 1475.38,-1275.61 1475.68,-1286.2 1482.22,-1283.7"/>
</g>
<!-- 4&#45;&gt;18 -->
<g id="edge26" class="edge"><title>4&#45;&gt;18</title>
<path fill="none" stroke="green" d="M1515.46,-1405.43C1490.49,-1398.87 1426.11,-1380.58 1377,-1354.72 1375.21,-1353.78 1373.4,-1352.73 1371.62,-1351.63"/>
<polygon fill="green" stroke="green" points="1373.27,-1348.52 1363.03,-1345.81 1369.35,-1354.32 1373.27,-1348.52"/>
</g>
<!-- 19 -->
<g id="node45" class="node"><title>19</title>
<ellipse fill="none" stroke="black" cx="689" cy="-877.092" rx="18.2703" ry="18.2703"/>
<text text-anchor="middle" x="689" y="-874.892" font-family="Times New Roman,serif" font-size="9.00">19</text>
</g>
<!-- 4&#45;&gt;19 -->
<g id="edge42" class="edge"><title>4&#45;&gt;19</title>
<path fill="none" stroke="red" d="M1515.31,-1408.28C1482.53,-1408.25 1382.02,-1403.93 1322,-1354.72 1190.16,-1246.64 1284.73,-1119.31 1154,-1009.9 1020.02,-897.78 796.39,-880.849 717.56,-878.436"/>
<polygon fill="red" stroke="red" points="717.507,-874.933 707.423,-878.183 717.332,-881.931 717.507,-874.933"/>
</g>
<!-- 53 -->
<g id="node47" class="node"><title>53</title>
<ellipse fill="none" stroke="black" cx="1625" cy="-1257.91" rx="18.2703" ry="18.2703"/>
<text text-anchor="middle" x="1625" y="-1255.71" font-family="Times New Roman,serif" font-size="9.00">53</text>
</g>
<!-- 4&#45;&gt;53 -->
<g id="edge116" class="edge"><title>4&#45;&gt;53</title>
<path fill="none" stroke="red" d="M1530.39,-1399.94C1539.52,-1383.12 1561.53,-1343.57 1583,-1312.3 1590.43,-1301.47 1599.35,-1289.96 1607.05,-1280.41"/>
<polygon fill="red" stroke="red" points="1609.82,-1282.55 1613.44,-1272.59 1604.4,-1278.12 1609.82,-1282.55"/>
</g>
<!-- 4&#45;&gt;7 -->
<g id="edge8" class="edge"><title>4&#45;&gt;7</title>
<path fill="none" stroke="red" d="M1536.89,-1408.68C1568.26,-1409.64 1659.06,-1407.59 1698,-1354.72 1709.18,-1339.54 1701.93,-1330.74 1698,-1312.3 1667.12,-1167.45 1637.41,-1134.92 1558,-1009.9 1549.46,-996.465 1538.16,-982.61 1528.89,-972.017"/>
<polygon fill="red" stroke="red" points="1531.26,-969.417 1521.99,-964.292 1526.04,-974.081 1531.26,-969.417"/>
</g>
<!-- 27 -->
<g id="node65" class="node"><title>27</title>
<ellipse fill="none" stroke="black" cx="1331" cy="-217.924" rx="18.2703" ry="18.2703"/>
<text text-anchor="middle" x="1331" y="-215.724" font-family="Times New Roman,serif" font-size="9.00">27</text>
</g>
<!-- 4&#45;&gt;27 -->
<g id="edge21" class="edge"><title>4&#45;&gt;27</title>
<path fill="none" stroke="green" d="M1527.51,-1399.89C1530.78,-1382.99 1539.37,-1343.3 1553,-1312.3 1568.31,-1277.49 1574.31,-1269.27 1598,-1239.53 1640.83,-1185.74 1675.46,-1191.32 1708,-1130.76 1745.97,-1060.09 1743,-1033.91 1743,-953.69 1743,-953.69 1743,-953.69 1743,-876.092 1743,-793.811 1664.48,-808.469 1613,-744.281 1475.74,-573.136 1372.47,-325.298 1340.99,-245.049"/>
<polygon fill="green" stroke="green" points="1344.23,-243.74 1337.35,-235.691 1337.71,-246.28 1344.23,-243.74"/>
</g>
<!-- 62&#45;&gt;32 -->
<g id="edge80" class="edge"><title>62&#45;&gt;32</title>
<path fill="none" stroke="green" d="M324.942,-1785.51C384.839,-1774.12 578.218,-1737.33 650.973,-1723.49"/>
<polygon fill="green" stroke="green" points="651.632,-1726.92 660.802,-1721.62 650.324,-1720.05 651.632,-1726.92"/>
</g>
<!-- 114 -->
<g id="node9" class="node"><title>114</title>
<ellipse fill="none" stroke="black" cx="777" cy="-1641.56" rx="21.4286" ry="21.4286"/>
<text text-anchor="middle" x="777" y="-1639.36" font-family="Times New Roman,serif" font-size="9.00">114</text>
</g>
<!-- 32&#45;&gt;114 -->
<g id="edge139" class="edge"><title>32&#45;&gt;114</title>
<path fill="none" stroke="green" d="M693.46,-1705.3C708.974,-1693.65 733.886,-1674.94 752.475,-1660.98"/>
<polygon fill="green" stroke="green" points="754.62,-1663.74 760.514,-1654.94 750.416,-1658.14 754.62,-1663.74"/>
</g>
<!-- 47 -->
<g id="node12" class="node"><title>47</title>
<ellipse fill="none" stroke="black" cx="633" cy="-1409.11" rx="18.2703" ry="18.2703"/>
<text text-anchor="middle" x="633" y="-1406.91" font-family="Times New Roman,serif" font-size="9.00">47</text>
</g>
<!-- 32&#45;&gt;47 -->
<g id="edge33" class="edge"><title>32&#45;&gt;47</title>
<path fill="none" stroke="red" d="M674.02,-1699.45C671.051,-1688.99 667.404,-1675.19 665,-1662.77 649.323,-1581.79 639.502,-1484.67 635.326,-1437.93"/>
<polygon fill="red" stroke="red" points="638.789,-1437.35 634.431,-1427.69 631.816,-1437.96 638.789,-1437.35"/>
</g>
<!-- 32&#45;&gt;29 -->
<g id="edge61" class="edge"><title>32&#45;&gt;29</title>
<path fill="none" stroke="green" d="M679,-1698.37C679,-1669.98 679,-1612.69 679,-1564.13 679,-1564.13 679,-1564.13 679,-1483.7 679,-1441.18 675.312,-1391.96 672.658,-1362.05"/>
<polygon fill="green" stroke="green" points="676.13,-1361.59 671.735,-1351.94 669.159,-1362.22 676.13,-1361.59"/>
</g>
<!-- 32&#45;&gt;36 -->
<g id="edge67" class="edge"><title>32&#45;&gt;36</title>
<path fill="none" stroke="red" d="M660.723,-1714.55C571.95,-1706.25 190,-1664.7 190,-1564.13 190,-1564.13 190,-1564.13 190,-1332.51 190,-1290 177.707,-1241.94 168.859,-1212.85"/>
<polygon fill="red" stroke="red" points="172.114,-1211.53 165.784,-1203.04 165.435,-1213.63 172.114,-1211.53"/>
</g>
<!-- 168 -->
<g id="node23" class="node"><title>168</title>
<ellipse fill="none" stroke="black" cx="826" cy="-1484.7" rx="21.4286" ry="21.4286"/>
<text text-anchor="middle" x="826" y="-1482.5" font-family="Times New Roman,serif" font-size="9.00">168</text>
</g>
<!-- 32&#45;&gt;168 -->
<g id="edge164" class="edge"><title>32&#45;&gt;168</title>
<path fill="none" stroke="red" d="M684.198,-1699.34C696.306,-1660.85 726.884,-1567.72 747,-1541.92 760.798,-1524.22 781.649,-1509.71 798.465,-1499.87"/>
<polygon fill="red" stroke="red" points="800.32,-1502.84 807.322,-1494.89 796.89,-1496.74 800.32,-1502.84"/>
</g>
<!-- 121 -->
<g id="node30" class="node"><title>121</title>
<ellipse fill="none" stroke="black" cx="1888" cy="-1563.13" rx="21.4286" ry="21.4286"/>
<text text-anchor="middle" x="1888" y="-1560.93" font-family="Times New Roman,serif" font-size="9.00">121</text>
</g>
<!-- 32&#45;&gt;121 -->
<g id="edge148" class="edge"><title>32&#45;&gt;121</title>
<path fill="none" stroke="red" d="M697.361,-1714.27C802.197,-1703.42 1335.61,-1647.32 1769,-1584.34 1798.99,-1579.99 1833.07,-1574.1 1857.05,-1569.81"/>
<polygon fill="red" stroke="red" points="1857.76,-1573.23 1866.98,-1568.01 1856.52,-1566.35 1857.76,-1573.23"/>
</g>
<!-- 32&#45;&gt;7 -->
<g id="edge43" class="edge"><title>32&#45;&gt;7</title>
<path fill="none" stroke="green" d="M697.385,-1715.95C853.07,-1714.01 1945,-1695.71 1945,-1564.13 1945,-1564.13 1945,-1564.13 1945,-1332.51 1945,-1149.75 1853.55,-1091.47 1690,-1009.9 1637.96,-983.951 1571.42,-966.762 1536.28,-958.803"/>
<polygon fill="green" stroke="green" points="1536.95,-955.367 1526.43,-956.629 1535.44,-962.202 1536.95,-955.367"/>
</g>
<!-- 35 -->
<g id="node17" class="node"><title>35</title>
<ellipse fill="none" stroke="black" cx="1143" cy="-1257.91" rx="18.2703" ry="18.2703"/>
<text text-anchor="middle" x="1143" y="-1255.71" font-family="Times New Roman,serif" font-size="9.00">35</text>
</g>
<!-- 137&#45;&gt;35 -->
<g id="edge95" class="edge"><title>137&#45;&gt;35</title>
<path fill="none" stroke="green" d="M1140.84,-1312.01C1141.16,-1304.11 1141.53,-1294.96 1141.88,-1286.51"/>
<polygon fill="green" stroke="green" points="1145.38,-1286.45 1142.29,-1276.31 1138.39,-1286.16 1145.38,-1286.45"/>
</g>
<!-- 107 -->
<g id="node10" class="node"><title>107</title>
<ellipse fill="none" stroke="black" cx="777" cy="-1563.13" rx="21.4286" ry="21.4286"/>
<text text-anchor="middle" x="777" y="-1560.93" font-family="Times New Roman,serif" font-size="9.00">107</text>
</g>
<!-- 114&#45;&gt;107 -->
<g id="edge140" class="edge"><title>114&#45;&gt;107</title>
<path fill="none" stroke="green" d="M777,-1620.08C777,-1612.22 777,-1603.07 777,-1594.48"/>
<polygon fill="green" stroke="green" points="780.5,-1594.4 777,-1584.4 773.5,-1594.4 780.5,-1594.4"/>
</g>
<!-- 114&#45;&gt;53 -->
<g id="edge151" class="edge"><title>114&#45;&gt;53</title>
<path fill="none" stroke="red" d="M798.336,-1639.5C941.359,-1632.17 1755,-1586.06 1755,-1485.7 1755,-1485.7 1755,-1485.7 1755,-1408.11 1755,-1344.76 1687.57,-1295.27 1649.83,-1272.54"/>
<polygon fill="red" stroke="red" points="1651.34,-1269.36 1640.94,-1267.34 1647.81,-1275.41 1651.34,-1269.36"/>
</g>
<!-- 104 -->
<g id="node11" class="node"><title>104</title>
<ellipse fill="none" stroke="black" cx="728" cy="-1484.7" rx="21.4286" ry="21.4286"/>
<text text-anchor="middle" x="728" y="-1482.5" font-family="Times New Roman,serif" font-size="9.00">104</text>
</g>
<!-- 107&#45;&gt;104 -->
<g id="edge133" class="edge"><title>107&#45;&gt;104</title>
<path fill="none" stroke="red" d="M765.881,-1544.79C759.616,-1535.02 751.667,-1522.62 744.67,-1511.71"/>
<polygon fill="red" stroke="red" points="747.419,-1509.51 739.075,-1502.98 741.526,-1513.29 747.419,-1509.51"/>
</g>
<!-- 30 -->
<g id="node33" class="node"><title>30</title>
<ellipse fill="none" stroke="black" cx="758" cy="-1185.14" rx="18.2703" ry="18.2703"/>
<text text-anchor="middle" x="758" y="-1182.94" font-family="Times New Roman,serif" font-size="9.00">30</text>
</g>
<!-- 107&#45;&gt;30 -->
<g id="edge146" class="edge"><title>107&#45;&gt;30</title>
<path fill="none" stroke="green" d="M777,-1541.48C777,-1512.23 777,-1457.09 777,-1410.11 777,-1410.11 777,-1410.11 777,-1332.51 777,-1290.52 769.214,-1242.31 763.611,-1213.05"/>
<polygon fill="green" stroke="green" points="767.032,-1212.31 761.663,-1203.17 760.164,-1213.66 767.032,-1212.31"/>
</g>
<!-- 107&#45;&gt;64 -->
<g id="edge134" class="edge"><title>107&#45;&gt;64</title>
<path fill="none" stroke="green" d="M796.431,-1554.6C815.534,-1546.03 843.577,-1530 856,-1505.92 864.643,-1489.16 857.264,-1482.31 856,-1463.49 838.405,-1201.55 777,-1140.63 777,-878.092 777,-878.092 777,-878.092 777,-652.127 777,-609.68 777,-560.44 777,-530.498"/>
<polygon fill="green" stroke="green" points="780.5,-530.388 777,-520.388 773.5,-530.388 780.5,-530.388"/>
</g>
<!-- 104&#45;&gt;47 -->
<g id="edge129" class="edge"><title>104&#45;&gt;47</title>
<path fill="none" stroke="red" d="M711.452,-1470.88C695.97,-1458.89 672.718,-1440.88 655.544,-1427.57"/>
<polygon fill="red" stroke="red" points="657.239,-1424.46 647.19,-1421.1 652.952,-1429.99 657.239,-1424.46"/>
</g>
<!-- 47&#45;&gt;5 -->
<g id="edge147" class="edge"><title>47&#45;&gt;5</title>
<path fill="none" stroke="green" d="M615.005,-1404.76C560.442,-1393.96 393.699,-1355.96 281,-1276.3 277.384,-1273.74 76,-1036.54 76,-1032.12 76,-1032.12 76,-1032.12 76,-144.154 76,-101.009 76.8971,-79.0855 112,-54 148.01,-28.2663 839.832,-13.0384 969.243,-10.4092"/>
<polygon fill="green" stroke="green" points="969.462,-13.9056 979.39,-10.2056 969.321,-6.90699 969.462,-13.9056"/>
</g>
<!-- 47&#45;&gt;29 -->
<g id="edge34" class="edge"><title>47&#45;&gt;29</title>
<path fill="none" stroke="green" d="M641.028,-1392.14C645.861,-1382.52 652.116,-1370.08 657.576,-1359.22"/>
<polygon fill="green" stroke="green" points="660.75,-1360.7 662.114,-1350.19 654.496,-1357.56 660.75,-1360.7"/>
</g>
<!-- 108 -->
<g id="node19" class="node"><title>108</title>
<ellipse fill="none" stroke="black" cx="728" cy="-1333.51" rx="21.4286" ry="21.4286"/>
<text text-anchor="middle" x="728" y="-1331.31" font-family="Times New Roman,serif" font-size="9.00">108</text>
</g>
<!-- 47&#45;&gt;108 -->
<g id="edge57" class="edge"><title>47&#45;&gt;108</title>
<path fill="none" stroke="red" d="M647.428,-1396.93C662.238,-1385.46 685.562,-1367.39 703.312,-1353.63"/>
<polygon fill="red" stroke="red" points="705.755,-1356.17 711.517,-1347.28 701.468,-1350.64 705.755,-1356.17"/>
</g>
<!-- 110 -->
<g id="node42" class="node"><title>110</title>
<ellipse fill="none" stroke="black" cx="521" cy="-1109.54" rx="21.4286" ry="21.4286"/>
<text text-anchor="middle" x="521" y="-1107.34" font-family="Times New Roman,serif" font-size="9.00">110</text>
</g>
<!-- 47&#45;&gt;110 -->
<g id="edge97" class="edge"><title>47&#45;&gt;110</title>
<path fill="none" stroke="red" d="M626.022,-1391.81C611.364,-1357.35 576.611,-1274.42 551,-1203.53 543.366,-1182.39 535.6,-1158.23 529.882,-1139.84"/>
<polygon fill="red" stroke="red" points="533.222,-1138.79 526.93,-1130.27 526.533,-1140.86 533.222,-1138.79"/>
</g>
<!-- 29&#45;&gt;5 -->
<g id="edge111" class="edge"><title>29&#45;&gt;5</title>
<path fill="none" stroke="green" d="M651.639,-1331.84C610.837,-1329.58 510.807,-1319.66 442,-1276.3 337.665,-1210.53 153,-925.825 153,-802.495 153,-802.495 153,-802.495 153,-144.154 153,-97.218 167.733,-78.1159 208,-54 275.033,-13.8541 852.075,-10.3282 969.281,-10.0268"/>
<polygon fill="green" stroke="green" points="969.431,-13.5266 979.424,-10.0062 969.417,-6.52666 969.431,-13.5266"/>
</g>
<!-- 40 -->
<g id="node20" class="node"><title>40</title>
<ellipse fill="none" stroke="black" cx="655" cy="-1257.91" rx="18.2703" ry="18.2703"/>
<text text-anchor="middle" x="655" y="-1255.71" font-family="Times New Roman,serif" font-size="9.00">40</text>
</g>
<!-- 29&#45;&gt;40 -->
<g id="edge126" class="edge"><title>29&#45;&gt;40</title>
<path fill="none" stroke="red" d="M666.521,-1315.44C664.754,-1306.77 662.564,-1296.03 660.57,-1286.24"/>
<polygon fill="red" stroke="red" points="663.939,-1285.24 658.512,-1276.14 657.08,-1286.64 663.939,-1285.24"/>
</g>
<!-- 29&#45;&gt;15 -->
<g id="edge28" class="edge"><title>29&#45;&gt;15</title>
<path fill="none" stroke="red" d="M683.543,-1321C687.924,-1317.77 692.958,-1314.53 698,-1312.3 768.198,-1281.15 793.235,-1297.66 867,-1276.3 948.089,-1252.81 1040.86,-1215.55 1085.01,-1197.16"/>
<polygon fill="red" stroke="red" points="1086.55,-1200.31 1094.42,-1193.22 1083.84,-1193.85 1086.55,-1200.31"/>
</g>
<!-- 91 -->
<g id="node28" class="node"><title>91</title>
<ellipse fill="none" stroke="black" cx="350" cy="-1109.54" rx="18.2703" ry="18.2703"/>
<text text-anchor="middle" x="350" y="-1107.34" font-family="Times New Roman,serif" font-size="9.00">91</text>
</g>
<!-- 29&#45;&gt;91 -->
<g id="edge50" class="edge"><title>29&#45;&gt;91</title>
<path fill="none" stroke="red" d="M651.7,-1331.6C614.764,-1328.91 530.214,-1318.25 476,-1276.3 431.231,-1241.65 446.635,-1210.74 411,-1166.76 399.51,-1152.57 384.444,-1138.65 372.16,-1128.22"/>
<polygon fill="red" stroke="red" points="374.107,-1125.28 364.178,-1121.58 369.633,-1130.67 374.107,-1125.28"/>
</g>
<!-- 29&#45;&gt;13 -->
<g id="edge124" class="edge"><title>29&#45;&gt;13</title>
<path fill="none" stroke="green" d="M675.011,-1315.68C679.903,-1297.03 686.062,-1266.07 682,-1239.53 671.678,-1172.07 643.503,-1096.42 627.849,-1057.81"/>
<polygon fill="green" stroke="green" points="631.012,-1056.3 623.974,-1048.38 624.538,-1058.96 631.012,-1056.3"/>
</g>
<!-- 48 -->
<g id="node58" class="node"><title>48</title>
<ellipse fill="none" stroke="black" cx="1558" cy="-801.495" rx="18.2703" ry="18.2703"/>
<text text-anchor="middle" x="1558" y="-799.295" font-family="Times New Roman,serif" font-size="9.00">48</text>
</g>
<!-- 29&#45;&gt;48 -->
<g id="edge86" class="edge"><title>29&#45;&gt;48</title>
<path fill="none" stroke="red" d="M684.412,-1321.84C688.741,-1318.71 693.529,-1315.32 698,-1312.3 722.826,-1295.52 731.3,-1294.63 755,-1276.3 973.15,-1107.56 964.156,-975.496 1214,-858.708 1217.61,-857.022 1447.97,-820.085 1529.66,-807.022"/>
<polygon fill="red" stroke="red" points="1530.41,-810.447 1539.73,-805.412 1529.3,-803.535 1530.41,-810.447"/>
</g>
<!-- 29&#45;&gt;14 -->
<g id="edge125" class="edge"><title>29&#45;&gt;14</title>
<path fill="none" stroke="red" d="M682.612,-1320.02C704.753,-1297.75 751.442,-1249.23 785,-1203.53 890.653,-1059.63 842.063,-957.128 991,-858.708 1054.26,-816.904 1291.12,-805.856 1374.08,-803.237"/>
<polygon fill="red" stroke="red" points="1374.4,-806.729 1384.29,-802.933 1374.19,-799.732 1374.4,-806.729"/>
</g>
<!-- 92&#45;&gt;15 -->
<g id="edge53" class="edge"><title>92&#45;&gt;15</title>
<path fill="none" stroke="green" d="M1027.46,-1246.47C1043.46,-1234.92 1069.44,-1216.15 1088.19,-1202.62"/>
<polygon fill="green" stroke="green" points="1090.42,-1205.32 1096.48,-1196.63 1086.32,-1199.64 1090.42,-1205.32"/>
</g>
<!-- 37&#45;&gt;23 -->
<g id="edge84" class="edge"><title>37&#45;&gt;23</title>
<path fill="none" stroke="red" d="M1415.92,-1319.01C1425.54,-1308.12 1439.25,-1292.6 1450.33,-1280.06"/>
<polygon fill="red" stroke="red" points="1453.16,-1282.14 1457.15,-1272.32 1447.91,-1277.5 1453.16,-1282.14"/>
</g>
<!-- 108&#45;&gt;23 -->
<g id="edge81" class="edge"><title>108&#45;&gt;23</title>
<path fill="none" stroke="green" d="M749.378,-1330.39C854.883,-1319.91 1319.82,-1273.73 1440.37,-1261.75"/>
<polygon fill="green" stroke="green" points="1441.03,-1265.21 1450.63,-1260.73 1440.34,-1258.24 1441.03,-1265.21"/>
</g>
<!-- 108&#45;&gt;91 -->
<g id="edge58" class="edge"><title>108&#45;&gt;91</title>
<path fill="none" stroke="red" d="M710.807,-1320.88C706.362,-1317.99 701.547,-1314.96 697,-1312.3 667.144,-1294.83 658.229,-1293.11 628,-1276.3 516.98,-1214.55 490.379,-1197.03 382,-1130.76 379.339,-1129.13 376.564,-1127.41 373.81,-1125.69"/>
<polygon fill="red" stroke="red" points="375.571,-1122.66 365.244,-1120.3 371.843,-1128.59 375.571,-1122.66"/>
</g>
<!-- 40&#45;&gt;15 -->
<g id="edge127" class="edge"><title>40&#45;&gt;15</title>
<path fill="none" stroke="red" d="M673.157,-1254.09C743.369,-1243.2 997.414,-1203.77 1082.79,-1190.52"/>
<polygon fill="red" stroke="red" points="1083.45,-1193.96 1092.79,-1188.97 1082.37,-1187.04 1083.45,-1193.96"/>
</g>
<!-- 40&#45;&gt;43 -->
<g id="edge155" class="edge"><title>40&#45;&gt;43</title>
<path fill="none" stroke="red" d="M641.938,-1244.91C630.102,-1234.03 612.459,-1217.81 598.703,-1205.17"/>
<polygon fill="red" stroke="red" points="600.857,-1202.4 591.126,-1198.21 596.12,-1207.55 600.857,-1202.4"/>
</g>
<!-- 85&#45;&gt;34 -->
<g id="edge161" class="edge"><title>85&#45;&gt;34</title>
<path fill="none" stroke="red" d="M1818.82,-1698.88C1823.17,-1670.74 1831,-1613.2 1831,-1564.13 1831,-1564.13 1831,-1564.13 1831,-1332.51 1831,-1239.53 1694.33,-1202.58 1634.02,-1190.79"/>
<polygon fill="red" stroke="red" points="1634.5,-1187.32 1624.03,-1188.94 1633.22,-1194.21 1634.5,-1187.32"/>
</g>
<!-- 122&#45;&gt;53 -->
<g id="edge153" class="edge"><title>122&#45;&gt;53</title>
<path fill="none" stroke="red" d="M1616.28,-1312.4C1617.58,-1304.41 1619.1,-1295.09 1620.5,-1286.49"/>
<polygon fill="red" stroke="red" points="1623.98,-1286.93 1622.13,-1276.49 1617.07,-1285.8 1623.98,-1286.93"/>
</g>
<!-- 42 -->
<g id="node40" class="node"><title>42</title>
<ellipse fill="none" stroke="black" cx="1127" cy="-1031.12" rx="18.2703" ry="18.2703"/>
<text text-anchor="middle" x="1127" y="-1028.92" font-family="Times New Roman,serif" font-size="9.00">42</text>
</g>
<!-- 168&#45;&gt;42 -->
<g id="edge165" class="edge"><title>168&#45;&gt;42</title>
<path fill="none" stroke="green" d="M836.859,-1466.05C871.527,-1409.92 983.191,-1230.86 1084,-1088.33 1092.09,-1076.89 1101.51,-1064.48 1109.47,-1054.24"/>
<polygon fill="green" stroke="green" points="1112.34,-1056.25 1115.74,-1046.22 1106.82,-1051.94 1112.34,-1056.25"/>
</g>
<!-- 112 -->
<g id="node29" class="node"><title>112</title>
<ellipse fill="none" stroke="black" cx="1016" cy="-1109.54" rx="21.4286" ry="21.4286"/>
<text text-anchor="middle" x="1016" y="-1107.34" font-family="Times New Roman,serif" font-size="9.00">112</text>
</g>
<!-- 15&#45;&gt;112 -->
<g id="edge74" class="edge"><title>15&#45;&gt;112</title>
<path fill="none" stroke="red" d="M1096.57,-1172.96C1081.76,-1161.49 1058.44,-1143.42 1040.69,-1129.67"/>
<polygon fill="red" stroke="red" points="1042.53,-1126.67 1032.48,-1123.31 1038.25,-1132.2 1042.53,-1126.67"/>
</g>
<!-- 86 -->
<g id="node34" class="node"><title>86</title>
<ellipse fill="none" stroke="black" cx="1111" cy="-1109.54" rx="18.2703" ry="18.2703"/>
<text text-anchor="middle" x="1111" y="-1107.34" font-family="Times New Roman,serif" font-size="9.00">86</text>
</g>
<!-- 15&#45;&gt;86 -->
<g id="edge45" class="edge"><title>15&#45;&gt;86</title>
<path fill="none" stroke="red" d="M1111,-1166.7C1111,-1158.24 1111,-1147.87 1111,-1138.35"/>
<polygon fill="red" stroke="red" points="1114.5,-1138.11 1111,-1128.11 1107.5,-1138.11 1114.5,-1138.11"/>
</g>
<!-- 60 -->
<g id="node38" class="node"><title>60</title>
<ellipse fill="none" stroke="black" cx="1469" cy="-1109.54" rx="18.2703" ry="18.2703"/>
<text text-anchor="middle" x="1469" y="-1107.34" font-family="Times New Roman,serif" font-size="9.00">60</text>
</g>
<!-- 15&#45;&gt;60 -->
<g id="edge114" class="edge"><title>15&#45;&gt;60</title>
<path fill="none" stroke="red" d="M1129.25,-1180.39C1187.66,-1168.38 1370.35,-1130.82 1440.85,-1116.33"/>
<polygon fill="red" stroke="red" points="1441.7,-1119.73 1450.79,-1114.29 1440.29,-1112.87 1441.7,-1119.73"/>
</g>
<!-- 31 -->
<g id="node50" class="node"><title>31</title>
<ellipse fill="none" stroke="black" cx="1241" cy="-877.092" rx="18.2703" ry="18.2703"/>
<text text-anchor="middle" x="1241" y="-874.892" font-family="Times New Roman,serif" font-size="9.00">31</text>
</g>
<!-- 15&#45;&gt;31 -->
<g id="edge115" class="edge"><title>15&#45;&gt;31</title>
<path fill="none" stroke="red" d="M1125.51,-1173.47C1151.55,-1153.3 1205.33,-1106.67 1225,-1052.33 1242.82,-1003.1 1243.9,-941.186 1242.7,-905.978"/>
<polygon fill="red" stroke="red" points="1246.18,-905.375 1242.25,-895.535 1239.18,-905.677 1246.18,-905.375"/>
</g>
<!-- 15&#45;&gt;8 -->
<g id="edge16" class="edge"><title>15&#45;&gt;8</title>
<path fill="none" stroke="green" d="M1092.87,-1181.83C1065.23,-1177.29 1012.92,-1164.52 986,-1130.76 872.303,-988.126 913,-909.299 913,-726.897 913,-726.897 913,-726.897 913,-576.529 913,-533.849 915.047,-517.357 889,-483.546 872.45,-462.063 843.855,-448.445 823.547,-440.969"/>
<polygon fill="green" stroke="green" points="824.656,-437.649 814.061,-437.698 822.373,-444.267 824.656,-437.649"/>
</g>
<!-- 15&#45;&gt;7 -->
<g id="edge15" class="edge"><title>15&#45;&gt;7</title>
<path fill="none" stroke="red" d="M1127.04,-1175.6C1146.51,-1165.17 1180.32,-1146.95 1209,-1130.76 1315.7,-1070.54 1441.73,-995.667 1490.89,-966.321"/>
<polygon fill="red" stroke="red" points="1492.88,-969.211 1499.67,-961.077 1489.29,-963.202 1492.88,-969.211"/>
</g>
<!-- 26 -->
<g id="node59" class="node"><title>26</title>
<ellipse fill="none" stroke="black" cx="1216" cy="-363.463" rx="18.2703" ry="18.2703"/>
<text text-anchor="middle" x="1216" y="-361.263" font-family="Times New Roman,serif" font-size="9.00">26</text>
</g>
<!-- 15&#45;&gt;26 -->
<g id="edge17" class="edge"><title>15&#45;&gt;26</title>
<path fill="none" stroke="red" d="M1119.61,-1168.52C1125.22,-1158.02 1132.5,-1143.77 1138,-1130.76 1166.7,-1062.85 1176.85,-1046.06 1192,-973.904 1216.41,-857.64 1179.04,-821.05 1214,-707.512 1233.38,-644.559 1287,-644.399 1287,-578.529 1287,-578.529 1287,-578.529 1287,-500.931 1287,-455.821 1256.09,-410.83 1235.06,-385.438"/>
<polygon fill="red" stroke="red" points="1237.53,-382.933 1228.37,-377.606 1232.2,-387.482 1237.53,-382.933"/>
</g>
<!-- 43&#45;&gt;5 -->
<g id="edge159" class="edge"><title>43&#45;&gt;5</title>
<path fill="none" stroke="red" d="M560.168,-1179.95C534.284,-1173.16 485.818,-1157.72 453,-1130.76 316.533,-1018.63 229,-979.12 229,-802.495 229,-802.495 229,-802.495 229,-724.897 229,-624.81 191,-603.018 191,-502.931 191,-502.931 191,-502.931 191,-144.154 191,-51.0872 290.026,-77.7949 380,-54 495.044,-23.5749 876.286,-12.6967 969.366,-10.4609"/>
<polygon fill="red" stroke="red" points="969.554,-13.9576 979.469,-10.2254 969.39,-6.95947 969.554,-13.9576"/>
</g>
<!-- 80 -->
<g id="node35" class="node"><title>80</title>
<ellipse fill="none" stroke="black" cx="579" cy="-1109.54" rx="18.2703" ry="18.2703"/>
<text text-anchor="middle" x="579" y="-1107.34" font-family="Times New Roman,serif" font-size="9.00">80</text>
</g>
<!-- 43&#45;&gt;80 -->
<g id="edge135" class="edge"><title>43&#45;&gt;80</title>
<path fill="none" stroke="red" d="M578.237,-1166.7C578.352,-1158.24 578.493,-1147.87 578.622,-1138.35"/>
<polygon fill="red" stroke="red" points="582.125,-1138.16 578.761,-1128.11 575.126,-1138.07 582.125,-1138.16"/>
</g>
<!-- 43&#45;&gt;13 -->
<g id="edge30" class="edge"><title>43&#45;&gt;13</title>
<path fill="none" stroke="green" d="M587.668,-1169.37C593.966,-1159 601.773,-1144.57 606,-1130.76 613.14,-1107.43 615.747,-1079.74 616.651,-1059.65"/>
<polygon fill="green" stroke="green" points="620.15,-1059.73 616.99,-1049.62 613.154,-1059.49 620.15,-1059.73"/>
</g>
<!-- 43&#45;&gt;110 -->
<g id="edge92" class="edge"><title>43&#45;&gt;110</title>
<path fill="none" stroke="red" d="M567.01,-1169.95C559.304,-1160 548.811,-1146.45 539.791,-1134.81"/>
<polygon fill="red" stroke="red" points="542.434,-1132.5 533.544,-1126.74 536.9,-1136.79 542.434,-1132.5"/>
</g>
<!-- 43&#45;&gt;8 -->
<g id="edge101" class="edge"><title>43&#45;&gt;8</title>
<path fill="none" stroke="red" d="M561.27,-1177.41C542.127,-1168.99 510.867,-1152.93 491,-1130.76 388.319,-1016.16 381,-956.362 381,-802.495 381,-802.495 381,-802.495 381,-652.127 381,-567.813 398.084,-530.67 468,-483.546 518.247,-449.68 705.886,-437.942 774.588,-434.728"/>
<polygon fill="red" stroke="red" points="775.078,-438.209 784.912,-434.268 774.766,-431.216 775.078,-438.209"/>
</g>
<!-- 43&#45;&gt;14 -->
<g id="edge156" class="edge"><title>43&#45;&gt;14</title>
<path fill="none" stroke="green" d="M590.712,-1171.26C645.818,-1115.74 865.22,-897.857 953,-858.708 1029.2,-824.725 1287.65,-808.482 1374.36,-803.897"/>
<polygon fill="green" stroke="green" points="1374.72,-807.384 1384.52,-803.372 1374.35,-800.393 1374.72,-807.384"/>
</g>
<!-- 75 -->
<g id="node32" class="node"><title>75</title>
<ellipse fill="none" stroke="black" cx="1511" cy="-1185.14" rx="18.2703" ry="18.2703"/>
<text text-anchor="middle" x="1511" y="-1182.94" font-family="Times New Roman,serif" font-size="9.00">75</text>
</g>
<!-- 23&#45;&gt;75 -->
<g id="edge55" class="edge"><title>23&#45;&gt;75</title>
<path fill="none" stroke="red" d="M1478.11,-1241.55C1483.56,-1232.37 1490.6,-1220.51 1496.77,-1210.12"/>
<polygon fill="red" stroke="red" points="1499.81,-1211.85 1501.9,-1201.47 1493.79,-1208.28 1499.81,-1211.85"/>
</g>
<!-- 23&#45;&gt;60 -->
<g id="edge123" class="edge"><title>23&#45;&gt;60</title>
<path fill="none" stroke="red" d="M1469,-1239.26C1469,-1214.2 1469,-1168.08 1469,-1138.39"/>
<polygon fill="red" stroke="red" points="1472.5,-1138.26 1469,-1128.26 1465.5,-1138.26 1472.5,-1138.26"/>
</g>
<!-- 23&#45;&gt;34 -->
<g id="edge31" class="edge"><title>23&#45;&gt;34</title>
<path fill="none" stroke="red" d="M1484.89,-1248.12C1490.01,-1245.33 1495.72,-1242.26 1501,-1239.53 1533.12,-1222.89 1541.88,-1220.16 1574,-1203.53 1576.31,-1202.33 1578.7,-1201.07 1581.09,-1199.8"/>
<polygon fill="red" stroke="red" points="1582.97,-1202.76 1590.11,-1194.93 1579.65,-1196.6 1582.97,-1202.76"/>
</g>
<!-- 56 -->
<g id="node67" class="node"><title>56</title>
<ellipse fill="none" stroke="black" cx="1036" cy="-72.3848" rx="18.2703" ry="18.2703"/>
<text text-anchor="middle" x="1036" y="-70.1848" font-family="Times New Roman,serif" font-size="9.00">56</text>
</g>
<!-- 23&#45;&gt;56 -->
<g id="edge143" class="edge"><title>23&#45;&gt;56</title>
<path fill="none" stroke="green" d="M1484.14,-1247.31C1498.93,-1237.46 1521.57,-1221.13 1538,-1203.53 1629.11,-1105.87 1705,-1087.25 1705,-953.69 1705,-953.69 1705,-953.69 1705,-800.495 1705,-702.211 1439.33,-200.81 1335,-126.77 1291.62,-95.9814 1130.88,-80.5629 1064.73,-75.412"/>
<polygon fill="green" stroke="green" points="1064.83,-71.9099 1054.6,-74.6463 1064.31,-78.89 1064.83,-71.9099"/>
</g>
<!-- 18&#45;&gt;60 -->
<g id="edge100" class="edge"><title>18&#45;&gt;60</title>
<path fill="none" stroke="green" d="M1362.24,-1320.1C1373.17,-1309.31 1388.54,-1292.86 1399,-1276.3 1427.87,-1230.58 1449.7,-1170.91 1460.81,-1137.05"/>
<polygon fill="green" stroke="green" points="1464.18,-1138.01 1463.91,-1127.42 1457.52,-1135.86 1464.18,-1138.01"/>
</g>
<!-- 39 -->
<g id="node43" class="node"><title>39</title>
<ellipse fill="none" stroke="black" cx="1241" cy="-725.897" rx="18.2703" ry="18.2703"/>
<text text-anchor="middle" x="1241" y="-723.697" font-family="Times New Roman,serif" font-size="9.00">39</text>
</g>
<!-- 18&#45;&gt;39 -->
<g id="edge157" class="edge"><title>18&#45;&gt;39</title>
<path fill="none" stroke="green" d="M1350.39,-1314.98C1353.1,-1279.99 1358.97,-1198.97 1361,-1130.76 1361.56,-1111.91 1363.57,-1107.01 1361,-1088.33 1342.94,-957.065 1279.61,-809.819 1252.96,-752.057"/>
<polygon fill="green" stroke="green" points="1256.12,-750.539 1248.72,-742.951 1249.77,-753.494 1256.12,-750.539"/>
</g>
<!-- 91&#45;&gt;13 -->
<g id="edge51" class="edge"><title>91&#45;&gt;13</title>
<path fill="none" stroke="green" d="M367.544,-1103.46C381.699,-1099.36 402.127,-1093.46 420,-1088.33 480.621,-1070.93 551.783,-1050.66 589.796,-1039.85"/>
<polygon fill="green" stroke="green" points="590.941,-1043.16 599.602,-1037.06 589.026,-1036.43 590.941,-1043.16"/>
</g>
<!-- 91&#45;&gt;56 -->
<g id="edge167" class="edge"><title>91&#45;&gt;56</title>
<path fill="none" stroke="green" d="M335.481,-1097.26C322.585,-1086.7 303.843,-1069.93 291,-1052.33 220.499,-955.715 191,-922.097 191,-802.495 191,-802.495 191,-802.495 191,-724.897 191,-624.81 229,-603.018 229,-502.931 229,-502.931 229,-502.931 229,-216.924 229,-113.307 343.44,-151.751 444,-126.77 655.295,-74.2793 920.4,-72.0482 1007.11,-72.887"/>
<polygon fill="green" stroke="green" points="1007.2,-76.3882 1017.24,-73.0077 1007.29,-69.3887 1007.2,-76.3882"/>
</g>
<!-- 111 -->
<g id="node31" class="node"><title>111</title>
<ellipse fill="none" stroke="black" cx="1069" cy="-1031.12" rx="21.4286" ry="21.4286"/>
<text text-anchor="middle" x="1069" y="-1028.92" font-family="Times New Roman,serif" font-size="9.00">111</text>
</g>
<!-- 112&#45;&gt;111 -->
<g id="edge75" class="edge"><title>112&#45;&gt;111</title>
<path fill="none" stroke="red" d="M1027.76,-1091.58C1034.69,-1081.59 1043.59,-1068.75 1051.35,-1057.56"/>
<polygon fill="red" stroke="red" points="1054.45,-1059.24 1057.27,-1049.03 1048.7,-1055.25 1054.45,-1059.24"/>
</g>
<!-- 171 -->
<g id="node37" class="node"><title>171</title>
<ellipse fill="none" stroke="black" cx="826" cy="-801.495" rx="21.4286" ry="21.4286"/>
<text text-anchor="middle" x="826" y="-799.295" font-family="Times New Roman,serif" font-size="9.00">171</text>
</g>
<!-- 112&#45;&gt;171 -->
<g id="edge162" class="edge"><title>112&#45;&gt;171</title>
<path fill="none" stroke="green" d="M1005.24,-1091.21C973.506,-1040.09 880.147,-889.714 842.258,-828.682"/>
<polygon fill="green" stroke="green" points="845.125,-826.665 836.877,-820.015 839.178,-830.357 845.125,-826.665"/>
</g>
<!-- 121&#45;&gt;7 -->
<g id="edge149" class="edge"><title>121&#45;&gt;7</title>
<path fill="none" stroke="green" d="M1892.12,-1542.07C1897.71,-1513.07 1907,-1457.72 1907,-1410.11 1907,-1410.11 1907,-1410.11 1907,-1332.51 1907,-1125 1619.53,-995.849 1535.07,-962.38"/>
<polygon fill="green" stroke="green" points="1536.19,-959.059 1525.6,-958.693 1533.65,-965.582 1536.19,-959.059"/>
</g>
<!-- 55 -->
<g id="node36" class="node"><title>55</title>
<ellipse fill="none" stroke="black" cx="1165" cy="-952.69" rx="18.2703" ry="18.2703"/>
<text text-anchor="middle" x="1165" y="-950.49" font-family="Times New Roman,serif" font-size="9.00">55</text>
</g>
<!-- 111&#45;&gt;55 -->
<g id="edge72" class="edge"><title>111&#45;&gt;55</title>
<path fill="none" stroke="red" d="M1085.29,-1017.15C1101.1,-1004.56 1125.23,-985.354 1142.8,-971.367"/>
<polygon fill="red" stroke="red" points="1145.18,-973.939 1150.83,-964.973 1140.82,-968.463 1145.18,-973.939"/>
</g>
<!-- 75&#45;&gt;60 -->
<g id="edge56" class="edge"><title>75&#45;&gt;60</title>
<path fill="none" stroke="red" d="M1502.3,-1168.89C1496.67,-1159.02 1489.21,-1145.96 1482.79,-1134.7"/>
<polygon fill="red" stroke="red" points="1485.69,-1132.72 1477.69,-1125.77 1479.61,-1136.19 1485.69,-1132.72"/>
</g>
<!-- 30&#45;&gt;13 -->
<g id="edge41" class="edge"><title>30&#45;&gt;13</title>
<path fill="none" stroke="green" d="M753.848,-1167.11C748.084,-1146.42 735.929,-1111.44 715,-1088.33 695.247,-1066.52 664.99,-1050.97 643.323,-1041.83"/>
<polygon fill="green" stroke="green" points="644.625,-1038.58 634.042,-1038.08 642.004,-1045.07 644.625,-1038.58"/>
</g>
<!-- 30&#45;&gt;110 -->
<g id="edge96" class="edge"><title>30&#45;&gt;110</title>
<path fill="none" stroke="green" d="M739.712,-1181.45C702.934,-1175.6 617.908,-1159.85 552,-1130.76 550.193,-1129.96 548.372,-1129.06 546.568,-1128.1"/>
<polygon fill="green" stroke="green" points="548.204,-1125 537.816,-1122.91 544.636,-1131.02 548.204,-1125"/>
</g>
<!-- 93 -->
<g id="node48" class="node"><title>93</title>
<ellipse fill="none" stroke="black" cx="731" cy="-801.495" rx="18.2703" ry="18.2703"/>
<text text-anchor="middle" x="731" y="-799.295" font-family="Times New Roman,serif" font-size="9.00">93</text>
</g>
<!-- 30&#45;&gt;93 -->
<g id="edge166" class="edge"><title>30&#45;&gt;93</title>
<path fill="none" stroke="green" d="M755.057,-1166.72C750.933,-1141.55 743.545,-1093.52 740,-1052.33 733.074,-971.864 731.461,-876.374 731.097,-830.216"/>
<polygon fill="green" stroke="green" points="734.597,-830.076 731.032,-820.099 727.597,-830.122 734.597,-830.076"/>
</g>
<!-- 86&#45;&gt;42 -->
<g id="edge46" class="edge"><title>86&#45;&gt;42</title>
<path fill="none" stroke="red" d="M1114.63,-1091.2C1116.59,-1081.82 1119.07,-1070.02 1121.28,-1059.43"/>
<polygon fill="red" stroke="red" points="1124.76,-1059.9 1123.38,-1049.39 1117.91,-1058.46 1124.76,-1059.9"/>
</g>
<!-- 80&#45;&gt;13 -->
<g id="edge136" class="edge"><title>80&#45;&gt;13</title>
<path fill="none" stroke="red" d="M586.874,-1092.71C591.969,-1082.46 598.712,-1068.9 604.527,-1057.2"/>
<polygon fill="red" stroke="red" points="607.818,-1058.44 609.136,-1047.93 601.55,-1055.33 607.818,-1058.44"/>
</g>
<!-- 80&#45;&gt;56 -->
<g id="edge154" class="edge"><title>80&#45;&gt;56</title>
<path fill="none" stroke="green" d="M564.37,-1098.17C502.686,-1053.12 267,-867.053 267,-654.127 267,-654.127 267,-654.127 267,-289.693 267,-132.888 866.996,-84.3267 1007.03,-75.1282"/>
<polygon fill="green" stroke="green" points="1007.62,-78.5978 1017.37,-74.4661 1007.17,-71.6121 1007.62,-78.5978"/>
</g>
<!-- 55&#45;&gt;31 -->
<g id="edge63" class="edge"><title>55&#45;&gt;31</title>
<path fill="none" stroke="red" d="M1177.89,-939.206C1189.65,-927.824 1207.2,-910.825 1220.81,-897.642"/>
<polygon fill="red" stroke="red" points="1223.55,-899.864 1228.3,-890.393 1218.68,-894.835 1223.55,-899.864"/>
</g>
<!-- 21 -->
<g id="node49" class="node"><title>21</title>
<ellipse fill="none" stroke="black" cx="698" cy="-725.897" rx="18.2703" ry="18.2703"/>
<text text-anchor="middle" x="698" y="-723.697" font-family="Times New Roman,serif" font-size="9.00">21</text>
</g>
<!-- 171&#45;&gt;21 -->
<g id="edge163" class="edge"><title>171&#45;&gt;21</title>
<path fill="none" stroke="red" d="M807.932,-790.106C785.567,-777.246 747.386,-755.293 722.425,-740.941"/>
<polygon fill="red" stroke="red" points="723.98,-737.797 713.566,-735.847 720.491,-743.866 723.98,-737.797"/>
</g>
<!-- 60&#45;&gt;42 -->
<g id="edge49" class="edge"><title>60&#45;&gt;42</title>
<path fill="none" stroke="red" d="M1451.09,-1104.54C1395,-1092.01 1222.37,-1053.43 1154.66,-1038.3"/>
<polygon fill="red" stroke="red" points="1155.25,-1034.84 1144.73,-1036.08 1153.72,-1041.68 1155.25,-1034.84"/>
</g>
<!-- 24 -->
<g id="node53" class="node"><title>24</title>
<ellipse fill="none" stroke="black" cx="823" cy="-577.529" rx="18.2703" ry="18.2703"/>
<text text-anchor="middle" x="823" y="-575.329" font-family="Times New Roman,serif" font-size="9.00">24</text>
</g>
<!-- 60&#45;&gt;24 -->
<g id="edge35" class="edge"><title>60&#45;&gt;24</title>
<path fill="none" stroke="green" d="M1481.61,-1095.62C1527.23,-1047.39 1676.24,-875.762 1585,-780.281 1479.23,-669.605 976.338,-598.285 851.231,-582.062"/>
<polygon fill="green" stroke="green" points="851.638,-578.586 841.274,-580.785 850.747,-585.529 851.638,-578.586"/>
</g>
<!-- 60&#45;&gt;7 -->
<g id="edge85" class="edge"><title>60&#45;&gt;7</title>
<path fill="none" stroke="green" d="M1476.07,-1092.55C1480.78,-1081.44 1486.84,-1066.18 1491,-1052.33 1498.55,-1027.17 1504.46,-997.619 1508.06,-977.467"/>
<polygon fill="green" stroke="green" points="1511.52,-978.044 1509.78,-967.593 1504.62,-976.847 1511.52,-978.044"/>
</g>
<!-- 45 -->
<g id="node44" class="node"><title>45</title>
<ellipse fill="none" stroke="black" cx="693" cy="-952.69" rx="18.2703" ry="18.2703"/>
<text text-anchor="middle" x="693" y="-950.49" font-family="Times New Roman,serif" font-size="9.00">45</text>
</g>
<!-- 13&#45;&gt;45 -->
<g id="edge88" class="edge"><title>13&#45;&gt;45</title>
<path fill="none" stroke="red" d="M629.55,-1017.5C641.431,-1005.55 659.456,-987.423 673.262,-973.54"/>
<polygon fill="red" stroke="red" points="675.862,-975.888 680.432,-966.329 670.898,-970.952 675.862,-975.888"/>
</g>
<!-- 13&#45;&gt;19 -->
<g id="edge103" class="edge"><title>13&#45;&gt;19</title>
<path fill="none" stroke="green" d="M624.569,-1014.13C637.014,-987.858 661.905,-935.302 676.844,-903.76"/>
<polygon fill="green" stroke="green" points="680.198,-904.854 681.316,-894.318 673.872,-901.857 680.198,-904.854"/>
</g>
<!-- 13&#45;&gt;17 -->
<g id="edge98" class="edge"><title>13&#45;&gt;17</title>
<path fill="none" stroke="red" d="M615.458,-1012.35C613.133,-983.983 609,-926.723 609,-878.092 609,-878.092 609,-878.092 609,-800.495 609,-759.199 612.214,-711.446 614.568,-682.015"/>
<polygon fill="red" stroke="red" points="618.086,-681.937 615.419,-671.684 611.11,-681.362 618.086,-681.937"/>
</g>
<!-- 13&#45;&gt;64 -->
<g id="edge118" class="edge"><title>13&#45;&gt;64</title>
<path fill="none" stroke="red" d="M608.776,-1014.18C595.545,-987.007 571,-929.658 571,-878.092 571,-878.092 571,-878.092 571,-724.897 571,-683.948 568.448,-669.56 590,-634.742 619.544,-587.013 642.914,-588.363 689,-556.316 709.863,-541.808 734.703,-526.944 752.663,-516.597"/>
<polygon fill="red" stroke="red" points="754.423,-519.623 761.371,-511.624 750.951,-513.545 754.423,-519.623"/>
</g>
<!-- 13&#45;&gt;8 -->
<g id="edge102" class="edge"><title>13&#45;&gt;8</title>
<path fill="none" stroke="red" d="M604.403,-1017.56C573.233,-985.079 495,-894.408 495,-802.495 495,-802.495 495,-802.495 495,-576.529 495,-453.342 701.579,-436.176 774.713,-433.959"/>
<polygon fill="red" stroke="red" points="774.959,-437.455 784.875,-433.724 774.797,-430.456 774.959,-437.455"/>
</g>
<!-- 13&#45;&gt;7 -->
<g id="edge138" class="edge"><title>13&#45;&gt;7</title>
<path fill="none" stroke="green" d="M635.34,-1028.72C679.51,-1025.35 795.292,-1016.61 892,-1009.9 1137.27,-992.892 1201.99,-1017.2 1444,-973.904 1459.21,-971.183 1475.84,-966.274 1488.85,-961.975"/>
<polygon fill="green" stroke="green" points="1490.08,-965.255 1498.41,-958.712 1487.82,-958.63 1490.08,-965.255"/>
</g>
<!-- 42&#45;&gt;8 -->
<g id="edge47" class="edge"><title>42&#45;&gt;8</title>
<path fill="none" stroke="green" d="M1114.24,-1017.6C1090.74,-993.143 1043,-936.29 1043,-878.092 1043,-878.092 1043,-878.092 1043,-576.529 1043,-476.123 886.901,-444.912 824.926,-436.478"/>
<polygon fill="green" stroke="green" points="825.197,-432.984 814.835,-435.195 824.314,-439.928 825.197,-432.984"/>
</g>
<!-- 42&#45;&gt;7 -->
<g id="edge12" class="edge"><title>42&#45;&gt;7</title>
<path fill="none" stroke="green" d="M1145.37,-1027.6C1194.3,-1020.75 1331.68,-1000.47 1444,-973.904 1458.94,-970.37 1475.46,-965.484 1488.47,-961.401"/>
<polygon fill="green" stroke="green" points="1489.6,-964.716 1498.06,-958.34 1487.47,-958.047 1489.6,-964.716"/>
</g>
<!-- 16 -->
<g id="node60" class="node"><title>16</title>
<ellipse fill="none" stroke="black" cx="971" cy="-363.463" rx="18.2703" ry="18.2703"/>
<text text-anchor="middle" x="971" y="-361.263" font-family="Times New Roman,serif" font-size="9.00">16</text>
</g>
<!-- 42&#45;&gt;16 -->
<g id="edge48" class="edge"><title>42&#45;&gt;16</title>
<path fill="none" stroke="red" d="M1125.46,-1012.35C1123.13,-983.983 1119,-926.723 1119,-878.092 1119,-878.092 1119,-878.092 1119,-500.931 1119,-435.571 1040.02,-392.879 997.454,-374.614"/>
<polygon fill="red" stroke="red" points="998.556,-371.283 987.977,-370.694 995.88,-377.751 998.556,-371.283"/>
</g>
<!-- 115 -->
<g id="node46" class="node"><title>115</title>
<ellipse fill="none" stroke="black" cx="1414" cy="-952.69" rx="21.4286" ry="21.4286"/>
<text text-anchor="middle" x="1414" y="-950.49" font-family="Times New Roman,serif" font-size="9.00">115</text>
</g>
<!-- 34&#45;&gt;115 -->
<g id="edge77" class="edge"><title>34&#45;&gt;115</title>
<path fill="none" stroke="red" d="M1594.56,-1170.42C1562.88,-1132.39 1473.69,-1025.33 1433.76,-977.405"/>
<polygon fill="red" stroke="red" points="1436.21,-974.882 1427.12,-969.44 1430.83,-979.363 1436.21,-974.882"/>
</g>
<!-- 34&#45;&gt;7 -->
<g id="edge32" class="edge"><title>34&#45;&gt;7</title>
<path fill="none" stroke="green" d="M1599.39,-1167.94C1582.92,-1127.55 1540.01,-1022.36 1521.14,-976.086"/>
<polygon fill="green" stroke="green" points="1524.3,-974.59 1517.29,-966.652 1517.82,-977.234 1524.3,-974.59"/>
</g>
<!-- 110&#45;&gt;8 -->
<g id="edge93" class="edge"><title>110&#45;&gt;8</title>
<path fill="none" stroke="green" d="M508.082,-1092.31C480.635,-1056.12 419,-965.16 419,-878.092 419,-878.092 419,-878.092 419,-724.897 419,-609.942 420.977,-553.757 512,-483.546 553.125,-451.824 712.636,-438.96 774.902,-435.078"/>
<polygon fill="green" stroke="green" points="775.246,-438.564 785.02,-434.474 774.829,-431.576 775.246,-438.564"/>
</g>
<!-- 39&#45;&gt;8 -->
<g id="edge158" class="edge"><title>39&#45;&gt;8</title>
<path fill="none" stroke="green" d="M1233.84,-708.719C1213.39,-664.549 1150.11,-541.343 1057,-483.546 982.305,-437.183 873.761,-432.423 825.165,-432.866"/>
<polygon fill="green" stroke="green" points="824.881,-429.371 814.945,-433.047 825.005,-436.369 824.881,-429.371"/>
</g>
<!-- 45&#45;&gt;19 -->
<g id="edge89" class="edge"><title>45&#45;&gt;19</title>
<path fill="none" stroke="red" d="M692.052,-934.249C691.592,-925.786 691.028,-915.415 690.511,-905.898"/>
<polygon fill="red" stroke="red" points="693.993,-905.459 689.955,-895.664 687.003,-905.839 693.993,-905.459"/>
</g>
<!-- 19&#45;&gt;93 -->
<g id="edge144" class="edge"><title>19&#45;&gt;93</title>
<path fill="none" stroke="green" d="M697.702,-860.843C703.334,-850.975 710.787,-837.914 717.214,-826.652"/>
<polygon fill="green" stroke="green" points="720.392,-828.145 722.309,-817.725 714.312,-824.675 720.392,-828.145"/>
</g>
<!-- 19&#45;&gt;21 -->
<g id="edge40" class="edge"><title>19&#45;&gt;21</title>
<path fill="none" stroke="green" d="M690.05,-858.686C691.586,-833.219 694.463,-785.526 696.302,-755.037"/>
<polygon fill="green" stroke="green" points="699.82,-754.847 696.929,-744.655 692.833,-754.426 699.82,-754.847"/>
</g>
<!-- 19&#45;&gt;17 -->
<g id="edge110" class="edge"><title>19&#45;&gt;17</title>
<path fill="none" stroke="green" d="M683.588,-859.409C671.183,-821.166 640.612,-726.918 625.599,-680.637"/>
<polygon fill="green" stroke="green" points="628.889,-679.436 622.475,-671.004 622.231,-681.596 628.889,-679.436"/>
</g>
<!-- 115&#45;&gt;31 -->
<g id="edge78" class="edge"><title>115&#45;&gt;31</title>
<path fill="none" stroke="red" d="M1394.82,-943.533C1363.76,-930.316 1302.37,-904.2 1267.26,-889.266"/>
<polygon fill="red" stroke="red" points="1268.26,-885.887 1257.69,-885.193 1265.52,-892.329 1268.26,-885.887"/>
</g>
<!-- 67 -->
<g id="node61" class="node"><title>67</title>
<ellipse fill="none" stroke="black" cx="1414" cy="-877.092" rx="18.2703" ry="18.2703"/>
<text text-anchor="middle" x="1414" y="-874.892" font-family="Times New Roman,serif" font-size="9.00">67</text>
</g>
<!-- 115&#45;&gt;67 -->
<g id="edge82" class="edge"><title>115&#45;&gt;67</title>
<path fill="none" stroke="green" d="M1414,-931.189C1414,-923.294 1414,-914.145 1414,-905.688"/>
<polygon fill="green" stroke="green" points="1417.5,-905.493 1414,-895.493 1410.5,-905.493 1417.5,-905.493"/>
</g>
<!-- 53&#45;&gt;27 -->
<g id="edge117" class="edge"><title>53&#45;&gt;27</title>
<path fill="none" stroke="green" d="M1642.54,-1252.32C1665.4,-1245.45 1705.14,-1230.36 1728,-1203.53 1804.8,-1113.37 1760.93,-785.8 1757,-780.281 1728.63,-740.437 1692.18,-773.562 1653,-744.281 1556.21,-671.947 1453.34,-370.556 1383,-272.309 1374,-259.734 1362.06,-247.263 1351.9,-237.541"/>
<polygon fill="green" stroke="green" points="1354.25,-234.947 1344.55,-230.686 1349.48,-240.066 1354.25,-234.947"/>
</g>
<!-- 93&#45;&gt;21 -->
<g id="edge145" class="edge"><title>93&#45;&gt;21</title>
<path fill="none" stroke="red" d="M723.839,-784.525C719.631,-775.138 714.213,-763.055 709.426,-752.38"/>
<polygon fill="red" stroke="red" points="712.546,-750.782 705.26,-743.089 706.158,-753.646 712.546,-750.782"/>
</g>
<!-- 21&#45;&gt;17 -->
<g id="edge109" class="edge"><title>21&#45;&gt;17</title>
<path fill="none" stroke="red" d="M684.624,-713.21C671.961,-702.147 652.751,-685.363 638.037,-672.507"/>
<polygon fill="red" stroke="red" points="640.229,-669.774 630.395,-665.83 635.623,-675.046 640.229,-669.774"/>
</g>
<!-- 105 -->
<g id="node52" class="node"><title>105</title>
<ellipse fill="none" stroke="black" cx="719" cy="-577.529" rx="21.4286" ry="21.4286"/>
<text text-anchor="middle" x="719" y="-575.329" font-family="Times New Roman,serif" font-size="9.00">105</text>
</g>
<!-- 21&#45;&gt;105 -->
<g id="edge130" class="edge"><title>21&#45;&gt;105</title>
<path fill="none" stroke="red" d="M700.491,-707.531C703.975,-683.252 710.354,-638.793 714.636,-608.949"/>
<polygon fill="red" stroke="red" points="718.153,-609.075 716.109,-598.679 711.224,-608.081 718.153,-609.075"/>
</g>
<!-- 21&#45;&gt;56 -->
<g id="edge128" class="edge"><title>21&#45;&gt;56</title>
<path fill="none" stroke="red" d="M693.44,-707.729C686.009,-676.769 673.584,-609.827 689,-556.316 749.844,-345.11 949.472,-151.199 1014.97,-91.8858"/>
<polygon fill="red" stroke="red" points="1017.52,-94.307 1022.62,-85.0231 1012.84,-89.0973 1017.52,-94.307"/>
</g>
<!-- 31&#45;&gt;26 -->
<g id="edge62" class="edge"><title>31&#45;&gt;26</title>
<path fill="none" stroke="green" d="M1250.8,-861.484C1272.96,-826.994 1325,-737.151 1325,-654.127 1325,-654.127 1325,-654.127 1325,-500.931 1325,-462.495 1324.13,-448.548 1301,-417.848 1296.77,-412.226 1264.02,-392.439 1240.44,-378.604"/>
<polygon fill="green" stroke="green" points="1242.02,-375.475 1231.62,-373.457 1238.5,-381.521 1242.02,-375.475"/>
</g>
<!-- 17&#45;&gt;24 -->
<g id="edge105" class="edge"><title>17&#45;&gt;24</title>
<path fill="none" stroke="green" d="M634.209,-645.979C670.197,-633.121 753.616,-603.318 796.498,-587.997"/>
<polygon fill="green" stroke="green" points="797.745,-591.269 805.985,-584.608 795.39,-584.677 797.745,-591.269"/>
</g>
<!-- 17&#45;&gt;8 -->
<g id="edge99" class="edge"><title>17&#45;&gt;8</title>
<path fill="none" stroke="green" d="M627.354,-637.56C648.886,-607.605 700.609,-537.392 750,-483.546 760.33,-472.285 772.457,-460.169 782.181,-450.702"/>
<polygon fill="green" stroke="green" points="784.623,-453.21 789.384,-443.745 779.759,-448.175 784.623,-453.21"/>
</g>
<!-- 105&#45;&gt;64 -->
<g id="edge131" class="edge"><title>105&#45;&gt;64</title>
<path fill="none" stroke="green" d="M731.872,-560.195C740.063,-549.801 750.771,-536.213 759.701,-524.882"/>
<polygon fill="green" stroke="green" points="762.671,-526.768 766.112,-516.747 757.173,-522.435 762.671,-526.768"/>
</g>
<!-- 24&#45;&gt;64 -->
<g id="edge36" class="edge"><title>24&#45;&gt;64</title>
<path fill="none" stroke="red" d="M813.691,-561.635C807.394,-551.56 798.944,-538.04 791.74,-526.514"/>
<polygon fill="red" stroke="red" points="794.563,-524.427 786.295,-517.803 788.627,-528.138 794.563,-524.427"/>
</g>
<!-- 24&#45;&gt;8 -->
<g id="edge60" class="edge"><title>24&#45;&gt;8</title>
<path fill="none" stroke="red" d="M820.226,-559.3C816.136,-533.904 808.476,-486.331 803.846,-457.581"/>
<polygon fill="red" stroke="red" points="807.279,-456.886 802.234,-447.57 800.368,-457.999 807.279,-456.886"/>
</g>
<!-- 64&#45;&gt;8 -->
<g id="edge37" class="edge"><title>64&#45;&gt;8</title>
<path fill="none" stroke="green" d="M782.685,-484.311C785.546,-475.948 789.059,-465.681 792.171,-456.584"/>
<polygon fill="green" stroke="green" points="795.532,-457.57 795.458,-446.975 788.909,-455.304 795.532,-457.57"/>
</g>
<!-- 64&#45;&gt;58 -->
<g id="edge91" class="edge"><title>64&#45;&gt;58</title>
<path fill="none" stroke="red" d="M795.379,-500.05C861.032,-496.156 1088.29,-476.188 1243,-381.848 1270.39,-365.145 1293.67,-336.114 1307.93,-315.511"/>
<polygon fill="red" stroke="red" points="1310.99,-317.239 1313.66,-306.986 1305.18,-313.336 1310.99,-317.239"/>
</g>
<!-- 8&#45;&gt;5 -->
<g id="edge4" class="edge"><title>8&#45;&gt;5</title>
<path fill="none" stroke="green" d="M785.445,-428.907C691.866,-410.377 183.292,-300.474 329,-126.77 413.819,-25.6537 866.02,-12.057 969.082,-10.2662"/>
<polygon fill="green" stroke="green" points="969.218,-13.7646 979.162,-10.1106 969.109,-6.76543 969.218,-13.7646"/>
</g>
<!-- 8&#45;&gt;26 -->
<g id="edge137" class="edge"><title>8&#45;&gt;26</title>
<path fill="none" stroke="red" d="M814.806,-429.304C875.615,-419.476 1106.77,-382.117 1187.76,-369.027"/>
<polygon fill="red" stroke="red" points="1188.42,-372.466 1197.73,-367.415 1187.3,-365.556 1188.42,-372.466"/>
</g>
<!-- 8&#45;&gt;16 -->
<g id="edge25" class="edge"><title>8&#45;&gt;16</title>
<path fill="none" stroke="red" d="M813.705,-426.309C842.102,-415.143 907.79,-389.316 944.666,-374.817"/>
<polygon fill="red" stroke="red" points="946.223,-377.966 954.248,-371.049 943.661,-371.451 946.223,-377.966"/>
</g>
<!-- 12 -->
<g id="node64" class="node"><title>12</title>
<ellipse fill="none" stroke="black" cx="925" cy="-290.693" rx="18.2703" ry="18.2703"/>
<text text-anchor="middle" x="925" y="-288.493" font-family="Times New Roman,serif" font-size="9.00">12</text>
</g>
<!-- 8&#45;&gt;12 -->
<g id="edge106" class="edge"><title>8&#45;&gt;12</title>
<path fill="none" stroke="red" d="M809.395,-421.174C829.931,-398.174 879.141,-343.057 906.267,-312.675"/>
<polygon fill="red" stroke="red" points="908.924,-314.954 912.974,-305.163 903.703,-310.292 908.924,-314.954"/>
</g>
<!-- 7&#45;&gt;5 -->
<g id="edge7" class="edge"><title>7&#45;&gt;5</title>
<path fill="none" stroke="red" d="M1512.69,-937.783C1514.32,-908.427 1519.23,-838.078 1531,-780.281 1563.1,-622.695 1635,-594.52 1635,-433.697 1635,-433.697 1635,-433.697 1635,-144.154 1635,-102.69 1642.96,-80.4151 1611,-54 1563.82,-15.0092 1113.97,-10.5702 1010.95,-10.0649"/>
<polygon fill="red" stroke="red" points="1010.88,-6.56468 1000.86,-10.023 1010.85,-13.5646 1010.88,-6.56468"/>
</g>
<!-- 84 -->
<g id="node57" class="node"><title>84</title>
<ellipse fill="none" stroke="black" cx="1558" cy="-877.092" rx="18.2703" ry="18.2703"/>
<text text-anchor="middle" x="1558" y="-874.892" font-family="Times New Roman,serif" font-size="9.00">84</text>
</g>
<!-- 7&#45;&gt;84 -->
<g id="edge76" class="edge"><title>7&#45;&gt;84</title>
<path fill="none" stroke="green" d="M1519.6,-939.537C1526,-929.287 1535.36,-914.315 1543.23,-901.716"/>
<polygon fill="green" stroke="green" points="1546.31,-903.399 1548.64,-893.064 1540.37,-899.689 1546.31,-903.399"/>
</g>
<!-- 7&#45;&gt;48 -->
<g id="edge122" class="edge"><title>7&#45;&gt;48</title>
<path fill="none" stroke="green" d="M1525.29,-946.053C1542.73,-937.834 1572.57,-920.737 1585,-895.477 1596.1,-872.924 1585.02,-844.994 1573.88,-825.663"/>
<polygon fill="green" stroke="green" points="1576.73,-823.61 1568.51,-816.925 1570.77,-827.277 1576.73,-823.61"/>
</g>
<!-- 7&#45;&gt;67 -->
<g id="edge70" class="edge"><title>7&#45;&gt;67</title>
<path fill="none" stroke="red" d="M1500.37,-942.959C1484.74,-931.217 1456.61,-910.089 1436.7,-895.141"/>
<polygon fill="red" stroke="red" points="1438.57,-892.167 1428.47,-888.961 1434.37,-897.765 1438.57,-892.167"/>
</g>
<!-- 7&#45;&gt;14 -->
<g id="edge22" class="edge"><title>7&#45;&gt;14</title>
<path fill="none" stroke="red" d="M1503.45,-939.983C1485.37,-915.244 1443.03,-857.282 1419.5,-825.076"/>
<polygon fill="red" stroke="red" points="1422.12,-822.734 1413.4,-816.724 1416.47,-826.863 1422.12,-822.734"/>
</g>
<!-- 84&#45;&gt;48 -->
<g id="edge112" class="edge"><title>84&#45;&gt;48</title>
<path fill="none" stroke="red" d="M1558,-858.651C1558,-850.188 1558,-839.817 1558,-830.3"/>
<polygon fill="red" stroke="red" points="1561.5,-830.066 1558,-820.066 1554.5,-830.066 1561.5,-830.066"/>
</g>
<!-- 48&#45;&gt;5 -->
<g id="edge87" class="edge"><title>48&#45;&gt;5</title>
<path fill="none" stroke="red" d="M1568.35,-786.146C1597.3,-744.558 1677,-619.493 1677,-502.931 1677,-502.931 1677,-502.931 1677,-144.154 1677,-102.198 1681.93,-79.9941 1649,-54 1597.82,-13.6027 1117.33,-10.2565 1010.83,-10.0124"/>
<polygon fill="red" stroke="red" points="1010.73,-6.51233 1000.72,-9.99644 1010.72,-13.5123 1010.73,-6.51233"/>
</g>
<!-- 26&#45;&gt;58 -->
<g id="edge68" class="edge"><title>26&#45;&gt;58</title>
<path fill="none" stroke="green" d="M1230.88,-352.623C1248.66,-340.859 1278.65,-321.028 1299.56,-307.197"/>
<polygon fill="green" stroke="green" points="1301.49,-310.114 1307.9,-301.678 1297.63,-304.276 1301.49,-310.114"/>
</g>
<!-- 26&#45;&gt;27 -->
<g id="edge19" class="edge"><title>26&#45;&gt;27</title>
<path fill="none" stroke="green" d="M1227.03,-348.7C1246.98,-323.792 1289.24,-271.045 1313.29,-241.031"/>
<polygon fill="green" stroke="green" points="1316.32,-242.849 1319.84,-232.856 1310.85,-238.472 1316.32,-242.849"/>
</g>
<!-- 16&#45;&gt;5 -->
<g id="edge29" class="edge"><title>16&#45;&gt;5</title>
<path fill="none" stroke="green" d="M971.942,-344.984C975.164,-285.217 985.724,-89.3298 989.013,-28.3138"/>
<polygon fill="green" stroke="green" points="992.511,-28.4437 989.554,-18.2697 985.521,-28.0668 992.511,-28.4437"/>
</g>
<!-- 16&#45;&gt;12 -->
<g id="edge108" class="edge"><title>16&#45;&gt;12</title>
<path fill="none" stroke="green" d="M961.245,-347.455C955.146,-338.072 947.162,-325.79 940.241,-315.141"/>
<polygon fill="green" stroke="green" points="943.126,-313.157 934.741,-306.68 937.257,-316.972 943.126,-313.157"/>
</g>
<!-- 16&#45;&gt;56 -->
<g id="edge132" class="edge"><title>16&#45;&gt;56</title>
<path fill="none" stroke="green" d="M974.871,-345.246C985.755,-296.843 1016.69,-159.279 1029.9,-100.526"/>
<polygon fill="green" stroke="green" points="1033.37,-101.036 1032.15,-90.512 1026.54,-99.5006 1033.37,-101.036"/>
</g>
<!-- 67&#45;&gt;14 -->
<g id="edge71" class="edge"><title>67&#45;&gt;14</title>
<path fill="none" stroke="green" d="M1411.39,-858.651C1410.11,-850.035 1408.52,-839.44 1407.08,-829.783"/>
<polygon fill="green" stroke="green" points="1410.53,-829.184 1405.59,-819.811 1403.6,-830.219 1410.53,-829.184"/>
</g>
<!-- 58&#45;&gt;27 -->
<g id="edge69" class="edge"><title>58&#45;&gt;27</title>
<path fill="none" stroke="red" d="M1324.98,-272.2C1325.86,-264.401 1326.92,-255.029 1327.9,-246.334"/>
<polygon fill="red" stroke="red" points="1331.4,-246.546 1329.05,-236.216 1324.44,-245.76 1331.4,-246.546"/>
</g>
<!-- 14&#45;&gt;5 -->
<g id="edge23" class="edge"><title>14&#45;&gt;5</title>
<path fill="none" stroke="red" d="M1403.79,-782.925C1404.96,-755.452 1407,-700.647 1407,-654.127 1407,-654.127 1407,-654.127 1407,-576.529 1407,-469.522 1521,-471.47 1521,-364.463 1521,-364.463 1521,-364.463 1521,-144.154 1521,-36.9142 1108.74,-14.503 1010.73,-10.6903"/>
<polygon fill="red" stroke="red" points="1010.73,-7.18809 1000.61,-10.3207 1010.47,-14.1834 1010.73,-7.18809"/>
</g>
<!-- 14&#45;&gt;56 -->
<g id="edge44" class="edge"><title>14&#45;&gt;56</title>
<path fill="none" stroke="red" d="M1395.48,-784.21C1383.89,-757.597 1363,-702.861 1363,-654.127 1363,-654.127 1363,-654.127 1363,-500.931 1363,-399.478 1127.76,-162.55 1056.33,-92.9433"/>
<polygon fill="red" stroke="red" points="1058.43,-90.1113 1048.82,-85.6584 1053.56,-95.1345 1058.43,-90.1113"/>
</g>
<!-- 12&#45;&gt;5 -->
<g id="edge107" class="edge"><title>12&#45;&gt;5</title>
<path fill="none" stroke="red" d="M928.157,-272.407C935.434,-233.252 954.428,-134.905 976,-54 978.329,-45.2668 981.322,-35.6913 983.942,-27.7094"/>
<polygon fill="red" stroke="red" points="987.323,-28.6357 987.188,-18.0417 980.687,-26.4081 987.323,-28.6357"/>
</g>
<!-- 27&#45;&gt;5 -->
<g id="edge59" class="edge"><title>27&#45;&gt;5</title>
<path fill="none" stroke="green" d="M1337.31,-200.564C1343.67,-181.067 1350.52,-148.412 1335,-126.77 1257.11,-18.1742 1072.69,-9.29882 1010.72,-9.50667"/>
<polygon fill="green" stroke="green" points="1010.58,-6.00797 1000.63,-9.6292 1010.67,-13.0074 1010.58,-6.00797"/>
</g>
<!-- 72 -->
<g id="node66" class="node"><title>72</title>
<ellipse fill="none" stroke="black" cx="1285" cy="-145.154" rx="18.2703" ry="18.2703"/>
<text text-anchor="middle" x="1285" y="-142.954" font-family="Times New Roman,serif" font-size="9.00">72</text>
</g>
<!-- 27&#45;&gt;72 -->
<g id="edge141" class="edge"><title>27&#45;&gt;72</title>
<path fill="none" stroke="green" d="M1321.24,-201.915C1315.15,-192.533 1307.16,-180.251 1300.24,-169.602"/>
<polygon fill="green" stroke="green" points="1303.13,-167.618 1294.74,-161.141 1297.26,-171.433 1303.13,-167.618"/>
</g>
<!-- 27&#45;&gt;56 -->
<g id="edge38" class="edge"><title>27&#45;&gt;56</title>
<path fill="none" stroke="red" d="M1332.59,-199.332C1333.38,-178.943 1331.27,-145.725 1312,-126.77 1277.13,-92.4783 1127.71,-79.16 1064.46,-74.9926"/>
<polygon fill="red" stroke="red" points="1064.59,-71.4938 1054.39,-74.359 1064.15,-78.48 1064.59,-71.4938"/>
</g>
<!-- 72&#45;&gt;56 -->
<g id="edge142" class="edge"><title>72&#45;&gt;56</title>
<path fill="none" stroke="green" d="M1269.76,-134.839C1264.58,-131.954 1258.66,-128.961 1253,-126.77 1187.6,-101.445 1106.36,-85.2673 1064.27,-77.9454"/>
<polygon fill="green" stroke="green" points="1064.64,-74.4594 1054.2,-76.2345 1063.47,-81.3604 1064.64,-74.4594"/>
</g>
<!-- 56&#45;&gt;5 -->
<g id="edge39" class="edge"><title>56&#45;&gt;5</title>
<path fill="none" stroke="green" d="M1025.33,-57.1476C1018.49,-48.0221 1009.59,-36.1412 1002.43,-26.5892"/>
<polygon fill="green" stroke="green" points="1005.03,-24.2141 996.228,-18.3105 999.424,-28.4119 1005.03,-24.2141"/>
</g>
</g>
</svg>
