<?xml version="1.0" encoding="UTF-8" standalone="no"?>
<!DOCTYPE svg PUBLIC "-//W3C//DTD SVG 1.1//EN"
 "http://www.w3.org/Graphics/SVG/1.1/DTD/svg11.dtd">
<!-- Generated by graphviz version 2.38.0 (20140413.2041)
 -->
<!-- Title: %3 Pages: 1 -->
<svg width="618pt" height="1164pt"
 viewBox="0.00 0.00 618.00 1164.47" xmlns="http://www.w3.org/2000/svg" xmlns:xlink="http://www.w3.org/1999/xlink">
<g id="graph0" class="graph" transform="scale(1 1) rotate(0) translate(4 1160.47)">
<title>%3</title>
<polygon fill="white" stroke="none" points="-4,4 -4,-1160.47 614,-1160.47 614,4 -4,4"/>
<!-- 1 -->
<g id="node1" class="node"><title>1</title>
<polygon fill="lightgray" stroke="black" points="178.5,-1156.47 157.5,-1156.47 157.5,-1138.47 178.5,-1138.47 178.5,-1156.47"/>
<text text-anchor="middle" x="168" y="-1145.27" font-family="Times New Roman,serif" font-size="9.00">1</text>
</g>
<!-- 5 -->
<g id="node5" class="node"><title>5</title>
<polygon fill="lightblue" stroke="black" points="471.5,-18 450.5,-18 450.5,-0 471.5,-0 471.5,-18"/>
<text text-anchor="middle" x="461" y="-6.8" font-family="Times New Roman,serif" font-size="9.00">5</text>
</g>
<!-- 1&#45;&gt;5 -->
<g id="edge1" class="edge"><title>1&#45;&gt;5</title>
<path fill="none" stroke="red" d="M178.625,-1146.01C230.03,-1143.65 452.995,-1131.87 515,-1102.47 567.597,-1077.54 610,-1070.53 610,-1012.32 610,-1012.32 610,-1012.32 610,-137.083 610,-70.1516 521.888,-31.0089 481.18,-16.4964"/>
<polygon fill="red" stroke="red" points="482.31,-13.1841 471.716,-13.2643 480.048,-19.8085 482.31,-13.1841"/>
</g>
<!-- 65 -->
<g id="node7" class="node"><title>65</title>
<ellipse fill="none" stroke="black" cx="84" cy="-720.24" rx="18.2703" ry="18.2703"/>
<text text-anchor="middle" x="84" y="-718.04" font-family="Times New Roman,serif" font-size="9.00">65</text>
</g>
<!-- 1&#45;&gt;65 -->
<g id="edge39" class="edge"><title>1&#45;&gt;65</title>
<path fill="none" stroke="red" d="M157.362,-1141.84C126.314,-1127.51 38,-1080.75 38,-1012.32 38,-1012.32 38,-1012.32 38,-864.779 38,-821.239 57.431,-773.662 71.0353,-745.688"/>
<polygon fill="red" stroke="red" points="74.2135,-747.158 75.5629,-736.649 67.9548,-744.023 74.2135,-747.158"/>
</g>
<!-- 20 -->
<g id="node9" class="node"><title>20</title>
<ellipse fill="none" stroke="black" cx="168" cy="-1084.09" rx="18.2703" ry="18.2703"/>
<text text-anchor="middle" x="168" y="-1081.89" font-family="Times New Roman,serif" font-size="9.00">20</text>
</g>
<!-- 1&#45;&gt;20 -->
<g id="edge6" class="edge"><title>1&#45;&gt;20</title>
<path fill="none" stroke="red" d="M168,-1138.45C168,-1131.88 168,-1122.19 168,-1112.87"/>
<polygon fill="red" stroke="red" points="171.5,-1112.68 168,-1102.68 164.5,-1112.68 171.5,-1112.68"/>
</g>
<!-- 2 -->
<g id="node2" class="node"><title>2</title>
<polygon fill="lightgray" stroke="black" points="432.5,-77.8492 411.5,-77.8492 411.5,-59.8492 432.5,-59.8492 432.5,-77.8492"/>
<text text-anchor="middle" x="422" y="-66.6492" font-family="Times New Roman,serif" font-size="9.00">2</text>
</g>
<!-- 2&#45;&gt;5 -->
<g id="edge2" class="edge"><title>2&#45;&gt;5</title>
<path fill="none" stroke="red" d="M427.423,-59.8056C433.179,-51.268 442.438,-37.5334 449.777,-26.6475"/>
<polygon fill="red" stroke="red" points="452.683,-28.5982 455.371,-18.35 446.879,-24.6852 452.683,-28.5982"/>
</g>
<!-- 3 -->
<g id="node3" class="node"><title>3</title>
<polygon fill="lightgray" stroke="black" points="364.5,-729.24 343.5,-729.24 343.5,-711.24 364.5,-711.24 364.5,-729.24"/>
<text text-anchor="middle" x="354" y="-718.04" font-family="Times New Roman,serif" font-size="9.00">3</text>
</g>
<!-- 3&#45;&gt;5 -->
<g id="edge3" class="edge"><title>3&#45;&gt;5</title>
<path fill="none" stroke="green" d="M357.061,-711.09C373.024,-667.833 446,-460.47 446,-284.622 446,-284.622 446,-284.622 446,-209.853 446,-142.955 454.461,-63.8145 458.674,-28.5547"/>
<polygon fill="green" stroke="green" points="462.181,-28.7115 459.921,-18.3603 455.232,-27.8611 462.181,-28.7115"/>
</g>
<!-- 24 -->
<g id="node18" class="node"><title>24</title>
<ellipse fill="none" stroke="black" cx="214" cy="-647.47" rx="18.2703" ry="18.2703"/>
<text text-anchor="middle" x="214" y="-645.27" font-family="Times New Roman,serif" font-size="9.00">24</text>
</g>
<!-- 3&#45;&gt;24 -->
<g id="edge14" class="edge"><title>3&#45;&gt;24</title>
<path fill="none" stroke="red" d="M343.069,-711.026C338.788,-707.974 333.768,-704.592 329,-701.855 299.602,-684.979 263.957,-669.088 240.22,-659.104"/>
<polygon fill="red" stroke="red" points="241.407,-655.807 230.829,-655.201 238.72,-662.271 241.407,-655.807"/>
</g>
<!-- 15 -->
<g id="node19" class="node"><title>15</title>
<ellipse fill="none" stroke="black" cx="195" cy="-574.701" rx="18.2703" ry="18.2703"/>
<text text-anchor="middle" x="195" y="-572.501" font-family="Times New Roman,serif" font-size="9.00">15</text>
</g>
<!-- 3&#45;&gt;15 -->
<g id="edge18" class="edge"><title>3&#45;&gt;15</title>
<path fill="none" stroke="green" d="M344.996,-711.111C320.304,-688.82 251.029,-626.281 215.936,-594.601"/>
<polygon fill="green" stroke="green" points="217.964,-591.716 208.196,-587.613 213.273,-596.912 217.964,-591.716"/>
</g>
<!-- 4 -->
<g id="node4" class="node"><title>4</title>
<polygon fill="lightgray" stroke="black" points="506.5,-1093.09 485.5,-1093.09 485.5,-1075.09 506.5,-1075.09 506.5,-1093.09"/>
<text text-anchor="middle" x="496" y="-1081.89" font-family="Times New Roman,serif" font-size="9.00">4</text>
</g>
<!-- 4&#45;&gt;5 -->
<g id="edge4" class="edge"><title>4&#45;&gt;5</title>
<path fill="none" stroke="green" d="M504.133,-1074.85C523.739,-1054.07 572,-997.071 572,-939.548 572,-939.548 572,-939.548 572,-137.083 572,-82.1294 512.395,-39.4736 480.541,-20.6012"/>
<polygon fill="green" stroke="green" points="482.063,-17.4396 471.643,-15.5205 478.592,-23.5185 482.063,-17.4396"/>
</g>
<!-- 48 -->
<g id="node6" class="node"><title>48</title>
<ellipse fill="none" stroke="black" cx="412" cy="-1011.32" rx="18.2703" ry="18.2703"/>
<text text-anchor="middle" x="412" y="-1009.12" font-family="Times New Roman,serif" font-size="9.00">48</text>
</g>
<!-- 4&#45;&gt;48 -->
<g id="edge13" class="edge"><title>4&#45;&gt;48</title>
<path fill="none" stroke="green" d="M486.364,-1074.97C473.55,-1064.17 450.539,-1044.79 433.496,-1030.43"/>
<polygon fill="green" stroke="green" points="435.583,-1027.61 425.68,-1023.84 431.073,-1032.96 435.583,-1027.61"/>
</g>
<!-- 4&#45;&gt;24 -->
<g id="edge22" class="edge"><title>4&#45;&gt;24</title>
<path fill="none" stroke="red" d="M495.577,-1074.79C493.653,-1043.18 483.762,-927.995 439,-847.394 433.497,-837.484 304.774,-709.032 296,-701.855 277.806,-686.971 255.323,-672.58 238.503,-662.498"/>
<polygon fill="red" stroke="red" points="240.195,-659.433 229.805,-657.364 236.637,-665.461 240.195,-659.433"/>
</g>
<!-- 23 -->
<g id="node23" class="node"><title>23</title>
<ellipse fill="none" stroke="black" cx="488" cy="-647.47" rx="18.2703" ry="18.2703"/>
<text text-anchor="middle" x="488" y="-645.27" font-family="Times New Roman,serif" font-size="9.00">23</text>
</g>
<!-- 4&#45;&gt;23 -->
<g id="edge24" class="edge"><title>4&#45;&gt;23</title>
<path fill="none" stroke="red" d="M496,-1074.99C496,-1053.14 496,-991.133 496,-939.548 496,-939.548 496,-939.548 496,-792.009 496,-751.73 492.821,-705.192 490.471,-676.293"/>
<polygon fill="red" stroke="red" points="493.942,-675.803 489.619,-666.131 486.966,-676.388 493.942,-675.803"/>
</g>
<!-- 6 -->
<g id="node27" class="node"><title>6</title>
<ellipse fill="none" stroke="black" cx="379" cy="-68.8492" rx="14.7" ry="14.7"/>
<text text-anchor="middle" x="379" y="-66.6492" font-family="Times New Roman,serif" font-size="9.00">6</text>
</g>
<!-- 4&#45;&gt;6 -->
<g id="edge5" class="edge"><title>4&#45;&gt;6</title>
<path fill="none" stroke="green" d="M499.783,-1074.88C509.394,-1053.24 534,-992.652 534,-939.548 534,-939.548 534,-939.548 534,-209.853 534,-128.702 472.397,-124.068 402,-83.6985 401.469,-83.3942 400.933,-83.0846 400.392,-82.7712"/>
<polygon fill="green" stroke="green" points="401.985,-79.6471 391.596,-77.5661 398.42,-85.6712 401.985,-79.6471"/>
</g>
<!-- 53 -->
<g id="node8" class="node"><title>53</title>
<ellipse fill="none" stroke="black" cx="412" cy="-938.548" rx="18.2703" ry="18.2703"/>
<text text-anchor="middle" x="412" y="-936.348" font-family="Times New Roman,serif" font-size="9.00">53</text>
</g>
<!-- 48&#45;&gt;53 -->
<g id="edge17" class="edge"><title>48&#45;&gt;53</title>
<path fill="none" stroke="green" d="M412,-992.824C412,-985.142 412,-975.933 412,-967.349"/>
<polygon fill="green" stroke="green" points="415.5,-967.332 412,-957.332 408.5,-967.332 415.5,-967.332"/>
</g>
<!-- 52 -->
<g id="node13" class="node"><title>52</title>
<ellipse fill="none" stroke="black" cx="300" cy="-793.009" rx="18.2703" ry="18.2703"/>
<text text-anchor="middle" x="300" y="-790.809" font-family="Times New Roman,serif" font-size="9.00">52</text>
</g>
<!-- 48&#45;&gt;52 -->
<g id="edge32" class="edge"><title>48&#45;&gt;52</title>
<path fill="none" stroke="red" d="M403.945,-994.762C384.74,-957.669 336.124,-863.777 312.829,-818.787"/>
<polygon fill="red" stroke="red" points="315.838,-816.986 308.132,-809.715 309.622,-820.205 315.838,-816.986"/>
</g>
<!-- 65&#45;&gt;24 -->
<g id="edge40" class="edge"><title>65&#45;&gt;24</title>
<path fill="none" stroke="red" d="M99.9406,-710.562C122.162,-698.465 162.673,-676.412 188.952,-662.106"/>
<polygon fill="red" stroke="red" points="190.82,-665.074 197.929,-657.219 187.473,-658.926 190.82,-665.074"/>
</g>
<!-- 22 -->
<g id="node20" class="node"><title>22</title>
<ellipse fill="none" stroke="black" cx="84" cy="-501.931" rx="18.2703" ry="18.2703"/>
<text text-anchor="middle" x="84" y="-499.731" font-family="Times New Roman,serif" font-size="9.00">22</text>
</g>
<!-- 65&#45;&gt;22 -->
<g id="edge41" class="edge"><title>65&#45;&gt;22</title>
<path fill="none" stroke="green" d="M84,-701.538C84,-663.973 84,-576.025 84,-530.829"/>
<polygon fill="green" stroke="green" points="87.5001,-530.574 84,-520.574 80.5001,-530.574 87.5001,-530.574"/>
</g>
<!-- 64 -->
<g id="node11" class="node"><title>64</title>
<ellipse fill="none" stroke="black" cx="412" cy="-865.779" rx="18.2703" ry="18.2703"/>
<text text-anchor="middle" x="412" y="-863.579" font-family="Times New Roman,serif" font-size="9.00">64</text>
</g>
<!-- 53&#45;&gt;64 -->
<g id="edge37" class="edge"><title>53&#45;&gt;64</title>
<path fill="none" stroke="green" d="M412,-920.055C412,-912.372 412,-903.163 412,-894.579"/>
<polygon fill="green" stroke="green" points="415.5,-894.563 412,-884.563 408.5,-894.563 415.5,-894.563"/>
</g>
<!-- 62 -->
<g id="node10" class="node"><title>62</title>
<ellipse fill="none" stroke="black" cx="260" cy="-1011.32" rx="18.2703" ry="18.2703"/>
<text text-anchor="middle" x="260" y="-1009.12" font-family="Times New Roman,serif" font-size="9.00">62</text>
</g>
<!-- 20&#45;&gt;62 -->
<g id="edge33" class="edge"><title>20&#45;&gt;62</title>
<path fill="none" stroke="red" d="M182.375,-1072.03C197.093,-1060.71 220.183,-1042.95 237.359,-1029.73"/>
<polygon fill="red" stroke="red" points="239.934,-1032.17 245.726,-1023.3 235.666,-1026.62 239.934,-1032.17"/>
</g>
<!-- 28 -->
<g id="node16" class="node"><title>28</title>
<ellipse fill="none" stroke="black" cx="214" cy="-720.24" rx="18.2703" ry="18.2703"/>
<text text-anchor="middle" x="214" y="-718.04" font-family="Times New Roman,serif" font-size="9.00">28</text>
</g>
<!-- 20&#45;&gt;28 -->
<g id="edge11" class="edge"><title>20&#45;&gt;28</title>
<path fill="none" stroke="green" d="M176.437,-1067.68C189.717,-1041.94 214,-988.222 214,-939.548 214,-939.548 214,-939.548 214,-864.779 214,-824.562 214,-778.007 214,-749.088"/>
<polygon fill="green" stroke="green" points="217.5,-748.918 214,-738.918 210.5,-748.918 217.5,-748.918"/>
</g>
<!-- 20&#45;&gt;24 -->
<g id="edge44" class="edge"><title>20&#45;&gt;24</title>
<path fill="none" stroke="green" d="M159.563,-1067.68C146.283,-1041.94 122,-988.222 122,-939.548 122,-939.548 122,-939.548 122,-864.779 122,-788.84 170.609,-709.01 197.161,-671.068"/>
<polygon fill="green" stroke="green" points="200.121,-672.946 203.085,-662.775 194.425,-668.878 200.121,-672.946"/>
</g>
<!-- 30 -->
<g id="node24" class="node"><title>30</title>
<ellipse fill="none" stroke="black" cx="84" cy="-283.622" rx="18.2703" ry="18.2703"/>
<text text-anchor="middle" x="84" y="-281.422" font-family="Times New Roman,serif" font-size="9.00">30</text>
</g>
<!-- 20&#45;&gt;30 -->
<g id="edge45" class="edge"><title>20&#45;&gt;30</title>
<path fill="none" stroke="red" d="M154.536,-1071.05C114.67,-1034 0,-916.779 0,-794.009 0,-794.009 0,-794.009 0,-428.161 0,-377.922 38.8059,-329.665 63.6659,-303.905"/>
<polygon fill="red" stroke="red" points="66.3055,-306.215 70.875,-296.656 61.3419,-301.279 66.3055,-306.215"/>
</g>
<!-- 59 -->
<g id="node12" class="node"><title>59</title>
<ellipse fill="none" stroke="black" cx="260" cy="-938.548" rx="18.2703" ry="18.2703"/>
<text text-anchor="middle" x="260" y="-936.348" font-family="Times New Roman,serif" font-size="9.00">59</text>
</g>
<!-- 62&#45;&gt;59 -->
<g id="edge34" class="edge"><title>62&#45;&gt;59</title>
<path fill="none" stroke="red" d="M260,-992.824C260,-985.142 260,-975.933 260,-967.349"/>
<polygon fill="red" stroke="red" points="263.5,-967.332 260,-957.332 256.5,-967.332 263.5,-967.332"/>
</g>
<!-- 21 -->
<g id="node26" class="node"><title>21</title>
<ellipse fill="none" stroke="black" cx="379" cy="-138.083" rx="18.2703" ry="18.2703"/>
<text text-anchor="middle" x="379" y="-135.883" font-family="Times New Roman,serif" font-size="9.00">21</text>
</g>
<!-- 62&#45;&gt;21 -->
<g id="edge36" class="edge"><title>62&#45;&gt;21</title>
<path fill="none" stroke="red" d="M269.78,-995.525C300.495,-947.592 393,-791.365 393,-648.47 393,-648.47 393,-648.47 393,-282.622 393,-241.993 387.375,-195.199 383.256,-166.379"/>
<polygon fill="red" stroke="red" points="386.686,-165.648 381.766,-156.265 379.761,-166.668 386.686,-165.648"/>
</g>
<!-- 64&#45;&gt;52 -->
<g id="edge38" class="edge"><title>64&#45;&gt;52</title>
<path fill="none" stroke="green" d="M396.895,-855.234C378.108,-843.363 345.818,-822.96 323.716,-808.995"/>
<polygon fill="green" stroke="green" points="325.547,-806.011 315.223,-803.628 321.807,-811.929 325.547,-806.011"/>
</g>
<!-- 59&#45;&gt;52 -->
<g id="edge47" class="edge"><title>59&#45;&gt;52</title>
<path fill="none" stroke="red" d="M264.746,-920.519C271.602,-895.915 284.347,-850.18 292.489,-820.963"/>
<polygon fill="red" stroke="red" points="295.948,-821.589 295.261,-811.017 289.205,-819.71 295.948,-821.589"/>
</g>
<!-- 54 -->
<g id="node14" class="node"><title>54</title>
<ellipse fill="none" stroke="black" cx="168" cy="-865.779" rx="18.2703" ry="18.2703"/>
<text text-anchor="middle" x="168" y="-863.579" font-family="Times New Roman,serif" font-size="9.00">54</text>
</g>
<!-- 59&#45;&gt;54 -->
<g id="edge29" class="edge"><title>59&#45;&gt;54</title>
<path fill="none" stroke="green" d="M245.625,-926.491C230.907,-915.169 207.817,-897.407 190.641,-884.195"/>
<polygon fill="green" stroke="green" points="192.334,-881.082 182.274,-877.759 188.066,-886.63 192.334,-881.082"/>
</g>
<!-- 61 -->
<g id="node17" class="node"><title>61</title>
<ellipse fill="none" stroke="black" cx="269" cy="-720.24" rx="18.2703" ry="18.2703"/>
<text text-anchor="middle" x="269" y="-718.04" font-family="Times New Roman,serif" font-size="9.00">61</text>
</g>
<!-- 59&#45;&gt;61 -->
<g id="edge35" class="edge"><title>59&#45;&gt;61</title>
<path fill="none" stroke="green" d="M260.737,-919.847C262.299,-882.282 265.959,-794.334 267.839,-749.138"/>
<polygon fill="green" stroke="green" points="271.347,-749.019 268.266,-738.882 264.353,-748.728 271.347,-749.019"/>
</g>
<!-- 52&#45;&gt;61 -->
<g id="edge30" class="edge"><title>52&#45;&gt;61</title>
<path fill="none" stroke="red" d="M292.966,-775.951C289.214,-767.386 284.508,-756.644 280.262,-746.95"/>
<polygon fill="red" stroke="red" points="283.44,-745.481 276.222,-737.726 277.028,-748.29 283.44,-745.481"/>
</g>
<!-- 55 -->
<g id="node15" class="node"><title>55</title>
<ellipse fill="none" stroke="black" cx="168" cy="-793.009" rx="18.2703" ry="18.2703"/>
<text text-anchor="middle" x="168" y="-790.809" font-family="Times New Roman,serif" font-size="9.00">55</text>
</g>
<!-- 54&#45;&gt;55 -->
<g id="edge27" class="edge"><title>54&#45;&gt;55</title>
<path fill="none" stroke="green" d="M168,-847.285C168,-839.603 168,-830.394 168,-821.809"/>
<polygon fill="green" stroke="green" points="171.5,-821.793 168,-811.793 164.5,-821.793 171.5,-821.793"/>
</g>
<!-- 13 -->
<g id="node22" class="node"><title>13</title>
<ellipse fill="none" stroke="black" cx="107" cy="-356.392" rx="18.2703" ry="18.2703"/>
<text text-anchor="middle" x="107" y="-354.192" font-family="Times New Roman,serif" font-size="9.00">13</text>
</g>
<!-- 54&#45;&gt;13 -->
<g id="edge26" class="edge"><title>54&#45;&gt;13</title>
<path fill="none" stroke="red" d="M154.247,-853.507C130.434,-833.187 81.7071,-787.915 57,-738.624 38.6506,-702.017 38,-689.419 38,-648.47 38,-648.47 38,-648.47 38,-500.931 38,-453.776 68.6222,-405.746 89.0666,-378.934"/>
<polygon fill="red" stroke="red" points="91.8717,-381.029 95.2951,-371.003 86.3663,-376.706 91.8717,-381.029"/>
</g>
<!-- 55&#45;&gt;28 -->
<g id="edge28" class="edge"><title>55&#45;&gt;28</title>
<path fill="none" stroke="green" d="M177.755,-777.001C183.854,-767.618 191.838,-755.336 198.759,-744.687"/>
<polygon fill="green" stroke="green" points="201.743,-746.518 204.259,-736.226 195.874,-742.703 201.743,-746.518"/>
</g>
<!-- 51 -->
<g id="node21" class="node"><title>51</title>
<ellipse fill="none" stroke="black" cx="130" cy="-429.161" rx="18.2703" ry="18.2703"/>
<text text-anchor="middle" x="130" y="-426.961" font-family="Times New Roman,serif" font-size="9.00">51</text>
</g>
<!-- 55&#45;&gt;51 -->
<g id="edge46" class="edge"><title>55&#45;&gt;51</title>
<path fill="none" stroke="green" d="M160.852,-776.016C149.845,-749.884 130,-696.16 130,-648.47 130,-648.47 130,-648.47 130,-573.701 130,-533.484 130,-486.929 130,-458.01"/>
<polygon fill="green" stroke="green" points="133.5,-457.84 130,-447.84 126.5,-457.84 133.5,-457.84"/>
</g>
<!-- 28&#45;&gt;24 -->
<g id="edge12" class="edge"><title>28&#45;&gt;24</title>
<path fill="none" stroke="red" d="M214,-701.746C214,-694.064 214,-684.855 214,-676.27"/>
<polygon fill="red" stroke="red" points="217.5,-676.254 214,-666.254 210.5,-676.254 217.5,-676.254"/>
</g>
<!-- 61&#45;&gt;24 -->
<g id="edge31" class="edge"><title>61&#45;&gt;24</title>
<path fill="none" stroke="red" d="M258.134,-705.258C250.45,-695.371 239.991,-681.914 231.184,-670.581"/>
<polygon fill="red" stroke="red" points="233.744,-668.171 224.844,-662.423 228.217,-672.466 233.744,-668.171"/>
</g>
<!-- 24&#45;&gt;15 -->
<g id="edge9" class="edge"><title>24&#45;&gt;15</title>
<path fill="none" stroke="green" d="M209.401,-629.339C207.23,-621.255 204.59,-611.42 202.166,-602.39"/>
<polygon fill="green" stroke="green" points="205.53,-601.425 199.557,-592.674 198.77,-603.24 205.53,-601.425"/>
</g>
<!-- 15&#45;&gt;22 -->
<g id="edge10" class="edge"><title>15&#45;&gt;22</title>
<path fill="none" stroke="red" d="M179.566,-563.86C161.01,-552.03 129.659,-532.042 107.951,-518.201"/>
<polygon fill="red" stroke="red" points="109.617,-515.112 99.303,-512.688 105.853,-521.015 109.617,-515.112"/>
</g>
<!-- 15&#45;&gt;13 -->
<g id="edge42" class="edge"><title>15&#45;&gt;13</title>
<path fill="none" stroke="red" d="M193.872,-556.011C191.258,-524.92 182.879,-459.188 157,-410.777 149.915,-397.522 138.693,-385.112 128.674,-375.599"/>
<polygon fill="red" stroke="red" points="130.756,-372.762 121,-368.63 126.05,-377.944 130.756,-372.762"/>
</g>
<!-- 22&#45;&gt;51 -->
<g id="edge19" class="edge"><title>22&#45;&gt;51</title>
<path fill="none" stroke="green" d="M93.7554,-485.923C99.8541,-476.54 107.838,-464.258 114.759,-453.609"/>
<polygon fill="green" stroke="green" points="117.743,-455.44 120.259,-445.148 111.874,-451.625 117.743,-455.44"/>
</g>
<!-- 22&#45;&gt;13 -->
<g id="edge23" class="edge"><title>22&#45;&gt;13</title>
<path fill="none" stroke="red" d="M86.7743,-483.617C90.7115,-459.046 97.9589,-413.816 102.625,-384.698"/>
<polygon fill="red" stroke="red" points="106.089,-385.195 104.216,-374.767 99.1777,-384.088 106.089,-385.195"/>
</g>
<!-- 51&#45;&gt;13 -->
<g id="edge20" class="edge"><title>51&#45;&gt;13</title>
<path fill="none" stroke="red" d="M124.549,-411.39C121.857,-403.105 118.546,-392.918 115.528,-383.632"/>
<polygon fill="red" stroke="red" points="118.831,-382.471 112.412,-374.043 112.174,-384.635 118.831,-382.471"/>
</g>
<!-- 13&#45;&gt;30 -->
<g id="edge15" class="edge"><title>13&#45;&gt;30</title>
<path fill="none" stroke="red" d="M101.549,-338.621C98.8568,-330.336 95.5458,-320.148 92.528,-310.863"/>
<polygon fill="red" stroke="red" points="95.8311,-309.702 89.4116,-301.273 89.1738,-311.866 95.8311,-309.702"/>
</g>
<!-- 19 -->
<g id="node25" class="node"><title>19</title>
<ellipse fill="none" stroke="black" cx="130" cy="-210.853" rx="18.2703" ry="18.2703"/>
<text text-anchor="middle" x="130" y="-208.653" font-family="Times New Roman,serif" font-size="9.00">19</text>
</g>
<!-- 13&#45;&gt;19 -->
<g id="edge21" class="edge"><title>13&#45;&gt;19</title>
<path fill="none" stroke="green" d="M109.774,-338.078C113.712,-313.506 120.959,-268.277 125.625,-239.159"/>
<polygon fill="green" stroke="green" points="129.089,-239.656 127.216,-229.228 122.178,-238.549 129.089,-239.656"/>
</g>
<!-- 23&#45;&gt;6 -->
<g id="edge25" class="edge"><title>23&#45;&gt;6</title>
<path fill="none" stroke="green" d="M487.191,-628.796C486.022,-601.711 484,-548.303 484,-502.931 484,-502.931 484,-502.931 484,-209.853 484,-153.994 429.844,-106.158 399.319,-83.6316"/>
<polygon fill="green" stroke="green" points="401.215,-80.6851 391.045,-77.7172 397.145,-86.3798 401.215,-80.6851"/>
</g>
<!-- 30&#45;&gt;19 -->
<g id="edge16" class="edge"><title>30&#45;&gt;19</title>
<path fill="none" stroke="green" d="M93.7554,-267.614C99.8541,-258.231 107.838,-245.949 114.759,-235.301"/>
<polygon fill="green" stroke="green" points="117.743,-237.132 120.259,-226.84 111.874,-233.317 117.743,-237.132"/>
</g>
<!-- 19&#45;&gt;21 -->
<g id="edge7" class="edge"><title>19&#45;&gt;21</title>
<path fill="none" stroke="red" d="M147.509,-204.876C190.281,-192.72 300.331,-161.442 351.757,-146.826"/>
<polygon fill="red" stroke="red" points="352.848,-150.155 361.51,-144.054 350.934,-143.421 352.848,-150.155"/>
</g>
<!-- 21&#45;&gt;6 -->
<g id="edge43" class="edge"><title>21&#45;&gt;6</title>
<path fill="none" stroke="red" d="M379,-119.418C379,-111.735 379,-102.605 379,-94.2874"/>
<polygon fill="red" stroke="red" points="382.5,-94.0103 379,-84.0103 375.5,-94.0103 382.5,-94.0103"/>
</g>
<!-- 6&#45;&gt;5 -->
<g id="edge8" class="edge"><title>6&#45;&gt;5</title>
<path fill="none" stroke="red" d="M390.749,-59.5609C404.076,-50.159 426.006,-34.6875 441.822,-23.5295"/>
<polygon fill="red" stroke="red" points="444.163,-26.1614 450.317,-17.5368 440.128,-20.4415 444.163,-26.1614"/>
</g>
</g>
</svg>
