<?xml version="1.0" encoding="UTF-8" standalone="no"?>
<!DOCTYPE svg PUBLIC "-//W3C//DTD SVG 1.1//EN"
 "http://www.w3.org/Graphics/SVG/1.1/DTD/svg11.dtd">
<!-- Generated by graphviz version 2.38.0 (20140413.2041)
 -->
<!-- Title: %3 Pages: 1 -->
<svg width="517pt" height="1045pt"
 viewBox="0.00 0.00 517.38 1044.77" xmlns="http://www.w3.org/2000/svg" xmlns:xlink="http://www.w3.org/1999/xlink">
<g id="graph0" class="graph" transform="scale(1 1) rotate(0) translate(4 1040.77)">
<title>%3</title>
<polygon fill="white" stroke="none" points="-4,4 -4,-1040.77 513.385,-1040.77 513.385,4 -4,4"/>
<!-- 1 -->
<g id="node1" class="node"><title>1</title>
<polygon fill="lightgray" stroke="black" points="370.885,-1036.77 349.885,-1036.77 349.885,-1018.77 370.885,-1018.77 370.885,-1036.77"/>
<text text-anchor="middle" x="360.385" y="-1025.57" font-family="Times New Roman,serif" font-size="9.00">1</text>
</g>
<!-- 5 -->
<g id="node5" class="node"><title>5</title>
<polygon fill="lightblue" stroke="black" points="292.885,-755.08 271.885,-755.08 271.885,-737.08 292.885,-737.08 292.885,-755.08"/>
<text text-anchor="middle" x="282.385" y="-743.88" font-family="Times New Roman,serif" font-size="9.00">5</text>
</g>
<!-- 1&#45;&gt;5 -->
<g id="edge1" class="edge"><title>1&#45;&gt;5</title>
<path fill="none" stroke="red" d="M361.704,-1018.39C366.163,-987.477 378.363,-877.609 340.385,-800.465 331.839,-783.107 315.043,-768.639 301.716,-759.164"/>
<polygon fill="red" stroke="red" points="303.439,-756.105 293.188,-753.427 299.532,-761.913 303.439,-756.105"/>
</g>
<!-- 65 -->
<g id="node7" class="node"><title>65</title>
<ellipse fill="none" stroke="black" cx="18.3848" cy="-600.541" rx="18.2703" ry="18.2703"/>
<text text-anchor="middle" x="18.3848" y="-598.341" font-family="Times New Roman,serif" font-size="9.00">65</text>
</g>
<!-- 1&#45;&gt;65 -->
<g id="edge40" class="edge"><title>1&#45;&gt;65</title>
<path fill="none" stroke="red" d="M349.522,-1024.96C291.668,-1015 22.3848,-964.75 22.3848,-892.619 22.3848,-892.619 22.3848,-892.619 22.3848,-745.08 22.3848,-704.848 20.7952,-658.297 19.6201,-629.383"/>
<polygon fill="red" stroke="red" points="23.1097,-629.06 19.1942,-619.215 16.1159,-629.353 23.1097,-629.06"/>
</g>
<!-- 20 -->
<g id="node9" class="node"><title>20</title>
<ellipse fill="none" stroke="black" cx="406.385" cy="-964.389" rx="18.2703" ry="18.2703"/>
<text text-anchor="middle" x="406.385" y="-962.189" font-family="Times New Roman,serif" font-size="9.00">20</text>
</g>
<!-- 1&#45;&gt;20 -->
<g id="edge6" class="edge"><title>1&#45;&gt;20</title>
<path fill="none" stroke="green" d="M366.398,-1018.75C372.24,-1010.95 381.385,-998.75 389.456,-987.98"/>
<polygon fill="green" stroke="green" points="392.418,-989.863 395.614,-979.762 386.817,-985.665 392.418,-989.863"/>
</g>
<!-- 2 -->
<g id="node2" class="node"><title>2</title>
<polygon fill="lightgray" stroke="black" points="331.885,-827.85 310.885,-827.85 310.885,-809.85 331.885,-809.85 331.885,-827.85"/>
<text text-anchor="middle" x="321.385" y="-816.65" font-family="Times New Roman,serif" font-size="9.00">2</text>
</g>
<!-- 2&#45;&gt;5 -->
<g id="edge2" class="edge"><title>2&#45;&gt;5</title>
<path fill="none" stroke="green" d="M316.911,-809.732C310.799,-798.64 299.688,-778.479 291.72,-764.021"/>
<polygon fill="green" stroke="green" points="294.698,-762.173 286.806,-755.104 288.568,-765.551 294.698,-762.173"/>
</g>
<!-- 3 -->
<g id="node3" class="node"><title>3</title>
<polygon fill="lightgray" stroke="black" points="113.885,-827.85 92.8848,-827.85 92.8848,-809.85 113.885,-809.85 113.885,-827.85"/>
<text text-anchor="middle" x="103.385" y="-816.65" font-family="Times New Roman,serif" font-size="9.00">3</text>
</g>
<!-- 3&#45;&gt;5 -->
<g id="edge3" class="edge"><title>3&#45;&gt;5</title>
<path fill="none" stroke="green" d="M111.385,-809.611C114.839,-806.413 119.072,-802.933 123.385,-800.465 147.653,-786.579 224.988,-763.484 262.115,-752.811"/>
<polygon fill="green" stroke="green" points="263.189,-756.145 271.845,-750.035 261.268,-749.413 263.189,-756.145"/>
</g>
<!-- 24 -->
<g id="node18" class="node"><title>24</title>
<ellipse fill="none" stroke="black" cx="148.385" cy="-527.772" rx="18.2703" ry="18.2703"/>
<text text-anchor="middle" x="148.385" y="-525.572" font-family="Times New Roman,serif" font-size="9.00">24</text>
</g>
<!-- 3&#45;&gt;24 -->
<g id="edge14" class="edge"><title>3&#45;&gt;24</title>
<path fill="none" stroke="red" d="M105.68,-809.586C108.516,-799.143 113.336,-780.586 116.385,-764.465 130.527,-689.683 140.892,-600.416 145.589,-556.28"/>
<polygon fill="red" stroke="red" points="149.071,-556.628 146.634,-546.317 142.109,-555.897 149.071,-556.628"/>
</g>
<!-- 15 -->
<g id="node19" class="node"><title>15</title>
<ellipse fill="none" stroke="black" cx="148.385" cy="-455.002" rx="18.2703" ry="18.2703"/>
<text text-anchor="middle" x="148.385" y="-452.802" font-family="Times New Roman,serif" font-size="9.00">15</text>
</g>
<!-- 3&#45;&gt;15 -->
<g id="edge18" class="edge"><title>3&#45;&gt;15</title>
<path fill="none" stroke="red" d="M103.289,-809.756C103.039,-787.908 102.385,-725.896 102.385,-674.311 102.385,-674.311 102.385,-674.311 102.385,-599.541 102.385,-558.592 107.807,-548.019 121.385,-509.387 124.824,-499.601 129.69,-489.325 134.345,-480.431"/>
<polygon fill="red" stroke="red" points="137.546,-481.87 139.236,-471.411 131.392,-478.533 137.546,-481.87"/>
</g>
<!-- 4 -->
<g id="node4" class="node"><title>4</title>
<polygon fill="lightgray" stroke="black" points="200.885,-973.389 179.885,-973.389 179.885,-955.389 200.885,-955.389 200.885,-973.389"/>
<text text-anchor="middle" x="190.385" y="-962.189" font-family="Times New Roman,serif" font-size="9.00">4</text>
</g>
<!-- 4&#45;&gt;5 -->
<g id="edge4" class="edge"><title>4&#45;&gt;5</title>
<path fill="none" stroke="green" d="M201.008,-959.019C217.49,-951.622 248.837,-934.964 263.385,-910.004 290.461,-863.551 287.933,-796.994 284.741,-765.257"/>
<polygon fill="green" stroke="green" points="288.209,-764.777 283.588,-755.242 281.254,-765.577 288.209,-764.777"/>
</g>
<!-- 48 -->
<g id="node6" class="node"><title>48</title>
<ellipse fill="none" stroke="black" cx="144.385" cy="-891.619" rx="18.2703" ry="18.2703"/>
<text text-anchor="middle" x="144.385" y="-889.419" font-family="Times New Roman,serif" font-size="9.00">48</text>
</g>
<!-- 4&#45;&gt;48 -->
<g id="edge13" class="edge"><title>4&#45;&gt;48</title>
<path fill="none" stroke="red" d="M185.108,-955.271C178.913,-945.74 168.366,-929.514 159.558,-915.963"/>
<polygon fill="red" stroke="red" points="162.468,-914.018 154.084,-907.541 156.599,-917.833 162.468,-914.018"/>
</g>
<!-- 4&#45;&gt;24 -->
<g id="edge22" class="edge"><title>4&#45;&gt;24</title>
<path fill="none" stroke="red" d="M179.642,-957.896C149.172,-941.464 64.3848,-889.484 64.3848,-819.85 64.3848,-819.85 64.3848,-819.85 64.3848,-672.311 64.3848,-622.071 103.191,-573.814 128.051,-548.055"/>
<polygon fill="red" stroke="red" points="130.69,-550.364 135.26,-540.805 125.727,-545.428 130.69,-550.364"/>
</g>
<!-- 23 -->
<g id="node23" class="node"><title>23</title>
<ellipse fill="none" stroke="black" cx="236.385" cy="-891.619" rx="18.2703" ry="18.2703"/>
<text text-anchor="middle" x="236.385" y="-889.419" font-family="Times New Roman,serif" font-size="9.00">23</text>
</g>
<!-- 4&#45;&gt;23 -->
<g id="edge24" class="edge"><title>4&#45;&gt;23</title>
<path fill="none" stroke="red" d="M195.662,-955.271C201.856,-945.74 212.403,-929.514 221.212,-915.963"/>
<polygon fill="red" stroke="red" points="224.17,-917.833 226.686,-907.541 218.301,-914.018 224.17,-917.833"/>
</g>
<!-- 6 -->
<g id="node27" class="node"><title>6</title>
<ellipse fill="none" stroke="black" cx="239.385" cy="-818.85" rx="14.7" ry="14.7"/>
<text text-anchor="middle" x="239.385" y="-816.65" font-family="Times New Roman,serif" font-size="9.00">6</text>
</g>
<!-- 4&#45;&gt;6 -->
<g id="edge5" class="edge"><title>4&#45;&gt;6</title>
<path fill="none" stroke="red" d="M191.266,-955.197C193.181,-939.077 198.458,-902.279 209.385,-873.235 213.697,-861.773 220.202,-849.818 226.054,-840.133"/>
<polygon fill="red" stroke="red" points="229.035,-841.968 231.371,-831.634 223.1,-838.256 229.035,-841.968"/>
</g>
<!-- 53 -->
<g id="node8" class="node"><title>53</title>
<ellipse fill="none" stroke="black" cx="150.385" cy="-818.85" rx="18.2703" ry="18.2703"/>
<text text-anchor="middle" x="150.385" y="-816.65" font-family="Times New Roman,serif" font-size="9.00">53</text>
</g>
<!-- 48&#45;&gt;53 -->
<g id="edge17" class="edge"><title>48&#45;&gt;53</title>
<path fill="none" stroke="green" d="M145.868,-873.126C146.519,-865.443 147.3,-856.234 148.028,-847.65"/>
<polygon fill="green" stroke="green" points="151.52,-847.894 148.877,-837.634 144.545,-847.302 151.52,-847.894"/>
</g>
<!-- 52 -->
<g id="node13" class="node"><title>52</title>
<ellipse fill="none" stroke="black" cx="209.385" cy="-673.311" rx="18.2703" ry="18.2703"/>
<text text-anchor="middle" x="209.385" y="-671.111" font-family="Times New Roman,serif" font-size="9.00">52</text>
</g>
<!-- 48&#45;&gt;52 -->
<g id="edge32" class="edge"><title>48&#45;&gt;52</title>
<path fill="none" stroke="green" d="M155.48,-876.547C172.193,-854.3 202.983,-808.949 213.385,-764.465 218.223,-743.775 216.812,-719.705 214.416,-701.642"/>
<polygon fill="green" stroke="green" points="217.84,-700.88 212.887,-691.515 210.919,-701.925 217.84,-700.88"/>
</g>
<!-- 65&#45;&gt;24 -->
<g id="edge41" class="edge"><title>65&#45;&gt;24</title>
<path fill="none" stroke="red" d="M34.3253,-590.863C56.5469,-578.766 97.0575,-556.713 123.336,-542.408"/>
<polygon fill="red" stroke="red" points="125.204,-545.376 132.314,-537.52 121.857,-539.228 125.204,-545.376"/>
</g>
<!-- 22 -->
<g id="node20" class="node"><title>22</title>
<ellipse fill="none" stroke="black" cx="199.385" cy="-382.233" rx="18.2703" ry="18.2703"/>
<text text-anchor="middle" x="199.385" y="-380.033" font-family="Times New Roman,serif" font-size="9.00">22</text>
</g>
<!-- 65&#45;&gt;22 -->
<g id="edge42" class="edge"><title>65&#45;&gt;22</title>
<path fill="none" stroke="green" d="M25.8834,-583.244C40.7779,-552.102 76.5557,-483.11 121.385,-436.617 136.905,-420.521 158.001,-406.436 174.34,-396.781"/>
<polygon fill="green" stroke="green" points="176.397,-399.636 183.333,-391.626 172.916,-393.563 176.397,-399.636"/>
</g>
<!-- 64 -->
<g id="node11" class="node"><title>64</title>
<ellipse fill="none" stroke="black" cx="186.385" cy="-746.08" rx="18.2703" ry="18.2703"/>
<text text-anchor="middle" x="186.385" y="-743.88" font-family="Times New Roman,serif" font-size="9.00">64</text>
</g>
<!-- 53&#45;&gt;64 -->
<g id="edge37" class="edge"><title>53&#45;&gt;64</title>
<path fill="none" stroke="red" d="M158.374,-802.144C162.895,-793.256 168.652,-781.94 173.769,-771.881"/>
<polygon fill="red" stroke="red" points="177.003,-773.242 178.418,-762.742 170.764,-770.069 177.003,-773.242"/>
</g>
<!-- 62 -->
<g id="node10" class="node"><title>62</title>
<ellipse fill="none" stroke="black" cx="444.385" cy="-891.619" rx="18.2703" ry="18.2703"/>
<text text-anchor="middle" x="444.385" y="-889.419" font-family="Times New Roman,serif" font-size="9.00">62</text>
</g>
<!-- 20&#45;&gt;62 -->
<g id="edge33" class="edge"><title>20&#45;&gt;62</title>
<path fill="none" stroke="green" d="M414.818,-947.683C419.64,-938.704 425.792,-927.246 431.235,-917.11"/>
<polygon fill="green" stroke="green" points="434.328,-918.748 435.975,-908.282 428.161,-915.436 434.328,-918.748"/>
</g>
<!-- 28 -->
<g id="node16" class="node"><title>28</title>
<ellipse fill="none" stroke="black" cx="341.385" cy="-600.541" rx="18.2703" ry="18.2703"/>
<text text-anchor="middle" x="341.385" y="-598.341" font-family="Times New Roman,serif" font-size="9.00">28</text>
</g>
<!-- 20&#45;&gt;28 -->
<g id="edge11" class="edge"><title>20&#45;&gt;28</title>
<path fill="none" stroke="red" d="M403.25,-945.936C392.781,-887.659 358.977,-699.476 346.272,-628.749"/>
<polygon fill="red" stroke="red" points="349.701,-628.042 344.488,-618.819 342.812,-629.28 349.701,-628.042"/>
</g>
<!-- 59 -->
<g id="node12" class="node"><title>59</title>
<ellipse fill="none" stroke="black" cx="444.385" cy="-818.85" rx="18.2703" ry="18.2703"/>
<text text-anchor="middle" x="444.385" y="-816.65" font-family="Times New Roman,serif" font-size="9.00">59</text>
</g>
<!-- 62&#45;&gt;59 -->
<g id="edge34" class="edge"><title>62&#45;&gt;59</title>
<path fill="none" stroke="red" d="M444.385,-873.126C444.385,-865.443 444.385,-856.234 444.385,-847.65"/>
<polygon fill="red" stroke="red" points="447.885,-847.634 444.385,-837.634 440.885,-847.634 447.885,-847.634"/>
</g>
<!-- 21 -->
<g id="node26" class="node"><title>21</title>
<ellipse fill="none" stroke="black" cx="486.385" cy="-18.3848" rx="18.2703" ry="18.2703"/>
<text text-anchor="middle" x="486.385" y="-16.1848" font-family="Times New Roman,serif" font-size="9.00">21</text>
</g>
<!-- 62&#45;&gt;21 -->
<g id="edge36" class="edge"><title>62&#45;&gt;21</title>
<path fill="none" stroke="red" d="M455.411,-876.894C473.956,-852.381 509.385,-798.783 509.385,-747.08 509.385,-747.08 509.385,-747.08 509.385,-162.924 509.385,-121.971 500.144,-75.2631 493.377,-46.5507"/>
<polygon fill="red" stroke="red" points="496.691,-45.3677 490.929,-36.4769 489.889,-47.0206 496.691,-45.3677"/>
</g>
<!-- 64&#45;&gt;52 -->
<g id="edge38" class="edge"><title>64&#45;&gt;52</title>
<path fill="none" stroke="red" d="M191.835,-728.309C194.528,-720.024 197.839,-709.837 200.857,-700.551"/>
<polygon fill="red" stroke="red" points="204.211,-701.554 203.973,-690.962 197.554,-699.39 204.211,-701.554"/>
</g>
<!-- 54 -->
<g id="node14" class="node"><title>54</title>
<ellipse fill="none" stroke="black" cx="444.385" cy="-746.08" rx="18.2703" ry="18.2703"/>
<text text-anchor="middle" x="444.385" y="-743.88" font-family="Times New Roman,serif" font-size="9.00">54</text>
</g>
<!-- 59&#45;&gt;54 -->
<g id="edge29" class="edge"><title>59&#45;&gt;54</title>
<path fill="none" stroke="red" d="M444.385,-800.356C444.385,-792.674 444.385,-783.465 444.385,-774.881"/>
<polygon fill="red" stroke="red" points="447.885,-774.864 444.385,-764.864 440.885,-774.864 447.885,-774.864"/>
</g>
<!-- 61 -->
<g id="node17" class="node"><title>61</title>
<ellipse fill="none" stroke="black" cx="209.385" cy="-600.541" rx="18.2703" ry="18.2703"/>
<text text-anchor="middle" x="209.385" y="-598.341" font-family="Times New Roman,serif" font-size="9.00">61</text>
</g>
<!-- 59&#45;&gt;61 -->
<g id="edge35" class="edge"><title>59&#45;&gt;61</title>
<path fill="none" stroke="red" d="M431.077,-805.6C391.976,-769.61 277.238,-663.998 230.034,-620.548"/>
<polygon fill="red" stroke="red" points="232.275,-617.854 222.547,-613.656 227.534,-623.004 232.275,-617.854"/>
</g>
<!-- 52&#45;&gt;61 -->
<g id="edge30" class="edge"><title>52&#45;&gt;61</title>
<path fill="none" stroke="green" d="M209.385,-654.817C209.385,-647.135 209.385,-637.926 209.385,-629.341"/>
<polygon fill="green" stroke="green" points="212.885,-629.325 209.385,-619.325 205.885,-629.325 212.885,-629.325"/>
</g>
<!-- 55 -->
<g id="node15" class="node"><title>55</title>
<ellipse fill="none" stroke="black" cx="425.385" cy="-673.311" rx="18.2703" ry="18.2703"/>
<text text-anchor="middle" x="425.385" y="-671.111" font-family="Times New Roman,serif" font-size="9.00">55</text>
</g>
<!-- 54&#45;&gt;55 -->
<g id="edge27" class="edge"><title>54&#45;&gt;55</title>
<path fill="none" stroke="red" d="M439.785,-727.949C437.615,-719.865 434.975,-710.03 432.55,-701"/>
<polygon fill="red" stroke="red" points="435.915,-700.035 429.942,-691.284 429.155,-701.85 435.915,-700.035"/>
</g>
<!-- 13 -->
<g id="node22" class="node"><title>13</title>
<ellipse fill="none" stroke="black" cx="419.385" cy="-236.693" rx="18.2703" ry="18.2703"/>
<text text-anchor="middle" x="419.385" y="-234.493" font-family="Times New Roman,serif" font-size="9.00">13</text>
</g>
<!-- 54&#45;&gt;13 -->
<g id="edge26" class="edge"><title>54&#45;&gt;13</title>
<path fill="none" stroke="red" d="M449.719,-728.041C457.588,-701.354 471.385,-647.945 471.385,-601.541 471.385,-601.541 471.385,-601.541 471.385,-381.233 471.385,-337.133 449.419,-289.724 434.041,-261.936"/>
<polygon fill="red" stroke="red" points="436.917,-259.915 428.922,-252.963 430.837,-263.383 436.917,-259.915"/>
</g>
<!-- 55&#45;&gt;28 -->
<g id="edge28" class="edge"><title>55&#45;&gt;28</title>
<path fill="none" stroke="green" d="M411.514,-660.625C398.303,-649.495 378.221,-632.576 362.927,-619.691"/>
<polygon fill="green" stroke="green" points="364.9,-616.776 354.998,-613.01 360.39,-622.13 364.9,-616.776"/>
</g>
<!-- 51 -->
<g id="node21" class="node"><title>51</title>
<ellipse fill="none" stroke="black" cx="419.385" cy="-309.463" rx="18.2703" ry="18.2703"/>
<text text-anchor="middle" x="419.385" y="-307.263" font-family="Times New Roman,serif" font-size="9.00">51</text>
</g>
<!-- 55&#45;&gt;51 -->
<g id="edge39" class="edge"><title>55&#45;&gt;51</title>
<path fill="none" stroke="green" d="M424.575,-654.637C423.407,-627.552 421.385,-574.144 421.385,-528.772 421.385,-528.772 421.385,-528.772 421.385,-454.002 421.385,-413.782 420.59,-367.228 420.002,-338.31"/>
<polygon fill="green" stroke="green" points="423.498,-338.065 419.79,-328.14 416.5,-338.211 423.498,-338.065"/>
</g>
<!-- 28&#45;&gt;24 -->
<g id="edge12" class="edge"><title>28&#45;&gt;24</title>
<path fill="none" stroke="green" d="M324.257,-593.261C290.494,-580.88 215.136,-553.248 174.9,-538.494"/>
<polygon fill="green" stroke="green" points="176.068,-535.195 165.474,-535.038 173.658,-541.767 176.068,-535.195"/>
</g>
<!-- 61&#45;&gt;24 -->
<g id="edge31" class="edge"><title>61&#45;&gt;24</title>
<path fill="none" stroke="red" d="M197.623,-585.896C188.847,-575.714 176.691,-561.611 166.653,-549.966"/>
<polygon fill="red" stroke="red" points="169.29,-547.664 160.11,-542.375 163.988,-552.235 169.29,-547.664"/>
</g>
<!-- 24&#45;&gt;15 -->
<g id="edge9" class="edge"><title>24&#45;&gt;15</title>
<path fill="none" stroke="red" d="M148.385,-509.278C148.385,-501.596 148.385,-492.387 148.385,-483.802"/>
<polygon fill="red" stroke="red" points="151.885,-483.786 148.385,-473.786 144.885,-483.786 151.885,-483.786"/>
</g>
<!-- 15&#45;&gt;22 -->
<g id="edge10" class="edge"><title>15&#45;&gt;22</title>
<path fill="none" stroke="red" d="M158.705,-439.681C165.687,-429.993 175.056,-416.992 183.043,-405.909"/>
<polygon fill="red" stroke="red" points="186.072,-407.692 189.08,-397.533 180.393,-403.599 186.072,-407.692"/>
</g>
<!-- 22&#45;&gt;51 -->
<g id="edge19" class="edge"><title>22&#45;&gt;51</title>
<path fill="none" stroke="red" d="M216.648,-375.679C254.788,-363.411 346.474,-333.917 392.324,-319.168"/>
<polygon fill="red" stroke="red" points="393.45,-322.482 401.898,-316.088 391.306,-315.819 393.45,-322.482"/>
</g>
<!-- 22&#45;&gt;13 -->
<g id="edge23" class="edge"><title>22&#45;&gt;13</title>
<path fill="none" stroke="red" d="M214.506,-371.367C252.197,-346.775 350.536,-282.614 395.871,-253.035"/>
<polygon fill="red" stroke="red" points="397.986,-255.834 404.448,-247.439 394.161,-249.972 397.986,-255.834"/>
</g>
<!-- 51&#45;&gt;13 -->
<g id="edge20" class="edge"><title>51&#45;&gt;13</title>
<path fill="none" stroke="green" d="M419.385,-290.969C419.385,-283.287 419.385,-274.078 419.385,-265.494"/>
<polygon fill="green" stroke="green" points="422.885,-265.477 419.385,-255.477 415.885,-265.477 422.885,-265.477"/>
</g>
<!-- 30 -->
<g id="node24" class="node"><title>30</title>
<ellipse fill="none" stroke="black" cx="418.385" cy="-163.924" rx="18.2703" ry="18.2703"/>
<text text-anchor="middle" x="418.385" y="-161.724" font-family="Times New Roman,serif" font-size="9.00">30</text>
</g>
<!-- 13&#45;&gt;30 -->
<g id="edge15" class="edge"><title>13&#45;&gt;30</title>
<path fill="none" stroke="red" d="M419.138,-218.2C419.029,-210.518 418.899,-201.308 418.778,-192.724"/>
<polygon fill="red" stroke="red" points="422.277,-192.657 418.636,-182.708 415.278,-192.756 422.277,-192.657"/>
</g>
<!-- 19 -->
<g id="node25" class="node"><title>19</title>
<ellipse fill="none" stroke="black" cx="463.385" cy="-91.1543" rx="18.2703" ry="18.2703"/>
<text text-anchor="middle" x="463.385" y="-88.9543" font-family="Times New Roman,serif" font-size="9.00">19</text>
</g>
<!-- 13&#45;&gt;19 -->
<g id="edge21" class="edge"><title>13&#45;&gt;19</title>
<path fill="none" stroke="green" d="M428.215,-220.258C433.848,-209.831 440.906,-195.594 445.385,-182.309 452.332,-161.7 456.983,-137.489 459.814,-119.349"/>
<polygon fill="green" stroke="green" points="463.279,-119.847 461.275,-109.443 456.354,-118.826 463.279,-119.847"/>
</g>
<!-- 23&#45;&gt;6 -->
<g id="edge25" class="edge"><title>23&#45;&gt;6</title>
<path fill="none" stroke="red" d="M237.126,-873.126C237.5,-864.323 237.958,-853.515 238.364,-843.941"/>
<polygon fill="red" stroke="red" points="241.866,-843.966 238.792,-833.826 234.872,-843.669 241.866,-843.966"/>
</g>
<!-- 30&#45;&gt;19 -->
<g id="edge16" class="edge"><title>30&#45;&gt;19</title>
<path fill="none" stroke="green" d="M427.928,-147.915C433.894,-138.533 441.704,-126.251 448.475,-115.602"/>
<polygon fill="green" stroke="green" points="451.443,-117.458 453.855,-107.141 445.536,-113.702 451.443,-117.458"/>
</g>
<!-- 19&#45;&gt;21 -->
<g id="edge7" class="edge"><title>19&#45;&gt;21</title>
<path fill="none" stroke="green" d="M468.835,-73.3829C471.528,-65.0983 474.839,-54.9106 477.857,-45.6249"/>
<polygon fill="green" stroke="green" points="481.211,-46.628 480.973,-36.0358 474.554,-44.4643 481.211,-46.628"/>
</g>
<!-- 6&#45;&gt;5 -->
<g id="edge8" class="edge"><title>6&#45;&gt;5</title>
<path fill="none" stroke="green" d="M246.679,-805.845C253.629,-794.406 264.164,-777.067 271.992,-764.185"/>
<polygon fill="green" stroke="green" points="275.144,-765.738 277.346,-755.374 269.162,-762.103 275.144,-765.738"/>
</g>
</g>
</svg>
