<?xml version="1.0" encoding="UTF-8" standalone="no"?>
<!DOCTYPE svg PUBLIC "-//W3C//DTD SVG 1.1//EN"
 "http://www.w3.org/Graphics/SVG/1.1/DTD/svg11.dtd">
<!-- Generated by graphviz version 2.38.0 (20140413.2041)
 -->
<!-- Title: %3 Pages: 1 -->
<svg width="1381pt" height="1752pt"
 viewBox="0.00 0.00 1381.00 1752.29" xmlns="http://www.w3.org/2000/svg" xmlns:xlink="http://www.w3.org/1999/xlink">
<g id="graph0" class="graph" transform="scale(1 1) rotate(0) translate(4 1748.29)">
<title>%3</title>
<polygon fill="white" stroke="none" points="-4,4 -4,-1748.29 1377,-1748.29 1377,4 -4,4"/>
<!-- 1 -->
<g id="node1" class="node"><title>1</title>
<polygon fill="lightgray" stroke="black" points="162.5,-1744.29 141.5,-1744.29 141.5,-1726.29 162.5,-1726.29 162.5,-1744.29"/>
<text text-anchor="middle" x="152" y="-1733.09" font-family="Times New Roman,serif" font-size="9.00">1</text>
</g>
<!-- 5 -->
<g id="node5" class="node"><title>5</title>
<polygon fill="lightblue" stroke="black" points="383.5,-18 362.5,-18 362.5,-0 383.5,-0 383.5,-18"/>
<text text-anchor="middle" x="373" y="-6.8" font-family="Times New Roman,serif" font-size="9.00">5</text>
</g>
<!-- 1&#45;&gt;5 -->
<g id="edge1" class="edge"><title>1&#45;&gt;5</title>
<path fill="none" stroke="red" d="M141.069,-1730.72C106.216,-1718.59 0,-1675.45 0,-1600.13 0,-1600.13 0,-1600.13 0,-137.083 0,-91.5351 20.9917,-77.5157 60,-54 109.662,-24.0621 290.655,-13.567 352.285,-10.8165"/>
<polygon fill="red" stroke="red" points="352.503,-14.3106 362.345,-10.3901 352.206,-7.31683 352.503,-14.3106"/>
</g>
<!-- 37 -->
<g id="node6" class="node"><title>37</title>
<ellipse fill="none" stroke="black" cx="144" cy="-647.47" rx="18.2703" ry="18.2703"/>
<text text-anchor="middle" x="144" y="-645.27" font-family="Times New Roman,serif" font-size="9.00">37</text>
</g>
<!-- 1&#45;&gt;37 -->
<g id="edge13" class="edge"><title>1&#45;&gt;37</title>
<path fill="none" stroke="green" d="M143.282,-1726.11C123.319,-1706.47 76,-1654.2 76,-1600.13 76,-1600.13 76,-1600.13 76,-870.436 76,-795.969 111.422,-713.369 131.135,-673.167"/>
<polygon fill="green" stroke="green" points="134.319,-674.625 135.662,-664.116 128.058,-671.494 134.319,-674.625"/>
</g>
<!-- 31 -->
<g id="node7" class="node"><title>31</title>
<ellipse fill="none" stroke="black" cx="246" cy="-1671.9" rx="18.2703" ry="18.2703"/>
<text text-anchor="middle" x="246" y="-1669.7" font-family="Times New Roman,serif" font-size="9.00">31</text>
</g>
<!-- 1&#45;&gt;31 -->
<g id="edge21" class="edge"><title>1&#45;&gt;31</title>
<path fill="none" stroke="red" d="M162.783,-1727.24C177.271,-1717.78 203.407,-1700.71 222.535,-1688.22"/>
<polygon fill="red" stroke="red" points="224.562,-1691.08 231.021,-1682.68 220.734,-1685.22 224.562,-1691.08"/>
</g>
<!-- 65 -->
<g id="node9" class="node"><title>65</title>
<ellipse fill="none" stroke="black" cx="358" cy="-1235.28" rx="18.2703" ry="18.2703"/>
<text text-anchor="middle" x="358" y="-1233.08" font-family="Times New Roman,serif" font-size="9.00">65</text>
</g>
<!-- 1&#45;&gt;65 -->
<g id="edge57" class="edge"><title>1&#45;&gt;65</title>
<path fill="none" stroke="red" d="M152,-1726.12C152,-1705.18 152,-1647.88 152,-1600.13 152,-1600.13 152,-1600.13 152,-1379.82 152,-1294.03 273.76,-1255.31 330.06,-1242"/>
<polygon fill="red" stroke="red" points="331.097,-1245.35 340.079,-1239.73 329.554,-1238.52 331.097,-1245.35"/>
</g>
<!-- 20 -->
<g id="node11" class="node"><title>20</title>
<ellipse fill="none" stroke="black" cx="434" cy="-1599.13" rx="18.2703" ry="18.2703"/>
<text text-anchor="middle" x="434" y="-1596.93" font-family="Times New Roman,serif" font-size="9.00">20</text>
</g>
<!-- 1&#45;&gt;20 -->
<g id="edge29" class="edge"><title>1&#45;&gt;20</title>
<path fill="none" stroke="red" d="M162.587,-1731.07C183.909,-1724.47 233.373,-1708.44 273,-1690.29 323.412,-1667.19 379.257,-1634.11 410.141,-1615.11"/>
<polygon fill="red" stroke="red" points="412.232,-1617.93 418.891,-1609.69 408.547,-1611.98 412.232,-1617.93"/>
</g>
<!-- 15 -->
<g id="node28" class="node"><title>15</title>
<ellipse fill="none" stroke="black" cx="369" cy="-944.205" rx="18.2703" ry="18.2703"/>
<text text-anchor="middle" x="369" y="-942.005" font-family="Times New Roman,serif" font-size="9.00">15</text>
</g>
<!-- 1&#45;&gt;15 -->
<g id="edge7" class="edge"><title>1&#45;&gt;15</title>
<path fill="none" stroke="red" d="M147.933,-1726.04C138.13,-1705.38 114,-1649.51 114,-1600.13 114,-1600.13 114,-1600.13 114,-1307.05 114,-1150.94 161.088,-1097.33 282,-998.59 301.224,-982.89 325.455,-968.39 343.46,-958.475"/>
<polygon fill="red" stroke="red" points="345.613,-961.291 352.75,-953.461 342.288,-955.131 345.613,-961.291"/>
</g>
<!-- 6 -->
<g id="node48" class="node"><title>6</title>
<ellipse fill="none" stroke="black" cx="946" cy="-68.8492" rx="14.7" ry="14.7"/>
<text text-anchor="middle" x="946" y="-66.6492" font-family="Times New Roman,serif" font-size="9.00">6</text>
</g>
<!-- 1&#45;&gt;6 -->
<g id="edge9" class="edge"><title>1&#45;&gt;6</title>
<path fill="none" stroke="green" d="M162.545,-1733.94C265.707,-1730.39 1091,-1698.94 1091,-1600.13 1091,-1600.13 1091,-1600.13 1091,-1015.97 1091,-917.611 1060,-895.202 1060,-796.838 1060,-796.838 1060,-796.838 1060,-209.853 1060,-163.597 1038.09,-154.826 1008,-119.698 1001.25,-111.822 981.082,-96.0303 965.562,-84.3213"/>
<polygon fill="green" stroke="green" points="967.636,-81.5018 957.532,-78.3126 963.442,-87.1063 967.636,-81.5018"/>
</g>
<!-- 2 -->
<g id="node2" class="node"><title>2</title>
<polygon fill="lightgray" stroke="black" points="1239.5,-804.838 1218.5,-804.838 1218.5,-786.838 1239.5,-786.838 1239.5,-804.838"/>
<text text-anchor="middle" x="1229" y="-793.638" font-family="Times New Roman,serif" font-size="9.00">2</text>
</g>
<!-- 2&#45;&gt;5 -->
<g id="edge2" class="edge"><title>2&#45;&gt;5</title>
<path fill="none" stroke="red" d="M1228.9,-786.585C1228.65,-764.305 1228,-701.072 1228,-648.47 1228,-648.47 1228,-648.47 1228,-137.083 1228,-16.6176 1088.24,-77.0532 970,-54 747.812,-10.6798 471.524,-9.22399 394.051,-9.7534"/>
<polygon fill="red" stroke="red" points="393.695,-6.25634 383.726,-9.84523 393.757,-13.2561 393.695,-6.25634"/>
</g>
<!-- 7 -->
<g id="node49" class="node"><title>7</title>
<ellipse fill="none" stroke="black" cx="1275" cy="-720.24" rx="14.7" ry="14.7"/>
<text text-anchor="middle" x="1275" y="-718.04" font-family="Times New Roman,serif" font-size="9.00">7</text>
</g>
<!-- 2&#45;&gt;7 -->
<g id="edge17" class="edge"><title>2&#45;&gt;7</title>
<path fill="none" stroke="green" d="M1234.1,-786.68C1240.8,-775.956 1252.81,-756.74 1262.09,-741.895"/>
<polygon fill="green" stroke="green" points="1265.11,-743.667 1267.44,-733.332 1259.17,-739.957 1265.11,-743.667"/>
</g>
<!-- 3 -->
<g id="node3" class="node"><title>3</title>
<polygon fill="lightgray" stroke="black" points="244.5,-1098.74 223.5,-1098.74 223.5,-1080.74 244.5,-1080.74 244.5,-1098.74"/>
<text text-anchor="middle" x="234" y="-1087.54" font-family="Times New Roman,serif" font-size="9.00">3</text>
</g>
<!-- 3&#45;&gt;5 -->
<g id="edge3" class="edge"><title>3&#45;&gt;5</title>
<path fill="none" stroke="green" d="M229.62,-1080.6C218.491,-1059.12 190,-998.898 190,-945.205 190,-945.205 190,-945.205 190,-137.083 190,-58.6745 304.742,-24.7577 352.512,-14.0349"/>
<polygon fill="green" stroke="green" points="353.315,-17.4424 362.37,-11.9413 351.861,-10.5951 353.315,-17.4424"/>
</g>
<!-- 58 -->
<g id="node12" class="node"><title>58</title>
<ellipse fill="none" stroke="black" cx="350" cy="-1016.97" rx="18.2703" ry="18.2703"/>
<text text-anchor="middle" x="350" y="-1014.77" font-family="Times New Roman,serif" font-size="9.00">58</text>
</g>
<!-- 3&#45;&gt;58 -->
<g id="edge102" class="edge"><title>3&#45;&gt;58</title>
<path fill="none" stroke="green" d="M244.583,-1081.12C248.989,-1078.01 254.19,-1074.44 259,-1071.36 281.074,-1057.24 306.896,-1042.23 325.383,-1031.73"/>
<polygon fill="green" stroke="green" points="327.336,-1034.65 334.323,-1026.68 323.894,-1028.55 327.336,-1034.65"/>
</g>
<!-- 24 -->
<g id="node27" class="node"><title>24</title>
<ellipse fill="none" stroke="black" cx="480" cy="-1016.97" rx="18.2703" ry="18.2703"/>
<text text-anchor="middle" x="480" y="-1014.77" font-family="Times New Roman,serif" font-size="9.00">24</text>
</g>
<!-- 3&#45;&gt;24 -->
<g id="edge36" class="edge"><title>3&#45;&gt;24</title>
<path fill="none" stroke="red" d="M244.57,-1085.7C280.437,-1075.39 398.263,-1041.49 452.378,-1025.92"/>
<polygon fill="red" stroke="red" points="453.666,-1029.19 462.308,-1023.06 451.73,-1022.47 453.666,-1029.19"/>
</g>
<!-- 3&#45;&gt;15 -->
<g id="edge39" class="edge"><title>3&#45;&gt;15</title>
<path fill="none" stroke="red" d="M241.645,-1080.62C262.213,-1058.75 319.215,-998.14 349.501,-965.938"/>
<polygon fill="red" stroke="red" points="352.285,-968.086 356.587,-958.404 347.186,-963.29 352.285,-968.086"/>
</g>
<!-- 3&#45;&gt;6 -->
<g id="edge5" class="edge"><title>3&#45;&gt;6</title>
<path fill="none" stroke="red" d="M234.152,-1080.49C235.399,-1023.06 246.008,-677.446 324,-410.777 334.021,-376.514 342.092,-369.965 358,-338.007 390.61,-272.495 377.508,-237.743 435,-192.468 513.175,-130.905 829.135,-85.2289 920.897,-73.0632"/>
<polygon fill="red" stroke="red" points="921.485,-76.5163 930.945,-71.7469 920.575,-69.5756 921.485,-76.5163"/>
</g>
<!-- 4 -->
<g id="node4" class="node"><title>4</title>
<polygon fill="lightgray" stroke="black" points="1198.5,-1535.36 1177.5,-1535.36 1177.5,-1517.36 1198.5,-1517.36 1198.5,-1535.36"/>
<text text-anchor="middle" x="1188" y="-1524.16" font-family="Times New Roman,serif" font-size="9.00">4</text>
</g>
<!-- 4&#45;&gt;5 -->
<g id="edge27" class="edge"><title>4&#45;&gt;5</title>
<path fill="none" stroke="green" d="M1198.75,-1522.74C1238.23,-1512.41 1373,-1470.65 1373,-1381.82 1373,-1381.82 1373,-1381.82 1373,-137.083 1373,-77.5744 1323.71,-74.9221 1268,-54 1183.79,-22.3753 521.24,-11.9797 394.069,-10.2669"/>
<polygon fill="green" stroke="green" points="393.803,-6.76324 383.758,-10.1315 393.711,-13.7626 393.803,-6.76324"/>
</g>
<!-- 48 -->
<g id="node8" class="node"><title>48</title>
<ellipse fill="none" stroke="black" cx="1045" cy="-1453.59" rx="18.2703" ry="18.2703"/>
<text text-anchor="middle" x="1045" y="-1451.39" font-family="Times New Roman,serif" font-size="9.00">48</text>
</g>
<!-- 4&#45;&gt;48 -->
<g id="edge35" class="edge"><title>4&#45;&gt;48</title>
<path fill="none" stroke="red" d="M1177.25,-1520.04C1154.77,-1508.91 1102.23,-1482.91 1070.55,-1467.24"/>
<polygon fill="red" stroke="red" points="1071.96,-1464.03 1061.45,-1462.73 1068.86,-1470.31 1071.96,-1464.03"/>
</g>
<!-- 4&#45;&gt;24 -->
<g id="edge43" class="edge"><title>4&#45;&gt;24</title>
<path fill="none" stroke="red" d="M1177.32,-1524.4C1088.25,-1516.24 472,-1457.1 472,-1381.82 472,-1381.82 472,-1381.82 472,-1234.28 472,-1166.33 475.992,-1086.44 478.336,-1045.39"/>
<polygon fill="red" stroke="red" points="481.833,-1045.54 478.921,-1035.35 474.845,-1045.13 481.833,-1045.54"/>
</g>
<!-- 56 -->
<g id="node29" class="node"><title>56</title>
<ellipse fill="none" stroke="black" cx="1213" cy="-1380.82" rx="18.2703" ry="18.2703"/>
<text text-anchor="middle" x="1213" y="-1378.62" font-family="Times New Roman,serif" font-size="9.00">56</text>
</g>
<!-- 4&#45;&gt;56 -->
<g id="edge100" class="edge"><title>4&#45;&gt;56</title>
<path fill="none" stroke="red" d="M1189.42,-1517.23C1192.98,-1496.79 1202.43,-1442.5 1208.23,-1409.2"/>
<polygon fill="red" stroke="red" points="1211.71,-1409.65 1209.97,-1399.2 1204.81,-1408.45 1211.71,-1409.65"/>
</g>
<!-- 23 -->
<g id="node37" class="node"><title>23</title>
<ellipse fill="none" stroke="black" cx="1190" cy="-871.436" rx="18.2703" ry="18.2703"/>
<text text-anchor="middle" x="1190" y="-869.236" font-family="Times New Roman,serif" font-size="9.00">23</text>
</g>
<!-- 4&#45;&gt;23 -->
<g id="edge23" class="edge"><title>4&#45;&gt;23</title>
<path fill="none" stroke="red" d="M1185.99,-1517.33C1180.73,-1495.63 1167,-1433.96 1167,-1381.82 1167,-1381.82 1167,-1381.82 1167,-1015.97 1167,-975.021 1176.24,-928.314 1183.01,-899.602"/>
<polygon fill="red" stroke="red" points="1186.5,-900.072 1185.46,-889.528 1179.69,-898.419 1186.5,-900.072"/>
</g>
<!-- 11 -->
<g id="node38" class="node"><title>11</title>
<ellipse fill="none" stroke="black" cx="1279" cy="-871.436" rx="18.2703" ry="18.2703"/>
<text text-anchor="middle" x="1279" y="-869.236" font-family="Times New Roman,serif" font-size="9.00">11</text>
</g>
<!-- 4&#45;&gt;11 -->
<g id="edge85" class="edge"><title>4&#45;&gt;11</title>
<path fill="none" stroke="red" d="M1198.85,-1518.45C1226.42,-1499.95 1297,-1446.28 1297,-1381.82 1297,-1381.82 1297,-1381.82 1297,-1015.97 1297,-975.22 1289.77,-928.46 1284.47,-899.682"/>
<polygon fill="red" stroke="red" points="1287.86,-898.755 1282.56,-889.583 1280.98,-900.06 1287.86,-898.755"/>
</g>
<!-- 4&#45;&gt;6 -->
<g id="edge28" class="edge"><title>4&#45;&gt;6</title>
<path fill="none" stroke="red" d="M1181.91,-1517.12C1166.83,-1495.87 1129,-1437.06 1129,-1381.82 1129,-1381.82 1129,-1381.82 1129,-1015.97 1129,-917.611 1098,-895.202 1098,-796.838 1098,-796.838 1098,-796.838 1098,-209.853 1098,-168.389 1102.4,-149.907 1074,-119.698 1041.37,-84.9969 1014.57,-103.783 966.691,-82.9958"/>
<polygon fill="red" stroke="red" points="968.035,-79.7594 957.501,-78.6322 965.033,-86.0829 968.035,-79.7594"/>
</g>
<!-- 4&#45;&gt;7 -->
<g id="edge14" class="edge"><title>4&#45;&gt;7</title>
<path fill="none" stroke="red" d="M1198.57,-1521.2C1232.28,-1507.17 1335,-1458.16 1335,-1381.82 1335,-1381.82 1335,-1381.82 1335,-870.436 1335,-826.313 1326.83,-814.983 1309,-774.624 1303.76,-762.774 1296.14,-750.515 1289.44,-740.738"/>
<polygon fill="red" stroke="red" points="1292.27,-738.681 1283.63,-732.539 1286.55,-742.724 1292.27,-738.681"/>
</g>
<!-- 37&#45;&gt;5 -->
<g id="edge104" class="edge"><title>37&#45;&gt;5</title>
<path fill="none" stroke="red" d="M144.809,-628.796C145.978,-601.711 148,-548.303 148,-502.931 148,-502.931 148,-502.931 148,-137.083 148,-98.1168 147.035,-80.0651 176,-54 201.936,-30.6612 306.714,-17.0087 351.99,-12.0944"/>
<polygon fill="red" stroke="red" points="352.554,-15.5547 362.135,-11.0327 351.825,-8.59269 352.554,-15.5547"/>
</g>
<!-- 30 -->
<g id="node39" class="node"><title>30</title>
<ellipse fill="none" stroke="black" cx="716" cy="-574.701" rx="18.2703" ry="18.2703"/>
<text text-anchor="middle" x="716" y="-572.501" font-family="Times New Roman,serif" font-size="9.00">30</text>
</g>
<!-- 37&#45;&gt;30 -->
<g id="edge16" class="edge"><title>37&#45;&gt;30</title>
<path fill="none" stroke="green" d="M162.384,-644.196C245.501,-633.912 586.493,-591.724 687.611,-579.213"/>
<polygon fill="green" stroke="green" points="688.19,-582.668 697.685,-577.967 687.331,-575.721 688.19,-582.668"/>
</g>
<!-- 31&#45;&gt;20 -->
<g id="edge22" class="edge"><title>31&#45;&gt;20</title>
<path fill="none" stroke="red" d="M263.015,-1664.5C295.859,-1652.13 368.206,-1624.9 407.442,-1610.13"/>
<polygon fill="red" stroke="red" points="408.762,-1613.37 416.888,-1606.57 406.296,-1606.82 408.762,-1613.37"/>
</g>
<!-- 31&#45;&gt;6 -->
<g id="edge71" class="edge"><title>31&#45;&gt;6</title>
<path fill="none" stroke="red" d="M264.442,-1669.35C358.161,-1661.18 781.243,-1620.53 885,-1544.75 981.606,-1474.19 1015,-1428.68 1015,-1309.05 1015,-1309.05 1015,-1309.05 1015,-209.853 1015,-162.135 982.352,-113.82 961.971,-88.3077"/>
<polygon fill="red" stroke="red" points="964.653,-86.0585 955.594,-80.5636 959.249,-90.5081 964.653,-86.0585"/>
</g>
<!-- 91 -->
<g id="node52" class="node"><title>91</title>
<ellipse fill="none" stroke="black" cx="438" cy="-138.083" rx="18.2703" ry="18.2703"/>
<text text-anchor="middle" x="438" y="-135.883" font-family="Times New Roman,serif" font-size="9.00">91</text>
</g>
<!-- 31&#45;&gt;91 -->
<g id="edge95" class="edge"><title>31&#45;&gt;91</title>
<path fill="none" stroke="green" d="M235.988,-1656.14C219.881,-1630.92 190,-1577.38 190,-1527.36 190,-1527.36 190,-1527.36 190,-1234.28 190,-1104.7 152,-1074.79 152,-945.205 152,-945.205 152,-945.205 152,-870.436 152,-766.162 228,-752.744 228,-648.47 228,-648.47 228,-648.47 228,-282.622 228,-195.318 353.237,-157.253 410.283,-144.443"/>
<polygon fill="green" stroke="green" points="411.052,-147.857 420.096,-142.338 409.584,-141.013 411.052,-147.857"/>
</g>
<!-- 53 -->
<g id="node10" class="node"><title>53</title>
<ellipse fill="none" stroke="black" cx="779" cy="-1380.82" rx="18.2703" ry="18.2703"/>
<text text-anchor="middle" x="779" y="-1378.62" font-family="Times New Roman,serif" font-size="9.00">53</text>
</g>
<!-- 48&#45;&gt;53 -->
<g id="edge38" class="edge"><title>48&#45;&gt;53</title>
<path fill="none" stroke="green" d="M1027.13,-1447.84C981.61,-1435.73 861.012,-1403.64 806.472,-1389.13"/>
<polygon fill="green" stroke="green" points="807.352,-1385.74 796.788,-1386.56 805.552,-1392.51 807.352,-1385.74"/>
</g>
<!-- 52 -->
<g id="node18" class="node"><title>52</title>
<ellipse fill="none" stroke="black" cx="817" cy="-1162.51" rx="18.2703" ry="18.2703"/>
<text text-anchor="middle" x="817" y="-1160.31" font-family="Times New Roman,serif" font-size="9.00">52</text>
</g>
<!-- 48&#45;&gt;52 -->
<g id="edge50" class="edge"><title>48&#45;&gt;52</title>
<path fill="none" stroke="green" d="M1027.82,-1446.45C967.56,-1424.73 768.519,-1351.53 752,-1326.44 721.13,-1279.54 768.442,-1215.68 797.333,-1183.62"/>
<polygon fill="green" stroke="green" points="799.994,-1185.9 804.223,-1176.19 794.859,-1181.14 799.994,-1185.9"/>
</g>
<!-- 80 -->
<g id="node44" class="node"><title>80</title>
<ellipse fill="none" stroke="black" cx="1144" cy="-795.838" rx="18.2703" ry="18.2703"/>
<text text-anchor="middle" x="1144" y="-793.638" font-family="Times New Roman,serif" font-size="9.00">80</text>
</g>
<!-- 48&#45;&gt;80 -->
<g id="edge99" class="edge"><title>48&#45;&gt;80</title>
<path fill="none" stroke="red" d="M1046.62,-1434.93C1048.96,-1407.86 1053,-1354.48 1053,-1309.05 1053,-1309.05 1053,-1309.05 1053,-1015.97 1053,-939.128 1101.32,-857.917 1127.54,-819.506"/>
<polygon fill="red" stroke="red" points="1130.54,-821.324 1133.38,-811.118 1124.8,-817.323 1130.54,-821.324"/>
</g>
<!-- 69 -->
<g id="node20" class="node"><title>69</title>
<ellipse fill="none" stroke="black" cx="312" cy="-1162.51" rx="18.2703" ry="18.2703"/>
<text text-anchor="middle" x="312" y="-1160.31" font-family="Times New Roman,serif" font-size="9.00">69</text>
</g>
<!-- 65&#45;&gt;69 -->
<g id="edge72" class="edge"><title>65&#45;&gt;69</title>
<path fill="none" stroke="green" d="M348.245,-1219.28C342.146,-1209.89 334.162,-1197.61 327.241,-1186.96"/>
<polygon fill="green" stroke="green" points="330.126,-1184.98 321.741,-1178.5 324.257,-1188.79 330.126,-1184.98"/>
</g>
<!-- 65&#45;&gt;24 -->
<g id="edge58" class="edge"><title>65&#45;&gt;24</title>
<path fill="none" stroke="red" d="M362.908,-1217.04C372.219,-1186.09 394.471,-1119.82 427,-1071.36 435.701,-1058.4 447.831,-1045.9 458.292,-1036.26"/>
<polygon fill="red" stroke="red" points="460.752,-1038.76 465.881,-1029.49 456.09,-1033.54 460.752,-1038.76"/>
</g>
<!-- 75 -->
<g id="node30" class="node"><title>75</title>
<ellipse fill="none" stroke="black" cx="649" cy="-1162.51" rx="18.2703" ry="18.2703"/>
<text text-anchor="middle" x="649" y="-1160.31" font-family="Times New Roman,serif" font-size="9.00">75</text>
</g>
<!-- 65&#45;&gt;75 -->
<g id="edge90" class="edge"><title>65&#45;&gt;75</title>
<path fill="none" stroke="red" d="M376.493,-1232.8C420.349,-1228.79 533.529,-1215.63 621,-1180.9 622.429,-1180.33 623.867,-1179.69 625.296,-1179"/>
<polygon fill="red" stroke="red" points="627.372,-1181.85 634.407,-1173.93 623.967,-1175.73 627.372,-1181.85"/>
</g>
<!-- 22 -->
<g id="node33" class="node"><title>22</title>
<ellipse fill="none" stroke="black" cx="436" cy="-871.436" rx="18.2703" ry="18.2703"/>
<text text-anchor="middle" x="436" y="-869.236" font-family="Times New Roman,serif" font-size="9.00">22</text>
</g>
<!-- 65&#45;&gt;22 -->
<g id="edge59" class="edge"><title>65&#45;&gt;22</title>
<path fill="none" stroke="green" d="M354.548,-1216.96C350.879,-1198.78 344.815,-1169.38 339,-1144.13 335.299,-1128.06 332.015,-1124.5 330,-1108.13 328.003,-1091.91 321.127,-1085.08 330,-1071.36 351.17,-1038.62 386.308,-1066.33 410,-1035.36 440.285,-995.777 441.413,-934.735 439.028,-899.691"/>
<polygon fill="green" stroke="green" points="442.514,-899.381 438.203,-889.703 435.538,-899.957 442.514,-899.381"/>
</g>
<!-- 64 -->
<g id="node14" class="node"><title>64</title>
<ellipse fill="none" stroke="black" cx="779" cy="-1308.05" rx="18.2703" ry="18.2703"/>
<text text-anchor="middle" x="779" y="-1305.85" font-family="Times New Roman,serif" font-size="9.00">64</text>
</g>
<!-- 53&#45;&gt;64 -->
<g id="edge55" class="edge"><title>53&#45;&gt;64</title>
<path fill="none" stroke="green" d="M779,-1362.33C779,-1354.65 779,-1345.44 779,-1336.85"/>
<polygon fill="green" stroke="green" points="782.5,-1336.84 779,-1326.84 775.5,-1336.84 782.5,-1336.84"/>
</g>
<!-- 54 -->
<g id="node19" class="node"><title>54</title>
<ellipse fill="none" stroke="black" cx="622" cy="-1308.05" rx="18.2703" ry="18.2703"/>
<text text-anchor="middle" x="622" y="-1305.85" font-family="Times New Roman,serif" font-size="9.00">54</text>
</g>
<!-- 53&#45;&gt;54 -->
<g id="edge66" class="edge"><title>53&#45;&gt;54</title>
<path fill="none" stroke="red" d="M764.149,-1369.98C759.975,-1367.38 755.378,-1364.68 751,-1362.44 716.731,-1344.86 675.301,-1328.53 648.805,-1318.68"/>
<polygon fill="red" stroke="red" points="649.687,-1315.27 639.094,-1315.11 647.272,-1321.84 649.687,-1315.27"/>
</g>
<!-- 20&#45;&gt;5 -->
<g id="edge18" class="edge"><title>20&#45;&gt;5</title>
<path fill="none" stroke="red" d="M415.855,-1596.01C384.838,-1591.54 321.007,-1578.64 280,-1544.75 244.345,-1515.28 228,-1500.85 228,-1454.59 228,-1454.59 228,-1454.59 228,-1379.82 228,-1198.18 38,-1199.62 38,-1017.97 38,-1017.97 38,-1017.97 38,-794.838 38,-693.859 98,-676.68 98,-575.701 98,-575.701 98,-575.701 98,-137.083 98,-93.5213 114.125,-78.7114 150,-54 182.938,-31.3113 303.535,-16.9659 352.316,-11.9766"/>
<polygon fill="red" stroke="red" points="352.727,-15.453 362.332,-10.9815 352.035,-8.48734 352.727,-15.453"/>
</g>
<!-- 62 -->
<g id="node13" class="node"><title>62</title>
<ellipse fill="none" stroke="black" cx="825" cy="-1526.36" rx="18.2703" ry="18.2703"/>
<text text-anchor="middle" x="825" y="-1524.16" font-family="Times New Roman,serif" font-size="9.00">62</text>
</g>
<!-- 20&#45;&gt;62 -->
<g id="edge51" class="edge"><title>20&#45;&gt;62</title>
<path fill="none" stroke="green" d="M452.075,-1594.86C514.345,-1583.59 720.31,-1546.31 796.413,-1532.54"/>
<polygon fill="green" stroke="green" points="797.449,-1535.91 806.666,-1530.68 796.203,-1529.02 797.449,-1535.91"/>
</g>
<!-- 20&#45;&gt;54 -->
<g id="edge64" class="edge"><title>20&#45;&gt;54</title>
<path fill="none" stroke="green" d="M443.581,-1583.4C474.131,-1536.42 569.408,-1389.92 606.76,-1332.49"/>
<polygon fill="green" stroke="green" points="609.92,-1334.05 612.438,-1323.76 604.052,-1330.23 609.92,-1334.05"/>
</g>
<!-- 28 -->
<g id="node23" class="node"><title>28</title>
<ellipse fill="none" stroke="black" cx="640" cy="-1089.74" rx="18.2703" ry="18.2703"/>
<text text-anchor="middle" x="640" y="-1087.54" font-family="Times New Roman,serif" font-size="9.00">28</text>
</g>
<!-- 20&#45;&gt;28 -->
<g id="edge33" class="edge"><title>20&#45;&gt;28</title>
<path fill="none" stroke="green" d="M448.176,-1587.33C461.12,-1577.11 480.403,-1560.96 495,-1544.75 597.737,-1430.66 623.372,-1395.97 681,-1253.67 699.821,-1207.19 729.928,-1189.22 708,-1144.13 703.193,-1134.24 681.627,-1118.19 664.053,-1106.27"/>
<polygon fill="green" stroke="green" points="665.599,-1103.1 655.336,-1100.47 661.719,-1108.92 665.599,-1103.1"/>
</g>
<!-- 20&#45;&gt;24 -->
<g id="edge60" class="edge"><title>20&#45;&gt;24</title>
<path fill="none" stroke="red" d="M434,-1580.45C434,-1553.36 434,-1499.95 434,-1454.59 434,-1454.59 434,-1454.59 434,-1234.28 434,-1164.35 457.287,-1084.43 470.723,-1044.14"/>
<polygon fill="red" stroke="red" points="474.078,-1045.14 473.986,-1034.55 467.451,-1042.89 474.078,-1045.14"/>
</g>
<!-- 20&#45;&gt;15 -->
<g id="edge10" class="edge"><title>20&#45;&gt;15</title>
<path fill="none" stroke="green" d="M416.654,-1592.67C373.73,-1577.97 266,-1533.24 266,-1454.59 266,-1454.59 266,-1454.59 266,-1234.28 266,-1157.71 270.892,-1128.38 322,-1071.36 341.5,-1049.6 363.106,-1061.06 377,-1035.36 387.593,-1015.77 384.002,-990.23 378.687,-971.339"/>
<polygon fill="green" stroke="green" points="381.968,-970.103 375.636,-961.608 375.288,-972.197 381.968,-970.103"/>
</g>
<!-- 20&#45;&gt;30 -->
<g id="edge61" class="edge"><title>20&#45;&gt;30</title>
<path fill="none" stroke="red" d="M452.848,-1598.37C526.109,-1598.9 790.889,-1597.11 852,-1544.75 960.168,-1452.07 939,-1378.73 939,-1236.28 939,-1236.28 939,-1236.28 939,-870.436 939,-739.486 797.279,-630.011 739.796,-590.993"/>
<polygon fill="red" stroke="red" points="741.589,-587.982 731.328,-585.343 737.704,-593.805 741.589,-587.982"/>
</g>
<!-- 58&#45;&gt;15 -->
<g id="edge103" class="edge"><title>58&#45;&gt;15</title>
<path fill="none" stroke="red" d="M354.599,-998.843C356.77,-990.759 359.41,-980.924 361.834,-971.895"/>
<polygon fill="red" stroke="red" points="365.23,-972.744 364.443,-962.179 358.47,-970.929 365.23,-972.744"/>
</g>
<!-- 59 -->
<g id="node15" class="node"><title>59</title>
<ellipse fill="none" stroke="black" cx="825" cy="-1453.59" rx="18.2703" ry="18.2703"/>
<text text-anchor="middle" x="825" y="-1451.39" font-family="Times New Roman,serif" font-size="9.00">59</text>
</g>
<!-- 62&#45;&gt;59 -->
<g id="edge52" class="edge"><title>62&#45;&gt;59</title>
<path fill="none" stroke="red" d="M825,-1507.87C825,-1500.19 825,-1490.98 825,-1482.39"/>
<polygon fill="red" stroke="red" points="828.5,-1482.38 825,-1472.38 821.5,-1482.38 828.5,-1482.38"/>
</g>
<!-- 21 -->
<g id="node46" class="node"><title>21</title>
<ellipse fill="none" stroke="black" cx="946" cy="-210.853" rx="18.2703" ry="18.2703"/>
<text text-anchor="middle" x="946" y="-208.653" font-family="Times New Roman,serif" font-size="9.00">21</text>
</g>
<!-- 62&#45;&gt;21 -->
<g id="edge54" class="edge"><title>62&#45;&gt;21</title>
<path fill="none" stroke="green" d="M837.439,-1512.8C873.741,-1474.73 977,-1355.92 977,-1236.28 977,-1236.28 977,-1236.28 977,-355.392 977,-313.613 964.297,-266.504 955.154,-238.008"/>
<polygon fill="green" stroke="green" points="958.439,-236.793 951.977,-228.397 951.793,-238.99 958.439,-236.793"/>
</g>
<!-- 82 -->
<g id="node16" class="node"><title>82</title>
<ellipse fill="none" stroke="black" cx="817" cy="-1235.28" rx="18.2703" ry="18.2703"/>
<text text-anchor="middle" x="817" y="-1233.08" font-family="Times New Roman,serif" font-size="9.00">82</text>
</g>
<!-- 64&#45;&gt;82 -->
<g id="edge93" class="edge"><title>64&#45;&gt;82</title>
<path fill="none" stroke="red" d="M787.433,-1291.35C792.255,-1282.37 798.407,-1270.91 803.85,-1260.77"/>
<polygon fill="red" stroke="red" points="806.943,-1262.41 808.59,-1251.95 800.776,-1259.1 806.943,-1262.41"/>
</g>
<!-- 64&#45;&gt;52 -->
<g id="edge96" class="edge"><title>64&#45;&gt;52</title>
<path fill="none" stroke="green" d="M779.358,-1289.4C780.144,-1270.95 782.578,-1241.34 790,-1216.9 793.014,-1206.97 797.786,-1196.67 802.485,-1187.79"/>
<polygon fill="green" stroke="green" points="805.681,-1189.24 807.47,-1178.8 799.559,-1185.85 805.681,-1189.24"/>
</g>
<!-- 81 -->
<g id="node17" class="node"><title>81</title>
<ellipse fill="none" stroke="black" cx="724" cy="-1380.82" rx="18.2703" ry="18.2703"/>
<text text-anchor="middle" x="724" y="-1378.62" font-family="Times New Roman,serif" font-size="9.00">81</text>
</g>
<!-- 59&#45;&gt;81 -->
<g id="edge110" class="edge"><title>59&#45;&gt;81</title>
<path fill="none" stroke="red" d="M810.097,-1442.15C793.442,-1430.48 766.278,-1411.45 746.916,-1397.88"/>
<polygon fill="red" stroke="red" points="748.834,-1394.95 738.636,-1392.08 744.817,-1400.68 748.834,-1394.95"/>
</g>
<!-- 61 -->
<g id="node24" class="node"><title>61</title>
<ellipse fill="none" stroke="black" cx="817" cy="-1089.74" rx="18.2703" ry="18.2703"/>
<text text-anchor="middle" x="817" y="-1087.54" font-family="Times New Roman,serif" font-size="9.00">61</text>
</g>
<!-- 59&#45;&gt;61 -->
<g id="edge53" class="edge"><title>59&#45;&gt;61</title>
<path fill="none" stroke="green" d="M829.484,-1435.57C841.166,-1388.47 869.89,-1252.68 844,-1144.13 841.532,-1133.78 836.717,-1123.17 831.828,-1114.16"/>
<polygon fill="green" stroke="green" points="834.825,-1112.35 826.802,-1105.43 828.758,-1115.84 834.825,-1112.35"/>
</g>
<!-- 19 -->
<g id="node43" class="node"><title>19</title>
<ellipse fill="none" stroke="black" cx="796" cy="-283.622" rx="18.2703" ry="18.2703"/>
<text text-anchor="middle" x="796" y="-281.422" font-family="Times New Roman,serif" font-size="9.00">19</text>
</g>
<!-- 59&#45;&gt;19 -->
<g id="edge76" class="edge"><title>59&#45;&gt;19</title>
<path fill="none" stroke="red" d="M834.319,-1437.5C854.613,-1403.14 901,-1315.89 901,-1236.28 901,-1236.28 901,-1236.28 901,-573.701 901,-469.58 840.077,-356.353 811.044,-308.305"/>
<polygon fill="red" stroke="red" points="813.906,-306.276 805.69,-299.586 807.94,-309.939 813.906,-306.276"/>
</g>
<!-- 82&#45;&gt;52 -->
<g id="edge94" class="edge"><title>82&#45;&gt;52</title>
<path fill="none" stroke="red" d="M817,-1216.79C817,-1209.11 817,-1199.9 817,-1191.31"/>
<polygon fill="red" stroke="red" points="820.5,-1191.3 817,-1181.3 813.5,-1191.3 820.5,-1191.3"/>
</g>
<!-- 81&#45;&gt;54 -->
<g id="edge111" class="edge"><title>81&#45;&gt;54</title>
<path fill="none" stroke="green" d="M708.95,-1369.38C692.13,-1357.71 664.696,-1338.68 645.143,-1325.11"/>
<polygon fill="green" stroke="green" points="646.992,-1322.13 636.781,-1319.31 643.002,-1327.88 646.992,-1322.13"/>
</g>
<!-- 52&#45;&gt;61 -->
<g id="edge48" class="edge"><title>52&#45;&gt;61</title>
<path fill="none" stroke="red" d="M817,-1144.02C817,-1136.34 817,-1127.13 817,-1118.54"/>
<polygon fill="red" stroke="red" points="820.5,-1118.53 817,-1108.53 813.5,-1118.53 820.5,-1118.53"/>
</g>
<!-- 86 -->
<g id="node32" class="node"><title>86</title>
<ellipse fill="none" stroke="black" cx="695" cy="-1089.74" rx="18.2703" ry="18.2703"/>
<text text-anchor="middle" x="695" y="-1087.54" font-family="Times New Roman,serif" font-size="9.00">86</text>
</g>
<!-- 52&#45;&gt;86 -->
<g id="edge88" class="edge"><title>52&#45;&gt;86</title>
<path fill="none" stroke="red" d="M801.549,-1152.55C780.853,-1140.55 743.908,-1119.11 719.425,-1104.91"/>
<polygon fill="red" stroke="red" points="721.118,-1101.85 710.711,-1099.86 717.605,-1107.9 721.118,-1101.85"/>
</g>
<!-- 55 -->
<g id="node21" class="node"><title>55</title>
<ellipse fill="none" stroke="black" cx="611" cy="-1235.28" rx="18.2703" ry="18.2703"/>
<text text-anchor="middle" x="611" y="-1233.08" font-family="Times New Roman,serif" font-size="9.00">55</text>
</g>
<!-- 54&#45;&gt;55 -->
<g id="edge46" class="edge"><title>54&#45;&gt;55</title>
<path fill="none" stroke="red" d="M619.281,-1289.56C618.069,-1281.76 616.612,-1272.39 615.261,-1263.69"/>
<polygon fill="red" stroke="red" points="618.682,-1262.92 613.688,-1253.58 611.765,-1263.99 618.682,-1262.92"/>
</g>
<!-- 54&#45;&gt;28 -->
<g id="edge65" class="edge"><title>54&#45;&gt;28</title>
<path fill="none" stroke="green" d="M633.028,-1292.95C649.679,-1270.67 680.514,-1225.27 692,-1180.9 696.095,-1165.08 698.154,-1159.27 692,-1144.13 686.098,-1129.61 674.14,-1116.88 663.178,-1107.5"/>
<polygon fill="green" stroke="green" points="665.09,-1104.54 655.106,-1101 660.701,-1109.99 665.09,-1104.54"/>
</g>
<!-- 13 -->
<g id="node36" class="node"><title>13</title>
<ellipse fill="none" stroke="black" cx="522" cy="-647.47" rx="18.2703" ry="18.2703"/>
<text text-anchor="middle" x="522" y="-645.27" font-family="Times New Roman,serif" font-size="9.00">13</text>
</g>
<!-- 54&#45;&gt;13 -->
<g id="edge45" class="edge"><title>54&#45;&gt;13</title>
<path fill="none" stroke="green" d="M610.802,-1293.11C602.724,-1282.65 591.896,-1267.76 584,-1253.67 566.818,-1223 563.044,-1214.59 553,-1180.9 522.51,-1078.63 511.284,-1007.04 495,-738.624 494.01,-722.312 491.209,-717.751 495,-701.855 497.468,-691.507 502.283,-680.894 507.172,-671.885"/>
<polygon fill="green" stroke="green" points="510.242,-673.567 512.198,-663.154 504.175,-670.074 510.242,-673.567"/>
</g>
<!-- 69&#45;&gt;5 -->
<g id="edge81" class="edge"><title>69&#45;&gt;5</title>
<path fill="none" stroke="red" d="M294.08,-1157.67C245.34,-1146.04 114,-1106.5 114,-1017.97 114,-1017.97 114,-1017.97 114,-870.436 114,-737.262 60,-708.874 60,-575.701 60,-575.701 60,-575.701 60,-137.083 60,-98.6476 55.1124,-79.3536 84,-54 124.045,-18.8537 292.813,-11.7614 352.212,-10.3472"/>
<polygon fill="red" stroke="red" points="352.345,-13.8453 362.27,-10.1385 352.2,-6.84678 352.345,-13.8453"/>
</g>
<!-- 70 -->
<g id="node25" class="node"><title>70</title>
<ellipse fill="none" stroke="black" cx="357" cy="-1089.74" rx="18.2703" ry="18.2703"/>
<text text-anchor="middle" x="357" y="-1087.54" font-family="Times New Roman,serif" font-size="9.00">70</text>
</g>
<!-- 69&#45;&gt;70 -->
<g id="edge73" class="edge"><title>69&#45;&gt;70</title>
<path fill="none" stroke="green" d="M321.543,-1146.51C327.509,-1137.12 335.319,-1124.84 342.09,-1114.19"/>
<polygon fill="green" stroke="green" points="345.058,-1116.05 347.47,-1105.73 339.151,-1112.29 345.058,-1116.05"/>
</g>
<!-- 88 -->
<g id="node22" class="node"><title>88</title>
<ellipse fill="none" stroke="black" cx="594" cy="-1162.51" rx="18.2703" ry="18.2703"/>
<text text-anchor="middle" x="594" y="-1160.31" font-family="Times New Roman,serif" font-size="9.00">88</text>
</g>
<!-- 55&#45;&gt;88 -->
<g id="edge89" class="edge"><title>55&#45;&gt;88</title>
<path fill="none" stroke="red" d="M606.885,-1217.15C604.964,-1209.15 602.631,-1199.44 600.481,-1190.5"/>
<polygon fill="red" stroke="red" points="603.816,-1189.39 598.077,-1180.49 597.01,-1191.03 603.816,-1189.39"/>
</g>
<!-- 55&#45;&gt;28 -->
<g id="edge47" class="edge"><title>55&#45;&gt;28</title>
<path fill="none" stroke="green" d="M627.354,-1226.3C643.12,-1217.59 666.014,-1202.02 676,-1180.9 686.944,-1157.75 672.216,-1130.32 658.435,-1111.85"/>
<polygon fill="green" stroke="green" points="661.014,-1109.47 652.064,-1103.8 655.525,-1113.81 661.014,-1109.47"/>
</g>
<!-- 55&#45;&gt;75 -->
<g id="edge84" class="edge"><title>55&#45;&gt;75</title>
<path fill="none" stroke="green" d="M619.433,-1218.58C624.255,-1209.6 630.407,-1198.14 635.85,-1188"/>
<polygon fill="green" stroke="green" points="638.943,-1189.64 640.59,-1179.18 632.776,-1186.33 638.943,-1189.64"/>
</g>
<!-- 51 -->
<g id="node34" class="node"><title>51</title>
<ellipse fill="none" stroke="black" cx="564" cy="-795.838" rx="18.2703" ry="18.2703"/>
<text text-anchor="middle" x="564" y="-793.638" font-family="Times New Roman,serif" font-size="9.00">51</text>
</g>
<!-- 55&#45;&gt;51 -->
<g id="edge56" class="edge"><title>55&#45;&gt;51</title>
<path fill="none" stroke="green" d="M597.356,-1222.72C586.829,-1212.84 573.071,-1197.61 567,-1180.9 521.035,-1054.42 545.681,-888.657 558.171,-824.165"/>
<polygon fill="green" stroke="green" points="561.671,-824.508 560.2,-814.016 554.807,-823.135 561.671,-824.508"/>
</g>
<!-- 88&#45;&gt;28 -->
<g id="edge98" class="edge"><title>88&#45;&gt;28</title>
<path fill="none" stroke="red" d="M603.755,-1146.51C609.854,-1137.12 617.838,-1124.84 624.759,-1114.19"/>
<polygon fill="red" stroke="red" points="627.743,-1116.02 630.259,-1105.73 621.874,-1112.21 627.743,-1116.02"/>
</g>
<!-- 28&#45;&gt;24 -->
<g id="edge34" class="edge"><title>28&#45;&gt;24</title>
<path fill="none" stroke="red" d="M623.48,-1081.44C595.694,-1069.15 539.396,-1044.25 506.18,-1029.55"/>
<polygon fill="red" stroke="red" points="507.231,-1026.19 496.67,-1025.35 504.4,-1032.59 507.231,-1026.19"/>
</g>
<!-- 28&#45;&gt;13 -->
<g id="edge97" class="edge"><title>28&#45;&gt;13</title>
<path fill="none" stroke="green" d="M640,-1071.07C640,-1043.97 640,-990.56 640,-945.205 640,-945.205 640,-945.205 640,-794.838 640,-735.511 580.518,-686.645 546.017,-663.292"/>
<polygon fill="green" stroke="green" points="547.707,-660.214 537.426,-657.653 543.866,-666.066 547.707,-660.214"/>
</g>
<!-- 67 -->
<g id="node26" class="node"><title>67</title>
<ellipse fill="none" stroke="black" cx="817" cy="-1016.97" rx="18.2703" ry="18.2703"/>
<text text-anchor="middle" x="817" y="-1014.77" font-family="Times New Roman,serif" font-size="9.00">67</text>
</g>
<!-- 61&#45;&gt;67 -->
<g id="edge75" class="edge"><title>61&#45;&gt;67</title>
<path fill="none" stroke="red" d="M817,-1071.25C817,-1063.57 817,-1054.36 817,-1045.77"/>
<polygon fill="red" stroke="red" points="820.5,-1045.76 817,-1035.76 813.5,-1045.76 820.5,-1045.76"/>
</g>
<!-- 61&#45;&gt;24 -->
<g id="edge49" class="edge"><title>61&#45;&gt;24</title>
<path fill="none" stroke="green" d="M798.881,-1084.94C743.209,-1073.25 574.379,-1037.79 507.607,-1023.77"/>
<polygon fill="green" stroke="green" points="508.305,-1020.34 497.799,-1021.71 506.866,-1027.19 508.305,-1020.34"/>
</g>
<!-- 70&#45;&gt;24 -->
<g id="edge74" class="edge"><title>70&#45;&gt;24</title>
<path fill="none" stroke="green" d="M372.578,-1079.78C393.443,-1067.78 430.691,-1046.35 455.375,-1032.14"/>
<polygon fill="green" stroke="green" points="457.238,-1035.11 464.16,-1027.09 453.747,-1029.04 457.238,-1035.11"/>
</g>
<!-- 24&#45;&gt;15 -->
<g id="edge31" class="edge"><title>24&#45;&gt;15</title>
<path fill="none" stroke="green" d="M464.566,-1006.13C446.01,-994.304 414.659,-974.316 392.951,-960.475"/>
<polygon fill="green" stroke="green" points="394.617,-957.387 384.303,-954.962 390.853,-963.289 394.617,-957.387"/>
</g>
<!-- 74 -->
<g id="node31" class="node"><title>74</title>
<ellipse fill="none" stroke="black" cx="1251" cy="-944.205" rx="18.2703" ry="18.2703"/>
<text text-anchor="middle" x="1251" y="-942.005" font-family="Times New Roman,serif" font-size="9.00">74</text>
</g>
<!-- 24&#45;&gt;74 -->
<g id="edge77" class="edge"><title>24&#45;&gt;74</title>
<path fill="none" stroke="red" d="M498.298,-1014.3C600.123,-1004.95 1096.84,-959.356 1222.21,-947.847"/>
<polygon fill="red" stroke="red" points="1222.89,-951.3 1232.53,-946.9 1222.25,-944.329 1222.89,-951.3"/>
</g>
<!-- 78 -->
<g id="node35" class="node"><title>78</title>
<ellipse fill="none" stroke="black" cx="522" cy="-720.24" rx="18.2703" ry="18.2703"/>
<text text-anchor="middle" x="522" y="-718.04" font-family="Times New Roman,serif" font-size="9.00">78</text>
</g>
<!-- 24&#45;&gt;78 -->
<g id="edge92" class="edge"><title>24&#45;&gt;78</title>
<path fill="none" stroke="red" d="M482.502,-998.42C489.534,-949.071 509.52,-808.815 518.057,-748.912"/>
<polygon fill="red" stroke="red" points="521.566,-749.096 519.512,-738.702 514.636,-748.108 521.566,-749.096"/>
</g>
<!-- 15&#45;&gt;22 -->
<g id="edge32" class="edge"><title>15&#45;&gt;22</title>
<path fill="none" stroke="red" d="M381.289,-930.225C391.206,-919.75 405.335,-904.826 416.751,-892.768"/>
<polygon fill="red" stroke="red" points="419.456,-895.002 423.789,-885.334 414.372,-890.189 419.456,-895.002"/>
</g>
<!-- 15&#45;&gt;13 -->
<g id="edge8" class="edge"><title>15&#45;&gt;13</title>
<path fill="none" stroke="red" d="M370.51,-925.669C374.935,-883.287 391.097,-773.514 444,-701.855 457.569,-683.476 479.447,-669.298 496.585,-660.188"/>
<polygon fill="red" stroke="red" points="498.196,-663.295 505.535,-655.654 495.033,-657.051 498.196,-663.295"/>
</g>
<!-- 15&#45;&gt;6 -->
<g id="edge91" class="edge"><title>15&#45;&gt;6</title>
<path fill="none" stroke="green" d="M363.169,-926.763C354.189,-899.93 338,-844.891 338,-796.838 338,-796.838 338,-796.838 338,-428.161 338,-289.884 810.671,-116.89 922.492,-77.8991"/>
<polygon fill="green" stroke="green" points="923.856,-81.1308 932.159,-74.5498 921.564,-74.5165 923.856,-81.1308"/>
</g>
<!-- 56&#45;&gt;23 -->
<g id="edge101" class="edge"><title>56&#45;&gt;23</title>
<path fill="none" stroke="red" d="M1211.38,-1362.16C1209.04,-1335.09 1205,-1281.71 1205,-1236.28 1205,-1236.28 1205,-1236.28 1205,-1015.97 1205,-975.317 1198.97,-928.53 1194.56,-899.72"/>
<polygon fill="red" stroke="red" points="1197.98,-898.941 1192.96,-889.609 1191.07,-900.033 1197.98,-898.941"/>
</g>
<!-- 75&#45;&gt;86 -->
<g id="edge86" class="edge"><title>75&#45;&gt;86</title>
<path fill="none" stroke="red" d="M658.755,-1146.51C664.854,-1137.12 672.838,-1124.84 679.759,-1114.19"/>
<polygon fill="red" stroke="red" points="682.743,-1116.02 685.259,-1105.73 676.874,-1112.21 682.743,-1116.02"/>
</g>
<!-- 74&#45;&gt;23 -->
<g id="edge78" class="edge"><title>74&#45;&gt;23</title>
<path fill="none" stroke="red" d="M1239.24,-929.56C1230.46,-919.378 1218.31,-905.275 1208.27,-893.63"/>
<polygon fill="red" stroke="red" points="1210.91,-891.328 1201.73,-886.039 1205.6,-895.899 1210.91,-891.328"/>
</g>
<!-- 74&#45;&gt;11 -->
<g id="edge107" class="edge"><title>74&#45;&gt;11</title>
<path fill="none" stroke="red" d="M1257.49,-926.791C1260.85,-918.306 1265.03,-907.754 1268.8,-898.211"/>
<polygon fill="red" stroke="red" points="1272.12,-899.347 1272.54,-888.76 1265.61,-896.771 1272.12,-899.347"/>
</g>
<!-- 86&#45;&gt;51 -->
<g id="edge87" class="edge"><title>86&#45;&gt;51</title>
<path fill="none" stroke="green" d="M687.77,-1072.63C666.119,-1024.39 601.679,-880.797 575.374,-822.183"/>
<polygon fill="green" stroke="green" points="578.495,-820.588 571.207,-812.898 572.109,-823.454 578.495,-820.588"/>
</g>
<!-- 22&#45;&gt;51 -->
<g id="edge40" class="edge"><title>22&#45;&gt;51</title>
<path fill="none" stroke="red" d="M451.695,-861.411C473.575,-848.831 513.462,-825.896 539.337,-811.019"/>
<polygon fill="red" stroke="red" points="541.252,-813.955 548.176,-805.936 537.763,-807.886 541.252,-813.955"/>
</g>
<!-- 22&#45;&gt;13 -->
<g id="edge44" class="edge"><title>22&#45;&gt;13</title>
<path fill="none" stroke="red" d="M434.949,-852.959C433.798,-820.926 434.965,-751.537 462,-701.855 470.447,-686.332 485.238,-673.093 498.02,-663.683"/>
<polygon fill="red" stroke="red" points="500.252,-666.393 506.446,-657.798 496.243,-660.654 500.252,-666.393"/>
</g>
<!-- 51&#45;&gt;78 -->
<g id="edge62" class="edge"><title>51&#45;&gt;78</title>
<path fill="none" stroke="green" d="M555.298,-779.588C549.666,-769.72 542.213,-756.66 535.786,-745.397"/>
<polygon fill="green" stroke="green" points="538.688,-743.42 530.691,-736.47 532.608,-746.89 538.688,-743.42"/>
</g>
<!-- 51&#45;&gt;13 -->
<g id="edge41" class="edge"><title>51&#45;&gt;13</title>
<path fill="none" stroke="red" d="M562.791,-777.324C561.111,-758.346 557.285,-727.359 549,-701.855 545.795,-691.989 540.981,-681.696 536.302,-672.81"/>
<polygon fill="red" stroke="red" points="539.24,-670.889 531.359,-663.808 533.104,-674.258 539.24,-670.889"/>
</g>
<!-- 78&#45;&gt;13 -->
<g id="edge63" class="edge"><title>78&#45;&gt;13</title>
<path fill="none" stroke="red" d="M522,-701.746C522,-694.064 522,-684.855 522,-676.27"/>
<polygon fill="red" stroke="red" points="525.5,-676.254 522,-666.254 518.5,-676.254 525.5,-676.254"/>
</g>
<!-- 13&#45;&gt;5 -->
<g id="edge70" class="edge"><title>13&#45;&gt;5</title>
<path fill="none" stroke="red" d="M508.027,-635.049C482.29,-612.632 430,-560.058 430,-502.931 430,-502.931 430,-502.931 430,-355.392 430,-228.828 392.281,-79.6166 378.209,-28.357"/>
<polygon fill="red" stroke="red" points="381.507,-27.1518 375.449,-18.4597 374.764,-29.0324 381.507,-27.1518"/>
</g>
<!-- 13&#45;&gt;30 -->
<g id="edge12" class="edge"><title>13&#45;&gt;30</title>
<path fill="none" stroke="green" d="M539.216,-640.19C573.155,-627.809 648.903,-600.177 689.347,-585.423"/>
<polygon fill="green" stroke="green" points="690.627,-588.682 698.822,-581.967 688.228,-582.106 690.627,-588.682"/>
</g>
<!-- 13&#45;&gt;19 -->
<g id="edge42" class="edge"><title>13&#45;&gt;19</title>
<path fill="none" stroke="green" d="M533.705,-632.859C553.391,-608.522 591,-555.189 591,-502.931 591,-502.931 591,-502.931 591,-428.161 591,-342.65 712.169,-303.781 768.195,-290.38"/>
<polygon fill="green" stroke="green" points="769.198,-293.741 778.166,-288.1 767.638,-286.917 769.198,-293.741"/>
</g>
<!-- 13&#45;&gt;6 -->
<g id="edge6" class="edge"><title>13&#45;&gt;6</title>
<path fill="none" stroke="green" d="M540.537,-646.574C581.156,-645.899 679.445,-639.244 743,-593.085 842.512,-520.812 888,-480.381 888,-357.392 888,-357.392 888,-357.392 888,-209.853 888,-163.96 914.928,-115.608 932.088,-89.4542"/>
<polygon fill="green" stroke="green" points="934.988,-91.4141 937.69,-81.1697 929.189,-87.4929 934.988,-91.4141"/>
</g>
<!-- 79 -->
<g id="node51" class="node"><title>79</title>
<ellipse fill="none" stroke="black" cx="384" cy="-501.931" rx="18.2703" ry="18.2703"/>
<text text-anchor="middle" x="384" y="-499.731" font-family="Times New Roman,serif" font-size="9.00">79</text>
</g>
<!-- 13&#45;&gt;79 -->
<g id="edge25" class="edge"><title>13&#45;&gt;79</title>
<path fill="none" stroke="green" d="M504.042,-641.942C480.625,-635.147 439.849,-620.131 416,-593.085 400.522,-575.532 392.388,-549.989 388.203,-530.57"/>
<polygon fill="green" stroke="green" points="391.591,-529.658 386.262,-520.501 384.718,-530.982 391.591,-529.658"/>
</g>
<!-- 23&#45;&gt;80 -->
<g id="edge82" class="edge"><title>23&#45;&gt;80</title>
<path fill="none" stroke="green" d="M1180.69,-855.542C1174.39,-845.467 1165.94,-831.946 1158.74,-820.421"/>
<polygon fill="green" stroke="green" points="1161.56,-818.334 1153.29,-811.709 1155.63,-822.044 1161.56,-818.334"/>
</g>
<!-- 23&#45;&gt;6 -->
<g id="edge24" class="edge"><title>23&#45;&gt;6</title>
<path fill="none" stroke="green" d="M1190,-852.979C1190,-825.123 1190,-768.9 1190,-721.24 1190,-721.24 1190,-721.24 1190,-209.853 1190,-163.597 1174.8,-147.722 1138,-119.698 1087.54,-81.27 1010.3,-72.334 970.938,-70.3445"/>
<polygon fill="green" stroke="green" points="971.024,-66.8453 960.894,-69.9489 970.748,-73.8399 971.024,-66.8453"/>
</g>
<!-- 105 -->
<g id="node45" class="node"><title>105</title>
<ellipse fill="none" stroke="black" cx="1279" cy="-795.838" rx="21.4286" ry="21.4286"/>
<text text-anchor="middle" x="1279" y="-793.638" font-family="Times New Roman,serif" font-size="9.00">105</text>
</g>
<!-- 11&#45;&gt;105 -->
<g id="edge112" class="edge"><title>11&#45;&gt;105</title>
<path fill="none" stroke="green" d="M1279,-852.994C1279,-845.378 1279,-836.217 1279,-827.523"/>
<polygon fill="green" stroke="green" points="1282.5,-827.287 1279,-817.287 1275.5,-827.287 1282.5,-827.287"/>
</g>
<!-- 99 -->
<g id="node40" class="node"><title>99</title>
<ellipse fill="none" stroke="black" cx="670" cy="-501.931" rx="18.2703" ry="18.2703"/>
<text text-anchor="middle" x="670" y="-499.731" font-family="Times New Roman,serif" font-size="9.00">99</text>
</g>
<!-- 30&#45;&gt;99 -->
<g id="edge105" class="edge"><title>30&#45;&gt;99</title>
<path fill="none" stroke="red" d="M706.245,-558.692C700.146,-549.309 692.162,-537.027 685.241,-526.379"/>
<polygon fill="red" stroke="red" points="688.126,-524.395 679.741,-517.918 682.257,-528.21 688.126,-524.395"/>
</g>
<!-- 77 -->
<g id="node41" class="node"><title>77</title>
<ellipse fill="none" stroke="black" cx="708" cy="-429.161" rx="18.2703" ry="18.2703"/>
<text text-anchor="middle" x="708" y="-426.961" font-family="Times New Roman,serif" font-size="9.00">77</text>
</g>
<!-- 30&#45;&gt;77 -->
<g id="edge79" class="edge"><title>30&#45;&gt;77</title>
<path fill="none" stroke="green" d="M715.019,-556.1C713.658,-531.672 711.18,-487.226 709.563,-458.201"/>
<polygon fill="green" stroke="green" points="713.04,-457.696 708.989,-447.906 706.051,-458.085 713.04,-457.696"/>
</g>
<!-- 47 -->
<g id="node42" class="node"><title>47</title>
<ellipse fill="none" stroke="black" cx="750" cy="-356.392" rx="18.2703" ry="18.2703"/>
<text text-anchor="middle" x="750" y="-354.192" font-family="Times New Roman,serif" font-size="9.00">47</text>
</g>
<!-- 30&#45;&gt;47 -->
<g id="edge19" class="edge"><title>30&#45;&gt;47</title>
<path fill="none" stroke="red" d="M719.413,-556.42C721.431,-545.984 723.978,-532.406 726,-520.316 733.924,-472.939 741.784,-417.575 746.251,-385.113"/>
<polygon fill="red" stroke="red" points="749.743,-385.409 747.631,-375.027 742.808,-384.46 749.743,-385.409"/>
</g>
<!-- 30&#45;&gt;19 -->
<g id="edge37" class="edge"><title>30&#45;&gt;19</title>
<path fill="none" stroke="red" d="M725.053,-558.257C730.853,-547.827 738.171,-533.59 743,-520.316 769.556,-447.31 785.43,-356.56 792.177,-311.964"/>
<polygon fill="red" stroke="red" points="795.663,-312.314 793.66,-301.91 788.738,-311.292 795.663,-312.314"/>
</g>
<!-- 99&#45;&gt;77 -->
<g id="edge106" class="edge"><title>99&#45;&gt;77</title>
<path fill="none" stroke="green" d="M678.433,-485.225C683.255,-476.246 689.407,-464.788 694.85,-454.652"/>
<polygon fill="green" stroke="green" points="697.943,-456.29 699.59,-445.824 691.776,-452.978 697.943,-456.29"/>
</g>
<!-- 77&#45;&gt;47 -->
<g id="edge80" class="edge"><title>77&#45;&gt;47</title>
<path fill="none" stroke="red" d="M717.113,-412.806C722.562,-403.625 729.603,-391.761 735.771,-381.368"/>
<polygon fill="red" stroke="red" points="738.811,-383.104 740.904,-372.718 732.791,-379.531 738.811,-383.104"/>
</g>
<!-- 47&#45;&gt;19 -->
<g id="edge20" class="edge"><title>47&#45;&gt;19</title>
<path fill="none" stroke="red" d="M759.755,-340.384C765.854,-331.001 773.838,-318.719 780.759,-308.07"/>
<polygon fill="red" stroke="red" points="783.743,-309.901 786.259,-299.609 777.874,-306.086 783.743,-309.901"/>
</g>
<!-- 19&#45;&gt;21 -->
<g id="edge30" class="edge"><title>19&#45;&gt;21</title>
<path fill="none" stroke="red" d="M812.338,-274.914C838.374,-262.63 889.486,-238.516 920.409,-223.927"/>
<polygon fill="red" stroke="red" points="922.131,-226.984 929.682,-219.552 919.145,-220.653 922.131,-226.984"/>
</g>
<!-- 19&#45;&gt;6 -->
<g id="edge11" class="edge"><title>19&#45;&gt;6</title>
<path fill="none" stroke="green" d="M800.864,-265.757C810.596,-234.255 834.942,-165.522 874,-119.698 887.966,-103.313 908.512,-89.8022 924.085,-80.9991"/>
<polygon fill="green" stroke="green" points="925.916,-83.9882 933.036,-76.1428 922.577,-77.8355 925.916,-83.9882"/>
</g>
<!-- 92 -->
<g id="node50" class="node"><title>92</title>
<ellipse fill="none" stroke="black" cx="462" cy="-210.853" rx="18.2703" ry="18.2703"/>
<text text-anchor="middle" x="462" y="-208.653" font-family="Times New Roman,serif" font-size="9.00">92</text>
</g>
<!-- 19&#45;&gt;92 -->
<g id="edge68" class="edge"><title>19&#45;&gt;92</title>
<path fill="none" stroke="red" d="M778.043,-278.817C723.108,-267.178 557.004,-231.983 490.237,-217.836"/>
<polygon fill="red" stroke="red" points="490.554,-214.325 480.046,-215.677 489.103,-221.173 490.554,-214.325"/>
</g>
<!-- 80&#45;&gt;6 -->
<g id="edge83" class="edge"><title>80&#45;&gt;6</title>
<path fill="none" stroke="red" d="M1143.21,-777.268C1142.04,-749.795 1140,-694.99 1140,-648.47 1140,-648.47 1140,-648.47 1140,-209.853 1140,-167.896 1141.81,-149.226 1112,-119.698 1073.64,-81.6987 1007.5,-72.4782 971.369,-70.3619"/>
<polygon fill="red" stroke="red" points="971.329,-66.8567 961.184,-69.9092 971.018,-73.8498 971.329,-66.8567"/>
</g>
<!-- 105&#45;&gt;7 -->
<g id="edge113" class="edge"><title>105&#45;&gt;7</title>
<path fill="none" stroke="red" d="M1277.89,-774.337C1277.4,-765.41 1276.83,-754.88 1276.32,-745.561"/>
<polygon fill="red" stroke="red" points="1279.8,-745.141 1275.77,-735.346 1272.81,-745.521 1279.8,-745.141"/>
</g>
<!-- 43 -->
<g id="node47" class="node"><title>43</title>
<ellipse fill="none" stroke="black" cx="946" cy="-138.083" rx="18.2703" ry="18.2703"/>
<text text-anchor="middle" x="946" y="-135.883" font-family="Times New Roman,serif" font-size="9.00">43</text>
</g>
<!-- 21&#45;&gt;43 -->
<g id="edge108" class="edge"><title>21&#45;&gt;43</title>
<path fill="none" stroke="red" d="M946,-192.359C946,-184.677 946,-175.468 946,-166.884"/>
<polygon fill="red" stroke="red" points="949.5,-166.867 946,-156.867 942.5,-166.867 949.5,-166.867"/>
</g>
<!-- 43&#45;&gt;6 -->
<g id="edge109" class="edge"><title>43&#45;&gt;6</title>
<path fill="none" stroke="green" d="M946,-119.418C946,-111.735 946,-102.605 946,-94.2874"/>
<polygon fill="green" stroke="green" points="949.5,-94.0103 946,-84.0103 942.5,-94.0103 949.5,-94.0103"/>
</g>
<!-- 6&#45;&gt;5 -->
<g id="edge4" class="edge"><title>6&#45;&gt;5</title>
<path fill="none" stroke="red" d="M931.26,-66.3611C852.899,-58.4499 485.305,-21.3382 393.712,-12.091"/>
<polygon fill="red" stroke="red" points="394.033,-8.60578 383.732,-11.0835 393.33,-15.5704 394.033,-8.60578"/>
</g>
<!-- 7&#45;&gt;5 -->
<g id="edge15" class="edge"><title>7&#45;&gt;5</title>
<path fill="none" stroke="green" d="M1274.2,-705.389C1272.78,-679.788 1270,-623.327 1270,-575.701 1270,-575.701 1270,-575.701 1270,-137.083 1270,-98.1168 1273.06,-77.525 1242,-54 1207.08,-27.5524 521.763,-12.9046 393.563,-10.3904"/>
<polygon fill="green" stroke="green" points="393.577,-6.89007 383.511,-10.1959 393.442,-13.8888 393.577,-6.89007"/>
</g>
<!-- 92&#45;&gt;91 -->
<g id="edge69" class="edge"><title>92&#45;&gt;91</title>
<path fill="none" stroke="red" d="M456.312,-193.081C453.503,-184.797 450.048,-174.609 446.899,-165.323"/>
<polygon fill="red" stroke="red" points="450.173,-164.08 443.647,-155.734 443.544,-166.329 450.173,-164.08"/>
</g>
<!-- 79&#45;&gt;5 -->
<g id="edge26" class="edge"><title>79&#45;&gt;5</title>
<path fill="none" stroke="green" d="M380.958,-483.727C373.331,-439.038 354,-315.541 354,-211.853 354,-211.853 354,-211.853 354,-137.083 354,-97.9889 362.904,-52.8658 368.521,-28.2882"/>
<polygon fill="green" stroke="green" points="371.996,-28.7999 370.894,-18.2626 365.185,-27.1875 371.996,-28.7999"/>
</g>
<!-- 91&#45;&gt;5 -->
<g id="edge67" class="edge"><title>91&#45;&gt;5</title>
<path fill="none" stroke="green" d="M433.03,-120.246C427.602,-103.021 418.052,-75.7726 406,-54 400.566,-44.184 393.169,-34.1094 386.754,-26.0816"/>
<polygon fill="green" stroke="green" points="389.384,-23.7689 380.32,-18.2829 383.984,-28.2238 389.384,-23.7689"/>
</g>
</g>
</svg>
