<?xml version="1.0" encoding="UTF-8" standalone="no"?>
<!DOCTYPE svg PUBLIC "-//W3C//DTD SVG 1.1//EN"
 "http://www.w3.org/Graphics/SVG/1.1/DTD/svg11.dtd">
<!-- Generated by graphviz version 2.38.0 (20140413.2041)
 -->
<!-- Title: %3 Pages: 1 -->
<svg width="1441pt" height="1825pt"
 viewBox="0.00 0.00 1441.00 1825.06" xmlns="http://www.w3.org/2000/svg" xmlns:xlink="http://www.w3.org/1999/xlink">
<g id="graph0" class="graph" transform="scale(1 1) rotate(0) translate(4 1821.06)">
<title>%3</title>
<polygon fill="white" stroke="none" points="-4,4 -4,-1821.06 1437,-1821.06 1437,4 -4,4"/>
<!-- 1 -->
<g id="node1" class="node"><title>1</title>
<polygon fill="lightgray" stroke="black" points="272.5,-1817.06 251.5,-1817.06 251.5,-1799.06 272.5,-1799.06 272.5,-1817.06"/>
<text text-anchor="middle" x="262" y="-1805.86" font-family="Times New Roman,serif" font-size="9.00">1</text>
</g>
<!-- 5 -->
<g id="node5" class="node"><title>5</title>
<polygon fill="lightblue" stroke="black" points="493.5,-18 472.5,-18 472.5,-0 493.5,-0 493.5,-18"/>
<text text-anchor="middle" x="483" y="-6.8" font-family="Times New Roman,serif" font-size="9.00">5</text>
</g>
<!-- 1&#45;&gt;5 -->
<g id="edge1" class="edge"><title>1&#45;&gt;5</title>
<path fill="none" stroke="red" d="M251.405,-1806.69C202.389,-1804.38 0,-1787.88 0,-1672.9 0,-1672.9 0,-1672.9 0,-137.083 0,-81.6579 42.4085,-76.6378 93,-54 160.016,-24.0127 390.573,-13.3323 461.84,-10.7036"/>
<polygon fill="red" stroke="red" points="462.336,-14.1884 472.206,-10.3375 462.088,-7.19276 462.336,-14.1884"/>
</g>
<!-- 37 -->
<g id="node6" class="node"><title>37</title>
<ellipse fill="none" stroke="black" cx="1319" cy="-647.47" rx="18.2703" ry="18.2703"/>
<text text-anchor="middle" x="1319" y="-645.27" font-family="Times New Roman,serif" font-size="9.00">37</text>
</g>
<!-- 1&#45;&gt;37 -->
<g id="edge13" class="edge"><title>1&#45;&gt;37</title>
<path fill="none" stroke="red" d="M272.838,-1806.92C386.561,-1805.32 1357,-1788.29 1357,-1672.9 1357,-1672.9 1357,-1672.9 1357,-794.838 1357,-751.391 1341.12,-702.951 1329.89,-674.129"/>
<polygon fill="red" stroke="red" points="1333.12,-672.772 1326.15,-664.793 1326.62,-675.377 1333.12,-672.772"/>
</g>
<!-- 31 -->
<g id="node7" class="node"><title>31</title>
<ellipse fill="none" stroke="black" cx="93" cy="-1744.67" rx="18.2703" ry="18.2703"/>
<text text-anchor="middle" x="93" y="-1742.47" font-family="Times New Roman,serif" font-size="9.00">31</text>
</g>
<!-- 1&#45;&gt;31 -->
<g id="edge21" class="edge"><title>1&#45;&gt;31</title>
<path fill="none" stroke="green" d="M251.218,-1803.2C229.936,-1795.58 181.03,-1778.04 140,-1763.06 133.302,-1760.61 126.074,-1757.95 119.343,-1755.46"/>
<polygon fill="green" stroke="green" points="120.549,-1752.17 109.956,-1751.98 118.118,-1758.74 120.549,-1752.17"/>
</g>
<!-- 65 -->
<g id="node9" class="node"><title>65</title>
<ellipse fill="none" stroke="black" cx="314" cy="-1235.28" rx="18.2703" ry="18.2703"/>
<text text-anchor="middle" x="314" y="-1233.08" font-family="Times New Roman,serif" font-size="9.00">65</text>
</g>
<!-- 1&#45;&gt;65 -->
<g id="edge56" class="edge"><title>1&#45;&gt;65</title>
<path fill="none" stroke="red" d="M254.241,-1799.04C236.016,-1779.34 192,-1726.23 192,-1672.9 192,-1672.9 192,-1672.9 192,-1525.36 192,-1418.41 263.767,-1305.46 297.213,-1258.64"/>
<polygon fill="red" stroke="red" points="300.132,-1260.57 303.173,-1250.42 294.467,-1256.46 300.132,-1260.57"/>
</g>
<!-- 20 -->
<g id="node11" class="node"><title>20</title>
<ellipse fill="none" stroke="black" cx="436" cy="-1671.9" rx="18.2703" ry="18.2703"/>
<text text-anchor="middle" x="436" y="-1669.7" font-family="Times New Roman,serif" font-size="9.00">20</text>
</g>
<!-- 1&#45;&gt;20 -->
<g id="edge29" class="edge"><title>1&#45;&gt;20</title>
<path fill="none" stroke="green" d="M272.623,-1798.87C300.356,-1777.48 375.419,-1719.61 413.374,-1690.35"/>
<polygon fill="green" stroke="green" points="415.961,-1692.77 421.744,-1683.89 411.687,-1687.23 415.961,-1692.77"/>
</g>
<!-- 15 -->
<g id="node29" class="node"><title>15</title>
<ellipse fill="none" stroke="black" cx="388" cy="-944.205" rx="18.2703" ry="18.2703"/>
<text text-anchor="middle" x="388" y="-942.005" font-family="Times New Roman,serif" font-size="9.00">15</text>
</g>
<!-- 1&#45;&gt;15 -->
<g id="edge7" class="edge"><title>1&#45;&gt;15</title>
<path fill="none" stroke="green" d="M251.25,-1800.75C223.932,-1783.83 154,-1734.5 154,-1672.9 154,-1672.9 154,-1672.9 154,-1307.05 154,-1199.49 157.319,-1165.7 209,-1071.36 242.581,-1010.06 320.244,-971.744 361.357,-955.013"/>
<polygon fill="green" stroke="green" points="362.717,-958.239 370.736,-951.314 360.149,-951.727 362.717,-958.239"/>
</g>
<!-- 99 -->
<g id="node41" class="node"><title>99</title>
<ellipse fill="none" stroke="black" cx="977" cy="-501.931" rx="18.2703" ry="18.2703"/>
<text text-anchor="middle" x="977" y="-499.731" font-family="Times New Roman,serif" font-size="9.00">99</text>
</g>
<!-- 1&#45;&gt;99 -->
<g id="edge112" class="edge"><title>1&#45;&gt;99</title>
<path fill="none" stroke="red" d="M272.673,-1806.33C364.439,-1799.99 1017,-1752.11 1017,-1672.9 1017,-1672.9 1017,-1672.9 1017,-1015.97 1017,-917.672 987,-895.14 987,-796.838 987,-796.838 987,-796.838 987,-646.47 987,-606.156 983.026,-559.627 980.088,-530.739"/>
<polygon fill="red" stroke="red" points="983.547,-530.162 979.024,-520.582 976.585,-530.892 983.547,-530.162"/>
</g>
<!-- 6 -->
<g id="node49" class="node"><title>6</title>
<ellipse fill="none" stroke="black" cx="783" cy="-68.8492" rx="14.7" ry="14.7"/>
<text text-anchor="middle" x="783" y="-66.6492" font-family="Times New Roman,serif" font-size="9.00">6</text>
</g>
<!-- 1&#45;&gt;6 -->
<g id="edge9" class="edge"><title>1&#45;&gt;6</title>
<path fill="none" stroke="red" d="M272.636,-1807.01C363.036,-1806.52 1003.78,-1801.72 1192,-1763.06 1304.02,-1740.04 1433,-1787.26 1433,-1672.9 1433,-1672.9 1433,-1672.9 1433,-428.161 1433,-243.605 1318.25,-205.781 1155,-119.698 1094.28,-87.6818 881.546,-74.6005 808.134,-70.9726"/>
<polygon fill="red" stroke="red" points="808.125,-67.4682 797.969,-70.4873 807.791,-74.4603 808.125,-67.4682"/>
</g>
<!-- 2 -->
<g id="node2" class="node"><title>2</title>
<polygon fill="lightgray" stroke="black" points="1328.5,-804.838 1307.5,-804.838 1307.5,-786.838 1328.5,-786.838 1328.5,-804.838"/>
<text text-anchor="middle" x="1318" y="-793.638" font-family="Times New Roman,serif" font-size="9.00">2</text>
</g>
<!-- 2&#45;&gt;5 -->
<g id="edge2" class="edge"><title>2&#45;&gt;5</title>
<path fill="none" stroke="red" d="M1313.22,-786.573C1301.08,-764.766 1270,-703.56 1270,-648.47 1270,-648.47 1270,-648.47 1270,-137.083 1270,-104.227 1446.83,-137.093 1045,-54 837.58,-11.1086 579.205,-9.2911 504.272,-9.75431"/>
<polygon fill="red" stroke="red" points="503.827,-6.25785 493.856,-9.84229 503.886,-13.2576 503.827,-6.25785"/>
</g>
<!-- 7 -->
<g id="node50" class="node"><title>7</title>
<ellipse fill="none" stroke="black" cx="1227" cy="-720.24" rx="14.7" ry="14.7"/>
<text text-anchor="middle" x="1227" y="-718.04" font-family="Times New Roman,serif" font-size="9.00">7</text>
</g>
<!-- 2&#45;&gt;7 -->
<g id="edge17" class="edge"><title>2&#45;&gt;7</title>
<path fill="none" stroke="green" d="M1307.91,-786.68C1293.07,-774.672 1265.05,-752.014 1246.2,-736.77"/>
<polygon fill="green" stroke="green" points="1248.24,-733.92 1238.27,-730.353 1243.84,-739.363 1248.24,-733.92"/>
</g>
<!-- 3 -->
<g id="node3" class="node"><title>3</title>
<polygon fill="lightgray" stroke="black" points="239.5,-1098.74 218.5,-1098.74 218.5,-1080.74 239.5,-1080.74 239.5,-1098.74"/>
<text text-anchor="middle" x="229" y="-1087.54" font-family="Times New Roman,serif" font-size="9.00">3</text>
</g>
<!-- 3&#45;&gt;5 -->
<g id="edge3" class="edge"><title>3&#45;&gt;5</title>
<path fill="none" stroke="green" d="M225.118,-1080.54C215.253,-1058.93 190,-998.401 190,-945.205 190,-945.205 190,-945.205 190,-719.24 190,-526.074 188,-477.788 188,-284.622 188,-284.622 188,-284.622 188,-137.083 188,-17.6821 394.362,-9.11167 461.892,-9.50364"/>
<polygon fill="green" stroke="green" points="462.105,-13.0067 472.151,-9.64193 462.199,-6.00737 462.105,-13.0067"/>
</g>
<!-- 58 -->
<g id="node12" class="node"><title>58</title>
<ellipse fill="none" stroke="black" cx="350" cy="-1016.97" rx="18.2703" ry="18.2703"/>
<text text-anchor="middle" x="350" y="-1014.77" font-family="Times New Roman,serif" font-size="9.00">58</text>
</g>
<!-- 3&#45;&gt;58 -->
<g id="edge99" class="edge"><title>3&#45;&gt;58</title>
<path fill="none" stroke="green" d="M239.548,-1081.06C243.949,-1077.95 249.155,-1074.38 254,-1071.36 260.702,-1067.18 298.928,-1046.06 325.074,-1031.67"/>
<polygon fill="green" stroke="green" points="327.004,-1034.6 334.08,-1026.71 323.631,-1028.47 327.004,-1034.6"/>
</g>
<!-- 24 -->
<g id="node28" class="node"><title>24</title>
<ellipse fill="none" stroke="black" cx="480" cy="-1016.97" rx="18.2703" ry="18.2703"/>
<text text-anchor="middle" x="480" y="-1014.77" font-family="Times New Roman,serif" font-size="9.00">24</text>
</g>
<!-- 3&#45;&gt;24 -->
<g id="edge36" class="edge"><title>3&#45;&gt;24</title>
<path fill="none" stroke="green" d="M239.785,-1085.7C276.545,-1075.34 397.683,-1041.18 452.557,-1025.71"/>
<polygon fill="green" stroke="green" points="453.625,-1029.05 462.3,-1022.97 451.726,-1022.31 453.625,-1029.05"/>
</g>
<!-- 3&#45;&gt;15 -->
<g id="edge39" class="edge"><title>3&#45;&gt;15</title>
<path fill="none" stroke="green" d="M237.098,-1080.57C253.128,-1064.47 290.196,-1027.71 323,-998.59 336.974,-986.183 353.22,-972.84 365.974,-962.598"/>
<polygon fill="green" stroke="green" points="368.161,-965.33 373.792,-956.355 363.794,-959.86 368.161,-965.33"/>
</g>
<!-- 3&#45;&gt;6 -->
<g id="edge5" class="edge"><title>3&#45;&gt;6</title>
<path fill="none" stroke="red" d="M230.261,-1080.51C238.114,-1028.46 280,-739.776 280,-502.931 280,-502.931 280,-502.931 280,-209.853 280,-109.486 656.386,-77.9982 757.985,-71.3269"/>
<polygon fill="red" stroke="red" points="758.46,-74.8039 768.219,-70.6789 758.017,-67.8179 758.46,-74.8039"/>
</g>
<!-- 4 -->
<g id="node4" class="node"><title>4</title>
<polygon fill="lightgray" stroke="black" points="1193.5,-1608.13 1172.5,-1608.13 1172.5,-1590.13 1193.5,-1590.13 1193.5,-1608.13"/>
<text text-anchor="middle" x="1183" y="-1596.93" font-family="Times New Roman,serif" font-size="9.00">4</text>
</g>
<!-- 4&#45;&gt;5 -->
<g id="edge27" class="edge"><title>4&#45;&gt;5</title>
<path fill="none" stroke="green" d="M1193.67,-1593.32C1225.73,-1578.05 1319,-1527.37 1319,-1454.59 1319,-1454.59 1319,-1454.59 1319,-1088.74 1319,-986.846 1395,-974.334 1395,-872.436 1395,-872.436 1395,-872.436 1395,-137.083 1395,-84.8883 1359.67,-75.2574 1312,-54 1236.13,-20.166 624.484,-11.5859 503.681,-10.2148"/>
<polygon fill="green" stroke="green" points="503.595,-6.71373 493.557,-10.104 503.518,-13.7133 503.595,-6.71373"/>
</g>
<!-- 48 -->
<g id="node8" class="node"><title>48</title>
<ellipse fill="none" stroke="black" cx="933" cy="-1526.36" rx="18.2703" ry="18.2703"/>
<text text-anchor="middle" x="933" y="-1524.16" font-family="Times New Roman,serif" font-size="9.00">48</text>
</g>
<!-- 4&#45;&gt;48 -->
<g id="edge35" class="edge"><title>4&#45;&gt;48</title>
<path fill="none" stroke="red" d="M1172.26,-1595.09C1135.64,-1584.73 1014.99,-1550.57 960.334,-1535.1"/>
<polygon fill="red" stroke="red" points="961.205,-1531.71 950.629,-1532.35 959.298,-1538.44 961.205,-1531.71"/>
</g>
<!-- 4&#45;&gt;24 -->
<g id="edge43" class="edge"><title>4&#45;&gt;24</title>
<path fill="none" stroke="green" d="M1172.28,-1598.17C1106.74,-1598.23 760.047,-1596.07 670,-1544.75 511.327,-1454.31 498.725,-1362.47 479,-1180.9 473.867,-1133.65 475.902,-1078.25 477.908,-1045.74"/>
<polygon fill="green" stroke="green" points="481.408,-1045.85 478.576,-1035.64 474.423,-1045.39 481.408,-1045.85"/>
</g>
<!-- 56 -->
<g id="node30" class="node"><title>56</title>
<ellipse fill="none" stroke="black" cx="1063" cy="-944.205" rx="18.2703" ry="18.2703"/>
<text text-anchor="middle" x="1063" y="-942.005" font-family="Times New Roman,serif" font-size="9.00">56</text>
</g>
<!-- 4&#45;&gt;56 -->
<g id="edge97" class="edge"><title>4&#45;&gt;56</title>
<path fill="none" stroke="green" d="M1173.14,-1589.88C1149.96,-1569.5 1094,-1514.11 1094,-1454.59 1094,-1454.59 1094,-1454.59 1094,-1088.74 1094,-1046.97 1081.3,-999.856 1072.15,-971.361"/>
<polygon fill="green" stroke="green" points="1075.44,-970.145 1068.98,-961.749 1068.79,-972.342 1075.44,-970.145"/>
</g>
<!-- 23 -->
<g id="node38" class="node"><title>23</title>
<ellipse fill="none" stroke="black" cx="1118" cy="-871.436" rx="18.2703" ry="18.2703"/>
<text text-anchor="middle" x="1118" y="-869.236" font-family="Times New Roman,serif" font-size="9.00">23</text>
</g>
<!-- 4&#45;&gt;23 -->
<g id="edge23" class="edge"><title>4&#45;&gt;23</title>
<path fill="none" stroke="red" d="M1181.18,-1590.09C1176.42,-1568.36 1164,-1506.63 1164,-1454.59 1164,-1454.59 1164,-1454.59 1164,-1015.97 1164,-975.026 1158.58,-964.453 1145,-925.82 1141.56,-916.034 1136.7,-905.758 1132.04,-896.864"/>
<polygon fill="red" stroke="red" points="1134.99,-894.967 1127.15,-887.845 1128.84,-898.304 1134.99,-894.967"/>
</g>
<!-- 11 -->
<g id="node39" class="node"><title>11</title>
<ellipse fill="none" stroke="black" cx="1230" cy="-871.436" rx="18.2703" ry="18.2703"/>
<text text-anchor="middle" x="1230" y="-869.236" font-family="Times New Roman,serif" font-size="9.00">11</text>
</g>
<!-- 4&#45;&gt;11 -->
<g id="edge84" class="edge"><title>4&#45;&gt;11</title>
<path fill="none" stroke="red" d="M1189.19,-1589.86C1196.52,-1579.72 1208.67,-1561.76 1216,-1544.75 1232.41,-1506.67 1240,-1496.06 1240,-1454.59 1240,-1454.59 1240,-1454.59 1240,-1015.97 1240,-975.661 1236.03,-929.131 1233.09,-900.244"/>
<polygon fill="red" stroke="red" points="1236.55,-899.667 1232.02,-890.086 1229.59,-900.397 1236.55,-899.667"/>
</g>
<!-- 4&#45;&gt;6 -->
<g id="edge28" class="edge"><title>4&#45;&gt;6</title>
<path fill="none" stroke="red" d="M1184.82,-1590.09C1189.58,-1568.36 1202,-1506.63 1202,-1454.59 1202,-1454.59 1202,-1454.59 1202,-1015.97 1202,-884.649 1181,-852.565 1181,-721.24 1181,-721.24 1181,-721.24 1181,-209.853 1181,-160.714 1158.87,-145.416 1117,-119.698 1090.63,-103.5 880.518,-80.1081 807.724,-72.4107"/>
<polygon fill="red" stroke="red" points="807.953,-68.9156 797.642,-71.3524 807.222,-75.8773 807.953,-68.9156"/>
</g>
<!-- 4&#45;&gt;7 -->
<g id="edge14" class="edge"><title>4&#45;&gt;7</title>
<path fill="none" stroke="red" d="M1193.64,-1590.05C1218.64,-1570.05 1279,-1515.45 1279,-1454.59 1279,-1454.59 1279,-1454.59 1279,-870.436 1279,-827.024 1275.89,-815.024 1260,-774.624 1255.35,-762.791 1248.08,-750.652 1241.54,-740.946"/>
<polygon fill="red" stroke="red" points="1244.22,-738.661 1235.62,-732.474 1238.48,-742.674 1244.22,-738.661"/>
</g>
<!-- 37&#45;&gt;5 -->
<g id="edge101" class="edge"><title>37&#45;&gt;5</title>
<path fill="none" stroke="green" d="M1319,-628.792C1319,-601.701 1319,-548.285 1319,-502.931 1319,-502.931 1319,-502.931 1319,-282.622 1319,-179.829 1360.13,-123.075 1284,-54 1254.24,-26.9992 627.052,-12.9199 503.884,-10.4101"/>
<polygon fill="green" stroke="green" points="503.644,-6.90465 493.575,-10.2033 503.503,-13.9032 503.644,-6.90465"/>
</g>
<!-- 30 -->
<g id="node40" class="node"><title>30</title>
<ellipse fill="none" stroke="black" cx="941" cy="-574.701" rx="18.2703" ry="18.2703"/>
<text text-anchor="middle" x="941" y="-572.501" font-family="Times New Roman,serif" font-size="9.00">30</text>
</g>
<!-- 37&#45;&gt;30 -->
<g id="edge16" class="edge"><title>37&#45;&gt;30</title>
<path fill="none" stroke="red" d="M1301.02,-643.104C1240.33,-631.742 1042.71,-594.742 969.028,-580.948"/>
<polygon fill="red" stroke="red" points="969.561,-577.487 959.087,-579.087 968.273,-584.367 969.561,-577.487"/>
</g>
<!-- 31&#45;&gt;20 -->
<g id="edge22" class="edge"><title>31&#45;&gt;20</title>
<path fill="none" stroke="red" d="M110.958,-1739.97C167.089,-1728.38 339.545,-1692.8 407.783,-1678.72"/>
<polygon fill="red" stroke="red" points="408.719,-1682.1 417.806,-1676.65 407.305,-1675.25 408.719,-1682.1"/>
</g>
<!-- 31&#45;&gt;6 -->
<g id="edge70" class="edge"><title>31&#45;&gt;6</title>
<path fill="none" stroke="red" d="M90.0365,-1726.5C85.665,-1699.63 78,-1645.98 78,-1600.13 78,-1600.13 78,-1600.13 78,-1307.05 78,-1111.11 152,-1068.38 152,-872.436 152,-872.436 152,-872.436 152,-794.838 152,-775.745 468.75,-205.174 483,-192.468 567.058,-117.519 703.065,-84.8116 758.401,-74.1087"/>
<polygon fill="red" stroke="red" points="759.164,-77.527 768.354,-72.2555 757.882,-70.6453 759.164,-77.527"/>
</g>
<!-- 91 -->
<g id="node53" class="node"><title>91</title>
<ellipse fill="none" stroke="black" cx="234" cy="-138.083" rx="18.2703" ry="18.2703"/>
<text text-anchor="middle" x="234" y="-135.883" font-family="Times New Roman,serif" font-size="9.00">91</text>
</g>
<!-- 31&#45;&gt;91 -->
<g id="edge93" class="edge"><title>31&#45;&gt;91</title>
<path fill="none" stroke="green" d="M83.1671,-1728.88C67.3472,-1703.62 38,-1650.04 38,-1600.13 38,-1600.13 38,-1600.13 38,-355.392 38,-254.967 155.445,-180.403 208.51,-151.838"/>
<polygon fill="green" stroke="green" points="210.405,-154.796 217.626,-147.044 207.146,-148.601 210.405,-154.796"/>
</g>
<!-- 53 -->
<g id="node10" class="node"><title>53</title>
<ellipse fill="none" stroke="black" cx="781" cy="-1453.59" rx="18.2703" ry="18.2703"/>
<text text-anchor="middle" x="781" y="-1451.39" font-family="Times New Roman,serif" font-size="9.00">53</text>
</g>
<!-- 48&#45;&gt;53 -->
<g id="edge38" class="edge"><title>48&#45;&gt;53</title>
<path fill="none" stroke="red" d="M916.733,-1517.79C890.473,-1505.56 838.508,-1481.37 807.046,-1466.72"/>
<polygon fill="red" stroke="red" points="808.153,-1463.37 797.61,-1462.33 805.199,-1469.72 808.153,-1463.37"/>
</g>
<!-- 52 -->
<g id="node18" class="node"><title>52</title>
<ellipse fill="none" stroke="black" cx="751" cy="-1235.28" rx="18.2703" ry="18.2703"/>
<text text-anchor="middle" x="751" y="-1233.08" font-family="Times New Roman,serif" font-size="9.00">52</text>
</g>
<!-- 48&#45;&gt;52 -->
<g id="edge49" class="edge"><title>48&#45;&gt;52</title>
<path fill="none" stroke="green" d="M918.499,-1514.64C895.331,-1497.56 848.454,-1463.27 808,-1435.21 784.299,-1418.77 767.844,-1424.51 754,-1399.21 730.599,-1356.43 737.347,-1297.41 744.255,-1263.4"/>
<polygon fill="green" stroke="green" points="747.749,-1263.81 746.466,-1253.29 740.911,-1262.31 747.749,-1263.81"/>
</g>
<!-- 80 -->
<g id="node45" class="node"><title>80</title>
<ellipse fill="none" stroke="black" cx="1097" cy="-795.838" rx="18.2703" ry="18.2703"/>
<text text-anchor="middle" x="1097" y="-793.638" font-family="Times New Roman,serif" font-size="9.00">80</text>
</g>
<!-- 48&#45;&gt;80 -->
<g id="edge96" class="edge"><title>48&#45;&gt;80</title>
<path fill="none" stroke="green" d="M934.619,-1507.7C936.957,-1480.63 941,-1427.25 941,-1381.82 941,-1381.82 941,-1381.82 941,-1015.97 941,-925.318 1030.7,-846.142 1074.07,-813.166"/>
<polygon fill="green" stroke="green" points="1076.39,-815.798 1082.32,-807.019 1072.21,-810.183 1076.39,-815.798"/>
</g>
<!-- 69 -->
<g id="node20" class="node"><title>69</title>
<ellipse fill="none" stroke="black" cx="314" cy="-1162.51" rx="18.2703" ry="18.2703"/>
<text text-anchor="middle" x="314" y="-1160.31" font-family="Times New Roman,serif" font-size="9.00">69</text>
</g>
<!-- 65&#45;&gt;69 -->
<g id="edge71" class="edge"><title>65&#45;&gt;69</title>
<path fill="none" stroke="green" d="M314,-1216.79C314,-1209.11 314,-1199.9 314,-1191.31"/>
<polygon fill="green" stroke="green" points="317.5,-1191.3 314,-1181.3 310.5,-1191.3 317.5,-1191.3"/>
</g>
<!-- 65&#45;&gt;24 -->
<g id="edge57" class="edge"><title>65&#45;&gt;24</title>
<path fill="none" stroke="red" d="M322.682,-1218.59C339.699,-1188.49 379.502,-1121.2 422,-1071.36 432.861,-1058.62 446.584,-1045.87 457.954,-1036.02"/>
<polygon fill="red" stroke="red" points="460.386,-1038.55 465.744,-1029.41 455.855,-1033.22 460.386,-1038.55"/>
</g>
<!-- 75 -->
<g id="node31" class="node"><title>75</title>
<ellipse fill="none" stroke="black" cx="650" cy="-1162.51" rx="18.2703" ry="18.2703"/>
<text text-anchor="middle" x="650" y="-1160.31" font-family="Times New Roman,serif" font-size="9.00">75</text>
</g>
<!-- 65&#45;&gt;75 -->
<g id="edge88" class="edge"><title>65&#45;&gt;75</title>
<path fill="none" stroke="red" d="M332.166,-1231.14C375.897,-1223.47 490.407,-1202.84 585,-1180.9 597.371,-1178.03 610.958,-1174.46 622.497,-1171.31"/>
<polygon fill="red" stroke="red" points="623.721,-1174.6 632.424,-1168.56 621.852,-1167.85 623.721,-1174.6"/>
</g>
<!-- 22 -->
<g id="node34" class="node"><title>22</title>
<ellipse fill="none" stroke="black" cx="478" cy="-871.436" rx="18.2703" ry="18.2703"/>
<text text-anchor="middle" x="478" y="-869.236" font-family="Times New Roman,serif" font-size="9.00">22</text>
</g>
<!-- 65&#45;&gt;22 -->
<g id="edge58" class="edge"><title>65&#45;&gt;22</title>
<path fill="none" stroke="green" d="M304.198,-1219.6C297.911,-1209.26 290.325,-1194.84 287,-1180.9 283.209,-1165 283.106,-1160 287,-1144.13 295.695,-1108.69 298.182,-1096.1 325,-1071.36 355.156,-1043.54 381.066,-1064.45 410,-1035.36 447.71,-997.452 465.603,-935.55 473.175,-899.959"/>
<polygon fill="green" stroke="green" points="476.675,-900.307 475.205,-889.814 469.811,-898.934 476.675,-900.307"/>
</g>
<!-- 64 -->
<g id="node14" class="node"><title>64</title>
<ellipse fill="none" stroke="black" cx="781" cy="-1380.82" rx="18.2703" ry="18.2703"/>
<text text-anchor="middle" x="781" y="-1378.62" font-family="Times New Roman,serif" font-size="9.00">64</text>
</g>
<!-- 53&#45;&gt;64 -->
<g id="edge54" class="edge"><title>53&#45;&gt;64</title>
<path fill="none" stroke="red" d="M781,-1435.1C781,-1427.42 781,-1418.21 781,-1409.62"/>
<polygon fill="red" stroke="red" points="784.5,-1409.61 781,-1399.61 777.5,-1409.61 784.5,-1409.61"/>
</g>
<!-- 54 -->
<g id="node19" class="node"><title>54</title>
<ellipse fill="none" stroke="black" cx="641" cy="-1380.82" rx="18.2703" ry="18.2703"/>
<text text-anchor="middle" x="641" y="-1378.62" font-family="Times New Roman,serif" font-size="9.00">54</text>
</g>
<!-- 53&#45;&gt;54 -->
<g id="edge65" class="edge"><title>53&#45;&gt;54</title>
<path fill="none" stroke="red" d="M764.94,-1444.47C740.807,-1432.27 694.968,-1409.1 666.308,-1394.62"/>
<polygon fill="red" stroke="red" points="667.807,-1391.45 657.304,-1390.06 664.649,-1397.7 667.807,-1391.45"/>
</g>
<!-- 20&#45;&gt;5 -->
<g id="edge18" class="edge"><title>20&#45;&gt;5</title>
<path fill="none" stroke="green" d="M419.376,-1663.63C400.214,-1654.7 368.479,-1638.16 346,-1617.52 316.722,-1590.63 314.806,-1578.62 294,-1544.75 206.368,-1402.09 76,-1168.05 76,-1090.74 76,-1090.74 76,-1090.74 76,-137.083 76,-90.472 99.5731,-77.2007 140,-54 195.507,-22.1446 396.456,-12.831 462.097,-10.6072"/>
<polygon fill="green" stroke="green" points="462.513,-14.0958 472.397,-10.2799 462.291,-7.09934 462.513,-14.0958"/>
</g>
<!-- 62 -->
<g id="node13" class="node"><title>62</title>
<ellipse fill="none" stroke="black" cx="697" cy="-1599.13" rx="18.2703" ry="18.2703"/>
<text text-anchor="middle" x="697" y="-1596.93" font-family="Times New Roman,serif" font-size="9.00">62</text>
</g>
<!-- 20&#45;&gt;62 -->
<g id="edge50" class="edge"><title>20&#45;&gt;62</title>
<path fill="none" stroke="red" d="M453.53,-1666.15C497.998,-1654.09 615.472,-1622.24 669.321,-1607.64"/>
<polygon fill="red" stroke="red" points="670.467,-1610.95 679.202,-1604.96 668.635,-1604.2 670.467,-1610.95"/>
</g>
<!-- 20&#45;&gt;52 -->
<g id="edge114" class="edge"><title>20&#45;&gt;52</title>
<path fill="none" stroke="red" d="M452.657,-1663.53C470.651,-1654.83 499.136,-1638.8 517,-1617.52 545.064,-1584.07 556,-1571.02 556,-1527.36 556,-1527.36 556,-1527.36 556,-1452.59 556,-1370.08 585.69,-1347.03 645,-1289.67 667.579,-1267.83 700.854,-1253.07 724.08,-1244.7"/>
<polygon fill="red" stroke="red" points="725.347,-1247.97 733.664,-1241.41 723.07,-1241.35 725.347,-1247.97"/>
</g>
<!-- 20&#45;&gt;54 -->
<g id="edge63" class="edge"><title>20&#45;&gt;54</title>
<path fill="none" stroke="red" d="M449.133,-1658.82C460.116,-1648.4 475.887,-1632.68 488,-1617.52 546.009,-1544.9 602.417,-1449.82 627.477,-1405.94"/>
<polygon fill="red" stroke="red" points="630.582,-1407.56 632.475,-1397.14 624.494,-1404.1 630.582,-1407.56"/>
</g>
<!-- 28 -->
<g id="node24" class="node"><title>28</title>
<ellipse fill="none" stroke="black" cx="520" cy="-1089.74" rx="18.2703" ry="18.2703"/>
<text text-anchor="middle" x="520" y="-1087.54" font-family="Times New Roman,serif" font-size="9.00">28</text>
</g>
<!-- 20&#45;&gt;28 -->
<g id="edge33" class="edge"><title>20&#45;&gt;28</title>
<path fill="none" stroke="green" d="M443.148,-1654.91C454.155,-1628.78 474,-1575.05 474,-1527.36 474,-1527.36 474,-1527.36 474,-1234.28 474,-1190.74 493.431,-1143.17 507.035,-1115.19"/>
<polygon fill="green" stroke="green" points="510.213,-1116.66 511.563,-1106.15 503.955,-1113.53 510.213,-1116.66"/>
</g>
<!-- 20&#45;&gt;24 -->
<g id="edge59" class="edge"><title>20&#45;&gt;24</title>
<path fill="none" stroke="green" d="M428.852,-1654.91C417.845,-1628.78 398,-1575.05 398,-1527.36 398,-1527.36 398,-1527.36 398,-1234.28 398,-1160.05 440.747,-1080.25 464.513,-1041.62"/>
<polygon fill="green" stroke="green" points="467.752,-1043.04 470.109,-1032.71 461.825,-1039.32 467.752,-1043.04"/>
</g>
<!-- 20&#45;&gt;15 -->
<g id="edge10" class="edge"><title>20&#45;&gt;15</title>
<path fill="none" stroke="red" d="M422.8,-1658.89C377.334,-1616.15 230,-1465.56 230,-1309.05 230,-1309.05 230,-1309.05 230,-1234.28 230,-1156.49 239.959,-1127.32 294,-1071.36 321.931,-1042.43 352.939,-1067.58 377,-1035.36 390.295,-1017.56 392.287,-992.04 391.391,-972.693"/>
<polygon fill="red" stroke="red" points="394.877,-972.383 390.649,-962.668 387.896,-972.899 394.877,-972.383"/>
</g>
<!-- 20&#45;&gt;30 -->
<g id="edge60" class="edge"><title>20&#45;&gt;30</title>
<path fill="none" stroke="red" d="M454.378,-1670.1C549.229,-1665.48 979,-1638.4 979,-1527.36 979,-1527.36 979,-1527.36 979,-1015.97 979,-917.672 949,-895.14 949,-796.838 949,-796.838 949,-796.838 949,-719.24 949,-678.961 945.821,-632.422 943.471,-603.523"/>
<polygon fill="red" stroke="red" points="946.942,-603.034 942.619,-593.361 939.966,-603.619 946.942,-603.034"/>
</g>
<!-- 58&#45;&gt;15 -->
<g id="edge100" class="edge"><title>58&#45;&gt;15</title>
<path fill="none" stroke="green" d="M358.433,-1000.27C363.255,-991.29 369.407,-979.832 374.85,-969.696"/>
<polygon fill="green" stroke="green" points="377.943,-971.333 379.59,-960.867 371.776,-968.022 377.943,-971.333"/>
</g>
<!-- 59 -->
<g id="node15" class="node"><title>59</title>
<ellipse fill="none" stroke="black" cx="697" cy="-1526.36" rx="18.2703" ry="18.2703"/>
<text text-anchor="middle" x="697" y="-1524.16" font-family="Times New Roman,serif" font-size="9.00">59</text>
</g>
<!-- 62&#45;&gt;59 -->
<g id="edge51" class="edge"><title>62&#45;&gt;59</title>
<path fill="none" stroke="green" d="M697,-1580.64C697,-1572.96 697,-1563.75 697,-1555.16"/>
<polygon fill="green" stroke="green" points="700.5,-1555.15 697,-1545.15 693.5,-1555.15 700.5,-1555.15"/>
</g>
<!-- 21 -->
<g id="node47" class="node"><title>21</title>
<ellipse fill="none" stroke="black" cx="783" cy="-210.853" rx="18.2703" ry="18.2703"/>
<text text-anchor="middle" x="783" y="-208.653" font-family="Times New Roman,serif" font-size="9.00">21</text>
</g>
<!-- 62&#45;&gt;21 -->
<g id="edge53" class="edge"><title>62&#45;&gt;21</title>
<path fill="none" stroke="red" d="M713.51,-1590.74C762.393,-1567.6 903,-1491.5 903,-1381.82 903,-1381.82 903,-1381.82 903,-794.838 903,-682.05 815.745,-337.71 790.042,-238.726"/>
<polygon fill="red" stroke="red" points="793.392,-237.702 787.485,-228.906 786.618,-239.466 793.392,-237.702"/>
</g>
<!-- 82 -->
<g id="node16" class="node"><title>82</title>
<ellipse fill="none" stroke="black" cx="819" cy="-1308.05" rx="18.2703" ry="18.2703"/>
<text text-anchor="middle" x="819" y="-1305.85" font-family="Times New Roman,serif" font-size="9.00">82</text>
</g>
<!-- 64&#45;&gt;82 -->
<g id="edge91" class="edge"><title>64&#45;&gt;82</title>
<path fill="none" stroke="green" d="M789.433,-1364.12C794.255,-1355.14 800.407,-1343.68 805.85,-1333.54"/>
<polygon fill="green" stroke="green" points="808.943,-1335.18 810.59,-1324.72 802.776,-1331.87 808.943,-1335.18"/>
</g>
<!-- 64&#45;&gt;52 -->
<g id="edge94" class="edge"><title>64&#45;&gt;52</title>
<path fill="none" stroke="red" d="M777.381,-1362.51C772.246,-1337.94 762.793,-1292.71 756.707,-1263.59"/>
<polygon fill="red" stroke="red" points="760.103,-1262.73 754.632,-1253.66 753.251,-1264.16 760.103,-1262.73"/>
</g>
<!-- 81 -->
<g id="node17" class="node"><title>81</title>
<ellipse fill="none" stroke="black" cx="643" cy="-1453.59" rx="18.2703" ry="18.2703"/>
<text text-anchor="middle" x="643" y="-1451.39" font-family="Times New Roman,serif" font-size="9.00">81</text>
</g>
<!-- 59&#45;&gt;81 -->
<g id="edge107" class="edge"><title>59&#45;&gt;81</title>
<path fill="none" stroke="green" d="M686.331,-1511.38C678.885,-1501.62 668.785,-1488.38 660.209,-1477.15"/>
<polygon fill="green" stroke="green" points="662.866,-1474.86 654.017,-1469.03 657.301,-1479.1 662.866,-1474.86"/>
</g>
<!-- 61 -->
<g id="node25" class="node"><title>61</title>
<ellipse fill="none" stroke="black" cx="705" cy="-1162.51" rx="18.2703" ry="18.2703"/>
<text text-anchor="middle" x="705" y="-1160.31" font-family="Times New Roman,serif" font-size="9.00">61</text>
</g>
<!-- 59&#45;&gt;61 -->
<g id="edge52" class="edge"><title>59&#45;&gt;61</title>
<path fill="none" stroke="green" d="M697,-1507.68C697,-1480.59 697,-1427.18 697,-1381.82 697,-1381.82 697,-1381.82 697,-1307.05 697,-1266.77 700.179,-1220.24 702.529,-1191.34"/>
<polygon fill="green" stroke="green" points="706.034,-1191.43 703.381,-1181.17 699.058,-1190.85 706.034,-1191.43"/>
</g>
<!-- 19 -->
<g id="node44" class="node"><title>19</title>
<ellipse fill="none" stroke="black" cx="840" cy="-283.622" rx="18.2703" ry="18.2703"/>
<text text-anchor="middle" x="840" y="-281.422" font-family="Times New Roman,serif" font-size="9.00">19</text>
</g>
<!-- 59&#45;&gt;19 -->
<g id="edge75" class="edge"><title>59&#45;&gt;19</title>
<path fill="none" stroke="green" d="M714.895,-1521.7C739.59,-1515.69 783.802,-1501.36 808,-1471.98 876.514,-1388.79 865,-1344.06 865,-1236.28 865,-1236.28 865,-1236.28 865,-794.838 865,-665.025 855,-632.743 855,-502.931 855,-502.931 855,-502.931 855,-428.161 855,-387.504 848.973,-340.717 844.56,-311.907"/>
<polygon fill="green" stroke="green" points="847.98,-311.128 842.964,-301.796 841.066,-312.219 847.98,-311.128"/>
</g>
<!-- 82&#45;&gt;52 -->
<g id="edge92" class="edge"><title>82&#45;&gt;52</title>
<path fill="none" stroke="red" d="M806.528,-1294.07C796.463,-1283.6 782.123,-1268.67 770.537,-1256.62"/>
<polygon fill="red" stroke="red" points="772.846,-1253.97 763.393,-1249.18 767.798,-1258.82 772.846,-1253.97"/>
</g>
<!-- 81&#45;&gt;54 -->
<g id="edge108" class="edge"><title>81&#45;&gt;54</title>
<path fill="none" stroke="red" d="M642.506,-1435.1C642.289,-1427.42 642.028,-1418.21 641.786,-1409.62"/>
<polygon fill="red" stroke="red" points="645.284,-1409.5 641.503,-1399.61 638.287,-1409.7 645.284,-1409.5"/>
</g>
<!-- 52&#45;&gt;61 -->
<g id="edge47" class="edge"><title>52&#45;&gt;61</title>
<path fill="none" stroke="green" d="M741.245,-1219.28C735.146,-1209.89 727.162,-1197.61 720.241,-1186.96"/>
<polygon fill="green" stroke="green" points="723.126,-1184.98 714.741,-1178.5 717.257,-1188.79 723.126,-1184.98"/>
</g>
<!-- 86 -->
<g id="node33" class="node"><title>86</title>
<ellipse fill="none" stroke="black" cx="724" cy="-1089.74" rx="18.2703" ry="18.2703"/>
<text text-anchor="middle" x="724" y="-1087.54" font-family="Times New Roman,serif" font-size="9.00">86</text>
</g>
<!-- 52&#45;&gt;86 -->
<g id="edge87" class="edge"><title>52&#45;&gt;86</title>
<path fill="none" stroke="green" d="M747.743,-1216.97C743.121,-1192.4 734.613,-1147.17 729.136,-1118.05"/>
<polygon fill="green" stroke="green" points="732.557,-1117.3 727.268,-1108.12 725.677,-1118.59 732.557,-1117.3"/>
</g>
<!-- 51 -->
<g id="node35" class="node"><title>51</title>
<ellipse fill="none" stroke="black" cx="614" cy="-795.838" rx="18.2703" ry="18.2703"/>
<text text-anchor="middle" x="614" y="-793.638" font-family="Times New Roman,serif" font-size="9.00">51</text>
</g>
<!-- 52&#45;&gt;51 -->
<g id="edge115" class="edge"><title>52&#45;&gt;51</title>
<path fill="none" stroke="green" d="M758.148,-1218.29C769.155,-1192.16 789,-1138.43 789,-1090.74 789,-1090.74 789,-1090.74 789,-943.205 789,-867.031 690.234,-822.702 641.098,-805.362"/>
<polygon fill="green" stroke="green" points="642.014,-801.977 631.419,-802.07 639.759,-808.604 642.014,-801.977"/>
</g>
<!-- 55 -->
<g id="node21" class="node"><title>55</title>
<ellipse fill="none" stroke="black" cx="558" cy="-1308.05" rx="18.2703" ry="18.2703"/>
<text text-anchor="middle" x="558" y="-1305.85" font-family="Times New Roman,serif" font-size="9.00">55</text>
</g>
<!-- 54&#45;&gt;55 -->
<g id="edge46" class="edge"><title>54&#45;&gt;55</title>
<path fill="none" stroke="green" d="M627.294,-1368.14C614.319,-1357.07 594.634,-1340.29 579.556,-1327.43"/>
<polygon fill="green" stroke="green" points="581.606,-1324.58 571.726,-1320.76 577.065,-1329.91 581.606,-1324.58"/>
</g>
<!-- 54&#45;&gt;28 -->
<g id="edge64" class="edge"><title>54&#45;&gt;28</title>
<path fill="none" stroke="green" d="M624.966,-1371.18C619.6,-1368.34 613.567,-1365.2 608,-1362.44 574.168,-1345.63 552.02,-1357.83 531,-1326.44 487.97,-1262.18 502.425,-1164.51 512.98,-1117.66"/>
<polygon fill="green" stroke="green" points="516.445,-1118.21 515.346,-1107.68 509.634,-1116.6 516.445,-1118.21"/>
</g>
<!-- 13 -->
<g id="node37" class="node"><title>13</title>
<ellipse fill="none" stroke="black" cx="572" cy="-647.47" rx="18.2703" ry="18.2703"/>
<text text-anchor="middle" x="572" y="-645.27" font-family="Times New Roman,serif" font-size="9.00">13</text>
</g>
<!-- 54&#45;&gt;13 -->
<g id="edge45" class="edge"><title>54&#45;&gt;13</title>
<path fill="none" stroke="green" d="M656.23,-1369.98C684.466,-1350.94 745.058,-1306.29 778,-1253.67 818.125,-1189.58 827,-1166.36 827,-1090.74 827,-1090.74 827,-1090.74 827,-794.838 827,-691.361 667.106,-659.984 600.544,-651.405"/>
<polygon fill="green" stroke="green" points="600.686,-647.897 590.339,-650.176 599.849,-654.847 600.686,-647.897"/>
</g>
<!-- 69&#45;&gt;5 -->
<g id="edge80" class="edge"><title>69&#45;&gt;5</title>
<path fill="none" stroke="red" d="M296.378,-1156.79C273.367,-1149.77 233.178,-1134.51 209,-1108.13 132.696,-1024.86 114,-985.377 114,-872.436 114,-872.436 114,-872.436 114,-137.083 114,-82.3176 155.65,-77.7453 205,-54 293.459,-11.437 414.282,-8.57989 462.198,-9.32205"/>
<polygon fill="red" stroke="red" points="462.186,-12.8226 472.263,-9.55133 462.345,-5.82438 462.186,-12.8226"/>
</g>
<!-- 70 -->
<g id="node26" class="node"><title>70</title>
<ellipse fill="none" stroke="black" cx="352" cy="-1089.74" rx="18.2703" ry="18.2703"/>
<text text-anchor="middle" x="352" y="-1087.54" font-family="Times New Roman,serif" font-size="9.00">70</text>
</g>
<!-- 69&#45;&gt;70 -->
<g id="edge72" class="edge"><title>69&#45;&gt;70</title>
<path fill="none" stroke="red" d="M322.433,-1145.81C327.255,-1136.83 333.407,-1125.37 338.85,-1115.23"/>
<polygon fill="red" stroke="red" points="341.943,-1116.87 343.59,-1106.41 335.776,-1113.56 341.943,-1116.87"/>
</g>
<!-- 88 -->
<g id="node22" class="node"><title>88</title>
<ellipse fill="none" stroke="black" cx="558" cy="-1235.28" rx="18.2703" ry="18.2703"/>
<text text-anchor="middle" x="558" y="-1233.08" font-family="Times New Roman,serif" font-size="9.00">88</text>
</g>
<!-- 55&#45;&gt;88 -->
<g id="edge113" class="edge"><title>55&#45;&gt;88</title>
<path fill="none" stroke="green" d="M558,-1289.56C558,-1281.88 558,-1272.67 558,-1264.08"/>
<polygon fill="green" stroke="green" points="561.5,-1264.07 558,-1254.07 554.5,-1264.07 561.5,-1264.07"/>
</g>
<!-- 55&#45;&gt;75 -->
<g id="edge83" class="edge"><title>55&#45;&gt;75</title>
<path fill="none" stroke="red" d="M573.014,-1297.05C586.483,-1287.39 605.934,-1271.6 618,-1253.67 630.988,-1234.37 639.343,-1209.2 644.247,-1190.36"/>
<polygon fill="red" stroke="red" points="647.652,-1191.17 646.623,-1180.63 640.852,-1189.51 647.652,-1191.17"/>
</g>
<!-- 55&#45;&gt;51 -->
<g id="edge55" class="edge"><title>55&#45;&gt;51</title>
<path fill="none" stroke="green" d="M567.149,-1291.64C572.989,-1281.23 580.316,-1266.99 585,-1253.67 598.578,-1215.04 604,-1204.46 604,-1163.51 604,-1163.51 604,-1163.51 604,-943.205 604,-901.875 608.018,-854.132 610.96,-824.712"/>
<polygon fill="green" stroke="green" points="614.481,-824.691 612.024,-814.385 607.517,-823.973 614.481,-824.691"/>
</g>
<!-- 89 -->
<g id="node23" class="node"><title>89</title>
<ellipse fill="none" stroke="black" cx="558" cy="-1162.51" rx="18.2703" ry="18.2703"/>
<text text-anchor="middle" x="558" y="-1160.31" font-family="Times New Roman,serif" font-size="9.00">89</text>
</g>
<!-- 88&#45;&gt;89 -->
<g id="edge116" class="edge"><title>88&#45;&gt;89</title>
<path fill="none" stroke="green" d="M558,-1216.79C558,-1209.11 558,-1199.9 558,-1191.31"/>
<polygon fill="green" stroke="green" points="561.5,-1191.3 558,-1181.3 554.5,-1191.3 561.5,-1191.3"/>
</g>
<!-- 89&#45;&gt;28 -->
<g id="edge117" class="edge"><title>89&#45;&gt;28</title>
<path fill="none" stroke="red" d="M549.567,-1145.81C544.745,-1136.83 538.593,-1125.37 533.15,-1115.23"/>
<polygon fill="red" stroke="red" points="536.224,-1113.56 528.41,-1106.41 530.057,-1116.87 536.224,-1113.56"/>
</g>
<!-- 28&#45;&gt;24 -->
<g id="edge34" class="edge"><title>28&#45;&gt;24</title>
<path fill="none" stroke="red" d="M511.321,-1073.39C506.184,-1064.3 499.561,-1052.58 493.73,-1042.27"/>
<polygon fill="red" stroke="red" points="496.63,-1040.28 488.662,-1033.3 490.536,-1043.73 496.63,-1040.28"/>
</g>
<!-- 28&#45;&gt;13 -->
<g id="edge95" class="edge"><title>28&#45;&gt;13</title>
<path fill="none" stroke="green" d="M521.214,-1071.08C522.967,-1044 526,-990.599 526,-945.205 526,-945.205 526,-945.205 526,-794.838 526,-752.658 531.136,-741.691 545,-701.855 548.409,-692.058 553.268,-681.78 557.926,-672.887"/>
<polygon fill="green" stroke="green" points="561.127,-674.328 562.824,-663.87 554.976,-670.987 561.127,-674.328"/>
</g>
<!-- 67 -->
<g id="node27" class="node"><title>67</title>
<ellipse fill="none" stroke="black" cx="669" cy="-1089.74" rx="18.2703" ry="18.2703"/>
<text text-anchor="middle" x="669" y="-1087.54" font-family="Times New Roman,serif" font-size="9.00">67</text>
</g>
<!-- 61&#45;&gt;67 -->
<g id="edge74" class="edge"><title>61&#45;&gt;67</title>
<path fill="none" stroke="red" d="M697.01,-1145.81C692.489,-1136.92 686.733,-1125.6 681.616,-1115.55"/>
<polygon fill="red" stroke="red" points="684.621,-1113.73 676.967,-1106.41 678.382,-1116.91 684.621,-1113.73"/>
</g>
<!-- 61&#45;&gt;24 -->
<g id="edge48" class="edge"><title>61&#45;&gt;24</title>
<path fill="none" stroke="green" d="M689.888,-1151.87C651.461,-1127.36 549.795,-1062.5 503.526,-1032.98"/>
<polygon fill="green" stroke="green" points="505.359,-1030 495.046,-1027.57 501.595,-1035.9 505.359,-1030"/>
</g>
<!-- 70&#45;&gt;24 -->
<g id="edge73" class="edge"><title>70&#45;&gt;24</title>
<path fill="none" stroke="green" d="M367.695,-1080.07C389.575,-1067.97 429.462,-1045.92 455.337,-1031.61"/>
<polygon fill="green" stroke="green" points="457.118,-1034.63 464.176,-1026.72 453.731,-1028.5 457.118,-1034.63"/>
</g>
<!-- 24&#45;&gt;15 -->
<g id="edge31" class="edge"><title>24&#45;&gt;15</title>
<path fill="none" stroke="red" d="M465.625,-1004.92C450.907,-993.595 427.817,-975.834 410.641,-962.621"/>
<polygon fill="red" stroke="red" points="412.334,-959.508 402.274,-956.185 408.066,-965.057 412.334,-959.508"/>
</g>
<!-- 74 -->
<g id="node32" class="node"><title>74</title>
<ellipse fill="none" stroke="black" cx="1118" cy="-944.205" rx="18.2703" ry="18.2703"/>
<text text-anchor="middle" x="1118" y="-942.005" font-family="Times New Roman,serif" font-size="9.00">74</text>
</g>
<!-- 24&#45;&gt;74 -->
<g id="edge76" class="edge"><title>24&#45;&gt;74</title>
<path fill="none" stroke="red" d="M498.472,-1015.51C587.879,-1013.09 976.026,-1000.54 1090,-962.59 1091.46,-962.104 1092.92,-961.529 1094.37,-960.888"/>
<polygon fill="red" stroke="red" points="1096.38,-963.78 1103.53,-955.965 1093.07,-957.613 1096.38,-963.78"/>
</g>
<!-- 78 -->
<g id="node36" class="node"><title>78</title>
<ellipse fill="none" stroke="black" cx="572" cy="-720.24" rx="18.2703" ry="18.2703"/>
<text text-anchor="middle" x="572" y="-718.04" font-family="Times New Roman,serif" font-size="9.00">78</text>
</g>
<!-- 24&#45;&gt;78 -->
<g id="edge90" class="edge"><title>24&#45;&gt;78</title>
<path fill="none" stroke="green" d="M485.21,-999.284C500.45,-950.461 545.041,-807.608 563.67,-747.925"/>
<polygon fill="green" stroke="green" points="567.094,-748.701 566.733,-738.113 560.412,-746.616 567.094,-748.701"/>
</g>
<!-- 15&#45;&gt;22 -->
<g id="edge32" class="edge"><title>15&#45;&gt;22</title>
<path fill="none" stroke="red" d="M402.063,-932.147C416.461,-920.826 439.049,-903.064 455.851,-889.852"/>
<polygon fill="red" stroke="red" points="458.339,-892.348 464.036,-883.416 454.012,-886.846 458.339,-892.348"/>
</g>
<!-- 15&#45;&gt;13 -->
<g id="edge8" class="edge"><title>15&#45;&gt;13</title>
<path fill="none" stroke="red" d="M393.775,-926.539C410.757,-878.152 461.263,-738.75 492,-701.855 506.879,-683.995 529.235,-669.772 546.534,-660.512"/>
<polygon fill="red" stroke="red" points="548.247,-663.567 555.546,-655.887 545.051,-657.34 548.247,-663.567"/>
</g>
<!-- 15&#45;&gt;6 -->
<g id="edge89" class="edge"><title>15&#45;&gt;6</title>
<path fill="none" stroke="red" d="M388,-925.632C388,-898.152 388,-843.34 388,-796.838 388,-796.838 388,-796.838 388,-282.622 388,-113.805 671.111,-78.328 757.968,-71.4162"/>
<polygon fill="red" stroke="red" points="758.282,-74.9026 767.998,-70.6779 757.768,-67.9215 758.282,-74.9026"/>
</g>
<!-- 56&#45;&gt;23 -->
<g id="edge98" class="edge"><title>56&#45;&gt;23</title>
<path fill="none" stroke="red" d="M1073.87,-929.223C1081.55,-919.337 1092.01,-905.879 1100.82,-894.546"/>
<polygon fill="red" stroke="red" points="1103.78,-896.432 1107.16,-886.388 1098.26,-892.136 1103.78,-896.432"/>
</g>
<!-- 56&#45;&gt;19 -->
<g id="edge111" class="edge"><title>56&#45;&gt;19</title>
<path fill="none" stroke="green" d="M1064.44,-925.766C1069.45,-857.022 1081.64,-599.338 1002,-410.777 987.296,-375.96 986.266,-363.096 958,-338.007 931.691,-314.656 893.47,-299.908 867.72,-291.969"/>
<polygon fill="green" stroke="green" points="868.433,-288.531 857.851,-289.071 866.46,-295.247 868.433,-288.531"/>
</g>
<!-- 75&#45;&gt;86 -->
<g id="edge85" class="edge"><title>75&#45;&gt;86</title>
<path fill="none" stroke="red" d="M662.89,-1149.19C674,-1138.56 690.248,-1123.02 703.198,-1110.64"/>
<polygon fill="red" stroke="red" points="705.952,-1112.85 710.76,-1103.41 701.113,-1107.79 705.952,-1112.85"/>
</g>
<!-- 74&#45;&gt;23 -->
<g id="edge77" class="edge"><title>74&#45;&gt;23</title>
<path fill="none" stroke="red" d="M1118,-925.712C1118,-918.029 1118,-908.82 1118,-900.236"/>
<polygon fill="red" stroke="red" points="1121.5,-900.22 1118,-890.22 1114.5,-900.22 1121.5,-900.22"/>
</g>
<!-- 74&#45;&gt;11 -->
<g id="edge104" class="edge"><title>74&#45;&gt;11</title>
<path fill="none" stroke="green" d="M1133.1,-933.661C1151.89,-921.79 1184.18,-901.386 1206.28,-887.421"/>
<polygon fill="green" stroke="green" points="1208.19,-890.355 1214.78,-882.055 1204.45,-884.438 1208.19,-890.355"/>
</g>
<!-- 86&#45;&gt;51 -->
<g id="edge86" class="edge"><title>86&#45;&gt;51</title>
<path fill="none" stroke="red" d="M717.771,-1072.21C699.506,-1023.75 645.983,-881.711 623.803,-822.851"/>
<polygon fill="red" stroke="red" points="626.962,-821.31 620.161,-813.187 620.412,-823.779 626.962,-821.31"/>
</g>
<!-- 22&#45;&gt;51 -->
<g id="edge40" class="edge"><title>22&#45;&gt;51</title>
<path fill="none" stroke="green" d="M493.867,-861.849C517.309,-849.163 561.409,-825.298 589.16,-810.28"/>
<polygon fill="green" stroke="green" points="591.105,-813.207 598.234,-805.37 587.773,-807.051 591.105,-813.207"/>
</g>
<!-- 22&#45;&gt;13 -->
<g id="edge44" class="edge"><title>22&#45;&gt;13</title>
<path fill="none" stroke="green" d="M477.97,-852.914C478.651,-820.808 483.598,-751.305 512,-701.855 520.802,-686.53 535.596,-673.294 548.291,-663.834"/>
<polygon fill="green" stroke="green" points="550.513,-666.549 556.646,-657.91 546.464,-660.839 550.513,-666.549"/>
</g>
<!-- 51&#45;&gt;78 -->
<g id="edge61" class="edge"><title>51&#45;&gt;78</title>
<path fill="none" stroke="green" d="M605.298,-779.588C599.666,-769.72 592.213,-756.66 585.786,-745.397"/>
<polygon fill="green" stroke="green" points="588.688,-743.42 580.691,-736.47 582.608,-746.89 588.688,-743.42"/>
</g>
<!-- 51&#45;&gt;13 -->
<g id="edge41" class="edge"><title>51&#45;&gt;13</title>
<path fill="none" stroke="red" d="M612.791,-777.324C611.111,-758.346 607.285,-727.359 599,-701.855 595.795,-691.989 590.981,-681.696 586.302,-672.81"/>
<polygon fill="red" stroke="red" points="589.24,-670.889 581.359,-663.808 583.104,-674.258 589.24,-670.889"/>
</g>
<!-- 78&#45;&gt;13 -->
<g id="edge62" class="edge"><title>78&#45;&gt;13</title>
<path fill="none" stroke="red" d="M572,-701.746C572,-694.064 572,-684.855 572,-676.27"/>
<polygon fill="red" stroke="red" points="575.5,-676.254 572,-666.254 568.5,-676.254 575.5,-676.254"/>
</g>
<!-- 13&#45;&gt;5 -->
<g id="edge69" class="edge"><title>13&#45;&gt;5</title>
<path fill="none" stroke="green" d="M556.983,-636.585C527.308,-615.723 464,-564.056 464,-502.931 464,-502.931 464,-502.931 464,-137.083 464,-97.9889 472.904,-52.8658 478.521,-28.2882"/>
<polygon fill="green" stroke="green" points="481.996,-28.7999 480.894,-18.2626 475.185,-27.1875 481.996,-28.7999"/>
</g>
<!-- 13&#45;&gt;30 -->
<g id="edge12" class="edge"><title>13&#45;&gt;30</title>
<path fill="none" stroke="green" d="M590.047,-643.009C649.641,-631.58 840.452,-594.984 912.813,-581.106"/>
<polygon fill="green" stroke="green" points="913.826,-584.476 922.987,-579.155 912.507,-577.601 913.826,-584.476"/>
</g>
<!-- 13&#45;&gt;19 -->
<g id="edge42" class="edge"><title>13&#45;&gt;19</title>
<path fill="none" stroke="green" d="M589.822,-642.762C615.576,-636.575 663.352,-621.88 693,-593.085 777.531,-510.988 819.385,-370.58 833.898,-311.779"/>
<polygon fill="green" stroke="green" points="837.367,-312.322 836.294,-301.781 830.56,-310.69 837.367,-312.322"/>
</g>
<!-- 13&#45;&gt;6 -->
<g id="edge6" class="edge"><title>13&#45;&gt;6</title>
<path fill="none" stroke="green" d="M586.878,-636.551C616.279,-615.628 679,-563.852 679,-502.931 679,-502.931 679,-502.931 679,-209.853 679,-154.185 732.64,-106.266 762.875,-83.6771"/>
<polygon fill="green" stroke="green" points="765.021,-86.4439 771.07,-77.7452 760.917,-80.7734 765.021,-86.4439"/>
</g>
<!-- 79 -->
<g id="node52" class="node"><title>79</title>
<ellipse fill="none" stroke="black" cx="560" cy="-501.931" rx="18.2703" ry="18.2703"/>
<text text-anchor="middle" x="560" y="-499.731" font-family="Times New Roman,serif" font-size="9.00">79</text>
</g>
<!-- 13&#45;&gt;79 -->
<g id="edge25" class="edge"><title>13&#45;&gt;79</title>
<path fill="none" stroke="green" d="M570.529,-628.869C568.486,-604.441 564.771,-559.996 562.344,-530.971"/>
<polygon fill="green" stroke="green" points="565.804,-530.349 561.483,-520.676 558.829,-530.933 565.804,-530.349"/>
</g>
<!-- 23&#45;&gt;80 -->
<g id="edge81" class="edge"><title>23&#45;&gt;80</title>
<path fill="none" stroke="green" d="M1113.13,-853.366C1110.61,-844.541 1107.48,-833.568 1104.65,-823.643"/>
<polygon fill="green" stroke="green" points="1107.95,-822.471 1101.84,-813.815 1101.22,-824.392 1107.95,-822.471"/>
</g>
<!-- 23&#45;&gt;6 -->
<g id="edge24" class="edge"><title>23&#45;&gt;6</title>
<path fill="none" stroke="green" d="M1122.7,-853.585C1129.94,-826.105 1143,-769.827 1143,-721.24 1143,-721.24 1143,-721.24 1143,-209.853 1143,-160.714 1120.63,-145.806 1079,-119.698 1033.71,-91.2931 870.873,-76.3986 808.008,-71.6045"/>
<polygon fill="green" stroke="green" points="808.044,-68.0976 797.813,-70.8494 807.527,-75.0785 808.044,-68.0976"/>
</g>
<!-- 105 -->
<g id="node46" class="node"><title>105</title>
<ellipse fill="none" stroke="black" cx="1230" cy="-795.838" rx="21.4286" ry="21.4286"/>
<text text-anchor="middle" x="1230" y="-793.638" font-family="Times New Roman,serif" font-size="9.00">105</text>
</g>
<!-- 11&#45;&gt;105 -->
<g id="edge109" class="edge"><title>11&#45;&gt;105</title>
<path fill="none" stroke="red" d="M1230,-852.994C1230,-845.378 1230,-836.217 1230,-827.523"/>
<polygon fill="red" stroke="red" points="1233.5,-827.287 1230,-817.287 1226.5,-827.287 1233.5,-827.287"/>
</g>
<!-- 30&#45;&gt;99 -->
<g id="edge102" class="edge"><title>30&#45;&gt;99</title>
<path fill="none" stroke="green" d="M948.99,-557.995C953.511,-549.107 959.267,-537.791 964.384,-527.732"/>
<polygon fill="green" stroke="green" points="967.618,-529.093 969.033,-518.593 961.379,-525.919 967.618,-529.093"/>
</g>
<!-- 77 -->
<g id="node42" class="node"><title>77</title>
<ellipse fill="none" stroke="black" cx="939" cy="-429.161" rx="18.2703" ry="18.2703"/>
<text text-anchor="middle" x="939" y="-426.961" font-family="Times New Roman,serif" font-size="9.00">77</text>
</g>
<!-- 30&#45;&gt;77 -->
<g id="edge78" class="edge"><title>30&#45;&gt;77</title>
<path fill="none" stroke="green" d="M940.755,-556.1C940.414,-531.672 939.795,-487.226 939.391,-458.201"/>
<polygon fill="green" stroke="green" points="942.886,-457.856 939.247,-447.906 935.887,-457.954 942.886,-457.856"/>
</g>
<!-- 47 -->
<g id="node43" class="node"><title>47</title>
<ellipse fill="none" stroke="black" cx="901" cy="-356.392" rx="18.2703" ry="18.2703"/>
<text text-anchor="middle" x="901" y="-354.192" font-family="Times New Roman,serif" font-size="9.00">47</text>
</g>
<!-- 30&#45;&gt;47 -->
<g id="edge19" class="edge"><title>30&#45;&gt;47</title>
<path fill="none" stroke="red" d="M936.489,-556.676C930.233,-532.546 918.913,-486.946 912,-447.546 908.327,-426.613 905.473,-402.73 903.593,-384.807"/>
<polygon fill="red" stroke="red" points="907.064,-384.351 902.575,-374.754 900.1,-385.056 907.064,-384.351"/>
</g>
<!-- 30&#45;&gt;19 -->
<g id="edge37" class="edge"><title>30&#45;&gt;19</title>
<path fill="none" stroke="green" d="M957.153,-565.423C972.435,-556.583 994.417,-540.998 1004,-520.316 1010.87,-505.488 1007.89,-499.417 1004,-483.546 986.61,-412.676 977.921,-391.232 928,-338.007 910.511,-319.361 885.087,-304.883 866.058,-295.738"/>
<polygon fill="green" stroke="green" points="867.312,-292.462 856.766,-291.448 864.378,-298.817 867.312,-292.462"/>
</g>
<!-- 99&#45;&gt;77 -->
<g id="edge103" class="edge"><title>99&#45;&gt;77</title>
<path fill="none" stroke="red" d="M968.567,-485.225C963.745,-476.246 957.593,-464.788 952.15,-454.652"/>
<polygon fill="red" stroke="red" points="955.224,-452.978 947.41,-445.824 949.057,-456.29 955.224,-452.978"/>
</g>
<!-- 77&#45;&gt;47 -->
<g id="edge79" class="edge"><title>77&#45;&gt;47</title>
<path fill="none" stroke="green" d="M930.567,-412.455C925.745,-403.476 919.593,-392.019 914.15,-381.882"/>
<polygon fill="green" stroke="green" points="917.224,-380.209 909.41,-373.054 911.057,-383.52 917.224,-380.209"/>
</g>
<!-- 47&#45;&gt;19 -->
<g id="edge20" class="edge"><title>47&#45;&gt;19</title>
<path fill="none" stroke="green" d="M889.239,-341.747C880.462,-331.565 868.306,-317.462 858.268,-305.817"/>
<polygon fill="green" stroke="green" points="860.905,-303.515 851.725,-298.226 855.603,-308.085 860.905,-303.515"/>
</g>
<!-- 19&#45;&gt;21 -->
<g id="edge30" class="edge"><title>19&#45;&gt;21</title>
<path fill="none" stroke="red" d="M828.739,-268.641C820.697,-258.657 809.724,-245.032 800.541,-233.631"/>
<polygon fill="red" stroke="red" points="803.237,-231.398 794.238,-225.806 797.785,-235.789 803.237,-231.398"/>
</g>
<!-- 19&#45;&gt;6 -->
<g id="edge11" class="edge"><title>19&#45;&gt;6</title>
<path fill="none" stroke="red" d="M838.583,-265.036C835.738,-234.652 827.993,-170.687 810,-119.698 806.44,-109.611 801.036,-99.1034 795.996,-90.351"/>
<polygon fill="red" stroke="red" points="798.919,-88.4202 790.773,-81.6453 792.916,-92.0212 798.919,-88.4202"/>
</g>
<!-- 92 -->
<g id="node51" class="node"><title>92</title>
<ellipse fill="none" stroke="black" cx="510" cy="-210.853" rx="18.2703" ry="18.2703"/>
<text text-anchor="middle" x="510" y="-208.653" font-family="Times New Roman,serif" font-size="9.00">92</text>
</g>
<!-- 19&#45;&gt;92 -->
<g id="edge67" class="edge"><title>19&#45;&gt;92</title>
<path fill="none" stroke="red" d="M821.788,-278.717C767.007,-266.969 603.481,-231.9 537.781,-217.81"/>
<polygon fill="red" stroke="red" points="538.265,-214.335 527.753,-215.66 536.797,-221.179 538.265,-214.335"/>
</g>
<!-- 80&#45;&gt;6 -->
<g id="edge82" class="edge"><title>80&#45;&gt;6</title>
<path fill="none" stroke="red" d="M1097.4,-777.265C1097.98,-749.787 1099,-694.977 1099,-648.47 1099,-648.47 1099,-648.47 1099,-209.853 1099,-83.1474 884.004,-70.2125 808.688,-69.5685"/>
<polygon fill="red" stroke="red" points="808.247,-66.0679 798.241,-69.5528 808.236,-73.0679 808.247,-66.0679"/>
</g>
<!-- 105&#45;&gt;7 -->
<g id="edge110" class="edge"><title>105&#45;&gt;7</title>
<path fill="none" stroke="green" d="M1229.16,-774.337C1228.8,-765.41 1228.37,-754.88 1227.99,-745.561"/>
<polygon fill="green" stroke="green" points="1231.48,-745.195 1227.57,-735.346 1224.49,-745.48 1231.48,-745.195"/>
</g>
<!-- 43 -->
<g id="node48" class="node"><title>43</title>
<ellipse fill="none" stroke="black" cx="783" cy="-138.083" rx="18.2703" ry="18.2703"/>
<text text-anchor="middle" x="783" y="-135.883" font-family="Times New Roman,serif" font-size="9.00">43</text>
</g>
<!-- 21&#45;&gt;43 -->
<g id="edge105" class="edge"><title>21&#45;&gt;43</title>
<path fill="none" stroke="green" d="M783,-192.359C783,-184.677 783,-175.468 783,-166.884"/>
<polygon fill="green" stroke="green" points="786.5,-166.867 783,-156.867 779.5,-166.867 786.5,-166.867"/>
</g>
<!-- 43&#45;&gt;6 -->
<g id="edge106" class="edge"><title>43&#45;&gt;6</title>
<path fill="none" stroke="green" d="M783,-119.418C783,-111.735 783,-102.605 783,-94.2874"/>
<polygon fill="green" stroke="green" points="786.5,-94.0103 783,-84.0103 779.5,-94.0103 786.5,-94.0103"/>
</g>
<!-- 6&#45;&gt;5 -->
<g id="edge4" class="edge"><title>6&#45;&gt;5</title>
<path fill="none" stroke="red" d="M768.53,-65.0591C719.701,-55.6433 560.874,-25.0164 503.724,-13.9963"/>
<polygon fill="red" stroke="red" points="504.195,-10.5226 493.713,-12.0658 502.869,-17.396 504.195,-10.5226"/>
</g>
<!-- 7&#45;&gt;5 -->
<g id="edge15" class="edge"><title>7&#45;&gt;5</title>
<path fill="none" stroke="green" d="M1226.36,-705.387C1225.23,-679.782 1223,-623.316 1223,-575.701 1223,-575.701 1223,-575.701 1223,-137.083 1223,-62.0259 624.015,-19.1588 503.845,-11.314"/>
<polygon fill="green" stroke="green" points="503.95,-7.81362 493.746,-10.6642 503.501,-14.7992 503.95,-7.81362"/>
</g>
<!-- 92&#45;&gt;91 -->
<g id="edge68" class="edge"><title>92&#45;&gt;91</title>
<path fill="none" stroke="red" d="M492.315,-205.318C445.594,-193.338 318.587,-160.772 261.932,-146.245"/>
<polygon fill="red" stroke="red" points="262.451,-142.765 251.895,-143.672 260.712,-149.546 262.451,-142.765"/>
</g>
<!-- 79&#45;&gt;5 -->
<g id="edge26" class="edge"><title>79&#45;&gt;5</title>
<path fill="none" stroke="red" d="M559.191,-483.257C558.022,-456.172 556,-402.764 556,-357.392 556,-357.392 556,-357.392 556,-282.622 556,-183.249 510.182,-70.2217 491.144,-27.5453"/>
<polygon fill="red" stroke="red" points="494.249,-25.9179 486.925,-18.2623 487.876,-28.8143 494.249,-25.9179"/>
</g>
<!-- 91&#45;&gt;5 -->
<g id="edge66" class="edge"><title>91&#45;&gt;5</title>
<path fill="none" stroke="red" d="M249.902,-128.324C255.024,-125.535 260.736,-122.458 266,-119.698 338.073,-81.9139 424.649,-38.831 463.017,-19.8546"/>
<polygon fill="red" stroke="red" points="464.688,-22.933 472.104,-15.3659 461.588,-16.6571 464.688,-22.933"/>
</g>
</g>
</svg>
