<?xml version="1.0" encoding="UTF-8" standalone="no"?>
<!DOCTYPE svg PUBLIC "-//W3C//DTD SVG 1.1//EN"
 "http://www.w3.org/Graphics/SVG/1.1/DTD/svg11.dtd">
<!-- Generated by graphviz version 2.38.0 (20140413.2041)
 -->
<!-- Title: %3 Pages: 1 -->
<svg width="1994pt" height="1944pt"
 viewBox="0.00 0.00 1994.00 1944.49" xmlns="http://www.w3.org/2000/svg" xmlns:xlink="http://www.w3.org/1999/xlink">
<g id="graph0" class="graph" transform="scale(1 1) rotate(0) translate(4 1940.49)">
<title>%3</title>
<polygon fill="white" stroke="none" points="-4,4 -4,-1940.49 1990,-1940.49 1990,4 -4,4"/>
<!-- 1 -->
<g id="node1" class="node"><title>1</title>
<polygon fill="lightgray" stroke="black" points="1438.5,-1936.49 1417.5,-1936.49 1417.5,-1918.49 1438.5,-1918.49 1438.5,-1936.49"/>
<text text-anchor="middle" x="1428" y="-1925.29" font-family="Times New Roman,serif" font-size="9.00">1</text>
</g>
<!-- 5 -->
<g id="node5" class="node"><title>5</title>
<polygon fill="lightblue" stroke="black" points="427.5,-18 406.5,-18 406.5,-0 427.5,-0 427.5,-18"/>
<text text-anchor="middle" x="417" y="-6.8" font-family="Times New Roman,serif" font-size="9.00">5</text>
</g>
<!-- 1&#45;&gt;5 -->
<g id="edge1" class="edge"><title>1&#45;&gt;5</title>
<path fill="none" stroke="red" d="M1417.19,-1926.44C1316.3,-1925.84 537.735,-1920.04 308,-1882.49 167.235,-1859.49 0,-1934.97 0,-1792.34 0,-1792.34 0,-1792.34 0,-146.983 0,-100.877 8.33409,-80.5907 46,-54 103.095,-13.6933 326.97,-10.0674 396.371,-9.9289"/>
<polygon fill="red" stroke="red" points="396.469,-13.4288 406.47,-9.93247 396.472,-6.42884 396.469,-13.4288"/>
</g>
<!-- 37 -->
<g id="node6" class="node"><title>37</title>
<ellipse fill="none" stroke="black" cx="1569" cy="-665.855" rx="18.2703" ry="18.2703"/>
<text text-anchor="middle" x="1569" y="-663.655" font-family="Times New Roman,serif" font-size="9.00">37</text>
</g>
<!-- 1&#45;&gt;37 -->
<g id="edge13" class="edge"><title>1&#45;&gt;37</title>
<path fill="none" stroke="red" d="M1437.29,-1918.44C1458.57,-1899.05 1509,-1847.3 1509,-1792.34 1509,-1792.34 1509,-1792.34 1509,-1717.57 1509,-1616.39 1580,-1602.44 1580,-1501.26 1580,-1501.26 1580,-1501.26 1580,-816.051 1580,-773.489 1575.49,-724.281 1572.25,-694.377"/>
<polygon fill="red" stroke="red" points="1575.71,-693.831 1571.12,-684.281 1568.75,-694.607 1575.71,-693.831"/>
</g>
<!-- 31 -->
<g id="node7" class="node"><title>31</title>
<ellipse fill="none" stroke="black" cx="1872" cy="-1864.11" rx="18.2703" ry="18.2703"/>
<text text-anchor="middle" x="1872" y="-1861.91" font-family="Times New Roman,serif" font-size="9.00">31</text>
</g>
<!-- 1&#45;&gt;31 -->
<g id="edge21" class="edge"><title>1&#45;&gt;31</title>
<path fill="none" stroke="green" d="M1438.81,-1926.86C1487,-1928.17 1686.5,-1930.32 1840,-1882.49 1842.63,-1881.68 1845.28,-1880.63 1847.89,-1879.47"/>
<polygon fill="green" stroke="green" points="1849.59,-1882.53 1856.92,-1874.88 1846.42,-1876.29 1849.59,-1882.53"/>
</g>
<!-- 65 -->
<g id="node10" class="node"><title>65</title>
<ellipse fill="none" stroke="black" cx="736" cy="-1270.64" rx="18.2703" ry="18.2703"/>
<text text-anchor="middle" x="736" y="-1268.44" font-family="Times New Roman,serif" font-size="9.00">65</text>
</g>
<!-- 1&#45;&gt;65 -->
<g id="edge56" class="edge"><title>1&#45;&gt;65</title>
<path fill="none" stroke="green" d="M1417.45,-1926.37C1304.67,-1924.87 326,-1908.58 326,-1792.34 326,-1792.34 326,-1792.34 326,-1644.8 326,-1621.82 616.057,-1382.98 633,-1367.45 661.766,-1341.08 694.75,-1310.3 715.48,-1290.89"/>
<polygon fill="green" stroke="green" points="718.144,-1293.19 723.049,-1283.8 713.358,-1288.08 718.144,-1293.19"/>
</g>
<!-- 20 -->
<g id="node13" class="node"><title>20</title>
<ellipse fill="none" stroke="black" cx="1055" cy="-1791.34" rx="18.2703" ry="18.2703"/>
<text text-anchor="middle" x="1055" y="-1789.14" font-family="Times New Roman,serif" font-size="9.00">20</text>
</g>
<!-- 1&#45;&gt;20 -->
<g id="edge29" class="edge"><title>1&#45;&gt;20</title>
<path fill="none" stroke="red" d="M1417.24,-1922.62C1367.27,-1904.65 1157.14,-1829.08 1081.92,-1802.02"/>
<polygon fill="red" stroke="red" points="1082.83,-1798.63 1072.23,-1798.54 1080.46,-1805.22 1082.83,-1798.63"/>
</g>
<!-- 15 -->
<g id="node36" class="node"><title>15</title>
<ellipse fill="none" stroke="black" cx="576" cy="-892.649" rx="18.2703" ry="18.2703"/>
<text text-anchor="middle" x="576" y="-890.449" font-family="Times New Roman,serif" font-size="9.00">15</text>
</g>
<!-- 1&#45;&gt;15 -->
<g id="edge7" class="edge"><title>1&#45;&gt;15</title>
<path fill="none" stroke="red" d="M1417.18,-1926.39C1314.72,-1925.36 516.628,-1916.26 417,-1882.49 350.753,-1860.04 288,-1862.29 288,-1792.34 288,-1792.34 288,-1792.34 288,-1423.66 288,-1189.39 382.31,-1140.12 519,-949.862 529.147,-935.739 542.992,-921.992 554.496,-911.628"/>
<polygon fill="red" stroke="red" points="556.805,-914.258 562.012,-905.031 552.188,-908.997 556.805,-914.258"/>
</g>
<!-- 99 -->
<g id="node53" class="node"><title>99</title>
<ellipse fill="none" stroke="black" cx="1598" cy="-447.546" rx="18.2703" ry="18.2703"/>
<text text-anchor="middle" x="1598" y="-445.346" font-family="Times New Roman,serif" font-size="9.00">99</text>
</g>
<!-- 1&#45;&gt;99 -->
<g id="edge132" class="edge"><title>1&#45;&gt;99</title>
<path fill="none" stroke="red" d="M1438.65,-1925.31C1501.94,-1918.02 1826,-1876.56 1826,-1792.34 1826,-1792.34 1826,-1792.34 1826,-970.075 1826,-760.172 1669.03,-539.54 1615.58,-470.497"/>
<polygon fill="red" stroke="red" points="1618.22,-468.203 1609.31,-462.483 1612.71,-472.516 1618.22,-468.203"/>
</g>
<!-- 6 -->
<g id="node61" class="node"><title>6</title>
<ellipse fill="none" stroke="black" cx="1432" cy="-72.3848" rx="14.7" ry="14.7"/>
<text text-anchor="middle" x="1432" y="-70.1848" font-family="Times New Roman,serif" font-size="9.00">6</text>
</g>
<!-- 1&#45;&gt;6 -->
<g id="edge9" class="edge"><title>1&#45;&gt;6</title>
<path fill="none" stroke="green" d="M1438.59,-1926.1C1504.72,-1923.55 1859.24,-1908.72 1899,-1882.49 1937.07,-1857.39 1948,-1837.94 1948,-1792.34 1948,-1792.34 1948,-1792.34 1948,-740.453 1948,-486.652 1913.42,-398.536 1749,-205.196 1716.95,-167.507 1713.39,-150.541 1670,-126.77 1599.32,-88.0483 1502.2,-77.3951 1457.01,-74.4774"/>
<polygon fill="green" stroke="green" points="1457.12,-70.9779 1446.94,-73.902 1456.72,-77.9665 1457.12,-70.9779"/>
</g>
<!-- 2 -->
<g id="node2" class="node"><title>2</title>
<polygon fill="lightgray" stroke="black" points="215.5,-1055.67 194.5,-1055.67 194.5,-1037.67 215.5,-1037.67 215.5,-1055.67"/>
<text text-anchor="middle" x="205" y="-1044.47" font-family="Times New Roman,serif" font-size="9.00">2</text>
</g>
<!-- 2&#45;&gt;5 -->
<g id="edge2" class="edge"><title>2&#45;&gt;5</title>
<path fill="none" stroke="green" d="M199.918,-1037.46C186.653,-1015.2 152,-951.508 152,-893.649 152,-893.649 152,-893.649 152,-146.983 152,-37.2829 333.42,-15.3372 396.043,-11.0296"/>
<polygon fill="green" stroke="green" points="396.512,-14.5078 406.283,-10.4134 396.091,-7.52048 396.512,-14.5078"/>
</g>
<!-- 24 -->
<g id="node35" class="node"><title>24</title>
<ellipse fill="none" stroke="black" cx="902" cy="-971.075" rx="18.2703" ry="18.2703"/>
<text text-anchor="middle" x="902" y="-968.875" font-family="Times New Roman,serif" font-size="9.00">24</text>
</g>
<!-- 2&#45;&gt;24 -->
<g id="edge105" class="edge"><title>2&#45;&gt;24</title>
<path fill="none" stroke="green" d="M215.669,-1044.55C291.82,-1036.51 753.285,-987.778 873.425,-975.093"/>
<polygon fill="green" stroke="green" points="874.08,-978.543 883.657,-974.012 873.345,-971.582 874.08,-978.543"/>
</g>
<!-- 100 -->
<g id="node51" class="node"><title>100</title>
<ellipse fill="none" stroke="black" cx="239" cy="-971.075" rx="21.4286" ry="21.4286"/>
<text text-anchor="middle" x="239" y="-968.875" font-family="Times New Roman,serif" font-size="9.00">100</text>
</g>
<!-- 2&#45;&gt;100 -->
<g id="edge140" class="edge"><title>2&#45;&gt;100</title>
<path fill="none" stroke="green" d="M208.769,-1037.52C212.942,-1028.48 219.901,-1013.42 226.091,-1000.02"/>
<polygon fill="green" stroke="green" points="229.394,-1001.21 230.411,-990.668 223.04,-998.278 229.394,-1001.21"/>
</g>
<!-- 7 -->
<g id="node62" class="node"><title>7</title>
<ellipse fill="none" stroke="black" cx="364" cy="-665.855" rx="14.7" ry="14.7"/>
<text text-anchor="middle" x="364" y="-663.655" font-family="Times New Roman,serif" font-size="9.00">7</text>
</g>
<!-- 2&#45;&gt;7 -->
<g id="edge17" class="edge"><title>2&#45;&gt;7</title>
<path fill="none" stroke="red" d="M203.616,-1037.46C199.902,-1014.7 190,-948.813 190,-893.649 190,-893.649 190,-893.649 190,-816.051 190,-737.642 293.083,-691.547 340.564,-674.474"/>
<polygon fill="red" stroke="red" points="341.753,-677.766 350.055,-671.183 339.46,-671.152 341.753,-677.766"/>
</g>
<!-- 3 -->
<g id="node3" class="node"><title>3</title>
<polygon fill="lightgray" stroke="black" points="526.5,-1433.66 505.5,-1433.66 505.5,-1415.66 526.5,-1415.66 526.5,-1433.66"/>
<text text-anchor="middle" x="516" y="-1422.46" font-family="Times New Roman,serif" font-size="9.00">3</text>
</g>
<!-- 3&#45;&gt;5 -->
<g id="edge3" class="edge"><title>3&#45;&gt;5</title>
<path fill="none" stroke="green" d="M505.124,-1417.88C437.367,-1380.97 76,-1171.1 76,-893.649 76,-893.649 76,-893.649 76,-146.983 76,-100.061 87.6417,-81.0236 126,-54 169.761,-23.1704 336.831,-13.3316 396.042,-10.7755"/>
<polygon fill="green" stroke="green" points="396.527,-14.2589 406.378,-10.3574 396.244,-7.26458 396.527,-14.2589"/>
</g>
<!-- 121 -->
<g id="node8" class="node"><title>121</title>
<ellipse fill="none" stroke="black" cx="603" cy="-1346.24" rx="21.4286" ry="21.4286"/>
<text text-anchor="middle" x="603" y="-1344.04" font-family="Times New Roman,serif" font-size="9.00">121</text>
</g>
<!-- 3&#45;&gt;121 -->
<g id="edge147" class="edge"><title>3&#45;&gt;121</title>
<path fill="none" stroke="green" d="M525.311,-1415.48C538.159,-1404.2 561.758,-1383.47 579.588,-1367.8"/>
<polygon fill="green" stroke="green" points="582.111,-1370.25 587.314,-1361.02 577.491,-1364.99 582.111,-1370.25"/>
</g>
<!-- 58 -->
<g id="node14" class="node"><title>58</title>
<ellipse fill="none" stroke="black" cx="592" cy="-1270.64" rx="18.2703" ry="18.2703"/>
<text text-anchor="middle" x="592" y="-1268.44" font-family="Times New Roman,serif" font-size="9.00">58</text>
</g>
<!-- 3&#45;&gt;58 -->
<g id="edge94" class="edge"><title>3&#45;&gt;58</title>
<path fill="none" stroke="red" d="M520.086,-1415.49C531.134,-1393.39 561.939,-1331.77 579.437,-1296.77"/>
<polygon fill="red" stroke="red" points="582.651,-1298.17 583.992,-1287.66 576.39,-1295.04 582.651,-1298.17"/>
</g>
<!-- 3&#45;&gt;15 -->
<g id="edge38" class="edge"><title>3&#45;&gt;15</title>
<path fill="none" stroke="red" d="M516.942,-1415.34C523.438,-1357.96 561.64,-1020.5 572.887,-921.152"/>
<polygon fill="red" stroke="red" points="576.387,-921.34 574.035,-911.01 569.432,-920.553 576.387,-921.34"/>
</g>
<!-- 3&#45;&gt;6 -->
<g id="edge5" class="edge"><title>3&#45;&gt;6</title>
<path fill="none" stroke="red" d="M511.531,-1415.47C490.454,-1376.06 402,-1201.49 402,-1047.67 402,-1047.67 402,-1047.67 402,-970.075 402,-832.698 462,-804.233 462,-666.855 462,-666.855 462,-666.855 462,-370.948 462,-247.101 569.464,-247.12 686,-205.196 804.788,-162.461 835.178,-151.363 959,-126.77 1128.27,-93.15 1336.13,-78.8562 1406.98,-74.7301"/>
<polygon fill="red" stroke="red" points="1407.36,-78.2141 1417.15,-74.1538 1406.97,-71.2253 1407.36,-78.2141"/>
</g>
<!-- 4 -->
<g id="node4" class="node"><title>4</title>
<polygon fill="lightgray" stroke="black" points="1641.5,-1800.34 1620.5,-1800.34 1620.5,-1782.34 1641.5,-1782.34 1641.5,-1800.34"/>
<text text-anchor="middle" x="1631" y="-1789.14" font-family="Times New Roman,serif" font-size="9.00">4</text>
</g>
<!-- 4&#45;&gt;5 -->
<g id="edge27" class="edge"><title>4&#45;&gt;5</title>
<path fill="none" stroke="green" d="M1641.79,-1786.58C1677.26,-1773.48 1788,-1726.2 1788,-1646.8 1788,-1646.8 1788,-1646.8 1788,-970.075 1788,-833.769 1834,-803.161 1834,-666.855 1834,-666.855 1834,-666.855 1834,-592.085 1834,-444.698 1986,-444.738 1986,-297.35 1986,-297.35 1986,-297.35 1986,-146.983 1986,-90.0838 1949.92,-77.2693 1898,-54 1828.27,-22.7486 611.6,-11.6008 437.639,-10.1639"/>
<polygon fill="green" stroke="green" points="437.546,-6.66315 427.518,-10.0817 437.489,-13.6629 437.546,-6.66315"/>
</g>
<!-- 48 -->
<g id="node9" class="node"><title>48</title>
<ellipse fill="none" stroke="black" cx="1608" cy="-1718.57" rx="18.2703" ry="18.2703"/>
<text text-anchor="middle" x="1608" y="-1716.37" font-family="Times New Roman,serif" font-size="9.00">48</text>
</g>
<!-- 4&#45;&gt;48 -->
<g id="edge35" class="edge"><title>4&#45;&gt;48</title>
<path fill="none" stroke="red" d="M1628.36,-1782.22C1625.49,-1773.4 1620.76,-1758.83 1616.58,-1745.97"/>
<polygon fill="red" stroke="red" points="1619.81,-1744.59 1613.39,-1736.16 1613.15,-1746.75 1619.81,-1744.59"/>
</g>
<!-- 4&#45;&gt;24 -->
<g id="edge42" class="edge"><title>4&#45;&gt;24</title>
<path fill="none" stroke="green" d="M1620.42,-1789.28C1569.76,-1783.79 1348.09,-1755.35 1196,-1664.18 1176.62,-1652.57 1068,-1536.38 1054,-1518.65 1030.29,-1488.62 1028.17,-1478.39 1008,-1445.88 960.226,-1368.84 902,-1362.28 902,-1271.64 902,-1271.64 902,-1271.64 902,-1121.27 902,-1078.82 902,-1029.58 902,-999.642"/>
<polygon fill="green" stroke="green" points="905.5,-999.532 902,-989.532 898.5,-999.532 905.5,-999.532"/>
</g>
<!-- 56 -->
<g id="node37" class="node"><title>56</title>
<ellipse fill="none" stroke="black" cx="1665" cy="-892.649" rx="18.2703" ry="18.2703"/>
<text text-anchor="middle" x="1665" y="-890.449" font-family="Times New Roman,serif" font-size="9.00">56</text>
</g>
<!-- 4&#45;&gt;56 -->
<g id="edge92" class="edge"><title>4&#45;&gt;56</title>
<path fill="none" stroke="red" d="M1633.99,-1782.05C1641.57,-1760.23 1661,-1699.24 1661,-1646.8 1661,-1646.8 1661,-1646.8 1661,-1045.67 1661,-1002.41 1662.64,-952.237 1663.82,-921.732"/>
<polygon fill="red" stroke="red" points="1667.33,-921.564 1664.23,-911.432 1660.33,-921.285 1667.33,-921.564"/>
</g>
<!-- 23 -->
<g id="node49" class="node"><title>23</title>
<ellipse fill="none" stroke="black" cx="1702" cy="-817.051" rx="18.2703" ry="18.2703"/>
<text text-anchor="middle" x="1702" y="-814.851" font-family="Times New Roman,serif" font-size="9.00">23</text>
</g>
<!-- 4&#45;&gt;23 -->
<g id="edge23" class="edge"><title>4&#45;&gt;23</title>
<path fill="none" stroke="red" d="M1639.56,-1782.18C1660.2,-1761.59 1711,-1705 1711,-1646.8 1711,-1646.8 1711,-1646.8 1711,-970.075 1711,-926.512 1707.27,-876.05 1704.61,-845.615"/>
<polygon fill="red" stroke="red" points="1708.07,-845.005 1703.69,-835.358 1701.1,-845.632 1708.07,-845.005"/>
</g>
<!-- 11 -->
<g id="node50" class="node"><title>11</title>
<ellipse fill="none" stroke="black" cx="500" cy="-817.051" rx="18.2703" ry="18.2703"/>
<text text-anchor="middle" x="500" y="-814.851" font-family="Times New Roman,serif" font-size="9.00">11</text>
</g>
<!-- 4&#45;&gt;11 -->
<g id="edge85" class="edge"><title>4&#45;&gt;11</title>
<path fill="none" stroke="green" d="M1620.47,-1790.64C1561.04,-1792.06 1261.88,-1795.91 1028,-1736.95 710.016,-1656.8 606.239,-1650.52 350,-1445.88 282.661,-1392.1 262.638,-1370.98 236,-1289.02 218.312,-1234.6 253.655,-1154.5 274,-1101.06 318.632,-983.813 430.973,-877.418 478.37,-836.178"/>
<polygon fill="green" stroke="green" points="480.876,-838.639 486.176,-829.466 476.312,-833.332 480.876,-838.639"/>
</g>
<!-- 4&#45;&gt;6 -->
<g id="edge28" class="edge"><title>4&#45;&gt;6</title>
<path fill="none" stroke="green" d="M1641.56,-1784.44C1670.68,-1767.31 1750,-1714.45 1750,-1646.8 1750,-1646.8 1750,-1646.8 1750,-970.075 1750,-833.769 1796,-803.161 1796,-666.855 1796,-666.855 1796,-666.855 1796,-370.948 1796,-299.089 1646,-163.1 1584,-126.77 1542.34,-102.357 1487.74,-86.592 1456.6,-78.9139"/>
<polygon fill="green" stroke="green" points="1457.16,-75.4501 1446.62,-76.5344 1455.54,-82.2591 1457.16,-75.4501"/>
</g>
<!-- 4&#45;&gt;7 -->
<g id="edge14" class="edge"><title>4&#45;&gt;7</title>
<path fill="none" stroke="red" d="M1620.38,-1789.63C1576.26,-1786.5 1403.33,-1772.51 1266,-1736.95 1177.45,-1714.03 561.51,-1509.71 496,-1445.88 339.433,-1293.33 364,-1190.67 364,-972.075 364,-972.075 364,-972.075 364,-816.051 364,-771.953 364,-720.523 364,-691.016"/>
<polygon fill="red" stroke="red" points="367.5,-690.842 364,-680.842 360.5,-690.842 367.5,-690.842"/>
</g>
<!-- 37&#45;&gt;5 -->
<g id="edge96" class="edge"><title>37&#45;&gt;5</title>
<path fill="none" stroke="red" d="M1584.24,-655.453C1615.08,-635.116 1682,-583.795 1682,-521.316 1682,-521.316 1682,-521.316 1682,-370.948 1682,-276.814 1797.96,-320.41 1850,-241.966 1896.47,-171.917 1929.53,-114.332 1871,-54 1844.88,-27.0764 614.119,-12.2208 437.915,-10.2306"/>
<polygon fill="red" stroke="red" points="437.7,-6.72803 427.661,-10.1159 437.621,-13.7276 437.7,-6.72803"/>
</g>
<!-- 84 -->
<g id="node40" class="node"><title>84</title>
<ellipse fill="none" stroke="black" cx="1522" cy="-593.085" rx="18.2703" ry="18.2703"/>
<text text-anchor="middle" x="1522" y="-590.885" font-family="Times New Roman,serif" font-size="9.00">84</text>
</g>
<!-- 37&#45;&gt;84 -->
<g id="edge144" class="edge"><title>37&#45;&gt;84</title>
<path fill="none" stroke="red" d="M1559.26,-650.191C1552.96,-640.702 1544.62,-628.144 1537.43,-617.315"/>
<polygon fill="red" stroke="red" points="1540.17,-615.124 1531.73,-608.73 1534.34,-618.997 1540.17,-615.124"/>
</g>
<!-- 30 -->
<g id="node52" class="node"><title>30</title>
<ellipse fill="none" stroke="black" cx="1518" cy="-520.316" rx="18.2703" ry="18.2703"/>
<text text-anchor="middle" x="1518" y="-518.116" font-family="Times New Roman,serif" font-size="9.00">30</text>
</g>
<!-- 37&#45;&gt;30 -->
<g id="edge16" class="edge"><title>37&#45;&gt;30</title>
<path fill="none" stroke="green" d="M1566.76,-647.444C1564.01,-628.937 1558.5,-599.044 1549,-574.701 1544.97,-564.367 1539.13,-553.664 1533.6,-544.578"/>
<polygon fill="green" stroke="green" points="1536.55,-542.697 1528.26,-536.105 1530.63,-546.431 1536.55,-542.697"/>
</g>
<!-- 31&#45;&gt;20 -->
<g id="edge22" class="edge"><title>31&#45;&gt;20</title>
<path fill="none" stroke="red" d="M1853.79,-1861.53C1748.1,-1852.38 1213.67,-1806.08 1083.58,-1794.81"/>
<polygon fill="red" stroke="red" points="1083.52,-1791.3 1073.25,-1793.92 1082.91,-1798.27 1083.52,-1791.3"/>
</g>
<!-- 31&#45;&gt;6 -->
<g id="edge71" class="edge"><title>31&#45;&gt;6</title>
<path fill="none" stroke="red" d="M1872,-1845.43C1872,-1818.34 1872,-1764.92 1872,-1719.57 1872,-1719.57 1872,-1719.57 1872,-592.085 1872,-519.158 1815.59,-339.845 1777,-277.966 1754.82,-242.398 1746.23,-235.238 1717,-205.196 1680,-167.171 1673.76,-151.833 1627,-126.77 1570.69,-96.587 1495.86,-82.336 1457.33,-76.6204"/>
<polygon fill="red" stroke="red" points="1457.42,-73.0989 1447.03,-75.1702 1456.44,-80.0305 1457.42,-73.0989"/>
</g>
<!-- 91 -->
<g id="node66" class="node"><title>91</title>
<ellipse fill="none" stroke="black" cx="1844" cy="-72.3848" rx="18.2703" ry="18.2703"/>
<text text-anchor="middle" x="1844" y="-70.1848" font-family="Times New Roman,serif" font-size="9.00">91</text>
</g>
<!-- 31&#45;&gt;91 -->
<g id="edge122" class="edge"><title>31&#45;&gt;91</title>
<path fill="none" stroke="green" d="M1879.15,-1847.12C1890.16,-1820.98 1910,-1767.26 1910,-1719.57 1910,-1719.57 1910,-1719.57 1910,-740.453 1910,-641.605 1948,-620.164 1948,-521.316 1948,-521.316 1948,-521.316 1948,-222.581 1948,-166.014 1897.06,-115.551 1866.49,-90.3528"/>
<polygon fill="green" stroke="green" points="1868.46,-87.446 1858.46,-83.9315 1864.08,-92.9118 1868.46,-87.446"/>
</g>
<!-- 121&#45;&gt;58 -->
<g id="edge148" class="edge"><title>121&#45;&gt;58</title>
<path fill="none" stroke="red" d="M599.994,-1325.13C598.8,-1317.14 597.407,-1307.82 596.122,-1299.22"/>
<polygon fill="red" stroke="red" points="599.568,-1298.59 594.628,-1289.22 592.645,-1299.63 599.568,-1298.59"/>
</g>
<!-- 53 -->
<g id="node11" class="node"><title>53</title>
<ellipse fill="none" stroke="black" cx="1420" cy="-1645.8" rx="18.2703" ry="18.2703"/>
<text text-anchor="middle" x="1420" y="-1643.6" font-family="Times New Roman,serif" font-size="9.00">53</text>
</g>
<!-- 48&#45;&gt;53 -->
<g id="edge37" class="edge"><title>48&#45;&gt;53</title>
<path fill="none" stroke="green" d="M1590.98,-1711.16C1558.14,-1698.8 1485.79,-1671.57 1446.56,-1656.8"/>
<polygon fill="green" stroke="green" points="1447.7,-1653.49 1437.11,-1653.24 1445.24,-1660.04 1447.7,-1653.49"/>
</g>
<!-- 52 -->
<g id="node23" class="node"><title>52</title>
<ellipse fill="none" stroke="black" cx="1344" cy="-1197.87" rx="18.2703" ry="18.2703"/>
<text text-anchor="middle" x="1344" y="-1195.67" font-family="Times New Roman,serif" font-size="9.00">52</text>
</g>
<!-- 48&#45;&gt;52 -->
<g id="edge48" class="edge"><title>48&#45;&gt;52</title>
<path fill="none" stroke="green" d="M1601.72,-1701.28C1580.72,-1647.14 1510.48,-1468.52 1443,-1325.02 1427.47,-1292.01 1427.56,-1280.93 1405,-1252.25 1394.04,-1238.32 1379.1,-1225.18 1366.75,-1215.42"/>
<polygon fill="green" stroke="green" points="1368.76,-1212.55 1358.69,-1209.24 1364.5,-1218.1 1368.76,-1212.55"/>
</g>
<!-- 80 -->
<g id="node57" class="node"><title>80</title>
<ellipse fill="none" stroke="black" cx="1674" cy="-741.453" rx="18.2703" ry="18.2703"/>
<text text-anchor="middle" x="1674" y="-739.253" font-family="Times New Roman,serif" font-size="9.00">80</text>
</g>
<!-- 48&#45;&gt;80 -->
<g id="edge91" class="edge"><title>48&#45;&gt;80</title>
<path fill="none" stroke="red" d="M1610.23,-1699.92C1613.44,-1672.88 1619,-1619.52 1619,-1574.03 1619,-1574.03 1619,-1574.03 1619,-970.075 1619,-894.959 1647.65,-809.701 1663.59,-768.069"/>
<polygon fill="red" stroke="red" points="1666.88,-769.28 1667.26,-758.691 1660.36,-766.734 1666.88,-769.28"/>
</g>
<!-- 69 -->
<g id="node25" class="node"><title>69</title>
<ellipse fill="none" stroke="black" cx="736" cy="-1197.87" rx="18.2703" ry="18.2703"/>
<text text-anchor="middle" x="736" y="-1195.67" font-family="Times New Roman,serif" font-size="9.00">69</text>
</g>
<!-- 65&#45;&gt;69 -->
<g id="edge72" class="edge"><title>65&#45;&gt;69</title>
<path fill="none" stroke="red" d="M736,-1252.15C736,-1244.46 736,-1235.25 736,-1226.67"/>
<polygon fill="red" stroke="red" points="739.5,-1226.65 736,-1216.65 732.5,-1226.65 739.5,-1226.65"/>
</g>
<!-- 65&#45;&gt;24 -->
<g id="edge57" class="edge"><title>65&#45;&gt;24</title>
<path fill="none" stroke="red" d="M745.537,-1254.51C759.972,-1231.23 787.727,-1184.97 807,-1143.48 830.027,-1093.92 821.349,-1074.82 850,-1028.29 858.442,-1014.58 870.537,-1001.26 880.938,-991.025"/>
<polygon fill="red" stroke="red" points="883.645,-993.281 888.472,-983.85 878.817,-988.212 883.645,-993.281"/>
</g>
<!-- 75 -->
<g id="node38" class="node"><title>75</title>
<ellipse fill="none" stroke="black" cx="986" cy="-1197.87" rx="18.2703" ry="18.2703"/>
<text text-anchor="middle" x="986" y="-1195.67" font-family="Times New Roman,serif" font-size="9.00">75</text>
</g>
<!-- 65&#45;&gt;75 -->
<g id="edge118" class="edge"><title>65&#45;&gt;75</title>
<path fill="none" stroke="green" d="M753.58,-1264.66C796.523,-1252.51 907.015,-1221.23 958.648,-1206.61"/>
<polygon fill="green" stroke="green" points="959.771,-1209.93 968.44,-1203.84 957.865,-1203.2 959.771,-1209.93"/>
</g>
<!-- 22 -->
<g id="node43" class="node"><title>22</title>
<ellipse fill="none" stroke="black" cx="875" cy="-817.051" rx="18.2703" ry="18.2703"/>
<text text-anchor="middle" x="875" y="-814.851" font-family="Times New Roman,serif" font-size="9.00">22</text>
</g>
<!-- 65&#45;&gt;22 -->
<g id="edge58" class="edge"><title>65&#45;&gt;22</title>
<path fill="none" stroke="red" d="M726.824,-1254.24C720.973,-1243.83 713.643,-1229.59 709,-1216.25 695.136,-1176.42 690,-1165.45 690,-1123.27 690,-1123.27 690,-1123.27 690,-970.075 690,-889.375 796.38,-843.647 847.803,-826.257"/>
<polygon fill="red" stroke="red" points="849.173,-829.492 857.596,-823.065 847.003,-822.837 849.173,-829.492"/>
</g>
<!-- 96 -->
<g id="node12" class="node"><title>96</title>
<ellipse fill="none" stroke="black" cx="1455" cy="-1573.03" rx="18.2703" ry="18.2703"/>
<text text-anchor="middle" x="1455" y="-1570.83" font-family="Times New Roman,serif" font-size="9.00">96</text>
</g>
<!-- 53&#45;&gt;96 -->
<g id="edge101" class="edge"><title>53&#45;&gt;96</title>
<path fill="none" stroke="green" d="M1427.77,-1629.09C1432.1,-1620.33 1437.6,-1609.2 1442.53,-1599.25"/>
<polygon fill="green" stroke="green" points="1445.72,-1600.7 1447.01,-1590.18 1439.44,-1597.6 1445.72,-1600.7"/>
</g>
<!-- 64 -->
<g id="node17" class="node"><title>64</title>
<ellipse fill="none" stroke="black" cx="1436" cy="-1500.26" rx="18.2703" ry="18.2703"/>
<text text-anchor="middle" x="1436" y="-1498.06" font-family="Times New Roman,serif" font-size="9.00">64</text>
</g>
<!-- 53&#45;&gt;64 -->
<g id="edge53" class="edge"><title>53&#45;&gt;64</title>
<path fill="none" stroke="red" d="M1421.25,-1627.15C1422.61,-1608.95 1425.01,-1579.77 1428,-1554.65 1429.01,-1546.14 1430.32,-1536.9 1431.59,-1528.54"/>
<polygon fill="red" stroke="red" points="1435.07,-1528.95 1433.14,-1518.54 1428.15,-1527.88 1435.07,-1528.95"/>
</g>
<!-- 54 -->
<g id="node24" class="node"><title>54</title>
<ellipse fill="none" stroke="black" cx="1094" cy="-1424.66" rx="18.2703" ry="18.2703"/>
<text text-anchor="middle" x="1094" y="-1422.46" font-family="Times New Roman,serif" font-size="9.00">54</text>
</g>
<!-- 53&#45;&gt;54 -->
<g id="edge66" class="edge"><title>53&#45;&gt;54</title>
<path fill="none" stroke="red" d="M1405.15,-1634.81C1353.38,-1600.02 1180.67,-1483.92 1117.45,-1441.43"/>
<polygon fill="red" stroke="red" points="1119.19,-1438.38 1108.94,-1435.71 1115.29,-1444.19 1119.19,-1438.38"/>
</g>
<!-- 96&#45;&gt;64 -->
<g id="edge102" class="edge"><title>96&#45;&gt;64</title>
<path fill="none" stroke="green" d="M1450.4,-1554.9C1448.23,-1546.82 1445.59,-1536.98 1443.17,-1527.95"/>
<polygon fill="green" stroke="green" points="1446.53,-1526.99 1440.56,-1518.23 1439.77,-1528.8 1446.53,-1526.99"/>
</g>
<!-- 20&#45;&gt;5 -->
<g id="edge18" class="edge"><title>20&#45;&gt;5</title>
<path fill="none" stroke="red" d="M1036.47,-1789.81C938.573,-1786.9 484.254,-1771.57 433,-1736.95 261.502,-1621.14 38,-1100.59 38,-893.649 38,-893.649 38,-893.649 38,-146.983 38,-100.678 47.2401,-80.802 85,-54 135.43,-18.2045 331.297,-11.5165 396.072,-10.2783"/>
<polygon fill="red" stroke="red" points="396.321,-13.7747 406.262,-10.109 396.205,-6.77565 396.321,-13.7747"/>
</g>
<!-- 87 -->
<g id="node15" class="node"><title>87</title>
<ellipse fill="none" stroke="black" cx="1055" cy="-1718.57" rx="18.2703" ry="18.2703"/>
<text text-anchor="middle" x="1055" y="-1716.37" font-family="Times New Roman,serif" font-size="9.00">87</text>
</g>
<!-- 20&#45;&gt;87 -->
<g id="edge103" class="edge"><title>20&#45;&gt;87</title>
<path fill="none" stroke="red" d="M1055,-1772.85C1055,-1765.16 1055,-1755.95 1055,-1747.37"/>
<polygon fill="red" stroke="red" points="1058.5,-1747.35 1055,-1737.35 1051.5,-1747.35 1058.5,-1747.35"/>
</g>
<!-- 62 -->
<g id="node16" class="node"><title>62</title>
<ellipse fill="none" stroke="black" cx="1223" cy="-1645.8" rx="18.2703" ry="18.2703"/>
<text text-anchor="middle" x="1223" y="-1643.6" font-family="Times New Roman,serif" font-size="9.00">62</text>
</g>
<!-- 20&#45;&gt;62 -->
<g id="edge49" class="edge"><title>20&#45;&gt;62</title>
<path fill="none" stroke="green" d="M1068.75,-1778.59C1097.91,-1753.67 1166.18,-1695.35 1201.29,-1665.35"/>
<polygon fill="green" stroke="green" points="1203.73,-1667.87 1209.06,-1658.71 1199.19,-1662.54 1203.73,-1667.87"/>
</g>
<!-- 20&#45;&gt;52 -->
<g id="edge133" class="edge"><title>20&#45;&gt;52</title>
<path fill="none" stroke="red" d="M1063.04,-1774.46C1068.41,-1763.84 1075.63,-1749.56 1082,-1736.95 1130.96,-1639.97 1150.23,-1618.94 1192,-1518.65 1239.99,-1403.41 1211.02,-1355.62 1281,-1252.25 1291.35,-1236.96 1307.23,-1223.55 1320.46,-1213.99"/>
<polygon fill="red" stroke="red" points="1322.46,-1216.86 1328.68,-1208.28 1318.47,-1211.11 1322.46,-1216.86"/>
</g>
<!-- 20&#45;&gt;54 -->
<g id="edge64" class="edge"><title>20&#45;&gt;54</title>
<path fill="none" stroke="red" d="M1038.04,-1783.94C998.206,-1767.67 902,-1720.74 902,-1646.8 902,-1646.8 902,-1646.8 902,-1572.03 902,-1490.3 1013.4,-1448.15 1066.49,-1432.71"/>
<polygon fill="red" stroke="red" points="1067.59,-1436.04 1076.28,-1429.98 1065.71,-1429.3 1067.59,-1436.04"/>
</g>
<!-- 28 -->
<g id="node31" class="node"><title>28</title>
<ellipse fill="none" stroke="black" cx="1162" cy="-1046.67" rx="18.2703" ry="18.2703"/>
<text text-anchor="middle" x="1162" y="-1044.47" font-family="Times New Roman,serif" font-size="9.00">28</text>
</g>
<!-- 20&#45;&gt;28 -->
<g id="edge33" class="edge"><title>20&#45;&gt;28</title>
<path fill="none" stroke="green" d="M1045.2,-1775.65C1038.91,-1765.32 1031.33,-1750.9 1028,-1736.95 1024.21,-1721.06 1022.98,-1715.74 1028,-1700.18 1058.59,-1605.51 1126.52,-1612.69 1159,-1518.65 1213.47,-1360.92 1170.67,-1310.32 1174,-1143.48 1174.38,-1124.63 1176.08,-1119.8 1174,-1101.06 1173.04,-1092.43 1171.24,-1083.15 1169.31,-1074.8"/>
<polygon fill="green" stroke="green" points="1172.65,-1073.7 1166.87,-1064.82 1165.85,-1075.37 1172.65,-1073.7"/>
</g>
<!-- 20&#45;&gt;24 -->
<g id="edge60" class="edge"><title>20&#45;&gt;24</title>
<path fill="none" stroke="green" d="M1036.94,-1787.31C1008.55,-1781.75 953.023,-1767.56 917,-1736.95 881.577,-1706.86 864,-1693.28 864,-1646.8 864,-1646.8 864,-1646.8 864,-1121.27 864,-1076.8 880.052,-1027.11 891.29,-997.775"/>
<polygon fill="green" stroke="green" points="894.618,-998.875 895.03,-988.289 888.106,-996.308 894.618,-998.875"/>
</g>
<!-- 20&#45;&gt;15 -->
<g id="edge10" class="edge"><title>20&#45;&gt;15</title>
<path fill="none" stroke="red" d="M1036.51,-1790.33C930.242,-1789.8 402,-1780.43 402,-1646.8 402,-1646.8 402,-1646.8 402,-1423.66 402,-1219.29 520.233,-991.709 561.776,-918.053"/>
<polygon fill="red" stroke="red" points="564.98,-919.5 566.89,-909.079 558.898,-916.034 564.98,-919.5"/>
</g>
<!-- 20&#45;&gt;30 -->
<g id="edge61" class="edge"><title>20&#45;&gt;30</title>
<path fill="none" stroke="green" d="M1073.45,-1789.41C1134.31,-1785.42 1331.4,-1764.95 1447,-1664.18 1485.38,-1630.73 1542,-1463.82 1542,-1425.66 1542,-1425.66 1542,-1425.66 1542,-816.051 1542,-722.757 1505.51,-704.169 1495,-611.47 1493.16,-595.232 1491.7,-590.706 1495,-574.701 1497.04,-564.829 1500.98,-554.535 1505.04,-545.65"/>
<polygon fill="green" stroke="green" points="1508.19,-547.174 1509.4,-536.648 1501.89,-544.121 1508.19,-547.174"/>
</g>
<!-- 58&#45;&gt;52 -->
<g id="edge149" class="edge"><title>58&#45;&gt;52</title>
<path fill="none" stroke="red" d="M610.192,-1266.57C633.16,-1262.78 673.915,-1256.33 709,-1252.25 829.321,-1238.27 1208.42,-1209.15 1315.55,-1201.02"/>
<polygon fill="red" stroke="red" points="1315.9,-1204.5 1325.6,-1200.26 1315.37,-1197.52 1315.9,-1204.5"/>
</g>
<!-- 58&#45;&gt;15 -->
<g id="edge95" class="edge"><title>58&#45;&gt;15</title>
<path fill="none" stroke="green" d="M592,-1252.07C592,-1224.59 592,-1169.77 592,-1123.27 592,-1123.27 592,-1123.27 592,-1045.67 592,-1001.95 585.372,-951.531 580.648,-921.151"/>
<polygon fill="green" stroke="green" points="584.046,-920.235 579.009,-910.914 577.134,-921.341 584.046,-920.235"/>
</g>
<!-- 58&#45;&gt;11 -->
<g id="edge111" class="edge"><title>58&#45;&gt;11</title>
<path fill="none" stroke="red" d="M588.506,-1252.49C574.531,-1183.89 522.59,-928.934 505.494,-845.02"/>
<polygon fill="red" stroke="red" points="508.924,-844.319 503.498,-835.219 502.064,-845.717 508.924,-844.319"/>
</g>
<!-- 87&#45;&gt;62 -->
<g id="edge104" class="edge"><title>87&#45;&gt;62</title>
<path fill="none" stroke="red" d="M1071.72,-1710.53C1101.03,-1698.18 1161.88,-1672.55 1196.81,-1657.83"/>
<polygon fill="red" stroke="red" points="1198.49,-1660.92 1206.34,-1653.82 1195.77,-1654.47 1198.49,-1660.92"/>
</g>
<!-- 87&#45;&gt;7 -->
<g id="edge155" class="edge"><title>87&#45;&gt;7</title>
<path fill="none" stroke="green" d="M1037.76,-1711.9C937.255,-1678.45 428.855,-1503.79 350,-1367.45 290.123,-1263.92 305.538,-1220.48 312,-1101.06 315.116,-1043.48 326,-1029.74 326,-972.075 326,-972.075 326,-972.075 326,-816.051 326,-769.868 343.31,-718.063 354.564,-689.262"/>
<polygon fill="green" stroke="green" points="357.907,-690.328 358.393,-679.745 351.413,-687.716 357.907,-690.328"/>
</g>
<!-- 59 -->
<g id="node19" class="node"><title>59</title>
<ellipse fill="none" stroke="black" cx="1214" cy="-1573.03" rx="18.2703" ry="18.2703"/>
<text text-anchor="middle" x="1214" y="-1570.83" font-family="Times New Roman,serif" font-size="9.00">59</text>
</g>
<!-- 62&#45;&gt;59 -->
<g id="edge50" class="edge"><title>62&#45;&gt;59</title>
<path fill="none" stroke="green" d="M1220.78,-1627.31C1219.78,-1619.51 1218.59,-1610.14 1217.49,-1601.44"/>
<polygon fill="green" stroke="green" points="1220.93,-1600.8 1216.2,-1591.32 1213.99,-1601.68 1220.93,-1600.8"/>
</g>
<!-- 21 -->
<g id="node59" class="node"><title>21</title>
<ellipse fill="none" stroke="black" cx="1386" cy="-223.581" rx="18.2703" ry="18.2703"/>
<text text-anchor="middle" x="1386" y="-221.381" font-family="Times New Roman,serif" font-size="9.00">21</text>
</g>
<!-- 62&#45;&gt;21 -->
<g id="edge52" class="edge"><title>62&#45;&gt;21</title>
<path fill="none" stroke="red" d="M1232.34,-1629.64C1256.42,-1590.87 1323.21,-1485.4 1387,-1403.45 1435.11,-1341.63 1504,-1349.97 1504,-1271.64 1504,-1271.64 1504,-1271.64 1504,-816.051 1504,-621.62 1420.52,-585.489 1392,-393.161 1384.74,-344.231 1384.45,-286.481 1385.09,-252.85"/>
<polygon fill="red" stroke="red" points="1388.6,-252.497 1385.34,-242.417 1381.6,-252.333 1388.6,-252.497"/>
</g>
<!-- 130 -->
<g id="node18" class="node"><title>130</title>
<ellipse fill="none" stroke="black" cx="1417" cy="-1424.66" rx="21.4286" ry="21.4286"/>
<text text-anchor="middle" x="1417" y="-1422.46" font-family="Times New Roman,serif" font-size="9.00">130</text>
</g>
<!-- 64&#45;&gt;130 -->
<g id="edge139" class="edge"><title>64&#45;&gt;130</title>
<path fill="none" stroke="green" d="M1431.59,-1482.19C1429.54,-1474.23 1427.03,-1464.52 1424.68,-1455.41"/>
<polygon fill="green" stroke="green" points="1428.01,-1454.31 1422.12,-1445.51 1421.23,-1456.06 1428.01,-1454.31"/>
</g>
<!-- 64&#45;&gt;52 -->
<g id="edge54" class="edge"><title>64&#45;&gt;52</title>
<path fill="none" stroke="red" d="M1441.33,-1482.45C1446.67,-1463.17 1453.25,-1430.7 1447,-1403.45 1430.68,-1332.35 1384.86,-1258.09 1360.2,-1221.72"/>
<polygon fill="red" stroke="red" points="1362.96,-1219.56 1354.41,-1213.31 1357.2,-1223.53 1362.96,-1219.56"/>
</g>
<!-- 140 -->
<g id="node20" class="node"><title>140</title>
<ellipse fill="none" stroke="black" cx="1379" cy="-1346.24" rx="21.4286" ry="21.4286"/>
<text text-anchor="middle" x="1379" y="-1344.04" font-family="Times New Roman,serif" font-size="9.00">140</text>
</g>
<!-- 130&#45;&gt;140 -->
<g id="edge153" class="edge"><title>130&#45;&gt;140</title>
<path fill="none" stroke="green" d="M1407.8,-1405.16C1403.27,-1396.06 1397.72,-1384.89 1392.71,-1374.81"/>
<polygon fill="green" stroke="green" points="1395.7,-1372.96 1388.11,-1365.57 1389.43,-1376.08 1395.7,-1372.96"/>
</g>
<!-- 81 -->
<g id="node22" class="node"><title>81</title>
<ellipse fill="none" stroke="black" cx="1132" cy="-1500.26" rx="18.2703" ry="18.2703"/>
<text text-anchor="middle" x="1132" y="-1498.06" font-family="Times New Roman,serif" font-size="9.00">81</text>
</g>
<!-- 59&#45;&gt;81 -->
<g id="edge127" class="edge"><title>59&#45;&gt;81</title>
<path fill="none" stroke="green" d="M1200.46,-1560.34C1187.64,-1549.28 1168.19,-1532.5 1153.3,-1519.64"/>
<polygon fill="green" stroke="green" points="1155.42,-1516.85 1145.56,-1512.96 1150.84,-1522.15 1155.42,-1516.85"/>
</g>
<!-- 59&#45;&gt;54 -->
<g id="edge45" class="edge"><title>59&#45;&gt;54</title>
<path fill="none" stroke="red" d="M1197.15,-1564.84C1168.03,-1552.26 1110.79,-1526.81 1105,-1518.65 1091.61,-1499.76 1089.72,-1473.11 1090.67,-1453.18"/>
<polygon fill="red" stroke="red" points="1094.16,-1453.4 1091.41,-1443.17 1087.18,-1452.89 1094.16,-1453.4"/>
</g>
<!-- 61 -->
<g id="node32" class="node"><title>61</title>
<ellipse fill="none" stroke="black" cx="948" cy="-1122.27" rx="18.2703" ry="18.2703"/>
<text text-anchor="middle" x="948" y="-1120.07" font-family="Times New Roman,serif" font-size="9.00">61</text>
</g>
<!-- 59&#45;&gt;61 -->
<g id="edge51" class="edge"><title>59&#45;&gt;61</title>
<path fill="none" stroke="red" d="M1197.17,-1565C1163.09,-1550.74 1089.04,-1519.68 1088,-1518.65 982.055,-1412.96 955.988,-1222.17 949.826,-1151.01"/>
<polygon fill="red" stroke="red" points="953.284,-1150.34 948.999,-1140.65 946.306,-1150.9 953.284,-1150.34"/>
</g>
<!-- 125 -->
<g id="node46" class="node"><title>125</title>
<ellipse fill="none" stroke="black" cx="1422" cy="-371.948" rx="21.4286" ry="21.4286"/>
<text text-anchor="middle" x="1422" y="-369.748" font-family="Times New Roman,serif" font-size="9.00">125</text>
</g>
<!-- 59&#45;&gt;125 -->
<g id="edge109" class="edge"><title>59&#45;&gt;125</title>
<path fill="none" stroke="red" d="M1227.95,-1560.98C1239.86,-1550.96 1256.79,-1535.26 1268,-1518.65 1320.18,-1441.33 1298.51,-1403.46 1349,-1325.02 1390.39,-1260.73 1466,-1275.34 1466,-1198.87 1466,-1198.87 1466,-1198.87 1466,-816.051 1466,-660.165 1438.7,-474.933 1427.11,-403.307"/>
<polygon fill="red" stroke="red" points="1430.52,-402.497 1425.45,-393.193 1423.61,-403.628 1430.52,-402.497"/>
</g>
<!-- 19 -->
<g id="node56" class="node"><title>19</title>
<ellipse fill="none" stroke="black" cx="1451" cy="-296.35" rx="18.2703" ry="18.2703"/>
<text text-anchor="middle" x="1451" y="-294.15" font-family="Times New Roman,serif" font-size="9.00">19</text>
</g>
<!-- 59&#45;&gt;19 -->
<g id="edge113" class="edge"><title>59&#45;&gt;19</title>
<path fill="none" stroke="red" d="M1215.59,-1554.6C1221.04,-1503.28 1242.97,-1350.2 1317,-1252.25 1334.39,-1229.24 1353.44,-1239.14 1371,-1216.25 1419.14,-1153.5 1428,-1126.76 1428,-1047.67 1428,-1047.67 1428,-1047.67 1428,-970.075 1428,-893.324 1426.1,-873.003 1407,-798.666 1380.88,-696.995 1318.3,-678.776 1332,-574.701 1345.45,-472.532 1338.27,-438.667 1392,-350.735 1401.07,-335.891 1415.5,-322.732 1427.81,-313.193"/>
<polygon fill="red" stroke="red" points="1429.96,-315.957 1435.91,-307.191 1425.79,-310.334 1429.96,-315.957"/>
</g>
<!-- 82 -->
<g id="node21" class="node"><title>82</title>
<ellipse fill="none" stroke="black" cx="1344" cy="-1270.64" rx="18.2703" ry="18.2703"/>
<text text-anchor="middle" x="1344" y="-1268.44" font-family="Times New Roman,serif" font-size="9.00">82</text>
</g>
<!-- 140&#45;&gt;82 -->
<g id="edge154" class="edge"><title>140&#45;&gt;82</title>
<path fill="none" stroke="green" d="M1370.17,-1326.66C1365.85,-1317.59 1360.6,-1306.55 1355.94,-1296.74"/>
<polygon fill="green" stroke="green" points="1358.98,-1294.99 1351.52,-1287.46 1352.66,-1298 1358.98,-1294.99"/>
</g>
<!-- 82&#45;&gt;52 -->
<g id="edge121" class="edge"><title>82&#45;&gt;52</title>
<path fill="none" stroke="red" d="M1344,-1252.15C1344,-1244.46 1344,-1235.25 1344,-1226.67"/>
<polygon fill="red" stroke="red" points="1347.5,-1226.65 1344,-1216.65 1340.5,-1226.65 1347.5,-1226.65"/>
</g>
<!-- 81&#45;&gt;54 -->
<g id="edge128" class="edge"><title>81&#45;&gt;54</title>
<path fill="none" stroke="green" d="M1123.94,-1483.65C1118.95,-1473.99 1112.44,-1461.38 1106.76,-1450.38"/>
<polygon fill="green" stroke="green" points="1109.74,-1448.53 1102.05,-1441.25 1103.53,-1451.74 1109.74,-1448.53"/>
</g>
<!-- 52&#45;&gt;61 -->
<g id="edge46" class="edge"><title>52&#45;&gt;61</title>
<path fill="none" stroke="red" d="M1325.81,-1193.64C1279.77,-1185.46 1154.89,-1163.14 1051,-1143.48 1025.54,-1138.67 996.579,-1132.96 975.866,-1128.85"/>
<polygon fill="red" stroke="red" points="976.34,-1125.37 965.849,-1126.85 974.972,-1132.24 976.34,-1125.37"/>
</g>
<!-- 86 -->
<g id="node42" class="node"><title>86</title>
<ellipse fill="none" stroke="black" cx="1130" cy="-971.075" rx="18.2703" ry="18.2703"/>
<text text-anchor="middle" x="1130" y="-968.875" font-family="Times New Roman,serif" font-size="9.00">86</text>
</g>
<!-- 52&#45;&gt;86 -->
<g id="edge88" class="edge"><title>52&#45;&gt;86</title>
<path fill="none" stroke="red" d="M1332.23,-1183.48C1306.72,-1154.58 1244.17,-1084.45 1189,-1028.29 1176.59,-1015.66 1162.22,-1001.95 1150.77,-991.227"/>
<polygon fill="red" stroke="red" points="1153.07,-988.587 1143.36,-984.334 1148.3,-993.71 1153.07,-988.587"/>
</g>
<!-- 51 -->
<g id="node45" class="node"><title>51</title>
<ellipse fill="none" stroke="black" cx="1110" cy="-741.453" rx="18.2703" ry="18.2703"/>
<text text-anchor="middle" x="1110" y="-739.253" font-family="Times New Roman,serif" font-size="9.00">51</text>
</g>
<!-- 52&#45;&gt;51 -->
<g id="edge134" class="edge"><title>52&#45;&gt;51</title>
<path fill="none" stroke="green" d="M1340.85,-1179.52C1334.79,-1148.28 1319.95,-1080.91 1296,-1028.29 1247.73,-922.232 1163.74,-810.301 1127.49,-764.216"/>
<polygon fill="green" stroke="green" points="1130.05,-761.811 1121.09,-756.145 1124.56,-766.157 1130.05,-761.811"/>
</g>
<!-- 47 -->
<g id="node55" class="node"><title>47</title>
<ellipse fill="none" stroke="black" cx="1480" cy="-371.948" rx="18.2703" ry="18.2703"/>
<text text-anchor="middle" x="1480" y="-369.748" font-family="Times New Roman,serif" font-size="9.00">47</text>
</g>
<!-- 52&#45;&gt;47 -->
<g id="edge115" class="edge"><title>52&#45;&gt;47</title>
<path fill="none" stroke="green" d="M1352.22,-1181.24C1365.46,-1154.61 1390,-1098.36 1390,-1047.67 1390,-1047.67 1390,-1047.67 1390,-970.075 1390,-793.974 1395.29,-749.58 1416,-574.701 1423.72,-509.525 1416.15,-489.906 1441,-429.161 1446.08,-416.747 1454.27,-404.348 1461.83,-394.365"/>
<polygon fill="green" stroke="green" points="1464.77,-396.291 1468.22,-386.275 1459.28,-391.95 1464.77,-396.291"/>
</g>
<!-- 71 -->
<g id="node26" class="node"><title>71</title>
<ellipse fill="none" stroke="black" cx="1094" cy="-1346.24" rx="18.2703" ry="18.2703"/>
<text text-anchor="middle" x="1094" y="-1344.04" font-family="Times New Roman,serif" font-size="9.00">71</text>
</g>
<!-- 54&#45;&gt;71 -->
<g id="edge106" class="edge"><title>54&#45;&gt;71</title>
<path fill="none" stroke="green" d="M1094,-1405.94C1094,-1396.77 1094,-1385.38 1094,-1375.07"/>
<polygon fill="green" stroke="green" points="1097.5,-1374.87 1094,-1364.87 1090.5,-1374.87 1097.5,-1374.87"/>
</g>
<!-- 55 -->
<g id="node27" class="node"><title>55</title>
<ellipse fill="none" stroke="black" cx="1063" cy="-1270.64" rx="18.2703" ry="18.2703"/>
<text text-anchor="middle" x="1063" y="-1268.44" font-family="Times New Roman,serif" font-size="9.00">55</text>
</g>
<!-- 54&#45;&gt;55 -->
<g id="edge112" class="edge"><title>54&#45;&gt;55</title>
<path fill="none" stroke="red" d="M1084.66,-1408.56C1078.4,-1397.59 1070.67,-1382.16 1067,-1367.45 1061.41,-1345.07 1060.7,-1318.84 1061.22,-1299.49"/>
<polygon fill="red" stroke="red" points="1064.73,-1299.38 1061.63,-1289.25 1057.74,-1299.1 1064.73,-1299.38"/>
</g>
<!-- 54&#45;&gt;28 -->
<g id="edge65" class="edge"><title>54&#45;&gt;28</title>
<path fill="none" stroke="red" d="M1102.8,-1408.4C1108.79,-1397.36 1116.44,-1381.9 1121,-1367.45 1151.37,-1271.24 1147.65,-1243.84 1158,-1143.48 1160.35,-1120.67 1161.33,-1094.67 1161.73,-1075.52"/>
<polygon fill="red" stroke="red" points="1165.24,-1075.44 1161.91,-1065.38 1158.24,-1075.32 1165.24,-1075.44"/>
</g>
<!-- 107 -->
<g id="node39" class="node"><title>107</title>
<ellipse fill="none" stroke="black" cx="641" cy="-1122.27" rx="21.4286" ry="21.4286"/>
<text text-anchor="middle" x="641" y="-1120.07" font-family="Times New Roman,serif" font-size="9.00">107</text>
</g>
<!-- 54&#45;&gt;107 -->
<g id="edge99" class="edge"><title>54&#45;&gt;107</title>
<path fill="none" stroke="green" d="M1075.76,-1422.28C1015.63,-1416.78 821.088,-1391.52 709,-1289.02 669.619,-1253.01 652.481,-1190.82 645.46,-1153.72"/>
<polygon fill="green" stroke="green" points="648.845,-1152.76 643.665,-1143.51 641.951,-1153.97 648.845,-1152.76"/>
</g>
<!-- 13 -->
<g id="node48" class="node"><title>13</title>
<ellipse fill="none" stroke="black" cx="1055" cy="-593.085" rx="18.2703" ry="18.2703"/>
<text text-anchor="middle" x="1055" y="-590.885" font-family="Times New Roman,serif" font-size="9.00">13</text>
</g>
<!-- 54&#45;&gt;13 -->
<g id="edge116" class="edge"><title>54&#45;&gt;13</title>
<path fill="none" stroke="red" d="M1106.92,-1411.31C1117.55,-1400.56 1132.38,-1384.12 1142,-1367.45 1235.2,-1206.01 1282,-1158.49 1282,-972.075 1282,-972.075 1282,-972.075 1282,-891.649 1282,-758.736 1137.07,-648.243 1078.82,-609.202"/>
<polygon fill="red" stroke="red" points="1080.52,-606.136 1070.25,-603.558 1076.67,-611.982 1080.52,-606.136"/>
</g>
<!-- 69&#45;&gt;5 -->
<g id="edge81" class="edge"><title>69&#45;&gt;5</title>
<path fill="none" stroke="green" d="M718.024,-1193.57C627.855,-1176.91 227.46,-1101.29 185,-1065.06 122.276,-1011.53 114,-976.107 114,-893.649 114,-893.649 114,-893.649 114,-146.983 114,-98.5102 130.964,-81.3267 171,-54 207.807,-28.8772 343.948,-15.7413 396.301,-11.5317"/>
<polygon fill="green" stroke="green" points="396.7,-15.0113 406.4,-10.748 396.159,-8.03228 396.7,-15.0113"/>
</g>
<!-- 129 -->
<g id="node29" class="node"><title>129</title>
<ellipse fill="none" stroke="black" cx="777" cy="-1122.27" rx="21.4286" ry="21.4286"/>
<text text-anchor="middle" x="777" y="-1120.07" font-family="Times New Roman,serif" font-size="9.00">129</text>
</g>
<!-- 69&#45;&gt;129 -->
<g id="edge150" class="edge"><title>69&#45;&gt;129</title>
<path fill="none" stroke="red" d="M744.695,-1181.26C749.749,-1172.19 756.256,-1160.51 762.103,-1150.01"/>
<polygon fill="red" stroke="red" points="765.21,-1151.63 767.019,-1141.19 759.095,-1148.22 765.21,-1151.63"/>
</g>
<!-- 70 -->
<g id="node33" class="node"><title>70</title>
<ellipse fill="none" stroke="black" cx="777" cy="-1046.67" rx="18.2703" ry="18.2703"/>
<text text-anchor="middle" x="777" y="-1044.47" font-family="Times New Roman,serif" font-size="9.00">70</text>
</g>
<!-- 69&#45;&gt;70 -->
<g id="edge73" class="edge"><title>69&#45;&gt;70</title>
<path fill="none" stroke="green" d="M735.948,-1179.47C736.355,-1159.94 738.438,-1127.5 747,-1101.06 750.354,-1090.7 755.827,-1080.08 761.185,-1071.08"/>
<polygon fill="green" stroke="green" points="764.307,-1072.68 766.635,-1062.35 758.37,-1068.98 764.307,-1072.68"/>
</g>
<!-- 71&#45;&gt;55 -->
<g id="edge107" class="edge"><title>71&#45;&gt;55</title>
<path fill="none" stroke="green" d="M1087.12,-1328.9C1083.23,-1319.66 1078.27,-1307.89 1073.86,-1297.43"/>
<polygon fill="green" stroke="green" points="1076.97,-1295.78 1069.86,-1287.93 1070.52,-1298.5 1076.97,-1295.78"/>
</g>
<!-- 88 -->
<g id="node28" class="node"><title>88</title>
<ellipse fill="none" stroke="black" cx="1078" cy="-1197.87" rx="18.2703" ry="18.2703"/>
<text text-anchor="middle" x="1078" y="-1195.67" font-family="Times New Roman,serif" font-size="9.00">88</text>
</g>
<!-- 55&#45;&gt;88 -->
<g id="edge89" class="edge"><title>55&#45;&gt;88</title>
<path fill="none" stroke="red" d="M1066.63,-1252.51C1068.3,-1244.63 1070.32,-1235.08 1072.2,-1226.25"/>
<polygon fill="red" stroke="red" points="1075.65,-1226.84 1074.3,-1216.33 1068.8,-1225.39 1075.65,-1226.84"/>
</g>
<!-- 55&#45;&gt;28 -->
<g id="edge44" class="edge"><title>55&#45;&gt;28</title>
<path fill="none" stroke="red" d="M1075.21,-1256.37C1084.29,-1246.02 1096.52,-1230.97 1105,-1216.25 1131.71,-1169.92 1148.36,-1109.17 1156.34,-1074.69"/>
<polygon fill="red" stroke="red" points="1159.77,-1075.39 1158.54,-1064.87 1152.94,-1073.86 1159.77,-1075.39"/>
</g>
<!-- 55&#45;&gt;75 -->
<g id="edge84" class="edge"><title>55&#45;&gt;75</title>
<path fill="none" stroke="red" d="M1049.94,-1257.63C1038.1,-1246.76 1020.46,-1230.54 1006.7,-1217.9"/>
<polygon fill="red" stroke="red" points="1008.86,-1215.12 999.126,-1210.93 1004.12,-1220.28 1008.86,-1215.12"/>
</g>
<!-- 55&#45;&gt;51 -->
<g id="edge55" class="edge"><title>55&#45;&gt;51</title>
<path fill="none" stroke="red" d="M1057.17,-1253.2C1048.19,-1226.36 1032,-1171.32 1032,-1123.27 1032,-1123.27 1032,-1123.27 1032,-891.649 1032,-840.792 1068.03,-790.144 1091.12,-762.915"/>
<polygon fill="red" stroke="red" points="1093.88,-765.079 1097.81,-755.243 1088.6,-760.477 1093.88,-765.079"/>
</g>
<!-- 89 -->
<g id="node30" class="node"><title>89</title>
<ellipse fill="none" stroke="black" cx="1078" cy="-1122.27" rx="18.2703" ry="18.2703"/>
<text text-anchor="middle" x="1078" y="-1120.07" font-family="Times New Roman,serif" font-size="9.00">89</text>
</g>
<!-- 88&#45;&gt;89 -->
<g id="edge135" class="edge"><title>88&#45;&gt;89</title>
<path fill="none" stroke="green" d="M1078,-1179.43C1078,-1170.97 1078,-1160.59 1078,-1151.08"/>
<polygon fill="green" stroke="green" points="1081.5,-1150.84 1078,-1140.84 1074.5,-1150.84 1081.5,-1150.84"/>
</g>
<!-- 88&#45;&gt;28 -->
<g id="edge90" class="edge"><title>88&#45;&gt;28</title>
<path fill="none" stroke="red" d="M1086.67,-1181.46C1101.26,-1155.56 1130.82,-1103.06 1148.26,-1072.09"/>
<polygon fill="red" stroke="red" points="1151.39,-1073.65 1153.25,-1063.22 1145.29,-1070.21 1151.39,-1073.65"/>
</g>
<!-- 129&#45;&gt;70 -->
<g id="edge151" class="edge"><title>129&#45;&gt;70</title>
<path fill="none" stroke="red" d="M777,-1100.77C777,-1092.87 777,-1083.73 777,-1075.27"/>
<polygon fill="red" stroke="red" points="780.5,-1075.07 777,-1065.07 773.5,-1075.07 780.5,-1075.07"/>
</g>
<!-- 89&#45;&gt;28 -->
<g id="edge136" class="edge"><title>89&#45;&gt;28</title>
<path fill="none" stroke="green" d="M1091.5,-1109.45C1104.84,-1097.75 1125.47,-1079.68 1140.97,-1066.1"/>
<polygon fill="green" stroke="green" points="1143.32,-1068.69 1148.54,-1059.47 1138.71,-1063.43 1143.32,-1068.69"/>
</g>
<!-- 28&#45;&gt;24 -->
<g id="edge34" class="edge"><title>28&#45;&gt;24</title>
<path fill="none" stroke="red" d="M1144.54,-1040.73C1100.24,-1028.19 983.216,-995.065 929.573,-979.88"/>
<polygon fill="red" stroke="red" points="930.305,-976.45 919.729,-977.094 928.398,-983.185 930.305,-976.45"/>
</g>
<!-- 28&#45;&gt;13 -->
<g id="edge78" class="edge"><title>28&#45;&gt;13</title>
<path fill="none" stroke="green" d="M1163.32,-1028.23C1166.51,-978.692 1172,-833.381 1137,-720.24 1124.23,-678.942 1093.7,-638.319 1073.71,-614.757"/>
<polygon fill="green" stroke="green" points="1076.32,-612.424 1067.13,-607.16 1071.03,-617.009 1076.32,-612.424"/>
</g>
<!-- 67 -->
<g id="node34" class="node"><title>67</title>
<ellipse fill="none" stroke="black" cx="948" cy="-1046.67" rx="18.2703" ry="18.2703"/>
<text text-anchor="middle" x="948" y="-1044.47" font-family="Times New Roman,serif" font-size="9.00">67</text>
</g>
<!-- 61&#45;&gt;67 -->
<g id="edge75" class="edge"><title>61&#45;&gt;67</title>
<path fill="none" stroke="green" d="M948,-1103.83C948,-1095.37 948,-1085 948,-1075.48"/>
<polygon fill="green" stroke="green" points="951.5,-1075.24 948,-1065.24 944.5,-1075.24 951.5,-1075.24"/>
</g>
<!-- 61&#45;&gt;24 -->
<g id="edge47" class="edge"><title>61&#45;&gt;24</title>
<path fill="none" stroke="red" d="M958.511,-1106.84C970.8,-1088.06 987.914,-1054.53 975,-1028.29 965.168,-1008.31 944.44,-993.434 927.575,-984.022"/>
<polygon fill="red" stroke="red" points="929.178,-980.91 918.697,-979.358 925.922,-987.107 929.178,-980.91"/>
</g>
<!-- 70&#45;&gt;24 -->
<g id="edge74" class="edge"><title>70&#45;&gt;24</title>
<path fill="none" stroke="red" d="M792.579,-1036.5C813.818,-1024 852.096,-1001.46 877.278,-986.631"/>
<polygon fill="red" stroke="red" points="879.384,-989.453 886.225,-981.363 875.832,-983.421 879.384,-989.453"/>
</g>
<!-- 67&#45;&gt;24 -->
<g id="edge142" class="edge"><title>67&#45;&gt;24</title>
<path fill="none" stroke="red" d="M938.691,-1030.78C932.394,-1020.7 923.944,-1007.18 916.74,-995.658"/>
<polygon fill="red" stroke="red" points="919.563,-993.572 911.295,-986.947 913.627,-997.282 919.563,-993.572"/>
</g>
<!-- 24&#45;&gt;15 -->
<g id="edge31" class="edge"><title>24&#45;&gt;15</title>
<path fill="none" stroke="red" d="M884.008,-965.857C830.018,-953.2 669.102,-915.475 603.9,-900.19"/>
<polygon fill="red" stroke="red" points="604.471,-896.729 593.936,-897.854 602.873,-903.544 604.471,-896.729"/>
</g>
<!-- 74 -->
<g id="node41" class="node"><title>74</title>
<ellipse fill="none" stroke="black" cx="967" cy="-892.649" rx="18.2703" ry="18.2703"/>
<text text-anchor="middle" x="967" y="-890.449" font-family="Times New Roman,serif" font-size="9.00">74</text>
</g>
<!-- 24&#45;&gt;74 -->
<g id="edge76" class="edge"><title>24&#45;&gt;74</title>
<path fill="none" stroke="green" d="M913.621,-956.412C923.418,-944.892 937.607,-928.209 948.893,-914.939"/>
<polygon fill="green" stroke="green" points="951.667,-917.079 955.48,-907.194 946.335,-912.544 951.667,-917.079"/>
</g>
<!-- 24&#45;&gt;22 -->
<g id="edge152" class="edge"><title>24&#45;&gt;22</title>
<path fill="none" stroke="red" d="M898.955,-952.932C894.317,-926.814 885.435,-876.803 879.886,-845.563"/>
<polygon fill="red" stroke="red" points="883.27,-844.599 878.075,-835.365 876.378,-845.823 883.27,-844.599"/>
</g>
<!-- 106 -->
<g id="node44" class="node"><title>106</title>
<ellipse fill="none" stroke="black" cx="1081" cy="-892.649" rx="21.4286" ry="21.4286"/>
<text text-anchor="middle" x="1081" y="-890.449" font-family="Times New Roman,serif" font-size="9.00">106</text>
</g>
<!-- 24&#45;&gt;106 -->
<g id="edge108" class="edge"><title>24&#45;&gt;106</title>
<path fill="none" stroke="green" d="M918.84,-962.885C949.438,-949.821 1014.48,-922.051 1052.23,-905.933"/>
<polygon fill="green" stroke="green" points="1053.83,-909.055 1061.65,-901.909 1051.08,-902.617 1053.83,-909.055"/>
</g>
<!-- 78 -->
<g id="node47" class="node"><title>78</title>
<ellipse fill="none" stroke="black" cx="1034" cy="-665.855" rx="18.2703" ry="18.2703"/>
<text text-anchor="middle" x="1034" y="-663.655" font-family="Times New Roman,serif" font-size="9.00">78</text>
</g>
<!-- 24&#45;&gt;78 -->
<g id="edge120" class="edge"><title>24&#45;&gt;78</title>
<path fill="none" stroke="green" d="M908.006,-953.543C915.246,-933.846 927.945,-900.011 940,-871.436 967.614,-805.978 1003.4,-730.342 1021.84,-691.978"/>
<polygon fill="green" stroke="green" points="1025.16,-693.148 1026.34,-682.62 1018.85,-690.11 1025.16,-693.148"/>
</g>
<!-- 15&#45;&gt;22 -->
<g id="edge32" class="edge"><title>15&#45;&gt;22</title>
<path fill="none" stroke="red" d="M593.808,-887.265C643.976,-874.917 786.749,-839.774 847.304,-824.868"/>
<polygon fill="red" stroke="red" points="848.411,-828.2 857.285,-822.411 846.738,-821.403 848.411,-828.2"/>
</g>
<!-- 15&#45;&gt;13 -->
<g id="edge8" class="edge"><title>15&#45;&gt;13</title>
<path fill="none" stroke="red" d="M580.273,-874.555C594.116,-819.213 636.903,-648.442 638,-647.47 695.584,-596.481 940.995,-593.265 1025.93,-593.721"/>
<polygon fill="red" stroke="red" points="1026.12,-597.222 1036.15,-593.798 1026.17,-590.222 1026.12,-597.222"/>
</g>
<!-- 15&#45;&gt;11 -->
<g id="edge114" class="edge"><title>15&#45;&gt;11</title>
<path fill="none" stroke="green" d="M563.108,-879.164C551.354,-867.782 533.8,-850.783 520.188,-837.601"/>
<polygon fill="green" stroke="green" points="522.321,-834.794 512.702,-830.351 517.451,-839.822 522.321,-834.794"/>
</g>
<!-- 15&#45;&gt;6 -->
<g id="edge119" class="edge"><title>15&#45;&gt;6</title>
<path fill="none" stroke="green" d="M576,-874.192C576,-846.336 576,-790.113 576,-742.453 576,-742.453 576,-742.453 576,-446.546 576,-169.531 850.948,-222.217 1111,-126.77 1216.44,-88.0711 1351.7,-77.2824 1406.88,-74.3933"/>
<polygon fill="green" stroke="green" points="1407.29,-77.8779 1417.11,-73.9021 1406.95,-70.8859 1407.29,-77.8779"/>
</g>
<!-- 56&#45;&gt;23 -->
<g id="edge93" class="edge"><title>56&#45;&gt;23</title>
<path fill="none" stroke="red" d="M1673.03,-875.679C1677.86,-866.066 1684.12,-853.625 1689.58,-842.764"/>
<polygon fill="red" stroke="red" points="1692.75,-844.243 1694.11,-833.737 1686.5,-841.099 1692.75,-844.243"/>
</g>
<!-- 56&#45;&gt;19 -->
<g id="edge131" class="edge"><title>56&#45;&gt;19</title>
<path fill="none" stroke="red" d="M1662.15,-874.173C1658.21,-849.421 1651.11,-802.701 1647,-762.666 1631.84,-614.896 1693.38,-561.033 1625,-429.161 1592.93,-367.311 1517.19,-326.317 1477.04,-308.122"/>
<polygon fill="red" stroke="red" points="1478.44,-304.915 1467.87,-304.087 1475.61,-311.321 1478.44,-304.915"/>
</g>
<!-- 75&#45;&gt;86 -->
<g id="edge87" class="edge"><title>75&#45;&gt;86</title>
<path fill="none" stroke="red" d="M995.672,-1181.77C1020.27,-1143.38 1085.33,-1041.81 1114.94,-995.58"/>
<polygon fill="red" stroke="red" points="1117.92,-997.416 1120.37,-987.108 1112.03,-993.641 1117.92,-997.416"/>
</g>
<!-- 107&#45;&gt;13 -->
<g id="edge100" class="edge"><title>107&#45;&gt;13</title>
<path fill="none" stroke="red" d="M643.441,-1101.04C646.682,-1072.38 652,-1018.31 652,-972.075 652,-972.075 652,-972.075 652,-740.453 652,-660.527 935.583,-611.698 1026.98,-598.036"/>
<polygon fill="red" stroke="red" points="1027.52,-601.495 1036.9,-596.579 1026.5,-594.569 1027.52,-601.495"/>
</g>
<!-- 84&#45;&gt;30 -->
<g id="edge145" class="edge"><title>84&#45;&gt;30</title>
<path fill="none" stroke="red" d="M1521.01,-574.592C1520.58,-566.909 1520.06,-557.7 1519.57,-549.116"/>
<polygon fill="red" stroke="red" points="1523.06,-548.886 1519.01,-539.1 1516.08,-549.281 1523.06,-548.886"/>
</g>
<!-- 74&#45;&gt;23 -->
<g id="edge77" class="edge"><title>74&#45;&gt;23</title>
<path fill="none" stroke="red" d="M984.538,-886.591C1001.42,-881.922 1027.75,-875.164 1051,-871.436 1289.59,-833.18 1582.03,-821.623 1673.37,-818.823"/>
<polygon fill="red" stroke="red" points="1673.6,-822.318 1683.49,-818.524 1673.39,-815.321 1673.6,-822.318"/>
</g>
<!-- 74&#45;&gt;11 -->
<g id="edge124" class="edge"><title>74&#45;&gt;11</title>
<path fill="none" stroke="green" d="M948.979,-888.809C877.695,-877.575 615.084,-836.188 528.153,-822.488"/>
<polygon fill="green" stroke="green" points="528.642,-819.022 518.219,-820.922 527.552,-825.936 528.642,-819.022"/>
</g>
<!-- 86&#45;&gt;106 -->
<g id="edge97" class="edge"><title>86&#45;&gt;106</title>
<path fill="none" stroke="red" d="M1120.32,-954.976C1113.83,-944.853 1105.12,-931.265 1097.54,-919.452"/>
<polygon fill="red" stroke="red" points="1100.37,-917.38 1092.03,-910.851 1094.48,-921.158 1100.37,-917.38"/>
</g>
<!-- 86&#45;&gt;51 -->
<g id="edge117" class="edge"><title>86&#45;&gt;51</title>
<path fill="none" stroke="green" d="M1128.46,-952.592C1125.01,-913.284 1116.61,-817.665 1112.44,-770.169"/>
<polygon fill="green" stroke="green" points="1115.9,-769.651 1111.54,-759.996 1108.93,-770.264 1115.9,-769.651"/>
</g>
<!-- 43 -->
<g id="node60" class="node"><title>43</title>
<ellipse fill="none" stroke="black" cx="1367" cy="-147.983" rx="18.2703" ry="18.2703"/>
<text text-anchor="middle" x="1367" y="-145.783" font-family="Times New Roman,serif" font-size="9.00">43</text>
</g>
<!-- 86&#45;&gt;43 -->
<g id="edge143" class="edge"><title>86&#45;&gt;43</title>
<path fill="none" stroke="red" d="M1137.67,-954.008C1161.39,-902.77 1232,-738.149 1232,-594.085 1232,-594.085 1232,-594.085 1232,-295.35 1232,-231.454 1302.38,-183.523 1341.5,-161.813"/>
<polygon fill="red" stroke="red" points="1343.56,-164.68 1350.72,-156.865 1340.25,-158.514 1343.56,-164.68"/>
</g>
<!-- 22&#45;&gt;51 -->
<g id="edge39" class="edge"><title>22&#45;&gt;51</title>
<path fill="none" stroke="green" d="M892.985,-813.23C929.162,-807.148 1012.84,-791.009 1078,-762.666 1080.92,-761.397 1083.88,-759.884 1086.76,-758.265"/>
<polygon fill="green" stroke="green" points="1088.83,-761.1 1095.55,-752.903 1085.19,-755.125 1088.83,-761.1"/>
</g>
<!-- 22&#45;&gt;13 -->
<g id="edge43" class="edge"><title>22&#45;&gt;13</title>
<path fill="none" stroke="green" d="M877.902,-798.527C881.888,-778.292 890.52,-744.662 907,-720.24 940.347,-670.824 998.1,-629.561 1030.73,-608.712"/>
<polygon fill="green" stroke="green" points="1032.99,-611.422 1039.61,-603.146 1029.28,-605.491 1032.99,-611.422"/>
</g>
<!-- 106&#45;&gt;51 -->
<g id="edge98" class="edge"><title>106&#45;&gt;51</title>
<path fill="none" stroke="red" d="M1084.91,-871.528C1090.01,-845.317 1098.94,-799.377 1104.65,-769.962"/>
<polygon fill="red" stroke="red" points="1108.13,-770.424 1106.6,-759.94 1101.26,-769.088 1108.13,-770.424"/>
</g>
<!-- 51&#45;&gt;78 -->
<g id="edge62" class="edge"><title>51&#45;&gt;78</title>
<path fill="none" stroke="red" d="M1097.11,-727.968C1085.35,-716.586 1067.8,-699.587 1054.19,-686.405"/>
<polygon fill="red" stroke="red" points="1056.32,-683.598 1046.7,-679.155 1051.45,-688.626 1056.32,-683.598"/>
</g>
<!-- 51&#45;&gt;13 -->
<g id="edge40" class="edge"><title>51&#45;&gt;13</title>
<path fill="none" stroke="green" d="M1103.8,-723.947C1094.31,-698.691 1076.1,-650.231 1064.81,-620.18"/>
<polygon fill="green" stroke="green" points="1068.06,-618.885 1061.26,-610.755 1061.51,-621.347 1068.06,-618.885"/>
</g>
<!-- 125&#45;&gt;19 -->
<g id="edge110" class="edge"><title>125&#45;&gt;19</title>
<path fill="none" stroke="green" d="M1429.47,-351.995C1432.91,-343.27 1437.04,-332.78 1440.76,-323.334"/>
<polygon fill="green" stroke="green" points="1444.04,-324.572 1444.45,-313.985 1437.52,-322.005 1444.04,-324.572"/>
</g>
<!-- 78&#45;&gt;13 -->
<g id="edge63" class="edge"><title>78&#45;&gt;13</title>
<path fill="none" stroke="green" d="M1038.98,-648.084C1041.37,-640.006 1044.31,-630.119 1047.01,-621.023"/>
<polygon fill="green" stroke="green" points="1050.42,-621.811 1049.91,-611.228 1043.71,-619.819 1050.42,-621.811"/>
</g>
<!-- 13&#45;&gt;5 -->
<g id="edge70" class="edge"><title>13&#45;&gt;5</title>
<path fill="none" stroke="red" d="M1036.93,-588.506C960.51,-572.377 661.305,-499.057 519,-314.735 448.148,-222.964 425.112,-79.3761 418.95,-28.5721"/>
<polygon fill="red" stroke="red" points="422.408,-27.999 417.803,-18.4572 415.452,-28.788 422.408,-27.999"/>
</g>
<!-- 13&#45;&gt;30 -->
<g id="edge12" class="edge"><title>13&#45;&gt;30</title>
<path fill="none" stroke="red" d="M1073.15,-589.311C1144.18,-578.454 1403.61,-538.801 1489.88,-525.613"/>
<polygon fill="red" stroke="red" points="1490.62,-529.042 1499.98,-524.071 1489.56,-522.122 1490.62,-529.042"/>
</g>
<!-- 13&#45;&gt;19 -->
<g id="edge41" class="edge"><title>13&#45;&gt;19</title>
<path fill="none" stroke="red" d="M1068.32,-580.173C1109.67,-543.503 1240.15,-430.014 1359,-350.735 1381.08,-336.007 1407.36,-320.991 1426.17,-310.651"/>
<polygon fill="red" stroke="red" points="1427.9,-313.694 1435.01,-305.835 1424.55,-307.547 1427.9,-313.694"/>
</g>
<!-- 13&#45;&gt;6 -->
<g id="edge6" class="edge"><title>13&#45;&gt;6</title>
<path fill="none" stroke="green" d="M1062.9,-576.171C1075.07,-550.151 1097,-496.581 1097,-448.546 1097,-448.546 1097,-448.546 1097,-222.581 1097,-87.2588 1327.93,-73.7962 1406.32,-73.1247"/>
<polygon fill="green" stroke="green" points="1406.74,-76.624 1416.74,-73.1055 1406.73,-69.624 1406.74,-76.624"/>
</g>
<!-- 79 -->
<g id="node65" class="node"><title>79</title>
<ellipse fill="none" stroke="black" cx="546" cy="-296.35" rx="18.2703" ry="18.2703"/>
<text text-anchor="middle" x="546" y="-294.15" font-family="Times New Roman,serif" font-size="9.00">79</text>
</g>
<!-- 13&#45;&gt;79 -->
<g id="edge25" class="edge"><title>13&#45;&gt;79</title>
<path fill="none" stroke="red" d="M1039.49,-583.104C966.829,-541.03 659.912,-363.31 570.523,-311.55"/>
<polygon fill="red" stroke="red" points="572.048,-308.389 561.64,-306.407 568.54,-314.447 572.048,-308.389"/>
</g>
<!-- 23&#45;&gt;80 -->
<g id="edge82" class="edge"><title>23&#45;&gt;80</title>
<path fill="none" stroke="red" d="M1695.79,-799.717C1692.29,-790.539 1687.85,-778.87 1683.9,-768.463"/>
<polygon fill="red" stroke="red" points="1687.12,-767.097 1680.29,-758.996 1680.58,-769.587 1687.12,-767.097"/>
</g>
<!-- 23&#45;&gt;6 -->
<g id="edge24" class="edge"><title>23&#45;&gt;6</title>
<path fill="none" stroke="red" d="M1707.47,-799.318C1721.56,-754.684 1758,-628.871 1758,-521.316 1758,-521.316 1758,-521.316 1758,-370.948 1758,-298.503 1602.32,-166.899 1542,-126.77 1513.83,-108.025 1478.09,-91.925 1455.13,-82.444"/>
<polygon fill="red" stroke="red" points="1456.43,-79.1927 1445.84,-78.6827 1453.8,-85.6808 1456.43,-79.1927"/>
</g>
<!-- 11&#45;&gt;47 -->
<g id="edge146" class="edge"><title>11&#45;&gt;47</title>
<path fill="none" stroke="red" d="M518.464,-814.766C591.229,-809.092 863.816,-782.041 1061,-684.24 1220.54,-605.112 1218.36,-522.529 1370,-429.161 1403.89,-408.293 1417.45,-412.92 1452,-393.161 1453.76,-392.157 1455.54,-391.066 1457.3,-389.929"/>
<polygon fill="red" stroke="red" points="1459.6,-392.596 1465.86,-384.044 1455.63,-386.828 1459.6,-392.596"/>
</g>
<!-- 105 -->
<g id="node58" class="node"><title>105</title>
<ellipse fill="none" stroke="black" cx="413" cy="-741.453" rx="21.4286" ry="21.4286"/>
<text text-anchor="middle" x="413" y="-739.253" font-family="Times New Roman,serif" font-size="9.00">105</text>
</g>
<!-- 11&#45;&gt;105 -->
<g id="edge129" class="edge"><title>11&#45;&gt;105</title>
<path fill="none" stroke="red" d="M486.406,-804.551C473.139,-793.328 452.679,-776.019 436.726,-762.524"/>
<polygon fill="red" stroke="red" points="438.751,-759.653 428.856,-755.866 434.23,-764.997 438.751,-759.653"/>
</g>
<!-- 11&#45;&gt;7 -->
<g id="edge86" class="edge"><title>11&#45;&gt;7</title>
<path fill="none" stroke="green" d="M492.998,-799.693C483.728,-779.377 465.852,-744.448 443,-720.24 426.472,-702.731 403.223,-687.885 386.225,-678.327"/>
<polygon fill="green" stroke="green" points="387.495,-675.034 377.038,-673.331 384.151,-681.183 387.495,-675.034"/>
</g>
<!-- 100&#45;&gt;7 -->
<g id="edge141" class="edge"><title>100&#45;&gt;7</title>
<path fill="none" stroke="green" d="M241.504,-949.984C247.705,-905.792 266.675,-797.905 312,-720.24 320.419,-705.814 333.57,-692.362 344.54,-682.57"/>
<polygon fill="green" stroke="green" points="347.076,-685.006 352.389,-675.84 342.519,-679.692 347.076,-685.006"/>
</g>
<!-- 30&#45;&gt;99 -->
<g id="edge123" class="edge"><title>30&#45;&gt;99</title>
<path fill="none" stroke="green" d="M1531.57,-507.311C1543.94,-496.366 1562.42,-480.02 1576.75,-467.345"/>
<polygon fill="green" stroke="green" points="1579.46,-469.621 1584.63,-460.374 1574.82,-464.378 1579.46,-469.621"/>
</g>
<!-- 77 -->
<g id="node54" class="node"><title>77</title>
<ellipse fill="none" stroke="black" cx="1468" cy="-447.546" rx="18.2703" ry="18.2703"/>
<text text-anchor="middle" x="1468" y="-445.346" font-family="Times New Roman,serif" font-size="9.00">77</text>
</g>
<!-- 30&#45;&gt;77 -->
<g id="edge79" class="edge"><title>30&#45;&gt;77</title>
<path fill="none" stroke="green" d="M1507.64,-504.652C1500.87,-495.069 1491.89,-482.353 1484.18,-471.451"/>
<polygon fill="green" stroke="green" points="1486.98,-469.339 1478.35,-463.191 1481.26,-473.378 1486.98,-469.339"/>
</g>
<!-- 30&#45;&gt;47 -->
<g id="edge19" class="edge"><title>30&#45;&gt;47</title>
<path fill="none" stroke="red" d="M1513.73,-502.353C1509.16,-484.221 1501.65,-454.638 1495,-429.161 1492.5,-419.575 1489.71,-409.083 1487.23,-399.785"/>
<polygon fill="red" stroke="red" points="1490.55,-398.661 1484.58,-389.909 1483.79,-400.474 1490.55,-398.661"/>
</g>
<!-- 30&#45;&gt;19 -->
<g id="edge36" class="edge"><title>30&#45;&gt;19</title>
<path fill="none" stroke="green" d="M1520.94,-501.99C1525.48,-470.202 1531.32,-401.198 1507,-350.735 1499.73,-335.643 1486.25,-322.585 1474.34,-313.161"/>
<polygon fill="green" stroke="green" points="1476.15,-310.151 1466.05,-306.965 1471.96,-315.757 1476.15,-310.151"/>
</g>
<!-- 77&#45;&gt;47 -->
<g id="edge80" class="edge"><title>77&#45;&gt;47</title>
<path fill="none" stroke="red" d="M1470.84,-429.105C1472.25,-420.489 1473.98,-409.894 1475.55,-400.237"/>
<polygon fill="red" stroke="red" points="1479.02,-400.698 1477.18,-390.265 1472.11,-399.571 1479.02,-400.698"/>
</g>
<!-- 47&#45;&gt;19 -->
<g id="edge20" class="edge"><title>47&#45;&gt;19</title>
<path fill="none" stroke="red" d="M1473.56,-354.614C1469.92,-345.372 1465.29,-333.604 1461.16,-323.143"/>
<polygon fill="red" stroke="red" points="1464.34,-321.659 1457.42,-313.638 1457.83,-324.225 1464.34,-321.659"/>
</g>
<!-- 19&#45;&gt;21 -->
<g id="edge30" class="edge"><title>19&#45;&gt;21</title>
<path fill="none" stroke="red" d="M1438.77,-282.039C1429.33,-271.759 1416.09,-257.34 1405.23,-245.519"/>
<polygon fill="red" stroke="red" points="1407.51,-242.83 1398.17,-237.832 1402.36,-247.565 1407.51,-242.83"/>
</g>
<!-- 19&#45;&gt;6 -->
<g id="edge11" class="edge"><title>19&#45;&gt;6</title>
<path fill="none" stroke="green" d="M1449.51,-277.933C1446.13,-238.468 1437.89,-142.177 1434.04,-97.2279"/>
<polygon fill="green" stroke="green" points="1437.52,-96.8823 1433.18,-87.2173 1430.55,-97.4794 1437.52,-96.8823"/>
</g>
<!-- 92 -->
<g id="node63" class="node"><title>92</title>
<ellipse fill="none" stroke="black" cx="1823" cy="-223.581" rx="18.2703" ry="18.2703"/>
<text text-anchor="middle" x="1823" y="-221.381" font-family="Times New Roman,serif" font-size="9.00">92</text>
</g>
<!-- 19&#45;&gt;92 -->
<g id="edge68" class="edge"><title>19&#45;&gt;92</title>
<path fill="none" stroke="green" d="M1468.94,-291.937C1528.84,-280.542 1722.22,-243.753 1794.97,-229.913"/>
<polygon fill="green" stroke="green" points="1795.63,-233.35 1804.8,-228.043 1794.32,-226.473 1795.63,-233.35"/>
</g>
<!-- 80&#45;&gt;6 -->
<g id="edge83" class="edge"><title>80&#45;&gt;6</title>
<path fill="none" stroke="green" d="M1679.92,-723.932C1692.34,-687.731 1720,-598.48 1720,-521.316 1720,-521.316 1720,-521.316 1720,-370.948 1720,-293.701 1517.07,-136.467 1451.89,-87.963"/>
<polygon fill="green" stroke="green" points="1453.77,-84.9956 1443.65,-81.8601 1449.6,-90.6223 1453.77,-84.9956"/>
</g>
<!-- 105&#45;&gt;7 -->
<g id="edge130" class="edge"><title>105&#45;&gt;7</title>
<path fill="none" stroke="green" d="M401.635,-723.383C394.407,-712.527 385.014,-698.418 377.42,-687.012"/>
<polygon fill="green" stroke="green" points="380.247,-684.942 371.791,-678.557 374.42,-688.821 380.247,-684.942"/>
</g>
<!-- 21&#45;&gt;43 -->
<g id="edge125" class="edge"><title>21&#45;&gt;43</title>
<path fill="none" stroke="red" d="M1381.59,-205.511C1379.32,-196.686 1376.48,-185.713 1373.92,-175.788"/>
<polygon fill="red" stroke="red" points="1377.27,-174.768 1371.38,-165.96 1370.49,-176.517 1377.27,-174.768"/>
</g>
<!-- 21&#45;&gt;6 -->
<g id="edge59" class="edge"><title>21&#45;&gt;6</title>
<path fill="none" stroke="red" d="M1391.19,-205.756C1399.43,-179.033 1415.52,-126.825 1424.85,-96.574"/>
<polygon fill="red" stroke="red" points="1428.24,-97.4548 1427.84,-86.8674 1421.55,-95.3923 1428.24,-97.4548"/>
</g>
<!-- 43&#45;&gt;6 -->
<g id="edge126" class="edge"><title>43&#45;&gt;6</title>
<path fill="none" stroke="red" d="M1378.92,-133.484C1389.14,-121.91 1403.98,-105.111 1415.37,-92.2152"/>
<polygon fill="red" stroke="red" points="1418.28,-94.2104 1422.27,-84.3982 1413.03,-89.5766 1418.28,-94.2104"/>
</g>
<!-- 6&#45;&gt;5 -->
<g id="edge4" class="edge"><title>6&#45;&gt;5</title>
<path fill="none" stroke="red" d="M1417.26,-70.4934C1303.91,-63.6383 571.562,-19.3475 437.918,-11.265"/>
<polygon fill="red" stroke="red" points="437.981,-7.76258 427.788,-10.6524 437.558,-14.7498 437.981,-7.76258"/>
</g>
<!-- 7&#45;&gt;5 -->
<g id="edge15" class="edge"><title>7&#45;&gt;5</title>
<path fill="none" stroke="green" d="M366.731,-651.063C371.537,-625.557 381,-569.246 381,-521.316 381,-521.316 381,-521.316 381,-146.983 381,-102.876 398.674,-53.3261 409.255,-27.6157"/>
<polygon fill="green" stroke="green" points="412.591,-28.7141 413.283,-18.1418 406.149,-25.9751 412.591,-28.7141"/>
</g>
<!-- 114 -->
<g id="node64" class="node"><title>114</title>
<ellipse fill="none" stroke="black" cx="1823" cy="-147.983" rx="21.4286" ry="21.4286"/>
<text text-anchor="middle" x="1823" y="-145.783" font-family="Times New Roman,serif" font-size="9.00">114</text>
</g>
<!-- 92&#45;&gt;114 -->
<g id="edge137" class="edge"><title>92&#45;&gt;114</title>
<path fill="none" stroke="green" d="M1823,-205.139C1823,-197.524 1823,-188.362 1823,-179.668"/>
<polygon fill="green" stroke="green" points="1826.5,-179.432 1823,-169.432 1819.5,-179.432 1826.5,-179.432"/>
</g>
<!-- 92&#45;&gt;91 -->
<g id="edge69" class="edge"><title>92&#45;&gt;91</title>
<path fill="none" stroke="green" d="M1833.58,-208.5C1840.61,-198.211 1849.23,-183.595 1853,-169.196 1858.96,-146.422 1855.63,-119.691 1851.44,-100.26"/>
<polygon fill="green" stroke="green" points="1854.78,-99.2076 1849.07,-90.2865 1847.97,-100.825 1854.78,-99.2076"/>
</g>
<!-- 114&#45;&gt;91 -->
<g id="edge138" class="edge"><title>114&#45;&gt;91</title>
<path fill="none" stroke="red" d="M1828.63,-127.26C1831.03,-118.845 1833.87,-108.9 1836.45,-99.859"/>
<polygon fill="red" stroke="red" points="1839.83,-100.742 1839.21,-90.1659 1833.1,-98.8217 1839.83,-100.742"/>
</g>
<!-- 79&#45;&gt;5 -->
<g id="edge26" class="edge"><title>79&#45;&gt;5</title>
<path fill="none" stroke="green" d="M541.026,-278.569C528.735,-238.305 494.661,-133.649 450,-54 444.513,-44.2138 437.111,-34.1417 430.707,-26.1078"/>
<polygon fill="green" stroke="green" points="433.343,-23.8025 424.289,-18.3 427.936,-28.2476 433.343,-23.8025"/>
</g>
<!-- 91&#45;&gt;5 -->
<g id="edge67" class="edge"><title>91&#45;&gt;5</title>
<path fill="none" stroke="red" d="M1825.42,-70.5363C1769.55,-67.9877 1598.14,-60.194 1456,-54 1046.16,-36.1402 545.328,-15.3212 437.902,-10.8661"/>
<polygon fill="red" stroke="red" points="437.885,-7.36247 427.749,-10.4452 437.595,-14.3565 437.885,-7.36247"/>
</g>
</g>
</svg>
