<?xml version="1.0" encoding="UTF-8" standalone="no"?>
<!DOCTYPE svg PUBLIC "-//W3C//DTD SVG 1.1//EN"
 "http://www.w3.org/Graphics/SVG/1.1/DTD/svg11.dtd">
<!-- Generated by graphviz version 2.38.0 (20140413.2041)
 -->
<!-- Title: %3 Pages: 1 -->
<svg width="193pt" height="291pt"
 viewBox="0.00 0.00 192.73 291.24" xmlns="http://www.w3.org/2000/svg" xmlns:xlink="http://www.w3.org/1999/xlink">
<g id="graph0" class="graph" transform="scale(1 1) rotate(0) translate(4 287.238)">
<title>%3</title>
<polygon fill="white" stroke="none" points="-4,4 -4,-287.238 188.729,-287.238 188.729,4 -4,4"/>
<!-- 1 -->
<g id="node1" class="node"><title>1</title>
<polygon fill="lightgray" stroke="black" points="158.246,-283.238 137.246,-283.238 137.246,-265.238 158.246,-265.238 158.246,-283.238"/>
<text text-anchor="middle" x="147.746" y="-272.038" font-family="Times New Roman,serif" font-size="9.00">1</text>
</g>
<!-- 5 -->
<g id="node5" class="node"><title>5</title>
<polygon fill="lightblue" stroke="black" points="73.2459,-18 52.2459,-18 52.2459,-0 73.2459,-0 73.2459,-18"/>
<text text-anchor="middle" x="62.7459" y="-6.8" font-family="Times New Roman,serif" font-size="9.00">5</text>
</g>
<!-- 1&#45;&gt;5 -->
<g id="edge1" class="edge"><title>1&#45;&gt;5</title>
<path fill="none" stroke="red" d="M137.048,-264.899C107.282,-240.83 24.3287,-167.581 3.74585,-83.6985 0.600347,-70.8794 -2.1731,-65.7978 3.74585,-54 11.8609,-37.8249 29.0543,-26.0803 42.7978,-18.8145"/>
<polygon fill="red" stroke="red" points="44.5641,-21.8471 52.0163,-14.3161 41.4942,-15.5561 44.5641,-21.8471"/>
</g>
<!-- 15 -->
<g id="node6" class="node"><title>15</title>
<ellipse fill="none" stroke="black" cx="147.746" cy="-210.853" rx="18.2703" ry="18.2703"/>
<text text-anchor="middle" x="147.746" y="-208.653" font-family="Times New Roman,serif" font-size="9.00">15</text>
</g>
<!-- 1&#45;&gt;15 -->
<g id="edge9" class="edge"><title>1&#45;&gt;15</title>
<path fill="none" stroke="green" d="M147.746,-265.213C147.746,-258.648 147.746,-248.959 147.746,-239.632"/>
<polygon fill="green" stroke="green" points="151.246,-239.441 147.746,-229.441 144.246,-239.441 151.246,-239.441"/>
</g>
<!-- 6 -->
<g id="node8" class="node"><title>6</title>
<ellipse fill="none" stroke="black" cx="143.746" cy="-68.8492" rx="14.7" ry="14.7"/>
<text text-anchor="middle" x="143.746" y="-66.6492" font-family="Times New Roman,serif" font-size="9.00">6</text>
</g>
<!-- 1&#45;&gt;6 -->
<g id="edge11" class="edge"><title>1&#45;&gt;6</title>
<path fill="none" stroke="green" d="M154.645,-265.138C161.277,-256.775 170.849,-243.038 174.746,-229.238 187.975,-182.385 188.115,-166.511 174.746,-119.698 171.63,-108.789 165.362,-97.9405 159.272,-89.1634"/>
<polygon fill="green" stroke="green" points="161.888,-86.8136 153.13,-80.8507 156.258,-90.9734 161.888,-86.8136"/>
</g>
<!-- 2 -->
<g id="node2" class="node"><title>2</title>
<polygon fill="lightgray" stroke="black" points="34.2459,-77.8492 13.2459,-77.8492 13.2459,-59.8492 34.2459,-59.8492 34.2459,-77.8492"/>
<text text-anchor="middle" x="23.7459" y="-66.6492" font-family="Times New Roman,serif" font-size="9.00">2</text>
</g>
<!-- 2&#45;&gt;5 -->
<g id="edge2" class="edge"><title>2&#45;&gt;5</title>
<path fill="none" stroke="green" d="M29.1686,-59.8056C34.9244,-51.268 44.1838,-37.5334 51.5227,-26.6475"/>
<polygon fill="green" stroke="green" points="54.4286,-28.5982 57.1166,-18.35 48.6244,-24.6852 54.4286,-28.5982"/>
</g>
<!-- 3 -->
<g id="node3" class="node"><title>3</title>
<polygon fill="lightgray" stroke="black" points="72.2459,-147.083 51.2459,-147.083 51.2459,-129.083 72.2459,-129.083 72.2459,-147.083"/>
<text text-anchor="middle" x="61.7459" y="-135.883" font-family="Times New Roman,serif" font-size="9.00">3</text>
</g>
<!-- 3&#45;&gt;5 -->
<g id="edge3" class="edge"><title>3&#45;&gt;5</title>
<path fill="none" stroke="green" d="M61.8115,-128.745C61.9711,-108.458 62.3827,-56.1465 62.6025,-28.2135"/>
<polygon fill="green" stroke="green" points="66.1024,-28.231 62.6813,-18.2038 59.1026,-28.1759 66.1024,-28.231"/>
</g>
<!-- 3&#45;&gt;6 -->
<g id="edge6" class="edge"><title>3&#45;&gt;6</title>
<path fill="none" stroke="green" d="M70.5206,-128.813C73.6973,-125.883 77.3413,-122.597 80.7459,-119.698 95.0703,-107.505 111.788,-94.323 124.401,-84.5786"/>
<polygon fill="green" stroke="green" points="126.6,-87.3035 132.398,-78.4361 122.336,-81.7522 126.6,-87.3035"/>
</g>
<!-- 4 -->
<g id="node4" class="node"><title>4</title>
<polygon fill="lightgray" stroke="black" points="111.246,-147.083 90.2459,-147.083 90.2459,-129.083 111.246,-129.083 111.246,-147.083"/>
<text text-anchor="middle" x="100.746" y="-135.883" font-family="Times New Roman,serif" font-size="9.00">4</text>
</g>
<!-- 4&#45;&gt;5 -->
<g id="edge4" class="edge"><title>4&#45;&gt;5</title>
<path fill="none" stroke="green" d="M98.4345,-128.807C94.2374,-113.841 85.0296,-81.2972 76.7459,-54 74.1212,-45.3512 71.0928,-35.7857 68.5255,-27.7887"/>
<polygon fill="green" stroke="green" points="71.7966,-26.5287 65.3914,-18.0893 65.1357,-28.681 71.7966,-26.5287"/>
</g>
<!-- 4&#45;&gt;6 -->
<g id="edge7" class="edge"><title>4&#45;&gt;6</title>
<path fill="none" stroke="green" d="M106.018,-128.839C112.082,-119.358 122.262,-103.44 130.521,-90.528"/>
<polygon fill="green" stroke="green" points="133.668,-92.1021 136.108,-81.7919 127.771,-88.3305 133.668,-92.1021"/>
</g>
<!-- 13 -->
<g id="node7" class="node"><title>13</title>
<ellipse fill="none" stroke="black" cx="147.746" cy="-138.083" rx="18.2703" ry="18.2703"/>
<text text-anchor="middle" x="147.746" y="-135.883" font-family="Times New Roman,serif" font-size="9.00">13</text>
</g>
<!-- 15&#45;&gt;13 -->
<g id="edge10" class="edge"><title>15&#45;&gt;13</title>
<path fill="none" stroke="red" d="M147.746,-192.359C147.746,-184.677 147.746,-175.468 147.746,-166.884"/>
<polygon fill="red" stroke="red" points="151.246,-166.867 147.746,-156.867 144.246,-166.867 151.246,-166.867"/>
</g>
<!-- 13&#45;&gt;6 -->
<g id="edge8" class="edge"><title>13&#45;&gt;6</title>
<path fill="none" stroke="green" d="M146.695,-119.418C146.233,-111.649 145.682,-102.4 145.183,-94.0073"/>
<polygon fill="green" stroke="green" points="148.676,-93.7848 144.588,-84.0103 141.689,-94.2005 148.676,-93.7848"/>
</g>
<!-- 6&#45;&gt;5 -->
<g id="edge5" class="edge"><title>6&#45;&gt;5</title>
<path fill="none" stroke="red" d="M132.141,-59.5609C118.976,-50.159 97.3131,-34.6875 81.6898,-23.5295"/>
<polygon fill="red" stroke="red" points="83.4707,-20.5005 73.2988,-17.5368 79.4024,-26.1969 83.4707,-20.5005"/>
</g>
</g>
</svg>
