<?xml version="1.0" encoding="UTF-8" standalone="no"?>
<!DOCTYPE svg PUBLIC "-//W3C//DTD SVG 1.1//EN"
 "http://www.w3.org/Graphics/SVG/1.1/DTD/svg11.dtd">
<!-- Generated by graphviz version 2.38.0 (20140413.2041)
 -->
<!-- Title: %3 Pages: 1 -->
<svg width="1504pt" height="1842pt"
 viewBox="0.00 0.00 1504.38 1842.03" xmlns="http://www.w3.org/2000/svg" xmlns:xlink="http://www.w3.org/1999/xlink">
<g id="graph0" class="graph" transform="scale(1 1) rotate(0) translate(4 1838.03)">
<title>%3</title>
<polygon fill="white" stroke="none" points="-4,4 -4,-1838.03 1500.38,-1838.03 1500.38,4 -4,4"/>
<!-- 1 -->
<g id="node1" class="node"><title>1</title>
<polygon fill="lightgray" stroke="black" points="332.5,-1834.03 311.5,-1834.03 311.5,-1816.03 332.5,-1816.03 332.5,-1834.03"/>
<text text-anchor="middle" x="322" y="-1822.83" font-family="Times New Roman,serif" font-size="9.00">1</text>
</g>
<!-- 5 -->
<g id="node5" class="node"><title>5</title>
<polygon fill="lightblue" stroke="black" points="475.5,-18 454.5,-18 454.5,-0 475.5,-0 475.5,-18"/>
<text text-anchor="middle" x="465" y="-6.8" font-family="Times New Roman,serif" font-size="9.00">5</text>
</g>
<!-- 1&#45;&gt;5 -->
<g id="edge1" class="edge"><title>1&#45;&gt;5</title>
<path fill="none" stroke="red" d="M311.286,-1824.52C255.415,-1826.49 0,-1827.95 0,-1689.87 0,-1689.87 0,-1689.87 0,-137.083 0,-43.5836 354.248,-16.4866 444.351,-11.1067"/>
<polygon fill="red" stroke="red" points="444.63,-14.5966 454.414,-10.5321 444.231,-7.60795 444.63,-14.5966"/>
</g>
<!-- 37 -->
<g id="node6" class="node"><title>37</title>
<ellipse fill="none" stroke="black" cx="1478" cy="-658.784" rx="18.2703" ry="18.2703"/>
<text text-anchor="middle" x="1478" y="-656.584" font-family="Times New Roman,serif" font-size="9.00">37</text>
</g>
<!-- 1&#45;&gt;37 -->
<g id="edge13" class="edge"><title>1&#45;&gt;37</title>
<path fill="none" stroke="red" d="M332.644,-1823.96C444.39,-1823.22 1399.32,-1815.83 1446,-1780.03 1479.29,-1754.49 1474,-1731.83 1474,-1689.87 1474,-1689.87 1474,-1689.87 1474,-806.151 1474,-764.902 1475.61,-717.137 1476.78,-687.69"/>
<polygon fill="red" stroke="red" points="1480.3,-687.489 1477.21,-677.353 1473.3,-687.201 1480.3,-687.489"/>
</g>
<!-- 31 -->
<g id="node7" class="node"><title>31</title>
<ellipse fill="none" stroke="black" cx="144" cy="-1761.64" rx="18.2703" ry="18.2703"/>
<text text-anchor="middle" x="144" y="-1759.44" font-family="Times New Roman,serif" font-size="9.00">31</text>
</g>
<!-- 1&#45;&gt;31 -->
<g id="edge21" class="edge"><title>1&#45;&gt;31</title>
<path fill="none" stroke="green" d="M311.479,-1821.64C287.107,-1815.95 225.11,-1800.51 176,-1780.03 173.6,-1779.02 171.146,-1777.9 168.716,-1776.71"/>
<polygon fill="green" stroke="green" points="170.12,-1773.49 159.636,-1771.97 166.88,-1779.7 170.12,-1773.49"/>
</g>
<!-- 65 -->
<g id="node9" class="node"><title>65</title>
<ellipse fill="none" stroke="black" cx="458" cy="-1252.25" rx="18.2703" ry="18.2703"/>
<text text-anchor="middle" x="458" y="-1250.05" font-family="Times New Roman,serif" font-size="9.00">65</text>
</g>
<!-- 1&#45;&gt;65 -->
<g id="edge55" class="edge"><title>1&#45;&gt;65</title>
<path fill="none" stroke="red" d="M332.802,-1819.44C364.328,-1805.25 454,-1758.81 454,-1689.87 454,-1689.87 454,-1689.87 454,-1396.79 454,-1356.56 455.59,-1310.01 456.765,-1281.1"/>
<polygon fill="red" stroke="red" points="460.269,-1281.07 457.191,-1270.93 453.275,-1280.77 460.269,-1281.07"/>
</g>
<!-- 20 -->
<g id="node11" class="node"><title>20</title>
<ellipse fill="none" stroke="black" cx="621" cy="-1688.87" rx="18.2703" ry="18.2703"/>
<text text-anchor="middle" x="621" y="-1686.67" font-family="Times New Roman,serif" font-size="9.00">20</text>
</g>
<!-- 1&#45;&gt;20 -->
<g id="edge28" class="edge"><title>1&#45;&gt;20</title>
<path fill="none" stroke="green" d="M332.571,-1821.76C357.05,-1816.32 419.254,-1801.36 468,-1780.03 516.376,-1758.85 568.509,-1725.65 597.716,-1706"/>
<polygon fill="green" stroke="green" points="599.709,-1708.88 606.015,-1700.36 595.776,-1703.09 599.709,-1708.88"/>
</g>
<!-- 15 -->
<g id="node30" class="node"><title>15</title>
<ellipse fill="none" stroke="black" cx="445" cy="-955.519" rx="18.2703" ry="18.2703"/>
<text text-anchor="middle" x="445" y="-953.319" font-family="Times New Roman,serif" font-size="9.00">15</text>
</g>
<!-- 1&#45;&gt;15 -->
<g id="edge7" class="edge"><title>1&#45;&gt;15</title>
<path fill="none" stroke="green" d="M311.198,-1819.44C279.672,-1805.25 190,-1758.81 190,-1689.87 190,-1689.87 190,-1689.87 190,-1105.71 190,-1001.74 349.894,-968.88 416.456,-959.706"/>
<polygon fill="green" stroke="green" points="417.193,-963.139 426.661,-958.385 416.295,-956.197 417.193,-963.139"/>
</g>
<!-- 99 -->
<g id="node43" class="node"><title>99</title>
<ellipse fill="none" stroke="black" cx="1213" cy="-507.588" rx="18.2703" ry="18.2703"/>
<text text-anchor="middle" x="1213" y="-505.388" font-family="Times New Roman,serif" font-size="9.00">99</text>
</g>
<!-- 1&#45;&gt;99 -->
<g id="edge109" class="edge"><title>1&#45;&gt;99</title>
<path fill="none" stroke="green" d="M332.63,-1823.91C446.225,-1822.5 1432,-1806.94 1432,-1689.87 1432,-1689.87 1432,-1689.87 1432,-1324.02 1432,-1001.97 1270.7,-632.099 1224.96,-533.693"/>
<polygon fill="green" stroke="green" points="1228.08,-532.099 1220.67,-524.527 1221.74,-535.068 1228.08,-532.099"/>
</g>
<!-- 6 -->
<g id="node52" class="node"><title>6</title>
<ellipse fill="none" stroke="black" cx="688" cy="-68.8492" rx="14.7" ry="14.7"/>
<text text-anchor="middle" x="688" y="-66.6492" font-family="Times New Roman,serif" font-size="9.00">6</text>
</g>
<!-- 1&#45;&gt;6 -->
<g id="edge9" class="edge"><title>1&#45;&gt;6</title>
<path fill="none" stroke="green" d="M311.319,-1823C273.671,-1819.19 147.767,-1804.79 117,-1780.03 82.7097,-1752.43 76,-1733.89 76,-1689.87 76,-1689.87 76,-1689.87 76,-1030.12 76,-878.908 202.267,-885.625 269,-749.938 387.436,-509.123 319.949,-390.558 501,-192.468 550.047,-138.805 627.402,-98.0379 665.404,-80.0153"/>
<polygon fill="green" stroke="green" points="667.012,-83.1279 674.601,-75.7356 664.058,-76.7814 667.012,-83.1279"/>
</g>
<!-- 2 -->
<g id="node2" class="node"><title>2</title>
<polygon fill="lightgray" stroke="black" points="1191.5,-816.151 1170.5,-816.151 1170.5,-798.151 1191.5,-798.151 1191.5,-816.151"/>
<text text-anchor="middle" x="1181" y="-804.951" font-family="Times New Roman,serif" font-size="9.00">2</text>
</g>
<!-- 2&#45;&gt;5 -->
<g id="edge2" class="edge"><title>2&#45;&gt;5</title>
<path fill="none" stroke="green" d="M1178.17,-797.906C1160.33,-746.362 1062.09,-468.74 996,-410.777 885.939,-314.255 368,-358.242 368,-211.853 368,-211.853 368,-211.853 368,-137.083 368,-86.2417 417.662,-43.0929 445.917,-22.6582"/>
<polygon fill="green" stroke="green" points="448.053,-25.4354 454.249,-16.8407 444.046,-19.6961 448.053,-25.4354"/>
</g>
<!-- 7 -->
<g id="node53" class="node"><title>7</title>
<ellipse fill="none" stroke="black" cx="1274" cy="-731.553" rx="14.7" ry="14.7"/>
<text text-anchor="middle" x="1274" y="-729.353" font-family="Times New Roman,serif" font-size="9.00">7</text>
</g>
<!-- 2&#45;&gt;7 -->
<g id="edge17" class="edge"><title>2&#45;&gt;7</title>
<path fill="none" stroke="red" d="M1191.31,-797.994C1206.56,-785.92 1235.42,-763.082 1254.69,-747.837"/>
<polygon fill="red" stroke="red" points="1257.11,-750.384 1262.78,-741.433 1252.77,-744.894 1257.11,-750.384"/>
</g>
<!-- 3 -->
<g id="node3" class="node"><title>3</title>
<polygon fill="lightgray" stroke="black" points="376.5,-1188.48 355.5,-1188.48 355.5,-1170.48 376.5,-1170.48 376.5,-1188.48"/>
<text text-anchor="middle" x="366" y="-1177.28" font-family="Times New Roman,serif" font-size="9.00">3</text>
</g>
<!-- 3&#45;&gt;5 -->
<g id="edge3" class="edge"><title>3&#45;&gt;5</title>
<path fill="none" stroke="green" d="M358.174,-1170.17C349.326,-1160.26 335.215,-1142.8 328,-1125.1 248.972,-931.253 255,-869.12 255,-659.784 255,-659.784 255,-659.784 255,-506.588 255,-407.936 254,-383.275 254,-284.622 254,-284.622 254,-284.622 254,-137.083 254,-48.8527 391.058,-20.2933 444.248,-12.5318"/>
<polygon fill="green" stroke="green" points="444.807,-15.9882 454.246,-11.1773 443.867,-9.05157 444.807,-15.9882"/>
</g>
<!-- 58 -->
<g id="node12" class="node"><title>58</title>
<ellipse fill="none" stroke="black" cx="366" cy="-1106.71" rx="18.2703" ry="18.2703"/>
<text text-anchor="middle" x="366" y="-1104.51" font-family="Times New Roman,serif" font-size="9.00">58</text>
</g>
<!-- 3&#45;&gt;58 -->
<g id="edge97" class="edge"><title>3&#45;&gt;58</title>
<path fill="none" stroke="red" d="M366,-1170.37C366,-1161.8 366,-1147.82 366,-1135.24"/>
<polygon fill="red" stroke="red" points="369.5,-1135.15 366,-1125.15 362.5,-1135.15 369.5,-1135.15"/>
</g>
<!-- 24 -->
<g id="node28" class="node"><title>24</title>
<ellipse fill="none" stroke="black" cx="621" cy="-1031.12" rx="18.2703" ry="18.2703"/>
<text text-anchor="middle" x="621" y="-1028.92" font-family="Times New Roman,serif" font-size="9.00">24</text>
</g>
<!-- 3&#45;&gt;24 -->
<g id="edge35" class="edge"><title>3&#45;&gt;24</title>
<path fill="none" stroke="green" d="M376.632,-1172.38C414.335,-1150.74 542.268,-1077.31 596.442,-1046.21"/>
<polygon fill="green" stroke="green" points="598.436,-1049.1 605.367,-1041.09 594.952,-1043.03 598.436,-1049.1"/>
</g>
<!-- 3&#45;&gt;15 -->
<g id="edge38" class="edge"><title>3&#45;&gt;15</title>
<path fill="none" stroke="green" d="M370.653,-1170.36C376.423,-1160.07 386.312,-1141.66 393,-1125.1 412.659,-1076.41 429.309,-1017.32 438.163,-983.607"/>
<polygon fill="green" stroke="green" points="441.636,-984.155 440.757,-973.597 434.86,-982.398 441.636,-984.155"/>
</g>
<!-- 3&#45;&gt;6 -->
<g id="edge5" class="edge"><title>3&#45;&gt;6</title>
<path fill="none" stroke="green" d="M360.412,-1170.24C353.896,-1160.12 343.449,-1142.19 339,-1125.1 326.095,-1075.54 331.123,-1060.89 336,-1009.9 337.172,-997.651 354.716,-913.229 357,-901.134 380.618,-776.089 380.73,-436.753 461,-338.007 487.655,-305.217 517.357,-330.014 549,-302.007 618.525,-240.472 600.561,-197.649 651,-119.698 657.744,-109.276 665.91,-98.1399 672.853,-89.0432"/>
<polygon fill="green" stroke="green" points="675.697,-91.0869 679.049,-81.0361 670.161,-86.8032 675.697,-91.0869"/>
</g>
<!-- 4 -->
<g id="node4" class="node"><title>4</title>
<polygon fill="lightgray" stroke="black" points="1228.5,-1625.1 1207.5,-1625.1 1207.5,-1607.1 1228.5,-1607.1 1228.5,-1625.1"/>
<text text-anchor="middle" x="1218" y="-1613.9" font-family="Times New Roman,serif" font-size="9.00">4</text>
</g>
<!-- 4&#45;&gt;5 -->
<g id="edge26" class="edge"><title>4&#45;&gt;5</title>
<path fill="none" stroke="green" d="M1228.68,-1610.81C1246.56,-1603.18 1282.84,-1585.8 1306,-1561.72 1337.76,-1528.69 1356,-1517.38 1356,-1471.56 1356,-1471.56 1356,-1471.56 1356,-1105.71 1356,-1005.63 1394,-983.836 1394,-883.749 1394,-883.749 1394,-883.749 1394,-137.083 1394,-122.059 1466.58,-116.136 1167,-54 1031.72,-25.9416 587.126,-13.1085 485.718,-10.5069"/>
<polygon fill="green" stroke="green" points="485.645,-7.00404 475.56,-10.2514 485.469,-14.0018 485.645,-7.00404"/>
</g>
<!-- 48 -->
<g id="node8" class="node"><title>48</title>
<ellipse fill="none" stroke="black" cx="1008" cy="-1543.33" rx="18.2703" ry="18.2703"/>
<text text-anchor="middle" x="1008" y="-1541.13" font-family="Times New Roman,serif" font-size="9.00">48</text>
</g>
<!-- 4&#45;&gt;48 -->
<g id="edge34" class="edge"><title>4&#45;&gt;48</title>
<path fill="none" stroke="red" d="M1207.3,-1611.49C1175.59,-1600.81 1081.48,-1569.09 1034.83,-1553.37"/>
<polygon fill="red" stroke="red" points="1035.7,-1549.97 1025.11,-1550.1 1033.47,-1556.61 1035.7,-1549.97"/>
</g>
<!-- 4&#45;&gt;24 -->
<g id="edge42" class="edge"><title>4&#45;&gt;24</title>
<path fill="none" stroke="red" d="M1207.21,-1615.1C1142.79,-1614.92 808.731,-1611.56 722,-1561.72 644.027,-1516.91 602,-1488.72 602,-1398.79 602,-1398.79 602,-1398.79 602,-1251.25 602,-1194.84 611.372,-1181.32 616,-1125.1 617.807,-1103.15 619.107,-1078.22 619.928,-1059.71"/>
<polygon fill="red" stroke="red" points="623.428,-1059.76 620.356,-1049.62 616.435,-1059.46 623.428,-1059.76"/>
</g>
<!-- 56 -->
<g id="node31" class="node"><title>56</title>
<ellipse fill="none" stroke="black" cx="1061" cy="-955.519" rx="18.2703" ry="18.2703"/>
<text text-anchor="middle" x="1061" y="-953.319" font-family="Times New Roman,serif" font-size="9.00">56</text>
</g>
<!-- 4&#45;&gt;56 -->
<g id="edge95" class="edge"><title>4&#45;&gt;56</title>
<path fill="none" stroke="red" d="M1214.84,-1606.96C1198.36,-1563.75 1123,-1356.58 1123,-1180.48 1123,-1180.48 1123,-1180.48 1123,-1105.71 1123,-1057.88 1095.48,-1007.56 1077.11,-979.304"/>
<polygon fill="red" stroke="red" points="1079.99,-977.301 1071.52,-970.934 1074.17,-981.192 1079.99,-977.301"/>
</g>
<!-- 23 -->
<g id="node40" class="node"><title>23</title>
<ellipse fill="none" stroke="black" cx="1107" cy="-882.749" rx="18.2703" ry="18.2703"/>
<text text-anchor="middle" x="1107" y="-880.549" font-family="Times New Roman,serif" font-size="9.00">23</text>
</g>
<!-- 4&#45;&gt;23 -->
<g id="edge23" class="edge"><title>4&#45;&gt;23</title>
<path fill="none" stroke="green" d="M1210.51,-1606.78C1202.09,-1596.86 1188.84,-1579.4 1183,-1561.72 1129.78,-1400.56 1161,-1350.2 1161,-1180.48 1161,-1180.48 1161,-1180.48 1161,-1105.71 1161,-1045.1 1140.03,-1032.87 1126,-973.904 1121.01,-952.929 1116.01,-929.049 1112.39,-911.137"/>
<polygon fill="green" stroke="green" points="1115.77,-910.211 1110.38,-901.092 1108.91,-911.584 1115.77,-910.211"/>
</g>
<!-- 11 -->
<g id="node41" class="node"><title>11</title>
<ellipse fill="none" stroke="black" cx="1269" cy="-882.749" rx="18.2703" ry="18.2703"/>
<text text-anchor="middle" x="1269" y="-880.549" font-family="Times New Roman,serif" font-size="9.00">11</text>
</g>
<!-- 4&#45;&gt;11 -->
<g id="edge82" class="edge"><title>4&#45;&gt;11</title>
<path fill="none" stroke="green" d="M1224.19,-1606.83C1231.52,-1596.69 1243.67,-1578.73 1251,-1561.72 1267.41,-1523.64 1275,-1513.03 1275,-1471.56 1275,-1471.56 1275,-1471.56 1275,-1030.12 1275,-988.848 1272.59,-941.089 1270.82,-911.648"/>
<polygon fill="green" stroke="green" points="1274.3,-911.079 1270.19,-901.313 1267.31,-911.51 1274.3,-911.079"/>
</g>
<!-- 4&#45;&gt;6 -->
<g id="edge27" class="edge"><title>4&#45;&gt;6</title>
<path fill="none" stroke="red" d="M1219.82,-1607.06C1224.58,-1585.33 1237,-1523.6 1237,-1471.56 1237,-1471.56 1237,-1471.56 1237,-1030.12 1237,-889.133 1223.66,-851.671 1250,-713.169 1267.43,-621.518 1297,-601.881 1297,-508.588 1297,-508.588 1297,-508.588 1297,-209.853 1297,-148.345 1248.56,-143.879 1192,-119.698 1104.11,-82.1194 801.941,-72.415 712.888,-70.3438"/>
<polygon fill="red" stroke="red" points="712.963,-66.8447 702.888,-70.123 712.808,-73.843 712.963,-66.8447"/>
</g>
<!-- 4&#45;&gt;7 -->
<g id="edge14" class="edge"><title>4&#45;&gt;7</title>
<path fill="none" stroke="red" d="M1228.7,-1607.41C1254.5,-1587.88 1318,-1533.52 1318,-1471.56 1318,-1471.56 1318,-1471.56 1318,-881.749 1318,-838.337 1312.53,-827.189 1299,-785.938 1295.45,-775.112 1290.26,-763.606 1285.53,-754.059"/>
<polygon fill="red" stroke="red" points="1288.52,-752.233 1280.85,-744.929 1282.29,-755.425 1288.52,-752.233"/>
</g>
<!-- 37&#45;&gt;5 -->
<g id="edge98" class="edge"><title>37&#45;&gt;5</title>
<path fill="none" stroke="green" d="M1477.23,-640.331C1476.07,-612.481 1474,-556.265 1474,-508.588 1474,-508.588 1474,-508.588 1474,-137.083 1474,-98.1168 1477.13,-77.4353 1446,-54 1406.26,-24.0813 623.295,-12.1403 485.591,-10.2679"/>
<polygon fill="green" stroke="green" points="485.584,-6.76759 475.538,-10.1337 485.491,-13.767 485.584,-6.76759"/>
</g>
<!-- 30 -->
<g id="node42" class="node"><title>30</title>
<ellipse fill="none" stroke="black" cx="1137" cy="-583.186" rx="18.2703" ry="18.2703"/>
<text text-anchor="middle" x="1137" y="-580.986" font-family="Times New Roman,serif" font-size="9.00">30</text>
</g>
<!-- 37&#45;&gt;30 -->
<g id="edge16" class="edge"><title>37&#45;&gt;30</title>
<path fill="none" stroke="green" d="M1460.15,-653.931C1404.34,-641.886 1232.89,-604.882 1165.05,-590.241"/>
<polygon fill="green" stroke="green" points="1165.6,-586.778 1155.09,-588.09 1164.12,-593.621 1165.6,-586.778"/>
</g>
<!-- 31&#45;&gt;20 -->
<g id="edge22" class="edge"><title>31&#45;&gt;20</title>
<path fill="none" stroke="green" d="M162.116,-1757.95C234.649,-1747.19 504.426,-1707.17 592.784,-1694.06"/>
<polygon fill="green" stroke="green" points="593.487,-1697.49 602.865,-1692.56 592.46,-1690.57 593.487,-1697.49"/>
</g>
<!-- 31&#45;&gt;6 -->
<g id="edge69" class="edge"><title>31&#45;&gt;6</title>
<path fill="none" stroke="red" d="M145.619,-1742.98C147.957,-1715.91 152,-1662.53 152,-1617.1 152,-1617.1 152,-1617.1 152,-1105.71 152,-990.01 258.457,-1003.18 313,-901.134 433.762,-675.204 294.171,-551.343 436,-338.007 475.67,-278.337 508.518,-283.768 555,-229.238 592.793,-184.9 587.994,-162.973 627,-119.698 639.084,-106.292 654.92,-93.4605 667.428,-84.174"/>
<polygon fill="red" stroke="red" points="669.798,-86.7794 675.846,-78.0809 665.693,-81.1088 669.798,-86.7794"/>
</g>
<!-- 91 -->
<g id="node56" class="node"><title>91</title>
<ellipse fill="none" stroke="black" cx="490" cy="-138.083" rx="18.2703" ry="18.2703"/>
<text text-anchor="middle" x="490" y="-135.883" font-family="Times New Roman,serif" font-size="9.00">91</text>
</g>
<!-- 31&#45;&gt;91 -->
<g id="edge91" class="edge"><title>31&#45;&gt;91</title>
<path fill="none" stroke="red" d="M134.218,-1745.69C107.977,-1704.09 38,-1582.75 38,-1471.56 38,-1471.56 38,-1471.56 38,-1030.12 38,-974.221 195.399,-423.076 316,-265.238 356.967,-211.621 426.883,-170.803 464.406,-151.456"/>
<polygon fill="red" stroke="red" points="466.296,-154.422 473.645,-146.79 463.141,-148.174 466.296,-154.422"/>
</g>
<!-- 53 -->
<g id="node10" class="node"><title>53</title>
<ellipse fill="none" stroke="black" cx="909" cy="-1470.56" rx="18.2703" ry="18.2703"/>
<text text-anchor="middle" x="909" y="-1468.36" font-family="Times New Roman,serif" font-size="9.00">53</text>
</g>
<!-- 48&#45;&gt;53 -->
<g id="edge37" class="edge"><title>48&#45;&gt;53</title>
<path fill="none" stroke="red" d="M993.392,-1531.89C977.234,-1520.34 950.982,-1501.57 932.045,-1488.04"/>
<polygon fill="red" stroke="red" points="933.838,-1485.02 923.668,-1482.05 929.768,-1490.71 933.838,-1485.02"/>
</g>
<!-- 52 -->
<g id="node18" class="node"><title>52</title>
<ellipse fill="none" stroke="black" cx="901" cy="-1252.25" rx="18.2703" ry="18.2703"/>
<text text-anchor="middle" x="901" y="-1250.05" font-family="Times New Roman,serif" font-size="9.00">52</text>
</g>
<!-- 48&#45;&gt;52 -->
<g id="edge48" class="edge"><title>48&#45;&gt;52</title>
<path fill="none" stroke="green" d="M998.254,-1527.44C985.438,-1508.54 961.533,-1475.61 936,-1452.18 914.747,-1432.68 895.61,-1441.61 882,-1416.18 858.498,-1372.26 875.979,-1312.3 889.413,-1278.72"/>
<polygon fill="green" stroke="green" points="892.769,-1279.77 893.403,-1269.19 886.312,-1277.07 892.769,-1279.77"/>
</g>
<!-- 80 -->
<g id="node47" class="node"><title>80</title>
<ellipse fill="none" stroke="black" cx="931" cy="-807.151" rx="18.2703" ry="18.2703"/>
<text text-anchor="middle" x="931" y="-804.951" font-family="Times New Roman,serif" font-size="9.00">80</text>
</g>
<!-- 48&#45;&gt;80 -->
<g id="edge94" class="edge"><title>48&#45;&gt;80</title>
<path fill="none" stroke="red" d="M1012.54,-1525.24C1019.25,-1498.48 1031,-1444.98 1031,-1398.79 1031,-1398.79 1031,-1398.79 1031,-1324.02 1031,-1165.51 993.135,-1129.53 963,-973.904 953.589,-925.304 942.666,-868.68 936.323,-835.776"/>
<polygon fill="red" stroke="red" points="939.686,-834.73 934.357,-825.573 932.813,-836.055 939.686,-834.73"/>
</g>
<!-- 69 -->
<g id="node20" class="node"><title>69</title>
<ellipse fill="none" stroke="black" cx="236" cy="-1179.48" rx="18.2703" ry="18.2703"/>
<text text-anchor="middle" x="236" y="-1177.28" font-family="Times New Roman,serif" font-size="9.00">69</text>
</g>
<!-- 65&#45;&gt;69 -->
<g id="edge70" class="edge"><title>65&#45;&gt;69</title>
<path fill="none" stroke="red" d="M440.58,-1245.7C401.998,-1233.4 309.117,-1203.79 262.965,-1189.08"/>
<polygon fill="red" stroke="red" points="263.93,-1185.71 253.339,-1186.01 261.804,-1192.38 263.93,-1185.71"/>
</g>
<!-- 65&#45;&gt;24 -->
<g id="edge56" class="edge"><title>65&#45;&gt;24</title>
<path fill="none" stroke="green" d="M466.258,-1235.79C476.279,-1217.44 494.068,-1186.18 512,-1161.1 540.799,-1120.82 579.045,-1077.54 601.736,-1052.76"/>
<polygon fill="green" stroke="green" points="604.596,-1054.82 608.799,-1045.09 599.448,-1050.08 604.596,-1054.82"/>
</g>
<!-- 75 -->
<g id="node32" class="node"><title>75</title>
<ellipse fill="none" stroke="black" cx="778" cy="-1179.48" rx="18.2703" ry="18.2703"/>
<text text-anchor="middle" x="778" y="-1177.28" font-family="Times New Roman,serif" font-size="9.00">75</text>
</g>
<!-- 65&#45;&gt;75 -->
<g id="edge86" class="edge"><title>65&#45;&gt;75</title>
<path fill="none" stroke="red" d="M476.007,-1247.84C517.799,-1239.83 624.561,-1218.94 713,-1197.87 725.354,-1194.93 738.938,-1191.35 750.479,-1188.2"/>
<polygon fill="red" stroke="red" points="751.698,-1191.5 760.41,-1185.47 749.84,-1184.75 751.698,-1191.5"/>
</g>
<!-- 22 -->
<g id="node35" class="node"><title>22</title>
<ellipse fill="none" stroke="black" cx="573" cy="-882.749" rx="18.2703" ry="18.2703"/>
<text text-anchor="middle" x="573" y="-880.549" font-family="Times New Roman,serif" font-size="9.00">22</text>
</g>
<!-- 65&#45;&gt;22 -->
<g id="edge57" class="edge"><title>65&#45;&gt;22</title>
<path fill="none" stroke="red" d="M462.994,-1234.28C468.352,-1216.14 477.152,-1186.55 485,-1161.1 513.49,-1068.71 548.566,-959.448 564.457,-910.179"/>
<polygon fill="red" stroke="red" points="567.806,-911.195 567.547,-900.603 561.145,-909.045 567.806,-911.195"/>
</g>
<!-- 64 -->
<g id="node14" class="node"><title>64</title>
<ellipse fill="none" stroke="black" cx="909" cy="-1397.79" rx="18.2703" ry="18.2703"/>
<text text-anchor="middle" x="909" y="-1395.59" font-family="Times New Roman,serif" font-size="9.00">64</text>
</g>
<!-- 53&#45;&gt;64 -->
<g id="edge53" class="edge"><title>53&#45;&gt;64</title>
<path fill="none" stroke="green" d="M909,-1452.07C909,-1444.39 909,-1435.18 909,-1426.59"/>
<polygon fill="green" stroke="green" points="912.5,-1426.58 909,-1416.58 905.5,-1426.58 912.5,-1426.58"/>
</g>
<!-- 54 -->
<g id="node19" class="node"><title>54</title>
<ellipse fill="none" stroke="black" cx="703" cy="-1397.79" rx="18.2703" ry="18.2703"/>
<text text-anchor="middle" x="703" y="-1395.59" font-family="Times New Roman,serif" font-size="9.00">54</text>
</g>
<!-- 53&#45;&gt;54 -->
<g id="edge64" class="edge"><title>53&#45;&gt;54</title>
<path fill="none" stroke="green" d="M891.791,-1463.65C855.892,-1451.32 772.798,-1422.77 729.822,-1408.01"/>
<polygon fill="green" stroke="green" points="730.9,-1404.68 720.305,-1404.74 728.625,-1411.3 730.9,-1404.68"/>
</g>
<!-- 20&#45;&gt;5 -->
<g id="edge18" class="edge"><title>20&#45;&gt;5</title>
<path fill="none" stroke="green" d="M639.329,-1687.35C728.922,-1684.63 1121.13,-1670.82 1237,-1634.49 1313.78,-1610.41 1394,-1624.8 1394,-1544.33 1394,-1544.33 1394,-1544.33 1394,-1324.02 1394,-1226.41 1432,-1205.32 1432,-1107.71 1432,-1107.71 1432,-1107.71 1432,-137.083 1432,-96.6353 1577.73,-128.454 1246,-54 1095.14,-20.1407 594.762,-11.7042 485.987,-10.2528"/>
<polygon fill="green" stroke="green" points="485.737,-6.74945 475.693,-10.1211 485.647,-13.7489 485.737,-6.74945"/>
</g>
<!-- 62 -->
<g id="node13" class="node"><title>62</title>
<ellipse fill="none" stroke="black" cx="749" cy="-1616.1" rx="18.2703" ry="18.2703"/>
<text text-anchor="middle" x="749" y="-1613.9" font-family="Times New Roman,serif" font-size="9.00">62</text>
</g>
<!-- 20&#45;&gt;62 -->
<g id="edge49" class="edge"><title>20&#45;&gt;62</title>
<path fill="none" stroke="red" d="M636.695,-1679.19C658.575,-1667.1 698.462,-1645.04 724.337,-1630.74"/>
<polygon fill="red" stroke="red" points="726.118,-1633.75 733.176,-1625.85 722.731,-1627.63 726.118,-1633.75"/>
</g>
<!-- 20&#45;&gt;52 -->
<g id="edge111" class="edge"><title>20&#45;&gt;52</title>
<path fill="none" stroke="green" d="M639.353,-1685.89C670.709,-1681.64 735.156,-1669.05 776,-1634.49 810.812,-1605.03 825,-1589.94 825,-1544.33 825,-1544.33 825,-1544.33 825,-1396.79 825,-1348.45 859.087,-1300.48 881.604,-1274.07"/>
<polygon fill="green" stroke="green" points="884.479,-1276.1 888.45,-1266.27 879.22,-1271.48 884.479,-1276.1"/>
</g>
<!-- 20&#45;&gt;54 -->
<g id="edge62" class="edge"><title>20&#45;&gt;54</title>
<path fill="none" stroke="green" d="M623.575,-1670.61C629.78,-1631.08 647.211,-1531.35 676,-1452.18 679.545,-1442.43 684.433,-1432.16 689.077,-1423.26"/>
<polygon fill="green" stroke="green" points="692.28,-1424.7 693.946,-1414.24 686.119,-1421.38 692.28,-1424.7"/>
</g>
<!-- 28 -->
<g id="node24" class="node"><title>28</title>
<ellipse fill="none" stroke="black" cx="686" cy="-1106.71" rx="18.2703" ry="18.2703"/>
<text text-anchor="middle" x="686" y="-1104.51" font-family="Times New Roman,serif" font-size="9.00">28</text>
</g>
<!-- 20&#45;&gt;28 -->
<g id="edge32" class="edge"><title>20&#45;&gt;28</title>
<path fill="none" stroke="green" d="M610.81,-1673.14C594.414,-1647.95 564,-1594.47 564,-1544.33 564,-1544.33 564,-1544.33 564,-1251.25 564,-1191.81 625.499,-1144.42 661.169,-1121.93"/>
<polygon fill="green" stroke="green" points="663.34,-1124.71 670.051,-1116.51 659.692,-1118.73 663.34,-1124.71"/>
</g>
<!-- 20&#45;&gt;24 -->
<g id="edge58" class="edge"><title>20&#45;&gt;24</title>
<path fill="none" stroke="red" d="M612.063,-1672.48C588.414,-1630.25 526,-1508.41 526,-1398.79 526,-1398.79 526,-1398.79 526,-1251.25 526,-1210.73 581.386,-1104.33 607.578,-1056.28"/>
<polygon fill="red" stroke="red" points="610.661,-1057.94 612.402,-1047.49 604.524,-1054.57 610.661,-1057.94"/>
</g>
<!-- 20&#45;&gt;15 -->
<g id="edge10" class="edge"><title>20&#45;&gt;15</title>
<path fill="none" stroke="red" d="M602.818,-1684.51C551.97,-1673.96 412,-1636.55 412,-1544.33 412,-1544.33 412,-1544.33 412,-1251.25 412,-1162.03 430.206,-1141.12 439,-1052.33 441.263,-1029.49 442.827,-1003.49 443.79,-984.344"/>
<polygon fill="red" stroke="red" points="447.293,-984.365 444.276,-974.209 440.301,-984.029 447.293,-984.365"/>
</g>
<!-- 20&#45;&gt;30 -->
<g id="edge59" class="edge"><title>20&#45;&gt;30</title>
<path fill="none" stroke="green" d="M639.458,-1686.52C728.232,-1679.5 1107,-1643.75 1107,-1544.33 1107,-1544.33 1107,-1544.33 1107,-1396.79 1107,-1292.32 1199,-1284.96 1199,-1180.48 1199,-1180.48 1199,-1180.48 1199,-1030.12 1199,-938.873 1173.92,-918.69 1161,-828.365 1149.83,-750.259 1142.26,-657.348 1138.93,-611.945"/>
<polygon fill="green" stroke="green" points="1142.4,-611.441 1138.19,-601.718 1135.42,-611.944 1142.4,-611.441"/>
</g>
<!-- 112 -->
<g id="node29" class="node"><title>112</title>
<ellipse fill="none" stroke="black" cx="366" cy="-1031.12" rx="21.4286" ry="21.4286"/>
<text text-anchor="middle" x="366" y="-1028.92" font-family="Times New Roman,serif" font-size="9.00">112</text>
</g>
<!-- 58&#45;&gt;112 -->
<g id="edge115" class="edge"><title>58&#45;&gt;112</title>
<path fill="none" stroke="green" d="M366,-1088.27C366,-1080.66 366,-1071.5 366,-1062.8"/>
<polygon fill="green" stroke="green" points="369.5,-1062.57 366,-1052.57 362.5,-1062.57 369.5,-1062.57"/>
</g>
<!-- 59 -->
<g id="node15" class="node"><title>59</title>
<ellipse fill="none" stroke="black" cx="749" cy="-1543.33" rx="18.2703" ry="18.2703"/>
<text text-anchor="middle" x="749" y="-1541.13" font-family="Times New Roman,serif" font-size="9.00">59</text>
</g>
<!-- 62&#45;&gt;59 -->
<g id="edge50" class="edge"><title>62&#45;&gt;59</title>
<path fill="none" stroke="green" d="M749,-1597.61C749,-1589.93 749,-1580.72 749,-1572.13"/>
<polygon fill="green" stroke="green" points="752.5,-1572.12 749,-1562.12 745.5,-1572.12 752.5,-1572.12"/>
</g>
<!-- 21 -->
<g id="node49" class="node"><title>21</title>
<ellipse fill="none" stroke="black" cx="887" cy="-210.853" rx="18.2703" ry="18.2703"/>
<text text-anchor="middle" x="887" y="-208.653" font-family="Times New Roman,serif" font-size="9.00">21</text>
</g>
<!-- 62&#45;&gt;21 -->
<g id="edge52" class="edge"><title>62&#45;&gt;21</title>
<path fill="none" stroke="green" d="M767.404,-1613.99C823.957,-1610.21 993.861,-1596.18 1035,-1561.72 1067.83,-1534.22 1069,-1514.39 1069,-1471.56 1069,-1471.56 1069,-1471.56 1069,-1105.71 1069,-1004.19 1015,-985.278 1015,-883.749 1015,-883.749 1015,-883.749 1015,-806.151 1015,-660.743 879,-653.997 879,-508.588 879,-508.588 879,-508.588 879,-355.392 879,-315.113 882.179,-268.574 884.529,-239.676"/>
<polygon fill="green" stroke="green" points="888.034,-239.771 885.381,-229.513 881.058,-239.186 888.034,-239.771"/>
</g>
<!-- 82 -->
<g id="node16" class="node"><title>82</title>
<ellipse fill="none" stroke="black" cx="947" cy="-1325.02" rx="18.2703" ry="18.2703"/>
<text text-anchor="middle" x="947" y="-1322.82" font-family="Times New Roman,serif" font-size="9.00">82</text>
</g>
<!-- 64&#45;&gt;82 -->
<g id="edge89" class="edge"><title>64&#45;&gt;82</title>
<path fill="none" stroke="red" d="M917.433,-1381.09C922.255,-1372.11 928.407,-1360.65 933.85,-1350.51"/>
<polygon fill="red" stroke="red" points="936.943,-1352.15 938.59,-1341.69 930.776,-1348.84 936.943,-1352.15"/>
</g>
<!-- 64&#45;&gt;52 -->
<g id="edge92" class="edge"><title>64&#45;&gt;52</title>
<path fill="none" stroke="red" d="M908.019,-1379.19C906.658,-1354.76 904.18,-1310.32 902.563,-1281.29"/>
<polygon fill="red" stroke="red" points="906.04,-1280.79 901.989,-1271 899.051,-1281.18 906.04,-1280.79"/>
</g>
<!-- 81 -->
<g id="node17" class="node"><title>81</title>
<ellipse fill="none" stroke="black" cx="703" cy="-1470.56" rx="18.2703" ry="18.2703"/>
<text text-anchor="middle" x="703" y="-1468.36" font-family="Times New Roman,serif" font-size="9.00">81</text>
</g>
<!-- 59&#45;&gt;81 -->
<g id="edge104" class="edge"><title>59&#45;&gt;81</title>
<path fill="none" stroke="red" d="M739.245,-1527.32C733.146,-1517.94 725.162,-1505.66 718.241,-1495.01"/>
<polygon fill="red" stroke="red" points="721.126,-1493.03 712.741,-1486.55 715.257,-1496.84 721.126,-1493.03"/>
</g>
<!-- 61 -->
<g id="node25" class="node"><title>61</title>
<ellipse fill="none" stroke="black" cx="833" cy="-1179.48" rx="18.2703" ry="18.2703"/>
<text text-anchor="middle" x="833" y="-1177.28" font-family="Times New Roman,serif" font-size="9.00">61</text>
</g>
<!-- 59&#45;&gt;61 -->
<g id="edge51" class="edge"><title>59&#45;&gt;61</title>
<path fill="none" stroke="green" d="M752.939,-1525.36C766.329,-1467.69 810.172,-1278.82 826.657,-1207.81"/>
<polygon fill="green" stroke="green" points="830.12,-1208.37 828.972,-1197.84 823.301,-1206.79 830.12,-1208.37"/>
</g>
<!-- 125 -->
<g id="node37" class="node"><title>125</title>
<ellipse fill="none" stroke="black" cx="966" cy="-431.99" rx="21.4286" ry="21.4286"/>
<text text-anchor="middle" x="966" y="-429.79" font-family="Times New Roman,serif" font-size="9.00">125</text>
</g>
<!-- 59&#45;&gt;125 -->
<g id="edge117" class="edge"><title>59&#45;&gt;125</title>
<path fill="none" stroke="green" d="M767.378,-1542.71C804.7,-1542.42 889.742,-1536.27 936,-1488.95 982.733,-1441.14 963.669,-1409.46 974,-1343.41 996.932,-1196.8 997.616,-1158.1 990,-1009.9 987.107,-953.612 977,-940.115 977,-883.749 977,-883.749 977,-883.749 977,-582.186 977,-541.012 972.782,-493.618 969.569,-463.498"/>
<polygon fill="green" stroke="green" points="973.012,-462.784 968.441,-453.226 966.054,-463.548 973.012,-462.784"/>
</g>
<!-- 82&#45;&gt;52 -->
<g id="edge90" class="edge"><title>82&#45;&gt;52</title>
<path fill="none" stroke="red" d="M937.245,-1309.02C931.146,-1299.63 923.162,-1287.35 916.241,-1276.7"/>
<polygon fill="red" stroke="red" points="919.126,-1274.72 910.741,-1268.24 913.257,-1278.53 919.126,-1274.72"/>
</g>
<!-- 81&#45;&gt;54 -->
<g id="edge105" class="edge"><title>81&#45;&gt;54</title>
<path fill="none" stroke="red" d="M703,-1452.07C703,-1444.39 703,-1435.18 703,-1426.59"/>
<polygon fill="red" stroke="red" points="706.5,-1426.58 703,-1416.58 699.5,-1426.58 706.5,-1426.58"/>
</g>
<!-- 52&#45;&gt;61 -->
<g id="edge46" class="edge"><title>52&#45;&gt;61</title>
<path fill="none" stroke="red" d="M888.528,-1238.27C878.463,-1227.8 864.123,-1212.87 852.537,-1200.82"/>
<polygon fill="red" stroke="red" points="854.846,-1198.17 845.393,-1193.38 849.798,-1203.02 854.846,-1198.17"/>
</g>
<!-- 86 -->
<g id="node34" class="node"><title>86</title>
<ellipse fill="none" stroke="black" cx="871" cy="-1106.71" rx="18.2703" ry="18.2703"/>
<text text-anchor="middle" x="871" y="-1104.51" font-family="Times New Roman,serif" font-size="9.00">86</text>
</g>
<!-- 52&#45;&gt;86 -->
<g id="edge85" class="edge"><title>52&#45;&gt;86</title>
<path fill="none" stroke="green" d="M897.381,-1233.94C892.246,-1209.37 882.793,-1164.14 876.707,-1135.02"/>
<polygon fill="green" stroke="green" points="880.103,-1134.16 874.632,-1125.09 873.251,-1135.59 880.103,-1134.16"/>
</g>
<!-- 51 -->
<g id="node36" class="node"><title>51</title>
<ellipse fill="none" stroke="black" cx="732" cy="-807.151" rx="18.2703" ry="18.2703"/>
<text text-anchor="middle" x="732" y="-804.951" font-family="Times New Roman,serif" font-size="9.00">51</text>
</g>
<!-- 52&#45;&gt;51 -->
<g id="edge112" class="edge"><title>52&#45;&gt;51</title>
<path fill="none" stroke="green" d="M903.311,-1233.77C906.73,-1203.54 911.387,-1139.8 898,-1088.33 869.732,-979.642 844.336,-957.105 781,-864.365 772.273,-851.585 761.013,-838.485 751.488,-828.149"/>
<polygon fill="green" stroke="green" points="754.012,-825.724 744.613,-820.835 748.911,-830.518 754.012,-825.724"/>
</g>
<!-- 55 -->
<g id="node21" class="node"><title>55</title>
<ellipse fill="none" stroke="black" cx="703" cy="-1325.02" rx="18.2703" ry="18.2703"/>
<text text-anchor="middle" x="703" y="-1322.82" font-family="Times New Roman,serif" font-size="9.00">55</text>
</g>
<!-- 54&#45;&gt;55 -->
<g id="edge45" class="edge"><title>54&#45;&gt;55</title>
<path fill="none" stroke="red" d="M703,-1379.3C703,-1371.62 703,-1362.41 703,-1353.82"/>
<polygon fill="red" stroke="red" points="706.5,-1353.81 703,-1343.81 699.5,-1353.81 706.5,-1353.81"/>
</g>
<!-- 54&#45;&gt;28 -->
<g id="edge63" class="edge"><title>54&#45;&gt;28</title>
<path fill="none" stroke="green" d="M693.947,-1381.35C688.147,-1370.92 680.829,-1356.68 676,-1343.41 648.182,-1266.93 640.121,-1240.26 659,-1161.1 661.468,-1150.75 666.283,-1140.14 671.172,-1131.13"/>
<polygon fill="green" stroke="green" points="674.242,-1132.81 676.198,-1122.4 668.175,-1129.32 674.242,-1132.81"/>
</g>
<!-- 13 -->
<g id="node39" class="node"><title>13</title>
<ellipse fill="none" stroke="black" cx="686" cy="-658.784" rx="18.2703" ry="18.2703"/>
<text text-anchor="middle" x="686" y="-656.584" font-family="Times New Roman,serif" font-size="9.00">13</text>
</g>
<!-- 54&#45;&gt;13 -->
<g id="edge44" class="edge"><title>54&#45;&gt;13</title>
<path fill="none" stroke="red" d="M717.698,-1386.39C767.297,-1349.92 923.986,-1222.69 898,-1088.33 865.325,-919.385 746.55,-743.039 702.547,-682.064"/>
<polygon fill="red" stroke="red" points="705.332,-679.943 696.616,-673.919 699.673,-684.063 705.332,-679.943"/>
</g>
<!-- 69&#45;&gt;5 -->
<g id="edge78" class="edge"><title>69&#45;&gt;5</title>
<path fill="none" stroke="red" d="M220.051,-1169.44C186.981,-1149.35 114,-1097.62 114,-1032.12 114,-1032.12 114,-1032.12 114,-137.083 114,-66.3466 369.218,-23.8415 444.399,-12.855"/>
<polygon fill="red" stroke="red" points="445.091,-16.2919 454.495,-11.4127 444.101,-9.36221 445.091,-16.2919"/>
</g>
<!-- 70 -->
<g id="node26" class="node"><title>70</title>
<ellipse fill="none" stroke="black" cx="236" cy="-1106.71" rx="18.2703" ry="18.2703"/>
<text text-anchor="middle" x="236" y="-1104.51" font-family="Times New Roman,serif" font-size="9.00">70</text>
</g>
<!-- 69&#45;&gt;70 -->
<g id="edge71" class="edge"><title>69&#45;&gt;70</title>
<path fill="none" stroke="red" d="M236,-1160.99C236,-1153.31 236,-1144.1 236,-1135.52"/>
<polygon fill="red" stroke="red" points="239.5,-1135.5 236,-1125.5 232.5,-1135.5 239.5,-1135.5"/>
</g>
<!-- 88 -->
<g id="node22" class="node"><title>88</title>
<ellipse fill="none" stroke="black" cx="686" cy="-1252.25" rx="18.2703" ry="18.2703"/>
<text text-anchor="middle" x="686" y="-1250.05" font-family="Times New Roman,serif" font-size="9.00">88</text>
</g>
<!-- 55&#45;&gt;88 -->
<g id="edge110" class="edge"><title>55&#45;&gt;88</title>
<path fill="none" stroke="green" d="M698.885,-1306.89C696.964,-1298.89 694.631,-1289.18 692.481,-1280.24"/>
<polygon fill="green" stroke="green" points="695.816,-1279.13 690.077,-1270.23 689.01,-1280.77 695.816,-1279.13"/>
</g>
<!-- 55&#45;&gt;75 -->
<g id="edge81" class="edge"><title>55&#45;&gt;75</title>
<path fill="none" stroke="green" d="M715.3,-1311.33C724.73,-1301.04 737.524,-1285.81 746,-1270.64 757.227,-1250.55 765.676,-1225.79 771.065,-1207.31"/>
<polygon fill="green" stroke="green" points="774.487,-1208.07 773.812,-1197.49 767.746,-1206.18 774.487,-1208.07"/>
</g>
<!-- 55&#45;&gt;51 -->
<g id="edge54" class="edge"><title>55&#45;&gt;51</title>
<path fill="none" stroke="red" d="M708.591,-1307.45C717.019,-1280.95 732,-1227.26 732,-1180.48 732,-1180.48 732,-1180.48 732,-954.519 732,-913.285 732,-865.516 732,-836.064"/>
<polygon fill="red" stroke="red" points="735.5,-835.725 732,-825.725 728.5,-835.725 735.5,-835.725"/>
</g>
<!-- 89 -->
<g id="node23" class="node"><title>89</title>
<ellipse fill="none" stroke="black" cx="686" cy="-1179.48" rx="18.2703" ry="18.2703"/>
<text text-anchor="middle" x="686" y="-1177.28" font-family="Times New Roman,serif" font-size="9.00">89</text>
</g>
<!-- 88&#45;&gt;89 -->
<g id="edge113" class="edge"><title>88&#45;&gt;89</title>
<path fill="none" stroke="green" d="M686,-1233.76C686,-1226.08 686,-1216.87 686,-1208.28"/>
<polygon fill="green" stroke="green" points="689.5,-1208.27 686,-1198.27 682.5,-1208.27 689.5,-1208.27"/>
</g>
<!-- 89&#45;&gt;28 -->
<g id="edge114" class="edge"><title>89&#45;&gt;28</title>
<path fill="none" stroke="green" d="M686,-1160.99C686,-1153.31 686,-1144.1 686,-1135.52"/>
<polygon fill="green" stroke="green" points="689.5,-1135.5 686,-1125.5 682.5,-1135.5 689.5,-1135.5"/>
</g>
<!-- 28&#45;&gt;24 -->
<g id="edge33" class="edge"><title>28&#45;&gt;24</title>
<path fill="none" stroke="green" d="M674.078,-1092.22C664.457,-1081.32 650.75,-1065.8 639.675,-1053.26"/>
<polygon fill="green" stroke="green" points="642.09,-1050.71 632.846,-1045.53 636.843,-1055.34 642.09,-1050.71"/>
</g>
<!-- 28&#45;&gt;13 -->
<g id="edge93" class="edge"><title>28&#45;&gt;13</title>
<path fill="none" stroke="red" d="M686,-1088.26C686,-1060.4 686,-1004.18 686,-956.519 686,-956.519 686,-956.519 686,-806.151 686,-764.917 686,-717.148 686,-687.697"/>
<polygon fill="red" stroke="red" points="689.5,-687.357 686,-677.358 682.5,-687.358 689.5,-687.357"/>
</g>
<!-- 67 -->
<g id="node27" class="node"><title>67</title>
<ellipse fill="none" stroke="black" cx="816" cy="-1106.71" rx="18.2703" ry="18.2703"/>
<text text-anchor="middle" x="816" y="-1104.51" font-family="Times New Roman,serif" font-size="9.00">67</text>
</g>
<!-- 61&#45;&gt;67 -->
<g id="edge73" class="edge"><title>61&#45;&gt;67</title>
<path fill="none" stroke="green" d="M828.885,-1161.35C826.964,-1153.36 824.631,-1143.65 822.481,-1134.7"/>
<polygon fill="green" stroke="green" points="825.816,-1133.59 820.077,-1124.69 819.01,-1135.23 825.816,-1133.59"/>
</g>
<!-- 61&#45;&gt;24 -->
<g id="edge47" class="edge"><title>61&#45;&gt;24</title>
<path fill="none" stroke="green" d="M818.916,-1167.21C796.821,-1149.67 752.453,-1115.11 713,-1088.33 690.611,-1073.13 664.168,-1057.17 645.391,-1046.16"/>
<polygon fill="green" stroke="green" points="646.988,-1043.04 636.586,-1041.02 643.463,-1049.08 646.988,-1043.04"/>
</g>
<!-- 70&#45;&gt;24 -->
<g id="edge72" class="edge"><title>70&#45;&gt;24</title>
<path fill="none" stroke="green" d="M254.053,-1102.26C315.69,-1090.48 518.127,-1051.78 592.911,-1037.49"/>
<polygon fill="green" stroke="green" points="593.821,-1040.88 602.986,-1035.56 592.507,-1034 593.821,-1040.88"/>
</g>
<!-- 24&#45;&gt;15 -->
<g id="edge30" class="edge"><title>24&#45;&gt;15</title>
<path fill="none" stroke="red" d="M604.124,-1023.06C573.375,-1010.2 508.018,-982.871 471.353,-967.539"/>
<polygon fill="red" stroke="red" points="472.401,-964.183 461.825,-963.554 469.7,-970.641 472.401,-964.183"/>
</g>
<!-- 74 -->
<g id="node33" class="node"><title>74</title>
<ellipse fill="none" stroke="black" cx="1153" cy="-955.519" rx="18.2703" ry="18.2703"/>
<text text-anchor="middle" x="1153" y="-953.319" font-family="Times New Roman,serif" font-size="9.00">74</text>
</g>
<!-- 24&#45;&gt;74 -->
<g id="edge74" class="edge"><title>24&#45;&gt;74</title>
<path fill="none" stroke="green" d="M639.392,-1028.84C702.4,-1024.28 915.205,-1007.24 1088,-973.904 1100.47,-971.498 1114.07,-968 1125.59,-964.772"/>
<polygon fill="green" stroke="green" points="1126.86,-968.05 1135.5,-961.922 1124.92,-961.323 1126.86,-968.05"/>
</g>
<!-- 78 -->
<g id="node38" class="node"><title>78</title>
<ellipse fill="none" stroke="black" cx="640" cy="-731.553" rx="18.2703" ry="18.2703"/>
<text text-anchor="middle" x="640" y="-729.353" font-family="Times New Roman,serif" font-size="9.00">78</text>
</g>
<!-- 24&#45;&gt;78 -->
<g id="edge88" class="edge"><title>24&#45;&gt;78</title>
<path fill="none" stroke="red" d="M622.132,-1012.39C625.313,-962.571 634.355,-820.969 638.216,-760.491"/>
<polygon fill="red" stroke="red" points="641.73,-760.386 638.874,-750.183 634.744,-759.94 641.73,-760.386"/>
</g>
<!-- 112&#45;&gt;15 -->
<g id="edge116" class="edge"><title>112&#45;&gt;15</title>
<path fill="none" stroke="red" d="M381.232,-1015.93C393.526,-1004.47 410.94,-988.25 424.465,-975.65"/>
<polygon fill="red" stroke="red" points="426.979,-978.091 431.91,-968.713 422.208,-972.969 426.979,-978.091"/>
</g>
<!-- 15&#45;&gt;22 -->
<g id="edge31" class="edge"><title>15&#45;&gt;22</title>
<path fill="none" stroke="red" d="M460.695,-945.841C482.575,-933.744 522.462,-911.691 548.337,-897.385"/>
<polygon fill="red" stroke="red" points="550.118,-900.4 557.176,-892.498 546.731,-894.274 550.118,-900.4"/>
</g>
<!-- 15&#45;&gt;13 -->
<g id="edge8" class="edge"><title>15&#45;&gt;13</title>
<path fill="none" stroke="green" d="M456.96,-941.473C466.264,-930.992 479.197,-915.673 489,-901.134 542.138,-822.328 524.29,-780.872 591,-713.169 610.513,-693.365 638.928,-678.706 659.595,-669.811"/>
<polygon fill="green" stroke="green" points="661.137,-672.961 669.045,-665.91 658.466,-666.491 661.137,-672.961"/>
</g>
<!-- 15&#45;&gt;6 -->
<g id="edge87" class="edge"><title>15&#45;&gt;6</title>
<path fill="none" stroke="green" d="M450.784,-937.624C459.502,-910.612 475,-855.88 475,-808.151 475,-808.151 475,-808.151 475,-657.784 475,-515.943 611.756,-265.497 626,-229.238 645.117,-180.573 667.27,-123.442 679.237,-92.5178"/>
<polygon fill="green" stroke="green" points="682.542,-93.6746 682.886,-83.0853 676.014,-91.1492 682.542,-93.6746"/>
</g>
<!-- 56&#45;&gt;23 -->
<g id="edge96" class="edge"><title>56&#45;&gt;23</title>
<path fill="none" stroke="red" d="M1070.76,-939.511C1076.85,-930.128 1084.84,-917.846 1091.76,-907.197"/>
<polygon fill="red" stroke="red" points="1094.74,-909.028 1097.26,-898.736 1088.87,-905.213 1094.74,-909.028"/>
</g>
<!-- 19 -->
<g id="node46" class="node"><title>19</title>
<ellipse fill="none" stroke="black" cx="963" cy="-283.622" rx="18.2703" ry="18.2703"/>
<text text-anchor="middle" x="963" y="-281.422" font-family="Times New Roman,serif" font-size="9.00">19</text>
</g>
<!-- 56&#45;&gt;19 -->
<g id="edge108" class="edge"><title>56&#45;&gt;19</title>
<path fill="none" stroke="green" d="M1059.42,-936.962C1057.09,-909.506 1053,-854.723 1053,-808.151 1053,-808.151 1053,-808.151 1053,-430.99 1053,-378.59 1010.63,-329.186 984.028,-303.338"/>
<polygon fill="green" stroke="green" points="986.344,-300.711 976.669,-296.392 981.539,-305.802 986.344,-300.711"/>
</g>
<!-- 75&#45;&gt;86 -->
<g id="edge83" class="edge"><title>75&#45;&gt;86</title>
<path fill="none" stroke="red" d="M792.531,-1167.43C807.546,-1156 831.179,-1138.02 848.589,-1124.77"/>
<polygon fill="red" stroke="red" points="850.732,-1127.54 856.571,-1118.69 846.493,-1121.97 850.732,-1127.54"/>
</g>
<!-- 74&#45;&gt;23 -->
<g id="edge75" class="edge"><title>74&#45;&gt;23</title>
<path fill="none" stroke="green" d="M1143.24,-939.511C1137.15,-930.128 1129.16,-917.846 1122.24,-907.197"/>
<polygon fill="green" stroke="green" points="1125.13,-905.213 1116.74,-898.736 1119.26,-909.028 1125.13,-905.213"/>
</g>
<!-- 74&#45;&gt;11 -->
<g id="edge101" class="edge"><title>74&#45;&gt;11</title>
<path fill="none" stroke="red" d="M1168.64,-944.975C1188.21,-933.037 1221.92,-912.472 1244.82,-898.501"/>
<polygon fill="red" stroke="red" points="1246.89,-901.338 1253.6,-893.142 1243.24,-895.363 1246.89,-901.338"/>
</g>
<!-- 86&#45;&gt;51 -->
<g id="edge84" class="edge"><title>86&#45;&gt;51</title>
<path fill="none" stroke="green" d="M863.527,-1089.72C840.665,-1040.77 771.538,-892.791 743.751,-833.308"/>
<polygon fill="green" stroke="green" points="746.914,-831.808 739.51,-824.229 740.571,-834.77 746.914,-831.808"/>
</g>
<!-- 22&#45;&gt;51 -->
<g id="edge39" class="edge"><title>22&#45;&gt;51</title>
<path fill="none" stroke="green" d="M589.417,-874.15C617.029,-861.369 672.976,-835.473 705.984,-820.194"/>
<polygon fill="green" stroke="green" points="707.829,-823.196 715.434,-815.819 704.889,-816.844 707.829,-823.196"/>
</g>
<!-- 22&#45;&gt;13 -->
<g id="edge43" class="edge"><title>22&#45;&gt;13</title>
<path fill="none" stroke="red" d="M573.27,-864.176C574.56,-831.683 581.135,-761.156 613,-713.169 624.834,-695.346 644.752,-681.372 660.795,-672.199"/>
<polygon fill="red" stroke="red" points="662.586,-675.209 669.703,-667.36 659.245,-669.058 662.586,-675.209"/>
</g>
<!-- 51&#45;&gt;78 -->
<g id="edge60" class="edge"><title>51&#45;&gt;78</title>
<path fill="none" stroke="green" d="M718.027,-794.973C703.167,-783.086 679.454,-764.116 662.066,-750.206"/>
<polygon fill="green" stroke="green" points="664.1,-747.35 654.104,-743.837 659.727,-752.816 664.1,-747.35"/>
</g>
<!-- 51&#45;&gt;13 -->
<g id="edge40" class="edge"><title>51&#45;&gt;13</title>
<path fill="none" stroke="red" d="M726.723,-789.361C718.828,-764.239 703.863,-716.623 694.439,-686.635"/>
<polygon fill="red" stroke="red" points="697.694,-685.32 691.357,-676.829 691.016,-687.418 697.694,-685.32"/>
</g>
<!-- 125&#45;&gt;19 -->
<g id="edge118" class="edge"><title>125&#45;&gt;19</title>
<path fill="none" stroke="green" d="M965.583,-410.638C965.058,-385.006 964.153,-340.86 963.565,-312.21"/>
<polygon fill="green" stroke="green" points="967.062,-311.986 963.357,-302.06 960.063,-312.129 967.062,-311.986"/>
</g>
<!-- 78&#45;&gt;13 -->
<g id="edge61" class="edge"><title>78&#45;&gt;13</title>
<path fill="none" stroke="red" d="M649.755,-715.545C655.854,-706.162 663.838,-693.88 670.759,-683.232"/>
<polygon fill="red" stroke="red" points="673.743,-685.063 676.259,-674.771 667.874,-681.248 673.743,-685.063"/>
</g>
<!-- 13&#45;&gt;5 -->
<g id="edge68" class="edge"><title>13&#45;&gt;5</title>
<path fill="none" stroke="green" d="M676.342,-642.59C639.33,-583.343 506.438,-360.994 463,-156.468 453.385,-111.194 458.452,-56.2642 462.185,-28.291"/>
<polygon fill="green" stroke="green" points="465.697,-28.4561 463.656,-18.0597 458.768,-27.4595 465.697,-28.4561"/>
</g>
<!-- 13&#45;&gt;30 -->
<g id="edge12" class="edge"><title>13&#45;&gt;30</title>
<path fill="none" stroke="green" d="M704.238,-654.808C774.09,-643.409 1024.89,-602.481 1109.16,-588.729"/>
<polygon fill="green" stroke="green" points="1109.72,-592.184 1119.03,-587.119 1108.6,-585.275 1109.72,-592.184"/>
</g>
<!-- 13&#45;&gt;19 -->
<g id="edge41" class="edge"><title>13&#45;&gt;19</title>
<path fill="none" stroke="red" d="M704.126,-655.046C758.582,-645.697 917,-609.8 917,-508.588 917,-508.588 917,-508.588 917,-430.99 917,-386.671 936.431,-338.134 950.035,-309.582"/>
<polygon fill="red" stroke="red" points="953.299,-310.875 954.563,-300.356 947.015,-307.791 953.299,-310.875"/>
</g>
<!-- 128 -->
<g id="node50" class="node"><title>128</title>
<ellipse fill="none" stroke="black" cx="524" cy="-583.186" rx="21.4286" ry="21.4286"/>
<text text-anchor="middle" x="524" y="-580.986" font-family="Times New Roman,serif" font-size="9.00">128</text>
</g>
<!-- 13&#45;&gt;128 -->
<g id="edge119" class="edge"><title>13&#45;&gt;128</title>
<path fill="none" stroke="red" d="M668.85,-651.367C644.159,-641.952 597.346,-623.437 559,-604.399 556.26,-603.039 553.439,-601.556 550.642,-600.031"/>
<polygon fill="red" stroke="red" points="552.359,-596.981 541.929,-595.118 548.921,-603.078 552.359,-596.981"/>
</g>
<!-- 13&#45;&gt;6 -->
<g id="edge6" class="edge"><title>13&#45;&gt;6</title>
<path fill="none" stroke="green" d="M686.386,-640.328C686.967,-612.474 688,-556.252 688,-508.588 688,-508.588 688,-508.588 688,-209.853 688,-169.083 688,-121.635 688,-93.7626"/>
<polygon fill="green" stroke="green" points="691.5,-93.7592 688,-83.7593 684.5,-93.7593 691.5,-93.7592"/>
</g>
<!-- 23&#45;&gt;80 -->
<g id="edge79" class="edge"><title>23&#45;&gt;80</title>
<path fill="none" stroke="red" d="M1090.12,-874.692C1059.37,-861.834 994.018,-834.504 957.353,-819.171"/>
<polygon fill="red" stroke="red" points="958.401,-815.816 947.825,-815.187 955.7,-822.274 958.401,-815.816"/>
</g>
<!-- 23&#45;&gt;6 -->
<g id="edge24" class="edge"><title>23&#45;&gt;6</title>
<path fill="none" stroke="red" d="M1114.13,-865.408C1144.18,-795.935 1259,-524.501 1259,-432.99 1259,-432.99 1259,-432.99 1259,-209.853 1259,-95.7549 823.498,-74.1658 713.166,-70.5271"/>
<polygon fill="red" stroke="red" points="713.083,-67.023 702.979,-70.2127 712.867,-74.0197 713.083,-67.023"/>
</g>
<!-- 105 -->
<g id="node48" class="node"><title>105</title>
<ellipse fill="none" stroke="black" cx="1269" cy="-807.151" rx="21.4286" ry="21.4286"/>
<text text-anchor="middle" x="1269" y="-804.951" font-family="Times New Roman,serif" font-size="9.00">105</text>
</g>
<!-- 11&#45;&gt;105 -->
<g id="edge106" class="edge"><title>11&#45;&gt;105</title>
<path fill="none" stroke="red" d="M1269,-864.308C1269,-856.692 1269,-847.53 1269,-838.837"/>
<polygon fill="red" stroke="red" points="1272.5,-838.601 1269,-828.601 1265.5,-838.601 1272.5,-838.601"/>
</g>
<!-- 30&#45;&gt;99 -->
<g id="edge99" class="edge"><title>30&#45;&gt;99</title>
<path fill="none" stroke="green" d="M1149.89,-569.701C1161.65,-558.319 1179.2,-541.32 1192.81,-528.138"/>
<polygon fill="green" stroke="green" points="1195.55,-530.359 1200.3,-520.888 1190.68,-525.331 1195.55,-530.359"/>
</g>
<!-- 77 -->
<g id="node44" class="node"><title>77</title>
<ellipse fill="none" stroke="black" cx="1137" cy="-431.99" rx="18.2703" ry="18.2703"/>
<text text-anchor="middle" x="1137" y="-429.79" font-family="Times New Roman,serif" font-size="9.00">77</text>
</g>
<!-- 30&#45;&gt;77 -->
<g id="edge76" class="edge"><title>30&#45;&gt;77</title>
<path fill="none" stroke="red" d="M1137,-564.779C1137,-539.312 1137,-491.62 1137,-461.13"/>
<polygon fill="red" stroke="red" points="1140.5,-460.748 1137,-450.748 1133.5,-460.748 1140.5,-460.748"/>
</g>
<!-- 47 -->
<g id="node45" class="node"><title>47</title>
<ellipse fill="none" stroke="black" cx="1099" cy="-356.392" rx="18.2703" ry="18.2703"/>
<text text-anchor="middle" x="1099" y="-354.192" font-family="Times New Roman,serif" font-size="9.00">47</text>
</g>
<!-- 30&#45;&gt;47 -->
<g id="edge19" class="edge"><title>30&#45;&gt;47</title>
<path fill="none" stroke="green" d="M1132.92,-565.171C1127.13,-540.583 1116.54,-493.63 1110,-453.203 1106.3,-430.299 1103.38,-404.117 1101.48,-384.918"/>
<polygon fill="green" stroke="green" points="1104.95,-384.387 1100.51,-374.766 1097.98,-385.055 1104.95,-384.387"/>
</g>
<!-- 30&#45;&gt;19 -->
<g id="edge36" class="edge"><title>30&#45;&gt;19</title>
<path fill="none" stroke="green" d="M1141.59,-565.034C1144.48,-553.936 1148.18,-539.152 1151,-525.973 1168.6,-443.556 1190.29,-392.494 1126,-338.007 1086.88,-304.857 1026.65,-292.15 991.396,-287.382"/>
<polygon fill="green" stroke="green" points="991.662,-283.889 981.309,-286.144 990.808,-290.837 991.662,-283.889"/>
</g>
<!-- 99&#45;&gt;77 -->
<g id="edge100" class="edge"><title>99&#45;&gt;77</title>
<path fill="none" stroke="green" d="M1200.11,-494.103C1188.35,-482.721 1170.8,-465.722 1157.19,-452.54"/>
<polygon fill="green" stroke="green" points="1159.32,-449.733 1149.7,-445.29 1154.45,-454.761 1159.32,-449.733"/>
</g>
<!-- 77&#45;&gt;47 -->
<g id="edge77" class="edge"><title>77&#45;&gt;47</title>
<path fill="none" stroke="red" d="M1128.94,-415.382C1123.95,-405.722 1117.44,-393.106 1111.76,-382.11"/>
<polygon fill="red" stroke="red" points="1114.74,-380.257 1107.05,-372.978 1108.53,-383.469 1114.74,-380.257"/>
</g>
<!-- 47&#45;&gt;19 -->
<g id="edge20" class="edge"><title>47&#45;&gt;19</title>
<path fill="none" stroke="red" d="M1083.09,-346.652C1077.97,-343.864 1072.26,-340.783 1067,-338.007 1040.23,-323.869 1009.35,-308.083 988.238,-297.369"/>
<polygon fill="red" stroke="red" points="989.776,-294.225 979.274,-292.827 986.612,-300.469 989.776,-294.225"/>
</g>
<!-- 19&#45;&gt;21 -->
<g id="edge29" class="edge"><title>19&#45;&gt;21</title>
<path fill="none" stroke="red" d="M949.762,-270.295C938.101,-259.437 920.93,-243.448 907.495,-230.938"/>
<polygon fill="red" stroke="red" points="909.79,-228.292 900.086,-224.039 905.02,-233.415 909.79,-228.292"/>
</g>
<!-- 19&#45;&gt;6 -->
<g id="edge11" class="edge"><title>19&#45;&gt;6</title>
<path fill="none" stroke="green" d="M963.157,-265.181C962.455,-231.76 955.902,-158.568 914,-119.698 884.849,-92.6573 765.685,-77.6324 713.117,-72.2068"/>
<polygon fill="green" stroke="green" points="713.265,-68.7043 702.967,-71.1939 712.57,-75.6697 713.265,-68.7043"/>
</g>
<!-- 92 -->
<g id="node54" class="node"><title>92</title>
<ellipse fill="none" stroke="black" cx="528" cy="-210.853" rx="18.2703" ry="18.2703"/>
<text text-anchor="middle" x="528" y="-208.653" font-family="Times New Roman,serif" font-size="9.00">92</text>
</g>
<!-- 19&#45;&gt;92 -->
<g id="edge66" class="edge"><title>19&#45;&gt;92</title>
<path fill="none" stroke="green" d="M944.862,-279.672C877.084,-268.645 638.357,-229.807 556.102,-216.425"/>
<polygon fill="green" stroke="green" points="556.647,-212.967 546.215,-214.816 555.523,-219.877 556.647,-212.967"/>
</g>
<!-- 80&#45;&gt;6 -->
<g id="edge80" class="edge"><title>80&#45;&gt;6</title>
<path fill="none" stroke="green" d="M922.694,-790.531C900.414,-747.124 841,-620.849 841,-508.588 841,-508.588 841,-508.588 841,-209.853 841,-140.354 754.016,-96.0648 711.221,-78.4805"/>
<polygon fill="green" stroke="green" points="712.434,-75.1965 701.848,-74.7671 709.855,-81.7044 712.434,-75.1965"/>
</g>
<!-- 105&#45;&gt;7 -->
<g id="edge107" class="edge"><title>105&#45;&gt;7</title>
<path fill="none" stroke="green" d="M1270.39,-785.65C1271,-776.724 1271.71,-766.193 1272.35,-756.874"/>
<polygon fill="green" stroke="green" points="1275.86,-756.874 1273.04,-746.659 1268.87,-756.399 1275.86,-756.874"/>
</g>
<!-- 43 -->
<g id="node51" class="node"><title>43</title>
<ellipse fill="none" stroke="black" cx="887" cy="-138.083" rx="18.2703" ry="18.2703"/>
<text text-anchor="middle" x="887" y="-135.883" font-family="Times New Roman,serif" font-size="9.00">43</text>
</g>
<!-- 21&#45;&gt;43 -->
<g id="edge102" class="edge"><title>21&#45;&gt;43</title>
<path fill="none" stroke="green" d="M887,-192.359C887,-184.677 887,-175.468 887,-166.884"/>
<polygon fill="green" stroke="green" points="890.5,-166.867 887,-156.867 883.5,-166.867 890.5,-166.867"/>
</g>
<!-- 79 -->
<g id="node55" class="node"><title>79</title>
<ellipse fill="none" stroke="black" cx="488" cy="-356.392" rx="18.2703" ry="18.2703"/>
<text text-anchor="middle" x="488" y="-354.192" font-family="Times New Roman,serif" font-size="9.00">79</text>
</g>
<!-- 128&#45;&gt;79 -->
<g id="edge120" class="edge"><title>128&#45;&gt;79</title>
<path fill="none" stroke="red" d="M520.742,-561.84C514.252,-521.318 499.709,-430.505 492.388,-384.789"/>
<polygon fill="red" stroke="red" points="495.811,-384.033 490.774,-374.712 488.899,-385.14 495.811,-384.033"/>
</g>
<!-- 43&#45;&gt;6 -->
<g id="edge103" class="edge"><title>43&#45;&gt;6</title>
<path fill="none" stroke="red" d="M871.368,-127.749C866.26,-124.929 860.488,-121.979 855,-119.698 806.05,-99.3554 745.885,-83.5095 712.781,-75.5331"/>
<polygon fill="red" stroke="red" points="713.184,-72.0319 702.647,-73.1346 711.572,-78.8437 713.184,-72.0319"/>
</g>
<!-- 6&#45;&gt;5 -->
<g id="edge4" class="edge"><title>6&#45;&gt;5</title>
<path fill="none" stroke="red" d="M673.711,-64.1425C635.346,-54.1902 529.98,-26.8567 485.375,-15.2856"/>
<polygon fill="red" stroke="red" points="486.211,-11.8866 475.653,-12.7634 484.453,-18.6624 486.211,-11.8866"/>
</g>
<!-- 7&#45;&gt;5 -->
<g id="edge15" class="edge"><title>7&#45;&gt;5</title>
<path fill="none" stroke="red" d="M1282.48,-719.094C1299.24,-695.277 1335,-638.144 1335,-584.186 1335,-584.186 1335,-584.186 1335,-137.083 1335,-48.3684 617.554,-15.9787 485.691,-10.7748"/>
<polygon fill="red" stroke="red" points="485.814,-7.27704 475.686,-10.3884 485.544,-14.2718 485.814,-7.27704"/>
</g>
<!-- 92&#45;&gt;91 -->
<g id="edge67" class="edge"><title>92&#45;&gt;91</title>
<path fill="none" stroke="red" d="M519.567,-194.147C514.745,-185.168 508.593,-173.71 503.15,-163.574"/>
<polygon fill="red" stroke="red" points="506.224,-161.9 498.41,-154.745 500.057,-165.211 506.224,-161.9"/>
</g>
<!-- 79&#45;&gt;5 -->
<g id="edge25" class="edge"><title>79&#45;&gt;5</title>
<path fill="none" stroke="red" d="M474.825,-342.932C451.646,-319.591 406,-266.669 406,-211.853 406,-211.853 406,-211.853 406,-137.083 406,-98.6476 412.368,-88.1526 430,-54 435.317,-43.7006 443.233,-33.4887 450.192,-25.4993"/>
<polygon fill="red" stroke="red" points="452.811,-27.8211 456.948,-18.0675 447.632,-23.1122 452.811,-27.8211"/>
</g>
<!-- 91&#45;&gt;5 -->
<g id="edge65" class="edge"><title>91&#45;&gt;5</title>
<path fill="none" stroke="green" d="M486.628,-119.944C481.911,-95.9643 473.38,-52.5972 468.562,-28.1075"/>
<polygon fill="green" stroke="green" points="471.947,-27.1809 466.583,-18.0445 465.079,-28.5321 471.947,-27.1809"/>
</g>
</g>
</svg>
