<?xml version="1.0" encoding="UTF-8" standalone="no"?>
<!DOCTYPE svg PUBLIC "-//W3C//DTD SVG 1.1//EN"
 "http://www.w3.org/Graphics/SVG/1.1/DTD/svg11.dtd">
<!-- Generated by graphviz version 2.38.0 (20140413.2041)
 -->
<!-- Title: %3 Pages: 1 -->
<svg width="2105pt" height="2180pt"
 viewBox="0.00 0.00 2105.49 2179.77" xmlns="http://www.w3.org/2000/svg" xmlns:xlink="http://www.w3.org/1999/xlink">
<g id="graph0" class="graph" transform="scale(1 1) rotate(0) translate(4 2175.77)">
<title>%3</title>
<polygon fill="white" stroke="none" points="-4,4 -4,-2175.77 2101.49,-2175.77 2101.49,4 -4,4"/>
<!-- 1 -->
<g id="node1" class="node"><title>1</title>
<polygon fill="lightgray" stroke="black" points="177.5,-2171.77 156.5,-2171.77 156.5,-2153.77 177.5,-2153.77 177.5,-2171.77"/>
<text text-anchor="middle" x="167" y="-2160.57" font-family="Times New Roman,serif" font-size="9.00">1</text>
</g>
<!-- 5 -->
<g id="node5" class="node"><title>5</title>
<polygon fill="lightblue" stroke="black" points="1532.5,-18 1511.5,-18 1511.5,-0 1532.5,-0 1532.5,-18"/>
<text text-anchor="middle" x="1522" y="-6.8" font-family="Times New Roman,serif" font-size="9.00">5</text>
</g>
<!-- 1&#45;&gt;5 -->
<g id="edge1" class="edge"><title>1&#45;&gt;5</title>
<path fill="none" stroke="red" d="M156.378,-2160.29C134.202,-2156.7 82.3636,-2145.71 50,-2117.77 15.3149,-2087.84 0,-2073.44 0,-2027.62 0,-2027.62 0,-2027.62 0,-146.983 0,-71.5452 70.0625,-76.7117 142,-54 277.052,-11.3622 1338.82,-9.94954 1501.2,-9.9842"/>
<polygon fill="red" stroke="red" points="1501.31,-13.4842 1511.31,-9.98865 1501.31,-6.48415 1501.31,-13.4842"/>
</g>
<!-- 37 -->
<g id="node6" class="node"><title>37</title>
<ellipse fill="none" stroke="black" cx="446" cy="-665.855" rx="18.2703" ry="18.2703"/>
<text text-anchor="middle" x="446" y="-663.655" font-family="Times New Roman,serif" font-size="9.00">37</text>
</g>
<!-- 1&#45;&gt;37 -->
<g id="edge13" class="edge"><title>1&#45;&gt;37</title>
<path fill="none" stroke="green" d="M169.375,-2153.69C175.251,-2132.95 190,-2076.06 190,-2027.62 190,-2027.62 190,-2027.62 190,-1202.53 190,-1053.18 291.56,-1045.55 362,-913.862 402.136,-838.828 428.602,-740.899 439.846,-694.086"/>
<polygon fill="green" stroke="green" points="443.309,-694.649 442.196,-684.113 436.496,-693.043 443.309,-694.649"/>
</g>
<!-- 31 -->
<g id="node7" class="node"><title>31</title>
<ellipse fill="none" stroke="black" cx="144" cy="-2099.39" rx="18.2703" ry="18.2703"/>
<text text-anchor="middle" x="144" y="-2097.19" font-family="Times New Roman,serif" font-size="9.00">31</text>
</g>
<!-- 1&#45;&gt;31 -->
<g id="edge21" class="edge"><title>1&#45;&gt;31</title>
<path fill="none" stroke="green" d="M163.993,-2153.75C161.381,-2146.78 157.449,-2136.28 153.761,-2126.44"/>
<polygon fill="green" stroke="green" points="156.998,-2125.1 150.212,-2116.97 150.443,-2127.56 156.998,-2125.1"/>
</g>
<!-- 65 -->
<g id="node10" class="node"><title>65</title>
<ellipse fill="none" stroke="black" cx="759" cy="-1427.49" rx="18.2703" ry="18.2703"/>
<text text-anchor="middle" x="759" y="-1425.29" font-family="Times New Roman,serif" font-size="9.00">65</text>
</g>
<!-- 1&#45;&gt;65 -->
<g id="edge55" class="edge"><title>1&#45;&gt;65</title>
<path fill="none" stroke="red" d="M177.641,-2159.33C261.373,-2139.41 811,-1995.91 811,-1660.94 811,-1660.94 811,-1660.94 811,-1580.52 811,-1533.4 788.363,-1482.28 772.961,-1452.95"/>
<polygon fill="red" stroke="red" points="775.891,-1451.01 768.058,-1443.87 769.732,-1454.33 775.891,-1451.01"/>
</g>
<!-- 20 -->
<g id="node13" class="node"><title>20</title>
<ellipse fill="none" stroke="black" cx="1045" cy="-2026.62" rx="18.2703" ry="18.2703"/>
<text text-anchor="middle" x="1045" y="-2024.42" font-family="Times New Roman,serif" font-size="9.00">20</text>
</g>
<!-- 1&#45;&gt;20 -->
<g id="edge29" class="edge"><title>1&#45;&gt;20</title>
<path fill="none" stroke="green" d="M177.784,-2160.13C266.61,-2146.55 877.634,-2053.19 1016.82,-2031.92"/>
<polygon fill="green" stroke="green" points="1017.37,-2035.38 1026.72,-2030.41 1016.31,-2028.46 1017.37,-2035.38"/>
</g>
<!-- 15 -->
<g id="node38" class="node"><title>15</title>
<ellipse fill="none" stroke="black" cx="1523" cy="-1049.5" rx="18.2703" ry="18.2703"/>
<text text-anchor="middle" x="1523" y="-1047.3" font-family="Times New Roman,serif" font-size="9.00">15</text>
</g>
<!-- 1&#45;&gt;15 -->
<g id="edge7" class="edge"><title>1&#45;&gt;15</title>
<path fill="none" stroke="green" d="M177.882,-2161.58C329.741,-2158.85 2020,-2126.2 2020,-2027.62 2020,-2027.62 2020,-2027.62 2020,-1952.85 2020,-1550.98 1637.1,-1159.39 1543.47,-1069.65"/>
<polygon fill="green" stroke="green" points="1545.7,-1066.93 1536.04,-1062.58 1540.87,-1072 1545.7,-1066.93"/>
</g>
<!-- 99 -->
<g id="node61" class="node"><title>99</title>
<ellipse fill="none" stroke="black" cx="358" cy="-444.718" rx="18.2703" ry="18.2703"/>
<text text-anchor="middle" x="358" y="-442.518" font-family="Times New Roman,serif" font-size="9.00">99</text>
</g>
<!-- 1&#45;&gt;99 -->
<g id="edge127" class="edge"><title>1&#45;&gt;99</title>
<path fill="none" stroke="green" d="M156.239,-2154.42C145.216,-2146.44 128.156,-2132.82 117,-2117.77 90.7843,-2082.41 76,-2071.64 76,-2027.62 76,-2027.62 76,-2027.62 76,-1952.85 76,-1855.24 114,-1834.15 114,-1736.54 114,-1736.54 114,-1736.54 114,-1202.53 114,-982.941 281.202,-974.508 339,-762.666 367.293,-658.964 363.508,-529.347 360.097,-473.465"/>
<polygon fill="green" stroke="green" points="363.577,-473.05 359.43,-463.301 356.593,-473.509 363.577,-473.05"/>
</g>
<!-- 6 -->
<g id="node69" class="node"><title>6</title>
<ellipse fill="none" stroke="black" cx="1389" cy="-72.3848" rx="14.7" ry="14.7"/>
<text text-anchor="middle" x="1389" y="-70.1848" font-family="Times New Roman,serif" font-size="9.00">6</text>
</g>
<!-- 1&#45;&gt;6 -->
<g id="edge9" class="edge"><title>1&#45;&gt;6</title>
<path fill="none" stroke="green" d="M156.457,-2158.2C139.9,-2152.13 107.572,-2138.45 87,-2117.77 54.8334,-2085.45 38,-2073.22 38,-2027.62 38,-2027.62 38,-2027.62 38,-664.855 38,-256.771 382.346,-209.289 782,-126.77 1004.1,-80.911 1279.88,-74.4209 1363.69,-73.5227"/>
<polygon fill="green" stroke="green" points="1363.83,-77.0217 1373.8,-73.4325 1363.77,-70.022 1363.83,-77.0217"/>
</g>
<!-- 2 -->
<g id="node2" class="node"><title>2</title>
<polygon fill="lightgray" stroke="black" points="1886.5,-1212.53 1865.5,-1212.53 1865.5,-1194.53 1886.5,-1194.53 1886.5,-1212.53"/>
<text text-anchor="middle" x="1876" y="-1201.33" font-family="Times New Roman,serif" font-size="9.00">2</text>
</g>
<!-- 2&#45;&gt;5 -->
<g id="edge2" class="edge"><title>2&#45;&gt;5</title>
<path fill="none" stroke="green" d="M1874.34,-1194.43C1864.63,-1147.23 1815.37,-908.761 1805,-877.092 1799.55,-860.453 1794.25,-857.797 1789,-841.092 1775.62,-798.497 1770,-787.099 1770,-742.453 1770,-742.453 1770,-742.453 1770,-146.983 1770,-104.303 1777.05,-83.2817 1746,-54 1716.71,-26.378 1592.82,-14.8857 1542.94,-11.319"/>
<polygon fill="green" stroke="green" points="1542.92,-7.80992 1532.71,-10.6259 1542.45,-14.7939 1542.92,-7.80992"/>
</g>
<!-- 24 -->
<g id="node37" class="node"><title>24</title>
<ellipse fill="none" stroke="black" cx="984" cy="-1127.93" rx="18.2703" ry="18.2703"/>
<text text-anchor="middle" x="984" y="-1125.73" font-family="Times New Roman,serif" font-size="9.00">24</text>
</g>
<!-- 2&#45;&gt;24 -->
<g id="edge101" class="edge"><title>2&#45;&gt;24</title>
<path fill="none" stroke="red" d="M1865.49,-1202.21C1781.24,-1199.58 1214.73,-1180.95 1047,-1149.14 1034.73,-1146.81 1021.52,-1142.82 1010.38,-1138.99"/>
<polygon fill="red" stroke="red" points="1011.41,-1135.64 1000.82,-1135.58 1009.06,-1142.24 1011.41,-1135.64"/>
</g>
<!-- 100 -->
<g id="node58" class="node"><title>100</title>
<ellipse fill="none" stroke="black" cx="1895" cy="-1127.93" rx="21.4286" ry="21.4286"/>
<text text-anchor="middle" x="1895" y="-1125.73" font-family="Times New Roman,serif" font-size="9.00">100</text>
</g>
<!-- 2&#45;&gt;100 -->
<g id="edge134" class="edge"><title>2&#45;&gt;100</title>
<path fill="none" stroke="green" d="M1878.11,-1194.37C1880.33,-1185.75 1883.98,-1171.63 1887.31,-1158.71"/>
<polygon fill="green" stroke="green" points="1890.77,-1159.3 1889.89,-1148.74 1884,-1157.55 1890.77,-1159.3"/>
</g>
<!-- 7 -->
<g id="node70" class="node"><title>7</title>
<ellipse fill="none" stroke="black" cx="1906" cy="-741.453" rx="14.7" ry="14.7"/>
<text text-anchor="middle" x="1906" y="-739.253" font-family="Times New Roman,serif" font-size="9.00">7</text>
</g>
<!-- 2&#45;&gt;7 -->
<g id="edge17" class="edge"><title>2&#45;&gt;7</title>
<path fill="none" stroke="green" d="M1886.43,-1194.29C1897.79,-1184.7 1915.61,-1167.79 1925,-1149.14 1945.08,-1109.26 1944,-1095.15 1944,-1050.5 1944,-1050.5 1944,-1050.5 1944,-894.477 1944,-847.266 1926.54,-794.202 1915.29,-764.916"/>
<polygon fill="green" stroke="green" points="1918.54,-763.612 1911.61,-755.598 1912.03,-766.184 1918.54,-763.612"/>
</g>
<!-- 3 -->
<g id="node3" class="node"><title>3</title>
<polygon fill="lightgray" stroke="black" points="1593.5,-1590.52 1572.5,-1590.52 1572.5,-1572.52 1593.5,-1572.52 1593.5,-1590.52"/>
<text text-anchor="middle" x="1583" y="-1579.32" font-family="Times New Roman,serif" font-size="9.00">3</text>
</g>
<!-- 3&#45;&gt;5 -->
<g id="edge3" class="edge"><title>3&#45;&gt;5</title>
<path fill="none" stroke="green" d="M1586.87,-1572.29C1591.84,-1561.48 1600.48,-1541.8 1606,-1524.3 1691.69,-1252.91 1732,-1181.07 1732,-896.477 1732,-896.477 1732,-896.477 1732,-146.983 1732,-57.1717 1595.59,-23.149 1542.65,-13.3268"/>
<polygon fill="green" stroke="green" points="1543.16,-9.86175 1532.7,-11.5868 1541.95,-16.7571 1543.16,-9.86175"/>
</g>
<!-- 121 -->
<g id="node8" class="node"><title>121</title>
<ellipse fill="none" stroke="black" cx="1515" cy="-1503.09" rx="21.4286" ry="21.4286"/>
<text text-anchor="middle" x="1515" y="-1500.89" font-family="Times New Roman,serif" font-size="9.00">121</text>
</g>
<!-- 3&#45;&gt;121 -->
<g id="edge141" class="edge"><title>3&#45;&gt;121</title>
<path fill="none" stroke="red" d="M1575.72,-1572.34C1566.21,-1561.65 1549.16,-1542.49 1535.55,-1527.18"/>
<polygon fill="red" stroke="red" points="1538.06,-1524.74 1528.8,-1519.6 1532.83,-1529.39 1538.06,-1524.74"/>
</g>
<!-- 58 -->
<g id="node14" class="node"><title>58</title>
<ellipse fill="none" stroke="black" cx="1515" cy="-1427.49" rx="18.2703" ry="18.2703"/>
<text text-anchor="middle" x="1515" y="-1425.29" font-family="Times New Roman,serif" font-size="9.00">58</text>
</g>
<!-- 3&#45;&gt;58 -->
<g id="edge90" class="edge"><title>3&#45;&gt;58</title>
<path fill="none" stroke="red" d="M1580.33,-1572.43C1574.6,-1555.37 1560.39,-1514.59 1545,-1481.88 1540.36,-1472.02 1534.63,-1461.51 1529.43,-1452.44"/>
<polygon fill="red" stroke="red" points="1532.33,-1450.47 1524.26,-1443.6 1526.29,-1454 1532.33,-1450.47"/>
</g>
<!-- 3&#45;&gt;15 -->
<g id="edge38" class="edge"><title>3&#45;&gt;15</title>
<path fill="none" stroke="red" d="M1581.77,-1572.5C1574.95,-1527.8 1542,-1310.32 1542,-1280.12 1542,-1280.12 1542,-1280.12 1542,-1202.53 1542,-1158.51 1534.06,-1107.87 1528.45,-1077.57"/>
<polygon fill="red" stroke="red" points="1531.88,-1076.91 1526.57,-1067.74 1525.01,-1078.22 1531.88,-1076.91"/>
</g>
<!-- 21 -->
<g id="node67" class="node"><title>21</title>
<ellipse fill="none" stroke="black" cx="1177" cy="-223.581" rx="18.2703" ry="18.2703"/>
<text text-anchor="middle" x="1177" y="-221.381" font-family="Times New Roman,serif" font-size="9.00">21</text>
</g>
<!-- 3&#45;&gt;21 -->
<g id="edge150" class="edge"><title>3&#45;&gt;21</title>
<path fill="none" stroke="red" d="M1572.45,-1577.66C1552.03,-1571.55 1507.2,-1555.21 1485,-1524.3 1459.67,-1489.04 1466,-1471.9 1466,-1428.49 1466,-1428.49 1466,-1428.49 1466,-1353.72 1466,-1248.26 1390,-1234.39 1390,-1128.93 1390,-1128.93 1390,-1128.93 1390,-664.855 1390,-609.252 1348.27,-473.531 1324,-423.505 1289.12,-351.611 1227.28,-279.131 1196.1,-244.902"/>
<polygon fill="red" stroke="red" points="1198.57,-242.416 1189.22,-237.428 1193.42,-247.156 1198.57,-242.416"/>
</g>
<!-- 3&#45;&gt;6 -->
<g id="edge5" class="edge"><title>3&#45;&gt;6</title>
<path fill="none" stroke="green" d="M1583.94,-1572.43C1589.5,-1523.66 1618,-1263.52 1618,-1050.5 1618,-1050.5 1618,-1050.5 1618,-894.477 1618,-791.912 1656,-769.42 1656,-666.855 1656,-666.855 1656,-666.855 1656,-295.35 1656,-209.565 1628.67,-180.759 1562,-126.77 1518.17,-91.2731 1450.79,-79.3096 1414.4,-75.3287"/>
<polygon fill="green" stroke="green" points="1414.46,-71.8177 1404.17,-74.3323 1413.78,-78.7848 1414.46,-71.8177"/>
</g>
<!-- 4 -->
<g id="node4" class="node"><title>4</title>
<polygon fill="lightgray" stroke="black" points="1419.5,-1962.85 1398.5,-1962.85 1398.5,-1944.85 1419.5,-1944.85 1419.5,-1962.85"/>
<text text-anchor="middle" x="1409" y="-1951.65" font-family="Times New Roman,serif" font-size="9.00">4</text>
</g>
<!-- 4&#45;&gt;5 -->
<g id="edge27" class="edge"><title>4&#45;&gt;5</title>
<path fill="none" stroke="green" d="M1419.51,-1952.19C1483.56,-1948.13 1819.97,-1925.62 1857,-1899.46 1915.94,-1857.83 1897.36,-1818.79 1929,-1753.93 1961.23,-1687.87 1971.74,-1672.11 1996,-1602.73 2066.09,-1402.25 2058,-1341.3 2058,-1128.93 2058,-1128.93 2058,-1128.93 2058,-146.983 2058,-38.6574 1641.86,-14.8775 1542.92,-10.7546"/>
<polygon fill="green" stroke="green" points="1542.84,-7.24871 1532.71,-10.3533 1542.56,-14.2433 1542.84,-7.24871"/>
</g>
<!-- 48 -->
<g id="node9" class="node"><title>48</title>
<ellipse fill="none" stroke="black" cx="1272" cy="-1881.08" rx="18.2703" ry="18.2703"/>
<text text-anchor="middle" x="1272" y="-1878.88" font-family="Times New Roman,serif" font-size="9.00">48</text>
</g>
<!-- 4&#45;&gt;48 -->
<g id="edge35" class="edge"><title>4&#45;&gt;48</title>
<path fill="none" stroke="green" d="M1398.25,-1947.3C1376.62,-1936.12 1327.34,-1910.67 1297.14,-1895.07"/>
<polygon fill="green" stroke="green" points="1298.56,-1891.86 1288.07,-1890.38 1295.35,-1898.08 1298.56,-1891.86"/>
</g>
<!-- 4&#45;&gt;24 -->
<g id="edge41" class="edge"><title>4&#45;&gt;24</title>
<path fill="none" stroke="green" d="M1398.41,-1951.66C1370.76,-1948.1 1295.08,-1935.47 1245,-1899.46 1171.77,-1846.81 1124,-1826.74 1124,-1736.54 1124,-1736.54 1124,-1736.54 1124,-1353.72 1124,-1274.63 1114.91,-1248.07 1067,-1185.14 1052.01,-1165.45 1028.06,-1150.29 1009.73,-1140.7"/>
<polygon fill="green" stroke="green" points="1011.25,-1137.55 1000.74,-1136.2 1008.11,-1143.81 1011.25,-1137.55"/>
</g>
<!-- 56 -->
<g id="node39" class="node"><title>56</title>
<ellipse fill="none" stroke="black" cx="1070" cy="-593.085" rx="18.2703" ry="18.2703"/>
<text text-anchor="middle" x="1070" y="-590.885" font-family="Times New Roman,serif" font-size="9.00">56</text>
</g>
<!-- 4&#45;&gt;56 -->
<g id="edge88" class="edge"><title>4&#45;&gt;56</title>
<path fill="none" stroke="red" d="M1402.81,-1944.58C1395.48,-1934.43 1383.33,-1916.47 1376,-1899.46 1359.59,-1861.39 1352,-1850.77 1352,-1809.31 1352,-1809.31 1352,-1809.31 1352,-1353.72 1352,-1252.4 1314,-1230.25 1314,-1128.93 1314,-1128.93 1314,-1128.93 1314,-894.477 1314,-756.118 1156.11,-645.978 1094.35,-608.186"/>
<polygon fill="red" stroke="red" points="1096.01,-605.098 1085.63,-602.944 1092.4,-611.097 1096.01,-605.098"/>
</g>
<!-- 23 -->
<g id="node56" class="node"><title>23</title>
<ellipse fill="none" stroke="black" cx="1397" cy="-520.316" rx="18.2703" ry="18.2703"/>
<text text-anchor="middle" x="1397" y="-518.116" font-family="Times New Roman,serif" font-size="9.00">23</text>
</g>
<!-- 4&#45;&gt;23 -->
<g id="edge23" class="edge"><title>4&#45;&gt;23</title>
<path fill="none" stroke="red" d="M1407.18,-1944.8C1402.42,-1923.08 1390,-1861.34 1390,-1809.31 1390,-1809.31 1390,-1809.31 1390,-1353.72 1390,-1252.4 1352,-1230.25 1352,-1128.93 1352,-1128.93 1352,-1128.93 1352,-664.855 1352,-621.403 1371.01,-573.8 1384.32,-545.796"/>
<polygon fill="red" stroke="red" points="1387.49,-547.268 1388.75,-536.747 1381.21,-544.19 1387.49,-547.268"/>
</g>
<!-- 11 -->
<g id="node57" class="node"><title>11</title>
<ellipse fill="none" stroke="black" cx="1778" cy="-895.477" rx="18.2703" ry="18.2703"/>
<text text-anchor="middle" x="1778" y="-893.277" font-family="Times New Roman,serif" font-size="9.00">11</text>
</g>
<!-- 4&#45;&gt;11 -->
<g id="edge81" class="edge"><title>4&#45;&gt;11</title>
<path fill="none" stroke="red" d="M1419.7,-1952.95C1476.9,-1953.28 1746.38,-1951.98 1806,-1899.46 1837.11,-1872.06 1830,-1850.77 1830,-1809.31 1830,-1809.31 1830,-1809.31 1830,-1426.49 1830,-1233.1 1795.29,-1001.91 1782.59,-923.79"/>
<polygon fill="red" stroke="red" points="1786.02,-923.103 1780.94,-913.803 1779.11,-924.238 1786.02,-923.103"/>
</g>
<!-- 4&#45;&gt;6 -->
<g id="edge28" class="edge"><title>4&#45;&gt;6</title>
<path fill="none" stroke="green" d="M1410.82,-1944.8C1415.58,-1923.08 1428,-1861.34 1428,-1809.31 1428,-1809.31 1428,-1809.31 1428,-1202.53 1428,-1103.61 1484.55,-1089.82 1501,-992.288 1552.38,-687.676 1488,-606.266 1488,-297.35 1488,-297.35 1488,-297.35 1488,-222.581 1488,-165.429 1436.94,-113.416 1408.16,-88.6379"/>
<polygon fill="green" stroke="green" points="1410.27,-85.8451 1400.36,-82.1176 1405.78,-91.2161 1410.27,-85.8451"/>
</g>
<!-- 4&#45;&gt;7 -->
<g id="edge14" class="edge"><title>4&#45;&gt;7</title>
<path fill="none" stroke="red" d="M1419.83,-1952.85C1479.02,-1952.64 1763.27,-1949.05 1832,-1899.46 1846.82,-1888.77 1967.87,-1619.95 1974,-1602.73 2044.96,-1403.41 2020,-1340.5 2020,-1128.93 2020,-1128.93 2020,-1128.93 2020,-894.477 2020,-850.579 2021.83,-834.164 1996,-798.666 1979.23,-775.622 1949.87,-759.903 1929.25,-751.069"/>
<polygon fill="red" stroke="red" points="1930.51,-747.803 1919.93,-747.284 1927.88,-754.289 1930.51,-747.803"/>
</g>
<!-- 37&#45;&gt;5 -->
<g id="edge92" class="edge"><title>37&#45;&gt;5</title>
<path fill="none" stroke="green" d="M429.429,-657.471C395.569,-641.404 318.799,-599.746 285,-538.701 232.733,-444.3 175.916,-126.318 256,-54 304.169,-10.5017 1340.24,-9.81193 1501.1,-9.96772"/>
<polygon fill="green" stroke="green" points="1501.49,-13.4681 1511.5,-9.98034 1501.5,-6.46811 1501.49,-13.4681"/>
</g>
<!-- 37&#45;&gt;56 -->
<g id="edge165" class="edge"><title>37&#45;&gt;56</title>
<path fill="none" stroke="red" d="M464.337,-662.775C552.6,-652.765 933.834,-609.528 1041.55,-597.311"/>
<polygon fill="red" stroke="red" points="1042.12,-600.77 1051.66,-596.165 1041.33,-593.814 1042.12,-600.77"/>
</g>
<!-- 84 -->
<g id="node44" class="node"><title>84</title>
<ellipse fill="none" stroke="black" cx="484" cy="-593.085" rx="18.2703" ry="18.2703"/>
<text text-anchor="middle" x="484" y="-590.885" font-family="Times New Roman,serif" font-size="9.00">84</text>
</g>
<!-- 37&#45;&gt;84 -->
<g id="edge138" class="edge"><title>37&#45;&gt;84</title>
<path fill="none" stroke="red" d="M454.433,-649.149C459.255,-640.17 465.407,-628.712 470.85,-618.576"/>
<polygon fill="red" stroke="red" points="473.943,-620.214 475.59,-609.748 467.776,-616.902 473.943,-620.214"/>
</g>
<!-- 30 -->
<g id="node59" class="node"><title>30</title>
<ellipse fill="none" stroke="black" cx="650" cy="-520.316" rx="18.2703" ry="18.2703"/>
<text text-anchor="middle" x="650" y="-518.116" font-family="Times New Roman,serif" font-size="9.00">30</text>
</g>
<!-- 37&#45;&gt;30 -->
<g id="edge16" class="edge"><title>37&#45;&gt;30</title>
<path fill="none" stroke="green" d="M442.921,-647.69C440.384,-627.712 439.606,-594.889 457,-574.701 478.466,-549.786 573.613,-532.54 621.813,-525.235"/>
<polygon fill="green" stroke="green" points="622.509,-528.67 631.891,-523.749 621.488,-521.745 622.509,-528.67"/>
</g>
<!-- 31&#45;&gt;20 -->
<g id="edge22" class="edge"><title>31&#45;&gt;20</title>
<path fill="none" stroke="red" d="M162.406,-2096.94C275.637,-2088.05 877.458,-2040.78 1016.37,-2029.87"/>
<polygon fill="red" stroke="red" points="1016.93,-2033.33 1026.62,-2029.06 1016.38,-2026.36 1016.93,-2033.33"/>
</g>
<!-- 31&#45;&gt;6 -->
<g id="edge69" class="edge"><title>31&#45;&gt;6</title>
<path fill="none" stroke="red" d="M145.619,-2080.73C147.957,-2053.66 152,-2000.27 152,-1954.85 152,-1954.85 152,-1954.85 152,-1202.53 152,-815.5 1.68883,-550.791 333,-350.735 699.629,-129.353 1241.69,-82.7034 1363.91,-74.8014"/>
<polygon fill="red" stroke="red" points="1364.35,-78.2812 1374.12,-74.1705 1363.92,-71.2945 1364.35,-78.2812"/>
</g>
<!-- 91 -->
<g id="node74" class="node"><title>91</title>
<ellipse fill="none" stroke="black" cx="283" cy="-72.3848" rx="18.2703" ry="18.2703"/>
<text text-anchor="middle" x="283" y="-70.1848" font-family="Times New Roman,serif" font-size="9.00">91</text>
</g>
<!-- 31&#45;&gt;91 -->
<g id="edge117" class="edge"><title>31&#45;&gt;91</title>
<path fill="none" stroke="green" d="M138.55,-2081.64C122.414,-2030.52 76,-1871.73 76,-1736.54 76,-1736.54 76,-1736.54 76,-519.316 76,-340.79 214.184,-156.306 264.748,-94.7763"/>
<polygon fill="green" stroke="green" points="267.575,-96.8504 271.278,-86.9236 262.193,-92.3748 267.575,-96.8504"/>
</g>
<!-- 121&#45;&gt;58 -->
<g id="edge142" class="edge"><title>121&#45;&gt;58</title>
<path fill="none" stroke="green" d="M1515,-1481.59C1515,-1473.69 1515,-1464.54 1515,-1456.09"/>
<polygon fill="green" stroke="green" points="1518.5,-1455.89 1515,-1445.89 1511.5,-1455.89 1518.5,-1455.89"/>
</g>
<!-- 53 -->
<g id="node11" class="node"><title>53</title>
<ellipse fill="none" stroke="black" cx="960" cy="-1808.31" rx="18.2703" ry="18.2703"/>
<text text-anchor="middle" x="960" y="-1806.11" font-family="Times New Roman,serif" font-size="9.00">53</text>
</g>
<!-- 48&#45;&gt;53 -->
<g id="edge37" class="edge"><title>48&#45;&gt;53</title>
<path fill="none" stroke="red" d="M1253.88,-1875.97C1201.63,-1864.12 1050.43,-1829.82 987.739,-1815.6"/>
<polygon fill="red" stroke="red" points="988.311,-1812.14 977.784,-1813.34 986.762,-1818.97 988.311,-1812.14"/>
</g>
<!-- 52 -->
<g id="node23" class="node"><title>52</title>
<ellipse fill="none" stroke="black" cx="1185" cy="-1354.72" rx="18.2703" ry="18.2703"/>
<text text-anchor="middle" x="1185" y="-1352.52" font-family="Times New Roman,serif" font-size="9.00">52</text>
</g>
<!-- 48&#45;&gt;52 -->
<g id="edge47" class="edge"><title>48&#45;&gt;52</title>
<path fill="none" stroke="red" d="M1268.64,-1862.92C1263.69,-1836.08 1255,-1782.46 1255,-1736.54 1255,-1736.54 1255,-1736.54 1255,-1580.52 1255,-1504.8 1218.35,-1420.97 1198.09,-1380.4"/>
<polygon fill="red" stroke="red" points="1201.1,-1378.6 1193.44,-1371.28 1194.86,-1381.78 1201.1,-1378.6"/>
</g>
<!-- 80 -->
<g id="node65" class="node"><title>80</title>
<ellipse fill="none" stroke="black" cx="1534" cy="-369.12" rx="18.2703" ry="18.2703"/>
<text text-anchor="middle" x="1534" y="-366.92" font-family="Times New Roman,serif" font-size="9.00">80</text>
</g>
<!-- 48&#45;&gt;80 -->
<g id="edge87" class="edge"><title>48&#45;&gt;80</title>
<path fill="none" stroke="green" d="M1286.33,-1868.84C1356.75,-1813.47 1663.93,-1570.57 1692,-1524.3 1754.66,-1421.02 1760.8,-1377.81 1746,-1257.91 1734.36,-1163.59 1694,-1145.54 1694,-1050.5 1694,-1050.5 1694,-1050.5 1694,-894.477 1694,-727.884 1622.39,-698.704 1576,-538.701 1561.68,-489.296 1547.8,-430.9 1540.13,-397.419"/>
<polygon fill="green" stroke="green" points="1543.49,-396.441 1537.86,-387.466 1536.67,-397.994 1543.49,-396.441"/>
</g>
<!-- 69 -->
<g id="node25" class="node"><title>69</title>
<ellipse fill="none" stroke="black" cx="769" cy="-1354.72" rx="18.2703" ry="18.2703"/>
<text text-anchor="middle" x="769" y="-1352.52" font-family="Times New Roman,serif" font-size="9.00">69</text>
</g>
<!-- 65&#45;&gt;69 -->
<g id="edge70" class="edge"><title>65&#45;&gt;69</title>
<path fill="none" stroke="green" d="M761.472,-1409C762.574,-1401.2 763.898,-1391.83 765.127,-1383.13"/>
<polygon fill="green" stroke="green" points="768.623,-1383.41 766.557,-1373.01 761.692,-1382.43 768.623,-1383.41"/>
</g>
<!-- 65&#45;&gt;24 -->
<g id="edge56" class="edge"><title>65&#45;&gt;24</title>
<path fill="none" stroke="red" d="M769.852,-1412.14C806.09,-1364.22 923.103,-1209.46 967.082,-1151.3"/>
<polygon fill="red" stroke="red" points="970.017,-1153.22 973.257,-1143.14 964.434,-1149 970.017,-1153.22"/>
</g>
<!-- 75 -->
<g id="node42" class="node"><title>75</title>
<ellipse fill="none" stroke="black" cx="714" cy="-1354.72" rx="18.2703" ry="18.2703"/>
<text text-anchor="middle" x="714" y="-1352.52" font-family="Times New Roman,serif" font-size="9.00">75</text>
</g>
<!-- 65&#45;&gt;75 -->
<g id="edge114" class="edge"><title>65&#45;&gt;75</title>
<path fill="none" stroke="red" d="M749.457,-1411.48C743.491,-1402.1 735.681,-1389.82 728.91,-1379.17"/>
<polygon fill="red" stroke="red" points="731.849,-1377.27 723.53,-1370.71 725.942,-1381.03 731.849,-1377.27"/>
</g>
<!-- 22 -->
<g id="node48" class="node"><title>22</title>
<ellipse fill="none" stroke="black" cx="823" cy="-971.075" rx="18.2703" ry="18.2703"/>
<text text-anchor="middle" x="823" y="-968.875" font-family="Times New Roman,serif" font-size="9.00">22</text>
</g>
<!-- 65&#45;&gt;22 -->
<g id="edge57" class="edge"><title>65&#45;&gt;22</title>
<path fill="none" stroke="red" d="M740.704,-1424.37C695.048,-1418.68 577.974,-1401.57 553,-1373.11 519.132,-1334.5 540.496,-1309.15 544,-1257.91 546.227,-1225.34 537.815,-1213.49 554,-1185.14 612.654,-1082.4 742.17,-1010.85 797.322,-983.919"/>
<polygon fill="red" stroke="red" points="798.918,-987.035 806.42,-979.553 795.89,-980.724 798.918,-987.035"/>
</g>
<!-- 96 -->
<g id="node12" class="node"><title>96</title>
<ellipse fill="none" stroke="black" cx="983" cy="-1735.54" rx="18.2703" ry="18.2703"/>
<text text-anchor="middle" x="983" y="-1733.34" font-family="Times New Roman,serif" font-size="9.00">96</text>
</g>
<!-- 53&#45;&gt;96 -->
<g id="edge97" class="edge"><title>53&#45;&gt;96</title>
<path fill="none" stroke="green" d="M965.451,-1790.54C968.143,-1782.25 971.454,-1772.07 974.472,-1762.78"/>
<polygon fill="green" stroke="green" points="977.826,-1763.78 977.588,-1753.19 971.169,-1761.62 977.826,-1763.78"/>
</g>
<!-- 64 -->
<g id="node17" class="node"><title>64</title>
<ellipse fill="none" stroke="black" cx="958" cy="-1659.94" rx="18.2703" ry="18.2703"/>
<text text-anchor="middle" x="958" y="-1657.74" font-family="Times New Roman,serif" font-size="9.00">64</text>
</g>
<!-- 53&#45;&gt;64 -->
<g id="edge52" class="edge"><title>53&#45;&gt;64</title>
<path fill="none" stroke="green" d="M958.334,-1789.53C957.445,-1779.16 956.445,-1765.81 956,-1753.93 955.177,-1731.94 955.797,-1707.02 956.557,-1688.51"/>
<polygon fill="green" stroke="green" points="960.057,-1688.57 957.01,-1678.43 953.064,-1688.26 960.057,-1688.57"/>
</g>
<!-- 54 -->
<g id="node24" class="node"><title>54</title>
<ellipse fill="none" stroke="black" cx="702" cy="-1659.94" rx="18.2703" ry="18.2703"/>
<text text-anchor="middle" x="702" y="-1657.74" font-family="Times New Roman,serif" font-size="9.00">54</text>
</g>
<!-- 53&#45;&gt;54 -->
<g id="edge64" class="edge"><title>53&#45;&gt;54</title>
<path fill="none" stroke="red" d="M944.249,-1798.37C900.785,-1773.72 778.923,-1704.58 726.492,-1674.84"/>
<polygon fill="red" stroke="red" points="727.969,-1671.65 717.545,-1669.76 724.515,-1677.74 727.969,-1671.65"/>
</g>
<!-- 96&#45;&gt;64 -->
<g id="edge98" class="edge"><title>96&#45;&gt;64</title>
<path fill="none" stroke="red" d="M977.327,-1717.84C974.259,-1708.81 970.398,-1697.44 966.936,-1687.25"/>
<polygon fill="red" stroke="red" points="970.181,-1685.92 963.65,-1677.58 963.553,-1688.17 970.181,-1685.92"/>
</g>
<!-- 20&#45;&gt;5 -->
<g id="edge18" class="edge"><title>20&#45;&gt;5</title>
<path fill="none" stroke="red" d="M1063.62,-2025.64C1165.49,-2025.58 1655.87,-2022.63 1797,-1972.23 1849.79,-1953.38 1865.13,-1943.35 1900,-1899.46 2119.83,-1622.8 2096,-1482.29 2096,-1128.93 2096,-1128.93 2096,-1128.93 2096,-146.983 2096,-128.301 2115.97,-108.704 1978,-54 1897.13,-21.9338 1621.47,-12.5405 1543,-10.4865"/>
<polygon fill="red" stroke="red" points="1542.61,-6.97588 1532.52,-10.2262 1542.43,-13.9737 1542.61,-6.97588"/>
</g>
<!-- 87 -->
<g id="node15" class="node"><title>87</title>
<ellipse fill="none" stroke="black" cx="1167" cy="-1953.85" rx="18.2703" ry="18.2703"/>
<text text-anchor="middle" x="1167" y="-1951.65" font-family="Times New Roman,serif" font-size="9.00">87</text>
</g>
<!-- 20&#45;&gt;87 -->
<g id="edge99" class="edge"><title>20&#45;&gt;87</title>
<path fill="none" stroke="red" d="M1060.45,-2016.66C1081.15,-2004.65 1118.09,-1983.22 1142.58,-1969.02"/>
<polygon fill="red" stroke="red" points="1144.39,-1972.01 1151.29,-1963.96 1140.88,-1965.95 1144.39,-1972.01"/>
</g>
<!-- 62 -->
<g id="node16" class="node"><title>62</title>
<ellipse fill="none" stroke="black" cx="1129" cy="-1881.08" rx="18.2703" ry="18.2703"/>
<text text-anchor="middle" x="1129" y="-1878.88" font-family="Times New Roman,serif" font-size="9.00">62</text>
</g>
<!-- 20&#45;&gt;62 -->
<g id="edge48" class="edge"><title>20&#45;&gt;62</title>
<path fill="none" stroke="red" d="M1059.09,-2014.22C1070.66,-2004.21 1086.75,-1988.71 1097,-1972.23 1109.16,-1952.69 1117.53,-1927.89 1122.65,-1909.25"/>
<polygon fill="red" stroke="red" points="1126.1,-1909.9 1125.23,-1899.34 1119.33,-1908.13 1126.1,-1909.9"/>
</g>
<!-- 20&#45;&gt;52 -->
<g id="edge128" class="edge"><title>20&#45;&gt;52</title>
<path fill="none" stroke="green" d="M1050.24,-2008.74C1059.65,-1978.91 1080.45,-1915.07 1102,-1862.69 1125.62,-1805.28 1162,-1798.63 1162,-1736.54 1162,-1736.54 1162,-1736.54 1162,-1502.09 1162,-1459.94 1171.42,-1411.77 1178.21,-1382.57"/>
<polygon fill="green" stroke="green" points="1181.64,-1383.25 1180.57,-1372.71 1174.84,-1381.62 1181.64,-1383.25"/>
</g>
<!-- 20&#45;&gt;54 -->
<g id="edge63" class="edge"><title>20&#45;&gt;54</title>
<path fill="none" stroke="red" d="M1026.54,-2025.62C959.799,-2024.55 735,-2011.37 735,-1882.08 735,-1882.08 735,-1882.08 735,-1807.31 735,-1764.39 721.33,-1716.09 711.587,-1687.11"/>
<polygon fill="red" stroke="red" points="714.787,-1685.66 708.207,-1677.35 708.173,-1687.95 714.787,-1685.66"/>
</g>
<!-- 28 -->
<g id="node33" class="node"><title>28</title>
<ellipse fill="none" stroke="black" cx="581" cy="-1203.53" rx="18.2703" ry="18.2703"/>
<text text-anchor="middle" x="581" y="-1201.33" font-family="Times New Roman,serif" font-size="9.00">28</text>
</g>
<!-- 20&#45;&gt;28 -->
<g id="edge33" class="edge"><title>20&#45;&gt;28</title>
<path fill="none" stroke="green" d="M1026.68,-2024.07C912.575,-2014.22 304,-1958.08 304,-1882.08 304,-1882.08 304,-1882.08 304,-1658.94 304,-1555.14 342,-1532.3 342,-1428.49 342,-1428.49 342,-1428.49 342,-1353.72 342,-1255.46 489.159,-1219.54 552.531,-1208.63"/>
<polygon fill="green" stroke="green" points="553.337,-1212.05 562.643,-1206.98 552.21,-1205.14 553.337,-1212.05"/>
</g>
<!-- 20&#45;&gt;24 -->
<g id="edge59" class="edge"><title>20&#45;&gt;24</title>
<path fill="none" stroke="red" d="M1045,-2007.94C1045,-1980.85 1045,-1927.43 1045,-1882.08 1045,-1882.08 1045,-1882.08 1045,-1580.52 1045,-1569.79 1001.21,-1253.09 987.836,-1156.58"/>
<polygon fill="red" stroke="red" points="991.269,-1155.85 986.429,-1146.43 984.336,-1156.81 991.269,-1155.85"/>
</g>
<!-- 20&#45;&gt;15 -->
<g id="edge10" class="edge"><title>20&#45;&gt;15</title>
<path fill="none" stroke="red" d="M1063.5,-2025.93C1176.42,-2027.4 1771.65,-2028.91 1882,-1899.46 1941.38,-1829.81 1607.93,-1206.66 1536.33,-1074.9"/>
<polygon fill="red" stroke="red" points="1539.31,-1073.06 1531.46,-1065.95 1533.17,-1076.41 1539.31,-1073.06"/>
</g>
<!-- 20&#45;&gt;30 -->
<g id="edge60" class="edge"><title>20&#45;&gt;30</title>
<path fill="none" stroke="green" d="M1026.6,-2025.32C934.874,-2023.66 526.691,-2013.99 408,-1972.23 306.211,-1936.43 228,-1917.21 228,-1809.31 228,-1809.31 228,-1809.31 228,-1202.53 228,-1163.12 558.676,-659.688 634.594,-544.627"/>
<polygon fill="green" stroke="green" points="637.602,-546.424 640.19,-536.15 631.76,-542.567 637.602,-546.424"/>
</g>
<!-- 58&#45;&gt;52 -->
<g id="edge143" class="edge"><title>58&#45;&gt;52</title>
<path fill="none" stroke="red" d="M1496.79,-1422.59C1442.01,-1410.84 1278.48,-1375.77 1212.78,-1361.68"/>
<polygon fill="red" stroke="red" points="1213.26,-1358.2 1202.75,-1359.53 1211.8,-1365.05 1213.26,-1358.2"/>
</g>
<!-- 58&#45;&gt;15 -->
<g id="edge91" class="edge"><title>58&#45;&gt;15</title>
<path fill="none" stroke="green" d="M1512.83,-1408.95C1509.62,-1381.51 1504,-1326.76 1504,-1280.12 1504,-1280.12 1504,-1280.12 1504,-1202.53 1504,-1158.51 1511.94,-1107.87 1517.55,-1077.57"/>
<polygon fill="green" stroke="green" points="1520.99,-1078.22 1519.43,-1067.74 1514.12,-1076.91 1520.99,-1078.22"/>
</g>
<!-- 58&#45;&gt;11 -->
<g id="edge107" class="edge"><title>58&#45;&gt;11</title>
<path fill="none" stroke="red" d="M1522.87,-1410.63C1560.23,-1335.35 1719.73,-1013.91 1765.61,-921.45"/>
<polygon fill="red" stroke="red" points="1768.85,-922.791 1770.16,-912.278 1762.58,-919.68 1768.85,-922.791"/>
</g>
<!-- 87&#45;&gt;62 -->
<g id="edge100" class="edge"><title>87&#45;&gt;62</title>
<path fill="none" stroke="red" d="M1158.57,-1937.14C1153.75,-1928.16 1147.59,-1916.71 1142.15,-1906.57"/>
<polygon fill="red" stroke="red" points="1145.22,-1904.9 1137.41,-1897.74 1139.06,-1908.21 1145.22,-1904.9"/>
</g>
<!-- 87&#45;&gt;7 -->
<g id="edge149" class="edge"><title>87&#45;&gt;7</title>
<path fill="none" stroke="green" d="M1184.18,-1947.2C1209.87,-1938.46 1259.49,-1920.47 1299,-1899.46 1401.21,-1845.13 1419.53,-1819.4 1515,-1753.93 1662.06,-1653.07 1736.28,-1666.4 1844,-1524.3 1956.43,-1375.98 1982,-1315.05 1982,-1128.93 1982,-1128.93 1982,-1128.93 1982,-894.477 1982,-841.492 1944.61,-788.041 1922.28,-760.846"/>
<polygon fill="green" stroke="green" points="1924.75,-758.352 1915.63,-752.974 1919.41,-762.871 1924.75,-758.352"/>
</g>
<!-- 59 -->
<g id="node19" class="node"><title>59</title>
<ellipse fill="none" stroke="black" cx="651" cy="-1808.31" rx="18.2703" ry="18.2703"/>
<text text-anchor="middle" x="651" y="-1806.11" font-family="Times New Roman,serif" font-size="9.00">59</text>
</g>
<!-- 62&#45;&gt;59 -->
<g id="edge49" class="edge"><title>62&#45;&gt;59</title>
<path fill="none" stroke="red" d="M1110.85,-1877.39C1038.16,-1866.63 767.818,-1826.61 679.275,-1813.5"/>
<polygon fill="red" stroke="red" points="679.577,-1810 669.173,-1812 678.552,-1816.93 679.577,-1810"/>
</g>
<!-- 62&#45;&gt;21 -->
<g id="edge51" class="edge"><title>62&#45;&gt;21</title>
<path fill="none" stroke="red" d="M1142.75,-1868.17C1167.5,-1845.34 1217,-1792.66 1217,-1736.54 1217,-1736.54 1217,-1736.54 1217,-1580.52 1217,-1477.22 1276,-1459.01 1276,-1355.72 1276,-1355.72 1276,-1355.72 1276,-1202.53 1276,-1098.72 1238,-1075.88 1238,-972.075 1238,-972.075 1238,-972.075 1238,-894.477 1238,-752.298 1261.01,-716.188 1247,-574.701 1234.9,-452.46 1199.59,-309.674 1184.25,-251.398"/>
<polygon fill="red" stroke="red" points="1187.58,-250.291 1181.63,-241.524 1180.81,-252.087 1187.58,-250.291"/>
</g>
<!-- 130 -->
<g id="node18" class="node"><title>130</title>
<ellipse fill="none" stroke="black" cx="958" cy="-1581.52" rx="21.4286" ry="21.4286"/>
<text text-anchor="middle" x="958" y="-1579.32" font-family="Times New Roman,serif" font-size="9.00">130</text>
</g>
<!-- 64&#45;&gt;130 -->
<g id="edge133" class="edge"><title>64&#45;&gt;130</title>
<path fill="none" stroke="green" d="M958,-1641.22C958,-1632.8 958,-1622.49 958,-1612.88"/>
<polygon fill="green" stroke="green" points="961.5,-1612.85 958,-1602.85 954.5,-1612.85 961.5,-1612.85"/>
</g>
<!-- 64&#45;&gt;52 -->
<g id="edge53" class="edge"><title>64&#45;&gt;52</title>
<path fill="none" stroke="green" d="M968.644,-1644.72C1004.91,-1596.28 1123.86,-1437.4 1168.17,-1378.21"/>
<polygon fill="green" stroke="green" points="1171.19,-1380.01 1174.38,-1369.91 1165.58,-1375.82 1171.19,-1380.01"/>
</g>
<!-- 172 -->
<g id="node27" class="node"><title>172</title>
<ellipse fill="none" stroke="black" cx="860" cy="-1503.09" rx="21.4286" ry="21.4286"/>
<text text-anchor="middle" x="860" y="-1500.89" font-family="Times New Roman,serif" font-size="9.00">172</text>
</g>
<!-- 64&#45;&gt;172 -->
<g id="edge173" class="edge"><title>64&#45;&gt;172</title>
<path fill="none" stroke="green" d="M948.603,-1644.09C931.963,-1617.8 897.122,-1562.75 876.434,-1530.06"/>
<polygon fill="green" stroke="green" points="879.306,-1528.05 871.001,-1521.47 873.391,-1531.79 879.306,-1528.05"/>
</g>
<!-- 140 -->
<g id="node20" class="node"><title>140</title>
<ellipse fill="none" stroke="black" cx="958" cy="-1503.09" rx="21.4286" ry="21.4286"/>
<text text-anchor="middle" x="958" y="-1500.89" font-family="Times New Roman,serif" font-size="9.00">140</text>
</g>
<!-- 130&#45;&gt;140 -->
<g id="edge147" class="edge"><title>130&#45;&gt;140</title>
<path fill="none" stroke="green" d="M958,-1560.04C958,-1552.18 958,-1543.03 958,-1534.44"/>
<polygon fill="green" stroke="green" points="961.5,-1534.36 958,-1524.36 954.5,-1534.36 961.5,-1534.36"/>
</g>
<!-- 81 -->
<g id="node22" class="node"><title>81</title>
<ellipse fill="none" stroke="black" cx="651" cy="-1735.54" rx="18.2703" ry="18.2703"/>
<text text-anchor="middle" x="651" y="-1733.34" font-family="Times New Roman,serif" font-size="9.00">81</text>
</g>
<!-- 59&#45;&gt;81 -->
<g id="edge122" class="edge"><title>59&#45;&gt;81</title>
<path fill="none" stroke="green" d="M651,-1789.82C651,-1782.13 651,-1772.92 651,-1764.34"/>
<polygon fill="green" stroke="green" points="654.5,-1764.32 651,-1754.32 647.5,-1764.32 654.5,-1764.32"/>
</g>
<!-- 59&#45;&gt;54 -->
<g id="edge44" class="edge"><title>59&#45;&gt;54</title>
<path fill="none" stroke="green" d="M659.952,-1791.83C665.71,-1781.38 673.018,-1767.14 678,-1753.93 686.148,-1732.31 692.507,-1706.85 696.626,-1688.04"/>
<polygon fill="green" stroke="green" points="700.088,-1688.59 698.736,-1678.08 693.24,-1687.14 700.088,-1688.59"/>
</g>
<!-- 61 -->
<g id="node34" class="node"><title>61</title>
<ellipse fill="none" stroke="black" cx="1040" cy="-1279.12" rx="18.2703" ry="18.2703"/>
<text text-anchor="middle" x="1040" y="-1276.92" font-family="Times New Roman,serif" font-size="9.00">61</text>
</g>
<!-- 59&#45;&gt;61 -->
<g id="edge50" class="edge"><title>59&#45;&gt;61</title>
<path fill="none" stroke="green" d="M663.073,-1793.79C672.624,-1783.05 686.26,-1767.61 698,-1753.93 784.627,-1652.97 823.996,-1639.8 890,-1524.3 916.963,-1477.12 903.913,-1456.22 931,-1409.11 955.789,-1365.99 995.589,-1323.38 1019.62,-1299.54"/>
<polygon fill="green" stroke="green" points="1022.13,-1301.97 1026.83,-1292.48 1017.23,-1296.97 1022.13,-1301.97"/>
</g>
<!-- 125 -->
<g id="node53" class="node"><title>125</title>
<ellipse fill="none" stroke="black" cx="353" cy="-1659.94" rx="21.4286" ry="21.4286"/>
<text text-anchor="middle" x="353" y="-1657.74" font-family="Times New Roman,serif" font-size="9.00">125</text>
</g>
<!-- 59&#45;&gt;125 -->
<g id="edge105" class="edge"><title>59&#45;&gt;125</title>
<path fill="none" stroke="red" d="M632.567,-1805.86C579.09,-1801.32 425.33,-1785.72 388,-1753.93 369.578,-1738.23 360.836,-1711.81 356.696,-1691.14"/>
<polygon fill="red" stroke="red" points="360.135,-1690.48 354.968,-1681.23 353.239,-1691.68 360.135,-1690.48"/>
</g>
<!-- 19 -->
<g id="node64" class="node"><title>19</title>
<ellipse fill="none" stroke="black" cx="815" cy="-296.35" rx="18.2703" ry="18.2703"/>
<text text-anchor="middle" x="815" y="-294.15" font-family="Times New Roman,serif" font-size="9.00">19</text>
</g>
<!-- 59&#45;&gt;19 -->
<g id="edge109" class="edge"><title>59&#45;&gt;19</title>
<path fill="none" stroke="green" d="M634.729,-1799.74C566.126,-1766.59 304,-1626.94 304,-1428.49 304,-1428.49 304,-1428.49 304,-1126.93 304,-1063.4 335.227,-1053.56 352,-992.288 402.053,-809.436 331.684,-730.981 439,-574.701 533.97,-436.399 720.913,-340.534 789.224,-308.81"/>
<polygon fill="green" stroke="green" points="790.784,-311.945 798.417,-304.597 787.868,-305.581 790.784,-311.945"/>
</g>
<!-- 82 -->
<g id="node21" class="node"><title>82</title>
<ellipse fill="none" stroke="black" cx="958" cy="-1427.49" rx="18.2703" ry="18.2703"/>
<text text-anchor="middle" x="958" y="-1425.29" font-family="Times New Roman,serif" font-size="9.00">82</text>
</g>
<!-- 140&#45;&gt;82 -->
<g id="edge148" class="edge"><title>140&#45;&gt;82</title>
<path fill="none" stroke="red" d="M958,-1481.59C958,-1473.69 958,-1464.54 958,-1456.09"/>
<polygon fill="red" stroke="red" points="961.5,-1455.89 958,-1445.89 954.5,-1455.89 961.5,-1455.89"/>
</g>
<!-- 82&#45;&gt;52 -->
<g id="edge116" class="edge"><title>82&#45;&gt;52</title>
<path fill="none" stroke="green" d="M975.435,-1421.06C1014.8,-1408.78 1110.8,-1378.86 1157.96,-1364.15"/>
<polygon fill="green" stroke="green" points="1159,-1367.49 1167.51,-1361.18 1156.92,-1360.81 1159,-1367.49"/>
</g>
<!-- 57 -->
<g id="node50" class="node"><title>57</title>
<ellipse fill="none" stroke="black" cx="861" cy="-895.477" rx="18.2703" ry="18.2703"/>
<text text-anchor="middle" x="861" y="-893.277" font-family="Times New Roman,serif" font-size="9.00">57</text>
</g>
<!-- 82&#45;&gt;57 -->
<g id="edge172" class="edge"><title>82&#45;&gt;57</title>
<path fill="none" stroke="red" d="M954.828,-1409.16C940.68,-1331.85 883.278,-1018.21 865.966,-923.613"/>
<polygon fill="red" stroke="red" points="869.391,-922.885 864.148,-913.678 862.506,-924.145 869.391,-922.885"/>
</g>
<!-- 81&#45;&gt;54 -->
<g id="edge123" class="edge"><title>81&#45;&gt;54</title>
<path fill="none" stroke="green" d="M661.076,-1720C668.201,-1709.72 677.899,-1695.72 686.066,-1683.94"/>
<polygon fill="green" stroke="green" points="689.126,-1685.67 691.945,-1675.45 683.372,-1681.68 689.126,-1685.67"/>
</g>
<!-- 79 -->
<g id="node73" class="node"><title>79</title>
<ellipse fill="none" stroke="black" cx="312" cy="-520.316" rx="18.2703" ry="18.2703"/>
<text text-anchor="middle" x="312" y="-518.116" font-family="Times New Roman,serif" font-size="9.00">79</text>
</g>
<!-- 81&#45;&gt;79 -->
<g id="edge170" class="edge"><title>81&#45;&gt;79</title>
<path fill="none" stroke="red" d="M633.635,-1729.32C573.823,-1710.17 380,-1637.8 380,-1504.09 380,-1504.09 380,-1504.09 380,-1353.72 380,-1191.16 327.829,-674.742 314.881,-549.079"/>
<polygon fill="red" stroke="red" points="318.328,-548.377 313.819,-538.789 311.365,-549.096 318.328,-548.377"/>
</g>
<!-- 52&#45;&gt;61 -->
<g id="edge45" class="edge"><title>52&#45;&gt;61</title>
<path fill="none" stroke="green" d="M1168.93,-1345.56C1143.78,-1332.8 1094.92,-1308 1065.1,-1292.86"/>
<polygon fill="green" stroke="green" points="1066.64,-1289.72 1056.14,-1288.32 1063.48,-1295.97 1066.64,-1289.72"/>
</g>
<!-- 52&#45;&gt;15 -->
<g id="edge159" class="edge"><title>52&#45;&gt;15</title>
<path fill="none" stroke="red" d="M1199.36,-1342.76C1213.09,-1332.17 1234.27,-1315.54 1252,-1300.34 1348.47,-1217.62 1458.34,-1112.91 1502.77,-1070.09"/>
<polygon fill="red" stroke="red" points="1505.29,-1072.53 1510.05,-1063.06 1500.43,-1067.49 1505.29,-1072.53"/>
</g>
<!-- 134 -->
<g id="node41" class="node"><title>134</title>
<ellipse fill="none" stroke="black" cx="1175" cy="-971.075" rx="21.4286" ry="21.4286"/>
<text text-anchor="middle" x="1175" y="-968.875" font-family="Times New Roman,serif" font-size="9.00">134</text>
</g>
<!-- 52&#45;&gt;134 -->
<g id="edge152" class="edge"><title>52&#45;&gt;134</title>
<path fill="none" stroke="red" d="M1187.89,-1336.32C1192.25,-1308.54 1200,-1252.43 1200,-1204.53 1200,-1204.53 1200,-1204.53 1200,-1126.93 1200,-1082.89 1190.02,-1032.69 1182.67,-1001.7"/>
<polygon fill="red" stroke="red" points="1186.07,-1000.84 1180.3,-991.955 1179.27,-1002.5 1186.07,-1000.84"/>
</g>
<!-- 86 -->
<g id="node47" class="node"><title>86</title>
<ellipse fill="none" stroke="black" cx="1116" cy="-895.477" rx="18.2703" ry="18.2703"/>
<text text-anchor="middle" x="1116" y="-893.277" font-family="Times New Roman,serif" font-size="9.00">86</text>
</g>
<!-- 52&#45;&gt;86 -->
<g id="edge84" class="edge"><title>52&#45;&gt;86</title>
<path fill="none" stroke="green" d="M1180.02,-1337.02C1167.35,-1293.6 1133.96,-1173.42 1121,-1070.71 1114.5,-1019.24 1114.47,-958.565 1115.15,-924.099"/>
<polygon fill="green" stroke="green" points="1118.65,-923.954 1115.39,-913.874 1111.66,-923.789 1118.65,-923.954"/>
</g>
<!-- 47 -->
<g id="node63" class="node"><title>47</title>
<ellipse fill="none" stroke="black" cx="1076" cy="-369.12" rx="18.2703" ry="18.2703"/>
<text text-anchor="middle" x="1076" y="-366.92" font-family="Times New Roman,serif" font-size="9.00">47</text>
</g>
<!-- 52&#45;&gt;47 -->
<g id="edge111" class="edge"><title>52&#45;&gt;47</title>
<path fill="none" stroke="green" d="M1193.46,-1338.24C1198.86,-1327.8 1205.65,-1313.56 1210,-1300.34 1256.56,-1158.99 1276,-1120.89 1276,-972.075 1276,-972.075 1276,-972.075 1276,-894.477 1276,-688.406 1139.48,-464.923 1092.03,-393.46"/>
<polygon fill="green" stroke="green" points="1094.67,-391.122 1086.19,-384.769 1088.86,-395.023 1094.67,-391.122"/>
</g>
<!-- 71 -->
<g id="node26" class="node"><title>71</title>
<ellipse fill="none" stroke="black" cx="704" cy="-1581.52" rx="18.2703" ry="18.2703"/>
<text text-anchor="middle" x="704" y="-1579.32" font-family="Times New Roman,serif" font-size="9.00">71</text>
</g>
<!-- 54&#45;&gt;71 -->
<g id="edge102" class="edge"><title>54&#45;&gt;71</title>
<path fill="none" stroke="red" d="M702.464,-1641.22C702.704,-1632.05 703.002,-1620.66 703.272,-1610.35"/>
<polygon fill="red" stroke="red" points="706.776,-1610.23 703.539,-1600.15 699.778,-1610.05 706.776,-1610.23"/>
</g>
<!-- 55 -->
<g id="node28" class="node"><title>55</title>
<ellipse fill="none" stroke="black" cx="667" cy="-1503.09" rx="18.2703" ry="18.2703"/>
<text text-anchor="middle" x="667" y="-1500.89" font-family="Times New Roman,serif" font-size="9.00">55</text>
</g>
<!-- 54&#45;&gt;55 -->
<g id="edge108" class="edge"><title>54&#45;&gt;55</title>
<path fill="none" stroke="red" d="M693.375,-1643.2C687.755,-1632.2 680.786,-1616.97 677,-1602.73 670.771,-1579.29 668.369,-1551.77 667.469,-1531.76"/>
<polygon fill="red" stroke="red" points="670.957,-1531.36 667.109,-1521.49 663.962,-1531.61 670.957,-1531.36"/>
</g>
<!-- 107 -->
<g id="node43" class="node"><title>107</title>
<ellipse fill="none" stroke="black" cx="1077" cy="-1127.93" rx="21.4286" ry="21.4286"/>
<text text-anchor="middle" x="1077" y="-1125.73" font-family="Times New Roman,serif" font-size="9.00">107</text>
</g>
<!-- 54&#45;&gt;107 -->
<g id="edge95" class="edge"><title>54&#45;&gt;107</title>
<path fill="none" stroke="red" d="M710.96,-1643.6C730.186,-1611.42 777.899,-1535.44 830,-1481.88 853.128,-1458.1 1051.46,-1329.64 1067,-1300.34 1090.67,-1255.71 1087.39,-1195.05 1082.46,-1159.14"/>
<polygon fill="red" stroke="red" points="1085.86,-1158.21 1080.91,-1148.84 1078.94,-1159.25 1085.86,-1158.21"/>
</g>
<!-- 13 -->
<g id="node55" class="node"><title>13</title>
<ellipse fill="none" stroke="black" cx="815" cy="-593.085" rx="18.2703" ry="18.2703"/>
<text text-anchor="middle" x="815" y="-590.885" font-family="Times New Roman,serif" font-size="9.00">13</text>
</g>
<!-- 54&#45;&gt;13 -->
<g id="edge112" class="edge"><title>54&#45;&gt;13</title>
<path fill="none" stroke="red" d="M683.366,-1657.67C620.184,-1652.24 418,-1625.39 418,-1504.09 418,-1504.09 418,-1504.09 418,-1353.72 418,-1272.63 540.644,-700.493 602,-647.47 655.028,-601.644 741.741,-594.105 786.411,-593.496"/>
<polygon fill="red" stroke="red" points="786.57,-596.996 796.56,-593.469 786.551,-589.996 786.57,-596.996"/>
</g>
<!-- 69&#45;&gt;5 -->
<g id="edge78" class="edge"><title>69&#45;&gt;5</title>
<path fill="none" stroke="green" d="M757.392,-1340.37C703.938,-1278.39 478.166,-1011.24 339,-762.666 250.87,-605.248 251.428,-554.839 184,-387.505 154.923,-315.346 120,-302.378 120,-224.581 120,-224.581 120,-224.581 120,-146.983 120,-83.3064 169.636,-77.0347 229,-54 352.337,-6.14209 1343.83,-9.10597 1501.03,-9.88203"/>
<polygon fill="green" stroke="green" points="1501.22,-13.383 1511.24,-9.93535 1501.26,-6.38307 1501.22,-13.383"/>
</g>
<!-- 129 -->
<g id="node30" class="node"><title>129</title>
<ellipse fill="none" stroke="black" cx="793" cy="-1279.12" rx="21.4286" ry="21.4286"/>
<text text-anchor="middle" x="793" y="-1276.92" font-family="Times New Roman,serif" font-size="9.00">129</text>
</g>
<!-- 69&#45;&gt;129 -->
<g id="edge144" class="edge"><title>69&#45;&gt;129</title>
<path fill="none" stroke="red" d="M774.446,-1337.02C777.107,-1328.86 780.388,-1318.8 783.448,-1309.42"/>
<polygon fill="red" stroke="red" points="786.868,-1310.22 786.641,-1299.63 780.213,-1308.05 786.868,-1310.22"/>
</g>
<!-- 151 -->
<g id="node32" class="node"><title>151</title>
<ellipse fill="none" stroke="black" cx="581" cy="-1279.12" rx="21.4286" ry="21.4286"/>
<text text-anchor="middle" x="581" y="-1276.92" font-family="Times New Roman,serif" font-size="9.00">151</text>
</g>
<!-- 69&#45;&gt;151 -->
<g id="edge171" class="edge"><title>69&#45;&gt;151</title>
<path fill="none" stroke="red" d="M754.228,-1343.72C750.054,-1341.12 745.438,-1338.46 741,-1336.34 697.393,-1315.45 643.889,-1298.23 611.132,-1288.56"/>
<polygon fill="red" stroke="red" points="611.844,-1285.13 601.264,-1285.7 609.891,-1291.85 611.844,-1285.13"/>
</g>
<!-- 70 -->
<g id="node35" class="node"><title>70</title>
<ellipse fill="none" stroke="black" cx="834" cy="-1203.53" rx="18.2703" ry="18.2703"/>
<text text-anchor="middle" x="834" y="-1201.33" font-family="Times New Roman,serif" font-size="9.00">70</text>
</g>
<!-- 69&#45;&gt;70 -->
<g id="edge71" class="edge"><title>69&#45;&gt;70</title>
<path fill="none" stroke="green" d="M784.156,-1343.37C796.841,-1333.8 814.235,-1318.36 823,-1300.34 833.319,-1279.12 835.611,-1252.23 835.587,-1232.35"/>
<polygon fill="green" stroke="green" points="839.081,-1232.02 835.371,-1222.1 832.082,-1232.17 839.081,-1232.02"/>
</g>
<!-- 71&#45;&gt;55 -->
<g id="edge103" class="edge"><title>71&#45;&gt;55</title>
<path fill="none" stroke="green" d="M696.334,-1564.68C691.373,-1554.43 684.807,-1540.87 679.145,-1529.18"/>
<polygon fill="green" stroke="green" points="682.164,-1527.38 674.657,-1519.9 675.864,-1530.43 682.164,-1527.38"/>
</g>
<!-- 172&#45;&gt;70 -->
<g id="edge174" class="edge"><title>172&#45;&gt;70</title>
<path fill="none" stroke="green" d="M859.256,-1481.77C857.572,-1439.81 852.827,-1340.62 843,-1257.91 841.986,-1249.38 840.549,-1240.13 839.12,-1231.77"/>
<polygon fill="green" stroke="green" points="842.539,-1231.01 837.347,-1221.78 835.647,-1232.23 842.539,-1231.01"/>
</g>
<!-- 88 -->
<g id="node29" class="node"><title>88</title>
<ellipse fill="none" stroke="black" cx="580" cy="-1427.49" rx="18.2703" ry="18.2703"/>
<text text-anchor="middle" x="580" y="-1425.29" font-family="Times New Roman,serif" font-size="9.00">88</text>
</g>
<!-- 55&#45;&gt;88 -->
<g id="edge85" class="edge"><title>55&#45;&gt;88</title>
<path fill="none" stroke="red" d="M653.406,-1490.59C639.569,-1478.88 617.908,-1460.56 601.696,-1446.85"/>
<polygon fill="red" stroke="red" points="603.681,-1443.94 593.785,-1440.15 599.16,-1449.28 603.681,-1443.94"/>
</g>
<!-- 55&#45;&gt;28 -->
<g id="edge43" class="edge"><title>55&#45;&gt;28</title>
<path fill="none" stroke="green" d="M663.064,-1485.12C660.481,-1473.97 657.031,-1459.05 654,-1445.88 634.79,-1362.36 641.865,-1337.86 611,-1257.91 607.078,-1247.75 601.493,-1237.18 596.202,-1228.15"/>
<polygon fill="green" stroke="green" points="599.058,-1226.11 590.878,-1219.37 593.074,-1229.74 599.058,-1226.11"/>
</g>
<!-- 55&#45;&gt;75 -->
<g id="edge80" class="edge"><title>55&#45;&gt;75</title>
<path fill="none" stroke="green" d="M672.391,-1485.3C680.458,-1460.18 695.748,-1412.56 705.378,-1382.57"/>
<polygon fill="green" stroke="green" points="708.802,-1383.36 708.527,-1372.77 702.137,-1381.22 708.802,-1383.36"/>
</g>
<!-- 51 -->
<g id="node52" class="node"><title>51</title>
<ellipse fill="none" stroke="black" cx="867" cy="-741.453" rx="18.2703" ry="18.2703"/>
<text text-anchor="middle" x="867" y="-739.253" font-family="Times New Roman,serif" font-size="9.00">51</text>
</g>
<!-- 55&#45;&gt;51 -->
<g id="edge54" class="edge"><title>55&#45;&gt;51</title>
<path fill="none" stroke="green" d="M667.198,-1484.52C667.489,-1457.04 668,-1402.23 668,-1355.72 668,-1355.72 668,-1355.72 668,-894.477 668,-888.993 791.686,-797.667 844.036,-759.26"/>
<polygon fill="green" stroke="green" points="846.371,-761.887 852.367,-753.152 842.233,-756.241 846.371,-761.887"/>
</g>
<!-- 89 -->
<g id="node31" class="node"><title>89</title>
<ellipse fill="none" stroke="black" cx="580" cy="-1354.72" rx="18.2703" ry="18.2703"/>
<text text-anchor="middle" x="580" y="-1352.52" font-family="Times New Roman,serif" font-size="9.00">89</text>
</g>
<!-- 88&#45;&gt;89 -->
<g id="edge129" class="edge"><title>88&#45;&gt;89</title>
<path fill="none" stroke="green" d="M580,-1409C580,-1401.32 580,-1392.11 580,-1383.52"/>
<polygon fill="green" stroke="green" points="583.5,-1383.51 580,-1373.51 576.5,-1383.51 583.5,-1383.51"/>
</g>
<!-- 88&#45;&gt;28 -->
<g id="edge86" class="edge"><title>88&#45;&gt;28</title>
<path fill="none" stroke="red" d="M570.477,-1411.21C564.478,-1400.84 557.116,-1386.62 553,-1373.11 538.037,-1323.98 528.675,-1306.93 544,-1257.91 547.71,-1246.04 555.087,-1234.5 562.284,-1225.2"/>
<polygon fill="red" stroke="red" points="565.094,-1227.29 568.733,-1217.34 559.683,-1222.85 565.094,-1227.29"/>
</g>
<!-- 129&#45;&gt;70 -->
<g id="edge145" class="edge"><title>129&#45;&gt;70</title>
<path fill="none" stroke="green" d="M802.925,-1260.31C808.151,-1250.93 814.639,-1239.28 820.333,-1229.06"/>
<polygon fill="green" stroke="green" points="823.471,-1230.62 825.28,-1220.18 817.356,-1227.21 823.471,-1230.62"/>
</g>
<!-- 89&#45;&gt;151 -->
<g id="edge162" class="edge"><title>89&#45;&gt;151</title>
<path fill="none" stroke="red" d="M580.237,-1336.28C580.34,-1328.66 580.465,-1319.5 580.583,-1310.81"/>
<polygon fill="red" stroke="red" points="584.086,-1310.62 580.722,-1300.57 577.087,-1310.52 584.086,-1310.62"/>
</g>
<!-- 89&#45;&gt;28 -->
<g id="edge130" class="edge"><title>89&#45;&gt;28</title>
<path fill="none" stroke="green" d="M569.48,-1339.14C562.731,-1328.86 554.584,-1314.44 551,-1300.34 546.357,-1282.06 546.226,-1276.15 551,-1257.91 553.826,-1247.11 559.381,-1236.19 564.951,-1227.06"/>
<polygon fill="green" stroke="green" points="567.929,-1228.9 570.425,-1218.61 562.053,-1225.1 567.929,-1228.9"/>
</g>
<!-- 151&#45;&gt;28 -->
<g id="edge163" class="edge"><title>151&#45;&gt;28</title>
<path fill="none" stroke="red" d="M581,-1257.62C581,-1249.73 581,-1240.58 581,-1232.12"/>
<polygon fill="red" stroke="red" points="584.5,-1231.93 581,-1221.93 577.5,-1231.93 584.5,-1231.93"/>
</g>
<!-- 28&#45;&gt;24 -->
<g id="edge34" class="edge"><title>28&#45;&gt;24</title>
<path fill="none" stroke="green" d="M599.099,-1199.22C663.022,-1187.55 878.498,-1148.2 955.966,-1134.05"/>
<polygon fill="green" stroke="green" points="956.742,-1137.46 965.951,-1132.22 955.485,-1130.58 956.742,-1137.46"/>
</g>
<!-- 28&#45;&gt;13 -->
<g id="edge75" class="edge"><title>28&#45;&gt;13</title>
<path fill="none" stroke="green" d="M581.964,-1184.74C583.417,-1156.37 586,-1099.09 586,-1050.5 586,-1050.5 586,-1050.5 586,-740.453 586,-646.311 725.101,-610.005 786.479,-598.568"/>
<polygon fill="green" stroke="green" points="787.409,-601.958 796.647,-596.77 786.19,-595.065 787.409,-601.958"/>
</g>
<!-- 67 -->
<g id="node36" class="node"><title>67</title>
<ellipse fill="none" stroke="black" cx="1040" cy="-1203.53" rx="18.2703" ry="18.2703"/>
<text text-anchor="middle" x="1040" y="-1201.33" font-family="Times New Roman,serif" font-size="9.00">67</text>
</g>
<!-- 61&#45;&gt;67 -->
<g id="edge73" class="edge"><title>61&#45;&gt;67</title>
<path fill="none" stroke="red" d="M1040,-1260.68C1040,-1252.22 1040,-1241.85 1040,-1232.33"/>
<polygon fill="red" stroke="red" points="1043.5,-1232.1 1040,-1222.1 1036.5,-1232.1 1043.5,-1232.1"/>
</g>
<!-- 61&#45;&gt;24 -->
<g id="edge46" class="edge"><title>61&#45;&gt;24</title>
<path fill="none" stroke="green" d="M1031.81,-1262.65C1026.11,-1251.5 1018.55,-1236.01 1013,-1221.91 1004.38,-1200.01 996.556,-1174.43 991.215,-1155.65"/>
<polygon fill="green" stroke="green" points="994.576,-1154.67 988.514,-1145.98 987.834,-1156.55 994.576,-1154.67"/>
</g>
<!-- 70&#45;&gt;24 -->
<g id="edge72" class="edge"><title>70&#45;&gt;24</title>
<path fill="none" stroke="green" d="M849.863,-1193.69C854.983,-1190.9 860.704,-1187.84 866,-1185.14 897.455,-1169.12 934.256,-1151.81 958.289,-1140.7"/>
<polygon fill="green" stroke="green" points="959.832,-1143.84 967.449,-1136.48 956.902,-1137.48 959.832,-1143.84"/>
</g>
<!-- 67&#45;&gt;24 -->
<g id="edge136" class="edge"><title>67&#45;&gt;24</title>
<path fill="none" stroke="red" d="M1029.2,-1188.34C1021.22,-1177.85 1010.2,-1163.36 1001.04,-1151.32"/>
<polygon fill="red" stroke="red" points="1003.6,-1148.91 994.764,-1143.07 998.034,-1153.15 1003.6,-1148.91"/>
</g>
<!-- 24&#45;&gt;15 -->
<g id="edge31" class="edge"><title>24&#45;&gt;15</title>
<path fill="none" stroke="green" d="M1000.87,-1120.53C1013.42,-1116.02 1031.06,-1110.18 1047,-1106.71 1214.06,-1070.41 1419.56,-1056.17 1494.2,-1051.96"/>
<polygon fill="green" stroke="green" points="1494.84,-1055.43 1504.63,-1051.39 1494.46,-1048.44 1494.84,-1055.43"/>
</g>
<!-- 24&#45;&gt;56 -->
<g id="edge168" class="edge"><title>24&#45;&gt;56</title>
<path fill="none" stroke="green" d="M991.784,-1111.11C1012.95,-1066.6 1070,-935.953 1070,-820.879 1070,-820.879 1070,-820.879 1070,-740.453 1070,-699.219 1070,-651.45 1070,-621.998"/>
<polygon fill="green" stroke="green" points="1073.5,-621.659 1070,-611.659 1066.5,-621.659 1073.5,-621.659"/>
</g>
<!-- 136 -->
<g id="node40" class="node"><title>136</title>
<ellipse fill="none" stroke="black" cx="1151" cy="-1049.5" rx="21.4286" ry="21.4286"/>
<text text-anchor="middle" x="1151" y="-1047.3" font-family="Times New Roman,serif" font-size="9.00">136</text>
</g>
<!-- 24&#45;&gt;136 -->
<g id="edge166" class="edge"><title>24&#45;&gt;136</title>
<path fill="none" stroke="red" d="M1000.62,-1119.32C1029.13,-1106.28 1087.64,-1079.5 1122.68,-1063.46"/>
<polygon fill="red" stroke="red" points="1124.26,-1066.59 1131.9,-1059.24 1121.35,-1060.22 1124.26,-1066.59"/>
</g>
<!-- 104 -->
<g id="node45" class="node"><title>104</title>
<ellipse fill="none" stroke="black" cx="809" cy="-741.453" rx="21.4286" ry="21.4286"/>
<text text-anchor="middle" x="809" y="-739.253" font-family="Times New Roman,serif" font-size="9.00">104</text>
</g>
<!-- 24&#45;&gt;104 -->
<g id="edge160" class="edge"><title>24&#45;&gt;104</title>
<path fill="none" stroke="green" d="M966.523,-1121.72C925.512,-1108.37 824.422,-1068.45 796,-992.288 767.848,-916.847 787.29,-819.644 800.155,-771.766"/>
<polygon fill="green" stroke="green" points="803.549,-772.624 802.859,-762.051 796.806,-770.746 803.549,-772.624"/>
</g>
<!-- 24&#45;&gt;22 -->
<g id="edge146" class="edge"><title>24&#45;&gt;22</title>
<path fill="none" stroke="red" d="M968.728,-1117.33C952.586,-1106.84 926.777,-1089.06 907,-1070.71 881.204,-1046.78 855.566,-1015.26 839.527,-994.366"/>
<polygon fill="red" stroke="red" points="842.301,-992.233 833.468,-986.382 836.725,-996.464 842.301,-992.233"/>
</g>
<!-- 106 -->
<g id="node49" class="node"><title>106</title>
<ellipse fill="none" stroke="black" cx="907" cy="-819.879" rx="21.4286" ry="21.4286"/>
<text text-anchor="middle" x="907" y="-817.679" font-family="Times New Roman,serif" font-size="9.00">106</text>
</g>
<!-- 24&#45;&gt;106 -->
<g id="edge104" class="edge"><title>24&#45;&gt;106</title>
<path fill="none" stroke="green" d="M979.75,-1110.04C967.237,-1060.3 930.406,-913.909 914.479,-850.606"/>
<polygon fill="green" stroke="green" points="917.856,-849.681 912.021,-840.837 911.067,-851.389 917.856,-849.681"/>
</g>
<!-- 15&#45;&gt;22 -->
<g id="edge32" class="edge"><title>15&#45;&gt;22</title>
<path fill="none" stroke="green" d="M1504.64,-1046.5C1409.03,-1036.06 968.182,-987.926 851.435,-975.18"/>
<polygon fill="green" stroke="green" points="851.492,-971.665 841.171,-974.059 850.732,-978.624 851.492,-971.665"/>
</g>
<!-- 15&#45;&gt;13 -->
<g id="edge8" class="edge"><title>15&#45;&gt;13</title>
<path fill="none" stroke="red" d="M1508.19,-1038.04C1492.7,-1026.98 1467.78,-1008.87 1447,-992.288 1263.28,-845.675 1255.71,-753.642 1046,-647.47 978.488,-613.29 888.811,-600.67 843.621,-596.272"/>
<polygon fill="red" stroke="red" points="843.663,-592.761 833.388,-595.344 843.031,-599.733 843.663,-592.761"/>
</g>
<!-- 15&#45;&gt;11 -->
<g id="edge110" class="edge"><title>15&#45;&gt;11</title>
<path fill="none" stroke="red" d="M1538.57,-1039.22C1581.53,-1013.61 1701.97,-941.803 1753.79,-910.909"/>
<polygon fill="red" stroke="red" points="1755.84,-913.764 1762.64,-905.637 1752.25,-907.751 1755.84,-913.764"/>
</g>
<!-- 15&#45;&gt;6 -->
<g id="edge115" class="edge"><title>15&#45;&gt;6</title>
<path fill="none" stroke="red" d="M1532.67,-1033.66C1548.93,-1007.23 1580,-949.751 1580,-896.477 1580,-896.477 1580,-896.477 1580,-818.879 1580,-619.431 1580,-569.568 1580,-370.12 1580,-370.12 1580,-370.12 1580,-222.581 1580,-174.131 1564.42,-158.721 1528,-126.77 1494.77,-97.6178 1443.91,-83.5916 1413.81,-77.4912"/>
<polygon fill="red" stroke="red" points="1414.2,-74.0036 1403.72,-75.5889 1412.9,-80.8823 1414.2,-74.0036"/>
</g>
<!-- 56&#45;&gt;23 -->
<g id="edge89" class="edge"><title>56&#45;&gt;23</title>
<path fill="none" stroke="red" d="M1088.05,-588.18C1142.2,-576.459 1303.61,-541.527 1369.01,-527.373"/>
<polygon fill="red" stroke="red" points="1369.98,-530.746 1379.01,-525.209 1368.49,-523.904 1369.98,-530.746"/>
</g>
<!-- 56&#45;&gt;19 -->
<g id="edge126" class="edge"><title>56&#45;&gt;19</title>
<path fill="none" stroke="green" d="M1058.38,-578.655C1017.89,-531.857 882.796,-375.711 833.341,-318.55"/>
<polygon fill="green" stroke="green" points="835.877,-316.132 826.688,-310.859 830.584,-320.712 835.877,-316.132"/>
</g>
<!-- 74 -->
<g id="node46" class="node"><title>74</title>
<ellipse fill="none" stroke="black" cx="1474" cy="-971.075" rx="18.2703" ry="18.2703"/>
<text text-anchor="middle" x="1474" y="-968.875" font-family="Times New Roman,serif" font-size="9.00">74</text>
</g>
<!-- 136&#45;&gt;74 -->
<g id="edge167" class="edge"><title>136&#45;&gt;74</title>
<path fill="none" stroke="green" d="M1171.7,-1043.6C1227.77,-1030.34 1382.65,-993.69 1446.22,-978.649"/>
<polygon fill="green" stroke="green" points="1447.37,-981.972 1456.3,-976.264 1445.76,-975.16 1447.37,-981.972"/>
</g>
<!-- 134&#45;&gt;51 -->
<g id="edge153" class="edge"><title>134&#45;&gt;51</title>
<path fill="none" stroke="green" d="M1172.57,-949.67C1169.17,-929.149 1161.21,-897.68 1143,-877.092 1074.14,-799.246 950.116,-761.886 894.866,-748.492"/>
<polygon fill="green" stroke="green" points="895.608,-745.072 885.073,-746.197 894.011,-751.887 895.608,-745.072"/>
</g>
<!-- 75&#45;&gt;86 -->
<g id="edge83" class="edge"><title>75&#45;&gt;86</title>
<path fill="none" stroke="green" d="M720.74,-1337.22C734.136,-1305.62 766.354,-1235.24 807,-1185.14 900.763,-1069.58 1039.79,-956.03 1093.6,-913.769"/>
<polygon fill="green" stroke="green" points="1096.04,-916.3 1101.77,-907.386 1091.73,-910.783 1096.04,-916.3"/>
</g>
<!-- 107&#45;&gt;13 -->
<g id="edge96" class="edge"><title>107&#45;&gt;13</title>
<path fill="none" stroke="red" d="M1072.01,-1107.02C1060.3,-1058.46 1032,-929.9 1032,-820.879 1032,-820.879 1032,-820.879 1032,-740.453 1032,-650.401 901.972,-612.06 843.221,-599.333"/>
<polygon fill="red" stroke="red" points="843.629,-595.843 833.128,-597.248 842.213,-602.698 843.629,-595.843"/>
</g>
<!-- 84&#45;&gt;30 -->
<g id="edge139" class="edge"><title>84&#45;&gt;30</title>
<path fill="none" stroke="red" d="M499.76,-583.042C504.875,-580.237 510.619,-577.223 516,-574.701 552.391,-557.64 595.821,-540.988 623.161,-530.938"/>
<polygon fill="red" stroke="red" points="624.606,-534.137 632.803,-527.423 622.209,-527.56 624.606,-534.137"/>
</g>
<!-- 78 -->
<g id="node54" class="node"><title>78</title>
<ellipse fill="none" stroke="black" cx="815" cy="-665.855" rx="18.2703" ry="18.2703"/>
<text text-anchor="middle" x="815" y="-663.655" font-family="Times New Roman,serif" font-size="9.00">78</text>
</g>
<!-- 104&#45;&gt;78 -->
<g id="edge161" class="edge"><title>104&#45;&gt;78</title>
<path fill="none" stroke="green" d="M810.671,-719.952C811.315,-712.057 812.061,-702.907 812.75,-694.45"/>
<polygon fill="green" stroke="green" points="816.257,-694.507 813.581,-684.256 809.28,-693.938 816.257,-694.507"/>
</g>
<!-- 74&#45;&gt;23 -->
<g id="edge74" class="edge"><title>74&#45;&gt;23</title>
<path fill="none" stroke="red" d="M1465.78,-954.449C1452.54,-927.811 1428,-871.566 1428,-820.879 1428,-820.879 1428,-820.879 1428,-664.855 1428,-623.076 1415.3,-575.967 1406.15,-547.471"/>
<polygon fill="red" stroke="red" points="1409.44,-546.256 1402.98,-537.86 1402.79,-548.453 1409.44,-546.256"/>
</g>
<!-- 74&#45;&gt;11 -->
<g id="edge119" class="edge"><title>74&#45;&gt;11</title>
<path fill="none" stroke="red" d="M1491.66,-965.8C1542.45,-953.504 1689.2,-917.976 1750.54,-903.125"/>
<polygon fill="red" stroke="red" points="1751.4,-906.519 1760.29,-900.764 1749.75,-899.715 1751.4,-906.519"/>
</g>
<!-- 86&#45;&gt;106 -->
<g id="edge93" class="edge"><title>86&#45;&gt;106</title>
<path fill="none" stroke="red" d="M1098.24,-890.442C1066.23,-882.859 997.044,-865.063 942,-841.092 939.286,-839.911 936.516,-838.569 933.782,-837.153"/>
<polygon fill="red" stroke="red" points="935.207,-833.942 924.76,-832.174 931.824,-840.07 935.207,-833.942"/>
</g>
<!-- 86&#45;&gt;51 -->
<g id="edge113" class="edge"><title>86&#45;&gt;51</title>
<path fill="none" stroke="green" d="M1098.18,-889.981C1071.12,-882.62 1018.71,-866.251 980,-841.092 957.49,-826.461 957.048,-816.523 937,-798.666 921.578,-784.93 903.368,-770.354 889.388,-759.488"/>
<polygon fill="green" stroke="green" points="891.348,-756.579 881.292,-753.242 887.072,-762.121 891.348,-756.579"/>
</g>
<!-- 86&#45;&gt;21 -->
<g id="edge164" class="edge"><title>86&#45;&gt;21</title>
<path fill="none" stroke="red" d="M1120.1,-877.324C1130.67,-831.593 1158,-702.825 1158,-594.085 1158,-594.085 1158,-594.085 1158,-368.12 1158,-327.33 1165.63,-280.578 1171.22,-251.812"/>
<polygon fill="red" stroke="red" points="1174.71,-252.21 1173.25,-241.718 1167.85,-250.835 1174.71,-252.21"/>
</g>
<!-- 43 -->
<g id="node68" class="node"><title>43</title>
<ellipse fill="none" stroke="black" cx="1333" cy="-147.983" rx="18.2703" ry="18.2703"/>
<text text-anchor="middle" x="1333" y="-145.783" font-family="Times New Roman,serif" font-size="9.00">43</text>
</g>
<!-- 86&#45;&gt;43 -->
<g id="edge137" class="edge"><title>86&#45;&gt;43</title>
<path fill="none" stroke="red" d="M1126.07,-879.61C1132.75,-869.194 1141.32,-854.748 1147,-841.092 1250.21,-593.049 1311.64,-271.045 1328.34,-176.315"/>
<polygon fill="red" stroke="red" points="1331.8,-176.845 1330.07,-166.393 1324.91,-175.642 1331.8,-176.845"/>
</g>
<!-- 22&#45;&gt;57 -->
<g id="edge151" class="edge"><title>22&#45;&gt;57</title>
<path fill="none" stroke="green" d="M831.059,-954.467C836.047,-944.807 842.56,-932.191 848.238,-921.195"/>
<polygon fill="green" stroke="green" points="851.475,-922.554 852.953,-912.063 845.255,-919.343 851.475,-922.554"/>
</g>
<!-- 22&#45;&gt;13 -->
<g id="edge42" class="edge"><title>22&#45;&gt;13</title>
<path fill="none" stroke="green" d="M817.32,-953.565C804.239,-913.769 773.516,-809.255 779,-720.24 781.004,-687.713 778.505,-678.645 788,-647.47 791.022,-637.547 795.796,-627.241 800.494,-618.362"/>
<polygon fill="green" stroke="green" points="803.691,-619.815 805.477,-609.372 797.568,-616.421 803.691,-619.815"/>
</g>
<!-- 106&#45;&gt;51 -->
<g id="edge94" class="edge"><title>106&#45;&gt;51</title>
<path fill="none" stroke="green" d="M897.521,-800.767C892.267,-790.73 885.66,-778.106 879.938,-767.173"/>
<polygon fill="green" stroke="green" points="882.931,-765.345 875.193,-758.108 876.73,-768.591 882.931,-765.345"/>
</g>
<!-- 146 -->
<g id="node51" class="node"><title>146</title>
<ellipse fill="none" stroke="black" cx="847" cy="-819.879" rx="21.4286" ry="21.4286"/>
<text text-anchor="middle" x="847" y="-817.679" font-family="Times New Roman,serif" font-size="9.00">146</text>
</g>
<!-- 57&#45;&gt;146 -->
<g id="edge154" class="edge"><title>57&#45;&gt;146</title>
<path fill="none" stroke="green" d="M857.682,-877.036C856.194,-869.214 854.396,-859.762 852.703,-850.861"/>
<polygon fill="green" stroke="green" points="856.096,-849.966 850.789,-840.796 849.219,-851.274 856.096,-849.966"/>
</g>
<!-- 146&#45;&gt;51 -->
<g id="edge155" class="edge"><title>146&#45;&gt;51</title>
<path fill="none" stroke="green" d="M852.15,-799.198C854.539,-790.072 857.413,-779.086 859.995,-769.222"/>
<polygon fill="green" stroke="green" points="863.4,-770.033 862.546,-759.472 856.629,-768.26 863.4,-770.033"/>
</g>
<!-- 51&#45;&gt;78 -->
<g id="edge61" class="edge"><title>51&#45;&gt;78</title>
<path fill="none" stroke="green" d="M856.726,-725.912C849.462,-715.63 839.574,-701.635 831.246,-689.849"/>
<polygon fill="green" stroke="green" points="833.881,-687.513 825.252,-681.365 828.164,-691.552 833.881,-687.513"/>
</g>
<!-- 51&#45;&gt;13 -->
<g id="edge39" class="edge"><title>51&#45;&gt;13</title>
<path fill="none" stroke="green" d="M863.505,-723.323C859.393,-704.411 851.857,-673.23 842,-647.47 838.293,-637.782 833.369,-627.528 828.742,-618.624"/>
<polygon fill="green" stroke="green" points="831.709,-616.752 823.909,-609.582 825.536,-620.052 831.709,-616.752"/>
</g>
<!-- 125&#45;&gt;19 -->
<g id="edge106" class="edge"><title>125&#45;&gt;19</title>
<path fill="none" stroke="red" d="M338.242,-1644.65C313.42,-1619 266,-1562.37 266,-1504.09 266,-1504.09 266,-1504.09 266,-1202.53 266,-1065.72 233,-1033.29 233,-896.477 233,-896.477 233,-896.477 233,-818.879 233,-599.426 198.178,-457.337 390,-350.735 458.499,-312.668 702.275,-301.097 786.293,-298.196"/>
<polygon fill="red" stroke="red" points="786.513,-301.691 796.392,-297.863 786.282,-294.695 786.513,-301.691"/>
</g>
<!-- 78&#45;&gt;13 -->
<g id="edge62" class="edge"><title>78&#45;&gt;13</title>
<path fill="none" stroke="red" d="M815,-647.361C815,-639.679 815,-630.47 815,-621.886"/>
<polygon fill="red" stroke="red" points="818.5,-621.869 815,-611.869 811.5,-621.869 818.5,-621.869"/>
</g>
<!-- 13&#45;&gt;5 -->
<g id="edge68" class="edge"><title>13&#45;&gt;5</title>
<path fill="none" stroke="green" d="M833.234,-590.094C908.313,-581.53 1200.25,-544.643 1427,-465.931 1516.72,-434.787 1618,-465.09 1618,-370.12 1618,-370.12 1618,-370.12 1618,-295.35 1618,-219.67 1619.74,-197.94 1594,-126.77 1579.9,-87.7705 1551.67,-47.8017 1535.06,-26.2249"/>
<polygon fill="green" stroke="green" points="1537.65,-23.8627 1528.72,-18.1601 1532.15,-28.1864 1537.65,-23.8627"/>
</g>
<!-- 13&#45;&gt;30 -->
<g id="edge12" class="edge"><title>13&#45;&gt;30</title>
<path fill="none" stroke="red" d="M798.271,-584.91C769.487,-572.565 710.394,-547.219 676.139,-532.527"/>
<polygon fill="red" stroke="red" points="677.343,-529.235 666.773,-528.51 674.584,-535.668 677.343,-529.235"/>
</g>
<!-- 13&#45;&gt;19 -->
<g id="edge40" class="edge"><title>13&#45;&gt;19</title>
<path fill="none" stroke="green" d="M815,-574.531C815,-525.181 815,-384.925 815,-325.023"/>
<polygon fill="green" stroke="green" points="818.5,-324.813 815,-314.813 811.5,-324.813 818.5,-324.813"/>
</g>
<!-- 13&#45;&gt;6 -->
<g id="edge6" class="edge"><title>13&#45;&gt;6</title>
<path fill="none" stroke="red" d="M831.757,-584.941C873.007,-567.091 982.267,-518.212 1067,-465.931 1116.57,-435.345 1134.39,-431.979 1172,-387.505 1256.13,-288.021 1218.44,-223.25 1306,-126.77 1323.1,-107.929 1348.29,-92.9832 1366.43,-83.753"/>
<polygon fill="red" stroke="red" points="1368.24,-86.763 1375.69,-79.2247 1365.17,-80.475 1368.24,-86.763"/>
</g>
<!-- 13&#45;&gt;79 -->
<g id="edge25" class="edge"><title>13&#45;&gt;79</title>
<path fill="none" stroke="green" d="M796.801,-589.525C721.239,-578.894 431.925,-538.189 340.125,-525.273"/>
<polygon fill="green" stroke="green" points="340.565,-521.8 330.175,-523.873 339.59,-528.732 340.565,-521.8"/>
</g>
<!-- 147 -->
<g id="node60" class="node"><title>147</title>
<ellipse fill="none" stroke="black" cx="1397" cy="-444.718" rx="21.4286" ry="21.4286"/>
<text text-anchor="middle" x="1397" y="-442.518" font-family="Times New Roman,serif" font-size="9.00">147</text>
</g>
<!-- 23&#45;&gt;147 -->
<g id="edge156" class="edge"><title>23&#45;&gt;147</title>
<path fill="none" stroke="green" d="M1397,-501.874C1397,-494.259 1397,-485.097 1397,-476.403"/>
<polygon fill="green" stroke="green" points="1400.5,-476.167 1397,-466.167 1393.5,-476.167 1400.5,-476.167"/>
</g>
<!-- 23&#45;&gt;6 -->
<g id="edge24" class="edge"><title>23&#45;&gt;6</title>
<path fill="none" stroke="green" d="M1407.01,-504.517C1413.6,-494.131 1421.92,-479.693 1427,-465.931 1442.04,-425.209 1446,-413.532 1446,-370.12 1446,-370.12 1446,-370.12 1446,-222.581 1446,-173.966 1419.26,-121.96 1402.41,-94.0113"/>
<polygon fill="green" stroke="green" points="1405.17,-91.8227 1396.93,-85.1737 1399.23,-95.5155 1405.17,-91.8227"/>
</g>
<!-- 11&#45;&gt;47 -->
<g id="edge140" class="edge"><title>11&#45;&gt;47</title>
<path fill="none" stroke="red" d="M1763.36,-884.154C1723.6,-855.634 1611.59,-772.047 1537,-684.24 1475.28,-611.585 1497.58,-562.537 1424,-501.931 1372.31,-459.357 1176.13,-399.299 1103.37,-377.992"/>
<polygon fill="red" stroke="red" points="1104.15,-374.571 1093.57,-375.136 1102.19,-381.292 1104.15,-374.571"/>
</g>
<!-- 105 -->
<g id="node66" class="node"><title>105</title>
<ellipse fill="none" stroke="black" cx="1819" cy="-819.879" rx="21.4286" ry="21.4286"/>
<text text-anchor="middle" x="1819" y="-817.679" font-family="Times New Roman,serif" font-size="9.00">105</text>
</g>
<!-- 11&#45;&gt;105 -->
<g id="edge124" class="edge"><title>11&#45;&gt;105</title>
<path fill="none" stroke="red" d="M1786.7,-878.869C1791.75,-869.796 1798.26,-858.117 1804.1,-847.62"/>
<polygon fill="red" stroke="red" points="1807.21,-849.234 1809.02,-838.795 1801.1,-845.828 1807.21,-849.234"/>
</g>
<!-- 11&#45;&gt;7 -->
<g id="edge82" class="edge"><title>11&#45;&gt;7</title>
<path fill="none" stroke="red" d="M1793.56,-885.378C1808.99,-875.798 1832.64,-859.561 1849,-841.092 1869.72,-817.705 1886.57,-785.619 1896.44,-764.476"/>
<polygon fill="red" stroke="red" points="1899.65,-765.885 1900.59,-755.332 1893.27,-762.991 1899.65,-765.885"/>
</g>
<!-- 100&#45;&gt;7 -->
<g id="edge135" class="edge"><title>100&#45;&gt;7</title>
<path fill="none" stroke="red" d="M1897.39,-1106.42C1900.62,-1076.81 1906,-1020.32 1906,-972.075 1906,-972.075 1906,-972.075 1906,-894.477 1906,-849.543 1906,-797.138 1906,-767.072"/>
<polygon fill="red" stroke="red" points="1909.5,-766.705 1906,-756.705 1902.5,-766.705 1909.5,-766.705"/>
</g>
<!-- 30&#45;&gt;99 -->
<g id="edge118" class="edge"><title>30&#45;&gt;99</title>
<path fill="none" stroke="green" d="M632.174,-514.823C582.88,-502.398 444.487,-467.517 385.351,-452.612"/>
<polygon fill="green" stroke="green" points="386.145,-449.202 375.593,-450.152 384.434,-455.99 386.145,-449.202"/>
</g>
<!-- 77 -->
<g id="node62" class="node"><title>77</title>
<ellipse fill="none" stroke="black" cx="1040" cy="-444.718" rx="18.2703" ry="18.2703"/>
<text text-anchor="middle" x="1040" y="-442.518" font-family="Times New Roman,serif" font-size="9.00">77</text>
</g>
<!-- 30&#45;&gt;77 -->
<g id="edge76" class="edge"><title>30&#45;&gt;77</title>
<path fill="none" stroke="red" d="M668.007,-516.113C713.586,-507.983 837.209,-485.779 940,-465.931 964.324,-461.234 991.918,-455.636 1011.95,-451.524"/>
<polygon fill="red" stroke="red" points="1012.86,-454.909 1021.95,-449.464 1011.45,-448.052 1012.86,-454.909"/>
</g>
<!-- 30&#45;&gt;47 -->
<g id="edge19" class="edge"><title>30&#45;&gt;47</title>
<path fill="none" stroke="green" d="M667.227,-513.282C732.924,-490.274 968.072,-407.919 1048.67,-379.693"/>
<polygon fill="green" stroke="green" points="1050.28,-382.837 1058.56,-376.228 1047.96,-376.231 1050.28,-382.837"/>
</g>
<!-- 30&#45;&gt;19 -->
<g id="edge36" class="edge"><title>30&#45;&gt;19</title>
<path fill="none" stroke="green" d="M660.572,-505.093C688.57,-467.429 764.796,-364.888 798.544,-319.488"/>
<polygon fill="green" stroke="green" points="801.359,-321.568 804.516,-311.454 795.741,-317.392 801.359,-321.568"/>
</g>
<!-- 147&#45;&gt;80 -->
<g id="edge157" class="edge"><title>147&#45;&gt;80</title>
<path fill="none" stroke="green" d="M1415.48,-433.792C1439.65,-420.806 1482.1,-398.002 1509.09,-383.5"/>
<polygon fill="green" stroke="green" points="1510.79,-386.562 1517.94,-378.746 1507.48,-380.395 1510.79,-386.562"/>
</g>
<!-- 147&#45;&gt;43 -->
<g id="edge169" class="edge"><title>147&#45;&gt;43</title>
<path fill="none" stroke="red" d="M1392.7,-423.922C1381.54,-372.525 1351.63,-234.762 1338.88,-176.069"/>
<polygon fill="red" stroke="red" points="1342.25,-175.098 1336.71,-166.068 1335.41,-176.583 1342.25,-175.098"/>
</g>
<!-- 77&#45;&gt;47 -->
<g id="edge77" class="edge"><title>77&#45;&gt;47</title>
<path fill="none" stroke="red" d="M1047.81,-427.748C1052.48,-418.2 1058.52,-405.863 1063.8,-395.054"/>
<polygon fill="red" stroke="red" points="1066.95,-396.579 1068.2,-386.058 1060.67,-393.503 1066.95,-396.579"/>
</g>
<!-- 47&#45;&gt;19 -->
<g id="edge20" class="edge"><title>47&#45;&gt;19</title>
<path fill="none" stroke="red" d="M1058.47,-363.367C1014,-351.309 896.528,-319.457 842.679,-304.855"/>
<polygon fill="red" stroke="red" points="843.365,-301.415 832.798,-302.176 841.533,-308.171 843.365,-301.415"/>
</g>
<!-- 47&#45;&gt;21 -->
<g id="edge158" class="edge"><title>47&#45;&gt;21</title>
<path fill="none" stroke="red" d="M1086.24,-353.567C1103.78,-328.634 1139.72,-277.56 1160.73,-247.704"/>
<polygon fill="red" stroke="red" points="1163.84,-249.365 1166.73,-239.172 1158.12,-245.337 1163.84,-249.365"/>
</g>
<!-- 19&#45;&gt;21 -->
<g id="edge30" class="edge"><title>19&#45;&gt;21</title>
<path fill="none" stroke="red" d="M832.952,-291.841C891.573,-280.381 1077.7,-243.994 1148.91,-230.071"/>
<polygon fill="red" stroke="red" points="1149.8,-233.465 1158.94,-228.111 1148.45,-226.595 1149.8,-233.465"/>
</g>
<!-- 19&#45;&gt;6 -->
<g id="edge11" class="edge"><title>19&#45;&gt;6</title>
<path fill="none" stroke="red" d="M831.431,-287.643C885.34,-262.521 1062.02,-181.469 1213,-126.77 1266.37,-107.436 1330.48,-89.2117 1364.68,-79.8783"/>
<polygon fill="red" stroke="red" points="1365.95,-83.1619 1374.69,-77.1703 1364.12,-76.4052 1365.95,-83.1619"/>
</g>
<!-- 92 -->
<g id="node71" class="node"><title>92</title>
<ellipse fill="none" stroke="black" cx="283" cy="-223.581" rx="18.2703" ry="18.2703"/>
<text text-anchor="middle" x="283" y="-221.381" font-family="Times New Roman,serif" font-size="9.00">92</text>
</g>
<!-- 19&#45;&gt;92 -->
<g id="edge66" class="edge"><title>19&#45;&gt;92</title>
<path fill="none" stroke="green" d="M796.687,-292.914C717.871,-282.43 407.221,-241.105 311.339,-228.351"/>
<polygon fill="green" stroke="green" points="311.61,-224.856 301.236,-227.007 310.687,-231.795 311.61,-224.856"/>
</g>
<!-- 80&#45;&gt;6 -->
<g id="edge79" class="edge"><title>80&#45;&gt;6</title>
<path fill="none" stroke="red" d="M1536.87,-350.911C1542.98,-308.321 1552.84,-196.411 1502,-126.77 1480.86,-97.8142 1439.93,-83.9969 1413.57,-77.8389"/>
<polygon fill="red" stroke="red" points="1414.1,-74.3738 1403.59,-75.7103 1412.64,-81.2198 1414.1,-74.3738"/>
</g>
<!-- 105&#45;&gt;7 -->
<g id="edge125" class="edge"><title>105&#45;&gt;7</title>
<path fill="none" stroke="green" d="M1834.55,-805.216C1849.45,-792.127 1871.94,-772.373 1887.7,-758.532"/>
<polygon fill="green" stroke="green" points="1890.04,-761.129 1895.25,-751.9 1885.42,-755.87 1890.04,-761.129"/>
</g>
<!-- 21&#45;&gt;43 -->
<g id="edge120" class="edge"><title>21&#45;&gt;43</title>
<path fill="none" stroke="red" d="M1193.4,-214.844C1220.48,-202.067 1274.76,-176.458 1307.08,-161.211"/>
<polygon fill="red" stroke="red" points="1308.8,-164.27 1316.35,-156.838 1305.81,-157.939 1308.8,-164.27"/>
</g>
<!-- 21&#45;&gt;6 -->
<g id="edge58" class="edge"><title>21&#45;&gt;6</title>
<path fill="none" stroke="red" d="M1186.24,-207.661C1199.72,-186.971 1226.63,-149.548 1258,-126.77 1291.31,-102.589 1337.15,-87.189 1364.84,-79.4363"/>
<polygon fill="red" stroke="red" points="1365.75,-82.8153 1374.5,-76.8371 1363.93,-76.0558 1365.75,-82.8153"/>
</g>
<!-- 21&#45;&gt;91 -->
<g id="edge175" class="edge"><title>21&#45;&gt;91</title>
<path fill="none" stroke="green" d="M1158.74,-219.533C1046.39,-200.783 449.24,-101.128 311.403,-78.1249"/>
<polygon fill="green" stroke="green" points="311.674,-74.6217 301.234,-76.4278 310.522,-81.5262 311.674,-74.6217"/>
</g>
<!-- 43&#45;&gt;6 -->
<g id="edge121" class="edge"><title>43&#45;&gt;6</title>
<path fill="none" stroke="red" d="M1343.8,-132.792C1352.47,-121.389 1364.75,-105.256 1374.32,-92.6797"/>
<polygon fill="red" stroke="red" points="1377.16,-94.7204 1380.43,-84.6428 1371.59,-90.4817 1377.16,-94.7204"/>
</g>
<!-- 6&#45;&gt;5 -->
<g id="edge4" class="edge"><title>6&#45;&gt;5</title>
<path fill="none" stroke="red" d="M1402.24,-65.2746C1425.66,-54.4648 1474.52,-31.9145 1502.04,-19.2112"/>
<polygon fill="red" stroke="red" points="1503.84,-22.2382 1511.45,-14.8697 1500.9,-15.8825 1503.84,-22.2382"/>
</g>
<!-- 7&#45;&gt;5 -->
<g id="edge15" class="edge"><title>7&#45;&gt;5</title>
<path fill="none" stroke="red" d="M1898.77,-728.004C1885.14,-703.322 1857,-646.072 1857,-594.085 1857,-594.085 1857,-594.085 1857,-146.983 1857,-94.4427 1829.18,-80.8232 1784,-54 1742.99,-29.6533 1597.28,-15.9298 1542.78,-11.5535"/>
<polygon fill="red" stroke="red" points="1542.84,-8.04814 1532.6,-10.7611 1542.3,-15.027 1542.84,-8.04814"/>
</g>
<!-- 114 -->
<g id="node72" class="node"><title>114</title>
<ellipse fill="none" stroke="black" cx="283" cy="-147.983" rx="21.4286" ry="21.4286"/>
<text text-anchor="middle" x="283" y="-145.783" font-family="Times New Roman,serif" font-size="9.00">114</text>
</g>
<!-- 92&#45;&gt;114 -->
<g id="edge131" class="edge"><title>92&#45;&gt;114</title>
<path fill="none" stroke="red" d="M283,-205.139C283,-197.524 283,-188.362 283,-179.668"/>
<polygon fill="red" stroke="red" points="286.5,-179.432 283,-169.432 279.5,-179.432 286.5,-179.432"/>
</g>
<!-- 92&#45;&gt;91 -->
<g id="edge67" class="edge"><title>92&#45;&gt;91</title>
<path fill="none" stroke="green" d="M272.425,-208.5C265.387,-198.211 256.769,-183.595 253,-169.196 248.226,-150.954 248.226,-145.011 253,-126.77 255.826,-115.97 261.381,-105.049 266.951,-95.9226"/>
<polygon fill="green" stroke="green" points="269.929,-97.7621 272.425,-87.4653 264.053,-93.9585 269.929,-97.7621"/>
</g>
<!-- 114&#45;&gt;91 -->
<g id="edge132" class="edge"><title>114&#45;&gt;91</title>
<path fill="none" stroke="red" d="M283,-126.482C283,-118.586 283,-109.437 283,-100.98"/>
<polygon fill="red" stroke="red" points="286.5,-100.786 283,-90.7857 279.5,-100.786 286.5,-100.786"/>
</g>
<!-- 79&#45;&gt;5 -->
<g id="edge26" class="edge"><title>79&#45;&gt;5</title>
<path fill="none" stroke="green" d="M311.113,-501.921C308.975,-439.247 310.965,-223.594 432,-126.77 518.999,-57.1725 1358.79,-17.1993 1501.45,-10.8851"/>
<polygon fill="green" stroke="green" points="1501.64,-14.3802 1511.48,-10.4462 1501.34,-7.38688 1501.64,-14.3802"/>
</g>
<!-- 91&#45;&gt;5 -->
<g id="edge65" class="edge"><title>91&#45;&gt;5</title>
<path fill="none" stroke="green" d="M300.99,-67.9063C322.877,-63.8278 360.997,-57.2171 394,-54 839.544,-10.5686 1388.03,-9.61171 1501.05,-9.90972"/>
<polygon fill="green" stroke="green" points="1501.38,-13.4107 1511.39,-9.94425 1501.4,-6.41078 1501.38,-13.4107"/>
</g>
</g>
</svg>
