<?xml version="1.0" encoding="UTF-8" standalone="no"?>
<!DOCTYPE svg PUBLIC "-//W3C//DTD SVG 1.1//EN"
 "http://www.w3.org/Graphics/SVG/1.1/DTD/svg11.dtd">
<!-- Generated by graphviz version 2.38.0 (20140413.2041)
 -->
<!-- Title: %3 Pages: 1 -->
<svg width="2317pt" height="2275pt"
 viewBox="0.00 0.00 2317.21 2275.17" xmlns="http://www.w3.org/2000/svg" xmlns:xlink="http://www.w3.org/1999/xlink">
<g id="graph0" class="graph" transform="scale(1 1) rotate(0) translate(4 2271.17)">
<title>%3</title>
<polygon fill="white" stroke="none" points="-4,4 -4,-2271.17 2313.21,-2271.17 2313.21,4 -4,4"/>
<!-- 1 -->
<g id="node1" class="node"><title>1</title>
<polygon fill="lightgray" stroke="black" points="1426.5,-2267.17 1405.5,-2267.17 1405.5,-2249.17 1426.5,-2249.17 1426.5,-2267.17"/>
<text text-anchor="middle" x="1416" y="-2255.97" font-family="Times New Roman,serif" font-size="9.00">1</text>
</g>
<!-- 5 -->
<g id="node5" class="node"><title>5</title>
<polygon fill="lightblue" stroke="black" points="1220.5,-18 1199.5,-18 1199.5,-0 1220.5,-0 1220.5,-18"/>
<text text-anchor="middle" x="1210" y="-6.8" font-family="Times New Roman,serif" font-size="9.00">5</text>
</g>
<!-- 1&#45;&gt;5 -->
<g id="edge1" class="edge"><title>1&#45;&gt;5</title>
<path fill="none" stroke="red" d="M1405.24,-2257.21C1303.12,-2257.48 503.356,-2258.16 269,-2213.17 144.363,-2189.24 0,-2244.27 0,-2117.36 0,-2117.36 0,-2117.36 0,-146.983 0,-73.3943 67.1157,-77.0533 137,-54 240.329,-19.914 1047.41,-11.4058 1188.87,-10.1708"/>
<polygon fill="red" stroke="red" points="1189.22,-13.668 1199.19,-10.0835 1189.17,-6.66828 1189.22,-13.668"/>
</g>
<!-- 37 -->
<g id="node6" class="node"><title>37</title>
<ellipse fill="none" stroke="black" cx="1343" cy="-738.624" rx="18.2703" ry="18.2703"/>
<text text-anchor="middle" x="1343" y="-736.424" font-family="Times New Roman,serif" font-size="9.00">37</text>
</g>
<!-- 1&#45;&gt;37 -->
<g id="edge13" class="edge"><title>1&#45;&gt;37</title>
<path fill="none" stroke="red" d="M1426.75,-2257.62C1459.79,-2258.5 1561.61,-2257.25 1628,-2213.17 1671.08,-2184.57 1694,-2169.07 1694,-2117.36 1694,-2117.36 1694,-2117.36 1694,-1737.37 1694,-1584.37 1542,-1581.49 1542,-1428.49 1542,-1428.49 1542,-1428.49 1542,-1275.3 1542,-1064.56 1404.99,-834.741 1358.34,-762.594"/>
<polygon fill="red" stroke="red" points="1361.27,-760.674 1352.87,-754.216 1355.41,-764.502 1361.27,-760.674"/>
</g>
<!-- 31 -->
<g id="node7" class="node"><title>31</title>
<ellipse fill="none" stroke="black" cx="296" cy="-2191.96" rx="18.2703" ry="18.2703"/>
<text text-anchor="middle" x="296" y="-2189.76" font-family="Times New Roman,serif" font-size="9.00">31</text>
</g>
<!-- 1&#45;&gt;31 -->
<g id="edge21" class="edge"><title>1&#45;&gt;31</title>
<path fill="none" stroke="red" d="M1405.26,-2256.74C1332.32,-2253.77 901.967,-2235.89 552,-2213.17 469.246,-2207.8 371.594,-2199.56 324.385,-2195.46"/>
<polygon fill="red" stroke="red" points="324.569,-2191.96 314.302,-2194.58 323.96,-2198.93 324.569,-2191.96"/>
</g>
<!-- 121 -->
<g id="node8" class="node"><title>121</title>
<ellipse fill="none" stroke="black" cx="1223" cy="-1659.94" rx="21.4286" ry="21.4286"/>
<text text-anchor="middle" x="1223" y="-1657.74" font-family="Times New Roman,serif" font-size="9.00">121</text>
</g>
<!-- 1&#45;&gt;121 -->
<g id="edge181" class="edge"><title>1&#45;&gt;121</title>
<path fill="none" stroke="green" d="M1405.43,-2250.01C1365.55,-2222.29 1224.07,-2117.14 1175,-1989.2 1154.11,-1934.73 1196.35,-1760.88 1214.88,-1690.72"/>
<polygon fill="green" stroke="green" points="1218.34,-1691.33 1217.53,-1680.77 1211.57,-1689.53 1218.34,-1691.33"/>
</g>
<!-- 65 -->
<g id="node10" class="node"><title>65</title>
<ellipse fill="none" stroke="black" cx="558" cy="-1503.09" rx="18.2703" ry="18.2703"/>
<text text-anchor="middle" x="558" y="-1500.89" font-family="Times New Roman,serif" font-size="9.00">65</text>
</g>
<!-- 1&#45;&gt;65 -->
<g id="edge55" class="edge"><title>1&#45;&gt;65</title>
<path fill="none" stroke="green" d="M1405.25,-2256.58C1306.86,-2251.09 566,-2206.72 566,-2117.36 566,-2117.36 566,-2117.36 566,-2042.59 566,-1898.61 680,-1883.34 680,-1739.37 680,-1739.37 680,-1739.37 680,-1658.94 680,-1596.15 617.349,-1543.83 581.84,-1519.22"/>
<polygon fill="green" stroke="green" points="583.701,-1516.26 573.451,-1513.57 579.79,-1522.06 583.701,-1516.26"/>
</g>
<!-- 20 -->
<g id="node14" class="node"><title>20</title>
<ellipse fill="none" stroke="black" cx="950" cy="-2116.36" rx="18.2703" ry="18.2703"/>
<text text-anchor="middle" x="950" y="-2114.16" font-family="Times New Roman,serif" font-size="9.00">20</text>
</g>
<!-- 1&#45;&gt;20 -->
<g id="edge29" class="edge"><title>1&#45;&gt;20</title>
<path fill="none" stroke="red" d="M1405.47,-2255.84C1372.94,-2251.56 1271.3,-2237.08 1190,-2213.17 1109.54,-2189.5 1018.61,-2149.31 975.408,-2129.35"/>
<polygon fill="red" stroke="red" points="976.752,-2126.11 966.209,-2125.07 973.799,-2132.46 976.752,-2126.11"/>
</g>
<!-- 15 -->
<g id="node41" class="node"><title>15</title>
<ellipse fill="none" stroke="black" cx="1322" cy="-1122.27" rx="18.2703" ry="18.2703"/>
<text text-anchor="middle" x="1322" y="-1120.07" font-family="Times New Roman,serif" font-size="9.00">15</text>
</g>
<!-- 1&#45;&gt;15 -->
<g id="edge7" class="edge"><title>1&#45;&gt;15</title>
<path fill="none" stroke="red" d="M1426.62,-2256.19C1473.07,-2251.29 1656,-2225.13 1656,-2117.36 1656,-2117.36 1656,-2117.36 1656,-2042.59 1656,-1887.8 1390,-1972.58 1390,-1817.8 1390,-1817.8 1390,-1817.8 1390,-1275.3 1390,-1225.73 1359.5,-1174.37 1339.35,-1145.85"/>
<polygon fill="red" stroke="red" points="1341.94,-1143.45 1333.23,-1137.42 1336.28,-1147.57 1341.94,-1143.45"/>
</g>
<!-- 171 -->
<g id="node48" class="node"><title>171</title>
<ellipse fill="none" stroke="black" cx="2288" cy="-2191.96" rx="21.4286" ry="21.4286"/>
<text text-anchor="middle" x="2288" y="-2189.76" font-family="Times New Roman,serif" font-size="9.00">171</text>
</g>
<!-- 1&#45;&gt;171 -->
<g id="edge169" class="edge"><title>1&#45;&gt;171</title>
<path fill="none" stroke="green" d="M1426.68,-2257.29C1512.31,-2258.16 2087.85,-2262.12 2253,-2213.17 2256,-2212.28 2259.01,-2211.09 2261.95,-2209.73"/>
<polygon fill="green" stroke="green" points="2263.74,-2212.74 2270.93,-2204.96 2260.46,-2206.56 2263.74,-2212.74"/>
</g>
<!-- 99 -->
<g id="node66" class="node"><title>99</title>
<ellipse fill="none" stroke="black" cx="2247" cy="-517.487" rx="18.2703" ry="18.2703"/>
<text text-anchor="middle" x="2247" y="-515.287" font-family="Times New Roman,serif" font-size="9.00">99</text>
</g>
<!-- 1&#45;&gt;99 -->
<g id="edge173" class="edge"><title>1&#45;&gt;99</title>
<path fill="none" stroke="red" d="M1426.71,-2256.53C1523.18,-2250.62 2239,-2203.86 2239,-2117.36 2239,-2117.36 2239,-2117.36 2239,-664.855 2239,-623.559 2242.21,-575.807 2244.57,-546.375"/>
<polygon fill="red" stroke="red" points="2248.09,-546.298 2245.42,-536.044 2241.11,-545.723 2248.09,-546.298"/>
</g>
<!-- 6 -->
<g id="node75" class="node"><title>6</title>
<ellipse fill="none" stroke="black" cx="1481" cy="-147.983" rx="14.7" ry="14.7"/>
<text text-anchor="middle" x="1481" y="-145.783" font-family="Times New Roman,serif" font-size="9.00">6</text>
</g>
<!-- 1&#45;&gt;6 -->
<g id="edge9" class="edge"><title>1&#45;&gt;6</title>
<path fill="none" stroke="green" d="M1426.89,-2256.58C1462.52,-2254.37 1578.45,-2245.02 1668,-2213.17 1735.2,-2189.27 1767.2,-2193.24 1808,-2134.74 1869.41,-2046.7 1846,-2003.57 1846,-1896.22 1846,-1896.22 1846,-1896.22 1846,-1121.27 1846,-1009.76 1837.77,-981.961 1823,-871.436 1801.9,-713.571 1761,-677.755 1761,-518.487 1761,-518.487 1761,-518.487 1761,-295.35 1761,-181.039 1575.45,-155.843 1506.44,-150.426"/>
<polygon fill="green" stroke="green" points="1506.28,-146.905 1496.05,-149.693 1505.78,-153.888 1506.28,-146.905"/>
</g>
<!-- 2 -->
<g id="node2" class="node"><title>2</title>
<polygon fill="lightgray" stroke="black" points="1895.5,-1285.3 1874.5,-1285.3 1874.5,-1267.3 1895.5,-1267.3 1895.5,-1285.3"/>
<text text-anchor="middle" x="1885" y="-1274.1" font-family="Times New Roman,serif" font-size="9.00">2</text>
</g>
<!-- 2&#45;&gt;5 -->
<g id="edge2" class="edge"><title>2&#45;&gt;5</title>
<path fill="none" stroke="green" d="M1884.69,-1267.13C1883,-1221.96 1875,-998.177 1875,-815.222 1875,-815.222 1875,-815.222 1875,-146.983 1875,-12.0808 1343.39,-8.90444 1230.79,-9.74462"/>
<polygon fill="green" stroke="green" points="1230.68,-6.24544 1220.71,-9.84022 1230.75,-13.2451 1230.68,-6.24544"/>
</g>
<!-- 24 -->
<g id="node39" class="node"><title>24</title>
<ellipse fill="none" stroke="black" cx="919" cy="-1200.7" rx="18.2703" ry="18.2703"/>
<text text-anchor="middle" x="919" y="-1198.5" font-family="Times New Roman,serif" font-size="9.00">24</text>
</g>
<!-- 2&#45;&gt;24 -->
<g id="edge103" class="edge"><title>2&#45;&gt;24</title>
<path fill="none" stroke="red" d="M1874.48,-1274.49C1781.23,-1267.39 1095.93,-1215.18 947.36,-1203.86"/>
<polygon fill="red" stroke="red" points="947.469,-1200.36 937.232,-1203.09 946.938,-1207.34 947.469,-1200.36"/>
</g>
<!-- 100 -->
<g id="node63" class="node"><title>100</title>
<ellipse fill="none" stroke="black" cx="2000" cy="-1043.84" rx="21.4286" ry="21.4286"/>
<text text-anchor="middle" x="2000" y="-1041.64" font-family="Times New Roman,serif" font-size="9.00">100</text>
</g>
<!-- 2&#45;&gt;100 -->
<g id="edge133" class="edge"><title>2&#45;&gt;100</title>
<path fill="none" stroke="green" d="M1895.52,-1271.41C1912.97,-1264.39 1947.66,-1247.88 1965,-1221.91 1994.78,-1177.32 2000.38,-1113.23 2000.83,-1075.63"/>
<polygon fill="green" stroke="green" points="2004.33,-1075.32 2000.83,-1065.32 1997.33,-1075.32 2004.33,-1075.32"/>
</g>
<!-- 30 -->
<g id="node64" class="node"><title>30</title>
<ellipse fill="none" stroke="black" cx="1229" cy="-593.085" rx="18.2703" ry="18.2703"/>
<text text-anchor="middle" x="1229" y="-590.885" font-family="Times New Roman,serif" font-size="9.00">30</text>
</g>
<!-- 2&#45;&gt;30 -->
<g id="edge194" class="edge"><title>2&#45;&gt;30</title>
<path fill="none" stroke="green" d="M1875.35,-1267.03C1819.71,-1219.22 1534.7,-972.936 1316,-757.009 1284.5,-725.909 1268.43,-723.51 1248,-684.24 1237.88,-664.785 1233.15,-640.312 1230.94,-621.775"/>
<polygon fill="green" stroke="green" points="1234.4,-621.224 1229.91,-611.63 1227.44,-621.933 1234.4,-621.224"/>
</g>
<!-- 7 -->
<g id="node76" class="node"><title>7</title>
<ellipse fill="none" stroke="black" cx="1987" cy="-738.624" rx="14.7" ry="14.7"/>
<text text-anchor="middle" x="1987" y="-736.424" font-family="Times New Roman,serif" font-size="9.00">7</text>
</g>
<!-- 2&#45;&gt;7 -->
<g id="edge17" class="edge"><title>2&#45;&gt;7</title>
<path fill="none" stroke="green" d="M1887.79,-1267.05C1902.46,-1223.26 1970.67,-1013.35 1992,-835.436 1994.93,-810.99 1992.81,-782.832 1990.49,-763.399"/>
<polygon fill="green" stroke="green" points="1993.94,-762.783 1989.18,-753.319 1987,-763.687 1993.94,-762.783"/>
</g>
<!-- 3 -->
<g id="node3" class="node"><title>3</title>
<polygon fill="lightgray" stroke="black" points="1477.5,-1747.37 1456.5,-1747.37 1456.5,-1729.37 1477.5,-1729.37 1477.5,-1747.37"/>
<text text-anchor="middle" x="1467" y="-1736.17" font-family="Times New Roman,serif" font-size="9.00">3</text>
</g>
<!-- 3&#45;&gt;5 -->
<g id="edge3" class="edge"><title>3&#45;&gt;5</title>
<path fill="none" stroke="green" d="M1474.58,-1729.28C1478.24,-1725.5 1482.74,-1720.99 1487,-1717.16 1506.04,-1700.02 1512.94,-1698.26 1532,-1681.16 1746.32,-1488.85 1834.93,-1465.17 1989,-1221.91 2110.93,-1029.4 2163,-967.498 2163,-739.624 2163,-739.624 2163,-739.624 2163,-146.983 2163,-33.8328 2036.48,-78.4306 1926,-54 1788.28,-23.5461 1333.73,-12.5371 1230.83,-10.4048"/>
<polygon fill="green" stroke="green" points="1230.85,-6.90444 1220.78,-10.2018 1230.71,-13.903 1230.85,-6.90444"/>
</g>
<!-- 3&#45;&gt;121 -->
<g id="edge140" class="edge"><title>3&#45;&gt;121</title>
<path fill="none" stroke="green" d="M1456.2,-1733.99C1420.85,-1722.91 1307.73,-1687.48 1253.1,-1670.37"/>
<polygon fill="green" stroke="green" points="1253.89,-1666.95 1243.3,-1667.3 1251.8,-1673.63 1253.89,-1666.95"/>
</g>
<!-- 58 -->
<g id="node15" class="node"><title>58</title>
<ellipse fill="none" stroke="black" cx="1230" cy="-1581.52" rx="18.2703" ry="18.2703"/>
<text text-anchor="middle" x="1230" y="-1579.32" font-family="Times New Roman,serif" font-size="9.00">58</text>
</g>
<!-- 3&#45;&gt;58 -->
<g id="edge93" class="edge"><title>3&#45;&gt;58</title>
<path fill="none" stroke="green" d="M1456.2,-1730.31C1420.23,-1706.81 1303.89,-1630.8 1253.56,-1597.91"/>
<polygon fill="green" stroke="green" points="1255.25,-1594.84 1244.97,-1592.3 1251.43,-1600.7 1255.25,-1594.84"/>
</g>
<!-- 3&#45;&gt;15 -->
<g id="edge38" class="edge"><title>3&#45;&gt;15</title>
<path fill="none" stroke="green" d="M1464.56,-1728.98C1456.02,-1698.85 1428,-1593.19 1428,-1504.09 1428,-1504.09 1428,-1504.09 1428,-1275.3 1428,-1231.4 1429.06,-1215.52 1404,-1179.48 1389.99,-1159.33 1366.24,-1144.22 1347.89,-1134.77"/>
<polygon fill="green" stroke="green" points="1349.39,-1131.61 1338.87,-1130.35 1346.31,-1137.89 1349.39,-1131.61"/>
</g>
<!-- 21 -->
<g id="node72" class="node"><title>21</title>
<ellipse fill="none" stroke="black" cx="1347" cy="-296.35" rx="18.2703" ry="18.2703"/>
<text text-anchor="middle" x="1347" y="-294.15" font-family="Times New Roman,serif" font-size="9.00">21</text>
</g>
<!-- 3&#45;&gt;21 -->
<g id="edge149" class="edge"><title>3&#45;&gt;21</title>
<path fill="none" stroke="red" d="M1470.41,-1729.14C1479.57,-1706.3 1504,-1640.01 1504,-1582.52 1504,-1582.52 1504,-1582.52 1504,-1121.27 1504,-910.692 1534.76,-855.641 1503,-647.47 1482.18,-510.974 1487.6,-465.612 1411,-350.735 1400.6,-335.132 1384.32,-321.645 1370.79,-312.13"/>
<polygon fill="red" stroke="red" points="1372.63,-309.15 1362.38,-306.468 1368.72,-314.957 1372.63,-309.15"/>
</g>
<!-- 3&#45;&gt;6 -->
<g id="edge5" class="edge"><title>3&#45;&gt;6</title>
<path fill="none" stroke="green" d="M1474.2,-1729.18C1483.06,-1718.71 1498.04,-1699.71 1507,-1681.16 1557.83,-1575.9 1580,-1545.38 1580,-1428.49 1580,-1428.49 1580,-1428.49 1580,-1350.89 1580,-1174.43 1702.14,-1159.42 1738,-986.632 1741.32,-970.631 1738.34,-966.2 1738,-949.862 1734.67,-791.634 1723,-752.349 1723,-594.085 1723,-594.085 1723,-594.085 1723,-295.35 1723,-194.605 1567.54,-161.328 1505.82,-152.086"/>
<polygon fill="green" stroke="green" points="1506.16,-148.6 1495.77,-150.672 1505.19,-155.532 1506.16,-148.6"/>
</g>
<!-- 4 -->
<g id="node4" class="node"><title>4</title>
<polygon fill="lightgray" stroke="black" points="1799.5,-2125.36 1778.5,-2125.36 1778.5,-2107.36 1799.5,-2107.36 1799.5,-2125.36"/>
<text text-anchor="middle" x="1789" y="-2114.16" font-family="Times New Roman,serif" font-size="9.00">4</text>
</g>
<!-- 4&#45;&gt;5 -->
<g id="edge27" class="edge"><title>4&#45;&gt;5</title>
<path fill="none" stroke="green" d="M1799.65,-2115.34C1839.63,-2114.89 1983.79,-2109.84 2089,-2061.97 2147.17,-2035.51 2201,-2035.72 2201,-1971.82 2201,-1971.82 2201,-1971.82 2201,-146.983 2201,-112.634 2251.24,-113.178 2049,-54 1888.79,-7.11959 1344.36,-8.89645 1230.85,-9.79857"/>
<polygon fill="green" stroke="green" points="1230.68,-6.2998 1220.71,-9.88641 1230.74,-13.2995 1230.68,-6.2998"/>
</g>
<!-- 48 -->
<g id="node9" class="node"><title>48</title>
<ellipse fill="none" stroke="black" cx="1268" cy="-2043.59" rx="18.2703" ry="18.2703"/>
<text text-anchor="middle" x="1268" y="-2041.39" font-family="Times New Roman,serif" font-size="9.00">48</text>
</g>
<!-- 4&#45;&gt;48 -->
<g id="edge35" class="edge"><title>4&#45;&gt;48</title>
<path fill="none" stroke="red" d="M1778.19,-2115.47C1725.31,-2115.72 1488.9,-2113.77 1305,-2061.97 1301.04,-2060.86 1296.98,-2059.36 1293.06,-2057.7"/>
<polygon fill="red" stroke="red" points="1294.31,-2054.42 1283.76,-2053.4 1291.37,-2060.78 1294.31,-2054.42"/>
</g>
<!-- 4&#45;&gt;24 -->
<g id="edge41" class="edge"><title>4&#45;&gt;24</title>
<path fill="none" stroke="green" d="M1778.19,-2115.06C1710.54,-2113.11 1344.84,-2100.87 1241,-2061.97 1136.7,-2022.91 1093.16,-2012.62 1037,-1916.43 983.977,-1825.62 1020.7,-1785.95 1012,-1681.16 999.086,-1525.64 1016.48,-1484.63 991,-1330.68 985.523,-1297.59 987.296,-1287.23 971,-1257.91 963.099,-1243.7 950.878,-1230.23 940.268,-1220.05"/>
<polygon fill="green" stroke="green" points="942.631,-1217.47 932.912,-1213.25 937.878,-1222.61 942.631,-1217.47"/>
</g>
<!-- 56 -->
<g id="node42" class="node"><title>56</title>
<ellipse fill="none" stroke="black" cx="1367" cy="-665.855" rx="18.2703" ry="18.2703"/>
<text text-anchor="middle" x="1367" y="-663.655" font-family="Times New Roman,serif" font-size="9.00">56</text>
</g>
<!-- 4&#45;&gt;56 -->
<g id="edge91" class="edge"><title>4&#45;&gt;56</title>
<path fill="none" stroke="green" d="M1782.81,-2107.09C1775.48,-2096.94 1763.33,-2078.98 1756,-2061.97 1739.59,-2023.9 1732,-2013.28 1732,-1971.82 1732,-1971.82 1732,-1971.82 1732,-1737.37 1732,-1563.18 1656,-1527.08 1656,-1352.89 1656,-1352.89 1656,-1352.89 1656,-1275.3 1656,-1022.5 1449.93,-762.796 1385.81,-688.1"/>
<polygon fill="green" stroke="green" points="1388.24,-685.564 1379.05,-680.299 1382.95,-690.148 1388.24,-685.564"/>
</g>
<!-- 23 -->
<g id="node61" class="node"><title>23</title>
<ellipse fill="none" stroke="black" cx="1600" cy="-593.085" rx="18.2703" ry="18.2703"/>
<text text-anchor="middle" x="1600" y="-590.885" font-family="Times New Roman,serif" font-size="9.00">23</text>
</g>
<!-- 4&#45;&gt;23 -->
<g id="edge23" class="edge"><title>4&#45;&gt;23</title>
<path fill="none" stroke="red" d="M1787.18,-2107.31C1782.42,-2085.59 1770,-2023.85 1770,-1971.82 1770,-1971.82 1770,-1971.82 1770,-1737.37 1770,-1563.18 1694,-1527.08 1694,-1352.89 1694,-1352.89 1694,-1352.89 1694,-1275.3 1694,-1069.75 1647,-1020.76 1647,-815.222 1647,-815.222 1647,-815.222 1647,-737.624 1647,-693.996 1627.15,-646.446 1613.25,-618.501"/>
<polygon fill="red" stroke="red" points="1616.3,-616.776 1608.62,-609.473 1610.07,-619.969 1616.3,-616.776"/>
</g>
<!-- 11 -->
<g id="node62" class="node"><title>11</title>
<ellipse fill="none" stroke="black" cx="1711" cy="-968.247" rx="18.2703" ry="18.2703"/>
<text text-anchor="middle" x="1711" y="-966.047" font-family="Times New Roman,serif" font-size="9.00">11</text>
</g>
<!-- 4&#45;&gt;11 -->
<g id="edge84" class="edge"><title>4&#45;&gt;11</title>
<path fill="none" stroke="green" d="M1795.53,-2107.16C1816.99,-2079.34 1884,-1985.37 1884,-1896.22 1884,-1896.22 1884,-1896.22 1884,-1426.49 1884,-1335.55 1762.78,-1076.48 1723.28,-994.465"/>
<polygon fill="green" stroke="green" points="1726.39,-992.845 1718.88,-985.364 1720.08,-995.891 1726.39,-992.845"/>
</g>
<!-- 4&#45;&gt;6 -->
<g id="edge28" class="edge"><title>4&#45;&gt;6</title>
<path fill="none" stroke="red" d="M1790.82,-2107.31C1795.58,-2085.59 1808,-2023.85 1808,-1971.82 1808,-1971.82 1808,-1971.82 1808,-1737.37 1808,-1632.32 1770,-1609.14 1770,-1504.09 1770,-1504.09 1770,-1504.09 1770,-1350.89 1770,-979.739 1837,-889.642 1837,-518.487 1837,-518.487 1837,-518.487 1837,-295.35 1837,-246.721 1815.71,-231.791 1775,-205.196 1730.37,-176.04 1568.42,-157.51 1505.88,-151.302"/>
<polygon fill="red" stroke="red" points="1506.03,-147.8 1495.74,-150.317 1505.35,-154.767 1506.03,-147.8"/>
</g>
<!-- 4&#45;&gt;7 -->
<g id="edge14" class="edge"><title>4&#45;&gt;7</title>
<path fill="none" stroke="green" d="M1799.79,-2113.69C1861.11,-2103.93 2163,-2051.8 2163,-1971.82 2163,-1971.82 2163,-1971.82 2163,-967.247 2163,-880.087 2132.16,-857.019 2073,-793.009 2055.1,-773.646 2028.65,-758.643 2009.81,-749.54"/>
<polygon fill="green" stroke="green" points="2011.03,-746.247 2000.48,-745.212 2008.08,-752.597 2011.03,-746.247"/>
</g>
<!-- 37&#45;&gt;5 -->
<g id="edge94" class="edge"><title>37&#45;&gt;5</title>
<path fill="none" stroke="red" d="M1361.44,-737.456C1446.75,-735.628 1799,-716.113 1799,-518.487 1799,-518.487 1799,-518.487 1799,-146.983 1799,-27.8286 1335.92,-12.2816 1230.98,-10.2882"/>
<polygon fill="red" stroke="red" points="1230.78,-6.78454 1220.73,-10.1164 1230.67,-13.7836 1230.78,-6.78454"/>
</g>
<!-- 37&#45;&gt;56 -->
<g id="edge187" class="edge"><title>37&#45;&gt;56</title>
<path fill="none" stroke="green" d="M1348.69,-720.853C1351.5,-712.568 1354.95,-702.381 1358.1,-693.095"/>
<polygon fill="green" stroke="green" points="1361.46,-694.1 1361.35,-683.506 1354.83,-691.852 1361.46,-694.1"/>
</g>
<!-- 84 -->
<g id="node49" class="node"><title>84</title>
<ellipse fill="none" stroke="black" cx="1275" cy="-665.855" rx="18.2703" ry="18.2703"/>
<text text-anchor="middle" x="1275" y="-663.655" font-family="Times New Roman,serif" font-size="9.00">84</text>
</g>
<!-- 37&#45;&gt;84 -->
<g id="edge137" class="edge"><title>37&#45;&gt;84</title>
<path fill="none" stroke="red" d="M1330.53,-724.644C1320.46,-714.17 1306.12,-699.245 1294.54,-687.187"/>
<polygon fill="red" stroke="red" points="1296.85,-684.539 1287.39,-679.753 1291.8,-689.389 1296.85,-684.539"/>
</g>
<!-- 37&#45;&gt;30 -->
<g id="edge16" class="edge"><title>37&#45;&gt;30</title>
<path fill="none" stroke="green" d="M1338.15,-720.587C1332.05,-701.321 1320.12,-669.742 1302,-647.47 1288.79,-631.233 1269.54,-617.429 1254.12,-607.927"/>
<polygon fill="green" stroke="green" points="1255.49,-604.672 1245.11,-602.584 1251.92,-610.694 1255.49,-604.672"/>
</g>
<!-- 31&#45;&gt;20 -->
<g id="edge22" class="edge"><title>31&#45;&gt;20</title>
<path fill="none" stroke="green" d="M314.174,-2188.91C405.016,-2178.69 809.897,-2133.13 921.457,-2120.57"/>
<polygon fill="green" stroke="green" points="922.058,-2124.03 931.604,-2119.43 921.275,-2117.07 922.058,-2124.03"/>
</g>
<!-- 31&#45;&gt;6 -->
<g id="edge70" class="edge"><title>31&#45;&gt;6</title>
<path fill="none" stroke="green" d="M277.996,-2187.95C225.454,-2178.05 76,-2141.39 76,-2044.59 76,-2044.59 76,-2044.59 76,-1426.49 76,-1321.17 151,-1307.02 151,-1201.7 151,-1201.7 151,-1201.7 151,-1121.27 151,-784.229 170.953,-615.448 448,-423.505 625.156,-300.767 673.885,-264.798 881,-205.196 991.849,-173.297 1356.88,-154.645 1455.98,-150.086"/>
<polygon fill="green" stroke="green" points="1456.4,-153.571 1466.23,-149.621 1456.08,-146.578 1456.4,-153.571"/>
</g>
<!-- 91 -->
<g id="node80" class="node"><title>91</title>
<ellipse fill="none" stroke="black" cx="1104" cy="-72.3848" rx="18.2703" ry="18.2703"/>
<text text-anchor="middle" x="1104" y="-70.1848" font-family="Times New Roman,serif" font-size="9.00">91</text>
</g>
<!-- 31&#45;&gt;91 -->
<g id="edge118" class="edge"><title>31&#45;&gt;91</title>
<path fill="none" stroke="red" d="M277.551,-2190.42C239.003,-2188.4 148.722,-2178.94 91,-2134.74 54.0965,-2106.49 38,-2091.07 38,-2044.59 38,-2044.59 38,-2044.59 38,-1350.89 38,-1249.41 56,-1224.75 56,-1123.27 56,-1123.27 56,-1123.27 56,-1042.84 56,-817.296 302.93,-248.2 493,-126.77 542.549,-95.1143 961.432,-78.3427 1075.45,-74.3362"/>
<polygon fill="red" stroke="red" points="1075.63,-77.832 1085.51,-73.9883 1075.39,-70.8361 1075.63,-77.832"/>
</g>
<!-- 121&#45;&gt;58 -->
<g id="edge141" class="edge"><title>121&#45;&gt;58</title>
<path fill="none" stroke="green" d="M1224.88,-1638.46C1225.68,-1629.72 1226.62,-1619.4 1227.48,-1610.01"/>
<polygon fill="green" stroke="green" points="1230.98,-1610.22 1228.4,-1599.94 1224.01,-1609.58 1230.98,-1610.22"/>
</g>
<!-- 125 -->
<g id="node58" class="node"><title>125</title>
<ellipse fill="none" stroke="black" cx="1091" cy="-1581.52" rx="21.4286" ry="21.4286"/>
<text text-anchor="middle" x="1091" y="-1579.32" font-family="Times New Roman,serif" font-size="9.00">125</text>
</g>
<!-- 121&#45;&gt;125 -->
<g id="edge175" class="edge"><title>121&#45;&gt;125</title>
<path fill="none" stroke="green" d="M1204.92,-1648.48C1182.54,-1635.51 1144.19,-1613.31 1118.23,-1598.28"/>
<polygon fill="green" stroke="green" points="1119.69,-1595.08 1109.28,-1593.1 1116.18,-1601.14 1119.69,-1595.08"/>
</g>
<!-- 53 -->
<g id="node11" class="node"><title>53</title>
<ellipse fill="none" stroke="black" cx="1202" cy="-1970.82" rx="18.2703" ry="18.2703"/>
<text text-anchor="middle" x="1202" y="-1968.62" font-family="Times New Roman,serif" font-size="9.00">53</text>
</g>
<!-- 48&#45;&gt;53 -->
<g id="edge37" class="edge"><title>48&#45;&gt;53</title>
<path fill="none" stroke="red" d="M1255.89,-2029.61C1246.25,-2019.27 1232.55,-2004.58 1221.38,-1992.61"/>
<polygon fill="red" stroke="red" points="1223.86,-1990.12 1214.48,-1985.2 1218.74,-1994.9 1223.86,-1990.12"/>
</g>
<!-- 52 -->
<g id="node26" class="node"><title>52</title>
<ellipse fill="none" stroke="black" cx="872" cy="-1427.49" rx="18.2703" ry="18.2703"/>
<text text-anchor="middle" x="872" y="-1425.29" font-family="Times New Roman,serif" font-size="9.00">52</text>
</g>
<!-- 48&#45;&gt;52 -->
<g id="edge47" class="edge"><title>48&#45;&gt;52</title>
<path fill="none" stroke="red" d="M1249.7,-2041.76C1154.27,-2036.96 718,-2008.86 718,-1896.22 718,-1896.22 718,-1896.22 718,-1580.52 718,-1509.44 802.109,-1460.39 846.009,-1439.63"/>
<polygon fill="red" stroke="red" points="847.592,-1442.75 855.226,-1435.4 844.677,-1436.39 847.592,-1442.75"/>
</g>
<!-- 80 -->
<g id="node70" class="node"><title>80</title>
<ellipse fill="none" stroke="black" cx="1640" cy="-441.889" rx="18.2703" ry="18.2703"/>
<text text-anchor="middle" x="1640" y="-439.689" font-family="Times New Roman,serif" font-size="9.00">80</text>
</g>
<!-- 48&#45;&gt;80 -->
<g id="edge90" class="edge"><title>48&#45;&gt;80</title>
<path fill="none" stroke="green" d="M1284.02,-2034.39C1302.66,-2024.58 1334.05,-2007.21 1359,-1989.2 1398.78,-1960.49 1409.63,-1953.3 1442,-1916.43 1594.09,-1743.18 1618,-1659.03 1618,-1428.49 1618,-1428.49 1618,-1428.49 1618,-1350.89 1618,-1110.96 1685,-1055.15 1685,-815.222 1685,-815.222 1685,-815.222 1685,-592.085 1685,-546.829 1665.79,-497.014 1652.47,-467.921"/>
<polygon fill="green" stroke="green" points="1655.47,-466.09 1648.05,-458.537 1649.14,-469.074 1655.47,-466.09"/>
</g>
<!-- 69 -->
<g id="node28" class="node"><title>69</title>
<ellipse fill="none" stroke="black" cx="638" cy="-1427.49" rx="18.2703" ry="18.2703"/>
<text text-anchor="middle" x="638" y="-1425.29" font-family="Times New Roman,serif" font-size="9.00">69</text>
</g>
<!-- 65&#45;&gt;69 -->
<g id="edge71" class="edge"><title>65&#45;&gt;69</title>
<path fill="none" stroke="red" d="M571.21,-1489.94C583.717,-1478.43 602.69,-1460.98 617.223,-1447.61"/>
<polygon fill="red" stroke="red" points="619.78,-1450.01 624.77,-1440.66 615.041,-1444.86 619.78,-1450.01"/>
</g>
<!-- 65&#45;&gt;24 -->
<g id="edge56" class="edge"><title>65&#45;&gt;24</title>
<path fill="none" stroke="green" d="M561.878,-1484.94C573.157,-1439.38 610.514,-1314.92 693,-1257.91 765.5,-1207.8 806.162,-1254.62 888,-1221.91 890.741,-1220.82 893.496,-1219.46 896.172,-1217.98"/>
<polygon fill="green" stroke="green" points="898.169,-1220.86 904.832,-1212.62 894.487,-1214.91 898.169,-1220.86"/>
</g>
<!-- 75 -->
<g id="node46" class="node"><title>75</title>
<ellipse fill="none" stroke="black" cx="274" cy="-1427.49" rx="18.2703" ry="18.2703"/>
<text text-anchor="middle" x="274" y="-1425.29" font-family="Times New Roman,serif" font-size="9.00">75</text>
</g>
<!-- 65&#45;&gt;75 -->
<g id="edge114" class="edge"><title>65&#45;&gt;75</title>
<path fill="none" stroke="red" d="M540.235,-1497.49C492.22,-1485.04 359.591,-1450.67 301.668,-1435.66"/>
<polygon fill="red" stroke="red" points="302.317,-1432.21 291.759,-1433.09 300.561,-1438.99 302.317,-1432.21"/>
</g>
<!-- 22 -->
<g id="node53" class="node"><title>22</title>
<ellipse fill="none" stroke="black" cx="652" cy="-1043.84" rx="18.2703" ry="18.2703"/>
<text text-anchor="middle" x="652" y="-1041.64" font-family="Times New Roman,serif" font-size="9.00">22</text>
</g>
<!-- 65&#45;&gt;22 -->
<g id="edge57" class="edge"><title>65&#45;&gt;22</title>
<path fill="none" stroke="green" d="M559.773,-1484.54C561.781,-1465.79 565.384,-1435.23 570,-1409.11 592.503,-1281.75 629.739,-1131.65 645.073,-1071.61"/>
<polygon fill="green" stroke="green" points="648.496,-1072.36 647.591,-1061.8 641.716,-1070.62 648.496,-1072.36"/>
</g>
<!-- 148 -->
<g id="node12" class="node"><title>148</title>
<ellipse fill="none" stroke="black" cx="1243" cy="-1895.22" rx="21.4286" ry="21.4286"/>
<text text-anchor="middle" x="1243" y="-1893.02" font-family="Times New Roman,serif" font-size="9.00">148</text>
</g>
<!-- 53&#45;&gt;148 -->
<g id="edge177" class="edge"><title>53&#45;&gt;148</title>
<path fill="none" stroke="green" d="M1210.7,-1954.21C1215.75,-1945.14 1222.26,-1933.46 1228.1,-1922.96"/>
<polygon fill="green" stroke="green" points="1231.21,-1924.58 1233.02,-1914.14 1225.1,-1921.17 1231.21,-1924.58"/>
</g>
<!-- 96 -->
<g id="node13" class="node"><title>96</title>
<ellipse fill="none" stroke="black" cx="1246" cy="-1816.8" rx="18.2703" ry="18.2703"/>
<text text-anchor="middle" x="1246" y="-1814.6" font-family="Times New Roman,serif" font-size="9.00">96</text>
</g>
<!-- 53&#45;&gt;96 -->
<g id="edge99" class="edge"><title>53&#45;&gt;96</title>
<path fill="none" stroke="red" d="M1201.86,-1952.39C1202.18,-1932.83 1204.19,-1900.37 1213,-1874.01 1216.9,-1862.34 1223.44,-1850.44 1229.67,-1840.62"/>
<polygon fill="red" stroke="red" points="1232.62,-1842.51 1235.23,-1832.24 1226.78,-1838.64 1232.62,-1842.51"/>
</g>
<!-- 64 -->
<g id="node19" class="node"><title>64</title>
<ellipse fill="none" stroke="black" cx="888" cy="-1738.37" rx="18.2703" ry="18.2703"/>
<text text-anchor="middle" x="888" y="-1736.17" font-family="Times New Roman,serif" font-size="9.00">64</text>
</g>
<!-- 53&#45;&gt;64 -->
<g id="edge52" class="edge"><title>53&#45;&gt;64</title>
<path fill="none" stroke="green" d="M1183.71,-1967.29C1151.65,-1962.16 1084.22,-1948.19 1037,-1916.43 975.534,-1875.09 925.318,-1801.46 902.03,-1763.49"/>
<polygon fill="green" stroke="green" points="904.859,-1761.4 896.699,-1754.64 898.864,-1765.01 904.859,-1761.4"/>
</g>
<!-- 54 -->
<g id="node27" class="node"><title>54</title>
<ellipse fill="none" stroke="black" cx="512" cy="-1738.37" rx="18.2703" ry="18.2703"/>
<text text-anchor="middle" x="512" y="-1736.17" font-family="Times New Roman,serif" font-size="9.00">54</text>
</g>
<!-- 53&#45;&gt;54 -->
<g id="edge65" class="edge"><title>53&#45;&gt;54</title>
<path fill="none" stroke="red" d="M1183.75,-1968.03C1091.02,-1958.66 672.358,-1912.75 569,-1838.01 544.538,-1820.32 528.984,-1788.66 520.411,-1765.98"/>
<polygon fill="red" stroke="red" points="523.606,-1764.52 516.956,-1756.27 517.011,-1766.87 523.606,-1764.52"/>
</g>
<!-- 148&#45;&gt;96 -->
<g id="edge178" class="edge"><title>148&#45;&gt;96</title>
<path fill="none" stroke="green" d="M1243.8,-1873.74C1244.15,-1865 1244.55,-1854.67 1244.92,-1845.29"/>
<polygon fill="green" stroke="green" points="1248.42,-1845.35 1245.32,-1835.22 1241.43,-1845.08 1248.42,-1845.35"/>
</g>
<!-- 137 -->
<g id="node16" class="node"><title>137</title>
<ellipse fill="none" stroke="black" cx="1517" cy="-1738.37" rx="21.4286" ry="21.4286"/>
<text text-anchor="middle" x="1517" y="-1736.17" font-family="Times New Roman,serif" font-size="9.00">137</text>
</g>
<!-- 96&#45;&gt;137 -->
<g id="edge185" class="edge"><title>96&#45;&gt;137</title>
<path fill="none" stroke="green" d="M1264.13,-1813.73C1305.08,-1808.61 1407.3,-1793.22 1486,-1759.58 1487.82,-1758.81 1489.64,-1757.92 1491.45,-1756.97"/>
<polygon fill="green" stroke="green" points="1493.37,-1759.91 1500.22,-1751.82 1489.82,-1753.87 1493.37,-1759.91"/>
</g>
<!-- 96&#45;&gt;64 -->
<g id="edge100" class="edge"><title>96&#45;&gt;64</title>
<path fill="none" stroke="green" d="M1228.25,-1812.01C1170.27,-1799.63 986.204,-1760.33 915.776,-1745.3"/>
<polygon fill="green" stroke="green" points="916.371,-1741.85 905.86,-1743.18 914.909,-1748.69 916.371,-1741.85"/>
</g>
<!-- 20&#45;&gt;5 -->
<g id="edge18" class="edge"><title>20&#45;&gt;5</title>
<path fill="none" stroke="green" d="M931.367,-2114.19C808.016,-2106.24 114,-2057.69 114,-1971.82 114,-1971.82 114,-1971.82 114,-1426.49 114,-1326.58 113,-1301.61 113,-1201.7 113,-1201.7 113,-1201.7 113,-146.983 113,-74.4936 178.332,-77.2247 247,-54 339.048,-22.8676 1056.63,-12.0095 1189.03,-10.2622"/>
<polygon fill="green" stroke="green" points="1189.44,-13.7574 1199.39,-10.1285 1189.35,-6.75794 1189.44,-13.7574"/>
</g>
<!-- 87 -->
<g id="node17" class="node"><title>87</title>
<ellipse fill="none" stroke="black" cx="1332" cy="-2043.59" rx="18.2703" ry="18.2703"/>
<text text-anchor="middle" x="1332" y="-2041.39" font-family="Times New Roman,serif" font-size="9.00">87</text>
</g>
<!-- 20&#45;&gt;87 -->
<g id="edge101" class="edge"><title>20&#45;&gt;87</title>
<path fill="none" stroke="red" d="M968.366,-2114.36C1020.57,-2111.14 1173.85,-2098.97 1295,-2061.97 1298.93,-2060.77 1302.98,-2059.22 1306.9,-2057.55"/>
<polygon fill="red" stroke="red" points="1308.59,-2060.62 1316.19,-2053.24 1305.64,-2054.27 1308.59,-2060.62"/>
</g>
<!-- 62 -->
<g id="node18" class="node"><title>62</title>
<ellipse fill="none" stroke="black" cx="1332" cy="-1970.82" rx="18.2703" ry="18.2703"/>
<text text-anchor="middle" x="1332" y="-1968.62" font-family="Times New Roman,serif" font-size="9.00">62</text>
</g>
<!-- 20&#45;&gt;62 -->
<g id="edge48" class="edge"><title>20&#45;&gt;62</title>
<path fill="none" stroke="green" d="M967.508,-2110.15C1019.36,-2094.5 1176.22,-2045.46 1300,-1989.2 1302.37,-1988.13 1304.8,-1986.95 1307.22,-1985.73"/>
<polygon fill="green" stroke="green" points="1309.07,-1988.71 1316.27,-1980.94 1305.8,-1982.52 1309.07,-1988.71"/>
</g>
<!-- 20&#45;&gt;54 -->
<g id="edge63" class="edge"><title>20&#45;&gt;54</title>
<path fill="none" stroke="red" d="M931.562,-2114.58C870.495,-2111.64 676.004,-2099.48 628,-2061.97 533.561,-1988.2 515.919,-1830.9 512.691,-1767.11"/>
<polygon fill="red" stroke="red" points="516.183,-1766.85 512.263,-1757.01 509.189,-1767.15 516.183,-1766.85"/>
</g>
<!-- 28 -->
<g id="node35" class="node"><title>28</title>
<ellipse fill="none" stroke="black" cx="399" cy="-1276.3" rx="18.2703" ry="18.2703"/>
<text text-anchor="middle" x="399" y="-1274.1" font-family="Times New Roman,serif" font-size="9.00">28</text>
</g>
<!-- 20&#45;&gt;28 -->
<g id="edge33" class="edge"><title>20&#45;&gt;28</title>
<path fill="none" stroke="green" d="M931.197,-2115.3C864.326,-2114.03 642,-2100.13 642,-1971.82 642,-1971.82 642,-1971.82 642,-1737.37 642,-1586.24 442.299,-1660.59 377,-1524.3 341.558,-1450.33 371.055,-1349.65 388.462,-1302.99"/>
<polygon fill="green" stroke="green" points="391.742,-1304.21 392.068,-1293.62 385.209,-1301.7 391.742,-1304.21"/>
</g>
<!-- 20&#45;&gt;24 -->
<g id="edge59" class="edge"><title>20&#45;&gt;24</title>
<path fill="none" stroke="green" d="M937.45,-2102.34C915.864,-2078.51 874,-2025.39 874,-1971.82 874,-1971.82 874,-1971.82 874,-1894.22 874,-1849.1 882.957,-1838.12 898,-1795.58 903.9,-1778.9 909.506,-1776.4 915,-1759.58 928.863,-1717.14 934,-1705.59 934,-1660.94 934,-1660.94 934,-1660.94 934,-1580.52 934,-1452.53 906.792,-1422.43 899,-1294.68 898.005,-1278.37 896.221,-1274.01 899,-1257.91 900.76,-1247.72 904.19,-1236.92 907.72,-1227.54"/>
<polygon fill="green" stroke="green" points="911.064,-1228.61 911.516,-1218.02 904.562,-1226.02 911.064,-1228.61"/>
</g>
<!-- 20&#45;&gt;15 -->
<g id="edge10" class="edge"><title>20&#45;&gt;15</title>
<path fill="none" stroke="green" d="M967.03,-2108.74C990.107,-2099.49 1032.3,-2081.63 1066,-2061.97 1090.14,-2047.9 1091.65,-2036.95 1117,-2025.2 1177.24,-1997.28 1208.55,-2028.6 1262,-1989.2 1422.12,-1871.19 1352,-1693.62 1352,-1428.49 1352,-1428.49 1352,-1428.49 1352,-1275.3 1352,-1230.54 1339.33,-1179.74 1330.46,-1149.66"/>
<polygon fill="green" stroke="green" points="1333.76,-1148.48 1327.5,-1139.93 1327.06,-1150.52 1333.76,-1148.48"/>
</g>
<!-- 20&#45;&gt;30 -->
<g id="edge60" class="edge"><title>20&#45;&gt;30</title>
<path fill="none" stroke="green" d="M962.611,-2102.39C982.628,-2082.59 1023.75,-2045.04 1066,-2025.2 1133.15,-1993.67 1168.71,-2032.44 1229,-1989.2 1259.71,-1967.18 1262.85,-1952.84 1273,-1916.43 1360.99,-1600.86 1272.29,-1506.74 1257,-1179.48 1246.71,-959.336 1241.22,-904.436 1232,-684.24 1231.12,-663.28 1230.34,-639.57 1229.8,-621.727"/>
<polygon fill="green" stroke="green" points="1233.29,-621.6 1229.5,-611.709 1226.3,-621.81 1233.29,-621.6"/>
</g>
<!-- 149 -->
<g id="node22" class="node"><title>149</title>
<ellipse fill="none" stroke="black" cx="1151" cy="-1503.09" rx="21.4286" ry="21.4286"/>
<text text-anchor="middle" x="1151" y="-1500.89" font-family="Times New Roman,serif" font-size="9.00">149</text>
</g>
<!-- 58&#45;&gt;149 -->
<g id="edge179" class="edge"><title>58&#45;&gt;149</title>
<path fill="none" stroke="green" d="M1216.95,-1567.9C1205.12,-1556.45 1187.43,-1539.33 1173.34,-1525.71"/>
<polygon fill="green" stroke="green" points="1175.57,-1522.99 1165.95,-1518.55 1170.71,-1528.02 1175.57,-1522.99"/>
</g>
<!-- 58&#45;&gt;52 -->
<g id="edge142" class="edge"><title>58&#45;&gt;52</title>
<path fill="none" stroke="green" d="M1213.21,-1573.39C1155.9,-1549.05 967.658,-1469.11 898.119,-1439.58"/>
<polygon fill="green" stroke="green" points="899.323,-1436.29 888.751,-1435.6 896.587,-1442.73 899.323,-1436.29"/>
</g>
<!-- 112 -->
<g id="node40" class="node"><title>112</title>
<ellipse fill="none" stroke="black" cx="1227" cy="-1200.7" rx="21.4286" ry="21.4286"/>
<text text-anchor="middle" x="1227" y="-1198.5" font-family="Times New Roman,serif" font-size="9.00">112</text>
</g>
<!-- 58&#45;&gt;112 -->
<g id="edge154" class="edge"><title>58&#45;&gt;112</title>
<path fill="none" stroke="red" d="M1231.54,-1562.74C1233.87,-1534.38 1238,-1477.12 1238,-1428.49 1238,-1428.49 1238,-1428.49 1238,-1350.89 1238,-1309.72 1233.78,-1262.33 1230.57,-1232.21"/>
<polygon fill="red" stroke="red" points="1234.01,-1231.49 1229.44,-1221.93 1227.05,-1232.26 1234.01,-1231.49"/>
</g>
<!-- 58&#45;&gt;15 -->
<g id="edge156" class="edge"><title>58&#45;&gt;15</title>
<path fill="none" stroke="red" d="M1236.68,-1564.02C1240.96,-1552.93 1246.38,-1537.92 1250,-1524.3 1286.67,-1386.33 1310.27,-1216.65 1318.62,-1151.01"/>
<polygon fill="red" stroke="red" points="1322.14,-1151.05 1319.91,-1140.69 1315.19,-1150.18 1322.14,-1151.05"/>
</g>
<!-- 87&#45;&gt;62 -->
<g id="edge102" class="edge"><title>87&#45;&gt;62</title>
<path fill="none" stroke="red" d="M1332,-2025.1C1332,-2017.41 1332,-2008.2 1332,-1999.62"/>
<polygon fill="red" stroke="red" points="1335.5,-1999.6 1332,-1989.6 1328.5,-1999.6 1335.5,-1999.6"/>
</g>
<!-- 87&#45;&gt;7 -->
<g id="edge148" class="edge"><title>87&#45;&gt;7</title>
<path fill="none" stroke="green" d="M1350.28,-2041.03C1403.32,-2036.18 1555.91,-2019.81 1594,-1989.2 1667.4,-1930.22 1635.21,-1878.41 1680,-1795.58 1739.22,-1686.08 1761.61,-1662.98 1832,-1560.3 1890.15,-1475.48 1913.37,-1460.23 1968,-1373.11 2008.5,-1308.52 2024.98,-1294.26 2049,-1221.91 2084.78,-1114.14 2087,-1082.8 2087,-969.247 2087,-969.247 2087,-969.247 2087,-891.649 2087,-843.825 2071.58,-832.081 2044,-793.009 2033.68,-778.391 2018.85,-764.658 2006.91,-754.781"/>
<polygon fill="green" stroke="green" points="2008.82,-751.829 1998.83,-748.314 2004.45,-757.295 2008.82,-751.829"/>
</g>
<!-- 59 -->
<g id="node21" class="node"><title>59</title>
<ellipse fill="none" stroke="black" cx="1064" cy="-1895.22" rx="18.2703" ry="18.2703"/>
<text text-anchor="middle" x="1064" y="-1893.02" font-family="Times New Roman,serif" font-size="9.00">59</text>
</g>
<!-- 62&#45;&gt;59 -->
<g id="edge49" class="edge"><title>62&#45;&gt;59</title>
<path fill="none" stroke="green" d="M1314.42,-1964.99C1268.8,-1952.46 1146.38,-1918.85 1091.4,-1903.75"/>
<polygon fill="green" stroke="green" points="1092.22,-1900.34 1081.65,-1901.07 1090.37,-1907.09 1092.22,-1900.34"/>
</g>
<!-- 62&#45;&gt;21 -->
<g id="edge51" class="edge"><title>62&#45;&gt;21</title>
<path fill="none" stroke="red" d="M1345.75,-1958.41C1372.3,-1935.01 1428,-1878.66 1428,-1817.8 1428,-1817.8 1428,-1817.8 1428,-1737.37 1428,-1632.32 1466,-1609.14 1466,-1504.09 1466,-1504.09 1466,-1504.09 1466,-1275.3 1466,-895.866 1376.64,-439.653 1352.79,-324.668"/>
<polygon fill="red" stroke="red" points="1356.16,-323.694 1350.69,-314.62 1349.31,-325.125 1356.16,-323.694"/>
</g>
<!-- 130 -->
<g id="node20" class="node"><title>130</title>
<ellipse fill="none" stroke="black" cx="786" cy="-1659.94" rx="21.4286" ry="21.4286"/>
<text text-anchor="middle" x="786" y="-1657.74" font-family="Times New Roman,serif" font-size="9.00">130</text>
</g>
<!-- 64&#45;&gt;130 -->
<g id="edge132" class="edge"><title>64&#45;&gt;130</title>
<path fill="none" stroke="green" d="M873.386,-1726.42C857.071,-1714.19 830.39,-1694.2 810.796,-1679.52"/>
<polygon fill="green" stroke="green" points="812.72,-1676.59 802.619,-1673.39 808.523,-1682.19 812.72,-1676.59"/>
</g>
<!-- 64&#45;&gt;52 -->
<g id="edge53" class="edge"><title>64&#45;&gt;52</title>
<path fill="none" stroke="red" d="M887.094,-1719.88C884.443,-1668.71 876.689,-1519 873.449,-1456.46"/>
<polygon fill="red" stroke="red" points="876.929,-1455.98 872.916,-1446.17 869.938,-1456.34 876.929,-1455.98"/>
</g>
<!-- 70 -->
<g id="node37" class="node"><title>70</title>
<ellipse fill="none" stroke="black" cx="720" cy="-1276.3" rx="18.2703" ry="18.2703"/>
<text text-anchor="middle" x="720" y="-1274.1" font-family="Times New Roman,serif" font-size="9.00">70</text>
</g>
<!-- 64&#45;&gt;70 -->
<g id="edge198" class="edge"><title>64&#45;&gt;70</title>
<path fill="none" stroke="green" d="M879.313,-1722.05C860.088,-1687.64 813.399,-1601.19 785,-1524.3 756.269,-1446.51 734.828,-1350.56 725.358,-1304.5"/>
<polygon fill="green" stroke="green" points="728.731,-1303.52 723.314,-1294.41 721.871,-1304.91 728.731,-1303.52"/>
</g>
<!-- 140 -->
<g id="node23" class="node"><title>140</title>
<ellipse fill="none" stroke="black" cx="767" cy="-1581.52" rx="21.4286" ry="21.4286"/>
<text text-anchor="middle" x="767" y="-1579.32" font-family="Times New Roman,serif" font-size="9.00">140</text>
</g>
<!-- 130&#45;&gt;140 -->
<g id="edge146" class="edge"><title>130&#45;&gt;140</title>
<path fill="none" stroke="red" d="M781.107,-1639.26C779.062,-1631.03 776.641,-1621.3 774.387,-1612.23"/>
<polygon fill="red" stroke="red" points="777.752,-1611.26 771.942,-1602.4 770.959,-1612.95 777.752,-1611.26"/>
</g>
<!-- 81 -->
<g id="node25" class="node"><title>81</title>
<ellipse fill="none" stroke="black" cx="596" cy="-1816.8" rx="18.2703" ry="18.2703"/>
<text text-anchor="middle" x="596" y="-1814.6" font-family="Times New Roman,serif" font-size="9.00">81</text>
</g>
<!-- 59&#45;&gt;81 -->
<g id="edge123" class="edge"><title>59&#45;&gt;81</title>
<path fill="none" stroke="red" d="M1045.98,-1890.31C1026,-1886.03 992.776,-1879.11 964,-1874.01 837.931,-1851.65 686.605,-1830.23 624.607,-1821.69"/>
<polygon fill="red" stroke="red" points="624.814,-1818.19 614.431,-1820.29 623.862,-1825.12 624.814,-1818.19"/>
</g>
<!-- 59&#45;&gt;54 -->
<g id="edge44" class="edge"><title>59&#45;&gt;54</title>
<path fill="none" stroke="red" d="M1046.57,-1889.33C966.823,-1866.96 636.5,-1774.29 539.129,-1746.98"/>
<polygon fill="red" stroke="red" points="540.01,-1743.59 529.436,-1744.26 538.119,-1750.33 540.01,-1743.59"/>
</g>
<!-- 61 -->
<g id="node36" class="node"><title>61</title>
<ellipse fill="none" stroke="black" cx="964" cy="-1351.89" rx="18.2703" ry="18.2703"/>
<text text-anchor="middle" x="964" y="-1349.69" font-family="Times New Roman,serif" font-size="9.00">61</text>
</g>
<!-- 59&#45;&gt;61 -->
<g id="edge50" class="edge"><title>59&#45;&gt;61</title>
<path fill="none" stroke="red" d="M1057.21,-1877.82C1046.28,-1849.9 1026,-1791.13 1026,-1739.37 1026,-1739.37 1026,-1739.37 1026,-1580.52 1026,-1504.65 993.542,-1419.41 975.596,-1378.07"/>
<polygon fill="red" stroke="red" points="978.727,-1376.5 971.479,-1368.77 972.326,-1379.33 978.727,-1376.5"/>
</g>
<!-- 170 -->
<g id="node44" class="node"><title>170</title>
<ellipse fill="none" stroke="black" cx="1113" cy="-1816.8" rx="21.4286" ry="21.4286"/>
<text text-anchor="middle" x="1113" y="-1814.6" font-family="Times New Roman,serif" font-size="9.00">170</text>
</g>
<!-- 59&#45;&gt;170 -->
<g id="edge167" class="edge"><title>59&#45;&gt;170</title>
<path fill="none" stroke="red" d="M1073.68,-1879.12C1080.17,-1869 1088.88,-1855.41 1096.46,-1843.6"/>
<polygon fill="red" stroke="red" points="1099.52,-1845.3 1101.97,-1835 1093.63,-1841.53 1099.52,-1845.3"/>
</g>
<!-- 59&#45;&gt;125 -->
<g id="edge172" class="edge"><title>59&#45;&gt;125</title>
<path fill="none" stroke="green" d="M1065.53,-1876.57C1069.95,-1825.56 1082.77,-1677.49 1088.35,-1613.06"/>
<polygon fill="green" stroke="green" points="1091.87,-1613.02 1089.25,-1602.76 1084.9,-1612.42 1091.87,-1613.02"/>
</g>
<!-- 19 -->
<g id="node69" class="node"><title>19</title>
<ellipse fill="none" stroke="black" cx="1153" cy="-369.12" rx="18.2703" ry="18.2703"/>
<text text-anchor="middle" x="1153" y="-366.92" font-family="Times New Roman,serif" font-size="9.00">19</text>
</g>
<!-- 59&#45;&gt;19 -->
<g id="edge109" class="edge"><title>59&#45;&gt;19</title>
<path fill="none" stroke="red" d="M1080.72,-1887.28C1099.24,-1878.64 1128.42,-1862.04 1143,-1838.01 1190.66,-1759.45 1200,-1520.37 1200,-1428.49 1200,-1428.49 1200,-1428.49 1200,-1350.89 1200,-1069.95 1039,-1020.57 1039,-739.624 1039,-739.624 1039,-739.624 1039,-516.487 1039,-458.24 1095.89,-409.247 1129.29,-385.499"/>
<polygon fill="red" stroke="red" points="1131.38,-388.308 1137.63,-379.749 1127.41,-382.546 1131.38,-388.308"/>
</g>
<!-- 149&#45;&gt;52 -->
<g id="edge180" class="edge"><title>149&#45;&gt;52</title>
<path fill="none" stroke="green" d="M1133.72,-1490.7C1128.23,-1487.47 1122.02,-1484.21 1116,-1481.88 1041.13,-1452.88 946.923,-1437.9 900.515,-1431.83"/>
<polygon fill="green" stroke="green" points="900.67,-1428.32 890.31,-1430.54 899.792,-1435.27 900.67,-1428.32"/>
</g>
<!-- 82 -->
<g id="node24" class="node"><title>82</title>
<ellipse fill="none" stroke="black" cx="812" cy="-1503.09" rx="18.2703" ry="18.2703"/>
<text text-anchor="middle" x="812" y="-1500.89" font-family="Times New Roman,serif" font-size="9.00">82</text>
</g>
<!-- 140&#45;&gt;82 -->
<g id="edge147" class="edge"><title>140&#45;&gt;82</title>
<path fill="none" stroke="green" d="M777.437,-1562.79C783.482,-1552.52 791.176,-1539.46 797.769,-1528.26"/>
<polygon fill="green" stroke="green" points="800.93,-1529.79 802.988,-1519.39 794.898,-1526.24 800.93,-1529.79"/>
</g>
<!-- 89 -->
<g id="node33" class="node"><title>89</title>
<ellipse fill="none" stroke="black" cx="497" cy="-1427.49" rx="18.2703" ry="18.2703"/>
<text text-anchor="middle" x="497" y="-1425.29" font-family="Times New Roman,serif" font-size="9.00">89</text>
</g>
<!-- 140&#45;&gt;89 -->
<g id="edge183" class="edge"><title>140&#45;&gt;89</title>
<path fill="none" stroke="red" d="M745.7,-1578.05C693.847,-1571.66 562.961,-1553.01 531,-1524.3 511.591,-1506.87 503.26,-1477.63 499.685,-1456.02"/>
<polygon fill="red" stroke="red" points="503.15,-1455.53 498.285,-1446.12 496.219,-1456.51 503.15,-1455.53"/>
</g>
<!-- 82&#45;&gt;52 -->
<g id="edge117" class="edge"><title>82&#45;&gt;52</title>
<path fill="none" stroke="red" d="M823.286,-1488.25C832.001,-1477.56 844.226,-1462.56 854.248,-1450.27"/>
<polygon fill="red" stroke="red" points="857.159,-1452.24 860.765,-1442.27 851.734,-1447.81 857.159,-1452.24"/>
</g>
<!-- 81&#45;&gt;54 -->
<g id="edge124" class="edge"><title>81&#45;&gt;54</title>
<path fill="none" stroke="green" d="M582.875,-1803.85C569.515,-1791.7 548.601,-1772.67 532.948,-1758.43"/>
<polygon fill="green" stroke="green" points="535.062,-1755.62 525.31,-1751.48 530.351,-1760.8 535.062,-1755.62"/>
</g>
<!-- 81&#45;&gt;69 -->
<g id="edge182" class="edge"><title>81&#45;&gt;69</title>
<path fill="none" stroke="red" d="M597.505,-1798.16C599.822,-1769.44 604,-1710.74 604,-1660.94 604,-1660.94 604,-1660.94 604,-1580.52 604,-1535.52 618.362,-1484.79 628.417,-1454.8"/>
<polygon fill="red" stroke="red" points="631.812,-1455.69 631.764,-1445.09 625.195,-1453.4 631.812,-1455.69"/>
</g>
<!-- 79 -->
<g id="node79" class="node"><title>79</title>
<ellipse fill="none" stroke="black" cx="311" cy="-593.085" rx="18.2703" ry="18.2703"/>
<text text-anchor="middle" x="311" y="-590.885" font-family="Times New Roman,serif" font-size="9.00">79</text>
</g>
<!-- 81&#45;&gt;79 -->
<g id="edge191" class="edge"><title>81&#45;&gt;79</title>
<path fill="none" stroke="red" d="M577.767,-1813.54C494.218,-1802.69 152,-1752.68 152,-1660.94 152,-1660.94 152,-1660.94 152,-1426.49 152,-1325.24 189,-1302.95 189,-1201.7 189,-1201.7 189,-1201.7 189,-1121.27 189,-924.327 270.814,-696.406 300.446,-620.315"/>
<polygon fill="red" stroke="red" points="303.862,-621.192 304.267,-610.604 297.348,-618.628 303.862,-621.192"/>
</g>
<!-- 52&#45;&gt;61 -->
<g id="edge45" class="edge"><title>52&#45;&gt;61</title>
<path fill="none" stroke="red" d="M885.973,-1415.31C900.833,-1403.43 924.546,-1384.46 941.934,-1370.55"/>
<polygon fill="red" stroke="red" points="944.273,-1373.16 949.896,-1364.18 939.9,-1367.69 944.273,-1373.16"/>
</g>
<!-- 52&#45;&gt;15 -->
<g id="edge162" class="edge"><title>52&#45;&gt;15</title>
<path fill="none" stroke="green" d="M889.476,-1420.73C913.532,-1412.35 957.654,-1395.34 991,-1373.11 1095.54,-1303.4 1092.49,-1249.24 1197,-1179.48 1228.28,-1158.61 1268.57,-1142.09 1294.83,-1132.5"/>
<polygon fill="green" stroke="green" points="1296.25,-1135.71 1304.49,-1129.05 1293.9,-1129.11 1296.25,-1135.71"/>
</g>
<!-- 134 -->
<g id="node45" class="node"><title>134</title>
<ellipse fill="none" stroke="black" cx="858" cy="-1200.7" rx="21.4286" ry="21.4286"/>
<text text-anchor="middle" x="858" y="-1198.5" font-family="Times New Roman,serif" font-size="9.00">134</text>
</g>
<!-- 52&#45;&gt;134 -->
<g id="edge152" class="edge"><title>52&#45;&gt;134</title>
<path fill="none" stroke="red" d="M870.901,-1408.85C868.522,-1370.65 862.869,-1279.88 859.898,-1232.18"/>
<polygon fill="red" stroke="red" points="863.388,-1231.9 859.273,-1222.14 856.401,-1232.33 863.388,-1231.9"/>
</g>
<!-- 86 -->
<g id="node52" class="node"><title>86</title>
<ellipse fill="none" stroke="black" cx="759" cy="-968.247" rx="18.2703" ry="18.2703"/>
<text text-anchor="middle" x="759" y="-966.047" font-family="Times New Roman,serif" font-size="9.00">86</text>
</g>
<!-- 52&#45;&gt;86 -->
<g id="edge87" class="edge"><title>52&#45;&gt;86</title>
<path fill="none" stroke="red" d="M859.853,-1413.57C850.447,-1403.16 837.466,-1387.87 828,-1373.11 807.09,-1340.5 800.446,-1331.98 790,-1294.68 760.018,-1187.63 757.768,-1053.88 758.365,-996.953"/>
<polygon fill="red" stroke="red" points="761.865,-996.981 758.509,-986.932 754.866,-996.88 761.865,-996.981"/>
</g>
<!-- 51 -->
<g id="node57" class="node"><title>51</title>
<ellipse fill="none" stroke="black" cx="661" cy="-814.222" rx="18.2703" ry="18.2703"/>
<text text-anchor="middle" x="661" y="-812.022" font-family="Times New Roman,serif" font-size="9.00">51</text>
</g>
<!-- 52&#45;&gt;51 -->
<g id="edge174" class="edge"><title>52&#45;&gt;51</title>
<path fill="none" stroke="green" d="M865.697,-1410.01C849.018,-1364.87 805,-1235.14 805,-1123.27 805,-1123.27 805,-1123.27 805,-1042.84 805,-961.68 796.59,-931.499 742,-871.436 725.972,-853.801 703.422,-838.722 686.183,-828.634"/>
<polygon fill="green" stroke="green" points="687.653,-825.444 677.228,-823.559 684.202,-831.534 687.653,-825.444"/>
</g>
<!-- 47 -->
<g id="node68" class="node"><title>47</title>
<ellipse fill="none" stroke="black" cx="1191" cy="-441.889" rx="18.2703" ry="18.2703"/>
<text text-anchor="middle" x="1191" y="-439.689" font-family="Times New Roman,serif" font-size="9.00">47</text>
</g>
<!-- 52&#45;&gt;47 -->
<g id="edge111" class="edge"><title>52&#45;&gt;47</title>
<path fill="none" stroke="green" d="M890.165,-1423.3C916.287,-1417.76 964.252,-1403.86 991,-1373.11 1073.63,-1278.11 1027.83,-1219.69 1070,-1101.06 1116.2,-971.074 1191,-953.174 1191,-815.222 1191,-815.222 1191,-815.222 1191,-737.624 1191,-674.551 1237.81,-671.862 1256,-611.47 1270.8,-562.33 1287.23,-542.038 1264,-496.274 1258.66,-485.759 1234.46,-469.204 1215.36,-457.317"/>
<polygon fill="green" stroke="green" points="1217.13,-454.294 1206.77,-452.063 1213.47,-460.266 1217.13,-454.294"/>
</g>
<!-- 71 -->
<g id="node29" class="node"><title>71</title>
<ellipse fill="none" stroke="black" cx="385" cy="-1659.94" rx="18.2703" ry="18.2703"/>
<text text-anchor="middle" x="385" y="-1657.74" font-family="Times New Roman,serif" font-size="9.00">71</text>
</g>
<!-- 54&#45;&gt;71 -->
<g id="edge104" class="edge"><title>54&#45;&gt;71</title>
<path fill="none" stroke="red" d="M496.427,-1728C474.601,-1714.86 434.712,-1690.86 409.053,-1675.42"/>
<polygon fill="red" stroke="red" points="410.676,-1672.31 400.303,-1670.15 407.067,-1678.31 410.676,-1672.31"/>
</g>
<!-- 55 -->
<g id="node30" class="node"><title>55</title>
<ellipse fill="none" stroke="black" cx="325" cy="-1581.52" rx="18.2703" ry="18.2703"/>
<text text-anchor="middle" x="325" y="-1579.32" font-family="Times New Roman,serif" font-size="9.00">55</text>
</g>
<!-- 54&#45;&gt;55 -->
<g id="edge108" class="edge"><title>54&#45;&gt;55</title>
<path fill="none" stroke="green" d="M493.585,-1735.75C461.577,-1731.97 395.517,-1719.71 358,-1681.16 339.384,-1662.03 331.264,-1632.1 327.725,-1610.23"/>
<polygon fill="green" stroke="green" points="331.177,-1609.64 326.33,-1600.22 324.244,-1610.6 331.177,-1609.64"/>
</g>
<!-- 54&#45;&gt;28 -->
<g id="edge64" class="edge"><title>54&#45;&gt;28</title>
<path fill="none" stroke="red" d="M507.844,-1720.45C490.852,-1651.27 426.57,-1389.55 405.635,-1304.31"/>
<polygon fill="red" stroke="red" points="408.978,-1303.25 403.194,-1294.37 402.18,-1304.92 408.978,-1303.25"/>
</g>
<!-- 107 -->
<g id="node47" class="node"><title>107</title>
<ellipse fill="none" stroke="black" cx="239" cy="-1200.7" rx="21.4286" ry="21.4286"/>
<text text-anchor="middle" x="239" y="-1198.5" font-family="Times New Roman,serif" font-size="9.00">107</text>
</g>
<!-- 54&#45;&gt;107 -->
<g id="edge97" class="edge"><title>54&#45;&gt;107</title>
<path fill="none" stroke="green" d="M493.296,-1737.1C424.573,-1735.03 190,-1718.05 190,-1582.52 190,-1582.52 190,-1582.52 190,-1426.49 190,-1354.72 214.14,-1272.95 228.533,-1230.58"/>
<polygon fill="green" stroke="green" points="231.909,-1231.53 231.875,-1220.93 225.295,-1229.24 231.909,-1231.53"/>
</g>
<!-- 13 -->
<g id="node60" class="node"><title>13</title>
<ellipse fill="none" stroke="black" cx="736" cy="-665.855" rx="18.2703" ry="18.2703"/>
<text text-anchor="middle" x="736" y="-663.655" font-family="Times New Roman,serif" font-size="9.00">13</text>
</g>
<!-- 54&#45;&gt;13 -->
<g id="edge112" class="edge"><title>54&#45;&gt;13</title>
<path fill="none" stroke="green" d="M529.456,-1732.05C576.279,-1717.19 707.188,-1671.76 797,-1602.73 902.927,-1521.31 945.094,-1498.57 991,-1373.11 1089.84,-1102.98 828.851,-773.827 754.895,-688.081"/>
<polygon fill="green" stroke="green" points="757.357,-685.578 748.15,-680.336 752.078,-690.175 757.357,-685.578"/>
</g>
<!-- 69&#45;&gt;5 -->
<g id="edge80" class="edge"><title>69&#45;&gt;5</title>
<path fill="none" stroke="red" d="M631.255,-1410.36C623.113,-1391.16 608.79,-1358.23 595,-1330.68 444.026,-1029.01 227,-1004.19 227,-666.855 227,-666.855 227,-666.855 227,-146.983 227,-87.5836 268.512,-77.6498 323,-54 404.777,-18.5056 1062.76,-11.2324 1189.07,-10.1587"/>
<polygon fill="red" stroke="red" points="1189.34,-13.6567 1199.31,-10.0756 1189.29,-6.65695 1189.34,-13.6567"/>
</g>
<!-- 129 -->
<g id="node32" class="node"><title>129</title>
<ellipse fill="none" stroke="black" cx="679" cy="-1351.89" rx="21.4286" ry="21.4286"/>
<text text-anchor="middle" x="679" y="-1349.69" font-family="Times New Roman,serif" font-size="9.00">129</text>
</g>
<!-- 69&#45;&gt;129 -->
<g id="edge143" class="edge"><title>69&#45;&gt;129</title>
<path fill="none" stroke="red" d="M646.695,-1410.88C651.749,-1401.81 658.256,-1390.13 664.103,-1379.63"/>
<polygon fill="red" stroke="red" points="667.21,-1381.25 669.019,-1370.81 661.095,-1377.84 667.21,-1381.25"/>
</g>
<!-- 151 -->
<g id="node34" class="node"><title>151</title>
<ellipse fill="none" stroke="black" cx="505" cy="-1351.89" rx="21.4286" ry="21.4286"/>
<text text-anchor="middle" x="505" y="-1349.69" font-family="Times New Roman,serif" font-size="9.00">151</text>
</g>
<!-- 69&#45;&gt;151 -->
<g id="edge197" class="edge"><title>69&#45;&gt;151</title>
<path fill="none" stroke="green" d="M622.221,-1417.76C600.062,-1405.5 559.405,-1383 532.285,-1367.99"/>
<polygon fill="green" stroke="green" points="533.754,-1364.81 523.31,-1363.03 530.365,-1370.93 533.754,-1364.81"/>
</g>
<!-- 69&#45;&gt;61 -->
<g id="edge184" class="edge"><title>69&#45;&gt;61</title>
<path fill="none" stroke="green" d="M655.992,-1422.43C709.982,-1410.24 870.898,-1373.91 936.1,-1359.19"/>
<polygon fill="green" stroke="green" points="937.08,-1362.56 946.064,-1356.94 935.539,-1355.73 937.08,-1362.56"/>
</g>
<!-- 69&#45;&gt;70 -->
<g id="edge72" class="edge"><title>69&#45;&gt;70</title>
<path fill="none" stroke="green" d="M654.665,-1418.95C671.448,-1410.41 696.582,-1394.79 709,-1373.11 720.851,-1352.42 722.921,-1325.1 722.425,-1304.93"/>
<polygon fill="green" stroke="green" points="725.916,-1304.65 721.95,-1294.82 718.923,-1304.98 725.916,-1304.65"/>
</g>
<!-- 71&#45;&gt;55 -->
<g id="edge105" class="edge"><title>71&#45;&gt;55</title>
<path fill="none" stroke="red" d="M373.995,-1644.92C365.114,-1633.61 352.461,-1617.5 342.238,-1604.47"/>
<polygon fill="red" stroke="red" points="344.863,-1602.15 335.935,-1596.44 339.357,-1606.47 344.863,-1602.15"/>
</g>
<!-- 88 -->
<g id="node31" class="node"><title>88</title>
<ellipse fill="none" stroke="black" cx="404" cy="-1503.09" rx="18.2703" ry="18.2703"/>
<text text-anchor="middle" x="404" y="-1500.89" font-family="Times New Roman,serif" font-size="9.00">88</text>
</g>
<!-- 55&#45;&gt;88 -->
<g id="edge88" class="edge"><title>55&#45;&gt;88</title>
<path fill="none" stroke="green" d="M338.045,-1567.9C350.47,-1555.88 369.356,-1537.6 383.74,-1523.69"/>
<polygon fill="green" stroke="green" points="386.444,-1525.94 391.197,-1516.47 381.577,-1520.91 386.444,-1525.94"/>
</g>
<!-- 55&#45;&gt;28 -->
<g id="edge43" class="edge"><title>55&#45;&gt;28</title>
<path fill="none" stroke="green" d="M320.37,-1563.55C309.845,-1521.39 288,-1409.61 328,-1330.68 337.499,-1311.94 357,-1298.02 373.165,-1289.11"/>
<polygon fill="green" stroke="green" points="374.922,-1292.14 382.197,-1284.44 371.706,-1285.92 374.922,-1292.14"/>
</g>
<!-- 55&#45;&gt;75 -->
<g id="edge83" class="edge"><title>55&#45;&gt;75</title>
<path fill="none" stroke="green" d="M319.331,-1563.8C315.546,-1552.62 310.462,-1537.58 306,-1524.3 298.093,-1500.77 289.146,-1473.97 282.727,-1454.71"/>
<polygon fill="green" stroke="green" points="286.013,-1453.5 279.532,-1445.11 279.372,-1455.71 286.013,-1453.5"/>
</g>
<!-- 55&#45;&gt;51 -->
<g id="edge54" class="edge"><title>55&#45;&gt;51</title>
<path fill="none" stroke="green" d="M312.523,-1567.81C286.952,-1540.2 232.195,-1472.13 247,-1409.11 282.603,-1257.55 187.142,-1213.95 549,-871.436 573.471,-848.273 609.325,-832.562 633.833,-823.764"/>
<polygon fill="green" stroke="green" points="635.256,-826.976 643.575,-820.415 632.981,-820.356 635.256,-826.976"/>
</g>
<!-- 88&#45;&gt;89 -->
<g id="edge128" class="edge"><title>88&#45;&gt;89</title>
<path fill="none" stroke="red" d="M418.125,-1490.91C433.234,-1478.95 457.396,-1459.83 475,-1445.9"/>
<polygon fill="red" stroke="red" points="477.377,-1448.48 483.047,-1439.53 473.034,-1442.99 477.377,-1448.48"/>
</g>
<!-- 88&#45;&gt;28 -->
<g id="edge89" class="edge"><title>88&#45;&gt;28</title>
<path fill="none" stroke="red" d="M403.608,-1484.45C402.741,-1445.47 400.656,-1351.73 399.614,-1304.9"/>
<polygon fill="red" stroke="red" points="403.112,-1304.77 399.391,-1294.85 396.114,-1304.93 403.112,-1304.77"/>
</g>
<!-- 129&#45;&gt;70 -->
<g id="edge144" class="edge"><title>129&#45;&gt;70</title>
<path fill="none" stroke="green" d="M688.925,-1333.08C694.151,-1323.7 700.639,-1312.05 706.333,-1301.83"/>
<polygon fill="green" stroke="green" points="709.471,-1303.39 711.28,-1292.95 703.356,-1299.98 709.471,-1303.39"/>
</g>
<!-- 89&#45;&gt;151 -->
<g id="edge165" class="edge"><title>89&#45;&gt;151</title>
<path fill="none" stroke="green" d="M498.896,-1409.05C499.739,-1401.29 500.757,-1391.92 501.718,-1383.08"/>
<polygon fill="green" stroke="green" points="505.205,-1383.4 502.806,-1373.08 498.246,-1382.64 505.205,-1383.4"/>
</g>
<!-- 89&#45;&gt;28 -->
<g id="edge129" class="edge"><title>89&#45;&gt;28</title>
<path fill="none" stroke="green" d="M487.245,-1411.64C470.148,-1385.61 434.655,-1331.58 414.276,-1300.55"/>
<polygon fill="green" stroke="green" points="417.131,-1298.52 408.715,-1292.09 411.28,-1302.37 417.131,-1298.52"/>
</g>
<!-- 151&#45;&gt;28 -->
<g id="edge166" class="edge"><title>151&#45;&gt;28</title>
<path fill="none" stroke="red" d="M487.969,-1339.07C470.207,-1326.74 442.238,-1307.32 422.406,-1293.55"/>
<polygon fill="red" stroke="red" points="424.143,-1290.49 413.933,-1287.66 420.151,-1296.24 424.143,-1290.49"/>
</g>
<!-- 28&#45;&gt;24 -->
<g id="edge34" class="edge"><title>28&#45;&gt;24</title>
<path fill="none" stroke="green" d="M417.204,-1273.55C503.177,-1265.26 865.332,-1230.01 888,-1221.91 890.779,-1220.92 893.559,-1219.63 896.25,-1218.19"/>
<polygon fill="green" stroke="green" points="898.227,-1221.08 904.926,-1212.87 894.571,-1215.11 898.227,-1221.08"/>
</g>
<!-- 28&#45;&gt;13 -->
<g id="edge77" class="edge"><title>28&#45;&gt;13</title>
<path fill="none" stroke="red" d="M392.764,-1258.7C382.948,-1231.03 365,-1173.58 365,-1123.27 365,-1123.27 365,-1123.27 365,-813.222 365,-761.227 391.601,-747.301 436,-720.24 481.571,-692.464 641.664,-675.309 707.449,-669.288"/>
<polygon fill="red" stroke="red" points="707.875,-672.764 717.523,-668.386 707.251,-665.791 707.875,-672.764"/>
</g>
<!-- 67 -->
<g id="node38" class="node"><title>67</title>
<ellipse fill="none" stroke="black" cx="926" cy="-1276.3" rx="18.2703" ry="18.2703"/>
<text text-anchor="middle" x="926" y="-1274.1" font-family="Times New Roman,serif" font-size="9.00">67</text>
</g>
<!-- 61&#45;&gt;67 -->
<g id="edge74" class="edge"><title>61&#45;&gt;67</title>
<path fill="none" stroke="green" d="M955.941,-1335.29C950.953,-1325.63 944.44,-1313.01 938.762,-1302.01"/>
<polygon fill="green" stroke="green" points="941.745,-1300.16 934.047,-1292.88 935.525,-1303.37 941.745,-1300.16"/>
</g>
<!-- 61&#45;&gt;24 -->
<g id="edge46" class="edge"><title>61&#45;&gt;24</title>
<path fill="none" stroke="green" d="M964.115,-1333.27C963.739,-1314.19 961.66,-1283.12 953,-1257.91 948.915,-1246.02 942.043,-1233.94 935.541,-1224.05"/>
<polygon fill="green" stroke="green" points="938.313,-1221.9 929.765,-1215.64 932.544,-1225.87 938.313,-1221.9"/>
</g>
<!-- 70&#45;&gt;24 -->
<g id="edge73" class="edge"><title>70&#45;&gt;24</title>
<path fill="none" stroke="green" d="M737.759,-1271.33C769.073,-1263.98 835.736,-1246.69 888,-1221.91 890.667,-1220.65 893.375,-1219.18 896.023,-1217.64"/>
<polygon fill="green" stroke="green" points="898.051,-1220.5 904.652,-1212.21 894.324,-1214.57 898.051,-1220.5"/>
</g>
<!-- 67&#45;&gt;24 -->
<g id="edge135" class="edge"><title>67&#45;&gt;24</title>
<path fill="none" stroke="red" d="M924.341,-1257.85C923.522,-1249.24 922.514,-1238.64 921.595,-1228.99"/>
<polygon fill="red" stroke="red" points="925.078,-1228.64 920.647,-1219.01 918.11,-1229.3 925.078,-1228.64"/>
</g>
<!-- 24&#45;&gt;15 -->
<g id="edge31" class="edge"><title>24&#45;&gt;15</title>
<path fill="none" stroke="green" d="M937.099,-1196.27C1001.02,-1184.14 1216.5,-1143.28 1293.97,-1128.59"/>
<polygon fill="green" stroke="green" points="1294.78,-1132 1303.95,-1126.69 1293.47,-1125.12 1294.78,-1132"/>
</g>
<!-- 24&#45;&gt;56 -->
<g id="edge190" class="edge"><title>24&#45;&gt;56</title>
<path fill="none" stroke="red" d="M926.261,-1183.46C945.203,-1142.07 999.107,-1030.18 1063,-949.862 1153.79,-835.738 1290.86,-725.304 1344.42,-683.956"/>
<polygon fill="red" stroke="red" points="1346.77,-686.568 1352.57,-677.704 1342.51,-681.015 1346.77,-686.568"/>
</g>
<!-- 136 -->
<g id="node43" class="node"><title>136</title>
<ellipse fill="none" stroke="black" cx="1100" cy="-1122.27" rx="21.4286" ry="21.4286"/>
<text text-anchor="middle" x="1100" y="-1120.07" font-family="Times New Roman,serif" font-size="9.00">136</text>
</g>
<!-- 24&#45;&gt;136 -->
<g id="edge188" class="edge"><title>24&#45;&gt;136</title>
<path fill="none" stroke="red" d="M935.704,-1192.64C966.553,-1179.62 1032.8,-1151.65 1071.08,-1135.48"/>
<polygon fill="red" stroke="red" points="1072.78,-1138.56 1080.63,-1131.45 1070.06,-1132.12 1072.78,-1138.56"/>
</g>
<!-- 104 -->
<g id="node50" class="node"><title>104</title>
<ellipse fill="none" stroke="black" cx="414" cy="-814.222" rx="21.4286" ry="21.4286"/>
<text text-anchor="middle" x="414" y="-812.022" font-family="Times New Roman,serif" font-size="9.00">104</text>
</g>
<!-- 24&#45;&gt;104 -->
<g id="edge163" class="edge"><title>24&#45;&gt;104</title>
<path fill="none" stroke="red" d="M904.933,-1188.51C899.869,-1185.04 893.935,-1181.59 888,-1179.48 814.928,-1153.59 602.878,-1190.19 541,-1143.48 443.978,-1070.25 421.054,-912.623 415.655,-845.976"/>
<polygon fill="red" stroke="red" points="419.126,-845.44 414.907,-835.722 412.144,-845.95 419.126,-845.44"/>
</g>
<!-- 74 -->
<g id="node51" class="node"><title>74</title>
<ellipse fill="none" stroke="black" cx="1199" cy="-1043.84" rx="18.2703" ry="18.2703"/>
<text text-anchor="middle" x="1199" y="-1041.64" font-family="Times New Roman,serif" font-size="9.00">74</text>
</g>
<!-- 24&#45;&gt;74 -->
<g id="edge75" class="edge"><title>24&#45;&gt;74</title>
<path fill="none" stroke="green" d="M937.408,-1198.96C976.376,-1196.56 1068.65,-1186.4 1130,-1143.48 1156.52,-1124.93 1176.21,-1092.73 1187.62,-1070.18"/>
<polygon fill="green" stroke="green" points="1190.78,-1071.69 1192,-1061.17 1184.48,-1068.63 1190.78,-1071.69"/>
</g>
<!-- 24&#45;&gt;22 -->
<g id="edge145" class="edge"><title>24&#45;&gt;22</title>
<path fill="none" stroke="green" d="M904.723,-1189.03C899.642,-1185.61 893.751,-1182.05 888,-1179.48 831.28,-1154.21 806.978,-1174.18 753,-1143.48 718.617,-1123.93 687.446,-1089.83 669.101,-1067.29"/>
<polygon fill="green" stroke="green" points="671.686,-1064.92 662.719,-1059.28 666.21,-1069.28 671.686,-1064.92"/>
</g>
<!-- 106 -->
<g id="node54" class="node"><title>106</title>
<ellipse fill="none" stroke="black" cx="686" cy="-892.649" rx="21.4286" ry="21.4286"/>
<text text-anchor="middle" x="686" y="-890.449" font-family="Times New Roman,serif" font-size="9.00">106</text>
</g>
<!-- 24&#45;&gt;106 -->
<g id="edge106" class="edge"><title>24&#45;&gt;106</title>
<path fill="none" stroke="red" d="M905.901,-1187.22C873.436,-1155.83 787.849,-1070.07 732,-986.632 718.265,-966.112 706.048,-940.902 697.662,-921.911"/>
<polygon fill="red" stroke="red" points="700.82,-920.394 693.639,-912.604 694.395,-923.172 700.82,-920.394"/>
</g>
<!-- 78 -->
<g id="node59" class="node"><title>78</title>
<ellipse fill="none" stroke="black" cx="463" cy="-738.624" rx="18.2703" ry="18.2703"/>
<text text-anchor="middle" x="463" y="-736.424" font-family="Times New Roman,serif" font-size="9.00">78</text>
</g>
<!-- 24&#45;&gt;78 -->
<g id="edge116" class="edge"><title>24&#45;&gt;78</title>
<path fill="none" stroke="red" d="M904.826,-1188.79C899.753,-1185.35 893.841,-1181.83 888,-1179.48 808.265,-1147.4 773.25,-1185.01 698,-1143.48 549.443,-1061.51 486.765,-843.89 468.802,-767.002"/>
<polygon fill="red" stroke="red" points="472.185,-766.094 466.56,-757.116 465.359,-767.642 472.185,-766.094"/>
</g>
<!-- 112&#45;&gt;15 -->
<g id="edge155" class="edge"><title>112&#45;&gt;15</title>
<path fill="none" stroke="red" d="M1243.12,-1186.73C1258.77,-1174.14 1282.64,-1154.93 1300.03,-1140.95"/>
<polygon fill="red" stroke="red" points="1302.38,-1143.55 1307.98,-1134.55 1297.99,-1138.09 1302.38,-1143.55"/>
</g>
<!-- 112&#45;&gt;47 -->
<g id="edge195" class="edge"><title>112&#45;&gt;47</title>
<path fill="none" stroke="green" d="M1224.23,-1179.54C1220.83,-1158.96 1213.86,-1126.51 1201,-1101.06 1191.73,-1082.72 1181.51,-1083.27 1172,-1065.06 1137.14,-998.272 1077,-814.961 1077,-739.624 1077,-739.624 1077,-739.624 1077,-592.085 1077,-533.135 1133.89,-483.02 1167.29,-458.675"/>
<polygon fill="green" stroke="green" points="1169.48,-461.411 1175.63,-452.778 1165.44,-455.696 1169.48,-461.411"/>
</g>
<!-- 15&#45;&gt;22 -->
<g id="edge32" class="edge"><title>15&#45;&gt;22</title>
<path fill="none" stroke="green" d="M1303.73,-1119.19C1211.08,-1108.62 793.151,-1060.95 680.209,-1048.06"/>
<polygon fill="green" stroke="green" points="680.584,-1044.58 670.252,-1046.93 679.791,-1051.54 680.584,-1044.58"/>
</g>
<!-- 15&#45;&gt;13 -->
<g id="edge8" class="edge"><title>15&#45;&gt;13</title>
<path fill="none" stroke="green" d="M1310.59,-1107.37C1263.62,-1051 1078.4,-836.861 882,-720.24 843.804,-697.56 794.371,-681.976 763.94,-673.738"/>
<polygon fill="green" stroke="green" points="764.579,-670.288 754.018,-671.131 762.8,-677.058 764.579,-670.288"/>
</g>
<!-- 15&#45;&gt;11 -->
<g id="edge110" class="edge"><title>15&#45;&gt;11</title>
<path fill="none" stroke="green" d="M1338.96,-1114.64C1400.14,-1090.73 1609.7,-1008.83 1684.34,-979.666"/>
<polygon fill="green" stroke="green" points="1685.91,-982.812 1693.95,-975.912 1683.36,-976.292 1685.91,-982.812"/>
</g>
<!-- 15&#45;&gt;6 -->
<g id="edge115" class="edge"><title>15&#45;&gt;6</title>
<path fill="none" stroke="red" d="M1329.88,-1105.45C1365.65,-1032.14 1511,-717.363 1511,-442.889 1511,-442.889 1511,-442.889 1511,-295.35 1511,-250.959 1497.59,-200.508 1488.7,-171.937"/>
<polygon fill="red" stroke="red" points="1491.94,-170.571 1485.56,-162.117 1485.28,-172.708 1491.94,-170.571"/>
</g>
<!-- 56&#45;&gt;23 -->
<g id="edge92" class="edge"><title>56&#45;&gt;23</title>
<path fill="none" stroke="green" d="M1382.27,-655.6C1387.45,-652.719 1393.36,-649.714 1399,-647.47 1458.77,-623.691 1532.7,-607.153 1572.13,-599.295"/>
<polygon fill="green" stroke="green" points="1572.93,-602.706 1582.07,-597.353 1571.58,-595.836 1572.93,-602.706"/>
</g>
<!-- 56&#45;&gt;19 -->
<g id="edge127" class="edge"><title>56&#45;&gt;19</title>
<path fill="none" stroke="green" d="M1362.6,-647.865C1353.8,-616.037 1331.86,-546.146 1297,-496.274 1263.55,-448.42 1208.21,-406.841 1176.76,-385.456"/>
<polygon fill="green" stroke="green" points="1178.45,-382.376 1168.19,-379.727 1174.56,-388.195 1178.45,-382.376"/>
</g>
<!-- 136&#45;&gt;74 -->
<g id="edge189" class="edge"><title>136&#45;&gt;74</title>
<path fill="none" stroke="green" d="M1116.35,-1108.65C1132.77,-1095.97 1158.21,-1076.34 1176.53,-1062.19"/>
<polygon fill="green" stroke="green" points="1179.1,-1064.63 1184.87,-1055.75 1174.82,-1059.09 1179.1,-1064.63"/>
</g>
<!-- 170&#45;&gt;125 -->
<g id="edge168" class="edge"><title>170&#45;&gt;125</title>
<path fill="none" stroke="red" d="M1111.09,-1795.5C1107.22,-1754.48 1098.45,-1661.52 1093.88,-1613.11"/>
<polygon fill="red" stroke="red" points="1097.35,-1612.56 1092.93,-1602.93 1090.38,-1613.21 1097.35,-1612.56"/>
</g>
<!-- 134&#45;&gt;51 -->
<g id="edge153" class="edge"><title>134&#45;&gt;51</title>
<path fill="none" stroke="red" d="M864.15,-1179.87C872.663,-1150.63 887,-1094.08 887,-1044.84 887,-1044.84 887,-1044.84 887,-967.247 887,-872.899 749.721,-833.272 689.147,-820.38"/>
<polygon fill="red" stroke="red" points="689.609,-816.902 679.112,-818.34 688.215,-823.762 689.609,-816.902"/>
</g>
<!-- 75&#45;&gt;86 -->
<g id="edge86" class="edge"><title>75&#45;&gt;86</title>
<path fill="none" stroke="red" d="M278.215,-1409.4C283.553,-1389.57 293.911,-1356.32 309,-1330.68 370.738,-1225.77 552.991,-1068.19 625,-1022.63 658.964,-1001.14 703.01,-985.615 731.147,-977.02"/>
<polygon fill="red" stroke="red" points="732.507,-980.268 741.098,-974.068 730.515,-973.557 732.507,-980.268"/>
</g>
<!-- 107&#45;&gt;13 -->
<g id="edge98" class="edge"><title>107&#45;&gt;13</title>
<path fill="none" stroke="green" d="M236.571,-1179.44C228.912,-1105.21 213.332,-845.829 351,-720.24 403.136,-672.678 627.086,-667.199 707.288,-666.786"/>
<polygon fill="green" stroke="green" points="707.628,-670.285 717.619,-666.757 707.609,-663.285 707.628,-670.285"/>
</g>
<!-- 171&#45;&gt;99 -->
<g id="edge170" class="edge"><title>171&#45;&gt;99</title>
<path fill="none" stroke="red" d="M2286.64,-2170.6C2284.87,-2142.34 2282,-2089.6 2282,-2044.59 2282,-2044.59 2282,-2044.59 2282,-664.855 2282,-621.806 2267.5,-573.539 2257.17,-544.604"/>
<polygon fill="red" stroke="red" points="2260.32,-543.04 2253.58,-534.864 2253.75,-545.458 2260.32,-543.04"/>
</g>
<!-- 84&#45;&gt;30 -->
<g id="edge138" class="edge"><title>84&#45;&gt;30</title>
<path fill="none" stroke="red" d="M1265.24,-649.847C1259.15,-640.464 1251.16,-628.182 1244.24,-617.533"/>
<polygon fill="red" stroke="red" points="1247.13,-615.549 1238.74,-609.072 1241.26,-619.364 1247.13,-615.549"/>
</g>
<!-- 104&#45;&gt;78 -->
<g id="edge164" class="edge"><title>104&#45;&gt;78</title>
<path fill="none" stroke="green" d="M425.365,-796.153C431.903,-786.333 440.212,-773.852 447.359,-763.117"/>
<polygon fill="green" stroke="green" points="450.397,-764.87 453.025,-754.607 444.57,-760.991 450.397,-764.87"/>
</g>
<!-- 74&#45;&gt;23 -->
<g id="edge76" class="edge"><title>74&#45;&gt;23</title>
<path fill="none" stroke="red" d="M1211,-1029.41C1267.96,-965.673 1511.15,-693.519 1581.11,-615.23"/>
<polygon fill="red" stroke="red" points="1583.99,-617.252 1588.05,-607.463 1578.77,-612.588 1583.99,-617.252"/>
</g>
<!-- 74&#45;&gt;11 -->
<g id="edge120" class="edge"><title>74&#45;&gt;11</title>
<path fill="none" stroke="green" d="M1217.22,-1040.23C1293.73,-1029.23 1589.34,-986.735 1682.63,-973.325"/>
<polygon fill="green" stroke="green" points="1683.33,-976.76 1692.73,-971.873 1682.33,-969.832 1683.33,-976.76"/>
</g>
<!-- 86&#45;&gt;106 -->
<g id="edge95" class="edge"><title>86&#45;&gt;106</title>
<path fill="none" stroke="red" d="M746.284,-954.427C735.73,-943.786 720.476,-928.407 707.953,-915.782"/>
<polygon fill="red" stroke="red" points="710.102,-912.979 700.575,-908.344 705.133,-917.908 710.102,-912.979"/>
</g>
<!-- 86&#45;&gt;51 -->
<g id="edge113" class="edge"><title>86&#45;&gt;51</title>
<path fill="none" stroke="green" d="M753.489,-950.393C746.533,-930.497 733.352,-896.898 716,-871.436 706.472,-857.454 693.281,-843.836 682.205,-833.507"/>
<polygon fill="green" stroke="green" points="684.356,-830.732 674.597,-826.608 679.654,-835.918 684.356,-830.732"/>
</g>
<!-- 86&#45;&gt;21 -->
<g id="edge186" class="edge"><title>86&#45;&gt;21</title>
<path fill="none" stroke="red" d="M771.03,-954.021C806.138,-913.992 906,-789.364 906,-666.855 906,-666.855 906,-666.855 906,-440.889 906,-353.776 1221.08,-311.375 1318.59,-300.34"/>
<polygon fill="red" stroke="red" points="1319.06,-303.809 1328.61,-299.23 1318.29,-296.852 1319.06,-303.809"/>
</g>
<!-- 43 -->
<g id="node74" class="node"><title>43</title>
<ellipse fill="none" stroke="black" cx="1450" cy="-223.581" rx="18.2703" ry="18.2703"/>
<text text-anchor="middle" x="1450" y="-221.381" font-family="Times New Roman,serif" font-size="9.00">43</text>
</g>
<!-- 86&#45;&gt;43 -->
<g id="edge136" class="edge"><title>86&#45;&gt;43</title>
<path fill="none" stroke="green" d="M777.525,-966.569C859.564,-962.557 1193.85,-935.43 1370,-757.009 1417.18,-709.217 1435,-574.935 1435,-442.889 1435,-442.889 1435,-442.889 1435,-368.12 1435,-327.462 1441.03,-280.676 1445.44,-251.866"/>
<polygon fill="green" stroke="green" points="1448.93,-252.178 1447.04,-241.754 1442.02,-251.086 1448.93,-252.178"/>
</g>
<!-- 57 -->
<g id="node55" class="node"><title>57</title>
<ellipse fill="none" stroke="black" cx="588" cy="-968.247" rx="18.2703" ry="18.2703"/>
<text text-anchor="middle" x="588" y="-966.047" font-family="Times New Roman,serif" font-size="9.00">57</text>
</g>
<!-- 22&#45;&gt;57 -->
<g id="edge150" class="edge"><title>22&#45;&gt;57</title>
<path fill="none" stroke="green" d="M640.261,-1029.35C630.789,-1018.45 617.292,-1002.93 606.387,-990.392"/>
<polygon fill="green" stroke="green" points="608.867,-987.91 599.664,-982.66 603.585,-992.503 608.867,-987.91"/>
</g>
<!-- 22&#45;&gt;51 -->
<g id="edge171" class="edge"><title>22&#45;&gt;51</title>
<path fill="none" stroke="red" d="M652.031,-1025.31C652.171,-994.266 652.85,-927.606 656,-871.436 656.524,-862.084 657.354,-851.879 658.189,-842.76"/>
<polygon fill="red" stroke="red" points="661.685,-842.96 659.152,-832.673 654.717,-842.295 661.685,-842.96"/>
</g>
<!-- 22&#45;&gt;13 -->
<g id="edge42" class="edge"><title>22&#45;&gt;13</title>
<path fill="none" stroke="red" d="M661.66,-1028.12C676.32,-1004.91 703.767,-957.942 716,-913.862 737.461,-836.526 738.265,-740.74 737.121,-694.457"/>
<polygon fill="red" stroke="red" points="740.616,-694.206 736.819,-684.315 733.619,-694.415 740.616,-694.206"/>
</g>
<!-- 106&#45;&gt;51 -->
<g id="edge96" class="edge"><title>106&#45;&gt;51</title>
<path fill="none" stroke="green" d="M679.691,-872.363C676.632,-863.011 672.911,-851.634 669.596,-841.502"/>
<polygon fill="green" stroke="green" points="672.893,-840.322 666.457,-831.906 666.24,-842.499 672.893,-840.322"/>
</g>
<!-- 146 -->
<g id="node56" class="node"><title>146</title>
<ellipse fill="none" stroke="black" cx="588" cy="-892.649" rx="21.4286" ry="21.4286"/>
<text text-anchor="middle" x="588" y="-890.449" font-family="Times New Roman,serif" font-size="9.00">146</text>
</g>
<!-- 57&#45;&gt;146 -->
<g id="edge157" class="edge"><title>57&#45;&gt;146</title>
<path fill="none" stroke="green" d="M588,-949.805C588,-942.19 588,-933.028 588,-924.334"/>
<polygon fill="green" stroke="green" points="591.5,-924.098 588,-914.098 584.5,-924.098 591.5,-924.098"/>
</g>
<!-- 57&#45;&gt;51 -->
<g id="edge151" class="edge"><title>57&#45;&gt;51</title>
<path fill="none" stroke="red" d="M576.932,-953.414C562.855,-934.015 542.166,-898.117 558,-871.436 574.102,-844.303 608.42,-829.426 633.019,-821.906"/>
<polygon fill="red" stroke="red" points="634.213,-825.206 642.885,-819.119 632.31,-818.469 634.213,-825.206"/>
</g>
<!-- 146&#45;&gt;51 -->
<g id="edge158" class="edge"><title>146&#45;&gt;51</title>
<path fill="none" stroke="green" d="M602.422,-876.549C613.571,-864.877 629.122,-848.597 641.399,-835.743"/>
<polygon fill="green" stroke="green" points="644.176,-837.904 648.552,-828.255 639.114,-833.069 644.176,-837.904"/>
</g>
<!-- 51&#45;&gt;78 -->
<g id="edge61" class="edge"><title>51&#45;&gt;78</title>
<path fill="none" stroke="green" d="M643.775,-806.82C609.094,-793.929 530.652,-764.771 489.435,-749.45"/>
<polygon fill="green" stroke="green" points="490.637,-746.163 480.044,-745.96 488.198,-752.725 490.637,-746.163"/>
</g>
<!-- 51&#45;&gt;13 -->
<g id="edge39" class="edge"><title>51&#45;&gt;13</title>
<path fill="none" stroke="red" d="M669.026,-797.559C681.984,-772.271 707.624,-722.232 723.148,-691.936"/>
<polygon fill="red" stroke="red" points="726.359,-693.346 727.804,-682.85 720.129,-690.153 726.359,-693.346"/>
</g>
<!-- 125&#45;&gt;19 -->
<g id="edge107" class="edge"><title>125&#45;&gt;19</title>
<path fill="none" stroke="green" d="M1089.16,-1560.08C1084.46,-1509 1071.25,-1371.72 1055,-1257.91 1040,-1152.83 1032.52,-1127.15 1014,-1022.63 991.696,-896.786 963,-867.431 963,-739.624 963,-739.624 963,-739.624 963,-516.487 963,-435.487 1072.71,-393.072 1125.4,-377.373"/>
<polygon fill="green" stroke="green" points="1126.48,-380.705 1135.13,-374.586 1124.55,-373.976 1126.48,-380.705"/>
</g>
<!-- 78&#45;&gt;13 -->
<g id="edge62" class="edge"><title>78&#45;&gt;13</title>
<path fill="none" stroke="red" d="M480.912,-732.981C527.495,-720.906 652.678,-688.454 708.49,-673.986"/>
<polygon fill="red" stroke="red" points="709.575,-677.321 718.377,-671.423 707.818,-670.545 709.575,-677.321"/>
</g>
<!-- 78&#45;&gt;91 -->
<g id="edge176" class="edge"><title>78&#45;&gt;91</title>
<path fill="none" stroke="green" d="M462.798,-719.946C462.505,-692.856 462,-639.441 462,-594.085 462,-594.085 462,-594.085 462,-222.581 462,-94.8432 950.297,-76.4332 1075.19,-73.8135"/>
<polygon fill="green" stroke="green" points="1075.55,-77.3074 1085.48,-73.6169 1075.41,-70.3086 1075.55,-77.3074"/>
</g>
<!-- 13&#45;&gt;5 -->
<g id="edge69" class="edge"><title>13&#45;&gt;5</title>
<path fill="none" stroke="green" d="M718.162,-659.678C646.839,-637.777 386,-545.68 386,-370.12 386,-370.12 386,-370.12 386,-146.983 386,-62.9605 1061.32,-18.8027 1189.23,-11.1923"/>
<polygon fill="green" stroke="green" points="1189.5,-14.6824 1199.28,-10.603 1189.09,-7.69435 1189.5,-14.6824"/>
</g>
<!-- 13&#45;&gt;30 -->
<g id="edge12" class="edge"><title>13&#45;&gt;30</title>
<path fill="none" stroke="green" d="M754.131,-662.252C828.499,-651.577 1110.49,-611.097 1200.91,-598.117"/>
<polygon fill="green" stroke="green" points="1201.56,-601.56 1210.97,-596.674 1200.57,-594.631 1201.56,-601.56"/>
</g>
<!-- 13&#45;&gt;19 -->
<g id="edge40" class="edge"><title>13&#45;&gt;19</title>
<path fill="none" stroke="red" d="M750.18,-653.623C762.953,-643.236 781.976,-627.09 797,-611.47 871.477,-534.037 858.745,-481.786 949,-423.505 1004.45,-387.697 1082.99,-375.847 1124.58,-371.97"/>
<polygon fill="red" stroke="red" points="1124.9,-375.456 1134.57,-371.128 1124.31,-368.481 1124.9,-375.456"/>
</g>
<!-- 13&#45;&gt;6 -->
<g id="edge6" class="edge"><title>13&#45;&gt;6</title>
<path fill="none" stroke="green" d="M744.621,-649.144C758.189,-622.901 783,-568.129 783,-518.487 783,-518.487 783,-518.487 783,-295.35 783,-225.115 1331.34,-164.399 1456,-151.504"/>
<polygon fill="green" stroke="green" points="1456.51,-154.97 1466.1,-150.468 1455.79,-148.006 1456.51,-154.97"/>
</g>
<!-- 13&#45;&gt;79 -->
<g id="edge25" class="edge"><title>13&#45;&gt;79</title>
<path fill="none" stroke="green" d="M718.01,-661.859C651.631,-650.806 420.13,-612.257 339.195,-598.78"/>
<polygon fill="green" stroke="green" points="339.672,-595.312 329.232,-597.121 338.522,-602.216 339.672,-595.312"/>
</g>
<!-- 147 -->
<g id="node65" class="node"><title>147</title>
<ellipse fill="none" stroke="black" cx="1598" cy="-517.487" rx="21.4286" ry="21.4286"/>
<text text-anchor="middle" x="1598" y="-515.287" font-family="Times New Roman,serif" font-size="9.00">147</text>
</g>
<!-- 23&#45;&gt;147 -->
<g id="edge159" class="edge"><title>23&#45;&gt;147</title>
<path fill="none" stroke="green" d="M1599.53,-574.644C1599.32,-567.028 1599.07,-557.866 1598.83,-549.173"/>
<polygon fill="green" stroke="green" points="1602.33,-548.838 1598.56,-538.937 1595.33,-549.028 1602.33,-548.838"/>
</g>
<!-- 23&#45;&gt;80 -->
<g id="edge81" class="edge"><title>23&#45;&gt;80</title>
<path fill="none" stroke="green" d="M1609.61,-577.299C1615.88,-566.918 1623.68,-552.482 1628,-538.701 1634.98,-516.431 1637.92,-490.047 1639.15,-470.61"/>
<polygon fill="green" stroke="green" points="1642.64,-470.765 1639.67,-460.597 1635.65,-470.402 1642.64,-470.765"/>
</g>
<!-- 23&#45;&gt;6 -->
<g id="edge24" class="edge"><title>23&#45;&gt;6</title>
<path fill="none" stroke="green" d="M1589.59,-577.83C1582.5,-567.459 1573.44,-552.816 1568,-538.701 1552.39,-498.193 1549,-486.301 1549,-442.889 1549,-442.889 1549,-442.889 1549,-295.35 1549,-253.886 1543.49,-242.31 1525,-205.196 1518.02,-191.191 1507.23,-177.328 1498.07,-166.873"/>
<polygon fill="green" stroke="green" points="1500.5,-164.339 1491.19,-159.281 1495.32,-169.04 1500.5,-164.339"/>
</g>
<!-- 11&#45;&gt;47 -->
<g id="edge139" class="edge"><title>11&#45;&gt;47</title>
<path fill="none" stroke="green" d="M1694.05,-960.617C1637.06,-937.853 1448.54,-858.645 1316,-757.009 1280.87,-730.073 1275.06,-719.273 1248,-684.24 1224.61,-653.957 1213.9,-647.836 1202,-611.47 1191.92,-580.659 1199.12,-571.049 1197,-538.701 1195.5,-515.794 1193.87,-489.802 1192.7,-470.675"/>
<polygon fill="green" stroke="green" points="1196.18,-470.317 1192.07,-460.55 1189.19,-470.746 1196.18,-470.317"/>
</g>
<!-- 105 -->
<g id="node71" class="node"><title>105</title>
<ellipse fill="none" stroke="black" cx="1924" cy="-892.649" rx="21.4286" ry="21.4286"/>
<text text-anchor="middle" x="1924" y="-890.449" font-family="Times New Roman,serif" font-size="9.00">105</text>
</g>
<!-- 11&#45;&gt;105 -->
<g id="edge125" class="edge"><title>11&#45;&gt;105</title>
<path fill="none" stroke="green" d="M1728.07,-961.348C1764.32,-948.822 1849.36,-919.438 1894.56,-903.822"/>
<polygon fill="green" stroke="green" points="1895.78,-907.102 1904.09,-900.528 1893.5,-900.486 1895.78,-907.102"/>
</g>
<!-- 11&#45;&gt;7 -->
<g id="edge85" class="edge"><title>11&#45;&gt;7</title>
<path fill="none" stroke="red" d="M1724.4,-955.636C1757.11,-927.369 1843.8,-852.901 1918,-793.009 1934.24,-779.899 1952.99,-765.433 1966.85,-754.871"/>
<polygon fill="red" stroke="red" points="1969.32,-757.385 1975.16,-748.547 1965.09,-751.812 1969.32,-757.385"/>
</g>
<!-- 100&#45;&gt;7 -->
<g id="edge134" class="edge"><title>100&#45;&gt;7</title>
<path fill="none" stroke="green" d="M2006.98,-1023.81C2021.5,-981.3 2051.47,-875.846 2025,-793.009 2020.77,-779.767 2011.92,-767.002 2003.82,-757.277"/>
<polygon fill="green" stroke="green" points="2006.27,-754.766 1997.04,-749.577 2001.02,-759.394 2006.27,-754.766"/>
</g>
<!-- 30&#45;&gt;99 -->
<g id="edge119" class="edge"><title>30&#45;&gt;99</title>
<path fill="none" stroke="red" d="M1247.54,-590.745C1370.44,-581.859 2067.47,-531.467 2218.24,-520.566"/>
<polygon fill="red" stroke="red" points="2218.8,-524.036 2228.52,-519.824 2218.29,-517.054 2218.8,-524.036"/>
</g>
<!-- 77 -->
<g id="node67" class="node"><title>77</title>
<ellipse fill="none" stroke="black" cx="1237" cy="-517.487" rx="18.2703" ry="18.2703"/>
<text text-anchor="middle" x="1237" y="-515.287" font-family="Times New Roman,serif" font-size="9.00">77</text>
</g>
<!-- 30&#45;&gt;77 -->
<g id="edge78" class="edge"><title>30&#45;&gt;77</title>
<path fill="none" stroke="green" d="M1230.9,-574.644C1231.83,-566.028 1232.98,-555.433 1234.03,-545.776"/>
<polygon fill="green" stroke="green" points="1237.52,-546.124 1235.12,-535.804 1230.56,-545.367 1237.52,-546.124"/>
</g>
<!-- 30&#45;&gt;47 -->
<g id="edge19" class="edge"><title>30&#45;&gt;47</title>
<path fill="none" stroke="green" d="M1222.37,-575.456C1218.39,-565.022 1213.45,-551.22 1210,-538.701 1203.73,-515.94 1198.66,-489.6 1195.34,-470.304"/>
<polygon fill="green" stroke="green" points="1198.78,-469.662 1193.68,-460.376 1191.88,-470.817 1198.78,-469.662"/>
</g>
<!-- 30&#45;&gt;19 -->
<g id="edge36" class="edge"><title>30&#45;&gt;19</title>
<path fill="none" stroke="green" d="M1219.17,-576.992C1212.51,-566.475 1203.74,-552.001 1197,-538.701 1179.9,-504.97 1173.72,-496.821 1164,-460.274 1158.54,-439.734 1155.78,-415.831 1154.39,-397.8"/>
<polygon fill="green" stroke="green" points="1157.87,-397.415 1153.71,-387.674 1150.89,-397.887 1157.87,-397.415"/>
</g>
<!-- 147&#45;&gt;80 -->
<g id="edge160" class="edge"><title>147&#45;&gt;80</title>
<path fill="none" stroke="green" d="M1608.17,-498.671C1613.52,-489.291 1620.17,-477.644 1626,-467.423"/>
<polygon fill="green" stroke="green" points="1629.15,-468.963 1631.07,-458.543 1623.07,-465.493 1629.15,-468.963"/>
</g>
<!-- 147&#45;&gt;43 -->
<g id="edge196" class="edge"><title>147&#45;&gt;43</title>
<path fill="none" stroke="green" d="M1588.74,-498.227C1563.2,-447.846 1491.7,-306.822 1462.58,-249.39"/>
<polygon fill="green" stroke="green" points="1465.61,-247.632 1457.97,-240.296 1459.37,-250.798 1465.61,-247.632"/>
</g>
<!-- 77&#45;&gt;47 -->
<g id="edge79" class="edge"><title>77&#45;&gt;47</title>
<path fill="none" stroke="green" d="M1227.69,-501.594C1221.39,-491.518 1212.94,-477.998 1205.74,-466.473"/>
<polygon fill="green" stroke="green" points="1208.56,-464.386 1200.29,-457.761 1202.63,-468.096 1208.56,-464.386"/>
</g>
<!-- 47&#45;&gt;19 -->
<g id="edge20" class="edge"><title>47&#45;&gt;19</title>
<path fill="none" stroke="red" d="M1182.57,-425.183C1177.75,-416.204 1171.59,-404.746 1166.15,-394.61"/>
<polygon fill="red" stroke="red" points="1169.22,-392.936 1161.41,-385.782 1163.06,-396.248 1169.22,-392.936"/>
</g>
<!-- 47&#45;&gt;21 -->
<g id="edge161" class="edge"><title>47&#45;&gt;21</title>
<path fill="none" stroke="red" d="M1204.03,-428.898C1231.04,-404.052 1293.3,-346.76 1326.03,-316.646"/>
<polygon fill="red" stroke="red" points="1328.69,-318.958 1333.67,-309.612 1323.95,-313.807 1328.69,-318.958"/>
</g>
<!-- 19&#45;&gt;21 -->
<g id="edge30" class="edge"><title>19&#45;&gt;21</title>
<path fill="none" stroke="green" d="M1170.22,-361.84C1204.15,-349.459 1279.9,-321.827 1320.35,-307.073"/>
<polygon fill="green" stroke="green" points="1321.63,-310.332 1329.82,-303.617 1319.23,-303.756 1321.63,-310.332"/>
</g>
<!-- 19&#45;&gt;6 -->
<g id="edge11" class="edge"><title>19&#45;&gt;6</title>
<path fill="none" stroke="green" d="M1167.54,-357.467C1203.95,-330.916 1302.18,-259.995 1387,-205.196 1411.46,-189.396 1440.29,-172.385 1459.51,-161.265"/>
<polygon fill="green" stroke="green" points="1461.44,-164.191 1468.36,-156.167 1457.95,-158.124 1461.44,-164.191"/>
</g>
<!-- 92 -->
<g id="node77" class="node"><title>92</title>
<ellipse fill="none" stroke="black" cx="1153" cy="-223.581" rx="18.2703" ry="18.2703"/>
<text text-anchor="middle" x="1153" y="-221.381" font-family="Times New Roman,serif" font-size="9.00">92</text>
</g>
<!-- 19&#45;&gt;92 -->
<g id="edge67" class="edge"><title>19&#45;&gt;92</title>
<path fill="none" stroke="green" d="M1153,-350.519C1153,-326.091 1153,-281.646 1153,-252.621"/>
<polygon fill="green" stroke="green" points="1156.5,-252.325 1153,-242.325 1149.5,-252.325 1156.5,-252.325"/>
</g>
<!-- 80&#45;&gt;6 -->
<g id="edge82" class="edge"><title>80&#45;&gt;6</title>
<path fill="none" stroke="red" d="M1638.16,-423.452C1633.02,-381.834 1615.25,-274.969 1563,-205.196 1547.48,-184.468 1521.98,-168.728 1503.54,-159.249"/>
<polygon fill="red" stroke="red" points="1504.89,-156.016 1494.38,-154.752 1501.81,-162.3 1504.89,-156.016"/>
</g>
<!-- 164 -->
<g id="node73" class="node"><title>164</title>
<ellipse fill="none" stroke="black" cx="1962" cy="-814.222" rx="21.4286" ry="21.4286"/>
<text text-anchor="middle" x="1962" y="-812.022" font-family="Times New Roman,serif" font-size="9.00">164</text>
</g>
<!-- 105&#45;&gt;164 -->
<g id="edge192" class="edge"><title>105&#45;&gt;164</title>
<path fill="none" stroke="red" d="M1933.2,-873.148C1937.73,-864.042 1943.28,-852.88 1948.29,-842.792"/>
<polygon fill="red" stroke="red" points="1951.57,-844.065 1952.89,-833.553 1945.3,-840.949 1951.57,-844.065"/>
</g>
<!-- 105&#45;&gt;7 -->
<g id="edge126" class="edge"><title>105&#45;&gt;7</title>
<path fill="none" stroke="green" d="M1921.61,-871.316C1920.08,-850.593 1920.2,-818.029 1932,-793.009 1939.58,-776.932 1954.23,-763.098 1966.5,-753.543"/>
<polygon fill="green" stroke="green" points="1968.9,-756.119 1974.88,-747.371 1964.75,-750.482 1968.9,-756.119"/>
</g>
<!-- 21&#45;&gt;43 -->
<g id="edge121" class="edge"><title>21&#45;&gt;43</title>
<path fill="none" stroke="red" d="M1361.76,-285.211C1378.74,-273.544 1406.84,-254.238 1426.76,-240.548"/>
<polygon fill="red" stroke="red" points="1429.01,-243.249 1435.27,-234.701 1425.05,-237.48 1429.01,-243.249"/>
</g>
<!-- 21&#45;&gt;6 -->
<g id="edge58" class="edge"><title>21&#45;&gt;6</title>
<path fill="none" stroke="green" d="M1357.92,-281.543C1372.32,-263.53 1398.7,-231.241 1423,-205.196 1435.9,-191.367 1451.31,-176.506 1463,-165.539"/>
<polygon fill="green" stroke="green" points="1465.49,-168.005 1470.42,-158.63 1460.72,-162.881 1465.49,-168.005"/>
</g>
<!-- 21&#45;&gt;92 -->
<g id="edge199" class="edge"><title>21&#45;&gt;92</title>
<path fill="none" stroke="red" d="M1329.78,-289.07C1295.85,-276.689 1220.1,-249.057 1179.65,-234.303"/>
<polygon fill="red" stroke="red" points="1180.77,-230.986 1170.18,-230.847 1178.37,-237.562 1180.77,-230.986"/>
</g>
<!-- 164&#45;&gt;7 -->
<g id="edge193" class="edge"><title>164&#45;&gt;7</title>
<path fill="none" stroke="red" d="M1968.57,-793.885C1971.83,-784.276 1975.8,-772.599 1979.22,-762.542"/>
<polygon fill="red" stroke="red" points="1982.62,-763.398 1982.52,-752.804 1975.99,-761.146 1982.62,-763.398"/>
</g>
<!-- 43&#45;&gt;6 -->
<g id="edge122" class="edge"><title>43&#45;&gt;6</title>
<path fill="none" stroke="green" d="M1456.88,-206.247C1461.24,-195.897 1466.93,-182.379 1471.69,-171.077"/>
<polygon fill="green" stroke="green" points="1474.92,-172.424 1475.58,-161.85 1468.47,-169.707 1474.92,-172.424"/>
</g>
<!-- 6&#45;&gt;5 -->
<g id="edge4" class="edge"><title>6&#45;&gt;5</title>
<path fill="none" stroke="red" d="M1467.93,-140.376C1424.03,-118.184 1281.68,-46.2344 1229.45,-19.8318"/>
<polygon fill="red" stroke="red" points="1231.03,-16.7076 1220.52,-15.32 1227.87,-22.9548 1231.03,-16.7076"/>
</g>
<!-- 7&#45;&gt;5 -->
<g id="edge15" class="edge"><title>7&#45;&gt;5</title>
<path fill="none" stroke="red" d="M1981.38,-724.848C1971.03,-700.115 1950,-643.753 1950,-594.085 1950,-594.085 1950,-594.085 1950,-146.983 1950,-97.5578 1931.71,-78.8771 1889,-54 1830.89,-20.153 1338.96,-11.7069 1230.92,-10.2533"/>
<polygon fill="red" stroke="red" points="1230.73,-6.75057 1220.68,-10.1214 1230.64,-13.75 1230.73,-6.75057"/>
</g>
<!-- 114 -->
<g id="node78" class="node"><title>114</title>
<ellipse fill="none" stroke="black" cx="1104" cy="-147.983" rx="21.4286" ry="21.4286"/>
<text text-anchor="middle" x="1104" y="-145.783" font-family="Times New Roman,serif" font-size="9.00">114</text>
</g>
<!-- 92&#45;&gt;114 -->
<g id="edge130" class="edge"><title>92&#45;&gt;114</title>
<path fill="none" stroke="red" d="M1143.08,-207.687C1136.77,-198.208 1128.43,-185.68 1121.08,-174.633"/>
<polygon fill="red" stroke="red" points="1123.9,-172.561 1115.45,-166.177 1118.08,-176.441 1123.9,-172.561"/>
</g>
<!-- 92&#45;&gt;91 -->
<g id="edge68" class="edge"><title>92&#45;&gt;91</title>
<path fill="none" stroke="green" d="M1151.22,-205.172C1148.85,-185.622 1143.75,-153.175 1134,-126.77 1130.23,-116.555 1124.67,-105.969 1119.36,-96.9434"/>
<polygon fill="green" stroke="green" points="1122.21,-94.8887 1114.01,-88.1836 1116.24,-98.5408 1122.21,-94.8887"/>
</g>
<!-- 114&#45;&gt;91 -->
<g id="edge131" class="edge"><title>114&#45;&gt;91</title>
<path fill="none" stroke="green" d="M1104,-126.482C1104,-118.586 1104,-109.437 1104,-100.98"/>
<polygon fill="green" stroke="green" points="1107.5,-100.786 1104,-90.7857 1100.5,-100.786 1107.5,-100.786"/>
</g>
<!-- 79&#45;&gt;5 -->
<g id="edge26" class="edge"><title>79&#45;&gt;5</title>
<path fill="none" stroke="green" d="M310.807,-574.629C310.517,-546.774 310,-490.55 310,-442.889 310,-442.889 310,-442.889 310,-146.983 310,-97.3126 328.836,-78.5758 372,-54 444.975,-12.4509 1066.24,-10.0526 1188.98,-9.98626"/>
<polygon fill="green" stroke="green" points="1189.27,-13.4863 1199.27,-9.98588 1189.27,-6.48635 1189.27,-13.4863"/>
</g>
<!-- 91&#45;&gt;5 -->
<g id="edge66" class="edge"><title>91&#45;&gt;5</title>
<path fill="none" stroke="red" d="M1119.64,-62.3272C1138.53,-51.3869 1170.31,-32.9846 1190.71,-21.1736"/>
<polygon fill="red" stroke="red" points="1192.54,-24.154 1199.44,-16.1138 1189.03,-18.0964 1192.54,-24.154"/>
</g>
</g>
</svg>
