<?xml version="1.0" encoding="UTF-8" standalone="no"?>
<!DOCTYPE svg PUBLIC "-//W3C//DTD SVG 1.1//EN"
 "http://www.w3.org/Graphics/SVG/1.1/DTD/svg11.dtd">
<!-- Generated by graphviz version 2.38.0 (20140413.2041)
 -->
<!-- Title: %3 Pages: 1 -->
<svg width="154pt" height="146pt"
 viewBox="0.00 0.00 154.35 145.70" xmlns="http://www.w3.org/2000/svg" xmlns:xlink="http://www.w3.org/1999/xlink">
<g id="graph0" class="graph" transform="scale(1 1) rotate(0) translate(4 141.698)">
<title>%3</title>
<polygon fill="white" stroke="none" points="-4,4 -4,-141.698 150.349,-141.698 150.349,4 -4,4"/>
<!-- 1 -->
<g id="node1" class="node"><title>1</title>
<polygon fill="lightgray" stroke="black" points="21,-77.8492 0,-77.8492 0,-59.8492 21,-59.8492 21,-77.8492"/>
<text text-anchor="middle" x="10.5" y="-66.6492" font-family="Times New Roman,serif" font-size="9.00">1</text>
</g>
<!-- 5 -->
<g id="node5" class="node"><title>5</title>
<polygon fill="lightblue" stroke="black" points="79,-18 58,-18 58,-0 79,-0 79,-18"/>
<text text-anchor="middle" x="68.5" y="-6.8" font-family="Times New Roman,serif" font-size="9.00">5</text>
</g>
<!-- 1&#45;&gt;5 -->
<g id="edge1" class="edge"><title>1&#45;&gt;5</title>
<path fill="none" stroke="red" d="M18.5647,-59.8056C27.3813,-51.0119 41.7257,-36.7047 52.7835,-25.6757"/>
<polygon fill="red" stroke="red" points="55.5196,-27.89 60.1282,-18.35 50.5763,-22.9338 55.5196,-27.89"/>
</g>
<!-- 2 -->
<g id="node2" class="node"><title>2</title>
<polygon fill="lightgray" stroke="black" points="60,-77.8492 39,-77.8492 39,-59.8492 60,-59.8492 60,-77.8492"/>
<text text-anchor="middle" x="49.5" y="-66.6492" font-family="Times New Roman,serif" font-size="9.00">2</text>
</g>
<!-- 2&#45;&gt;5 -->
<g id="edge2" class="edge"><title>2&#45;&gt;5</title>
<path fill="none" stroke="green" d="M52.1419,-59.8056C54.8338,-51.6095 59.0988,-38.6239 62.5989,-27.967"/>
<polygon fill="green" stroke="green" points="65.9623,-28.9429 65.7575,-18.35 59.3118,-26.7585 65.9623,-28.9429"/>
</g>
<!-- 3 -->
<g id="node3" class="node"><title>3</title>
<polygon fill="lightgray" stroke="black" points="142,-137.698 121,-137.698 121,-119.698 142,-119.698 142,-137.698"/>
<text text-anchor="middle" x="131.5" y="-126.498" font-family="Times New Roman,serif" font-size="9.00">3</text>
</g>
<!-- 8 -->
<g id="node6" class="node"><title>8</title>
<ellipse fill="none" stroke="black" cx="131.5" cy="-68.8492" rx="14.7" ry="14.7"/>
<text text-anchor="middle" x="131.5" y="-66.6492" font-family="Times New Roman,serif" font-size="9.00">8</text>
</g>
<!-- 3&#45;&gt;8 -->
<g id="edge4" class="edge"><title>3&#45;&gt;8</title>
<path fill="none" stroke="red" d="M131.5,-119.655C131.5,-113.05 131.5,-103.334 131.5,-94.2339"/>
<polygon fill="red" stroke="red" points="135,-94.0563 131.5,-84.0563 128,-94.0564 135,-94.0563"/>
</g>
<!-- 4 -->
<g id="node4" class="node"><title>4</title>
<polygon fill="lightgray" stroke="black" points="99,-77.8492 78,-77.8492 78,-59.8492 99,-59.8492 99,-77.8492"/>
<text text-anchor="middle" x="88.5" y="-66.6492" font-family="Times New Roman,serif" font-size="9.00">4</text>
</g>
<!-- 4&#45;&gt;5 -->
<g id="edge3" class="edge"><title>4&#45;&gt;5</title>
<path fill="none" stroke="green" d="M85.7191,-59.8056C82.8855,-51.6095 78.396,-38.6239 74.7117,-27.967"/>
<polygon fill="green" stroke="green" points="77.9623,-26.6575 71.3868,-18.35 71.3465,-28.9448 77.9623,-26.6575"/>
</g>
<!-- 8&#45;&gt;5 -->
<g id="edge5" class="edge"><title>8&#45;&gt;5</title>
<path fill="none" stroke="red" d="M120.813,-58.0359C110.982,-49.0089 96.2562,-35.4869 84.9305,-25.0871"/>
<polygon fill="red" stroke="red" points="87.1362,-22.3608 77.4032,-18.1752 82.4017,-27.5169 87.1362,-22.3608"/>
</g>
</g>
</svg>
