<?xml version="1.0" encoding="UTF-8" standalone="no"?>
<!DOCTYPE svg PUBLIC "-//W3C//DTD SVG 1.1//EN"
 "http://www.w3.org/Graphics/SVG/1.1/DTD/svg11.dtd">
<!-- Generated by graphviz version 2.38.0 (20140413.2041)
 -->
<!-- Title: %3 Pages: 1 -->
<svg width="274pt" height="655pt"
 viewBox="0.00 0.00 273.80 655.09" xmlns="http://www.w3.org/2000/svg" xmlns:xlink="http://www.w3.org/1999/xlink">
<g id="graph0" class="graph" transform="scale(1 1) rotate(0) translate(4 651.085)">
<title>%3</title>
<polygon fill="white" stroke="none" points="-4,4 -4,-651.085 269.804,-651.085 269.804,4 -4,4"/>
<!-- 1 -->
<g id="node1" class="node"><title>1</title>
<polygon fill="lightgray" stroke="black" points="110.919,-647.085 89.9192,-647.085 89.9192,-629.085 110.919,-629.085 110.919,-647.085"/>
<text text-anchor="middle" x="100.419" y="-635.885" font-family="Times New Roman,serif" font-size="9.00">1</text>
</g>
<!-- 5 -->
<g id="node5" class="node"><title>5</title>
<polygon fill="lightblue" stroke="black" points="88.9192,-18 67.9192,-18 67.9192,-0 88.9192,-0 88.9192,-18"/>
<text text-anchor="middle" x="78.4192" y="-6.8" font-family="Times New Roman,serif" font-size="9.00">5</text>
</g>
<!-- 1&#45;&gt;5 -->
<g id="edge1" class="edge"><title>1&#45;&gt;5</title>
<path fill="none" stroke="red" d="M89.7174,-630.064C63.9202,-612.195 0.419189,-562.192 0.419189,-502.931 0.419189,-502.931 0.419189,-502.931 0.419189,-137.083 0.419189,-99.2041 -1.25757,-85.738 19.4192,-54 29.1852,-39.0096 45.9176,-27.2547 59.0747,-19.6802"/>
<polygon fill="red" stroke="red" points="60.7449,-22.7561 67.8725,-14.9172 57.4122,-16.6003 60.7449,-22.7561"/>
</g>
<!-- 20 -->
<g id="node6" class="node"><title>20</title>
<ellipse fill="none" stroke="black" cx="201.419" cy="-574.701" rx="18.2703" ry="18.2703"/>
<text text-anchor="middle" x="201.419" y="-572.501" font-family="Times New Roman,serif" font-size="9.00">20</text>
</g>
<!-- 1&#45;&gt;20 -->
<g id="edge7" class="edge"><title>1&#45;&gt;20</title>
<path fill="none" stroke="green" d="M111.33,-630.57C125.624,-622.02 151.455,-606.522 173.419,-593.085 174.7,-592.302 176.013,-591.496 177.338,-590.68"/>
<polygon fill="green" stroke="green" points="179.372,-593.538 186.037,-585.302 175.691,-587.584 179.372,-593.538"/>
</g>
<!-- 2 -->
<g id="node2" class="node"><title>2</title>
<polygon fill="lightgray" stroke="black" points="49.9192,-77.8492 28.9192,-77.8492 28.9192,-59.8492 49.9192,-59.8492 49.9192,-77.8492"/>
<text text-anchor="middle" x="39.4192" y="-66.6492" font-family="Times New Roman,serif" font-size="9.00">2</text>
</g>
<!-- 2&#45;&gt;5 -->
<g id="edge2" class="edge"><title>2&#45;&gt;5</title>
<path fill="none" stroke="green" d="M44.842,-59.8056C50.5977,-51.268 59.8571,-37.5334 67.196,-26.6475"/>
<polygon fill="green" stroke="green" points="70.102,-28.5982 72.7899,-18.35 64.2978,-24.6852 70.102,-28.5982"/>
</g>
<!-- 3 -->
<g id="node3" class="node"><title>3</title>
<polygon fill="lightgray" stroke="black" points="88.9192,-77.8492 67.9192,-77.8492 67.9192,-59.8492 88.9192,-59.8492 88.9192,-77.8492"/>
<text text-anchor="middle" x="78.4192" y="-66.6492" font-family="Times New Roman,serif" font-size="9.00">3</text>
</g>
<!-- 3&#45;&gt;5 -->
<g id="edge3" class="edge"><title>3&#45;&gt;5</title>
<path fill="none" stroke="green" d="M78.4192,-59.8056C78.4192,-51.7802 78.4192,-39.1628 78.4192,-28.636"/>
<polygon fill="green" stroke="green" points="81.9193,-28.35 78.4192,-18.35 74.9193,-28.35 81.9193,-28.35"/>
</g>
<!-- 4 -->
<g id="node4" class="node"><title>4</title>
<polygon fill="lightgray" stroke="black" points="164.919,-583.701 143.919,-583.701 143.919,-565.701 164.919,-565.701 164.919,-583.701"/>
<text text-anchor="middle" x="154.419" y="-572.501" font-family="Times New Roman,serif" font-size="9.00">4</text>
</g>
<!-- 4&#45;&gt;5 -->
<g id="edge4" class="edge"><title>4&#45;&gt;5</title>
<path fill="none" stroke="green" d="M150.736,-565.48C141.378,-543.814 117.419,-483.175 117.419,-430.161 117.419,-430.161 117.419,-430.161 117.419,-137.083 117.419,-96.2729 98.8109,-51.2061 87.3017,-27.2352"/>
<polygon fill="green" stroke="green" points="90.3271,-25.4585 82.7419,-18.0615 84.0587,-28.5742 90.3271,-25.4585"/>
</g>
<!-- 24 -->
<g id="node7" class="node"><title>24</title>
<ellipse fill="none" stroke="black" cx="201.419" cy="-501.931" rx="18.2703" ry="18.2703"/>
<text text-anchor="middle" x="201.419" y="-499.731" font-family="Times New Roman,serif" font-size="9.00">24</text>
</g>
<!-- 4&#45;&gt;24 -->
<g id="edge17" class="edge"><title>4&#45;&gt;24</title>
<path fill="none" stroke="red" d="M159.811,-565.582C166.18,-555.992 177.051,-539.623 186.085,-526.021"/>
<polygon fill="red" stroke="red" points="189.073,-527.848 191.69,-517.581 183.242,-523.975 189.073,-527.848"/>
</g>
<!-- 6 -->
<g id="node13" class="node"><title>6</title>
<ellipse fill="none" stroke="black" cx="160.419" cy="-68.8492" rx="14.7" ry="14.7"/>
<text text-anchor="middle" x="160.419" y="-66.6492" font-family="Times New Roman,serif" font-size="9.00">6</text>
</g>
<!-- 4&#45;&gt;6 -->
<g id="edge5" class="edge"><title>4&#45;&gt;6</title>
<path fill="none" stroke="red" d="M154.515,-565.607C154.765,-543.758 155.419,-481.747 155.419,-430.161 155.419,-430.161 155.419,-430.161 155.419,-209.853 155.419,-169.057 157.566,-121.617 159.046,-93.7534"/>
<polygon fill="red" stroke="red" points="162.541,-93.9299 159.594,-83.7534 155.552,-93.547 162.541,-93.9299"/>
</g>
<!-- 20&#45;&gt;24 -->
<g id="edge14" class="edge"><title>20&#45;&gt;24</title>
<path fill="none" stroke="red" d="M201.419,-556.207C201.419,-548.525 201.419,-539.316 201.419,-530.731"/>
<polygon fill="red" stroke="red" points="204.919,-530.715 201.419,-520.715 197.919,-530.715 204.919,-530.715"/>
</g>
<!-- 30 -->
<g id="node10" class="node"><title>30</title>
<ellipse fill="none" stroke="black" cx="247.419" cy="-283.622" rx="18.2703" ry="18.2703"/>
<text text-anchor="middle" x="247.419" y="-281.422" font-family="Times New Roman,serif" font-size="9.00">30</text>
</g>
<!-- 20&#45;&gt;30 -->
<g id="edge16" class="edge"><title>20&#45;&gt;30</title>
<path fill="none" stroke="green" d="M210.865,-558.924C216.994,-548.548 224.536,-534.113 228.419,-520.316 248.968,-447.303 249.752,-356.908 248.598,-312.254"/>
<polygon fill="green" stroke="green" points="252.093,-312.063 248.283,-302.177 245.097,-312.282 252.093,-312.063"/>
</g>
<!-- 15 -->
<g id="node8" class="node"><title>15</title>
<ellipse fill="none" stroke="black" cx="201.419" cy="-429.161" rx="18.2703" ry="18.2703"/>
<text text-anchor="middle" x="201.419" y="-426.961" font-family="Times New Roman,serif" font-size="9.00">15</text>
</g>
<!-- 24&#45;&gt;15 -->
<g id="edge15" class="edge"><title>24&#45;&gt;15</title>
<path fill="none" stroke="green" d="M201.419,-483.437C201.419,-475.755 201.419,-466.546 201.419,-457.962"/>
<polygon fill="green" stroke="green" points="204.919,-457.945 201.419,-447.945 197.919,-457.945 204.919,-457.945"/>
</g>
<!-- 13 -->
<g id="node9" class="node"><title>13</title>
<ellipse fill="none" stroke="black" cx="201.419" cy="-356.392" rx="18.2703" ry="18.2703"/>
<text text-anchor="middle" x="201.419" y="-354.192" font-family="Times New Roman,serif" font-size="9.00">13</text>
</g>
<!-- 15&#45;&gt;13 -->
<g id="edge6" class="edge"><title>15&#45;&gt;13</title>
<path fill="none" stroke="red" d="M201.419,-410.668C201.419,-402.986 201.419,-393.776 201.419,-385.192"/>
<polygon fill="red" stroke="red" points="204.919,-385.176 201.419,-375.176 197.919,-385.176 204.919,-385.176"/>
</g>
<!-- 13&#45;&gt;30 -->
<g id="edge12" class="edge"><title>13&#45;&gt;30</title>
<path fill="none" stroke="red" d="M211.175,-340.384C217.273,-331.001 225.257,-318.719 232.178,-308.07"/>
<polygon fill="red" stroke="red" points="235.162,-309.901 237.678,-299.609 229.293,-306.086 235.162,-309.901"/>
</g>
<!-- 19 -->
<g id="node11" class="node"><title>19</title>
<ellipse fill="none" stroke="black" cx="201.419" cy="-210.853" rx="18.2703" ry="18.2703"/>
<text text-anchor="middle" x="201.419" y="-208.653" font-family="Times New Roman,serif" font-size="9.00">19</text>
</g>
<!-- 13&#45;&gt;19 -->
<g id="edge8" class="edge"><title>13&#45;&gt;19</title>
<path fill="none" stroke="green" d="M201.419,-337.791C201.419,-313.363 201.419,-268.918 201.419,-239.893"/>
<polygon fill="green" stroke="green" points="204.919,-239.597 201.419,-229.597 197.919,-239.598 204.919,-239.597"/>
</g>
<!-- 30&#45;&gt;19 -->
<g id="edge13" class="edge"><title>30&#45;&gt;19</title>
<path fill="none" stroke="green" d="M237.664,-267.614C231.565,-258.231 223.582,-245.949 216.66,-235.301"/>
<polygon fill="green" stroke="green" points="219.545,-233.317 211.161,-226.84 213.676,-237.132 219.545,-233.317"/>
</g>
<!-- 21 -->
<g id="node12" class="node"><title>21</title>
<ellipse fill="none" stroke="black" cx="201.419" cy="-138.083" rx="18.2703" ry="18.2703"/>
<text text-anchor="middle" x="201.419" y="-135.883" font-family="Times New Roman,serif" font-size="9.00">21</text>
</g>
<!-- 19&#45;&gt;21 -->
<g id="edge9" class="edge"><title>19&#45;&gt;21</title>
<path fill="none" stroke="green" d="M201.419,-192.359C201.419,-184.677 201.419,-175.468 201.419,-166.884"/>
<polygon fill="green" stroke="green" points="204.919,-166.867 201.419,-156.867 197.919,-166.867 204.919,-166.867"/>
</g>
<!-- 21&#45;&gt;6 -->
<g id="edge10" class="edge"><title>21&#45;&gt;6</title>
<path fill="none" stroke="red" d="M192.116,-121.827C186.472,-112.572 179.195,-100.639 173.037,-90.541"/>
<polygon fill="red" stroke="red" points="175.97,-88.6285 167.776,-81.913 169.994,-92.273 175.97,-88.6285"/>
</g>
<!-- 6&#45;&gt;5 -->
<g id="edge11" class="edge"><title>6&#45;&gt;5</title>
<path fill="none" stroke="red" d="M148.671,-59.5609C135.344,-50.159 113.413,-34.6875 97.597,-23.5295"/>
<polygon fill="red" stroke="red" points="99.2913,-20.4415 89.1024,-17.5368 95.2561,-26.1614 99.2913,-20.4415"/>
</g>
</g>
</svg>
