<?xml version="1.0" encoding="UTF-8" standalone="no"?>
<!DOCTYPE svg PUBLIC "-//W3C//DTD SVG 1.1//EN"
 "http://www.w3.org/Graphics/SVG/1.1/DTD/svg11.dtd">
<!-- Generated by graphviz version 2.38.0 (20140413.2041)
 -->
<!-- Title: %3 Pages: 1 -->
<svg width="1150pt" height="1026pt"
 viewBox="0.00 0.00 1150.03 1026.00" xmlns="http://www.w3.org/2000/svg" xmlns:xlink="http://www.w3.org/1999/xlink">
<g id="graph0" class="graph" transform="scale(1 1) rotate(0) translate(4 1022)">
<title>%3</title>
<polygon fill="white" stroke="none" points="-4,4 -4,-1022 1146.03,-1022 1146.03,4 -4,4"/>
<!-- 1 -->
<g id="node1" class="node"><title>1</title>
<polygon fill="lightgray" stroke="black" points="346.525,-881.85 325.525,-881.85 325.525,-863.85 346.525,-863.85 346.525,-881.85"/>
<text text-anchor="middle" x="336.025" y="-870.65" font-family="Times New Roman,serif" font-size="9.00">1</text>
</g>
<!-- 30 -->
<g id="node11" class="node"><title>30</title>
<ellipse fill="none" stroke="black" cx="323.025" cy="-800.08" rx="18.2703" ry="18.2703"/>
<text text-anchor="middle" x="323.025" y="-797.88" font-family="Times New Roman,serif" font-size="9.00">30</text>
</g>
<!-- 1&#45;&gt;30 -->
<g id="edge9" class="edge"><title>1&#45;&gt;30</title>
<path fill="none" stroke="green" d="M334.534,-863.732C332.95,-855.109 330.359,-841.005 328.036,-828.36"/>
<polygon fill="green" stroke="green" points="331.425,-827.437 326.176,-818.234 324.541,-828.702 331.425,-827.437"/>
</g>
<!-- 70 -->
<g id="node18" class="node"><title>70</title>
<ellipse fill="none" stroke="black" cx="553.025" cy="-654.541" rx="18.2703" ry="18.2703"/>
<text text-anchor="middle" x="553.025" y="-652.341" font-family="Times New Roman,serif" font-size="9.00">70</text>
</g>
<!-- 1&#45;&gt;70 -->
<g id="edge68" class="edge"><title>1&#45;&gt;70</title>
<path fill="none" stroke="green" d="M346.962,-866.954C377.763,-852.653 466.219,-807.988 516.025,-745.696 530.912,-727.076 540.621,-701.641 546.341,-682.533"/>
<polygon fill="green" stroke="green" points="549.782,-683.227 549.116,-672.653 543.042,-681.334 549.782,-683.227"/>
</g>
<!-- 10 -->
<g id="node23" class="node"><title>10</title>
<ellipse fill="none" stroke="black" cx="186.025" cy="-581.772" rx="18.2703" ry="18.2703"/>
<text text-anchor="middle" x="186.025" y="-579.572" font-family="Times New Roman,serif" font-size="9.00">10</text>
</g>
<!-- 1&#45;&gt;10 -->
<g id="edge3" class="edge"><title>1&#45;&gt;10</title>
<path fill="none" stroke="green" d="M325.275,-870.645C287.45,-866.166 161.517,-849.13 138.025,-818.465 88.7497,-754.144 109.015,-711.811 138.025,-636.156 143.307,-622.382 153.965,-609.934 163.899,-600.529"/>
<polygon fill="green" stroke="green" points="166.457,-602.938 171.595,-593.672 161.8,-597.711 166.457,-602.938"/>
</g>
<!-- 7 -->
<g id="node25" class="node"><title>7</title>
<ellipse fill="none" stroke="black" cx="906.025" cy="-581.772" rx="14.7" ry="14.7"/>
<text text-anchor="middle" x="906.025" y="-579.572" font-family="Times New Roman,serif" font-size="9.00">7</text>
</g>
<!-- 1&#45;&gt;7 -->
<g id="edge47" class="edge"><title>1&#45;&gt;7</title>
<path fill="none" stroke="red" d="M346.674,-871.631C408.87,-870.205 725.333,-860.937 811.025,-818.465 891.167,-778.744 916.747,-755.951 950.025,-672.926 956.105,-657.757 955.547,-651.537 950.025,-636.156 944.902,-621.885 934.13,-608.706 924.528,-599.013"/>
<polygon fill="red" stroke="red" points="926.86,-596.401 917.208,-592.033 922.029,-601.467 926.86,-596.401"/>
</g>
<!-- 2 -->
<g id="node2" class="node"><title>2</title>
<polygon fill="lightgray" stroke="black" points="398.525,-1018 377.525,-1018 377.525,-1000 398.525,-1000 398.525,-1018"/>
<text text-anchor="middle" x="388.025" y="-1006.8" font-family="Times New Roman,serif" font-size="9.00">2</text>
</g>
<!-- 5 -->
<g id="node5" class="node"><title>5</title>
<polygon fill="lightblue" stroke="black" points="558.525,-18 537.525,-18 537.525,-0 558.525,-0 558.525,-18"/>
<text text-anchor="middle" x="548.025" y="-6.8" font-family="Times New Roman,serif" font-size="9.00">5</text>
</g>
<!-- 2&#45;&gt;5 -->
<g id="edge11" class="edge"><title>2&#45;&gt;5</title>
<path fill="none" stroke="green" d="M377.515,-1008.13C324.653,-1008.54 88.2042,-1007.86 33.0251,-964.004 -0.376702,-937.454 0.0251135,-916.518 0.0251135,-873.85 0.0251135,-873.85 0.0251135,-873.85 0.0251135,-144.154 0.0251135,-33.5718 426.35,-13.6946 526.943,-10.5437"/>
<polygon fill="green" stroke="green" points="527.184,-14.0382 537.079,-10.2497 526.981,-7.04118 527.184,-14.0382"/>
</g>
<!-- 58 -->
<g id="node6" class="node"><title>58</title>
<ellipse fill="none" stroke="black" cx="1058.03" cy="-945.619" rx="18.2703" ry="18.2703"/>
<text text-anchor="middle" x="1058.03" y="-943.419" font-family="Times New Roman,serif" font-size="9.00">58</text>
</g>
<!-- 2&#45;&gt;58 -->
<g id="edge75" class="edge"><title>2&#45;&gt;58</title>
<path fill="none" stroke="red" d="M398.587,-1007.89C471.532,-1007.01 901.3,-1000.31 1026.03,-964.004 1028.67,-963.236 1031.33,-962.226 1033.94,-961.08"/>
<polygon fill="red" stroke="red" points="1035.63,-964.148 1042.98,-956.516 1032.48,-957.899 1035.63,-964.148"/>
</g>
<!-- 17 -->
<g id="node10" class="node"><title>17</title>
<ellipse fill="none" stroke="black" cx="830.025" cy="-727.311" rx="18.2703" ry="18.2703"/>
<text text-anchor="middle" x="830.025" y="-725.111" font-family="Times New Roman,serif" font-size="9.00">17</text>
</g>
<!-- 2&#45;&gt;17 -->
<g id="edge7" class="edge"><title>2&#45;&gt;17</title>
<path fill="none" stroke="red" d="M398.774,-1007.27C465.94,-1002.43 827.198,-972.799 892.025,-891.235 926.918,-847.333 878.816,-781.628 849.585,-748.683"/>
<polygon fill="red" stroke="red" points="851.946,-746.077 842.622,-741.046 846.773,-750.793 851.946,-746.077"/>
</g>
<!-- 36 -->
<g id="node13" class="node"><title>36</title>
<ellipse fill="none" stroke="black" cx="388.025" cy="-654.541" rx="18.2703" ry="18.2703"/>
<text text-anchor="middle" x="388.025" y="-652.341" font-family="Times New Roman,serif" font-size="9.00">36</text>
</g>
<!-- 2&#45;&gt;36 -->
<g id="edge45" class="edge"><title>2&#45;&gt;36</title>
<path fill="none" stroke="green" d="M388.025,-999.837C388.025,-978.9 388.025,-921.596 388.025,-873.85 388.025,-873.85 388.025,-873.85 388.025,-799.08 388.025,-758.864 388.025,-712.309 388.025,-683.39"/>
<polygon fill="green" stroke="green" points="391.525,-683.219 388.025,-673.219 384.525,-683.219 391.525,-683.219"/>
</g>
<!-- 8 -->
<g id="node22" class="node"><title>8</title>
<ellipse fill="none" stroke="black" cx="809.025" cy="-509.002" rx="14.7" ry="14.7"/>
<text text-anchor="middle" x="809.025" y="-506.802" font-family="Times New Roman,serif" font-size="9.00">8</text>
</g>
<!-- 2&#45;&gt;8 -->
<g id="edge29" class="edge"><title>2&#45;&gt;8</title>
<path fill="none" stroke="red" d="M398.598,-1008.09C481.904,-1008.7 1030.8,-1010.9 1085.03,-964.004 1116,-937.217 1104.03,-914.799 1104.03,-873.85 1104.03,-873.85 1104.03,-873.85 1104.03,-653.541 1104.03,-534.06 905.937,-514.01 834.404,-510.665"/>
<polygon fill="red" stroke="red" points="834.189,-507.154 824.06,-510.259 833.915,-514.149 834.189,-507.154"/>
</g>
<!-- 2&#45;&gt;10 -->
<g id="edge8" class="edge"><title>2&#45;&gt;10</title>
<path fill="none" stroke="green" d="M377.393,-1008.33C326.05,-1009.68 104.497,-1012.59 62.0251,-964.004 -35.4101,-852.535 43.6643,-762.388 121.025,-636.156 130.977,-619.917 147.661,-606.368 161.634,-596.983"/>
<polygon fill="green" stroke="green" points="163.783,-599.763 170.326,-591.43 160.015,-593.864 163.783,-599.763"/>
</g>
<!-- 11 -->
<g id="node38" class="node"><title>11</title>
<ellipse fill="none" stroke="black" cx="502.025" cy="-72.3848" rx="18.2703" ry="18.2703"/>
<text text-anchor="middle" x="502.025" y="-70.1848" font-family="Times New Roman,serif" font-size="9.00">11</text>
</g>
<!-- 2&#45;&gt;11 -->
<g id="edge17" class="edge"><title>2&#45;&gt;11</title>
<path fill="none" stroke="green" d="M377.409,-1004.41C335.227,-989.525 178.587,-928.232 113.025,-818.465 48.1496,-709.846 35.8095,-520.941 132.025,-345.078 211.321,-200.142 404.819,-111.777 475.563,-83.404"/>
<polygon fill="green" stroke="green" points="477.061,-86.5757 485.082,-79.6535 474.495,-80.063 477.061,-86.5757"/>
</g>
<!-- 3 -->
<g id="node3" class="node"><title>3</title>
<polygon fill="lightgray" stroke="black" points="883.525,-881.85 862.525,-881.85 862.525,-863.85 883.525,-863.85 883.525,-881.85"/>
<text text-anchor="middle" x="873.025" y="-870.65" font-family="Times New Roman,serif" font-size="9.00">3</text>
</g>
<!-- 3&#45;&gt;5 -->
<g id="edge1" class="edge"><title>3&#45;&gt;5</title>
<path fill="none" stroke="green" d="M883.57,-867.101C933.304,-843.907 1142.03,-737.363 1142.03,-582.772 1142.03,-582.772 1142.03,-582.772 1142.03,-144.154 1142.03,-24.037 674.027,-11.4607 568.843,-10.151"/>
<polygon fill="green" stroke="green" points="568.622,-6.64869 558.587,-10.0462 568.551,-13.6483 568.622,-6.64869"/>
</g>
<!-- 35 -->
<g id="node8" class="node"><title>35</title>
<ellipse fill="none" stroke="black" cx="784.025" cy="-800.08" rx="18.2703" ry="18.2703"/>
<text text-anchor="middle" x="784.025" y="-797.88" font-family="Times New Roman,serif" font-size="9.00">35</text>
</g>
<!-- 3&#45;&gt;35 -->
<g id="edge41" class="edge"><title>3&#45;&gt;35</title>
<path fill="none" stroke="green" d="M862.816,-863.732C849.161,-852.874 824.576,-833.325 806.488,-818.942"/>
<polygon fill="green" stroke="green" points="808.213,-815.842 798.207,-812.358 803.856,-821.321 808.213,-815.842"/>
</g>
<!-- 26 -->
<g id="node12" class="node"><title>26</title>
<ellipse fill="none" stroke="black" cx="906.025" cy="-654.541" rx="18.2703" ry="18.2703"/>
<text text-anchor="middle" x="906.025" y="-652.341" font-family="Times New Roman,serif" font-size="9.00">26</text>
</g>
<!-- 3&#45;&gt;26 -->
<g id="edge27" class="edge"><title>3&#45;&gt;26</title>
<path fill="none" stroke="red" d="M874.278,-863.634C878.786,-834.085 894.307,-732.348 901.848,-682.922"/>
<polygon fill="red" stroke="red" points="905.323,-683.35 903.371,-672.937 898.403,-682.295 905.323,-683.35"/>
</g>
<!-- 3&#45;&gt;8 -->
<g id="edge4" class="edge"><title>3&#45;&gt;8</title>
<path fill="none" stroke="red" d="M880.456,-863.579C906.272,-833.832 989.302,-729.12 967.025,-636.156 958.57,-600.873 956.375,-588.329 930.025,-563.387 902.472,-537.306 860.078,-522.653 833.48,-515.54"/>
<polygon fill="red" stroke="red" points="834.018,-512.067 823.466,-513.02 832.309,-518.855 834.018,-512.067"/>
</g>
<!-- 3&#45;&gt;10 -->
<g id="edge10" class="edge"><title>3&#45;&gt;10</title>
<path fill="none" stroke="red" d="M862.204,-868.089C849.951,-864.003 829.31,-857.634 811.025,-854.465 584.947,-815.288 513.9,-890.415 296.025,-818.465 238.948,-799.616 210.913,-798.408 182.025,-745.696 158.488,-702.747 168.609,-643.393 177.632,-609.453"/>
<polygon fill="red" stroke="red" points="181.014,-610.357 180.359,-599.782 174.277,-608.457 181.014,-610.357"/>
</g>
<!-- 6 -->
<g id="node24" class="node"><title>6</title>
<ellipse fill="none" stroke="black" cx="567.025" cy="-581.772" rx="14.7" ry="14.7"/>
<text text-anchor="middle" x="567.025" y="-579.572" font-family="Times New Roman,serif" font-size="9.00">6</text>
</g>
<!-- 3&#45;&gt;6 -->
<g id="edge12" class="edge"><title>3&#45;&gt;6</title>
<path fill="none" stroke="red" d="M862.214,-868.726C840.582,-862.101 791.128,-845.032 757.025,-818.465 674.94,-754.519 606.185,-648.521 579.233,-603.754"/>
<polygon fill="red" stroke="red" points="582.105,-601.736 573.987,-594.929 576.089,-605.314 582.105,-601.736"/>
</g>
<!-- 4 -->
<g id="node4" class="node"><title>4</title>
<polygon fill="lightgray" stroke="black" points="445.525,-736.311 424.525,-736.311 424.525,-718.311 445.525,-718.311 445.525,-736.311"/>
<text text-anchor="middle" x="435.025" y="-725.111" font-family="Times New Roman,serif" font-size="9.00">4</text>
</g>
<!-- 4&#45;&gt;5 -->
<g id="edge2" class="edge"><title>4&#45;&gt;5</title>
<path fill="none" stroke="green" d="M424.262,-721.691C407.855,-714.064 376.834,-697.226 361.025,-672.926 338.695,-638.602 342.025,-623.72 342.025,-582.772 342.025,-582.772 342.025,-582.772 342.025,-144.154 342.025,-56.4799 474.673,-23.1288 527.083,-13.3733"/>
<polygon fill="green" stroke="green" points="527.993,-16.7672 537.24,-11.5948 526.786,-9.87213 527.993,-16.7672"/>
</g>
<!-- 50 -->
<g id="node9" class="node"><title>50</title>
<ellipse fill="none" stroke="black" cx="498.025" cy="-654.541" rx="18.2703" ry="18.2703"/>
<text text-anchor="middle" x="498.025" y="-652.341" font-family="Times New Roman,serif" font-size="9.00">50</text>
</g>
<!-- 4&#45;&gt;50 -->
<g id="edge40" class="edge"><title>4&#45;&gt;50</title>
<path fill="none" stroke="red" d="M442.252,-718.193C451.222,-708.116 466.855,-690.556 479.292,-676.585"/>
<polygon fill="red" stroke="red" points="482.136,-678.654 486.171,-668.858 476.907,-674 482.136,-678.654"/>
</g>
<!-- 4&#45;&gt;36 -->
<g id="edge30" class="edge"><title>4&#45;&gt;36</title>
<path fill="none" stroke="red" d="M429.634,-718.193C423.265,-708.603 412.393,-692.233 403.36,-678.631"/>
<polygon fill="red" stroke="red" points="406.203,-676.585 397.755,-670.191 400.371,-680.458 406.203,-676.585"/>
</g>
<!-- 62 -->
<g id="node14" class="node"><title>62</title>
<ellipse fill="none" stroke="black" cx="683.025" cy="-654.541" rx="18.2703" ry="18.2703"/>
<text text-anchor="middle" x="683.025" y="-652.341" font-family="Times New Roman,serif" font-size="9.00">62</text>
</g>
<!-- 4&#45;&gt;62 -->
<g id="edge53" class="edge"><title>4&#45;&gt;62</title>
<path fill="none" stroke="red" d="M445.595,-718.33C450.399,-715.018 456.285,-711.384 462.025,-708.926 528.09,-680.64 611.97,-665.585 654.907,-659.249"/>
<polygon fill="red" stroke="red" points="655.499,-662.7 664.905,-657.823 654.511,-655.77 655.499,-662.7"/>
</g>
<!-- 20 -->
<g id="node15" class="node"><title>20</title>
<ellipse fill="none" stroke="black" cx="443.025" cy="-654.541" rx="18.2703" ry="18.2703"/>
<text text-anchor="middle" x="443.025" y="-652.341" font-family="Times New Roman,serif" font-size="9.00">20</text>
</g>
<!-- 4&#45;&gt;20 -->
<g id="edge55" class="edge"><title>4&#45;&gt;20</title>
<path fill="none" stroke="red" d="M435.943,-718.193C436.911,-709.627 438.491,-695.651 439.913,-683.071"/>
<polygon fill="red" stroke="red" points="443.408,-683.311 441.054,-672.981 436.452,-682.524 443.408,-683.311"/>
</g>
<!-- 4&#45;&gt;10 -->
<g id="edge32" class="edge"><title>4&#45;&gt;10</title>
<path fill="none" stroke="red" d="M424.511,-721.506C405.119,-712.547 362.549,-692.429 328.025,-672.926 285.309,-648.794 237.5,-617.507 209.682,-598.85"/>
<polygon fill="red" stroke="red" points="211.299,-595.72 201.05,-593.036 207.388,-601.525 211.299,-595.72"/>
</g>
<!-- 78 -->
<g id="node7" class="node"><title>78</title>
<ellipse fill="none" stroke="black" cx="784.025" cy="-872.85" rx="18.2703" ry="18.2703"/>
<text text-anchor="middle" x="784.025" y="-870.65" font-family="Times New Roman,serif" font-size="9.00">78</text>
</g>
<!-- 58&#45;&gt;78 -->
<g id="edge79" class="edge"><title>58&#45;&gt;78</title>
<path fill="none" stroke="green" d="M1040.47,-940.085C994.086,-928.105 867.999,-895.539 811.755,-881.012"/>
<polygon fill="green" stroke="green" points="812.348,-877.55 801.79,-878.438 810.597,-884.328 812.348,-877.55"/>
</g>
<!-- 52 -->
<g id="node19" class="node"><title>52</title>
<ellipse fill="none" stroke="black" cx="855.025" cy="-581.772" rx="18.2703" ry="18.2703"/>
<text text-anchor="middle" x="855.025" y="-579.572" font-family="Times New Roman,serif" font-size="9.00">52</text>
</g>
<!-- 58&#45;&gt;52 -->
<g id="edge83" class="edge"><title>58&#45;&gt;52</title>
<path fill="none" stroke="red" d="M1059.64,-926.959C1061.98,-899.891 1066.03,-846.505 1066.03,-801.08 1066.03,-801.08 1066.03,-801.08 1066.03,-726.311 1066.03,-720.697 933.721,-633.97 878.644,-598.11"/>
<polygon fill="red" stroke="red" points="880.491,-595.135 870.2,-592.616 876.673,-601.003 880.491,-595.135"/>
</g>
<!-- 78&#45;&gt;35 -->
<g id="edge80" class="edge"><title>78&#45;&gt;35</title>
<path fill="none" stroke="green" d="M784.025,-854.356C784.025,-846.674 784.025,-837.465 784.025,-828.881"/>
<polygon fill="green" stroke="green" points="787.525,-828.864 784.025,-818.864 780.525,-828.864 787.525,-828.864"/>
</g>
<!-- 78&#45;&gt;50 -->
<g id="edge85" class="edge"><title>78&#45;&gt;50</title>
<path fill="none" stroke="green" d="M765.53,-869.343C733.82,-864.303 668.139,-850.554 623.025,-818.465 570.977,-781.444 530.558,-716.446 510.983,-680.761"/>
<polygon fill="green" stroke="green" points="513.836,-678.675 506.022,-671.521 507.669,-681.987 513.836,-678.675"/>
</g>
<!-- 35&#45;&gt;17 -->
<g id="edge28" class="edge"><title>35&#45;&gt;17</title>
<path fill="none" stroke="green" d="M793.781,-784.072C799.879,-774.689 807.863,-762.407 814.784,-751.758"/>
<polygon fill="green" stroke="green" points="817.768,-753.589 820.284,-743.298 811.899,-749.775 817.768,-753.589"/>
</g>
<!-- 35&#45;&gt;8 -->
<g id="edge70" class="edge"><title>35&#45;&gt;8</title>
<path fill="none" stroke="green" d="M785.551,-781.432C789.845,-731.786 802.034,-590.846 806.941,-534.106"/>
<polygon fill="green" stroke="green" points="810.446,-534.197 807.82,-523.933 803.472,-533.594 810.446,-534.197"/>
</g>
<!-- 60 -->
<g id="node26" class="node"><title>60</title>
<ellipse fill="none" stroke="black" cx="670.025" cy="-581.772" rx="18.2703" ry="18.2703"/>
<text text-anchor="middle" x="670.025" y="-579.572" font-family="Times New Roman,serif" font-size="9.00">60</text>
</g>
<!-- 35&#45;&gt;60 -->
<g id="edge51" class="edge"><title>35&#45;&gt;60</title>
<path fill="none" stroke="green" d="M777.803,-782.304C766.296,-752.089 740.103,-686.944 710.025,-636.156 703.519,-625.17 695.198,-613.745 687.832,-604.297"/>
<polygon fill="green" stroke="green" points="690.384,-601.885 681.415,-596.246 684.91,-606.247 690.384,-601.885"/>
</g>
<!-- 18 -->
<g id="node33" class="node"><title>18</title>
<ellipse fill="none" stroke="black" cx="276.025" cy="-363.463" rx="18.2703" ry="18.2703"/>
<text text-anchor="middle" x="276.025" y="-361.263" font-family="Times New Roman,serif" font-size="9.00">18</text>
</g>
<!-- 35&#45;&gt;18 -->
<g id="edge38" class="edge"><title>35&#45;&gt;18</title>
<path fill="none" stroke="red" d="M765.589,-798.049C673.313,-792.399 266.025,-761.459 266.025,-655.541 266.025,-655.541 266.025,-655.541 266.025,-580.772 266.025,-512.787 271.015,-432.912 273.945,-391.87"/>
<polygon fill="red" stroke="red" points="277.441,-392.062 274.676,-381.834 270.459,-391.553 277.441,-392.062"/>
</g>
<!-- 81 -->
<g id="node16" class="node"><title>81</title>
<ellipse fill="none" stroke="black" cx="851.025" cy="-654.541" rx="18.2703" ry="18.2703"/>
<text text-anchor="middle" x="851.025" y="-652.341" font-family="Times New Roman,serif" font-size="9.00">81</text>
</g>
<!-- 17&#45;&gt;81 -->
<g id="edge72" class="edge"><title>17&#45;&gt;81</title>
<path fill="none" stroke="red" d="M835.002,-709.539C837.399,-701.462 840.333,-691.575 843.032,-682.479"/>
<polygon fill="red" stroke="red" points="846.449,-683.266 845.938,-672.684 839.738,-681.275 846.449,-683.266"/>
</g>
<!-- 40 -->
<g id="node21" class="node"><title>40</title>
<ellipse fill="none" stroke="black" cx="725.025" cy="-581.772" rx="18.2703" ry="18.2703"/>
<text text-anchor="middle" x="725.025" y="-579.572" font-family="Times New Roman,serif" font-size="9.00">40</text>
</g>
<!-- 17&#45;&gt;40 -->
<g id="edge63" class="edge"><title>17&#45;&gt;40</title>
<path fill="none" stroke="red" d="M819.573,-712.023C801.255,-686.981 763.227,-634.995 741.393,-605.147"/>
<polygon fill="red" stroke="red" points="744.163,-603.006 735.435,-597.002 738.514,-607.139 744.163,-603.006"/>
</g>
<!-- 17&#45;&gt;7 -->
<g id="edge69" class="edge"><title>17&#45;&gt;7</title>
<path fill="none" stroke="red" d="M845.929,-717.555C851.051,-714.766 856.763,-711.689 862.025,-708.926 893.35,-692.48 914.509,-703.074 933.025,-672.926 946.619,-650.791 932.915,-621.378 920.576,-602.264"/>
<polygon fill="red" stroke="red" points="923.3,-600.048 914.754,-593.785 917.529,-604.01 923.3,-600.048"/>
</g>
<!-- 12 -->
<g id="node27" class="node"><title>12</title>
<ellipse fill="none" stroke="black" cx="464.025" cy="-509.002" rx="18.2703" ry="18.2703"/>
<text text-anchor="middle" x="464.025" y="-506.802" font-family="Times New Roman,serif" font-size="9.00">12</text>
</g>
<!-- 17&#45;&gt;12 -->
<g id="edge61" class="edge"><title>17&#45;&gt;12</title>
<path fill="none" stroke="red" d="M812.149,-722.539C779.946,-715.375 710.473,-698.221 656.025,-672.926 601.851,-647.758 588.26,-639.17 543.025,-600.156 519.109,-579.53 495.786,-551.677 480.758,-532.413"/>
<polygon fill="red" stroke="red" points="483.333,-530.02 474.464,-524.224 477.782,-534.285 483.333,-530.02"/>
</g>
<!-- 83 -->
<g id="node17" class="node"><title>83</title>
<ellipse fill="none" stroke="black" cx="489.025" cy="-727.311" rx="18.2703" ry="18.2703"/>
<text text-anchor="middle" x="489.025" y="-725.111" font-family="Times New Roman,serif" font-size="9.00">83</text>
</g>
<!-- 30&#45;&gt;83 -->
<g id="edge77" class="edge"><title>30&#45;&gt;83</title>
<path fill="none" stroke="green" d="M340.153,-792.567C365.337,-782.886 413.733,-763.882 454.025,-745.696 457.277,-744.228 460.671,-742.629 464.01,-741.015"/>
<polygon fill="green" stroke="green" points="465.694,-744.087 473.114,-736.524 462.598,-737.809 465.694,-744.087"/>
</g>
<!-- 33 -->
<g id="node20" class="node"><title>33</title>
<ellipse fill="none" stroke="black" cx="209.025" cy="-727.311" rx="18.2703" ry="18.2703"/>
<text text-anchor="middle" x="209.025" y="-725.111" font-family="Times New Roman,serif" font-size="9.00">33</text>
</g>
<!-- 30&#45;&gt;33 -->
<g id="edge59" class="edge"><title>30&#45;&gt;33</title>
<path fill="none" stroke="green" d="M307.651,-789.536C288.528,-777.665 255.661,-757.262 233.165,-743.296"/>
<polygon fill="green" stroke="green" points="234.862,-740.23 224.52,-737.93 231.17,-746.178 234.862,-740.23"/>
</g>
<!-- 14 -->
<g id="node29" class="node"><title>14</title>
<ellipse fill="none" stroke="black" cx="464.025" cy="-436.233" rx="18.2703" ry="18.2703"/>
<text text-anchor="middle" x="464.025" y="-434.033" font-family="Times New Roman,serif" font-size="9.00">14</text>
</g>
<!-- 30&#45;&gt;14 -->
<g id="edge46" class="edge"><title>30&#45;&gt;14</title>
<path fill="none" stroke="green" d="M325.73,-781.575C333.869,-732.642 361.339,-591.431 421.025,-490.617 427.778,-479.212 436.794,-467.626 444.825,-458.176"/>
<polygon fill="green" stroke="green" points="447.606,-460.312 451.549,-450.478 442.334,-455.707 447.606,-460.312"/>
</g>
<!-- 26&#45;&gt;52 -->
<g id="edge57" class="edge"><title>26&#45;&gt;52</title>
<path fill="none" stroke="red" d="M895.705,-639.22C888.723,-629.532 879.354,-616.531 871.367,-605.449"/>
<polygon fill="red" stroke="red" points="874.016,-603.138 865.33,-597.072 868.337,-607.231 874.016,-603.138"/>
</g>
<!-- 26&#45;&gt;7 -->
<g id="edge62" class="edge"><title>26&#45;&gt;7</title>
<path fill="none" stroke="green" d="M906.025,-636.048C906.025,-627.245 906.025,-616.437 906.025,-606.862"/>
<polygon fill="green" stroke="green" points="909.525,-606.748 906.025,-596.748 902.525,-606.748 909.525,-606.748"/>
</g>
<!-- 26&#45;&gt;11 -->
<g id="edge76" class="edge"><title>26&#45;&gt;11</title>
<path fill="none" stroke="green" d="M890.817,-643.645C869.583,-629.751 833.07,-605.549 828.025,-600.156 802.359,-572.725 800.711,-561.522 785.025,-527.387 749.289,-449.622 763.443,-420.516 723.025,-345.078 684.479,-273.133 662.397,-262.965 611.025,-199.539 580.418,-161.75 543.038,-119.226 520.957,-94.4583"/>
<polygon fill="green" stroke="green" points="523.361,-91.8956 514.088,-86.7719 518.142,-96.5603 523.361,-91.8956"/>
</g>
<!-- 36&#45;&gt;40 -->
<g id="edge84" class="edge"><title>36&#45;&gt;40</title>
<path fill="none" stroke="green" d="M402.535,-642.904C406.707,-640.307 411.389,-637.805 416.025,-636.156 534.663,-593.986 578.387,-642.327 697.025,-600.156 698.474,-599.641 699.927,-599.043 701.368,-598.384"/>
<polygon fill="green" stroke="green" points="703.404,-601.261 710.516,-593.408 700.059,-595.112 703.404,-601.261"/>
</g>
<!-- 36&#45;&gt;10 -->
<g id="edge31" class="edge"><title>36&#45;&gt;10</title>
<path fill="none" stroke="red" d="M370.803,-647.507C335.546,-635.156 254.929,-606.912 212.794,-592.15"/>
<polygon fill="red" stroke="red" points="213.799,-588.793 203.204,-588.79 211.484,-595.4 213.799,-588.793"/>
</g>
<!-- 36&#45;&gt;14 -->
<g id="edge48" class="edge"><title>36&#45;&gt;14</title>
<path fill="none" stroke="red" d="M392.08,-636.556C399.473,-606.555 416.308,-542.456 437.025,-490.617 440.875,-480.985 445.83,-470.743 450.443,-461.833"/>
<polygon fill="red" stroke="red" points="453.651,-463.254 455.244,-452.78 447.467,-459.974 453.651,-463.254"/>
</g>
<!-- 62&#45;&gt;7 -->
<g id="edge54" class="edge"><title>62&#45;&gt;7</title>
<path fill="none" stroke="red" d="M701.086,-650.958C736.974,-645.346 819.213,-630.073 882.025,-600.156 883.419,-599.493 884.815,-598.746 886.195,-597.944"/>
<polygon fill="red" stroke="red" points="888.473,-600.632 894.845,-592.167 884.585,-594.811 888.473,-600.632"/>
</g>
<!-- 62&#45;&gt;60 -->
<g id="edge82" class="edge"><title>62&#45;&gt;60</title>
<path fill="none" stroke="green" d="M679.878,-636.41C678.431,-628.53 676.678,-618.987 675.054,-610.148"/>
<polygon fill="green" stroke="green" points="678.483,-609.44 673.233,-600.237 671.598,-610.705 678.483,-609.44"/>
</g>
<!-- 9 -->
<g id="node34" class="node"><title>9</title>
<ellipse fill="none" stroke="black" cx="525.025" cy="-145.154" rx="14.7" ry="14.7"/>
<text text-anchor="middle" x="525.025" y="-142.954" font-family="Times New Roman,serif" font-size="9.00">9</text>
</g>
<!-- 62&#45;&gt;9 -->
<g id="edge65" class="edge"><title>62&#45;&gt;9</title>
<path fill="none" stroke="red" d="M670.707,-640.55C661.703,-630.34 649.907,-615.347 643.025,-600.156 626.127,-562.857 624.025,-550.951 624.025,-510.002 624.025,-510.002 624.025,-510.002 624.025,-289.693 624.025,-234.313 573.468,-184.782 544.612,-161.022"/>
<polygon fill="red" stroke="red" points="546.768,-158.265 536.77,-154.758 542.399,-163.734 546.768,-158.265"/>
</g>
<!-- 20&#45;&gt;6 -->
<g id="edge56" class="edge"><title>20&#45;&gt;6</title>
<path fill="none" stroke="red" d="M458.349,-643.843C462.443,-641.302 466.882,-638.593 471.025,-636.156 496.198,-621.354 525.604,-605.159 545.173,-594.534"/>
<polygon fill="red" stroke="red" points="547.052,-597.497 554.181,-589.659 543.72,-591.341 547.052,-597.497"/>
</g>
<!-- 20&#45;&gt;12 -->
<g id="edge81" class="edge"><title>20&#45;&gt;12</title>
<path fill="none" stroke="green" d="M445.558,-636.227C449.153,-611.656 455.77,-566.426 460.03,-537.308"/>
<polygon fill="green" stroke="green" points="463.498,-537.779 461.483,-527.378 456.572,-536.766 463.498,-537.779"/>
</g>
<!-- 81&#45;&gt;52 -->
<g id="edge73" class="edge"><title>81&#45;&gt;52</title>
<path fill="none" stroke="red" d="M852.014,-636.048C852.448,-628.365 852.969,-619.156 853.454,-610.572"/>
<polygon fill="red" stroke="red" points="856.95,-610.737 854.02,-600.556 849.961,-610.342 856.95,-610.737"/>
</g>
<!-- 83&#45;&gt;70 -->
<g id="edge78" class="edge"><title>83&#45;&gt;70</title>
<path fill="none" stroke="red" d="M501.063,-713C510.36,-702.719 523.399,-688.301 534.09,-676.479"/>
<polygon fill="red" stroke="red" points="536.93,-678.557 541.041,-668.793 531.738,-673.862 536.93,-678.557"/>
</g>
<!-- 70&#45;&gt;6 -->
<g id="edge74" class="edge"><title>70&#45;&gt;6</title>
<path fill="none" stroke="green" d="M556.414,-636.41C558.197,-627.398 560.41,-616.21 562.353,-606.387"/>
<polygon fill="green" stroke="green" points="565.815,-606.922 564.323,-596.432 558.948,-605.563 565.815,-606.922"/>
</g>
<!-- 52&#45;&gt;8 -->
<g id="edge58" class="edge"><title>52&#45;&gt;8</title>
<path fill="none" stroke="red" d="M845.27,-565.763C838.611,-555.518 829.704,-541.817 822.387,-530.559"/>
<polygon fill="red" stroke="red" points="825.317,-528.645 816.933,-522.168 819.448,-532.46 825.317,-528.645"/>
</g>
<!-- 33&#45;&gt;10 -->
<g id="edge60" class="edge"><title>33&#45;&gt;10</title>
<path fill="none" stroke="green" d="M206.251,-708.997C202.314,-684.425 195.066,-639.195 190.4,-610.078"/>
<polygon fill="green" stroke="green" points="193.847,-609.467 188.809,-600.147 186.936,-610.575 193.847,-609.467"/>
</g>
<!-- 40&#45;&gt;8 -->
<g id="edge64" class="edge"><title>40&#45;&gt;8</title>
<path fill="none" stroke="red" d="M738.896,-569.085C752.893,-557.293 774.604,-539.002 790.16,-525.896"/>
<polygon fill="red" stroke="red" points="792.689,-528.342 798.081,-519.222 788.179,-522.989 792.689,-528.342"/>
</g>
<!-- 8&#45;&gt;14 -->
<g id="edge50" class="edge"><title>8&#45;&gt;14</title>
<path fill="none" stroke="red" d="M794.64,-505.051C742.36,-494.327 561.84,-457.297 491.959,-442.963"/>
<polygon fill="red" stroke="red" points="492.603,-439.522 482.104,-440.941 491.197,-446.379 492.603,-439.522"/>
</g>
<!-- 16 -->
<g id="node36" class="node"><title>16</title>
<ellipse fill="none" stroke="black" cx="809.025" cy="-290.693" rx="18.2703" ry="18.2703"/>
<text text-anchor="middle" x="809.025" y="-288.493" font-family="Times New Roman,serif" font-size="9.00">16</text>
</g>
<!-- 8&#45;&gt;16 -->
<g id="edge66" class="edge"><title>8&#45;&gt;16</title>
<path fill="none" stroke="green" d="M809.025,-494.142C809.025,-459.02 809.025,-366.009 809.025,-319.29"/>
<polygon fill="green" stroke="green" points="812.525,-319.264 809.025,-309.265 805.525,-319.265 812.525,-319.264"/>
</g>
<!-- 22 -->
<g id="node39" class="node"><title>22</title>
<ellipse fill="none" stroke="black" cx="670.025" cy="-436.233" rx="18.2703" ry="18.2703"/>
<text text-anchor="middle" x="670.025" y="-434.033" font-family="Times New Roman,serif" font-size="9.00">22</text>
</g>
<!-- 8&#45;&gt;22 -->
<g id="edge42" class="edge"><title>8&#45;&gt;22</title>
<path fill="none" stroke="green" d="M796.197,-501.471C773.274,-489.8 724.897,-465.17 695.154,-450.027"/>
<polygon fill="green" stroke="green" points="696.708,-446.89 686.208,-445.472 693.532,-453.128 696.708,-446.89"/>
</g>
<!-- 10&#45;&gt;5 -->
<g id="edge26" class="edge"><title>10&#45;&gt;5</title>
<path fill="none" stroke="red" d="M178.501,-564.817C166.914,-538.74 146.025,-485.091 146.025,-437.233 146.025,-437.233 146.025,-437.233 146.025,-144.154 146.025,-67.1335 221.923,-81.0837 294.025,-54 376.888,-22.8742 483.324,-13.58 527.448,-10.9624"/>
<polygon fill="red" stroke="red" points="527.701,-14.454 537.498,-10.4207 527.324,-7.46416 527.701,-14.454"/>
</g>
<!-- 25 -->
<g id="node28" class="node"><title>25</title>
<ellipse fill="none" stroke="black" cx="230.025" cy="-436.233" rx="18.2703" ry="18.2703"/>
<text text-anchor="middle" x="230.025" y="-434.033" font-family="Times New Roman,serif" font-size="9.00">25</text>
</g>
<!-- 10&#45;&gt;25 -->
<g id="edge34" class="edge"><title>10&#45;&gt;25</title>
<path fill="none" stroke="green" d="M191.159,-564.025C198.702,-539.416 212.858,-493.237 221.844,-463.921"/>
<polygon fill="green" stroke="green" points="225.203,-464.904 224.788,-454.317 218.511,-462.853 225.203,-464.904"/>
</g>
<!-- 10&#45;&gt;18 -->
<g id="edge5" class="edge"><title>10&#45;&gt;18</title>
<path fill="none" stroke="red" d="M183.463,-563.209C179.777,-531.749 176.098,-464.695 203.025,-417.848 213.752,-399.186 233.925,-385.202 250.351,-376.237"/>
<polygon fill="red" stroke="red" points="252.194,-379.225 259.489,-371.542 248.995,-372.999 252.194,-379.225"/>
</g>
<!-- 10&#45;&gt;22 -->
<g id="edge49" class="edge"><title>10&#45;&gt;22</title>
<path fill="none" stroke="red" d="M202.837,-573.94C242.882,-557.844 347.269,-516.917 437.025,-490.617 510.056,-469.218 598.017,-451.084 642.045,-442.517"/>
<polygon fill="red" stroke="red" points="642.849,-445.926 652.006,-440.597 641.524,-439.053 642.849,-445.926"/>
</g>
<!-- 6&#45;&gt;12 -->
<g id="edge16" class="edge"><title>6&#45;&gt;12</title>
<path fill="none" stroke="red" d="M555.21,-572.653C538.75,-561.344 508.566,-540.606 487.451,-526.097"/>
<polygon fill="red" stroke="red" points="489.247,-523.085 479.023,-520.307 485.283,-528.854 489.247,-523.085"/>
</g>
<!-- 6&#45;&gt;14 -->
<g id="edge21" class="edge"><title>6&#45;&gt;14</title>
<path fill="none" stroke="red" d="M558.596,-569.025C541.542,-545.259 502.68,-491.101 480.445,-460.115"/>
<polygon fill="red" stroke="red" points="483.057,-457.751 474.383,-451.667 477.37,-461.833 483.057,-457.751"/>
</g>
<!-- 6&#45;&gt;9 -->
<g id="edge13" class="edge"><title>6&#45;&gt;9</title>
<path fill="none" stroke="red" d="M563.972,-566.995C558.602,-541.516 548.025,-485.245 548.025,-437.233 548.025,-437.233 548.025,-437.233 548.025,-289.693 548.025,-246.95 537.958,-197.938 531.145,-169.66"/>
<polygon fill="red" stroke="red" points="534.527,-168.756 528.72,-159.893 527.733,-170.442 534.527,-168.756"/>
</g>
<!-- 6&#45;&gt;22 -->
<g id="edge25" class="edge"><title>6&#45;&gt;22</title>
<path fill="none" stroke="red" d="M575.454,-569.025C592.508,-545.259 631.371,-491.101 653.605,-460.115"/>
<polygon fill="red" stroke="red" points="656.681,-461.833 659.667,-451.667 650.993,-457.751 656.681,-461.833"/>
</g>
<!-- 7&#45;&gt;5 -->
<g id="edge19" class="edge"><title>7&#45;&gt;5</title>
<path fill="none" stroke="red" d="M904.9,-566.926C902.922,-541.334 899.025,-484.886 899.025,-437.233 899.025,-437.233 899.025,-437.233 899.025,-144.154 899.025,-97.218 883.149,-79.9295 844.025,-54 798.561,-23.8684 628.554,-13.5648 568.885,-10.8336"/>
<polygon fill="red" stroke="red" points="568.928,-7.33227 558.786,-10.3966 568.625,-14.3257 568.928,-7.33227"/>
</g>
<!-- 24 -->
<g id="node35" class="node"><title>24</title>
<ellipse fill="none" stroke="black" cx="852.025" cy="-217.924" rx="18.2703" ry="18.2703"/>
<text text-anchor="middle" x="852.025" y="-215.724" font-family="Times New Roman,serif" font-size="9.00">24</text>
</g>
<!-- 7&#45;&gt;24 -->
<g id="edge23" class="edge"><title>7&#45;&gt;24</title>
<path fill="none" stroke="red" d="M898.795,-568.581C885.165,-544.408 857.025,-488.317 857.025,-437.233 857.025,-437.233 857.025,-437.233 857.025,-362.463 857.025,-322.222 855.038,-275.674 853.569,-246.762"/>
<polygon fill="red" stroke="red" points="857.055,-246.399 853.037,-236.595 850.065,-246.765 857.055,-246.399"/>
</g>
<!-- 60&#45;&gt;22 -->
<g id="edge52" class="edge"><title>60&#45;&gt;22</title>
<path fill="none" stroke="green" d="M670.025,-563.171C670.025,-538.743 670.025,-494.297 670.025,-465.272"/>
<polygon fill="green" stroke="green" points="673.525,-464.977 670.025,-454.977 666.525,-464.977 673.525,-464.977"/>
</g>
<!-- 12&#45;&gt;14 -->
<g id="edge18" class="edge"><title>12&#45;&gt;14</title>
<path fill="none" stroke="red" d="M464.025,-490.508C464.025,-482.826 464.025,-473.617 464.025,-465.033"/>
<polygon fill="red" stroke="red" points="467.525,-465.016 464.025,-455.016 460.525,-465.016 467.525,-465.016"/>
</g>
<!-- 25&#45;&gt;18 -->
<g id="edge35" class="edge"><title>25&#45;&gt;18</title>
<path fill="none" stroke="red" d="M239.781,-420.224C245.879,-410.841 253.863,-398.559 260.784,-387.911"/>
<polygon fill="red" stroke="red" points="263.768,-389.742 266.284,-379.45 257.899,-385.927 263.768,-389.742"/>
</g>
<!-- 23 -->
<g id="node30" class="node"><title>23</title>
<ellipse fill="none" stroke="black" cx="464.025" cy="-363.463" rx="18.2703" ry="18.2703"/>
<text text-anchor="middle" x="464.025" y="-361.263" font-family="Times New Roman,serif" font-size="9.00">23</text>
</g>
<!-- 14&#45;&gt;23 -->
<g id="edge36" class="edge"><title>14&#45;&gt;23</title>
<path fill="none" stroke="red" d="M464.025,-417.739C464.025,-410.057 464.025,-400.847 464.025,-392.263"/>
<polygon fill="red" stroke="red" points="467.525,-392.247 464.025,-382.247 460.525,-392.247 467.525,-392.247"/>
</g>
<!-- 19 -->
<g id="node31" class="node"><title>19</title>
<ellipse fill="none" stroke="black" cx="483.025" cy="-290.693" rx="18.2703" ry="18.2703"/>
<text text-anchor="middle" x="483.025" y="-288.493" font-family="Times New Roman,serif" font-size="9.00">19</text>
</g>
<!-- 14&#45;&gt;19 -->
<g id="edge39" class="edge"><title>14&#45;&gt;19</title>
<path fill="none" stroke="red" d="M473.827,-420.548C480.114,-410.213 487.7,-395.79 491.025,-381.848 496.023,-360.894 493.373,-336.527 489.834,-318.413"/>
<polygon fill="red" stroke="red" points="493.234,-317.577 487.698,-308.543 486.392,-319.057 493.234,-317.577"/>
</g>
<!-- 14&#45;&gt;18 -->
<g id="edge71" class="edge"><title>14&#45;&gt;18</title>
<path fill="none" stroke="red" d="M447.01,-428.827C414.166,-416.464 341.819,-389.23 302.583,-374.46"/>
<polygon fill="red" stroke="red" points="303.729,-371.152 293.137,-370.905 301.263,-377.703 303.729,-371.152"/>
</g>
<!-- 38 -->
<g id="node37" class="node"><title>38</title>
<ellipse fill="none" stroke="black" cx="450.025" cy="-145.154" rx="18.2703" ry="18.2703"/>
<text text-anchor="middle" x="450.025" y="-142.954" font-family="Times New Roman,serif" font-size="9.00">38</text>
</g>
<!-- 14&#45;&gt;38 -->
<g id="edge86" class="edge"><title>14&#45;&gt;38</title>
<path fill="none" stroke="red" d="M454.223,-420.548C447.936,-410.213 440.35,-395.79 437.025,-381.848 419.415,-308.01 434.094,-217.633 443.556,-173.305"/>
<polygon fill="red" stroke="red" points="447.024,-173.835 445.769,-163.315 440.189,-172.321 447.024,-173.835"/>
</g>
<!-- 23&#45;&gt;19 -->
<g id="edge37" class="edge"><title>23&#45;&gt;19</title>
<path fill="none" stroke="green" d="M468.624,-345.332C470.795,-337.247 473.435,-327.413 475.86,-318.383"/>
<polygon fill="green" stroke="green" points="479.255,-319.233 478.468,-308.667 472.495,-317.417 479.255,-319.233"/>
</g>
<!-- 21 -->
<g id="node32" class="node"><title>21</title>
<ellipse fill="none" stroke="black" cx="502.025" cy="-217.924" rx="18.2703" ry="18.2703"/>
<text text-anchor="middle" x="502.025" y="-215.724" font-family="Times New Roman,serif" font-size="9.00">21</text>
</g>
<!-- 19&#45;&gt;21 -->
<g id="edge43" class="edge"><title>19&#45;&gt;21</title>
<path fill="none" stroke="red" d="M487.624,-272.562C489.795,-264.478 492.435,-254.643 494.86,-245.614"/>
<polygon fill="red" stroke="red" points="498.255,-246.463 497.468,-235.897 491.495,-244.648 498.255,-246.463"/>
</g>
<!-- 19&#45;&gt;9 -->
<g id="edge33" class="edge"><title>19&#45;&gt;9</title>
<path fill="none" stroke="red" d="M477.2,-273.095C471.649,-254.503 465.439,-223.798 475.025,-199.539 481.124,-184.105 494.026,-170.517 505.197,-160.912"/>
<polygon fill="red" stroke="red" points="507.693,-163.394 513.259,-154.379 503.286,-157.955 507.693,-163.394"/>
</g>
<!-- 21&#45;&gt;9 -->
<g id="edge44" class="edge"><title>21&#45;&gt;9</title>
<path fill="none" stroke="red" d="M507.476,-200.152C510.473,-190.93 514.237,-179.35 517.509,-169.281"/>
<polygon fill="red" stroke="red" points="520.927,-170.089 520.689,-159.497 514.269,-167.925 520.927,-170.089"/>
</g>
<!-- 18&#45;&gt;5 -->
<g id="edge6" class="edge"><title>18&#45;&gt;5</title>
<path fill="none" stroke="green" d="M278.791,-345.282C282.871,-318.404 290.025,-264.744 290.025,-218.924 290.025,-218.924 290.025,-218.924 290.025,-144.154 290.025,-100.672 294.342,-81.4982 328.025,-54 358.607,-29.0338 478.698,-16.0177 527.37,-11.6806"/>
<polygon fill="green" stroke="green" points="527.704,-15.1649 537.368,-10.8235 527.106,-8.19049 527.704,-15.1649"/>
</g>
<!-- 9&#45;&gt;5 -->
<g id="edge14" class="edge"><title>9&#45;&gt;5</title>
<path fill="none" stroke="green" d="M527.4,-130.303C531.578,-105.935 540.24,-55.41 544.899,-28.2366"/>
<polygon fill="green" stroke="green" points="548.385,-28.6126 546.625,-18.1649 541.486,-27.4297 548.385,-28.6126"/>
</g>
<!-- 9&#45;&gt;11 -->
<g id="edge15" class="edge"><title>9&#45;&gt;11</title>
<path fill="none" stroke="green" d="M520.699,-130.843C517.859,-122.105 514.047,-110.375 510.608,-99.7931"/>
<polygon fill="green" stroke="green" points="513.888,-98.5623 507.469,-90.1338 507.231,-100.726 513.888,-98.5623"/>
</g>
<!-- 24&#45;&gt;5 -->
<g id="edge24" class="edge"><title>24&#45;&gt;5</title>
<path fill="none" stroke="green" d="M854.036,-199.434C856.822,-165.927 857.577,-92.5933 817.025,-54 781.348,-20.0453 625.836,-12.2179 568.959,-10.4781"/>
<polygon fill="green" stroke="green" points="568.771,-6.97181 558.68,-10.1987 568.581,-13.9692 568.771,-6.97181"/>
</g>
<!-- 16&#45;&gt;5 -->
<g id="edge67" class="edge"><title>16&#45;&gt;5</title>
<path fill="none" stroke="green" d="M809.39,-272.173C809.29,-228.451 802.642,-113.773 739.025,-54 714.387,-30.8504 612.926,-17.1292 568.743,-12.1468"/>
<polygon fill="green" stroke="green" points="568.915,-8.64494 558.596,-11.0438 568.159,-15.604 568.915,-8.64494"/>
</g>
<!-- 38&#45;&gt;11 -->
<g id="edge87" class="edge"><title>38&#45;&gt;11</title>
<path fill="none" stroke="green" d="M460.548,-129.833C467.667,-120.145 477.219,-107.144 485.363,-96.0617"/>
<polygon fill="green" stroke="green" points="488.417,-97.8157 491.518,-87.6848 482.776,-93.6708 488.417,-97.8157"/>
</g>
<!-- 11&#45;&gt;5 -->
<g id="edge22" class="edge"><title>11&#45;&gt;5</title>
<path fill="none" stroke="green" d="M512.694,-57.1476C519.532,-48.0221 528.436,-36.1412 535.594,-26.5892"/>
<polygon fill="green" stroke="green" points="538.601,-28.4119 541.797,-18.3105 533,-24.2141 538.601,-28.4119"/>
</g>
<!-- 22&#45;&gt;5 -->
<g id="edge20" class="edge"><title>22&#45;&gt;5</title>
<path fill="none" stroke="red" d="M679.858,-420.447C695.678,-395.185 725.025,-341.598 725.025,-291.693 725.025,-291.693 725.025,-291.693 725.025,-144.154 725.025,-66.336 615.017,-27.8369 568.453,-15.0266"/>
<polygon fill="red" stroke="red" points="569.128,-11.5852 558.567,-12.434 567.352,-18.3563 569.128,-11.5852"/>
</g>
</g>
</svg>
