<?xml version="1.0" encoding="UTF-8" standalone="no"?>
<!DOCTYPE svg PUBLIC "-//W3C//DTD SVG 1.1//EN"
 "http://www.w3.org/Graphics/SVG/1.1/DTD/svg11.dtd">
<!-- Generated by graphviz version 2.38.0 (20140413.2041)
 -->
<!-- Title: %3 Pages: 1 -->
<svg width="1104pt" height="946pt"
 viewBox="0.00 0.00 1104.00 946.16" xmlns="http://www.w3.org/2000/svg" xmlns:xlink="http://www.w3.org/1999/xlink">
<g id="graph0" class="graph" transform="scale(1 1) rotate(0) translate(4 942.164)">
<title>%3</title>
<polygon fill="white" stroke="none" points="-4,4 -4,-942.164 1100,-942.164 1100,4 -4,4"/>
<!-- 1 -->
<g id="node1" class="node"><title>1</title>
<polygon fill="lightgray" stroke="black" points="140.5,-874.779 119.5,-874.779 119.5,-856.779 140.5,-856.779 140.5,-874.779"/>
<text text-anchor="middle" x="130" y="-863.579" font-family="Times New Roman,serif" font-size="9.00">1</text>
</g>
<!-- 30 -->
<g id="node10" class="node"><title>30</title>
<ellipse fill="none" stroke="black" cx="277" cy="-793.009" rx="18.2703" ry="18.2703"/>
<text text-anchor="middle" x="277" y="-790.809" font-family="Times New Roman,serif" font-size="9.00">30</text>
</g>
<!-- 1&#45;&gt;30 -->
<g id="edge10" class="edge"><title>1&#45;&gt;30</title>
<path fill="none" stroke="red" d="M140.572,-859.689C163.481,-848.66 218.275,-822.281 251.026,-806.514"/>
<polygon fill="red" stroke="red" points="252.931,-809.481 260.423,-801.99 249.895,-803.174 252.931,-809.481"/>
</g>
<!-- 10 -->
<g id="node20" class="node"><title>10</title>
<ellipse fill="none" stroke="black" cx="380" cy="-574.701" rx="18.2703" ry="18.2703"/>
<text text-anchor="middle" x="380" y="-572.501" font-family="Times New Roman,serif" font-size="9.00">10</text>
</g>
<!-- 1&#45;&gt;10 -->
<g id="edge4" class="edge"><title>1&#45;&gt;10</title>
<path fill="none" stroke="green" d="M128.108,-856.64C122.75,-831.604 109.683,-754.27 139,-701.855 183.537,-622.228 298.103,-590.937 351.64,-580.376"/>
<polygon fill="green" stroke="green" points="352.605,-583.757 361.793,-578.48 351.32,-576.876 352.605,-583.757"/>
</g>
<!-- 7 -->
<g id="node22" class="node"><title>7</title>
<ellipse fill="none" stroke="black" cx="61" cy="-720.24" rx="14.7" ry="14.7"/>
<text text-anchor="middle" x="61" y="-718.04" font-family="Times New Roman,serif" font-size="9.00">7</text>
</g>
<!-- 1&#45;&gt;7 -->
<g id="edge60" class="edge"><title>1&#45;&gt;7</title>
<path fill="none" stroke="green" d="M119.303,-860.714C102.415,-853.64 70.1467,-837.295 57,-811.394 46.459,-790.626 49.5084,-763.579 53.9194,-744.547"/>
<polygon fill="green" stroke="green" points="57.3681,-745.192 56.5066,-734.633 50.5949,-743.425 57.3681,-745.192"/>
</g>
<!-- 2 -->
<g id="node2" class="node"><title>2</title>
<polygon fill="lightgray" stroke="black" points="748.5,-938.164 727.5,-938.164 727.5,-920.164 748.5,-920.164 748.5,-938.164"/>
<text text-anchor="middle" x="738" y="-926.964" font-family="Times New Roman,serif" font-size="9.00">2</text>
</g>
<!-- 5 -->
<g id="node5" class="node"><title>5</title>
<polygon fill="lightblue" stroke="black" points="504.5,-18 483.5,-18 483.5,-0 504.5,-0 504.5,-18"/>
<text text-anchor="middle" x="494" y="-6.8" font-family="Times New Roman,serif" font-size="9.00">5</text>
</g>
<!-- 2&#45;&gt;5 -->
<g id="edge13" class="edge"><title>2&#45;&gt;5</title>
<path fill="none" stroke="green" d="M727.047,-928.296C653.305,-929.053 228.582,-931.287 110,-884.164 51.2576,-860.82 0,-857.22 0,-794.009 0,-794.009 0,-794.009 0,-144.154 0,-94.7574 22.235,-78.7227 65,-54 135.593,-13.1899 396.632,-9.97276 472.928,-9.92091"/>
<polygon fill="green" stroke="green" points="473.163,-13.4211 483.167,-9.9333 473.171,-6.42111 473.163,-13.4211"/>
</g>
<!-- 35 -->
<g id="node6" class="node"><title>35</title>
<ellipse fill="none" stroke="black" cx="898" cy="-865.779" rx="18.2703" ry="18.2703"/>
<text text-anchor="middle" x="898" y="-863.579" font-family="Times New Roman,serif" font-size="9.00">35</text>
</g>
<!-- 2&#45;&gt;35 -->
<g id="edge31" class="edge"><title>2&#45;&gt;35</title>
<path fill="none" stroke="red" d="M748.51,-925.199C770.669,-918.81 823.626,-902.802 866,-884.164 868.38,-883.117 870.821,-881.958 873.242,-880.749"/>
<polygon fill="red" stroke="red" points="875.09,-883.732 882.31,-875.978 871.831,-877.537 875.09,-883.732"/>
</g>
<!-- 17 -->
<g id="node9" class="node"><title>17</title>
<ellipse fill="none" stroke="black" cx="860" cy="-793.009" rx="18.2703" ry="18.2703"/>
<text text-anchor="middle" x="860" y="-790.809" font-family="Times New Roman,serif" font-size="9.00">17</text>
</g>
<!-- 2&#45;&gt;17 -->
<g id="edge8" class="edge"><title>2&#45;&gt;17</title>
<path fill="none" stroke="red" d="M748.521,-920.316C759.439,-911.939 776.741,-897.992 790,-884.164 810.364,-862.925 830.654,-835.994 844.106,-817.12"/>
<polygon fill="red" stroke="red" points="847.059,-819.004 849.955,-808.813 841.336,-814.974 847.059,-819.004"/>
</g>
<!-- 36 -->
<g id="node13" class="node"><title>36</title>
<ellipse fill="none" stroke="black" cx="555" cy="-647.47" rx="18.2703" ry="18.2703"/>
<text text-anchor="middle" x="555" y="-645.27" font-family="Times New Roman,serif" font-size="9.00">36</text>
</g>
<!-- 2&#45;&gt;36 -->
<g id="edge58" class="edge"><title>2&#45;&gt;36</title>
<path fill="none" stroke="green" d="M734.011,-919.944C719.107,-889.586 664.489,-781.423 605,-701.855 596.12,-689.978 584.937,-677.828 575.4,-668.125"/>
<polygon fill="green" stroke="green" points="577.731,-665.506 568.18,-660.921 572.786,-670.462 577.731,-665.506"/>
</g>
<!-- 8 -->
<g id="node19" class="node"><title>8</title>
<ellipse fill="none" stroke="black" cx="887" cy="-574.701" rx="14.7" ry="14.7"/>
<text text-anchor="middle" x="887" y="-572.501" font-family="Times New Roman,serif" font-size="9.00">8</text>
</g>
<!-- 2&#45;&gt;8 -->
<g id="edge33" class="edge"><title>2&#45;&gt;8</title>
<path fill="none" stroke="green" d="M743.317,-919.861C763.296,-888.546 833.532,-777.41 849,-738.624 867.863,-691.324 878.713,-632.393 883.677,-599.949"/>
<polygon fill="green" stroke="green" points="887.201,-600.043 885.191,-589.64 880.275,-599.026 887.201,-600.043"/>
</g>
<!-- 2&#45;&gt;10 -->
<g id="edge9" class="edge"><title>2&#45;&gt;10</title>
<path fill="none" stroke="green" d="M727.273,-928.451C672.229,-929.701 421.898,-932.617 366,-884.164 334.668,-857.005 342,-835.473 342,-794.009 342,-794.009 342,-794.009 342,-719.24 342,-676.766 357.741,-629.506 368.961,-601.215"/>
<polygon fill="green" stroke="green" points="372.309,-602.275 372.852,-591.694 365.829,-599.627 372.309,-602.275"/>
</g>
<!-- 11 -->
<g id="node33" class="node"><title>11</title>
<ellipse fill="none" stroke="black" cx="662" cy="-145.154" rx="18.2703" ry="18.2703"/>
<text text-anchor="middle" x="662" y="-142.954" font-family="Times New Roman,serif" font-size="9.00">11</text>
</g>
<!-- 2&#45;&gt;11 -->
<g id="edge18" class="edge"><title>2&#45;&gt;11</title>
<path fill="none" stroke="red" d="M739.937,-919.982C747.68,-886.526 776,-756.769 776,-648.47 776,-648.47 776,-648.47 776,-573.701 776,-416.195 702.875,-236.735 673.757,-171.519"/>
<polygon fill="red" stroke="red" points="676.788,-169.725 669.48,-162.054 670.409,-172.608 676.788,-169.725"/>
</g>
<!-- 3 -->
<g id="node3" class="node"><title>3</title>
<polygon fill="lightgray" stroke="black" points="954.5,-938.164 933.5,-938.164 933.5,-920.164 954.5,-920.164 954.5,-938.164"/>
<text text-anchor="middle" x="944" y="-926.964" font-family="Times New Roman,serif" font-size="9.00">3</text>
</g>
<!-- 3&#45;&gt;5 -->
<g id="edge1" class="edge"><title>3&#45;&gt;5</title>
<path fill="none" stroke="green" d="M954.791,-925.949C974.901,-921.341 1018.55,-909.017 1046,-884.164 1079.96,-853.41 1096,-839.828 1096,-794.009 1096,-794.009 1096,-794.009 1096,-144.154 1096,-22.374 620.737,-11.0917 514.775,-10.0896"/>
<polygon fill="green" stroke="green" points="514.73,-6.58929 504.704,-10.0162 514.679,-13.5891 514.73,-6.58929"/>
</g>
<!-- 3&#45;&gt;35 -->
<g id="edge53" class="edge"><title>3&#45;&gt;35</title>
<path fill="none" stroke="green" d="M937.986,-920.139C932.145,-912.343 923,-900.14 914.929,-889.37"/>
<polygon fill="green" stroke="green" points="917.568,-887.055 908.77,-881.151 911.966,-891.253 917.568,-887.055"/>
</g>
<!-- 26 -->
<g id="node11" class="node"><title>26</title>
<ellipse fill="none" stroke="black" cx="990" cy="-865.779" rx="18.2703" ry="18.2703"/>
<text text-anchor="middle" x="990" y="-863.579" font-family="Times New Roman,serif" font-size="9.00">26</text>
</g>
<!-- 3&#45;&gt;26 -->
<g id="edge29" class="edge"><title>3&#45;&gt;26</title>
<path fill="none" stroke="green" d="M950.014,-920.139C955.855,-912.343 965,-900.14 973.071,-889.37"/>
<polygon fill="green" stroke="green" points="976.034,-891.253 979.23,-881.151 970.432,-887.055 976.034,-891.253"/>
</g>
<!-- 20 -->
<g id="node12" class="node"><title>20</title>
<ellipse fill="none" stroke="black" cx="624" cy="-647.47" rx="18.2703" ry="18.2703"/>
<text text-anchor="middle" x="624" y="-645.27" font-family="Times New Roman,serif" font-size="9.00">20</text>
</g>
<!-- 3&#45;&gt;20 -->
<g id="edge69" class="edge"><title>3&#45;&gt;20</title>
<path fill="none" stroke="red" d="M933.133,-922.589C918.44,-914.84 891.698,-899.971 871,-884.164 778.508,-813.528 682.596,-712.597 642.919,-669.394"/>
<polygon fill="red" stroke="red" points="645.294,-666.804 635.964,-661.783 640.126,-671.526 645.294,-666.804"/>
</g>
<!-- 3&#45;&gt;8 -->
<g id="edge5" class="edge"><title>3&#45;&gt;8</title>
<path fill="none" stroke="red" d="M954.539,-924.197C970.07,-917.879 999.187,-904.165 1017,-884.164 1046.27,-851.292 1058,-838.027 1058,-794.009 1058,-794.009 1058,-794.009 1058,-719.24 1058,-643.206 957.595,-599.415 910.659,-583.099"/>
<polygon fill="red" stroke="red" points="911.587,-579.719 900.994,-579.866 909.367,-586.357 911.587,-579.719"/>
</g>
<!-- 3&#45;&gt;10 -->
<g id="edge12" class="edge"><title>3&#45;&gt;10</title>
<path fill="none" stroke="red" d="M933.141,-927.475C868.438,-923.325 535.101,-901.24 493,-884.164 433.463,-860.015 380,-858.257 380,-794.009 380,-794.009 380,-794.009 380,-719.24 380,-679.023 380,-632.468 380,-603.549"/>
<polygon fill="red" stroke="red" points="383.5,-603.379 380,-593.379 376.5,-603.379 383.5,-603.379"/>
</g>
<!-- 6 -->
<g id="node21" class="node"><title>6</title>
<ellipse fill="none" stroke="black" cx="700" cy="-574.701" rx="14.7" ry="14.7"/>
<text text-anchor="middle" x="700" y="-572.501" font-family="Times New Roman,serif" font-size="9.00">6</text>
</g>
<!-- 3&#45;&gt;6 -->
<g id="edge14" class="edge"><title>3&#45;&gt;6</title>
<path fill="none" stroke="green" d="M944,-919.997C944,-899.06 944,-841.755 944,-794.009 944,-794.009 944,-794.009 944,-719.24 944,-618.399 787.259,-586.996 725.029,-578.503"/>
<polygon fill="green" stroke="green" points="725.258,-575.004 714.896,-577.21 724.373,-581.947 725.258,-575.004"/>
</g>
<!-- 4 -->
<g id="node4" class="node"><title>4</title>
<polygon fill="lightgray" stroke="black" points="523.5,-874.779 502.5,-874.779 502.5,-856.779 523.5,-856.779 523.5,-874.779"/>
<text text-anchor="middle" x="513" y="-863.579" font-family="Times New Roman,serif" font-size="9.00">4</text>
</g>
<!-- 4&#45;&gt;5 -->
<g id="edge2" class="edge"><title>4&#45;&gt;5</title>
<path fill="none" stroke="green" d="M511.178,-856.735C506.423,-835.008 494,-773.274 494,-721.24 494,-721.24 494,-721.24 494,-144.154 494,-102.75 494,-54.1569 494,-28.3258"/>
<polygon fill="green" stroke="green" points="497.5,-28.1667 494,-18.1667 490.5,-28.1668 497.5,-28.1667"/>
</g>
<!-- 50 -->
<g id="node7" class="node"><title>50</title>
<ellipse fill="none" stroke="black" cx="578" cy="-793.009" rx="18.2703" ry="18.2703"/>
<text text-anchor="middle" x="578" y="-790.809" font-family="Times New Roman,serif" font-size="9.00">50</text>
</g>
<!-- 4&#45;&gt;50 -->
<g id="edge52" class="edge"><title>4&#45;&gt;50</title>
<path fill="none" stroke="green" d="M520.456,-856.661C529.767,-846.524 546.035,-828.812 558.904,-814.801"/>
<polygon fill="green" stroke="green" points="561.823,-816.797 566.009,-807.064 556.667,-812.062 561.823,-816.797"/>
</g>
<!-- 4&#45;&gt;36 -->
<g id="edge36" class="edge"><title>4&#45;&gt;36</title>
<path fill="none" stroke="red" d="M514.595,-856.563C520.333,-827.014 540.087,-725.277 549.683,-675.851"/>
<polygon fill="red" stroke="red" points="553.152,-676.35 551.622,-665.866 546.28,-675.015 553.152,-676.35"/>
</g>
<!-- 62 -->
<g id="node14" class="node"><title>62</title>
<ellipse fill="none" stroke="black" cx="84" cy="-793.009" rx="18.2703" ry="18.2703"/>
<text text-anchor="middle" x="84" y="-790.809" font-family="Times New Roman,serif" font-size="9.00">62</text>
</g>
<!-- 4&#45;&gt;62 -->
<g id="edge67" class="edge"><title>4&#45;&gt;62</title>
<path fill="none" stroke="red" d="M502.395,-863.029C447.704,-854.007 196.81,-812.619 112.06,-798.638"/>
<polygon fill="red" stroke="red" points="112.562,-795.174 102.125,-796.999 111.422,-802.08 112.562,-795.174"/>
</g>
<!-- 4&#45;&gt;10 -->
<g id="edge39" class="edge"><title>4&#45;&gt;10</title>
<path fill="none" stroke="red" d="M507.454,-856.684C500.548,-846.416 488.612,-828.039 480,-811.394 441.802,-737.566 406.048,-645.828 389.551,-601.743"/>
<polygon fill="red" stroke="red" points="392.729,-600.246 385.964,-592.093 386.168,-602.686 392.729,-600.246"/>
</g>
<!-- 4&#45;&gt;6 -->
<g id="edge40" class="edge"><title>4&#45;&gt;6</title>
<path fill="none" stroke="green" d="M523.61,-861.25C542.474,-854.472 582.021,-837.909 605,-811.394 660.906,-746.886 686.572,-645.249 695.773,-599.459"/>
<polygon fill="green" stroke="green" points="699.223,-600.052 697.676,-589.571 692.349,-598.729 699.223,-600.052"/>
</g>
<!-- 35&#45;&gt;17 -->
<g id="edge32" class="edge"><title>35&#45;&gt;17</title>
<path fill="none" stroke="red" d="M889.567,-849.073C884.745,-840.094 878.593,-828.636 873.15,-818.5"/>
<polygon fill="red" stroke="red" points="876.224,-816.826 868.41,-809.671 870.057,-820.137 876.224,-816.826"/>
</g>
<!-- 60 -->
<g id="node24" class="node"><title>60</title>
<ellipse fill="none" stroke="black" cx="860" cy="-356.392" rx="18.2703" ry="18.2703"/>
<text text-anchor="middle" x="860" y="-354.192" font-family="Times New Roman,serif" font-size="9.00">60</text>
</g>
<!-- 35&#45;&gt;60 -->
<g id="edge65" class="edge"><title>35&#45;&gt;60</title>
<path fill="none" stroke="red" d="M911.056,-852.517C942.529,-821.56 1020,-736.424 1020,-648.47 1020,-648.47 1020,-648.47 1020,-500.931 1020,-430.156 932.184,-385.466 886.668,-367.056"/>
<polygon fill="red" stroke="red" points="887.711,-363.706 877.123,-363.33 885.165,-370.227 887.711,-363.706"/>
</g>
<!-- 18 -->
<g id="node30" class="node"><title>18</title>
<ellipse fill="none" stroke="black" cx="380" cy="-429.161" rx="18.2703" ry="18.2703"/>
<text text-anchor="middle" x="380" y="-426.961" font-family="Times New Roman,serif" font-size="9.00">18</text>
</g>
<!-- 35&#45;&gt;18 -->
<g id="edge46" class="edge"><title>35&#45;&gt;18</title>
<path fill="none" stroke="green" d="M879.681,-863.933C776.624,-859.093 272.924,-834.316 250,-811.394 145.418,-706.819 214.702,-599.107 307,-483.546 320.145,-467.088 339.561,-453.218 355.065,-443.745"/>
<polygon fill="green" stroke="green" points="357.268,-446.51 364.122,-438.43 353.725,-440.472 357.268,-446.51"/>
</g>
<!-- 85 -->
<g id="node8" class="node"><title>85</title>
<ellipse fill="none" stroke="black" cx="578" cy="-720.24" rx="18.2703" ry="18.2703"/>
<text text-anchor="middle" x="578" y="-718.04" font-family="Times New Roman,serif" font-size="9.00">85</text>
</g>
<!-- 50&#45;&gt;85 -->
<g id="edge71" class="edge"><title>50&#45;&gt;85</title>
<path fill="none" stroke="red" d="M578,-774.516C578,-766.833 578,-757.624 578,-749.04"/>
<polygon fill="red" stroke="red" points="581.5,-749.024 578,-739.024 574.5,-749.024 581.5,-749.024"/>
</g>
<!-- 85&#45;&gt;20 -->
<g id="edge72" class="edge"><title>85&#45;&gt;20</title>
<path fill="none" stroke="green" d="M587.755,-704.231C593.854,-694.849 601.838,-682.566 608.759,-671.918"/>
<polygon fill="green" stroke="green" points="611.743,-673.749 614.259,-663.457 605.874,-669.934 611.743,-673.749"/>
</g>
<!-- 57 -->
<g id="node15" class="node"><title>57</title>
<ellipse fill="none" stroke="black" cx="822" cy="-720.24" rx="18.2703" ry="18.2703"/>
<text text-anchor="middle" x="822" y="-718.04" font-family="Times New Roman,serif" font-size="9.00">57</text>
</g>
<!-- 17&#45;&gt;57 -->
<g id="edge73" class="edge"><title>17&#45;&gt;57</title>
<path fill="none" stroke="green" d="M851.567,-776.303C846.745,-767.324 840.593,-755.866 835.15,-745.73"/>
<polygon fill="green" stroke="green" points="838.224,-744.056 830.41,-736.902 832.057,-747.368 838.224,-744.056"/>
</g>
<!-- 17&#45;&gt;8 -->
<g id="edge38" class="edge"><title>17&#45;&gt;8</title>
<path fill="none" stroke="green" d="M868.312,-776.142C873.294,-765.771 879.189,-751.76 882,-738.624 892.328,-690.355 890.903,-632.223 888.946,-600.079"/>
<polygon fill="green" stroke="green" points="892.421,-599.591 888.25,-589.852 885.437,-600.067 892.421,-599.591"/>
</g>
<!-- 40 -->
<g id="node16" class="node"><title>40</title>
<ellipse fill="none" stroke="black" cx="822" cy="-647.47" rx="18.2703" ry="18.2703"/>
<text text-anchor="middle" x="822" y="-645.27" font-family="Times New Roman,serif" font-size="9.00">40</text>
</g>
<!-- 30&#45;&gt;40 -->
<g id="edge54" class="edge"><title>30&#45;&gt;40</title>
<path fill="none" stroke="green" d="M295.46,-790.519C345.884,-786.126 489.867,-771.427 605,-738.624 676.796,-718.169 756.828,-680.892 796.637,-661.294"/>
<polygon fill="green" stroke="green" points="798.462,-664.296 805.862,-656.713 795.349,-658.026 798.462,-664.296"/>
</g>
<!-- 33 -->
<g id="node17" class="node"><title>33</title>
<ellipse fill="none" stroke="black" cx="296" cy="-720.24" rx="18.2703" ry="18.2703"/>
<text text-anchor="middle" x="296" y="-718.04" font-family="Times New Roman,serif" font-size="9.00">33</text>
</g>
<!-- 30&#45;&gt;33 -->
<g id="edge47" class="edge"><title>30&#45;&gt;33</title>
<path fill="none" stroke="red" d="M281.599,-774.878C283.77,-766.794 286.41,-756.959 288.834,-747.929"/>
<polygon fill="red" stroke="red" points="292.23,-748.779 291.443,-738.213 285.47,-746.964 292.23,-748.779"/>
</g>
<!-- 30&#45;&gt;10 -->
<g id="edge11" class="edge"><title>30&#45;&gt;10</title>
<path fill="none" stroke="red" d="M269.203,-776.11C255.205,-745.059 229.945,-675.352 260,-629.085 280.157,-598.057 322.974,-584.915 351.626,-579.451"/>
<polygon fill="red" stroke="red" points="352.567,-582.841 361.837,-577.712 351.391,-575.941 352.567,-582.841"/>
</g>
<!-- 48 -->
<g id="node23" class="node"><title>48</title>
<ellipse fill="none" stroke="black" cx="166" cy="-720.24" rx="18.2703" ry="18.2703"/>
<text text-anchor="middle" x="166" y="-718.04" font-family="Times New Roman,serif" font-size="9.00">48</text>
</g>
<!-- 30&#45;&gt;48 -->
<g id="edge49" class="edge"><title>30&#45;&gt;48</title>
<path fill="none" stroke="red" d="M261.566,-782.169C243.01,-770.338 211.659,-750.35 189.951,-736.51"/>
<polygon fill="red" stroke="red" points="191.617,-733.421 181.303,-730.996 187.853,-739.324 191.617,-733.421"/>
</g>
<!-- 14 -->
<g id="node26" class="node"><title>14</title>
<ellipse fill="none" stroke="black" cx="601" cy="-501.931" rx="18.2703" ry="18.2703"/>
<text text-anchor="middle" x="601" y="-499.731" font-family="Times New Roman,serif" font-size="9.00">14</text>
</g>
<!-- 30&#45;&gt;14 -->
<g id="edge59" class="edge"><title>30&#45;&gt;14</title>
<path fill="none" stroke="red" d="M290.509,-779.956C340.941,-734.96 518.441,-576.592 579.881,-521.774"/>
<polygon fill="red" stroke="red" points="582.301,-524.305 587.433,-515.036 577.641,-519.082 582.301,-524.305"/>
</g>
<!-- 26&#45;&gt;8 -->
<g id="edge30" class="edge"><title>26&#45;&gt;8</title>
<path fill="none" stroke="red" d="M991.963,-847.346C995.729,-806.186 1000.21,-701.035 958,-629.085 946.715,-609.848 925.522,-595.309 909.217,-586.299"/>
<polygon fill="red" stroke="red" points="910.778,-583.166 900.293,-581.64 907.538,-589.371 910.778,-583.166"/>
</g>
<!-- 20&#45;&gt;6 -->
<g id="edge35" class="edge"><title>20&#45;&gt;6</title>
<path fill="none" stroke="red" d="M637.238,-634.143C649.61,-622.623 668.184,-605.327 681.919,-592.538"/>
<polygon fill="red" stroke="red" points="684.429,-594.982 689.363,-585.606 679.659,-589.859 684.429,-594.982"/>
</g>
<!-- 20&#45;&gt;18 -->
<g id="edge64" class="edge"><title>20&#45;&gt;18</title>
<path fill="none" stroke="red" d="M610.534,-634.532C570.207,-598.782 450.18,-492.377 401.185,-448.943"/>
<polygon fill="red" stroke="red" points="403.229,-446.077 393.424,-442.062 398.586,-451.315 403.229,-446.077"/>
</g>
<!-- 36&#45;&gt;10 -->
<g id="edge37" class="edge"><title>36&#45;&gt;10</title>
<path fill="none" stroke="green" d="M538.22,-639.684C507.645,-627.32 442.66,-601.04 406.203,-586.297"/>
<polygon fill="green" stroke="green" points="407.312,-582.97 396.729,-582.466 404.687,-589.46 407.312,-582.97"/>
</g>
<!-- 36&#45;&gt;14 -->
<g id="edge61" class="edge"><title>36&#45;&gt;14</title>
<path fill="none" stroke="red" d="M560.367,-629.723C568.296,-604.982 583.212,-558.438 592.598,-529.148"/>
<polygon fill="red" stroke="red" points="595.949,-530.162 595.667,-519.571 589.282,-528.026 595.949,-530.162"/>
</g>
<!-- 62&#45;&gt;7 -->
<g id="edge68" class="edge"><title>62&#45;&gt;7</title>
<path fill="none" stroke="red" d="M78.5493,-775.238C75.5521,-766.016 71.7885,-754.435 68.516,-744.366"/>
<polygon fill="red" stroke="red" points="71.7558,-743.011 65.3363,-734.582 65.0985,-745.174 71.7558,-743.011"/>
</g>
<!-- 57&#45;&gt;40 -->
<g id="edge74" class="edge"><title>57&#45;&gt;40</title>
<path fill="none" stroke="green" d="M822,-701.746C822,-694.064 822,-684.855 822,-676.27"/>
<polygon fill="green" stroke="green" points="825.5,-676.254 822,-666.254 818.5,-676.254 825.5,-676.254"/>
</g>
<!-- 40&#45;&gt;8 -->
<g id="edge34" class="edge"><title>40&#45;&gt;8</title>
<path fill="none" stroke="red" d="M834.226,-633.159C844.483,-621.992 859.225,-605.941 870.523,-593.64"/>
<polygon fill="red" stroke="red" points="873.181,-595.921 877.367,-586.188 868.025,-591.185 873.181,-595.921"/>
</g>
<!-- 39 -->
<g id="node18" class="node"><title>39</title>
<ellipse fill="none" stroke="black" cx="296" cy="-647.47" rx="18.2703" ry="18.2703"/>
<text text-anchor="middle" x="296" y="-645.27" font-family="Times New Roman,serif" font-size="9.00">39</text>
</g>
<!-- 33&#45;&gt;39 -->
<g id="edge75" class="edge"><title>33&#45;&gt;39</title>
<path fill="none" stroke="green" d="M296,-701.746C296,-694.064 296,-684.855 296,-676.27"/>
<polygon fill="green" stroke="green" points="299.5,-676.254 296,-666.254 292.5,-676.254 299.5,-676.254"/>
</g>
<!-- 33&#45;&gt;10 -->
<g id="edge48" class="edge"><title>33&#45;&gt;10</title>
<path fill="none" stroke="red" d="M285.031,-705.144C271.987,-686.532 253.782,-653.292 269,-629.085 287.086,-600.318 325.488,-586.695 352.015,-580.499"/>
<polygon fill="red" stroke="red" points="352.821,-583.906 361.877,-578.406 351.368,-577.059 352.821,-583.906"/>
</g>
<!-- 39&#45;&gt;10 -->
<g id="edge76" class="edge"><title>39&#45;&gt;10</title>
<path fill="none" stroke="red" d="M309.871,-634.784C323.082,-623.654 343.164,-606.735 358.457,-593.85"/>
<polygon fill="red" stroke="red" points="360.995,-596.289 366.387,-587.169 356.484,-590.936 360.995,-596.289"/>
</g>
<!-- 8&#45;&gt;5 -->
<g id="edge3" class="edge"><title>8&#45;&gt;5</title>
<path fill="none" stroke="red" d="M890.053,-559.924C895.424,-534.445 906,-478.174 906,-430.161 906,-430.161 906,-430.161 906,-144.154 906,-76.7337 846.268,-79.85 784,-54 689.298,-14.6854 564.159,-9.99556 515.053,-9.78464"/>
<polygon fill="red" stroke="red" points="514.757,-6.28511 504.763,-9.80473 514.77,-13.2851 514.757,-6.28511"/>
</g>
<!-- 8&#45;&gt;14 -->
<g id="edge63" class="edge"><title>8&#45;&gt;14</title>
<path fill="none" stroke="green" d="M872.817,-570.191C827.947,-559.088 688.523,-524.588 628.71,-509.788"/>
<polygon fill="green" stroke="green" points="629.383,-506.349 618.835,-507.344 627.701,-513.144 629.383,-506.349"/>
</g>
<!-- 22 -->
<g id="node34" class="node"><title>22</title>
<ellipse fill="none" stroke="black" cx="757" cy="-72.3848" rx="18.2703" ry="18.2703"/>
<text text-anchor="middle" x="757" y="-70.1848" font-family="Times New Roman,serif" font-size="9.00">22</text>
</g>
<!-- 8&#45;&gt;22 -->
<g id="edge55" class="edge"><title>8&#45;&gt;22</title>
<path fill="none" stroke="red" d="M877.155,-563.119C857.229,-540.549 814,-485.238 814,-430.161 814,-430.161 814,-430.161 814,-213.388 814,-169.489 789.663,-123.183 772.794,-96.3587"/>
<polygon fill="red" stroke="red" points="775.568,-94.2046 767.19,-87.7191 769.695,-98.0136 775.568,-94.2046"/>
</g>
<!-- 10&#45;&gt;5 -->
<g id="edge28" class="edge"><title>10&#45;&gt;5</title>
<path fill="none" stroke="red" d="M392.55,-560.681C414.136,-536.854 456,-483.737 456,-430.161 456,-430.161 456,-430.161 456,-144.154 456,-100.945 474.475,-52.7693 485.661,-27.5605"/>
<polygon fill="red" stroke="red" points="488.946,-28.7931 489.933,-18.2444 482.583,-25.875 488.946,-28.7931"/>
</g>
<!-- 25 -->
<g id="node25" class="node"><title>25</title>
<ellipse fill="none" stroke="black" cx="334" cy="-501.931" rx="18.2703" ry="18.2703"/>
<text text-anchor="middle" x="334" y="-499.731" font-family="Times New Roman,serif" font-size="9.00">25</text>
</g>
<!-- 10&#45;&gt;25 -->
<g id="edge42" class="edge"><title>10&#45;&gt;25</title>
<path fill="none" stroke="green" d="M370.245,-558.692C364.146,-549.309 356.162,-537.027 349.241,-526.379"/>
<polygon fill="green" stroke="green" points="352.126,-524.395 343.741,-517.918 346.257,-528.21 352.126,-524.395"/>
</g>
<!-- 10&#45;&gt;14 -->
<g id="edge70" class="edge"><title>10&#45;&gt;14</title>
<path fill="none" stroke="green" d="M397.341,-568.147C435.749,-555.848 528.213,-526.239 574.157,-511.527"/>
<polygon fill="green" stroke="green" points="575.283,-514.841 583.739,-508.458 573.148,-508.175 575.283,-514.841"/>
</g>
<!-- 10&#45;&gt;18 -->
<g id="edge6" class="edge"><title>10&#45;&gt;18</title>
<path fill="none" stroke="green" d="M380,-556.1C380,-531.672 380,-487.226 380,-458.201"/>
<polygon fill="green" stroke="green" points="383.5,-457.906 380,-447.906 376.5,-457.906 383.5,-457.906"/>
</g>
<!-- 10&#45;&gt;22 -->
<g id="edge62" class="edge"><title>10&#45;&gt;22</title>
<path fill="none" stroke="green" d="M396.565,-566.366C415.671,-557.373 447.353,-540.776 470,-520.316 514.928,-479.725 507.156,-452.535 551,-410.777 571.887,-390.883 585.873,-396.368 605,-374.777 681.664,-288.235 730.438,-156.085 748.779,-100.018"/>
<polygon fill="green" stroke="green" points="752.22,-100.75 751.945,-90.1584 745.555,-98.6094 752.22,-100.75"/>
</g>
<!-- 6&#45;&gt;14 -->
<g id="edge23" class="edge"><title>6&#45;&gt;14</title>
<path fill="none" stroke="green" d="M688.255,-565.304C672.46,-554.014 644.04,-533.698 623.932,-519.324"/>
<polygon fill="green" stroke="green" points="625.79,-516.35 615.619,-513.382 621.719,-522.044 625.79,-516.35"/>
</g>
<!-- 9 -->
<g id="node31" class="node"><title>9</title>
<ellipse fill="none" stroke="black" cx="578" cy="-214.388" rx="14.7" ry="14.7"/>
<text text-anchor="middle" x="578" y="-212.188" font-family="Times New Roman,serif" font-size="9.00">9</text>
</g>
<!-- 6&#45;&gt;9 -->
<g id="edge15" class="edge"><title>6&#45;&gt;9</title>
<path fill="none" stroke="green" d="M700,-559.844C700,-534.234 700,-477.759 700,-430.161 700,-430.161 700,-430.161 700,-355.392 700,-295.275 635.272,-248.456 600.111,-227.458"/>
<polygon fill="green" stroke="green" points="601.466,-224.199 591.056,-222.23 597.967,-230.261 601.466,-224.199"/>
</g>
<!-- 6&#45;&gt;22 -->
<g id="edge27" class="edge"><title>6&#45;&gt;22</title>
<path fill="none" stroke="red" d="M707.565,-561.553C726.788,-529.486 776,-439.388 776,-357.392 776,-357.392 776,-357.392 776,-213.388 776,-173.803 768.449,-128.489 762.868,-100.4"/>
<polygon fill="red" stroke="red" points="766.281,-99.62 760.845,-90.5259 759.423,-101.025 766.281,-99.62"/>
</g>
<!-- 7&#45;&gt;5 -->
<g id="edge19" class="edge"><title>7&#45;&gt;5</title>
<path fill="none" stroke="red" d="M58.2687,-705.448C53.4632,-679.942 44,-623.63 44,-575.701 44,-575.701 44,-575.701 44,-144.154 44,-85.6228 87.0145,-78.8691 140,-54 199.887,-25.8918 406.361,-14.0544 473.05,-10.9066"/>
<polygon fill="red" stroke="red" points="473.335,-14.3974 483.165,-10.4461 473.016,-7.40464 473.335,-14.3974"/>
</g>
<!-- 24 -->
<g id="node32" class="node"><title>24</title>
<ellipse fill="none" stroke="black" cx="90" cy="-647.47" rx="18.2703" ry="18.2703"/>
<text text-anchor="middle" x="90" y="-645.27" font-family="Times New Roman,serif" font-size="9.00">24</text>
</g>
<!-- 7&#45;&gt;24 -->
<g id="edge25" class="edge"><title>7&#45;&gt;24</title>
<path fill="none" stroke="green" d="M66.319,-706.259C69.9747,-697.339 74.9529,-685.19 79.4017,-674.334"/>
<polygon fill="green" stroke="green" points="82.7321,-675.437 83.2853,-664.856 76.2548,-672.782 82.7321,-675.437"/>
</g>
<!-- 48&#45;&gt;24 -->
<g id="edge50" class="edge"><title>48&#45;&gt;24</title>
<path fill="none" stroke="red" d="M152.762,-706.913C141.101,-696.054 123.93,-680.065 110.495,-667.555"/>
<polygon fill="red" stroke="red" points="112.79,-664.909 103.086,-660.656 108.02,-670.032 112.79,-664.909"/>
</g>
<!-- 60&#45;&gt;22 -->
<g id="edge66" class="edge"><title>60&#45;&gt;22</title>
<path fill="none" stroke="red" d="M861.868,-337.878C865.303,-297.529 868.903,-196.17 828,-126.77 817.396,-108.777 798.142,-94.8817 782.358,-85.7835"/>
<polygon fill="red" stroke="red" points="784.013,-82.6991 773.557,-80.9862 780.662,-88.8453 784.013,-82.6991"/>
</g>
<!-- 25&#45;&gt;18 -->
<g id="edge43" class="edge"><title>25&#45;&gt;18</title>
<path fill="none" stroke="green" d="M343.755,-485.923C349.854,-476.54 357.838,-464.258 364.759,-453.609"/>
<polygon fill="green" stroke="green" points="367.743,-455.44 370.259,-445.148 361.874,-451.625 367.743,-455.44"/>
</g>
<!-- 23 -->
<g id="node27" class="node"><title>23</title>
<ellipse fill="none" stroke="black" cx="578" cy="-429.161" rx="18.2703" ry="18.2703"/>
<text text-anchor="middle" x="578" y="-426.961" font-family="Times New Roman,serif" font-size="9.00">23</text>
</g>
<!-- 14&#45;&gt;23 -->
<g id="edge44" class="edge"><title>14&#45;&gt;23</title>
<path fill="none" stroke="red" d="M595.549,-484.16C592.857,-475.875 589.546,-465.687 586.528,-456.402"/>
<polygon fill="red" stroke="red" points="589.831,-455.241 583.412,-446.812 583.174,-457.405 589.831,-455.241"/>
</g>
<!-- 19 -->
<g id="node28" class="node"><title>19</title>
<ellipse fill="none" stroke="black" cx="578" cy="-356.392" rx="18.2703" ry="18.2703"/>
<text text-anchor="middle" x="578" y="-354.192" font-family="Times New Roman,serif" font-size="9.00">19</text>
</g>
<!-- 14&#45;&gt;19 -->
<g id="edge51" class="edge"><title>14&#45;&gt;19</title>
<path fill="none" stroke="green" d="M604.546,-483.717C607.683,-465.375 610.924,-435.618 605,-410.777 602.532,-400.429 597.717,-389.816 592.828,-380.807"/>
<polygon fill="green" stroke="green" points="595.825,-378.996 587.802,-372.076 589.758,-382.489 595.825,-378.996"/>
</g>
<!-- 14&#45;&gt;11 -->
<g id="edge20" class="edge"><title>14&#45;&gt;11</title>
<path fill="none" stroke="red" d="M611.625,-486.703C629.102,-461.847 662,-408.297 662,-357.392 662,-357.392 662,-357.392 662,-282.622 662,-244.974 662,-201.483 662,-173.908"/>
<polygon fill="red" stroke="red" points="665.5,-173.82 662,-163.82 658.5,-173.82 665.5,-173.82"/>
</g>
<!-- 23&#45;&gt;19 -->
<g id="edge45" class="edge"><title>23&#45;&gt;19</title>
<path fill="none" stroke="red" d="M578,-410.668C578,-402.986 578,-393.776 578,-385.192"/>
<polygon fill="red" stroke="red" points="581.5,-385.176 578,-375.176 574.5,-385.176 581.5,-385.176"/>
</g>
<!-- 21 -->
<g id="node29" class="node"><title>21</title>
<ellipse fill="none" stroke="black" cx="578" cy="-283.622" rx="18.2703" ry="18.2703"/>
<text text-anchor="middle" x="578" y="-281.422" font-family="Times New Roman,serif" font-size="9.00">21</text>
</g>
<!-- 19&#45;&gt;21 -->
<g id="edge56" class="edge"><title>19&#45;&gt;21</title>
<path fill="none" stroke="red" d="M578,-337.898C578,-330.216 578,-321.007 578,-312.423"/>
<polygon fill="red" stroke="red" points="581.5,-312.406 578,-302.406 574.5,-312.406 581.5,-312.406"/>
</g>
<!-- 19&#45;&gt;9 -->
<g id="edge41" class="edge"><title>19&#45;&gt;9</title>
<path fill="none" stroke="green" d="M568.198,-340.708C561.911,-330.373 554.325,-315.949 551,-302.007 547.209,-286.111 546.985,-281.079 551,-265.238 553.628,-254.868 558.891,-244.318 564.078,-235.61"/>
<polygon fill="green" stroke="green" points="567.151,-237.3 569.549,-226.98 561.239,-233.552 567.151,-237.3"/>
</g>
<!-- 21&#45;&gt;9 -->
<g id="edge57" class="edge"><title>21&#45;&gt;9</title>
<path fill="none" stroke="green" d="M578,-264.957C578,-257.275 578,-248.145 578,-239.827"/>
<polygon fill="green" stroke="green" points="581.5,-239.549 578,-229.549 574.5,-239.549 581.5,-239.549"/>
</g>
<!-- 18&#45;&gt;5 -->
<g id="edge7" class="edge"><title>18&#45;&gt;5</title>
<path fill="none" stroke="green" d="M383.754,-411.024C389.291,-384.206 399,-330.624 399,-284.622 399,-284.622 399,-284.622 399,-144.154 399,-99.7615 414.895,-89.1571 442,-54 451.252,-42.0003 464.268,-30.9905 474.963,-22.9856"/>
<polygon fill="green" stroke="green" points="477.193,-25.6929 483.268,-17.0124 473.106,-20.0102 477.193,-25.6929"/>
</g>
<!-- 9&#45;&gt;5 -->
<g id="edge16" class="edge"><title>9&#45;&gt;5</title>
<path fill="none" stroke="red" d="M572.618,-200.356C558.059,-165.104 517.883,-67.8286 501.303,-27.6822"/>
<polygon fill="red" stroke="red" points="504.51,-26.2799 497.458,-18.3732 498.041,-28.952 504.51,-26.2799"/>
</g>
<!-- 9&#45;&gt;11 -->
<g id="edge17" class="edge"><title>9&#45;&gt;11</title>
<path fill="none" stroke="red" d="M589.329,-204.321C602.294,-193.943 623.835,-176.702 640.106,-163.678"/>
<polygon fill="red" stroke="red" points="642.441,-166.292 648.061,-157.311 638.067,-160.827 642.441,-166.292"/>
</g>
<!-- 24&#45;&gt;5 -->
<g id="edge26" class="edge"><title>24&#45;&gt;5</title>
<path fill="none" stroke="green" d="M90.8095,-628.796C91.9783,-601.711 94,-548.303 94,-502.931 94,-502.931 94,-502.931 94,-144.154 94,-63.3555 391.086,-22.1846 473.195,-12.3487"/>
<polygon fill="green" stroke="green" points="473.775,-15.8049 483.301,-11.1679 472.962,-8.85215 473.775,-15.8049"/>
</g>
<!-- 11&#45;&gt;5 -->
<g id="edge24" class="edge"><title>11&#45;&gt;5</title>
<path fill="none" stroke="green" d="M650.233,-130.894C633.376,-112.351 600.86,-78.2304 569,-54 551.455,-40.6563 529.525,-28.2201 513.92,-19.9971"/>
<polygon fill="green" stroke="green" points="515.18,-16.7089 504.688,-15.2347 511.971,-22.9299 515.18,-16.7089"/>
</g>
<!-- 11&#45;&gt;22 -->
<g id="edge21" class="edge"><title>11&#45;&gt;22</title>
<path fill="none" stroke="red" d="M676.428,-133.406C691.862,-121.909 716.544,-103.522 734.527,-90.1258"/>
<polygon fill="red" stroke="red" points="736.819,-92.7833 742.747,-84.0024 732.637,-87.1697 736.819,-92.7833"/>
</g>
<!-- 22&#45;&gt;5 -->
<g id="edge22" class="edge"><title>22&#45;&gt;5</title>
<path fill="none" stroke="green" d="M739.335,-67.2618C692.437,-56.3157 564.955,-26.561 514.733,-14.8391"/>
<polygon fill="green" stroke="green" points="515.266,-11.3695 504.732,-12.5049 513.675,-18.1863 515.266,-11.3695"/>
</g>
</g>
</svg>
