<?xml version="1.0" encoding="UTF-8" standalone="no"?>
<!DOCTYPE svg PUBLIC "-//W3C//DTD SVG 1.1//EN"
 "http://www.w3.org/Graphics/SVG/1.1/DTD/svg11.dtd">
<!-- Generated by graphviz version 2.38.0 (20140413.2041)
 -->
<!-- Title: %3 Pages: 1 -->
<svg width="1266pt" height="1333pt"
 viewBox="0.00 0.00 1266.00 1332.64" xmlns="http://www.w3.org/2000/svg" xmlns:xlink="http://www.w3.org/1999/xlink">
<g id="graph0" class="graph" transform="scale(1 1) rotate(0) translate(4 1328.64)">
<title>%3</title>
<polygon fill="white" stroke="none" points="-4,4 -4,-1328.64 1262,-1328.64 1262,4 -4,4"/>
<!-- 1 -->
<g id="node1" class="node"><title>1</title>
<polygon fill="lightgray" stroke="black" points="983.5,-1107.23 962.5,-1107.23 962.5,-1089.23 983.5,-1089.23 983.5,-1107.23"/>
<text text-anchor="middle" x="973" y="-1096.03" font-family="Times New Roman,serif" font-size="9.00">1</text>
</g>
<!-- 30 -->
<g id="node12" class="node"><title>30</title>
<ellipse fill="none" stroke="black" cx="950" cy="-1019.8" rx="18.2703" ry="18.2703"/>
<text text-anchor="middle" x="950" y="-1017.6" font-family="Times New Roman,serif" font-size="9.00">30</text>
</g>
<!-- 1&#45;&gt;30 -->
<g id="edge9" class="edge"><title>1&#45;&gt;30</title>
<path fill="none" stroke="red" d="M970.539,-1089.05C967.544,-1079.1 962.342,-1061.81 957.922,-1047.13"/>
<polygon fill="red" stroke="red" points="961.258,-1046.07 955.024,-1037.5 954.555,-1048.08 961.258,-1046.07"/>
</g>
<!-- 20 -->
<g id="node16" class="node"><title>20</title>
<ellipse fill="none" stroke="black" cx="890" cy="-1019.8" rx="18.2703" ry="18.2703"/>
<text text-anchor="middle" x="890" y="-1017.6" font-family="Times New Roman,serif" font-size="9.00">20</text>
</g>
<!-- 1&#45;&gt;20 -->
<g id="edge77" class="edge"><title>1&#45;&gt;20</title>
<path fill="none" stroke="red" d="M964.118,-1089.05C951.425,-1077.36 927.734,-1055.55 910.546,-1039.72"/>
<polygon fill="red" stroke="red" points="912.896,-1037.13 903.169,-1032.93 908.154,-1042.28 912.896,-1037.13"/>
</g>
<!-- 101 -->
<g id="node17" class="node"><title>101</title>
<ellipse fill="none" stroke="black" cx="1045" cy="-1019.8" rx="21.4286" ry="21.4286"/>
<text text-anchor="middle" x="1045" y="-1017.6" font-family="Times New Roman,serif" font-size="9.00">101</text>
</g>
<!-- 1&#45;&gt;101 -->
<g id="edge99" class="edge"><title>1&#45;&gt;101</title>
<path fill="none" stroke="green" d="M980.705,-1089.05C990.9,-1078.23 1009.27,-1058.73 1023.77,-1043.33"/>
<polygon fill="green" stroke="green" points="1026.63,-1045.4 1030.94,-1035.73 1021.54,-1040.6 1026.63,-1045.4"/>
</g>
<!-- 70 -->
<g id="node21" class="node"><title>70</title>
<ellipse fill="none" stroke="black" cx="1006" cy="-871.436" rx="18.2703" ry="18.2703"/>
<text text-anchor="middle" x="1006" y="-869.236" font-family="Times New Roman,serif" font-size="9.00">70</text>
</g>
<!-- 1&#45;&gt;70 -->
<g id="edge65" class="edge"><title>1&#45;&gt;70</title>
<path fill="none" stroke="green" d="M976.317,-1088.97C983.204,-1071.93 999.69,-1031.7 1015,-998.59 1022.51,-982.353 1028.89,-980 1033,-962.59 1036.75,-946.685 1036.79,-941.717 1033,-925.82 1030.53,-915.473 1025.72,-904.86 1020.83,-895.85"/>
<polygon fill="green" stroke="green" points="1023.82,-894.04 1015.8,-887.12 1017.76,-897.533 1023.82,-894.04"/>
</g>
<!-- 10 -->
<g id="node27" class="node"><title>10</title>
<ellipse fill="none" stroke="black" cx="346" cy="-798.666" rx="18.2703" ry="18.2703"/>
<text text-anchor="middle" x="346" y="-796.466" font-family="Times New Roman,serif" font-size="9.00">10</text>
</g>
<!-- 1&#45;&gt;10 -->
<g id="edge3" class="edge"><title>1&#45;&gt;10</title>
<path fill="none" stroke="green" d="M962.224,-1095.23C909.507,-1085.22 674.028,-1038.1 494,-962.59 434.01,-937.427 405.832,-942.013 367,-889.82 353.626,-871.845 348.59,-846.71 346.778,-827.545"/>
<polygon fill="green" stroke="green" points="350.252,-827.052 346.057,-817.323 343.269,-827.545 350.252,-827.052"/>
</g>
<!-- 7 -->
<g id="node29" class="node"><title>7</title>
<ellipse fill="none" stroke="black" cx="1187" cy="-871.436" rx="14.7" ry="14.7"/>
<text text-anchor="middle" x="1187" y="-869.236" font-family="Times New Roman,serif" font-size="9.00">7</text>
</g>
<!-- 1&#45;&gt;7 -->
<g id="edge45" class="edge"><title>1&#45;&gt;7</title>
<path fill="none" stroke="green" d="M983.759,-1094.52C1020.64,-1084.59 1142.08,-1046.26 1186,-962.59 1196.81,-941.988 1195.41,-914.913 1192.32,-895.83"/>
<polygon fill="green" stroke="green" points="1195.74,-895.064 1190.45,-885.885 1188.86,-896.36 1195.74,-895.064"/>
</g>
<!-- 2 -->
<g id="node2" class="node"><title>2</title>
<polygon fill="lightgray" stroke="black" points="200.5,-1324.64 179.5,-1324.64 179.5,-1306.64 200.5,-1306.64 200.5,-1324.64"/>
<text text-anchor="middle" x="190" y="-1313.44" font-family="Times New Roman,serif" font-size="9.00">2</text>
</g>
<!-- 5 -->
<g id="node5" class="node"><title>5</title>
<polygon fill="lightblue" stroke="black" points="810.5,-18 789.5,-18 789.5,-0 810.5,-0 810.5,-18"/>
<text text-anchor="middle" x="800" y="-6.8" font-family="Times New Roman,serif" font-size="9.00">5</text>
</g>
<!-- 2&#45;&gt;5 -->
<g id="edge11" class="edge"><title>2&#45;&gt;5</title>
<path fill="none" stroke="green" d="M179.202,-1314.62C151.843,-1314.01 78.9922,-1308.68 37,-1270.64 4.0368,-1240.78 0,-1222.13 0,-1177.66 0,-1177.66 0,-1177.66 0,-140.619 0,-73.0284 61.1789,-76.2558 125,-54 250.191,-10.3433 679.665,-9.46858 779.259,-9.86983"/>
<polygon fill="green" stroke="green" points="779.25,-13.3697 789.268,-9.91953 779.285,-6.36982 779.25,-13.3697"/>
</g>
<!-- 58 -->
<g id="node6" class="node"><title>58</title>
<ellipse fill="none" stroke="black" cx="462" cy="-1252.25" rx="18.2703" ry="18.2703"/>
<text text-anchor="middle" x="462" y="-1250.05" font-family="Times New Roman,serif" font-size="9.00">58</text>
</g>
<!-- 2&#45;&gt;58 -->
<g id="edge72" class="edge"><title>2&#45;&gt;58</title>
<path fill="none" stroke="green" d="M200.663,-1312.23C239.591,-1303.45 374.847,-1272.92 433.973,-1259.58"/>
<polygon fill="green" stroke="green" points="435.103,-1262.91 444.087,-1257.3 433.562,-1256.08 435.103,-1262.91"/>
</g>
<!-- 17 -->
<g id="node11" class="node"><title>17</title>
<ellipse fill="none" stroke="black" cx="631" cy="-944.205" rx="18.2703" ry="18.2703"/>
<text text-anchor="middle" x="631" y="-942.005" font-family="Times New Roman,serif" font-size="9.00">17</text>
</g>
<!-- 2&#45;&gt;17 -->
<g id="edge7" class="edge"><title>2&#45;&gt;17</title>
<path fill="none" stroke="green" d="M200.775,-1314.1C248.187,-1311.59 438.145,-1299.82 489,-1270.64 563.649,-1227.8 576.687,-1198.8 610,-1119.44 630.466,-1070.69 632.835,-1007.96 632.237,-972.613"/>
<polygon fill="green" stroke="green" points="635.735,-972.473 631.973,-962.568 628.737,-972.657 635.735,-972.473"/>
</g>
<!-- 36 -->
<g id="node14" class="node"><title>36</title>
<ellipse fill="none" stroke="black" cx="521" cy="-944.205" rx="18.2703" ry="18.2703"/>
<text text-anchor="middle" x="521" y="-942.005" font-family="Times New Roman,serif" font-size="9.00">36</text>
</g>
<!-- 2&#45;&gt;36 -->
<g id="edge43" class="edge"><title>2&#45;&gt;36</title>
<path fill="none" stroke="green" d="M198.424,-1306.55C218.211,-1286.65 266,-1232.87 266,-1177.66 266,-1177.66 266,-1177.66 266,-1097.23 266,-992.748 425.894,-958.41 492.456,-948.643"/>
<polygon fill="green" stroke="green" points="493.235,-952.068 502.661,-947.232 492.276,-945.134 493.235,-952.068"/>
</g>
<!-- 8 -->
<g id="node26" class="node"><title>8</title>
<ellipse fill="none" stroke="black" cx="729" cy="-725.897" rx="14.7" ry="14.7"/>
<text text-anchor="middle" x="729" y="-723.697" font-family="Times New Roman,serif" font-size="9.00">8</text>
</g>
<!-- 2&#45;&gt;8 -->
<g id="edge29" class="edge"><title>2&#45;&gt;8</title>
<path fill="none" stroke="red" d="M190,-1306.61C190,-1285.49 190,-1226.65 190,-1177.66 190,-1177.66 190,-1177.66 190,-1097.23 190,-906.895 308.909,-867.661 478,-780.281 553.848,-741.086 656.793,-730.657 703.763,-727.891"/>
<polygon fill="red" stroke="red" points="704.133,-731.376 713.938,-727.362 703.77,-724.386 704.133,-731.376"/>
</g>
<!-- 2&#45;&gt;10 -->
<g id="edge8" class="edge"><title>2&#45;&gt;10</title>
<path fill="none" stroke="red" d="M179.254,-1314.22C154.685,-1312.67 94.0619,-1305.32 62,-1270.64 33.0281,-1239.3 38,-1220.34 38,-1177.66 38,-1177.66 38,-1177.66 38,-943.205 38,-820.908 239.971,-802.554 316.807,-799.996"/>
<polygon fill="red" stroke="red" points="317.292,-803.485 327.197,-799.723 317.108,-796.487 317.292,-803.485"/>
</g>
<!-- 11 -->
<g id="node47" class="node"><title>11</title>
<ellipse fill="none" stroke="black" cx="682" cy="-72.3848" rx="18.2703" ry="18.2703"/>
<text text-anchor="middle" x="682" y="-70.1848" font-family="Times New Roman,serif" font-size="9.00">11</text>
</g>
<!-- 2&#45;&gt;11 -->
<g id="edge17" class="edge"><title>2&#45;&gt;11</title>
<path fill="none" stroke="red" d="M179.479,-1308.78C151.258,-1292.22 76,-1242.01 76,-1177.66 76,-1177.66 76,-1177.66 76,-943.205 76,-804.808 300,-865.293 300,-726.897 300,-726.897 300,-726.897 300,-428.161 300,-234.012 568.204,-116.134 655.147,-83.0229"/>
<polygon fill="red" stroke="red" points="656.454,-86.2709 664.594,-79.489 654.001,-79.7146 656.454,-86.2709"/>
</g>
<!-- 3 -->
<g id="node3" class="node"><title>3</title>
<polygon fill="lightgray" stroke="black" points="601.5,-1107.23 580.5,-1107.23 580.5,-1089.23 601.5,-1089.23 601.5,-1107.23"/>
<text text-anchor="middle" x="591" y="-1096.03" font-family="Times New Roman,serif" font-size="9.00">3</text>
</g>
<!-- 3&#45;&gt;5 -->
<g id="edge1" class="edge"><title>3&#45;&gt;5</title>
<path fill="none" stroke="green" d="M584.843,-1088.94C581.267,-1084.72 576.406,-1079.89 571,-1077.02 494.72,-1036.48 457.344,-1079.49 380,-1041.02 237.072,-969.923 114,-959.299 114,-799.666 114,-799.666 114,-799.666 114,-140.619 114,-25.5439 245.703,-79.1318 358,-54 517.046,-18.406 714.736,-11.5938 778.864,-10.3002"/>
<polygon fill="green" stroke="green" points="779.308,-13.7931 789.244,-10.1172 779.184,-6.79416 779.308,-13.7931"/>
</g>
<!-- 35 -->
<g id="node9" class="node"><title>35</title>
<ellipse fill="none" stroke="black" cx="486" cy="-1019.8" rx="18.2703" ry="18.2703"/>
<text text-anchor="middle" x="486" y="-1017.6" font-family="Times New Roman,serif" font-size="9.00">35</text>
</g>
<!-- 3&#45;&gt;35 -->
<g id="edge40" class="edge"><title>3&#45;&gt;35</title>
<path fill="none" stroke="green" d="M583.569,-1088.97C579.947,-1085.14 575.426,-1080.65 571,-1077.02 551.849,-1061.29 528.21,-1045.95 510.727,-1035.27"/>
<polygon fill="green" stroke="green" points="512.087,-1032.01 501.714,-1029.85 508.479,-1038 512.087,-1032.01"/>
</g>
<!-- 26 -->
<g id="node13" class="node"><title>26</title>
<ellipse fill="none" stroke="black" cx="686" cy="-944.205" rx="18.2703" ry="18.2703"/>
<text text-anchor="middle" x="686" y="-942.005" font-family="Times New Roman,serif" font-size="9.00">26</text>
</g>
<!-- 3&#45;&gt;26 -->
<g id="edge27" class="edge"><title>3&#45;&gt;26</title>
<path fill="none" stroke="green" d="M589.921,-1089.06C587.983,-1071.14 585.673,-1027.67 604,-998.59 605.847,-995.659 638.647,-974.78 662.196,-960.021"/>
<polygon fill="green" stroke="green" points="664.06,-962.983 670.684,-954.714 660.349,-957.047 664.06,-962.983"/>
</g>
<!-- 3&#45;&gt;8 -->
<g id="edge4" class="edge"><title>3&#45;&gt;8</title>
<path fill="none" stroke="green" d="M597.341,-1089.01C610.812,-1071.7 643.547,-1030.47 674,-998.59 690.293,-981.531 700.48,-982.582 713,-962.59 757.239,-891.946 776.937,-861.214 757,-780.281 754.146,-768.697 748.282,-756.843 742.654,-747.258"/>
<polygon fill="green" stroke="green" points="745.476,-745.168 737.225,-738.522 739.53,-748.863 745.476,-745.168"/>
</g>
<!-- 3&#45;&gt;10 -->
<g id="edge10" class="edge"><title>3&#45;&gt;10</title>
<path fill="none" stroke="green" d="M584.692,-1089.2C581.071,-1085.06 576.216,-1080.22 571,-1077.02 526.448,-1049.65 504.364,-1067.02 459,-1041.02 371.56,-990.902 331.139,-981.825 290,-889.82 283.329,-874.902 283.566,-868.073 290,-853.051 296.596,-837.65 310.058,-824.584 322.129,-815.234"/>
<polygon fill="green" stroke="green" points="324.53,-817.815 330.556,-809.101 320.411,-812.156 324.53,-817.815"/>
</g>
<!-- 6 -->
<g id="node28" class="node"><title>6</title>
<ellipse fill="none" stroke="black" cx="965" cy="-798.666" rx="14.7" ry="14.7"/>
<text text-anchor="middle" x="965" y="-796.466" font-family="Times New Roman,serif" font-size="9.00">6</text>
</g>
<!-- 3&#45;&gt;6 -->
<g id="edge12" class="edge"><title>3&#45;&gt;6</title>
<path fill="none" stroke="green" d="M601.792,-1090.38C631.632,-1071.29 717.446,-1015.43 784,-962.59 846.883,-912.668 916.074,-847.155 947.61,-816.655"/>
<polygon fill="green" stroke="green" points="950.052,-819.163 954.79,-809.686 945.176,-814.14 950.052,-819.163"/>
</g>
<!-- 4 -->
<g id="node4" class="node"><title>4</title>
<polygon fill="lightgray" stroke="black" points="819.5,-1324.64 798.5,-1324.64 798.5,-1306.64 819.5,-1306.64 819.5,-1324.64"/>
<text text-anchor="middle" x="809" y="-1313.44" font-family="Times New Roman,serif" font-size="9.00">4</text>
</g>
<!-- 4&#45;&gt;5 -->
<g id="edge2" class="edge"><title>4&#45;&gt;5</title>
<path fill="none" stroke="green" d="M819.63,-1314.7C859.554,-1314.62 1003.82,-1311.36 1113,-1270.64 1184.73,-1243.89 1258,-1254.21 1258,-1177.66 1258,-1177.66 1258,-1177.66 1258,-140.619 1258,-95.9442 1244.53,-78.2272 1207,-54 1142.24,-12.2016 895.058,-9.64596 821.055,-9.84048"/>
<polygon fill="green" stroke="green" points="820.702,-6.34202 810.719,-9.88972 820.736,-13.3419 820.702,-6.34202"/>
</g>
<!-- 4&#45;&gt;58 -->
<g id="edge94" class="edge"><title>4&#45;&gt;58</title>
<path fill="none" stroke="green" d="M798.234,-1312.73C751.12,-1304.4 562.236,-1270.99 490.15,-1258.23"/>
<polygon fill="green" stroke="green" points="490.464,-1254.73 480.007,-1256.44 489.244,-1261.63 490.464,-1254.73"/>
</g>
<!-- 50 -->
<g id="node10" class="node"><title>50</title>
<ellipse fill="none" stroke="black" cx="544" cy="-1098.23" rx="18.2703" ry="18.2703"/>
<text text-anchor="middle" x="544" y="-1096.03" font-family="Times New Roman,serif" font-size="9.00">50</text>
</g>
<!-- 4&#45;&gt;50 -->
<g id="edge39" class="edge"><title>4&#45;&gt;50</title>
<path fill="none" stroke="green" d="M798.935,-1306.46C760.257,-1275.02 620.619,-1161.51 566.061,-1117.16"/>
<polygon fill="green" stroke="green" points="568.031,-1114.25 558.063,-1110.66 563.615,-1119.68 568.031,-1114.25"/>
</g>
<!-- 4&#45;&gt;36 -->
<g id="edge30" class="edge"><title>4&#45;&gt;36</title>
<path fill="none" stroke="red" d="M802.717,-1306.58C767.462,-1261.36 593.835,-1038.63 538.192,-967.258"/>
<polygon fill="red" stroke="red" points="540.917,-965.06 532.008,-959.326 535.396,-969.364 540.917,-965.06"/>
</g>
<!-- 62 -->
<g id="node15" class="node"><title>62</title>
<ellipse fill="none" stroke="black" cx="1136" cy="-944.205" rx="18.2703" ry="18.2703"/>
<text text-anchor="middle" x="1136" y="-942.005" font-family="Times New Roman,serif" font-size="9.00">62</text>
</g>
<!-- 4&#45;&gt;62 -->
<g id="edge51" class="edge"><title>4&#45;&gt;62</title>
<path fill="none" stroke="red" d="M819.813,-1315.09C876.206,-1316.85 1134,-1317.26 1134,-1177.66 1134,-1177.66 1134,-1177.66 1134,-1097.23 1134,-1053.97 1134.82,-1003.8 1135.41,-973.293"/>
<polygon fill="red" stroke="red" points="1138.91,-973.059 1135.61,-962.992 1131.92,-972.92 1138.91,-973.059"/>
</g>
<!-- 4&#45;&gt;20 -->
<g id="edge53" class="edge"><title>4&#45;&gt;20</title>
<path fill="none" stroke="red" d="M811.251,-1306.47C821.634,-1268.81 865.144,-1110.97 882.654,-1047.45"/>
<polygon fill="red" stroke="red" points="886.043,-1048.33 885.327,-1037.76 879.295,-1046.47 886.043,-1048.33"/>
</g>
<!-- 121 -->
<g id="node25" class="node"><title>121</title>
<ellipse fill="none" stroke="black" cx="1012" cy="-1176.66" rx="21.4286" ry="21.4286"/>
<text text-anchor="middle" x="1012" y="-1174.46" font-family="Times New Roman,serif" font-size="9.00">121</text>
</g>
<!-- 4&#45;&gt;121 -->
<g id="edge107" class="edge"><title>4&#45;&gt;121</title>
<path fill="none" stroke="green" d="M819.628,-1307.47C850.603,-1286.57 941.43,-1225.28 986.305,-1195"/>
<polygon fill="green" stroke="green" points="988.304,-1197.87 994.635,-1189.37 984.388,-1192.07 988.304,-1197.87"/>
</g>
<!-- 4&#45;&gt;10 -->
<g id="edge32" class="edge"><title>4&#45;&gt;10</title>
<path fill="none" stroke="green" d="M798.318,-1314.72C753.184,-1314.79 574.033,-1312.3 435,-1270.64 365.929,-1249.94 340.629,-1249.21 290,-1197.87 223.441,-1130.38 193.449,-1091.13 214,-998.59 229.479,-928.892 238.433,-909.613 282,-853.051 293.371,-838.288 309.499,-824.868 322.719,-815.175"/>
<polygon fill="green" stroke="green" points="324.776,-818.008 330.908,-809.368 320.727,-812.298 324.776,-818.008"/>
</g>
<!-- 78 -->
<g id="node7" class="node"><title>78</title>
<ellipse fill="none" stroke="black" cx="486" cy="-1176.66" rx="18.2703" ry="18.2703"/>
<text text-anchor="middle" x="486" y="-1174.46" font-family="Times New Roman,serif" font-size="9.00">78</text>
</g>
<!-- 58&#45;&gt;78 -->
<g id="edge84" class="edge"><title>58&#45;&gt;78</title>
<path fill="none" stroke="red" d="M467.446,-1234.55C470.392,-1225.52 474.098,-1214.16 477.421,-1203.96"/>
<polygon fill="red" stroke="red" points="480.803,-1204.88 480.576,-1194.29 474.148,-1202.71 480.803,-1204.88"/>
</g>
<!-- 58&#45;&gt;35 -->
<g id="edge73" class="edge"><title>58&#45;&gt;35</title>
<path fill="none" stroke="green" d="M458.323,-1234.11C452.216,-1202.49 441.971,-1133.1 456,-1077.02 458.889,-1065.47 464.65,-1053.7 470.358,-1043.93"/>
<polygon fill="green" stroke="green" points="473.44,-1045.6 475.719,-1035.25 467.485,-1041.92 473.44,-1045.6"/>
</g>
<!-- 52 -->
<g id="node22" class="node"><title>52</title>
<ellipse fill="none" stroke="black" cx="730" cy="-798.666" rx="18.2703" ry="18.2703"/>
<text text-anchor="middle" x="730" y="-796.466" font-family="Times New Roman,serif" font-size="9.00">52</text>
</g>
<!-- 58&#45;&gt;52 -->
<g id="edge86" class="edge"><title>58&#45;&gt;52</title>
<path fill="none" stroke="green" d="M480.558,-1249.7C541.559,-1243.5 732,-1214.89 732,-1099.23 732,-1099.23 732,-1099.23 732,-1018.8 732,-945.135 733.379,-926.706 732,-853.051 731.845,-844.798 731.557,-835.831 731.246,-827.644"/>
<polygon fill="green" stroke="green" points="734.735,-827.307 730.833,-817.456 727.741,-827.59 734.735,-827.307"/>
</g>
<!-- 9 -->
<g id="node42" class="node"><title>9</title>
<ellipse fill="none" stroke="black" cx="800" cy="-141.619" rx="14.7" ry="14.7"/>
<text text-anchor="middle" x="800" y="-139.419" font-family="Times New Roman,serif" font-size="9.00">9</text>
</g>
<!-- 58&#45;&gt;9 -->
<g id="edge93" class="edge"><title>58&#45;&gt;9</title>
<path fill="none" stroke="red" d="M455.067,-1235.17C432.602,-1180.89 365.176,-999.684 399,-853.051 411.087,-800.651 428.568,-792.683 452,-744.281 532.36,-578.288 602,-541.814 602,-357.392 602,-357.392 602,-357.392 602,-282.622 602,-198.532 722.535,-160.433 775.514,-147.748"/>
<polygon fill="red" stroke="red" points="776.471,-151.12 785.441,-145.482 774.912,-144.296 776.471,-151.12"/>
</g>
<!-- 126 -->
<g id="node8" class="node"><title>126</title>
<ellipse fill="none" stroke="black" cx="486" cy="-1098.23" rx="21.4286" ry="21.4286"/>
<text text-anchor="middle" x="486" y="-1096.03" font-family="Times New Roman,serif" font-size="9.00">126</text>
</g>
<!-- 78&#45;&gt;126 -->
<g id="edge109" class="edge"><title>78&#45;&gt;126</title>
<path fill="none" stroke="red" d="M486,-1157.93C486,-1149.51 486,-1139.21 486,-1129.6"/>
<polygon fill="red" stroke="red" points="489.5,-1129.56 486,-1119.56 482.5,-1129.56 489.5,-1129.56"/>
</g>
<!-- 78&#45;&gt;50 -->
<g id="edge88" class="edge"><title>78&#45;&gt;50</title>
<path fill="none" stroke="green" d="M496.638,-1161.64C505.169,-1150.4 517.301,-1134.41 527.151,-1121.43"/>
<polygon fill="green" stroke="green" points="529.976,-1123.5 533.233,-1113.42 524.4,-1119.27 529.976,-1123.5"/>
</g>
<!-- 126&#45;&gt;35 -->
<g id="edge110" class="edge"><title>126&#45;&gt;35</title>
<path fill="none" stroke="green" d="M486,-1076.75C486,-1068.01 486,-1057.68 486,-1048.29"/>
<polygon fill="green" stroke="green" points="489.5,-1048.23 486,-1038.23 482.5,-1048.23 489.5,-1048.23"/>
</g>
<!-- 35&#45;&gt;17 -->
<g id="edge28" class="edge"><title>35&#45;&gt;17</title>
<path fill="none" stroke="green" d="M502.558,-1011.53C525.485,-1001.3 568.029,-981.775 603,-962.59 604.317,-961.868 605.658,-961.111 607.005,-960.334"/>
<polygon fill="green" stroke="green" points="608.998,-963.219 615.772,-955.072 605.397,-957.217 608.998,-963.219"/>
</g>
<!-- 35&#45;&gt;8 -->
<g id="edge67" class="edge"><title>35&#45;&gt;8</title>
<path fill="none" stroke="red" d="M481.039,-1001.91C469.468,-958.632 445.872,-842.763 504,-780.281 564.328,-715.436 617.135,-775.551 700,-744.281 702.832,-743.213 705.699,-741.869 708.473,-740.405"/>
<polygon fill="red" stroke="red" points="710.508,-743.269 717.356,-735.186 706.961,-737.234 710.508,-743.269"/>
</g>
<!-- 60 -->
<g id="node30" class="node"><title>60</title>
<ellipse fill="none" stroke="black" cx="1098" cy="-871.436" rx="18.2703" ry="18.2703"/>
<text text-anchor="middle" x="1098" y="-869.236" font-family="Times New Roman,serif" font-size="9.00">60</text>
</g>
<!-- 35&#45;&gt;60 -->
<g id="edge49" class="edge"><title>35&#45;&gt;60</title>
<path fill="none" stroke="red" d="M503.99,-1014.77C572.791,-999.282 825.779,-941.951 1033,-889.82 1045.32,-886.722 1058.89,-883.12 1070.44,-880.001"/>
<polygon fill="red" stroke="red" points="1071.65,-883.3 1080.38,-877.3 1069.81,-876.545 1071.65,-883.3"/>
</g>
<!-- 18 -->
<g id="node41" class="node"><title>18</title>
<ellipse fill="none" stroke="black" cx="432" cy="-580.357" rx="18.2703" ry="18.2703"/>
<text text-anchor="middle" x="432" y="-578.157" font-family="Times New Roman,serif" font-size="9.00">18</text>
</g>
<!-- 35&#45;&gt;18 -->
<g id="edge38" class="edge"><title>35&#45;&gt;18</title>
<path fill="none" stroke="red" d="M470.925,-1008.46C442.903,-988.545 382.431,-942.165 347,-889.82 327.575,-861.123 325.329,-851.122 319,-817.051 302.984,-730.829 375.545,-640.47 412.076,-601.355"/>
<polygon fill="red" stroke="red" points="414.908,-603.457 419.28,-593.806 409.844,-598.624 414.908,-603.457"/>
</g>
<!-- 81 -->
<g id="node18" class="node"><title>81</title>
<ellipse fill="none" stroke="black" cx="686" cy="-871.436" rx="18.2703" ry="18.2703"/>
<text text-anchor="middle" x="686" y="-869.236" font-family="Times New Roman,serif" font-size="9.00">81</text>
</g>
<!-- 17&#45;&gt;81 -->
<g id="edge69" class="edge"><title>17&#45;&gt;81</title>
<path fill="none" stroke="green" d="M641.866,-929.223C649.55,-919.337 660.009,-905.879 668.816,-894.546"/>
<polygon fill="green" stroke="green" points="671.783,-896.432 675.156,-886.388 666.256,-892.136 671.783,-896.432"/>
</g>
<!-- 40 -->
<g id="node24" class="node"><title>40</title>
<ellipse fill="none" stroke="black" cx="556" cy="-871.436" rx="18.2703" ry="18.2703"/>
<text text-anchor="middle" x="556" y="-869.236" font-family="Times New Roman,serif" font-size="9.00">40</text>
</g>
<!-- 17&#45;&gt;40 -->
<g id="edge60" class="edge"><title>17&#45;&gt;40</title>
<path fill="none" stroke="green" d="M617.936,-930.878C606.429,-920.02 589.484,-904.031 576.226,-891.52"/>
<polygon fill="green" stroke="green" points="578.59,-888.939 568.914,-884.621 573.785,-894.03 578.59,-888.939"/>
</g>
<!-- 17&#45;&gt;7 -->
<g id="edge66" class="edge"><title>17&#45;&gt;7</title>
<path fill="none" stroke="red" d="M645.456,-932.413C649.629,-929.816 654.323,-927.351 659,-925.82 856.419,-861.193 920.453,-926.037 1125,-889.82 1137.81,-887.552 1151.79,-883.754 1163.22,-880.285"/>
<polygon fill="red" stroke="red" points="1164.41,-883.58 1172.9,-877.245 1162.31,-876.902 1164.41,-883.58"/>
</g>
<!-- 12 -->
<g id="node31" class="node"><title>12</title>
<ellipse fill="none" stroke="black" cx="818" cy="-725.897" rx="18.2703" ry="18.2703"/>
<text text-anchor="middle" x="818" y="-723.697" font-family="Times New Roman,serif" font-size="9.00">12</text>
</g>
<!-- 17&#45;&gt;12 -->
<g id="edge58" class="edge"><title>17&#45;&gt;12</title>
<path fill="none" stroke="green" d="M633.721,-925.854C639.862,-892.588 657.938,-819.653 703,-780.281 733.28,-753.825 749.854,-761.896 786,-744.281 788.337,-743.142 790.75,-741.921 793.152,-740.672"/>
<polygon fill="green" stroke="green" points="795.022,-743.642 802.193,-735.843 791.724,-737.467 795.022,-743.642"/>
</g>
<!-- 83 -->
<g id="node19" class="node"><title>83</title>
<ellipse fill="none" stroke="black" cx="1006" cy="-944.205" rx="18.2703" ry="18.2703"/>
<text text-anchor="middle" x="1006" y="-942.005" font-family="Times New Roman,serif" font-size="9.00">83</text>
</g>
<!-- 30&#45;&gt;83 -->
<g id="edge75" class="edge"><title>30&#45;&gt;83</title>
<path fill="none" stroke="green" d="M960.797,-1004.61C968.777,-994.126 979.8,-979.639 988.963,-967.597"/>
<polygon fill="green" stroke="green" points="991.966,-969.43 995.236,-959.352 986.395,-965.191 991.966,-969.43"/>
</g>
<!-- 43 -->
<g id="node20" class="node"><title>43</title>
<ellipse fill="none" stroke="black" cx="576" cy="-944.205" rx="18.2703" ry="18.2703"/>
<text text-anchor="middle" x="576" y="-942.005" font-family="Times New Roman,serif" font-size="9.00">43</text>
</g>
<!-- 30&#45;&gt;43 -->
<g id="edge105" class="edge"><title>30&#45;&gt;43</title>
<path fill="none" stroke="red" d="M935.575,-1008.08C930.033,-1004.49 923.479,-1000.82 917,-998.59 784.62,-952.944 736.241,-1008.64 604,-962.59 602.548,-962.084 601.092,-961.493 599.649,-960.84"/>
<polygon fill="red" stroke="red" points="600.955,-957.567 590.495,-955.882 597.621,-963.722 600.955,-957.567"/>
</g>
<!-- 14 -->
<g id="node33" class="node"><title>14</title>
<ellipse fill="none" stroke="black" cx="840" cy="-653.127" rx="18.2703" ry="18.2703"/>
<text text-anchor="middle" x="840" y="-650.927" font-family="Times New Roman,serif" font-size="9.00">14</text>
</g>
<!-- 30&#45;&gt;14 -->
<g id="edge44" class="edge"><title>30&#45;&gt;14</title>
<path fill="none" stroke="red" d="M944.842,-1001.7C927.267,-943.439 869.629,-752.354 848.157,-681.17"/>
<polygon fill="red" stroke="red" points="851.386,-679.753 845.147,-671.19 844.684,-681.775 851.386,-679.753"/>
</g>
<!-- 26&#45;&gt;52 -->
<g id="edge55" class="edge"><title>26&#45;&gt;52</title>
<path fill="none" stroke="green" d="M695.243,-927.829C701.122,-917.426 708.459,-903.196 713,-889.82 719.977,-869.27 724.343,-845.055 726.901,-826.899"/>
<polygon fill="green" stroke="green" points="730.371,-827.353 728.204,-816.982 723.431,-826.441 730.371,-827.353"/>
</g>
<!-- 26&#45;&gt;7 -->
<g id="edge59" class="edge"><title>26&#45;&gt;7</title>
<path fill="none" stroke="green" d="M704.562,-941.965C765.364,-937.688 963.882,-922.01 1125,-889.82 1137.76,-887.272 1151.73,-883.447 1163.17,-880.034"/>
<polygon fill="green" stroke="green" points="1164.33,-883.34 1172.87,-877.064 1162.28,-876.648 1164.33,-883.34"/>
</g>
<!-- 26&#45;&gt;11 -->
<g id="edge74" class="edge"><title>26&#45;&gt;11</title>
<path fill="none" stroke="red" d="M672.944,-930.943C641.471,-899.986 564,-814.851 564,-726.897 564,-726.897 564,-726.897 564,-209.853 564,-153.212 622.883,-108.495 657.459,-87.1203"/>
<polygon fill="red" stroke="red" points="659.302,-90.0957 666.086,-81.9573 655.708,-84.0891 659.302,-90.0957"/>
</g>
<!-- 36&#45;&gt;40 -->
<g id="edge87" class="edge"><title>36&#45;&gt;40</title>
<path fill="none" stroke="red" d="M528.768,-927.499C533.102,-918.735 538.604,-907.61 543.527,-897.657"/>
<polygon fill="red" stroke="red" points="546.716,-899.104 548.011,-888.588 540.441,-896.001 546.716,-899.104"/>
</g>
<!-- 36&#45;&gt;10 -->
<g id="edge31" class="edge"><title>36&#45;&gt;10</title>
<path fill="none" stroke="green" d="M505.237,-934.166C500.123,-931.362 494.379,-928.347 489,-925.82 450.005,-907.506 431.673,-917.9 399,-889.82 378.857,-872.51 364.428,-845.544 355.761,-825.611"/>
<polygon fill="green" stroke="green" points="358.92,-824.092 351.861,-816.19 352.452,-826.769 358.92,-824.092"/>
</g>
<!-- 36&#45;&gt;14 -->
<g id="edge46" class="edge"><title>36&#45;&gt;14</title>
<path fill="none" stroke="red" d="M517.912,-925.983C515.401,-906.548 514.338,-874.814 529,-853.051 590.837,-761.266 662.19,-807.541 753,-744.281 760.73,-738.896 797.844,-699.509 821.029,-674.609"/>
<polygon fill="red" stroke="red" points="823.769,-676.802 828.013,-667.095 818.641,-672.037 823.769,-676.802"/>
</g>
<!-- 62&#45;&gt;7 -->
<g id="edge52" class="edge"><title>62&#45;&gt;7</title>
<path fill="none" stroke="red" d="M1146.32,-928.884C1153.93,-918.327 1164.37,-903.838 1172.77,-892.183"/>
<polygon fill="red" stroke="red" points="1175.71,-894.093 1178.71,-883.934 1170.03,-890 1175.71,-894.093"/>
</g>
<!-- 62&#45;&gt;60 -->
<g id="edge85" class="edge"><title>62&#45;&gt;60</title>
<path fill="none" stroke="red" d="M1127.57,-927.499C1122.75,-918.52 1116.59,-907.062 1111.15,-896.926"/>
<polygon fill="red" stroke="red" points="1114.22,-895.252 1106.41,-888.098 1108.06,-898.564 1114.22,-895.252"/>
</g>
<!-- 62&#45;&gt;9 -->
<g id="edge62" class="edge"><title>62&#45;&gt;9</title>
<path fill="none" stroke="red" d="M1135.19,-925.826C1133.55,-889.103 1130,-800.906 1130,-726.897 1130,-726.897 1130,-726.897 1130,-579.357 1130,-381.55 1061.06,-320.176 910,-192.468 884.337,-170.772 847.689,-156.702 823.871,-149.215"/>
<polygon fill="red" stroke="red" points="824.802,-145.84 814.218,-146.32 822.791,-152.545 824.802,-145.84"/>
</g>
<!-- 20&#45;&gt;6 -->
<g id="edge54" class="edge"><title>20&#45;&gt;6</title>
<path fill="none" stroke="green" d="M895.761,-1001.97C909.098,-963.003 942.11,-866.546 957.222,-822.392"/>
<polygon fill="green" stroke="green" points="960.565,-823.432 960.492,-812.837 953.943,-821.165 960.565,-823.432"/>
</g>
<!-- 20&#45;&gt;12 -->
<g id="edge98" class="edge"><title>20&#45;&gt;12</title>
<path fill="none" stroke="green" d="M885.818,-1001.85C873.813,-953.177 839.176,-812.748 824.594,-753.631"/>
<polygon fill="green" stroke="green" points="827.987,-752.77 822.194,-743.899 821.19,-754.446 827.987,-752.77"/>
</g>
<!-- 101&#45;&gt;7 -->
<g id="edge100" class="edge"><title>101&#45;&gt;7</title>
<path fill="none" stroke="green" d="M1065.8,-1014.54C1092.32,-1008.02 1137.77,-992.961 1163,-962.59 1178.46,-943.984 1184.05,-916.404 1186.02,-896.654"/>
<polygon fill="green" stroke="green" points="1189.52,-896.83 1186.79,-886.593 1182.54,-896.299 1189.52,-896.83"/>
</g>
<!-- 81&#45;&gt;52 -->
<g id="edge70" class="edge"><title>81&#45;&gt;52</title>
<path fill="none" stroke="green" d="M695.331,-855.427C701.106,-846.138 708.649,-834.008 715.223,-823.434"/>
<polygon fill="green" stroke="green" points="718.374,-824.993 720.682,-814.653 712.43,-821.297 718.374,-824.993"/>
</g>
<!-- 19 -->
<g id="node37" class="node"><title>19</title>
<ellipse fill="none" stroke="black" cx="762" cy="-356.392" rx="18.2703" ry="18.2703"/>
<text text-anchor="middle" x="762" y="-354.192" font-family="Times New Roman,serif" font-size="9.00">19</text>
</g>
<!-- 81&#45;&gt;19 -->
<g id="edge92" class="edge"><title>81&#45;&gt;19</title>
<path fill="none" stroke="red" d="M681.615,-853.398C666.387,-790.541 620.75,-567.2 697,-410.777 705.478,-393.384 722.593,-379.695 737.133,-370.534"/>
<polygon fill="red" stroke="red" points="738.936,-373.534 745.753,-365.423 735.366,-367.512 738.936,-373.534"/>
</g>
<!-- 83&#45;&gt;70 -->
<g id="edge76" class="edge"><title>83&#45;&gt;70</title>
<path fill="none" stroke="red" d="M1006,-925.712C1006,-918.029 1006,-908.82 1006,-900.236"/>
<polygon fill="red" stroke="red" points="1009.5,-900.22 1006,-890.22 1002.5,-900.22 1009.5,-900.22"/>
</g>
<!-- 33 -->
<g id="node23" class="node"><title>33</title>
<ellipse fill="none" stroke="black" cx="426" cy="-871.436" rx="18.2703" ry="18.2703"/>
<text text-anchor="middle" x="426" y="-869.236" font-family="Times New Roman,serif" font-size="9.00">33</text>
</g>
<!-- 43&#45;&gt;33 -->
<g id="edge106" class="edge"><title>43&#45;&gt;33</title>
<path fill="none" stroke="green" d="M560.827,-933.236C556.731,-930.698 552.254,-928.057 548,-925.82 515.986,-908.988 477.538,-892.792 452.476,-882.74"/>
<polygon fill="green" stroke="green" points="453.517,-879.388 442.931,-878.95 450.934,-885.893 453.517,-879.388"/>
</g>
<!-- 70&#45;&gt;6 -->
<g id="edge71" class="edge"><title>70&#45;&gt;6</title>
<path fill="none" stroke="red" d="M997.104,-855.08C991.347,-845.144 983.771,-832.067 977.424,-821.112"/>
<polygon fill="red" stroke="red" points="980.281,-819.061 972.24,-812.163 974.225,-822.57 980.281,-819.061"/>
</g>
<!-- 52&#45;&gt;8 -->
<g id="edge56" class="edge"><title>52&#45;&gt;8</title>
<path fill="none" stroke="red" d="M729.753,-780.172C729.628,-771.37 729.476,-760.562 729.34,-750.987"/>
<polygon fill="red" stroke="red" points="732.839,-750.823 729.197,-740.873 725.839,-750.922 732.839,-750.823"/>
</g>
<!-- 33&#45;&gt;10 -->
<g id="edge57" class="edge"><title>33&#45;&gt;10</title>
<path fill="none" stroke="red" d="M412.429,-858.431C400.057,-847.486 381.579,-831.14 367.25,-818.465"/>
<polygon fill="red" stroke="red" points="369.179,-815.498 359.37,-811.494 364.541,-820.741 369.179,-815.498"/>
</g>
<!-- 40&#45;&gt;8 -->
<g id="edge61" class="edge"><title>40&#45;&gt;8</title>
<path fill="none" stroke="red" d="M564.909,-854.962C576.771,-835.46 599.38,-801.882 626,-780.281 654.4,-757.236 667.84,-761.7 700,-744.281 702.613,-742.866 705.327,-741.331 707.999,-739.778"/>
<polygon fill="red" stroke="red" points="709.92,-742.708 716.719,-734.582 706.337,-736.694 709.92,-742.708"/>
</g>
<!-- 38 -->
<g id="node45" class="node"><title>38</title>
<ellipse fill="none" stroke="black" cx="851" cy="-580.357" rx="18.2703" ry="18.2703"/>
<text text-anchor="middle" x="851" y="-578.157" font-family="Times New Roman,serif" font-size="9.00">38</text>
</g>
<!-- 121&#45;&gt;38 -->
<g id="edge108" class="edge"><title>121&#45;&gt;38</title>
<path fill="none" stroke="green" d="M1023.2,-1158.26C1038.47,-1133.43 1065.03,-1085.86 1075,-1041.02 1079.09,-1022.61 1077.64,-1017.26 1075,-998.59 1060.4,-895.334 1045.73,-867.785 989,-780.281 946.844,-715.254 893.829,-640.71 867.463,-604.088"/>
<polygon fill="green" stroke="green" points="870.046,-601.686 861.357,-595.623 864.369,-605.781 870.046,-601.686"/>
</g>
<!-- 8&#45;&gt;14 -->
<g id="edge48" class="edge"><title>8&#45;&gt;14</title>
<path fill="none" stroke="red" d="M741.303,-717.053C759.342,-705.552 793.314,-683.892 816.301,-669.237"/>
<polygon fill="red" stroke="red" points="818.261,-672.138 824.811,-663.811 814.498,-666.235 818.261,-672.138"/>
</g>
<!-- 16 -->
<g id="node44" class="node"><title>16</title>
<ellipse fill="none" stroke="black" cx="498" cy="-283.622" rx="18.2703" ry="18.2703"/>
<text text-anchor="middle" x="498" y="-281.422" font-family="Times New Roman,serif" font-size="9.00">16</text>
</g>
<!-- 8&#45;&gt;16 -->
<g id="edge63" class="edge"><title>8&#45;&gt;16</title>
<path fill="none" stroke="red" d="M722.336,-712.195C690.561,-651.634 554.207,-391.751 511.11,-309.61"/>
<polygon fill="red" stroke="red" points="514.076,-307.728 506.33,-300.499 507.877,-310.98 514.076,-307.728"/>
</g>
<!-- 22 -->
<g id="node48" class="node"><title>22</title>
<ellipse fill="none" stroke="black" cx="1003" cy="-429.161" rx="18.2703" ry="18.2703"/>
<text text-anchor="middle" x="1003" y="-426.961" font-family="Times New Roman,serif" font-size="9.00">22</text>
</g>
<!-- 8&#45;&gt;22 -->
<g id="edge41" class="edge"><title>8&#45;&gt;22</title>
<path fill="none" stroke="red" d="M734.366,-711.912C746.869,-682.725 780.233,-610.684 824,-561.973 870.763,-509.927 941.068,-465.489 978.116,-443.987"/>
<polygon fill="red" stroke="red" points="980.269,-446.787 987.211,-438.783 976.793,-440.712 980.269,-446.787"/>
</g>
<!-- 10&#45;&gt;5 -->
<g id="edge26" class="edge"><title>10&#45;&gt;5</title>
<path fill="none" stroke="green" d="M344.381,-780.005C342.043,-752.937 338,-699.552 338,-654.127 338,-654.127 338,-654.127 338,-140.619 338,-68.9559 406.697,-78.6158 474,-54 583.932,-13.7925 726.803,-9.76329 779.402,-9.75487"/>
<polygon fill="green" stroke="green" points="779.456,-13.2551 789.473,-9.80525 779.491,-6.25517 779.456,-13.2551"/>
</g>
<!-- 25 -->
<g id="node32" class="node"><title>25</title>
<ellipse fill="none" stroke="black" cx="460" cy="-653.127" rx="18.2703" ry="18.2703"/>
<text text-anchor="middle" x="460" y="-650.927" font-family="Times New Roman,serif" font-size="9.00">25</text>
</g>
<!-- 10&#45;&gt;25 -->
<g id="edge34" class="edge"><title>10&#45;&gt;25</title>
<path fill="none" stroke="red" d="M361.949,-788.926C383.058,-777.089 418.695,-756.089 428,-744.281 442.485,-725.9 450.719,-700.441 455.195,-681.264"/>
<polygon fill="red" stroke="red" points="458.648,-681.851 457.311,-671.341 451.802,-680.391 458.648,-681.851"/>
</g>
<!-- 10&#45;&gt;18 -->
<g id="edge5" class="edge"><title>10&#45;&gt;18</title>
<path fill="none" stroke="red" d="M352.464,-781.408C367.281,-744.14 403.797,-652.293 421.729,-607.192"/>
<polygon fill="red" stroke="red" points="425.019,-608.39 425.461,-597.804 418.514,-605.804 425.019,-608.39"/>
</g>
<!-- 10&#45;&gt;22 -->
<g id="edge47" class="edge"><title>10&#45;&gt;22</title>
<path fill="none" stroke="green" d="M363.213,-791.882C449.575,-762.775 833.293,-632.398 878,-598.742 930.641,-559.114 971.286,-491.35 990.615,-454.975"/>
<polygon fill="green" stroke="green" points="993.765,-456.504 995.28,-446.018 987.556,-453.271 993.765,-456.504"/>
</g>
<!-- 6&#45;&gt;12 -->
<g id="edge16" class="edge"><title>6&#45;&gt;12</title>
<path fill="none" stroke="red" d="M951.955,-791.386C927.629,-779.675 874.958,-754.318 843.394,-739.122"/>
<polygon fill="red" stroke="red" points="844.859,-735.943 834.331,-734.759 841.823,-742.25 844.859,-735.943"/>
</g>
<!-- 6&#45;&gt;14 -->
<g id="edge22" class="edge"><title>6&#45;&gt;14</title>
<path fill="none" stroke="green" d="M955.605,-786.877C934.965,-763.177 885.358,-706.213 858.322,-675.166"/>
<polygon fill="green" stroke="green" points="860.858,-672.749 851.651,-667.506 855.579,-677.346 860.858,-672.749"/>
</g>
<!-- 37 -->
<g id="node38" class="node"><title>37</title>
<ellipse fill="none" stroke="black" cx="1007" cy="-653.127" rx="18.2703" ry="18.2703"/>
<text text-anchor="middle" x="1007" y="-650.927" font-family="Times New Roman,serif" font-size="9.00">37</text>
</g>
<!-- 6&#45;&gt;37 -->
<g id="edge78" class="edge"><title>6&#45;&gt;37</title>
<path fill="none" stroke="red" d="M968.951,-784.162C975.85,-760.587 990.208,-711.514 999.18,-680.852"/>
<polygon fill="red" stroke="red" points="1002.55,-681.804 1002,-671.223 995.83,-679.838 1002.55,-681.804"/>
</g>
<!-- 6&#45;&gt;9 -->
<g id="edge13" class="edge"><title>6&#45;&gt;9</title>
<path fill="none" stroke="red" d="M962.195,-784.057C953.89,-742.533 930,-613.712 930,-505.759 930,-505.759 930,-505.759 930,-282.622 930,-220.204 859.753,-173.9 822.535,-153.747"/>
<polygon fill="red" stroke="red" points="823.906,-150.514 813.423,-148.978 820.66,-156.716 823.906,-150.514"/>
</g>
<!-- 6&#45;&gt;22 -->
<g id="edge82" class="edge"><title>6&#45;&gt;22</title>
<path fill="none" stroke="green" d="M975.913,-788.484C999.679,-767.393 1054,-712.77 1054,-654.127 1054,-654.127 1054,-654.127 1054,-579.357 1054,-533.368 1032.03,-483.483 1016.93,-454.624"/>
<polygon fill="green" stroke="green" points="1019.94,-452.824 1012.12,-445.679 1013.78,-456.143 1019.94,-452.824"/>
</g>
<!-- 7&#45;&gt;5 -->
<g id="edge19" class="edge"><title>7&#45;&gt;5</title>
<path fill="none" stroke="red" d="M1183.95,-856.659C1178.58,-831.18 1168,-774.909 1168,-726.897 1168,-726.897 1168,-726.897 1168,-503.759 1168,-406.361 1166,-382.021 1166,-284.622 1166,-284.622 1166,-284.622 1166,-140.619 1166,-71.9283 1101.56,-80.0433 1038,-54 962.136,-22.9162 863.663,-13.655 821.112,-11.008"/>
<polygon fill="red" stroke="red" points="821.059,-7.49963 810.879,-10.435 820.667,-14.4887 821.059,-7.49963"/>
</g>
<!-- 24 -->
<g id="node43" class="node"><title>24</title>
<ellipse fill="none" stroke="black" cx="1212" cy="-356.392" rx="18.2703" ry="18.2703"/>
<text text-anchor="middle" x="1212" y="-354.192" font-family="Times New Roman,serif" font-size="9.00">24</text>
</g>
<!-- 7&#45;&gt;24 -->
<g id="edge24" class="edge"><title>7&#45;&gt;24</title>
<path fill="none" stroke="green" d="M1190.53,-856.687C1196.75,-831.251 1209,-775.05 1209,-726.897 1209,-726.897 1209,-726.897 1209,-503.759 1209,-462.516 1210.21,-414.75 1211.09,-385.301"/>
<polygon fill="green" stroke="green" points="1214.6,-385.067 1211.41,-374.963 1207.6,-384.85 1214.6,-385.067"/>
</g>
<!-- 60&#45;&gt;22 -->
<g id="edge50" class="edge"><title>60&#45;&gt;22</title>
<path fill="none" stroke="red" d="M1096.79,-852.767C1095.03,-825.689 1092,-772.291 1092,-726.897 1092,-726.897 1092,-726.897 1092,-579.357 1092,-526.377 1050.1,-475.858 1023.79,-449.367"/>
<polygon fill="red" stroke="red" points="1026.11,-446.738 1016.52,-442.245 1021.22,-451.741 1026.11,-446.738"/>
</g>
<!-- 12&#45;&gt;14 -->
<g id="edge18" class="edge"><title>12&#45;&gt;14</title>
<path fill="none" stroke="red" d="M823.214,-708.125C825.789,-699.84 828.956,-689.653 831.843,-680.367"/>
<polygon fill="red" stroke="red" points="835.197,-681.366 834.824,-670.778 828.513,-679.288 835.197,-681.366"/>
</g>
<!-- 25&#45;&gt;18 -->
<g id="edge35" class="edge"><title>25&#45;&gt;18</title>
<path fill="none" stroke="red" d="M453.506,-635.713C450.149,-627.228 445.974,-616.676 442.198,-607.133"/>
<polygon fill="red" stroke="red" points="445.393,-605.693 438.459,-597.682 438.883,-608.269 445.393,-605.693"/>
</g>
<!-- 23 -->
<g id="node34" class="node"><title>23</title>
<ellipse fill="none" stroke="black" cx="759" cy="-580.357" rx="18.2703" ry="18.2703"/>
<text text-anchor="middle" x="759" y="-578.157" font-family="Times New Roman,serif" font-size="9.00">23</text>
</g>
<!-- 14&#45;&gt;23 -->
<g id="edge36" class="edge"><title>14&#45;&gt;23</title>
<path fill="none" stroke="red" d="M826.624,-640.441C813.961,-629.377 794.751,-612.593 780.037,-599.737"/>
<polygon fill="red" stroke="red" points="782.229,-597.005 772.395,-593.061 777.623,-602.276 782.229,-597.005"/>
</g>
<!-- 14&#45;&gt;18 -->
<g id="edge68" class="edge"><title>14&#45;&gt;18</title>
<path fill="none" stroke="green" d="M821.942,-648.995C757.576,-637.83 539.029,-599.922 460.442,-586.291"/>
<polygon fill="green" stroke="green" points="460.763,-582.794 450.312,-584.534 459.567,-589.691 460.763,-582.794"/>
</g>
<!-- 14&#45;&gt;38 -->
<g id="edge89" class="edge"><title>14&#45;&gt;38</title>
<path fill="none" stroke="red" d="M842.719,-634.633C843.931,-626.835 845.388,-617.462 846.739,-608.768"/>
<polygon fill="red" stroke="red" points="850.235,-609.069 848.312,-598.65 843.318,-607.994 850.235,-609.069"/>
</g>
<!-- 14&#45;&gt;11 -->
<g id="edge20" class="edge"><title>14&#45;&gt;11</title>
<path fill="none" stroke="green" d="M822.335,-647.09C799.175,-639.732 758.4,-624.095 732,-598.742 670.435,-539.62 640,-515.517 640,-430.161 640,-430.161 640,-430.161 640,-209.853 640,-169.451 657.024,-125.178 669.395,-98.3398"/>
<polygon fill="green" stroke="green" points="672.569,-99.8144 673.702,-89.2803 666.247,-96.8088 672.569,-99.8144"/>
</g>
<!-- 91 -->
<g id="node35" class="node"><title>91</title>
<ellipse fill="none" stroke="black" cx="724" cy="-504.759" rx="18.2703" ry="18.2703"/>
<text text-anchor="middle" x="724" y="-502.559" font-family="Times New Roman,serif" font-size="9.00">91</text>
</g>
<!-- 23&#45;&gt;91 -->
<g id="edge96" class="edge"><title>23&#45;&gt;91</title>
<path fill="none" stroke="green" d="M751.406,-563.388C746.911,-553.936 741.116,-541.751 736.014,-531.022"/>
<polygon fill="green" stroke="green" points="739.035,-529.226 731.58,-521.698 732.714,-532.232 739.035,-529.226"/>
</g>
<!-- 23&#45;&gt;19 -->
<g id="edge37" class="edge"><title>23&#45;&gt;19</title>
<path fill="none" stroke="red" d="M759.235,-561.94C759.753,-523.621 760.995,-431.731 761.623,-385.28"/>
<polygon fill="red" stroke="red" points="765.126,-385.082 761.762,-375.035 758.127,-384.987 765.126,-385.082"/>
</g>
<!-- 90 -->
<g id="node36" class="node"><title>90</title>
<ellipse fill="none" stroke="black" cx="724" cy="-429.161" rx="18.2703" ry="18.2703"/>
<text text-anchor="middle" x="724" y="-426.961" font-family="Times New Roman,serif" font-size="9.00">90</text>
</g>
<!-- 91&#45;&gt;90 -->
<g id="edge97" class="edge"><title>91&#45;&gt;90</title>
<path fill="none" stroke="red" d="M724,-486.318C724,-477.855 724,-467.484 724,-457.967"/>
<polygon fill="red" stroke="red" points="727.5,-457.733 724,-447.733 720.5,-457.733 727.5,-457.733"/>
</g>
<!-- 90&#45;&gt;19 -->
<g id="edge95" class="edge"><title>90&#45;&gt;19</title>
<path fill="none" stroke="green" d="M732.433,-412.455C737.255,-403.476 743.407,-392.019 748.85,-381.882"/>
<polygon fill="green" stroke="green" points="751.943,-383.52 753.59,-373.054 745.776,-380.209 751.943,-383.52"/>
</g>
<!-- 21 -->
<g id="node39" class="node"><title>21</title>
<ellipse fill="none" stroke="black" cx="827" cy="-283.622" rx="18.2703" ry="18.2703"/>
<text text-anchor="middle" x="827" y="-281.422" font-family="Times New Roman,serif" font-size="9.00">21</text>
</g>
<!-- 19&#45;&gt;21 -->
<g id="edge42" class="edge"><title>19&#45;&gt;21</title>
<path fill="none" stroke="green" d="M774.226,-342.081C783.668,-331.801 796.911,-317.382 807.769,-305.56"/>
<polygon fill="green" stroke="green" points="810.642,-307.606 814.829,-297.874 805.487,-302.871 810.642,-307.606"/>
</g>
<!-- 19&#45;&gt;9 -->
<g id="edge33" class="edge"><title>19&#45;&gt;9</title>
<path fill="none" stroke="red" d="M765.11,-337.98C771.907,-299.917 788.097,-209.27 795.795,-166.166"/>
<polygon fill="red" stroke="red" points="799.245,-166.753 797.558,-156.293 792.354,-165.522 799.245,-166.753"/>
</g>
<!-- 37&#45;&gt;22 -->
<g id="edge79" class="edge"><title>37&#45;&gt;22</title>
<path fill="none" stroke="red" d="M1006.69,-634.71C1006,-596.391 1004.34,-504.5 1003.5,-458.05"/>
<polygon fill="red" stroke="red" points="1007,-457.74 1003.32,-447.805 999.999,-457.866 1007,-457.74"/>
</g>
<!-- 21&#45;&gt;5 -->
<g id="edge103" class="edge"><title>21&#45;&gt;5</title>
<path fill="none" stroke="green" d="M841.287,-271.198C852.306,-261.402 866.696,-246.211 873,-229.238 878.69,-213.918 876.091,-208.515 873,-192.468 860.709,-128.654 826.297,-58.7899 809.485,-27.2036"/>
<polygon fill="green" stroke="green" points="812.354,-25.1514 804.516,-18.0232 806.198,-28.4837 812.354,-25.1514"/>
</g>
<!-- 63 -->
<g id="node40" class="node"><title>63</title>
<ellipse fill="none" stroke="black" cx="846" cy="-210.853" rx="18.2703" ry="18.2703"/>
<text text-anchor="middle" x="846" y="-208.653" font-family="Times New Roman,serif" font-size="9.00">63</text>
</g>
<!-- 21&#45;&gt;63 -->
<g id="edge80" class="edge"><title>21&#45;&gt;63</title>
<path fill="none" stroke="green" d="M831.599,-265.491C833.77,-257.407 836.41,-247.572 838.834,-238.543"/>
<polygon fill="green" stroke="green" points="842.23,-239.392 841.443,-228.826 835.47,-237.577 842.23,-239.392"/>
</g>
<!-- 21&#45;&gt;9 -->
<g id="edge83" class="edge"><title>21&#45;&gt;9</title>
<path fill="none" stroke="red" d="M823.689,-265.455C818.916,-240.702 810.078,-194.878 804.651,-166.736"/>
<polygon fill="red" stroke="red" points="808.018,-165.711 802.688,-156.555 801.145,-167.037 808.018,-165.711"/>
</g>
<!-- 63&#45;&gt;9 -->
<g id="edge81" class="edge"><title>63&#45;&gt;9</title>
<path fill="none" stroke="red" d="M836.019,-195.264C829.561,-185.825 821.061,-173.401 813.94,-162.993"/>
<polygon fill="red" stroke="red" points="816.658,-160.768 808.123,-154.491 810.881,-164.721 816.658,-160.768"/>
</g>
<!-- 18&#45;&gt;5 -->
<g id="edge6" class="edge"><title>18&#45;&gt;5</title>
<path fill="none" stroke="red" d="M432,-561.901C432,-534.045 432,-477.821 432,-430.161 432,-430.161 432,-430.161 432,-140.619 432,-66.3102 701.851,-23.4846 779.393,-12.7124"/>
<polygon fill="red" stroke="red" points="779.945,-16.1696 789.383,-11.3557 779.003,-9.23331 779.945,-16.1696"/>
</g>
<!-- 9&#45;&gt;5 -->
<g id="edge14" class="edge"><title>9&#45;&gt;5</title>
<path fill="none" stroke="red" d="M800,-126.64C800,-102.906 800,-54.7387 800,-28.3328"/>
<polygon fill="red" stroke="red" points="803.5,-28.1893 800,-18.1893 796.5,-28.1894 803.5,-28.1893"/>
</g>
<!-- 9&#45;&gt;11 -->
<g id="edge15" class="edge"><title>9&#45;&gt;11</title>
<path fill="none" stroke="red" d="M787.372,-133.424C768.182,-122.49 731.311,-101.481 706.678,-87.4458"/>
<polygon fill="red" stroke="red" points="708.32,-84.3531 697.899,-82.4435 704.855,-90.4352 708.32,-84.3531"/>
</g>
<!-- 24&#45;&gt;5 -->
<g id="edge25" class="edge"><title>24&#45;&gt;5</title>
<path fill="none" stroke="red" d="M1211.19,-337.718C1210.02,-310.633 1208,-257.225 1208,-211.853 1208,-211.853 1208,-211.853 1208,-140.619 1208,-100.16 1211.29,-79.6506 1180,-54 1124.54,-8.53091 892.189,-8.46516 820.893,-9.55599"/>
<polygon fill="red" stroke="red" points="820.478,-6.06278 810.542,-9.74129 820.603,-13.0617 820.478,-6.06278"/>
</g>
<!-- 16&#45;&gt;5 -->
<g id="edge64" class="edge"><title>16&#45;&gt;5</title>
<path fill="none" stroke="green" d="M500.175,-265.047C504.728,-234.295 517.658,-169.901 550,-126.77 608.122,-49.2565 730.443,-21.3375 779.249,-13.0304"/>
<polygon fill="green" stroke="green" points="779.929,-16.4663 789.251,-11.432 778.824,-9.55397 779.929,-16.4663"/>
</g>
<!-- 109 -->
<g id="node46" class="node"><title>109</title>
<ellipse fill="none" stroke="black" cx="819" cy="-504.759" rx="21.4286" ry="21.4286"/>
<text text-anchor="middle" x="819" y="-502.559" font-family="Times New Roman,serif" font-size="9.00">109</text>
</g>
<!-- 38&#45;&gt;109 -->
<g id="edge101" class="edge"><title>38&#45;&gt;109</title>
<path fill="none" stroke="green" d="M843.898,-563.024C840.17,-554.448 835.496,-543.698 831.207,-533.836"/>
<polygon fill="green" stroke="green" points="834.294,-532.157 827.097,-524.382 827.875,-534.948 834.294,-532.157"/>
</g>
<!-- 109&#45;&gt;11 -->
<g id="edge102" class="edge"><title>109&#45;&gt;11</title>
<path fill="none" stroke="red" d="M816.701,-483.553C812.813,-452.025 803.875,-389.415 789,-338.007 762.695,-247.093 716.085,-144.548 694.108,-98.3264"/>
<polygon fill="red" stroke="red" points="697.161,-96.5971 689.686,-89.0885 690.847,-99.6195 697.161,-96.5971"/>
</g>
<!-- 109&#45;&gt;22 -->
<g id="edge104" class="edge"><title>109&#45;&gt;22</title>
<path fill="none" stroke="green" d="M836.836,-492.633C842.243,-489.488 848.27,-486.201 854,-483.546 895.26,-464.429 945.44,-447.72 975.766,-438.294"/>
<polygon fill="green" stroke="green" points="977.084,-441.55 985.618,-435.271 975.031,-434.858 977.084,-441.55"/>
</g>
<!-- 11&#45;&gt;5 -->
<g id="edge23" class="edge"><title>11&#45;&gt;5</title>
<path fill="none" stroke="green" d="M697.914,-63.1062C719.271,-51.9959 757.191,-32.2699 780.317,-20.2391"/>
<polygon fill="green" stroke="green" points="781.976,-23.3217 789.232,-15.6017 778.745,-17.1117 781.976,-23.3217"/>
</g>
<!-- 22&#45;&gt;5 -->
<g id="edge21" class="edge"><title>22&#45;&gt;5</title>
<path fill="none" stroke="green" d="M1000.23,-410.98C996.154,-384.103 989,-330.442 989,-284.622 989,-284.622 989,-284.622 989,-140.619 989,-59.4101 869.452,-24.7544 820.513,-13.9699"/>
<polygon fill="green" stroke="green" points="821.207,-10.5395 810.703,-11.9228 819.777,-17.3919 821.207,-10.5395"/>
</g>
<!-- 47 -->
<g id="node49" class="node"><title>47</title>
<ellipse fill="none" stroke="black" cx="1120" cy="-210.853" rx="18.2703" ry="18.2703"/>
<text text-anchor="middle" x="1120" y="-208.653" font-family="Times New Roman,serif" font-size="9.00">47</text>
</g>
<!-- 22&#45;&gt;47 -->
<g id="edge90" class="edge"><title>22&#45;&gt;47</title>
<path fill="none" stroke="green" d="M1011.41,-412.605C1031.53,-375.423 1082.51,-281.163 1106.77,-236.303"/>
<polygon fill="green" stroke="green" points="1109.98,-237.729 1111.66,-227.268 1103.83,-234.399 1109.98,-237.729"/>
</g>
<!-- 47&#45;&gt;5 -->
<g id="edge91" class="edge"><title>47&#45;&gt;5</title>
<path fill="none" stroke="red" d="M1112.7,-193.589C1097.35,-161.399 1058.54,-89.6107 1003,-54 944.701,-16.6202 859.631,-10.5616 820.764,-9.86739"/>
<polygon fill="red" stroke="red" points="820.7,-6.36693 810.675,-9.79367 820.649,-13.3667 820.7,-6.36693"/>
</g>
</g>
</svg>
