<?xml version="1.0" encoding="UTF-8" standalone="no"?>
<!DOCTYPE svg PUBLIC "-//W3C//DTD SVG 1.1//EN"
 "http://www.w3.org/Graphics/SVG/1.1/DTD/svg11.dtd">
<!-- Generated by graphviz version 2.38.0 (20140413.2041)
 -->
<!-- Title: %3 Pages: 1 -->
<svg width="169pt" height="226pt"
 viewBox="0.00 0.00 168.88 225.54" xmlns="http://www.w3.org/2000/svg" xmlns:xlink="http://www.w3.org/1999/xlink">
<g id="graph0" class="graph" transform="scale(1 1) rotate(0) translate(4 221.539)">
<title>%3</title>
<polygon fill="white" stroke="none" points="-4,4 -4,-221.539 164.885,-221.539 164.885,4 -4,4"/>
<!-- 1 -->
<g id="node1" class="node"><title>1</title>
<polygon fill="lightgray" stroke="black" points="28.8848,-217.539 7.88478,-217.539 7.88478,-199.539 28.8848,-199.539 28.8848,-217.539"/>
<text text-anchor="middle" x="18.3848" y="-206.339" font-family="Times New Roman,serif" font-size="9.00">1</text>
</g>
<!-- 10 -->
<g id="node7" class="node"><title>10</title>
<ellipse fill="none" stroke="black" cx="18.3848" cy="-145.154" rx="18.2703" ry="18.2703"/>
<text text-anchor="middle" x="18.3848" y="-142.954" font-family="Times New Roman,serif" font-size="9.00">10</text>
</g>
<!-- 1&#45;&gt;10 -->
<g id="edge5" class="edge"><title>1&#45;&gt;10</title>
<path fill="none" stroke="red" d="M18.3848,-199.514C18.3848,-192.95 18.3848,-183.261 18.3848,-173.933"/>
<polygon fill="red" stroke="red" points="21.8849,-173.742 18.3848,-163.742 14.8849,-173.742 21.8849,-173.742"/>
</g>
<!-- 2 -->
<g id="node2" class="node"><title>2</title>
<polygon fill="lightgray" stroke="black" points="117.885,-154.154 96.8848,-154.154 96.8848,-136.154 117.885,-136.154 117.885,-154.154"/>
<text text-anchor="middle" x="107.385" y="-142.954" font-family="Times New Roman,serif" font-size="9.00">2</text>
</g>
<!-- 8 -->
<g id="node6" class="node"><title>8</title>
<ellipse fill="none" stroke="black" cx="107.385" cy="-72.3848" rx="14.7" ry="14.7"/>
<text text-anchor="middle" x="107.385" y="-70.1848" font-family="Times New Roman,serif" font-size="9.00">8</text>
</g>
<!-- 2&#45;&gt;8 -->
<g id="edge3" class="edge"><title>2&#45;&gt;8</title>
<path fill="none" stroke="green" d="M107.385,-136.036C107.385,-126.697 107.385,-110.928 107.385,-97.5468"/>
<polygon fill="green" stroke="green" points="110.885,-97.4962 107.385,-87.4962 103.885,-97.4962 110.885,-97.4962"/>
</g>
<!-- 3 -->
<g id="node3" class="node"><title>3</title>
<polygon fill="lightgray" stroke="black" points="77.8848,-154.154 56.8848,-154.154 56.8848,-136.154 77.8848,-136.154 77.8848,-154.154"/>
<text text-anchor="middle" x="67.3848" y="-142.954" font-family="Times New Roman,serif" font-size="9.00">3</text>
</g>
<!-- 5 -->
<g id="node5" class="node"><title>5</title>
<polygon fill="lightblue" stroke="black" points="95.8848,-18 74.8848,-18 74.8848,-0 95.8848,-0 95.8848,-18"/>
<text text-anchor="middle" x="85.3848" y="-6.8" font-family="Times New Roman,serif" font-size="9.00">5</text>
</g>
<!-- 3&#45;&gt;5 -->
<g id="edge1" class="edge"><title>3&#45;&gt;5</title>
<path fill="none" stroke="green" d="M68.5108,-135.762C71.3781,-114.392 79.0066,-57.5367 82.9494,-28.1508"/>
<polygon fill="green" stroke="green" points="86.444,-28.4244 84.305,-18.0477 79.5062,-27.4935 86.444,-28.4244"/>
</g>
<!-- 3&#45;&gt;8 -->
<g id="edge6" class="edge"><title>3&#45;&gt;8</title>
<path fill="none" stroke="green" d="M71.9733,-136.036C77.6422,-126.007 87.5026,-108.561 95.3811,-94.6221"/>
<polygon fill="green" stroke="green" points="98.5694,-96.0943 100.443,-85.6664 92.4754,-92.6499 98.5694,-96.0943"/>
</g>
<!-- 4 -->
<g id="node4" class="node"><title>4</title>
<polygon fill="lightgray" stroke="black" points="160.885,-81.3848 139.885,-81.3848 139.885,-63.3848 160.885,-63.3848 160.885,-81.3848"/>
<text text-anchor="middle" x="150.385" y="-70.1848" font-family="Times New Roman,serif" font-size="9.00">4</text>
</g>
<!-- 4&#45;&gt;5 -->
<g id="edge2" class="edge"><title>4&#45;&gt;5</title>
<path fill="none" stroke="green" d="M141.887,-63.3598C131.725,-53.7627 114.488,-37.4848 101.719,-25.4257"/>
<polygon fill="green" stroke="green" points="103.765,-22.5443 94.0919,-18.2229 98.9592,-27.6335 103.765,-22.5443"/>
</g>
<!-- 8&#45;&gt;5 -->
<g id="edge4" class="edge"><title>8&#45;&gt;5</title>
<path fill="none" stroke="green" d="M102.611,-58.0652C99.4186,-49.1573 95.1827,-37.3383 91.7103,-27.6496"/>
<polygon fill="green" stroke="green" points="94.9962,-26.4438 88.3275,-18.211 88.4066,-28.8055 94.9962,-26.4438"/>
</g>
<!-- 18 -->
<g id="node8" class="node"><title>18</title>
<ellipse fill="none" stroke="black" cx="18.3848" cy="-72.3848" rx="18.2703" ry="18.2703"/>
<text text-anchor="middle" x="18.3848" y="-70.1848" font-family="Times New Roman,serif" font-size="9.00">18</text>
</g>
<!-- 10&#45;&gt;18 -->
<g id="edge7" class="edge"><title>10&#45;&gt;18</title>
<path fill="none" stroke="green" d="M18.3848,-126.661C18.3848,-118.978 18.3848,-109.769 18.3848,-101.185"/>
<polygon fill="green" stroke="green" points="21.8849,-101.169 18.3848,-91.1687 14.8849,-101.169 21.8849,-101.169"/>
</g>
<!-- 18&#45;&gt;5 -->
<g id="edge8" class="edge"><title>18&#45;&gt;5</title>
<path fill="none" stroke="red" d="M31.6218,-59.2571C42.3012,-49.4728 57.3813,-35.6565 68.8537,-25.1456"/>
<polygon fill="red" stroke="red" points="71.4463,-27.5172 76.4552,-18.1812 66.7175,-22.3559 71.4463,-27.5172"/>
</g>
</g>
</svg>
