<?xml version="1.0" encoding="UTF-8" standalone="no"?>
<!DOCTYPE svg PUBLIC "-//W3C//DTD SVG 1.1//EN"
 "http://www.w3.org/Graphics/SVG/1.1/DTD/svg11.dtd">
<!-- Generated by graphviz version 2.38.0 (20140413.2041)
 -->
<!-- Title: %3 Pages: 1 -->
<svg width="508pt" height="582pt"
 viewBox="0.00 0.00 508.00 582.32" xmlns="http://www.w3.org/2000/svg" xmlns:xlink="http://www.w3.org/1999/xlink">
<g id="graph0" class="graph" transform="scale(1 1) rotate(0) translate(4 578.316)">
<title>%3</title>
<polygon fill="white" stroke="none" points="-4,4 -4,-578.316 504,-578.316 504,4 -4,4"/>
<!-- 1 -->
<g id="node1" class="node"><title>1</title>
<polygon fill="lightgray" stroke="black" points="156.5,-299.693 135.5,-299.693 135.5,-281.693 156.5,-281.693 156.5,-299.693"/>
<text text-anchor="middle" x="146" y="-288.493" font-family="Times New Roman,serif" font-size="9.00">1</text>
</g>
<!-- 30 -->
<g id="node7" class="node"><title>30</title>
<ellipse fill="none" stroke="black" cx="124" cy="-217.924" rx="18.2703" ry="18.2703"/>
<text text-anchor="middle" x="124" y="-215.724" font-family="Times New Roman,serif" font-size="9.00">30</text>
</g>
<!-- 1&#45;&gt;30 -->
<g id="edge12" class="edge"><title>1&#45;&gt;30</title>
<path fill="none" stroke="red" d="M143.476,-281.575C140.751,-272.809 136.265,-258.377 132.285,-245.574"/>
<polygon fill="red" stroke="red" points="135.555,-244.304 129.244,-235.793 128.871,-246.382 135.555,-244.304"/>
</g>
<!-- 10 -->
<g id="node9" class="node"><title>10</title>
<ellipse fill="none" stroke="black" cx="186" cy="-145.154" rx="18.2703" ry="18.2703"/>
<text text-anchor="middle" x="186" y="-142.954" font-family="Times New Roman,serif" font-size="9.00">10</text>
</g>
<!-- 1&#45;&gt;10 -->
<g id="edge4" class="edge"><title>1&#45;&gt;10</title>
<path fill="none" stroke="green" d="M148.265,-281.565C153.992,-261.015 169.25,-206.262 178.516,-173.011"/>
<polygon fill="green" stroke="green" points="181.981,-173.615 181.294,-163.042 175.238,-171.736 181.981,-173.615"/>
</g>
<!-- 2 -->
<g id="node2" class="node"><title>2</title>
<polygon fill="lightgray" stroke="black" points="87.5,-226.924 66.5,-226.924 66.5,-208.924 87.5,-208.924 87.5,-226.924"/>
<text text-anchor="middle" x="77" y="-215.724" font-family="Times New Roman,serif" font-size="9.00">2</text>
</g>
<!-- 5 -->
<g id="node5" class="node"><title>5</title>
<polygon fill="lightblue" stroke="black" points="288.5,-18 267.5,-18 267.5,-0 288.5,-0 288.5,-18"/>
<text text-anchor="middle" x="278" y="-6.8" font-family="Times New Roman,serif" font-size="9.00">5</text>
</g>
<!-- 2&#45;&gt;5 -->
<g id="edge15" class="edge"><title>2&#45;&gt;5</title>
<path fill="none" stroke="green" d="M82.4406,-208.528C103.511,-176.046 178.925,-60.1261 186,-54 207.33,-35.5312 237.754,-23.0058 257.685,-16.1811"/>
<polygon fill="green" stroke="green" points="258.875,-19.4748 267.301,-13.0523 256.709,-12.8183 258.875,-19.4748"/>
</g>
<!-- 17 -->
<g id="node6" class="node"><title>17</title>
<ellipse fill="none" stroke="black" cx="84" cy="-145.154" rx="18.2703" ry="18.2703"/>
<text text-anchor="middle" x="84" y="-142.954" font-family="Times New Roman,serif" font-size="9.00">17</text>
</g>
<!-- 2&#45;&gt;17 -->
<g id="edge8" class="edge"><title>2&#45;&gt;17</title>
<path fill="none" stroke="red" d="M77.803,-208.806C78.6503,-200.24 80.0326,-186.264 81.277,-173.684"/>
<polygon fill="red" stroke="red" points="84.7736,-173.89 82.275,-163.594 77.8076,-173.201 84.7736,-173.89"/>
</g>
<!-- 2&#45;&gt;10 -->
<g id="edge10" class="edge"><title>2&#45;&gt;10</title>
<path fill="none" stroke="red" d="M85.6845,-208.788C89.1013,-205.746 93.128,-202.35 97,-199.539 117.736,-184.486 142.898,-169.683 161.171,-159.498"/>
<polygon fill="red" stroke="red" points="162.966,-162.505 170.038,-154.615 159.59,-156.373 162.966,-162.505"/>
</g>
<!-- 11 -->
<g id="node18" class="node"><title>11</title>
<ellipse fill="none" stroke="black" cx="324" cy="-145.154" rx="18.2703" ry="18.2703"/>
<text text-anchor="middle" x="324" y="-142.954" font-family="Times New Roman,serif" font-size="9.00">11</text>
</g>
<!-- 2&#45;&gt;11 -->
<g id="edge22" class="edge"><title>2&#45;&gt;11</title>
<path fill="none" stroke="green" d="M84.5118,-208.839C88.0122,-205.509 92.4137,-201.888 97,-199.539 131.808,-181.714 243.356,-160.39 295.997,-150.999"/>
<polygon fill="green" stroke="green" points="296.755,-154.42 305.994,-149.233 295.538,-147.526 296.755,-154.42"/>
</g>
<!-- 3 -->
<g id="node3" class="node"><title>3</title>
<polygon fill="lightgray" stroke="black" points="133.5,-574.316 112.5,-574.316 112.5,-556.316 133.5,-556.316 133.5,-574.316"/>
<text text-anchor="middle" x="123" y="-563.116" font-family="Times New Roman,serif" font-size="9.00">3</text>
</g>
<!-- 3&#45;&gt;5 -->
<g id="edge1" class="edge"><title>3&#45;&gt;5</title>
<path fill="none" stroke="green" d="M112.085,-559.527C81.9819,-545.499 0,-501.405 0,-437.233 0,-437.233 0,-437.233 0,-144.154 0,-96.0232 20.0427,-80.8331 60,-54 122.407,-12.0912 215.981,-8.47832 257.219,-9.15128"/>
<polygon fill="green" stroke="green" points="257.302,-12.6547 267.393,-9.42647 257.492,-5.65727 257.302,-12.6547"/>
</g>
<!-- 8 -->
<g id="node8" class="node"><title>8</title>
<ellipse fill="none" stroke="black" cx="84" cy="-72.3848" rx="14.7" ry="14.7"/>
<text text-anchor="middle" x="84" y="-70.1848" font-family="Times New Roman,serif" font-size="9.00">8</text>
</g>
<!-- 3&#45;&gt;8 -->
<g id="edge5" class="edge"><title>3&#45;&gt;8</title>
<path fill="none" stroke="green" d="M112.235,-556.077C89.3624,-537.546 38,-490.054 38,-437.233 38,-437.233 38,-437.233 38,-216.924 38,-175.975 43.4222,-165.402 57,-126.77 60.8743,-115.746 66.5577,-104.102 71.7119,-94.5108"/>
<polygon fill="green" stroke="green" points="74.8078,-96.1452 76.6032,-85.7036 68.6882,-92.7465 74.8078,-96.1452"/>
</g>
<!-- 3&#45;&gt;10 -->
<g id="edge14" class="edge"><title>3&#45;&gt;10</title>
<path fill="none" stroke="red" d="M133.765,-556.077C156.638,-537.546 208,-490.054 208,-437.233 208,-437.233 208,-437.233 208,-289.693 208,-248.784 199.161,-202.065 192.688,-173.338"/>
<polygon fill="red" stroke="red" points="196.019,-172.207 190.346,-163.258 189.2,-173.791 196.019,-172.207"/>
</g>
<!-- 6 -->
<g id="node10" class="node"><title>6</title>
<ellipse fill="none" stroke="black" cx="353" cy="-505.467" rx="14.7" ry="14.7"/>
<text text-anchor="middle" x="353" y="-503.267" font-family="Times New Roman,serif" font-size="9.00">6</text>
</g>
<!-- 3&#45;&gt;6 -->
<g id="edge16" class="edge"><title>3&#45;&gt;6</title>
<path fill="none" stroke="green" d="M133.785,-561.603C168.784,-552.8 279.776,-524.884 329.043,-512.492"/>
<polygon fill="green" stroke="green" points="329.993,-515.862 338.837,-510.029 328.285,-509.074 329.993,-515.862"/>
</g>
<!-- 4 -->
<g id="node4" class="node"><title>4</title>
<polygon fill="lightgray" stroke="black" points="413.5,-574.316 392.5,-574.316 392.5,-556.316 413.5,-556.316 413.5,-574.316"/>
<text text-anchor="middle" x="403" y="-563.116" font-family="Times New Roman,serif" font-size="9.00">4</text>
</g>
<!-- 4&#45;&gt;5 -->
<g id="edge2" class="edge"><title>4&#45;&gt;5</title>
<path fill="none" stroke="green" d="M413.751,-557.475C439.006,-540.472 500,-493.576 500,-437.233 500,-437.233 500,-437.233 500,-144.154 500,-96.749 481.198,-82.0741 443,-54 398.787,-21.5054 332.261,-12.9979 298.795,-10.778"/>
<polygon fill="green" stroke="green" points="298.966,-7.28224 288.792,-10.2407 298.59,-14.2722 298.966,-7.28224"/>
</g>
<!-- 4&#45;&gt;10 -->
<g id="edge11" class="edge"><title>4&#45;&gt;10</title>
<path fill="none" stroke="green" d="M392.209,-561.382C356.738,-551.019 246,-512.627 246,-437.233 246,-437.233 246,-437.233 246,-289.693 246,-244.073 219.881,-196.166 202.108,-168.85"/>
<polygon fill="green" stroke="green" points="204.926,-166.767 196.451,-160.409 199.111,-170.664 204.926,-166.767"/>
</g>
<!-- 4&#45;&gt;6 -->
<g id="edge17" class="edge"><title>4&#45;&gt;6</title>
<path fill="none" stroke="red" d="M396.048,-556.272C389.103,-548.237 378.18,-535.599 369.074,-525.064"/>
<polygon fill="red" stroke="red" points="371.46,-522.472 362.273,-517.195 366.164,-527.049 371.46,-522.472"/>
</g>
<!-- 7 -->
<g id="node11" class="node"><title>7</title>
<ellipse fill="none" stroke="black" cx="457" cy="-217.924" rx="14.7" ry="14.7"/>
<text text-anchor="middle" x="457" y="-215.724" font-family="Times New Roman,serif" font-size="9.00">7</text>
</g>
<!-- 4&#45;&gt;7 -->
<g id="edge24" class="edge"><title>4&#45;&gt;7</title>
<path fill="none" stroke="red" d="M408.85,-556.148C422.246,-536.616 454,-485.255 454,-437.233 454,-437.233 454,-437.233 454,-362.463 454,-320.434 455.302,-271.499 456.19,-242.988"/>
<polygon fill="red" stroke="red" points="459.695,-242.886 456.518,-232.778 452.699,-242.661 459.695,-242.886"/>
</g>
<!-- 17&#45;&gt;8 -->
<g id="edge9" class="edge"><title>17&#45;&gt;8</title>
<path fill="none" stroke="green" d="M84,-126.661C84,-117.858 84,-107.05 84,-97.4754"/>
<polygon fill="green" stroke="green" points="87.5001,-97.3612 84,-87.3613 80.5001,-97.3613 87.5001,-97.3612"/>
</g>
<!-- 30&#45;&gt;10 -->
<g id="edge13" class="edge"><title>30&#45;&gt;10</title>
<path fill="none" stroke="red" d="M135.662,-203.613C144.554,-193.463 156.981,-179.278 167.262,-167.542"/>
<polygon fill="red" stroke="red" points="170.011,-169.717 173.968,-159.889 164.745,-165.104 170.011,-169.717"/>
</g>
<!-- 8&#45;&gt;5 -->
<g id="edge3" class="edge"><title>8&#45;&gt;5</title>
<path fill="none" stroke="red" d="M96.7881,-64.7332C103.813,-61.244 112.752,-57.0693 121,-54 168.729,-36.2391 226.912,-21.7112 257.283,-14.6438"/>
<polygon fill="red" stroke="red" points="258.177,-18.0297 267.144,-12.3854 256.615,-11.2064 258.177,-18.0297"/>
</g>
<!-- 10&#45;&gt;5 -->
<g id="edge36" class="edge"><title>10&#45;&gt;5</title>
<path fill="none" stroke="green" d="M185.689,-126.585C186.193,-107.124 189.614,-75.6409 205,-54 217.994,-35.7228 241.186,-23.6657 257.948,-16.8694"/>
<polygon fill="green" stroke="green" points="259.28,-20.108 267.405,-13.309 256.813,-13.5568 259.28,-20.108"/>
</g>
<!-- 18 -->
<g id="node15" class="node"><title>18</title>
<ellipse fill="none" stroke="black" cx="232" cy="-72.3848" rx="18.2703" ry="18.2703"/>
<text text-anchor="middle" x="232" y="-70.1848" font-family="Times New Roman,serif" font-size="9.00">18</text>
</g>
<!-- 10&#45;&gt;18 -->
<g id="edge6" class="edge"><title>10&#45;&gt;18</title>
<path fill="none" stroke="green" d="M195.755,-129.146C201.854,-119.763 209.838,-107.481 216.759,-96.8325"/>
<polygon fill="green" stroke="green" points="219.743,-98.6635 222.259,-88.3715 213.874,-94.8485 219.743,-98.6635"/>
</g>
<!-- 12 -->
<g id="node12" class="node"><title>12</title>
<ellipse fill="none" stroke="black" cx="330" cy="-436.233" rx="18.2703" ry="18.2703"/>
<text text-anchor="middle" x="330" y="-434.033" font-family="Times New Roman,serif" font-size="9.00">12</text>
</g>
<!-- 6&#45;&gt;12 -->
<g id="edge21" class="edge"><title>6&#45;&gt;12</title>
<path fill="none" stroke="green" d="M348.456,-491.183C345.735,-483.23 342.183,-472.845 338.922,-463.313"/>
<polygon fill="green" stroke="green" points="342.225,-462.154 335.676,-453.825 335.601,-464.42 342.225,-462.154"/>
</g>
<!-- 14 -->
<g id="node13" class="node"><title>14</title>
<ellipse fill="none" stroke="black" cx="349" cy="-363.463" rx="18.2703" ry="18.2703"/>
<text text-anchor="middle" x="349" y="-361.263" font-family="Times New Roman,serif" font-size="9.00">14</text>
</g>
<!-- 6&#45;&gt;14 -->
<g id="edge31" class="edge"><title>6&#45;&gt;14</title>
<path fill="none" stroke="green" d="M354.42,-490.518C355.363,-480.533 356.513,-466.763 357,-454.617 357.654,-438.288 358.214,-434.145 357,-417.848 356.363,-409.305 355.162,-400.057 353.879,-391.696"/>
<polygon fill="green" stroke="green" points="357.313,-391.006 352.248,-381.7 350.404,-392.133 357.313,-391.006"/>
</g>
<!-- 9 -->
<g id="node16" class="node"><title>9</title>
<ellipse fill="none" stroke="black" cx="306" cy="-217.924" rx="14.7" ry="14.7"/>
<text text-anchor="middle" x="306" y="-215.724" font-family="Times New Roman,serif" font-size="9.00">9</text>
</g>
<!-- 6&#45;&gt;9 -->
<g id="edge18" class="edge"><title>6&#45;&gt;9</title>
<path fill="none" stroke="green" d="M340.806,-496.657C328.613,-488.048 310.613,-472.957 303,-454.617 272.917,-382.145 289.583,-286.007 299.843,-242.315"/>
<polygon fill="green" stroke="green" points="303.296,-242.93 302.281,-232.384 296.498,-241.261 303.296,-242.93"/>
</g>
<!-- 22 -->
<g id="node19" class="node"><title>22</title>
<ellipse fill="none" stroke="black" cx="367" cy="-72.3848" rx="18.2703" ry="18.2703"/>
<text text-anchor="middle" x="367" y="-70.1848" font-family="Times New Roman,serif" font-size="9.00">22</text>
</g>
<!-- 6&#45;&gt;22 -->
<g id="edge35" class="edge"><title>6&#45;&gt;22</title>
<path fill="none" stroke="green" d="M361.74,-493.214C378.607,-470.334 414,-416.164 414,-364.463 414,-364.463 414,-364.463 414,-289.693 414,-270.869 386.467,-154.145 373.548,-100.41"/>
<polygon fill="green" stroke="green" points="376.917,-99.4517 371.171,-90.5503 370.112,-101.092 376.917,-99.4517"/>
</g>
<!-- 7&#45;&gt;5 -->
<g id="edge25" class="edge"><title>7&#45;&gt;5</title>
<path fill="none" stroke="red" d="M458.115,-202.75C459.761,-171.129 458.936,-94.4291 417,-54 384.198,-22.377 328.802,-13.4709 298.804,-10.97"/>
<polygon fill="red" stroke="red" points="298.861,-7.46615 288.65,-10.2911 298.394,-14.4506 298.861,-7.46615"/>
</g>
<!-- 24 -->
<g id="node17" class="node"><title>24</title>
<ellipse fill="none" stroke="black" cx="416" cy="-145.154" rx="18.2703" ry="18.2703"/>
<text text-anchor="middle" x="416" y="-142.954" font-family="Times New Roman,serif" font-size="9.00">24</text>
</g>
<!-- 7&#45;&gt;24 -->
<g id="edge33" class="edge"><title>7&#45;&gt;24</title>
<path fill="none" stroke="green" d="M449.858,-204.597C444.391,-195.16 436.679,-181.848 429.995,-170.311"/>
<polygon fill="green" stroke="green" points="432.96,-168.447 424.919,-161.548 426.903,-171.956 432.96,-168.447"/>
</g>
<!-- 12&#45;&gt;14 -->
<g id="edge23" class="edge"><title>12&#45;&gt;14</title>
<path fill="none" stroke="red" d="M334.599,-418.101C336.77,-410.017 339.41,-400.182 341.834,-391.153"/>
<polygon fill="red" stroke="red" points="345.23,-392.002 344.443,-381.437 338.47,-390.187 345.23,-392.002"/>
</g>
<!-- 19 -->
<g id="node14" class="node"><title>19</title>
<ellipse fill="none" stroke="black" cx="330" cy="-290.693" rx="18.2703" ry="18.2703"/>
<text text-anchor="middle" x="330" y="-288.493" font-family="Times New Roman,serif" font-size="9.00">19</text>
</g>
<!-- 14&#45;&gt;19 -->
<g id="edge27" class="edge"><title>14&#45;&gt;19</title>
<path fill="none" stroke="red" d="M344.401,-345.332C342.23,-337.247 339.59,-327.413 337.166,-318.383"/>
<polygon fill="red" stroke="red" points="340.53,-317.417 334.557,-308.667 333.77,-319.233 340.53,-317.417"/>
</g>
<!-- 14&#45;&gt;11 -->
<g id="edge26" class="edge"><title>14&#45;&gt;11</title>
<path fill="none" stroke="red" d="M352.248,-345.226C354.046,-334.804 356.095,-321.228 357,-309.078 358.214,-292.781 359.085,-288.517 357,-272.309 352.456,-236.983 341.034,-197.432 332.904,-172.19"/>
<polygon fill="red" stroke="red" points="336.206,-171.026 329.757,-162.619 329.556,-173.212 336.206,-171.026"/>
</g>
<!-- 19&#45;&gt;9 -->
<g id="edge28" class="edge"><title>19&#45;&gt;9</title>
<path fill="none" stroke="red" d="M324.312,-272.922C321.185,-263.7 317.258,-252.12 313.843,-242.05"/>
<polygon fill="red" stroke="red" points="317.051,-240.612 310.525,-232.266 310.422,-242.861 317.051,-240.612"/>
</g>
<!-- 18&#45;&gt;5 -->
<g id="edge7" class="edge"><title>18&#45;&gt;5</title>
<path fill="none" stroke="red" d="M242.669,-57.1476C249.507,-48.0221 258.411,-36.1412 265.569,-26.5892"/>
<polygon fill="red" stroke="red" points="268.576,-28.4119 271.772,-18.3105 262.975,-24.2141 268.576,-28.4119"/>
</g>
<!-- 9&#45;&gt;5 -->
<g id="edge19" class="edge"><title>9&#45;&gt;5</title>
<path fill="none" stroke="green" d="M303.463,-202.9C301.56,-192.149 298.957,-176.931 297,-163.539 289.868,-114.719 283.188,-56.9073 279.984,-28.1439"/>
<polygon fill="green" stroke="green" points="283.441,-27.5644 278.866,-18.0087 276.484,-28.3323 283.441,-27.5644"/>
</g>
<!-- 9&#45;&gt;11 -->
<g id="edge20" class="edge"><title>9&#45;&gt;11</title>
<path fill="none" stroke="red" d="M309.471,-203.279C311.647,-194.724 314.527,-183.4 317.148,-173.092"/>
<polygon fill="red" stroke="red" points="320.575,-173.817 319.648,-163.263 313.791,-172.092 320.575,-173.817"/>
</g>
<!-- 24&#45;&gt;5 -->
<g id="edge34" class="edge"><title>24&#45;&gt;5</title>
<path fill="none" stroke="green" d="M416.343,-126.709C415.798,-106.769 411.925,-74.2809 394,-54 369.288,-26.0391 324.896,-15.7717 298.779,-12.0554"/>
<polygon fill="green" stroke="green" points="299.168,-8.57699 288.816,-10.8314 298.314,-15.5248 299.168,-8.57699"/>
</g>
<!-- 24&#45;&gt;22 -->
<g id="edge37" class="edge"><title>24&#45;&gt;22</title>
<path fill="none" stroke="red" d="M405.847,-129.491C399.211,-119.907 390.408,-107.192 382.859,-96.2898"/>
<polygon fill="red" stroke="red" points="385.71,-94.2587 377.14,-88.0295 379.955,-98.2435 385.71,-94.2587"/>
</g>
<!-- 11&#45;&gt;5 -->
<g id="edge32" class="edge"><title>11&#45;&gt;5</title>
<path fill="none" stroke="red" d="M318.267,-127.435C309.543,-101.991 293.007,-53.765 284.08,-27.7315"/>
<polygon fill="red" stroke="red" points="287.319,-26.3882 280.765,-18.0641 280.698,-28.6587 287.319,-26.3882"/>
</g>
<!-- 11&#45;&gt;22 -->
<g id="edge29" class="edge"><title>11&#45;&gt;22</title>
<path fill="none" stroke="red" d="M333.119,-129.146C338.763,-119.857 346.134,-107.726 352.559,-97.1525"/>
<polygon fill="red" stroke="red" points="355.692,-98.7351 357.894,-88.3715 349.71,-95.1002 355.692,-98.7351"/>
</g>
<!-- 22&#45;&gt;5 -->
<g id="edge30" class="edge"><title>22&#45;&gt;5</title>
<path fill="none" stroke="green" d="M352.303,-61.2483C337.14,-50.7899 313.432,-34.4381 296.887,-23.0265"/>
<polygon fill="green" stroke="green" points="298.751,-20.0603 288.531,-17.2637 294.776,-25.8226 298.751,-20.0603"/>
</g>
</g>
</svg>
