<?xml version="1.0" encoding="UTF-8" standalone="no"?>
<!DOCTYPE svg PUBLIC "-//W3C//DTD SVG 1.1//EN"
 "http://www.w3.org/Graphics/SVG/1.1/DTD/svg11.dtd">
<!-- Generated by graphviz version 2.38.0 (20140413.2041)
 -->
<!-- Title: %3 Pages: 1 -->
<svg width="1320pt" height="1333pt"
 viewBox="0.00 0.00 1320.00 1332.64" xmlns="http://www.w3.org/2000/svg" xmlns:xlink="http://www.w3.org/1999/xlink">
<g id="graph0" class="graph" transform="scale(1 1) rotate(0) translate(4 1328.64)">
<title>%3</title>
<polygon fill="white" stroke="none" points="-4,4 -4,-1328.64 1316,-1328.64 1316,4 -4,4"/>
<!-- 1 -->
<g id="node1" class="node"><title>1</title>
<polygon fill="lightgray" stroke="black" points="994.5,-1107.23 973.5,-1107.23 973.5,-1089.23 994.5,-1089.23 994.5,-1107.23"/>
<text text-anchor="middle" x="984" y="-1096.03" font-family="Times New Roman,serif" font-size="9.00">1</text>
</g>
<!-- 30 -->
<g id="node12" class="node"><title>30</title>
<ellipse fill="none" stroke="black" cx="954" cy="-1019.8" rx="18.2703" ry="18.2703"/>
<text text-anchor="middle" x="954" y="-1017.6" font-family="Times New Roman,serif" font-size="9.00">30</text>
</g>
<!-- 1&#45;&gt;30 -->
<g id="edge9" class="edge"><title>1&#45;&gt;30</title>
<path fill="none" stroke="red" d="M980.789,-1089.05C976.859,-1079.04 970.013,-1061.6 964.225,-1046.85"/>
<polygon fill="red" stroke="red" points="967.348,-1045.23 960.436,-1037.2 960.832,-1047.79 967.348,-1045.23"/>
</g>
<!-- 20 -->
<g id="node16" class="node"><title>20</title>
<ellipse fill="none" stroke="black" cx="885" cy="-1019.8" rx="18.2703" ry="18.2703"/>
<text text-anchor="middle" x="885" y="-1017.6" font-family="Times New Roman,serif" font-size="9.00">20</text>
</g>
<!-- 1&#45;&gt;20 -->
<g id="edge77" class="edge"><title>1&#45;&gt;20</title>
<path fill="none" stroke="red" d="M973.405,-1089.05C957.71,-1076.93 927.918,-1053.94 907.283,-1038.01"/>
<polygon fill="red" stroke="red" points="909.39,-1035.21 899.336,-1031.87 905.113,-1040.75 909.39,-1035.21"/>
</g>
<!-- 101 -->
<g id="node17" class="node"><title>101</title>
<ellipse fill="none" stroke="black" cx="1225" cy="-1019.8" rx="21.4286" ry="21.4286"/>
<text text-anchor="middle" x="1225" y="-1017.6" font-family="Times New Roman,serif" font-size="9.00">101</text>
</g>
<!-- 1&#45;&gt;101 -->
<g id="edge99" class="edge"><title>1&#45;&gt;101</title>
<path fill="none" stroke="green" d="M994.603,-1095.34C1025.56,-1089.61 1118.15,-1070.98 1190,-1041.02 1192.73,-1039.88 1195.51,-1038.56 1198.26,-1037.17"/>
<polygon fill="green" stroke="green" points="1200.2,-1040.09 1207.29,-1032.21 1196.84,-1033.95 1200.2,-1040.09"/>
</g>
<!-- 70 -->
<g id="node21" class="node"><title>70</title>
<ellipse fill="none" stroke="black" cx="1022" cy="-871.436" rx="18.2703" ry="18.2703"/>
<text text-anchor="middle" x="1022" y="-869.236" font-family="Times New Roman,serif" font-size="9.00">70</text>
</g>
<!-- 1&#45;&gt;70 -->
<g id="edge65" class="edge"><title>1&#45;&gt;70</title>
<path fill="none" stroke="green" d="M985.863,-1089.07C990.59,-1068.15 1003.23,-1010.84 1011,-962.59 1014.38,-941.607 1017.25,-917.727 1019.21,-899.818"/>
<polygon fill="green" stroke="green" points="1022.7,-900.089 1020.28,-889.774 1015.74,-899.346 1022.7,-900.089"/>
</g>
<!-- 10 -->
<g id="node27" class="node"><title>10</title>
<ellipse fill="none" stroke="black" cx="350" cy="-798.666" rx="18.2703" ry="18.2703"/>
<text text-anchor="middle" x="350" y="-796.466" font-family="Times New Roman,serif" font-size="9.00">10</text>
</g>
<!-- 1&#45;&gt;10 -->
<g id="edge3" class="edge"><title>1&#45;&gt;10</title>
<path fill="none" stroke="red" d="M973.451,-1094.21C928.017,-1081.26 744.38,-1029.78 591,-998.59 540.304,-988.282 395.939,-1000.74 361,-962.59 327.193,-925.674 334.788,-862.175 342.756,-826.325"/>
<polygon fill="red" stroke="red" points="346.167,-827.109 345.087,-816.569 339.359,-825.482 346.167,-827.109"/>
</g>
<!-- 7 -->
<g id="node29" class="node"><title>7</title>
<ellipse fill="none" stroke="black" cx="1160" cy="-798.666" rx="14.7" ry="14.7"/>
<text text-anchor="middle" x="1160" y="-796.466" font-family="Times New Roman,serif" font-size="9.00">7</text>
</g>
<!-- 1&#45;&gt;7 -->
<g id="edge45" class="edge"><title>1&#45;&gt;7</title>
<path fill="none" stroke="red" d="M994.579,-1089.71C1027.69,-1065.42 1129.26,-985.136 1165,-889.82 1173.1,-868.226 1170.24,-841.675 1166.34,-822.998"/>
<polygon fill="red" stroke="red" points="1169.69,-821.946 1164,-813.008 1162.87,-823.542 1169.69,-821.946"/>
</g>
<!-- 2 -->
<g id="node2" class="node"><title>2</title>
<polygon fill="lightgray" stroke="black" points="151.5,-1324.64 130.5,-1324.64 130.5,-1306.64 151.5,-1306.64 151.5,-1324.64"/>
<text text-anchor="middle" x="141" y="-1313.44" font-family="Times New Roman,serif" font-size="9.00">2</text>
</g>
<!-- 5 -->
<g id="node5" class="node"><title>5</title>
<polygon fill="lightblue" stroke="black" points="759.5,-18 738.5,-18 738.5,-0 759.5,-0 759.5,-18"/>
<text text-anchor="middle" x="749" y="-6.8" font-family="Times New Roman,serif" font-size="9.00">5</text>
</g>
<!-- 2&#45;&gt;5 -->
<g id="edge11" class="edge"><title>2&#45;&gt;5</title>
<path fill="none" stroke="green" d="M130.402,-1310.5C97.6109,-1296.91 0,-1250.35 0,-1177.66 0,-1177.66 0,-1177.66 0,-140.619 0,-65.9325 72.8073,-76.575 144,-54 256.267,-18.4004 634.198,-11.42 727.863,-10.2247"/>
<polygon fill="green" stroke="green" points="728.101,-13.7222 738.059,-10.1036 728.018,-6.72268 728.101,-13.7222"/>
</g>
<!-- 58 -->
<g id="node6" class="node"><title>58</title>
<ellipse fill="none" stroke="black" cx="584" cy="-1252.25" rx="18.2703" ry="18.2703"/>
<text text-anchor="middle" x="584" y="-1250.05" font-family="Times New Roman,serif" font-size="9.00">58</text>
</g>
<!-- 2&#45;&gt;58 -->
<g id="edge72" class="edge"><title>2&#45;&gt;58</title>
<path fill="none" stroke="green" d="M151.514,-1313.18C207.234,-1305.46 468.757,-1269.22 555.767,-1257.17"/>
<polygon fill="green" stroke="green" points="556.291,-1260.63 565.716,-1255.79 555.33,-1253.69 556.291,-1260.63"/>
</g>
<!-- 50 -->
<g id="node10" class="node"><title>50</title>
<ellipse fill="none" stroke="black" cx="312" cy="-1098.23" rx="18.2703" ry="18.2703"/>
<text text-anchor="middle" x="312" y="-1096.03" font-family="Times New Roman,serif" font-size="9.00">50</text>
</g>
<!-- 2&#45;&gt;50 -->
<g id="edge112" class="edge"><title>2&#45;&gt;50</title>
<path fill="none" stroke="green" d="M151.691,-1310.94C168.136,-1304.8 199.844,-1291.11 220,-1270.64 261.946,-1228.03 289.873,-1162.39 303.111,-1125.94"/>
<polygon fill="green" stroke="green" points="306.574,-1126.64 306.602,-1116.05 299.973,-1124.31 306.574,-1126.64"/>
</g>
<!-- 17 -->
<g id="node11" class="node"><title>17</title>
<ellipse fill="none" stroke="black" cx="610" cy="-944.205" rx="18.2703" ry="18.2703"/>
<text text-anchor="middle" x="610" y="-942.005" font-family="Times New Roman,serif" font-size="9.00">17</text>
</g>
<!-- 2&#45;&gt;17 -->
<g id="edge7" class="edge"><title>2&#45;&gt;17</title>
<path fill="none" stroke="green" d="M145.724,-1306.52C169.417,-1265.86 274.581,-1085.89 285,-1077.02 376.817,-998.791 521.153,-962.701 581.74,-950.378"/>
<polygon fill="green" stroke="green" points="582.584,-953.779 591.718,-948.411 581.23,-946.911 582.584,-953.779"/>
</g>
<!-- 36 -->
<g id="node14" class="node"><title>36</title>
<ellipse fill="none" stroke="black" cx="388" cy="-944.205" rx="18.2703" ry="18.2703"/>
<text text-anchor="middle" x="388" y="-942.005" font-family="Times New Roman,serif" font-size="9.00">36</text>
</g>
<!-- 2&#45;&gt;36 -->
<g id="edge43" class="edge"><title>2&#45;&gt;36</title>
<path fill="none" stroke="green" d="M142,-1306.26C146.108,-1274.34 163.803,-1158.06 212,-1077.02 247.707,-1016.97 322.295,-975.42 361.934,-956.602"/>
<polygon fill="green" stroke="green" points="363.606,-959.685 371.213,-952.31 360.668,-953.331 363.606,-959.685"/>
</g>
<!-- 8 -->
<g id="node26" class="node"><title>8</title>
<ellipse fill="none" stroke="black" cx="559" cy="-725.897" rx="14.7" ry="14.7"/>
<text text-anchor="middle" x="559" y="-723.697" font-family="Times New Roman,serif" font-size="9.00">8</text>
</g>
<!-- 2&#45;&gt;8 -->
<g id="edge29" class="edge"><title>2&#45;&gt;8</title>
<path fill="none" stroke="green" d="M137.231,-1306.51C120.684,-1269.64 57.1729,-1114.89 100,-998.59 147.927,-868.436 196.822,-837.869 323,-780.281 395.397,-747.239 489.884,-733.866 534.121,-729.145"/>
<polygon fill="green" stroke="green" points="534.642,-732.611 544.24,-728.125 533.94,-725.646 534.642,-732.611"/>
</g>
<!-- 2&#45;&gt;10 -->
<g id="edge8" class="edge"><title>2&#45;&gt;10</title>
<path fill="none" stroke="red" d="M140.535,-1306.52C138.176,-1257.75 131.963,-1000.84 252,-853.051 270.325,-830.489 300.828,-816.037 322.943,-807.938"/>
<polygon fill="red" stroke="red" points="324.13,-811.231 332.439,-804.658 321.845,-804.615 324.13,-811.231"/>
</g>
<!-- 11 -->
<g id="node47" class="node"><title>11</title>
<ellipse fill="none" stroke="black" cx="616" cy="-72.3848" rx="18.2703" ry="18.2703"/>
<text text-anchor="middle" x="616" y="-70.1848" font-family="Times New Roman,serif" font-size="9.00">11</text>
</g>
<!-- 2&#45;&gt;11 -->
<g id="edge17" class="edge"><title>2&#45;&gt;11</title>
<path fill="none" stroke="green" d="M132.453,-1306.35C124.406,-1298.06 112.627,-1284.56 106,-1270.64 91.7696,-1240.74 95.2444,-1230.57 90,-1197.87 60.5733,-1014.41 42.8974,-953.549 110,-780.281 126.788,-736.932 467.549,-304.219 469,-302.007 517.833,-227.578 513.619,-198.746 566,-126.77 574.726,-114.779 585.896,-102.619 595.464,-92.9392"/>
<polygon fill="green" stroke="green" points="598.073,-95.2815 602.716,-85.7585 593.148,-90.3071 598.073,-95.2815"/>
</g>
<!-- 3 -->
<g id="node3" class="node"><title>3</title>
<polygon fill="lightgray" stroke="black" points="520.5,-1107.23 499.5,-1107.23 499.5,-1089.23 520.5,-1089.23 520.5,-1107.23"/>
<text text-anchor="middle" x="510" y="-1096.03" font-family="Times New Roman,serif" font-size="9.00">3</text>
</g>
<!-- 3&#45;&gt;5 -->
<g id="edge1" class="edge"><title>3&#45;&gt;5</title>
<path fill="none" stroke="green" d="M499.408,-1094.95C436.433,-1080.75 114,-998.317 114,-799.666 114,-799.666 114,-799.666 114,-140.619 114,-12.2119 618.464,-8.93773 728.125,-9.74295"/>
<polygon fill="green" stroke="green" points="728.212,-13.2438 738.245,-9.8384 728.278,-6.24414 728.212,-13.2438"/>
</g>
<!-- 35 -->
<g id="node9" class="node"><title>35</title>
<ellipse fill="none" stroke="black" cx="564" cy="-1019.8" rx="18.2703" ry="18.2703"/>
<text text-anchor="middle" x="564" y="-1017.6" font-family="Times New Roman,serif" font-size="9.00">35</text>
</g>
<!-- 3&#45;&gt;35 -->
<g id="edge40" class="edge"><title>3&#45;&gt;35</title>
<path fill="none" stroke="green" d="M515.779,-1089.05C523.376,-1078.3 537.027,-1058.98 547.87,-1043.63"/>
<polygon fill="green" stroke="green" points="550.951,-1045.34 553.863,-1035.15 545.234,-1041.3 550.951,-1045.34"/>
</g>
<!-- 26 -->
<g id="node13" class="node"><title>26</title>
<ellipse fill="none" stroke="black" cx="854" cy="-871.436" rx="18.2703" ry="18.2703"/>
<text text-anchor="middle" x="854" y="-869.236" font-family="Times New Roman,serif" font-size="9.00">26</text>
</g>
<!-- 3&#45;&gt;26 -->
<g id="edge27" class="edge"><title>3&#45;&gt;26</title>
<path fill="none" stroke="red" d="M516.234,-1089.08C519.833,-1084.9 524.691,-1080.06 530,-1077.02 585.716,-1045.03 613.517,-1071.63 670,-1041.02 740.878,-1002.6 805.934,-930.961 836.183,-894.695"/>
<polygon fill="red" stroke="red" points="839.119,-896.635 842.772,-886.69 833.714,-892.186 839.119,-896.635"/>
</g>
<!-- 3&#45;&gt;8 -->
<g id="edge4" class="edge"><title>3&#45;&gt;8</title>
<path fill="none" stroke="green" d="M510.183,-1089.17C510.978,-1058.35 514.755,-945.074 529,-853.051 534.081,-820.229 538.293,-812.588 546,-780.281 548.348,-770.439 550.982,-759.587 553.262,-750.252"/>
<polygon fill="green" stroke="green" points="556.673,-751.038 555.652,-740.492 549.874,-749.373 556.673,-751.038"/>
</g>
<!-- 3&#45;&gt;10 -->
<g id="edge10" class="edge"><title>3&#45;&gt;10</title>
<path fill="none" stroke="red" d="M501.757,-1089.17C483.402,-1071.46 437.358,-1028.38 394,-998.59 366.461,-979.668 345.056,-991.322 328,-962.59 302.274,-919.254 322.502,-858.191 337.531,-824.471"/>
<polygon fill="red" stroke="red" points="340.739,-825.871 341.78,-815.328 334.391,-822.921 340.739,-825.871"/>
</g>
<!-- 6 -->
<g id="node28" class="node"><title>6</title>
<ellipse fill="none" stroke="black" cx="890" cy="-798.666" rx="14.7" ry="14.7"/>
<text text-anchor="middle" x="890" y="-796.466" font-family="Times New Roman,serif" font-size="9.00">6</text>
</g>
<!-- 3&#45;&gt;6 -->
<g id="edge12" class="edge"><title>3&#45;&gt;6</title>
<path fill="none" stroke="red" d="M517.349,-1088.86C520.953,-1085.02 525.483,-1080.54 530,-1077.02 554.832,-1057.67 565.128,-1058.95 591,-1041.02 649.016,-1000.8 815.456,-862.13 871.401,-815.275"/>
<polygon fill="red" stroke="red" points="873.697,-817.917 879.113,-808.811 869.201,-812.552 873.697,-817.917"/>
</g>
<!-- 4 -->
<g id="node4" class="node"><title>4</title>
<polygon fill="lightgray" stroke="black" points="719.5,-1324.64 698.5,-1324.64 698.5,-1306.64 719.5,-1306.64 719.5,-1324.64"/>
<text text-anchor="middle" x="709" y="-1313.44" font-family="Times New Roman,serif" font-size="9.00">4</text>
</g>
<!-- 4&#45;&gt;5 -->
<g id="edge2" class="edge"><title>4&#45;&gt;5</title>
<path fill="none" stroke="green" d="M719.831,-1314.5C783.103,-1313.58 1105.22,-1307.14 1196,-1270.64 1257.3,-1245.99 1312,-1243.73 1312,-1177.66 1312,-1177.66 1312,-1177.66 1312,-140.619 1312,-27.0954 872.136,-12.2089 770.003,-10.2825"/>
<polygon fill="green" stroke="green" points="769.801,-6.77874 759.744,-10.1126 769.685,-13.7778 769.801,-6.77874"/>
</g>
<!-- 4&#45;&gt;58 -->
<g id="edge94" class="edge"><title>4&#45;&gt;58</title>
<path fill="none" stroke="green" d="M698.343,-1309.41C678.802,-1299.81 636.743,-1279.15 609.445,-1265.75"/>
<polygon fill="green" stroke="green" points="610.985,-1262.61 600.466,-1261.34 607.899,-1268.89 610.985,-1262.61"/>
</g>
<!-- 4&#45;&gt;50 -->
<g id="edge39" class="edge"><title>4&#45;&gt;50</title>
<path fill="none" stroke="red" d="M698.433,-1314.49C648.323,-1313.62 434.877,-1307.73 382,-1270.64 334.631,-1237.41 319.268,-1166.17 314.321,-1126.8"/>
<polygon fill="red" stroke="red" points="317.795,-1126.38 313.206,-1116.83 310.839,-1127.15 317.795,-1126.38"/>
</g>
<!-- 4&#45;&gt;36 -->
<g id="edge30" class="edge"><title>4&#45;&gt;36</title>
<path fill="none" stroke="green" d="M698.491,-1314.35C671.822,-1313.08 600.55,-1306.35 557,-1270.64 457.876,-1189.36 410.132,-1034.62 394.265,-972.252"/>
<polygon fill="green" stroke="green" points="397.624,-971.256 391.827,-962.388 390.828,-972.936 397.624,-971.256"/>
</g>
<!-- 62 -->
<g id="node15" class="node"><title>62</title>
<ellipse fill="none" stroke="black" cx="1114" cy="-871.436" rx="18.2703" ry="18.2703"/>
<text text-anchor="middle" x="1114" y="-869.236" font-family="Times New Roman,serif" font-size="9.00">62</text>
</g>
<!-- 4&#45;&gt;62 -->
<g id="edge51" class="edge"><title>4&#45;&gt;62</title>
<path fill="none" stroke="red" d="M719.782,-1314.42C797.893,-1312.54 1274,-1296.25 1274,-1177.66 1274,-1177.66 1274,-1177.66 1274,-1018.8 1274,-947.403 1186.18,-901.462 1140.67,-882.445"/>
<polygon fill="red" stroke="red" points="1141.71,-879.09 1131.12,-878.593 1139.09,-885.581 1141.71,-879.09"/>
</g>
<!-- 4&#45;&gt;20 -->
<g id="edge53" class="edge"><title>4&#45;&gt;20</title>
<path fill="none" stroke="red" d="M713.891,-1306.47C736.809,-1268.21 834.003,-1105.94 870.802,-1044.51"/>
<polygon fill="red" stroke="red" points="873.838,-1046.25 875.974,-1035.87 867.833,-1042.65 873.838,-1046.25"/>
</g>
<!-- 121 -->
<g id="node25" class="node"><title>121</title>
<ellipse fill="none" stroke="black" cx="1009" cy="-1176.66" rx="21.4286" ry="21.4286"/>
<text text-anchor="middle" x="1009" y="-1174.46" font-family="Times New Roman,serif" font-size="9.00">121</text>
</g>
<!-- 4&#45;&gt;121 -->
<g id="edge107" class="edge"><title>4&#45;&gt;121</title>
<path fill="none" stroke="red" d="M719.576,-1311.51C741.371,-1304.92 792.706,-1288.75 834,-1270.64 888.141,-1246.89 948.45,-1213.12 982.251,-1193.49"/>
<polygon fill="red" stroke="red" points="984.185,-1196.42 991.055,-1188.35 980.654,-1190.37 984.185,-1196.42"/>
</g>
<!-- 4&#45;&gt;10 -->
<g id="edge32" class="edge"><title>4&#45;&gt;10</title>
<path fill="none" stroke="red" d="M698.249,-1314.77C644.174,-1315.22 402.255,-1314.7 345,-1270.64 252.71,-1199.61 266,-1137.26 266,-1020.8 266,-1020.8 266,-1020.8 266,-943.205 266,-892.965 304.806,-844.709 329.666,-818.949"/>
<polygon fill="red" stroke="red" points="332.305,-821.258 336.875,-811.7 327.342,-816.322 332.305,-821.258"/>
</g>
<!-- 78 -->
<g id="node7" class="node"><title>78</title>
<ellipse fill="none" stroke="black" cx="560" cy="-1176.66" rx="18.2703" ry="18.2703"/>
<text text-anchor="middle" x="560" y="-1174.46" font-family="Times New Roman,serif" font-size="9.00">78</text>
</g>
<!-- 58&#45;&gt;78 -->
<g id="edge84" class="edge"><title>58&#45;&gt;78</title>
<path fill="none" stroke="green" d="M578.554,-1234.55C575.608,-1225.52 571.902,-1214.16 568.579,-1203.96"/>
<polygon fill="green" stroke="green" points="571.852,-1202.71 565.424,-1194.29 565.197,-1204.88 571.852,-1202.71"/>
</g>
<!-- 58&#45;&gt;35 -->
<g id="edge73" class="edge"><title>58&#45;&gt;35</title>
<path fill="none" stroke="red" d="M587.367,-1234.18C592.97,-1202.68 602.425,-1133.48 590,-1077.02 587.574,-1065.99 582.764,-1054.55 577.934,-1044.9"/>
<polygon fill="red" stroke="red" points="580.953,-1043.12 573.184,-1035.91 574.765,-1046.39 580.953,-1043.12"/>
</g>
<!-- 52 -->
<g id="node22" class="node"><title>52</title>
<ellipse fill="none" stroke="black" cx="648" cy="-798.666" rx="18.2703" ry="18.2703"/>
<text text-anchor="middle" x="648" y="-796.466" font-family="Times New Roman,serif" font-size="9.00">52</text>
</g>
<!-- 58&#45;&gt;52 -->
<g id="edge86" class="edge"><title>58&#45;&gt;52</title>
<path fill="none" stroke="green" d="M600.69,-1243.88C639.396,-1225.53 732,-1173.82 732,-1099.23 732,-1099.23 732,-1099.23 732,-943.205 732,-892.965 693.194,-844.709 668.334,-818.949"/>
<polygon fill="green" stroke="green" points="670.658,-816.322 661.125,-811.7 665.695,-821.258 670.658,-816.322"/>
</g>
<!-- 9 -->
<g id="node42" class="node"><title>9</title>
<ellipse fill="none" stroke="black" cx="792" cy="-141.619" rx="14.7" ry="14.7"/>
<text text-anchor="middle" x="792" y="-139.419" font-family="Times New Roman,serif" font-size="9.00">9</text>
</g>
<!-- 58&#45;&gt;9 -->
<g id="edge93" class="edge"><title>58&#45;&gt;9</title>
<path fill="none" stroke="green" d="M568.254,-1242.02C508.861,-1206.15 298.046,-1069.09 224,-889.82 217.761,-874.716 222.102,-869.282 224,-853.051 239.438,-720.997 223.243,-675.156 293,-561.973 359.022,-454.85 686.929,-217.362 771.876,-156.861"/>
<polygon fill="green" stroke="green" points="774.046,-159.613 780.17,-150.968 769.991,-153.907 774.046,-159.613"/>
</g>
<!-- 126 -->
<g id="node8" class="node"><title>126</title>
<ellipse fill="none" stroke="black" cx="560" cy="-1098.23" rx="21.4286" ry="21.4286"/>
<text text-anchor="middle" x="560" y="-1096.03" font-family="Times New Roman,serif" font-size="9.00">126</text>
</g>
<!-- 78&#45;&gt;126 -->
<g id="edge109" class="edge"><title>78&#45;&gt;126</title>
<path fill="none" stroke="green" d="M560,-1157.93C560,-1149.51 560,-1139.21 560,-1129.6"/>
<polygon fill="green" stroke="green" points="563.5,-1129.56 560,-1119.56 556.5,-1129.56 563.5,-1129.56"/>
</g>
<!-- 78&#45;&gt;50 -->
<g id="edge88" class="edge"><title>78&#45;&gt;50</title>
<path fill="none" stroke="red" d="M542.561,-1170.28C499.961,-1157.15 390.353,-1123.38 339.133,-1107.59"/>
<polygon fill="red" stroke="red" points="340.007,-1104.2 329.42,-1104.6 337.945,-1110.89 340.007,-1104.2"/>
</g>
<!-- 126&#45;&gt;35 -->
<g id="edge110" class="edge"><title>126&#45;&gt;35</title>
<path fill="none" stroke="red" d="M561.072,-1076.75C561.529,-1068.01 562.07,-1057.68 562.561,-1048.29"/>
<polygon fill="red" stroke="red" points="566.06,-1048.4 563.088,-1038.23 559.07,-1048.03 566.06,-1048.4"/>
</g>
<!-- 35&#45;&gt;17 -->
<g id="edge28" class="edge"><title>35&#45;&gt;17</title>
<path fill="none" stroke="green" d="M573.309,-1003.91C579.606,-993.834 588.056,-980.314 595.26,-968.788"/>
<polygon fill="green" stroke="green" points="598.373,-970.412 600.705,-960.077 592.437,-966.702 598.373,-970.412"/>
</g>
<!-- 35&#45;&gt;8 -->
<g id="edge67" class="edge"><title>35&#45;&gt;8</title>
<path fill="none" stroke="red" d="M568.279,-1001.89C575.333,-971.924 588.138,-907.553 583,-853.051 579.576,-816.732 570.724,-775.303 564.782,-750.134"/>
<polygon fill="red" stroke="red" points="568.183,-749.306 562.438,-740.404 561.378,-750.946 568.183,-749.306"/>
</g>
<!-- 60 -->
<g id="node30" class="node"><title>60</title>
<ellipse fill="none" stroke="black" cx="1062" cy="-798.666" rx="18.2703" ry="18.2703"/>
<text text-anchor="middle" x="1062" y="-796.466" font-family="Times New Roman,serif" font-size="9.00">60</text>
</g>
<!-- 35&#45;&gt;60 -->
<g id="edge49" class="edge"><title>35&#45;&gt;60</title>
<path fill="none" stroke="green" d="M581.03,-1012.4C628.827,-994.304 768.101,-940.818 881,-889.82 937.441,-864.326 1002.05,-831.156 1036.76,-812.996"/>
<polygon fill="green" stroke="green" points="1038.5,-816.037 1045.73,-808.291 1035.25,-809.838 1038.5,-816.037"/>
</g>
<!-- 18 -->
<g id="node41" class="node"><title>18</title>
<ellipse fill="none" stroke="black" cx="320" cy="-580.357" rx="18.2703" ry="18.2703"/>
<text text-anchor="middle" x="320" y="-578.157" font-family="Times New Roman,serif" font-size="9.00">18</text>
</g>
<!-- 35&#45;&gt;18 -->
<g id="edge38" class="edge"><title>35&#45;&gt;18</title>
<path fill="none" stroke="red" d="M545.829,-1016.81C497.354,-1011.11 366.702,-993.181 338,-962.59 248.026,-866.696 296.826,-802.474 285,-671.512 283.53,-655.236 280.325,-650.401 285,-634.742 288.412,-623.315 295.14,-612.062 301.793,-602.856"/>
<polygon fill="red" stroke="red" points="304.727,-604.781 308.038,-594.717 299.174,-600.52 304.727,-604.781"/>
</g>
<!-- 81 -->
<g id="node18" class="node"><title>81</title>
<ellipse fill="none" stroke="black" cx="648" cy="-871.436" rx="18.2703" ry="18.2703"/>
<text text-anchor="middle" x="648" y="-869.236" font-family="Times New Roman,serif" font-size="9.00">81</text>
</g>
<!-- 17&#45;&gt;81 -->
<g id="edge69" class="edge"><title>17&#45;&gt;81</title>
<path fill="none" stroke="green" d="M618.433,-927.499C623.255,-918.52 629.407,-907.062 634.85,-896.926"/>
<polygon fill="green" stroke="green" points="637.943,-898.564 639.59,-888.098 631.776,-895.252 637.943,-898.564"/>
</g>
<!-- 40 -->
<g id="node24" class="node"><title>40</title>
<ellipse fill="none" stroke="black" cx="556" cy="-871.436" rx="18.2703" ry="18.2703"/>
<text text-anchor="middle" x="556" y="-869.236" font-family="Times New Roman,serif" font-size="9.00">40</text>
</g>
<!-- 17&#45;&gt;40 -->
<g id="edge60" class="edge"><title>17&#45;&gt;40</title>
<path fill="none" stroke="green" d="M599.331,-929.223C591.885,-919.465 581.785,-906.228 573.209,-894.989"/>
<polygon fill="green" stroke="green" points="575.866,-892.701 567.017,-886.874 570.301,-896.947 575.866,-892.701"/>
</g>
<!-- 17&#45;&gt;7 -->
<g id="edge66" class="edge"><title>17&#45;&gt;7</title>
<path fill="none" stroke="red" d="M628.563,-942.619C718.032,-939.623 1102.05,-924.794 1141,-889.82 1159.16,-873.515 1162.42,-844.621 1162.09,-823.936"/>
<polygon fill="red" stroke="red" points="1165.58,-823.533 1161.64,-813.699 1158.59,-823.846 1165.58,-823.533"/>
</g>
<!-- 12 -->
<g id="node31" class="node"><title>12</title>
<ellipse fill="none" stroke="black" cx="743" cy="-725.897" rx="18.2703" ry="18.2703"/>
<text text-anchor="middle" x="743" y="-723.697" font-family="Times New Roman,serif" font-size="9.00">12</text>
</g>
<!-- 17&#45;&gt;12 -->
<g id="edge58" class="edge"><title>17&#45;&gt;12</title>
<path fill="none" stroke="green" d="M625.231,-933.865C639.701,-924.332 661.234,-908.337 675,-889.82 706.653,-847.244 726.59,-787.759 736.183,-753.695"/>
<polygon fill="green" stroke="green" points="739.576,-754.555 738.83,-743.987 732.823,-752.714 739.576,-754.555"/>
</g>
<!-- 83 -->
<g id="node19" class="node"><title>83</title>
<ellipse fill="none" stroke="black" cx="984" cy="-944.205" rx="18.2703" ry="18.2703"/>
<text text-anchor="middle" x="984" y="-942.005" font-family="Times New Roman,serif" font-size="9.00">83</text>
</g>
<!-- 30&#45;&gt;83 -->
<g id="edge75" class="edge"><title>30&#45;&gt;83</title>
<path fill="none" stroke="red" d="M960.658,-1002.47C964.425,-993.227 969.222,-981.459 973.487,-970.997"/>
<polygon fill="red" stroke="red" points="976.827,-972.075 977.361,-961.493 970.345,-969.432 976.827,-972.075"/>
</g>
<!-- 43 -->
<g id="node20" class="node"><title>43</title>
<ellipse fill="none" stroke="black" cx="464" cy="-944.205" rx="18.2703" ry="18.2703"/>
<text text-anchor="middle" x="464" y="-942.005" font-family="Times New Roman,serif" font-size="9.00">43</text>
</g>
<!-- 30&#45;&gt;43 -->
<g id="edge105" class="edge"><title>30&#45;&gt;43</title>
<path fill="none" stroke="red" d="M938.547,-1009.81C930.821,-1005.72 921.18,-1001.22 912,-998.59 770.584,-958.113 728.91,-981.225 583,-962.59 551.929,-958.622 516.407,-953.334 492.321,-949.636"/>
<polygon fill="red" stroke="red" points="492.534,-946.128 482.117,-948.06 491.465,-953.046 492.534,-946.128"/>
</g>
<!-- 14 -->
<g id="node33" class="node"><title>14</title>
<ellipse fill="none" stroke="black" cx="732" cy="-653.127" rx="18.2703" ry="18.2703"/>
<text text-anchor="middle" x="732" y="-650.927" font-family="Times New Roman,serif" font-size="9.00">14</text>
</g>
<!-- 30&#45;&gt;14 -->
<g id="edge44" class="edge"><title>30&#45;&gt;14</title>
<path fill="none" stroke="green" d="M948.132,-1002.2C937.024,-971.649 911.302,-904.903 881,-853.051 840.689,-784.073 780.745,-710.814 750.655,-675.55"/>
<polygon fill="green" stroke="green" points="753.19,-673.129 744.02,-667.823 747.88,-677.69 753.19,-673.129"/>
</g>
<!-- 26&#45;&gt;52 -->
<g id="edge55" class="edge"><title>26&#45;&gt;52</title>
<path fill="none" stroke="green" d="M836.791,-864.524C800.892,-852.191 717.798,-823.645 674.822,-808.881"/>
<polygon fill="green" stroke="green" points="675.9,-805.55 665.305,-805.611 673.625,-812.17 675.9,-805.55"/>
</g>
<!-- 26&#45;&gt;7 -->
<g id="edge59" class="edge"><title>26&#45;&gt;7</title>
<path fill="none" stroke="red" d="M872.008,-866.453C911.401,-857.716 1008.17,-836.126 1089,-817.051 1104.5,-813.394 1121.86,-809.146 1135.53,-805.764"/>
<polygon fill="red" stroke="red" points="1136.74,-809.071 1145.6,-803.266 1135.05,-802.277 1136.74,-809.071"/>
</g>
<!-- 37 -->
<g id="node38" class="node"><title>37</title>
<ellipse fill="none" stroke="black" cx="970" cy="-725.897" rx="18.2703" ry="18.2703"/>
<text text-anchor="middle" x="970" y="-723.697" font-family="Times New Roman,serif" font-size="9.00">37</text>
</g>
<!-- 26&#45;&gt;37 -->
<g id="edge111" class="edge"><title>26&#45;&gt;37</title>
<path fill="none" stroke="red" d="M868.399,-859.587C881.268,-849.459 900.171,-833.477 914,-817.051 931.156,-796.672 946.795,-770.558 957.159,-751.685"/>
<polygon fill="red" stroke="red" points="960.282,-753.267 961.942,-742.803 954.119,-749.948 960.282,-753.267"/>
</g>
<!-- 26&#45;&gt;11 -->
<g id="edge74" class="edge"><title>26&#45;&gt;11</title>
<path fill="none" stroke="green" d="M839.111,-860.317C811.422,-840.823 751.594,-795.442 716,-744.281 663.01,-668.117 559,-450.177 559,-357.392 559,-357.392 559,-357.392 559,-209.853 559,-167.132 583.078,-122.297 599.935,-96.1414"/>
<polygon fill="green" stroke="green" points="602.923,-97.9682 605.545,-87.703 597.094,-94.0926 602.923,-97.9682"/>
</g>
<!-- 36&#45;&gt;40 -->
<g id="edge87" class="edge"><title>36&#45;&gt;40</title>
<path fill="none" stroke="green" d="M404.723,-936.161C434.032,-923.814 494.877,-898.184 529.812,-883.467"/>
<polygon fill="green" stroke="green" points="531.488,-886.559 539.345,-879.452 528.77,-880.108 531.488,-886.559"/>
</g>
<!-- 36&#45;&gt;10 -->
<g id="edge31" class="edge"><title>36&#45;&gt;10</title>
<path fill="none" stroke="green" d="M383.492,-926.176C376.978,-901.572 364.87,-855.836 357.136,-826.62"/>
<polygon fill="green" stroke="green" points="360.445,-825.445 354.502,-816.673 353.678,-827.236 360.445,-825.445"/>
</g>
<!-- 36&#45;&gt;14 -->
<g id="edge46" class="edge"><title>36&#45;&gt;14</title>
<path fill="none" stroke="red" d="M392.952,-926.194C406.906,-881.616 451.1,-761.158 535,-707.512 588.326,-673.415 663.145,-660.909 703.502,-656.465"/>
<polygon fill="red" stroke="red" points="704.093,-659.923 713.691,-655.435 703.389,-652.959 704.093,-659.923"/>
</g>
<!-- 62&#45;&gt;7 -->
<g id="edge52" class="edge"><title>62&#45;&gt;7</title>
<path fill="none" stroke="green" d="M1123.76,-855.427C1130.41,-845.182 1139.32,-831.481 1146.64,-820.223"/>
<polygon fill="green" stroke="green" points="1149.58,-822.124 1152.09,-811.832 1143.71,-818.309 1149.58,-822.124"/>
</g>
<!-- 62&#45;&gt;60 -->
<g id="edge85" class="edge"><title>62&#45;&gt;60</title>
<path fill="none" stroke="red" d="M1103.48,-856.114C1096.36,-846.426 1086.81,-833.426 1078.66,-822.343"/>
<polygon fill="red" stroke="red" points="1081.25,-819.952 1072.51,-813.966 1075.61,-824.097 1081.25,-819.952"/>
</g>
<!-- 62&#45;&gt;9 -->
<g id="edge62" class="edge"><title>62&#45;&gt;9</title>
<path fill="none" stroke="red" d="M1112.79,-852.767C1111.03,-825.689 1108,-772.291 1108,-726.897 1108,-726.897 1108,-726.897 1108,-282.622 1108,-155.917 893.004,-142.982 817.688,-142.338"/>
<polygon fill="red" stroke="red" points="817.247,-138.837 807.241,-142.322 817.236,-145.837 817.247,-138.837"/>
</g>
<!-- 20&#45;&gt;6 -->
<g id="edge54" class="edge"><title>20&#45;&gt;6</title>
<path fill="none" stroke="red" d="M885.401,-1001.24C886.292,-962.198 888.437,-868.148 889.452,-823.703"/>
<polygon fill="red" stroke="red" points="892.954,-823.613 889.684,-813.536 885.956,-823.453 892.954,-823.613"/>
</g>
<!-- 20&#45;&gt;12 -->
<g id="edge98" class="edge"><title>20&#45;&gt;12</title>
<path fill="none" stroke="red" d="M877.163,-1002.69C853.694,-954.449 783.843,-810.856 755.329,-752.241"/>
<polygon fill="red" stroke="red" points="758.334,-750.418 750.813,-742.957 752.04,-753.48 758.334,-750.418"/>
</g>
<!-- 101&#45;&gt;7 -->
<g id="edge100" class="edge"><title>101&#45;&gt;7</title>
<path fill="none" stroke="red" d="M1227.67,-998.589C1231.03,-966.243 1233.97,-901.563 1212,-853.051 1204.96,-837.497 1191.36,-823.793 1179.83,-814.164"/>
<polygon fill="red" stroke="red" points="1181.94,-811.371 1171.93,-807.906 1177.59,-816.858 1181.94,-811.371"/>
</g>
<!-- 81&#45;&gt;52 -->
<g id="edge70" class="edge"><title>81&#45;&gt;52</title>
<path fill="none" stroke="green" d="M648,-852.942C648,-845.26 648,-836.051 648,-827.466"/>
<polygon fill="green" stroke="green" points="651.5,-827.45 648,-817.45 644.5,-827.45 651.5,-827.45"/>
</g>
<!-- 19 -->
<g id="node37" class="node"><title>19</title>
<ellipse fill="none" stroke="black" cx="719" cy="-356.392" rx="18.2703" ry="18.2703"/>
<text text-anchor="middle" x="719" y="-354.192" font-family="Times New Roman,serif" font-size="9.00">19</text>
</g>
<!-- 81&#45;&gt;19 -->
<g id="edge92" class="edge"><title>81&#45;&gt;19</title>
<path fill="none" stroke="red" d="M638.198,-855.751C631.911,-845.417 624.325,-830.993 621,-817.051 617.209,-801.155 619.594,-796.563 621,-780.281 635.392,-613.673 635.984,-568.344 692,-410.777 695.475,-401.003 700.348,-390.73 704.999,-381.835"/>
<polygon fill="red" stroke="red" points="708.201,-383.272 709.883,-372.812 702.045,-379.94 708.201,-383.272"/>
</g>
<!-- 83&#45;&gt;70 -->
<g id="edge76" class="edge"><title>83&#45;&gt;70</title>
<path fill="none" stroke="green" d="M992.433,-927.499C997.255,-918.52 1003.41,-907.062 1008.85,-896.926"/>
<polygon fill="green" stroke="green" points="1011.94,-898.564 1013.59,-888.098 1005.78,-895.252 1011.94,-898.564"/>
</g>
<!-- 33 -->
<g id="node23" class="node"><title>33</title>
<ellipse fill="none" stroke="black" cx="464" cy="-871.436" rx="18.2703" ry="18.2703"/>
<text text-anchor="middle" x="464" y="-869.236" font-family="Times New Roman,serif" font-size="9.00">33</text>
</g>
<!-- 43&#45;&gt;33 -->
<g id="edge106" class="edge"><title>43&#45;&gt;33</title>
<path fill="none" stroke="green" d="M464,-925.712C464,-918.029 464,-908.82 464,-900.236"/>
<polygon fill="green" stroke="green" points="467.5,-900.22 464,-890.22 460.5,-900.22 467.5,-900.22"/>
</g>
<!-- 70&#45;&gt;6 -->
<g id="edge71" class="edge"><title>70&#45;&gt;6</title>
<path fill="none" stroke="red" d="M1006.06,-861.747C1000.94,-858.961 995.233,-855.869 990,-853.051 963.197,-838.616 932.274,-822.134 911.996,-811.349"/>
<polygon fill="red" stroke="red" points="913.434,-808.15 902.961,-806.546 910.148,-814.331 913.434,-808.15"/>
</g>
<!-- 52&#45;&gt;8 -->
<g id="edge56" class="edge"><title>52&#45;&gt;8</title>
<path fill="none" stroke="red" d="M634.094,-786.608C619.106,-774.691 595.145,-755.637 578.329,-742.266"/>
<polygon fill="red" stroke="red" points="580.277,-739.344 570.272,-735.86 575.921,-744.823 580.277,-739.344"/>
</g>
<!-- 33&#45;&gt;10 -->
<g id="edge57" class="edge"><title>33&#45;&gt;10</title>
<path fill="none" stroke="red" d="M448.625,-860.891C429.502,-849.02 396.636,-828.617 374.14,-814.652"/>
<polygon fill="red" stroke="red" points="375.837,-811.586 365.495,-809.285 372.145,-817.533 375.837,-811.586"/>
</g>
<!-- 40&#45;&gt;8 -->
<g id="edge61" class="edge"><title>40&#45;&gt;8</title>
<path fill="none" stroke="red" d="M553.31,-853.139C550.846,-834.981 547.88,-805.605 550,-780.281 550.811,-770.587 552.438,-760.006 554.088,-750.839"/>
<polygon fill="red" stroke="red" points="557.554,-751.344 555.988,-740.865 550.678,-750.034 557.554,-751.344"/>
</g>
<!-- 38 -->
<g id="node45" class="node"><title>38</title>
<ellipse fill="none" stroke="black" cx="819" cy="-580.357" rx="18.2703" ry="18.2703"/>
<text text-anchor="middle" x="819" y="-578.157" font-family="Times New Roman,serif" font-size="9.00">38</text>
</g>
<!-- 121&#45;&gt;38 -->
<g id="edge108" class="edge"><title>121&#45;&gt;38</title>
<path fill="none" stroke="green" d="M1020.38,-1158.36C1037.52,-1130.58 1068,-1073.74 1068,-1020.8 1068,-1020.8 1068,-1020.8 1068,-943.205 1068,-902.256 1060.68,-892.298 1049,-853.051 1044.1,-836.597 1040.93,-833.163 1035,-817.051 1017.21,-768.687 1027.94,-748.718 997,-707.512 955.766,-652.599 883.661,-612.192 845.091,-593.287"/>
<polygon fill="green" stroke="green" points="846.131,-589.904 835.6,-588.738 843.105,-596.216 846.131,-589.904"/>
</g>
<!-- 8&#45;&gt;14 -->
<g id="edge48" class="edge"><title>8&#45;&gt;14</title>
<path fill="none" stroke="red" d="M572.575,-719.343C601.189,-707.638 668.13,-680.254 705.531,-664.955"/>
<polygon fill="red" stroke="red" points="707.31,-668.009 715.24,-660.983 704.659,-661.53 707.31,-668.009"/>
</g>
<!-- 16 -->
<g id="node44" class="node"><title>16</title>
<ellipse fill="none" stroke="black" cx="442" cy="-283.622" rx="18.2703" ry="18.2703"/>
<text text-anchor="middle" x="442" y="-281.422" font-family="Times New Roman,serif" font-size="9.00">16</text>
</g>
<!-- 8&#45;&gt;16 -->
<g id="edge63" class="edge"><title>8&#45;&gt;16</title>
<path fill="none" stroke="green" d="M548.108,-715.315C524.967,-693.837 473,-639.168 473,-581.357 473,-581.357 473,-581.357 473,-428.161 473,-386.382 460.297,-339.273 451.154,-310.778"/>
<polygon fill="green" stroke="green" points="454.439,-309.562 447.977,-301.166 447.793,-311.759 454.439,-309.562"/>
</g>
<!-- 22 -->
<g id="node48" class="node"><title>22</title>
<ellipse fill="none" stroke="black" cx="960" cy="-429.161" rx="18.2703" ry="18.2703"/>
<text text-anchor="middle" x="960" y="-426.961" font-family="Times New Roman,serif" font-size="9.00">22</text>
</g>
<!-- 8&#45;&gt;22 -->
<g id="edge41" class="edge"><title>8&#45;&gt;22</title>
<path fill="none" stroke="red" d="M573.795,-723.829C614.138,-720.5 728.864,-708.236 816,-671.512 869.336,-649.033 891.6,-646.703 924,-598.742 953.15,-555.592 959.306,-493.219 960.258,-457.689"/>
<polygon fill="red" stroke="red" points="963.759,-457.625 960.406,-447.575 956.76,-457.522 963.759,-457.625"/>
</g>
<!-- 10&#45;&gt;5 -->
<g id="edge26" class="edge"><title>10&#45;&gt;5</title>
<path fill="none" stroke="red" d="M358.437,-782.256C371.717,-756.518 396,-702.8 396,-654.127 396,-654.127 396,-654.127 396,-140.619 396,-78.0423 449.894,-79.5875 507,-54 583.554,-19.6984 685.12,-12.1311 728.232,-10.4667"/>
<polygon fill="red" stroke="red" points="728.446,-13.9618 738.33,-10.147 728.224,-6.96528 728.446,-13.9618"/>
</g>
<!-- 25 -->
<g id="node32" class="node"><title>25</title>
<ellipse fill="none" stroke="black" cx="312" cy="-653.127" rx="18.2703" ry="18.2703"/>
<text text-anchor="middle" x="312" y="-650.927" font-family="Times New Roman,serif" font-size="9.00">25</text>
</g>
<!-- 10&#45;&gt;25 -->
<g id="edge34" class="edge"><title>10&#45;&gt;25</title>
<path fill="none" stroke="green" d="M345.492,-780.637C338.978,-756.033 326.87,-710.297 319.136,-681.081"/>
<polygon fill="green" stroke="green" points="322.445,-679.906 316.502,-671.134 315.678,-681.697 322.445,-679.906"/>
</g>
<!-- 10&#45;&gt;18 -->
<g id="edge5" class="edge"><title>10&#45;&gt;18</title>
<path fill="none" stroke="green" d="M350.388,-779.85C350.694,-749.654 349.806,-686.643 339,-634.742 337.069,-625.466 333.901,-615.614 330.701,-606.931"/>
<polygon fill="green" stroke="green" points="333.878,-605.442 327.002,-597.381 327.35,-607.97 333.878,-605.442"/>
</g>
<!-- 10&#45;&gt;22 -->
<g id="edge47" class="edge"><title>10&#45;&gt;22</title>
<path fill="none" stroke="red" d="M365.669,-788.042C396.748,-769.412 468.914,-728.419 535,-707.512 631.137,-677.097 667.261,-713.359 759,-671.512 804.863,-650.591 812.218,-636.157 846,-598.742 888.203,-552.001 926.902,-488.624 946.517,-454.435"/>
<polygon fill="red" stroke="red" points="949.637,-456.029 951.531,-445.605 943.55,-452.573 949.637,-456.029"/>
</g>
<!-- 6&#45;&gt;12 -->
<g id="edge16" class="edge"><title>6&#45;&gt;12</title>
<path fill="none" stroke="green" d="M876.955,-791.386C852.629,-779.675 799.958,-754.318 768.394,-739.122"/>
<polygon fill="green" stroke="green" points="769.859,-735.943 759.331,-734.759 766.823,-742.25 769.859,-735.943"/>
</g>
<!-- 6&#45;&gt;14 -->
<g id="edge22" class="edge"><title>6&#45;&gt;14</title>
<path fill="none" stroke="green" d="M882.304,-785.82C870.029,-767.527 844.575,-731.965 817,-707.512 798.739,-691.318 775.016,-676.864 757.274,-667.093"/>
<polygon fill="green" stroke="green" points="758.571,-663.817 748.105,-662.166 755.257,-669.983 758.571,-663.817"/>
</g>
<!-- 6&#45;&gt;37 -->
<g id="edge78" class="edge"><title>6&#45;&gt;37</title>
<path fill="none" stroke="green" d="M900.789,-788.122C913.138,-777.198 933.652,-759.05 949.149,-745.342"/>
<polygon fill="green" stroke="green" points="951.554,-747.887 956.725,-738.64 946.916,-742.644 951.554,-747.887"/>
</g>
<!-- 6&#45;&gt;9 -->
<g id="edge13" class="edge"><title>6&#45;&gt;9</title>
<path fill="none" stroke="green" d="M890.893,-783.765C895.818,-703.493 917.411,-299.105 860,-192.468 850.174,-174.216 830.411,-160.904 814.712,-152.651"/>
<polygon fill="green" stroke="green" points="816.106,-149.436 805.587,-148.167 813.019,-155.718 816.106,-149.436"/>
</g>
<!-- 6&#45;&gt;22 -->
<g id="edge82" class="edge"><title>6&#45;&gt;22</title>
<path fill="none" stroke="green" d="M895.284,-784.678C910.66,-746.087 955.231,-628.419 970,-525.973 973.342,-502.788 970.034,-476.293 966.352,-457.05"/>
<polygon fill="green" stroke="green" points="969.762,-456.255 964.308,-447.172 962.907,-457.674 969.762,-456.255"/>
</g>
<!-- 7&#45;&gt;5 -->
<g id="edge19" class="edge"><title>7&#45;&gt;5</title>
<path fill="none" stroke="green" d="M1166.08,-784.937C1177.27,-760.285 1200,-704.055 1200,-654.127 1200,-654.127 1200,-654.127 1200,-140.619 1200,-70.82 1134.31,-78.6164 1069,-54 961.916,-13.6408 822.217,-9.66638 769.944,-9.71481"/>
<polygon fill="green" stroke="green" points="769.613,-6.21676 759.636,-9.78082 769.658,-13.2166 769.613,-6.21676"/>
</g>
<!-- 24 -->
<g id="node43" class="node"><title>24</title>
<ellipse fill="none" stroke="black" cx="1154" cy="-356.392" rx="18.2703" ry="18.2703"/>
<text text-anchor="middle" x="1154" y="-354.192" font-family="Times New Roman,serif" font-size="9.00">24</text>
</g>
<!-- 7&#45;&gt;24 -->
<g id="edge24" class="edge"><title>7&#45;&gt;24</title>
<path fill="none" stroke="green" d="M1159.68,-783.81C1159.11,-758.202 1158,-701.729 1158,-654.127 1158,-654.127 1158,-654.127 1158,-503.759 1158,-462.51 1156.39,-414.745 1155.22,-385.298"/>
<polygon fill="green" stroke="green" points="1158.7,-384.809 1154.79,-374.961 1151.7,-385.097 1158.7,-384.809"/>
</g>
<!-- 60&#45;&gt;22 -->
<g id="edge50" class="edge"><title>60&#45;&gt;22</title>
<path fill="none" stroke="red" d="M1062,-779.988C1062,-752.897 1062,-699.481 1062,-654.127 1062,-654.127 1062,-654.127 1062,-579.357 1062,-533.04 1048.22,-521.024 1021,-483.546 1010.59,-469.206 995.655,-456.055 983.172,-446.394"/>
<polygon fill="red" stroke="red" points="985.113,-443.475 975.007,-440.292 980.922,-449.082 985.113,-443.475"/>
</g>
<!-- 12&#45;&gt;14 -->
<g id="edge18" class="edge"><title>12&#45;&gt;14</title>
<path fill="none" stroke="red" d="M740.281,-707.403C739.069,-699.604 737.612,-690.232 736.261,-681.537"/>
<polygon fill="red" stroke="red" points="739.682,-680.763 734.688,-671.419 732.765,-681.838 739.682,-680.763"/>
</g>
<!-- 25&#45;&gt;18 -->
<g id="edge35" class="edge"><title>25&#45;&gt;18</title>
<path fill="none" stroke="green" d="M313.978,-634.633C314.859,-626.835 315.919,-617.462 316.901,-608.768"/>
<polygon fill="green" stroke="green" points="320.4,-608.98 318.045,-598.65 313.444,-608.193 320.4,-608.98"/>
</g>
<!-- 23 -->
<g id="node34" class="node"><title>23</title>
<ellipse fill="none" stroke="black" cx="732" cy="-580.357" rx="18.2703" ry="18.2703"/>
<text text-anchor="middle" x="732" y="-578.157" font-family="Times New Roman,serif" font-size="9.00">23</text>
</g>
<!-- 14&#45;&gt;23 -->
<g id="edge36" class="edge"><title>14&#45;&gt;23</title>
<path fill="none" stroke="red" d="M732,-634.633C732,-626.951 732,-617.742 732,-609.158"/>
<polygon fill="red" stroke="red" points="735.5,-609.141 732,-599.141 728.5,-609.141 735.5,-609.141"/>
</g>
<!-- 14&#45;&gt;18 -->
<g id="edge68" class="edge"><title>14&#45;&gt;18</title>
<path fill="none" stroke="red" d="M714.032,-649.041C649.242,-637.912 427.287,-599.786 348.237,-586.208"/>
<polygon fill="red" stroke="red" points="348.511,-582.704 338.063,-584.46 347.326,-589.603 348.511,-582.704"/>
</g>
<!-- 14&#45;&gt;38 -->
<g id="edge89" class="edge"><title>14&#45;&gt;38</title>
<path fill="none" stroke="red" d="M745.978,-640.757C759.803,-629.511 781.161,-612.137 797.214,-599.079"/>
<polygon fill="red" stroke="red" points="799.508,-601.725 805.057,-592.7 795.09,-596.295 799.508,-601.725"/>
</g>
<!-- 14&#45;&gt;11 -->
<g id="edge20" class="edge"><title>14&#45;&gt;11</title>
<path fill="none" stroke="green" d="M722.715,-636.765C716.817,-626.368 709.477,-612.139 705,-598.742 694.587,-567.582 697.609,-558.344 692,-525.973 664.109,-365.014 632.144,-171.569 620.521,-100.921"/>
<polygon fill="green" stroke="green" points="623.911,-99.9603 618.834,-90.6607 617.003,-101.096 623.911,-99.9603"/>
</g>
<!-- 91 -->
<g id="node35" class="node"><title>91</title>
<ellipse fill="none" stroke="black" cx="719" cy="-504.759" rx="18.2703" ry="18.2703"/>
<text text-anchor="middle" x="719" y="-502.559" font-family="Times New Roman,serif" font-size="9.00">91</text>
</g>
<!-- 23&#45;&gt;91 -->
<g id="edge96" class="edge"><title>23&#45;&gt;91</title>
<path fill="none" stroke="red" d="M728.919,-561.916C727.397,-553.3 725.526,-542.705 723.82,-533.048"/>
<polygon fill="red" stroke="red" points="727.245,-532.315 722.059,-523.076 720.352,-533.532 727.245,-532.315"/>
</g>
<!-- 23&#45;&gt;19 -->
<g id="edge37" class="edge"><title>23&#45;&gt;19</title>
<path fill="none" stroke="green" d="M737.534,-562.745C740.711,-552.318 744.383,-538.517 746,-525.973 752.547,-475.195 757.877,-460.578 746,-410.777 743.532,-400.429 738.717,-389.816 733.828,-380.807"/>
<polygon fill="green" stroke="green" points="736.825,-378.996 728.802,-372.076 730.758,-382.489 736.825,-378.996"/>
</g>
<!-- 90 -->
<g id="node36" class="node"><title>90</title>
<ellipse fill="none" stroke="black" cx="719" cy="-429.161" rx="18.2703" ry="18.2703"/>
<text text-anchor="middle" x="719" y="-426.961" font-family="Times New Roman,serif" font-size="9.00">90</text>
</g>
<!-- 91&#45;&gt;90 -->
<g id="edge97" class="edge"><title>91&#45;&gt;90</title>
<path fill="none" stroke="red" d="M719,-486.318C719,-477.855 719,-467.484 719,-457.967"/>
<polygon fill="red" stroke="red" points="722.5,-457.733 719,-447.733 715.5,-457.733 722.5,-457.733"/>
</g>
<!-- 90&#45;&gt;19 -->
<g id="edge95" class="edge"><title>90&#45;&gt;19</title>
<path fill="none" stroke="red" d="M719,-410.668C719,-402.986 719,-393.776 719,-385.192"/>
<polygon fill="red" stroke="red" points="722.5,-385.176 719,-375.176 715.5,-385.176 722.5,-385.176"/>
</g>
<!-- 21 -->
<g id="node39" class="node"><title>21</title>
<ellipse fill="none" stroke="black" cx="772" cy="-283.622" rx="18.2703" ry="18.2703"/>
<text text-anchor="middle" x="772" y="-281.422" font-family="Times New Roman,serif" font-size="9.00">21</text>
</g>
<!-- 19&#45;&gt;21 -->
<g id="edge42" class="edge"><title>19&#45;&gt;21</title>
<path fill="none" stroke="red" d="M729.725,-341.071C737.053,-331.286 746.91,-318.124 755.263,-306.971"/>
<polygon fill="red" stroke="red" points="758.098,-309.025 761.291,-298.922 752.495,-304.828 758.098,-309.025"/>
</g>
<!-- 19&#45;&gt;9 -->
<g id="edge33" class="edge"><title>19&#45;&gt;9</title>
<path fill="none" stroke="red" d="M723.46,-338.31C728.328,-320.079 736.562,-290.413 745,-265.238 756.855,-229.868 772.756,-189.619 782.688,-165.178"/>
<polygon fill="red" stroke="red" points="786.006,-166.312 786.55,-155.731 779.526,-163.663 786.006,-166.312"/>
</g>
<!-- 37&#45;&gt;22 -->
<g id="edge79" class="edge"><title>37&#45;&gt;22</title>
<path fill="none" stroke="green" d="M980.575,-710.816C987.613,-700.527 996.231,-685.911 1000,-671.512 1021.15,-590.694 1026.4,-562.806 1000,-483.546 995.867,-471.139 987.598,-459.29 979.645,-449.921"/>
<polygon fill="green" stroke="green" points="982.142,-447.464 972.849,-442.375 976.94,-452.148 982.142,-447.464"/>
</g>
<!-- 21&#45;&gt;5 -->
<g id="edge103" class="edge"><title>21&#45;&gt;5</title>
<path fill="none" stroke="green" d="M770.526,-265.154C766.405,-216.309 754.79,-78.6277 750.563,-28.5261"/>
<polygon fill="green" stroke="green" points="754.045,-28.166 749.717,-18.4957 747.07,-28.7546 754.045,-28.166"/>
</g>
<!-- 63 -->
<g id="node40" class="node"><title>63</title>
<ellipse fill="none" stroke="black" cx="833" cy="-210.853" rx="18.2703" ry="18.2703"/>
<text text-anchor="middle" x="833" y="-208.653" font-family="Times New Roman,serif" font-size="9.00">63</text>
</g>
<!-- 21&#45;&gt;63 -->
<g id="edge80" class="edge"><title>21&#45;&gt;63</title>
<path fill="none" stroke="green" d="M783.761,-268.977C792.538,-258.795 804.694,-244.692 814.732,-233.047"/>
<polygon fill="green" stroke="green" points="817.397,-235.316 821.275,-225.456 812.095,-230.745 817.397,-235.316"/>
</g>
<!-- 21&#45;&gt;9 -->
<g id="edge83" class="edge"><title>21&#45;&gt;9</title>
<path fill="none" stroke="red" d="M774.493,-265.174C778.042,-240.325 784.567,-194.654 788.57,-166.628"/>
<polygon fill="red" stroke="red" points="792.069,-166.885 790.018,-156.49 785.139,-165.895 792.069,-166.885"/>
</g>
<!-- 63&#45;&gt;9 -->
<g id="edge81" class="edge"><title>63&#45;&gt;9</title>
<path fill="none" stroke="red" d="M823.696,-194.596C818.053,-185.341 810.776,-173.408 804.618,-163.311"/>
<polygon fill="red" stroke="red" points="807.551,-161.398 799.357,-154.683 801.575,-165.043 807.551,-161.398"/>
</g>
<!-- 18&#45;&gt;5 -->
<g id="edge6" class="edge"><title>18&#45;&gt;5</title>
<path fill="none" stroke="green" d="M320,-561.901C320,-534.045 320,-477.821 320,-430.161 320,-430.161 320,-430.161 320,-140.619 320,-93.2759 341.259,-78.1145 382,-54 441.251,-18.9298 659.033,-11.7377 727.945,-10.3285"/>
<polygon fill="green" stroke="green" points="728.417,-13.8206 738.351,-10.1377 728.289,-6.82174 728.417,-13.8206"/>
</g>
<!-- 9&#45;&gt;5 -->
<g id="edge14" class="edge"><title>9&#45;&gt;5</title>
<path fill="none" stroke="red" d="M787.56,-127.132C779.752,-103.415 763.567,-54.2491 754.855,-27.785"/>
<polygon fill="red" stroke="red" points="758.172,-26.6693 751.721,-18.2652 751.523,-28.8582 758.172,-26.6693"/>
</g>
<!-- 9&#45;&gt;11 -->
<g id="edge15" class="edge"><title>9&#45;&gt;11</title>
<path fill="none" stroke="green" d="M778.482,-135.455C749.369,-124.333 680.307,-97.9509 642.264,-83.4181"/>
<polygon fill="green" stroke="green" points="643.45,-80.1244 632.859,-79.8253 640.952,-86.6635 643.45,-80.1244"/>
</g>
<!-- 24&#45;&gt;5 -->
<g id="edge25" class="edge"><title>24&#45;&gt;5</title>
<path fill="none" stroke="red" d="M1153.19,-337.718C1152.02,-310.633 1150,-257.225 1150,-211.853 1150,-211.853 1150,-211.853 1150,-140.619 1150,-59.8506 852.172,-21.2834 769.857,-12.1666"/>
<polygon fill="red" stroke="red" points="770.043,-8.66645 759.726,-11.0743 769.293,-15.6261 770.043,-8.66645"/>
</g>
<!-- 16&#45;&gt;5 -->
<g id="edge64" class="edge"><title>16&#45;&gt;5</title>
<path fill="none" stroke="green" d="M441.331,-265.01C441.026,-234.201 444.326,-169.722 474,-126.77 534.565,-39.1036 675.008,-16.9418 728.134,-11.6069"/>
<polygon fill="green" stroke="green" points="728.707,-15.0695 738.352,-10.6851 728.078,-8.09784 728.707,-15.0695"/>
</g>
<!-- 109 -->
<g id="node46" class="node"><title>109</title>
<ellipse fill="none" stroke="black" cx="819" cy="-504.759" rx="21.4286" ry="21.4286"/>
<text text-anchor="middle" x="819" y="-502.559" font-family="Times New Roman,serif" font-size="9.00">109</text>
</g>
<!-- 38&#45;&gt;109 -->
<g id="edge101" class="edge"><title>38&#45;&gt;109</title>
<path fill="none" stroke="green" d="M819,-561.916C819,-554.3 819,-545.138 819,-536.445"/>
<polygon fill="green" stroke="green" points="822.5,-536.209 819,-526.209 815.5,-536.209 822.5,-536.209"/>
</g>
<!-- 109&#45;&gt;11 -->
<g id="edge102" class="edge"><title>109&#45;&gt;11</title>
<path fill="none" stroke="green" d="M810.935,-484.752C797.742,-453.82 770.553,-390.742 746,-338.007 704.55,-248.982 652.214,-144.77 628.589,-98.1337"/>
<polygon fill="green" stroke="green" points="631.643,-96.4172 623.997,-89.0823 625.4,-99.5839 631.643,-96.4172"/>
</g>
<!-- 109&#45;&gt;22 -->
<g id="edge104" class="edge"><title>109&#45;&gt;22</title>
<path fill="none" stroke="red" d="M837.433,-494.138C862.274,-481.172 906.599,-458.036 934.588,-443.426"/>
<polygon fill="red" stroke="red" points="936.503,-446.375 943.748,-438.645 933.264,-440.169 936.503,-446.375"/>
</g>
<!-- 11&#45;&gt;5 -->
<g id="edge23" class="edge"><title>11&#45;&gt;5</title>
<path fill="none" stroke="red" d="M632.308,-63.8578C656.68,-52.6091 702.556,-31.4356 728.944,-19.2564"/>
<polygon fill="red" stroke="red" points="730.714,-22.2946 738.327,-14.9261 727.781,-15.9389 730.714,-22.2946"/>
</g>
<!-- 22&#45;&gt;5 -->
<g id="edge21" class="edge"><title>22&#45;&gt;5</title>
<path fill="none" stroke="red" d="M962.226,-410.517C965.44,-383.469 971,-330.11 971,-284.622 971,-284.622 971,-284.622 971,-140.619 971,-47.7433 824.88,-19.5934 769.733,-12.2766"/>
<polygon fill="red" stroke="red" points="770.059,-8.79058 759.708,-11.0467 769.207,-15.7385 770.059,-8.79058"/>
</g>
<!-- 47 -->
<g id="node49" class="node"><title>47</title>
<ellipse fill="none" stroke="black" cx="925" cy="-210.853" rx="18.2703" ry="18.2703"/>
<text text-anchor="middle" x="925" y="-208.653" font-family="Times New Roman,serif" font-size="9.00">47</text>
</g>
<!-- 22&#45;&gt;47 -->
<g id="edge90" class="edge"><title>22&#45;&gt;47</title>
<path fill="none" stroke="green" d="M957.195,-410.826C951.128,-373.33 936.745,-284.438 929.433,-239.248"/>
<polygon fill="green" stroke="green" points="932.871,-238.584 927.818,-229.271 925.961,-239.702 932.871,-238.584"/>
</g>
<!-- 47&#45;&gt;5 -->
<g id="edge91" class="edge"><title>47&#45;&gt;5</title>
<path fill="none" stroke="green" d="M913.179,-196.43C881.794,-160.792 796.483,-63.9182 762.874,-25.7548"/>
<polygon fill="green" stroke="green" points="765.418,-23.3467 756.182,-18.1552 760.164,-27.9731 765.418,-23.3467"/>
</g>
</g>
</svg>
