<?xml version="1.0" encoding="UTF-8" standalone="no"?>
<!DOCTYPE svg PUBLIC "-//W3C//DTD SVG 1.1//EN"
 "http://www.w3.org/Graphics/SVG/1.1/DTD/svg11.dtd">
<!-- Generated by graphviz version 2.38.0 (20140413.2041)
 -->
<!-- Title: %3 Pages: 1 -->
<svg width="580pt" height="582pt"
 viewBox="0.00 0.00 580.47 582.32" xmlns="http://www.w3.org/2000/svg" xmlns:xlink="http://www.w3.org/1999/xlink">
<g id="graph0" class="graph" transform="scale(1 1) rotate(0) translate(4 578.316)">
<title>%3</title>
<polygon fill="white" stroke="none" points="-4,4 -4,-578.316 576.468,-578.316 576.468,4 -4,4"/>
<!-- 1 -->
<g id="node1" class="node"><title>1</title>
<polygon fill="lightgray" stroke="black" points="270.5,-372.463 249.5,-372.463 249.5,-354.463 270.5,-354.463 270.5,-372.463"/>
<text text-anchor="middle" x="260" y="-361.263" font-family="Times New Roman,serif" font-size="9.00">1</text>
</g>
<!-- 30 -->
<g id="node8" class="node"><title>30</title>
<ellipse fill="none" stroke="black" cx="237" cy="-290.693" rx="18.2703" ry="18.2703"/>
<text text-anchor="middle" x="237" y="-288.493" font-family="Times New Roman,serif" font-size="9.00">30</text>
</g>
<!-- 1&#45;&gt;30 -->
<g id="edge10" class="edge"><title>1&#45;&gt;30</title>
<path fill="none" stroke="red" d="M257.362,-354.345C254.494,-345.521 249.761,-330.958 245.58,-318.092"/>
<polygon fill="red" stroke="red" points="248.81,-316.709 242.391,-308.28 242.153,-318.872 248.81,-316.709"/>
</g>
<!-- 10 -->
<g id="node11" class="node"><title>10</title>
<ellipse fill="none" stroke="black" cx="302" cy="-217.924" rx="18.2703" ry="18.2703"/>
<text text-anchor="middle" x="302" y="-215.724" font-family="Times New Roman,serif" font-size="9.00">10</text>
</g>
<!-- 1&#45;&gt;10 -->
<g id="edge12" class="edge"><title>1&#45;&gt;10</title>
<path fill="none" stroke="red" d="M262.378,-354.334C268.391,-333.785 284.412,-279.031 294.142,-245.781"/>
<polygon fill="red" stroke="red" points="297.609,-246.392 297.059,-235.812 290.891,-244.426 297.609,-246.392"/>
</g>
<!-- 2 -->
<g id="node2" class="node"><title>2</title>
<polygon fill="lightgray" stroke="black" points="162.5,-299.693 141.5,-299.693 141.5,-281.693 162.5,-281.693 162.5,-299.693"/>
<text text-anchor="middle" x="152" y="-288.493" font-family="Times New Roman,serif" font-size="9.00">2</text>
</g>
<!-- 5 -->
<g id="node5" class="node"><title>5</title>
<polygon fill="lightblue" stroke="black" points="358.5,-18 337.5,-18 337.5,-0 358.5,-0 358.5,-18"/>
<text text-anchor="middle" x="348" y="-6.8" font-family="Times New Roman,serif" font-size="9.00">5</text>
</g>
<!-- 2&#45;&gt;5 -->
<g id="edge17" class="edge"><title>2&#45;&gt;5</title>
<path fill="none" stroke="green" d="M161.554,-281.683C172.38,-272.056 189.722,-254.863 199,-236.309 236.018,-162.281 183.715,-117.334 237,-54 259.902,-26.7795 301.977,-16.2813 327.23,-12.3179"/>
<polygon fill="green" stroke="green" points="327.785,-15.7748 337.219,-10.9546 326.838,-8.83909 327.785,-15.7748"/>
</g>
<!-- 35 -->
<g id="node6" class="node"><title>35</title>
<ellipse fill="none" stroke="black" cx="172" cy="-217.924" rx="18.2703" ry="18.2703"/>
<text text-anchor="middle" x="172" y="-215.724" font-family="Times New Roman,serif" font-size="9.00">35</text>
</g>
<!-- 2&#45;&gt;35 -->
<g id="edge39" class="edge"><title>2&#45;&gt;35</title>
<path fill="none" stroke="green" d="M154.294,-281.575C156.772,-272.809 160.85,-258.377 164.469,-245.574"/>
<polygon fill="green" stroke="green" points="167.881,-246.368 167.233,-235.793 161.145,-244.465 167.881,-246.368"/>
</g>
<!-- 17 -->
<g id="node7" class="node"><title>17</title>
<ellipse fill="none" stroke="black" cx="134" cy="-145.154" rx="18.2703" ry="18.2703"/>
<text text-anchor="middle" x="134" y="-142.954" font-family="Times New Roman,serif" font-size="9.00">17</text>
</g>
<!-- 2&#45;&gt;17 -->
<g id="edge6" class="edge"><title>2&#45;&gt;17</title>
<path fill="none" stroke="red" d="M150.886,-281.374C149.485,-270.875 147.019,-252.259 145,-236.309 142.331,-215.224 139.423,-191.349 137.268,-173.468"/>
<polygon fill="red" stroke="red" points="140.732,-172.954 136.063,-163.443 133.782,-173.79 140.732,-172.954"/>
</g>
<!-- 2&#45;&gt;10 -->
<g id="edge8" class="edge"><title>2&#45;&gt;10</title>
<path fill="none" stroke="green" d="M162.351,-281.667C166.721,-278.501 171.958,-274.988 177,-272.309 216.138,-251.509 229.778,-254.926 270,-236.309 272.36,-235.216 274.787,-234.027 277.199,-232.799"/>
<polygon fill="green" stroke="green" points="279.058,-235.775 286.254,-227.999 275.78,-229.59 279.058,-235.775"/>
</g>
<!-- 11 -->
<g id="node20" class="node"><title>11</title>
<ellipse fill="none" stroke="black" cx="359" cy="-145.154" rx="18.2703" ry="18.2703"/>
<text text-anchor="middle" x="359" y="-142.954" font-family="Times New Roman,serif" font-size="9.00">11</text>
</g>
<!-- 2&#45;&gt;11 -->
<g id="edge24" class="edge"><title>2&#45;&gt;11</title>
<path fill="none" stroke="red" d="M162.66,-282.182C167.078,-279.095 172.267,-275.502 177,-272.309 201.218,-255.967 208.628,-253.838 232,-236.309 252.116,-221.221 254.783,-214.491 275,-199.539 294.341,-185.235 317.488,-170.7 334.582,-160.416"/>
<polygon fill="red" stroke="red" points="336.592,-163.293 343.393,-155.169 333.011,-157.279 336.592,-163.293"/>
</g>
<!-- 3 -->
<g id="node3" class="node"><title>3</title>
<polygon fill="lightgray" stroke="black" points="102.5,-574.316 81.5,-574.316 81.5,-556.316 102.5,-556.316 102.5,-574.316"/>
<text text-anchor="middle" x="92" y="-563.116" font-family="Times New Roman,serif" font-size="9.00">3</text>
</g>
<!-- 3&#45;&gt;5 -->
<g id="edge1" class="edge"><title>3&#45;&gt;5</title>
<path fill="none" stroke="green" d="M81.4464,-557.082C57.281,-539.569 0,-492.253 0,-437.233 0,-437.233 0,-437.233 0,-144.154 0,-88.4713 37.7414,-79.9652 87,-54 167.945,-11.3325 280.878,-8.4203 327.062,-9.23231"/>
<polygon fill="green" stroke="green" points="327.219,-12.7374 337.306,-9.49707 327.4,-5.73977 327.219,-12.7374"/>
</g>
<!-- 26 -->
<g id="node9" class="node"><title>26</title>
<ellipse fill="none" stroke="black" cx="46" cy="-436.233" rx="18.2703" ry="18.2703"/>
<text text-anchor="middle" x="46" y="-434.033" font-family="Times New Roman,serif" font-size="9.00">26</text>
</g>
<!-- 3&#45;&gt;26 -->
<g id="edge13" class="edge"><title>3&#45;&gt;26</title>
<path fill="none" stroke="red" d="M88.9818,-555.978C82.2948,-537.503 65.9949,-492.472 55.4999,-463.478"/>
<polygon fill="red" stroke="red" points="58.7497,-462.172 52.0551,-453.961 52.1677,-464.555 58.7497,-462.172"/>
</g>
<!-- 8 -->
<g id="node10" class="node"><title>8</title>
<ellipse fill="none" stroke="black" cx="111" cy="-72.3848" rx="14.7" ry="14.7"/>
<text text-anchor="middle" x="111" y="-70.1848" font-family="Times New Roman,serif" font-size="9.00">8</text>
</g>
<!-- 3&#45;&gt;8 -->
<g id="edge15" class="edge"><title>3&#45;&gt;8</title>
<path fill="none" stroke="red" d="M92.1544,-556.257C93.0159,-512.619 97.5344,-300.189 107,-126.77 107.524,-117.164 108.278,-106.6 108.991,-97.4217"/>
<polygon fill="red" stroke="red" points="112.482,-97.6723 109.792,-87.4247 105.504,-97.1132 112.482,-97.6723"/>
</g>
<!-- 3&#45;&gt;10 -->
<g id="edge16" class="edge"><title>3&#45;&gt;10</title>
<path fill="none" stroke="green" d="M102.595,-557.778C128.134,-541.11 191,-494.287 191,-437.233 191,-437.233 191,-437.233 191,-362.463 191,-321.514 185.996,-305.484 210,-272.309 214.459,-266.146 251.288,-245.802 276.973,-232.084"/>
<polygon fill="green" stroke="green" points="278.661,-235.15 285.851,-227.368 275.377,-228.968 278.661,-235.15"/>
</g>
<!-- 6 -->
<g id="node12" class="node"><title>6</title>
<ellipse fill="none" stroke="black" cx="428" cy="-505.467" rx="14.7" ry="14.7"/>
<text text-anchor="middle" x="428" y="-503.267" font-family="Times New Roman,serif" font-size="9.00">6</text>
</g>
<!-- 3&#45;&gt;6 -->
<g id="edge18" class="edge"><title>3&#45;&gt;6</title>
<path fill="none" stroke="red" d="M102.799,-562.457C149.616,-554.396 335.717,-522.355 403.306,-510.718"/>
<polygon fill="red" stroke="red" points="404.187,-514.118 413.448,-508.972 402.999,-507.22 404.187,-514.118"/>
</g>
<!-- 4 -->
<g id="node4" class="node"><title>4</title>
<polygon fill="lightgray" stroke="black" points="487.5,-574.316 466.5,-574.316 466.5,-556.316 487.5,-556.316 487.5,-574.316"/>
<text text-anchor="middle" x="477" y="-563.116" font-family="Times New Roman,serif" font-size="9.00">4</text>
</g>
<!-- 4&#45;&gt;5 -->
<g id="edge2" class="edge"><title>4&#45;&gt;5</title>
<path fill="none" stroke="green" d="M487.668,-557.11C512.096,-539.656 570,-492.459 570,-437.233 570,-437.233 570,-437.233 570,-144.154 570,-103.206 579.872,-83.0381 551,-54 525.455,-28.3084 414.951,-15.8406 368.592,-11.6656"/>
<polygon fill="green" stroke="green" points="368.78,-8.16889 358.517,-10.7992 368.18,-15.1432 368.78,-8.16889"/>
</g>
<!-- 4&#45;&gt;10 -->
<g id="edge9" class="edge"><title>4&#45;&gt;10</title>
<path fill="none" stroke="green" d="M466.277,-561.36C431.033,-550.926 321,-512.338 321,-437.233 321,-437.233 321,-437.233 321,-362.463 321,-321.673 313.366,-274.922 307.776,-246.155"/>
<polygon fill="green" stroke="green" points="311.15,-245.179 305.754,-236.061 304.286,-246.554 311.15,-245.179"/>
</g>
<!-- 4&#45;&gt;6 -->
<g id="edge19" class="edge"><title>4&#45;&gt;6</title>
<path fill="none" stroke="green" d="M470.187,-556.272C463.464,-548.335 452.936,-535.906 444.08,-525.451"/>
<polygon fill="green" stroke="green" points="446.574,-522.98 437.44,-517.612 441.233,-527.505 446.574,-522.98"/>
</g>
<!-- 7 -->
<g id="node13" class="node"><title>7</title>
<ellipse fill="none" stroke="black" cx="527" cy="-145.154" rx="14.7" ry="14.7"/>
<text text-anchor="middle" x="527" y="-142.954" font-family="Times New Roman,serif" font-size="9.00">7</text>
</g>
<!-- 4&#45;&gt;7 -->
<g id="edge26" class="edge"><title>4&#45;&gt;7</title>
<path fill="none" stroke="red" d="M482.736,-556.131C495.869,-536.562 527,-485.125 527,-437.233 527,-437.233 527,-437.233 527,-289.693 527,-247.674 527,-198.736 527,-170.222"/>
<polygon fill="red" stroke="red" points="530.5,-170.011 527,-160.011 523.5,-170.011 530.5,-170.011"/>
</g>
<!-- 35&#45;&gt;17 -->
<g id="edge40" class="edge"><title>35&#45;&gt;17</title>
<path fill="none" stroke="red" d="M163.567,-201.218C158.745,-192.239 152.593,-180.781 147.15,-170.645"/>
<polygon fill="red" stroke="red" points="150.224,-168.971 142.41,-161.816 144.057,-172.283 150.224,-168.971"/>
</g>
<!-- 17&#45;&gt;8 -->
<g id="edge7" class="edge"><title>17&#45;&gt;8</title>
<path fill="none" stroke="green" d="M128.549,-127.383C125.552,-118.161 121.789,-106.58 118.516,-96.5112"/>
<polygon fill="green" stroke="green" points="121.756,-95.1557 115.336,-86.7272 115.099,-97.3193 121.756,-95.1557"/>
</g>
<!-- 30&#45;&gt;10 -->
<g id="edge11" class="edge"><title>30&#45;&gt;10</title>
<path fill="none" stroke="green" d="M249.226,-276.382C258.668,-266.102 271.911,-251.683 282.769,-239.862"/>
<polygon fill="green" stroke="green" points="285.642,-241.908 289.829,-232.175 280.487,-237.173 285.642,-241.908"/>
</g>
<!-- 26&#45;&gt;8 -->
<g id="edge14" class="edge"><title>26&#45;&gt;8</title>
<path fill="none" stroke="red" d="M46.8095,-417.559C47.9783,-390.473 50,-337.065 50,-291.693 50,-291.693 50,-291.693 50,-216.924 50,-175.46 56.5973,-164.405 74,-126.77 79.6528,-114.545 88.0848,-102.107 95.4722,-92.3152"/>
<polygon fill="red" stroke="red" points="98.4538,-94.1839 101.853,-84.1493 92.9381,-89.8738 98.4538,-94.1839"/>
</g>
<!-- 8&#45;&gt;5 -->
<g id="edge3" class="edge"><title>8&#45;&gt;5</title>
<path fill="none" stroke="red" d="M125.116,-67.7287C165.247,-57.3344 280.138,-27.5767 327.356,-15.3469"/>
<polygon fill="red" stroke="red" points="328.531,-18.6581 337.334,-12.7625 326.776,-11.8817 328.531,-18.6581"/>
</g>
<!-- 10&#45;&gt;5 -->
<g id="edge38" class="edge"><title>10&#45;&gt;5</title>
<path fill="none" stroke="green" d="M305.843,-199.638C314.451,-160.916 335.211,-67.5276 343.982,-28.0751"/>
<polygon fill="green" stroke="green" points="347.452,-28.5942 346.205,-18.0729 340.619,-27.0751 347.452,-28.5942"/>
</g>
<!-- 18 -->
<g id="node17" class="node"><title>18</title>
<ellipse fill="none" stroke="black" cx="264" cy="-72.3848" rx="18.2703" ry="18.2703"/>
<text text-anchor="middle" x="264" y="-70.1848" font-family="Times New Roman,serif" font-size="9.00">18</text>
</g>
<!-- 10&#45;&gt;18 -->
<g id="edge4" class="edge"><title>10&#45;&gt;18</title>
<path fill="none" stroke="red" d="M297.492,-199.894C290.978,-175.291 278.87,-129.555 271.136,-100.339"/>
<polygon fill="red" stroke="red" points="274.445,-99.1633 268.502,-90.3921 267.678,-100.955 274.445,-99.1633"/>
</g>
<!-- 12 -->
<g id="node14" class="node"><title>12</title>
<ellipse fill="none" stroke="black" cx="405" cy="-436.233" rx="18.2703" ry="18.2703"/>
<text text-anchor="middle" x="405" y="-434.033" font-family="Times New Roman,serif" font-size="9.00">12</text>
</g>
<!-- 6&#45;&gt;12 -->
<g id="edge23" class="edge"><title>6&#45;&gt;12</title>
<path fill="none" stroke="green" d="M423.456,-491.183C420.735,-483.23 417.183,-472.845 413.922,-463.313"/>
<polygon fill="green" stroke="green" points="417.225,-462.154 410.676,-453.825 410.601,-464.42 417.225,-462.154"/>
</g>
<!-- 14 -->
<g id="node15" class="node"><title>14</title>
<ellipse fill="none" stroke="black" cx="386" cy="-363.463" rx="18.2703" ry="18.2703"/>
<text text-anchor="middle" x="386" y="-361.263" font-family="Times New Roman,serif" font-size="9.00">14</text>
</g>
<!-- 6&#45;&gt;14 -->
<g id="edge33" class="edge"><title>6&#45;&gt;14</title>
<path fill="none" stroke="green" d="M415.806,-496.657C403.613,-488.048 385.613,-472.957 378,-454.617 369.601,-434.385 372.723,-409.451 377.308,-390.938"/>
<polygon fill="green" stroke="green" points="380.73,-391.695 380.021,-381.124 373.983,-389.83 380.73,-391.695"/>
</g>
<!-- 9 -->
<g id="node18" class="node"><title>9</title>
<ellipse fill="none" stroke="black" cx="422" cy="-217.924" rx="14.7" ry="14.7"/>
<text text-anchor="middle" x="422" y="-215.724" font-family="Times New Roman,serif" font-size="9.00">9</text>
</g>
<!-- 6&#45;&gt;9 -->
<g id="edge20" class="edge"><title>6&#45;&gt;9</title>
<path fill="none" stroke="red" d="M429.3,-490.558C432.444,-454.45 439.659,-354.793 432,-272.309 431.085,-262.456 429.24,-251.711 427.381,-242.46"/>
<polygon fill="red" stroke="red" points="430.752,-241.483 425.247,-232.43 423.905,-242.94 430.752,-241.483"/>
</g>
<!-- 22 -->
<g id="node21" class="node"><title>22</title>
<ellipse fill="none" stroke="black" cx="394" cy="-72.3848" rx="18.2703" ry="18.2703"/>
<text text-anchor="middle" x="394" y="-70.1848" font-family="Times New Roman,serif" font-size="9.00">22</text>
</g>
<!-- 6&#45;&gt;22 -->
<g id="edge37" class="edge"><title>6&#45;&gt;22</title>
<path fill="none" stroke="green" d="M434.569,-491.741C439.286,-481.895 445.273,-467.765 448,-454.617 471.025,-343.608 469.548,-310.438 446,-199.539 438.138,-162.511 419.831,-122.558 407.182,-97.7573"/>
<polygon fill="green" stroke="green" points="410.202,-95.9792 402.481,-88.7241 403.993,-99.2106 410.202,-95.9792"/>
</g>
<!-- 7&#45;&gt;5 -->
<g id="edge27" class="edge"><title>7&#45;&gt;5</title>
<path fill="none" stroke="green" d="M519.969,-132.036C508.409,-113.052 483.683,-76.1836 454,-54 427.528,-34.2162 390.863,-21.5984 368.325,-15.1655"/>
<polygon fill="green" stroke="green" points="369.07,-11.7411 358.503,-12.5 367.237,-18.4968 369.07,-11.7411"/>
</g>
<!-- 24 -->
<g id="node19" class="node"><title>24</title>
<ellipse fill="none" stroke="black" cx="524" cy="-72.3848" rx="18.2703" ry="18.2703"/>
<text text-anchor="middle" x="524" y="-70.1848" font-family="Times New Roman,serif" font-size="9.00">24</text>
</g>
<!-- 7&#45;&gt;24 -->
<g id="edge35" class="edge"><title>7&#45;&gt;24</title>
<path fill="none" stroke="red" d="M526.407,-130.173C526.056,-121.89 525.599,-111.1 525.177,-101.154"/>
<polygon fill="red" stroke="red" points="528.661,-100.693 524.74,-90.85 521.667,-100.989 528.661,-100.693"/>
</g>
<!-- 12&#45;&gt;14 -->
<g id="edge25" class="edge"><title>12&#45;&gt;14</title>
<path fill="none" stroke="green" d="M400.401,-418.101C398.23,-410.017 395.59,-400.182 393.166,-391.153"/>
<polygon fill="green" stroke="green" points="396.53,-390.187 390.557,-381.437 389.77,-392.002 396.53,-390.187"/>
</g>
<!-- 19 -->
<g id="node16" class="node"><title>19</title>
<ellipse fill="none" stroke="black" cx="405" cy="-290.693" rx="18.2703" ry="18.2703"/>
<text text-anchor="middle" x="405" y="-288.493" font-family="Times New Roman,serif" font-size="9.00">19</text>
</g>
<!-- 14&#45;&gt;19 -->
<g id="edge29" class="edge"><title>14&#45;&gt;19</title>
<path fill="none" stroke="red" d="M390.599,-345.332C392.77,-337.247 395.41,-327.413 397.834,-318.383"/>
<polygon fill="red" stroke="red" points="401.23,-319.233 400.443,-308.667 394.47,-317.417 401.23,-319.233"/>
</g>
<!-- 14&#45;&gt;11 -->
<g id="edge28" class="edge"><title>14&#45;&gt;11</title>
<path fill="none" stroke="red" d="M383.263,-345.173C381.646,-334.733 379.609,-321.155 378,-309.078 371.683,-261.653 365.474,-206.305 361.952,-173.859"/>
<polygon fill="red" stroke="red" points="365.417,-173.344 360.864,-163.778 358.457,-174.095 365.417,-173.344"/>
</g>
<!-- 19&#45;&gt;9 -->
<g id="edge30" class="edge"><title>19&#45;&gt;9</title>
<path fill="none" stroke="green" d="M409.115,-272.562C411.28,-263.55 413.968,-252.362 416.327,-242.54"/>
<polygon fill="green" stroke="green" points="419.786,-243.126 418.718,-232.585 412.979,-241.491 419.786,-243.126"/>
</g>
<!-- 18&#45;&gt;5 -->
<g id="edge5" class="edge"><title>18&#45;&gt;5</title>
<path fill="none" stroke="green" d="M278.632,-60.6924C292.62,-50.47 313.783,-35.0052 329.054,-23.8455"/>
<polygon fill="green" stroke="green" points="331.256,-26.5707 337.265,-17.8446 327.126,-20.9189 331.256,-26.5707"/>
</g>
<!-- 9&#45;&gt;5 -->
<g id="edge21" class="edge"><title>9&#45;&gt;5</title>
<path fill="none" stroke="green" d="M426.013,-203.566C433.999,-174.236 448.835,-102.925 421,-54 409.79,-34.2951 385.853,-22.4168 368.436,-16.0545"/>
<polygon fill="green" stroke="green" points="369.2,-12.6202 358.607,-12.7853 366.991,-19.2625 369.2,-12.6202"/>
</g>
<!-- 9&#45;&gt;11 -->
<g id="edge22" class="edge"><title>9&#45;&gt;11</title>
<path fill="none" stroke="green" d="M412.432,-206.176C403.196,-195.801 388.966,-179.816 377.513,-166.951"/>
<polygon fill="green" stroke="green" points="380.074,-164.563 370.811,-159.421 374.846,-169.218 380.074,-164.563"/>
</g>
<!-- 24&#45;&gt;5 -->
<g id="edge36" class="edge"><title>24&#45;&gt;5</title>
<path fill="none" stroke="red" d="M508.359,-62.0718C503.251,-59.253 497.481,-56.2985 492,-54 449.436,-36.1494 397.087,-21.9918 368.696,-14.9243"/>
<polygon fill="red" stroke="red" points="369.281,-11.4643 358.736,-12.4926 367.62,-18.2645 369.281,-11.4643"/>
</g>
<!-- 11&#45;&gt;5 -->
<g id="edge34" class="edge"><title>11&#45;&gt;5</title>
<path fill="none" stroke="green" d="M357.562,-126.616C355.481,-101.241 351.648,-54.4942 349.522,-28.5593"/>
<polygon fill="green" stroke="green" points="352.983,-27.9397 348.677,-18.2592 346.006,-28.5118 352.983,-27.9397"/>
</g>
<!-- 11&#45;&gt;22 -->
<g id="edge31" class="edge"><title>11&#45;&gt;22</title>
<path fill="none" stroke="red" d="M366.768,-128.448C371.102,-119.684 376.604,-108.559 381.527,-98.6057"/>
<polygon fill="red" stroke="red" points="384.716,-100.053 386.011,-89.5376 378.441,-96.9497 384.716,-100.053"/>
</g>
<!-- 22&#45;&gt;5 -->
<g id="edge32" class="edge"><title>22&#45;&gt;5</title>
<path fill="none" stroke="red" d="M383.331,-57.1476C376.493,-48.0221 367.589,-36.1412 360.431,-26.5892"/>
<polygon fill="red" stroke="red" points="363.025,-24.2141 354.228,-18.3105 357.424,-28.4119 363.025,-24.2141"/>
</g>
</g>
</svg>
