<?xml version="1.0" encoding="UTF-8" standalone="no"?>
<!DOCTYPE svg PUBLIC "-//W3C//DTD SVG 1.1//EN"
 "http://www.w3.org/Graphics/SVG/1.1/DTD/svg11.dtd">
<!-- Generated by graphviz version 2.38.0 (20140413.2041)
 -->
<!-- Title: %3 Pages: 1 -->
<svg width="724pt" height="517pt"
 viewBox="0.00 0.00 724.18 516.62" xmlns="http://www.w3.org/2000/svg" xmlns:xlink="http://www.w3.org/1999/xlink">
<g id="graph0" class="graph" transform="scale(1 1) rotate(0) translate(4 512.617)">
<title>%3</title>
<polygon fill="white" stroke="none" points="-4,4 -4,-512.617 720.182,-512.617 720.182,4 -4,4"/>
<!-- 1 -->
<g id="node1" class="node"><title>1</title>
<polygon fill="lightgray" stroke="black" points="332.682,-372.463 311.682,-372.463 311.682,-354.463 332.682,-354.463 332.682,-372.463"/>
<text text-anchor="middle" x="322.182" y="-361.263" font-family="Times New Roman,serif" font-size="9.00">1</text>
</g>
<!-- 30 -->
<g id="node10" class="node"><title>30</title>
<ellipse fill="none" stroke="black" cx="280.182" cy="-290.693" rx="18.2703" ry="18.2703"/>
<text text-anchor="middle" x="280.182" y="-288.493" font-family="Times New Roman,serif" font-size="9.00">30</text>
</g>
<!-- 1&#45;&gt;30 -->
<g id="edge10" class="edge"><title>1&#45;&gt;30</title>
<path fill="none" stroke="green" d="M317.364,-354.345C311.797,-344.964 302.38,-329.096 294.416,-315.678"/>
<polygon fill="green" stroke="green" points="297.313,-313.702 289.2,-306.889 291.294,-317.275 297.313,-313.702"/>
</g>
<!-- 10 -->
<g id="node18" class="node"><title>10</title>
<ellipse fill="none" stroke="black" cx="395.182" cy="-217.924" rx="18.2703" ry="18.2703"/>
<text text-anchor="middle" x="395.182" y="-215.724" font-family="Times New Roman,serif" font-size="9.00">10</text>
</g>
<!-- 1&#45;&gt;10 -->
<g id="edge4" class="edge"><title>1&#45;&gt;10</title>
<path fill="none" stroke="green" d="M323.58,-354.321C326.624,-337.978 334.839,-300.344 350.182,-272.309 356.82,-260.18 366.476,-248.261 375.143,-238.773"/>
<polygon fill="green" stroke="green" points="377.768,-241.091 382.103,-231.424 372.685,-236.278 377.768,-241.091"/>
</g>
<!-- 2 -->
<g id="node2" class="node"><title>2</title>
<polygon fill="lightgray" stroke="black" points="258.682,-445.233 237.682,-445.233 237.682,-427.233 258.682,-427.233 258.682,-445.233"/>
<text text-anchor="middle" x="248.182" y="-434.033" font-family="Times New Roman,serif" font-size="9.00">2</text>
</g>
<!-- 5 -->
<g id="node5" class="node"><title>5</title>
<polygon fill="lightblue" stroke="black" points="325.682,-18 304.682,-18 304.682,-0 325.682,-0 325.682,-18"/>
<text text-anchor="middle" x="315.182" y="-6.8" font-family="Times New Roman,serif" font-size="9.00">5</text>
</g>
<!-- 2&#45;&gt;5 -->
<g id="edge12" class="edge"><title>2&#45;&gt;5</title>
<path fill="none" stroke="green" d="M237.592,-431.164C219.955,-423.877 184.499,-406.973 164.182,-381.848 89.96,-290.059 67.2495,-242.563 90.1818,-126.77 96.978,-92.4534 93.4447,-76.559 120.182,-54 146.591,-31.7177 249.896,-17.4782 294.494,-12.2509"/>
<polygon fill="green" stroke="green" points="294.944,-15.7224 304.485,-11.1167 294.154,-8.76705 294.944,-15.7224"/>
</g>
<!-- 35 -->
<g id="node6" class="node"><title>35</title>
<ellipse fill="none" stroke="black" cx="271.182" cy="-363.463" rx="18.2703" ry="18.2703"/>
<text text-anchor="middle" x="271.182" y="-361.263" font-family="Times New Roman,serif" font-size="9.00">35</text>
</g>
<!-- 2&#45;&gt;35 -->
<g id="edge27" class="edge"><title>2&#45;&gt;35</title>
<path fill="none" stroke="red" d="M250.82,-427.114C253.688,-418.291 258.421,-403.728 262.602,-390.862"/>
<polygon fill="red" stroke="red" points="266.029,-391.642 265.791,-381.05 259.372,-389.478 266.029,-391.642"/>
</g>
<!-- 17 -->
<g id="node9" class="node"><title>17</title>
<ellipse fill="none" stroke="black" cx="225.182" cy="-290.693" rx="18.2703" ry="18.2703"/>
<text text-anchor="middle" x="225.182" y="-288.493" font-family="Times New Roman,serif" font-size="9.00">17</text>
</g>
<!-- 2&#45;&gt;17 -->
<g id="edge8" class="edge"><title>2&#45;&gt;17</title>
<path fill="none" stroke="green" d="M246.879,-427.104C243.604,-406.661 234.904,-352.37 229.569,-319.072"/>
<polygon fill="green" stroke="green" points="233.004,-318.388 227.966,-309.068 226.092,-319.496 233.004,-318.388"/>
</g>
<!-- 8 -->
<g id="node17" class="node"><title>8</title>
<ellipse fill="none" stroke="black" cx="517.182" cy="-145.154" rx="14.7" ry="14.7"/>
<text text-anchor="middle" x="517.182" y="-142.954" font-family="Times New Roman,serif" font-size="9.00">8</text>
</g>
<!-- 2&#45;&gt;8 -->
<g id="edge29" class="edge"><title>2&#45;&gt;8</title>
<path fill="none" stroke="red" d="M258.812,-435.455C290.444,-435.528 385.007,-431.381 437.182,-381.848 498.108,-324.006 512.635,-218.085 516.098,-170.47"/>
<polygon fill="red" stroke="red" points="519.609,-170.395 516.736,-160.198 512.623,-169.961 519.609,-170.395"/>
</g>
<!-- 2&#45;&gt;10 -->
<g id="edge9" class="edge"><title>2&#45;&gt;10</title>
<path fill="none" stroke="red" d="M258.774,-431.982C277.991,-425.55 318.689,-409.388 341.182,-381.848 358.435,-360.723 378.627,-286.498 388.731,-245.918"/>
<polygon fill="red" stroke="red" points="392.146,-246.689 391.132,-236.143 385.348,-245.019 392.146,-246.689"/>
</g>
<!-- 11 -->
<g id="node26" class="node"><title>11</title>
<ellipse fill="none" stroke="black" cx="231.182" cy="-72.3848" rx="18.2703" ry="18.2703"/>
<text text-anchor="middle" x="231.182" y="-70.1848" font-family="Times New Roman,serif" font-size="9.00">11</text>
</g>
<!-- 2&#45;&gt;11 -->
<g id="edge16" class="edge"><title>2&#45;&gt;11</title>
<path fill="none" stroke="green" d="M238.311,-427.06C217.008,-408.678 167.267,-361.557 150.182,-309.078 135.111,-262.786 137.106,-246.434 150.182,-199.539 160.333,-163.133 173.629,-158.487 194.182,-126.77 200.781,-116.586 208.369,-105.531 214.95,-96.1364"/>
<polygon fill="green" stroke="green" points="217.982,-97.9102 220.885,-87.7209 212.261,-93.8758 217.982,-97.9102"/>
</g>
<!-- 3 -->
<g id="node3" class="node"><title>3</title>
<polygon fill="lightgray" stroke="black" points="466.682,-445.233 445.682,-445.233 445.682,-427.233 466.682,-427.233 466.682,-445.233"/>
<text text-anchor="middle" x="456.182" y="-434.033" font-family="Times New Roman,serif" font-size="9.00">3</text>
</g>
<!-- 3&#45;&gt;5 -->
<g id="edge1" class="edge"><title>3&#45;&gt;5</title>
<path fill="none" stroke="green" d="M466.889,-433.701C511.235,-426.701 678.182,-393.583 678.182,-291.693 678.182,-291.693 678.182,-291.693 678.182,-144.154 678.182,-70.6713 413.154,-24.8184 336.01,-13.0282"/>
<polygon fill="green" stroke="green" points="336.454,-9.55564 326.046,-11.5366 335.417,-16.4785 336.454,-9.55564"/>
</g>
<!-- 3&#45;&gt;35 -->
<g id="edge42" class="edge"><title>3&#45;&gt;35</title>
<path fill="none" stroke="green" d="M445.475,-432.236C420.06,-424.972 354.318,-405.28 302.182,-381.848 300.078,-380.902 297.928,-379.862 295.79,-378.776"/>
<polygon fill="green" stroke="green" points="297.137,-375.526 286.673,-373.861 293.815,-381.687 297.137,-375.526"/>
</g>
<!-- 54 -->
<g id="node8" class="node"><title>54</title>
<ellipse fill="none" stroke="black" cx="410.182" cy="-363.463" rx="18.2703" ry="18.2703"/>
<text text-anchor="middle" x="410.182" y="-361.263" font-family="Times New Roman,serif" font-size="9.00">54</text>
</g>
<!-- 3&#45;&gt;54 -->
<g id="edge51" class="edge"><title>3&#45;&gt;54</title>
<path fill="none" stroke="red" d="M450.905,-427.114C444.71,-417.584 434.163,-401.358 425.355,-387.806"/>
<polygon fill="red" stroke="red" points="428.265,-385.862 419.881,-379.385 422.396,-389.677 428.265,-385.862"/>
</g>
<!-- 26 -->
<g id="node11" class="node"><title>26</title>
<ellipse fill="none" stroke="black" cx="540.182" cy="-363.463" rx="18.2703" ry="18.2703"/>
<text text-anchor="middle" x="540.182" y="-361.263" font-family="Times New Roman,serif" font-size="9.00">26</text>
</g>
<!-- 3&#45;&gt;26 -->
<g id="edge26" class="edge"><title>3&#45;&gt;26</title>
<path fill="none" stroke="red" d="M465.818,-427.114C478.631,-416.319 501.643,-396.932 518.686,-382.573"/>
<polygon fill="red" stroke="red" points="521.109,-385.108 526.502,-375.988 516.599,-379.755 521.109,-385.108"/>
</g>
<!-- 3&#45;&gt;8 -->
<g id="edge5" class="edge"><title>3&#45;&gt;8</title>
<path fill="none" stroke="red" d="M461.884,-426.988C464.429,-423.789 467.65,-420.31 471.182,-417.848 508.562,-391.787 541.226,-419.301 567.182,-381.848 613.334,-315.25 596.96,-274.895 567.182,-199.539 561.083,-184.105 548.18,-170.517 537.01,-160.912"/>
<polygon fill="red" stroke="red" points="538.921,-157.955 528.948,-154.379 534.514,-163.394 538.921,-157.955"/>
</g>
<!-- 3&#45;&gt;10 -->
<g id="edge38" class="edge"><title>3&#45;&gt;10</title>
<path fill="none" stroke="red" d="M456.751,-427.049C458.147,-402.516 460.101,-327.852 437.182,-272.309 432.102,-259.999 423.332,-248.162 415.115,-238.775"/>
<polygon fill="red" stroke="red" points="417.493,-236.191 408.144,-231.207 412.345,-240.934 417.493,-236.191"/>
</g>
<!-- 6 -->
<g id="node19" class="node"><title>6</title>
<ellipse fill="none" stroke="black" cx="174.182" cy="-290.693" rx="14.7" ry="14.7"/>
<text text-anchor="middle" x="174.182" y="-288.493" font-family="Times New Roman,serif" font-size="9.00">6</text>
</g>
<!-- 3&#45;&gt;6 -->
<g id="edge13" class="edge"><title>3&#45;&gt;6</title>
<path fill="none" stroke="red" d="M445.517,-434.943C412.726,-433.585 311.547,-425.852 244.182,-381.848 217.83,-364.634 197.23,-334.073 185.389,-313.355"/>
<polygon fill="red" stroke="red" points="188.32,-311.421 180.435,-304.344 182.186,-314.793 188.32,-311.421"/>
</g>
<!-- 4 -->
<g id="node4" class="node"><title>4</title>
<polygon fill="lightgray" stroke="black" points="103.682,-508.617 82.6818,-508.617 82.6818,-490.617 103.682,-490.617 103.682,-508.617"/>
<text text-anchor="middle" x="93.1818" y="-497.417" font-family="Times New Roman,serif" font-size="9.00">4</text>
</g>
<!-- 4&#45;&gt;5 -->
<g id="edge2" class="edge"><title>4&#45;&gt;5</title>
<path fill="none" stroke="green" d="M103.734,-498.679C185.601,-498.882 716.182,-495.155 716.182,-364.463 716.182,-364.463 716.182,-364.463 716.182,-144.154 716.182,-77.8013 658.257,-79.9346 597.182,-54 505.556,-15.0922 384.074,-10.1535 336.019,-9.83014"/>
<polygon fill="green" stroke="green" points="335.933,-6.3302 325.931,-9.82623 335.93,-13.3302 335.933,-6.3302"/>
</g>
<!-- 50 -->
<g id="node7" class="node"><title>50</title>
<ellipse fill="none" stroke="black" cx="47.1818" cy="-436.233" rx="18.2703" ry="18.2703"/>
<text text-anchor="middle" x="47.1818" y="-434.033" font-family="Times New Roman,serif" font-size="9.00">50</text>
</g>
<!-- 4&#45;&gt;50 -->
<g id="edge40" class="edge"><title>4&#45;&gt;50</title>
<path fill="none" stroke="red" d="M87.1681,-490.592C81.3264,-482.797 72.1815,-470.593 64.1108,-459.824"/>
<polygon fill="red" stroke="red" points="66.7499,-457.509 57.9522,-451.605 61.1482,-461.706 66.7499,-457.509"/>
</g>
<!-- 20 -->
<g id="node12" class="node"><title>20</title>
<ellipse fill="none" stroke="black" cx="47.1818" cy="-363.463" rx="18.2703" ry="18.2703"/>
<text text-anchor="middle" x="47.1818" y="-361.263" font-family="Times New Roman,serif" font-size="9.00">20</text>
</g>
<!-- 4&#45;&gt;20 -->
<g id="edge32" class="edge"><title>4&#45;&gt;20</title>
<path fill="none" stroke="red" d="M91.9139,-490.407C89.4822,-475.598 83.5577,-443.562 74.1818,-417.848 70.6284,-408.102 65.738,-397.835 61.0947,-388.937"/>
<polygon fill="red" stroke="red" points="64.0539,-387.051 56.2282,-379.909 57.892,-390.372 64.0539,-387.051"/>
</g>
<!-- 36 -->
<g id="node13" class="node"><title>36</title>
<ellipse fill="none" stroke="black" cx="632.182" cy="-290.693" rx="18.2703" ry="18.2703"/>
<text text-anchor="middle" x="632.182" y="-288.493" font-family="Times New Roman,serif" font-size="9.00">36</text>
</g>
<!-- 4&#45;&gt;36 -->
<g id="edge34" class="edge"><title>4&#45;&gt;36</title>
<path fill="none" stroke="red" d="M103.853,-498.961C149.727,-500.118 334.23,-501.474 475.182,-454.617 536.183,-434.339 559.147,-431.331 600.182,-381.848 615.12,-363.834 623.309,-338.337 627.652,-319.053"/>
<polygon fill="red" stroke="red" points="631.12,-319.563 629.688,-309.065 624.261,-318.164 631.12,-319.563"/>
</g>
<!-- 7 -->
<g id="node20" class="node"><title>7</title>
<ellipse fill="none" stroke="black" cx="114.182" cy="-145.154" rx="14.7" ry="14.7"/>
<text text-anchor="middle" x="114.182" y="-142.954" font-family="Times New Roman,serif" font-size="9.00">7</text>
</g>
<!-- 4&#45;&gt;7 -->
<g id="edge17" class="edge"><title>4&#45;&gt;7</title>
<path fill="none" stroke="green" d="M82.5871,-495.308C66.4337,-489.688 35.8729,-476.688 20.1818,-454.617 -3.54541,-421.243 1.1818,-405.412 1.1818,-364.463 1.1818,-364.463 1.1818,-364.463 1.1818,-289.693 1.1818,-230.844 60.5484,-181.894 93.2211,-159.411"/>
<polygon fill="green" stroke="green" points="95.2793,-162.245 101.657,-153.785 91.3955,-156.422 95.2793,-162.245"/>
</g>
<!-- 35&#45;&gt;17 -->
<g id="edge28" class="edge"><title>35&#45;&gt;17</title>
<path fill="none" stroke="green" d="M261.426,-347.455C255.328,-338.072 247.344,-325.79 240.423,-315.141"/>
<polygon fill="green" stroke="green" points="243.308,-313.157 234.923,-306.68 237.439,-316.972 243.308,-313.157"/>
</g>
<!-- 50&#45;&gt;20 -->
<g id="edge41" class="edge"><title>50&#45;&gt;20</title>
<path fill="none" stroke="red" d="M47.1818,-417.739C47.1818,-410.057 47.1818,-400.847 47.1818,-392.263"/>
<polygon fill="red" stroke="red" points="50.6819,-392.247 47.1818,-382.247 43.6819,-392.247 50.6819,-392.247"/>
</g>
<!-- 45 -->
<g id="node14" class="node"><title>45</title>
<ellipse fill="none" stroke="black" cx="410.182" cy="-290.693" rx="18.2703" ry="18.2703"/>
<text text-anchor="middle" x="410.182" y="-288.493" font-family="Times New Roman,serif" font-size="9.00">45</text>
</g>
<!-- 54&#45;&gt;45 -->
<g id="edge52" class="edge"><title>54&#45;&gt;45</title>
<path fill="none" stroke="red" d="M410.182,-344.969C410.182,-337.287 410.182,-328.078 410.182,-319.494"/>
<polygon fill="red" stroke="red" points="413.682,-319.477 410.182,-309.477 406.682,-319.477 413.682,-319.477"/>
</g>
<!-- 40 -->
<g id="node15" class="node"><title>40</title>
<ellipse fill="none" stroke="black" cx="324.182" cy="-217.924" rx="18.2703" ry="18.2703"/>
<text text-anchor="middle" x="324.182" y="-215.724" font-family="Times New Roman,serif" font-size="9.00">40</text>
</g>
<!-- 17&#45;&gt;40 -->
<g id="edge30" class="edge"><title>17&#45;&gt;40</title>
<path fill="none" stroke="red" d="M239.79,-279.251C255.948,-267.7 282.2,-248.935 301.136,-235.398"/>
<polygon fill="red" stroke="red" points="303.414,-238.072 309.514,-229.409 299.343,-232.377 303.414,-238.072"/>
</g>
<!-- 30&#45;&gt;40 -->
<g id="edge43" class="edge"><title>30&#45;&gt;40</title>
<path fill="none" stroke="red" d="M289.513,-274.685C295.288,-265.396 302.83,-253.265 309.405,-242.692"/>
<polygon fill="red" stroke="red" points="312.556,-244.251 314.864,-233.911 306.612,-240.555 312.556,-244.251"/>
</g>
<!-- 30&#45;&gt;10 -->
<g id="edge11" class="edge"><title>30&#45;&gt;10</title>
<path fill="none" stroke="red" d="M295.691,-280.149C315.09,-268.212 348.508,-247.646 371.21,-233.676"/>
<polygon fill="red" stroke="red" points="373.236,-236.539 379.918,-228.317 369.567,-230.577 373.236,-236.539"/>
</g>
<!-- 52 -->
<g id="node16" class="node"><title>52</title>
<ellipse fill="none" stroke="black" cx="540.182" cy="-217.924" rx="18.2703" ry="18.2703"/>
<text text-anchor="middle" x="540.182" y="-215.724" font-family="Times New Roman,serif" font-size="9.00">52</text>
</g>
<!-- 26&#45;&gt;52 -->
<g id="edge48" class="edge"><title>26&#45;&gt;52</title>
<path fill="none" stroke="green" d="M540.182,-344.862C540.182,-320.434 540.182,-275.989 540.182,-246.964"/>
<polygon fill="green" stroke="green" points="543.682,-246.669 540.182,-236.669 536.682,-246.669 543.682,-246.669"/>
</g>
<!-- 20&#45;&gt;6 -->
<g id="edge33" class="edge"><title>20&#45;&gt;6</title>
<path fill="none" stroke="green" d="M63.0097,-353.643C85.6506,-341.027 127.346,-317.792 152.739,-303.642"/>
<polygon fill="green" stroke="green" points="154.567,-306.63 161.599,-298.705 151.16,-300.516 154.567,-306.63"/>
</g>
<!-- 36&#45;&gt;8 -->
<g id="edge50" class="edge"><title>36&#45;&gt;8</title>
<path fill="none" stroke="red" d="M629.514,-272.462C625.778,-253.019 617.409,-221.277 600.182,-199.539 584.216,-179.393 558.455,-164.524 539.865,-155.667"/>
<polygon fill="red" stroke="red" points="541.187,-152.424 530.635,-151.478 538.295,-158.798 541.187,-152.424"/>
</g>
<!-- 36&#45;&gt;10 -->
<g id="edge35" class="edge"><title>36&#45;&gt;10</title>
<path fill="none" stroke="red" d="M614.755,-284.49C573.837,-272.271 471.378,-241.676 422.264,-227.011"/>
<polygon fill="red" stroke="red" points="423.218,-223.643 412.635,-224.135 421.215,-230.35 423.218,-223.643"/>
</g>
<!-- 45&#45;&gt;10 -->
<g id="edge36" class="edge"><title>45&#45;&gt;10</title>
<path fill="none" stroke="red" d="M406.551,-272.562C404.881,-264.682 402.858,-255.14 400.984,-246.3"/>
<polygon fill="red" stroke="red" points="404.381,-245.446 398.884,-236.389 397.533,-246.898 404.381,-245.446"/>
</g>
<!-- 40&#45;&gt;8 -->
<g id="edge31" class="edge"><title>40&#45;&gt;8</title>
<path fill="none" stroke="green" d="M341.267,-210.025C349.395,-206.781 359.265,-202.897 368.182,-199.539 412.155,-182.979 463.864,-164.723 493.354,-154.425"/>
<polygon fill="green" stroke="green" points="494.866,-157.605 503.158,-151.009 492.563,-150.995 494.866,-157.605"/>
</g>
<!-- 40&#45;&gt;7 -->
<g id="edge45" class="edge"><title>40&#45;&gt;7</title>
<path fill="none" stroke="red" d="M306.997,-211.133C269.441,-198.476 180.016,-168.34 137.459,-153.999"/>
<polygon fill="red" stroke="red" points="138.538,-150.669 127.944,-150.792 136.303,-157.302 138.538,-150.669"/>
</g>
<!-- 40&#45;&gt;11 -->
<g id="edge44" class="edge"><title>40&#45;&gt;11</title>
<path fill="none" stroke="green" d="M326.96,-199.58C329.12,-180.32 329.799,-149.017 316.182,-126.77 303.029,-105.282 277.623,-91.0377 257.998,-82.7091"/>
<polygon fill="green" stroke="green" points="259.219,-79.4281 248.633,-78.9879 256.634,-85.9333 259.219,-79.4281"/>
</g>
<!-- 22 -->
<g id="node27" class="node"><title>22</title>
<ellipse fill="none" stroke="black" cx="289.182" cy="-145.154" rx="18.2703" ry="18.2703"/>
<text text-anchor="middle" x="289.182" y="-142.954" font-family="Times New Roman,serif" font-size="9.00">22</text>
</g>
<!-- 40&#45;&gt;22 -->
<g id="edge37" class="edge"><title>40&#45;&gt;22</title>
<path fill="none" stroke="green" d="M316.414,-201.218C312.08,-192.454 306.578,-181.328 301.655,-171.375"/>
<polygon fill="green" stroke="green" points="304.741,-169.719 297.17,-162.307 298.466,-172.822 304.741,-169.719"/>
</g>
<!-- 52&#45;&gt;8 -->
<g id="edge49" class="edge"><title>52&#45;&gt;8</title>
<path fill="none" stroke="green" d="M534.731,-200.152C531.734,-190.93 527.97,-179.35 524.698,-169.281"/>
<polygon fill="green" stroke="green" points="527.938,-167.925 521.518,-159.497 521.28,-170.089 527.938,-167.925"/>
</g>
<!-- 8&#45;&gt;5 -->
<g id="edge3" class="edge"><title>8&#45;&gt;5</title>
<path fill="none" stroke="red" d="M508.368,-133.015C493.154,-114.419 460.21,-76.8434 425.182,-54 396.477,-35.2801 358.542,-22.2896 335.55,-15.5001"/>
<polygon fill="red" stroke="red" points="336.423,-12.1096 325.847,-12.7429 334.51,-18.843 336.423,-12.1096"/>
</g>
<!-- 10&#45;&gt;5 -->
<g id="edge25" class="edge"><title>10&#45;&gt;5</title>
<path fill="none" stroke="red" d="M399.76,-199.71C407.094,-168.224 418.005,-100.34 390.182,-54 378.156,-33.9704 353.261,-22.0778 335.452,-15.804"/>
<polygon fill="red" stroke="red" points="336.287,-12.3963 325.696,-12.6706 334.147,-19.061 336.287,-12.3963"/>
</g>
<!-- 18 -->
<g id="node23" class="node"><title>18</title>
<ellipse fill="none" stroke="black" cx="363.182" cy="-72.3848" rx="18.2703" ry="18.2703"/>
<text text-anchor="middle" x="363.182" y="-70.1848" font-family="Times New Roman,serif" font-size="9.00">18</text>
</g>
<!-- 10&#45;&gt;18 -->
<g id="edge6" class="edge"><title>10&#45;&gt;18</title>
<path fill="none" stroke="green" d="M391.385,-199.894C385.9,-175.291 375.704,-129.555 369.191,-100.339"/>
<polygon fill="green" stroke="green" points="372.566,-99.3909 366.973,-90.3921 365.733,-100.914 372.566,-99.3909"/>
</g>
<!-- 12 -->
<g id="node21" class="node"><title>12</title>
<ellipse fill="none" stroke="black" cx="232.182" cy="-217.924" rx="18.2703" ry="18.2703"/>
<text text-anchor="middle" x="232.182" y="-215.724" font-family="Times New Roman,serif" font-size="9.00">12</text>
</g>
<!-- 6&#45;&gt;12 -->
<g id="edge46" class="edge"><title>6&#45;&gt;12</title>
<path fill="none" stroke="red" d="M183.244,-278.636C191.608,-268.431 204.259,-252.995 214.603,-240.373"/>
<polygon fill="red" stroke="red" points="217.367,-242.522 220.999,-232.569 211.953,-238.085 217.367,-242.522"/>
</g>
<!-- 14 -->
<g id="node22" class="node"><title>14</title>
<ellipse fill="none" stroke="black" cx="177.182" cy="-217.924" rx="18.2703" ry="18.2703"/>
<text text-anchor="middle" x="177.182" y="-215.724" font-family="Times New Roman,serif" font-size="9.00">14</text>
</g>
<!-- 6&#45;&gt;14 -->
<g id="edge20" class="edge"><title>6&#45;&gt;14</title>
<path fill="none" stroke="green" d="M174.775,-275.712C175.126,-267.429 175.583,-256.639 176.005,-246.693"/>
<polygon fill="green" stroke="green" points="179.515,-246.528 176.441,-236.389 172.521,-246.232 179.515,-246.528"/>
</g>
<!-- 6&#45;&gt;22 -->
<g id="edge24" class="edge"><title>6&#45;&gt;22</title>
<path fill="none" stroke="red" d="M185.747,-280.981C189.643,-278.137 194.05,-275.016 198.182,-272.309 224.514,-255.056 239.401,-260.798 259.182,-236.309 273.787,-218.227 281.403,-192.737 285.299,-173.473"/>
<polygon fill="red" stroke="red" points="288.768,-173.96 287.102,-163.497 281.879,-172.715 288.768,-173.96"/>
</g>
<!-- 7&#45;&gt;5 -->
<g id="edge39" class="edge"><title>7&#45;&gt;5</title>
<path fill="none" stroke="green" d="M114.832,-130.059C116.527,-110.194 122.591,-74.142 144.182,-54 186.252,-14.7525 258.549,-9.40329 294.138,-9.34313"/>
<polygon fill="green" stroke="green" points="294.274,-12.8451 304.318,-9.47318 294.364,-5.84563 294.274,-12.8451"/>
</g>
<!-- 24 -->
<g id="node25" class="node"><title>24</title>
<ellipse fill="none" stroke="black" cx="171.182" cy="-72.3848" rx="18.2703" ry="18.2703"/>
<text text-anchor="middle" x="171.182" y="-70.1848" font-family="Times New Roman,serif" font-size="9.00">24</text>
</g>
<!-- 7&#45;&gt;24 -->
<g id="edge22" class="edge"><title>7&#45;&gt;24</title>
<path fill="none" stroke="red" d="M123.088,-133.097C131.256,-122.956 143.585,-107.648 153.715,-95.071"/>
<polygon fill="red" stroke="red" points="156.442,-97.2656 159.988,-87.2821 150.99,-92.8747 156.442,-97.2656"/>
</g>
<!-- 9 -->
<g id="node24" class="node"><title>9</title>
<ellipse fill="none" stroke="black" cx="238.182" cy="-145.154" rx="14.7" ry="14.7"/>
<text text-anchor="middle" x="238.182" y="-142.954" font-family="Times New Roman,serif" font-size="9.00">9</text>
</g>
<!-- 12&#45;&gt;9 -->
<g id="edge47" class="edge"><title>12&#45;&gt;9</title>
<path fill="none" stroke="red" d="M233.665,-199.43C234.411,-190.627 235.328,-179.82 236.139,-170.245"/>
<polygon fill="red" stroke="red" points="239.639,-170.391 236.997,-160.131 232.664,-169.799 239.639,-170.391"/>
</g>
<!-- 14&#45;&gt;11 -->
<g id="edge18" class="edge"><title>14&#45;&gt;11</title>
<path fill="none" stroke="green" d="M183.376,-200.458C192.645,-175.822 210.212,-129.126 221.275,-99.7172"/>
<polygon fill="green" stroke="green" points="224.648,-100.693 224.893,-90.1006 218.096,-98.2278 224.648,-100.693"/>
</g>
<!-- 18&#45;&gt;5 -->
<g id="edge7" class="edge"><title>18&#45;&gt;5</title>
<path fill="none" stroke="red" d="M352.29,-57.4556C345.005,-48.1392 335.396,-35.8503 327.781,-26.1122"/>
<polygon fill="red" stroke="red" points="330.389,-23.7663 321.472,-18.0447 324.875,-28.0782 330.389,-23.7663"/>
</g>
<!-- 9&#45;&gt;5 -->
<g id="edge14" class="edge"><title>9&#45;&gt;5</title>
<path fill="none" stroke="green" d="M245.288,-131.774C259.148,-107.626 289.805,-54.2136 305.504,-26.8607"/>
<polygon fill="green" stroke="green" points="308.61,-28.4801 310.553,-18.0649 302.539,-24.9955 308.61,-28.4801"/>
</g>
<!-- 9&#45;&gt;11 -->
<g id="edge15" class="edge"><title>9&#45;&gt;11</title>
<path fill="none" stroke="red" d="M236.799,-130.173C235.971,-121.801 234.89,-110.87 233.897,-100.837"/>
<polygon fill="red" stroke="red" points="237.377,-100.457 232.909,-90.85 230.411,-101.146 237.377,-100.457"/>
</g>
<!-- 24&#45;&gt;5 -->
<g id="edge23" class="edge"><title>24&#45;&gt;5</title>
<path fill="none" stroke="green" d="M187.122,-62.545C192.482,-59.6921 198.534,-56.5979 204.182,-54 235.397,-39.6413 272.723,-25.4309 295.161,-17.1961"/>
<polygon fill="green" stroke="green" points="296.417,-20.4638 304.618,-13.7564 294.024,-13.8854 296.417,-20.4638"/>
</g>
<!-- 11&#45;&gt;5 -->
<g id="edge21" class="edge"><title>11&#45;&gt;5</title>
<path fill="none" stroke="green" d="M245.813,-60.6924C259.802,-50.47 280.964,-35.0052 296.235,-23.8455"/>
<polygon fill="green" stroke="green" points="298.438,-26.5707 304.447,-17.8446 294.308,-20.9189 298.438,-26.5707"/>
</g>
<!-- 22&#45;&gt;5 -->
<g id="edge19" class="edge"><title>22&#45;&gt;5</title>
<path fill="none" stroke="green" d="M292.528,-126.891C297.45,-101.493 306.603,-54.2673 311.636,-28.2937"/>
<polygon fill="green" stroke="green" points="315.107,-28.7819 313.573,-18.2986 308.235,-27.45 315.107,-28.7819"/>
</g>
</g>
</svg>
