<?xml version="1.0" encoding="UTF-8" standalone="no"?>
<!DOCTYPE svg PUBLIC "-//W3C//DTD SVG 1.1//EN"
 "http://www.w3.org/Graphics/SVG/1.1/DTD/svg11.dtd">
<!-- Generated by graphviz version 2.38.0 (20140413.2041)
 -->
<!-- Title: %3 Pages: 1 -->
<svg width="925pt" height="880pt"
 viewBox="0.00 0.00 925.00 880.47" xmlns="http://www.w3.org/2000/svg" xmlns:xlink="http://www.w3.org/1999/xlink">
<g id="graph0" class="graph" transform="scale(1 1) rotate(0) translate(4 876.465)">
<title>%3</title>
<polygon fill="white" stroke="none" points="-4,4 -4,-876.465 921,-876.465 921,4 -4,4"/>
<!-- 1 -->
<g id="node1" class="node"><title>1</title>
<polygon fill="lightgray" stroke="black" points="174.5,-809.08 153.5,-809.08 153.5,-791.08 174.5,-791.08 174.5,-809.08"/>
<text text-anchor="middle" x="164" y="-797.88" font-family="Times New Roman,serif" font-size="9.00">1</text>
</g>
<!-- 6 -->
<g id="node6" class="node"><title>6</title>
<polygon fill="lightblue" stroke="black" points="560.5,-18 539.5,-18 539.5,-0 560.5,-0 560.5,-18"/>
<text text-anchor="middle" x="550" y="-6.8" font-family="Times New Roman,serif" font-size="9.00">6</text>
</g>
<!-- 1&#45;&gt;6 -->
<g id="edge10" class="edge"><title>1&#45;&gt;6</title>
<path fill="none" stroke="red" d="M153.24,-795.648C116.754,-783.269 0,-737.27 0,-655.541 0,-655.541 0,-655.541 0,-144.154 0,-91.1707 30.8881,-78.2434 78,-54 158.385,-12.6343 448.419,-9.86227 529.064,-9.90795"/>
<polygon fill="red" stroke="red" points="529.386,-13.4086 539.394,-9.93089 529.402,-6.4086 529.386,-13.4086"/>
</g>
<!-- 17 -->
<g id="node8" class="node"><title>17</title>
<ellipse fill="none" stroke="black" cx="420" cy="-727.311" rx="18.2703" ry="18.2703"/>
<text text-anchor="middle" x="420" y="-725.111" font-family="Times New Roman,serif" font-size="9.00">17</text>
</g>
<!-- 1&#45;&gt;17 -->
<g id="edge38" class="edge"><title>1&#45;&gt;17</title>
<path fill="none" stroke="green" d="M174.674,-796.13C211.834,-785.857 336.306,-751.447 392.298,-735.969"/>
<polygon fill="green" stroke="green" points="393.523,-739.262 402.229,-733.223 391.658,-732.515 393.523,-739.262"/>
</g>
<!-- 27 -->
<g id="node11" class="node"><title>27</title>
<ellipse fill="none" stroke="black" cx="164" cy="-509.002" rx="18.2703" ry="18.2703"/>
<text text-anchor="middle" x="164" y="-506.802" font-family="Times New Roman,serif" font-size="9.00">27</text>
</g>
<!-- 1&#45;&gt;27 -->
<g id="edge21" class="edge"><title>1&#45;&gt;27</title>
<path fill="none" stroke="red" d="M164,-791.047C164,-754.239 164,-600.788 164,-537.489"/>
<polygon fill="red" stroke="red" points="167.5,-537.448 164,-527.449 160.5,-537.449 167.5,-537.448"/>
</g>
<!-- 77 -->
<g id="node26" class="node"><title>77</title>
<ellipse fill="none" stroke="black" cx="533" cy="-727.311" rx="18.2703" ry="18.2703"/>
<text text-anchor="middle" x="533" y="-725.111" font-family="Times New Roman,serif" font-size="9.00">77</text>
</g>
<!-- 1&#45;&gt;77 -->
<g id="edge73" class="edge"><title>1&#45;&gt;77</title>
<path fill="none" stroke="red" d="M174.557,-798.762C216.918,-797.207 378.239,-788.623 502,-745.696 504.312,-744.894 506.651,-743.923 508.954,-742.855"/>
<polygon fill="red" stroke="red" points="510.81,-745.834 518.053,-738.102 507.569,-739.63 510.81,-745.834"/>
</g>
<!-- 10 -->
<g id="node27" class="node"><title>10</title>
<ellipse fill="none" stroke="black" cx="142" cy="-290.693" rx="18.2703" ry="18.2703"/>
<text text-anchor="middle" x="142" y="-288.493" font-family="Times New Roman,serif" font-size="9.00">10</text>
</g>
<!-- 1&#45;&gt;10 -->
<g id="edge7" class="edge"><title>1&#45;&gt;10</title>
<path fill="none" stroke="red" d="M154.246,-790.801C131.334,-770.368 76,-714.879 76,-655.541 76,-655.541 76,-655.541 76,-435.233 76,-394.284 76.6451,-381.683 95,-345.078 101.464,-332.188 111.811,-319.948 121.153,-310.449"/>
<polygon fill="red" stroke="red" points="123.611,-312.941 128.337,-303.458 118.729,-307.924 123.611,-312.941"/>
</g>
<!-- 2 -->
<g id="node2" class="node"><title>2</title>
<polygon fill="lightgray" stroke="black" points="280.5,-590.772 259.5,-590.772 259.5,-572.772 280.5,-572.772 280.5,-590.772"/>
<text text-anchor="middle" x="270" y="-579.572" font-family="Times New Roman,serif" font-size="9.00">2</text>
</g>
<!-- 2&#45;&gt;6 -->
<g id="edge11" class="edge"><title>2&#45;&gt;6</title>
<path fill="none" stroke="green" d="M259.14,-578.845C234.782,-574.049 174.956,-559.567 137,-527.387 72.3715,-472.592 38,-449.194 38,-364.463 38,-364.463 38,-364.463 38,-144.154 38,-40.8432 433.014,-15.5186 529.115,-10.8862"/>
<polygon fill="green" stroke="green" points="529.477,-14.3734 539.306,-10.42 529.157,-7.38074 529.477,-14.3734"/>
</g>
<!-- 14 -->
<g id="node16" class="node"><title>14</title>
<ellipse fill="none" stroke="black" cx="177" cy="-436.233" rx="18.2703" ry="18.2703"/>
<text text-anchor="middle" x="177" y="-434.033" font-family="Times New Roman,serif" font-size="9.00">14</text>
</g>
<!-- 2&#45;&gt;14 -->
<g id="edge2" class="edge"><title>2&#45;&gt;14</title>
<path fill="none" stroke="green" d="M264.733,-572.643C250.965,-551.393 213.499,-493.567 192.248,-460.766"/>
<polygon fill="green" stroke="green" points="195.092,-458.719 186.717,-452.23 189.217,-462.525 195.092,-458.719"/>
</g>
<!-- 21 -->
<g id="node17" class="node"><title>21</title>
<ellipse fill="none" stroke="black" cx="270" cy="-509.002" rx="18.2703" ry="18.2703"/>
<text text-anchor="middle" x="270" y="-506.802" font-family="Times New Roman,serif" font-size="9.00">21</text>
</g>
<!-- 2&#45;&gt;21 -->
<g id="edge3" class="edge"><title>2&#45;&gt;21</title>
<path fill="none" stroke="green" d="M270,-572.653C270,-564.087 270,-550.112 270,-537.532"/>
<polygon fill="green" stroke="green" points="273.5,-537.442 270,-527.442 266.5,-537.442 273.5,-537.442"/>
</g>
<!-- 12 -->
<g id="node19" class="node"><title>12</title>
<ellipse fill="none" stroke="black" cx="535" cy="-509.002" rx="18.2703" ry="18.2703"/>
<text text-anchor="middle" x="535" y="-506.802" font-family="Times New Roman,serif" font-size="9.00">12</text>
</g>
<!-- 2&#45;&gt;12 -->
<g id="edge16" class="edge"><title>2&#45;&gt;12</title>
<path fill="none" stroke="red" d="M280.717,-577.91C319.002,-567.685 449.802,-532.755 507.396,-517.374"/>
<polygon fill="red" stroke="red" points="508.501,-520.702 517.259,-514.74 506.695,-513.939 508.501,-520.702"/>
</g>
<!-- 9 -->
<g id="node30" class="node"><title>9</title>
<ellipse fill="none" stroke="black" cx="388" cy="-363.463" rx="14.7" ry="14.7"/>
<text text-anchor="middle" x="388" y="-361.263" font-family="Times New Roman,serif" font-size="9.00">9</text>
</g>
<!-- 2&#45;&gt;9 -->
<g id="edge44" class="edge"><title>2&#45;&gt;9</title>
<path fill="none" stroke="green" d="M274.454,-572.566C280.019,-562.185 289.697,-543.69 297,-527.387 318.382,-479.656 312.52,-462.348 340,-417.848 348.268,-404.459 360.055,-391.293 369.879,-381.385"/>
<polygon fill="green" stroke="green" points="372.529,-383.689 377.233,-374.196 367.635,-378.684 372.529,-383.689"/>
</g>
<!-- 3 -->
<g id="node3" class="node"><title>3</title>
<polygon fill="lightgray" stroke="black" points="482.5,-872.465 461.5,-872.465 461.5,-854.465 482.5,-854.465 482.5,-872.465"/>
<text text-anchor="middle" x="472" y="-861.265" font-family="Times New Roman,serif" font-size="9.00">3</text>
</g>
<!-- 3&#45;&gt;6 -->
<g id="edge37" class="edge"><title>3&#45;&gt;6</title>
<path fill="none" stroke="green" d="M482.77,-857.687C485.437,-856.571 488.304,-855.429 491,-854.465 676.944,-788.016 917,-925.772 917,-728.311 917,-728.311 917,-728.311 917,-144.154 917,-95.5251 896.309,-79.6587 855,-54 807.182,-24.2983 631.884,-13.6958 571.001,-10.8626"/>
<polygon fill="green" stroke="green" points="570.864,-7.35329 560.72,-10.4086 570.555,-14.3465 570.864,-7.35329"/>
</g>
<!-- 28 -->
<g id="node7" class="node"><title>28</title>
<ellipse fill="none" stroke="black" cx="472" cy="-800.08" rx="18.2703" ry="18.2703"/>
<text text-anchor="middle" x="472" y="-797.88" font-family="Times New Roman,serif" font-size="9.00">28</text>
</g>
<!-- 3&#45;&gt;28 -->
<g id="edge24" class="edge"><title>3&#45;&gt;28</title>
<path fill="none" stroke="green" d="M472,-854.44C472,-847.876 472,-838.187 472,-828.859"/>
<polygon fill="green" stroke="green" points="475.5,-828.668 472,-818.668 468.5,-828.668 475.5,-828.668"/>
</g>
<!-- 3&#45;&gt;17 -->
<g id="edge36" class="edge"><title>3&#45;&gt;17</title>
<path fill="none" stroke="red" d="M466.096,-854.409C460.067,-845.862 450.793,-831.778 445,-818.465 436.115,-798.047 429.577,-773.643 425.42,-755.377"/>
<polygon fill="red" stroke="red" points="428.796,-754.434 423.247,-745.409 421.957,-755.925 428.796,-754.434"/>
</g>
<!-- 15 -->
<g id="node10" class="node"><title>15</title>
<ellipse fill="none" stroke="black" cx="581" cy="-654.541" rx="18.2703" ry="18.2703"/>
<text text-anchor="middle" x="581" y="-652.341" font-family="Times New Roman,serif" font-size="9.00">15</text>
</g>
<!-- 3&#45;&gt;15 -->
<g id="edge14" class="edge"><title>3&#45;&gt;15</title>
<path fill="none" stroke="green" d="M480.226,-854.211C497.712,-836.179 538.713,-791.227 560,-745.696 569.331,-725.737 574.691,-701.3 577.656,-682.905"/>
<polygon fill="green" stroke="green" points="581.142,-683.256 579.138,-672.852 574.217,-682.235 581.142,-683.256"/>
</g>
<!-- 3&#45;&gt;9 -->
<g id="edge18" class="edge"><title>3&#45;&gt;9</title>
<path fill="none" stroke="green" d="M461.11,-856.889C431.898,-841.068 354,-792.829 354,-728.311 354,-728.311 354,-728.311 354,-508.002 354,-464.402 369.037,-415.309 379.111,-387.313"/>
<polygon fill="green" stroke="green" points="382.491,-388.265 382.688,-377.672 375.928,-385.83 382.491,-388.265"/>
</g>
<!-- 4 -->
<g id="node4" class="node"><title>4</title>
<polygon fill="lightgray" stroke="black" points="843.5,-590.772 822.5,-590.772 822.5,-572.772 843.5,-572.772 843.5,-590.772"/>
<text text-anchor="middle" x="833" y="-579.572" font-family="Times New Roman,serif" font-size="9.00">4</text>
</g>
<!-- 4&#45;&gt;6 -->
<g id="edge35" class="edge"><title>4&#45;&gt;6</title>
<path fill="none" stroke="green" d="M837.9,-572.744C843.925,-562.546 854.077,-544.24 860,-527.387 873.578,-488.755 879,-478.181 879,-437.233 879,-437.233 879,-437.233 879,-144.154 879,-95.5251 858.05,-80.0716 817,-54 775.818,-27.8443 625.718,-15.1678 570.536,-11.315"/>
<polygon fill="green" stroke="green" points="570.761,-7.8223 560.549,-10.6428 570.291,-14.8065 570.761,-7.8223"/>
</g>
<!-- 73 -->
<g id="node9" class="node"><title>73</title>
<ellipse fill="none" stroke="black" cx="833" cy="-509.002" rx="18.2703" ry="18.2703"/>
<text text-anchor="middle" x="833" y="-506.802" font-family="Times New Roman,serif" font-size="9.00">73</text>
</g>
<!-- 4&#45;&gt;73 -->
<g id="edge62" class="edge"><title>4&#45;&gt;73</title>
<path fill="none" stroke="red" d="M833,-572.653C833,-564.087 833,-550.112 833,-537.532"/>
<polygon fill="red" stroke="red" points="836.5,-537.442 833,-527.442 829.5,-537.442 836.5,-537.442"/>
</g>
<!-- 8 -->
<g id="node31" class="node"><title>8</title>
<ellipse fill="none" stroke="black" cx="814" cy="-290.693" rx="14.7" ry="14.7"/>
<text text-anchor="middle" x="814" y="-288.493" font-family="Times New Roman,serif" font-size="9.00">8</text>
</g>
<!-- 4&#45;&gt;8 -->
<g id="edge52" class="edge"><title>4&#45;&gt;8</title>
<path fill="none" stroke="red" d="M827.293,-572.56C820.659,-562.468 810.096,-544.562 806,-527.387 787.957,-451.733 801.096,-358.576 809.076,-315.55"/>
<polygon fill="red" stroke="red" points="812.557,-315.98 811.018,-305.498 805.685,-314.652 812.557,-315.98"/>
</g>
<!-- 5 -->
<g id="node5" class="node"><title>5</title>
<polygon fill="lightgray" stroke="black" points="521.5,-872.465 500.5,-872.465 500.5,-854.465 521.5,-854.465 521.5,-872.465"/>
<text text-anchor="middle" x="511" y="-861.265" font-family="Times New Roman,serif" font-size="9.00">5</text>
</g>
<!-- 28&#45;&gt;17 -->
<g id="edge25" class="edge"><title>28&#45;&gt;17</title>
<path fill="none" stroke="red" d="M461.477,-784.759C454.358,-775.071 444.806,-762.07 436.663,-750.988"/>
<polygon fill="red" stroke="red" points="439.249,-748.597 430.507,-742.611 433.608,-752.742 439.249,-748.597"/>
</g>
<!-- 48 -->
<g id="node13" class="node"><title>48</title>
<ellipse fill="none" stroke="black" cx="475" cy="-727.311" rx="18.2703" ry="18.2703"/>
<text text-anchor="middle" x="475" y="-725.111" font-family="Times New Roman,serif" font-size="9.00">48</text>
</g>
<!-- 28&#45;&gt;48 -->
<g id="edge67" class="edge"><title>28&#45;&gt;48</title>
<path fill="none" stroke="green" d="M472.742,-781.587C473.067,-773.904 473.458,-764.695 473.822,-756.111"/>
<polygon fill="green" stroke="green" points="477.319,-756.234 474.246,-746.095 470.326,-755.937 477.319,-756.234"/>
</g>
<!-- 17&#45;&gt;15 -->
<g id="edge15" class="edge"><title>17&#45;&gt;15</title>
<path fill="none" stroke="red" d="M434.835,-716.434C439.009,-713.84 443.61,-711.149 448,-708.926 483.627,-690.888 526.858,-674.485 554.155,-664.756"/>
<polygon fill="red" stroke="red" points="555.518,-667.987 563.788,-661.365 553.193,-661.384 555.518,-667.987"/>
</g>
<!-- 13 -->
<g id="node20" class="node"><title>13</title>
<ellipse fill="none" stroke="black" cx="475" cy="-654.541" rx="18.2703" ry="18.2703"/>
<text text-anchor="middle" x="475" y="-652.341" font-family="Times New Roman,serif" font-size="9.00">13</text>
</g>
<!-- 17&#45;&gt;13 -->
<g id="edge31" class="edge"><title>17&#45;&gt;13</title>
<path fill="none" stroke="red" d="M430.866,-712.329C438.55,-702.442 449.009,-688.985 457.816,-677.652"/>
<polygon fill="red" stroke="red" points="460.783,-679.538 464.156,-669.494 455.256,-675.242 460.783,-679.538"/>
</g>
<!-- 47 -->
<g id="node22" class="node"><title>47</title>
<ellipse fill="none" stroke="black" cx="419" cy="-654.541" rx="18.2703" ry="18.2703"/>
<text text-anchor="middle" x="419" y="-652.341" font-family="Times New Roman,serif" font-size="9.00">47</text>
</g>
<!-- 17&#45;&gt;47 -->
<g id="edge71" class="edge"><title>17&#45;&gt;47</title>
<path fill="none" stroke="green" d="M419.753,-708.817C419.644,-701.135 419.514,-691.926 419.393,-683.341"/>
<polygon fill="green" stroke="green" points="422.892,-683.275 419.251,-673.325 415.893,-683.374 422.892,-683.275"/>
</g>
<!-- 71 -->
<g id="node12" class="node"><title>71</title>
<ellipse fill="none" stroke="black" cx="833" cy="-436.233" rx="18.2703" ry="18.2703"/>
<text text-anchor="middle" x="833" y="-434.033" font-family="Times New Roman,serif" font-size="9.00">71</text>
</g>
<!-- 73&#45;&gt;71 -->
<g id="edge63" class="edge"><title>73&#45;&gt;71</title>
<path fill="none" stroke="green" d="M833,-490.508C833,-482.826 833,-473.617 833,-465.033"/>
<polygon fill="green" stroke="green" points="836.5,-465.016 833,-455.016 829.5,-465.016 836.5,-465.016"/>
</g>
<!-- 15&#45;&gt;6 -->
<g id="edge51" class="edge"><title>15&#45;&gt;6</title>
<path fill="none" stroke="green" d="M596.787,-644.969C622.833,-630.77 672.229,-603.588 675,-600.156 743.975,-514.732 749,-474.257 749,-364.463 749,-364.463 749,-364.463 749,-144.154 749,-98.9676 736.965,-82.6235 702,-54 663.188,-22.2272 602.423,-13.3944 570.76,-10.9413"/>
<polygon fill="green" stroke="green" points="570.706,-7.43103 560.506,-10.2955 570.266,-14.4172 570.706,-7.43103"/>
</g>
<!-- 19 -->
<g id="node15" class="node"><title>19</title>
<ellipse fill="none" stroke="black" cx="535" cy="-581.772" rx="18.2703" ry="18.2703"/>
<text text-anchor="middle" x="535" y="-579.572" font-family="Times New Roman,serif" font-size="9.00">19</text>
</g>
<!-- 15&#45;&gt;19 -->
<g id="edge29" class="edge"><title>15&#45;&gt;19</title>
<path fill="none" stroke="red" d="M571.245,-638.533C565.146,-629.15 557.162,-616.868 550.241,-606.219"/>
<polygon fill="red" stroke="red" points="553.126,-604.235 544.741,-597.758 547.257,-608.05 553.126,-604.235"/>
</g>
<!-- 15&#45;&gt;12 -->
<g id="edge32" class="edge"><title>15&#45;&gt;12</title>
<path fill="none" stroke="green" d="M578.722,-636.231C575.984,-617.808 570.645,-587.985 562,-563.387 558.56,-553.601 553.695,-543.325 549.04,-534.431"/>
<polygon fill="green" stroke="green" points="551.993,-532.533 544.149,-525.411 545.839,-535.87 551.993,-532.533"/>
</g>
<!-- 64 -->
<g id="node23" class="node"><title>64</title>
<ellipse fill="none" stroke="black" cx="627" cy="-581.772" rx="18.2703" ry="18.2703"/>
<text text-anchor="middle" x="627" y="-579.572" font-family="Times New Roman,serif" font-size="9.00">64</text>
</g>
<!-- 15&#45;&gt;64 -->
<g id="edge53" class="edge"><title>15&#45;&gt;64</title>
<path fill="none" stroke="red" d="M590.755,-638.533C596.854,-629.15 604.838,-616.868 611.759,-606.219"/>
<polygon fill="red" stroke="red" points="614.743,-608.05 617.259,-597.758 608.874,-604.235 614.743,-608.05"/>
</g>
<!-- 18 -->
<g id="node36" class="node"><title>18</title>
<ellipse fill="none" stroke="black" cx="627" cy="-363.463" rx="18.2703" ry="18.2703"/>
<text text-anchor="middle" x="627" y="-361.263" font-family="Times New Roman,serif" font-size="9.00">18</text>
</g>
<!-- 15&#45;&gt;18 -->
<g id="edge43" class="edge"><title>15&#45;&gt;18</title>
<path fill="none" stroke="red" d="M597.992,-646.709C615.664,-638.569 642.346,-623.118 654,-600.156 689.354,-530.502 657.506,-434.693 638.624,-389.713"/>
<polygon fill="red" stroke="red" points="641.782,-388.198 634.597,-380.413 635.358,-390.98 641.782,-388.198"/>
</g>
<!-- 32 -->
<g id="node14" class="node"><title>32</title>
<ellipse fill="none" stroke="black" cx="122" cy="-436.233" rx="18.2703" ry="18.2703"/>
<text text-anchor="middle" x="122" y="-434.033" font-family="Times New Roman,serif" font-size="9.00">32</text>
</g>
<!-- 27&#45;&gt;32 -->
<g id="edge22" class="edge"><title>27&#45;&gt;32</title>
<path fill="none" stroke="green" d="M154.887,-492.646C149.438,-483.465 142.397,-471.602 136.229,-461.209"/>
<polygon fill="green" stroke="green" points="139.209,-459.372 131.096,-452.559 133.189,-462.944 139.209,-459.372"/>
</g>
<!-- 72 -->
<g id="node24" class="node"><title>72</title>
<ellipse fill="none" stroke="black" cx="400" cy="-436.233" rx="18.2703" ry="18.2703"/>
<text text-anchor="middle" x="400" y="-434.033" font-family="Times New Roman,serif" font-size="9.00">72</text>
</g>
<!-- 27&#45;&gt;72 -->
<g id="edge61" class="edge"><title>27&#45;&gt;72</title>
<path fill="none" stroke="red" d="M181.354,-502.798C222.099,-490.58 324.126,-459.985 373.032,-445.319"/>
<polygon fill="red" stroke="red" points="374.048,-448.669 382.621,-442.444 372.037,-441.964 374.048,-448.669"/>
</g>
<!-- 58 -->
<g id="node21" class="node"><title>58</title>
<ellipse fill="none" stroke="black" cx="833" cy="-363.463" rx="18.2703" ry="18.2703"/>
<text text-anchor="middle" x="833" y="-361.263" font-family="Times New Roman,serif" font-size="9.00">58</text>
</g>
<!-- 71&#45;&gt;58 -->
<g id="edge57" class="edge"><title>71&#45;&gt;58</title>
<path fill="none" stroke="green" d="M833,-417.739C833,-410.057 833,-400.847 833,-392.263"/>
<polygon fill="green" stroke="green" points="836.5,-392.247 833,-382.247 829.5,-392.247 836.5,-392.247"/>
</g>
<!-- 48&#45;&gt;13 -->
<g id="edge68" class="edge"><title>48&#45;&gt;13</title>
<path fill="none" stroke="red" d="M475,-708.817C475,-701.135 475,-691.926 475,-683.341"/>
<polygon fill="red" stroke="red" points="478.5,-683.325 475,-673.325 471.5,-683.325 478.5,-683.325"/>
</g>
<!-- 23 -->
<g id="node18" class="node"><title>23</title>
<ellipse fill="none" stroke="black" cx="122" cy="-363.463" rx="18.2703" ry="18.2703"/>
<text text-anchor="middle" x="122" y="-361.263" font-family="Times New Roman,serif" font-size="9.00">23</text>
</g>
<!-- 32&#45;&gt;23 -->
<g id="edge23" class="edge"><title>32&#45;&gt;23</title>
<path fill="none" stroke="green" d="M122,-417.739C122,-410.057 122,-400.847 122,-392.263"/>
<polygon fill="green" stroke="green" points="125.5,-392.247 122,-382.247 118.5,-392.247 125.5,-392.247"/>
</g>
<!-- 24 -->
<g id="node33" class="node"><title>24</title>
<ellipse fill="none" stroke="black" cx="232" cy="-363.463" rx="18.2703" ry="18.2703"/>
<text text-anchor="middle" x="232" y="-361.263" font-family="Times New Roman,serif" font-size="9.00">24</text>
</g>
<!-- 32&#45;&gt;24 -->
<g id="edge46" class="edge"><title>32&#45;&gt;24</title>
<path fill="none" stroke="green" d="M137.295,-425.392C155.684,-413.562 186.752,-393.574 208.265,-379.733"/>
<polygon fill="green" stroke="green" points="210.319,-382.574 216.835,-374.22 206.531,-376.687 210.319,-382.574"/>
</g>
<!-- 19&#45;&gt;12 -->
<g id="edge30" class="edge"><title>19&#45;&gt;12</title>
<path fill="none" stroke="red" d="M535,-563.278C535,-555.596 535,-546.387 535,-537.802"/>
<polygon fill="red" stroke="red" points="538.5,-537.786 535,-527.786 531.5,-537.786 538.5,-537.786"/>
</g>
<!-- 56 -->
<g id="node25" class="node"><title>56</title>
<ellipse fill="none" stroke="black" cx="177" cy="-363.463" rx="18.2703" ry="18.2703"/>
<text text-anchor="middle" x="177" y="-361.263" font-family="Times New Roman,serif" font-size="9.00">56</text>
</g>
<!-- 14&#45;&gt;56 -->
<g id="edge64" class="edge"><title>14&#45;&gt;56</title>
<path fill="none" stroke="red" d="M177,-417.739C177,-410.057 177,-400.847 177,-392.263"/>
<polygon fill="red" stroke="red" points="180.5,-392.247 177,-382.247 173.5,-392.247 180.5,-392.247"/>
</g>
<!-- 26 -->
<g id="node34" class="node"><title>26</title>
<ellipse fill="none" stroke="black" cx="351" cy="-290.693" rx="18.2703" ry="18.2703"/>
<text text-anchor="middle" x="351" y="-288.493" font-family="Times New Roman,serif" font-size="9.00">26</text>
</g>
<!-- 14&#45;&gt;26 -->
<g id="edge20" class="edge"><title>14&#45;&gt;26</title>
<path fill="none" stroke="red" d="M192.257,-425.807C212.563,-413.175 247.274,-391.256 259,-381.848 286.014,-360.173 314.014,-331.727 331.92,-312.636"/>
<polygon fill="red" stroke="red" points="334.703,-314.783 338.944,-305.074 329.574,-310.019 334.703,-314.783"/>
</g>
<!-- 21&#45;&gt;6 -->
<g id="edge5" class="edge"><title>21&#45;&gt;6</title>
<path fill="none" stroke="green" d="M271.619,-490.341C273.957,-463.273 278,-409.888 278,-364.463 278,-364.463 278,-364.463 278,-144.154 278,-32.1458 465.818,-13.6537 529.312,-10.6024"/>
<polygon fill="green" stroke="green" points="529.485,-14.0984 539.337,-10.2029 529.206,-7.10399 529.485,-14.0984"/>
</g>
<!-- 11 -->
<g id="node28" class="node"><title>11</title>
<ellipse fill="none" stroke="black" cx="232" cy="-436.233" rx="18.2703" ry="18.2703"/>
<text text-anchor="middle" x="232" y="-434.033" font-family="Times New Roman,serif" font-size="9.00">11</text>
</g>
<!-- 21&#45;&gt;11 -->
<g id="edge4" class="edge"><title>21&#45;&gt;11</title>
<path fill="none" stroke="red" d="M261.567,-492.296C256.745,-483.317 250.593,-471.859 245.15,-461.723"/>
<polygon fill="red" stroke="red" points="248.224,-460.049 240.41,-452.895 242.057,-463.361 248.224,-460.049"/>
</g>
<!-- 7 -->
<g id="node29" class="node"><title>7</title>
<ellipse fill="none" stroke="black" cx="527" cy="-436.233" rx="14.7" ry="14.7"/>
<text text-anchor="middle" x="527" y="-434.033" font-family="Times New Roman,serif" font-size="9.00">7</text>
</g>
<!-- 21&#45;&gt;7 -->
<g id="edge50" class="edge"><title>21&#45;&gt;7</title>
<path fill="none" stroke="green" d="M287.665,-503.138C332.661,-490.747 451.652,-457.981 502.929,-443.861"/>
<polygon fill="green" stroke="green" points="504.08,-447.174 512.792,-441.145 502.222,-440.425 504.08,-447.174"/>
</g>
<!-- 23&#45;&gt;10 -->
<g id="edge6" class="edge"><title>23&#45;&gt;10</title>
<path fill="none" stroke="green" d="M126.74,-345.692C129.023,-337.614 131.817,-327.727 134.387,-318.631"/>
<polygon fill="green" stroke="green" points="137.804,-319.411 137.155,-308.836 131.068,-317.507 137.804,-319.411"/>
</g>
<!-- 12&#45;&gt;72 -->
<g id="edge59" class="edge"><title>12&#45;&gt;72</title>
<path fill="none" stroke="green" d="M518.984,-499.606C495.742,-487.422 452.451,-464.728 424.99,-450.333"/>
<polygon fill="green" stroke="green" points="426.477,-447.161 415.996,-445.618 423.227,-453.361 426.477,-447.161"/>
</g>
<!-- 12&#45;&gt;7 -->
<g id="edge13" class="edge"><title>12&#45;&gt;7</title>
<path fill="none" stroke="red" d="M533.022,-490.508C532.027,-481.706 530.806,-470.898 529.723,-461.323"/>
<polygon fill="red" stroke="red" points="533.181,-460.753 528.58,-451.209 526.225,-461.539 533.181,-460.753"/>
</g>
<!-- 12&#45;&gt;18 -->
<g id="edge40" class="edge"><title>12&#45;&gt;18</title>
<path fill="none" stroke="green" d="M544.499,-493.182C560.476,-468.255 592.847,-417.748 611.946,-387.95"/>
<polygon fill="green" stroke="green" points="614.965,-389.726 617.415,-379.418 609.072,-385.948 614.965,-389.726"/>
</g>
<!-- 13&#45;&gt;7 -->
<g id="edge28" class="edge"><title>13&#45;&gt;7</title>
<path fill="none" stroke="red" d="M477.675,-636.228C482.49,-606.256 493.482,-542.895 508,-490.617 510.861,-480.315 514.718,-469.138 518.208,-459.686"/>
<polygon fill="red" stroke="red" points="521.521,-460.821 521.789,-450.229 514.975,-458.342 521.521,-460.821"/>
</g>
<!-- 67 -->
<g id="node42" class="node"><title>67</title>
<ellipse fill="none" stroke="black" cx="481" cy="-145.154" rx="18.2703" ry="18.2703"/>
<text text-anchor="middle" x="481" y="-142.954" font-family="Times New Roman,serif" font-size="9.00">67</text>
</g>
<!-- 13&#45;&gt;67 -->
<g id="edge66" class="edge"><title>13&#45;&gt;67</title>
<path fill="none" stroke="green" d="M475.929,-635.949C478.229,-590.847 484,-467.397 484,-364.463 484,-364.463 484,-364.463 484,-289.693 484,-249.468 482.808,-202.916 481.926,-173.999"/>
<polygon fill="green" stroke="green" points="485.419,-173.715 481.607,-163.83 478.423,-173.935 485.419,-173.715"/>
</g>
<!-- 58&#45;&gt;8 -->
<g id="edge48" class="edge"><title>58&#45;&gt;8</title>
<path fill="none" stroke="red" d="M828.401,-345.332C825.981,-336.319 822.977,-325.131 820.34,-315.309"/>
<polygon fill="red" stroke="red" points="823.641,-314.105 817.668,-305.354 816.88,-315.92 823.641,-314.105"/>
</g>
<!-- 47&#45;&gt;9 -->
<g id="edge72" class="edge"><title>47&#45;&gt;9</title>
<path fill="none" stroke="red" d="M421.132,-636.059C426.673,-588.622 440.211,-458.327 427,-417.848 422.648,-404.514 413.564,-391.745 405.258,-382.04"/>
<polygon fill="red" stroke="red" points="407.607,-379.42 398.296,-374.364 402.421,-384.123 407.607,-379.42"/>
</g>
<!-- 55 -->
<g id="node32" class="node"><title>55</title>
<ellipse fill="none" stroke="black" cx="573" cy="-72.3848" rx="18.2703" ry="18.2703"/>
<text text-anchor="middle" x="573" y="-70.1848" font-family="Times New Roman,serif" font-size="9.00">55</text>
</g>
<!-- 64&#45;&gt;55 -->
<g id="edge54" class="edge"><title>64&#45;&gt;55</title>
<path fill="none" stroke="green" d="M622.336,-563.654C610.642,-519.172 581,-396.126 581,-291.693 581,-291.693 581,-291.693 581,-216.924 581,-176.645 577.821,-130.106 575.471,-101.208"/>
<polygon fill="green" stroke="green" points="578.942,-100.718 574.619,-91.0454 571.966,-101.303 578.942,-100.718"/>
</g>
<!-- 72&#45;&gt;9 -->
<g id="edge60" class="edge"><title>72&#45;&gt;9</title>
<path fill="none" stroke="green" d="M397.034,-417.739C395.541,-408.936 393.708,-398.129 392.085,-388.554"/>
<polygon fill="green" stroke="green" points="395.493,-387.714 390.37,-378.439 388.591,-388.884 395.493,-387.714"/>
</g>
<!-- 56&#45;&gt;10 -->
<g id="edge65" class="edge"><title>56&#45;&gt;10</title>
<path fill="none" stroke="red" d="M169.232,-346.757C164.898,-337.993 159.396,-326.867 154.473,-316.914"/>
<polygon fill="red" stroke="red" points="157.559,-315.258 149.989,-307.846 151.284,-318.362 157.559,-315.258"/>
</g>
<!-- 53 -->
<g id="node39" class="node"><title>53</title>
<ellipse fill="none" stroke="black" cx="684" cy="-145.154" rx="18.2703" ry="18.2703"/>
<text text-anchor="middle" x="684" y="-142.954" font-family="Times New Roman,serif" font-size="9.00">53</text>
</g>
<!-- 77&#45;&gt;53 -->
<g id="edge74" class="edge"><title>77&#45;&gt;53</title>
<path fill="none" stroke="red" d="M549.078,-717.843C580.034,-700.536 647.297,-657.821 675,-600.156 720.888,-504.64 711,-470.431 711,-364.463 711,-364.463 711,-364.463 711,-289.693 711,-248.365 700.056,-201.48 692.103,-172.865"/>
<polygon fill="red" stroke="red" points="695.452,-171.844 689.334,-163.193 688.722,-173.77 695.452,-171.844"/>
</g>
<!-- 10&#45;&gt;6 -->
<g id="edge1" class="edge"><title>10&#45;&gt;6</title>
<path fill="none" stroke="red" d="M142.115,-272.059C143.444,-227.563 153.593,-110.282 222,-54 269.191,-15.1732 464.44,-10.4917 529.098,-10.0184"/>
<polygon fill="red" stroke="red" points="529.288,-13.5177 539.272,-9.9722 529.256,-6.51777 529.288,-13.5177"/>
</g>
<!-- 11&#45;&gt;24 -->
<g id="edge8" class="edge"><title>11&#45;&gt;24</title>
<path fill="none" stroke="red" d="M232,-417.739C232,-410.057 232,-400.847 232,-392.263"/>
<polygon fill="red" stroke="red" points="235.5,-392.247 232,-382.247 228.5,-392.247 235.5,-392.247"/>
</g>
<!-- 7&#45;&gt;6 -->
<g id="edge12" class="edge"><title>7&#45;&gt;6</title>
<path fill="none" stroke="red" d="M527,-421.376C527,-395.766 527,-339.291 527,-291.693 527,-291.693 527,-291.693 527,-144.154 527,-101.956 538.191,-53.3519 544.961,-27.8116"/>
<polygon fill="red" stroke="red" points="548.359,-28.6532 547.625,-18.0838 541.608,-26.8041 548.359,-28.6532"/>
</g>
<!-- 7&#45;&gt;18 -->
<g id="edge39" class="edge"><title>7&#45;&gt;18</title>
<path fill="none" stroke="green" d="M538.864,-426.836C554.818,-415.546 583.525,-395.23 603.836,-380.856"/>
<polygon fill="green" stroke="green" points="606.092,-383.547 612.233,-374.914 602.048,-377.833 606.092,-383.547"/>
</g>
<!-- 9&#45;&gt;6 -->
<g id="edge19" class="edge"><title>9&#45;&gt;6</title>
<path fill="none" stroke="green" d="M394.935,-350.235C408.009,-325.996 435,-269.794 435,-218.924 435,-218.924 435,-218.924 435,-144.154 435,-86.0792 497.889,-40.5334 530.654,-20.7451"/>
<polygon fill="green" stroke="green" points="532.513,-23.7128 539.387,-15.6507 528.986,-17.6664 532.513,-23.7128"/>
</g>
<!-- 9&#45;&gt;26 -->
<g id="edge42" class="edge"><title>9&#45;&gt;26</title>
<path fill="none" stroke="red" d="M381.385,-349.811C376.513,-340.493 369.735,-327.527 363.816,-316.206"/>
<polygon fill="red" stroke="red" points="366.842,-314.44 359.107,-307.2 360.639,-317.683 366.842,-314.44"/>
</g>
<!-- 8&#45;&gt;6 -->
<g id="edge33" class="edge"><title>8&#45;&gt;6</title>
<path fill="none" stroke="green" d="M817.833,-276.316C828.623,-235.485 854.39,-111.742 789,-54 756.517,-25.316 622.268,-14.3342 570.494,-11.1147"/>
<polygon fill="green" stroke="green" points="570.69,-7.62032 560.502,-10.5275 570.279,-14.6083 570.69,-7.62032"/>
</g>
<!-- 39 -->
<g id="node35" class="node"><title>39</title>
<ellipse fill="none" stroke="black" cx="795" cy="-217.924" rx="18.2703" ry="18.2703"/>
<text text-anchor="middle" x="795" y="-215.724" font-family="Times New Roman,serif" font-size="9.00">39</text>
</g>
<!-- 8&#45;&gt;39 -->
<g id="edge26" class="edge"><title>8&#45;&gt;39</title>
<path fill="none" stroke="red" d="M810.337,-276.048C808.024,-267.433 804.957,-256.01 802.174,-245.644"/>
<polygon fill="red" stroke="red" points="805.497,-244.524 799.524,-235.774 798.737,-246.339 805.497,-244.524"/>
</g>
<!-- 55&#45;&gt;6 -->
<g id="edge49" class="edge"><title>55&#45;&gt;6</title>
<path fill="none" stroke="green" d="M566.836,-54.9348C563.658,-46.4515 559.78,-36.103 556.548,-27.4763"/>
<polygon fill="green" stroke="green" points="559.802,-26.1848 553.016,-18.0486 553.247,-28.641 559.802,-26.1848"/>
</g>
<!-- 24&#45;&gt;6 -->
<g id="edge9" class="edge"><title>24&#45;&gt;6</title>
<path fill="none" stroke="red" d="M232.809,-344.789C233.978,-317.704 236,-264.296 236,-218.924 236,-218.924 236,-218.924 236,-144.154 236,-102.198 232.213,-81.3855 264,-54 303.874,-19.6472 470.07,-12.0525 529.092,-10.4273"/>
<polygon fill="red" stroke="red" points="529.487,-13.9188 539.398,-10.1757 529.316,-6.92087 529.487,-13.9188"/>
</g>
<!-- 26&#45;&gt;6 -->
<g id="edge17" class="edge"><title>26&#45;&gt;6</title>
<path fill="none" stroke="green" d="M350.656,-272.195C350.806,-228.526 357.558,-113.959 421,-54 451.381,-25.2868 501.262,-15.2491 529.263,-11.7853"/>
<polygon fill="green" stroke="green" points="529.909,-15.2363 539.482,-10.6963 529.167,-8.27576 529.909,-15.2363"/>
</g>
<!-- 42 -->
<g id="node40" class="node"><title>42</title>
<ellipse fill="none" stroke="black" cx="389" cy="-217.924" rx="18.2703" ry="18.2703"/>
<text text-anchor="middle" x="389" y="-215.724" font-family="Times New Roman,serif" font-size="9.00">42</text>
</g>
<!-- 26&#45;&gt;42 -->
<g id="edge34" class="edge"><title>26&#45;&gt;42</title>
<path fill="none" stroke="green" d="M359.433,-273.987C364.255,-265.008 370.407,-253.55 375.85,-243.414"/>
<polygon fill="green" stroke="green" points="378.943,-245.052 380.59,-234.586 372.776,-241.741 378.943,-245.052"/>
</g>
<!-- 39&#45;&gt;6 -->
<g id="edge27" class="edge"><title>39&#45;&gt;6</title>
<path fill="none" stroke="green" d="M797.227,-199.619C800.446,-166.434 802.248,-93.6331 763,-54 736.127,-26.8634 618.732,-15.1396 570.649,-11.4144"/>
<polygon fill="green" stroke="green" points="570.734,-7.91127 560.504,-10.6689 570.22,-14.8924 570.734,-7.91127"/>
</g>
<!-- 39&#45;&gt;53 -->
<g id="edge56" class="edge"><title>39&#45;&gt;53</title>
<path fill="none" stroke="green" d="M779.566,-207.084C761.01,-195.253 729.659,-175.265 707.951,-161.424"/>
<polygon fill="green" stroke="green" points="709.617,-158.336 699.303,-155.911 705.853,-164.238 709.617,-158.336"/>
</g>
<!-- 18&#45;&gt;6 -->
<g id="edge58" class="edge"><title>18&#45;&gt;6</title>
<path fill="none" stroke="red" d="M625.381,-344.802C623.043,-317.734 619,-264.349 619,-218.924 619,-218.924 619,-218.924 619,-144.154 619,-103.206 620.645,-89.3634 600,-54 592.439,-41.0495 579.707,-29.9283 568.984,-22.1065"/>
<polygon fill="red" stroke="red" points="570.829,-19.1276 560.606,-16.3445 566.862,-24.8952 570.829,-19.1276"/>
</g>
<!-- 57 -->
<g id="node37" class="node"><title>57</title>
<ellipse fill="none" stroke="black" cx="665" cy="-290.693" rx="18.2703" ry="18.2703"/>
<text text-anchor="middle" x="665" y="-288.493" font-family="Times New Roman,serif" font-size="9.00">57</text>
</g>
<!-- 18&#45;&gt;57 -->
<g id="edge47" class="edge"><title>18&#45;&gt;57</title>
<path fill="none" stroke="green" d="M635.433,-346.757C640.255,-337.778 646.407,-326.32 651.85,-316.184"/>
<polygon fill="green" stroke="green" points="654.943,-317.822 656.59,-307.356 648.776,-314.51 654.943,-317.822"/>
</g>
<!-- 75 -->
<g id="node38" class="node"><title>75</title>
<ellipse fill="none" stroke="black" cx="665" cy="-217.924" rx="18.2703" ry="18.2703"/>
<text text-anchor="middle" x="665" y="-215.724" font-family="Times New Roman,serif" font-size="9.00">75</text>
</g>
<!-- 57&#45;&gt;75 -->
<g id="edge69" class="edge"><title>57&#45;&gt;75</title>
<path fill="none" stroke="red" d="M665,-272.2C665,-264.518 665,-255.308 665,-246.724"/>
<polygon fill="red" stroke="red" points="668.5,-246.708 665,-236.708 661.5,-246.708 668.5,-246.708"/>
</g>
<!-- 75&#45;&gt;53 -->
<g id="edge70" class="edge"><title>75&#45;&gt;53</title>
<path fill="none" stroke="green" d="M669.599,-199.793C671.77,-191.708 674.41,-181.874 676.834,-172.844"/>
<polygon fill="green" stroke="green" points="680.23,-173.693 679.443,-163.128 673.47,-171.878 680.23,-173.693"/>
</g>
<!-- 38 -->
<g id="node41" class="node"><title>38</title>
<ellipse fill="none" stroke="black" cx="675" cy="-72.3848" rx="18.2703" ry="18.2703"/>
<text text-anchor="middle" x="675" y="-70.1848" font-family="Times New Roman,serif" font-size="9.00">38</text>
</g>
<!-- 53&#45;&gt;38 -->
<g id="edge45" class="edge"><title>53&#45;&gt;38</title>
<path fill="none" stroke="green" d="M681.775,-126.661C680.783,-118.862 679.592,-109.49 678.486,-100.795"/>
<polygon fill="green" stroke="green" points="681.933,-100.156 677.199,-90.6771 674.989,-101.039 681.933,-100.156"/>
</g>
<!-- 42&#45;&gt;67 -->
<g id="edge55" class="edge"><title>42&#45;&gt;67</title>
<path fill="none" stroke="red" d="M403.375,-205.866C418.093,-194.544 441.183,-176.783 458.359,-163.571"/>
<polygon fill="red" stroke="red" points="460.934,-166.006 466.726,-157.134 456.666,-160.457 460.934,-166.006"/>
</g>
<!-- 38&#45;&gt;6 -->
<g id="edge41" class="edge"><title>38&#45;&gt;6</title>
<path fill="none" stroke="red" d="M658.658,-63.3598C635.858,-52.1631 594.541,-31.8733 569.952,-19.7981"/>
<polygon fill="red" stroke="red" points="571.352,-16.5865 560.833,-15.3201 568.267,-22.8697 571.352,-16.5865"/>
</g>
</g>
</svg>
