<?xml version="1.0" encoding="UTF-8" standalone="no"?>
<!DOCTYPE svg PUBLIC "-//W3C//DTD SVG 1.1//EN"
 "http://www.w3.org/Graphics/SVG/1.1/DTD/svg11.dtd">
<!-- Generated by graphviz version 2.38.0 (20140413.2041)
 -->
<!-- Title: %3 Pages: 1 -->
<svg width="609pt" height="735pt"
 viewBox="0.00 0.00 609.00 734.93" xmlns="http://www.w3.org/2000/svg" xmlns:xlink="http://www.w3.org/1999/xlink">
<g id="graph0" class="graph" transform="scale(1 1) rotate(0) translate(4 730.926)">
<title>%3</title>
<polygon fill="white" stroke="none" points="-4,4 -4,-730.926 605,-730.926 605,4 -4,4"/>
<!-- 1 -->
<g id="node1" class="node"><title>1</title>
<polygon fill="lightgray" stroke="black" points="79.5,-663.541 58.5,-663.541 58.5,-645.541 79.5,-645.541 79.5,-663.541"/>
<text text-anchor="middle" x="69" y="-652.341" font-family="Times New Roman,serif" font-size="9.00">1</text>
</g>
<!-- 6 -->
<g id="node6" class="node"><title>6</title>
<polygon fill="lightblue" stroke="black" points="313.5,-18 292.5,-18 292.5,-0 313.5,-0 313.5,-18"/>
<text text-anchor="middle" x="303" y="-6.8" font-family="Times New Roman,serif" font-size="9.00">6</text>
</g>
<!-- 1&#45;&gt;6 -->
<g id="edge11" class="edge"><title>1&#45;&gt;6</title>
<path fill="none" stroke="red" d="M58.4163,-645.318C46.8703,-635.748 28.7376,-618.852 19,-600.156 0.0838094,-563.839 0,-550.951 0,-510.002 0,-510.002 0,-510.002 0,-144.154 0,-99.7615 7.57099,-80.7491 43,-54 80.7772,-25.478 227.174,-14.3247 282.06,-11.0907"/>
<polygon fill="red" stroke="red" points="282.522,-14.5704 292.311,-10.5174 282.131,-7.58134 282.522,-14.5704"/>
</g>
<!-- 17 -->
<g id="node8" class="node"><title>17</title>
<ellipse fill="none" stroke="black" cx="371" cy="-581.772" rx="18.2703" ry="18.2703"/>
<text text-anchor="middle" x="371" y="-579.572" font-family="Times New Roman,serif" font-size="9.00">17</text>
</g>
<!-- 1&#45;&gt;17 -->
<g id="edge44" class="edge"><title>1&#45;&gt;17</title>
<path fill="none" stroke="red" d="M79.7483,-651.022C122.249,-641.063 279.371,-604.244 343.486,-589.219"/>
<polygon fill="red" stroke="red" points="344.356,-592.61 353.293,-586.921 342.758,-585.795 344.356,-592.61"/>
</g>
<!-- 27 -->
<g id="node10" class="node"><title>27</title>
<ellipse fill="none" stroke="black" cx="46" cy="-581.772" rx="18.2703" ry="18.2703"/>
<text text-anchor="middle" x="46" y="-579.572" font-family="Times New Roman,serif" font-size="9.00">27</text>
</g>
<!-- 1&#45;&gt;27 -->
<g id="edge23" class="edge"><title>1&#45;&gt;27</title>
<path fill="none" stroke="green" d="M66.3616,-645.423C63.494,-636.599 58.761,-622.036 54.5796,-609.171"/>
<polygon fill="green" stroke="green" points="57.8102,-607.787 51.3907,-599.358 51.153,-609.951 57.8102,-607.787"/>
</g>
<!-- 10 -->
<g id="node18" class="node"><title>10</title>
<ellipse fill="none" stroke="black" cx="69" cy="-290.693" rx="18.2703" ry="18.2703"/>
<text text-anchor="middle" x="69" y="-288.493" font-family="Times New Roman,serif" font-size="9.00">10</text>
</g>
<!-- 1&#45;&gt;10 -->
<g id="edge8" class="edge"><title>1&#45;&gt;10</title>
<path fill="none" stroke="red" d="M71.2053,-645.52C76.9621,-623.85 92,-562.244 92,-510.002 92,-510.002 92,-510.002 92,-435.233 92,-394.279 82.7589,-347.572 75.992,-318.859"/>
<polygon fill="red" stroke="red" points="79.3065,-317.676 73.5441,-308.786 72.5044,-319.329 79.3065,-317.676"/>
</g>
<!-- 2 -->
<g id="node2" class="node"><title>2</title>
<polygon fill="lightgray" stroke="black" points="253.5,-445.233 232.5,-445.233 232.5,-427.233 253.5,-427.233 253.5,-445.233"/>
<text text-anchor="middle" x="243" y="-434.033" font-family="Times New Roman,serif" font-size="9.00">2</text>
</g>
<!-- 2&#45;&gt;6 -->
<g id="edge12" class="edge"><title>2&#45;&gt;6</title>
<path fill="none" stroke="green" d="M236.021,-427.172C199.268,-383.739 33.5908,-175.078 134,-54 152.881,-31.2329 241.15,-17.6112 282.071,-12.4194"/>
<polygon fill="green" stroke="green" points="282.539,-15.8883 292.042,-11.2035 281.692,-8.93978 282.539,-15.8883"/>
</g>
<!-- 14 -->
<g id="node13" class="node"><title>14</title>
<ellipse fill="none" stroke="black" cx="138" cy="-363.463" rx="18.2703" ry="18.2703"/>
<text text-anchor="middle" x="138" y="-361.263" font-family="Times New Roman,serif" font-size="9.00">14</text>
</g>
<!-- 2&#45;&gt;14 -->
<g id="edge2" class="edge"><title>2&#45;&gt;14</title>
<path fill="none" stroke="red" d="M232.159,-427.926C215.58,-416.751 183.533,-395.152 161.467,-380.279"/>
<polygon fill="red" stroke="red" points="163.23,-377.247 152.981,-374.56 159.317,-383.052 163.23,-377.247"/>
</g>
<!-- 21 -->
<g id="node14" class="node"><title>21</title>
<ellipse fill="none" stroke="black" cx="257" cy="-217.924" rx="18.2703" ry="18.2703"/>
<text text-anchor="middle" x="257" y="-215.724" font-family="Times New Roman,serif" font-size="9.00">21</text>
</g>
<!-- 2&#45;&gt;21 -->
<g id="edge4" class="edge"><title>2&#45;&gt;21</title>
<path fill="none" stroke="red" d="M243.532,-427.017C245.444,-397.468 252.029,-295.731 255.228,-246.305"/>
<polygon fill="red" stroke="red" points="258.721,-246.525 255.874,-236.319 251.735,-246.072 258.721,-246.525"/>
</g>
<!-- 12 -->
<g id="node16" class="node"><title>12</title>
<ellipse fill="none" stroke="black" cx="442" cy="-363.463" rx="18.2703" ry="18.2703"/>
<text text-anchor="middle" x="442" y="-361.263" font-family="Times New Roman,serif" font-size="9.00">12</text>
</g>
<!-- 2&#45;&gt;12 -->
<g id="edge18" class="edge"><title>2&#45;&gt;12</title>
<path fill="none" stroke="red" d="M253.699,-431.428C283.958,-420.667 370.822,-389.776 415.202,-373.993"/>
<polygon fill="red" stroke="red" points="416.504,-377.245 424.753,-370.596 414.158,-370.649 416.504,-377.245"/>
</g>
<!-- 9 -->
<g id="node21" class="node"><title>9</title>
<ellipse fill="none" stroke="black" cx="349" cy="-290.693" rx="14.7" ry="14.7"/>
<text text-anchor="middle" x="349" y="-288.493" font-family="Times New Roman,serif" font-size="9.00">9</text>
</g>
<!-- 2&#45;&gt;9 -->
<g id="edge51" class="edge"><title>2&#45;&gt;9</title>
<path fill="none" stroke="red" d="M248.245,-427.108C258.651,-411.107 282.819,-374.507 305,-345.078 313.923,-333.239 324.471,-320.405 333.002,-310.289"/>
<polygon fill="red" stroke="red" points="335.804,-312.397 339.614,-302.511 330.471,-307.863 335.804,-312.397"/>
</g>
<!-- 3 -->
<g id="node3" class="node"><title>3</title>
<polygon fill="lightgray" stroke="black" points="427.5,-726.926 406.5,-726.926 406.5,-708.926 427.5,-708.926 427.5,-726.926"/>
<text text-anchor="middle" x="417" y="-715.726" font-family="Times New Roman,serif" font-size="9.00">3</text>
</g>
<!-- 3&#45;&gt;6 -->
<g id="edge43" class="edge"><title>3&#45;&gt;6</title>
<path fill="none" stroke="green" d="M427.688,-711.914C466.958,-693.155 601,-625.962 601,-582.772 601,-582.772 601,-582.772 601,-144.154 601,-101.486 600.848,-81.2331 568,-54 530.717,-23.0894 379.506,-13.3733 323.765,-10.807"/>
<polygon fill="green" stroke="green" points="323.814,-7.30594 313.673,-10.3738 323.513,-14.2995 323.814,-7.30594"/>
</g>
<!-- 28 -->
<g id="node7" class="node"><title>28</title>
<ellipse fill="none" stroke="black" cx="417" cy="-654.541" rx="18.2703" ry="18.2703"/>
<text text-anchor="middle" x="417" y="-652.341" font-family="Times New Roman,serif" font-size="9.00">28</text>
</g>
<!-- 3&#45;&gt;28 -->
<g id="edge26" class="edge"><title>3&#45;&gt;28</title>
<path fill="none" stroke="green" d="M417,-708.901C417,-702.337 417,-692.647 417,-683.32"/>
<polygon fill="green" stroke="green" points="420.5,-683.129 417,-673.129 413.5,-683.129 420.5,-683.129"/>
</g>
<!-- 3&#45;&gt;17 -->
<g id="edge42" class="edge"><title>3&#45;&gt;17</title>
<path fill="none" stroke="green" d="M410.696,-708.624C404.527,-700.105 395.306,-686.248 390,-672.926 381.935,-652.678 377.073,-628.444 374.288,-610.203"/>
<polygon fill="green" stroke="green" points="377.744,-609.643 372.881,-600.231 370.813,-610.622 377.744,-609.643"/>
</g>
<!-- 15 -->
<g id="node9" class="node"><title>15</title>
<ellipse fill="none" stroke="black" cx="469" cy="-509.002" rx="18.2703" ry="18.2703"/>
<text text-anchor="middle" x="469" y="-506.802" font-family="Times New Roman,serif" font-size="9.00">15</text>
</g>
<!-- 3&#45;&gt;15 -->
<g id="edge15" class="edge"><title>3&#45;&gt;15</title>
<path fill="none" stroke="green" d="M423.461,-708.684C429.752,-700.211 439.065,-686.39 444,-672.926 460.634,-627.543 466.201,-571.122 468.064,-537.985"/>
<polygon fill="green" stroke="green" points="471.575,-537.847 468.564,-527.689 464.583,-537.508 471.575,-537.847"/>
</g>
<!-- 3&#45;&gt;9 -->
<g id="edge20" class="edge"><title>3&#45;&gt;9</title>
<path fill="none" stroke="green" d="M406.138,-709.585C380.622,-691.372 319,-641.323 319,-582.772 319,-582.772 319,-582.772 319,-435.233 319,-391.89 332.268,-342.712 341.157,-314.63"/>
<polygon fill="green" stroke="green" points="344.539,-315.549 344.313,-304.956 337.884,-313.378 344.539,-315.549"/>
</g>
<!-- 4 -->
<g id="node4" class="node"><title>4</title>
<polygon fill="lightgray" stroke="black" points="161.5,-226.924 140.5,-226.924 140.5,-208.924 161.5,-208.924 161.5,-226.924"/>
<text text-anchor="middle" x="151" y="-215.724" font-family="Times New Roman,serif" font-size="9.00">4</text>
</g>
<!-- 4&#45;&gt;6 -->
<g id="edge41" class="edge"><title>4&#45;&gt;6</title>
<path fill="none" stroke="green" d="M148.016,-208.707C138.927,-182.075 114.697,-97.3521 157,-54 190.756,-19.4064 250.626,-11.7763 282.19,-10.2452"/>
<polygon fill="green" stroke="green" points="282.555,-13.7354 292.438,-9.91836 282.332,-6.73897 282.555,-13.7354"/>
</g>
<!-- 8 -->
<g id="node22" class="node"><title>8</title>
<ellipse fill="none" stroke="black" cx="161" cy="-145.154" rx="14.7" ry="14.7"/>
<text text-anchor="middle" x="161" y="-142.954" font-family="Times New Roman,serif" font-size="9.00">8</text>
</g>
<!-- 4&#45;&gt;8 -->
<g id="edge28" class="edge"><title>4&#45;&gt;8</title>
<path fill="none" stroke="green" d="M152.147,-208.806C153.475,-199.409 155.722,-183.504 157.621,-170.07"/>
<polygon fill="green" stroke="green" points="161.11,-170.39 159.044,-159.999 154.179,-169.411 161.11,-170.39"/>
</g>
<!-- 5 -->
<g id="node5" class="node"><title>5</title>
<polygon fill="lightgray" stroke="black" points="466.5,-726.926 445.5,-726.926 445.5,-708.926 466.5,-708.926 466.5,-726.926"/>
<text text-anchor="middle" x="456" y="-715.726" font-family="Times New Roman,serif" font-size="9.00">5</text>
</g>
<!-- 28&#45;&gt;17 -->
<g id="edge27" class="edge"><title>28&#45;&gt;17</title>
<path fill="none" stroke="red" d="M407.245,-638.533C401.146,-629.15 393.162,-616.868 386.241,-606.219"/>
<polygon fill="red" stroke="red" points="389.126,-604.235 380.741,-597.758 383.257,-608.05 389.126,-604.235"/>
</g>
<!-- 13 -->
<g id="node17" class="node"><title>13</title>
<ellipse fill="none" stroke="black" cx="403" cy="-509.002" rx="18.2703" ry="18.2703"/>
<text text-anchor="middle" x="403" y="-506.802" font-family="Times New Roman,serif" font-size="9.00">13</text>
</g>
<!-- 28&#45;&gt;13 -->
<g id="edge29" class="edge"><title>28&#45;&gt;13</title>
<path fill="none" stroke="red" d="M415.311,-636.227C412.925,-611.763 408.542,-566.822 405.701,-537.692"/>
<polygon fill="red" stroke="red" points="409.149,-536.991 404.695,-527.378 402.182,-537.67 409.149,-536.991"/>
</g>
<!-- 17&#45;&gt;15 -->
<g id="edge16" class="edge"><title>17&#45;&gt;15</title>
<path fill="none" stroke="red" d="M385.46,-570.329C401.456,-558.779 427.442,-540.013 446.187,-526.476"/>
<polygon fill="red" stroke="red" points="448.422,-529.179 454.48,-520.487 444.324,-523.504 448.422,-529.179"/>
</g>
<!-- 17&#45;&gt;13 -->
<g id="edge36" class="edge"><title>17&#45;&gt;13</title>
<path fill="none" stroke="red" d="M378.261,-564.713C382.189,-556.027 387.13,-545.099 391.562,-535.298"/>
<polygon fill="red" stroke="red" points="394.836,-536.551 395.767,-525.997 388.458,-533.667 394.836,-536.551"/>
</g>
<!-- 17&#45;&gt;9 -->
<g id="edge48" class="edge"><title>17&#45;&gt;9</title>
<path fill="none" stroke="green" d="M369.657,-563.124C365.879,-513.477 355.153,-372.537 350.834,-315.797"/>
<polygon fill="green" stroke="green" points="354.309,-315.33 350.06,-305.624 347.329,-315.861 354.309,-315.33"/>
</g>
<!-- 15&#45;&gt;6 -->
<g id="edge17" class="edge"><title>15&#45;&gt;6</title>
<path fill="none" stroke="red" d="M483.475,-497.049C495.835,-487.09 513.403,-471.421 525,-454.617 549.699,-418.831 563,-407.945 563,-364.463 563,-364.463 563,-364.463 563,-144.154 563,-103.206 573.345,-82.5598 544,-54 512.693,-23.5312 376.445,-13.629 323.835,-10.9058"/>
<polygon fill="red" stroke="red" points="323.836,-7.40187 313.679,-10.417 323.499,-14.3938 323.836,-7.40187"/>
</g>
<!-- 19 -->
<g id="node12" class="node"><title>19</title>
<ellipse fill="none" stroke="black" cx="479" cy="-436.233" rx="18.2703" ry="18.2703"/>
<text text-anchor="middle" x="479" y="-434.033" font-family="Times New Roman,serif" font-size="9.00">19</text>
</g>
<!-- 15&#45;&gt;19 -->
<g id="edge34" class="edge"><title>15&#45;&gt;19</title>
<path fill="none" stroke="green" d="M471.472,-490.508C472.574,-482.71 473.898,-473.338 475.127,-464.643"/>
<polygon fill="green" stroke="green" points="478.623,-464.916 476.557,-454.525 471.692,-463.937 478.623,-464.916"/>
</g>
<!-- 15&#45;&gt;12 -->
<g id="edge37" class="edge"><title>15&#45;&gt;12</title>
<path fill="none" stroke="green" d="M462.777,-491.4C459.105,-480.977 454.669,-467.176 452,-454.617 447.588,-433.855 445.05,-409.963 443.635,-391.993"/>
<polygon fill="green" stroke="green" points="447.118,-391.632 442.91,-381.909 440.136,-392.134 447.118,-391.632"/>
</g>
<!-- 18 -->
<g id="node26" class="node"><title>18</title>
<ellipse fill="none" stroke="black" cx="517" cy="-217.924" rx="18.2703" ry="18.2703"/>
<text text-anchor="middle" x="517" y="-215.724" font-family="Times New Roman,serif" font-size="9.00">18</text>
</g>
<!-- 15&#45;&gt;18 -->
<g id="edge50" class="edge"><title>15&#45;&gt;18</title>
<path fill="none" stroke="red" d="M481.06,-495.121C489.738,-484.967 500.794,-469.999 506,-454.617 530.325,-382.746 525.208,-291.49 520.52,-246.526"/>
<polygon fill="red" stroke="red" points="523.976,-245.933 519.386,-236.384 517.019,-246.712 523.976,-245.933"/>
</g>
<!-- 32 -->
<g id="node11" class="node"><title>32</title>
<ellipse fill="none" stroke="black" cx="46" cy="-436.233" rx="18.2703" ry="18.2703"/>
<text text-anchor="middle" x="46" y="-434.033" font-family="Times New Roman,serif" font-size="9.00">32</text>
</g>
<!-- 27&#45;&gt;32 -->
<g id="edge24" class="edge"><title>27&#45;&gt;32</title>
<path fill="none" stroke="green" d="M46,-563.171C46,-538.743 46,-494.297 46,-465.272"/>
<polygon fill="green" stroke="green" points="49.5001,-464.977 46,-454.977 42.5001,-464.977 49.5001,-464.977"/>
</g>
<!-- 23 -->
<g id="node15" class="node"><title>23</title>
<ellipse fill="none" stroke="black" cx="46" cy="-363.463" rx="18.2703" ry="18.2703"/>
<text text-anchor="middle" x="46" y="-361.263" font-family="Times New Roman,serif" font-size="9.00">23</text>
</g>
<!-- 32&#45;&gt;23 -->
<g id="edge25" class="edge"><title>32&#45;&gt;23</title>
<path fill="none" stroke="green" d="M46,-417.739C46,-410.057 46,-400.847 46,-392.263"/>
<polygon fill="green" stroke="green" points="49.5001,-392.247 46,-382.247 42.5001,-392.247 49.5001,-392.247"/>
</g>
<!-- 19&#45;&gt;12 -->
<g id="edge35" class="edge"><title>19&#45;&gt;12</title>
<path fill="none" stroke="green" d="M470.789,-419.526C466.142,-410.639 460.226,-399.323 454.967,-389.264"/>
<polygon fill="green" stroke="green" points="457.923,-387.365 450.189,-380.125 451.72,-390.609 457.923,-387.365"/>
</g>
<!-- 14&#45;&gt;10 -->
<g id="edge3" class="edge"><title>14&#45;&gt;10</title>
<path fill="none" stroke="green" d="M125.664,-349.811C115.489,-339.374 100.853,-324.363 89.0043,-312.211"/>
<polygon fill="green" stroke="green" points="91.1829,-309.432 81.6958,-304.715 86.1708,-314.318 91.1829,-309.432"/>
</g>
<!-- 26 -->
<g id="node24" class="node"><title>26</title>
<ellipse fill="none" stroke="black" cx="345" cy="-217.924" rx="18.2703" ry="18.2703"/>
<text text-anchor="middle" x="345" y="-215.724" font-family="Times New Roman,serif" font-size="9.00">26</text>
</g>
<!-- 14&#45;&gt;26 -->
<g id="edge22" class="edge"><title>14&#45;&gt;26</title>
<path fill="none" stroke="red" d="M152.887,-352.14C188.544,-327.415 279.051,-264.655 321.871,-234.962"/>
<polygon fill="red" stroke="red" points="324.025,-237.728 330.248,-229.153 320.036,-231.976 324.025,-237.728"/>
</g>
<!-- 21&#45;&gt;6 -->
<g id="edge6" class="edge"><title>21&#45;&gt;6</title>
<path fill="none" stroke="red" d="M266.523,-201.638C272.521,-191.273 279.884,-177.051 284,-163.539 298.377,-116.342 301.904,-57.8241 302.75,-28.5323"/>
<polygon fill="red" stroke="red" points="306.256,-28.2671 302.968,-18.1954 299.258,-28.1193 306.256,-28.2671"/>
</g>
<!-- 11 -->
<g id="node19" class="node"><title>11</title>
<ellipse fill="none" stroke="black" cx="257" cy="-145.154" rx="18.2703" ry="18.2703"/>
<text text-anchor="middle" x="257" y="-142.954" font-family="Times New Roman,serif" font-size="9.00">11</text>
</g>
<!-- 21&#45;&gt;11 -->
<g id="edge5" class="edge"><title>21&#45;&gt;11</title>
<path fill="none" stroke="green" d="M257,-199.43C257,-191.748 257,-182.539 257,-173.955"/>
<polygon fill="green" stroke="green" points="260.5,-173.938 257,-163.938 253.5,-173.938 260.5,-173.938"/>
</g>
<!-- 23&#45;&gt;10 -->
<g id="edge7" class="edge"><title>23&#45;&gt;10</title>
<path fill="none" stroke="green" d="M51.4507,-345.692C54.1432,-337.407 57.4542,-327.219 60.472,-317.934"/>
<polygon fill="green" stroke="green" points="63.8262,-318.937 63.5884,-308.344 57.1689,-316.773 63.8262,-318.937"/>
</g>
<!-- 7 -->
<g id="node20" class="node"><title>7</title>
<ellipse fill="none" stroke="black" cx="442" cy="-290.693" rx="14.7" ry="14.7"/>
<text text-anchor="middle" x="442" y="-288.493" font-family="Times New Roman,serif" font-size="9.00">7</text>
</g>
<!-- 12&#45;&gt;7 -->
<g id="edge14" class="edge"><title>12&#45;&gt;7</title>
<path fill="none" stroke="green" d="M442,-344.969C442,-336.167 442,-325.359 442,-315.784"/>
<polygon fill="green" stroke="green" points="445.5,-315.67 442,-305.67 438.5,-315.67 445.5,-315.67"/>
</g>
<!-- 12&#45;&gt;9 -->
<g id="edge30" class="edge"><title>12&#45;&gt;9</title>
<path fill="none" stroke="red" d="M427.469,-351.405C411.721,-339.421 386.491,-320.222 368.905,-306.841"/>
<polygon fill="red" stroke="red" points="370.574,-303.713 360.497,-300.442 366.335,-309.283 370.574,-303.713"/>
</g>
<!-- 12&#45;&gt;18 -->
<g id="edge46" class="edge"><title>12&#45;&gt;18</title>
<path fill="none" stroke="red" d="M450.169,-346.829C463.187,-321.914 488.743,-273.004 504.204,-243.413"/>
<polygon fill="red" stroke="red" points="507.312,-245.023 508.841,-234.539 501.108,-241.781 507.312,-245.023"/>
</g>
<!-- 13&#45;&gt;7 -->
<g id="edge33" class="edge"><title>13&#45;&gt;7</title>
<path fill="none" stroke="green" d="M402.07,-490.498C400.949,-460.238 400.732,-396.454 415,-345.078 418.168,-333.67 423.869,-321.836 429.218,-312.217"/>
<polygon fill="green" stroke="green" points="432.326,-313.836 434.344,-303.435 426.28,-310.308 432.326,-313.836"/>
</g>
<!-- 10&#45;&gt;6 -->
<g id="edge1" class="edge"><title>10&#45;&gt;6</title>
<path fill="none" stroke="red" d="M62.4194,-273.346C46.7216,-231.389 12.236,-118.664 66,-54 93.4809,-20.9476 229.468,-12.6083 282.124,-10.6033"/>
<polygon fill="red" stroke="red" points="282.418,-14.0954 292.293,-10.257 282.18,-7.09944 282.418,-14.0954"/>
</g>
<!-- 24 -->
<g id="node23" class="node"><title>24</title>
<ellipse fill="none" stroke="black" cx="257" cy="-72.3848" rx="18.2703" ry="18.2703"/>
<text text-anchor="middle" x="257" y="-70.1848" font-family="Times New Roman,serif" font-size="9.00">24</text>
</g>
<!-- 11&#45;&gt;24 -->
<g id="edge9" class="edge"><title>11&#45;&gt;24</title>
<path fill="none" stroke="red" d="M257,-126.661C257,-118.978 257,-109.769 257,-101.185"/>
<polygon fill="red" stroke="red" points="260.5,-101.169 257,-91.1687 253.5,-101.169 260.5,-101.169"/>
</g>
<!-- 7&#45;&gt;6 -->
<g id="edge13" class="edge"><title>7&#45;&gt;6</title>
<path fill="none" stroke="green" d="M446.505,-276.455C458.834,-237.554 488.824,-122.07 436,-54 409.16,-19.4138 354.309,-11.7116 324.107,-10.1866"/>
<polygon fill="green" stroke="green" points="323.955,-6.68013 313.849,-9.86143 323.733,-13.6766 323.955,-6.68013"/>
</g>
<!-- 7&#45;&gt;18 -->
<g id="edge45" class="edge"><title>7&#45;&gt;18</title>
<path fill="none" stroke="red" d="M452.428,-279.853C463.771,-269.15 482.19,-251.77 496.459,-238.306"/>
<polygon fill="red" stroke="red" points="499.017,-240.705 503.888,-231.297 494.212,-235.614 499.017,-240.705"/>
</g>
<!-- 9&#45;&gt;6 -->
<g id="edge21" class="edge"><title>9&#45;&gt;6</title>
<path fill="none" stroke="green" d="M357.99,-278.561C385.698,-242.822 464.923,-128.963 414,-54 393.717,-24.142 349.673,-14.5453 323.575,-11.4608"/>
<polygon fill="green" stroke="green" points="323.901,-7.9761 313.611,-10.4975 323.227,-14.9436 323.901,-7.9761"/>
</g>
<!-- 9&#45;&gt;26 -->
<g id="edge49" class="edge"><title>9&#45;&gt;26</title>
<path fill="none" stroke="green" d="M348.21,-275.712C347.737,-267.341 347.119,-256.41 346.552,-246.376"/>
<polygon fill="green" stroke="green" points="350.046,-246.176 345.987,-236.389 343.057,-246.571 350.046,-246.176"/>
</g>
<!-- 8&#45;&gt;6 -->
<g id="edge38" class="edge"><title>8&#45;&gt;6</title>
<path fill="none" stroke="green" d="M159.067,-130.168C157.204,-110.761 156.904,-75.6206 175,-54 201.895,-21.8656 253.432,-13.1498 282.229,-10.819"/>
<polygon fill="green" stroke="green" points="282.62,-14.3016 292.383,-10.1885 282.186,-7.31504 282.62,-14.3016"/>
</g>
<!-- 39 -->
<g id="node25" class="node"><title>39</title>
<ellipse fill="none" stroke="black" cx="202" cy="-72.3848" rx="18.2703" ry="18.2703"/>
<text text-anchor="middle" x="202" y="-70.1848" font-family="Times New Roman,serif" font-size="9.00">39</text>
</g>
<!-- 8&#45;&gt;39 -->
<g id="edge31" class="edge"><title>8&#45;&gt;39</title>
<path fill="none" stroke="green" d="M168.142,-131.827C173.609,-122.39 181.321,-109.078 188.005,-97.5419"/>
<polygon fill="green" stroke="green" points="191.097,-99.1862 193.081,-88.7789 185.04,-95.6771 191.097,-99.1862"/>
</g>
<!-- 24&#45;&gt;6 -->
<g id="edge10" class="edge"><title>24&#45;&gt;6</title>
<path fill="none" stroke="green" d="M267.669,-57.1476C274.507,-48.0221 283.411,-36.1412 290.569,-26.5892"/>
<polygon fill="green" stroke="green" points="293.576,-28.4119 296.772,-18.3105 287.975,-24.2141 293.576,-28.4119"/>
</g>
<!-- 26&#45;&gt;6 -->
<g id="edge19" class="edge"><title>26&#45;&gt;6</title>
<path fill="none" stroke="red" d="M342.828,-199.641C338.89,-169.715 329.78,-106.421 317,-54 314.859,-45.2189 311.889,-35.6376 309.234,-27.6644"/>
<polygon fill="red" stroke="red" points="312.478,-26.3345 305.918,-18.0147 305.858,-28.6094 312.478,-26.3345"/>
</g>
<!-- 42 -->
<g id="node28" class="node"><title>42</title>
<ellipse fill="none" stroke="black" cx="387" cy="-72.3848" rx="18.2703" ry="18.2703"/>
<text text-anchor="middle" x="387" y="-70.1848" font-family="Times New Roman,serif" font-size="9.00">42</text>
</g>
<!-- 26&#45;&gt;42 -->
<g id="edge39" class="edge"><title>26&#45;&gt;42</title>
<path fill="none" stroke="green" d="M349.9,-200.177C357.101,-175.568 370.613,-129.389 379.191,-100.073"/>
<polygon fill="green" stroke="green" points="382.552,-101.05 382.001,-90.4697 375.833,-99.0844 382.552,-101.05"/>
</g>
<!-- 39&#45;&gt;6 -->
<g id="edge32" class="edge"><title>39&#45;&gt;6</title>
<path fill="none" stroke="green" d="M217.382,-61.7837C221.476,-59.2422 225.9,-56.5083 230,-54 248.017,-42.9775 268.637,-30.5681 283.356,-21.7449"/>
<polygon fill="green" stroke="green" points="285.308,-24.6555 292.089,-16.5153 281.712,-18.6498 285.308,-24.6555"/>
</g>
<!-- 53 -->
<g id="node27" class="node"><title>53</title>
<ellipse fill="none" stroke="black" cx="517" cy="-145.154" rx="18.2703" ry="18.2703"/>
<text text-anchor="middle" x="517" y="-142.954" font-family="Times New Roman,serif" font-size="9.00">53</text>
</g>
<!-- 18&#45;&gt;53 -->
<g id="edge52" class="edge"><title>18&#45;&gt;53</title>
<path fill="none" stroke="green" d="M517,-199.43C517,-191.748 517,-182.539 517,-173.955"/>
<polygon fill="green" stroke="green" points="520.5,-173.938 517,-163.938 513.5,-173.938 520.5,-173.938"/>
</g>
<!-- 38 -->
<g id="node29" class="node"><title>38</title>
<ellipse fill="none" stroke="black" cx="517" cy="-72.3848" rx="18.2703" ry="18.2703"/>
<text text-anchor="middle" x="517" y="-70.1848" font-family="Times New Roman,serif" font-size="9.00">38</text>
</g>
<!-- 53&#45;&gt;38 -->
<g id="edge53" class="edge"><title>53&#45;&gt;38</title>
<path fill="none" stroke="red" d="M517,-126.661C517,-118.978 517,-109.769 517,-101.185"/>
<polygon fill="red" stroke="red" points="520.5,-101.169 517,-91.1687 513.5,-101.169 520.5,-101.169"/>
</g>
<!-- 42&#45;&gt;6 -->
<g id="edge40" class="edge"><title>42&#45;&gt;6</title>
<path fill="none" stroke="red" d="M372.368,-60.6924C358.38,-50.47 337.217,-35.0052 321.946,-23.8455"/>
<polygon fill="red" stroke="red" points="323.874,-20.9189 313.735,-17.8446 319.744,-26.5707 323.874,-20.9189"/>
</g>
<!-- 38&#45;&gt;6 -->
<g id="edge47" class="edge"><title>38&#45;&gt;6</title>
<path fill="none" stroke="green" d="M501.763,-62.0557C496.581,-59.1702 490.664,-56.1803 485,-54 428.579,-32.2827 358.082,-18.8979 323.738,-13.2005"/>
<polygon fill="green" stroke="green" points="323.978,-9.69425 313.549,-11.5621 322.866,-16.6055 323.978,-9.69425"/>
</g>
</g>
</svg>
