<?xml version="1.0" encoding="UTF-8" standalone="no"?>
<!DOCTYPE svg PUBLIC "-//W3C//DTD SVG 1.1//EN"
 "http://www.w3.org/Graphics/SVG/1.1/DTD/svg11.dtd">
<!-- Generated by graphviz version 2.38.0 (20140413.2041)
 -->
<!-- Title: %3 Pages: 1 -->
<svg width="2039pt" height="1228pt"
 viewBox="0.00 0.00 2038.82 1228.11" xmlns="http://www.w3.org/2000/svg" xmlns:xlink="http://www.w3.org/1999/xlink">
<g id="graph0" class="graph" transform="scale(1 1) rotate(0) translate(4 1224.11)">
<title>%3</title>
<polygon fill="white" stroke="none" points="-4,4 -4,-1224.11 2034.82,-1224.11 2034.82,4 -4,4"/>
<!-- 1 -->
<g id="node1" class="node"><title>1</title>
<polygon fill="lightgray" stroke="black" points="1193.32,-1156.73 1172.32,-1156.73 1172.32,-1138.73 1193.32,-1138.73 1193.32,-1156.73"/>
<text text-anchor="middle" x="1182.82" y="-1145.53" font-family="Times New Roman,serif" font-size="9.00">1</text>
</g>
<!-- 6 -->
<g id="node6" class="node"><title>6</title>
<polygon fill="lightblue" stroke="black" points="977.317,-18 956.317,-18 956.317,-0 977.317,-0 977.317,-18"/>
<text text-anchor="middle" x="966.817" y="-6.8" font-family="Times New Roman,serif" font-size="9.00">6</text>
</g>
<!-- 1&#45;&gt;6 -->
<g id="edge5" class="edge"><title>1&#45;&gt;6</title>
<path fill="none" stroke="green" d="M1193.63,-1146.52C1242.7,-1145.34 1449.1,-1137.86 1610.82,-1093.34 1805.75,-1039.68 1992.82,-1048.51 1992.82,-846.335 1992.82,-846.335 1992.82,-846.335 1992.82,-149.811 1992.82,-104.916 1996.66,-81.0391 1960.82,-54 1920.58,-23.6427 1127.21,-12.063 987.681,-10.2577"/>
<polygon fill="green" stroke="green" points="987.539,-6.75568 977.495,-10.1284 987.45,-13.7551 987.539,-6.75568"/>
</g>
<!-- 17 -->
<g id="node8" class="node"><title>17</title>
<ellipse fill="none" stroke="black" cx="1257.82" cy="-1074.96" rx="18.2703" ry="18.2703"/>
<text text-anchor="middle" x="1257.82" y="-1072.76" font-family="Times New Roman,serif" font-size="9.00">17</text>
</g>
<!-- 1&#45;&gt;17 -->
<g id="edge32" class="edge"><title>1&#45;&gt;17</title>
<path fill="none" stroke="green" d="M1191.42,-1138.61C1202.56,-1128.1 1222.33,-1109.44 1237.41,-1095.21"/>
<polygon fill="green" stroke="green" points="1239.93,-1097.65 1244.8,-1088.24 1235.13,-1092.56 1239.93,-1097.65"/>
</g>
<!-- 27 -->
<g id="node12" class="node"><title>27</title>
<ellipse fill="none" stroke="black" cx="831.817" cy="-999.36" rx="18.2703" ry="18.2703"/>
<text text-anchor="middle" x="831.817" y="-997.16" font-family="Times New Roman,serif" font-size="9.00">27</text>
</g>
<!-- 1&#45;&gt;27 -->
<g id="edge16" class="edge"><title>1&#45;&gt;27</title>
<path fill="none" stroke="red" d="M1172.31,-1142.35C1124.91,-1122.58 930.148,-1041.36 858.461,-1011.47"/>
<polygon fill="red" stroke="red" points="859.386,-1008.06 848.809,-1007.45 856.692,-1014.52 859.386,-1008.06"/>
</g>
<!-- 23 -->
<g id="node30" class="node"><title>23</title>
<ellipse fill="none" stroke="black" cx="228.817" cy="-845.335" rx="18.2703" ry="18.2703"/>
<text text-anchor="middle" x="228.817" y="-843.135" font-family="Times New Roman,serif" font-size="9.00">23</text>
</g>
<!-- 1&#45;&gt;23 -->
<g id="edge166" class="edge"><title>1&#45;&gt;23</title>
<path fill="none" stroke="green" d="M1172.13,-1145.46C1081.37,-1134.53 439.334,-1053.89 285.817,-942.146 262.069,-924.861 246.446,-894.4 237.66,-872.458"/>
<polygon fill="green" stroke="green" points="240.914,-871.168 234.1,-863.055 234.367,-873.646 240.914,-871.168"/>
</g>
<!-- 77 -->
<g id="node50" class="node"><title>77</title>
<ellipse fill="none" stroke="black" cx="1185.82" cy="-534.458" rx="18.2703" ry="18.2703"/>
<text text-anchor="middle" x="1185.82" y="-532.258" font-family="Times New Roman,serif" font-size="9.00">77</text>
</g>
<!-- 1&#45;&gt;77 -->
<g id="edge67" class="edge"><title>1&#45;&gt;77</title>
<path fill="none" stroke="red" d="M1184.45,-1138.55C1190.78,-1107.27 1214.64,-992.373 1241.82,-899.72 1256.23,-850.582 1271.25,-841.436 1279.82,-790.95 1288.8,-737.995 1295.93,-721.335 1279.82,-670.098 1265.31,-623.965 1228.75,-579.85 1205.74,-555.336"/>
<polygon fill="red" stroke="red" points="1208.23,-552.884 1198.79,-548.089 1203.18,-557.729 1208.23,-552.884"/>
</g>
<!-- 10 -->
<g id="node54" class="node"><title>10</title>
<ellipse fill="none" stroke="black" cx="95.8166" cy="-534.458" rx="18.2703" ry="18.2703"/>
<text text-anchor="middle" x="95.8166" y="-532.258" font-family="Times New Roman,serif" font-size="9.00">10</text>
</g>
<!-- 1&#45;&gt;10 -->
<g id="edge170" class="edge"><title>1&#45;&gt;10</title>
<path fill="none" stroke="red" d="M1172.16,-1146.36C1115.68,-1144.26 845.614,-1132.51 628.817,-1093.34 505.67,-1071.09 470.79,-1072.25 356.817,-1020.57 189.736,-944.82 100.224,-952.778 13.8166,-790.95 -29.4714,-709.878 42.6593,-602.026 78.0235,-556.818"/>
<polygon fill="red" stroke="red" points="80.8562,-558.88 84.3621,-548.882 75.3866,-554.512 80.8562,-558.88"/>
</g>
<!-- 53 -->
<g id="node79" class="node"><title>53</title>
<ellipse fill="none" stroke="black" cx="1245.82" cy="-226.409" rx="18.2703" ry="18.2703"/>
<text text-anchor="middle" x="1245.82" y="-224.209" font-family="Times New Roman,serif" font-size="9.00">53</text>
</g>
<!-- 1&#45;&gt;53 -->
<g id="edge46" class="edge"><title>1&#45;&gt;53</title>
<path fill="none" stroke="red" d="M1193.7,-1145.5C1263.44,-1137.47 1647.45,-1090.52 1738.82,-1020.57 1780.31,-988.806 1802.82,-974.192 1802.82,-921.933 1802.82,-921.933 1802.82,-921.933 1802.82,-768.737 1802.82,-468.961 1382.77,-281.611 1272.22,-237.492"/>
<polygon fill="red" stroke="red" points="1273.38,-234.187 1262.79,-233.78 1270.81,-240.7 1273.38,-234.187"/>
</g>
<!-- 2 -->
<g id="node2" class="node"><title>2</title>
<polygon fill="lightgray" stroke="black" points="701.317,-854.335 680.317,-854.335 680.317,-836.335 701.317,-836.335 701.317,-854.335"/>
<text text-anchor="middle" x="690.817" y="-843.135" font-family="Times New Roman,serif" font-size="9.00">2</text>
</g>
<!-- 2&#45;&gt;6 -->
<g id="edge6" class="edge"><title>2&#45;&gt;6</title>
<path fill="none" stroke="red" d="M679.952,-843.738C621.766,-840.425 346.752,-823.269 268.817,-790.95 202.798,-763.574 141.817,-763.78 141.817,-692.311 141.817,-692.311 141.817,-692.311 141.817,-149.811 141.817,-28.7421 278.619,-80.2112 396.817,-54 607.419,-7.29746 871.273,-8.1805 946.157,-9.51212"/>
<polygon fill="red" stroke="red" points="946.094,-13.0115 956.162,-9.71436 946.235,-6.01289 946.094,-13.0115"/>
</g>
<!-- 40 -->
<g id="node14" class="node"><title>40</title>
<ellipse fill="none" stroke="black" cx="513.817" cy="-769.737" rx="18.2703" ry="18.2703"/>
<text text-anchor="middle" x="513.817" y="-767.537" font-family="Times New Roman,serif" font-size="9.00">40</text>
</g>
<!-- 2&#45;&gt;40 -->
<g id="edge72" class="edge"><title>2&#45;&gt;40</title>
<path fill="none" stroke="green" d="M680.31,-841.303C655.985,-834.106 594.177,-814.795 545.817,-790.95 543.019,-789.571 540.159,-788.008 537.355,-786.377"/>
<polygon fill="green" stroke="green" points="539.09,-783.335 528.738,-781.078 535.422,-789.298 539.09,-783.335"/>
</g>
<!-- 162 -->
<g id="node17" class="node"><title>162</title>
<ellipse fill="none" stroke="black" cx="738.817" cy="-769.737" rx="21.4286" ry="21.4286"/>
<text text-anchor="middle" x="738.817" y="-767.537" font-family="Times New Roman,serif" font-size="9.00">162</text>
</g>
<!-- 2&#45;&gt;162 -->
<g id="edge133" class="edge"><title>2&#45;&gt;162</title>
<path fill="none" stroke="green" d="M696.137,-836.178C702.344,-826.66 712.914,-810.454 721.981,-796.551"/>
<polygon fill="green" stroke="green" points="725.131,-798.128 727.662,-787.84 719.268,-794.304 725.131,-798.128"/>
</g>
<!-- 14 -->
<g id="node22" class="node"><title>14</title>
<ellipse fill="none" stroke="black" cx="605.817" cy="-769.737" rx="18.2703" ry="18.2703"/>
<text text-anchor="middle" x="605.817" y="-767.537" font-family="Times New Roman,serif" font-size="9.00">14</text>
</g>
<!-- 2&#45;&gt;14 -->
<g id="edge2" class="edge"><title>2&#45;&gt;14</title>
<path fill="none" stroke="green" d="M681.395,-836.178C668.469,-824.985 644.857,-804.541 627.453,-789.471"/>
<polygon fill="green" stroke="green" points="629.333,-786.469 619.482,-782.57 624.751,-791.761 629.333,-786.469"/>
</g>
<!-- 12 -->
<g id="node23" class="node"><title>12</title>
<ellipse fill="none" stroke="black" cx="1578.82" cy="-769.737" rx="18.2703" ry="18.2703"/>
<text text-anchor="middle" x="1578.82" y="-767.537" font-family="Times New Roman,serif" font-size="9.00">12</text>
</g>
<!-- 2&#45;&gt;12 -->
<g id="edge12" class="edge"><title>2&#45;&gt;12</title>
<path fill="none" stroke="green" d="M701.534,-843.675C796.621,-837.817 1492.83,-794.837 1513.82,-790.95 1526.76,-788.553 1540.74,-784.416 1552.41,-780.507"/>
<polygon fill="green" stroke="green" points="1553.69,-783.768 1561.99,-777.179 1551.39,-777.156 1553.69,-783.768"/>
</g>
<!-- 105 -->
<g id="node28" class="node"><title>105</title>
<ellipse fill="none" stroke="black" cx="798.817" cy="-691.311" rx="21.4286" ry="21.4286"/>
<text text-anchor="middle" x="798.817" y="-689.111" font-family="Times New Roman,serif" font-size="9.00">105</text>
</g>
<!-- 2&#45;&gt;105 -->
<g id="edge152" class="edge"><title>2&#45;&gt;105</title>
<path fill="none" stroke="green" d="M690.26,-836.071C689.486,-818.379 689.92,-776.199 708.817,-748.524 710.919,-745.445 746.363,-723.775 772.133,-708.262"/>
<polygon fill="green" stroke="green" points="774.003,-711.221 780.774,-703.072 770.399,-705.22 774.003,-711.221"/>
</g>
<!-- 21 -->
<g id="node29" class="node"><title>21</title>
<ellipse fill="none" stroke="black" cx="513.817" cy="-691.311" rx="18.2703" ry="18.2703"/>
<text text-anchor="middle" x="513.817" y="-689.111" font-family="Times New Roman,serif" font-size="9.00">21</text>
</g>
<!-- 2&#45;&gt;21 -->
<g id="edge127" class="edge"><title>2&#45;&gt;21</title>
<path fill="none" stroke="green" d="M680.165,-841.385C658.896,-835.071 610.493,-818.535 578.817,-790.95 555.24,-770.419 536.693,-739.363 525.547,-717.596"/>
<polygon fill="green" stroke="green" points="528.668,-716.014 521.092,-708.608 522.396,-719.122 528.668,-716.014"/>
</g>
<!-- 56 -->
<g id="node43" class="node"><title>56</title>
<ellipse fill="none" stroke="black" cx="1095.82" cy="-612.884" rx="18.2703" ry="18.2703"/>
<text text-anchor="middle" x="1095.82" y="-610.684" font-family="Times New Roman,serif" font-size="9.00">56</text>
</g>
<!-- 2&#45;&gt;56 -->
<g id="edge83" class="edge"><title>2&#45;&gt;56</title>
<path fill="none" stroke="green" d="M701.502,-841.933C726.799,-835.952 791.823,-818.834 839.817,-790.95 911.182,-749.488 911.853,-715.442 980.817,-670.098 1009.41,-651.296 1045.22,-634.773 1069.21,-624.59"/>
<polygon fill="green" stroke="green" points="1070.84,-627.706 1078.72,-620.627 1068.14,-621.246 1070.84,-627.706"/>
</g>
<!-- 11 -->
<g id="node55" class="node"><title>11</title>
<ellipse fill="none" stroke="black" cx="454.817" cy="-612.884" rx="18.2703" ry="18.2703"/>
<text text-anchor="middle" x="454.817" y="-610.684" font-family="Times New Roman,serif" font-size="9.00">11</text>
</g>
<!-- 2&#45;&gt;11 -->
<g id="edge151" class="edge"><title>2&#45;&gt;11</title>
<path fill="none" stroke="green" d="M680.198,-843.058C642.206,-838.273 513.862,-820.167 486.817,-790.95 448.896,-749.984 448.323,-679.932 451.435,-641.362"/>
<polygon fill="green" stroke="green" points="454.923,-641.654 452.382,-631.369 447.954,-640.994 454.923,-641.654"/>
</g>
<!-- 9 -->
<g id="node57" class="node"><title>9</title>
<ellipse fill="none" stroke="black" cx="968.817" cy="-534.458" rx="14.7" ry="14.7"/>
<text text-anchor="middle" x="968.817" y="-532.258" font-family="Times New Roman,serif" font-size="9.00">9</text>
</g>
<!-- 2&#45;&gt;9 -->
<g id="edge37" class="edge"><title>2&#45;&gt;9</title>
<path fill="none" stroke="red" d="M701.533,-841.065C722.485,-834.29 769.638,-817.132 801.817,-790.95 835.139,-763.837 892.451,-670.776 914.817,-634.098 930.627,-608.17 947.16,-577.334 957.701,-557.126"/>
<polygon fill="red" stroke="red" points="960.871,-558.617 962.365,-548.128 954.656,-555.395 960.871,-558.617"/>
</g>
<!-- 68 -->
<g id="node82" class="node"><title>68</title>
<ellipse fill="none" stroke="black" cx="1245.82" cy="-150.811" rx="18.2703" ry="18.2703"/>
<text text-anchor="middle" x="1245.82" y="-148.611" font-family="Times New Roman,serif" font-size="9.00">68</text>
</g>
<!-- 2&#45;&gt;68 -->
<g id="edge102" class="edge"><title>2&#45;&gt;68</title>
<path fill="none" stroke="green" d="M701.429,-838.537C717.198,-829.613 747.267,-811.39 768.817,-790.95 770.807,-789.063 827.667,-715.014 828.817,-712.524 851.844,-662.641 835.625,-643.151 854.817,-591.671 909.366,-445.348 915.289,-395.907 1023.82,-283.622 1082.32,-223.096 1174.46,-180.439 1219.4,-162.005"/>
<polygon fill="green" stroke="green" points="1220.78,-165.222 1228.75,-158.241 1218.17,-158.728 1220.78,-165.222"/>
</g>
<!-- 3 -->
<g id="node3" class="node"><title>3</title>
<polygon fill="lightgray" stroke="black" points="1202.32,-1220.11 1181.32,-1220.11 1181.32,-1202.11 1202.32,-1202.11 1202.32,-1220.11"/>
<text text-anchor="middle" x="1191.82" y="-1208.91" font-family="Times New Roman,serif" font-size="9.00">3</text>
</g>
<!-- 3&#45;&gt;6 -->
<g id="edge31" class="edge"><title>3&#45;&gt;6</title>
<path fill="none" stroke="green" d="M1202.45,-1204.87C1205.12,-1203.77 1208.03,-1202.75 1210.82,-1202.11 1362.44,-1167.41 1763.49,-1218.85 1909.82,-1166.11 1972.91,-1143.37 2030.82,-1143.02 2030.82,-1075.96 2030.82,-1075.96 2030.82,-1075.96 2030.82,-149.811 2030.82,-103.317 2027.18,-80.266 1988.82,-54 1946.01,-24.6941 1129.79,-12.2278 987.791,-10.2768"/>
<polygon fill="green" stroke="green" points="987.493,-6.7725 977.446,-10.137 987.398,-13.7719 987.493,-6.7725"/>
</g>
<!-- 28 -->
<g id="node7" class="node"><title>28</title>
<ellipse fill="none" stroke="black" cx="1882.82" cy="-1147.73" rx="18.2703" ry="18.2703"/>
<text text-anchor="middle" x="1882.82" y="-1145.53" font-family="Times New Roman,serif" font-size="9.00">28</text>
</g>
<!-- 3&#45;&gt;28 -->
<g id="edge18" class="edge"><title>3&#45;&gt;28</title>
<path fill="none" stroke="green" d="M1202.45,-1204.88C1205.13,-1203.78 1208.03,-1202.76 1210.82,-1202.11 1488.38,-1137.9 1576.78,-1244 1850.82,-1166.11 1853.46,-1165.36 1856.13,-1164.36 1858.74,-1163.22"/>
<polygon fill="green" stroke="green" points="1860.43,-1166.29 1867.78,-1158.67 1857.28,-1160.04 1860.43,-1166.29"/>
</g>
<!-- 3&#45;&gt;17 -->
<g id="edge30" class="edge"><title>3&#45;&gt;17</title>
<path fill="none" stroke="red" d="M1195.95,-1201.72C1205.67,-1181.95 1230.35,-1131.8 1245.43,-1101.13"/>
<polygon fill="red" stroke="red" points="1248.69,-1102.44 1249.96,-1091.93 1242.41,-1099.35 1248.69,-1102.44"/>
</g>
<!-- 15 -->
<g id="node11" class="node"><title>15</title>
<ellipse fill="none" stroke="black" cx="1680.82" cy="-999.36" rx="18.2703" ry="18.2703"/>
<text text-anchor="middle" x="1680.82" y="-997.16" font-family="Times New Roman,serif" font-size="9.00">15</text>
</g>
<!-- 3&#45;&gt;15 -->
<g id="edge9" class="edge"><title>3&#45;&gt;15</title>
<path fill="none" stroke="red" d="M1202.63,-1205.44C1205.29,-1204.32 1208.15,-1203.15 1210.82,-1202.11 1343.72,-1150.24 1382.88,-1152.24 1512.82,-1093.34 1565.87,-1069.29 1624.78,-1034.75 1656.82,-1015.24"/>
<polygon fill="red" stroke="red" points="1658.8,-1018.14 1665.5,-1009.93 1655.14,-1012.17 1658.8,-1018.14"/>
</g>
<!-- 16 -->
<g id="node27" class="node"><title>16</title>
<ellipse fill="none" stroke="black" cx="999.817" cy="-845.335" rx="18.2703" ry="18.2703"/>
<text text-anchor="middle" x="999.817" y="-843.135" font-family="Times New Roman,serif" font-size="9.00">16</text>
</g>
<!-- 3&#45;&gt;16 -->
<g id="edge73" class="edge"><title>3&#45;&gt;16</title>
<path fill="none" stroke="red" d="M1181.3,-1207.82C1142.67,-1198.73 1010.82,-1161.42 1010.82,-1075.96 1010.82,-1075.96 1010.82,-1075.96 1010.82,-998.36 1010.82,-954.759 1006.26,-904.308 1003.01,-873.885"/>
<polygon fill="red" stroke="red" points="1006.46,-873.191 1001.89,-863.633 999.499,-873.955 1006.46,-873.191"/>
</g>
<!-- 3&#45;&gt;105 -->
<g id="edge187" class="edge"><title>3&#45;&gt;105</title>
<path fill="none" stroke="green" d="M1181.03,-1209.83C1104.92,-1207.55 651.817,-1189.22 651.817,-1075.96 651.817,-1075.96 651.817,-1075.96 651.817,-844.335 651.817,-798.525 658.848,-782.28 689.817,-748.524 714.003,-722.161 730.113,-729.103 761.817,-712.524 764.96,-710.88 768.24,-709.134 771.492,-707.383"/>
<polygon fill="green" stroke="green" points="773.328,-710.369 780.444,-702.519 769.986,-704.218 773.328,-710.369"/>
</g>
<!-- 3&#45;&gt;56 -->
<g id="edge93" class="edge"><title>3&#45;&gt;56</title>
<path fill="none" stroke="red" d="M1184.41,-1202.11C1177.3,-1193.82 1167.02,-1180.13 1162.82,-1166.11 1158.12,-1150.46 1161.31,-1145.62 1162.82,-1129.34 1178.58,-958.515 1264.19,-915.73 1225.82,-748.524 1217.15,-710.773 1214.79,-697.889 1187.82,-670.098 1163.72,-645.279 1147.35,-653.655 1118.82,-634.098 1118.19,-633.669 1117.57,-633.226 1116.94,-632.771"/>
<polygon fill="red" stroke="red" points="1118.99,-629.932 1109,-626.423 1114.62,-635.4 1118.99,-629.932"/>
</g>
<!-- 3&#45;&gt;9 -->
<g id="edge14" class="edge"><title>3&#45;&gt;9</title>
<path fill="none" stroke="green" d="M1181.22,-1209.96C1128.29,-1209.04 887.531,-1202.92 694.817,-1166.11 556.811,-1139.75 391.817,-1216.46 391.817,-1075.96 391.817,-1075.96 391.817,-1075.96 391.817,-998.36 391.817,-879.565 406.105,-835.689 486.817,-748.524 514.605,-718.514 782.154,-607.616 819.817,-591.671 863.58,-573.143 915.749,-554.153 945.306,-543.675"/>
<polygon fill="green" stroke="green" points="946.848,-546.842 955.114,-540.216 944.52,-540.241 946.848,-546.842"/>
</g>
<!-- 4 -->
<g id="node4" class="node"><title>4</title>
<polygon fill="lightgray" stroke="black" points="1504.32,-1083.96 1483.32,-1083.96 1483.32,-1065.96 1504.32,-1065.96 1504.32,-1083.96"/>
<text text-anchor="middle" x="1493.82" y="-1072.76" font-family="Times New Roman,serif" font-size="9.00">4</text>
</g>
<!-- 4&#45;&gt;6 -->
<g id="edge29" class="edge"><title>4&#45;&gt;6</title>
<path fill="none" stroke="green" d="M1504.51,-1072.93C1546.82,-1068.69 1701.91,-1051.25 1738.82,-1020.57 1767.9,-996.399 1759.07,-977.75 1771.82,-942.146 1795.45,-876.137 1806.71,-860.33 1816.82,-790.95 1859.11,-500.561 1876.65,-405.348 1768.82,-132.426 1754.44,-96.0361 1761.58,-75.3913 1728.82,-54 1665.19,-12.4582 1103.85,-10.0353 987.768,-9.98076"/>
<polygon fill="green" stroke="green" points="987.421,-6.4807 977.422,-9.98203 987.422,-13.4807 987.421,-6.4807"/>
</g>
<!-- 73 -->
<g id="node9" class="node"><title>73</title>
<ellipse fill="none" stroke="black" cx="1341.82" cy="-999.36" rx="18.2703" ry="18.2703"/>
<text text-anchor="middle" x="1341.82" y="-997.16" font-family="Times New Roman,serif" font-size="9.00">73</text>
</g>
<!-- 4&#45;&gt;73 -->
<g id="edge61" class="edge"><title>4&#45;&gt;73</title>
<path fill="none" stroke="green" d="M1482.89,-1068.66C1458.85,-1057.03 1400.86,-1028.95 1367.19,-1012.64"/>
<polygon fill="green" stroke="green" points="1368.51,-1009.4 1357.98,-1008.19 1365.46,-1015.7 1368.51,-1009.4"/>
</g>
<!-- 150 -->
<g id="node15" class="node"><title>150</title>
<ellipse fill="none" stroke="black" cx="1271.82" cy="-920.933" rx="21.4286" ry="21.4286"/>
<text text-anchor="middle" x="1271.82" y="-918.733" font-family="Times New Roman,serif" font-size="9.00">150</text>
</g>
<!-- 4&#45;&gt;150 -->
<g id="edge106" class="edge"><title>4&#45;&gt;150</title>
<path fill="none" stroke="green" d="M1483.06,-1073.76C1452.76,-1072.65 1365.56,-1065.51 1314.82,-1020.57 1294.65,-1002.72 1283.56,-973.69 1277.72,-951.736"/>
<polygon fill="green" stroke="green" points="1281.09,-950.796 1275.33,-941.91 1274.29,-952.455 1281.09,-950.796"/>
</g>
<!-- 125 -->
<g id="node16" class="node"><title>125</title>
<ellipse fill="none" stroke="black" cx="1561.82" cy="-999.36" rx="21.4286" ry="21.4286"/>
<text text-anchor="middle" x="1561.82" y="-997.16" font-family="Times New Roman,serif" font-size="9.00">125</text>
</g>
<!-- 4&#45;&gt;125 -->
<g id="edge108" class="edge"><title>4&#45;&gt;125</title>
<path fill="none" stroke="green" d="M1501.35,-1065.8C1510.81,-1055.57 1527.4,-1037.61 1540.82,-1023.09"/>
<polygon fill="green" stroke="green" points="1543.66,-1025.16 1547.88,-1015.44 1538.52,-1020.41 1543.66,-1025.16"/>
</g>
<!-- 4&#45;&gt;12 -->
<g id="edge182" class="edge"><title>4&#45;&gt;12</title>
<path fill="none" stroke="red" d="M1495.26,-1065.7C1500.9,-1034.16 1522.65,-918.431 1553.82,-826.95 1557.34,-816.595 1562.05,-805.528 1566.43,-795.976"/>
<polygon fill="red" stroke="red" points="1569.72,-797.203 1570.81,-786.664 1563.39,-794.224 1569.72,-797.203"/>
</g>
<!-- 8 -->
<g id="node58" class="node"><title>8</title>
<ellipse fill="none" stroke="black" cx="1434.82" cy="-612.884" rx="14.7" ry="14.7"/>
<text text-anchor="middle" x="1434.82" y="-610.684" font-family="Times New Roman,serif" font-size="9.00">8</text>
</g>
<!-- 4&#45;&gt;8 -->
<g id="edge20" class="edge"><title>4&#45;&gt;8</title>
<path fill="none" stroke="green" d="M1494.4,-1065.94C1497.64,-1021.32 1513.32,-805.072 1513.82,-790.95 1514.48,-772.106 1519.94,-766.36 1513.82,-748.524 1507.24,-729.351 1496.74,-729.599 1485.82,-712.524 1469.66,-687.263 1454.31,-656.284 1444.75,-635.86"/>
<polygon fill="green" stroke="green" points="1447.91,-634.365 1440.54,-626.754 1441.56,-637.3 1447.91,-634.365"/>
</g>
<!-- 5 -->
<g id="node5" class="node"><title>5</title>
<polygon fill="lightgray" stroke="black" points="1241.32,-1220.11 1220.32,-1220.11 1220.32,-1202.11 1241.32,-1202.11 1241.32,-1220.11"/>
<text text-anchor="middle" x="1230.82" y="-1208.91" font-family="Times New Roman,serif" font-size="9.00">5</text>
</g>
<!-- 28&#45;&gt;17 -->
<g id="edge19" class="edge"><title>28&#45;&gt;17</title>
<path fill="none" stroke="green" d="M1864.45,-1144.65C1776.05,-1134.64 1394.2,-1091.4 1286.31,-1079.18"/>
<polygon fill="green" stroke="green" points="1286.51,-1075.68 1276.18,-1078.04 1285.73,-1082.64 1286.51,-1075.68"/>
</g>
<!-- 13 -->
<g id="node24" class="node"><title>13</title>
<ellipse fill="none" stroke="black" cx="1745.82" cy="-769.737" rx="18.2703" ry="18.2703"/>
<text text-anchor="middle" x="1745.82" y="-767.537" font-family="Times New Roman,serif" font-size="9.00">13</text>
</g>
<!-- 28&#45;&gt;13 -->
<g id="edge21" class="edge"><title>28&#45;&gt;13</title>
<path fill="none" stroke="green" d="M1877.77,-1129.83C1863.24,-1081.77 1819.42,-940.461 1772.82,-826.95 1768.5,-816.434 1763.18,-805.088 1758.41,-795.361"/>
<polygon fill="green" stroke="green" points="1761.47,-793.656 1753.88,-786.266 1755.21,-796.777 1761.47,-793.656"/>
</g>
<!-- 129 -->
<g id="node10" class="node"><title>129</title>
<ellipse fill="none" stroke="black" cx="1387.82" cy="-920.933" rx="21.4286" ry="21.4286"/>
<text text-anchor="middle" x="1387.82" y="-918.733" font-family="Times New Roman,serif" font-size="9.00">129</text>
</g>
<!-- 17&#45;&gt;129 -->
<g id="edge43" class="edge"><title>17&#45;&gt;129</title>
<path fill="none" stroke="green" d="M1275.98,-1070.51C1301,-1064.76 1345.59,-1050.73 1368.82,-1020.57 1383.75,-1001.19 1388.02,-973.426 1388.83,-952.289"/>
<polygon fill="green" stroke="green" points="1392.33,-952.267 1388.98,-942.216 1385.33,-952.163 1392.33,-952.267"/>
</g>
<!-- 17&#45;&gt;15 -->
<g id="edge10" class="edge"><title>17&#45;&gt;15</title>
<path fill="none" stroke="green" d="M1275.99,-1071.48C1326.35,-1064.51 1471.89,-1043.75 1591.82,-1020.57 1612.43,-1016.59 1635.55,-1011.31 1653.05,-1007.15"/>
<polygon fill="green" stroke="green" points="1654.25,-1010.46 1663.16,-1004.73 1652.62,-1003.66 1654.25,-1010.46"/>
</g>
<!-- 17&#45;&gt;27 -->
<g id="edge112" class="edge"><title>17&#45;&gt;27</title>
<path fill="none" stroke="green" d="M1239.78,-1070.84C1173.25,-1059.35 941.203,-1019.26 860.078,-1005.24"/>
<polygon fill="green" stroke="green" points="860.542,-1001.77 850.092,-1003.52 859.35,-1008.67 860.542,-1001.77"/>
</g>
<!-- 17&#45;&gt;13 -->
<g id="edge50" class="edge"><title>17&#45;&gt;13</title>
<path fill="none" stroke="red" d="M1276.05,-1072.31C1358.15,-1064.83 1690.2,-1033.84 1707.82,-1020.57 1776.19,-969.102 1762.43,-851.019 1752,-797.718"/>
<polygon fill="red" stroke="red" points="1755.38,-796.75 1749.93,-787.667 1748.52,-798.168 1755.38,-796.75"/>
</g>
<!-- 47 -->
<g id="node32" class="node"><title>47</title>
<ellipse fill="none" stroke="black" cx="1252.82" cy="-691.311" rx="18.2703" ry="18.2703"/>
<text text-anchor="middle" x="1252.82" y="-689.111" font-family="Times New Roman,serif" font-size="9.00">47</text>
</g>
<!-- 17&#45;&gt;47 -->
<g id="edge66" class="edge"><title>17&#45;&gt;47</title>
<path fill="none" stroke="red" d="M1255.02,-1056.54C1251.14,-1031.37 1244.31,-983.334 1241.82,-942.146 1240.68,-923.325 1238.66,-918.31 1241.82,-899.72 1250.38,-849.234 1271.25,-841.436 1279.82,-790.95 1282.97,-772.36 1284,-766.91 1279.82,-748.524 1277.29,-737.44 1272.3,-725.991 1267.28,-716.342"/>
<polygon fill="red" stroke="red" points="1270.24,-714.45 1262.35,-707.373 1264.1,-717.822 1270.24,-714.45"/>
</g>
<!-- 17&#45;&gt;9 -->
<g id="edge35" class="edge"><title>17&#45;&gt;9</title>
<path fill="none" stroke="green" d="M1240.69,-1067.42C1179.33,-1042.83 971.544,-949.191 920.817,-790.95 915.06,-772.994 918.732,-767.265 920.817,-748.524 928.634,-678.253 950.53,-597.308 961.847,-558.522"/>
<polygon fill="green" stroke="green" points="965.259,-559.326 964.738,-548.744 958.547,-557.341 965.259,-559.326"/>
</g>
<!-- 73&#45;&gt;129 -->
<g id="edge160" class="edge"><title>73&#45;&gt;129</title>
<path fill="none" stroke="green" d="M1350.9,-983.26C1356.96,-973.207 1365.06,-959.735 1372.14,-947.979"/>
<polygon fill="green" stroke="green" points="1375.14,-949.781 1377.3,-939.408 1369.14,-946.171 1375.14,-949.781"/>
</g>
<!-- 71 -->
<g id="node13" class="node"><title>71</title>
<ellipse fill="none" stroke="black" cx="1329.82" cy="-920.933" rx="18.2703" ry="18.2703"/>
<text text-anchor="middle" x="1329.82" y="-918.733" font-family="Times New Roman,serif" font-size="9.00">71</text>
</g>
<!-- 73&#45;&gt;71 -->
<g id="edge62" class="edge"><title>73&#45;&gt;71</title>
<path fill="none" stroke="red" d="M1339.09,-981.017C1337.62,-971.636 1335.77,-959.835 1334.11,-949.251"/>
<polygon fill="red" stroke="red" points="1337.54,-948.543 1332.53,-939.207 1330.62,-949.629 1337.54,-948.543"/>
</g>
<!-- 73&#45;&gt;150 -->
<g id="edge129" class="edge"><title>73&#45;&gt;150</title>
<path fill="none" stroke="red" d="M1329.62,-985.047C1319.5,-973.997 1304.88,-958.027 1292.87,-944.917"/>
<polygon fill="red" stroke="red" points="1295.13,-942.203 1285.79,-937.193 1289.97,-946.931 1295.13,-942.203"/>
</g>
<!-- 61 -->
<g id="node18" class="node"><title>61</title>
<ellipse fill="none" stroke="black" cx="1587.82" cy="-845.335" rx="18.2703" ry="18.2703"/>
<text text-anchor="middle" x="1587.82" y="-843.135" font-family="Times New Roman,serif" font-size="9.00">61</text>
</g>
<!-- 129&#45;&gt;61 -->
<g id="edge44" class="edge"><title>129&#45;&gt;61</title>
<path fill="none" stroke="red" d="M1407.72,-912.607C1443.98,-899.267 1520.75,-871.013 1561.36,-856.071"/>
<polygon fill="red" stroke="red" points="1562.68,-859.315 1570.86,-852.576 1560.26,-852.745 1562.68,-859.315"/>
</g>
<!-- 131 -->
<g id="node36" class="node"><title>131</title>
<ellipse fill="none" stroke="black" cx="1428.82" cy="-769.737" rx="21.4286" ry="21.4286"/>
<text text-anchor="middle" x="1428.82" y="-767.537" font-family="Times New Roman,serif" font-size="9.00">131</text>
</g>
<!-- 129&#45;&gt;131 -->
<g id="edge135" class="edge"><title>129&#45;&gt;131</title>
<path fill="none" stroke="green" d="M1393.26,-900.121C1400.28,-874.595 1412.53,-829.995 1420.66,-800.413"/>
<polygon fill="green" stroke="green" points="1424.07,-801.201 1423.35,-790.631 1417.32,-799.346 1424.07,-801.201"/>
</g>
<!-- 15&#45;&gt;6 -->
<g id="edge11" class="edge"><title>15&#45;&gt;6</title>
<path fill="none" stroke="green" d="M1699.22,-996.79C1733.54,-993.003 1808.13,-980.62 1855.82,-942.146 1924.28,-886.902 1954.82,-858.713 1954.82,-770.737 1954.82,-770.737 1954.82,-770.737 1954.82,-149.811 1954.82,-106.399 1968.73,-82.3041 1935.82,-54 1898.6,-21.9951 1125.14,-11.788 987.631,-10.2234"/>
<polygon fill="green" stroke="green" points="987.61,-6.72302 977.572,-10.1116 987.532,-13.7226 987.61,-6.72302"/>
</g>
<!-- 31 -->
<g id="node19" class="node"><title>31</title>
<ellipse fill="none" stroke="black" cx="1604.82" cy="-920.933" rx="18.2703" ry="18.2703"/>
<text text-anchor="middle" x="1604.82" y="-918.733" font-family="Times New Roman,serif" font-size="9.00">31</text>
</g>
<!-- 15&#45;&gt;31 -->
<g id="edge130" class="edge"><title>15&#45;&gt;31</title>
<path fill="none" stroke="green" d="M1668.27,-985.739C1656.39,-973.791 1638.36,-955.665 1624.56,-941.782"/>
<polygon fill="green" stroke="green" points="1626.92,-939.195 1617.39,-934.572 1621.95,-944.131 1626.92,-939.195"/>
</g>
<!-- 19 -->
<g id="node21" class="node"><title>19</title>
<ellipse fill="none" stroke="black" cx="1642.82" cy="-845.335" rx="18.2703" ry="18.2703"/>
<text text-anchor="middle" x="1642.82" y="-843.135" font-family="Times New Roman,serif" font-size="9.00">19</text>
</g>
<!-- 15&#45;&gt;19 -->
<g id="edge147" class="edge"><title>15&#45;&gt;19</title>
<path fill="none" stroke="green" d="M1676.53,-981.216C1669.97,-954.984 1657.39,-904.65 1649.59,-873.439"/>
<polygon fill="green" stroke="green" points="1652.97,-872.502 1647.14,-863.649 1646.17,-874.2 1652.97,-872.502"/>
</g>
<!-- 15&#45;&gt;12 -->
<g id="edge26" class="edge"><title>15&#45;&gt;12</title>
<path fill="none" stroke="red" d="M1684.55,-981.278C1690.71,-948.627 1699.56,-876.224 1669.82,-826.95 1655.57,-803.343 1627.23,-788.21 1605.95,-779.663"/>
<polygon fill="red" stroke="red" points="1607.04,-776.334 1596.45,-776.09 1604.58,-782.886 1607.04,-776.334"/>
</g>
<!-- 95 -->
<g id="node31" class="node"><title>95</title>
<ellipse fill="none" stroke="black" cx="1126.82" cy="-845.335" rx="18.2703" ry="18.2703"/>
<text text-anchor="middle" x="1126.82" y="-843.135" font-family="Times New Roman,serif" font-size="9.00">95</text>
</g>
<!-- 15&#45;&gt;95 -->
<g id="edge48" class="edge"><title>15&#45;&gt;95</title>
<path fill="none" stroke="green" d="M1664.31,-990.682C1623.47,-972.019 1514.03,-924.024 1417.82,-899.72 1303.43,-870.826 1265.81,-903.713 1154.82,-863.72 1153.37,-863.199 1151.92,-862.595 1150.48,-861.933"/>
<polygon fill="green" stroke="green" points="1151.79,-858.661 1141.34,-856.946 1148.44,-864.807 1151.79,-858.661"/>
</g>
<!-- 64 -->
<g id="node39" class="node"><title>64</title>
<ellipse fill="none" stroke="black" cx="1878.82" cy="-377.605" rx="18.2703" ry="18.2703"/>
<text text-anchor="middle" x="1878.82" y="-375.405" font-family="Times New Roman,serif" font-size="9.00">64</text>
</g>
<!-- 15&#45;&gt;64 -->
<g id="edge55" class="edge"><title>15&#45;&gt;64</title>
<path fill="none" stroke="green" d="M1698.74,-993.933C1747.48,-980.71 1878.82,-936.696 1878.82,-846.335 1878.82,-846.335 1878.82,-846.335 1878.82,-533.458 1878.82,-488.968 1878.82,-437.288 1878.82,-406.305"/>
<polygon fill="green" stroke="green" points="1882.32,-406.255 1878.82,-396.255 1875.32,-406.255 1882.32,-406.255"/>
</g>
<!-- 18 -->
<g id="node74" class="node"><title>18</title>
<ellipse fill="none" stroke="black" cx="1457.82" cy="-534.458" rx="18.2703" ry="18.2703"/>
<text text-anchor="middle" x="1457.82" y="-532.258" font-family="Times New Roman,serif" font-size="9.00">18</text>
</g>
<!-- 15&#45;&gt;18 -->
<g id="edge52" class="edge"><title>15&#45;&gt;18</title>
<path fill="none" stroke="green" d="M1689.54,-982.684C1695.14,-971.707 1701.88,-956.493 1704.82,-942.146 1708.6,-923.673 1706.48,-918.502 1704.82,-899.72 1695.36,-793.05 1678.65,-766.402 1631.82,-670.098 1614.05,-633.553 1616.16,-617.532 1584.82,-591.671 1548.7,-561.875 1527.19,-577.582 1485.82,-555.671 1484.03,-554.724 1482.23,-553.676 1480.44,-552.569"/>
<polygon fill="green" stroke="green" points="1482.09,-549.461 1471.85,-546.748 1478.17,-555.255 1482.09,-549.461"/>
</g>
<!-- 27&#45;&gt;6 -->
<g id="edge145" class="edge"><title>27&#45;&gt;6</title>
<path fill="none" stroke="green" d="M813.33,-997.687C729.647,-994.454 386.06,-979.127 285.817,-942.146 136.064,-886.901 27.8166,-851.929 27.8166,-692.311 27.8166,-692.311 27.8166,-692.311 27.8166,-149.811 27.8166,-97.3351 50.7293,-79.0937 96.8166,-54 173.615,-12.1849 821.74,-10.0117 946.195,-9.98188"/>
<polygon fill="green" stroke="green" points="946.285,-13.4818 956.286,-9.98422 946.287,-6.4818 946.285,-13.4818"/>
</g>
<!-- 32 -->
<g id="node20" class="node"><title>32</title>
<ellipse fill="none" stroke="black" cx="312.817" cy="-920.933" rx="18.2703" ry="18.2703"/>
<text text-anchor="middle" x="312.817" y="-918.733" font-family="Times New Roman,serif" font-size="9.00">32</text>
</g>
<!-- 27&#45;&gt;32 -->
<g id="edge17" class="edge"><title>27&#45;&gt;32</title>
<path fill="none" stroke="green" d="M813.511,-996.28C755.251,-989.578 568.964,-967.498 415.817,-942.146 390.249,-937.914 361.303,-932.146 340.621,-927.855"/>
<polygon fill="green" stroke="green" points="341.126,-924.385 330.621,-925.762 339.692,-931.236 341.126,-924.385"/>
</g>
<!-- 82 -->
<g id="node26" class="node"><title>82</title>
<ellipse fill="none" stroke="black" cx="1181.82" cy="-845.335" rx="18.2703" ry="18.2703"/>
<text text-anchor="middle" x="1181.82" y="-843.135" font-family="Times New Roman,serif" font-size="9.00">82</text>
</g>
<!-- 27&#45;&gt;82 -->
<g id="edge69" class="edge"><title>27&#45;&gt;82</title>
<path fill="none" stroke="red" d="M849.009,-992.277C897.863,-974.761 1041.25,-921.731 1153.82,-863.72 1155.18,-863.015 1156.57,-862.267 1157.96,-861.493"/>
<polygon fill="red" stroke="red" points="1160.14,-864.274 1166.96,-856.17 1156.57,-858.249 1160.14,-864.274"/>
</g>
<!-- 169 -->
<g id="node65" class="node"><title>169</title>
<ellipse fill="none" stroke="black" cx="749.817" cy="-226.409" rx="21.4286" ry="21.4286"/>
<text text-anchor="middle" x="749.817" y="-224.209" font-family="Times New Roman,serif" font-size="9.00">169</text>
</g>
<!-- 27&#45;&gt;169 -->
<g id="edge136" class="edge"><title>27&#45;&gt;169</title>
<path fill="none" stroke="green" d="M813.796,-994.167C753.853,-979.136 560.791,-921.735 486.817,-790.95 460.373,-744.198 464.149,-718.793 486.817,-670.098 520.153,-598.483 568.043,-612.59 622.817,-555.671 639.381,-538.458 639.331,-530.533 655.817,-513.245 672.783,-495.452 685.31,-498.411 697.817,-477.245 739.601,-406.529 748.137,-307.207 749.667,-257.8"/>
<polygon fill="green" stroke="green" points="753.167,-257.841 749.901,-247.762 746.169,-257.678 753.167,-257.841"/>
</g>
<!-- 58 -->
<g id="node25" class="node"><title>58</title>
<ellipse fill="none" stroke="black" cx="1357.82" cy="-845.335" rx="18.2703" ry="18.2703"/>
<text text-anchor="middle" x="1357.82" y="-843.135" font-family="Times New Roman,serif" font-size="9.00">58</text>
</g>
<!-- 71&#45;&gt;58 -->
<g id="edge58" class="edge"><title>71&#45;&gt;58</title>
<path fill="none" stroke="green" d="M1336.03,-903.599C1339.52,-894.421 1343.96,-882.752 1347.92,-872.346"/>
<polygon fill="green" stroke="green" points="1351.24,-873.469 1351.52,-862.878 1344.7,-870.98 1351.24,-873.469"/>
</g>
<!-- 40&#45;&gt;21 -->
<g id="edge150" class="edge"><title>40&#45;&gt;21</title>
<path fill="none" stroke="red" d="M513.817,-751.011C513.817,-741.848 513.817,-730.452 513.817,-720.147"/>
<polygon fill="red" stroke="red" points="517.317,-719.94 513.817,-709.94 510.317,-719.941 517.317,-719.94"/>
</g>
<!-- 150&#45;&gt;16 -->
<g id="edge107" class="edge"><title>150&#45;&gt;16</title>
<path fill="none" stroke="red" d="M1250.71,-916.938C1208.23,-910.489 1109.8,-893.419 1031.82,-863.72 1029.25,-862.741 1026.63,-861.593 1024.05,-860.361"/>
<polygon fill="red" stroke="red" points="1025.53,-857.19 1015.04,-855.688 1022.31,-863.402 1025.53,-857.19"/>
</g>
<!-- 125&#45;&gt;12 -->
<g id="edge109" class="edge"><title>125&#45;&gt;12</title>
<path fill="none" stroke="red" d="M1559.62,-978.148C1556.58,-945.932 1552.37,-881.051 1560.82,-826.95 1562.4,-816.838 1565.48,-806.061 1568.66,-796.675"/>
<polygon fill="red" stroke="red" points="1572,-797.73 1572.08,-787.136 1565.41,-795.37 1572,-797.73"/>
</g>
<!-- 162&#45;&gt;105 -->
<g id="edge134" class="edge"><title>162&#45;&gt;105</title>
<path fill="none" stroke="red" d="M751.541,-752.529C759.735,-742.092 770.536,-728.334 779.746,-716.603"/>
<polygon fill="red" stroke="red" points="782.688,-718.522 786.111,-708.495 777.182,-714.2 782.688,-718.522"/>
</g>
<!-- 61&#45;&gt;13 -->
<g id="edge42" class="edge"><title>61&#45;&gt;13</title>
<path fill="none" stroke="green" d="M1602.98,-834.354C1607.08,-831.815 1611.56,-829.178 1615.82,-826.95 1650.59,-808.762 1692.54,-791.402 1719.2,-780.908"/>
<polygon fill="green" stroke="green" points="1720.57,-784.129 1728.62,-777.235 1718.03,-777.607 1720.57,-784.129"/>
</g>
<!-- 31&#45;&gt;19 -->
<g id="edge131" class="edge"><title>31&#45;&gt;19</title>
<path fill="none" stroke="green" d="M1612.88,-904.325C1617.86,-894.665 1624.38,-882.049 1630.05,-871.053"/>
<polygon fill="green" stroke="green" points="1633.29,-872.412 1634.77,-861.921 1627.07,-869.201 1633.29,-872.412"/>
</g>
<!-- 94 -->
<g id="node45" class="node"><title>94</title>
<ellipse fill="none" stroke="black" cx="1007.82" cy="-691.311" rx="18.2703" ry="18.2703"/>
<text text-anchor="middle" x="1007.82" y="-689.111" font-family="Times New Roman,serif" font-size="9.00">94</text>
</g>
<!-- 31&#45;&gt;94 -->
<g id="edge183" class="edge"><title>31&#45;&gt;94</title>
<path fill="none" stroke="green" d="M1586.65,-917.966C1496.61,-908.209 1102.44,-865.417 1099.82,-863.72 1048.51,-830.543 1023.77,-758.654 1013.68,-719.337"/>
<polygon fill="green" stroke="green" points="1017.02,-718.288 1011.26,-709.399 1010.22,-719.943 1017.02,-718.288"/>
</g>
<!-- 32&#45;&gt;23 -->
<g id="edge171" class="edge"><title>32&#45;&gt;23</title>
<path fill="none" stroke="red" d="M299.321,-908.108C285.972,-896.413 265.35,-878.345 249.852,-864.765"/>
<polygon fill="red" stroke="red" points="252.107,-862.088 242.279,-858.131 247.494,-867.353 252.107,-862.088"/>
</g>
<!-- 91 -->
<g id="node53" class="node"><title>91</title>
<ellipse fill="none" stroke="black" cx="301.817" cy="-612.884" rx="18.2703" ry="18.2703"/>
<text text-anchor="middle" x="301.817" y="-610.684" font-family="Times New Roman,serif" font-size="9.00">91</text>
</g>
<!-- 32&#45;&gt;91 -->
<g id="edge75" class="edge"><title>32&#45;&gt;91</title>
<path fill="none" stroke="red" d="M312.178,-902.156C310.339,-851.008 305.027,-703.2 302.808,-641.477"/>
<polygon fill="red" stroke="red" points="306.301,-641.197 302.444,-631.329 299.305,-641.449 306.301,-641.197"/>
</g>
<!-- 19&#45;&gt;12 -->
<g id="edge25" class="edge"><title>19&#45;&gt;12</title>
<path fill="none" stroke="red" d="M1631.08,-830.836C1621.61,-819.943 1608.11,-804.422 1597.2,-791.882"/>
<polygon fill="red" stroke="red" points="1599.68,-789.4 1590.48,-784.151 1594.4,-793.993 1599.68,-789.4"/>
</g>
<!-- 119 -->
<g id="node37" class="node"><title>119</title>
<ellipse fill="none" stroke="black" cx="1102.82" cy="-691.311" rx="21.4286" ry="21.4286"/>
<text text-anchor="middle" x="1102.82" y="-689.111" font-family="Times New Roman,serif" font-size="9.00">119</text>
</g>
<!-- 14&#45;&gt;119 -->
<g id="edge125" class="edge"><title>14&#45;&gt;119</title>
<path fill="none" stroke="green" d="M623.6,-764.776C644.068,-760.327 678.735,-753.128 708.817,-748.524 852.908,-726.469 891.937,-741.407 1034.82,-712.524 1047.61,-709.938 1061.46,-706.03 1073.3,-702.337"/>
<polygon fill="green" stroke="green" points="1074.67,-705.576 1083.12,-699.186 1072.53,-698.911 1074.67,-705.576"/>
</g>
<!-- 14&#45;&gt;56 -->
<g id="edge178" class="edge"><title>14&#45;&gt;56</title>
<path fill="none" stroke="red" d="M620.797,-758.514C626.061,-755.127 632.092,-751.474 637.817,-748.524 675.379,-729.166 690.551,-735.806 725.817,-712.524 748.222,-697.732 744.935,-682.363 768.817,-670.098 821.103,-643.244 997.84,-623.481 1067.38,-616.569"/>
<polygon fill="red" stroke="red" points="1067.97,-620.028 1077.58,-615.571 1067.29,-613.061 1067.97,-620.028"/>
</g>
<!-- 14&#45;&gt;10 -->
<g id="edge3" class="edge"><title>14&#45;&gt;10</title>
<path fill="none" stroke="green" d="M588.623,-762.642C575.628,-758.218 557.275,-752.361 540.817,-748.524 440.907,-725.231 406.468,-754.403 312.817,-712.524 227.864,-674.535 148.649,-594.383 114.074,-556.343"/>
<polygon fill="green" stroke="green" points="116.673,-553.998 107.388,-548.895 111.464,-558.675 116.673,-553.998"/>
</g>
<!-- 37 -->
<g id="node61" class="node"><title>37</title>
<ellipse fill="none" stroke="black" cx="725.817" cy="-534.458" rx="18.2703" ry="18.2703"/>
<text text-anchor="middle" x="725.817" y="-532.258" font-family="Times New Roman,serif" font-size="9.00">37</text>
</g>
<!-- 14&#45;&gt;37 -->
<g id="edge138" class="edge"><title>14&#45;&gt;37</title>
<path fill="none" stroke="red" d="M605.865,-751.294C606.81,-717.259 613.196,-641.018 649.817,-591.671 657.28,-581.614 682.858,-563.568 702.298,-550.634"/>
<polygon fill="red" stroke="red" points="704.281,-553.519 710.711,-545.098 700.434,-547.671 704.281,-553.519"/>
</g>
<!-- 104 -->
<g id="node68" class="node"><title>104</title>
<ellipse fill="none" stroke="black" cx="841.817" cy="-456.032" rx="21.4286" ry="21.4286"/>
<text text-anchor="middle" x="841.817" y="-453.832" font-family="Times New Roman,serif" font-size="9.00">104</text>
</g>
<!-- 14&#45;&gt;104 -->
<g id="edge92" class="edge"><title>14&#45;&gt;104</title>
<path fill="none" stroke="red" d="M611.28,-751.902C622.844,-718.285 652.506,-641.774 697.817,-591.671 717.413,-570.002 730.626,-574.673 752.817,-555.671 779.574,-532.759 806.082,-502.077 823.114,-481.052"/>
<polygon fill="red" stroke="red" points="825.858,-483.224 829.375,-473.23 820.393,-478.85 825.858,-483.224"/>
</g>
<!-- 26 -->
<g id="node72" class="node"><title>26</title>
<ellipse fill="none" stroke="black" cx="841.817" cy="-377.605" rx="18.2703" ry="18.2703"/>
<text text-anchor="middle" x="841.817" y="-375.405" font-family="Times New Roman,serif" font-size="9.00">26</text>
</g>
<!-- 14&#45;&gt;26 -->
<g id="edge143" class="edge"><title>14&#45;&gt;26</title>
<path fill="none" stroke="green" d="M603.577,-751.398C600.133,-718.19 596.606,-644.251 624.817,-591.671 628.913,-584.035 724.981,-483.651 730.817,-477.245 747.863,-458.531 750.265,-452.042 768.817,-434.818 784.593,-420.171 803.958,-405.388 818.777,-394.66"/>
<polygon fill="green" stroke="green" points="820.815,-397.506 826.916,-388.844 816.745,-391.811 820.815,-397.506"/>
</g>
<!-- 75 -->
<g id="node77" class="node"><title>75</title>
<ellipse fill="none" stroke="black" cx="1119.82" cy="-377.605" rx="18.2703" ry="18.2703"/>
<text text-anchor="middle" x="1119.82" y="-375.405" font-family="Times New Roman,serif" font-size="9.00">75</text>
</g>
<!-- 14&#45;&gt;75 -->
<g id="edge87" class="edge"><title>14&#45;&gt;75</title>
<path fill="none" stroke="red" d="M619.549,-756.773C653.094,-727.681 742.149,-651.254 819.817,-591.671 920.467,-514.457 1045.48,-428.83 1096.5,-394.302"/>
<polygon fill="red" stroke="red" points="1098.54,-397.146 1104.87,-388.648 1094.62,-391.346 1098.54,-397.146"/>
</g>
<!-- 72 -->
<g id="node42" class="node"><title>72</title>
<ellipse fill="none" stroke="black" cx="1344.82" cy="-691.311" rx="18.2703" ry="18.2703"/>
<text text-anchor="middle" x="1344.82" y="-689.111" font-family="Times New Roman,serif" font-size="9.00">72</text>
</g>
<!-- 12&#45;&gt;72 -->
<g id="edge59" class="edge"><title>12&#45;&gt;72</title>
<path fill="none" stroke="red" d="M1561.61,-763.117C1521.21,-749.922 1420.05,-716.882 1371.56,-701.044"/>
<polygon fill="red" stroke="red" points="1372.64,-697.717 1362.05,-697.939 1370.47,-704.371 1372.64,-697.717"/>
</g>
<!-- 7 -->
<g id="node56" class="node"><title>7</title>
<ellipse fill="none" stroke="black" cx="1656.82" cy="-612.884" rx="14.7" ry="14.7"/>
<text text-anchor="middle" x="1656.82" y="-610.684" font-family="Times New Roman,serif" font-size="9.00">7</text>
</g>
<!-- 12&#45;&gt;7 -->
<g id="edge8" class="edge"><title>12&#45;&gt;7</title>
<path fill="none" stroke="red" d="M1593.09,-757.291C1605.16,-746.862 1622,-730.395 1631.82,-712.524 1644.72,-689.027 1651.11,-658.732 1654.17,-637.952"/>
<polygon fill="red" stroke="red" points="1657.68,-638.137 1655.52,-627.764 1650.74,-637.218 1657.68,-638.137"/>
</g>
<!-- 12&#45;&gt;9 -->
<g id="edge22" class="edge"><title>12&#45;&gt;9</title>
<path fill="none" stroke="green" d="M1563.1,-759.446C1504.16,-724.65 1297.92,-603.422 1265.82,-591.671 1168.97,-556.217 1045.79,-542.07 993.781,-537.41"/>
<polygon fill="green" stroke="green" points="994.059,-533.921 983.797,-536.555 993.462,-540.895 994.059,-533.921"/>
</g>
<!-- 43 -->
<g id="node60" class="node"><title>43</title>
<ellipse fill="none" stroke="black" cx="1604.82" cy="-691.311" rx="18.2703" ry="18.2703"/>
<text text-anchor="middle" x="1604.82" y="-689.111" font-family="Times New Roman,serif" font-size="9.00">43</text>
</g>
<!-- 12&#45;&gt;43 -->
<g id="edge89" class="edge"><title>12&#45;&gt;43</title>
<path fill="none" stroke="red" d="M1584.46,-752.154C1587.8,-742.339 1592.1,-729.686 1595.89,-718.544"/>
<polygon fill="red" stroke="red" points="1599.28,-719.456 1599.19,-708.862 1592.65,-717.202 1599.28,-719.456"/>
</g>
<!-- 12&#45;&gt;18 -->
<g id="edge34" class="edge"><title>12&#45;&gt;18</title>
<path fill="none" stroke="red" d="M1574.87,-751.78C1569.46,-731.065 1558.24,-695.632 1539.82,-670.098 1525.23,-649.887 1511.4,-654.308 1496.82,-634.098 1481.05,-612.254 1470.57,-583.166 1464.48,-562.245"/>
<polygon fill="red" stroke="red" points="1467.8,-561.123 1461.77,-552.415 1461.05,-562.986 1467.8,-561.123"/>
</g>
<!-- 80 -->
<g id="node46" class="node"><title>80</title>
<ellipse fill="none" stroke="black" cx="1512.82" cy="-691.311" rx="18.2703" ry="18.2703"/>
<text text-anchor="middle" x="1512.82" y="-689.111" font-family="Times New Roman,serif" font-size="9.00">80</text>
</g>
<!-- 13&#45;&gt;80 -->
<g id="edge104" class="edge"><title>13&#45;&gt;80</title>
<path fill="none" stroke="green" d="M1728.3,-762.993C1687.98,-749.765 1588.32,-717.078 1539.98,-701.222"/>
<polygon fill="green" stroke="green" points="1540.81,-697.809 1530.21,-698.018 1538.63,-704.46 1540.81,-697.809"/>
</g>
<!-- 13&#45;&gt;7 -->
<g id="edge24" class="edge"><title>13&#45;&gt;7</title>
<path fill="none" stroke="red" d="M1740.12,-751.996C1732.9,-731.804 1719.37,-697.198 1702.82,-670.098 1694.52,-656.512 1683.22,-642.655 1673.89,-632.098"/>
<polygon fill="red" stroke="red" points="1676.24,-629.474 1666.93,-624.407 1671.05,-634.171 1676.24,-629.474"/>
</g>
<!-- 67 -->
<g id="node88" class="node"><title>67</title>
<ellipse fill="none" stroke="black" cx="1701.82" cy="-75.2132" rx="18.2703" ry="18.2703"/>
<text text-anchor="middle" x="1701.82" y="-73.0132" font-family="Times New Roman,serif" font-size="9.00">67</text>
</g>
<!-- 13&#45;&gt;67 -->
<g id="edge64" class="edge"><title>13&#45;&gt;67</title>
<path fill="none" stroke="red" d="M1749.56,-751.568C1757.6,-713.087 1775.82,-616.921 1775.82,-535.458 1775.82,-535.458 1775.82,-535.458 1775.82,-225.409 1775.82,-175.362 1741.99,-124.785 1720.07,-97.2745"/>
<polygon fill="red" stroke="red" points="1722.75,-95.0204 1713.71,-89.5035 1717.34,-99.4569 1722.75,-95.0204"/>
</g>
<!-- 86 -->
<g id="node44" class="node"><title>86</title>
<ellipse fill="none" stroke="black" cx="1486.82" cy="-769.737" rx="18.2703" ry="18.2703"/>
<text text-anchor="middle" x="1486.82" y="-767.537" font-family="Times New Roman,serif" font-size="9.00">86</text>
</g>
<!-- 58&#45;&gt;86 -->
<g id="edge70" class="edge"><title>58&#45;&gt;86</title>
<path fill="none" stroke="green" d="M1374.3,-836.505C1394.62,-826.652 1430.01,-808.843 1458.82,-790.95 1460.54,-789.883 1462.29,-788.745 1464.04,-787.575"/>
<polygon fill="green" stroke="green" points="1466.36,-790.221 1472.55,-781.621 1462.35,-784.485 1466.36,-790.221"/>
</g>
<!-- 82&#45;&gt;131 -->
<g id="edge123" class="edge"><title>82&#45;&gt;131</title>
<path fill="none" stroke="green" d="M1199.19,-839.16C1240.88,-826.737 1347.02,-795.111 1399.09,-779.595"/>
<polygon fill="green" stroke="green" points="1400.16,-782.927 1408.75,-776.717 1398.17,-776.218 1400.16,-782.927"/>
</g>
<!-- 82&#45;&gt;72 -->
<g id="edge180" class="edge"><title>82&#45;&gt;72</title>
<path fill="none" stroke="green" d="M1194.88,-832.151C1223.14,-805.799 1290.12,-743.324 1324.17,-711.564"/>
<polygon fill="green" stroke="green" points="1326.77,-713.933 1331.69,-704.553 1321.99,-708.814 1326.77,-713.933"/>
</g>
<!-- 152 -->
<g id="node64" class="node"><title>152</title>
<ellipse fill="none" stroke="black" cx="290.817" cy="-534.458" rx="21.4286" ry="21.4286"/>
<text text-anchor="middle" x="290.817" y="-532.258" font-family="Times New Roman,serif" font-size="9.00">152</text>
</g>
<!-- 82&#45;&gt;152 -->
<g id="edge140" class="edge"><title>82&#45;&gt;152</title>
<path fill="none" stroke="green" d="M1167.39,-833.437C1163.22,-830.839 1158.52,-828.401 1153.82,-826.95 1064.44,-799.381 388.715,-845.607 312.817,-790.95 239.214,-737.946 251.997,-680.8 268.817,-591.671 270.643,-581.991 274.095,-571.84 277.732,-562.87"/>
<polygon fill="green" stroke="green" points="280.949,-564.248 281.682,-553.678 274.518,-561.484 280.949,-564.248"/>
</g>
<!-- 16&#45;&gt;119 -->
<g id="edge163" class="edge"><title>16&#45;&gt;119</title>
<path fill="none" stroke="red" d="M1017.94,-841.629C1043.78,-836.691 1090.33,-823.536 1110.82,-790.95 1123.86,-770.2 1119.88,-741.946 1113.8,-720.994"/>
<polygon fill="red" stroke="red" points="1117.1,-719.815 1110.72,-711.36 1110.44,-721.951 1117.1,-719.815"/>
</g>
<!-- 155 -->
<g id="node38" class="node"><title>155</title>
<ellipse fill="none" stroke="black" cx="950.817" cy="-769.737" rx="21.4286" ry="21.4286"/>
<text text-anchor="middle" x="950.817" y="-767.537" font-family="Times New Roman,serif" font-size="9.00">155</text>
</g>
<!-- 16&#45;&gt;155 -->
<g id="edge156" class="edge"><title>16&#45;&gt;155</title>
<path fill="none" stroke="red" d="M989.901,-829.441C983.59,-819.963 975.249,-807.435 967.894,-796.388"/>
<polygon fill="red" stroke="red" points="970.72,-794.316 962.264,-787.932 964.893,-798.195 970.72,-794.316"/>
</g>
<!-- 16&#45;&gt;94 -->
<g id="edge77" class="edge"><title>16&#45;&gt;94</title>
<path fill="none" stroke="green" d="M1000.73,-826.896C1002.11,-800.803 1004.71,-751.347 1006.35,-720.2"/>
<polygon fill="green" stroke="green" points="1009.85,-720.185 1006.88,-710.015 1002.86,-719.817 1009.85,-720.185"/>
</g>
<!-- 96 -->
<g id="node48" class="node"><title>96</title>
<ellipse fill="none" stroke="black" cx="1083.82" cy="-769.737" rx="18.2703" ry="18.2703"/>
<text text-anchor="middle" x="1083.82" y="-767.537" font-family="Times New Roman,serif" font-size="9.00">96</text>
</g>
<!-- 16&#45;&gt;96 -->
<g id="edge80" class="edge"><title>16&#45;&gt;96</title>
<path fill="none" stroke="red" d="M1013.31,-832.51C1026.66,-820.815 1047.28,-802.747 1062.78,-789.167"/>
<polygon fill="red" stroke="red" points="1065.14,-791.755 1070.35,-782.533 1060.53,-786.49 1065.14,-791.755"/>
</g>
<!-- 118 -->
<g id="node47" class="node"><title>118</title>
<ellipse fill="none" stroke="black" cx="884.817" cy="-612.884" rx="21.4286" ry="21.4286"/>
<text text-anchor="middle" x="884.817" y="-610.684" font-family="Times New Roman,serif" font-size="9.00">118</text>
</g>
<!-- 105&#45;&gt;118 -->
<g id="edge161" class="edge"><title>105&#45;&gt;118</title>
<path fill="none" stroke="green" d="M814.192,-676.647C827.318,-664.982 846.4,-648.024 861.421,-634.675"/>
<polygon fill="green" stroke="green" points="864.135,-636.946 869.285,-627.687 859.485,-631.714 864.135,-636.946"/>
</g>
<!-- 105&#45;&gt;9 -->
<g id="edge86" class="edge"><title>105&#45;&gt;9</title>
<path fill="none" stroke="green" d="M805.742,-671.017C814.353,-649.339 830.896,-614.238 854.817,-591.671 880.94,-567.026 919.923,-550.997 944.857,-542.59"/>
<polygon fill="green" stroke="green" points="946.159,-545.848 954.604,-539.451 944.013,-539.185 946.159,-545.848"/>
</g>
<!-- 21&#45;&gt;6 -->
<g id="edge146" class="edge"><title>21&#45;&gt;6</title>
<path fill="none" stroke="green" d="M510.701,-673.112C503.999,-634.571 488.817,-538.291 488.817,-457.032 488.817,-457.032 488.817,-457.032 488.817,-149.811 488.817,-91.0826 527.25,-80.187 579.817,-54 645.034,-21.511 874.695,-12.5408 945.723,-10.5158"/>
<polygon fill="green" stroke="green" points="946.152,-14.0057 956.055,-10.2393 945.965,-7.00818 946.152,-14.0057"/>
</g>
<!-- 21&#45;&gt;11 -->
<g id="edge128" class="edge"><title>21&#45;&gt;11</title>
<path fill="none" stroke="green" d="M502.995,-676.293C494.262,-664.981 481.82,-648.864 471.768,-635.842"/>
<polygon fill="green" stroke="green" points="474.451,-633.59 465.57,-627.813 468.91,-637.868 474.451,-633.59"/>
</g>
<!-- 21&#45;&gt;7 -->
<g id="edge148" class="edge"><title>21&#45;&gt;7</title>
<path fill="none" stroke="green" d="M532.045,-688.655C573.865,-684.903 679.948,-675.648 768.817,-670.098 1118.72,-648.243 1208.86,-676.954 1556.82,-634.098 1583.04,-630.867 1612.66,-624.537 1632.81,-619.817"/>
<polygon fill="green" stroke="green" points="1633.78,-623.186 1642.69,-617.456 1632.15,-616.378 1633.78,-623.186"/>
</g>
<!-- 25 -->
<g id="node67" class="node"><title>25</title>
<ellipse fill="none" stroke="black" cx="374.817" cy="-456.032" rx="18.2703" ry="18.2703"/>
<text text-anchor="middle" x="374.817" y="-453.832" font-family="Times New Roman,serif" font-size="9.00">25</text>
</g>
<!-- 21&#45;&gt;25 -->
<g id="edge144" class="edge"><title>21&#45;&gt;25</title>
<path fill="none" stroke="red" d="M497.141,-683.523C477.793,-674.832 446.203,-657.986 427.817,-634.098 393.258,-589.199 381.158,-522.001 376.977,-484.625"/>
<polygon fill="red" stroke="red" points="380.439,-484.077 375.956,-474.478 373.474,-484.778 380.439,-484.077"/>
</g>
<!-- 154 -->
<g id="node33" class="node"><title>154</title>
<ellipse fill="none" stroke="black" cx="342.817" cy="-769.737" rx="21.4286" ry="21.4286"/>
<text text-anchor="middle" x="342.817" y="-767.537" font-family="Times New Roman,serif" font-size="9.00">154</text>
</g>
<!-- 23&#45;&gt;154 -->
<g id="edge172" class="edge"><title>23&#45;&gt;154</title>
<path fill="none" stroke="green" d="M244.191,-834.409C262.78,-822.409 294.356,-802.023 316.768,-787.554"/>
<polygon fill="green" stroke="green" points="318.949,-790.312 325.452,-781.948 315.152,-784.431 318.949,-790.312"/>
</g>
<!-- 23&#45;&gt;10 -->
<g id="edge167" class="edge"><title>23&#45;&gt;10</title>
<path fill="none" stroke="green" d="M211.07,-840.16C176.894,-831.721 104.054,-811.67 89.8166,-790.95 41.3741,-720.453 69.296,-611.24 86.0389,-561.603"/>
<polygon fill="green" stroke="green" points="89.417,-562.546 89.4104,-551.951 82.8085,-560.238 89.417,-562.546"/>
</g>
<!-- 23&#45;&gt;25 -->
<g id="edge173" class="edge"><title>23&#45;&gt;25</title>
<path fill="none" stroke="green" d="M225.161,-827.282C214.952,-774.93 191.233,-613.975 260.817,-513.245 280.747,-484.393 319.859,-469.701 346.661,-462.706"/>
<polygon fill="green" stroke="green" points="347.706,-466.054 356.609,-460.312 346.068,-459.248 347.706,-466.054"/>
</g>
<!-- 157 -->
<g id="node40" class="node"><title>157</title>
<ellipse fill="none" stroke="black" cx="1178.82" cy="-769.737" rx="21.4286" ry="21.4286"/>
<text text-anchor="middle" x="1178.82" y="-767.537" font-family="Times New Roman,serif" font-size="9.00">157</text>
</g>
<!-- 95&#45;&gt;157 -->
<g id="edge119" class="edge"><title>95&#45;&gt;157</title>
<path fill="none" stroke="red" d="M1137.09,-829.795C1143.93,-820.114 1153.1,-807.14 1161.1,-795.819"/>
<polygon fill="red" stroke="red" points="1164.01,-797.753 1166.93,-787.566 1158.3,-793.713 1164.01,-797.753"/>
</g>
<!-- 69 -->
<g id="node51" class="node"><title>69</title>
<ellipse fill="none" stroke="black" cx="1160.82" cy="-691.311" rx="18.2703" ry="18.2703"/>
<text text-anchor="middle" x="1160.82" y="-689.111" font-family="Times New Roman,serif" font-size="9.00">69</text>
</g>
<!-- 95&#45;&gt;69 -->
<g id="edge176" class="edge"><title>95&#45;&gt;69</title>
<path fill="none" stroke="green" d="M1142.02,-834.692C1165.47,-819.787 1207.88,-792.677 1208.82,-790.95 1217.8,-774.374 1215.34,-766.215 1208.82,-748.524 1203.44,-733.94 1192.4,-720.573 1182.27,-710.535"/>
<polygon fill="green" stroke="green" points="1184.49,-707.825 1174.8,-703.544 1179.71,-712.934 1184.49,-707.825"/>
</g>
<!-- 115 -->
<g id="node49" class="node"><title>115</title>
<ellipse fill="none" stroke="black" cx="1190.82" cy="-612.884" rx="21.4286" ry="21.4286"/>
<text text-anchor="middle" x="1190.82" y="-610.684" font-family="Times New Roman,serif" font-size="9.00">115</text>
</g>
<!-- 47&#45;&gt;115 -->
<g id="edge121" class="edge"><title>47&#45;&gt;115</title>
<path fill="none" stroke="red" d="M1241.44,-676.293C1232.73,-665.547 1220.49,-650.463 1210.23,-637.817"/>
<polygon fill="red" stroke="red" points="1212.85,-635.49 1203.83,-629.929 1207.41,-639.9 1212.85,-635.49"/>
</g>
<!-- 47&#45;&gt;9 -->
<g id="edge179" class="edge"><title>47&#45;&gt;9</title>
<path fill="none" stroke="green" d="M1237.56,-680.574C1232.27,-677.227 1226.3,-673.474 1220.82,-670.098 1194.34,-653.793 1184.79,-653.902 1160.82,-634.098 1141.3,-617.977 1143.78,-605.864 1122.82,-591.671 1081.74,-563.858 1025.21,-547.86 993.31,-540.481"/>
<polygon fill="green" stroke="green" points="994.015,-537.053 983.495,-538.305 992.5,-543.887 994.015,-537.053"/>
</g>
<!-- 39 -->
<g id="node73" class="node"><title>39</title>
<ellipse fill="none" stroke="black" cx="1365.82" cy="-456.032" rx="18.2703" ry="18.2703"/>
<text text-anchor="middle" x="1365.82" y="-453.832" font-family="Times New Roman,serif" font-size="9.00">39</text>
</g>
<!-- 47&#45;&gt;39 -->
<g id="edge79" class="edge"><title>47&#45;&gt;39</title>
<path fill="none" stroke="green" d="M1260.58,-674.277C1279.94,-634.311 1330.45,-530.036 1353.74,-481.965"/>
<polygon fill="green" stroke="green" points="1356.94,-483.395 1358.14,-472.869 1350.64,-480.343 1356.94,-483.395"/>
</g>
<!-- 163 -->
<g id="node34" class="node"><title>163</title>
<ellipse fill="none" stroke="black" cx="342.817" cy="-691.311" rx="21.4286" ry="21.4286"/>
<text text-anchor="middle" x="342.817" y="-689.111" font-family="Times New Roman,serif" font-size="9.00">163</text>
</g>
<!-- 154&#45;&gt;163 -->
<g id="edge185" class="edge"><title>154&#45;&gt;163</title>
<path fill="none" stroke="red" d="M342.817,-748.256C342.817,-740.398 342.817,-731.253 342.817,-722.663"/>
<polygon fill="red" stroke="red" points="346.317,-722.583 342.817,-712.583 339.317,-722.583 346.317,-722.583"/>
</g>
<!-- 153 -->
<g id="node35" class="node"><title>153</title>
<ellipse fill="none" stroke="black" cx="359.817" cy="-612.884" rx="21.4286" ry="21.4286"/>
<text text-anchor="middle" x="359.817" y="-610.684" font-family="Times New Roman,serif" font-size="9.00">153</text>
</g>
<!-- 154&#45;&gt;153 -->
<g id="edge111" class="edge"><title>154&#45;&gt;153</title>
<path fill="none" stroke="red" d="M354.62,-751.918C361.408,-741.192 369.273,-726.689 372.817,-712.524 378.599,-689.408 374.374,-662.561 369.249,-642.717"/>
<polygon fill="red" stroke="red" points="372.604,-641.719 366.534,-633.035 365.864,-643.609 372.604,-641.719"/>
</g>
<!-- 154&#45;&gt;152 -->
<g id="edge164" class="edge"><title>154&#45;&gt;152</title>
<path fill="none" stroke="green" d="M330.907,-751.922C314.37,-727.407 285.302,-679.784 274.817,-634.098 269.463,-610.771 274.526,-583.941 280.333,-564.157"/>
<polygon fill="green" stroke="green" points="283.706,-565.099 283.386,-554.509 277.032,-562.987 283.706,-565.099"/>
</g>
<!-- 163&#45;&gt;153 -->
<g id="edge186" class="edge"><title>163&#45;&gt;153</title>
<path fill="none" stroke="red" d="M347.283,-670.231C349.079,-662.157 351.188,-652.677 353.158,-643.82"/>
<polygon fill="red" stroke="red" points="356.625,-644.352 355.38,-633.83 349.792,-642.832 356.625,-644.352"/>
</g>
<!-- 141 -->
<g id="node41" class="node"><title>141</title>
<ellipse fill="none" stroke="black" cx="592.817" cy="-534.458" rx="21.4286" ry="21.4286"/>
<text text-anchor="middle" x="592.817" y="-532.258" font-family="Times New Roman,serif" font-size="9.00">141</text>
</g>
<!-- 153&#45;&gt;141 -->
<g id="edge110" class="edge"><title>153&#45;&gt;141</title>
<path fill="none" stroke="red" d="M380.009,-605.73C393.515,-601.65 411.699,-596.231 427.817,-591.671 487.155,-574.884 505.512,-580.824 561.817,-555.671 563.62,-554.865 565.438,-553.961 567.241,-552.995"/>
<polygon fill="red" stroke="red" points="569.177,-555.916 575.988,-547.8 565.602,-549.897 569.177,-555.916"/>
</g>
<!-- 131&#45;&gt;72 -->
<g id="edge124" class="edge"><title>131&#45;&gt;72</title>
<path fill="none" stroke="green" d="M1413.41,-754.719C1399.98,-742.502 1380.39,-724.681 1365.58,-711.207"/>
<polygon fill="green" stroke="green" points="1367.67,-708.372 1357.92,-704.231 1362.96,-713.55 1367.67,-708.372"/>
</g>
<!-- 119&#45;&gt;56 -->
<g id="edge126" class="edge"><title>119&#45;&gt;56</title>
<path fill="none" stroke="green" d="M1100.94,-669.83C1100.14,-661.092 1099.19,-650.764 1098.33,-641.376"/>
<polygon fill="green" stroke="green" points="1101.81,-640.949 1097.41,-631.31 1094.84,-641.588 1101.81,-640.949"/>
</g>
<!-- 155&#45;&gt;94 -->
<g id="edge157" class="edge"><title>155&#45;&gt;94</title>
<path fill="none" stroke="red" d="M963.185,-752.154C971.353,-741.202 982.156,-726.717 991.088,-714.741"/>
<polygon fill="red" stroke="red" points="994.024,-716.659 997.197,-706.55 988.412,-712.474 994.024,-716.659"/>
</g>
<!-- 97 -->
<g id="node52" class="node"><title>97</title>
<ellipse fill="none" stroke="black" cx="1878.82" cy="-302.007" rx="18.2703" ry="18.2703"/>
<text text-anchor="middle" x="1878.82" y="-299.807" font-family="Times New Roman,serif" font-size="9.00">97</text>
</g>
<!-- 64&#45;&gt;97 -->
<g id="edge99" class="edge"><title>64&#45;&gt;97</title>
<path fill="none" stroke="green" d="M1878.82,-359.163C1878.82,-350.701 1878.82,-340.33 1878.82,-330.813"/>
<polygon fill="green" stroke="green" points="1882.32,-330.579 1878.82,-320.579 1875.32,-330.579 1882.32,-330.579"/>
</g>
<!-- 157&#45;&gt;69 -->
<g id="edge120" class="edge"><title>157&#45;&gt;69</title>
<path fill="none" stroke="red" d="M1174.09,-748.657C1171.98,-739.693 1169.46,-728.996 1167.18,-719.342"/>
<polygon fill="red" stroke="red" points="1170.54,-718.34 1164.84,-709.409 1163.73,-719.945 1170.54,-718.34"/>
</g>
<!-- 63 -->
<g id="node59" class="node"><title>63</title>
<ellipse fill="none" stroke="black" cx="670.817" cy="-456.032" rx="18.2703" ry="18.2703"/>
<text text-anchor="middle" x="670.817" y="-453.832" font-family="Times New Roman,serif" font-size="9.00">63</text>
</g>
<!-- 141&#45;&gt;63 -->
<g id="edge49" class="edge"><title>141&#45;&gt;63</title>
<path fill="none" stroke="green" d="M607.488,-519.083C619.662,-507.155 637.101,-490.067 650.598,-476.842"/>
<polygon fill="green" stroke="green" points="653.327,-479.069 658.02,-469.57 648.427,-474.069 653.327,-479.069"/>
</g>
<!-- 72&#45;&gt;9 -->
<g id="edge60" class="edge"><title>72&#45;&gt;9</title>
<path fill="none" stroke="green" d="M1332.43,-677.166C1311.52,-655.805 1266.98,-613.729 1220.82,-591.671 1143.31,-554.638 1040.63,-541.549 993.896,-537.308"/>
<polygon fill="green" stroke="green" points="994.037,-533.808 983.778,-536.451 993.446,-540.783 994.037,-533.808"/>
</g>
<!-- 72&#45;&gt;67 -->
<g id="edge101" class="edge"><title>72&#45;&gt;67</title>
<path fill="none" stroke="red" d="M1363.01,-687.554C1432.14,-677.04 1675.01,-639.764 1680.82,-634.098 1712.77,-602.918 1699.82,-580.104 1699.82,-535.458 1699.82,-535.458 1699.82,-535.458 1699.82,-225.409 1699.82,-182.958 1700.64,-133.719 1701.23,-103.778"/>
<polygon fill="red" stroke="red" points="1704.73,-103.738 1701.43,-93.6688 1697.73,-103.596 1704.73,-103.738"/>
</g>
<!-- 56&#45;&gt;10 -->
<g id="edge63" class="edge"><title>56&#45;&gt;10</title>
<path fill="none" stroke="green" d="M1077.61,-609.508C1045.02,-605.331 974.528,-596.645 914.817,-591.671 624.715,-567.507 550.786,-581.384 260.817,-555.671 212.777,-551.411 157.147,-544.1 124.306,-539.536"/>
<polygon fill="green" stroke="green" points="124.476,-536.025 114.087,-538.102 123.503,-542.958 124.476,-536.025"/>
</g>
<!-- 46 -->
<g id="node69" class="node"><title>46</title>
<ellipse fill="none" stroke="black" cx="1277.82" cy="-534.458" rx="18.2703" ry="18.2703"/>
<text text-anchor="middle" x="1277.82" y="-532.258" font-family="Times New Roman,serif" font-size="9.00">46</text>
</g>
<!-- 56&#45;&gt;46 -->
<g id="edge165" class="edge"><title>56&#45;&gt;46</title>
<path fill="none" stroke="green" d="M1113.4,-606.592C1141.92,-597.722 1199.74,-578.556 1245.82,-555.671 1248.61,-554.284 1251.47,-552.716 1254.27,-551.082"/>
<polygon fill="green" stroke="green" points="1256.2,-554.002 1262.89,-545.779 1252.53,-548.04 1256.2,-554.002"/>
</g>
<!-- 57 -->
<g id="node75" class="node"><title>57</title>
<ellipse fill="none" stroke="black" cx="1310.82" cy="-456.032" rx="18.2703" ry="18.2703"/>
<text text-anchor="middle" x="1310.82" y="-453.832" font-family="Times New Roman,serif" font-size="9.00">57</text>
</g>
<!-- 56&#45;&gt;57 -->
<g id="edge98" class="edge"><title>56&#45;&gt;57</title>
<path fill="none" stroke="red" d="M1113.25,-605.972C1137.2,-597.327 1180.92,-579.624 1212.82,-555.671 1233.06,-540.47 1233.12,-531.344 1250.82,-513.245 1263.3,-500.475 1277.92,-486.759 1289.6,-476.072"/>
<polygon fill="red" stroke="red" points="1292.1,-478.523 1297.15,-469.207 1287.4,-473.342 1292.1,-478.523"/>
</g>
<!-- 86&#45;&gt;8 -->
<g id="edge71" class="edge"><title>86&#45;&gt;8</title>
<path fill="none" stroke="green" d="M1476.01,-754.233C1468.39,-743.308 1458.56,-727.669 1452.82,-712.524 1443.51,-687.963 1438.92,-658.089 1436.72,-637.696"/>
<polygon fill="green" stroke="green" points="1440.2,-637.322 1435.75,-627.706 1433.23,-637.997 1440.2,-637.322"/>
</g>
<!-- 94&#45;&gt;9 -->
<g id="edge78" class="edge"><title>94&#45;&gt;9</title>
<path fill="none" stroke="green" d="M1004.38,-673.111C1000.35,-653.354 993.252,-620.013 985.817,-591.671 982.936,-580.692 979.346,-568.631 976.208,-558.506"/>
<polygon fill="green" stroke="green" points="979.489,-557.271 973.151,-548.781 972.811,-559.37 979.489,-557.271"/>
</g>
<!-- 80&#45;&gt;8 -->
<g id="edge105" class="edge"><title>80&#45;&gt;8</title>
<path fill="none" stroke="red" d="M1499.94,-677.69C1486.94,-664.955 1466.78,-645.202 1452.33,-631.048"/>
<polygon fill="red" stroke="red" points="1454.57,-628.34 1444.98,-623.841 1449.67,-633.34 1454.57,-628.34"/>
</g>
<!-- 118&#45;&gt;9 -->
<g id="edge162" class="edge"><title>118&#45;&gt;9</title>
<path fill="none" stroke="green" d="M900.224,-597.867C914.45,-584.922 935.593,-565.686 950.64,-551.996"/>
<polygon fill="green" stroke="green" points="953.248,-554.354 958.29,-545.036 948.537,-549.177 953.248,-554.354"/>
</g>
<!-- 90 -->
<g id="node62" class="node"><title>90</title>
<ellipse fill="none" stroke="black" cx="1050.82" cy="-302.007" rx="18.2703" ry="18.2703"/>
<text text-anchor="middle" x="1050.82" y="-299.807" font-family="Times New Roman,serif" font-size="9.00">90</text>
</g>
<!-- 96&#45;&gt;90 -->
<g id="edge81" class="edge"><title>96&#45;&gt;90</title>
<path fill="none" stroke="green" d="M1079.58,-751.595C1070.46,-713.17 1049.82,-617.109 1049.82,-535.458 1049.82,-535.458 1049.82,-535.458 1049.82,-455.032 1049.82,-411.779 1050.23,-361.606 1050.52,-331.096"/>
<polygon fill="green" stroke="green" points="1054.02,-330.829 1050.62,-320.794 1047.02,-330.759 1054.02,-330.829"/>
</g>
<!-- 115&#45;&gt;9 -->
<g id="edge122" class="edge"><title>115&#45;&gt;9</title>
<path fill="none" stroke="red" d="M1173.07,-600.569C1167.66,-597.418 1161.61,-594.176 1155.82,-591.671 1099.69,-567.421 1029.84,-549.44 993.455,-540.931"/>
<polygon fill="red" stroke="red" points="993.82,-537.423 983.29,-538.598 992.253,-544.246 993.82,-537.423"/>
</g>
<!-- 144 -->
<g id="node66" class="node"><title>144</title>
<ellipse fill="none" stroke="black" cx="1177.82" cy="-456.032" rx="21.4286" ry="21.4286"/>
<text text-anchor="middle" x="1177.82" y="-453.832" font-family="Times New Roman,serif" font-size="9.00">144</text>
</g>
<!-- 77&#45;&gt;144 -->
<g id="edge158" class="edge"><title>77&#45;&gt;144</title>
<path fill="none" stroke="red" d="M1184,-516.116C1183.11,-507.642 1182.02,-497.193 1181,-487.45"/>
<polygon fill="red" stroke="red" points="1184.46,-486.863 1179.94,-477.282 1177.5,-487.592 1184.46,-486.863"/>
</g>
<!-- 77&#45;&gt;53 -->
<g id="edge68" class="edge"><title>77&#45;&gt;53</title>
<path fill="none" stroke="green" d="M1199.27,-521.846C1214.08,-508.725 1236.38,-487.821 1240.82,-477.245 1272.43,-401.904 1260.23,-302.203 1251.58,-254.758"/>
<polygon fill="green" stroke="green" points="1254.96,-253.821 1249.64,-244.658 1248.09,-255.138 1254.96,-253.821"/>
</g>
<!-- 69&#45;&gt;11 -->
<g id="edge45" class="edge"><title>69&#45;&gt;11</title>
<path fill="none" stroke="red" d="M1147.44,-678.407C1143.06,-675.158 1137.99,-672.01 1132.82,-670.098 1071.18,-647.319 604.382,-621.665 483.388,-615.347"/>
<polygon fill="red" stroke="red" points="483.566,-611.852 473.398,-614.829 483.203,-618.843 483.566,-611.852"/>
</g>
<!-- 69&#45;&gt;18 -->
<g id="edge41" class="edge"><title>69&#45;&gt;18</title>
<path fill="none" stroke="green" d="M1176.78,-681.985C1225.63,-656.516 1373.34,-579.505 1432.71,-548.549"/>
<polygon fill="green" stroke="green" points="1434.52,-551.551 1441.77,-543.825 1431.28,-545.344 1434.52,-551.551"/>
</g>
<!-- 55 -->
<g id="node63" class="node"><title>55</title>
<ellipse fill="none" stroke="black" cx="1878.82" cy="-150.811" rx="18.2703" ry="18.2703"/>
<text text-anchor="middle" x="1878.82" y="-148.611" font-family="Times New Roman,serif" font-size="9.00">55</text>
</g>
<!-- 97&#45;&gt;55 -->
<g id="edge100" class="edge"><title>97&#45;&gt;55</title>
<path fill="none" stroke="green" d="M1878.82,-283.6C1878.82,-258.133 1878.82,-210.441 1878.82,-179.951"/>
<polygon fill="green" stroke="green" points="1882.32,-179.569 1878.82,-169.569 1875.32,-179.569 1882.32,-179.569"/>
</g>
<!-- 24 -->
<g id="node71" class="node"><title>24</title>
<ellipse fill="none" stroke="black" cx="534.817" cy="-534.458" rx="18.2703" ry="18.2703"/>
<text text-anchor="middle" x="534.817" y="-532.258" font-family="Times New Roman,serif" font-size="9.00">24</text>
</g>
<!-- 91&#45;&gt;24 -->
<g id="edge76" class="edge"><title>91&#45;&gt;24</title>
<path fill="none" stroke="green" d="M315.729,-600.348C320.044,-597.191 324.95,-594.001 329.817,-591.671 389.554,-563.075 466.281,-546.947 506.821,-539.859"/>
<polygon fill="green" stroke="green" points="507.508,-543.293 516.784,-538.173 506.34,-536.391 507.508,-543.293"/>
</g>
<!-- 10&#45;&gt;6 -->
<g id="edge1" class="edge"><title>10&#45;&gt;6</title>
<path fill="none" stroke="green" d="M96.569,-515.812C97.7277,-487.071 99.8166,-428.357 99.8166,-378.605 99.8166,-378.605 99.8166,-378.605 99.8166,-149.811 99.8166,-105.447 93.0277,-81.5297 127.817,-54 160.884,-27.8329 818.993,-13.0337 945.783,-10.4196"/>
<polygon fill="green" stroke="green" points="946.142,-13.9131 956.069,-10.2104 946,-6.91457 946.142,-13.9131"/>
</g>
<!-- 11&#45;&gt;6 -->
<g id="edge82" class="edge"><title>11&#45;&gt;6</title>
<path fill="none" stroke="red" d="M454.064,-594.238C452.906,-565.498 450.817,-506.784 450.817,-457.032 450.817,-457.032 450.817,-457.032 450.817,-149.811 450.817,-105.913 441.448,-82.5236 474.817,-54 511.116,-22.9716 856.701,-12.6281 945.895,-10.464"/>
<polygon fill="red" stroke="red" points="946.182,-13.9583 956.098,-10.2255 946.019,-6.96018 946.182,-13.9583"/>
</g>
<!-- 11&#45;&gt;152 -->
<g id="edge115" class="edge"><title>11&#45;&gt;152</title>
<path fill="none" stroke="red" d="M438.492,-604.277C410.573,-591.266 353.339,-564.594 318.899,-548.545"/>
<polygon fill="red" stroke="red" points="320.375,-545.371 309.832,-544.32 317.418,-551.716 320.375,-545.371"/>
</g>
<!-- 11&#45;&gt;25 -->
<g id="edge175" class="edge"><title>11&#45;&gt;25</title>
<path fill="none" stroke="green" d="M446.706,-596.184C432.81,-569.287 404.344,-514.187 387.704,-481.978"/>
<polygon fill="green" stroke="green" points="390.649,-480.051 382.949,-472.773 384.43,-483.264 390.649,-480.051"/>
</g>
<!-- 11&#45;&gt;24 -->
<g id="edge4" class="edge"><title>11&#45;&gt;24</title>
<path fill="none" stroke="red" d="M467.67,-599.605C480.266,-587.572 499.663,-569.041 514.376,-554.986"/>
<polygon fill="red" stroke="red" points="517.182,-557.145 521.995,-547.707 512.347,-552.084 517.182,-557.145"/>
</g>
<!-- 7&#45;&gt;6 -->
<g id="edge7" class="edge"><title>7&#45;&gt;6</title>
<path fill="none" stroke="green" d="M1656.66,-597.793C1656.39,-570.584 1655.82,-508.919 1655.82,-457.032 1655.82,-457.032 1655.82,-457.032 1655.82,-149.811 1655.82,-86.9639 1609.46,-79.0374 1551.82,-54 1447.45,-8.66865 1079.6,-8.94975 987.73,-9.7544"/>
<polygon fill="green" stroke="green" points="987.463,-6.25681 977.499,-9.85699 987.534,-13.2565 987.463,-6.25681"/>
</g>
<!-- 7&#45;&gt;18 -->
<g id="edge33" class="edge"><title>7&#45;&gt;18</title>
<path fill="none" stroke="red" d="M1645.81,-602.83C1640.62,-598.929 1634.17,-594.6 1627.82,-591.671 1570.25,-565.135 1547.97,-580.895 1489.82,-555.671 1486.9,-554.405 1483.94,-552.894 1481.05,-551.276"/>
<polygon fill="red" stroke="red" points="1482.63,-548.135 1472.27,-545.915 1478.98,-554.111 1482.63,-548.135"/>
</g>
<!-- 7&#45;&gt;53 -->
<g id="edge103" class="edge"><title>7&#45;&gt;53</title>
<path fill="none" stroke="green" d="M1645.41,-602.889C1640.24,-599.091 1633.92,-594.828 1627.82,-591.671 1585.86,-569.978 1565.57,-584.062 1527.82,-555.671 1468.16,-510.808 1384.7,-335.27 1330.82,-283.622 1312.65,-266.213 1288.44,-250.799 1270.5,-240.536"/>
<polygon fill="green" stroke="green" points="1272.2,-237.474 1261.76,-235.655 1268.78,-243.586 1272.2,-237.474"/>
</g>
<!-- 7&#45;&gt;68 -->
<g id="edge114" class="edge"><title>7&#45;&gt;68</title>
<path fill="none" stroke="green" d="M1644.51,-603.768C1614.84,-583.117 1541.82,-525.345 1541.82,-457.032 1541.82,-457.032 1541.82,-457.032 1541.82,-301.007 1541.82,-181.982 1348.61,-157.897 1274.38,-153.036"/>
<polygon fill="green" stroke="green" points="1274.52,-149.538 1264.33,-152.449 1274.11,-156.526 1274.52,-149.538"/>
</g>
<!-- 9&#45;&gt;6 -->
<g id="edge15" class="edge"><title>9&#45;&gt;6</title>
<path fill="none" stroke="green" d="M968.513,-519.367C967.953,-492.16 966.817,-430.496 966.817,-378.605 966.817,-378.605 966.817,-378.605 966.817,-149.811 966.817,-106.255 966.817,-55.0657 966.817,-28.3454"/>
<polygon fill="green" stroke="green" points="970.317,-28.1945 966.817,-18.1945 963.317,-28.1945 970.317,-28.1945"/>
</g>
<!-- 9&#45;&gt;104 -->
<g id="edge84" class="edge"><title>9&#45;&gt;104</title>
<path fill="none" stroke="red" d="M956.175,-525.85C935.858,-513.624 895.497,-489.335 868.572,-473.132"/>
<polygon fill="red" stroke="red" points="870.036,-469.929 859.664,-467.772 866.427,-475.927 870.036,-469.929"/>
</g>
<!-- 9&#45;&gt;26 -->
<g id="edge36" class="edge"><title>9&#45;&gt;26</title>
<path fill="none" stroke="green" d="M959.683,-522.321C938.71,-496.749 886.809,-433.465 859.408,-400.055"/>
<polygon fill="green" stroke="green" points="862.051,-397.758 853.004,-392.245 856.639,-402.197 862.051,-397.758"/>
</g>
<!-- 9&#45;&gt;53 -->
<g id="edge132" class="edge"><title>9&#45;&gt;53</title>
<path fill="none" stroke="red" d="M983.507,-532.122C1030.66,-527.523 1176.88,-510.76 1207.82,-477.245 1237.24,-445.367 1243.88,-313.656 1245.38,-255.372"/>
<polygon fill="red" stroke="red" points="1248.89,-255.14 1245.61,-245.065 1241.89,-254.984 1248.89,-255.14"/>
</g>
<!-- 8&#45;&gt;6 -->
<g id="edge27" class="edge"><title>8&#45;&gt;6</title>
<path fill="none" stroke="green" d="M1432.47,-598.047C1429.61,-578.861 1425.77,-543.158 1430.82,-513.245 1447.27,-415.711 1503.82,-401.919 1503.82,-303.007 1503.82,-303.007 1503.82,-303.007 1503.82,-149.811 1503.82,-41.1579 1086.9,-15.432 987.777,-10.8511"/>
<polygon fill="green" stroke="green" points="987.687,-7.34394 977.543,-10.4026 987.381,-14.3372 987.687,-7.34394"/>
</g>
<!-- 8&#45;&gt;46 -->
<g id="edge117" class="edge"><title>8&#45;&gt;46</title>
<path fill="none" stroke="green" d="M1421.7,-605.5C1395.68,-592.831 1337.1,-564.317 1303.26,-547.843"/>
<polygon fill="green" stroke="green" points="1304.54,-544.573 1294.02,-543.343 1301.47,-550.867 1304.54,-544.573"/>
</g>
<!-- 8&#45;&gt;39 -->
<g id="edge177" class="edge"><title>8&#45;&gt;39</title>
<path fill="none" stroke="green" d="M1425.9,-600.373C1417.72,-589.38 1405.71,-572.1 1397.82,-555.671 1386.66,-532.456 1377.98,-504.382 1372.49,-484.131"/>
<polygon fill="green" stroke="green" points="1375.84,-483.105 1369.92,-474.321 1369.07,-484.882 1375.84,-483.105"/>
</g>
<!-- 63&#45;&gt;26 -->
<g id="edge39" class="edge"><title>63&#45;&gt;26</title>
<path fill="none" stroke="red" d="M687.213,-447.703C717.013,-434.385 780.264,-406.115 815.939,-390.171"/>
<polygon fill="red" stroke="red" points="817.517,-393.299 825.219,-386.023 814.661,-386.908 817.517,-393.299"/>
</g>
<!-- 110 -->
<g id="node70" class="node"><title>110</title>
<ellipse fill="none" stroke="black" cx="1526.82" cy="-612.884" rx="21.4286" ry="21.4286"/>
<text text-anchor="middle" x="1526.82" y="-610.684" font-family="Times New Roman,serif" font-size="9.00">110</text>
</g>
<!-- 43&#45;&gt;110 -->
<g id="edge188" class="edge"><title>43&#45;&gt;110</title>
<path fill="none" stroke="red" d="M1591.94,-677.69C1580.25,-666.243 1562.78,-649.125 1548.88,-635.501"/>
<polygon fill="red" stroke="red" points="1551.17,-632.848 1541.58,-628.349 1546.27,-637.848 1551.17,-632.848"/>
</g>
<!-- 43&#45;&gt;18 -->
<g id="edge90" class="edge"><title>43&#45;&gt;18</title>
<path fill="none" stroke="green" d="M1600.15,-673.421C1593.54,-652.125 1579.64,-615.432 1556.82,-591.671 1533.4,-567.293 1519.01,-572.708 1489.82,-555.671 1487.12,-554.099 1484.33,-552.415 1481.56,-550.715"/>
<polygon fill="green" stroke="green" points="1483.32,-547.684 1472.98,-545.344 1479.6,-553.617 1483.32,-547.684"/>
</g>
<!-- 37&#45;&gt;26 -->
<g id="edge139" class="edge"><title>37&#45;&gt;26</title>
<path fill="none" stroke="green" d="M736.837,-519.181C745.562,-507.847 758.031,-491.579 768.817,-477.245 788.343,-451.293 810.5,-421.272 825.23,-401.23"/>
<polygon fill="green" stroke="green" points="828.151,-403.166 831.249,-393.034 822.509,-399.022 828.151,-403.166"/>
</g>
<!-- 90&#45;&gt;53 -->
<g id="edge74" class="edge"><title>90&#45;&gt;53</title>
<path fill="none" stroke="red" d="M1066.51,-291.811C1071.62,-288.998 1077.38,-286.018 1082.82,-283.622 1129.29,-263.154 1185.75,-245.128 1218.55,-235.296"/>
<polygon fill="red" stroke="red" points="1219.73,-238.596 1228.33,-232.399 1217.74,-231.885 1219.73,-238.596"/>
</g>
<!-- 55&#45;&gt;6 -->
<g id="edge54" class="edge"><title>55&#45;&gt;6</title>
<path fill="none" stroke="red" d="M1877.03,-132.171C1873.73,-109.82 1864.47,-72.0409 1838.82,-54 1802.86,-28.7148 1115.92,-13.1225 987.427,-10.421"/>
<polygon fill="red" stroke="red" points="987.422,-6.92026 977.352,-10.2117 987.277,-13.9187 987.422,-6.92026"/>
</g>
<!-- 83 -->
<g id="node76" class="node"><title>83</title>
<ellipse fill="none" stroke="black" cx="1908.82" cy="-75.2132" rx="18.2703" ry="18.2703"/>
<text text-anchor="middle" x="1908.82" y="-73.0132" font-family="Times New Roman,serif" font-size="9.00">83</text>
</g>
<!-- 55&#45;&gt;83 -->
<g id="edge96" class="edge"><title>55&#45;&gt;83</title>
<path fill="none" stroke="red" d="M1885.47,-133.477C1889.24,-124.235 1894.04,-112.467 1898.3,-102.005"/>
<polygon fill="red" stroke="red" points="1901.64,-103.083 1902.18,-92.5013 1895.16,-100.44 1901.64,-103.083"/>
</g>
<!-- 152&#45;&gt;25 -->
<g id="edge116" class="edge"><title>152&#45;&gt;25</title>
<path fill="none" stroke="red" d="M306.224,-519.44C319.651,-507.223 339.239,-489.401 354.048,-475.927"/>
<polygon fill="red" stroke="red" points="356.673,-478.271 361.715,-468.952 351.963,-473.093 356.673,-478.271"/>
</g>
<!-- 169&#45;&gt;6 -->
<g id="edge137" class="edge"><title>169&#45;&gt;6</title>
<path fill="none" stroke="red" d="M751.955,-205.282C756.832,-169.567 772.058,-95.0126 816.817,-54 853.349,-20.5251 914.069,-12.418 945.894,-10.5212"/>
<polygon fill="red" stroke="red" points="946.376,-14.0035 956.213,-10.0679 946.069,-7.01024 946.376,-14.0035"/>
</g>
<!-- 144&#45;&gt;26 -->
<g id="edge190" class="edge"><title>144&#45;&gt;26</title>
<path fill="none" stroke="red" d="M1157.3,-450.366C1099.54,-437.226 935.435,-399.9 869.624,-384.93"/>
<polygon fill="red" stroke="red" points="870.109,-381.451 859.581,-382.646 868.556,-388.277 870.109,-381.451"/>
</g>
<!-- 144&#45;&gt;53 -->
<g id="edge159" class="edge"><title>144&#45;&gt;53</title>
<path fill="none" stroke="red" d="M1179.76,-434.898C1183.38,-402.239 1192.7,-336.087 1212.82,-283.622 1217.22,-272.135 1223.84,-260.266 1229.99,-250.411"/>
<polygon fill="red" stroke="red" points="1232.94,-252.294 1235.44,-241.997 1227.06,-248.491 1232.94,-252.294"/>
</g>
<!-- 25&#45;&gt;6 -->
<g id="edge40" class="edge"><title>25&#45;&gt;6</title>
<path fill="none" stroke="red" d="M378.39,-437.792C383.894,-409.694 393.817,-352.214 393.817,-303.007 393.817,-303.007 393.817,-303.007 393.817,-149.811 393.817,-103.137 398.718,-80.9631 436.817,-54 479.05,-24.1108 853.653,-12.83 946.209,-10.4858"/>
<polygon fill="red" stroke="red" points="946.363,-13.9831 956.273,-10.2384 946.19,-6.98526 946.363,-13.9831"/>
</g>
<!-- 104&#45;&gt;26 -->
<g id="edge85" class="edge"><title>104&#45;&gt;26</title>
<path fill="none" stroke="red" d="M841.817,-434.551C841.817,-425.813 841.817,-415.485 841.817,-406.097"/>
<polygon fill="red" stroke="red" points="845.317,-406.031 841.817,-396.031 838.317,-406.031 845.317,-406.031"/>
</g>
<!-- 46&#45;&gt;39 -->
<g id="edge118" class="edge"><title>46&#45;&gt;39</title>
<path fill="none" stroke="green" d="M1291.57,-521.516C1305.77,-509.177 1328.14,-489.756 1344.61,-475.449"/>
<polygon fill="green" stroke="green" points="1346.91,-478.089 1352.16,-468.889 1342.32,-472.804 1346.91,-478.089"/>
</g>
<!-- 46&#45;&gt;57 -->
<g id="edge155" class="edge"><title>46&#45;&gt;57</title>
<path fill="none" stroke="green" d="M1284.82,-517.25C1289.15,-507.219 1294.8,-494.118 1299.73,-482.699"/>
<polygon fill="green" stroke="green" points="1303.08,-483.784 1303.83,-473.216 1296.65,-481.01 1303.08,-483.784"/>
</g>
<!-- 110&#45;&gt;18 -->
<g id="edge189" class="edge"><title>110&#45;&gt;18</title>
<path fill="none" stroke="red" d="M1512.85,-596.418C1502.52,-584.969 1488.31,-569.236 1476.92,-556.621"/>
<polygon fill="red" stroke="red" points="1479.21,-553.935 1469.91,-548.858 1474.02,-558.626 1479.21,-553.935"/>
</g>
<!-- 24&#45;&gt;6 -->
<g id="edge181" class="edge"><title>24&#45;&gt;6</title>
<path fill="none" stroke="red" d="M548.096,-521.224C573.131,-496.754 624.817,-438.929 624.817,-378.605 624.817,-378.605 624.817,-378.605 624.817,-149.811 624.817,-79.9516 872.408,-27.7561 946.263,-13.7405"/>
<polygon fill="red" stroke="red" points="947.017,-17.1602 956.206,-11.8866 945.734,-10.2788 947.017,-17.1602"/>
</g>
<!-- 180 -->
<g id="node81" class="node"><title>180</title>
<ellipse fill="none" stroke="black" cx="537.817" cy="-456.032" rx="21.4286" ry="21.4286"/>
<text text-anchor="middle" x="537.817" y="-453.832" font-family="Times New Roman,serif" font-size="9.00">180</text>
</g>
<!-- 24&#45;&gt;180 -->
<g id="edge168" class="edge"><title>24&#45;&gt;180</title>
<path fill="none" stroke="green" d="M535.512,-515.732C535.843,-507.313 536.247,-497.009 536.625,-487.398"/>
<polygon fill="green" stroke="green" points="540.124,-487.491 537.019,-477.362 533.129,-487.217 540.124,-487.491"/>
</g>
<!-- 101 -->
<g id="node87" class="node"><title>101</title>
<ellipse fill="none" stroke="black" cx="575.817" cy="-377.605" rx="21.4286" ry="21.4286"/>
<text text-anchor="middle" x="575.817" y="-375.405" font-family="Times New Roman,serif" font-size="9.00">101</text>
</g>
<!-- 24&#45;&gt;101 -->
<g id="edge174" class="edge"><title>24&#45;&gt;101</title>
<path fill="none" stroke="red" d="M545.742,-519.06C553.353,-508.188 562.977,-492.568 567.817,-477.245 574.79,-455.163 576.638,-428.992 576.825,-409.158"/>
<polygon fill="red" stroke="red" points="580.325,-409.124 576.785,-399.138 573.325,-409.152 580.325,-409.124"/>
</g>
<!-- 26&#45;&gt;6 -->
<g id="edge13" class="edge"><title>26&#45;&gt;6</title>
<path fill="none" stroke="green" d="M839.696,-359.179C836.499,-331.365 830.817,-275.198 830.817,-227.409 830.817,-227.409 830.817,-227.409 830.817,-149.811 830.817,-83.9121 909.41,-37.4091 947.105,-18.8953"/>
<polygon fill="green" stroke="green" points="948.609,-22.0557 956.145,-14.6087 945.61,-15.7307 948.609,-22.0557"/>
</g>
<!-- 65 -->
<g id="node80" class="node"><title>65</title>
<ellipse fill="none" stroke="black" cx="916.817" cy="-302.007" rx="18.2703" ry="18.2703"/>
<text text-anchor="middle" x="916.817" y="-299.807" font-family="Times New Roman,serif" font-size="9.00">65</text>
</g>
<!-- 26&#45;&gt;65 -->
<g id="edge47" class="edge"><title>26&#45;&gt;65</title>
<path fill="none" stroke="red" d="M854.539,-364.12C866.068,-352.807 883.253,-335.944 896.651,-322.796"/>
<polygon fill="red" stroke="red" points="899.345,-325.055 904.031,-315.553 894.443,-320.059 899.345,-325.055"/>
</g>
<!-- 42 -->
<g id="node85" class="node"><title>42</title>
<ellipse fill="none" stroke="black" cx="919.817" cy="-150.811" rx="18.2703" ry="18.2703"/>
<text text-anchor="middle" x="919.817" y="-148.611" font-family="Times New Roman,serif" font-size="9.00">42</text>
</g>
<!-- 26&#45;&gt;42 -->
<g id="edge51" class="edge"><title>26&#45;&gt;42</title>
<path fill="none" stroke="red" d="M844.855,-359.047C850.693,-327.405 864.961,-259.092 887.817,-205.196 892.246,-194.75 898.426,-183.893 904.174,-174.718"/>
<polygon fill="red" stroke="red" points="907.203,-176.479 909.698,-166.182 901.327,-172.676 907.203,-176.479"/>
</g>
<!-- 39&#45;&gt;6 -->
<g id="edge23" class="edge"><title>39&#45;&gt;6</title>
<path fill="none" stroke="green" d="M1370.33,-437.844C1377.28,-409.818 1389.82,-352.439 1389.82,-303.007 1389.82,-303.007 1389.82,-303.007 1389.82,-149.811 1389.82,-83.6266 1336.24,-80.9986 1275.82,-54 1223.76,-30.742 1048.49,-15.9895 987.75,-11.475"/>
<polygon fill="green" stroke="green" points="987.724,-7.96397 977.497,-10.7301 987.217,-14.9456 987.724,-7.96397"/>
</g>
<!-- 39&#45;&gt;53 -->
<g id="edge57" class="edge"><title>39&#45;&gt;53</title>
<path fill="none" stroke="green" d="M1357.99,-439.317C1339.81,-402.822 1294.98,-313.198 1278.82,-283.622 1272.98,-272.937 1266.21,-261.302 1260.34,-251.404"/>
<polygon fill="green" stroke="green" points="1263.17,-249.321 1255.03,-242.534 1257.16,-252.913 1263.17,-249.321"/>
</g>
<!-- 18&#45;&gt;57 -->
<g id="edge53" class="edge"><title>18&#45;&gt;57</title>
<path fill="none" stroke="green" d="M1440.76,-526.576C1417.2,-516.806 1373.64,-497.804 1338.82,-477.245 1337.07,-476.216 1335.3,-475.107 1333.55,-473.957"/>
<polygon fill="green" stroke="green" points="1335.22,-470.861 1325.01,-468.046 1331.24,-476.616 1335.22,-470.861"/>
</g>
<!-- 18&#45;&gt;53 -->
<g id="edge38" class="edge"><title>18&#45;&gt;53</title>
<path fill="none" stroke="green" d="M1449.74,-517.697C1428.52,-476.952 1368.27,-365.592 1302.82,-283.622 1292.07,-270.163 1278.37,-256.562 1267.1,-246.111"/>
<polygon fill="green" stroke="green" points="1269.14,-243.243 1259.39,-239.104 1264.44,-248.422 1269.14,-243.243"/>
</g>
<!-- 38 -->
<g id="node86" class="node"><title>38</title>
<ellipse fill="none" stroke="black" cx="1598.82" cy="-226.409" rx="18.2703" ry="18.2703"/>
<text text-anchor="middle" x="1598.82" y="-224.209" font-family="Times New Roman,serif" font-size="9.00">38</text>
</g>
<!-- 18&#45;&gt;38 -->
<g id="edge94" class="edge"><title>18&#45;&gt;38</title>
<path fill="none" stroke="green" d="M1465.2,-517.434C1488.23,-467.453 1558.87,-314.106 1587.04,-252.964"/>
<polygon fill="green" stroke="green" points="1590.33,-254.19 1591.34,-243.643 1583.97,-251.261 1590.33,-254.19"/>
</g>
<!-- 57&#45;&gt;75 -->
<g id="edge65" class="edge"><title>57&#45;&gt;75</title>
<path fill="none" stroke="red" d="M1293.87,-448.249C1260.45,-434.879 1185.88,-405.038 1146.06,-389.105"/>
<polygon fill="red" stroke="red" points="1147.31,-385.838 1136.73,-385.372 1144.71,-392.337 1147.31,-385.838"/>
</g>
<!-- 83&#45;&gt;6 -->
<g id="edge97" class="edge"><title>83&#45;&gt;6</title>
<path fill="none" stroke="red" d="M1894.63,-63.0474C1889.34,-59.4956 1883.08,-55.9785 1876.82,-54 1789.52,-26.4344 1115.82,-12.7405 987.79,-10.3738"/>
<polygon fill="red" stroke="red" points="987.491,-6.86789 977.429,-10.1852 987.364,-13.8667 987.491,-6.86789"/>
</g>
<!-- 87 -->
<g id="node78" class="node"><title>87</title>
<ellipse fill="none" stroke="black" cx="1142.82" cy="-302.007" rx="18.2703" ry="18.2703"/>
<text text-anchor="middle" x="1142.82" y="-299.807" font-family="Times New Roman,serif" font-size="9.00">87</text>
</g>
<!-- 75&#45;&gt;87 -->
<g id="edge141" class="edge"><title>75&#45;&gt;87</title>
<path fill="none" stroke="red" d="M1125.04,-359.905C1127.84,-350.935 1131.36,-339.666 1134.53,-329.529"/>
<polygon fill="red" stroke="red" points="1137.9,-330.485 1137.54,-319.896 1131.22,-328.397 1137.9,-330.485"/>
</g>
<!-- 75&#45;&gt;53 -->
<g id="edge149" class="edge"><title>75&#45;&gt;53</title>
<path fill="none" stroke="red" d="M1113.66,-359.947C1107.45,-340.049 1100.73,-306.578 1115.82,-283.622 1138.28,-249.431 1186.46,-235.939 1217.44,-230.682"/>
<polygon fill="red" stroke="red" points="1218.24,-234.101 1227.61,-229.146 1217.2,-227.179 1218.24,-234.101"/>
</g>
<!-- 87&#45;&gt;53 -->
<g id="edge142" class="edge"><title>87&#45;&gt;53</title>
<path fill="none" stroke="red" d="M1157.57,-290.462C1174.63,-278.275 1202.91,-258.071 1222.85,-243.823"/>
<polygon fill="red" stroke="red" points="1224.99,-246.596 1231.09,-237.934 1220.92,-240.9 1224.99,-246.596"/>
</g>
<!-- 53&#45;&gt;68 -->
<g id="edge88" class="edge"><title>53&#45;&gt;68</title>
<path fill="none" stroke="red" d="M1245.82,-207.967C1245.82,-199.505 1245.82,-189.134 1245.82,-179.617"/>
<polygon fill="red" stroke="red" points="1249.32,-179.383 1245.82,-169.383 1242.32,-179.383 1249.32,-179.383"/>
</g>
<!-- 145 -->
<g id="node83" class="node"><title>145</title>
<ellipse fill="none" stroke="black" cx="917.817" cy="-226.409" rx="21.4286" ry="21.4286"/>
<text text-anchor="middle" x="917.817" y="-224.209" font-family="Times New Roman,serif" font-size="9.00">145</text>
</g>
<!-- 65&#45;&gt;145 -->
<g id="edge153" class="edge"><title>65&#45;&gt;145</title>
<path fill="none" stroke="red" d="M917.054,-283.565C917.157,-275.95 917.282,-266.788 917.4,-258.095"/>
<polygon fill="red" stroke="red" points="920.903,-257.905 917.539,-247.858 913.903,-257.81 920.903,-257.905"/>
</g>
<!-- 180&#45;&gt;101 -->
<g id="edge169" class="edge"><title>180&#45;&gt;101</title>
<path fill="none" stroke="red" d="M547.015,-436.531C551.543,-427.425 557.093,-416.262 562.109,-406.175"/>
<polygon fill="red" stroke="red" points="565.384,-407.448 566.703,-396.935 559.116,-404.331 565.384,-407.448"/>
</g>
<!-- 106 -->
<g id="node84" class="node"><title>106</title>
<ellipse fill="none" stroke="black" cx="1245.82" cy="-75.2132" rx="21.4286" ry="21.4286"/>
<text text-anchor="middle" x="1245.82" y="-73.0132" font-family="Times New Roman,serif" font-size="9.00">106</text>
</g>
<!-- 68&#45;&gt;106 -->
<g id="edge91" class="edge"><title>68&#45;&gt;106</title>
<path fill="none" stroke="red" d="M1245.82,-132.369C1245.82,-124.754 1245.82,-115.592 1245.82,-106.899"/>
<polygon fill="red" stroke="red" points="1249.32,-106.662 1245.82,-96.6624 1242.32,-106.662 1249.32,-106.662"/>
</g>
<!-- 145&#45;&gt;42 -->
<g id="edge154" class="edge"><title>145&#45;&gt;42</title>
<path fill="none" stroke="red" d="M918.374,-204.908C918.588,-197.013 918.837,-187.863 919.067,-179.407"/>
<polygon fill="red" stroke="red" points="922.571,-179.304 919.344,-169.212 915.573,-179.113 922.571,-179.304"/>
</g>
<!-- 42&#45;&gt;6 -->
<g id="edge28" class="edge"><title>42&#45;&gt;6</title>
<path fill="none" stroke="green" d="M925.393,-133.224C934.283,-106.777 951.6,-55.2636 960.775,-27.9709"/>
<polygon fill="green" stroke="green" points="964.192,-28.7922 964.061,-18.1981 957.557,-26.5616 964.192,-28.7922"/>
</g>
<!-- 42&#45;&gt;67 -->
<g id="edge56" class="edge"><title>42&#45;&gt;67</title>
<path fill="none" stroke="green" d="M938.376,-148.064C1041.87,-138.324 1547.57,-90.7306 1673.41,-78.8863"/>
<polygon fill="green" stroke="green" points="1673.8,-82.3653 1683.43,-77.9436 1673.15,-75.3961 1673.8,-82.3653"/>
</g>
<!-- 38&#45;&gt;6 -->
<g id="edge95" class="edge"><title>38&#45;&gt;6</title>
<path fill="none" stroke="red" d="M1596.39,-208.165C1590.37,-172.492 1571.17,-90.8529 1517.82,-54 1473.53,-23.4045 1083.59,-12.6401 987.933,-10.4477"/>
<polygon fill="red" stroke="red" points="987.845,-6.94498 977.769,-10.2221 987.689,-13.9433 987.845,-6.94498"/>
</g>
<!-- 101&#45;&gt;6 -->
<g id="edge113" class="edge"><title>101&#45;&gt;6</title>
<path fill="none" stroke="green" d="M576.926,-356.342C578.399,-327.651 580.817,-273.541 580.817,-227.409 580.817,-227.409 580.817,-227.409 580.817,-149.811 580.817,-105.19 576.55,-82.5804 610.817,-54 662.129,-11.2027 877.553,-9.23762 945.909,-9.72186"/>
<polygon fill="green" stroke="green" points="946.202,-13.2248 956.236,-9.82306 946.271,-6.22514 946.202,-13.2248"/>
</g>
<!-- 67&#45;&gt;6 -->
<g id="edge184" class="edge"><title>67&#45;&gt;6</title>
<path fill="none" stroke="green" d="M1687.62,-63.0969C1682.32,-59.5498 1676.07,-56.023 1669.82,-54 1538.18,-11.406 1090.01,-9.73342 987.72,-9.91915"/>
<polygon fill="green" stroke="green" points="987.463,-6.41973 977.472,-9.94667 987.482,-13.4197 987.463,-6.41973"/>
</g>
</g>
</svg>
