<?xml version="1.0" encoding="UTF-8" standalone="no"?>
<!DOCTYPE svg PUBLIC "-//W3C//DTD SVG 1.1//EN"
 "http://www.w3.org/Graphics/SVG/1.1/DTD/svg11.dtd">
<!-- Generated by graphviz version 2.38.0 (20140413.2041)
 -->
<!-- Title: %3 Pages: 1 -->
<svg width="627pt" height="444pt"
 viewBox="0.00 0.00 626.94 443.85" xmlns="http://www.w3.org/2000/svg" xmlns:xlink="http://www.w3.org/1999/xlink">
<g id="graph0" class="graph" transform="scale(1 1) rotate(0) translate(4 439.848)">
<title>%3</title>
<polygon fill="white" stroke="none" points="-4,4 -4,-439.848 622.944,-439.848 622.944,4 -4,4"/>
<!-- 1 -->
<g id="node1" class="node"><title>1</title>
<polygon fill="lightgray" stroke="black" points="201.444,-435.848 180.444,-435.848 180.444,-417.848 201.444,-417.848 201.444,-435.848"/>
<text text-anchor="middle" x="190.944" y="-424.648" font-family="Times New Roman,serif" font-size="9.00">1</text>
</g>
<!-- 5 -->
<g id="node5" class="node"><title>5</title>
<polygon fill="lightblue" stroke="black" points="308.444,-18 287.444,-18 287.444,-0 308.444,-0 308.444,-18"/>
<text text-anchor="middle" x="297.944" y="-6.8" font-family="Times New Roman,serif" font-size="9.00">5</text>
</g>
<!-- 1&#45;&gt;5 -->
<g id="edge1" class="edge"><title>1&#45;&gt;5</title>
<path fill="none" stroke="red" d="M182.226,-417.676C162.263,-398.032 114.944,-345.766 114.944,-291.693 114.944,-291.693 114.944,-291.693 114.944,-144.154 114.944,-64.2999 229.686,-26.7934 277.456,-14.6386"/>
<polygon fill="red" stroke="red" points="278.419,-18.0067 287.314,-12.2517 276.771,-11.2033 278.419,-18.0067"/>
</g>
<!-- 12 -->
<g id="node6" class="node"><title>12</title>
<ellipse fill="none" stroke="black" cx="419.944" cy="-363.463" rx="18.2703" ry="18.2703"/>
<text text-anchor="middle" x="419.944" y="-361.263" font-family="Times New Roman,serif" font-size="9.00">12</text>
</g>
<!-- 1&#45;&gt;12 -->
<g id="edge7" class="edge"><title>1&#45;&gt;12</title>
<path fill="none" stroke="red" d="M201.682,-422.969C235.694,-413.852 341.786,-385.414 392.461,-371.83"/>
<polygon fill="red" stroke="red" points="393.635,-375.139 402.388,-369.169 391.822,-368.378 393.635,-375.139"/>
</g>
<!-- 9 -->
<g id="node12" class="node"><title>9</title>
<ellipse fill="none" stroke="black" cx="295.944" cy="-363.463" rx="14.7" ry="14.7"/>
<text text-anchor="middle" x="295.944" y="-361.263" font-family="Times New Roman,serif" font-size="9.00">9</text>
</g>
<!-- 1&#45;&gt;9 -->
<g id="edge11" class="edge"><title>1&#45;&gt;9</title>
<path fill="none" stroke="green" d="M201.786,-419.51C218.932,-409.485 252.626,-389.787 274.71,-376.877"/>
<polygon fill="green" stroke="green" points="276.515,-379.876 283.381,-371.807 272.982,-373.833 276.515,-379.876"/>
</g>
<!-- 11 -->
<g id="node15" class="node"><title>11</title>
<ellipse fill="none" stroke="black" cx="228.944" cy="-217.924" rx="18.2703" ry="18.2703"/>
<text text-anchor="middle" x="228.944" y="-215.724" font-family="Times New Roman,serif" font-size="9.00">11</text>
</g>
<!-- 1&#45;&gt;11 -->
<g id="edge27" class="edge"><title>1&#45;&gt;11</title>
<path fill="none" stroke="green" d="M192.434,-417.736C197.651,-389.324 215.256,-293.459 223.972,-246.001"/>
<polygon fill="green" stroke="green" points="227.423,-246.582 225.787,-236.114 220.539,-245.317 227.423,-246.582"/>
</g>
<!-- 13 -->
<g id="node18" class="node"><title>13</title>
<ellipse fill="none" stroke="black" cx="297.944" cy="-72.3848" rx="18.2703" ry="18.2703"/>
<text text-anchor="middle" x="297.944" y="-70.1848" font-family="Times New Roman,serif" font-size="9.00">13</text>
</g>
<!-- 1&#45;&gt;13 -->
<g id="edge20" class="edge"><title>1&#45;&gt;13</title>
<path fill="none" stroke="green" d="M186.877,-417.603C177.075,-396.944 152.944,-341.076 152.944,-291.693 152.944,-291.693 152.944,-291.693 152.944,-216.924 152.944,-150.682 230.32,-104.623 272.026,-84.608"/>
<polygon fill="green" stroke="green" points="273.713,-87.6837 281.311,-80.2994 270.767,-81.3341 273.713,-87.6837"/>
</g>
<!-- 2 -->
<g id="node2" class="node"><title>2</title>
<polygon fill="lightgray" stroke="black" points="606.444,-372.463 585.444,-372.463 585.444,-354.463 606.444,-354.463 606.444,-372.463"/>
<text text-anchor="middle" x="595.944" y="-361.263" font-family="Times New Roman,serif" font-size="9.00">2</text>
</g>
<!-- 2&#45;&gt;5 -->
<g id="edge2" class="edge"><title>2&#45;&gt;5</title>
<path fill="none" stroke="green" d="M598.149,-354.442C603.906,-332.772 618.944,-271.166 618.944,-218.924 618.944,-218.924 618.944,-218.924 618.944,-144.154 618.944,-13.7038 390.469,-7.87904 319.029,-9.24628"/>
<polygon fill="green" stroke="green" points="318.528,-5.75819 308.624,-9.52123 318.713,-12.7558 318.528,-5.75819"/>
</g>
<!-- 15 -->
<g id="node7" class="node"><title>15</title>
<ellipse fill="none" stroke="black" cx="572.944" cy="-290.693" rx="18.2703" ry="18.2703"/>
<text text-anchor="middle" x="572.944" y="-288.493" font-family="Times New Roman,serif" font-size="9.00">15</text>
</g>
<!-- 2&#45;&gt;15 -->
<g id="edge8" class="edge"><title>2&#45;&gt;15</title>
<path fill="none" stroke="red" d="M593.306,-354.345C590.438,-345.521 585.705,-330.958 581.524,-318.092"/>
<polygon fill="red" stroke="red" points="584.754,-316.709 578.335,-308.28 578.097,-318.872 584.754,-316.709"/>
</g>
<!-- 3 -->
<g id="node3" class="node"><title>3</title>
<polygon fill="lightgray" stroke="black" points="430.444,-435.848 409.444,-435.848 409.444,-417.848 430.444,-417.848 430.444,-435.848"/>
<text text-anchor="middle" x="419.944" y="-424.648" font-family="Times New Roman,serif" font-size="9.00">3</text>
</g>
<!-- 3&#45;&gt;12 -->
<g id="edge4" class="edge"><title>3&#45;&gt;12</title>
<path fill="none" stroke="green" d="M419.944,-417.823C419.944,-411.259 419.944,-401.569 419.944,-392.242"/>
<polygon fill="green" stroke="green" points="423.444,-392.051 419.944,-382.051 416.444,-392.051 423.444,-392.051"/>
</g>
<!-- 28 -->
<g id="node10" class="node"><title>28</title>
<ellipse fill="none" stroke="black" cx="480.944" cy="-290.693" rx="18.2703" ry="18.2703"/>
<text text-anchor="middle" x="480.944" y="-288.493" font-family="Times New Roman,serif" font-size="9.00">28</text>
</g>
<!-- 3&#45;&gt;28 -->
<g id="edge30" class="edge"><title>3&#45;&gt;28</title>
<path fill="none" stroke="green" d="M425.608,-417.681C431.441,-409.043 440.557,-394.886 446.944,-381.848 457.142,-361.031 466.262,-336.334 472.483,-318.058"/>
<polygon fill="green" stroke="green" points="475.869,-318.968 475.713,-308.374 469.228,-316.753 475.869,-318.968"/>
</g>
<!-- 7 -->
<g id="node11" class="node"><title>7</title>
<ellipse fill="none" stroke="black" cx="523.944" cy="-145.154" rx="14.7" ry="14.7"/>
<text text-anchor="middle" x="523.944" y="-142.954" font-family="Times New Roman,serif" font-size="9.00">7</text>
</g>
<!-- 3&#45;&gt;7 -->
<g id="edge6" class="edge"><title>3&#45;&gt;7</title>
<path fill="none" stroke="green" d="M430.683,-417.996C441.332,-409.827 457.648,-396.237 468.944,-381.848 491.602,-352.985 497.278,-344.188 507.944,-309.078 522.429,-261.399 524.578,-202.608 524.494,-170.29"/>
<polygon fill="green" stroke="green" points="527.991,-169.988 524.388,-160.025 520.992,-170.06 527.991,-169.988"/>
</g>
<!-- 3&#45;&gt;9 -->
<g id="edge16" class="edge"><title>3&#45;&gt;9</title>
<path fill="none" stroke="red" d="M409.372,-420.614C389.237,-410.647 345.003,-388.749 318.111,-375.436"/>
<polygon fill="red" stroke="red" points="319.579,-372.258 309.064,-370.958 316.473,-378.531 319.579,-372.258"/>
</g>
<!-- 3&#45;&gt;13 -->
<g id="edge23" class="edge"><title>3&#45;&gt;13</title>
<path fill="none" stroke="red" d="M413.183,-417.657C397.301,-397.555 358.944,-343.632 358.944,-291.693 358.944,-291.693 358.944,-291.693 358.944,-216.924 358.944,-171.189 332.389,-123.319 314.321,-96.041"/>
<polygon fill="red" stroke="red" points="317.097,-93.8997 308.57,-87.6124 311.315,-97.8453 317.097,-93.8997"/>
</g>
<!-- 4 -->
<g id="node4" class="node"><title>4</title>
<polygon fill="lightgray" stroke="black" points="64.4441,-299.693 43.4441,-299.693 43.4441,-281.693 64.4441,-281.693 64.4441,-299.693"/>
<text text-anchor="middle" x="53.9441" y="-288.493" font-family="Times New Roman,serif" font-size="9.00">4</text>
</g>
<!-- 4&#45;&gt;5 -->
<g id="edge3" class="edge"><title>4&#45;&gt;5</title>
<path fill="none" stroke="green" d="M43.0608,-282.139C30.8676,-272.94 11.7845,-256.149 3.94414,-236.309 -2.06179,-221.11 0.179445,-215.442 3.94414,-199.539 20.6147,-129.121 19.3884,-97.8635 76.9441,-54 108.481,-29.9657 228.642,-16.4056 277.301,-11.8017"/>
<polygon fill="green" stroke="green" points="277.655,-15.284 287.295,-10.8881 277.018,-8.31309 277.655,-15.284"/>
</g>
<!-- 10 -->
<g id="node8" class="node"><title>10</title>
<ellipse fill="none" stroke="black" cx="30.9441" cy="-217.924" rx="18.2703" ry="18.2703"/>
<text text-anchor="middle" x="30.9441" y="-215.724" font-family="Times New Roman,serif" font-size="9.00">10</text>
</g>
<!-- 4&#45;&gt;10 -->
<g id="edge32" class="edge"><title>4&#45;&gt;10</title>
<path fill="none" stroke="green" d="M51.3057,-281.575C48.4381,-272.752 43.7051,-258.189 39.5237,-245.323"/>
<polygon fill="green" stroke="green" points="42.7543,-243.939 36.3348,-235.511 36.0971,-246.103 42.7543,-243.939"/>
</g>
<!-- 6 -->
<g id="node13" class="node"><title>6</title>
<ellipse fill="none" stroke="black" cx="71.9441" cy="-145.154" rx="14.7" ry="14.7"/>
<text text-anchor="middle" x="71.9441" y="-142.954" font-family="Times New Roman,serif" font-size="9.00">6</text>
</g>
<!-- 4&#45;&gt;6 -->
<g id="edge17" class="edge"><title>4&#45;&gt;6</title>
<path fill="none" stroke="red" d="M54.9635,-281.565C57.6094,-260.465 64.7775,-203.304 68.9053,-170.387"/>
<polygon fill="red" stroke="red" points="72.4062,-170.598 70.1777,-160.24 65.4606,-169.727 72.4062,-170.598"/>
</g>
<!-- 4&#45;&gt;11 -->
<g id="edge24" class="edge"><title>4&#45;&gt;11</title>
<path fill="none" stroke="green" d="M64.6277,-285.373C91.7296,-274.413 163.771,-245.28 202.853,-229.475"/>
<polygon fill="green" stroke="green" points="204.299,-232.666 212.258,-225.672 201.675,-226.176 204.299,-232.666"/>
</g>
<!-- 12&#45;&gt;7 -->
<g id="edge5" class="edge"><title>12&#45;&gt;7</title>
<path fill="none" stroke="red" d="M425.382,-345.881C431.575,-327.567 442.348,-297.355 453.944,-272.309 471.596,-234.183 496.168,-191.86 511.013,-167.207"/>
<polygon fill="red" stroke="red" points="514.177,-168.74 516.372,-158.375 508.192,-165.109 514.177,-168.74"/>
</g>
<!-- 18 -->
<g id="node9" class="node"><title>18</title>
<ellipse fill="none" stroke="black" cx="572.944" cy="-217.924" rx="18.2703" ry="18.2703"/>
<text text-anchor="middle" x="572.944" y="-215.724" font-family="Times New Roman,serif" font-size="9.00">18</text>
</g>
<!-- 15&#45;&gt;18 -->
<g id="edge9" class="edge"><title>15&#45;&gt;18</title>
<path fill="none" stroke="green" d="M572.944,-272.2C572.944,-264.518 572.944,-255.308 572.944,-246.724"/>
<polygon fill="green" stroke="green" points="576.444,-246.708 572.944,-236.708 569.444,-246.708 576.444,-246.708"/>
</g>
<!-- 10&#45;&gt;6 -->
<g id="edge33" class="edge"><title>10&#45;&gt;6</title>
<path fill="none" stroke="green" d="M39.8405,-201.568C45.5967,-191.632 53.1728,-178.555 59.5197,-167.6"/>
<polygon fill="green" stroke="green" points="62.7196,-169.059 64.7041,-158.651 56.6627,-165.549 62.7196,-169.059"/>
</g>
<!-- 18&#45;&gt;7 -->
<g id="edge10" class="edge"><title>18&#45;&gt;7</title>
<path fill="none" stroke="green" d="M562.791,-202.26C555.625,-191.91 545.929,-177.907 538.017,-166.48"/>
<polygon fill="green" stroke="green" points="540.707,-164.216 532.137,-157.987 534.952,-168.201 540.707,-164.216"/>
</g>
<!-- 28&#45;&gt;13 -->
<g id="edge31" class="edge"><title>28&#45;&gt;13</title>
<path fill="none" stroke="red" d="M473.063,-273.98C457.138,-243.254 418.717,-174.089 372.944,-126.77 357.896,-111.213 337.781,-97.1762 322.171,-87.4046"/>
<polygon fill="red" stroke="red" points="323.934,-84.38 313.573,-82.1648 320.291,-90.3575 323.934,-84.38"/>
</g>
<!-- 20 -->
<g id="node16" class="node"><title>20</title>
<ellipse fill="none" stroke="black" cx="483.944" cy="-72.3848" rx="18.2703" ry="18.2703"/>
<text text-anchor="middle" x="483.944" y="-70.1848" font-family="Times New Roman,serif" font-size="9.00">20</text>
</g>
<!-- 7&#45;&gt;20 -->
<g id="edge25" class="edge"><title>7&#45;&gt;20</title>
<path fill="none" stroke="green" d="M516.977,-131.827C511.643,-122.39 504.118,-109.078 497.598,-97.5419"/>
<polygon fill="green" stroke="green" points="500.613,-95.7623 492.645,-88.7789 494.519,-99.2067 500.613,-95.7623"/>
</g>
<!-- 9&#45;&gt;5 -->
<g id="edge15" class="edge"><title>9&#45;&gt;5</title>
<path fill="none" stroke="red" d="M307.927,-353.915C334.681,-333.728 396.944,-280.17 396.944,-218.924 396.944,-218.924 396.944,-218.924 396.944,-144.154 396.944,-90.8712 345.757,-44.8519 316.996,-23.1998"/>
<polygon fill="red" stroke="red" points="318.684,-20.1002 308.539,-17.0477 314.567,-25.7608 318.684,-20.1002"/>
</g>
<!-- 14 -->
<g id="node14" class="node"><title>14</title>
<ellipse fill="none" stroke="black" cx="274.944" cy="-290.693" rx="18.2703" ry="18.2703"/>
<text text-anchor="middle" x="274.944" y="-288.493" font-family="Times New Roman,serif" font-size="9.00">14</text>
</g>
<!-- 9&#45;&gt;14 -->
<g id="edge21" class="edge"><title>9&#45;&gt;14</title>
<path fill="none" stroke="red" d="M291.895,-348.818C289.339,-340.202 285.949,-328.78 282.873,-318.414"/>
<polygon fill="red" stroke="red" points="286.144,-317.135 279.944,-308.543 279.434,-319.126 286.144,-317.135"/>
</g>
<!-- 9&#45;&gt;11 -->
<g id="edge12" class="edge"><title>9&#45;&gt;11</title>
<path fill="none" stroke="green" d="M284.981,-353.437C273.881,-343.676 257.089,-327.08 247.944,-309.078 238.012,-289.527 233.269,-265.061 231.005,-246.552"/>
<polygon fill="green" stroke="green" points="234.467,-246.002 229.939,-236.424 227.506,-246.735 234.467,-246.002"/>
</g>
<!-- 9&#45;&gt;13 -->
<g id="edge19" class="edge"><title>9&#45;&gt;13</title>
<path fill="none" stroke="green" d="M297.953,-348.449C299.388,-337.703 301.193,-322.487 301.944,-309.078 306.476,-228.179 304.973,-207.739 301.944,-126.77 301.635,-118.504 301.057,-109.533 300.435,-101.346"/>
<polygon fill="green" stroke="green" points="303.906,-100.846 299.611,-91.161 296.929,-101.411 303.906,-100.846"/>
</g>
<!-- 6&#45;&gt;5 -->
<g id="edge18" class="edge"><title>6&#45;&gt;5</title>
<path fill="none" stroke="green" d="M72.314,-130.309C73.6266,-110.415 79.0825,-73.9481 100.944,-54 126.718,-30.4823 231.586,-16.9292 276.91,-12.0679"/>
<polygon fill="green" stroke="green" points="277.479,-15.5279 287.066,-11.0185 276.759,-8.56498 277.479,-15.5279"/>
</g>
<!-- 14&#45;&gt;11 -->
<g id="edge22" class="edge"><title>14&#45;&gt;11</title>
<path fill="none" stroke="green" d="M265.189,-274.685C259.09,-265.302 251.107,-253.02 244.185,-242.372"/>
<polygon fill="green" stroke="green" points="247.07,-240.388 238.685,-233.911 241.201,-244.203 247.07,-240.388"/>
</g>
<!-- 27 -->
<g id="node17" class="node"><title>27</title>
<ellipse fill="none" stroke="black" cx="274.944" cy="-145.154" rx="18.2703" ry="18.2703"/>
<text text-anchor="middle" x="274.944" y="-142.954" font-family="Times New Roman,serif" font-size="9.00">27</text>
</g>
<!-- 11&#45;&gt;27 -->
<g id="edge28" class="edge"><title>11&#45;&gt;27</title>
<path fill="none" stroke="red" d="M238.7,-201.915C244.798,-192.533 252.782,-180.251 259.703,-169.602"/>
<polygon fill="red" stroke="red" points="262.687,-171.433 265.203,-161.141 256.818,-167.618 262.687,-171.433"/>
</g>
<!-- 11&#45;&gt;13 -->
<g id="edge13" class="edge"><title>11&#45;&gt;13</title>
<path fill="none" stroke="green" d="M229.847,-199.377C231.437,-180.491 235.826,-150.036 247.944,-126.77 254.887,-113.439 266.098,-101.024 276.146,-91.5268"/>
<polygon fill="green" stroke="green" points="278.772,-93.8719 283.852,-84.5742 274.083,-88.6747 278.772,-93.8719"/>
</g>
<!-- 20&#45;&gt;5 -->
<g id="edge26" class="edge"><title>20&#45;&gt;5</title>
<path fill="none" stroke="green" d="M466.779,-65.7199C432.401,-54.3741 355.243,-28.9102 318.349,-16.7342"/>
<polygon fill="green" stroke="green" points="319.273,-13.3536 308.68,-13.5432 317.08,-20.0009 319.273,-13.3536"/>
</g>
<!-- 27&#45;&gt;13 -->
<g id="edge29" class="edge"><title>27&#45;&gt;13</title>
<path fill="none" stroke="green" d="M280.395,-127.383C283.087,-119.098 286.398,-108.911 289.416,-99.6249"/>
<polygon fill="green" stroke="green" points="292.77,-100.628 292.533,-90.0358 286.113,-98.4643 292.77,-100.628"/>
</g>
<!-- 13&#45;&gt;5 -->
<g id="edge14" class="edge"><title>13&#45;&gt;5</title>
<path fill="none" stroke="red" d="M297.944,-53.9586C297.944,-45.9601 297.944,-36.4732 297.944,-28.3636"/>
<polygon fill="red" stroke="red" points="301.444,-28.1158 297.944,-18.1158 294.444,-28.1158 301.444,-28.1158"/>
</g>
</g>
</svg>
