<?xml version="1.0" encoding="UTF-8" standalone="no"?>
<!DOCTYPE svg PUBLIC "-//W3C//DTD SVG 1.1//EN"
 "http://www.w3.org/Graphics/SVG/1.1/DTD/svg11.dtd">
<!-- Generated by graphviz version 2.38.0 (20140413.2041)
 -->
<!-- Title: %3 Pages: 1 -->
<svg width="281pt" height="364pt"
 viewBox="0.00 0.00 281.38 364.01" xmlns="http://www.w3.org/2000/svg" xmlns:xlink="http://www.w3.org/1999/xlink">
<g id="graph0" class="graph" transform="scale(1 1) rotate(0) translate(4 360.007)">
<title>%3</title>
<polygon fill="white" stroke="none" points="-4,4 -4,-360.007 277.385,-360.007 277.385,4 -4,4"/>
<!-- 1 -->
<g id="node1" class="node"><title>1</title>
<polygon fill="lightgray" stroke="black" points="48.5,-356.007 27.5,-356.007 27.5,-338.007 48.5,-338.007 48.5,-356.007"/>
<text text-anchor="middle" x="38" y="-344.807" font-family="Times New Roman,serif" font-size="9.00">1</text>
</g>
<!-- 6 -->
<g id="node6" class="node"><title>6</title>
<polygon fill="lightblue" stroke="black" points="158.5,-18 137.5,-18 137.5,-0 158.5,-0 158.5,-18"/>
<text text-anchor="middle" x="148" y="-6.8" font-family="Times New Roman,serif" font-size="9.00">6</text>
</g>
<!-- 1&#45;&gt;6 -->
<g id="edge1" class="edge"><title>1&#45;&gt;6</title>
<path fill="none" stroke="red" d="M33.9333,-337.763C24.1304,-317.104 0,-261.235 0,-211.853 0,-211.853 0,-211.853 0,-137.083 0,-70.5528 87.1495,-31.2958 127.698,-16.6313"/>
<polygon fill="red" stroke="red" points="129.052,-19.8664 137.356,-13.2871 126.761,-13.2516 129.052,-19.8664"/>
</g>
<!-- 17 -->
<g id="node7" class="node"><title>17</title>
<ellipse fill="none" stroke="black" cx="84" cy="-283.622" rx="18.2703" ry="18.2703"/>
<text text-anchor="middle" x="84" y="-281.422" font-family="Times New Roman,serif" font-size="9.00">17</text>
</g>
<!-- 1&#45;&gt;17 -->
<g id="edge14" class="edge"><title>1&#45;&gt;17</title>
<path fill="none" stroke="red" d="M44.0137,-337.982C49.8554,-330.187 59.0003,-317.983 67.071,-307.213"/>
<polygon fill="red" stroke="red" points="70.0336,-309.096 73.2296,-298.995 64.4319,-304.899 70.0336,-309.096"/>
</g>
<!-- 12 -->
<g id="node9" class="node"><title>12</title>
<ellipse fill="none" stroke="black" cx="85" cy="-138.083" rx="18.2703" ry="18.2703"/>
<text text-anchor="middle" x="85" y="-135.883" font-family="Times New Roman,serif" font-size="9.00">12</text>
</g>
<!-- 1&#45;&gt;12 -->
<g id="edge15" class="edge"><title>1&#45;&gt;12</title>
<path fill="none" stroke="red" d="M38.102,-337.811C38.5952,-314.519 41.4568,-246.159 58,-192.468 61.0545,-182.555 65.8352,-172.251 70.5303,-163.37"/>
<polygon fill="red" stroke="red" points="73.7267,-164.823 75.5057,-154.378 67.6018,-161.434 73.7267,-164.823"/>
</g>
<!-- 2 -->
<g id="node2" class="node"><title>2</title>
<polygon fill="lightgray" stroke="black" points="139.5,-77.8492 118.5,-77.8492 118.5,-59.8492 139.5,-59.8492 139.5,-77.8492"/>
<text text-anchor="middle" x="129" y="-66.6492" font-family="Times New Roman,serif" font-size="9.00">2</text>
</g>
<!-- 2&#45;&gt;6 -->
<g id="edge2" class="edge"><title>2&#45;&gt;6</title>
<path fill="none" stroke="green" d="M131.642,-59.8056C134.334,-51.6095 138.599,-38.6239 142.099,-27.967"/>
<polygon fill="green" stroke="green" points="145.462,-28.9429 145.258,-18.35 138.812,-26.7585 145.462,-28.9429"/>
</g>
<!-- 3 -->
<g id="node3" class="node"><title>3</title>
<polygon fill="lightgray" stroke="black" points="159.5,-356.007 138.5,-356.007 138.5,-338.007 159.5,-338.007 159.5,-356.007"/>
<text text-anchor="middle" x="149" y="-344.807" font-family="Times New Roman,serif" font-size="9.00">3</text>
</g>
<!-- 3&#45;&gt;6 -->
<g id="edge13" class="edge"><title>3&#45;&gt;6</title>
<path fill="none" stroke="green" d="M150.962,-337.897C155.816,-317.093 168,-260.075 168,-211.853 168,-211.853 168,-211.853 168,-137.083 168,-97.9427 158.628,-52.8367 152.715,-28.2744"/>
<polygon fill="green" stroke="green" points="156.032,-27.1119 150.217,-18.2557 149.24,-28.8054 156.032,-27.1119"/>
</g>
<!-- 3&#45;&gt;17 -->
<g id="edge9" class="edge"><title>3&#45;&gt;17</title>
<path fill="none" stroke="green" d="M140.502,-337.982C131.469,-329.451 116.847,-315.642 104.74,-304.209"/>
<polygon fill="green" stroke="green" points="106.906,-301.44 97.2321,-297.118 102.099,-306.529 106.906,-301.44"/>
</g>
<!-- 15 -->
<g id="node8" class="node"><title>15</title>
<ellipse fill="none" stroke="black" cx="85" cy="-210.853" rx="18.2703" ry="18.2703"/>
<text text-anchor="middle" x="85" y="-208.653" font-family="Times New Roman,serif" font-size="9.00">15</text>
</g>
<!-- 3&#45;&gt;15 -->
<g id="edge7" class="edge"><title>3&#45;&gt;15</title>
<path fill="none" stroke="red" d="M145.26,-337.965C138.488,-323.423 123.714,-291.795 111,-265.238 106.554,-255.951 101.62,-245.785 97.2551,-236.839"/>
<polygon fill="red" stroke="red" points="100.329,-235.157 92.7923,-227.71 94.0399,-238.231 100.329,-235.157"/>
</g>
<!-- 9 -->
<g id="node12" class="node"><title>9</title>
<ellipse fill="none" stroke="black" cx="211" cy="-210.853" rx="14.7" ry="14.7"/>
<text text-anchor="middle" x="211" y="-208.653" font-family="Times New Roman,serif" font-size="9.00">9</text>
</g>
<!-- 3&#45;&gt;9 -->
<g id="edge11" class="edge"><title>3&#45;&gt;9</title>
<path fill="none" stroke="red" d="M156.48,-337.81C163.845,-329.372 174.981,-315.577 182,-302.007 193.102,-280.544 201.015,-254.01 205.741,-235.302"/>
<polygon fill="red" stroke="red" points="209.153,-236.085 208.098,-225.543 202.348,-234.442 209.153,-236.085"/>
</g>
<!-- 4 -->
<g id="node4" class="node"><title>4</title>
<polygon fill="lightgray" stroke="black" points="255.5,-77.8492 234.5,-77.8492 234.5,-59.8492 255.5,-59.8492 255.5,-77.8492"/>
<text text-anchor="middle" x="245" y="-66.6492" font-family="Times New Roman,serif" font-size="9.00">4</text>
</g>
<!-- 4&#45;&gt;6 -->
<g id="edge3" class="edge"><title>4&#45;&gt;6</title>
<path fill="none" stroke="green" d="M234.249,-61.4373C218.067,-51.787 187.215,-33.387 167.134,-21.4111"/>
<polygon fill="green" stroke="green" points="168.886,-18.3809 158.505,-16.2648 165.3,-24.393 168.886,-18.3809"/>
</g>
<!-- 5 -->
<g id="node5" class="node"><title>5</title>
<polygon fill="lightgray" stroke="black" points="265.5,-356.007 244.5,-356.007 244.5,-338.007 265.5,-338.007 265.5,-356.007"/>
<text text-anchor="middle" x="255" y="-344.807" font-family="Times New Roman,serif" font-size="9.00">5</text>
</g>
<!-- 13 -->
<g id="node10" class="node"><title>13</title>
<ellipse fill="none" stroke="black" cx="255" cy="-283.622" rx="18.2703" ry="18.2703"/>
<text text-anchor="middle" x="255" y="-281.422" font-family="Times New Roman,serif" font-size="9.00">13</text>
</g>
<!-- 5&#45;&gt;13 -->
<g id="edge6" class="edge"><title>5&#45;&gt;13</title>
<path fill="none" stroke="red" d="M255,-337.982C255,-331.418 255,-321.729 255,-312.401"/>
<polygon fill="red" stroke="red" points="258.5,-312.21 255,-302.21 251.5,-312.21 258.5,-312.21"/>
</g>
<!-- 17&#45;&gt;15 -->
<g id="edge10" class="edge"><title>17&#45;&gt;15</title>
<path fill="none" stroke="green" d="M84.2472,-265.129C84.3557,-257.446 84.4859,-248.237 84.6072,-239.653"/>
<polygon fill="green" stroke="green" points="88.107,-239.685 84.7487,-229.637 81.1077,-239.586 88.107,-239.685"/>
</g>
<!-- 15&#45;&gt;12 -->
<g id="edge8" class="edge"><title>15&#45;&gt;12</title>
<path fill="none" stroke="green" d="M85,-192.359C85,-184.677 85,-175.468 85,-166.884"/>
<polygon fill="green" stroke="green" points="88.5001,-166.867 85,-156.867 81.5001,-166.867 88.5001,-166.867"/>
</g>
<!-- 7 -->
<g id="node11" class="node"><title>7</title>
<ellipse fill="none" stroke="black" cx="85" cy="-68.8492" rx="14.7" ry="14.7"/>
<text text-anchor="middle" x="85" y="-66.6492" font-family="Times New Roman,serif" font-size="9.00">7</text>
</g>
<!-- 12&#45;&gt;7 -->
<g id="edge5" class="edge"><title>12&#45;&gt;7</title>
<path fill="none" stroke="red" d="M85,-119.418C85,-111.735 85,-102.605 85,-94.2874"/>
<polygon fill="red" stroke="red" points="88.5001,-94.0103 85,-84.0103 81.5001,-94.0103 88.5001,-94.0103"/>
</g>
<!-- 7&#45;&gt;6 -->
<g id="edge4" class="edge"><title>7&#45;&gt;6</title>
<path fill="none" stroke="green" d="M95.6871,-58.0359C105.518,-49.0089 120.244,-35.4869 131.57,-25.0871"/>
<polygon fill="green" stroke="green" points="134.098,-27.5169 139.097,-18.1752 129.364,-22.3608 134.098,-27.5169"/>
</g>
<!-- 9&#45;&gt;6 -->
<g id="edge12" class="edge"><title>9&#45;&gt;6</title>
<path fill="none" stroke="green" d="M210.58,-195.866C209.277,-167.772 203.929,-102.984 182,-54 177.423,-43.7764 170.01,-33.7814 163.273,-25.908"/>
<polygon fill="green" stroke="green" points="165.692,-23.3644 156.393,-18.2868 160.496,-28.055 165.692,-23.3644"/>
</g>
</g>
</svg>
