<?xml version="1.0" encoding="UTF-8" standalone="no"?>
<!DOCTYPE svg PUBLIC "-//W3C//DTD SVG 1.1//EN"
 "http://www.w3.org/Graphics/SVG/1.1/DTD/svg11.dtd">
<!-- Generated by graphviz version 2.38.0 (20140413.2041)
 -->
<!-- Title: %3 Pages: 1 -->
<svg width="1127pt" height="989pt"
 viewBox="0.00 0.00 1127.38 988.97" xmlns="http://www.w3.org/2000/svg" xmlns:xlink="http://www.w3.org/1999/xlink">
<g id="graph0" class="graph" transform="scale(1 1) rotate(0) translate(4 984.975)">
<title>%3</title>
<polygon fill="white" stroke="none" points="-4,4 -4,-984.975 1123.38,-984.975 1123.38,4 -4,4"/>
<!-- 1 -->
<g id="node1" class="node"><title>1</title>
<polygon fill="lightgray" stroke="black" points="179.5,-917.59 158.5,-917.59 158.5,-899.59 179.5,-899.59 179.5,-917.59"/>
<text text-anchor="middle" x="169" y="-906.39" font-family="Times New Roman,serif" font-size="9.00">1</text>
</g>
<!-- 6 -->
<g id="node6" class="node"><title>6</title>
<polygon fill="lightblue" stroke="black" points="564.5,-251.35 543.5,-251.35 543.5,-233.35 564.5,-233.35 564.5,-251.35"/>
<text text-anchor="middle" x="554" y="-240.15" font-family="Times New Roman,serif" font-size="9.00">6</text>
</g>
<!-- 1&#45;&gt;6 -->
<g id="edge7" class="edge"><title>1&#45;&gt;6</title>
<path fill="none" stroke="red" d="M172.783,-899.379C182.394,-877.739 207,-817.154 207,-764.051 207,-764.051 207,-764.051 207,-689.281 207,-612.276 203.02,-583.911 247,-520.701 263.474,-497.023 279.814,-504.275 301,-484.701 379.096,-412.543 366.798,-364.177 449,-296.735 475.205,-275.235 511.493,-259.197 533.822,-250.561"/>
<polygon fill="red" stroke="red" points="535.145,-253.803 543.285,-247.022 532.693,-247.246 535.145,-253.803"/>
</g>
<!-- 17 -->
<g id="node8" class="node"><title>17</title>
<ellipse fill="none" stroke="black" cx="851" cy="-835.82" rx="18.2703" ry="18.2703"/>
<text text-anchor="middle" x="851" y="-833.62" font-family="Times New Roman,serif" font-size="9.00">17</text>
</g>
<!-- 1&#45;&gt;17 -->
<g id="edge30" class="edge"><title>1&#45;&gt;17</title>
<path fill="none" stroke="green" d="M179.713,-906.478C254.977,-898.668 704.789,-851.992 822.711,-839.756"/>
<polygon fill="green" stroke="green" points="823.178,-843.226 832.764,-838.713 822.456,-836.264 823.178,-843.226"/>
</g>
<!-- 27 -->
<g id="node11" class="node"><title>27</title>
<ellipse fill="none" stroke="black" cx="161" cy="-690.281" rx="18.2703" ry="18.2703"/>
<text text-anchor="middle" x="161" y="-688.081" font-family="Times New Roman,serif" font-size="9.00">27</text>
</g>
<!-- 1&#45;&gt;27 -->
<g id="edge16" class="edge"><title>1&#45;&gt;27</title>
<path fill="none" stroke="red" d="M168.696,-899.375C167.606,-869.888 163.856,-768.514 162.024,-718.974"/>
<polygon fill="red" stroke="red" points="165.511,-718.541 161.643,-708.677 158.515,-718.799 165.511,-718.541"/>
</g>
<!-- 77 -->
<g id="node32" class="node"><title>77</title>
<ellipse fill="none" stroke="black" cx="85" cy="-835.82" rx="18.2703" ry="18.2703"/>
<text text-anchor="middle" x="85" y="-833.62" font-family="Times New Roman,serif" font-size="9.00">77</text>
</g>
<!-- 1&#45;&gt;77 -->
<g id="edge53" class="edge"><title>1&#45;&gt;77</title>
<path fill="none" stroke="red" d="M159.364,-899.472C146.55,-888.676 123.539,-869.289 106.496,-854.931"/>
<polygon fill="red" stroke="red" points="108.583,-852.112 98.6801,-848.346 104.073,-857.466 108.583,-852.112"/>
</g>
<!-- 10 -->
<g id="node35" class="node"><title>10</title>
<ellipse fill="none" stroke="black" cx="329" cy="-315.12" rx="18.2703" ry="18.2703"/>
<text text-anchor="middle" x="329" y="-312.92" font-family="Times New Roman,serif" font-size="9.00">10</text>
</g>
<!-- 1&#45;&gt;10 -->
<g id="edge5" class="edge"><title>1&#45;&gt;10</title>
<path fill="none" stroke="red" d="M166.347,-899.569C155.361,-865.611 114,-730.169 114,-615.683 114,-615.683 114,-615.683 114,-538.085 114,-452.083 145.38,-427.375 209,-369.505 235.655,-345.259 275.127,-330.605 301.436,-322.939"/>
<polygon fill="red" stroke="red" points="302.452,-326.289 311.156,-320.25 300.585,-319.543 302.452,-326.289"/>
</g>
<!-- 2 -->
<g id="node2" class="node"><title>2</title>
<polygon fill="lightgray" stroke="black" points="636.5,-699.281 615.5,-699.281 615.5,-681.281 636.5,-681.281 636.5,-699.281"/>
<text text-anchor="middle" x="626" y="-688.081" font-family="Times New Roman,serif" font-size="9.00">2</text>
</g>
<!-- 40 -->
<g id="node13" class="node"><title>40</title>
<ellipse fill="none" stroke="black" cx="513" cy="-614.683" rx="18.2703" ry="18.2703"/>
<text text-anchor="middle" x="513" y="-612.483" font-family="Times New Roman,serif" font-size="9.00">40</text>
</g>
<!-- 2&#45;&gt;40 -->
<g id="edge59" class="edge"><title>2&#45;&gt;40</title>
<path fill="none" stroke="green" d="M615.392,-682.921C599.166,-673.126 567.3,-653.622 541,-635.897 539.322,-634.766 537.6,-633.582 535.874,-632.378"/>
<polygon fill="green" stroke="green" points="537.584,-629.299 527.407,-626.354 533.526,-635.003 537.584,-629.299"/>
</g>
<!-- 14 -->
<g id="node16" class="node"><title>14</title>
<ellipse fill="none" stroke="black" cx="681" cy="-466.316" rx="18.2703" ry="18.2703"/>
<text text-anchor="middle" x="681" y="-464.116" font-family="Times New Roman,serif" font-size="9.00">14</text>
</g>
<!-- 2&#45;&gt;14 -->
<g id="edge2" class="edge"><title>2&#45;&gt;14</title>
<path fill="none" stroke="red" d="M631.902,-681.045C638.84,-670.927 650.15,-652.997 656,-635.897 672.332,-588.153 677.999,-529.205 679.962,-495.17"/>
<polygon fill="red" stroke="red" points="683.465,-495.206 680.478,-485.041 676.474,-494.85 683.465,-495.206"/>
</g>
<!-- 12 -->
<g id="node19" class="node"><title>12</title>
<ellipse fill="none" stroke="black" cx="759" cy="-614.683" rx="18.2703" ry="18.2703"/>
<text text-anchor="middle" x="759" y="-612.483" font-family="Times New Roman,serif" font-size="9.00">12</text>
</g>
<!-- 2&#45;&gt;12 -->
<g id="edge12" class="edge"><title>2&#45;&gt;12</title>
<path fill="none" stroke="green" d="M636.763,-683.937C655.387,-674.612 694.731,-654.579 727,-635.897 729.699,-634.334 732.498,-632.655 735.266,-630.958"/>
<polygon fill="green" stroke="green" points="737.225,-633.861 743.847,-625.591 733.513,-627.927 737.225,-633.861"/>
</g>
<!-- 105 -->
<g id="node24" class="node"><title>105</title>
<ellipse fill="none" stroke="black" cx="626" cy="-614.683" rx="21.4286" ry="21.4286"/>
<text text-anchor="middle" x="626" y="-612.483" font-family="Times New Roman,serif" font-size="9.00">105</text>
</g>
<!-- 2&#45;&gt;105 -->
<g id="edge76" class="edge"><title>2&#45;&gt;105</title>
<path fill="none" stroke="red" d="M626,-681.124C626,-672.703 626,-659.045 626,-646.38"/>
<polygon fill="red" stroke="red" points="629.5,-646.111 626,-636.111 622.5,-646.111 629.5,-646.111"/>
</g>
<!-- 56 -->
<g id="node28" class="node"><title>56</title>
<ellipse fill="none" stroke="black" cx="757" cy="-390.718" rx="18.2703" ry="18.2703"/>
<text text-anchor="middle" x="757" y="-388.518" font-family="Times New Roman,serif" font-size="9.00">56</text>
</g>
<!-- 2&#45;&gt;56 -->
<g id="edge73" class="edge"><title>2&#45;&gt;56</title>
<path fill="none" stroke="green" d="M632.922,-681.057C635.429,-678.132 638.307,-674.836 641,-671.897 656.073,-655.441 664.416,-654.97 676,-635.897 719.557,-564.18 742.807,-466.222 752.097,-419.16"/>
<polygon fill="green" stroke="green" points="755.576,-419.605 754.017,-409.125 748.7,-418.289 755.576,-419.605"/>
</g>
<!-- 11 -->
<g id="node39" class="node"><title>11</title>
<ellipse fill="none" stroke="black" cx="568" cy="-614.683" rx="18.2703" ry="18.2703"/>
<text text-anchor="middle" x="568" y="-612.483" font-family="Times New Roman,serif" font-size="9.00">11</text>
</g>
<!-- 2&#45;&gt;11 -->
<g id="edge71" class="edge"><title>2&#45;&gt;11</title>
<path fill="none" stroke="red" d="M619.571,-681.124C611.386,-670.737 596.921,-652.383 585.39,-637.75"/>
<polygon fill="red" stroke="red" points="587.948,-635.342 579.01,-629.654 582.45,-639.674 587.948,-635.342"/>
</g>
<!-- 68 -->
<g id="node52" class="node"><title>68</title>
<ellipse fill="none" stroke="black" cx="243" cy="-96.8112" rx="18.2703" ry="18.2703"/>
<text text-anchor="middle" x="243" y="-94.6112" font-family="Times New Roman,serif" font-size="9.00">68</text>
</g>
<!-- 2&#45;&gt;68 -->
<g id="edge95" class="edge"><title>2&#45;&gt;68</title>
<path fill="none" stroke="green" d="M615.46,-688.183C559.195,-682.258 295.609,-653.724 264,-635.897 103.473,-545.358 0,-500.419 0,-316.12 0,-316.12 0,-316.12 0,-241.35 0,-142.692 150.327,-110.432 214.507,-101.154"/>
<polygon fill="green" stroke="green" points="215.297,-104.579 224.736,-99.7664 214.356,-97.6428 215.297,-104.579"/>
</g>
<!-- 3 -->
<g id="node3" class="node"><title>3</title>
<polygon fill="lightgray" stroke="black" points="929.5,-980.975 908.5,-980.975 908.5,-962.975 929.5,-962.975 929.5,-980.975"/>
<text text-anchor="middle" x="919" y="-969.775" font-family="Times New Roman,serif" font-size="9.00">3</text>
</g>
<!-- 3&#45;&gt;6 -->
<g id="edge29" class="edge"><title>3&#45;&gt;6</title>
<path fill="none" stroke="green" d="M908.407,-970.758C821.201,-968.927 223.164,-955.383 149,-926.975 100.641,-908.451 80.4377,-900.878 58,-854.205 50.9193,-839.477 56.8429,-833.737 58,-817.436 62.0101,-760.941 76,-747.918 76,-691.281 76,-691.281 76,-691.281 76,-538.085 76,-415.395 106.447,-362.536 210,-296.735 264.376,-262.182 466.771,-248.155 532.928,-244.431"/>
<polygon fill="green" stroke="green" points="533.513,-247.904 543.31,-243.869 533.135,-240.914 533.513,-247.904"/>
</g>
<!-- 28 -->
<g id="node7" class="node"><title>28</title>
<ellipse fill="none" stroke="black" cx="862" cy="-908.59" rx="18.2703" ry="18.2703"/>
<text text-anchor="middle" x="862" y="-906.39" font-family="Times New Roman,serif" font-size="9.00">28</text>
</g>
<!-- 3&#45;&gt;28 -->
<g id="edge93" class="edge"><title>3&#45;&gt;28</title>
<path fill="none" stroke="red" d="M911.548,-962.95C903.8,-954.606 891.363,-941.212 880.888,-929.931"/>
<polygon fill="red" stroke="red" points="883.401,-927.494 874.032,-922.547 878.271,-932.257 883.401,-927.494"/>
</g>
<!-- 15 -->
<g id="node10" class="node"><title>15</title>
<ellipse fill="none" stroke="black" cx="919" cy="-763.051" rx="18.2703" ry="18.2703"/>
<text text-anchor="middle" x="919" y="-760.851" font-family="Times New Roman,serif" font-size="9.00">15</text>
</g>
<!-- 3&#45;&gt;15 -->
<g id="edge10" class="edge"><title>3&#45;&gt;15</title>
<path fill="none" stroke="red" d="M919,-962.863C919,-934.58 919,-839.455 919,-791.778"/>
<polygon fill="red" stroke="red" points="922.5,-791.554 919,-781.554 915.5,-791.554 922.5,-791.554"/>
</g>
<!-- 16 -->
<g id="node23" class="node"><title>16</title>
<ellipse fill="none" stroke="black" cx="1069" cy="-614.683" rx="18.2703" ry="18.2703"/>
<text text-anchor="middle" x="1069" y="-612.483" font-family="Times New Roman,serif" font-size="9.00">16</text>
</g>
<!-- 3&#45;&gt;16 -->
<g id="edge61" class="edge"><title>3&#45;&gt;16</title>
<path fill="none" stroke="green" d="M929.899,-963.983C963.62,-941.962 1064,-873.345 1064,-836.82 1064,-836.82 1064,-836.82 1064,-762.051 1064,-720.792 1066.01,-673.03 1067.48,-643.586"/>
<polygon fill="green" stroke="green" points="1070.99,-643.417 1068.01,-633.25 1064,-643.057 1070.99,-643.417"/>
</g>
<!-- 3&#45;&gt;56 -->
<g id="edge84" class="edge"><title>3&#45;&gt;56</title>
<path fill="none" stroke="green" d="M929.781,-966.446C955.174,-955.762 1016.92,-929.681 1021,-926.975 1069.23,-894.967 1115,-894.707 1115,-836.82 1115,-836.82 1115,-836.82 1115,-689.281 1115,-645.869 1121.04,-628.931 1096,-593.47 1015.75,-479.828 849.412,-419.505 784.133,-399.437"/>
<polygon fill="green" stroke="green" points="785.137,-396.084 774.553,-396.56 783.124,-402.788 785.137,-396.084"/>
</g>
<!-- 4 -->
<g id="node4" class="node"><title>4</title>
<polygon fill="lightgray" stroke="black" points="454.5,-772.051 433.5,-772.051 433.5,-754.051 454.5,-754.051 454.5,-772.051"/>
<text text-anchor="middle" x="444" y="-760.851" font-family="Times New Roman,serif" font-size="9.00">4</text>
</g>
<!-- 4&#45;&gt;6 -->
<g id="edge28" class="edge"><title>4&#45;&gt;6</title>
<path fill="none" stroke="green" d="M433.117,-754.497C420.923,-745.297 401.84,-728.507 394,-708.666 338.158,-567.354 383.233,-511.619 437,-369.505 450.293,-334.369 454.676,-324.482 480,-296.735 495.918,-279.294 518.388,-264.064 534.383,-254.383"/>
<polygon fill="green" stroke="green" points="536.533,-257.18 543.389,-249.103 532.992,-251.142 536.533,-257.18"/>
</g>
<!-- 73 -->
<g id="node9" class="node"><title>73</title>
<ellipse fill="none" stroke="black" cx="421" cy="-690.281" rx="18.2703" ry="18.2703"/>
<text text-anchor="middle" x="421" y="-688.081" font-family="Times New Roman,serif" font-size="9.00">73</text>
</g>
<!-- 4&#45;&gt;73 -->
<g id="edge44" class="edge"><title>4&#45;&gt;73</title>
<path fill="none" stroke="red" d="M441.362,-753.933C438.494,-745.109 433.761,-730.546 429.58,-717.68"/>
<polygon fill="red" stroke="red" points="432.81,-716.297 426.391,-707.868 426.153,-718.46 432.81,-716.297"/>
</g>
<!-- 4&#45;&gt;12 -->
<g id="edge68" class="edge"><title>4&#45;&gt;12</title>
<path fill="none" stroke="green" d="M454.596,-760.838C485.474,-756.976 577.465,-743.133 645,-708.666 682.077,-689.743 718.151,-657.226 739.471,-636.095"/>
<polygon fill="green" stroke="green" points="742.078,-638.437 746.633,-628.871 737.107,-633.508 742.078,-638.437"/>
</g>
<!-- 8 -->
<g id="node38" class="node"><title>8</title>
<ellipse fill="none" stroke="black" cx="532" cy="-390.718" rx="14.7" ry="14.7"/>
<text text-anchor="middle" x="532" y="-388.518" font-family="Times New Roman,serif" font-size="9.00">8</text>
</g>
<!-- 4&#45;&gt;8 -->
<g id="edge37" class="edge"><title>4&#45;&gt;8</title>
<path fill="none" stroke="red" d="M444.247,-753.974C445.376,-728.407 451.623,-647.744 486,-593.47 499.52,-572.125 519.042,-580.237 530,-557.47 552.298,-511.14 544.446,-448.744 537.668,-415.274"/>
<polygon fill="red" stroke="red" points="541.084,-414.512 535.544,-405.48 534.243,-415.995 541.084,-414.512"/>
</g>
<!-- 5 -->
<g id="node5" class="node"><title>5</title>
<polygon fill="lightgray" stroke="black" points="968.5,-980.975 947.5,-980.975 947.5,-962.975 968.5,-962.975 968.5,-980.975"/>
<text text-anchor="middle" x="958" y="-969.775" font-family="Times New Roman,serif" font-size="9.00">5</text>
</g>
<!-- 28&#45;&gt;17 -->
<g id="edge94" class="edge"><title>28&#45;&gt;17</title>
<path fill="none" stroke="red" d="M859.281,-890.096C858.069,-882.298 856.612,-872.925 855.261,-864.231"/>
<polygon fill="red" stroke="red" points="858.682,-863.457 853.688,-854.113 851.765,-864.532 858.682,-863.457"/>
</g>
<!-- 17&#45;&gt;15 -->
<g id="edge11" class="edge"><title>17&#45;&gt;15</title>
<path fill="none" stroke="red" d="M863.472,-821.84C873.537,-811.366 887.877,-796.441 899.463,-784.383"/>
<polygon fill="red" stroke="red" points="902.202,-786.585 906.607,-776.949 897.154,-781.735 902.202,-786.585"/>
</g>
<!-- 13 -->
<g id="node20" class="node"><title>13</title>
<ellipse fill="none" stroke="black" cx="274" cy="-539.085" rx="18.2703" ry="18.2703"/>
<text text-anchor="middle" x="274" y="-536.885" font-family="Times New Roman,serif" font-size="9.00">13</text>
</g>
<!-- 17&#45;&gt;13 -->
<g id="edge24" class="edge"><title>17&#45;&gt;13</title>
<path fill="none" stroke="red" d="M832.343,-834.248C759.735,-831.756 496.479,-820.17 424,-781.436 339.413,-736.231 365.929,-676.544 318,-593.47 311.154,-581.604 301.674,-569.714 293.265,-560.177"/>
<polygon fill="red" stroke="red" points="295.852,-557.819 286.536,-552.771 290.671,-562.526 295.852,-557.819"/>
</g>
<!-- 47 -->
<g id="node25" class="node"><title>47</title>
<ellipse fill="none" stroke="black" cx="785" cy="-539.085" rx="18.2703" ry="18.2703"/>
<text text-anchor="middle" x="785" y="-536.885" font-family="Times New Roman,serif" font-size="9.00">47</text>
</g>
<!-- 17&#45;&gt;47 -->
<g id="edge51" class="edge"><title>17&#45;&gt;47</title>
<path fill="none" stroke="green" d="M850.241,-816.995C848.663,-786.785 844.104,-723.755 832,-671.897 823.176,-634.092 807.056,-592.128 796.187,-565.925"/>
<polygon fill="green" stroke="green" points="799.27,-564.229 792.165,-556.37 792.818,-566.945 799.27,-564.229"/>
</g>
<!-- 71 -->
<g id="node12" class="node"><title>71</title>
<ellipse fill="none" stroke="black" cx="421" cy="-614.683" rx="18.2703" ry="18.2703"/>
<text text-anchor="middle" x="421" y="-612.483" font-family="Times New Roman,serif" font-size="9.00">71</text>
</g>
<!-- 73&#45;&gt;71 -->
<g id="edge45" class="edge"><title>73&#45;&gt;71</title>
<path fill="none" stroke="red" d="M421,-671.84C421,-663.377 421,-653.006 421,-643.489"/>
<polygon fill="red" stroke="red" points="424.5,-643.255 421,-633.255 417.5,-643.255 424.5,-643.255"/>
</g>
<!-- 15&#45;&gt;6 -->
<g id="edge36" class="edge"><title>15&#45;&gt;6</title>
<path fill="none" stroke="green" d="M928.091,-746.755C933.761,-736.387 940.605,-722.164 944,-708.666 951.902,-677.254 947.111,-668.275 948,-635.897 952.249,-481.181 987.677,-396.086 869,-296.735 821.741,-257.173 653.398,-277.179 594,-260.735 587.2,-258.852 580.05,-256.037 573.706,-253.217"/>
<polygon fill="green" stroke="green" points="575.106,-250.007 564.567,-248.916 572.125,-256.341 575.106,-250.007"/>
</g>
<!-- 19 -->
<g id="node15" class="node"><title>19</title>
<ellipse fill="none" stroke="black" cx="805" cy="-690.281" rx="18.2703" ry="18.2703"/>
<text text-anchor="middle" x="805" y="-688.081" font-family="Times New Roman,serif" font-size="9.00">19</text>
</g>
<!-- 15&#45;&gt;19 -->
<g id="edge22" class="edge"><title>15&#45;&gt;19</title>
<path fill="none" stroke="red" d="M903.625,-752.507C884.502,-740.635 851.636,-720.232 829.14,-706.267"/>
<polygon fill="red" stroke="red" points="830.837,-703.201 820.495,-700.9 827.145,-709.148 830.837,-703.201"/>
</g>
<!-- 15&#45;&gt;12 -->
<g id="edge25" class="edge"><title>15&#45;&gt;12</title>
<path fill="none" stroke="red" d="M900.707,-760.63C870.338,-757.243 809.727,-745.938 778,-708.666 762.701,-690.693 758.574,-663.719 757.907,-643.445"/>
<polygon fill="red" stroke="red" points="761.406,-643.23 757.838,-633.254 754.406,-643.278 761.406,-643.23"/>
</g>
<!-- 64 -->
<g id="node26" class="node"><title>64</title>
<ellipse fill="none" stroke="black" cx="1014" cy="-690.281" rx="18.2703" ry="18.2703"/>
<text text-anchor="middle" x="1014" y="-688.081" font-family="Times New Roman,serif" font-size="9.00">64</text>
</g>
<!-- 15&#45;&gt;64 -->
<g id="edge38" class="edge"><title>15&#45;&gt;64</title>
<path fill="none" stroke="green" d="M933.428,-751.302C948.862,-739.805 973.544,-721.419 991.527,-708.022"/>
<polygon fill="green" stroke="green" points="993.819,-710.68 999.747,-701.899 989.637,-705.066 993.819,-710.68"/>
</g>
<!-- 18 -->
<g id="node47" class="node"><title>18</title>
<ellipse fill="none" stroke="black" cx="849" cy="-390.718" rx="18.2703" ry="18.2703"/>
<text text-anchor="middle" x="849" y="-388.518" font-family="Times New Roman,serif" font-size="9.00">18</text>
</g>
<!-- 15&#45;&gt;18 -->
<g id="edge32" class="edge"><title>15&#45;&gt;18</title>
<path fill="none" stroke="red" d="M922.326,-744.696C929.368,-704.484 943.451,-602.151 922,-520.701 911.261,-479.925 884.358,-438.499 866.385,-413.965"/>
<polygon fill="red" stroke="red" points="869.009,-411.63 860.214,-405.722 863.405,-415.825 869.009,-411.63"/>
</g>
<!-- 32 -->
<g id="node14" class="node"><title>32</title>
<ellipse fill="none" stroke="black" cx="274" cy="-466.316" rx="18.2703" ry="18.2703"/>
<text text-anchor="middle" x="274" y="-464.116" font-family="Times New Roman,serif" font-size="9.00">32</text>
</g>
<!-- 27&#45;&gt;32 -->
<g id="edge17" class="edge"><title>27&#45;&gt;32</title>
<path fill="none" stroke="green" d="M163.321,-671.964C168.263,-639.892 182.091,-570.032 214,-520.701 223.537,-505.957 238.211,-492.8 250.66,-483.236"/>
<polygon fill="green" stroke="green" points="252.858,-485.964 258.832,-477.214 248.706,-480.329 252.858,-485.964"/>
</g>
<!-- 82 -->
<g id="node22" class="node"><title>82</title>
<ellipse fill="none" stroke="black" cx="291" cy="-614.683" rx="18.2703" ry="18.2703"/>
<text text-anchor="middle" x="291" y="-612.483" font-family="Times New Roman,serif" font-size="9.00">82</text>
</g>
<!-- 27&#45;&gt;82 -->
<g id="edge55" class="edge"><title>27&#45;&gt;82</title>
<path fill="none" stroke="green" d="M176.681,-680.404C198.935,-667.805 239.898,-644.614 266.27,-629.684"/>
<polygon fill="green" stroke="green" points="268.285,-632.565 275.263,-624.592 264.837,-626.473 268.285,-632.565"/>
</g>
<!-- 58 -->
<g id="node21" class="node"><title>58</title>
<ellipse fill="none" stroke="black" cx="503" cy="-539.085" rx="18.2703" ry="18.2703"/>
<text text-anchor="middle" x="503" y="-536.885" font-family="Times New Roman,serif" font-size="9.00">58</text>
</g>
<!-- 71&#45;&gt;58 -->
<g id="edge41" class="edge"><title>71&#45;&gt;58</title>
<path fill="none" stroke="green" d="M434.175,-601.859C447.009,-590.339 466.732,-572.637 481.78,-559.131"/>
<polygon fill="green" stroke="green" points="484.481,-561.41 489.586,-552.125 479.806,-556.2 484.481,-561.41"/>
</g>
<!-- 21 -->
<g id="node17" class="node"><title>21</title>
<ellipse fill="none" stroke="black" cx="448" cy="-539.085" rx="18.2703" ry="18.2703"/>
<text text-anchor="middle" x="448" y="-536.885" font-family="Times New Roman,serif" font-size="9.00">21</text>
</g>
<!-- 40&#45;&gt;21 -->
<g id="edge60" class="edge"><title>40&#45;&gt;21</title>
<path fill="none" stroke="green" d="M501.078,-600.184C491.457,-589.291 477.75,-573.77 466.675,-561.23"/>
<polygon fill="green" stroke="green" points="469.09,-558.677 459.846,-553.499 463.843,-563.311 469.09,-558.677"/>
</g>
<!-- 23 -->
<g id="node18" class="node"><title>23</title>
<ellipse fill="none" stroke="black" cx="291" cy="-390.718" rx="18.2703" ry="18.2703"/>
<text text-anchor="middle" x="291" y="-388.518" font-family="Times New Roman,serif" font-size="9.00">23</text>
</g>
<!-- 32&#45;&gt;23 -->
<g id="edge18" class="edge"><title>32&#45;&gt;23</title>
<path fill="none" stroke="red" d="M277.943,-448.246C279.981,-439.421 282.516,-428.448 284.808,-418.523"/>
<polygon fill="red" stroke="red" points="288.238,-419.226 287.079,-408.695 281.418,-417.651 288.238,-419.226"/>
</g>
<!-- 91 -->
<g id="node34" class="node"><title>91</title>
<ellipse fill="none" stroke="black" cx="236" cy="-390.718" rx="18.2703" ry="18.2703"/>
<text text-anchor="middle" x="236" y="-388.518" font-family="Times New Roman,serif" font-size="9.00">91</text>
</g>
<!-- 32&#45;&gt;91 -->
<g id="edge63" class="edge"><title>32&#45;&gt;91</title>
<path fill="none" stroke="green" d="M265.941,-449.708C260.953,-440.047 254.44,-427.432 248.762,-416.435"/>
<polygon fill="green" stroke="green" points="251.745,-414.583 244.047,-407.304 245.525,-417.795 251.745,-414.583"/>
</g>
<!-- 19&#45;&gt;12 -->
<g id="edge23" class="edge"><title>19&#45;&gt;12</title>
<path fill="none" stroke="red" d="M795.691,-674.388C789.394,-664.312 780.944,-650.792 773.74,-639.267"/>
<polygon fill="red" stroke="red" points="776.563,-637.18 768.295,-630.555 770.627,-640.89 776.563,-637.18"/>
</g>
<!-- 14&#45;&gt;56 -->
<g id="edge46" class="edge"><title>14&#45;&gt;56</title>
<path fill="none" stroke="green" d="M693.892,-452.831C705.646,-441.449 723.2,-424.45 736.812,-411.268"/>
<polygon fill="green" stroke="green" points="739.549,-413.489 744.298,-404.018 734.679,-408.461 739.549,-413.489"/>
</g>
<!-- 104 -->
<g id="node43" class="node"><title>104</title>
<ellipse fill="none" stroke="black" cx="662" cy="-390.718" rx="21.4286" ry="21.4286"/>
<text text-anchor="middle" x="662" y="-388.518" font-family="Times New Roman,serif" font-size="9.00">104</text>
</g>
<!-- 14&#45;&gt;104 -->
<g id="edge83" class="edge"><title>14&#45;&gt;104</title>
<path fill="none" stroke="green" d="M676.593,-448.246C674.538,-440.286 672.032,-430.577 669.68,-421.468"/>
<polygon fill="green" stroke="green" points="673.012,-420.369 667.123,-411.562 666.234,-422.119 673.012,-420.369"/>
</g>
<!-- 26 -->
<g id="node45" class="node"><title>26</title>
<ellipse fill="none" stroke="black" cx="659" cy="-315.12" rx="18.2703" ry="18.2703"/>
<text text-anchor="middle" x="659" y="-312.92" font-family="Times New Roman,serif" font-size="9.00">26</text>
</g>
<!-- 14&#45;&gt;26 -->
<g id="edge15" class="edge"><title>14&#45;&gt;26</title>
<path fill="none" stroke="green" d="M686.731,-448.727C692.548,-429.369 699.688,-396.562 692,-369.505 688.841,-358.385 682.632,-347.313 676.444,-338.159"/>
<polygon fill="green" stroke="green" points="679.289,-336.12 670.618,-330.031 673.6,-340.198 679.289,-336.12"/>
</g>
<!-- 75 -->
<g id="node50" class="node"><title>75</title>
<ellipse fill="none" stroke="black" cx="781" cy="-242.35" rx="18.2703" ry="18.2703"/>
<text text-anchor="middle" x="781" y="-240.15" font-family="Times New Roman,serif" font-size="9.00">75</text>
</g>
<!-- 14&#45;&gt;75 -->
<g id="edge78" class="edge"><title>14&#45;&gt;75</title>
<path fill="none" stroke="red" d="M699.783,-465.406C764.854,-465.282 978.961,-461.086 1021,-411.931 1038.68,-391.263 1010.66,-302.495 1005,-296.735 977.869,-269.124 863.6,-252.737 809.555,-246.394"/>
<polygon fill="red" stroke="red" points="809.622,-242.879 799.291,-245.225 808.831,-249.834 809.622,-242.879"/>
</g>
<!-- 21&#45;&gt;6 -->
<g id="edge3" class="edge"><title>21&#45;&gt;6</title>
<path fill="none" stroke="red" d="M440.041,-522.382C431.933,-504.341 421.416,-473.883 428,-447.931 448.058,-368.875 510.979,-291.238 539.587,-258.97"/>
<polygon fill="red" stroke="red" points="542.281,-261.208 546.379,-251.438 537.083,-256.52 542.281,-261.208"/>
</g>
<!-- 7 -->
<g id="node36" class="node"><title>7</title>
<ellipse fill="none" stroke="black" cx="452" cy="-466.316" rx="14.7" ry="14.7"/>
<text text-anchor="middle" x="452" y="-464.116" font-family="Times New Roman,serif" font-size="9.00">7</text>
</g>
<!-- 21&#45;&gt;7 -->
<g id="edge35" class="edge"><title>21&#45;&gt;7</title>
<path fill="none" stroke="green" d="M448.989,-520.592C449.486,-511.789 450.097,-500.981 450.638,-491.406"/>
<polygon fill="green" stroke="green" points="454.14,-491.474 451.21,-481.292 447.151,-491.079 454.14,-491.474"/>
</g>
<!-- 23&#45;&gt;10 -->
<g id="edge4" class="edge"><title>23&#45;&gt;10</title>
<path fill="none" stroke="green" d="M299.059,-374.11C304.047,-364.449 310.56,-351.834 316.238,-340.837"/>
<polygon fill="green" stroke="green" points="319.475,-342.197 320.953,-331.706 313.255,-338.985 319.475,-342.197"/>
</g>
<!-- 72 -->
<g id="node27" class="node"><title>72</title>
<ellipse fill="none" stroke="black" cx="329" cy="-539.085" rx="18.2703" ry="18.2703"/>
<text text-anchor="middle" x="329" y="-536.885" font-family="Times New Roman,serif" font-size="9.00">72</text>
</g>
<!-- 12&#45;&gt;72 -->
<g id="edge42" class="edge"><title>12&#45;&gt;72</title>
<path fill="none" stroke="red" d="M741.179,-609.951C720.676,-605.712 685.979,-598.706 656,-593.47 551.912,-575.292 525.151,-575.283 421,-557.47 399.436,-553.782 375.118,-549.167 356.902,-545.619"/>
<polygon fill="red" stroke="red" points="357.434,-542.157 346.948,-543.668 356.088,-549.026 357.434,-542.157"/>
</g>
<!-- 12&#45;&gt;7 -->
<g id="edge9" class="edge"><title>12&#45;&gt;7</title>
<path fill="none" stroke="green" d="M741.831,-607.249C696.796,-590.082 572.122,-540.668 476,-484.701 474.666,-483.924 473.315,-483.091 471.97,-482.224"/>
<polygon fill="green" stroke="green" points="473.617,-479.108 463.404,-476.288 469.629,-484.861 473.617,-479.108"/>
</g>
<!-- 43 -->
<g id="node40" class="node"><title>43</title>
<ellipse fill="none" stroke="black" cx="840" cy="-539.085" rx="18.2703" ry="18.2703"/>
<text text-anchor="middle" x="840" y="-536.885" font-family="Times New Roman,serif" font-size="9.00">43</text>
</g>
<!-- 12&#45;&gt;43 -->
<g id="edge80" class="edge"><title>12&#45;&gt;43</title>
<path fill="none" stroke="green" d="M772.376,-601.53C785.114,-589.955 804.479,-572.36 819.227,-558.96"/>
<polygon fill="green" stroke="green" points="821.826,-561.328 826.873,-552.012 817.119,-556.147 821.826,-561.328"/>
</g>
<!-- 13&#45;&gt;7 -->
<g id="edge21" class="edge"><title>13&#45;&gt;7</title>
<path fill="none" stroke="red" d="M288.778,-528.093C292.952,-525.498 297.566,-522.836 302,-520.701 344.996,-499.996 398.221,-482.938 428.323,-474.024"/>
<polygon fill="red" stroke="red" points="429.33,-477.376 437.951,-471.218 427.371,-470.656 429.33,-477.376"/>
</g>
<!-- 67 -->
<g id="node56" class="node"><title>67</title>
<ellipse fill="none" stroke="black" cx="114" cy="-169.581" rx="18.2703" ry="18.2703"/>
<text text-anchor="middle" x="114" y="-167.381" font-family="Times New Roman,serif" font-size="9.00">67</text>
</g>
<!-- 13&#45;&gt;67 -->
<g id="edge48" class="edge"><title>13&#45;&gt;67</title>
<path fill="none" stroke="red" d="M259.383,-527.556C223.212,-500.433 130.268,-423.924 100,-333.505 84.5495,-287.349 96.0728,-229.942 105.37,-197.055"/>
<polygon fill="red" stroke="red" points="108.78,-197.868 108.274,-187.285 102.07,-195.874 108.78,-197.868"/>
</g>
<!-- 86 -->
<g id="node29" class="node"><title>86</title>
<ellipse fill="none" stroke="black" cx="503" cy="-466.316" rx="18.2703" ry="18.2703"/>
<text text-anchor="middle" x="503" y="-464.116" font-family="Times New Roman,serif" font-size="9.00">86</text>
</g>
<!-- 58&#45;&gt;86 -->
<g id="edge57" class="edge"><title>58&#45;&gt;86</title>
<path fill="none" stroke="green" d="M503,-520.592C503,-512.909 503,-503.7 503,-495.116"/>
<polygon fill="green" stroke="green" points="506.5,-495.1 503,-485.1 499.5,-495.1 506.5,-495.1"/>
</g>
<!-- 82&#45;&gt;72 -->
<g id="edge56" class="edge"><title>82&#45;&gt;72</title>
<path fill="none" stroke="green" d="M299.059,-598.075C304.047,-588.415 310.56,-575.799 316.238,-564.803"/>
<polygon fill="green" stroke="green" points="319.475,-566.162 320.953,-555.671 313.255,-562.951 319.475,-566.162"/>
</g>
<!-- 94 -->
<g id="node30" class="node"><title>94</title>
<ellipse fill="none" stroke="black" cx="895" cy="-539.085" rx="18.2703" ry="18.2703"/>
<text text-anchor="middle" x="895" y="-536.885" font-family="Times New Roman,serif" font-size="9.00">94</text>
</g>
<!-- 16&#45;&gt;94 -->
<g id="edge65" class="edge"><title>16&#45;&gt;94</title>
<path fill="none" stroke="red" d="M1054.96,-602.399C1050.64,-599.249 1045.77,-596 1041,-593.47 1001.76,-572.646 952.627,-556.531 922.541,-547.679"/>
<polygon fill="red" stroke="red" points="923.319,-544.261 912.741,-544.854 921.381,-550.987 923.319,-544.261"/>
</g>
<!-- 96 -->
<g id="node31" class="node"><title>96</title>
<ellipse fill="none" stroke="black" cx="1101" cy="-466.316" rx="18.2703" ry="18.2703"/>
<text text-anchor="middle" x="1101" y="-464.116" font-family="Times New Roman,serif" font-size="9.00">96</text>
</g>
<!-- 16&#45;&gt;96 -->
<g id="edge69" class="edge"><title>16&#45;&gt;96</title>
<path fill="none" stroke="green" d="M1072.73,-596.607C1078.22,-571.513 1088.51,-524.423 1095.05,-494.53"/>
<polygon fill="green" stroke="green" points="1098.47,-495.254 1097.19,-484.737 1091.64,-493.759 1098.47,-495.254"/>
</g>
<!-- 9 -->
<g id="node37" class="node"><title>9</title>
<ellipse fill="none" stroke="black" cx="630" cy="-466.316" rx="14.7" ry="14.7"/>
<text text-anchor="middle" x="630" y="-464.116" font-family="Times New Roman,serif" font-size="9.00">9</text>
</g>
<!-- 105&#45;&gt;9 -->
<g id="edge77" class="edge"><title>105&#45;&gt;9</title>
<path fill="none" stroke="red" d="M626.556,-593.332C627.284,-566.703 628.558,-520.093 629.335,-491.634"/>
<polygon fill="red" stroke="red" points="632.842,-491.442 629.616,-481.35 625.844,-491.251 632.842,-491.442"/>
</g>
<!-- 47&#45;&gt;9 -->
<g id="edge52" class="edge"><title>47&#45;&gt;9</title>
<path fill="none" stroke="green" d="M769.285,-528.943C764.173,-526.134 758.419,-523.141 753,-520.701 710.312,-501.472 695.357,-506.645 654,-484.701 652.637,-483.977 651.263,-483.184 649.901,-482.349"/>
<polygon fill="green" stroke="green" points="651.529,-479.223 641.293,-476.487 647.589,-485.009 651.529,-479.223"/>
</g>
<!-- 39 -->
<g id="node46" class="node"><title>39</title>
<ellipse fill="none" stroke="black" cx="714" cy="-315.12" rx="18.2703" ry="18.2703"/>
<text text-anchor="middle" x="714" y="-312.92" font-family="Times New Roman,serif" font-size="9.00">39</text>
</g>
<!-- 47&#45;&gt;39 -->
<g id="edge67" class="edge"><title>47&#45;&gt;39</title>
<path fill="none" stroke="red" d="M789.546,-521.174C797.101,-489.475 809.078,-419.793 784,-369.505 774.706,-350.868 755.475,-336.947 739.518,-328.001"/>
<polygon fill="red" stroke="red" points="741.08,-324.868 730.601,-323.31 737.822,-331.063 741.08,-324.868"/>
</g>
<!-- 97 -->
<g id="node33" class="node"><title>97</title>
<ellipse fill="none" stroke="black" cx="1014" cy="-614.683" rx="18.2703" ry="18.2703"/>
<text text-anchor="middle" x="1014" y="-612.483" font-family="Times New Roman,serif" font-size="9.00">97</text>
</g>
<!-- 64&#45;&gt;97 -->
<g id="edge90" class="edge"><title>64&#45;&gt;97</title>
<path fill="none" stroke="red" d="M1014,-671.84C1014,-663.377 1014,-653.006 1014,-643.489"/>
<polygon fill="red" stroke="red" points="1017.5,-643.255 1014,-633.255 1010.5,-643.255 1017.5,-643.255"/>
</g>
<!-- 72&#45;&gt;9 -->
<g id="edge43" class="edge"><title>72&#45;&gt;9</title>
<path fill="none" stroke="green" d="M346.928,-533.87C398.518,-521.741 547.388,-486.739 605.938,-472.973"/>
<polygon fill="green" stroke="green" points="606.842,-476.356 615.776,-470.66 605.24,-469.542 606.842,-476.356"/>
</g>
<!-- 72&#45;&gt;67 -->
<g id="edge92" class="edge"><title>72&#45;&gt;67</title>
<path fill="none" stroke="green" d="M313.813,-528.478C290.839,-513.906 249.627,-487.592 247,-484.701 167.9,-397.63 131.477,-256.561 119.126,-197.713"/>
<polygon fill="green" stroke="green" points="122.516,-196.816 117.095,-187.713 115.656,-198.209 122.516,-196.816"/>
</g>
<!-- 56&#45;&gt;10 -->
<g id="edge47" class="edge"><title>56&#45;&gt;10</title>
<path fill="none" stroke="red" d="M739.819,-383.572C726.829,-379.122 708.478,-373.254 692,-369.505 568.955,-341.504 418.967,-324.871 357.42,-318.78"/>
<polygon fill="red" stroke="red" points="357.607,-315.281 347.315,-317.796 356.929,-322.249 357.607,-315.281"/>
</g>
<!-- 57 -->
<g id="node48" class="node"><title>57</title>
<ellipse fill="none" stroke="black" cx="781" cy="-315.12" rx="18.2703" ry="18.2703"/>
<text text-anchor="middle" x="781" y="-312.92" font-family="Times New Roman,serif" font-size="9.00">57</text>
</g>
<!-- 56&#45;&gt;57 -->
<g id="edge89" class="edge"><title>56&#45;&gt;57</title>
<path fill="none" stroke="green" d="M762.446,-373.017C765.392,-363.984 769.098,-352.619 772.421,-342.427"/>
<polygon fill="green" stroke="green" points="775.803,-343.347 775.576,-332.754 769.148,-341.176 775.803,-343.347"/>
</g>
<!-- 86&#45;&gt;8 -->
<g id="edge58" class="edge"><title>86&#45;&gt;8</title>
<path fill="none" stroke="green" d="M509.436,-448.982C513.422,-438.866 518.6,-425.724 522.991,-414.583"/>
<polygon fill="green" stroke="green" points="526.334,-415.643 526.744,-405.057 519.822,-413.077 526.334,-415.643"/>
</g>
<!-- 94&#45;&gt;9 -->
<g id="edge66" class="edge"><title>94&#45;&gt;9</title>
<path fill="none" stroke="red" d="M880.446,-527.571C876.273,-524.974 871.603,-522.441 867,-520.701 777.197,-486.741 742.536,-521.837 654,-484.701 652.577,-484.104 651.157,-483.408 649.761,-482.644"/>
<polygon fill="red" stroke="red" points="651.354,-479.504 641.069,-476.961 647.523,-485.363 651.354,-479.504"/>
</g>
<!-- 90 -->
<g id="node41" class="node"><title>90</title>
<ellipse fill="none" stroke="black" cx="962" cy="-242.35" rx="18.2703" ry="18.2703"/>
<text text-anchor="middle" x="962" y="-240.15" font-family="Times New Roman,serif" font-size="9.00">90</text>
</g>
<!-- 96&#45;&gt;90 -->
<g id="edge70" class="edge"><title>96&#45;&gt;90</title>
<path fill="none" stroke="red" d="M1096.23,-448.176C1086.73,-416.097 1063.08,-345.805 1026,-296.735 1014.77,-281.868 998.637,-268.448 985.382,-258.782"/>
<polygon fill="red" stroke="red" points="987.358,-255.893 977.167,-252.995 983.326,-261.615 987.358,-255.893"/>
</g>
<!-- 53 -->
<g id="node51" class="node"><title>53</title>
<ellipse fill="none" stroke="black" cx="487" cy="-169.581" rx="18.2703" ry="18.2703"/>
<text text-anchor="middle" x="487" y="-167.381" font-family="Times New Roman,serif" font-size="9.00">53</text>
</g>
<!-- 77&#45;&gt;53 -->
<g id="edge54" class="edge"><title>77&#45;&gt;53</title>
<path fill="none" stroke="red" d="M76.3795,-819.433C62.811,-793.727 38,-740.054 38,-691.281 38,-691.281 38,-691.281 38,-465.316 38,-263.094 360.23,-191.976 458.736,-174.96"/>
<polygon fill="red" stroke="red" points="459.557,-178.371 468.843,-173.27 458.402,-171.467 459.557,-178.371"/>
</g>
<!-- 55 -->
<g id="node42" class="node"><title>55</title>
<ellipse fill="none" stroke="black" cx="994" cy="-390.718" rx="18.2703" ry="18.2703"/>
<text text-anchor="middle" x="994" y="-388.518" font-family="Times New Roman,serif" font-size="9.00">55</text>
</g>
<!-- 97&#45;&gt;55 -->
<g id="edge91" class="edge"><title>97&#45;&gt;55</title>
<path fill="none" stroke="red" d="M1012.43,-596.266C1008.97,-557.853 1000.66,-465.603 996.482,-419.263"/>
<polygon fill="red" stroke="red" points="999.945,-418.7 995.562,-409.054 992.974,-419.328 999.945,-418.7"/>
</g>
<!-- 24 -->
<g id="node44" class="node"><title>24</title>
<ellipse fill="none" stroke="black" cx="237" cy="-315.12" rx="18.2703" ry="18.2703"/>
<text text-anchor="middle" x="237" y="-312.92" font-family="Times New Roman,serif" font-size="9.00">24</text>
</g>
<!-- 91&#45;&gt;24 -->
<g id="edge64" class="edge"><title>91&#45;&gt;24</title>
<path fill="none" stroke="red" d="M236.237,-372.276C236.352,-363.814 236.493,-353.442 236.622,-343.926"/>
<polygon fill="red" stroke="red" points="240.125,-343.738 236.761,-333.691 233.126,-343.643 240.125,-343.738"/>
</g>
<!-- 10&#45;&gt;6 -->
<g id="edge1" class="edge"><title>10&#45;&gt;6</title>
<path fill="none" stroke="green" d="M344.605,-304.719C349.711,-301.895 355.489,-298.96 361,-296.735 421.504,-272.305 497.031,-255.002 533.031,-247.507"/>
<polygon fill="green" stroke="green" points="534.161,-250.848 543.261,-245.421 532.763,-243.989 534.161,-250.848"/>
</g>
<!-- 7&#45;&gt;6 -->
<g id="edge8" class="edge"><title>7&#45;&gt;6</title>
<path fill="none" stroke="green" d="M457.925,-452.423C475.286,-414.642 526.063,-304.144 545.914,-260.946"/>
<polygon fill="green" stroke="green" points="549.162,-262.26 550.157,-251.712 542.801,-259.337 549.162,-262.26"/>
</g>
<!-- 7&#45;&gt;18 -->
<g id="edge31" class="edge"><title>7&#45;&gt;18</title>
<path fill="none" stroke="red" d="M463.013,-455.533C466.872,-452.618 471.398,-449.725 476,-447.931 604.413,-397.884 649.176,-440.516 784,-411.931 796.786,-409.22 810.657,-405.079 822.288,-401.249"/>
<polygon fill="red" stroke="red" points="823.503,-404.533 831.85,-398.007 821.256,-397.903 823.503,-404.533"/>
</g>
<!-- 7&#45;&gt;53 -->
<g id="edge96" class="edge"><title>7&#45;&gt;53</title>
<path fill="none" stroke="green" d="M439.105,-458.951C408.333,-442.936 331.012,-397.621 302,-333.505 295.263,-318.616 294.365,-311.184 302,-296.735 335.631,-233.096 417.39,-195.52 460.065,-179.596"/>
<polygon fill="green" stroke="green" points="461.311,-182.867 469.53,-176.182 458.936,-176.283 461.311,-182.867"/>
</g>
<!-- 9&#45;&gt;6 -->
<g id="edge14" class="edge"><title>9&#45;&gt;6</title>
<path fill="none" stroke="red" d="M628.235,-451.254C624.168,-421.655 612.622,-351.168 589,-296.735 583.258,-283.503 574.307,-269.926 566.895,-259.776"/>
<polygon fill="red" stroke="red" points="569.48,-257.391 560.657,-251.525 563.896,-261.613 569.48,-257.391"/>
</g>
<!-- 9&#45;&gt;104 -->
<g id="edge74" class="edge"><title>9&#45;&gt;104</title>
<path fill="none" stroke="red" d="M635.574,-452.496C639.48,-443.513 644.853,-431.154 649.735,-419.926"/>
<polygon fill="red" stroke="red" points="653.072,-421.029 653.85,-410.462 646.653,-418.237 653.072,-421.029"/>
</g>
<!-- 8&#45;&gt;6 -->
<g id="edge26" class="edge"><title>8&#45;&gt;6</title>
<path fill="none" stroke="green" d="M534.07,-375.948C538.055,-349.436 546.792,-291.302 551.257,-261.602"/>
<polygon fill="green" stroke="green" points="554.762,-261.827 552.787,-251.417 547.84,-260.786 554.762,-261.827"/>
</g>
<!-- 8&#45;&gt;39 -->
<g id="edge19" class="edge"><title>8&#45;&gt;39</title>
<path fill="none" stroke="red" d="M545.986,-385.674C573.511,-377.488 636.349,-357.661 686,-333.505 687.383,-332.832 688.784,-332.109 690.184,-331.353"/>
<polygon fill="red" stroke="red" points="692.336,-334.15 699.211,-326.089 688.809,-328.104 692.336,-334.15"/>
</g>
<!-- 11&#45;&gt;6 -->
<g id="edge72" class="edge"><title>11&#45;&gt;6</title>
<path fill="none" stroke="red" d="M567.722,-596.148C566.903,-548.187 564.157,-410.804 558,-296.735 557.374,-285.137 556.406,-272.141 555.579,-261.875"/>
<polygon fill="red" stroke="red" points="559.047,-261.342 554.731,-251.666 552.071,-261.921 559.047,-261.342"/>
</g>
<!-- 43&#45;&gt;18 -->
<g id="edge81" class="edge"><title>43&#45;&gt;18</title>
<path fill="none" stroke="green" d="M841.068,-520.72C842.602,-495.767 845.447,-449.496 847.28,-419.685"/>
<polygon fill="green" stroke="green" points="850.785,-419.713 847.906,-409.517 843.798,-419.283 850.785,-419.713"/>
</g>
<!-- 90&#45;&gt;53 -->
<g id="edge62" class="edge"><title>90&#45;&gt;53</title>
<path fill="none" stroke="red" d="M943.959,-238.662C871.731,-227.901 603.085,-187.876 515.098,-174.767"/>
<polygon fill="red" stroke="red" points="515.465,-171.283 505.059,-173.271 514.434,-178.207 515.465,-171.283"/>
</g>
<!-- 55&#45;&gt;6 -->
<g id="edge34" class="edge"><title>55&#45;&gt;6</title>
<path fill="none" stroke="green" d="M997.691,-372.558C1001.1,-351.517 1003.02,-316.252 983,-296.735 920.837,-236.135 678.091,-282.309 594,-260.735 587.165,-258.982 580.006,-256.201 573.664,-253.374"/>
<polygon fill="green" stroke="green" points="575.07,-250.166 564.536,-249.033 572.064,-256.488 575.07,-250.166"/>
</g>
<!-- 83 -->
<g id="node49" class="node"><title>83</title>
<ellipse fill="none" stroke="black" cx="956" cy="-315.12" rx="18.2703" ry="18.2703"/>
<text text-anchor="middle" x="956" y="-312.92" font-family="Times New Roman,serif" font-size="9.00">83</text>
</g>
<!-- 55&#45;&gt;83 -->
<g id="edge87" class="edge"><title>55&#45;&gt;83</title>
<path fill="none" stroke="green" d="M985.941,-374.11C980.953,-364.449 974.44,-351.834 968.762,-340.837"/>
<polygon fill="green" stroke="green" points="971.745,-338.985 964.047,-331.706 965.525,-342.197 971.745,-338.985"/>
</g>
<!-- 104&#45;&gt;26 -->
<g id="edge75" class="edge"><title>104&#45;&gt;26</title>
<path fill="none" stroke="green" d="M661.164,-369.217C660.843,-361.321 660.47,-352.172 660.125,-343.715"/>
<polygon fill="green" stroke="green" points="663.614,-343.37 659.709,-333.521 656.62,-343.655 663.614,-343.37"/>
</g>
<!-- 24&#45;&gt;6 -->
<g id="edge6" class="edge"><title>24&#45;&gt;6</title>
<path fill="none" stroke="green" d="M254.592,-309.146C267.634,-305.525 285.869,-300.598 302,-296.735 387.436,-276.275 490.141,-255.78 533.303,-247.352"/>
<polygon fill="green" stroke="green" points="534.244,-250.734 543.392,-245.39 532.908,-243.863 534.244,-250.734"/>
</g>
<!-- 26&#45;&gt;6 -->
<g id="edge13" class="edge"><title>26&#45;&gt;6</title>
<path fill="none" stroke="red" d="M643.956,-303.98C625.27,-291.386 593.373,-269.888 573.012,-256.164"/>
<polygon fill="red" stroke="red" points="574.806,-253.153 564.558,-250.466 570.894,-258.957 574.806,-253.153"/>
</g>
<!-- 42 -->
<g id="node54" class="node"><title>42</title>
<ellipse fill="none" stroke="black" cx="621" cy="-242.35" rx="18.2703" ry="18.2703"/>
<text text-anchor="middle" x="621" y="-240.15" font-family="Times New Roman,serif" font-size="9.00">42</text>
</g>
<!-- 26&#45;&gt;42 -->
<g id="edge27" class="edge"><title>26&#45;&gt;42</title>
<path fill="none" stroke="green" d="M650.567,-298.414C645.745,-289.435 639.593,-277.977 634.15,-267.841"/>
<polygon fill="green" stroke="green" points="637.224,-266.167 629.41,-259.012 631.057,-269.478 637.224,-266.167"/>
</g>
<!-- 39&#45;&gt;6 -->
<g id="edge20" class="edge"><title>39&#45;&gt;6</title>
<path fill="none" stroke="red" d="M699.177,-304.218C695.003,-301.624 690.4,-298.939 686,-296.735 646.741,-277.073 634.586,-277.489 594,-260.735 587.478,-258.043 580.404,-255.007 574.044,-252.234"/>
<polygon fill="red" stroke="red" points="575.382,-249 564.819,-248.182 572.567,-255.408 575.382,-249"/>
</g>
<!-- 39&#45;&gt;53 -->
<g id="edge40" class="edge"><title>39&#45;&gt;53</title>
<path fill="none" stroke="red" d="M706.239,-298.065C695.73,-277.949 675.125,-243.723 648,-223.966 607.62,-194.554 550.059,-180.68 515.818,-174.666"/>
<polygon fill="red" stroke="red" points="516.007,-171.15 505.572,-172.98 514.871,-178.058 516.007,-171.15"/>
</g>
<!-- 18&#45;&gt;57 -->
<g id="edge33" class="edge"><title>18&#45;&gt;57</title>
<path fill="none" stroke="green" d="M836.843,-376.56C826.593,-365.466 811.75,-349.401 799.943,-336.622"/>
<polygon fill="green" stroke="green" points="802.409,-334.133 793.052,-329.164 797.267,-338.884 802.409,-334.133"/>
</g>
<!-- 38 -->
<g id="node55" class="node"><title>38</title>
<ellipse fill="none" stroke="black" cx="842" cy="-315.12" rx="18.2703" ry="18.2703"/>
<text text-anchor="middle" x="842" y="-312.92" font-family="Times New Roman,serif" font-size="9.00">38</text>
</g>
<!-- 18&#45;&gt;38 -->
<g id="edge85" class="edge"><title>18&#45;&gt;38</title>
<path fill="none" stroke="red" d="M847.341,-372.276C846.522,-363.66 845.514,-353.066 844.595,-343.409"/>
<polygon fill="red" stroke="red" points="848.078,-343.06 843.647,-333.436 841.11,-343.723 848.078,-343.06"/>
</g>
<!-- 57&#45;&gt;75 -->
<g id="edge49" class="edge"><title>57&#45;&gt;75</title>
<path fill="none" stroke="green" d="M781,-296.626C781,-288.944 781,-279.735 781,-271.151"/>
<polygon fill="green" stroke="green" points="784.5,-271.134 781,-261.134 777.5,-271.134 784.5,-271.134"/>
</g>
<!-- 83&#45;&gt;6 -->
<g id="edge88" class="edge"><title>83&#45;&gt;6</title>
<path fill="none" stroke="red" d="M940.913,-304.359C935.741,-301.445 929.793,-298.547 924,-296.735 783.191,-252.689 736.604,-298.568 594,-260.735 587.18,-258.926 580.025,-256.13 573.682,-253.306"/>
<polygon fill="red" stroke="red" points="575.085,-250.098 564.549,-248.982 572.09,-256.424 575.085,-250.098"/>
</g>
<!-- 75&#45;&gt;53 -->
<g id="edge50" class="edge"><title>75&#45;&gt;53</title>
<path fill="none" stroke="green" d="M763.052,-237.03C713.42,-225.083 574.079,-191.542 514.539,-177.21"/>
<polygon fill="green" stroke="green" points="515.255,-173.782 504.714,-174.845 513.617,-180.588 515.255,-173.782"/>
</g>
<!-- 53&#45;&gt;68 -->
<g id="edge79" class="edge"><title>53&#45;&gt;68</title>
<path fill="none" stroke="red" d="M469.452,-163.491C427.422,-151.301 320.737,-120.358 270.263,-105.719"/>
<polygon fill="red" stroke="red" points="270.968,-102.279 260.389,-102.855 269.018,-109.002 270.968,-102.279"/>
</g>
<!-- 106 -->
<g id="node53" class="node"><title>106</title>
<ellipse fill="none" stroke="black" cx="243" cy="-21.2132" rx="21.4286" ry="21.4286"/>
<text text-anchor="middle" x="243" y="-19.0132" font-family="Times New Roman,serif" font-size="9.00">106</text>
</g>
<!-- 68&#45;&gt;106 -->
<g id="edge82" class="edge"><title>68&#45;&gt;106</title>
<path fill="none" stroke="green" d="M243,-78.3695C243,-70.754 243,-61.5922 243,-52.8988"/>
<polygon fill="green" stroke="green" points="246.5,-52.6624 243,-42.6624 239.5,-52.6624 246.5,-52.6624"/>
</g>
<!-- 42&#45;&gt;67 -->
<g id="edge39" class="edge"><title>42&#45;&gt;67</title>
<path fill="none" stroke="red" d="M604.407,-234.263C595.293,-230.646 583.697,-226.489 573,-223.966 413.321,-186.302 215.851,-174.745 142.865,-171.62"/>
<polygon fill="red" stroke="red" points="142.765,-168.113 132.631,-171.203 142.48,-175.107 142.765,-168.113"/>
</g>
<!-- 38&#45;&gt;6 -->
<g id="edge86" class="edge"><title>38&#45;&gt;6</title>
<path fill="none" stroke="red" d="M826.522,-304.942C820.859,-301.927 814.294,-298.818 808,-296.735 716.438,-266.427 686.466,-288.16 594,-260.735 587.235,-258.729 580.095,-255.879 573.749,-253.067"/>
<polygon fill="red" stroke="red" points="575.142,-249.854 564.599,-248.803 572.185,-256.199 575.142,-249.854"/>
</g>
</g>
</svg>
