<?xml version="1.0" encoding="UTF-8" standalone="no"?>
<!DOCTYPE svg PUBLIC "-//W3C//DTD SVG 1.1//EN"
 "http://www.w3.org/Graphics/SVG/1.1/DTD/svg11.dtd">
<!-- Generated by graphviz version 2.38.0 (20140413.2041)
 -->
<!-- Title: %3 Pages: 1 -->
<svg width="146pt" height="80pt"
 viewBox="0.00 0.00 146.00 80.00" xmlns="http://www.w3.org/2000/svg" xmlns:xlink="http://www.w3.org/1999/xlink">
<g id="graph0" class="graph" transform="scale(1 1) rotate(0) translate(4 76)">
<title>%3</title>
<polygon fill="white" stroke="none" points="-4,4 -4,-76 142,-76 142,4 -4,4"/>
<!-- 1 -->
<g id="node1" class="node"><title>1</title>
<polygon fill="lightgray" stroke="black" points="21,-72 0,-72 0,-54 21,-54 21,-72"/>
<text text-anchor="middle" x="10.5" y="-60.8" font-family="Times New Roman,serif" font-size="9.00">1</text>
</g>
<!-- 5 -->
<g id="node5" class="node"><title>5</title>
<polygon fill="lightblue" stroke="black" points="79,-18 58,-18 58,-0 79,-0 79,-18"/>
<text text-anchor="middle" x="68.5" y="-6.8" font-family="Times New Roman,serif" font-size="9.00">5</text>
</g>
<!-- 1&#45;&gt;5 -->
<g id="edge1" class="edge"><title>1&#45;&gt;5</title>
<path fill="none" stroke="green" d="M19.5625,-53.875C28.11,-46.2117 41.1364,-34.5329 51.601,-25.1508"/>
<polygon fill="green" stroke="green" points="54.2004,-27.521 59.3097,-18.2396 49.5276,-22.309 54.2004,-27.521"/>
</g>
<!-- 2 -->
<g id="node2" class="node"><title>2</title>
<polygon fill="lightgray" stroke="black" points="60,-72 39,-72 39,-54 60,-54 60,-72"/>
<text text-anchor="middle" x="49.5" y="-60.8" font-family="Times New Roman,serif" font-size="9.00">2</text>
</g>
<!-- 2&#45;&gt;5 -->
<g id="edge2" class="edge"><title>2&#45;&gt;5</title>
<path fill="none" stroke="red" d="M52.4688,-53.875C55.0193,-46.8946 58.7872,-36.5824 62.0293,-27.7092"/>
<polygon fill="red" stroke="red" points="65.3448,-28.8334 65.4894,-18.2396 58.77,-26.431 65.3448,-28.8334"/>
</g>
<!-- 3 -->
<g id="node3" class="node"><title>3</title>
<polygon fill="lightgray" stroke="black" points="99,-72 78,-72 78,-54 99,-54 99,-72"/>
<text text-anchor="middle" x="88.5" y="-60.8" font-family="Times New Roman,serif" font-size="9.00">3</text>
</g>
<!-- 3&#45;&gt;5 -->
<g id="edge3" class="edge"><title>3&#45;&gt;5</title>
<path fill="none" stroke="red" d="M85.375,-53.875C82.6902,-46.8946 78.724,-36.5824 75.3112,-27.7092"/>
<polygon fill="red" stroke="red" points="78.5256,-26.3166 71.6691,-18.2396 71.9922,-28.8295 78.5256,-26.3166"/>
</g>
<!-- 4 -->
<g id="node4" class="node"><title>4</title>
<polygon fill="lightgray" stroke="black" points="138,-72 117,-72 117,-54 138,-54 138,-72"/>
<text text-anchor="middle" x="127.5" y="-60.8" font-family="Times New Roman,serif" font-size="9.00">4</text>
</g>
<!-- 4&#45;&gt;5 -->
<g id="edge4" class="edge"><title>4&#45;&gt;5</title>
<path fill="none" stroke="green" d="M118.281,-53.875C109.5,-46.1358 96.0726,-34.3013 85.3749,-24.8728"/>
<polygon fill="green" stroke="green" points="87.6651,-22.2259 77.8487,-18.2396 83.0366,-27.4773 87.6651,-22.2259"/>
</g>
</g>
</svg>
