<?xml version="1.0" encoding="UTF-8" standalone="no"?>
<!DOCTYPE svg PUBLIC "-//W3C//DTD SVG 1.1//EN"
 "http://www.w3.org/Graphics/SVG/1.1/DTD/svg11.dtd">
<!-- Generated by graphviz version 2.38.0 (20140413.2041)
 -->
<!-- Title: %3 Pages: 1 -->
<svg width="170pt" height="218pt"
 viewBox="0.00 0.00 169.88 218.47" xmlns="http://www.w3.org/2000/svg" xmlns:xlink="http://www.w3.org/1999/xlink">
<g id="graph0" class="graph" transform="scale(1 1) rotate(0) translate(4 214.468)">
<title>%3</title>
<polygon fill="white" stroke="none" points="-4,4 -4,-214.468 165.885,-214.468 165.885,4 -4,4"/>
<!-- 1 -->
<g id="node1" class="node"><title>1</title>
<polygon fill="lightgray" stroke="black" points="21,-81.3848 0,-81.3848 0,-63.3848 21,-63.3848 21,-81.3848"/>
<text text-anchor="middle" x="10.5" y="-70.1848" font-family="Times New Roman,serif" font-size="9.00">1</text>
</g>
<!-- 5 -->
<g id="node5" class="node"><title>5</title>
<polygon fill="lightblue" stroke="black" points="81,-18 60,-18 60,-0 81,-0 81,-18"/>
<text text-anchor="middle" x="70.5" y="-6.8" font-family="Times New Roman,serif" font-size="9.00">5</text>
</g>
<!-- 1&#45;&gt;5 -->
<g id="edge1" class="edge"><title>1&#45;&gt;5</title>
<path fill="none" stroke="green" d="M18.344,-63.3598C27.7246,-53.7627 43.6352,-37.4848 55.4223,-25.4257"/>
<polygon fill="green" stroke="green" points="57.9756,-27.8207 62.4626,-18.2229 52.9697,-22.9277 57.9756,-27.8207"/>
</g>
<!-- 2 -->
<g id="node2" class="node"><title>2</title>
<polygon fill="lightgray" stroke="black" points="60,-81.3848 39,-81.3848 39,-63.3848 60,-63.3848 60,-81.3848"/>
<text text-anchor="middle" x="49.5" y="-70.1848" font-family="Times New Roman,serif" font-size="9.00">2</text>
</g>
<!-- 2&#45;&gt;5 -->
<g id="edge2" class="edge"><title>2&#45;&gt;5</title>
<path fill="none" stroke="red" d="M52.2454,-63.3598C55.3097,-54.4025 60.365,-39.6255 64.3796,-27.8905"/>
<polygon fill="red" stroke="red" points="67.7616,-28.8175 67.6869,-18.2229 61.1384,-26.5516 67.7616,-28.8175"/>
</g>
<!-- 3 -->
<g id="node3" class="node"><title>3</title>
<polygon fill="lightgray" stroke="black" points="154,-210.468 133,-210.468 133,-192.468 154,-192.468 154,-210.468"/>
<text text-anchor="middle" x="143.5" y="-199.268" font-family="Times New Roman,serif" font-size="9.00">3</text>
</g>
<!-- 8 -->
<g id="node6" class="node"><title>8</title>
<ellipse fill="none" stroke="black" cx="143.5" cy="-141.619" rx="14.7" ry="14.7"/>
<text text-anchor="middle" x="143.5" y="-139.419" font-family="Times New Roman,serif" font-size="9.00">8</text>
</g>
<!-- 3&#45;&gt;8 -->
<g id="edge3" class="edge"><title>3&#45;&gt;8</title>
<path fill="none" stroke="green" d="M143.5,-192.424C143.5,-185.819 143.5,-176.104 143.5,-167.003"/>
<polygon fill="green" stroke="green" points="147,-166.826 143.5,-156.826 140,-166.826 147,-166.826"/>
</g>
<!-- 4 -->
<g id="node4" class="node"><title>4</title>
<polygon fill="lightgray" stroke="black" points="103,-150.619 82,-150.619 82,-132.619 103,-132.619 103,-150.619"/>
<text text-anchor="middle" x="92.5" y="-139.419" font-family="Times New Roman,serif" font-size="9.00">4</text>
</g>
<!-- 9 -->
<g id="node7" class="node"><title>9</title>
<ellipse fill="none" stroke="black" cx="92.5" cy="-72.3848" rx="14.7" ry="14.7"/>
<text text-anchor="middle" x="92.5" y="-70.1848" font-family="Times New Roman,serif" font-size="9.00">9</text>
</g>
<!-- 4&#45;&gt;9 -->
<g id="edge6" class="edge"><title>4&#45;&gt;9</title>
<path fill="none" stroke="red" d="M92.5,-132.375C92.5,-123.696 92.5,-109.623 92.5,-97.3997"/>
<polygon fill="red" stroke="red" points="96.0001,-97.3157 92.5,-87.3157 89.0001,-97.3157 96.0001,-97.3157"/>
</g>
<!-- 13 -->
<g id="node8" class="node"><title>13</title>
<ellipse fill="none" stroke="black" cx="143.5" cy="-72.3848" rx="18.2703" ry="18.2703"/>
<text text-anchor="middle" x="143.5" y="-70.1848" font-family="Times New Roman,serif" font-size="9.00">13</text>
</g>
<!-- 8&#45;&gt;13 -->
<g id="edge4" class="edge"><title>8&#45;&gt;13</title>
<path fill="none" stroke="red" d="M143.5,-126.688C143.5,-119.359 143.5,-110.104 143.5,-101.37"/>
<polygon fill="red" stroke="red" points="147,-101.14 143.5,-91.1404 140,-101.14 147,-101.14"/>
</g>
<!-- 9&#45;&gt;5 -->
<g id="edge7" class="edge"><title>9&#45;&gt;5</title>
<path fill="none" stroke="red" d="M87.7263,-58.0652C84.5338,-49.1573 80.2979,-37.3383 76.8255,-27.6496"/>
<polygon fill="red" stroke="red" points="80.1114,-26.4438 73.4428,-18.211 73.5219,-28.8055 80.1114,-26.4438"/>
</g>
<!-- 13&#45;&gt;5 -->
<g id="edge5" class="edge"><title>13&#45;&gt;5</title>
<path fill="none" stroke="red" d="M129.769,-59.8388C117.979,-49.9245 100.911,-35.5724 88.1162,-24.8132"/>
<polygon fill="red" stroke="red" points="90.3298,-22.1016 80.4235,-18.3445 85.8246,-27.4592 90.3298,-22.1016"/>
</g>
</g>
</svg>
