<?xml version="1.0" encoding="UTF-8" standalone="no"?>
<!DOCTYPE svg PUBLIC "-//W3C//DTD SVG 1.1//EN"
 "http://www.w3.org/Graphics/SVG/1.1/DTD/svg11.dtd">
<!-- Generated by graphviz version 2.38.0 (20140413.2041)
 -->
<!-- Title: %3 Pages: 1 -->
<svg width="245pt" height="437pt"
 viewBox="0.00 0.00 245.35 436.78" xmlns="http://www.w3.org/2000/svg" xmlns:xlink="http://www.w3.org/1999/xlink">
<g id="graph0" class="graph" transform="scale(1 1) rotate(0) translate(4 432.777)">
<title>%3</title>
<polygon fill="white" stroke="none" points="-4,4 -4,-432.777 241.349,-432.777 241.349,4 -4,4"/>
<!-- 1 -->
<g id="node1" class="node"><title>1</title>
<polygon fill="lightgray" stroke="black" points="21,-81.3848 0,-81.3848 0,-63.3848 21,-63.3848 21,-81.3848"/>
<text text-anchor="middle" x="10.5" y="-70.1848" font-family="Times New Roman,serif" font-size="9.00">1</text>
</g>
<!-- 5 -->
<g id="node5" class="node"><title>5</title>
<polygon fill="lightblue" stroke="black" points="106,-18 85,-18 85,-0 106,-0 106,-18"/>
<text text-anchor="middle" x="95.5" y="-6.8" font-family="Times New Roman,serif" font-size="9.00">5</text>
</g>
<!-- 1&#45;&gt;5 -->
<g id="edge1" class="edge"><title>1&#45;&gt;5</title>
<path fill="none" stroke="green" d="M21.2653,-63.6104C35.1885,-53.5554 59.6688,-35.8763 76.694,-23.5812"/>
<polygon fill="green" stroke="green" points="78.7642,-26.4034 84.8221,-17.7113 74.666,-20.7285 78.7642,-26.4034"/>
</g>
<!-- 2 -->
<g id="node2" class="node"><title>2</title>
<polygon fill="lightgray" stroke="black" points="195,-154.154 174,-154.154 174,-136.154 195,-136.154 195,-154.154"/>
<text text-anchor="middle" x="184.5" y="-142.954" font-family="Times New Roman,serif" font-size="9.00">2</text>
</g>
<!-- 6 -->
<g id="node8" class="node"><title>6</title>
<ellipse fill="none" stroke="black" cx="184.5" cy="-72.3848" rx="14.7" ry="14.7"/>
<text text-anchor="middle" x="184.5" y="-70.1848" font-family="Times New Roman,serif" font-size="9.00">6</text>
</g>
<!-- 2&#45;&gt;6 -->
<g id="edge11" class="edge"><title>2&#45;&gt;6</title>
<path fill="none" stroke="green" d="M184.5,-136.036C184.5,-126.697 184.5,-110.928 184.5,-97.5468"/>
<polygon fill="green" stroke="green" points="188,-97.4962 184.5,-87.4962 181,-97.4962 188,-97.4962"/>
</g>
<!-- 3 -->
<g id="node3" class="node"><title>3</title>
<polygon fill="lightgray" stroke="black" points="98,-428.777 77,-428.777 77,-410.777 98,-410.777 98,-428.777"/>
<text text-anchor="middle" x="87.5" y="-417.577" font-family="Times New Roman,serif" font-size="9.00">3</text>
</g>
<!-- 3&#45;&gt;5 -->
<g id="edge4" class="edge"><title>3&#45;&gt;5</title>
<path fill="none" stroke="red" d="M83.2881,-410.702C73.3944,-390.96 49.5,-338.441 49.5,-291.693 49.5,-291.693 49.5,-291.693 49.5,-144.154 49.5,-103.206 53.3475,-92.0421 68.5,-54 72.3139,-44.4248 78.1498,-34.5732 83.4214,-26.6258"/>
<polygon fill="red" stroke="red" points="86.3718,-28.5132 89.1956,-18.3016 80.6201,-24.5234 86.3718,-28.5132"/>
</g>
<!-- 8 -->
<g id="node6" class="node"><title>8</title>
<ellipse fill="none" stroke="black" cx="132.5" cy="-359.927" rx="14.7" ry="14.7"/>
<text text-anchor="middle" x="132.5" y="-357.727" font-family="Times New Roman,serif" font-size="9.00">8</text>
</g>
<!-- 3&#45;&gt;8 -->
<g id="edge2" class="edge"><title>3&#45;&gt;8</title>
<path fill="none" stroke="green" d="M93.7571,-410.733C99.87,-402.875 109.408,-390.613 117.49,-380.223"/>
<polygon fill="green" stroke="green" points="120.453,-382.115 123.83,-372.073 114.928,-377.817 120.453,-382.115"/>
</g>
<!-- 30 -->
<g id="node12" class="node"><title>30</title>
<ellipse fill="none" stroke="black" cx="95.5" cy="-145.154" rx="18.2703" ry="18.2703"/>
<text text-anchor="middle" x="95.5" y="-142.954" font-family="Times New Roman,serif" font-size="9.00">30</text>
</g>
<!-- 3&#45;&gt;30 -->
<g id="edge15" class="edge"><title>3&#45;&gt;30</title>
<path fill="none" stroke="green" d="M87.7394,-410.618C88.7772,-375.254 92.9136,-234.294 94.6865,-173.877"/>
<polygon fill="green" stroke="green" points="98.1938,-173.676 94.9887,-163.577 91.1968,-173.47 98.1938,-173.676"/>
</g>
<!-- 4 -->
<g id="node4" class="node"><title>4</title>
<polygon fill="lightgray" stroke="black" points="211,-368.927 190,-368.927 190,-350.927 211,-350.927 211,-368.927"/>
<text text-anchor="middle" x="200.5" y="-357.727" font-family="Times New Roman,serif" font-size="9.00">4</text>
</g>
<!-- 9 -->
<g id="node7" class="node"><title>9</title>
<ellipse fill="none" stroke="black" cx="222.5" cy="-290.693" rx="14.7" ry="14.7"/>
<text text-anchor="middle" x="222.5" y="-288.493" font-family="Times New Roman,serif" font-size="9.00">9</text>
</g>
<!-- 4&#45;&gt;9 -->
<g id="edge3" class="edge"><title>4&#45;&gt;9</title>
<path fill="none" stroke="green" d="M203.198,-350.683C206.102,-341.807 210.852,-327.29 214.914,-314.878"/>
<polygon fill="green" stroke="green" points="218.324,-315.71 218.107,-305.117 211.671,-313.533 218.324,-315.71"/>
</g>
<!-- 13 -->
<g id="node10" class="node"><title>13</title>
<ellipse fill="none" stroke="black" cx="141.5" cy="-217.924" rx="18.2703" ry="18.2703"/>
<text text-anchor="middle" x="141.5" y="-215.724" font-family="Times New Roman,serif" font-size="9.00">13</text>
</g>
<!-- 4&#45;&gt;13 -->
<g id="edge16" class="edge"><title>4&#45;&gt;13</title>
<path fill="none" stroke="red" d="M196.986,-350.589C188.353,-330.103 165.822,-276.639 152.274,-244.491"/>
<polygon fill="red" stroke="red" points="155.492,-243.114 148.384,-235.258 149.042,-245.832 155.492,-243.114"/>
</g>
<!-- 22 -->
<g id="node9" class="node"><title>22</title>
<ellipse fill="none" stroke="black" cx="133.5" cy="-290.693" rx="18.2703" ry="18.2703"/>
<text text-anchor="middle" x="133.5" y="-288.493" font-family="Times New Roman,serif" font-size="9.00">22</text>
</g>
<!-- 8&#45;&gt;22 -->
<g id="edge7" class="edge"><title>8&#45;&gt;22</title>
<path fill="none" stroke="red" d="M132.707,-344.997C132.816,-337.668 132.954,-328.412 133.084,-319.679"/>
<polygon fill="red" stroke="red" points="136.587,-319.5 133.236,-309.449 129.587,-319.396 136.587,-319.5"/>
</g>
<!-- 9&#45;&gt;13 -->
<g id="edge6" class="edge"><title>9&#45;&gt;13</title>
<path fill="none" stroke="green" d="M211.576,-280.149C199.073,-269.226 178.302,-251.078 162.612,-237.369"/>
<polygon fill="green" stroke="green" points="164.774,-234.611 154.941,-230.667 160.169,-239.882 164.774,-234.611"/>
</g>
<!-- 24 -->
<g id="node11" class="node"><title>24</title>
<ellipse fill="none" stroke="black" cx="213.5" cy="-217.924" rx="18.2703" ry="18.2703"/>
<text text-anchor="middle" x="213.5" y="-215.724" font-family="Times New Roman,serif" font-size="9.00">24</text>
</g>
<!-- 9&#45;&gt;24 -->
<g id="edge13" class="edge"><title>9&#45;&gt;24</title>
<path fill="none" stroke="red" d="M220.722,-275.712C219.657,-267.341 218.267,-256.41 216.991,-246.376"/>
<polygon fill="red" stroke="red" points="220.455,-245.868 215.721,-236.389 213.511,-246.751 220.455,-245.868"/>
</g>
<!-- 6&#45;&gt;5 -->
<g id="edge12" class="edge"><title>6&#45;&gt;5</title>
<path fill="none" stroke="green" d="M172.497,-63.1062C157.628,-52.8508 132.116,-35.2547 114.56,-23.1457"/>
<polygon fill="green" stroke="green" points="116.421,-20.1781 106.202,-17.3816 112.447,-25.9404 116.421,-20.1781"/>
</g>
<!-- 22&#45;&gt;13 -->
<g id="edge8" class="edge"><title>22&#45;&gt;13</title>
<path fill="none" stroke="green" d="M135.478,-272.2C136.359,-264.401 137.419,-255.029 138.401,-246.334"/>
<polygon fill="green" stroke="green" points="141.9,-246.546 139.545,-236.216 134.944,-245.76 141.9,-246.546"/>
</g>
<!-- 13&#45;&gt;30 -->
<g id="edge9" class="edge"><title>13&#45;&gt;30</title>
<path fill="none" stroke="red" d="M131.745,-201.915C125.646,-192.533 117.662,-180.251 110.741,-169.602"/>
<polygon fill="red" stroke="red" points="113.626,-167.618 105.241,-161.141 107.757,-171.433 113.626,-167.618"/>
</g>
<!-- 24&#45;&gt;5 -->
<g id="edge14" class="edge"><title>24&#45;&gt;5</title>
<path fill="none" stroke="red" d="M199.929,-204.889C189.147,-194.739 174.301,-179.37 164.5,-163.539 137.053,-119.208 145.566,-100.76 122.5,-54 117.883,-44.6411 111.881,-34.6932 106.708,-26.6283"/>
<polygon fill="red" stroke="red" points="109.568,-24.6069 101.15,-18.1738 103.719,-28.4524 109.568,-24.6069"/>
</g>
<!-- 21 -->
<g id="node13" class="node"><title>21</title>
<ellipse fill="none" stroke="black" cx="95.5" cy="-72.3848" rx="18.2703" ry="18.2703"/>
<text text-anchor="middle" x="95.5" y="-70.1848" font-family="Times New Roman,serif" font-size="9.00">21</text>
</g>
<!-- 30&#45;&gt;21 -->
<g id="edge10" class="edge"><title>30&#45;&gt;21</title>
<path fill="none" stroke="red" d="M95.5,-126.661C95.5,-118.978 95.5,-109.769 95.5,-101.185"/>
<polygon fill="red" stroke="red" points="99.0001,-101.169 95.5,-91.1687 92.0001,-101.169 99.0001,-101.169"/>
</g>
<!-- 21&#45;&gt;5 -->
<g id="edge5" class="edge"><title>21&#45;&gt;5</title>
<path fill="none" stroke="green" d="M95.5,-53.9586C95.5,-45.9601 95.5,-36.4732 95.5,-28.3636"/>
<polygon fill="green" stroke="green" points="99.0001,-28.1158 95.5,-18.1158 92.0001,-28.1158 99.0001,-28.1158"/>
</g>
</g>
</svg>
