<?xml version="1.0" encoding="UTF-8" standalone="no"?>
<!DOCTYPE svg PUBLIC "-//W3C//DTD SVG 1.1//EN"
 "http://www.w3.org/Graphics/SVG/1.1/DTD/svg11.dtd">
<!-- Generated by graphviz version 2.38.0 (20140413.2041)
 -->
<!-- Title: %3 Pages: 1 -->
<svg width="441pt" height="1177pt"
 viewBox="0.00 0.00 441.38 1177.20" xmlns="http://www.w3.org/2000/svg" xmlns:xlink="http://www.w3.org/1999/xlink">
<g id="graph0" class="graph" transform="scale(1 1) rotate(0) translate(4 1173.2)">
<title>%3</title>
<polygon fill="white" stroke="none" points="-4,4 -4,-1173.2 437.385,-1173.2 437.385,4 -4,4"/>
<!-- 1 -->
<g id="node1" class="node"><title>1</title>
<polygon fill="lightgray" stroke="black" points="192.885,-1169.2 171.885,-1169.2 171.885,-1151.2 192.885,-1151.2 192.885,-1169.2"/>
<text text-anchor="middle" x="182.385" y="-1158" font-family="Times New Roman,serif" font-size="9.00">1</text>
</g>
<!-- 9 -->
<g id="node7" class="node"><title>9</title>
<ellipse fill="none" stroke="black" cx="182.385" cy="-1096.82" rx="14.7" ry="14.7"/>
<text text-anchor="middle" x="182.385" y="-1094.62" font-family="Times New Roman,serif" font-size="9.00">9</text>
</g>
<!-- 1&#45;&gt;9 -->
<g id="edge34" class="edge"><title>1&#45;&gt;9</title>
<path fill="none" stroke="red" d="M182.385,-1151.18C182.385,-1143.75 182.385,-1132.31 182.385,-1121.93"/>
<polygon fill="red" stroke="red" points="185.885,-1121.71 182.385,-1111.71 178.885,-1121.71 185.885,-1121.71"/>
</g>
<!-- 2 -->
<g id="node2" class="node"><title>2</title>
<polygon fill="lightgray" stroke="black" points="397.885,-1169.2 376.885,-1169.2 376.885,-1151.2 397.885,-1151.2 397.885,-1169.2"/>
<text text-anchor="middle" x="387.385" y="-1158" font-family="Times New Roman,serif" font-size="9.00">2</text>
</g>
<!-- 5 -->
<g id="node5" class="node"><title>5</title>
<polygon fill="lightblue" stroke="black" points="332.885,-18 311.885,-18 311.885,-0 332.885,-0 332.885,-18"/>
<text text-anchor="middle" x="322.385" y="-6.8" font-family="Times New Roman,serif" font-size="9.00">5</text>
</g>
<!-- 2&#45;&gt;5 -->
<g id="edge1" class="edge"><title>2&#45;&gt;5</title>
<path fill="none" stroke="red" d="M393.689,-1150.9C399.858,-1142.38 409.078,-1128.52 414.385,-1115.2 429.537,-1077.16 433.385,-1065.99 433.385,-1025.05 433.385,-1025.05 433.385,-1025.05 433.385,-144.154 433.385,-87.4457 373.78,-41.8099 341.926,-21.4702"/>
<polygon fill="red" stroke="red" points="343.377,-18.2533 333.028,-15.9857 339.704,-24.2123 343.377,-18.2533"/>
</g>
<!-- 14 -->
<g id="node6" class="node"><title>14</title>
<ellipse fill="none" stroke="black" cx="387.385" cy="-1096.82" rx="18.2703" ry="18.2703"/>
<text text-anchor="middle" x="387.385" y="-1094.62" font-family="Times New Roman,serif" font-size="9.00">14</text>
</g>
<!-- 2&#45;&gt;14 -->
<g id="edge38" class="edge"><title>2&#45;&gt;14</title>
<path fill="none" stroke="red" d="M387.385,-1151.18C387.385,-1144.61 387.385,-1134.92 387.385,-1125.59"/>
<polygon fill="red" stroke="red" points="390.885,-1125.4 387.385,-1115.4 383.885,-1125.4 390.885,-1125.4"/>
</g>
<!-- 2&#45;&gt;9 -->
<g id="edge6" class="edge"><title>2&#45;&gt;9</title>
<path fill="none" stroke="green" d="M376.652,-1155.99C344.848,-1146.46 250.559,-1118.23 206.095,-1104.91"/>
<polygon fill="green" stroke="green" points="207.003,-1101.53 196.419,-1102.02 204.995,-1108.24 207.003,-1101.53"/>
</g>
<!-- 3 -->
<g id="node3" class="node"><title>3</title>
<polygon fill="lightgray" stroke="black" points="350.885,-1105.82 329.885,-1105.82 329.885,-1087.82 350.885,-1087.82 350.885,-1105.82"/>
<text text-anchor="middle" x="340.385" y="-1094.62" font-family="Times New Roman,serif" font-size="9.00">3</text>
</g>
<!-- 8 -->
<g id="node9" class="node"><title>8</title>
<ellipse fill="none" stroke="black" cx="387.385" cy="-1024.05" rx="14.7" ry="14.7"/>
<text text-anchor="middle" x="387.385" y="-1021.85" font-family="Times New Roman,serif" font-size="9.00">8</text>
</g>
<!-- 3&#45;&gt;8 -->
<g id="edge7" class="edge"><title>3&#45;&gt;8</title>
<path fill="none" stroke="green" d="M345.776,-1087.7C352.58,-1077.45 364.524,-1059.47 373.874,-1045.39"/>
<polygon fill="green" stroke="green" points="376.948,-1047.09 379.564,-1036.82 371.116,-1043.22 376.948,-1047.09"/>
</g>
<!-- 4 -->
<g id="node4" class="node"><title>4</title>
<polygon fill="lightgray" stroke="black" points="239.885,-1169.2 218.885,-1169.2 218.885,-1151.2 239.885,-1151.2 239.885,-1169.2"/>
<text text-anchor="middle" x="229.385" y="-1158" font-family="Times New Roman,serif" font-size="9.00">4</text>
</g>
<!-- 4&#45;&gt;9 -->
<g id="edge2" class="edge"><title>4&#45;&gt;9</title>
<path fill="none" stroke="red" d="M223.24,-1151.18C216.737,-1142.68 206.226,-1128.95 197.494,-1117.55"/>
<polygon fill="red" stroke="red" points="200.118,-1115.22 191.26,-1109.41 194.56,-1119.47 200.118,-1115.22"/>
</g>
<!-- 6 -->
<g id="node8" class="node"><title>6</title>
<ellipse fill="none" stroke="black" cx="288.385" cy="-1024.05" rx="14.7" ry="14.7"/>
<text text-anchor="middle" x="288.385" y="-1021.85" font-family="Times New Roman,serif" font-size="9.00">6</text>
</g>
<!-- 4&#45;&gt;6 -->
<g id="edge15" class="edge"><title>4&#45;&gt;6</title>
<path fill="none" stroke="green" d="M233.075,-1150.81C242.051,-1130.4 265.26,-1077.63 278.587,-1047.33"/>
<polygon fill="green" stroke="green" points="281.87,-1048.55 282.692,-1037.99 275.463,-1045.73 281.87,-1048.55"/>
</g>
<!-- 14&#45;&gt;8 -->
<g id="edge39" class="edge"><title>14&#45;&gt;8</title>
<path fill="none" stroke="red" d="M387.385,-1078.32C387.385,-1069.52 387.385,-1058.71 387.385,-1049.14"/>
<polygon fill="red" stroke="red" points="390.885,-1049.02 387.385,-1039.02 383.885,-1049.02 390.885,-1049.02"/>
</g>
<!-- 99 -->
<g id="node10" class="node"><title>99</title>
<ellipse fill="none" stroke="black" cx="18.3848" cy="-1024.05" rx="18.2703" ry="18.2703"/>
<text text-anchor="middle" x="18.3848" y="-1021.85" font-family="Times New Roman,serif" font-size="9.00">99</text>
</g>
<!-- 9&#45;&gt;99 -->
<g id="edge43" class="edge"><title>9&#45;&gt;99</title>
<path fill="none" stroke="green" d="M168.675,-1090.86C144.448,-1081.97 92.6355,-1062.37 50.3848,-1042.43 48.0334,-1041.32 45.6117,-1040.12 43.2029,-1038.88"/>
<polygon fill="green" stroke="green" points="44.626,-1035.68 34.1531,-1034.07 41.3403,-1041.86 44.626,-1035.68"/>
</g>
<!-- 33 -->
<g id="node11" class="node"><title>33</title>
<ellipse fill="none" stroke="black" cx="219.385" cy="-1024.05" rx="18.2703" ry="18.2703"/>
<text text-anchor="middle" x="219.385" y="-1021.85" font-family="Times New Roman,serif" font-size="9.00">33</text>
</g>
<!-- 9&#45;&gt;33 -->
<g id="edge5" class="edge"><title>9&#45;&gt;33</title>
<path fill="none" stroke="red" d="M189,-1083.16C193.871,-1073.85 200.65,-1060.88 206.569,-1049.56"/>
<polygon fill="red" stroke="red" points="209.746,-1051.04 211.278,-1040.55 203.543,-1047.79 209.746,-1051.04"/>
</g>
<!-- 24 -->
<g id="node20" class="node"><title>24</title>
<ellipse fill="none" stroke="black" cx="165.385" cy="-587.428" rx="18.2703" ry="18.2703"/>
<text text-anchor="middle" x="165.385" y="-585.228" font-family="Times New Roman,serif" font-size="9.00">24</text>
</g>
<!-- 9&#45;&gt;24 -->
<g id="edge10" class="edge"><title>9&#45;&gt;24</title>
<path fill="none" stroke="red" d="M180.296,-1082C176.621,-1056.45 169.385,-1000.07 169.385,-952.276 169.385,-952.276 169.385,-952.276 169.385,-731.968 169.385,-691.735 167.795,-645.185 166.62,-616.271"/>
<polygon fill="red" stroke="red" points="170.11,-615.947 166.194,-606.102 163.116,-616.24 170.11,-615.947"/>
</g>
<!-- 42 -->
<g id="node32" class="node"><title>42</title>
<ellipse fill="none" stroke="black" cx="64.3848" cy="-72.3848" rx="18.2703" ry="18.2703"/>
<text text-anchor="middle" x="64.3848" y="-70.1848" font-family="Times New Roman,serif" font-size="9.00">42</text>
</g>
<!-- 9&#45;&gt;42 -->
<g id="edge31" class="edge"><title>9&#45;&gt;42</title>
<path fill="none" stroke="red" d="M169.757,-1088.6C139.316,-1070.16 64.3848,-1018.09 64.3848,-952.276 64.3848,-952.276 64.3848,-952.276 64.3848,-216.924 64.3848,-176.707 64.3848,-130.153 64.3848,-101.233"/>
<polygon fill="red" stroke="red" points="67.8849,-101.063 64.3848,-91.063 60.8849,-101.063 67.8849,-101.063"/>
</g>
<!-- 6&#45;&gt;5 -->
<g id="edge3" class="edge"><title>6&#45;&gt;5</title>
<path fill="none" stroke="green" d="M296.205,-1010.93C310.948,-986.901 341.385,-931.042 341.385,-879.507 341.385,-879.507 341.385,-879.507 341.385,-144.154 341.385,-102.336 332.222,-53.9044 326.623,-28.2101"/>
<polygon fill="green" stroke="green" points="329.96,-27.0958 324.347,-18.11 323.131,-28.6349 329.96,-27.0958"/>
</g>
<!-- 66 -->
<g id="node31" class="node"><title>66</title>
<ellipse fill="none" stroke="black" cx="288.385" cy="-951.276" rx="18.2703" ry="18.2703"/>
<text text-anchor="middle" x="288.385" y="-949.076" font-family="Times New Roman,serif" font-size="9.00">66</text>
</g>
<!-- 6&#45;&gt;66 -->
<g id="edge33" class="edge"><title>6&#45;&gt;66</title>
<path fill="none" stroke="red" d="M288.385,-1009.06C288.385,-1000.78 288.385,-989.992 288.385,-980.045"/>
<polygon fill="red" stroke="red" points="291.885,-979.741 288.385,-969.741 284.885,-979.742 291.885,-979.741"/>
</g>
<!-- 13 -->
<g id="node21" class="node"><title>13</title>
<ellipse fill="none" stroke="black" cx="387.385" cy="-951.276" rx="18.2703" ry="18.2703"/>
<text text-anchor="middle" x="387.385" y="-949.076" font-family="Times New Roman,serif" font-size="9.00">13</text>
</g>
<!-- 8&#45;&gt;13 -->
<g id="edge14" class="edge"><title>8&#45;&gt;13</title>
<path fill="none" stroke="red" d="M387.385,-1009.06C387.385,-1000.78 387.385,-989.992 387.385,-980.045"/>
<polygon fill="red" stroke="red" points="390.885,-979.741 387.385,-969.741 383.885,-979.742 390.885,-979.741"/>
</g>
<!-- 73 -->
<g id="node17" class="node"><title>73</title>
<ellipse fill="none" stroke="black" cx="18.3848" cy="-805.737" rx="18.2703" ry="18.2703"/>
<text text-anchor="middle" x="18.3848" y="-803.537" font-family="Times New Roman,serif" font-size="9.00">73</text>
</g>
<!-- 99&#45;&gt;73 -->
<g id="edge44" class="edge"><title>99&#45;&gt;73</title>
<path fill="none" stroke="green" d="M18.3848,-1005.34C18.3848,-967.779 18.3848,-879.831 18.3848,-834.635"/>
<polygon fill="green" stroke="green" points="21.8849,-834.38 18.3848,-824.38 14.8849,-834.38 21.8849,-834.38"/>
</g>
<!-- 96 -->
<g id="node12" class="node"><title>96</title>
<ellipse fill="none" stroke="black" cx="219.385" cy="-951.276" rx="18.2703" ry="18.2703"/>
<text text-anchor="middle" x="219.385" y="-949.076" font-family="Times New Roman,serif" font-size="9.00">96</text>
</g>
<!-- 33&#45;&gt;96 -->
<g id="edge40" class="edge"><title>33&#45;&gt;96</title>
<path fill="none" stroke="green" d="M219.385,-1005.55C219.385,-997.87 219.385,-988.661 219.385,-980.077"/>
<polygon fill="green" stroke="green" points="222.885,-980.06 219.385,-970.06 215.885,-980.06 222.885,-980.06"/>
</g>
<!-- 33&#45;&gt;66 -->
<g id="edge16" class="edge"><title>33&#45;&gt;66</title>
<path fill="none" stroke="red" d="M231.721,-1010.39C241.896,-999.957 256.532,-984.946 268.38,-972.794"/>
<polygon fill="red" stroke="red" points="271.214,-974.901 275.689,-965.298 266.202,-970.014 271.214,-974.901"/>
</g>
<!-- 74 -->
<g id="node13" class="node"><title>74</title>
<ellipse fill="none" stroke="black" cx="219.385" cy="-878.507" rx="18.2703" ry="18.2703"/>
<text text-anchor="middle" x="219.385" y="-876.307" font-family="Times New Roman,serif" font-size="9.00">74</text>
</g>
<!-- 96&#45;&gt;74 -->
<g id="edge41" class="edge"><title>96&#45;&gt;74</title>
<path fill="none" stroke="red" d="M219.385,-932.783C219.385,-925.1 219.385,-915.891 219.385,-907.307"/>
<polygon fill="red" stroke="red" points="222.885,-907.291 219.385,-897.291 215.885,-907.291 222.885,-907.291"/>
</g>
<!-- 65 -->
<g id="node14" class="node"><title>65</title>
<ellipse fill="none" stroke="black" cx="219.385" cy="-805.737" rx="18.2703" ry="18.2703"/>
<text text-anchor="middle" x="219.385" y="-803.537" font-family="Times New Roman,serif" font-size="9.00">65</text>
</g>
<!-- 74&#45;&gt;65 -->
<g id="edge37" class="edge"><title>74&#45;&gt;65</title>
<path fill="none" stroke="red" d="M219.385,-860.013C219.385,-852.331 219.385,-843.122 219.385,-834.537"/>
<polygon fill="red" stroke="red" points="222.885,-834.521 219.385,-824.521 215.885,-834.521 222.885,-834.521"/>
</g>
<!-- 70 -->
<g id="node15" class="node"><title>70</title>
<ellipse fill="none" stroke="black" cx="219.385" cy="-732.968" rx="18.2703" ry="18.2703"/>
<text text-anchor="middle" x="219.385" y="-730.768" font-family="Times New Roman,serif" font-size="9.00">70</text>
</g>
<!-- 65&#45;&gt;70 -->
<g id="edge29" class="edge"><title>65&#45;&gt;70</title>
<path fill="none" stroke="green" d="M219.385,-787.244C219.385,-779.561 219.385,-770.352 219.385,-761.768"/>
<polygon fill="green" stroke="green" points="222.885,-761.751 219.385,-751.752 215.885,-761.752 222.885,-761.751"/>
</g>
<!-- 56 -->
<g id="node16" class="node"><title>56</title>
<ellipse fill="none" stroke="black" cx="219.385" cy="-660.198" rx="18.2703" ry="18.2703"/>
<text text-anchor="middle" x="219.385" y="-657.998" font-family="Times New Roman,serif" font-size="9.00">56</text>
</g>
<!-- 70&#45;&gt;56 -->
<g id="edge30" class="edge"><title>70&#45;&gt;56</title>
<path fill="none" stroke="red" d="M219.385,-714.474C219.385,-706.792 219.385,-697.583 219.385,-688.998"/>
<polygon fill="red" stroke="red" points="222.885,-688.982 219.385,-678.982 215.885,-688.982 222.885,-688.982"/>
</g>
<!-- 50 -->
<g id="node18" class="node"><title>50</title>
<ellipse fill="none" stroke="black" cx="257.385" cy="-587.428" rx="18.2703" ry="18.2703"/>
<text text-anchor="middle" x="257.385" y="-585.228" font-family="Times New Roman,serif" font-size="9.00">50</text>
</g>
<!-- 56&#45;&gt;50 -->
<g id="edge11" class="edge"><title>56&#45;&gt;50</title>
<path fill="none" stroke="red" d="M227.818,-643.492C232.64,-634.513 238.792,-623.055 244.235,-612.919"/>
<polygon fill="red" stroke="red" points="247.328,-614.557 248.975,-604.091 241.161,-611.245 247.328,-614.557"/>
</g>
<!-- 46 -->
<g id="node25" class="node"><title>46</title>
<ellipse fill="none" stroke="black" cx="222.385" cy="-369.12" rx="18.2703" ry="18.2703"/>
<text text-anchor="middle" x="222.385" y="-366.92" font-family="Times New Roman,serif" font-size="9.00">46</text>
</g>
<!-- 56&#45;&gt;46 -->
<g id="edge12" class="edge"><title>56&#45;&gt;46</title>
<path fill="none" stroke="red" d="M219.568,-641.55C220.073,-592.851 221.49,-456.308 222.1,-397.562"/>
<polygon fill="red" stroke="red" points="225.6,-397.573 222.204,-387.537 218.6,-397.5 225.6,-397.573"/>
</g>
<!-- 73&#45;&gt;42 -->
<g id="edge22" class="edge"><title>73&#45;&gt;42</title>
<path fill="none" stroke="red" d="M19.1942,-787.063C20.363,-759.978 22.3848,-706.57 22.3848,-661.198 22.3848,-661.198 22.3848,-661.198 22.3848,-216.924 22.3848,-173.955 39.9359,-126.557 52.3466,-98.4123"/>
<polygon fill="red" stroke="red" points="55.5371,-99.8513 56.4849,-89.2989 49.1634,-96.957 55.5371,-99.8513"/>
</g>
<!-- 51 -->
<g id="node19" class="node"><title>51</title>
<ellipse fill="none" stroke="black" cx="257.385" cy="-514.659" rx="18.2703" ry="18.2703"/>
<text text-anchor="middle" x="257.385" y="-512.459" font-family="Times New Roman,serif" font-size="9.00">51</text>
</g>
<!-- 50&#45;&gt;51 -->
<g id="edge8" class="edge"><title>50&#45;&gt;51</title>
<path fill="none" stroke="green" d="M257.385,-568.935C257.385,-561.253 257.385,-552.043 257.385,-543.459"/>
<polygon fill="green" stroke="green" points="260.885,-543.443 257.385,-533.443 253.885,-543.443 260.885,-543.443"/>
</g>
<!-- 79 -->
<g id="node22" class="node"><title>79</title>
<ellipse fill="none" stroke="black" cx="257.385" cy="-441.889" rx="18.2703" ry="18.2703"/>
<text text-anchor="middle" x="257.385" y="-439.689" font-family="Times New Roman,serif" font-size="9.00">79</text>
</g>
<!-- 51&#45;&gt;79 -->
<g id="edge24" class="edge"><title>51&#45;&gt;79</title>
<path fill="none" stroke="green" d="M257.385,-496.165C257.385,-488.483 257.385,-479.274 257.385,-470.69"/>
<polygon fill="green" stroke="green" points="260.885,-470.673 257.385,-460.673 253.885,-470.673 260.885,-470.673"/>
</g>
<!-- 89 -->
<g id="node23" class="node"><title>89</title>
<ellipse fill="none" stroke="black" cx="165.385" cy="-514.659" rx="18.2703" ry="18.2703"/>
<text text-anchor="middle" x="165.385" y="-512.459" font-family="Times New Roman,serif" font-size="9.00">89</text>
</g>
<!-- 24&#45;&gt;89 -->
<g id="edge26" class="edge"><title>24&#45;&gt;89</title>
<path fill="none" stroke="green" d="M165.385,-568.935C165.385,-561.253 165.385,-552.043 165.385,-543.459"/>
<polygon fill="green" stroke="green" points="168.885,-543.443 165.385,-533.443 161.885,-543.443 168.885,-543.443"/>
</g>
<!-- 38 -->
<g id="node33" class="node"><title>38</title>
<ellipse fill="none" stroke="black" cx="110.385" cy="-514.659" rx="18.2703" ry="18.2703"/>
<text text-anchor="middle" x="110.385" y="-512.459" font-family="Times New Roman,serif" font-size="9.00">38</text>
</g>
<!-- 24&#45;&gt;38 -->
<g id="edge13" class="edge"><title>24&#45;&gt;38</title>
<path fill="none" stroke="green" d="M154.519,-572.447C146.835,-562.56 136.376,-549.102 127.568,-537.77"/>
<polygon fill="green" stroke="green" points="130.128,-535.36 121.228,-529.612 124.601,-539.655 130.128,-535.36"/>
</g>
<!-- 21 -->
<g id="node34" class="node"><title>21</title>
<ellipse fill="none" stroke="black" cx="387.385" cy="-732.968" rx="18.2703" ry="18.2703"/>
<text text-anchor="middle" x="387.385" y="-730.768" font-family="Times New Roman,serif" font-size="9.00">21</text>
</g>
<!-- 13&#45;&gt;21 -->
<g id="edge35" class="edge"><title>13&#45;&gt;21</title>
<path fill="none" stroke="green" d="M387.385,-932.575C387.385,-895.009 387.385,-807.062 387.385,-761.866"/>
<polygon fill="green" stroke="green" points="390.885,-761.61 387.385,-751.61 383.885,-761.61 390.885,-761.61"/>
</g>
<!-- 79&#45;&gt;46 -->
<g id="edge25" class="edge"><title>79&#45;&gt;46</title>
<path fill="none" stroke="green" d="M249.617,-425.183C245.283,-416.419 239.781,-405.294 234.858,-395.341"/>
<polygon fill="green" stroke="green" points="237.944,-393.685 230.373,-386.273 231.669,-396.788 237.944,-393.685"/>
</g>
<!-- 91 -->
<g id="node24" class="node"><title>91</title>
<ellipse fill="none" stroke="black" cx="165.385" cy="-441.889" rx="18.2703" ry="18.2703"/>
<text text-anchor="middle" x="165.385" y="-439.689" font-family="Times New Roman,serif" font-size="9.00">91</text>
</g>
<!-- 89&#45;&gt;91 -->
<g id="edge27" class="edge"><title>89&#45;&gt;91</title>
<path fill="none" stroke="green" d="M165.385,-496.165C165.385,-488.483 165.385,-479.274 165.385,-470.69"/>
<polygon fill="green" stroke="green" points="168.885,-470.673 165.385,-460.673 161.885,-470.673 168.885,-470.673"/>
</g>
<!-- 62 -->
<g id="node26" class="node"><title>62</title>
<ellipse fill="none" stroke="black" cx="165.385" cy="-369.12" rx="18.2703" ry="18.2703"/>
<text text-anchor="middle" x="165.385" y="-366.92" font-family="Times New Roman,serif" font-size="9.00">62</text>
</g>
<!-- 91&#45;&gt;62 -->
<g id="edge28" class="edge"><title>91&#45;&gt;62</title>
<path fill="none" stroke="green" d="M165.385,-423.396C165.385,-415.713 165.385,-406.504 165.385,-397.92"/>
<polygon fill="green" stroke="green" points="168.885,-397.904 165.385,-387.904 161.885,-397.904 168.885,-397.904"/>
</g>
<!-- 107 -->
<g id="node27" class="node"><title>107</title>
<ellipse fill="none" stroke="black" cx="223.385" cy="-293.522" rx="21.4286" ry="21.4286"/>
<text text-anchor="middle" x="223.385" y="-291.322" font-family="Times New Roman,serif" font-size="9.00">107</text>
</g>
<!-- 46&#45;&gt;107 -->
<g id="edge45" class="edge"><title>46&#45;&gt;107</title>
<path fill="none" stroke="red" d="M222.622,-350.678C222.725,-343.063 222.85,-333.901 222.968,-325.207"/>
<polygon fill="red" stroke="red" points="226.471,-325.018 223.107,-314.971 219.471,-324.923 226.471,-325.018"/>
</g>
<!-- 69 -->
<g id="node28" class="node"><title>69</title>
<ellipse fill="none" stroke="black" cx="165.385" cy="-293.522" rx="18.2703" ry="18.2703"/>
<text text-anchor="middle" x="165.385" y="-291.322" font-family="Times New Roman,serif" font-size="9.00">69</text>
</g>
<!-- 46&#45;&gt;69 -->
<g id="edge23" class="edge"><title>46&#45;&gt;69</title>
<path fill="none" stroke="green" d="M211.395,-353.929C203.273,-343.442 192.053,-328.956 182.726,-316.913"/>
<polygon fill="green" stroke="green" points="185.232,-314.432 176.341,-308.669 179.697,-318.718 185.232,-314.432"/>
</g>
<!-- 62&#45;&gt;69 -->
<g id="edge18" class="edge"><title>62&#45;&gt;69</title>
<path fill="none" stroke="green" d="M165.385,-350.678C165.385,-342.216 165.385,-331.844 165.385,-322.328"/>
<polygon fill="green" stroke="green" points="168.885,-322.093 165.385,-312.093 161.885,-322.093 168.885,-322.093"/>
</g>
<!-- 92 -->
<g id="node29" class="node"><title>92</title>
<ellipse fill="none" stroke="black" cx="217.385" cy="-217.924" rx="18.2703" ry="18.2703"/>
<text text-anchor="middle" x="217.385" y="-215.724" font-family="Times New Roman,serif" font-size="9.00">92</text>
</g>
<!-- 107&#45;&gt;92 -->
<g id="edge46" class="edge"><title>107&#45;&gt;92</title>
<path fill="none" stroke="red" d="M221.713,-272.021C221.07,-264.125 220.324,-254.976 219.634,-246.519"/>
<polygon fill="red" stroke="red" points="223.104,-246.007 218.803,-236.325 216.128,-246.576 223.104,-246.007"/>
</g>
<!-- 30 -->
<g id="node30" class="node"><title>30</title>
<ellipse fill="none" stroke="black" cx="204.385" cy="-145.154" rx="18.2703" ry="18.2703"/>
<text text-anchor="middle" x="204.385" y="-142.954" font-family="Times New Roman,serif" font-size="9.00">30</text>
</g>
<!-- 69&#45;&gt;30 -->
<g id="edge19" class="edge"><title>69&#45;&gt;30</title>
<path fill="none" stroke="green" d="M169.935,-275.445C176.657,-250.216 189.303,-202.755 197.262,-172.888"/>
<polygon fill="green" stroke="green" points="200.671,-173.686 199.864,-163.122 193.907,-171.884 200.671,-173.686"/>
</g>
<!-- 92&#45;&gt;30 -->
<g id="edge32" class="edge"><title>92&#45;&gt;30</title>
<path fill="none" stroke="red" d="M214.238,-199.793C212.79,-191.913 211.037,-182.37 209.414,-173.531"/>
<polygon fill="red" stroke="red" points="212.842,-172.823 207.593,-163.62 205.957,-174.087 212.842,-172.823"/>
</g>
<!-- 30&#45;&gt;42 -->
<g id="edge4" class="edge"><title>30&#45;&gt;42</title>
<path fill="none" stroke="red" d="M188.325,-136.036C164.191,-123.837 118.353,-100.666 89.6932,-86.1781"/>
<polygon fill="red" stroke="red" points="91.1921,-83.014 80.6885,-81.6263 88.0341,-89.2612 91.1921,-83.014"/>
</g>
<!-- 47 -->
<g id="node35" class="node"><title>47</title>
<ellipse fill="none" stroke="black" cx="231.385" cy="-72.3848" rx="18.2703" ry="18.2703"/>
<text text-anchor="middle" x="231.385" y="-70.1848" font-family="Times New Roman,serif" font-size="9.00">47</text>
</g>
<!-- 30&#45;&gt;47 -->
<g id="edge42" class="edge"><title>30&#45;&gt;47</title>
<path fill="none" stroke="red" d="M210.647,-127.74C213.884,-119.255 217.91,-108.703 221.551,-99.1602"/>
<polygon fill="red" stroke="red" points="224.862,-100.3 225.157,-89.7096 218.322,-97.8051 224.862,-100.3"/>
</g>
<!-- 66&#45;&gt;5 -->
<g id="edge17" class="edge"><title>66&#45;&gt;5</title>
<path fill="none" stroke="green" d="M291.348,-933.103C295.72,-906.236 303.385,-852.589 303.385,-806.737 303.385,-806.737 303.385,-806.737 303.385,-144.154 303.385,-102.336 312.547,-53.9044 318.147,-28.2101"/>
<polygon fill="green" stroke="green" points="321.639,-28.6349 320.423,-18.11 314.81,-27.0958 321.639,-28.6349"/>
</g>
<!-- 72 -->
<g id="node36" class="node"><title>72</title>
<ellipse fill="none" stroke="black" cx="118.385" cy="-217.924" rx="18.2703" ry="18.2703"/>
<text text-anchor="middle" x="118.385" y="-215.724" font-family="Times New Roman,serif" font-size="9.00">72</text>
</g>
<!-- 38&#45;&gt;72 -->
<g id="edge20" class="edge"><title>38&#45;&gt;72</title>
<path fill="none" stroke="red" d="M110.861,-496.105C112.201,-446.755 116.008,-306.499 117.634,-246.596"/>
<polygon fill="red" stroke="red" points="121.138,-246.478 117.911,-236.386 114.141,-246.288 121.138,-246.478"/>
</g>
<!-- 21&#45;&gt;5 -->
<g id="edge36" class="edge"><title>21&#45;&gt;5</title>
<path fill="none" stroke="red" d="M386.575,-714.294C385.407,-687.208 383.385,-633.8 383.385,-588.428 383.385,-588.428 383.385,-588.428 383.385,-144.154 383.385,-102.198 374.473,-91.363 355.385,-54 350.28,-44.0087 342.91,-33.9198 336.428,-25.9277"/>
<polygon fill="red" stroke="red" points="339.017,-23.5686 329.894,-18.1822 333.667,-28.0824 339.017,-23.5686"/>
</g>
<!-- 47&#45;&gt;5 -->
<g id="edge9" class="edge"><title>47&#45;&gt;5</title>
<path fill="none" stroke="red" d="M246.412,-61.2483C262.001,-50.7324 286.423,-34.2583 303.352,-22.8388"/>
<polygon fill="red" stroke="red" points="305.549,-25.5785 311.882,-17.0847 301.635,-19.7754 305.549,-25.5785"/>
</g>
<!-- 72&#45;&gt;5 -->
<g id="edge21" class="edge"><title>72&#45;&gt;5</title>
<path fill="none" stroke="red" d="M122.873,-200.092C132.421,-167.405 157.777,-94.9616 204.385,-54 232.567,-29.2315 275.989,-17.898 301.556,-13.1173"/>
<polygon fill="red" stroke="red" points="302.355,-16.5317 311.626,-11.4032 301.181,-9.63101 302.355,-16.5317"/>
</g>
</g>
</svg>
