<?xml version="1.0" encoding="UTF-8" standalone="no"?>
<!DOCTYPE svg PUBLIC "-//W3C//DTD SVG 1.1//EN"
 "http://www.w3.org/Graphics/SVG/1.1/DTD/svg11.dtd">
<!-- Generated by graphviz version 2.38.0 (20140413.2041)
 -->
<!-- Title: %3 Pages: 1 -->
<svg width="207pt" height="510pt"
 viewBox="0.00 0.00 207.35 509.55" xmlns="http://www.w3.org/2000/svg" xmlns:xlink="http://www.w3.org/1999/xlink">
<g id="graph0" class="graph" transform="scale(1 1) rotate(0) translate(4 505.546)">
<title>%3</title>
<polygon fill="white" stroke="none" points="-4,4 -4,-505.546 203.349,-505.546 203.349,4 -4,4"/>
<!-- 1 -->
<g id="node1" class="node"><title>1</title>
<polygon fill="lightgray" stroke="black" points="21,-81.3848 0,-81.3848 0,-63.3848 21,-63.3848 21,-81.3848"/>
<text text-anchor="middle" x="10.5" y="-70.1848" font-family="Times New Roman,serif" font-size="9.00">1</text>
</g>
<!-- 5 -->
<g id="node5" class="node"><title>5</title>
<polygon fill="lightblue" stroke="black" points="106,-18 85,-18 85,-0 106,-0 106,-18"/>
<text text-anchor="middle" x="95.5" y="-6.8" font-family="Times New Roman,serif" font-size="9.00">5</text>
</g>
<!-- 1&#45;&gt;5 -->
<g id="edge1" class="edge"><title>1&#45;&gt;5</title>
<path fill="none" stroke="red" d="M21.2653,-63.6104C35.1885,-53.5554 59.6688,-35.8763 76.694,-23.5812"/>
<polygon fill="red" stroke="red" points="78.7642,-26.4034 84.8221,-17.7113 74.666,-20.7285 78.7642,-26.4034"/>
</g>
<!-- 2 -->
<g id="node2" class="node"><title>2</title>
<polygon fill="lightgray" stroke="black" points="195,-154.154 174,-154.154 174,-136.154 195,-136.154 195,-154.154"/>
<text text-anchor="middle" x="184.5" y="-142.954" font-family="Times New Roman,serif" font-size="9.00">2</text>
</g>
<!-- 6 -->
<g id="node8" class="node"><title>6</title>
<ellipse fill="none" stroke="black" cx="184.5" cy="-72.3848" rx="14.7" ry="14.7"/>
<text text-anchor="middle" x="184.5" y="-70.1848" font-family="Times New Roman,serif" font-size="9.00">6</text>
</g>
<!-- 2&#45;&gt;6 -->
<g id="edge10" class="edge"><title>2&#45;&gt;6</title>
<path fill="none" stroke="green" d="M184.5,-136.036C184.5,-126.697 184.5,-110.928 184.5,-97.5468"/>
<polygon fill="green" stroke="green" points="188,-97.4962 184.5,-87.4962 181,-97.4962 188,-97.4962"/>
</g>
<!-- 3 -->
<g id="node3" class="node"><title>3</title>
<polygon fill="lightgray" stroke="black" points="82,-501.546 61,-501.546 61,-483.546 82,-483.546 82,-501.546"/>
<text text-anchor="middle" x="71.5" y="-490.346" font-family="Times New Roman,serif" font-size="9.00">3</text>
</g>
<!-- 3&#45;&gt;5 -->
<g id="edge4" class="edge"><title>3&#45;&gt;5</title>
<path fill="none" stroke="green" d="M69.0616,-483.305C63.3336,-463.194 49.5,-409.917 49.5,-364.463 49.5,-364.463 49.5,-364.463 49.5,-144.154 49.5,-103.206 53.3475,-92.0421 68.5,-54 72.3139,-44.4248 78.1498,-34.5732 83.4214,-26.6258"/>
<polygon fill="green" stroke="green" points="86.3718,-28.5132 89.1956,-18.3016 80.6201,-24.5234 86.3718,-28.5132"/>
</g>
<!-- 8 -->
<g id="node6" class="node"><title>8</title>
<ellipse fill="none" stroke="black" cx="93.5" cy="-432.697" rx="14.7" ry="14.7"/>
<text text-anchor="middle" x="93.5" y="-430.497" font-family="Times New Roman,serif" font-size="9.00">8</text>
</g>
<!-- 3&#45;&gt;8 -->
<g id="edge2" class="edge"><title>3&#45;&gt;8</title>
<path fill="none" stroke="green" d="M74.559,-483.503C77.2229,-476.498 81.2172,-465.995 84.852,-456.437"/>
<polygon fill="green" stroke="green" points="88.1557,-457.596 88.4389,-447.005 81.6128,-455.108 88.1557,-457.596"/>
</g>
<!-- 4 -->
<g id="node4" class="node"><title>4</title>
<polygon fill="lightgray" stroke="black" points="159,-372.463 138,-372.463 138,-354.463 159,-354.463 159,-372.463"/>
<text text-anchor="middle" x="148.5" y="-361.263" font-family="Times New Roman,serif" font-size="9.00">4</text>
</g>
<!-- 9 -->
<g id="node7" class="node"><title>9</title>
<ellipse fill="none" stroke="black" cx="148.5" cy="-290.693" rx="14.7" ry="14.7"/>
<text text-anchor="middle" x="148.5" y="-288.493" font-family="Times New Roman,serif" font-size="9.00">9</text>
</g>
<!-- 4&#45;&gt;9 -->
<g id="edge3" class="edge"><title>4&#45;&gt;9</title>
<path fill="none" stroke="green" d="M148.5,-354.345C148.5,-345.006 148.5,-329.236 148.5,-315.856"/>
<polygon fill="green" stroke="green" points="152,-315.805 148.5,-305.805 145,-315.805 152,-315.805"/>
</g>
<!-- 22 -->
<g id="node9" class="node"><title>22</title>
<ellipse fill="none" stroke="black" cx="95.5" cy="-363.463" rx="18.2703" ry="18.2703"/>
<text text-anchor="middle" x="95.5" y="-361.263" font-family="Times New Roman,serif" font-size="9.00">22</text>
</g>
<!-- 8&#45;&gt;22 -->
<g id="edge7" class="edge"><title>8&#45;&gt;22</title>
<path fill="none" stroke="red" d="M93.9144,-417.766C94.1324,-410.438 94.4077,-401.182 94.6675,-392.448"/>
<polygon fill="red" stroke="red" points="98.1728,-392.318 94.9718,-382.219 91.1759,-392.11 98.1728,-392.318"/>
</g>
<!-- 13 -->
<g id="node11" class="node"><title>13</title>
<ellipse fill="none" stroke="black" cx="95.5" cy="-217.924" rx="18.2703" ry="18.2703"/>
<text text-anchor="middle" x="95.5" y="-215.724" font-family="Times New Roman,serif" font-size="9.00">13</text>
</g>
<!-- 9&#45;&gt;13 -->
<g id="edge6" class="edge"><title>9&#45;&gt;13</title>
<path fill="none" stroke="green" d="M139.985,-278.323C132.519,-268.355 121.449,-253.572 112.219,-241.248"/>
<polygon fill="green" stroke="green" points="114.986,-239.105 106.19,-233.199 109.383,-243.301 114.986,-239.105"/>
</g>
<!-- 24 -->
<g id="node12" class="node"><title>24</title>
<ellipse fill="none" stroke="black" cx="150.5" cy="-217.924" rx="18.2703" ry="18.2703"/>
<text text-anchor="middle" x="150.5" y="-215.724" font-family="Times New Roman,serif" font-size="9.00">24</text>
</g>
<!-- 9&#45;&gt;24 -->
<g id="edge12" class="edge"><title>9&#45;&gt;24</title>
<path fill="none" stroke="red" d="M148.895,-275.712C149.129,-267.429 149.434,-256.639 149.715,-246.693"/>
<polygon fill="red" stroke="red" points="153.222,-246.484 150.006,-236.389 146.225,-246.286 153.222,-246.484"/>
</g>
<!-- 6&#45;&gt;5 -->
<g id="edge11" class="edge"><title>6&#45;&gt;5</title>
<path fill="none" stroke="red" d="M172.497,-63.1062C157.628,-52.8508 132.116,-35.2547 114.56,-23.1457"/>
<polygon fill="red" stroke="red" points="116.421,-20.1781 106.202,-17.3816 112.447,-25.9404 116.421,-20.1781"/>
</g>
<!-- 41 -->
<g id="node10" class="node"><title>41</title>
<ellipse fill="none" stroke="black" cx="95.5" cy="-290.693" rx="18.2703" ry="18.2703"/>
<text text-anchor="middle" x="95.5" y="-288.493" font-family="Times New Roman,serif" font-size="9.00">41</text>
</g>
<!-- 22&#45;&gt;41 -->
<g id="edge14" class="edge"><title>22&#45;&gt;41</title>
<path fill="none" stroke="green" d="M95.5,-344.969C95.5,-337.287 95.5,-328.078 95.5,-319.494"/>
<polygon fill="green" stroke="green" points="99.0001,-319.477 95.5,-309.477 92.0001,-319.477 99.0001,-319.477"/>
</g>
<!-- 41&#45;&gt;13 -->
<g id="edge15" class="edge"><title>41&#45;&gt;13</title>
<path fill="none" stroke="green" d="M95.5,-272.2C95.5,-264.518 95.5,-255.308 95.5,-246.724"/>
<polygon fill="green" stroke="green" points="99.0001,-246.708 95.5,-236.708 92.0001,-246.708 99.0001,-246.708"/>
</g>
<!-- 30 -->
<g id="node13" class="node"><title>30</title>
<ellipse fill="none" stroke="black" cx="95.5" cy="-145.154" rx="18.2703" ry="18.2703"/>
<text text-anchor="middle" x="95.5" y="-142.954" font-family="Times New Roman,serif" font-size="9.00">30</text>
</g>
<!-- 13&#45;&gt;30 -->
<g id="edge8" class="edge"><title>13&#45;&gt;30</title>
<path fill="none" stroke="red" d="M95.5,-199.43C95.5,-191.748 95.5,-182.539 95.5,-173.955"/>
<polygon fill="red" stroke="red" points="99.0001,-173.938 95.5,-163.938 92.0001,-173.938 99.0001,-173.938"/>
</g>
<!-- 24&#45;&gt;5 -->
<g id="edge13" class="edge"><title>24&#45;&gt;5</title>
<path fill="none" stroke="red" d="M149.649,-199.232C147.706,-168.69 141.522,-104.492 122.5,-54 118.866,-44.355 113.049,-34.4963 107.743,-26.5623"/>
<polygon fill="red" stroke="red" points="110.523,-24.431 101.91,-18.2607 104.795,-28.4552 110.523,-24.431"/>
</g>
<!-- 21 -->
<g id="node14" class="node"><title>21</title>
<ellipse fill="none" stroke="black" cx="95.5" cy="-72.3848" rx="18.2703" ry="18.2703"/>
<text text-anchor="middle" x="95.5" y="-70.1848" font-family="Times New Roman,serif" font-size="9.00">21</text>
</g>
<!-- 30&#45;&gt;21 -->
<g id="edge9" class="edge"><title>30&#45;&gt;21</title>
<path fill="none" stroke="green" d="M95.5,-126.661C95.5,-118.978 95.5,-109.769 95.5,-101.185"/>
<polygon fill="green" stroke="green" points="99.0001,-101.169 95.5,-91.1687 92.0001,-101.169 99.0001,-101.169"/>
</g>
<!-- 21&#45;&gt;5 -->
<g id="edge5" class="edge"><title>21&#45;&gt;5</title>
<path fill="none" stroke="red" d="M95.5,-53.9586C95.5,-45.9601 95.5,-36.4732 95.5,-28.3636"/>
<polygon fill="red" stroke="red" points="99.0001,-28.1158 95.5,-18.1158 92.0001,-28.1158 99.0001,-28.1158"/>
</g>
</g>
</svg>
