<?xml version="1.0" encoding="UTF-8" standalone="no"?>
<!DOCTYPE svg PUBLIC "-//W3C//DTD SVG 1.1//EN"
 "http://www.w3.org/Graphics/SVG/1.1/DTD/svg11.dtd">
<!-- Generated by graphviz version 2.38.0 (20140413.2041)
 -->
<!-- Title: %3 Pages: 1 -->
<svg width="208pt" height="364pt"
 viewBox="0.00 0.00 208.35 364.01" xmlns="http://www.w3.org/2000/svg" xmlns:xlink="http://www.w3.org/1999/xlink">
<g id="graph0" class="graph" transform="scale(1 1) rotate(0) translate(4 360.007)">
<title>%3</title>
<polygon fill="white" stroke="none" points="-4,4 -4,-360.007 204.349,-360.007 204.349,4 -4,4"/>
<!-- 1 -->
<g id="node1" class="node"><title>1</title>
<polygon fill="lightgray" stroke="black" points="21,-81.3848 0,-81.3848 0,-63.3848 21,-63.3848 21,-81.3848"/>
<text text-anchor="middle" x="10.5" y="-70.1848" font-family="Times New Roman,serif" font-size="9.00">1</text>
</g>
<!-- 5 -->
<g id="node5" class="node"><title>5</title>
<polygon fill="lightblue" stroke="black" points="99,-18 78,-18 78,-0 99,-0 99,-18"/>
<text text-anchor="middle" x="88.5" y="-6.8" font-family="Times New Roman,serif" font-size="9.00">5</text>
</g>
<!-- 1&#45;&gt;5 -->
<g id="edge1" class="edge"><title>1&#45;&gt;5</title>
<path fill="none" stroke="red" d="M19.2289,-63.0597C22.4014,-60.1251 26.0543,-56.8491 29.5,-54 42.5263,-43.229 57.8438,-31.8411 69.6066,-23.3497"/>
<polygon fill="red" stroke="red" points="71.7157,-26.1444 77.812,-17.4791 67.6426,-20.4514 71.7157,-26.1444"/>
</g>
<!-- 2 -->
<g id="node2" class="node"><title>2</title>
<polygon fill="lightgray" stroke="black" points="60,-81.3848 39,-81.3848 39,-63.3848 60,-63.3848 60,-81.3848"/>
<text text-anchor="middle" x="49.5" y="-70.1848" font-family="Times New Roman,serif" font-size="9.00">2</text>
</g>
<!-- 2&#45;&gt;5 -->
<g id="edge2" class="edge"><title>2&#45;&gt;5</title>
<path fill="none" stroke="red" d="M54.5986,-63.3598C60.4637,-54.1283 70.2561,-38.7154 77.8126,-26.8216"/>
<polygon fill="red" stroke="red" points="80.8673,-28.5404 83.2757,-18.2229 74.9589,-24.7865 80.8673,-28.5404"/>
</g>
<!-- 3 -->
<g id="node3" class="node"><title>3</title>
<polygon fill="lightgray" stroke="black" points="122,-356.007 101,-356.007 101,-338.007 122,-338.007 122,-356.007"/>
<text text-anchor="middle" x="111.5" y="-344.807" font-family="Times New Roman,serif" font-size="9.00">3</text>
</g>
<!-- 3&#45;&gt;5 -->
<g id="edge6" class="edge"><title>3&#45;&gt;5</title>
<path fill="none" stroke="green" d="M109.039,-337.843C103.105,-317.415 88.5,-262.361 88.5,-215.388 88.5,-215.388 88.5,-215.388 88.5,-144.154 88.5,-102.75 88.5,-54.1569 88.5,-28.3258"/>
<polygon fill="green" stroke="green" points="92.0001,-28.1667 88.5,-18.1667 85.0001,-28.1668 92.0001,-28.1667"/>
</g>
<!-- 20 -->
<g id="node6" class="node"><title>20</title>
<ellipse fill="none" stroke="black" cx="134.5" cy="-283.622" rx="18.2703" ry="18.2703"/>
<text text-anchor="middle" x="134.5" y="-281.422" font-family="Times New Roman,serif" font-size="9.00">20</text>
</g>
<!-- 3&#45;&gt;20 -->
<g id="edge9" class="edge"><title>3&#45;&gt;20</title>
<path fill="none" stroke="green" d="M114.507,-337.982C117.119,-331.011 121.051,-320.516 124.739,-310.672"/>
<polygon fill="green" stroke="green" points="128.057,-311.793 128.288,-301.201 121.502,-309.337 128.057,-311.793"/>
</g>
<!-- 4 -->
<g id="node4" class="node"><title>4</title>
<polygon fill="lightgray" stroke="black" points="196,-154.154 175,-154.154 175,-136.154 196,-136.154 196,-154.154"/>
<text text-anchor="middle" x="185.5" y="-142.954" font-family="Times New Roman,serif" font-size="9.00">4</text>
</g>
<!-- 9 -->
<g id="node8" class="node"><title>9</title>
<ellipse fill="none" stroke="black" cx="185.5" cy="-72.3848" rx="14.7" ry="14.7"/>
<text text-anchor="middle" x="185.5" y="-70.1848" font-family="Times New Roman,serif" font-size="9.00">9</text>
</g>
<!-- 4&#45;&gt;9 -->
<g id="edge4" class="edge"><title>4&#45;&gt;9</title>
<path fill="none" stroke="green" d="M185.5,-136.036C185.5,-126.697 185.5,-110.928 185.5,-97.5468"/>
<polygon fill="green" stroke="green" points="189,-97.4962 185.5,-87.4962 182,-97.4962 189,-97.4962"/>
</g>
<!-- 8 -->
<g id="node7" class="node"><title>8</title>
<ellipse fill="none" stroke="black" cx="134.5" cy="-214.388" rx="14.7" ry="14.7"/>
<text text-anchor="middle" x="134.5" y="-212.188" font-family="Times New Roman,serif" font-size="9.00">8</text>
</g>
<!-- 20&#45;&gt;8 -->
<g id="edge10" class="edge"><title>20&#45;&gt;8</title>
<path fill="none" stroke="red" d="M134.5,-264.957C134.5,-257.275 134.5,-248.145 134.5,-239.827"/>
<polygon fill="red" stroke="red" points="138,-239.549 134.5,-229.549 131,-239.549 138,-239.549"/>
</g>
<!-- 13 -->
<g id="node9" class="node"><title>13</title>
<ellipse fill="none" stroke="black" cx="134.5" cy="-145.154" rx="18.2703" ry="18.2703"/>
<text text-anchor="middle" x="134.5" y="-142.954" font-family="Times New Roman,serif" font-size="9.00">13</text>
</g>
<!-- 8&#45;&gt;13 -->
<g id="edge3" class="edge"><title>8&#45;&gt;13</title>
<path fill="none" stroke="green" d="M134.5,-199.457C134.5,-192.129 134.5,-182.873 134.5,-174.14"/>
<polygon fill="green" stroke="green" points="138,-173.91 134.5,-163.91 131,-173.91 138,-173.91"/>
</g>
<!-- 9&#45;&gt;5 -->
<g id="edge5" class="edge"><title>9&#45;&gt;5</title>
<path fill="none" stroke="red" d="M173.92,-62.6952C170.023,-59.8522 165.619,-56.726 161.5,-54 143.684,-42.2087 122.745,-29.7227 107.872,-21.0758"/>
<polygon fill="red" stroke="red" points="109.479,-17.9619 99.0684,-15.9939 105.979,-24.0244 109.479,-17.9619"/>
</g>
<!-- 21 -->
<g id="node10" class="node"><title>21</title>
<ellipse fill="none" stroke="black" cx="134.5" cy="-72.3848" rx="18.2703" ry="18.2703"/>
<text text-anchor="middle" x="134.5" y="-70.1848" font-family="Times New Roman,serif" font-size="9.00">21</text>
</g>
<!-- 13&#45;&gt;21 -->
<g id="edge7" class="edge"><title>13&#45;&gt;21</title>
<path fill="none" stroke="red" d="M134.5,-126.661C134.5,-118.978 134.5,-109.769 134.5,-101.185"/>
<polygon fill="red" stroke="red" points="138,-101.169 134.5,-91.1687 131,-101.169 138,-101.169"/>
</g>
<!-- 21&#45;&gt;5 -->
<g id="edge8" class="edge"><title>21&#45;&gt;5</title>
<path fill="none" stroke="green" d="M123.831,-57.1476C116.993,-48.0221 108.089,-36.1412 100.931,-26.5892"/>
<polygon fill="green" stroke="green" points="103.525,-24.2141 94.7277,-18.3105 97.9237,-28.4119 103.525,-24.2141"/>
</g>
</g>
</svg>
